<?xml version="1.0" encoding="UTF-8" standalone="no"?>
<!DOCTYPE svg PUBLIC "-//W3C//DTD SVG 1.1//EN"
 "http://www.w3.org/Graphics/SVG/1.1/DTD/svg11.dtd">
<!-- Generated by graphviz version 2.43.0 (0)
 -->
<!-- Title: derivative_recovery.recoverer.LaplacianRecoverer Pages: 1 -->
<!--zoomable 695 -->
<svg id="main" version="1.1" xmlns="http://www.w3.org/2000/svg" xmlns:xlink="http://www.w3.org/1999/xlink" xml:space="preserve" onload="init(evt)">
<style type="text/css"><![CDATA[
.edge:hover path { stroke: red; }
.edge:hover polygon { stroke: red; fill: red; }
]]></style>
<script type="text/javascript"><![CDATA[
var edges = document.getElementsByTagName('g');
if (edges && edges.length) {
  for (var i=0;i<edges.length;i++) {
    if (edges[i].id.substr(0,4)=='edge') {
      edges[i].setAttribute('class','edge');
    }
  }
}
]]></script>
        <defs>
                <circle id="rim" cx="0" cy="0" r="7"/>
                <circle id="rim2" cx="0" cy="0" r="3.5"/>
                <g id="zoomPlus">
                        <use xlink:href="#rim" fill="#404040">
                                <set attributeName="fill" to="#808080" begin="zoomplus.mouseover" end="zoomplus.mouseout"/>
                        </use>
                        <path d="M-4,0h8M0,-4v8" fill="none" stroke="white" stroke-width="1.5" pointer-events="none"/>
                </g>
                <g id="zoomMin">
                        <use xlink:href="#rim" fill="#404040">
                                <set attributeName="fill" to="#808080" begin="zoomminus.mouseover" end="zoomminus.mouseout"/>
                        </use>
                        <path d="M-4,0h8" fill="none" stroke="white" stroke-width="1.5" pointer-events="none"/>
                </g>
                <g id="dirArrow">
                        <path fill="none" stroke="white" stroke-width="1.5" d="M0,-3.0v7 M-2.5,-0.5L0,-3.0L2.5,-0.5"/>
                </g>
               <g id="resetDef">
                       <use xlink:href="#rim2" fill="#404040">
                               <set attributeName="fill" to="#808080" begin="reset.mouseover" end="reset.mouseout"/>
                       </use>
               </g>
        </defs>

<script type="text/javascript">
var viewWidth = 1296;
var viewHeight = 695;
var sectionId = 'dynsection-0';
</script>
<script xlink:href="../../svgpan.js"/>
<svg id="graph" class="graph">
<g id="viewport">
<title>derivative_recovery.recoverer.LaplacianRecoverer</title>
<!-- Node1 -->
<g id="node1" class="node">
<title>Node1</title>
<g id="a_node1"><a xlink:title=" ">
<polygon fill="#bfbfbf" stroke="black" points="539.5,-193.5 539.5,-272.5 703.5,-272.5 703.5,-193.5 539.5,-193.5"/>
<text text-anchor="start" x="547.5" y="-260.5" font-family="Helvetica,sans-Serif" font-size="10.00">derivative_recovery.recoverer.</text>
<text text-anchor="middle" x="621.5" y="-249.5" font-family="Helvetica,sans-Serif" font-size="10.00">LaplacianRecoverer</text>
<polyline fill="none" stroke="black" points="539.5,-242.5 703.5,-242.5 "/>
<text text-anchor="middle" x="621.5" y="-230.5" font-family="Helvetica,sans-Serif" font-size="10.00"> </text>
<polyline fill="none" stroke="black" points="539.5,-223.5 703.5,-223.5 "/>
<text text-anchor="start" x="547.5" y="-211.5" font-family="Helvetica,sans-Serif" font-size="10.00">+ __init__()</text>
<text text-anchor="start" x="547.5" y="-200.5" font-family="Helvetica,sans-Serif" font-size="10.00">+ RecoverVelocityLaplacian()</text>
</a>
</g>
</g>
<!-- Node6 -->
<g id="node6" class="node">
<title>Node6</title>
<g id="a_node6"><a xlink:href="../../d8/d53/classderivative__recovery_1_1_l2__projection__recoverer_1_1_l2_projection_laplacian_recoverer.html" target="_top" xlink:title=" ">
<polygon fill="none" stroke="black" points="0,-22.5 0,-134.5 185,-134.5 185,-22.5 0,-22.5"/>
<text text-anchor="start" x="8" y="-122.5" font-family="Helvetica,sans-Serif" font-size="10.00">derivative_recovery.L2</text>
<text text-anchor="start" x="8" y="-111.5" font-family="Helvetica,sans-Serif" font-size="10.00">_projection_recoverer.L2Projection</text>
<text text-anchor="middle" x="92.5" y="-100.5" font-family="Helvetica,sans-Serif" font-size="10.00">LaplacianRecoverer</text>
<polyline fill="none" stroke="black" points="0,-93.5 185,-93.5 "/>
<text text-anchor="start" x="8" y="-81.5" font-family="Helvetica,sans-Serif" font-size="10.00">+ element_type</text>
<text text-anchor="start" x="8" y="-70.5" font-family="Helvetica,sans-Serif" font-size="10.00">+ condition_type</text>
<text text-anchor="start" x="8" y="-59.5" font-family="Helvetica,sans-Serif" font-size="10.00">+ DOFs</text>
<polyline fill="none" stroke="black" points="0,-52.5 185,-52.5 "/>
<text text-anchor="start" x="8" y="-40.5" font-family="Helvetica,sans-Serif" font-size="10.00">+ __init__()</text>
<text text-anchor="start" x="8" y="-29.5" font-family="Helvetica,sans-Serif" font-size="10.00">+ RecoverVelocityLaplacian()</text>
</a>
</g>
</g>
<!-- Node1&#45;&gt;Node6 -->
<g id="edge6" class="edge">
<title>Node1&#45;&gt;Node6</title>
<path fill="none" stroke="midnightblue" d="M529.19,-228.51C439.93,-222.26 302.56,-204.92 193.5,-157 180.14,-151.13 166.96,-143.14 154.75,-134.51"/>
<polygon fill="none" stroke="midnightblue" points="529.08,-232.01 539.29,-229.19 529.54,-225.03 529.08,-232.01"/>
</g>
<!-- Node7 -->
<g id="node7" class="node">
<title>Node7</title>
<g id="a_node7"><a xlink:href="../../de/d4a/classderivative__recovery_1_1pouliot__2012__edge__recoverer_1_1_pouliot2012_edge_laplacian_recoverer.html" target="_top" xlink:title=" ">
<polygon fill="none" stroke="black" points="203,-0.5 203,-156.5 390,-156.5 390,-0.5 203,-0.5"/>
<text text-anchor="start" x="211" y="-144.5" font-family="Helvetica,sans-Serif" font-size="10.00">derivative_recovery.pouliot</text>
<text text-anchor="start" x="211" y="-133.5" font-family="Helvetica,sans-Serif" font-size="10.00">_2012_edge_recoverer.Pouliot2012</text>
<text text-anchor="middle" x="296.5" y="-122.5" font-family="Helvetica,sans-Serif" font-size="10.00">EdgeLaplacianRecoverer</text>
<polyline fill="none" stroke="black" points="203,-115.5 390,-115.5 "/>
<text text-anchor="start" x="211" y="-103.5" font-family="Helvetica,sans-Serif" font-size="10.00">+ element_type</text>
<text text-anchor="start" x="211" y="-92.5" font-family="Helvetica,sans-Serif" font-size="10.00">+ condition_type</text>
<text text-anchor="start" x="211" y="-81.5" font-family="Helvetica,sans-Serif" font-size="10.00">+ DOFs</text>
<text text-anchor="start" x="211" y="-70.5" font-family="Helvetica,sans-Serif" font-size="10.00">+ domain_size</text>
<polyline fill="none" stroke="black" points="203,-63.5 390,-63.5 "/>
<text text-anchor="start" x="211" y="-51.5" font-family="Helvetica,sans-Serif" font-size="10.00">+ __init__()</text>
<text text-anchor="start" x="211" y="-40.5" font-family="Helvetica,sans-Serif" font-size="10.00">+ RecoverVelocityLaplacian()</text>
<text text-anchor="start" x="211" y="-29.5" font-family="Helvetica,sans-Serif" font-size="10.00">+ GetElementType()</text>
<text text-anchor="start" x="211" y="-18.5" font-family="Helvetica,sans-Serif" font-size="10.00">+ GetConditionType()</text>
<text text-anchor="start" x="211" y="-7.5" font-family="Helvetica,sans-Serif" font-size="10.00">+ GetDofs()</text>
</a>
</g>
</g>
<!-- Node1&#45;&gt;Node7 -->
<g id="edge7" class="edge">
<title>Node1&#45;&gt;Node7</title>
<path fill="none" stroke="midnightblue" d="M529.62,-208.45C488.26,-196.01 439.6,-178.77 398.5,-157 395.75,-155.54 392.99,-154.01 390.24,-152.42"/>
<polygon fill="none" stroke="midnightblue" points="528.84,-211.87 539.42,-211.35 530.82,-205.15 528.84,-211.87"/>
</g>
<!-- Node8 -->
<g id="node8" class="node">
<title>Node8</title>
<g id="a_node8"><a xlink:href="../../d8/db7/classderivative__recovery_1_1pouliot__2012__recoverer_1_1_pouliot2012_laplacian_recoverer.html" target="_top" xlink:title=" ">
<polygon fill="none" stroke="black" points="407.5,-17 407.5,-140 611.5,-140 611.5,-17 407.5,-17"/>
<text text-anchor="start" x="415.5" y="-128" font-family="Helvetica,sans-Serif" font-size="10.00">derivative_recovery.pouliot</text>
<text text-anchor="start" x="415.5" y="-117" font-family="Helvetica,sans-Serif" font-size="10.00">_2012_recoverer.Pouliot2012Laplacian</text>
<text text-anchor="middle" x="509.5" y="-106" font-family="Helvetica,sans-Serif" font-size="10.00">Recoverer</text>
<polyline fill="none" stroke="black" points="407.5,-99 611.5,-99 "/>
<text text-anchor="start" x="415.5" y="-87" font-family="Helvetica,sans-Serif" font-size="10.00">+ element_type</text>
<text text-anchor="start" x="415.5" y="-76" font-family="Helvetica,sans-Serif" font-size="10.00">+ condition_type</text>
<text text-anchor="start" x="415.5" y="-65" font-family="Helvetica,sans-Serif" font-size="10.00">+ DOFs</text>
<polyline fill="none" stroke="black" points="407.5,-58 611.5,-58 "/>
<text text-anchor="start" x="415.5" y="-46" font-family="Helvetica,sans-Serif" font-size="10.00">+ __init__()</text>
<text text-anchor="start" x="415.5" y="-35" font-family="Helvetica,sans-Serif" font-size="10.00">+ RecoverVectorLaplacian()</text>
<text text-anchor="start" x="415.5" y="-24" font-family="Helvetica,sans-Serif" font-size="10.00">+ Solve()</text>
</a>
</g>
</g>
<!-- Node1&#45;&gt;Node8 -->
<g id="edge8" class="edge">
<title>Node1&#45;&gt;Node8</title>
<path fill="none" stroke="midnightblue" d="M586.98,-185C576.6,-170.86 565.05,-155.14 554.11,-140.24"/>
<polygon fill="none" stroke="midnightblue" points="584.21,-187.14 592.95,-193.12 589.85,-182.99 584.21,-187.14"/>
</g>
<!-- Node9 -->
<g id="node9" class="node">
<title>Node9</title>
<g id="a_node9"><a xlink:href="../../da/d2d/classderivative__recovery_1_1standard__recoverer_1_1_standard_laplacian_recoverer.html" target="_top" xlink:title=" ">
<polygon fill="none" stroke="black" points="629.5,-39 629.5,-118 839.5,-118 839.5,-39 629.5,-39"/>
<text text-anchor="start" x="637.5" y="-106" font-family="Helvetica,sans-Serif" font-size="10.00">derivative_recovery.standard</text>
<text text-anchor="middle" x="734.5" y="-95" font-family="Helvetica,sans-Serif" font-size="10.00">_recoverer.StandardLaplacianRecoverer</text>
<polyline fill="none" stroke="black" points="629.5,-88 839.5,-88 "/>
<text text-anchor="middle" x="734.5" y="-76" font-family="Helvetica,sans-Serif" font-size="10.00"> </text>
<polyline fill="none" stroke="black" points="629.5,-69 839.5,-69 "/>
<text text-anchor="start" x="637.5" y="-57" font-family="Helvetica,sans-Serif" font-size="10.00">+ __init__()</text>
<text text-anchor="start" x="637.5" y="-46" font-family="Helvetica,sans-Serif" font-size="10.00">+ RecoverVectorLaplacian()</text>
</a>
</g>
</g>
<!-- Node1&#45;&gt;Node9 -->
<g id="edge9" class="edge">
<title>Node1&#45;&gt;Node9</title>
<path fill="none" stroke="midnightblue" d="M656.27,-185.08C672.2,-163.58 690.85,-138.41 705.94,-118.04"/>
<polygon fill="none" stroke="midnightblue" points="653.45,-183 650.31,-193.12 659.07,-187.17 653.45,-183"/>
</g>
<!-- Node10 -->
<g id="node10" class="node">
<title>Node10</title>
<g id="a_node10"><a xlink:href="../../de/dd8/classderivative__recovery_1_1zhang__guo__recoverer_1_1_zhang_guo_direct_laplacian_recoverer.html" target="_top" xlink:title=" ">
<polygon fill="none" stroke="black" points="857.5,-33.5 857.5,-123.5 1077.5,-123.5 1077.5,-33.5 857.5,-33.5"/>
<text text-anchor="start" x="865.5" y="-111.5" font-family="Helvetica,sans-Serif" font-size="10.00">derivative_recovery.zhang</text>
<text text-anchor="start" x="865.5" y="-100.5" font-family="Helvetica,sans-Serif" font-size="10.00">_guo_recoverer.ZhangGuoDirectLaplacian</text>
<text text-anchor="middle" x="967.5" y="-89.5" font-family="Helvetica,sans-Serif" font-size="10.00">Recoverer</text>
<polyline fill="none" stroke="black" points="857.5,-82.5 1077.5,-82.5 "/>
<text text-anchor="middle" x="967.5" y="-70.5" font-family="Helvetica,sans-Serif" font-size="10.00"> </text>
<polyline fill="none" stroke="black" points="857.5,-63.5 1077.5,-63.5 "/>
<text text-anchor="start" x="865.5" y="-51.5" font-family="Helvetica,sans-Serif" font-size="10.00">+ __init__()</text>
<text text-anchor="start" x="865.5" y="-40.5" font-family="Helvetica,sans-Serif" font-size="10.00">+ RecoverVectorLaplacian()</text>
</a>
</g>
</g>
<!-- Node1&#45;&gt;Node10 -->
<g id="edge10" class="edge">
<title>Node1&#45;&gt;Node10</title>
<path fill="none" stroke="midnightblue" d="M713.3,-207.57C755.47,-194.86 805.56,-177.65 848.5,-157 868.05,-147.6 888.23,-135.5 906.28,-123.68"/>
<polygon fill="none" stroke="midnightblue" points="712.18,-204.25 703.59,-210.45 714.17,-210.96 712.18,-204.25"/>
</g>
<!-- Node11 -->
<g id="node11" class="node">
<title>Node11</title>
<g id="a_node11"><a xlink:href="../../d5/d36/classderivative__recovery_1_1zhang__guo__recoverer_1_1_zhang_guo_material_acceleration_and_laplacian_recoverer.html" target="_top" xlink:title=" ">
<polygon fill="none" stroke="black" points="1095.5,-28 1095.5,-129 1287.5,-129 1287.5,-28 1095.5,-28"/>
<text text-anchor="start" x="1103.5" y="-117" font-family="Helvetica,sans-Serif" font-size="10.00">derivative_recovery.zhang</text>
<text text-anchor="start" x="1103.5" y="-106" font-family="Helvetica,sans-Serif" font-size="10.00">_guo_recoverer.ZhangGuoMaterial</text>
<text text-anchor="middle" x="1191.5" y="-95" font-family="Helvetica,sans-Serif" font-size="10.00">AccelerationAndLaplacianRecoverer</text>
<polyline fill="none" stroke="black" points="1095.5,-88 1287.5,-88 "/>
<text text-anchor="middle" x="1191.5" y="-76" font-family="Helvetica,sans-Serif" font-size="10.00"> </text>
<polyline fill="none" stroke="black" points="1095.5,-69 1287.5,-69 "/>
<text text-anchor="start" x="1103.5" y="-57" font-family="Helvetica,sans-Serif" font-size="10.00">+ __init__()</text>
<text text-anchor="start" x="1103.5" y="-46" font-family="Helvetica,sans-Serif" font-size="10.00">+ RecoverMaterialAcceleration()</text>
<text text-anchor="start" x="1103.5" y="-35" font-family="Helvetica,sans-Serif" font-size="10.00">+ RecoverVelocityLaplacian()</text>
</a>
</g>
</g>
<!-- Node1&#45;&gt;Node11 -->
<g id="edge11" class="edge">
<title>Node1&#45;&gt;Node11</title>
<path fill="none" stroke="midnightblue" d="M713.69,-229.88C810.12,-224.78 964.18,-208.41 1086.5,-157 1103.21,-149.98 1119.73,-139.78 1134.55,-129.07"/>
<polygon fill="none" stroke="midnightblue" points="713.48,-226.38 703.67,-230.38 713.83,-233.37 713.48,-226.38"/>
</g>
<!-- Node2 -->
<g id="node2" class="node">
<title>Node2</title>
<g id="a_node2"><a xlink:href="../../da/d63/classderivative__recovery_1_1recoverer_1_1_gradient_recoverer.html" target="_top" xlink:title=" ">
<polygon fill="none" stroke="black" points="436.5,-309.5 436.5,-410.5 616.5,-410.5 616.5,-309.5 436.5,-309.5"/>
<text text-anchor="start" x="444.5" y="-398.5" font-family="Helvetica,sans-Serif" font-size="10.00">derivative_recovery.recoverer.</text>
<text text-anchor="middle" x="526.5" y="-387.5" font-family="Helvetica,sans-Serif" font-size="10.00">GradientRecoverer</text>
<polyline fill="none" stroke="black" points="436.5,-380.5 616.5,-380.5 "/>
<text text-anchor="middle" x="526.5" y="-368.5" font-family="Helvetica,sans-Serif" font-size="10.00"> </text>
<polyline fill="none" stroke="black" points="436.5,-361.5 616.5,-361.5 "/>
<text text-anchor="start" x="444.5" y="-349.5" font-family="Helvetica,sans-Serif" font-size="10.00">+ __init__()</text>
<text text-anchor="start" x="444.5" y="-338.5" font-family="Helvetica,sans-Serif" font-size="10.00">+ RecoverGradientOfVelocity()</text>
<text text-anchor="start" x="444.5" y="-327.5" font-family="Helvetica,sans-Serif" font-size="10.00">+ RecoverPressureGradient()</text>
<text text-anchor="start" x="444.5" y="-316.5" font-family="Helvetica,sans-Serif" font-size="10.00">+ RecoverFluidFractionGradient()</text>
</a>
</g>
</g>
<!-- Node2&#45;&gt;Node1 -->
<g id="edge1" class="edge">
<title>Node2&#45;&gt;Node1</title>
<path fill="none" stroke="midnightblue" d="M570.42,-301.21C577.74,-291.59 585.16,-281.81 592.01,-272.81"/>
<polygon fill="none" stroke="midnightblue" points="567.58,-299.16 564.32,-309.24 573.16,-303.39 567.58,-299.16"/>
</g>
<!-- Node3 -->
<g id="node3" class="node">
<title>Node3</title>
<g id="a_node3"><a xlink:href="../../dc/d30/classderivative__recovery_1_1recoverer_1_1_empty_gradient_recoverer.html" target="_top" xlink:title=" ">
<polygon fill="none" stroke="black" points="472.5,-447.5 472.5,-570.5 652.5,-570.5 652.5,-447.5 472.5,-447.5"/>
<text text-anchor="start" x="480.5" y="-558.5" font-family="Helvetica,sans-Serif" font-size="10.00">derivative_recovery.recoverer.</text>
<text text-anchor="middle" x="562.5" y="-547.5" font-family="Helvetica,sans-Serif" font-size="10.00">EmptyGradientRecoverer</text>
<polyline fill="none" stroke="black" points="472.5,-540.5 652.5,-540.5 "/>
<text text-anchor="middle" x="562.5" y="-528.5" font-family="Helvetica,sans-Serif" font-size="10.00"> </text>
<polyline fill="none" stroke="black" points="472.5,-521.5 652.5,-521.5 "/>
<text text-anchor="start" x="480.5" y="-509.5" font-family="Helvetica,sans-Serif" font-size="10.00">+ __init__()</text>
<text text-anchor="start" x="480.5" y="-498.5" font-family="Helvetica,sans-Serif" font-size="10.00">+ RecoverGradientOfScalar()</text>
<text text-anchor="start" x="480.5" y="-487.5" font-family="Helvetica,sans-Serif" font-size="10.00">+ RecoverGradientOfVector()</text>
<text text-anchor="start" x="480.5" y="-476.5" font-family="Helvetica,sans-Serif" font-size="10.00">+ RecoverGradientOfVelocity()</text>
<text text-anchor="start" x="480.5" y="-465.5" font-family="Helvetica,sans-Serif" font-size="10.00">+ RecoverFluidFractionGradient()</text>
<text text-anchor="start" x="480.5" y="-454.5" font-family="Helvetica,sans-Serif" font-size="10.00">+ RecoverPressureGradient()</text>
</a>
</g>
</g>
<!-- Node3&#45;&gt;Node2 -->
<g id="edge2" class="edge">
<title>Node3&#45;&gt;Node2</title>
<path fill="none" stroke="midnightblue" d="M545.25,-437.58C543.03,-428.52 540.8,-419.39 538.69,-410.76"/>
<polygon fill="none" stroke="midnightblue" points="541.87,-438.48 547.65,-447.36 548.67,-436.82 541.87,-438.48"/>
</g>
<!-- Node4 -->
<g id="node4" class="node">
<title>Node4</title>
<g id="a_node4"><a xlink:href="../../d4/d08/classderivative__recovery_1_1recoverer_1_1_derivatives_recoverer.html" target="_top" xlink:title=" ">
<polygon fill="none" stroke="black" points="539.5,-607.5 539.5,-686.5 703.5,-686.5 703.5,-607.5 539.5,-607.5"/>
<text text-anchor="start" x="547.5" y="-674.5" font-family="Helvetica,sans-Serif" font-size="10.00">derivative_recovery.recoverer.</text>
<text text-anchor="middle" x="621.5" y="-663.5" font-family="Helvetica,sans-Serif" font-size="10.00">DerivativesRecoverer</text>
<polyline fill="none" stroke="black" points="539.5,-656.5 703.5,-656.5 "/>
<text text-anchor="start" x="547.5" y="-644.5" font-family="Helvetica,sans-Serif" font-size="10.00">+ model_part</text>
<text text-anchor="start" x="547.5" y="-633.5" font-family="Helvetica,sans-Serif" font-size="10.00">+ cplusplus_recovery_tool</text>
<polyline fill="none" stroke="black" points="539.5,-626.5 703.5,-626.5 "/>
<text text-anchor="start" x="547.5" y="-614.5" font-family="Helvetica,sans-Serif" font-size="10.00">+ __init__()</text>
</a>
</g>
</g>
<!-- Node4&#45;&gt;Node3 -->
<g id="edge3" class="edge">
<title>Node4&#45;&gt;Node3</title>
<path fill="none" stroke="midnightblue" d="M600.67,-598C596.83,-589.13 592.76,-579.76 588.78,-570.57"/>
<polygon fill="none" stroke="midnightblue" points="597.56,-599.61 604.75,-607.39 603.98,-596.82 597.56,-599.61"/>
</g>
<!-- Node5 -->
<g id="node5" class="node">
<title>Node5</title>
<g id="a_node5"><a xlink:href="../../d1/d02/classderivative__recovery_1_1recoverer_1_1_empty_laplacian_recoverer.html" target="_top" xlink:title=" ">
<polygon fill="none" stroke="black" points="634.5,-315 634.5,-405 798.5,-405 798.5,-315 634.5,-315"/>
<text text-anchor="start" x="642.5" y="-393" font-family="Helvetica,sans-Serif" font-size="10.00">derivative_recovery.recoverer.</text>
<text text-anchor="middle" x="716.5" y="-382" font-family="Helvetica,sans-Serif" font-size="10.00">EmptyLaplacianRecoverer</text>
<polyline fill="none" stroke="black" points="634.5,-375 798.5,-375 "/>
<text text-anchor="middle" x="716.5" y="-363" font-family="Helvetica,sans-Serif" font-size="10.00"> </text>
<polyline fill="none" stroke="black" points="634.5,-356 798.5,-356 "/>
<text text-anchor="start" x="642.5" y="-344" font-family="Helvetica,sans-Serif" font-size="10.00">+ __init__()</text>
<text text-anchor="start" x="642.5" y="-333" font-family="Helvetica,sans-Serif" font-size="10.00">+ RecoverVectorLaplacian()</text>
<text text-anchor="start" x="642.5" y="-322" font-family="Helvetica,sans-Serif" font-size="10.00">+ RecoverVelocityLaplacian()</text>
</a>
</g>
</g>
<!-- Node4&#45;&gt;Node5 -->
<g id="edge5" class="edge">
<title>Node4&#45;&gt;Node5</title>
<path fill="none" stroke="midnightblue" d="M649.17,-598.09C653.66,-589.25 657.99,-579.98 661.5,-571 683.2,-515.55 699.07,-448.55 708.03,-405.38"/>
<polygon fill="none" stroke="midnightblue" points="645.98,-596.63 644.45,-607.12 652.19,-599.88 645.98,-596.63"/>
</g>
<!-- Node5&#45;&gt;Node1 -->
<g id="edge4" class="edge">
<title>Node5&#45;&gt;Node1</title>
<path fill="none" stroke="midnightblue" d="M676.77,-306.73C668.11,-295.32 659.08,-283.45 650.9,-272.69"/>
<polygon fill="none" stroke="midnightblue" points="674.17,-309.09 683.01,-314.93 679.74,-304.85 674.17,-309.09"/>
</g>
</g>
</svg>
        <g id="navigator" transform="translate(0 0)" fill="#404254">
                <rect fill="#f2f5e9" fill-opacity="0.5" stroke="#606060" stroke-width=".5" x="0" y="0" width="60" height="60"/>
                <use id="zoomplus" xlink:href="#zoomPlus" x="17" y="9" onmousedown="handleZoom(evt,'in')"/>
                <use id="zoomminus" xlink:href="#zoomMin" x="42" y="9" onmousedown="handleZoom(evt,'out')"/>
                <use id="reset" xlink:href="#resetDef" x="30" y="36" onmousedown="handleReset()"/>
                <g id="arrowUp" xlink:href="#dirArrow" transform="translate(30 24)" onmousedown="handlePan(0,-1)">
                  <use xlink:href="#rim" fill="#404040">
                        <set attributeName="fill" to="#808080" begin="arrowUp.mouseover" end="arrowUp.mouseout"/>
                  </use>
                  <path fill="none" stroke="white" stroke-width="1.5" d="M0,-3.0v7 M-2.5,-0.5L0,-3.0L2.5,-0.5"/>
                </g>
                <g id="arrowRight" xlink:href="#dirArrow" transform="rotate(90) translate(36 -43)" onmousedown="handlePan(1,0)">
                  <use xlink:href="#rim" fill="#404040">
                        <set attributeName="fill" to="#808080" begin="arrowRight.mouseover" end="arrowRight.mouseout"/>
                  </use>
                  <path fill="none" stroke="white" stroke-width="1.5" d="M0,-3.0v7 M-2.5,-0.5L0,-3.0L2.5,-0.5"/>
                </g>
                <g id="arrowDown" xlink:href="#dirArrow" transform="rotate(180) translate(-30 -48)" onmousedown="handlePan(0,1)">
                  <use xlink:href="#rim" fill="#404040">
                        <set attributeName="fill" to="#808080" begin="arrowDown.mouseover" end="arrowDown.mouseout"/>
                  </use>
                  <path fill="none" stroke="white" stroke-width="1.5" d="M0,-3.0v7 M-2.5,-0.5L0,-3.0L2.5,-0.5"/>
                </g>
                <g id="arrowLeft" xlink:href="#dirArrow" transform="rotate(270) translate(-36 17)" onmousedown="handlePan(-1,0)">
                  <use xlink:href="#rim" fill="#404040">
                        <set attributeName="fill" to="#808080" begin="arrowLeft.mouseover" end="arrowLeft.mouseout"/>
                  </use>
                  <path fill="none" stroke="white" stroke-width="1.5" d="M0,-3.0v7 M-2.5,-0.5L0,-3.0L2.5,-0.5"/>
                </g>
        </g>
        <svg viewBox="0 0 15 15" width="100%" height="30px" preserveAspectRatio="xMaxYMin meet">
         <g id="arrow_out" transform="scale(0.3 0.3)">
          <a xlink:href="classderivative__recovery_1_1recoverer_1_1_laplacian_recoverer__inherit__graph_org.svg" target="_base">
           <rect id="button" ry="5" rx="5" y="6" x="6" height="38" width="38"
                fill="#f2f5e9" fill-opacity="0.5" stroke="#606060" stroke-width="1.0"/>
           <path id="arrow"
             d="M 11.500037,31.436501 C 11.940474,20.09759 22.043105,11.32322 32.158766,21.979434 L 37.068811,17.246167 C 37.068811,17.246167 37.088388,32 37.088388,32 L 22.160133,31.978069 C 22.160133,31.978069 26.997745,27.140456 26.997745,27.140456 C 18.528582,18.264221 13.291696,25.230495 11.500037,31.436501 z"
             style="fill:#404040;"/>
          </a>
         </g>
        </svg>
</svg>
