<?xml version="1.0" encoding="UTF-8" standalone="no"?>
<!DOCTYPE svg PUBLIC "-//W3C//DTD SVG 1.1//EN"
 "http://www.w3.org/Graphics/SVG/1.1/DTD/svg11.dtd">
<!-- Generated by graphviz version 2.43.0 (0)
 -->
<!-- Title: /home/runner/work/Documentation/Documentation/master/applications/SolidMechanicsApplication/custom_elements/beam_elements/beam_element.hpp Pages: 1 -->
<!--zoomable 561 -->
<svg id="main" version="1.1" xmlns="http://www.w3.org/2000/svg" xmlns:xlink="http://www.w3.org/1999/xlink" xml:space="preserve" onload="init(evt)">
<style type="text/css"><![CDATA[
.edge:hover path { stroke: red; }
.edge:hover polygon { stroke: red; fill: red; }
]]></style>
<script type="text/javascript"><![CDATA[
var edges = document.getElementsByTagName('g');
if (edges && edges.length) {
  for (var i=0;i<edges.length;i++) {
    if (edges[i].id.substr(0,4)=='edge') {
      edges[i].setAttribute('class','edge');
    }
  }
}
]]></script>
        <defs>
                <circle id="rim" cx="0" cy="0" r="7"/>
                <circle id="rim2" cx="0" cy="0" r="3.5"/>
                <g id="zoomPlus">
                        <use xlink:href="#rim" fill="#404040">
                                <set attributeName="fill" to="#808080" begin="zoomplus.mouseover" end="zoomplus.mouseout"/>
                        </use>
                        <path d="M-4,0h8M0,-4v8" fill="none" stroke="white" stroke-width="1.5" pointer-events="none"/>
                </g>
                <g id="zoomMin">
                        <use xlink:href="#rim" fill="#404040">
                                <set attributeName="fill" to="#808080" begin="zoomminus.mouseover" end="zoomminus.mouseout"/>
                        </use>
                        <path d="M-4,0h8" fill="none" stroke="white" stroke-width="1.5" pointer-events="none"/>
                </g>
                <g id="dirArrow">
                        <path fill="none" stroke="white" stroke-width="1.5" d="M0,-3.0v7 M-2.5,-0.5L0,-3.0L2.5,-0.5"/>
                </g>
               <g id="resetDef">
                       <use xlink:href="#rim2" fill="#404040">
                               <set attributeName="fill" to="#808080" begin="reset.mouseover" end="reset.mouseout"/>
                       </use>
               </g>
        </defs>

<script type="text/javascript">
var viewWidth = 1220;
var viewHeight = 561;
var sectionId = 'dynsection-1';
</script>
<script xlink:href="../../svgpan.js"/>
<svg id="graph" class="graph">
<g id="viewport">
<title>/home/runner/work/Documentation/Documentation/master/applications/SolidMechanicsApplication/custom_elements/beam_elements/beam_element.hpp</title>
<!-- Node1 -->
<g id="node1" class="node">
<title>Node1</title>
<g id="a_node1"><a xlink:title=" ">
<polygon fill="#bfbfbf" stroke="black" points="675.5,-500.5 675.5,-552.5 922.5,-552.5 922.5,-500.5 675.5,-500.5"/>
<text text-anchor="start" x="683.5" y="-540.5" font-family="Helvetica,sans-Serif" font-size="10.00">/home/runner/work/Documentation</text>
<text text-anchor="start" x="683.5" y="-529.5" font-family="Helvetica,sans-Serif" font-size="10.00">/Documentation/master/applications</text>
<text text-anchor="start" x="683.5" y="-518.5" font-family="Helvetica,sans-Serif" font-size="10.00">/SolidMechanicsApplication/custom</text>
<text text-anchor="middle" x="799" y="-507.5" font-family="Helvetica,sans-Serif" font-size="10.00">_elements/beam_elements/beam_element.hpp</text>
</a>
</g>
</g>
<!-- Node2 -->
<g id="node2" class="node">
<title>Node2</title>
<g id="a_node2"><a xlink:href="../../d2/dd4/beam__element_8cpp.html" target="_top" xlink:title=" ">
<polygon fill="none" stroke="black" points="240,-406 240,-458 486,-458 486,-406 240,-406"/>
<text text-anchor="start" x="248" y="-446" font-family="Helvetica,sans-Serif" font-size="10.00">/home/runner/work/Documentation</text>
<text text-anchor="start" x="248" y="-435" font-family="Helvetica,sans-Serif" font-size="10.00">/Documentation/master/applications</text>
<text text-anchor="start" x="248" y="-424" font-family="Helvetica,sans-Serif" font-size="10.00">/SolidMechanicsApplication/custom</text>
<text text-anchor="middle" x="363" y="-413" font-family="Helvetica,sans-Serif" font-size="10.00">_elements/beam_elements/beam_element.cpp</text>
</a>
</g>
</g>
<!-- Node1&#45;&gt;Node2 -->
<g id="edge1" class="edge">
<title>Node1&#45;&gt;Node2</title>
<path fill="none" stroke="midnightblue" d="M665.49,-499.42C612.36,-488.8 550.71,-476.17 495,-464 486.38,-462.12 477.45,-460.12 468.48,-458.08"/>
<polygon fill="midnightblue" stroke="midnightblue" points="664.82,-502.86 675.31,-501.38 666.19,-495.99 664.82,-502.86"/>
</g>
<!-- Node3 -->
<g id="node3" class="node">
<title>Node3</title>
<g id="a_node3"><a xlink:href="../../d2/da5/large__displacement__beam__element_8hpp.html" target="_top" xlink:title=" ">
<polygon fill="none" stroke="black" points="504,-400.5 504,-463.5 752,-463.5 752,-400.5 504,-400.5"/>
<text text-anchor="start" x="512" y="-451.5" font-family="Helvetica,sans-Serif" font-size="10.00">/home/runner/work/Documentation</text>
<text text-anchor="start" x="512" y="-440.5" font-family="Helvetica,sans-Serif" font-size="10.00">/Documentation/master/applications</text>
<text text-anchor="start" x="512" y="-429.5" font-family="Helvetica,sans-Serif" font-size="10.00">/SolidMechanicsApplication/custom</text>
<text text-anchor="start" x="512" y="-418.5" font-family="Helvetica,sans-Serif" font-size="10.00">_elements/beam_elements/large_displacement</text>
<text text-anchor="middle" x="628" y="-407.5" font-family="Helvetica,sans-Serif" font-size="10.00">_beam_element.hpp</text>
</a>
</g>
</g>
<!-- Node1&#45;&gt;Node3 -->
<g id="edge2" class="edge">
<title>Node1&#45;&gt;Node3</title>
<path fill="none" stroke="midnightblue" d="M743.92,-495.7C724.98,-485.46 703.75,-473.98 684.68,-463.66"/>
<polygon fill="midnightblue" stroke="midnightblue" points="742.26,-498.79 752.72,-500.47 745.59,-492.63 742.26,-498.79"/>
</g>
<!-- Node8 -->
<g id="node8" class="node">
<title>Node8</title>
<g id="a_node8"><a xlink:href="../../d4/d0a/solid__mechanics__application_8h.html" target="_top" xlink:title=" ">
<polygon fill="none" stroke="black" points="474,-106 474,-158 668,-158 668,-106 474,-106"/>
<text text-anchor="start" x="482" y="-146" font-family="Helvetica,sans-Serif" font-size="10.00">/home/runner/work/Documentation</text>
<text text-anchor="start" x="482" y="-135" font-family="Helvetica,sans-Serif" font-size="10.00">/Documentation/master/applications</text>
<text text-anchor="start" x="482" y="-124" font-family="Helvetica,sans-Serif" font-size="10.00">/SolidMechanicsApplication/solid</text>
<text text-anchor="middle" x="571" y="-113" font-family="Helvetica,sans-Serif" font-size="10.00">_mechanics_application.h</text>
</a>
</g>
</g>
<!-- Node1&#45;&gt;Node8 -->
<g id="edge21" class="edge">
<title>Node1&#45;&gt;Node8</title>
<path fill="none" stroke="midnightblue" d="M823.34,-491.85C866.39,-427.87 945.13,-287.27 875,-200 849.27,-167.98 746.92,-150.37 668.01,-141.34"/>
<polygon fill="midnightblue" stroke="midnightblue" points="820.28,-490.13 817.52,-500.36 826.05,-494.08 820.28,-490.13"/>
</g>
<!-- Node16 -->
<g id="node16" class="node">
<title>Node16</title>
<g id="a_node16"><a xlink:href="../../d0/d25/small__displacement__beam__element_8hpp.html" target="_top" xlink:title=" ">
<polygon fill="none" stroke="black" points="922.5,-400.5 922.5,-463.5 1173.5,-463.5 1173.5,-400.5 922.5,-400.5"/>
<text text-anchor="start" x="930.5" y="-451.5" font-family="Helvetica,sans-Serif" font-size="10.00">/home/runner/work/Documentation</text>
<text text-anchor="start" x="930.5" y="-440.5" font-family="Helvetica,sans-Serif" font-size="10.00">/Documentation/master/applications</text>
<text text-anchor="start" x="930.5" y="-429.5" font-family="Helvetica,sans-Serif" font-size="10.00">/SolidMechanicsApplication/custom</text>
<text text-anchor="start" x="930.5" y="-418.5" font-family="Helvetica,sans-Serif" font-size="10.00">_elements/beam_elements/small_displacement</text>
<text text-anchor="middle" x="1048" y="-407.5" font-family="Helvetica,sans-Serif" font-size="10.00">_beam_element.hpp</text>
</a>
</g>
</g>
<!-- Node1&#45;&gt;Node16 -->
<g id="edge18" class="edge">
<title>Node1&#45;&gt;Node16</title>
<path fill="none" stroke="midnightblue" d="M875.86,-496.95C904.26,-486.4 936.57,-474.4 965.46,-463.66"/>
<polygon fill="midnightblue" stroke="midnightblue" points="874.54,-493.7 866.38,-500.47 876.98,-500.27 874.54,-493.7"/>
</g>
<!-- Node4 -->
<g id="node4" class="node">
<title>Node4</title>
<g id="a_node4"><a xlink:href="../../dc/d9c/large__displacement__beam__element_8cpp.html" target="_top" xlink:title=" ">
<polygon fill="none" stroke="black" points="10,-300.5 10,-363.5 258,-363.5 258,-300.5 10,-300.5"/>
<text text-anchor="start" x="18" y="-351.5" font-family="Helvetica,sans-Serif" font-size="10.00">/home/runner/work/Documentation</text>
<text text-anchor="start" x="18" y="-340.5" font-family="Helvetica,sans-Serif" font-size="10.00">/Documentation/master/applications</text>
<text text-anchor="start" x="18" y="-329.5" font-family="Helvetica,sans-Serif" font-size="10.00">/SolidMechanicsApplication/custom</text>
<text text-anchor="start" x="18" y="-318.5" font-family="Helvetica,sans-Serif" font-size="10.00">_elements/beam_elements/large_displacement</text>
<text text-anchor="middle" x="134" y="-307.5" font-family="Helvetica,sans-Serif" font-size="10.00">_beam_element.cpp</text>
</a>
</g>
</g>
<!-- Node3&#45;&gt;Node4 -->
<g id="edge3" class="edge">
<title>Node3&#45;&gt;Node4</title>
<path fill="none" stroke="midnightblue" d="M493.79,-399.82C392.58,-380.53 364.54,-383.04 267,-364 264.09,-363.43 261.15,-362.85 258.18,-362.24"/>
<polygon fill="midnightblue" stroke="midnightblue" points="493.33,-403.3 503.82,-401.76 494.66,-396.42 493.33,-403.3"/>
</g>
<!-- Node5 -->
<g id="node5" class="node">
<title>Node5</title>
<g id="a_node5"><a xlink:href="../../d2/d53/large__displacement__beam__emc__element_8hpp.html" target="_top" xlink:title=" ">
<polygon fill="none" stroke="black" points="276,-300.5 276,-363.5 524,-363.5 524,-300.5 276,-300.5"/>
<text text-anchor="start" x="284" y="-351.5" font-family="Helvetica,sans-Serif" font-size="10.00">/home/runner/work/Documentation</text>
<text text-anchor="start" x="284" y="-340.5" font-family="Helvetica,sans-Serif" font-size="10.00">/Documentation/master/applications</text>
<text text-anchor="start" x="284" y="-329.5" font-family="Helvetica,sans-Serif" font-size="10.00">/SolidMechanicsApplication/custom</text>
<text text-anchor="start" x="284" y="-318.5" font-family="Helvetica,sans-Serif" font-size="10.00">_elements/beam_elements/large_displacement</text>
<text text-anchor="middle" x="400" y="-307.5" font-family="Helvetica,sans-Serif" font-size="10.00">_beam_emc_element.hpp</text>
</a>
</g>
</g>
<!-- Node3&#45;&gt;Node5 -->
<g id="edge4" class="edge">
<title>Node3&#45;&gt;Node5</title>
<path fill="none" stroke="midnightblue" d="M547.38,-396.35C522.48,-385.65 495.26,-373.94 471.05,-363.54"/>
<polygon fill="midnightblue" stroke="midnightblue" points="546.23,-399.66 556.8,-400.4 548.99,-393.23 546.23,-399.66"/>
</g>
<!-- Node3&#45;&gt;Node8 -->
<g id="edge17" class="edge">
<title>Node3&#45;&gt;Node8</title>
<path fill="none" stroke="midnightblue" d="M587.64,-392.62C580.83,-383.92 574.75,-374.21 571,-364 544.97,-293.24 557.17,-201.83 565.49,-158.26"/>
<polygon fill="midnightblue" stroke="midnightblue" points="584.97,-394.88 594.07,-400.31 590.34,-390.39 584.97,-394.88"/>
</g>
<!-- Node14 -->
<g id="node14" class="node">
<title>Node14</title>
<g id="a_node14"><a xlink:href="../../d9/d19/large__displacement__beam__semc__element_8hpp.html" target="_top" xlink:title=" ">
<polygon fill="none" stroke="black" points="580,-300.5 580,-363.5 828,-363.5 828,-300.5 580,-300.5"/>
<text text-anchor="start" x="588" y="-351.5" font-family="Helvetica,sans-Serif" font-size="10.00">/home/runner/work/Documentation</text>
<text text-anchor="start" x="588" y="-340.5" font-family="Helvetica,sans-Serif" font-size="10.00">/Documentation/master/applications</text>
<text text-anchor="start" x="588" y="-329.5" font-family="Helvetica,sans-Serif" font-size="10.00">/SolidMechanicsApplication/custom</text>
<text text-anchor="start" x="588" y="-318.5" font-family="Helvetica,sans-Serif" font-size="10.00">_elements/beam_elements/large_displacement</text>
<text text-anchor="middle" x="704" y="-307.5" font-family="Helvetica,sans-Serif" font-size="10.00">_beam_semc_element.hpp</text>
</a>
</g>
</g>
<!-- Node3&#45;&gt;Node14 -->
<g id="edge14" class="edge">
<title>Node3&#45;&gt;Node14</title>
<path fill="none" stroke="midnightblue" d="M658.16,-392.11C665.5,-382.65 673.25,-372.65 680.25,-363.63"/>
<polygon fill="midnightblue" stroke="midnightblue" points="655.2,-390.21 651.84,-400.26 660.73,-394.5 655.2,-390.21"/>
</g>
<!-- Node6 -->
<g id="node6" class="node">
<title>Node6</title>
<g id="a_node6"><a xlink:href="../../db/d80/geometrically__exact__rod__element_8hpp.html" target="_top" xlink:title=" ">
<polygon fill="none" stroke="black" points="0,-200.5 0,-263.5 220,-263.5 220,-200.5 0,-200.5"/>
<text text-anchor="start" x="8" y="-251.5" font-family="Helvetica,sans-Serif" font-size="10.00">/home/runner/work/Documentation</text>
<text text-anchor="start" x="8" y="-240.5" font-family="Helvetica,sans-Serif" font-size="10.00">/Documentation/master/applications</text>
<text text-anchor="start" x="8" y="-229.5" font-family="Helvetica,sans-Serif" font-size="10.00">/SolidMechanicsApplication/custom</text>
<text text-anchor="start" x="8" y="-218.5" font-family="Helvetica,sans-Serif" font-size="10.00">_elements/beam_elements/geometrically</text>
<text text-anchor="middle" x="110" y="-207.5" font-family="Helvetica,sans-Serif" font-size="10.00">_exact_rod_element.hpp</text>
</a>
</g>
</g>
<!-- Node5&#45;&gt;Node6 -->
<g id="edge5" class="edge">
<title>Node5&#45;&gt;Node6</title>
<path fill="none" stroke="midnightblue" d="M299.55,-297.05C267.32,-286.16 231.84,-274.17 200.38,-263.54"/>
<polygon fill="midnightblue" stroke="midnightblue" points="298.84,-300.51 309.44,-300.4 301.08,-293.88 298.84,-300.51"/>
</g>
<!-- Node5&#45;&gt;Node8 -->
<g id="edge13" class="edge">
<title>Node5&#45;&gt;Node8</title>
<path fill="none" stroke="midnightblue" d="M297.51,-295C285.41,-286.64 274.66,-276.43 267,-264 252.08,-239.78 249.18,-222.17 267,-200 292.73,-167.98 395.08,-150.37 473.99,-141.34"/>
<polygon fill="midnightblue" stroke="midnightblue" points="295.78,-298.04 306.09,-300.49 299.56,-292.15 295.78,-298.04"/>
</g>
<!-- Node13 -->
<g id="node13" class="node">
<title>Node13</title>
<g id="a_node13"><a xlink:href="../../d0/d30/large__displacement__beam__emc__element_8cpp.html" target="_top" xlink:title=" ">
<polygon fill="none" stroke="black" points="276,-200.5 276,-263.5 524,-263.5 524,-200.5 276,-200.5"/>
<text text-anchor="start" x="284" y="-251.5" font-family="Helvetica,sans-Serif" font-size="10.00">/home/runner/work/Documentation</text>
<text text-anchor="start" x="284" y="-240.5" font-family="Helvetica,sans-Serif" font-size="10.00">/Documentation/master/applications</text>
<text text-anchor="start" x="284" y="-229.5" font-family="Helvetica,sans-Serif" font-size="10.00">/SolidMechanicsApplication/custom</text>
<text text-anchor="start" x="284" y="-218.5" font-family="Helvetica,sans-Serif" font-size="10.00">_elements/beam_elements/large_displacement</text>
<text text-anchor="middle" x="400" y="-207.5" font-family="Helvetica,sans-Serif" font-size="10.00">_beam_emc_element.cpp</text>
</a>
</g>
</g>
<!-- Node5&#45;&gt;Node13 -->
<g id="edge12" class="edge">
<title>Node5&#45;&gt;Node13</title>
<path fill="none" stroke="midnightblue" d="M400,-290.1C400,-281.24 400,-272.01 400,-263.63"/>
<polygon fill="midnightblue" stroke="midnightblue" points="396.5,-290.26 400,-300.26 403.5,-290.26 396.5,-290.26"/>
</g>
<!-- Node7 -->
<g id="node7" class="node">
<title>Node7</title>
<g id="a_node7"><a xlink:href="../../d5/d26/geometrically__exact__rod__element_8cpp.html" target="_top" xlink:title=" ">
<polygon fill="none" stroke="black" points="0,-100.5 0,-163.5 220,-163.5 220,-100.5 0,-100.5"/>
<text text-anchor="start" x="8" y="-151.5" font-family="Helvetica,sans-Serif" font-size="10.00">/home/runner/work/Documentation</text>
<text text-anchor="start" x="8" y="-140.5" font-family="Helvetica,sans-Serif" font-size="10.00">/Documentation/master/applications</text>
<text text-anchor="start" x="8" y="-129.5" font-family="Helvetica,sans-Serif" font-size="10.00">/SolidMechanicsApplication/custom</text>
<text text-anchor="start" x="8" y="-118.5" font-family="Helvetica,sans-Serif" font-size="10.00">_elements/beam_elements/geometrically</text>
<text text-anchor="middle" x="110" y="-107.5" font-family="Helvetica,sans-Serif" font-size="10.00">_exact_rod_element.cpp</text>
</a>
</g>
</g>
<!-- Node6&#45;&gt;Node7 -->
<g id="edge6" class="edge">
<title>Node6&#45;&gt;Node7</title>
<path fill="none" stroke="midnightblue" d="M110,-190.1C110,-181.24 110,-172.01 110,-163.63"/>
<polygon fill="midnightblue" stroke="midnightblue" points="106.5,-190.26 110,-200.26 113.5,-190.26 106.5,-190.26"/>
</g>
<!-- Node6&#45;&gt;Node8 -->
<g id="edge7" class="edge">
<title>Node6&#45;&gt;Node8</title>
<path fill="none" stroke="midnightblue" d="M230.14,-200.87C231.44,-200.58 232.72,-200.29 234,-200 314.47,-181.95 406.31,-163.86 473.77,-151.03"/>
<polygon fill="midnightblue" stroke="midnightblue" points="229.1,-197.52 220.14,-203.17 230.67,-204.34 229.1,-197.52"/>
</g>
<!-- Node9 -->
<g id="node9" class="node">
<title>Node9</title>
<g id="a_node9"><a xlink:href="../../dc/d5a/_solid_mechanics_application_2custom__elements_2shell__elements_2shell__thick__element__3_d4_n_8cpp.html" target="_top" xlink:title=" ">
<polygon fill="none" stroke="black" points="149,-0.5 149,-63.5 349,-63.5 349,-0.5 149,-0.5"/>
<text text-anchor="start" x="157" y="-51.5" font-family="Helvetica,sans-Serif" font-size="10.00">/home/runner/work/Documentation</text>
<text text-anchor="start" x="157" y="-40.5" font-family="Helvetica,sans-Serif" font-size="10.00">/Documentation/master/applications</text>
<text text-anchor="start" x="157" y="-29.5" font-family="Helvetica,sans-Serif" font-size="10.00">/SolidMechanicsApplication/custom</text>
<text text-anchor="start" x="157" y="-18.5" font-family="Helvetica,sans-Serif" font-size="10.00">_elements/shell_elements/shell_thick</text>
<text text-anchor="middle" x="249" y="-7.5" font-family="Helvetica,sans-Serif" font-size="10.00">_element_3D4N.cpp</text>
</a>
</g>
</g>
<!-- Node8&#45;&gt;Node9 -->
<g id="edge8" class="edge">
<title>Node8&#45;&gt;Node9</title>
<path fill="none" stroke="midnightblue" d="M478.88,-102.96C438.31,-90.62 390.55,-76.08 349.1,-63.47"/>
<polygon fill="midnightblue" stroke="midnightblue" points="477.91,-106.33 488.5,-105.89 479.95,-99.63 477.91,-106.33"/>
</g>
<!-- Node10 -->
<g id="node10" class="node">
<title>Node10</title>
<g id="a_node10"><a xlink:href="../../da/d5c/_solid_mechanics_application_2custom__elements_2shell__elements_2shell__thin__element__3_d3_n_8cpp.html" target="_top" xlink:title=" ">
<polygon fill="none" stroke="black" points="367.5,-0.5 367.5,-63.5 562.5,-63.5 562.5,-0.5 367.5,-0.5"/>
<text text-anchor="start" x="375.5" y="-51.5" font-family="Helvetica,sans-Serif" font-size="10.00">/home/runner/work/Documentation</text>
<text text-anchor="start" x="375.5" y="-40.5" font-family="Helvetica,sans-Serif" font-size="10.00">/Documentation/master/applications</text>
<text text-anchor="start" x="375.5" y="-29.5" font-family="Helvetica,sans-Serif" font-size="10.00">/SolidMechanicsApplication/custom</text>
<text text-anchor="start" x="375.5" y="-18.5" font-family="Helvetica,sans-Serif" font-size="10.00">_elements/shell_elements/shell_thin</text>
<text text-anchor="middle" x="465" y="-7.5" font-family="Helvetica,sans-Serif" font-size="10.00">_element_3D3N.cpp</text>
</a>
</g>
</g>
<!-- Node8&#45;&gt;Node10 -->
<g id="edge9" class="edge">
<title>Node8&#45;&gt;Node10</title>
<path fill="none" stroke="midnightblue" d="M536.31,-98.93C524.08,-87.62 510.37,-74.94 498.26,-63.75"/>
<polygon fill="midnightblue" stroke="midnightblue" points="533.98,-101.54 543.7,-105.76 538.74,-96.4 533.98,-101.54"/>
</g>
<!-- Node11 -->
<g id="node11" class="node">
<title>Node11</title>
<g id="a_node11"><a xlink:href="../../da/d03/_solid_mechanics_application_2custom__utilities_2shell__cross__section_8cpp.html" target="_top" xlink:title=" ">
<polygon fill="none" stroke="black" points="580,-6 580,-58 774,-58 774,-6 580,-6"/>
<text text-anchor="start" x="588" y="-46" font-family="Helvetica,sans-Serif" font-size="10.00">/home/runner/work/Documentation</text>
<text text-anchor="start" x="588" y="-35" font-family="Helvetica,sans-Serif" font-size="10.00">/Documentation/master/applications</text>
<text text-anchor="start" x="588" y="-24" font-family="Helvetica,sans-Serif" font-size="10.00">/SolidMechanicsApplication/custom</text>
<text text-anchor="middle" x="677" y="-13" font-family="Helvetica,sans-Serif" font-size="10.00">_utilities/shell_cross_section.cpp</text>
</a>
</g>
</g>
<!-- Node8&#45;&gt;Node11 -->
<g id="edge10" class="edge">
<title>Node8&#45;&gt;Node11</title>
<path fill="none" stroke="midnightblue" d="M605.98,-98.66C620.23,-85.48 636.45,-70.49 649.79,-58.15"/>
<polygon fill="midnightblue" stroke="midnightblue" points="603.26,-96.4 598.3,-105.76 608.02,-101.54 603.26,-96.4"/>
</g>
<!-- Node12 -->
<g id="node12" class="node">
<title>Node12</title>
<g id="a_node12"><a xlink:href="../../d2/d54/solid__mechanics__application_8cpp.html" target="_top" xlink:title=" ">
<polygon fill="none" stroke="black" points="792,-6 792,-58 986,-58 986,-6 792,-6"/>
<text text-anchor="start" x="800" y="-46" font-family="Helvetica,sans-Serif" font-size="10.00">/home/runner/work/Documentation</text>
<text text-anchor="start" x="800" y="-35" font-family="Helvetica,sans-Serif" font-size="10.00">/Documentation/master/applications</text>
<text text-anchor="start" x="800" y="-24" font-family="Helvetica,sans-Serif" font-size="10.00">/SolidMechanicsApplication/solid</text>
<text text-anchor="middle" x="889" y="-13" font-family="Helvetica,sans-Serif" font-size="10.00">_mechanics_application.cpp</text>
</a>
</g>
</g>
<!-- Node8&#45;&gt;Node12 -->
<g id="edge11" class="edge">
<title>Node8&#45;&gt;Node12</title>
<path fill="none" stroke="midnightblue" d="M662.13,-102.92C708.05,-88.76 763.27,-71.75 807.73,-58.04"/>
<polygon fill="midnightblue" stroke="midnightblue" points="661.01,-99.6 652.48,-105.89 663.07,-106.29 661.01,-99.6"/>
</g>
<!-- Node14&#45;&gt;Node8 -->
<g id="edge16" class="edge">
<title>Node14&#45;&gt;Node8</title>
<path fill="none" stroke="midnightblue" d="M639.03,-294.21C627.78,-285.49 617.11,-275.37 609,-264 586.11,-231.9 576.92,-186.14 573.29,-158.07"/>
<polygon fill="midnightblue" stroke="midnightblue" points="637.17,-297.18 647.29,-300.3 641.32,-291.55 637.17,-297.18"/>
</g>
<!-- Node15 -->
<g id="node15" class="node">
<title>Node15</title>
<g id="a_node15"><a xlink:href="../../db/d8d/large__displacement__beam__semc__element_8cpp.html" target="_top" xlink:title=" ">
<polygon fill="none" stroke="black" points="618,-200.5 618,-263.5 866,-263.5 866,-200.5 618,-200.5"/>
<text text-anchor="start" x="626" y="-251.5" font-family="Helvetica,sans-Serif" font-size="10.00">/home/runner/work/Documentation</text>
<text text-anchor="start" x="626" y="-240.5" font-family="Helvetica,sans-Serif" font-size="10.00">/Documentation/master/applications</text>
<text text-anchor="start" x="626" y="-229.5" font-family="Helvetica,sans-Serif" font-size="10.00">/SolidMechanicsApplication/custom</text>
<text text-anchor="start" x="626" y="-218.5" font-family="Helvetica,sans-Serif" font-size="10.00">_elements/beam_elements/large_displacement</text>
<text text-anchor="middle" x="742" y="-207.5" font-family="Helvetica,sans-Serif" font-size="10.00">_beam_semc_element.cpp</text>
</a>
</g>
</g>
<!-- Node14&#45;&gt;Node15 -->
<g id="edge15" class="edge">
<title>Node14&#45;&gt;Node15</title>
<path fill="none" stroke="midnightblue" d="M719.64,-290.68C723.14,-281.64 726.8,-272.2 730.12,-263.63"/>
<polygon fill="midnightblue" stroke="midnightblue" points="716.27,-289.67 715.92,-300.26 722.8,-292.2 716.27,-289.67"/>
</g>
<!-- Node16&#45;&gt;Node8 -->
<g id="edge20" class="edge">
<title>Node16&#45;&gt;Node8</title>
<path fill="none" stroke="midnightblue" d="M981.96,-394.28C970.68,-385.58 960.03,-375.45 952,-364 908.66,-302.22 963.09,-251.58 908,-200 873.87,-168.05 755.19,-150.1 668.29,-141"/>
<polygon fill="midnightblue" stroke="midnightblue" points="980.12,-397.27 990.25,-400.36 984.26,-391.62 980.12,-397.27"/>
</g>
<!-- Node17 -->
<g id="node17" class="node">
<title>Node17</title>
<g id="a_node17"><a xlink:href="../../d3/dc6/small__displacement__beam__element_8cpp.html" target="_top" xlink:title=" ">
<polygon fill="none" stroke="black" points="960.5,-300.5 960.5,-363.5 1211.5,-363.5 1211.5,-300.5 960.5,-300.5"/>
<text text-anchor="start" x="968.5" y="-351.5" font-family="Helvetica,sans-Serif" font-size="10.00">/home/runner/work/Documentation</text>
<text text-anchor="start" x="968.5" y="-340.5" font-family="Helvetica,sans-Serif" font-size="10.00">/Documentation/master/applications</text>
<text text-anchor="start" x="968.5" y="-329.5" font-family="Helvetica,sans-Serif" font-size="10.00">/SolidMechanicsApplication/custom</text>
<text text-anchor="start" x="968.5" y="-318.5" font-family="Helvetica,sans-Serif" font-size="10.00">_elements/beam_elements/small_displacement</text>
<text text-anchor="middle" x="1086" y="-307.5" font-family="Helvetica,sans-Serif" font-size="10.00">_beam_element.cpp</text>
</a>
</g>
</g>
<!-- Node16&#45;&gt;Node17 -->
<g id="edge19" class="edge">
<title>Node16&#45;&gt;Node17</title>
<path fill="none" stroke="midnightblue" d="M1063.64,-390.68C1067.14,-381.64 1070.8,-372.2 1074.12,-363.63"/>
<polygon fill="midnightblue" stroke="midnightblue" points="1060.27,-389.67 1059.92,-400.26 1066.8,-392.2 1060.27,-389.67"/>
</g>
</g>
</svg>
        <g id="navigator" transform="translate(0 0)" fill="#404254">
                <rect fill="#f2f5e9" fill-opacity="0.5" stroke="#606060" stroke-width=".5" x="0" y="0" width="60" height="60"/>
                <use id="zoomplus" xlink:href="#zoomPlus" x="17" y="9" onmousedown="handleZoom(evt,'in')"/>
                <use id="zoomminus" xlink:href="#zoomMin" x="42" y="9" onmousedown="handleZoom(evt,'out')"/>
                <use id="reset" xlink:href="#resetDef" x="30" y="36" onmousedown="handleReset()"/>
                <g id="arrowUp" xlink:href="#dirArrow" transform="translate(30 24)" onmousedown="handlePan(0,-1)">
                  <use xlink:href="#rim" fill="#404040">
                        <set attributeName="fill" to="#808080" begin="arrowUp.mouseover" end="arrowUp.mouseout"/>
                  </use>
                  <path fill="none" stroke="white" stroke-width="1.5" d="M0,-3.0v7 M-2.5,-0.5L0,-3.0L2.5,-0.5"/>
                </g>
                <g id="arrowRight" xlink:href="#dirArrow" transform="rotate(90) translate(36 -43)" onmousedown="handlePan(1,0)">
                  <use xlink:href="#rim" fill="#404040">
                        <set attributeName="fill" to="#808080" begin="arrowRight.mouseover" end="arrowRight.mouseout"/>
                  </use>
                  <path fill="none" stroke="white" stroke-width="1.5" d="M0,-3.0v7 M-2.5,-0.5L0,-3.0L2.5,-0.5"/>
                </g>
                <g id="arrowDown" xlink:href="#dirArrow" transform="rotate(180) translate(-30 -48)" onmousedown="handlePan(0,1)">
                  <use xlink:href="#rim" fill="#404040">
                        <set attributeName="fill" to="#808080" begin="arrowDown.mouseover" end="arrowDown.mouseout"/>
                  </use>
                  <path fill="none" stroke="white" stroke-width="1.5" d="M0,-3.0v7 M-2.5,-0.5L0,-3.0L2.5,-0.5"/>
                </g>
                <g id="arrowLeft" xlink:href="#dirArrow" transform="rotate(270) translate(-36 17)" onmousedown="handlePan(-1,0)">
                  <use xlink:href="#rim" fill="#404040">
                        <set attributeName="fill" to="#808080" begin="arrowLeft.mouseover" end="arrowLeft.mouseout"/>
                  </use>
                  <path fill="none" stroke="white" stroke-width="1.5" d="M0,-3.0v7 M-2.5,-0.5L0,-3.0L2.5,-0.5"/>
                </g>
        </g>
        <svg viewBox="0 0 15 15" width="100%" height="30px" preserveAspectRatio="xMaxYMin meet">
         <g id="arrow_out" transform="scale(0.3 0.3)">
          <a xlink:href="beam__element_8hpp__dep__incl_org.svg" target="_base">
           <rect id="button" ry="5" rx="5" y="6" x="6" height="38" width="38"
                fill="#f2f5e9" fill-opacity="0.5" stroke="#606060" stroke-width="1.0"/>
           <path id="arrow"
             d="M 11.500037,31.436501 C 11.940474,20.09759 22.043105,11.32322 32.158766,21.979434 L 37.068811,17.246167 C 37.068811,17.246167 37.088388,32 37.088388,32 L 22.160133,31.978069 C 22.160133,31.978069 26.997745,27.140456 26.997745,27.140456 C 18.528582,18.264221 13.291696,25.230495 11.500037,31.436501 z"
             style="fill:#404040;"/>
          </a>
         </g>
        </svg>
</svg>
