<?xml version="1.0" encoding="UTF-8" standalone="no"?>
<!DOCTYPE svg PUBLIC "-//W3C//DTD SVG 1.1//EN"
 "http://www.w3.org/Graphics/SVG/1.1/DTD/svg11.dtd">
<!-- Generated by graphviz version 2.43.0 (0)
 -->
<!-- Title: /home/runner/work/Documentation/Documentation/master/kratos/utilities/single_import_model_part.h Pages: 1 -->
<svg width="630pt" height="139pt"
 viewBox="0.00 0.00 629.50 139.00" xmlns="http://www.w3.org/2000/svg" xmlns:xlink="http://www.w3.org/1999/xlink">
<g id="graph0" class="graph" transform="scale(1 1) rotate(0) translate(4 135)">
<title>/home/runner/work/Documentation/Documentation/master/kratos/utilities/single_import_model_part.h</title>
<!-- Node1 -->
<g id="node1" class="node">
<title>Node1</title>
<g id="a_node1"><a xlink:title=" ">
<polygon fill="#bfbfbf" stroke="black" points="225,-89.5 225,-130.5 421,-130.5 421,-89.5 225,-89.5"/>
<text text-anchor="start" x="233" y="-118.5" font-family="Helvetica,sans-Serif" font-size="10.00">/home/runner/work/Documentation</text>
<text text-anchor="start" x="233" y="-107.5" font-family="Helvetica,sans-Serif" font-size="10.00">/Documentation/master/kratos</text>
<text text-anchor="middle" x="323" y="-96.5" font-family="Helvetica,sans-Serif" font-size="10.00">/utilities/single_import_model_part.h</text>
</a>
</g>
</g>
<!-- Node2 -->
<g id="node2" class="node">
<title>Node2</title>
<g id="a_node2"><a xlink:href="../../dc/df9/serial__model__part__combinator__modeler_8cpp.html" target="_top" xlink:title=" ">
<polygon fill="none" stroke="black" points="0,-0.5 0,-52.5 212,-52.5 212,-0.5 0,-0.5"/>
<text text-anchor="start" x="8" y="-40.5" font-family="Helvetica,sans-Serif" font-size="10.00">/home/runner/work/Documentation</text>
<text text-anchor="start" x="8" y="-29.5" font-family="Helvetica,sans-Serif" font-size="10.00">/Documentation/master/kratos</text>
<text text-anchor="start" x="8" y="-18.5" font-family="Helvetica,sans-Serif" font-size="10.00">/modeler/serial_model_part_combinator</text>
<text text-anchor="middle" x="106" y="-7.5" font-family="Helvetica,sans-Serif" font-size="10.00">_modeler.cpp</text>
</a>
</g>
</g>
<!-- Node1&#45;&gt;Node2 -->
<g id="edge1" class="edge">
<title>Node1&#45;&gt;Node2</title>
<path fill="none" stroke="midnightblue" d="M261.46,-85.89C233.78,-75.49 201.04,-63.2 172.77,-52.58"/>
<polygon fill="midnightblue" stroke="midnightblue" points="260.43,-89.24 271.02,-89.48 262.89,-82.69 260.43,-89.24"/>
</g>
<!-- Node3 -->
<g id="node3" class="node">
<title>Node3</title>
<g id="a_node3"><a xlink:href="../../d6/d00/add__other__utilities__to__python_8cpp.html" target="_top" xlink:title=" ">
<polygon fill="none" stroke="black" points="229.5,-0.5 229.5,-52.5 416.5,-52.5 416.5,-0.5 229.5,-0.5"/>
<text text-anchor="start" x="237.5" y="-40.5" font-family="Helvetica,sans-Serif" font-size="10.00">/home/runner/work/Documentation</text>
<text text-anchor="start" x="237.5" y="-29.5" font-family="Helvetica,sans-Serif" font-size="10.00">/Documentation/master/kratos</text>
<text text-anchor="start" x="237.5" y="-18.5" font-family="Helvetica,sans-Serif" font-size="10.00">/python/add_other_utilities</text>
<text text-anchor="middle" x="323" y="-7.5" font-family="Helvetica,sans-Serif" font-size="10.00">_to_python.cpp</text>
</a>
</g>
</g>
<!-- Node1&#45;&gt;Node3 -->
<g id="edge2" class="edge">
<title>Node1&#45;&gt;Node3</title>
<path fill="none" stroke="midnightblue" d="M323,-79.12C323,-70.41 323,-60.99 323,-52.61"/>
<polygon fill="midnightblue" stroke="midnightblue" points="319.5,-79.27 323,-89.27 326.5,-79.27 319.5,-79.27"/>
</g>
<!-- Node4 -->
<g id="node4" class="node">
<title>Node4</title>
<g id="a_node4"><a xlink:href="../../d9/db4/single__import__model__part_8cpp.html" target="_top" xlink:title=" ">
<polygon fill="none" stroke="black" points="434.5,-0.5 434.5,-52.5 621.5,-52.5 621.5,-0.5 434.5,-0.5"/>
<text text-anchor="start" x="442.5" y="-40.5" font-family="Helvetica,sans-Serif" font-size="10.00">/home/runner/work/Documentation</text>
<text text-anchor="start" x="442.5" y="-29.5" font-family="Helvetica,sans-Serif" font-size="10.00">/Documentation/master/kratos</text>
<text text-anchor="start" x="442.5" y="-18.5" font-family="Helvetica,sans-Serif" font-size="10.00">/utilities/single_import_model</text>
<text text-anchor="middle" x="528" y="-7.5" font-family="Helvetica,sans-Serif" font-size="10.00">_part.cpp</text>
</a>
</g>
</g>
<!-- Node1&#45;&gt;Node4 -->
<g id="edge3" class="edge">
<title>Node1&#45;&gt;Node4</title>
<path fill="none" stroke="midnightblue" d="M381.48,-85.75C407.56,-75.38 438.33,-63.15 464.92,-52.58"/>
<polygon fill="midnightblue" stroke="midnightblue" points="380.1,-82.53 372.1,-89.48 382.69,-89.04 380.1,-82.53"/>
</g>
</g>
</svg>
