<?xml version="1.0" encoding="UTF-8" standalone="no"?>
<!DOCTYPE svg PUBLIC "-//W3C//DTD SVG 1.1//EN"
 "http://www.w3.org/Graphics/SVG/1.1/DTD/svg11.dtd">
<!-- Generated by graphviz version 2.43.0 (0)
 -->
<!-- Title: /home/runner/work/Documentation/Documentation/master/applications/MeshingApplication/custom_utilities/local_refine_tetrahedra_mesh.hpp Pages: 1 -->
<svg width="518pt" height="350pt"
 viewBox="0.00 0.00 518.01 350.00" xmlns="http://www.w3.org/2000/svg" xmlns:xlink="http://www.w3.org/1999/xlink">
<g id="graph0" class="graph" transform="scale(1 1) rotate(0) translate(4 346)">
<title>/home/runner/work/Documentation/Documentation/master/applications/MeshingApplication/custom_utilities/local_refine_tetrahedra_mesh.hpp</title>
<!-- Node1 -->
<g id="node1" class="node">
<title>Node1</title>
<g id="a_node1"><a xlink:title=" ">
<polygon fill="#bfbfbf" stroke="black" points="19.01,-289.5 19.01,-341.5 216.01,-341.5 216.01,-289.5 19.01,-289.5"/>
<text text-anchor="start" x="27.01" y="-329.5" font-family="Helvetica,sans-Serif" font-size="10.00">/home/runner/work/Documentation</text>
<text text-anchor="start" x="27.01" y="-318.5" font-family="Helvetica,sans-Serif" font-size="10.00">/Documentation/master/applications</text>
<text text-anchor="start" x="27.01" y="-307.5" font-family="Helvetica,sans-Serif" font-size="10.00">/MeshingApplication/custom_utilities</text>
<text text-anchor="middle" x="117.51" y="-296.5" font-family="Helvetica,sans-Serif" font-size="10.00">/local_refine_tetrahedra_mesh.hpp</text>
</a>
</g>
</g>
<!-- Node2 -->
<g id="node2" class="node">
<title>Node2</title>
<g id="a_node2"><a xlink:href="../../d4/d31/_meshing_application_2custom__python_2add__custom__utilities__to__python_8cpp.html" target="_top" xlink:title=" ">
<polygon fill="none" stroke="black" points="58.01,-0.5 58.01,-52.5 253.01,-52.5 253.01,-0.5 58.01,-0.5"/>
<text text-anchor="start" x="66.01" y="-40.5" font-family="Helvetica,sans-Serif" font-size="10.00">/home/runner/work/Documentation</text>
<text text-anchor="start" x="66.01" y="-29.5" font-family="Helvetica,sans-Serif" font-size="10.00">/Documentation/master/applications</text>
<text text-anchor="start" x="66.01" y="-18.5" font-family="Helvetica,sans-Serif" font-size="10.00">/MeshingApplication/custom_python</text>
<text text-anchor="middle" x="155.51" y="-7.5" font-family="Helvetica,sans-Serif" font-size="10.00">/add_custom_utilities_to_python.cpp</text>
</a>
</g>
</g>
<!-- Node1&#45;&gt;Node2 -->
<g id="edge1" class="edge">
<title>Node1&#45;&gt;Node2</title>
<path fill="none" stroke="midnightblue" d="M38.31,-284.12C26,-275.89 14.93,-265.65 7.51,-253 -6.89,-228.47 4.03,-217.23 7.51,-189 13.1,-143.53 3.84,-124.74 32.51,-89 44.91,-73.54 62.19,-61.64 79.9,-52.62"/>
<polygon fill="midnightblue" stroke="midnightblue" points="36.66,-287.21 47,-289.5 40.34,-281.26 36.66,-287.21"/>
</g>
<!-- Node3 -->
<g id="node3" class="node">
<title>Node3</title>
<g id="a_node3"><a xlink:href="../../d8/d09/linear__to__quadratic__tetrahedra__mesh__converter__utility_8h.html" target="_top" xlink:title=" ">
<polygon fill="none" stroke="black" points="16.51,-189.5 16.51,-252.5 218.51,-252.5 218.51,-189.5 16.51,-189.5"/>
<text text-anchor="start" x="24.51" y="-240.5" font-family="Helvetica,sans-Serif" font-size="10.00">/home/runner/work/Documentation</text>
<text text-anchor="start" x="24.51" y="-229.5" font-family="Helvetica,sans-Serif" font-size="10.00">/Documentation/master/applications</text>
<text text-anchor="start" x="24.51" y="-218.5" font-family="Helvetica,sans-Serif" font-size="10.00">/MeshingApplication/custom_utilities</text>
<text text-anchor="start" x="24.51" y="-207.5" font-family="Helvetica,sans-Serif" font-size="10.00">/linear_to_quadratic_tetrahedra_mesh</text>
<text text-anchor="middle" x="117.51" y="-196.5" font-family="Helvetica,sans-Serif" font-size="10.00">_converter_utility.h</text>
</a>
</g>
</g>
<!-- Node1&#45;&gt;Node3 -->
<g id="edge2" class="edge">
<title>Node1&#45;&gt;Node3</title>
<path fill="none" stroke="midnightblue" d="M117.51,-278.94C117.51,-270.23 117.51,-260.97 117.51,-252.51"/>
<polygon fill="midnightblue" stroke="midnightblue" points="114.01,-279.22 117.51,-289.22 121.01,-279.22 114.01,-279.22"/>
</g>
<!-- Node5 -->
<g id="node5" class="node">
<title>Node5</title>
<g id="a_node5"><a xlink:href="../../d1/d1c/local__refine__tetrahedra__mesh__parallel__to__boundaries_8hpp.html" target="_top" xlink:title=" ">
<polygon fill="none" stroke="black" points="236.51,-189.5 236.51,-252.5 442.51,-252.5 442.51,-189.5 236.51,-189.5"/>
<text text-anchor="start" x="244.51" y="-240.5" font-family="Helvetica,sans-Serif" font-size="10.00">/home/runner/work/Documentation</text>
<text text-anchor="start" x="244.51" y="-229.5" font-family="Helvetica,sans-Serif" font-size="10.00">/Documentation/master/applications</text>
<text text-anchor="start" x="244.51" y="-218.5" font-family="Helvetica,sans-Serif" font-size="10.00">/MeshingApplication/custom_utilities</text>
<text text-anchor="start" x="244.51" y="-207.5" font-family="Helvetica,sans-Serif" font-size="10.00">/local_refine_tetrahedra_mesh_parallel</text>
<text text-anchor="middle" x="339.51" y="-196.5" font-family="Helvetica,sans-Serif" font-size="10.00">_to_boundaries.hpp</text>
</a>
</g>
</g>
<!-- Node1&#45;&gt;Node5 -->
<g id="edge5" class="edge">
<title>Node1&#45;&gt;Node5</title>
<path fill="none" stroke="midnightblue" d="M187.02,-285.54C212.11,-275.08 240.49,-263.26 265.92,-252.66"/>
<polygon fill="midnightblue" stroke="midnightblue" points="185.47,-282.39 177.58,-289.47 188.16,-288.85 185.47,-282.39"/>
</g>
<!-- Node3&#45;&gt;Node2 -->
<g id="edge3" class="edge">
<title>Node3&#45;&gt;Node2</title>
<path fill="none" stroke="midnightblue" d="M66.1,-182.47C57.72,-173.8 50.25,-163.89 45.51,-153 34.15,-126.92 31.11,-113.53 45.51,-89 54.64,-73.43 69.31,-61.51 85,-52.5"/>
<polygon fill="midnightblue" stroke="midnightblue" points="63.69,-185.01 73.31,-189.45 68.56,-179.98 63.69,-185.01"/>
</g>
<!-- Node4 -->
<g id="node4" class="node">
<title>Node4</title>
<g id="a_node4"><a xlink:href="../../da/dd2/linear__to__quadratic__tetrahedra__mesh__converter__utility_8cpp.html" target="_top" xlink:title=" ">
<polygon fill="none" stroke="black" points="54.51,-89.5 54.51,-152.5 256.51,-152.5 256.51,-89.5 54.51,-89.5"/>
<text text-anchor="start" x="62.51" y="-140.5" font-family="Helvetica,sans-Serif" font-size="10.00">/home/runner/work/Documentation</text>
<text text-anchor="start" x="62.51" y="-129.5" font-family="Helvetica,sans-Serif" font-size="10.00">/Documentation/master/applications</text>
<text text-anchor="start" x="62.51" y="-118.5" font-family="Helvetica,sans-Serif" font-size="10.00">/MeshingApplication/custom_utilities</text>
<text text-anchor="start" x="62.51" y="-107.5" font-family="Helvetica,sans-Serif" font-size="10.00">/linear_to_quadratic_tetrahedra_mesh</text>
<text text-anchor="middle" x="155.51" y="-96.5" font-family="Helvetica,sans-Serif" font-size="10.00">_converter_utility.cpp</text>
</a>
</g>
</g>
<!-- Node3&#45;&gt;Node4 -->
<g id="edge4" class="edge">
<title>Node3&#45;&gt;Node4</title>
<path fill="none" stroke="midnightblue" d="M133.14,-179.68C136.65,-170.64 140.31,-161.2 143.63,-152.63"/>
<polygon fill="midnightblue" stroke="midnightblue" points="129.78,-178.67 129.43,-189.26 136.3,-181.2 129.78,-178.67"/>
</g>
<!-- Node5&#45;&gt;Node2 -->
<g id="edge6" class="edge">
<title>Node5&#45;&gt;Node2</title>
<path fill="none" stroke="midnightblue" d="M317.63,-180.07C297.17,-142.9 269.21,-92.68 265.51,-89 250.85,-74.41 232.03,-62.21 214.11,-52.63"/>
<polygon fill="midnightblue" stroke="midnightblue" points="314.77,-182.12 322.65,-189.2 320.9,-178.75 314.77,-182.12"/>
</g>
<!-- Node6 -->
<g id="node6" class="node">
<title>Node6</title>
<g id="a_node6"><a xlink:href="../../d0/d42/local__refine__tetrahedra__mesh__only__on__boundaries_8hpp.html" target="_top" xlink:title=" ">
<polygon fill="none" stroke="black" points="313.01,-89.5 313.01,-152.5 510.01,-152.5 510.01,-89.5 313.01,-89.5"/>
<text text-anchor="start" x="321.01" y="-140.5" font-family="Helvetica,sans-Serif" font-size="10.00">/home/runner/work/Documentation</text>
<text text-anchor="start" x="321.01" y="-129.5" font-family="Helvetica,sans-Serif" font-size="10.00">/Documentation/master/applications</text>
<text text-anchor="start" x="321.01" y="-118.5" font-family="Helvetica,sans-Serif" font-size="10.00">/MeshingApplication/custom_utilities</text>
<text text-anchor="start" x="321.01" y="-107.5" font-family="Helvetica,sans-Serif" font-size="10.00">/local_refine_tetrahedra_mesh_only</text>
<text text-anchor="middle" x="411.51" y="-96.5" font-family="Helvetica,sans-Serif" font-size="10.00">_on_boundaries.hpp</text>
</a>
</g>
</g>
<!-- Node5&#45;&gt;Node6 -->
<g id="edge7" class="edge">
<title>Node5&#45;&gt;Node6</title>
<path fill="none" stroke="midnightblue" d="M368.08,-181.11C375.03,-171.65 382.37,-161.65 389,-152.63"/>
<polygon fill="midnightblue" stroke="midnightblue" points="365.19,-179.13 362.09,-189.26 370.83,-183.27 365.19,-179.13"/>
</g>
<!-- Node6&#45;&gt;Node2 -->
<g id="edge8" class="edge">
<title>Node6&#45;&gt;Node2</title>
<path fill="none" stroke="midnightblue" d="M317.57,-86.06C286.94,-74.99 253.51,-62.91 225.01,-52.62"/>
<polygon fill="midnightblue" stroke="midnightblue" points="316.38,-89.35 326.97,-89.46 318.76,-82.77 316.38,-89.35"/>
</g>
</g>
</svg>
