<?xml version="1.0" encoding="UTF-8" standalone="no"?>
<!DOCTYPE svg PUBLIC "-//W3C//DTD SVG 1.1//EN"
 "http://www.w3.org/Graphics/SVG/1.1/DTD/svg11.dtd">
<!-- Generated by graphviz version 2.43.0 (0)
 -->
<!-- Title: /home/runner/work/Documentation/Documentation/master/applications/SolidMechanicsApplication/custom_elements/solid_elements/axisymmetric_updated_lagrangian_element.hpp Pages: 1 -->
<svg width="1313pt" height="461pt"
 viewBox="0.00 0.00 1313.00 461.00" xmlns="http://www.w3.org/2000/svg" xmlns:xlink="http://www.w3.org/1999/xlink">
<g id="graph0" class="graph" transform="scale(1 1) rotate(0) translate(4 457)">
<title>/home/runner/work/Documentation/Documentation/master/applications/SolidMechanicsApplication/custom_elements/solid_elements/axisymmetric_updated_lagrangian_element.hpp</title>
<!-- Node1 -->
<g id="node1" class="node">
<title>Node1</title>
<g id="a_node1"><a xlink:title=" ">
<polygon fill="#bfbfbf" stroke="black" points="447.5,-389.5 447.5,-452.5 662.5,-452.5 662.5,-389.5 447.5,-389.5"/>
<text text-anchor="start" x="455.5" y="-440.5" font-family="Helvetica,sans-Serif" font-size="10.00">/home/runner/work/Documentation</text>
<text text-anchor="start" x="455.5" y="-429.5" font-family="Helvetica,sans-Serif" font-size="10.00">/Documentation/master/applications</text>
<text text-anchor="start" x="455.5" y="-418.5" font-family="Helvetica,sans-Serif" font-size="10.00">/SolidMechanicsApplication/custom</text>
<text text-anchor="start" x="455.5" y="-407.5" font-family="Helvetica,sans-Serif" font-size="10.00">_elements/solid_elements/axisymmetric</text>
<text text-anchor="middle" x="555" y="-396.5" font-family="Helvetica,sans-Serif" font-size="10.00">_updated_lagrangian_element.hpp</text>
</a>
</g>
</g>
<!-- Node2 -->
<g id="node2" class="node">
<title>Node2</title>
<g id="a_node2"><a xlink:href="../../d0/dd9/axisym__updated__lagrangian___u__w_p__element_8hpp.html" target="_top" xlink:title=" ">
<polygon fill="none" stroke="black" points="222,-289.5 222,-352.5 416,-352.5 416,-289.5 222,-289.5"/>
<text text-anchor="start" x="230" y="-340.5" font-family="Helvetica,sans-Serif" font-size="10.00">/home/runner/work/Documentation</text>
<text text-anchor="start" x="230" y="-329.5" font-family="Helvetica,sans-Serif" font-size="10.00">/Documentation/master/applications</text>
<text text-anchor="start" x="230" y="-318.5" font-family="Helvetica,sans-Serif" font-size="10.00">/PfemSolidMechanicsApplication</text>
<text text-anchor="start" x="230" y="-307.5" font-family="Helvetica,sans-Serif" font-size="10.00">/custom_elements/axisym_updated</text>
<text text-anchor="middle" x="319" y="-296.5" font-family="Helvetica,sans-Serif" font-size="10.00">_lagrangian_U_wP_element.hpp</text>
</a>
</g>
</g>
<!-- Node1&#45;&gt;Node2 -->
<g id="edge1" class="edge">
<title>Node1&#45;&gt;Node2</title>
<path fill="none" stroke="midnightblue" d="M471.89,-385.49C446.03,-374.75 417.71,-362.99 392.55,-352.54"/>
<polygon fill="midnightblue" stroke="midnightblue" points="470.72,-388.79 481.3,-389.4 473.41,-382.33 470.72,-388.79"/>
</g>
<!-- Node8 -->
<g id="node8" class="node">
<title>Node8</title>
<g id="a_node8"><a xlink:href="../../d7/dda/axisymmetric__updated__lagrangian__element_8cpp.html" target="_top" xlink:title=" ">
<polygon fill="none" stroke="black" points="447.5,-289.5 447.5,-352.5 662.5,-352.5 662.5,-289.5 447.5,-289.5"/>
<text text-anchor="start" x="455.5" y="-340.5" font-family="Helvetica,sans-Serif" font-size="10.00">/home/runner/work/Documentation</text>
<text text-anchor="start" x="455.5" y="-329.5" font-family="Helvetica,sans-Serif" font-size="10.00">/Documentation/master/applications</text>
<text text-anchor="start" x="455.5" y="-318.5" font-family="Helvetica,sans-Serif" font-size="10.00">/SolidMechanicsApplication/custom</text>
<text text-anchor="start" x="455.5" y="-307.5" font-family="Helvetica,sans-Serif" font-size="10.00">_elements/solid_elements/axisymmetric</text>
<text text-anchor="middle" x="555" y="-296.5" font-family="Helvetica,sans-Serif" font-size="10.00">_updated_lagrangian_element.cpp</text>
</a>
</g>
</g>
<!-- Node1&#45;&gt;Node8 -->
<g id="edge8" class="edge">
<title>Node1&#45;&gt;Node8</title>
<path fill="none" stroke="midnightblue" d="M555,-379.1C555,-370.24 555,-361.01 555,-352.63"/>
<polygon fill="midnightblue" stroke="midnightblue" points="551.5,-379.26 555,-389.26 558.5,-379.26 551.5,-379.26"/>
</g>
<!-- Node9 -->
<g id="node9" class="node">
<title>Node9</title>
<g id="a_node9"><a xlink:href="../../d4/d0a/solid__mechanics__application_8h.html" target="_top" xlink:title=" ">
<polygon fill="none" stroke="black" points="687,-295 687,-347 881,-347 881,-295 687,-295"/>
<text text-anchor="start" x="695" y="-335" font-family="Helvetica,sans-Serif" font-size="10.00">/home/runner/work/Documentation</text>
<text text-anchor="start" x="695" y="-324" font-family="Helvetica,sans-Serif" font-size="10.00">/Documentation/master/applications</text>
<text text-anchor="start" x="695" y="-313" font-family="Helvetica,sans-Serif" font-size="10.00">/SolidMechanicsApplication/solid</text>
<text text-anchor="middle" x="784" y="-302" font-family="Helvetica,sans-Serif" font-size="10.00">_mechanics_application.h</text>
</a>
</g>
</g>
<!-- Node1&#45;&gt;Node9 -->
<g id="edge9" class="edge">
<title>Node1&#45;&gt;Node9</title>
<path fill="none" stroke="midnightblue" d="M635.96,-385.36C665.42,-372.75 698.13,-358.75 725.3,-347.12"/>
<polygon fill="midnightblue" stroke="midnightblue" points="634.33,-382.24 626.52,-389.4 637.09,-388.68 634.33,-382.24"/>
</g>
<!-- Node3 -->
<g id="node3" class="node">
<title>Node3</title>
<g id="a_node3"><a xlink:href="../../db/d7a/axisym__updated__lagrangian___u__w_p__element_8cpp.html" target="_top" xlink:title=" ">
<polygon fill="none" stroke="black" points="0,-189.5 0,-252.5 194,-252.5 194,-189.5 0,-189.5"/>
<text text-anchor="start" x="8" y="-240.5" font-family="Helvetica,sans-Serif" font-size="10.00">/home/runner/work/Documentation</text>
<text text-anchor="start" x="8" y="-229.5" font-family="Helvetica,sans-Serif" font-size="10.00">/Documentation/master/applications</text>
<text text-anchor="start" x="8" y="-218.5" font-family="Helvetica,sans-Serif" font-size="10.00">/PfemSolidMechanicsApplication</text>
<text text-anchor="start" x="8" y="-207.5" font-family="Helvetica,sans-Serif" font-size="10.00">/custom_elements/axisym_updated</text>
<text text-anchor="middle" x="97" y="-196.5" font-family="Helvetica,sans-Serif" font-size="10.00">_lagrangian_U_wP_element.cpp</text>
</a>
</g>
</g>
<!-- Node2&#45;&gt;Node3 -->
<g id="edge2" class="edge">
<title>Node2&#45;&gt;Node3</title>
<path fill="none" stroke="midnightblue" d="M240.5,-285.35C216.26,-274.65 189.75,-262.94 166.18,-252.54"/>
<polygon fill="midnightblue" stroke="midnightblue" points="239.11,-288.56 249.67,-289.4 241.94,-282.15 239.11,-288.56"/>
</g>
<!-- Node4 -->
<g id="node4" class="node">
<title>Node4</title>
<g id="a_node4"><a xlink:href="../../d0/d00/axisym__updated__lagrangian___u__w_p___stab__element_8hpp.html" target="_top" xlink:title=" ">
<polygon fill="none" stroke="black" points="212,-189.5 212,-252.5 412,-252.5 412,-189.5 212,-189.5"/>
<text text-anchor="start" x="220" y="-240.5" font-family="Helvetica,sans-Serif" font-size="10.00">/home/runner/work/Documentation</text>
<text text-anchor="start" x="220" y="-229.5" font-family="Helvetica,sans-Serif" font-size="10.00">/Documentation/master/applications</text>
<text text-anchor="start" x="220" y="-218.5" font-family="Helvetica,sans-Serif" font-size="10.00">/PfemSolidMechanicsApplication</text>
<text text-anchor="start" x="220" y="-207.5" font-family="Helvetica,sans-Serif" font-size="10.00">/custom_elements/axisym_updated</text>
<text text-anchor="middle" x="312" y="-196.5" font-family="Helvetica,sans-Serif" font-size="10.00">_lagrangian_U_wP_Stab_element.hpp</text>
</a>
</g>
</g>
<!-- Node2&#45;&gt;Node4 -->
<g id="edge3" class="edge">
<title>Node2&#45;&gt;Node4</title>
<path fill="none" stroke="midnightblue" d="M316.08,-279.1C315.45,-270.24 314.79,-261.01 314.19,-252.63"/>
<polygon fill="midnightblue" stroke="midnightblue" points="312.6,-279.54 316.8,-289.26 319.58,-279.04 312.6,-279.54"/>
</g>
<!-- Node6 -->
<g id="node6" class="node">
<title>Node6</title>
<g id="a_node6"><a xlink:href="../../d3/d81/pfem__solid__mechanics__application_8h.html" target="_top" xlink:title=" ">
<polygon fill="none" stroke="black" points="340,-95 340,-147 540,-147 540,-95 340,-95"/>
<text text-anchor="start" x="348" y="-135" font-family="Helvetica,sans-Serif" font-size="10.00">/home/runner/work/Documentation</text>
<text text-anchor="start" x="348" y="-124" font-family="Helvetica,sans-Serif" font-size="10.00">/Documentation/master/applications</text>
<text text-anchor="start" x="348" y="-113" font-family="Helvetica,sans-Serif" font-size="10.00">/PfemSolidMechanicsApplication</text>
<text text-anchor="middle" x="440" y="-102" font-family="Helvetica,sans-Serif" font-size="10.00">/pfem_solid_mechanics_application.h</text>
</a>
</g>
</g>
<!-- Node2&#45;&gt;Node6 -->
<g id="edge7" class="edge">
<title>Node2&#45;&gt;Node6</title>
<path fill="none" stroke="midnightblue" d="M391.96,-283.39C403.21,-274.83 413.54,-264.72 421,-253 441.55,-220.72 443.4,-175.02 442.19,-147"/>
<polygon fill="midnightblue" stroke="midnightblue" points="389.74,-280.68 383.64,-289.35 393.81,-286.38 389.74,-280.68"/>
</g>
<!-- Node5 -->
<g id="node5" class="node">
<title>Node5</title>
<g id="a_node5"><a xlink:href="../../d3/d01/axisym__updated__lagrangian___u__w_p___stab__element_8cpp.html" target="_top" xlink:title=" ">
<polygon fill="none" stroke="black" points="122.5,-89.5 122.5,-152.5 321.5,-152.5 321.5,-89.5 122.5,-89.5"/>
<text text-anchor="start" x="130.5" y="-140.5" font-family="Helvetica,sans-Serif" font-size="10.00">/home/runner/work/Documentation</text>
<text text-anchor="start" x="130.5" y="-129.5" font-family="Helvetica,sans-Serif" font-size="10.00">/Documentation/master/applications</text>
<text text-anchor="start" x="130.5" y="-118.5" font-family="Helvetica,sans-Serif" font-size="10.00">/PfemSolidMechanicsApplication</text>
<text text-anchor="start" x="130.5" y="-107.5" font-family="Helvetica,sans-Serif" font-size="10.00">/custom_elements/axisym_updated</text>
<text text-anchor="middle" x="222" y="-96.5" font-family="Helvetica,sans-Serif" font-size="10.00">_lagrangian_U_wP_Stab_element.cpp</text>
</a>
</g>
</g>
<!-- Node4&#45;&gt;Node5 -->
<g id="edge4" class="edge">
<title>Node4&#45;&gt;Node5</title>
<path fill="none" stroke="midnightblue" d="M276.82,-181.69C267.97,-172.05 258.58,-161.83 250.13,-152.63"/>
<polygon fill="midnightblue" stroke="midnightblue" points="274.43,-184.26 283.77,-189.26 279.58,-179.53 274.43,-184.26"/>
</g>
<!-- Node4&#45;&gt;Node6 -->
<g id="edge5" class="edge">
<title>Node4&#45;&gt;Node6</title>
<path fill="none" stroke="midnightblue" d="M360.22,-183.08C375.92,-171.06 392.98,-158 407.28,-147.05"/>
<polygon fill="midnightblue" stroke="midnightblue" points="357.96,-180.4 352.15,-189.26 362.22,-185.96 357.96,-180.4"/>
</g>
<!-- Node7 -->
<g id="node7" class="node">
<title>Node7</title>
<g id="a_node7"><a xlink:href="../../d4/d5f/pfem__solid__mechanics__application_8cpp.html" target="_top" xlink:title=" ">
<polygon fill="none" stroke="black" points="334.5,-0.5 334.5,-52.5 545.5,-52.5 545.5,-0.5 334.5,-0.5"/>
<text text-anchor="start" x="342.5" y="-40.5" font-family="Helvetica,sans-Serif" font-size="10.00">/home/runner/work/Documentation</text>
<text text-anchor="start" x="342.5" y="-29.5" font-family="Helvetica,sans-Serif" font-size="10.00">/Documentation/master/applications</text>
<text text-anchor="start" x="342.5" y="-18.5" font-family="Helvetica,sans-Serif" font-size="10.00">/PfemSolidMechanicsApplication</text>
<text text-anchor="middle" x="440" y="-7.5" font-family="Helvetica,sans-Serif" font-size="10.00">/pfem_solid_mechanics_application.cpp</text>
</a>
</g>
</g>
<!-- Node6&#45;&gt;Node7 -->
<g id="edge6" class="edge">
<title>Node6&#45;&gt;Node7</title>
<path fill="none" stroke="midnightblue" d="M440,-84.49C440,-73.91 440,-62.53 440,-52.75"/>
<polygon fill="midnightblue" stroke="midnightblue" points="436.5,-84.72 440,-94.72 443.5,-84.72 436.5,-84.72"/>
</g>
<!-- Node10 -->
<g id="node10" class="node">
<title>Node10</title>
<g id="a_node10"><a xlink:href="../../dc/d5a/_solid_mechanics_application_2custom__elements_2shell__elements_2shell__thick__element__3_d4_n_8cpp.html" target="_top" xlink:title=" ">
<polygon fill="none" stroke="black" points="468,-189.5 468,-252.5 668,-252.5 668,-189.5 468,-189.5"/>
<text text-anchor="start" x="476" y="-240.5" font-family="Helvetica,sans-Serif" font-size="10.00">/home/runner/work/Documentation</text>
<text text-anchor="start" x="476" y="-229.5" font-family="Helvetica,sans-Serif" font-size="10.00">/Documentation/master/applications</text>
<text text-anchor="start" x="476" y="-218.5" font-family="Helvetica,sans-Serif" font-size="10.00">/SolidMechanicsApplication/custom</text>
<text text-anchor="start" x="476" y="-207.5" font-family="Helvetica,sans-Serif" font-size="10.00">_elements/shell_elements/shell_thick</text>
<text text-anchor="middle" x="568" y="-196.5" font-family="Helvetica,sans-Serif" font-size="10.00">_element_3D4N.cpp</text>
</a>
</g>
</g>
<!-- Node9&#45;&gt;Node10 -->
<g id="edge10" class="edge">
<title>Node9&#45;&gt;Node10</title>
<path fill="none" stroke="midnightblue" d="M719.48,-290.73C693,-278.71 662.33,-264.8 635.54,-252.64"/>
<polygon fill="midnightblue" stroke="midnightblue" points="718.1,-293.95 728.66,-294.89 720.99,-287.57 718.1,-293.95"/>
</g>
<!-- Node11 -->
<g id="node11" class="node">
<title>Node11</title>
<g id="a_node11"><a xlink:href="../../da/d5c/_solid_mechanics_application_2custom__elements_2shell__elements_2shell__thin__element__3_d3_n_8cpp.html" target="_top" xlink:title=" ">
<polygon fill="none" stroke="black" points="686.5,-189.5 686.5,-252.5 881.5,-252.5 881.5,-189.5 686.5,-189.5"/>
<text text-anchor="start" x="694.5" y="-240.5" font-family="Helvetica,sans-Serif" font-size="10.00">/home/runner/work/Documentation</text>
<text text-anchor="start" x="694.5" y="-229.5" font-family="Helvetica,sans-Serif" font-size="10.00">/Documentation/master/applications</text>
<text text-anchor="start" x="694.5" y="-218.5" font-family="Helvetica,sans-Serif" font-size="10.00">/SolidMechanicsApplication/custom</text>
<text text-anchor="start" x="694.5" y="-207.5" font-family="Helvetica,sans-Serif" font-size="10.00">_elements/shell_elements/shell_thin</text>
<text text-anchor="middle" x="784" y="-196.5" font-family="Helvetica,sans-Serif" font-size="10.00">_element_3D3N.cpp</text>
</a>
</g>
</g>
<!-- Node9&#45;&gt;Node11 -->
<g id="edge11" class="edge">
<title>Node9&#45;&gt;Node11</title>
<path fill="none" stroke="midnightblue" d="M784,-284.69C784,-274.24 784,-262.89 784,-252.75"/>
<polygon fill="midnightblue" stroke="midnightblue" points="780.5,-284.76 784,-294.76 787.5,-284.76 780.5,-284.76"/>
</g>
<!-- Node12 -->
<g id="node12" class="node">
<title>Node12</title>
<g id="a_node12"><a xlink:href="../../da/d03/_solid_mechanics_application_2custom__utilities_2shell__cross__section_8cpp.html" target="_top" xlink:title=" ">
<polygon fill="none" stroke="black" points="899,-195 899,-247 1093,-247 1093,-195 899,-195"/>
<text text-anchor="start" x="907" y="-235" font-family="Helvetica,sans-Serif" font-size="10.00">/home/runner/work/Documentation</text>
<text text-anchor="start" x="907" y="-224" font-family="Helvetica,sans-Serif" font-size="10.00">/Documentation/master/applications</text>
<text text-anchor="start" x="907" y="-213" font-family="Helvetica,sans-Serif" font-size="10.00">/SolidMechanicsApplication/custom</text>
<text text-anchor="middle" x="996" y="-202" font-family="Helvetica,sans-Serif" font-size="10.00">_utilities/shell_cross_section.cpp</text>
</a>
</g>
</g>
<!-- Node9&#45;&gt;Node12 -->
<g id="edge12" class="edge">
<title>Node9&#45;&gt;Node12</title>
<path fill="none" stroke="midnightblue" d="M847.46,-290.67C877.52,-276.77 913.05,-260.35 941.82,-247.04"/>
<polygon fill="midnightblue" stroke="midnightblue" points="845.93,-287.52 838.32,-294.89 848.87,-293.87 845.93,-287.52"/>
</g>
<!-- Node13 -->
<g id="node13" class="node">
<title>Node13</title>
<g id="a_node13"><a xlink:href="../../d2/d54/solid__mechanics__application_8cpp.html" target="_top" xlink:title=" ">
<polygon fill="none" stroke="black" points="1111,-195 1111,-247 1305,-247 1305,-195 1111,-195"/>
<text text-anchor="start" x="1119" y="-235" font-family="Helvetica,sans-Serif" font-size="10.00">/home/runner/work/Documentation</text>
<text text-anchor="start" x="1119" y="-224" font-family="Helvetica,sans-Serif" font-size="10.00">/Documentation/master/applications</text>
<text text-anchor="start" x="1119" y="-213" font-family="Helvetica,sans-Serif" font-size="10.00">/SolidMechanicsApplication/solid</text>
<text text-anchor="middle" x="1208" y="-202" font-family="Helvetica,sans-Serif" font-size="10.00">_mechanics_application.cpp</text>
</a>
</g>
</g>
<!-- Node9&#45;&gt;Node13 -->
<g id="edge13" class="edge">
<title>Node9&#45;&gt;Node13</title>
<path fill="none" stroke="midnightblue" d="M891.33,-299.52C953.19,-287.19 1032.28,-270.51 1102,-253 1109.35,-251.15 1116.95,-249.14 1124.55,-247.05"/>
<polygon fill="midnightblue" stroke="midnightblue" points="890.29,-296.16 881.16,-301.54 891.65,-303.03 890.29,-296.16"/>
</g>
</g>
</svg>
