<?xml version="1.0" encoding="UTF-8" standalone="no"?>
<!DOCTYPE svg PUBLIC "-//W3C//DTD SVG 1.1//EN"
 "http://www.w3.org/Graphics/SVG/1.1/DTD/svg11.dtd">
<!-- Generated by graphviz version 2.43.0 (0)
 -->
<!-- Title: /home/runner/work/Documentation/Documentation/master/kratos/utilities/rbf_shape_functions_utility.h Pages: 1 -->
<svg width="1160pt" height="250pt"
 viewBox="0.00 0.00 1160.00 250.00" xmlns="http://www.w3.org/2000/svg" xmlns:xlink="http://www.w3.org/1999/xlink">
<g id="graph0" class="graph" transform="scale(1 1) rotate(0) translate(4 246)">
<title>/home/runner/work/Documentation/Documentation/master/kratos/utilities/rbf_shape_functions_utility.h</title>
<!-- Node1 -->
<g id="node1" class="node">
<title>Node1</title>
<g id="a_node1"><a xlink:title=" ">
<polygon fill="#bfbfbf" stroke="black" points="433,-189.5 433,-241.5 620,-241.5 620,-189.5 433,-189.5"/>
<text text-anchor="start" x="441" y="-229.5" font-family="Helvetica,sans-Serif" font-size="10.00">/home/runner/work/Documentation</text>
<text text-anchor="start" x="441" y="-218.5" font-family="Helvetica,sans-Serif" font-size="10.00">/Documentation/master/kratos</text>
<text text-anchor="start" x="441" y="-207.5" font-family="Helvetica,sans-Serif" font-size="10.00">/utilities/rbf_shape_functions</text>
<text text-anchor="middle" x="526.5" y="-196.5" font-family="Helvetica,sans-Serif" font-size="10.00">_utility.h</text>
</a>
</g>
</g>
<!-- Node2 -->
<g id="node2" class="node">
<title>Node2</title>
<g id="a_node2"><a xlink:href="../../d9/df1/add__geometrical__utilities__to__python_8cpp.html" target="_top" xlink:title=" ">
<polygon fill="none" stroke="black" points="0,-0.5 0,-52.5 187,-52.5 187,-0.5 0,-0.5"/>
<text text-anchor="start" x="8" y="-40.5" font-family="Helvetica,sans-Serif" font-size="10.00">/home/runner/work/Documentation</text>
<text text-anchor="start" x="8" y="-29.5" font-family="Helvetica,sans-Serif" font-size="10.00">/Documentation/master/kratos</text>
<text text-anchor="start" x="8" y="-18.5" font-family="Helvetica,sans-Serif" font-size="10.00">/python/add_geometrical_utilities</text>
<text text-anchor="middle" x="93.5" y="-7.5" font-family="Helvetica,sans-Serif" font-size="10.00">_to_python.cpp</text>
</a>
</g>
</g>
<!-- Node1&#45;&gt;Node2 -->
<g id="edge1" class="edge">
<title>Node1&#45;&gt;Node2</title>
<path fill="none" stroke="midnightblue" d="M422.54,-212.64C314.68,-208.41 155.92,-194.99 113.5,-153 87.16,-126.92 86.78,-81.02 89.63,-52.55"/>
<polygon fill="midnightblue" stroke="midnightblue" points="422.69,-216.14 432.82,-213.02 422.95,-209.15 422.69,-216.14"/>
</g>
<!-- Node3 -->
<g id="node3" class="node">
<title>Node3</title>
<g id="a_node3"><a xlink:href="../../dd/dad/assign__master__slave__constraints__to__neighbours__utility_8h.html" target="_top" xlink:title=" ">
<polygon fill="none" stroke="black" points="122,-95 122,-147 313,-147 313,-95 122,-95"/>
<text text-anchor="start" x="130" y="-135" font-family="Helvetica,sans-Serif" font-size="10.00">/home/runner/work/Documentation</text>
<text text-anchor="start" x="130" y="-124" font-family="Helvetica,sans-Serif" font-size="10.00">/Documentation/master/kratos</text>
<text text-anchor="start" x="130" y="-113" font-family="Helvetica,sans-Serif" font-size="10.00">/utilities/assign_master_slave</text>
<text text-anchor="middle" x="217.5" y="-102" font-family="Helvetica,sans-Serif" font-size="10.00">_constraints_to_neighbours_utility.h</text>
</a>
</g>
</g>
<!-- Node1&#45;&gt;Node3 -->
<g id="edge2" class="edge">
<title>Node1&#45;&gt;Node3</title>
<path fill="none" stroke="midnightblue" d="M433.2,-186.57C391.19,-174 341.99,-159.27 301.19,-147.05"/>
<polygon fill="midnightblue" stroke="midnightblue" points="432.3,-189.95 442.88,-189.47 434.3,-183.25 432.3,-189.95"/>
</g>
<!-- Node5 -->
<g id="node5" class="node">
<title>Node5</title>
<g id="a_node5"><a xlink:href="../../d6/dc5/rbf__shape__functions__utility_8cpp.html" target="_top" xlink:title=" ">
<polygon fill="none" stroke="black" points="331,-95 331,-147 518,-147 518,-95 331,-95"/>
<text text-anchor="start" x="339" y="-135" font-family="Helvetica,sans-Serif" font-size="10.00">/home/runner/work/Documentation</text>
<text text-anchor="start" x="339" y="-124" font-family="Helvetica,sans-Serif" font-size="10.00">/Documentation/master/kratos</text>
<text text-anchor="start" x="339" y="-113" font-family="Helvetica,sans-Serif" font-size="10.00">/utilities/rbf_shape_functions</text>
<text text-anchor="middle" x="424.5" y="-102" font-family="Helvetica,sans-Serif" font-size="10.00">_utility.cpp</text>
</a>
</g>
</g>
<!-- Node1&#45;&gt;Node5 -->
<g id="edge5" class="edge">
<title>Node1&#45;&gt;Node5</title>
<path fill="none" stroke="midnightblue" d="M491.16,-182.45C478.38,-170.86 464.15,-157.95 452.12,-147.05"/>
<polygon fill="midnightblue" stroke="midnightblue" points="489.14,-185.34 498.9,-189.47 493.84,-180.16 489.14,-185.34"/>
</g>
<!-- Node6 -->
<g id="node6" class="node">
<title>Node6</title>
<g id="a_node6"><a xlink:href="../../d2/d1c/shifted__boundary__meshless__interface__utility_8cpp.html" target="_top" xlink:title=" ">
<polygon fill="none" stroke="black" points="536,-95 536,-147 723,-147 723,-95 536,-95"/>
<text text-anchor="start" x="544" y="-135" font-family="Helvetica,sans-Serif" font-size="10.00">/home/runner/work/Documentation</text>
<text text-anchor="start" x="544" y="-124" font-family="Helvetica,sans-Serif" font-size="10.00">/Documentation/master/kratos</text>
<text text-anchor="start" x="544" y="-113" font-family="Helvetica,sans-Serif" font-size="10.00">/utilities/shifted_boundary</text>
<text text-anchor="middle" x="629.5" y="-102" font-family="Helvetica,sans-Serif" font-size="10.00">_meshless_interface_utility.cpp</text>
</a>
</g>
</g>
<!-- Node1&#45;&gt;Node6 -->
<g id="edge6" class="edge">
<title>Node1&#45;&gt;Node6</title>
<path fill="none" stroke="midnightblue" d="M561.82,-182.78C574.82,-171.11 589.35,-158.06 601.6,-147.05"/>
<polygon fill="midnightblue" stroke="midnightblue" points="559.47,-180.18 554.37,-189.47 564.15,-185.39 559.47,-180.18"/>
</g>
<!-- Node7 -->
<g id="node7" class="node">
<title>Node7</title>
<g id="a_node7"><a xlink:href="../../d8/d3b/fluid__auxiliary__utilities_8cpp.html" target="_top" xlink:title=" ">
<polygon fill="none" stroke="black" points="740.5,-95 740.5,-147 934.5,-147 934.5,-95 740.5,-95"/>
<text text-anchor="start" x="748.5" y="-135" font-family="Helvetica,sans-Serif" font-size="10.00">/home/runner/work/Documentation</text>
<text text-anchor="start" x="748.5" y="-124" font-family="Helvetica,sans-Serif" font-size="10.00">/Documentation/master/applications</text>
<text text-anchor="start" x="748.5" y="-113" font-family="Helvetica,sans-Serif" font-size="10.00">/FluidDynamicsApplication/custom</text>
<text text-anchor="middle" x="837.5" y="-102" font-family="Helvetica,sans-Serif" font-size="10.00">_utilities/fluid_auxiliary_utilities.cpp</text>
</a>
</g>
</g>
<!-- Node1&#45;&gt;Node7 -->
<g id="edge7" class="edge">
<title>Node1&#45;&gt;Node7</title>
<path fill="none" stroke="midnightblue" d="M620.4,-186.57C662.68,-174 712.21,-159.27 753.27,-147.05"/>
<polygon fill="midnightblue" stroke="midnightblue" points="619.25,-183.26 610.66,-189.47 621.24,-189.97 619.25,-183.26"/>
</g>
<!-- Node8 -->
<g id="node8" class="node">
<title>Node8</title>
<g id="a_node8"><a xlink:href="../../d8/d27/hydraulic__fluid__auxiliary__utilities_8cpp.html" target="_top" xlink:title=" ">
<polygon fill="none" stroke="black" points="953,-89.5 953,-152.5 1152,-152.5 1152,-89.5 953,-89.5"/>
<text text-anchor="start" x="961" y="-140.5" font-family="Helvetica,sans-Serif" font-size="10.00">/home/runner/work/Documentation</text>
<text text-anchor="start" x="961" y="-129.5" font-family="Helvetica,sans-Serif" font-size="10.00">/Documentation/master/applications</text>
<text text-anchor="start" x="961" y="-118.5" font-family="Helvetica,sans-Serif" font-size="10.00">/FluidDynamicsHydraulicsApplication</text>
<text text-anchor="start" x="961" y="-107.5" font-family="Helvetica,sans-Serif" font-size="10.00">/custom_utilities/hydraulic_fluid</text>
<text text-anchor="middle" x="1052.5" y="-96.5" font-family="Helvetica,sans-Serif" font-size="10.00">_auxiliary_utilities.cpp</text>
</a>
</g>
</g>
<!-- Node1&#45;&gt;Node8 -->
<g id="edge8" class="edge">
<title>Node1&#45;&gt;Node8</title>
<path fill="none" stroke="midnightblue" d="M630.43,-203C715.21,-192.7 837.8,-175.72 943.5,-153 946.58,-152.34 949.7,-151.64 952.84,-150.91"/>
<polygon fill="midnightblue" stroke="midnightblue" points="629.8,-199.55 620.29,-204.22 630.63,-206.5 629.8,-199.55"/>
</g>
<!-- Node3&#45;&gt;Node2 -->
<g id="edge3" class="edge">
<title>Node3&#45;&gt;Node2</title>
<path fill="none" stroke="midnightblue" d="M175.85,-88.93C159.98,-77.09 142.11,-63.76 127.08,-52.55"/>
<polygon fill="midnightblue" stroke="midnightblue" points="173.84,-91.79 183.94,-94.97 178.02,-86.18 173.84,-91.79"/>
</g>
<!-- Node4 -->
<g id="node4" class="node">
<title>Node4</title>
<g id="a_node4"><a xlink:href="../../de/d7a/assign__master__slave__constraints__to__neighbours__utility_8cpp.html" target="_top" xlink:title=" ">
<polygon fill="none" stroke="black" points="205,-0.5 205,-52.5 408,-52.5 408,-0.5 205,-0.5"/>
<text text-anchor="start" x="213" y="-40.5" font-family="Helvetica,sans-Serif" font-size="10.00">/home/runner/work/Documentation</text>
<text text-anchor="start" x="213" y="-29.5" font-family="Helvetica,sans-Serif" font-size="10.00">/Documentation/master/kratos</text>
<text text-anchor="start" x="213" y="-18.5" font-family="Helvetica,sans-Serif" font-size="10.00">/utilities/assign_master_slave</text>
<text text-anchor="middle" x="306.5" y="-7.5" font-family="Helvetica,sans-Serif" font-size="10.00">_constraints_to_neighbours_utility.cpp</text>
</a>
</g>
</g>
<!-- Node3&#45;&gt;Node4 -->
<g id="edge4" class="edge">
<title>Node3&#45;&gt;Node4</title>
<path fill="none" stroke="midnightblue" d="M248.82,-87.45C259.78,-76.06 271.91,-63.45 282.21,-52.75"/>
<polygon fill="midnightblue" stroke="midnightblue" points="246.23,-85.09 241.82,-94.72 251.28,-89.94 246.23,-85.09"/>
</g>
</g>
</svg>
