<?xml version="1.0" encoding="UTF-8" standalone="no"?>
<!DOCTYPE svg PUBLIC "-//W3C//DTD SVG 1.1//EN"
 "http://www.w3.org/Graphics/SVG/1.1/DTD/svg11.dtd">
<!-- Generated by graphviz version 2.43.0 (0)
 -->
<!-- Title: /home/runner/work/Documentation/Documentation/master/applications/ConvectionDiffusionApplication/custom_conditions/adjoint_thermal_face.h Pages: 1 -->
<!--zoomable 350 -->
<svg id="main" version="1.1" xmlns="http://www.w3.org/2000/svg" xmlns:xlink="http://www.w3.org/1999/xlink" xml:space="preserve" onload="init(evt)">
<style type="text/css"><![CDATA[
.edge:hover path { stroke: red; }
.edge:hover polygon { stroke: red; fill: red; }
]]></style>
<script type="text/javascript"><![CDATA[
var edges = document.getElementsByTagName('g');
if (edges && edges.length) {
  for (var i=0;i<edges.length;i++) {
    if (edges[i].id.substr(0,4)=='edge') {
      edges[i].setAttribute('class','edge');
    }
  }
}
]]></script>
        <defs>
                <circle id="rim" cx="0" cy="0" r="7"/>
                <circle id="rim2" cx="0" cy="0" r="3.5"/>
                <g id="zoomPlus">
                        <use xlink:href="#rim" fill="#404040">
                                <set attributeName="fill" to="#808080" begin="zoomplus.mouseover" end="zoomplus.mouseout"/>
                        </use>
                        <path d="M-4,0h8M0,-4v8" fill="none" stroke="white" stroke-width="1.5" pointer-events="none"/>
                </g>
                <g id="zoomMin">
                        <use xlink:href="#rim" fill="#404040">
                                <set attributeName="fill" to="#808080" begin="zoomminus.mouseover" end="zoomminus.mouseout"/>
                        </use>
                        <path d="M-4,0h8" fill="none" stroke="white" stroke-width="1.5" pointer-events="none"/>
                </g>
                <g id="dirArrow">
                        <path fill="none" stroke="white" stroke-width="1.5" d="M0,-3.0v7 M-2.5,-0.5L0,-3.0L2.5,-0.5"/>
                </g>
               <g id="resetDef">
                       <use xlink:href="#rim2" fill="#404040">
                               <set attributeName="fill" to="#808080" begin="reset.mouseover" end="reset.mouseout"/>
                       </use>
               </g>
        </defs>

<script type="text/javascript">
var viewWidth = 3436;
var viewHeight = 350;
var sectionId = 'dynsection-1';
</script>
<script xlink:href="../../svgpan.js"/>
<svg id="graph" class="graph">
<g id="viewport">
<title>/home/runner/work/Documentation/Documentation/master/applications/ConvectionDiffusionApplication/custom_conditions/adjoint_thermal_face.h</title>
<!-- Node1 -->
<g id="node1" class="node">
<title>Node1</title>
<g id="a_node1"><a xlink:title=" ">
<polygon fill="#bfbfbf" stroke="black" points="1547.5,-289.5 1547.5,-341.5 1774.5,-341.5 1774.5,-289.5 1547.5,-289.5"/>
<text text-anchor="start" x="1555.5" y="-329.5" font-family="Helvetica,sans-Serif" font-size="10.00">/home/runner/work/Documentation</text>
<text text-anchor="start" x="1555.5" y="-318.5" font-family="Helvetica,sans-Serif" font-size="10.00">/Documentation/master/applications</text>
<text text-anchor="start" x="1555.5" y="-307.5" font-family="Helvetica,sans-Serif" font-size="10.00">/ConvectionDiffusionApplication</text>
<text text-anchor="middle" x="1661" y="-296.5" font-family="Helvetica,sans-Serif" font-size="10.00">/custom_conditions/adjoint_thermal_face.h</text>
</a>
</g>
</g>
<!-- Node2 -->
<g id="node2" class="node">
<title>Node2</title>
<g id="a_node2"><a xlink:href="../../df/d7e/convection__diffusion__application_8h.html" target="_top" xlink:title=" ">
<polygon fill="none" stroke="black" points="1447,-200.5 1447,-252.5 1641,-252.5 1641,-200.5 1447,-200.5"/>
<text text-anchor="start" x="1455" y="-240.5" font-family="Helvetica,sans-Serif" font-size="10.00">/home/runner/work/Documentation</text>
<text text-anchor="start" x="1455" y="-229.5" font-family="Helvetica,sans-Serif" font-size="10.00">/Documentation/master/applications</text>
<text text-anchor="start" x="1455" y="-218.5" font-family="Helvetica,sans-Serif" font-size="10.00">/ConvectionDiffusionApplication</text>
<text text-anchor="middle" x="1544" y="-207.5" font-family="Helvetica,sans-Serif" font-size="10.00">/convection_diffusion_application.h</text>
</a>
</g>
</g>
<!-- Node1&#45;&gt;Node2 -->
<g id="edge1" class="edge">
<title>Node1&#45;&gt;Node2</title>
<path fill="none" stroke="midnightblue" d="M1618.93,-283.22C1605.41,-273.16 1590.61,-262.16 1577.77,-252.61"/>
<polygon fill="midnightblue" stroke="midnightblue" points="1617.05,-286.18 1627.16,-289.34 1621.22,-280.56 1617.05,-286.18"/>
</g>
<!-- Node20 -->
<g id="node20" class="node">
<title>Node20</title>
<g id="a_node20"><a xlink:href="../../d2/d7f/adjoint__thermal__face_8cpp.html" target="_top" xlink:title=" ">
<polygon fill="none" stroke="black" points="1659,-200.5 1659,-252.5 1897,-252.5 1897,-200.5 1659,-200.5"/>
<text text-anchor="start" x="1667" y="-240.5" font-family="Helvetica,sans-Serif" font-size="10.00">/home/runner/work/Documentation</text>
<text text-anchor="start" x="1667" y="-229.5" font-family="Helvetica,sans-Serif" font-size="10.00">/Documentation/master/applications</text>
<text text-anchor="start" x="1667" y="-218.5" font-family="Helvetica,sans-Serif" font-size="10.00">/ConvectionDiffusionApplication</text>
<text text-anchor="middle" x="1778" y="-207.5" font-family="Helvetica,sans-Serif" font-size="10.00">/custom_conditions/adjoint_thermal_face.cpp</text>
</a>
</g>
</g>
<!-- Node1&#45;&gt;Node20 -->
<g id="edge26" class="edge">
<title>Node1&#45;&gt;Node20</title>
<path fill="none" stroke="midnightblue" d="M1703.07,-283.22C1716.59,-273.16 1731.39,-262.16 1744.23,-252.61"/>
<polygon fill="midnightblue" stroke="midnightblue" points="1700.78,-280.56 1694.84,-289.34 1704.95,-286.18 1700.78,-280.56"/>
</g>
<!-- Node3 -->
<g id="node3" class="node">
<title>Node3</title>
<g id="a_node3"><a xlink:href="../../db/d5a/convection__diffusion__application_8cpp.html" target="_top" xlink:title=" ">
<polygon fill="none" stroke="black" points="0,-106 0,-158 200,-158 200,-106 0,-106"/>
<text text-anchor="start" x="8" y="-146" font-family="Helvetica,sans-Serif" font-size="10.00">/home/runner/work/Documentation</text>
<text text-anchor="start" x="8" y="-135" font-family="Helvetica,sans-Serif" font-size="10.00">/Documentation/master/applications</text>
<text text-anchor="start" x="8" y="-124" font-family="Helvetica,sans-Serif" font-size="10.00">/ConvectionDiffusionApplication</text>
<text text-anchor="middle" x="100" y="-113" font-family="Helvetica,sans-Serif" font-size="10.00">/convection_diffusion_application.cpp</text>
</a>
</g>
</g>
<!-- Node2&#45;&gt;Node3 -->
<g id="edge2" class="edge">
<title>Node2&#45;&gt;Node3</title>
<path fill="none" stroke="midnightblue" d="M1436.54,-223.75C1162.82,-218.78 444.41,-202.37 209,-164 199.58,-162.47 189.82,-160.4 180.18,-158.06"/>
<polygon fill="midnightblue" stroke="midnightblue" points="1436.81,-227.25 1446.88,-223.94 1436.94,-220.26 1436.81,-227.25"/>
</g>
<!-- Node4 -->
<g id="node4" class="node">
<title>Node4</title>
<g id="a_node4"><a xlink:href="../../d4/dcb/axisymmetric__eulerian__convection__diffusion_8cpp.html" target="_top" xlink:title=" ">
<polygon fill="none" stroke="black" points="218,-100.5 218,-163.5 440,-163.5 440,-100.5 218,-100.5"/>
<text text-anchor="start" x="226" y="-151.5" font-family="Helvetica,sans-Serif" font-size="10.00">/home/runner/work/Documentation</text>
<text text-anchor="start" x="226" y="-140.5" font-family="Helvetica,sans-Serif" font-size="10.00">/Documentation/master/applications</text>
<text text-anchor="start" x="226" y="-129.5" font-family="Helvetica,sans-Serif" font-size="10.00">/ConvectionDiffusionApplication</text>
<text text-anchor="start" x="226" y="-118.5" font-family="Helvetica,sans-Serif" font-size="10.00">/custom_elements/axisymmetric_eulerian</text>
<text text-anchor="middle" x="329" y="-107.5" font-family="Helvetica,sans-Serif" font-size="10.00">_convection_diffusion.cpp</text>
</a>
</g>
</g>
<!-- Node2&#45;&gt;Node4 -->
<g id="edge3" class="edge">
<title>Node2&#45;&gt;Node4</title>
<path fill="none" stroke="midnightblue" d="M1436.59,-226.44C1239.59,-226.62 807.75,-219.86 449,-164 446.13,-163.55 443.23,-163.07 440.31,-162.55"/>
<polygon fill="midnightblue" stroke="midnightblue" points="1436.66,-229.94 1446.65,-226.42 1436.65,-222.94 1436.66,-229.94"/>
</g>
<!-- Node5 -->
<g id="node5" class="node">
<title>Node5</title>
<g id="a_node5"><a xlink:href="../../d6/d57/conv__diff__2d_8cpp.html" target="_top" xlink:title=" ">
<polygon fill="none" stroke="black" points="458,-106 458,-158 652,-158 652,-106 458,-106"/>
<text text-anchor="start" x="466" y="-146" font-family="Helvetica,sans-Serif" font-size="10.00">/home/runner/work/Documentation</text>
<text text-anchor="start" x="466" y="-135" font-family="Helvetica,sans-Serif" font-size="10.00">/Documentation/master/applications</text>
<text text-anchor="start" x="466" y="-124" font-family="Helvetica,sans-Serif" font-size="10.00">/ConvectionDiffusionApplication</text>
<text text-anchor="middle" x="555" y="-113" font-family="Helvetica,sans-Serif" font-size="10.00">/custom_elements/conv_diff_2d.cpp</text>
</a>
</g>
</g>
<!-- Node2&#45;&gt;Node5 -->
<g id="edge4" class="edge">
<title>Node2&#45;&gt;Node5</title>
<path fill="none" stroke="midnightblue" d="M1436.77,-225.43C1269.69,-223.66 937.65,-213.49 661,-164 652.03,-162.4 642.75,-160.32 633.57,-158"/>
<polygon fill="midnightblue" stroke="midnightblue" points="1436.77,-228.93 1446.8,-225.53 1436.84,-221.93 1436.77,-228.93"/>
</g>
<!-- Node6 -->
<g id="node6" class="node">
<title>Node6</title>
<g id="a_node6"><a xlink:href="../../d8/d2f/conv__diff__3d_8cpp.html" target="_top" xlink:title=" ">
<polygon fill="none" stroke="black" points="670,-106 670,-158 864,-158 864,-106 670,-106"/>
<text text-anchor="start" x="678" y="-146" font-family="Helvetica,sans-Serif" font-size="10.00">/home/runner/work/Documentation</text>
<text text-anchor="start" x="678" y="-135" font-family="Helvetica,sans-Serif" font-size="10.00">/Documentation/master/applications</text>
<text text-anchor="start" x="678" y="-124" font-family="Helvetica,sans-Serif" font-size="10.00">/ConvectionDiffusionApplication</text>
<text text-anchor="middle" x="767" y="-113" font-family="Helvetica,sans-Serif" font-size="10.00">/custom_elements/conv_diff_3d.cpp</text>
</a>
</g>
</g>
<!-- Node2&#45;&gt;Node6 -->
<g id="edge5" class="edge">
<title>Node2&#45;&gt;Node6</title>
<path fill="none" stroke="midnightblue" d="M1436.58,-222.04C1303.34,-216.29 1069.71,-201.41 873,-164 864.34,-162.35 855.36,-160.3 846.47,-158.03"/>
<polygon fill="midnightblue" stroke="midnightblue" points="1436.65,-225.55 1446.79,-222.47 1436.95,-218.55 1436.65,-225.55"/>
</g>
<!-- Node7 -->
<g id="node7" class="node">
<title>Node7</title>
<g id="a_node7"><a xlink:href="../../da/d93/conv__diff__change__of__phase__2d_8cpp.html" target="_top" xlink:title=" ">
<polygon fill="none" stroke="black" points="882,-100.5 882,-163.5 1076,-163.5 1076,-100.5 882,-100.5"/>
<text text-anchor="start" x="890" y="-151.5" font-family="Helvetica,sans-Serif" font-size="10.00">/home/runner/work/Documentation</text>
<text text-anchor="start" x="890" y="-140.5" font-family="Helvetica,sans-Serif" font-size="10.00">/Documentation/master/applications</text>
<text text-anchor="start" x="890" y="-129.5" font-family="Helvetica,sans-Serif" font-size="10.00">/ConvectionDiffusionApplication</text>
<text text-anchor="start" x="890" y="-118.5" font-family="Helvetica,sans-Serif" font-size="10.00">/custom_elements/conv_diff_change</text>
<text text-anchor="middle" x="979" y="-107.5" font-family="Helvetica,sans-Serif" font-size="10.00">_of_phase_2d.cpp</text>
</a>
</g>
</g>
<!-- Node2&#45;&gt;Node7 -->
<g id="edge6" class="edge">
<title>Node2&#45;&gt;Node7</title>
<path fill="none" stroke="midnightblue" d="M1436.52,-215.74C1343,-206.15 1204.14,-189.25 1085,-164 1082.09,-163.38 1079.15,-162.73 1076.18,-162.04"/>
<polygon fill="midnightblue" stroke="midnightblue" points="1436.26,-219.24 1446.56,-216.76 1436.97,-212.27 1436.26,-219.24"/>
</g>
<!-- Node8 -->
<g id="node8" class="node">
<title>Node8</title>
<g id="a_node8"><a xlink:href="../../d3/dce/eulerian__conv__diff_8cpp.html" target="_top" xlink:title=" ">
<polygon fill="none" stroke="black" points="1094.5,-106 1094.5,-158 1313.5,-158 1313.5,-106 1094.5,-106"/>
<text text-anchor="start" x="1102.5" y="-146" font-family="Helvetica,sans-Serif" font-size="10.00">/home/runner/work/Documentation</text>
<text text-anchor="start" x="1102.5" y="-135" font-family="Helvetica,sans-Serif" font-size="10.00">/Documentation/master/applications</text>
<text text-anchor="start" x="1102.5" y="-124" font-family="Helvetica,sans-Serif" font-size="10.00">/ConvectionDiffusionApplication</text>
<text text-anchor="middle" x="1204" y="-113" font-family="Helvetica,sans-Serif" font-size="10.00">/custom_elements/eulerian_conv_diff.cpp</text>
</a>
</g>
</g>
<!-- Node2&#45;&gt;Node8 -->
<g id="edge7" class="edge">
<title>Node2&#45;&gt;Node8</title>
<path fill="none" stroke="midnightblue" d="M1442.22,-197.81C1395.8,-185.18 1341.26,-170.34 1296.08,-158.05"/>
<polygon fill="midnightblue" stroke="midnightblue" points="1441.42,-201.22 1451.99,-200.47 1443.26,-194.47 1441.42,-201.22"/>
</g>
<!-- Node9 -->
<g id="node9" class="node">
<title>Node9</title>
<g id="a_node9"><a xlink:href="../../d8/d22/eulerian__diff_8h.html" target="_top" xlink:title=" ">
<polygon fill="none" stroke="black" points="1332,-106 1332,-158 1526,-158 1526,-106 1332,-106"/>
<text text-anchor="start" x="1340" y="-146" font-family="Helvetica,sans-Serif" font-size="10.00">/home/runner/work/Documentation</text>
<text text-anchor="start" x="1340" y="-135" font-family="Helvetica,sans-Serif" font-size="10.00">/Documentation/master/applications</text>
<text text-anchor="start" x="1340" y="-124" font-family="Helvetica,sans-Serif" font-size="10.00">/ConvectionDiffusionApplication</text>
<text text-anchor="middle" x="1429" y="-113" font-family="Helvetica,sans-Serif" font-size="10.00">/custom_elements/eulerian_diff.h</text>
</a>
</g>
</g>
<!-- Node2&#45;&gt;Node9 -->
<g id="edge8" class="edge">
<title>Node2&#45;&gt;Node9</title>
<path fill="none" stroke="midnightblue" d="M1498.54,-194.11C1483.4,-182.35 1467.12,-169.16 1454.07,-158.05"/>
<polygon fill="midnightblue" stroke="midnightblue" points="1496.75,-197.14 1506.81,-200.47 1501.02,-191.6 1496.75,-197.14"/>
</g>
<!-- Node10 -->
<g id="node10" class="node">
<title>Node10</title>
<g id="a_node10"><a xlink:href="../../d3/d97/residualbased__convdiff__strategy_8h.html" target="_top" xlink:title=" ">
<polygon fill="none" stroke="black" points="1543.5,-100.5 1543.5,-163.5 1776.5,-163.5 1776.5,-100.5 1543.5,-100.5"/>
<text text-anchor="start" x="1551.5" y="-151.5" font-family="Helvetica,sans-Serif" font-size="10.00">/home/runner/work/Documentation</text>
<text text-anchor="start" x="1551.5" y="-140.5" font-family="Helvetica,sans-Serif" font-size="10.00">/Documentation/master/applications</text>
<text text-anchor="start" x="1551.5" y="-129.5" font-family="Helvetica,sans-Serif" font-size="10.00">/ConvectionDiffusionApplication</text>
<text text-anchor="start" x="1551.5" y="-118.5" font-family="Helvetica,sans-Serif" font-size="10.00">/custom_strategies/strategies/residualbased</text>
<text text-anchor="middle" x="1660" y="-107.5" font-family="Helvetica,sans-Serif" font-size="10.00">_convdiff_strategy.h</text>
</a>
</g>
</g>
<!-- Node2&#45;&gt;Node10 -->
<g id="edge10" class="edge">
<title>Node2&#45;&gt;Node10</title>
<path fill="none" stroke="midnightblue" d="M1583.3,-194.16C1595.64,-184.32 1609.26,-173.46 1621.55,-163.66"/>
<polygon fill="midnightblue" stroke="midnightblue" points="1581.03,-191.5 1575.39,-200.47 1585.39,-196.97 1581.03,-191.5"/>
</g>
<!-- Node12 -->
<g id="node12" class="node">
<title>Node12</title>
<g id="a_node12"><a xlink:href="../../d4/de9/residualbased__convdiff__strategy__nonlinear_8h.html" target="_top" xlink:title=" ">
<polygon fill="none" stroke="black" points="1794.5,-100.5 1794.5,-163.5 2027.5,-163.5 2027.5,-100.5 1794.5,-100.5"/>
<text text-anchor="start" x="1802.5" y="-151.5" font-family="Helvetica,sans-Serif" font-size="10.00">/home/runner/work/Documentation</text>
<text text-anchor="start" x="1802.5" y="-140.5" font-family="Helvetica,sans-Serif" font-size="10.00">/Documentation/master/applications</text>
<text text-anchor="start" x="1802.5" y="-129.5" font-family="Helvetica,sans-Serif" font-size="10.00">/ConvectionDiffusionApplication</text>
<text text-anchor="start" x="1802.5" y="-118.5" font-family="Helvetica,sans-Serif" font-size="10.00">/custom_strategies/strategies/residualbased</text>
<text text-anchor="middle" x="1911" y="-107.5" font-family="Helvetica,sans-Serif" font-size="10.00">_convdiff_strategy_nonlinear.h</text>
</a>
</g>
</g>
<!-- Node2&#45;&gt;Node12 -->
<g id="edge12" class="edge">
<title>Node2&#45;&gt;Node12</title>
<path fill="none" stroke="midnightblue" d="M1651.14,-198.5C1696.03,-187.18 1748.33,-174 1794.2,-162.44"/>
<polygon fill="midnightblue" stroke="midnightblue" points="1650.23,-195.12 1641.39,-200.95 1651.94,-201.9 1650.23,-195.12"/>
</g>
<!-- Node13 -->
<g id="node13" class="node">
<title>Node13</title>
<g id="a_node13"><a xlink:href="../../d2/dff/residualbased__eulerian__convdiff__strategy_8h.html" target="_top" xlink:title=" ">
<polygon fill="none" stroke="black" points="2045.5,-100.5 2045.5,-163.5 2278.5,-163.5 2278.5,-100.5 2045.5,-100.5"/>
<text text-anchor="start" x="2053.5" y="-151.5" font-family="Helvetica,sans-Serif" font-size="10.00">/home/runner/work/Documentation</text>
<text text-anchor="start" x="2053.5" y="-140.5" font-family="Helvetica,sans-Serif" font-size="10.00">/Documentation/master/applications</text>
<text text-anchor="start" x="2053.5" y="-129.5" font-family="Helvetica,sans-Serif" font-size="10.00">/ConvectionDiffusionApplication</text>
<text text-anchor="start" x="2053.5" y="-118.5" font-family="Helvetica,sans-Serif" font-size="10.00">/custom_strategies/strategies/residualbased</text>
<text text-anchor="middle" x="2162" y="-107.5" font-family="Helvetica,sans-Serif" font-size="10.00">_eulerian_convdiff_strategy.h</text>
</a>
</g>
</g>
<!-- Node2&#45;&gt;Node13 -->
<g id="edge14" class="edge">
<title>Node2&#45;&gt;Node13</title>
<path fill="none" stroke="midnightblue" d="M1651.29,-199.9C1821.77,-172.56 1869.34,-192.11 2036,-164 2039.11,-163.48 2042.26,-162.92 2045.43,-162.33"/>
<polygon fill="midnightblue" stroke="midnightblue" points="1650.52,-196.47 1641.22,-201.54 1651.65,-203.38 1650.52,-196.47"/>
</g>
<!-- Node14 -->
<g id="node14" class="node">
<title>Node14</title>
<g id="a_node14"><a xlink:href="../../d0/d42/residualbased__semi__eulerian__convdiff__strategy_8h.html" target="_top" xlink:title=" ">
<polygon fill="none" stroke="black" points="2296.5,-100.5 2296.5,-163.5 2529.5,-163.5 2529.5,-100.5 2296.5,-100.5"/>
<text text-anchor="start" x="2304.5" y="-151.5" font-family="Helvetica,sans-Serif" font-size="10.00">/home/runner/work/Documentation</text>
<text text-anchor="start" x="2304.5" y="-140.5" font-family="Helvetica,sans-Serif" font-size="10.00">/Documentation/master/applications</text>
<text text-anchor="start" x="2304.5" y="-129.5" font-family="Helvetica,sans-Serif" font-size="10.00">/ConvectionDiffusionApplication</text>
<text text-anchor="start" x="2304.5" y="-118.5" font-family="Helvetica,sans-Serif" font-size="10.00">/custom_strategies/strategies/residualbased</text>
<text text-anchor="middle" x="2413" y="-107.5" font-family="Helvetica,sans-Serif" font-size="10.00">_semi_eulerian_convdiff_strategy.h</text>
</a>
</g>
</g>
<!-- Node2&#45;&gt;Node14 -->
<g id="edge16" class="edge">
<title>Node2&#45;&gt;Node14</title>
<path fill="none" stroke="midnightblue" d="M1651.28,-199.94C1932.35,-159.77 2009.86,-205.56 2287,-164 2290.12,-163.53 2293.27,-163.02 2296.45,-162.48"/>
<polygon fill="midnightblue" stroke="midnightblue" points="1650.59,-196.5 1641.2,-201.4 1651.6,-203.43 1650.59,-196.5"/>
</g>
<!-- Node15 -->
<g id="node15" class="node">
<title>Node15</title>
<g id="a_node15"><a xlink:href="../../d7/d10/face__heat__utilities_8h.html" target="_top" xlink:title=" ">
<polygon fill="none" stroke="black" points="2548,-106 2548,-158 2748,-158 2748,-106 2548,-106"/>
<text text-anchor="start" x="2556" y="-146" font-family="Helvetica,sans-Serif" font-size="10.00">/home/runner/work/Documentation</text>
<text text-anchor="start" x="2556" y="-135" font-family="Helvetica,sans-Serif" font-size="10.00">/Documentation/master/applications</text>
<text text-anchor="start" x="2556" y="-124" font-family="Helvetica,sans-Serif" font-size="10.00">/ConvectionDiffusionApplication</text>
<text text-anchor="middle" x="2648" y="-113" font-family="Helvetica,sans-Serif" font-size="10.00">/custom_utilities/face_heat_utilities.h</text>
</a>
</g>
</g>
<!-- Node2&#45;&gt;Node15 -->
<g id="edge18" class="edge">
<title>Node2&#45;&gt;Node15</title>
<path fill="none" stroke="midnightblue" d="M1651.38,-199.94C2043.06,-146.91 2151.24,-225.47 2538,-164 2547.6,-162.47 2557.56,-160.4 2567.38,-158.03"/>
<polygon fill="midnightblue" stroke="midnightblue" points="1650.62,-196.51 1641.19,-201.34 1651.57,-203.45 1650.62,-196.51"/>
</g>
<!-- Node17 -->
<g id="node17" class="node">
<title>Node17</title>
<g id="a_node17"><a xlink:href="../../d5/d06/move__particle__utility_8h.html" target="_top" xlink:title=" ">
<polygon fill="none" stroke="black" points="2766,-106 2766,-158 2978,-158 2978,-106 2766,-106"/>
<text text-anchor="start" x="2774" y="-146" font-family="Helvetica,sans-Serif" font-size="10.00">/home/runner/work/Documentation</text>
<text text-anchor="start" x="2774" y="-135" font-family="Helvetica,sans-Serif" font-size="10.00">/Documentation/master/applications</text>
<text text-anchor="start" x="2774" y="-124" font-family="Helvetica,sans-Serif" font-size="10.00">/ConvectionDiffusionApplication</text>
<text text-anchor="middle" x="2872" y="-113" font-family="Helvetica,sans-Serif" font-size="10.00">/custom_utilities/move_particle_utility.h</text>
</a>
</g>
</g>
<!-- Node2&#45;&gt;Node17 -->
<g id="edge20" class="edge">
<title>Node2&#45;&gt;Node17</title>
<path fill="none" stroke="midnightblue" d="M1651.32,-199.95C2139.65,-135.48 2273.44,-236.05 2757,-164 2767.12,-162.49 2777.63,-160.41 2788,-158.03"/>
<polygon fill="midnightblue" stroke="midnightblue" points="1650.63,-196.51 1641.18,-201.31 1651.56,-203.45 1650.63,-196.51"/>
</g>
<!-- Node18 -->
<g id="node18" class="node">
<title>Node18</title>
<g id="a_node18"><a xlink:href="../../d2/d0c/pure__convection___crank_n__tools_8h.html" target="_top" xlink:title=" ">
<polygon fill="none" stroke="black" points="2996,-100.5 2996,-163.5 3190,-163.5 3190,-100.5 2996,-100.5"/>
<text text-anchor="start" x="3004" y="-151.5" font-family="Helvetica,sans-Serif" font-size="10.00">/home/runner/work/Documentation</text>
<text text-anchor="start" x="3004" y="-140.5" font-family="Helvetica,sans-Serif" font-size="10.00">/Documentation/master/applications</text>
<text text-anchor="start" x="3004" y="-129.5" font-family="Helvetica,sans-Serif" font-size="10.00">/ConvectionDiffusionApplication</text>
<text text-anchor="start" x="3004" y="-118.5" font-family="Helvetica,sans-Serif" font-size="10.00">/custom_utilities/pure_convection</text>
<text text-anchor="middle" x="3093" y="-107.5" font-family="Helvetica,sans-Serif" font-size="10.00">_CrankN_tools.h</text>
</a>
</g>
</g>
<!-- Node2&#45;&gt;Node18 -->
<g id="edge22" class="edge">
<title>Node2&#45;&gt;Node18</title>
<path fill="none" stroke="midnightblue" d="M1651.22,-199.97C2241.12,-123.56 2403.05,-255.67 2987,-164 2989.94,-163.54 2992.9,-163.02 2995.89,-162.45"/>
<polygon fill="midnightblue" stroke="midnightblue" points="1650.64,-196.52 1641.18,-201.29 1651.55,-203.46 1650.64,-196.52"/>
</g>
<!-- Node19 -->
<g id="node19" class="node">
<title>Node19</title>
<g id="a_node19"><a xlink:href="../../d1/d30/pure__convection__tools_8h.html" target="_top" xlink:title=" ">
<polygon fill="none" stroke="black" points="3208.5,-106 3208.5,-158 3427.5,-158 3427.5,-106 3208.5,-106"/>
<text text-anchor="start" x="3216.5" y="-146" font-family="Helvetica,sans-Serif" font-size="10.00">/home/runner/work/Documentation</text>
<text text-anchor="start" x="3216.5" y="-135" font-family="Helvetica,sans-Serif" font-size="10.00">/Documentation/master/applications</text>
<text text-anchor="start" x="3216.5" y="-124" font-family="Helvetica,sans-Serif" font-size="10.00">/ConvectionDiffusionApplication</text>
<text text-anchor="middle" x="3318" y="-113" font-family="Helvetica,sans-Serif" font-size="10.00">/custom_utilities/pure_convection_tools.h</text>
</a>
</g>
</g>
<!-- Node2&#45;&gt;Node19 -->
<g id="edge24" class="edge">
<title>Node2&#45;&gt;Node19</title>
<path fill="none" stroke="midnightblue" d="M1651.27,-199.97C2334.66,-112.41 2520.35,-258.97 3199,-164 3209.57,-162.52 3220.55,-160.44 3231.38,-158.04"/>
<polygon fill="midnightblue" stroke="midnightblue" points="1650.65,-196.52 1641.18,-201.27 1651.54,-203.46 1650.65,-196.52"/>
</g>
<!-- Node9&#45;&gt;Node2 -->
<g id="edge9" class="edge">
<title>Node9&#45;&gt;Node2</title>
<path fill="none" stroke="midnightblue" d="M1474.49,-164.41C1489.63,-176.17 1505.91,-189.36 1518.95,-200.47"/>
<polygon fill="midnightblue" stroke="midnightblue" points="1476.28,-161.38 1466.22,-158.05 1472.01,-166.92 1476.28,-161.38"/>
</g>
<!-- Node11 -->
<g id="node11" class="node">
<title>Node11</title>
<g id="a_node11"><a xlink:href="../../da/dd9/_convection_diffusion_application_2custom__python_2add__custom__strategies__to__python_8cpp.html" target="_top" xlink:title=" ">
<polygon fill="none" stroke="black" points="1931.5,-0.5 1931.5,-63.5 2142.5,-63.5 2142.5,-0.5 1931.5,-0.5"/>
<text text-anchor="start" x="1939.5" y="-51.5" font-family="Helvetica,sans-Serif" font-size="10.00">/home/runner/work/Documentation</text>
<text text-anchor="start" x="1939.5" y="-40.5" font-family="Helvetica,sans-Serif" font-size="10.00">/Documentation/master/applications</text>
<text text-anchor="start" x="1939.5" y="-29.5" font-family="Helvetica,sans-Serif" font-size="10.00">/ConvectionDiffusionApplication</text>
<text text-anchor="start" x="1939.5" y="-18.5" font-family="Helvetica,sans-Serif" font-size="10.00">/custom_python/add_custom_strategies</text>
<text text-anchor="middle" x="2037" y="-7.5" font-family="Helvetica,sans-Serif" font-size="10.00">_to_python.cpp</text>
</a>
</g>
</g>
<!-- Node10&#45;&gt;Node11 -->
<g id="edge11" class="edge">
<title>Node10&#45;&gt;Node11</title>
<path fill="none" stroke="midnightblue" d="M1786.64,-98.08C1833.67,-85.86 1886.47,-72.13 1931.41,-60.45"/>
<polygon fill="midnightblue" stroke="midnightblue" points="1785.5,-94.76 1776.7,-100.66 1787.26,-101.53 1785.5,-94.76"/>
</g>
<!-- Node12&#45;&gt;Node11 -->
<g id="edge13" class="edge">
<title>Node12&#45;&gt;Node11</title>
<path fill="none" stroke="midnightblue" d="M1958.42,-94.11C1971.35,-84.06 1985.2,-73.29 1997.62,-63.63"/>
<polygon fill="midnightblue" stroke="midnightblue" points="1956.27,-91.36 1950.52,-100.26 1960.56,-96.88 1956.27,-91.36"/>
</g>
<!-- Node13&#45;&gt;Node11 -->
<g id="edge15" class="edge">
<title>Node13&#45;&gt;Node11</title>
<path fill="none" stroke="midnightblue" d="M2114.59,-93.83C2101.87,-83.86 2088.27,-73.2 2076.07,-63.63"/>
<polygon fill="midnightblue" stroke="midnightblue" points="2112.76,-96.85 2122.79,-100.26 2117.08,-91.34 2112.76,-96.85"/>
</g>
<!-- Node14&#45;&gt;Node11 -->
<g id="edge17" class="edge">
<title>Node14&#45;&gt;Node11</title>
<path fill="none" stroke="midnightblue" d="M2286.48,-98.02C2239.81,-85.86 2187.45,-72.21 2142.8,-60.58"/>
<polygon fill="midnightblue" stroke="midnightblue" points="2285.79,-101.46 2296.35,-100.6 2287.56,-94.69 2285.79,-101.46"/>
</g>
<!-- Node16 -->
<g id="node16" class="node">
<title>Node16</title>
<g id="a_node16"><a xlink:href="../../d7/d18/_convection_diffusion_application_2custom__python_2add__custom__utilities__to__python_8cpp.html" target="_top" xlink:title=" ">
<polygon fill="none" stroke="black" points="2882.5,-0.5 2882.5,-63.5 3081.5,-63.5 3081.5,-0.5 2882.5,-0.5"/>
<text text-anchor="start" x="2890.5" y="-51.5" font-family="Helvetica,sans-Serif" font-size="10.00">/home/runner/work/Documentation</text>
<text text-anchor="start" x="2890.5" y="-40.5" font-family="Helvetica,sans-Serif" font-size="10.00">/Documentation/master/applications</text>
<text text-anchor="start" x="2890.5" y="-29.5" font-family="Helvetica,sans-Serif" font-size="10.00">/ConvectionDiffusionApplication</text>
<text text-anchor="start" x="2890.5" y="-18.5" font-family="Helvetica,sans-Serif" font-size="10.00">/custom_python/add_custom_utilities</text>
<text text-anchor="middle" x="2982" y="-7.5" font-family="Helvetica,sans-Serif" font-size="10.00">_to_python.cpp</text>
</a>
</g>
</g>
<!-- Node15&#45;&gt;Node16 -->
<g id="edge19" class="edge">
<title>Node15&#45;&gt;Node16</title>
<path fill="none" stroke="midnightblue" d="M2743.31,-103.03C2786.84,-90.26 2838.39,-75.14 2882.42,-62.22"/>
<polygon fill="midnightblue" stroke="midnightblue" points="2742.19,-99.72 2733.58,-105.89 2744.16,-106.43 2742.19,-99.72"/>
</g>
<!-- Node17&#45;&gt;Node16 -->
<g id="edge21" class="edge">
<title>Node17&#45;&gt;Node16</title>
<path fill="none" stroke="midnightblue" d="M2908,-98.93C2920.69,-87.62 2934.92,-74.94 2947.49,-63.75"/>
<polygon fill="midnightblue" stroke="midnightblue" points="2905.47,-96.5 2900.33,-105.76 2910.12,-101.72 2905.47,-96.5"/>
</g>
<!-- Node18&#45;&gt;Node16 -->
<g id="edge23" class="edge">
<title>Node18&#45;&gt;Node16</title>
<path fill="none" stroke="midnightblue" d="M3050.58,-93.54C3039.38,-83.66 3027.43,-73.11 3016.69,-63.63"/>
<polygon fill="midnightblue" stroke="midnightblue" points="3048.37,-96.27 3058.18,-100.26 3053,-91.02 3048.37,-96.27"/>
</g>
<!-- Node19&#45;&gt;Node16 -->
<g id="edge25" class="edge">
<title>Node19&#45;&gt;Node16</title>
<path fill="none" stroke="midnightblue" d="M3222.08,-103.02C3178.09,-90.19 3125.98,-74.99 3081.56,-62.04"/>
<polygon fill="midnightblue" stroke="midnightblue" points="3221.33,-106.45 3231.91,-105.89 3223.29,-99.73 3221.33,-106.45"/>
</g>
</g>
</svg>
        <g id="navigator" transform="translate(0 0)" fill="#404254">
                <rect fill="#f2f5e9" fill-opacity="0.5" stroke="#606060" stroke-width=".5" x="0" y="0" width="60" height="60"/>
                <use id="zoomplus" xlink:href="#zoomPlus" x="17" y="9" onmousedown="handleZoom(evt,'in')"/>
                <use id="zoomminus" xlink:href="#zoomMin" x="42" y="9" onmousedown="handleZoom(evt,'out')"/>
                <use id="reset" xlink:href="#resetDef" x="30" y="36" onmousedown="handleReset()"/>
                <g id="arrowUp" xlink:href="#dirArrow" transform="translate(30 24)" onmousedown="handlePan(0,-1)">
                  <use xlink:href="#rim" fill="#404040">
                        <set attributeName="fill" to="#808080" begin="arrowUp.mouseover" end="arrowUp.mouseout"/>
                  </use>
                  <path fill="none" stroke="white" stroke-width="1.5" d="M0,-3.0v7 M-2.5,-0.5L0,-3.0L2.5,-0.5"/>
                </g>
                <g id="arrowRight" xlink:href="#dirArrow" transform="rotate(90) translate(36 -43)" onmousedown="handlePan(1,0)">
                  <use xlink:href="#rim" fill="#404040">
                        <set attributeName="fill" to="#808080" begin="arrowRight.mouseover" end="arrowRight.mouseout"/>
                  </use>
                  <path fill="none" stroke="white" stroke-width="1.5" d="M0,-3.0v7 M-2.5,-0.5L0,-3.0L2.5,-0.5"/>
                </g>
                <g id="arrowDown" xlink:href="#dirArrow" transform="rotate(180) translate(-30 -48)" onmousedown="handlePan(0,1)">
                  <use xlink:href="#rim" fill="#404040">
                        <set attributeName="fill" to="#808080" begin="arrowDown.mouseover" end="arrowDown.mouseout"/>
                  </use>
                  <path fill="none" stroke="white" stroke-width="1.5" d="M0,-3.0v7 M-2.5,-0.5L0,-3.0L2.5,-0.5"/>
                </g>
                <g id="arrowLeft" xlink:href="#dirArrow" transform="rotate(270) translate(-36 17)" onmousedown="handlePan(-1,0)">
                  <use xlink:href="#rim" fill="#404040">
                        <set attributeName="fill" to="#808080" begin="arrowLeft.mouseover" end="arrowLeft.mouseout"/>
                  </use>
                  <path fill="none" stroke="white" stroke-width="1.5" d="M0,-3.0v7 M-2.5,-0.5L0,-3.0L2.5,-0.5"/>
                </g>
        </g>
        <svg viewBox="0 0 15 15" width="100%" height="30px" preserveAspectRatio="xMaxYMin meet">
         <g id="arrow_out" transform="scale(0.3 0.3)">
          <a xlink:href="adjoint__thermal__face_8h__dep__incl_org.svg" target="_base">
           <rect id="button" ry="5" rx="5" y="6" x="6" height="38" width="38"
                fill="#f2f5e9" fill-opacity="0.5" stroke="#606060" stroke-width="1.0"/>
           <path id="arrow"
             d="M 11.500037,31.436501 C 11.940474,20.09759 22.043105,11.32322 32.158766,21.979434 L 37.068811,17.246167 C 37.068811,17.246167 37.088388,32 37.088388,32 L 22.160133,31.978069 C 22.160133,31.978069 26.997745,27.140456 26.997745,27.140456 C 18.528582,18.264221 13.291696,25.230495 11.500037,31.436501 z"
             style="fill:#404040;"/>
          </a>
         </g>
        </svg>
</svg>
