<?xml version="1.0" encoding="UTF-8" standalone="no"?>
<!DOCTYPE svg PUBLIC "-//W3C//DTD SVG 1.1//EN"
 "http://www.w3.org/Graphics/SVG/1.1/DTD/svg11.dtd">
<!-- Generated by graphviz version 2.43.0 (0)
 -->
<!-- Title: GaussDEGREE_OF_SATURATION Pages: 1 -->
<svg width="181pt" height="171pt"
 viewBox="0.00 0.00 181.00 171.00" xmlns="http://www.w3.org/2000/svg" xmlns:xlink="http://www.w3.org/1999/xlink">
<g id="graph0" class="graph" transform="scale(1 1) rotate(0) translate(4 167)">
<title>GaussDEGREE_OF_SATURATION</title>
<!-- Node1 -->
<g id="node1" class="node">
<title>Node1</title>
<g id="a_node1"><a xlink:title=" ">
<polygon fill="#bfbfbf" stroke="black" points="0,-0.5 0,-57.5 173,-57.5 173,-0.5 0,-0.5"/>
<text text-anchor="middle" x="86.5" y="-45.5" font-family="Helvetica,sans-Serif" font-size="10.00">GaussDEGREE_OF_SATURATION</text>
<polyline fill="none" stroke="black" points="0,-38.5 173,-38.5 "/>
<text text-anchor="middle" x="86.5" y="-26.5" font-family="Helvetica,sans-Serif" font-size="10.00"> </text>
<polyline fill="none" stroke="black" points="0,-19.5 173,-19.5 "/>
<text text-anchor="start" x="8" y="-7.5" font-family="Helvetica,sans-Serif" font-size="10.00">+ write()</text>
</a>
</g>
</g>
<!-- Node2 -->
<g id="node2" class="node">
<title>Node2</title>
<g id="a_node2"><a xlink:href="../../df/df0/class_gauss_operation.html" target="_top" xlink:title=" ">
<polygon fill="none" stroke="black" points="25.5,-94.5 25.5,-162.5 147.5,-162.5 147.5,-94.5 25.5,-94.5"/>
<text text-anchor="middle" x="86.5" y="-150.5" font-family="Helvetica,sans-Serif" font-size="10.00">GaussOperation</text>
<polyline fill="none" stroke="black" points="25.5,-143.5 147.5,-143.5 "/>
<text text-anchor="middle" x="86.5" y="-131.5" font-family="Helvetica,sans-Serif" font-size="10.00"> </text>
<polyline fill="none" stroke="black" points="25.5,-124.5 147.5,-124.5 "/>
<text text-anchor="start" x="33.5" y="-112.5" font-family="Helvetica,sans-Serif" font-size="10.00">+ ~GaussOperation()</text>
<text text-anchor="start" x="33.5" y="-101.5" font-family="Helvetica,sans-Serif" font-size="10.00">+ write()</text>
</a>
</g>
</g>
<!-- Node2&#45;&gt;Node1 -->
<g id="edge1" class="edge">
<title>Node2&#45;&gt;Node1</title>
<path fill="none" stroke="midnightblue" d="M86.5,-84.45C86.5,-75.4 86.5,-66.09 86.5,-57.78"/>
<polygon fill="none" stroke="midnightblue" points="83,-84.49 86.5,-94.49 90,-84.49 83,-84.49"/>
</g>
</g>
</svg>
