<?xml version="1.0" encoding="UTF-8" standalone="no"?>
<!DOCTYPE svg PUBLIC "-//W3C//DTD SVG 1.1//EN"
 "http://www.w3.org/Graphics/SVG/1.1/DTD/svg11.dtd">
<!-- Generated by graphviz version 2.43.0 (0)
 -->
<!-- Title: /home/runner/work/Documentation/Documentation/master/kratos/modeler/create_entities_from_geometries_modeler.h Pages: 1 -->
<svg width="407pt" height="150pt"
 viewBox="0.00 0.00 406.50 150.00" xmlns="http://www.w3.org/2000/svg" xmlns:xlink="http://www.w3.org/1999/xlink">
<g id="graph0" class="graph" transform="scale(1 1) rotate(0) translate(4 146)">
<title>/home/runner/work/Documentation/Documentation/master/kratos/modeler/create_entities_from_geometries_modeler.h</title>
<!-- Node1 -->
<g id="node1" class="node">
<title>Node1</title>
<g id="a_node1"><a xlink:title=" ">
<polygon fill="#bfbfbf" stroke="black" points="104,-89.5 104,-141.5 291,-141.5 291,-89.5 104,-89.5"/>
<text text-anchor="start" x="112" y="-129.5" font-family="Helvetica,sans-Serif" font-size="10.00">/home/runner/work/Documentation</text>
<text text-anchor="start" x="112" y="-118.5" font-family="Helvetica,sans-Serif" font-size="10.00">/Documentation/master/kratos</text>
<text text-anchor="start" x="112" y="-107.5" font-family="Helvetica,sans-Serif" font-size="10.00">/modeler/create_entities_from</text>
<text text-anchor="middle" x="197.5" y="-96.5" font-family="Helvetica,sans-Serif" font-size="10.00">_geometries_modeler.h</text>
</a>
</g>
</g>
<!-- Node2 -->
<g id="node2" class="node">
<title>Node2</title>
<g id="a_node2"><a xlink:href="../../da/d11/create__entities__from__geometries__modeler_8cpp.html" target="_top" xlink:title=" ">
<polygon fill="none" stroke="black" points="0,-0.5 0,-52.5 187,-52.5 187,-0.5 0,-0.5"/>
<text text-anchor="start" x="8" y="-40.5" font-family="Helvetica,sans-Serif" font-size="10.00">/home/runner/work/Documentation</text>
<text text-anchor="start" x="8" y="-29.5" font-family="Helvetica,sans-Serif" font-size="10.00">/Documentation/master/kratos</text>
<text text-anchor="start" x="8" y="-18.5" font-family="Helvetica,sans-Serif" font-size="10.00">/modeler/create_entities_from</text>
<text text-anchor="middle" x="93.5" y="-7.5" font-family="Helvetica,sans-Serif" font-size="10.00">_geometries_modeler.cpp</text>
</a>
</g>
</g>
<!-- Node1&#45;&gt;Node2 -->
<g id="edge1" class="edge">
<title>Node1&#45;&gt;Node2</title>
<path fill="none" stroke="midnightblue" d="M159.43,-82.65C147.59,-72.75 134.72,-61.98 123.51,-52.61"/>
<polygon fill="midnightblue" stroke="midnightblue" points="157.5,-85.6 167.42,-89.34 161.99,-80.24 157.5,-85.6"/>
</g>
<!-- Node3 -->
<g id="node3" class="node">
<title>Node3</title>
<g id="a_node3"><a xlink:href="../../dc/dac/add__modeler__to__python_8cpp.html" target="_top" xlink:title=" ">
<polygon fill="none" stroke="black" points="204.5,-6 204.5,-47 398.5,-47 398.5,-6 204.5,-6"/>
<text text-anchor="start" x="212.5" y="-35" font-family="Helvetica,sans-Serif" font-size="10.00">/home/runner/work/Documentation</text>
<text text-anchor="start" x="212.5" y="-24" font-family="Helvetica,sans-Serif" font-size="10.00">/Documentation/master/kratos</text>
<text text-anchor="middle" x="301.5" y="-13" font-family="Helvetica,sans-Serif" font-size="10.00">/python/add_modeler_to_python.cpp</text>
</a>
</g>
</g>
<!-- Node1&#45;&gt;Node3 -->
<g id="edge2" class="edge">
<title>Node1&#45;&gt;Node3</title>
<path fill="none" stroke="midnightblue" d="M235.34,-82.85C249.64,-70.88 265.49,-57.62 278.09,-47.08"/>
<polygon fill="midnightblue" stroke="midnightblue" points="233.01,-80.24 227.58,-89.34 237.5,-85.6 233.01,-80.24"/>
</g>
</g>
</svg>
