<?xml version="1.0" encoding="UTF-8" standalone="no"?>
<!DOCTYPE svg PUBLIC "-//W3C//DTD SVG 1.1//EN"
 "http://www.w3.org/Graphics/SVG/1.1/DTD/svg11.dtd">
<!-- Generated by graphviz version 2.43.0 (0)
 -->
<!-- Title: /home/runner/work/Documentation/Documentation/master/kratos/modeler/entity_generation/voxel_mesher_entity_generation_factory.h Pages: 1 -->
<svg width="627pt" height="150pt"
 viewBox="0.00 0.00 627.00 150.00" xmlns="http://www.w3.org/2000/svg" xmlns:xlink="http://www.w3.org/1999/xlink">
<g id="graph0" class="graph" transform="scale(1 1) rotate(0) translate(4 146)">
<title>/home/runner/work/Documentation/Documentation/master/kratos/modeler/entity_generation/voxel_mesher_entity_generation_factory.h</title>
<!-- Node1 -->
<g id="node1" class="node">
<title>Node1</title>
<g id="a_node1"><a xlink:title=" ">
<polygon fill="#bfbfbf" stroke="black" points="222,-89.5 222,-141.5 419,-141.5 419,-89.5 222,-89.5"/>
<text text-anchor="start" x="230" y="-129.5" font-family="Helvetica,sans-Serif" font-size="10.00">/home/runner/work/Documentation</text>
<text text-anchor="start" x="230" y="-118.5" font-family="Helvetica,sans-Serif" font-size="10.00">/Documentation/master/kratos</text>
<text text-anchor="start" x="230" y="-107.5" font-family="Helvetica,sans-Serif" font-size="10.00">/modeler/entity_generation/voxel</text>
<text text-anchor="middle" x="320.5" y="-96.5" font-family="Helvetica,sans-Serif" font-size="10.00">_mesher_entity_generation_factory.h</text>
</a>
</g>
</g>
<!-- Node2 -->
<g id="node2" class="node">
<title>Node2</title>
<g id="a_node2"><a xlink:href="../../df/d9d/voxel__mesher__entity__generation__factory_8cpp.html" target="_top" xlink:title=" ">
<polygon fill="none" stroke="black" points="0,-0.5 0,-52.5 209,-52.5 209,-0.5 0,-0.5"/>
<text text-anchor="start" x="8" y="-40.5" font-family="Helvetica,sans-Serif" font-size="10.00">/home/runner/work/Documentation</text>
<text text-anchor="start" x="8" y="-29.5" font-family="Helvetica,sans-Serif" font-size="10.00">/Documentation/master/kratos</text>
<text text-anchor="start" x="8" y="-18.5" font-family="Helvetica,sans-Serif" font-size="10.00">/modeler/entity_generation/voxel</text>
<text text-anchor="middle" x="104.5" y="-7.5" font-family="Helvetica,sans-Serif" font-size="10.00">_mesher_entity_generation_factory.cpp</text>
</a>
</g>
</g>
<!-- Node1&#45;&gt;Node2 -->
<g id="edge1" class="edge">
<title>Node1&#45;&gt;Node2</title>
<path fill="none" stroke="midnightblue" d="M248.69,-85.58C222.12,-74.88 192.25,-62.85 166.62,-52.52"/>
<polygon fill="midnightblue" stroke="midnightblue" points="247.73,-88.96 258.31,-89.45 250.35,-82.47 247.73,-88.96"/>
</g>
<!-- Node3 -->
<g id="node3" class="node">
<title>Node3</title>
<g id="a_node3"><a xlink:href="../../d4/dd7/voxel__mesh__generator__modeler_8cpp.html" target="_top" xlink:title=" ">
<polygon fill="none" stroke="black" points="227,-0.5 227,-52.5 414,-52.5 414,-0.5 227,-0.5"/>
<text text-anchor="start" x="235" y="-40.5" font-family="Helvetica,sans-Serif" font-size="10.00">/home/runner/work/Documentation</text>
<text text-anchor="start" x="235" y="-29.5" font-family="Helvetica,sans-Serif" font-size="10.00">/Documentation/master/kratos</text>
<text text-anchor="start" x="235" y="-18.5" font-family="Helvetica,sans-Serif" font-size="10.00">/modeler/voxel_mesh_generator</text>
<text text-anchor="middle" x="320.5" y="-7.5" font-family="Helvetica,sans-Serif" font-size="10.00">_modeler.cpp</text>
</a>
</g>
</g>
<!-- Node1&#45;&gt;Node3 -->
<g id="edge2" class="edge">
<title>Node1&#45;&gt;Node3</title>
<path fill="none" stroke="midnightblue" d="M320.5,-79.19C320.5,-70.28 320.5,-60.9 320.5,-52.61"/>
<polygon fill="midnightblue" stroke="midnightblue" points="317,-79.34 320.5,-89.34 324,-79.34 317,-79.34"/>
</g>
<!-- Node4 -->
<g id="node4" class="node">
<title>Node4</title>
<g id="a_node4"><a xlink:href="../../da/dd0/kratos__application_8cpp.html" target="_top" xlink:title=" ">
<polygon fill="none" stroke="black" points="432,-6 432,-47 619,-47 619,-6 432,-6"/>
<text text-anchor="start" x="440" y="-35" font-family="Helvetica,sans-Serif" font-size="10.00">/home/runner/work/Documentation</text>
<text text-anchor="start" x="440" y="-24" font-family="Helvetica,sans-Serif" font-size="10.00">/Documentation/master/kratos</text>
<text text-anchor="middle" x="525.5" y="-13" font-family="Helvetica,sans-Serif" font-size="10.00">/sources/kratos_application.cpp</text>
</a>
</g>
</g>
<!-- Node1&#45;&gt;Node4 -->
<g id="edge3" class="edge">
<title>Node1&#45;&gt;Node4</title>
<path fill="none" stroke="midnightblue" d="M388.99,-85.43C418.66,-72.84 452.61,-58.43 479.24,-47.13"/>
<polygon fill="midnightblue" stroke="midnightblue" points="387.36,-82.32 379.52,-89.45 390.09,-88.77 387.36,-82.32"/>
</g>
</g>
</svg>
