<?xml version="1.0" encoding="UTF-8" standalone="no"?>
<!DOCTYPE svg PUBLIC "-//W3C//DTD SVG 1.1//EN"
 "http://www.w3.org/Graphics/SVG/1.1/DTD/svg11.dtd">
<!-- Generated by graphviz version 2.43.0 (0)
 -->
<!-- Title: apply_vector_constraint_table_process.ApplyVectorConstraintTableProcess Pages: 1 -->
<svg width="209pt" height="347pt"
 viewBox="0.00 0.00 209.00 347.00" xmlns="http://www.w3.org/2000/svg" xmlns:xlink="http://www.w3.org/1999/xlink">
<g id="graph0" class="graph" transform="scale(1 1) rotate(0) translate(4 343)">
<title>apply_vector_constraint_table_process.ApplyVectorConstraintTableProcess</title>
<!-- Node1 -->
<g id="node1" class="node">
<title>Node1</title>
<g id="a_node1"><a xlink:title="All the processes python should be derived from &quot;Process&quot;.">
<polygon fill="#bfbfbf" stroke="black" points="0,-0.5 0,-244.5 201,-244.5 201,-0.5 0,-0.5"/>
<text text-anchor="start" x="8" y="-232.5" font-family="Helvetica,sans-Serif" font-size="10.00">apply_vector_constraint</text>
<text text-anchor="start" x="8" y="-221.5" font-family="Helvetica,sans-Serif" font-size="10.00">_table_process.ApplyVectorConstraint</text>
<text text-anchor="middle" x="100.5" y="-210.5" font-family="Helvetica,sans-Serif" font-size="10.00">TableProcess</text>
<polyline fill="none" stroke="black" points="0,-203.5 201,-203.5 "/>
<text text-anchor="start" x="8" y="-191.5" font-family="Helvetica,sans-Serif" font-size="10.00">+ components_process_list</text>
<text text-anchor="start" x="8" y="-180.5" font-family="Helvetica,sans-Serif" font-size="10.00">+ model_part</text>
<text text-anchor="start" x="8" y="-169.5" font-family="Helvetica,sans-Serif" font-size="10.00">+ x_params</text>
<text text-anchor="start" x="8" y="-158.5" font-family="Helvetica,sans-Serif" font-size="10.00">+ y_params</text>
<text text-anchor="start" x="8" y="-147.5" font-family="Helvetica,sans-Serif" font-size="10.00">+ z_params</text>
<polyline fill="none" stroke="black" points="0,-140.5 201,-140.5 "/>
<text text-anchor="start" x="8" y="-128.5" font-family="Helvetica,sans-Serif" font-size="10.00">+ __init__()</text>
<text text-anchor="start" x="8" y="-117.5" font-family="Helvetica,sans-Serif" font-size="10.00">+ ExecuteInitialize()</text>
<text text-anchor="start" x="8" y="-106.5" font-family="Helvetica,sans-Serif" font-size="10.00">+ ExecuteInitializeSolution</text>
<text text-anchor="start" x="8" y="-95.5" font-family="Helvetica,sans-Serif" font-size="10.00">Step()</text>
<text text-anchor="start" x="8" y="-84.5" font-family="Helvetica,sans-Serif" font-size="10.00">+ __init__()</text>
<text text-anchor="start" x="8" y="-73.5" font-family="Helvetica,sans-Serif" font-size="10.00">+ ExecuteInitialize()</text>
<text text-anchor="start" x="8" y="-62.5" font-family="Helvetica,sans-Serif" font-size="10.00">+ ExecuteInitializeSolution</text>
<text text-anchor="start" x="8" y="-51.5" font-family="Helvetica,sans-Serif" font-size="10.00">Step()</text>
<text text-anchor="start" x="8" y="-40.5" font-family="Helvetica,sans-Serif" font-size="10.00">+ __init__()</text>
<text text-anchor="start" x="8" y="-29.5" font-family="Helvetica,sans-Serif" font-size="10.00">+ ExecuteInitialize()</text>
<text text-anchor="start" x="8" y="-18.5" font-family="Helvetica,sans-Serif" font-size="10.00">+ ExecuteInitializeSolution</text>
<text text-anchor="start" x="8" y="-7.5" font-family="Helvetica,sans-Serif" font-size="10.00">Step()</text>
</a>
</g>
</g>
<!-- Node2 -->
<g id="node2" class="node">
<title>Node2</title>
<g id="a_node2"><a xlink:title=" ">
<polygon fill="none" stroke="#bfbfbf" points="25.5,-281.5 25.5,-338.5 175.5,-338.5 175.5,-281.5 25.5,-281.5"/>
<text text-anchor="middle" x="100.5" y="-326.5" font-family="Helvetica,sans-Serif" font-size="10.00">KratosMultiphysics.Process</text>
<polyline fill="none" stroke="#bfbfbf" points="25.5,-319.5 175.5,-319.5 "/>
<text text-anchor="middle" x="100.5" y="-307.5" font-family="Helvetica,sans-Serif" font-size="10.00"> </text>
<polyline fill="none" stroke="#bfbfbf" points="25.5,-300.5 175.5,-300.5 "/>
<text text-anchor="middle" x="100.5" y="-288.5" font-family="Helvetica,sans-Serif" font-size="10.00"> </text>
</a>
</g>
</g>
<!-- Node2&#45;&gt;Node1 -->
<g id="edge1" class="edge">
<title>Node2&#45;&gt;Node1</title>
<path fill="none" stroke="midnightblue" d="M89.37,-271.14C88.57,-263.05 87.98,-254.1 87.58,-244.72"/>
<polygon fill="none" stroke="midnightblue" points="85.91,-271.7 90.54,-281.23 92.87,-270.89 85.91,-271.7"/>
</g>
<!-- Node2&#45;&gt;Node1 -->
<g id="edge2" class="edge">
<title>Node2&#45;&gt;Node1</title>
<path fill="none" stroke="midnightblue" d="M100.5,-271.14C100.5,-263.05 100.5,-254.1 100.5,-244.72"/>
<polygon fill="none" stroke="midnightblue" points="97,-271.23 100.5,-281.23 104,-271.23 97,-271.23"/>
</g>
<!-- Node2&#45;&gt;Node1 -->
<g id="edge3" class="edge">
<title>Node2&#45;&gt;Node1</title>
<path fill="none" stroke="midnightblue" d="M111.63,-271.14C112.43,-263.05 113.02,-254.1 113.42,-244.72"/>
<polygon fill="none" stroke="midnightblue" points="108.13,-270.89 110.46,-281.23 115.09,-271.7 108.13,-270.89"/>
</g>
</g>
</svg>
