<?xml version="1.0" encoding="UTF-8" standalone="no"?>
<!DOCTYPE svg PUBLIC "-//W3C//DTD SVG 1.1//EN"
 "http://www.w3.org/Graphics/SVG/1.1/DTD/svg11.dtd">
<!-- Generated by graphviz version 2.43.0 (0)
 -->
<!-- Title: /home/runner/work/Documentation/Documentation/master/applications/OptimizationApplication/custom_utilities/optimization_utils.h Pages: 1 -->
<svg width="1331pt" height="161pt"
 viewBox="0.00 0.00 1330.50 161.00" xmlns="http://www.w3.org/2000/svg" xmlns:xlink="http://www.w3.org/1999/xlink">
<g id="graph0" class="graph" transform="scale(1 1) rotate(0) translate(4 157)">
<title>/home/runner/work/Documentation/Documentation/master/applications/OptimizationApplication/custom_utilities/optimization_utils.h</title>
<!-- Node1 -->
<g id="node1" class="node">
<title>Node1</title>
<g id="a_node1"><a xlink:title=" ">
<polygon fill="#bfbfbf" stroke="black" points="558,-100.5 558,-152.5 752,-152.5 752,-100.5 558,-100.5"/>
<text text-anchor="start" x="566" y="-140.5" font-family="Helvetica,sans-Serif" font-size="10.00">/home/runner/work/Documentation</text>
<text text-anchor="start" x="566" y="-129.5" font-family="Helvetica,sans-Serif" font-size="10.00">/Documentation/master/applications</text>
<text text-anchor="start" x="566" y="-118.5" font-family="Helvetica,sans-Serif" font-size="10.00">/OptimizationApplication/custom</text>
<text text-anchor="middle" x="655" y="-107.5" font-family="Helvetica,sans-Serif" font-size="10.00">_utilities/optimization_utils.h</text>
</a>
</g>
</g>
<!-- Node2 -->
<g id="node2" class="node">
<title>Node2</title>
<g id="a_node2"><a xlink:href="../../d4/d97/_optimization_application_2custom__python_2add__custom__utilities__to__python_8cpp.html" target="_top" xlink:title=" ">
<polygon fill="none" stroke="black" points="0,-0.5 0,-63.5 194,-63.5 194,-0.5 0,-0.5"/>
<text text-anchor="start" x="8" y="-51.5" font-family="Helvetica,sans-Serif" font-size="10.00">/home/runner/work/Documentation</text>
<text text-anchor="start" x="8" y="-40.5" font-family="Helvetica,sans-Serif" font-size="10.00">/Documentation/master/applications</text>
<text text-anchor="start" x="8" y="-29.5" font-family="Helvetica,sans-Serif" font-size="10.00">/OptimizationApplication/custom</text>
<text text-anchor="start" x="8" y="-18.5" font-family="Helvetica,sans-Serif" font-size="10.00">_python/add_custom_utilities_to</text>
<text text-anchor="middle" x="97" y="-7.5" font-family="Helvetica,sans-Serif" font-size="10.00">_python.cpp</text>
</a>
</g>
</g>
<!-- Node1&#45;&gt;Node2 -->
<g id="edge1" class="edge">
<title>Node1&#45;&gt;Node2</title>
<path fill="none" stroke="midnightblue" d="M547.56,-115.45C455.49,-105.75 319.65,-88.85 203,-64 200.09,-63.38 197.15,-62.72 194.19,-62.03"/>
<polygon fill="midnightblue" stroke="midnightblue" points="547.42,-118.95 557.73,-116.51 548.15,-111.99 547.42,-118.95"/>
</g>
<!-- Node3 -->
<g id="node3" class="node">
<title>Node3</title>
<g id="a_node3"><a xlink:href="../../db/d2b/explicit__filter__utils_8cpp.html" target="_top" xlink:title=" ">
<polygon fill="none" stroke="black" points="212,-6 212,-58 424,-58 424,-6 212,-6"/>
<text text-anchor="start" x="220" y="-46" font-family="Helvetica,sans-Serif" font-size="10.00">/home/runner/work/Documentation</text>
<text text-anchor="start" x="220" y="-35" font-family="Helvetica,sans-Serif" font-size="10.00">/Documentation/master/applications</text>
<text text-anchor="start" x="220" y="-24" font-family="Helvetica,sans-Serif" font-size="10.00">/OptimizationApplication/custom</text>
<text text-anchor="middle" x="318" y="-13" font-family="Helvetica,sans-Serif" font-size="10.00">_utilities/filtering/explicit_filter_utils.cpp</text>
</a>
</g>
</g>
<!-- Node1&#45;&gt;Node3 -->
<g id="edge2" class="edge">
<title>Node1&#45;&gt;Node3</title>
<path fill="none" stroke="midnightblue" d="M554.12,-97.81C508.11,-85.18 454.05,-70.34 409.27,-58.05"/>
<polygon fill="midnightblue" stroke="midnightblue" points="553.23,-101.2 563.8,-100.47 555.09,-94.45 553.23,-101.2"/>
</g>
<!-- Node4 -->
<g id="node4" class="node">
<title>Node4</title>
<g id="a_node4"><a xlink:href="../../d7/d0e/integrated__neareset__entity__explicit__damping_8cpp.html" target="_top" xlink:title=" ">
<polygon fill="none" stroke="black" points="442,-0.5 442,-63.5 650,-63.5 650,-0.5 442,-0.5"/>
<text text-anchor="start" x="450" y="-51.5" font-family="Helvetica,sans-Serif" font-size="10.00">/home/runner/work/Documentation</text>
<text text-anchor="start" x="450" y="-40.5" font-family="Helvetica,sans-Serif" font-size="10.00">/Documentation/master/applications</text>
<text text-anchor="start" x="450" y="-29.5" font-family="Helvetica,sans-Serif" font-size="10.00">/OptimizationApplication/custom</text>
<text text-anchor="start" x="450" y="-18.5" font-family="Helvetica,sans-Serif" font-size="10.00">_utilities/filtering/integrated</text>
<text text-anchor="middle" x="546" y="-7.5" font-family="Helvetica,sans-Serif" font-size="10.00">_neareset_entity_explicit_damping.cpp</text>
</a>
</g>
</g>
<!-- Node1&#45;&gt;Node4 -->
<g id="edge3" class="edge">
<title>Node1&#45;&gt;Node4</title>
<path fill="none" stroke="midnightblue" d="M617.74,-93.88C606.23,-84.11 593.57,-73.37 582.13,-63.66"/>
<polygon fill="midnightblue" stroke="midnightblue" points="615.61,-96.67 625.5,-100.47 620.14,-91.33 615.61,-96.67"/>
</g>
<!-- Node5 -->
<g id="node5" class="node">
<title>Node5</title>
<g id="a_node5"><a xlink:href="../../d8/d97/neareset__entity__explicit__damping_8cpp.html" target="_top" xlink:title=" ">
<polygon fill="none" stroke="black" points="668,-0.5 668,-63.5 862,-63.5 862,-0.5 668,-0.5"/>
<text text-anchor="start" x="676" y="-51.5" font-family="Helvetica,sans-Serif" font-size="10.00">/home/runner/work/Documentation</text>
<text text-anchor="start" x="676" y="-40.5" font-family="Helvetica,sans-Serif" font-size="10.00">/Documentation/master/applications</text>
<text text-anchor="start" x="676" y="-29.5" font-family="Helvetica,sans-Serif" font-size="10.00">/OptimizationApplication/custom</text>
<text text-anchor="start" x="676" y="-18.5" font-family="Helvetica,sans-Serif" font-size="10.00">_utilities/filtering/neareset_entity</text>
<text text-anchor="middle" x="765" y="-7.5" font-family="Helvetica,sans-Serif" font-size="10.00">_explicit_damping.cpp</text>
</a>
</g>
</g>
<!-- Node1&#45;&gt;Node5 -->
<g id="edge4" class="edge">
<title>Node1&#45;&gt;Node5</title>
<path fill="none" stroke="midnightblue" d="M692.6,-93.88C704.22,-84.11 716.99,-73.37 728.54,-63.66"/>
<polygon fill="midnightblue" stroke="midnightblue" points="690.17,-91.35 684.77,-100.47 694.67,-96.71 690.17,-91.35"/>
</g>
<!-- Node6 -->
<g id="node6" class="node">
<title>Node6</title>
<g id="a_node6"><a xlink:href="../../d8/d17/optimization__utils_8cpp.html" target="_top" xlink:title=" ">
<polygon fill="none" stroke="black" points="880,-6 880,-58 1074,-58 1074,-6 880,-6"/>
<text text-anchor="start" x="888" y="-46" font-family="Helvetica,sans-Serif" font-size="10.00">/home/runner/work/Documentation</text>
<text text-anchor="start" x="888" y="-35" font-family="Helvetica,sans-Serif" font-size="10.00">/Documentation/master/applications</text>
<text text-anchor="start" x="888" y="-24" font-family="Helvetica,sans-Serif" font-size="10.00">/OptimizationApplication/custom</text>
<text text-anchor="middle" x="977" y="-13" font-family="Helvetica,sans-Serif" font-size="10.00">_utilities/optimization_utils.cpp</text>
</a>
</g>
</g>
<!-- Node1&#45;&gt;Node6 -->
<g id="edge5" class="edge">
<title>Node1&#45;&gt;Node6</title>
<path fill="none" stroke="midnightblue" d="M753.34,-97.66C790.26,-87.17 832.57,-75.09 871,-64 877.72,-62.06 884.69,-60.04 891.68,-58.01"/>
<polygon fill="midnightblue" stroke="midnightblue" points="752.24,-94.33 743.58,-100.43 754.16,-101.07 752.24,-94.33"/>
</g>
<!-- Node7 -->
<g id="node7" class="node">
<title>Node7</title>
<g id="a_node7"><a xlink:href="../../df/de0/mass__response__utils_8cpp.html" target="_top" xlink:title=" ">
<polygon fill="none" stroke="black" points="1091.5,-6 1091.5,-58 1322.5,-58 1322.5,-6 1091.5,-6"/>
<text text-anchor="start" x="1099.5" y="-46" font-family="Helvetica,sans-Serif" font-size="10.00">/home/runner/work/Documentation</text>
<text text-anchor="start" x="1099.5" y="-35" font-family="Helvetica,sans-Serif" font-size="10.00">/Documentation/master/applications</text>
<text text-anchor="start" x="1099.5" y="-24" font-family="Helvetica,sans-Serif" font-size="10.00">/OptimizationApplication/custom</text>
<text text-anchor="middle" x="1207" y="-13" font-family="Helvetica,sans-Serif" font-size="10.00">_utilities/response/mass_response_utils.cpp</text>
</a>
</g>
</g>
<!-- Node1&#45;&gt;Node7 -->
<g id="edge6" class="edge">
<title>Node1&#45;&gt;Node7</title>
<path fill="none" stroke="midnightblue" d="M762.5,-113.15C849.37,-102.42 974.59,-85.28 1083,-64 1092.15,-62.2 1101.63,-60.16 1111.09,-58.01"/>
<polygon fill="midnightblue" stroke="midnightblue" points="761.87,-109.7 752.37,-114.39 762.72,-116.65 761.87,-109.7"/>
</g>
</g>
</svg>
