<?xml version="1.0" encoding="UTF-8" standalone="no"?>
<!DOCTYPE svg PUBLIC "-//W3C//DTD SVG 1.1//EN"
 "http://www.w3.org/Graphics/SVG/1.1/DTD/svg11.dtd">
<!-- Generated by graphviz version 2.43.0 (0)
 -->
<!-- Title: /home/runner/work/Documentation/Documentation/master/applications/ConstitutiveLawsApplication/custom_constitutive/finite_strains/plasticity/generic_finite_strain_kinematic_plasticity.h Pages: 1 -->
<svg width="274pt" height="228pt"
 viewBox="0.00 0.00 273.50 228.00" xmlns="http://www.w3.org/2000/svg" xmlns:xlink="http://www.w3.org/1999/xlink">
<g id="graph0" class="graph" transform="scale(1 1) rotate(0) translate(4 224)">
<title>/home/runner/work/Documentation/Documentation/master/applications/ConstitutiveLawsApplication/custom_constitutive/finite_strains/plasticity/generic_finite_strain_kinematic_plasticity.h</title>
<!-- Node1 -->
<g id="node1" class="node">
<title>Node1</title>
<g id="a_node1"><a xlink:title=" ">
<polygon fill="#bfbfbf" stroke="black" points="18.5,-156.5 18.5,-219.5 248.5,-219.5 248.5,-156.5 18.5,-156.5"/>
<text text-anchor="start" x="26.5" y="-207.5" font-family="Helvetica,sans-Serif" font-size="10.00">/home/runner/work/Documentation</text>
<text text-anchor="start" x="26.5" y="-196.5" font-family="Helvetica,sans-Serif" font-size="10.00">/Documentation/master/applications</text>
<text text-anchor="start" x="26.5" y="-185.5" font-family="Helvetica,sans-Serif" font-size="10.00">/ConstitutiveLawsApplication/custom</text>
<text text-anchor="start" x="26.5" y="-174.5" font-family="Helvetica,sans-Serif" font-size="10.00">_constitutive/finite_strains/plasticity</text>
<text text-anchor="middle" x="133.5" y="-163.5" font-family="Helvetica,sans-Serif" font-size="10.00">/generic_finite_strain_kinematic_plasticity.h</text>
</a>
</g>
</g>
<!-- Node2 -->
<g id="node2" class="node">
<title>Node2</title>
<g id="a_node2"><a xlink:href="../../d7/d9f/generic__small__strain__kinematic__plasticity_8h.html" target="_top" xlink:title=" ">
<polygon fill="none" stroke="black" points="46,-67.5 46,-119.5 221,-119.5 221,-67.5 46,-67.5"/>
<text text-anchor="start" x="54" y="-107.5" font-family="Helvetica,sans-Serif" font-size="10.00">custom_constitutive</text>
<text text-anchor="start" x="54" y="-96.5" font-family="Helvetica,sans-Serif" font-size="10.00">/small_strains/plasticity</text>
<text text-anchor="start" x="54" y="-85.5" font-family="Helvetica,sans-Serif" font-size="10.00">/generic_small_strain_kinematic</text>
<text text-anchor="middle" x="133.5" y="-74.5" font-family="Helvetica,sans-Serif" font-size="10.00">_plasticity.h</text>
</a>
</g>
</g>
<!-- Node1&#45;&gt;Node2 -->
<g id="edge1" class="edge">
<title>Node1&#45;&gt;Node2</title>
<path fill="none" stroke="midnightblue" d="M133.5,-156.46C133.5,-148 133.5,-138.75 133.5,-130.04"/>
<polygon fill="midnightblue" stroke="midnightblue" points="137,-129.77 133.5,-119.77 130,-129.77 137,-129.77"/>
</g>
<!-- Node3 -->
<g id="node3" class="node">
<title>Node3</title>
<g id="a_node3"><a xlink:title=" ">
<polygon fill="none" stroke="#bfbfbf" points="0,-0.5 0,-30.5 125,-30.5 125,-0.5 0,-0.5"/>
<text text-anchor="start" x="8" y="-18.5" font-family="Helvetica,sans-Serif" font-size="10.00">custom_constitutive</text>
<text text-anchor="middle" x="62.5" y="-7.5" font-family="Helvetica,sans-Serif" font-size="10.00">/elastic_isotropic_3d.h</text>
</a>
</g>
</g>
<!-- Node2&#45;&gt;Node3 -->
<g id="edge2" class="edge">
<title>Node2&#45;&gt;Node3</title>
<path fill="none" stroke="midnightblue" d="M109.86,-67.19C101.12,-57.84 91.3,-47.33 82.88,-38.32"/>
<polygon fill="midnightblue" stroke="midnightblue" points="85.29,-35.76 75.9,-30.85 80.17,-40.54 85.29,-35.76"/>
</g>
<!-- Node4 -->
<g id="node4" class="node">
<title>Node4</title>
<g id="a_node4"><a xlink:title=" ">
<polygon fill="none" stroke="#bfbfbf" points="143.5,-0.5 143.5,-30.5 265.5,-30.5 265.5,-0.5 143.5,-0.5"/>
<text text-anchor="start" x="151.5" y="-18.5" font-family="Helvetica,sans-Serif" font-size="10.00">custom_constitutive</text>
<text text-anchor="middle" x="204.5" y="-7.5" font-family="Helvetica,sans-Serif" font-size="10.00">/linear_plane_strain.h</text>
</a>
</g>
</g>
<!-- Node2&#45;&gt;Node4 -->
<g id="edge3" class="edge">
<title>Node2&#45;&gt;Node4</title>
<path fill="none" stroke="midnightblue" d="M157.14,-67.19C165.88,-57.84 175.7,-47.33 184.12,-38.32"/>
<polygon fill="midnightblue" stroke="midnightblue" points="186.83,-40.54 191.1,-30.85 181.71,-35.76 186.83,-40.54"/>
</g>
</g>
</svg>
