<?xml version="1.0" encoding="UTF-8" standalone="no"?>
<!DOCTYPE svg PUBLIC "-//W3C//DTD SVG 1.1//EN"
 "http://www.w3.org/Graphics/SVG/1.1/DTD/svg11.dtd">
<!-- Generated by graphviz version 2.43.0 (0)
 -->
<!-- Title: /home/runner/work/Documentation/Documentation/master/applications/CompressiblePotentialFlowApplication/custom_conditions/potential_wall_condition.h Pages: 1 -->
<svg width="740pt" height="250pt"
 viewBox="0.00 0.00 739.50 250.00" xmlns="http://www.w3.org/2000/svg" xmlns:xlink="http://www.w3.org/1999/xlink">
<g id="graph0" class="graph" transform="scale(1 1) rotate(0) translate(4 246)">
<title>/home/runner/work/Documentation/Documentation/master/applications/CompressiblePotentialFlowApplication/custom_conditions/potential_wall_condition.h</title>
<!-- Node1 -->
<g id="node1" class="node">
<title>Node1</title>
<g id="a_node1"><a xlink:title=" ">
<polygon fill="#bfbfbf" stroke="black" points="234.5,-189.5 234.5,-241.5 476.5,-241.5 476.5,-189.5 234.5,-189.5"/>
<text text-anchor="start" x="242.5" y="-229.5" font-family="Helvetica,sans-Serif" font-size="10.00">/home/runner/work/Documentation</text>
<text text-anchor="start" x="242.5" y="-218.5" font-family="Helvetica,sans-Serif" font-size="10.00">/Documentation/master/applications</text>
<text text-anchor="start" x="242.5" y="-207.5" font-family="Helvetica,sans-Serif" font-size="10.00">/CompressiblePotentialFlowApplication</text>
<text text-anchor="middle" x="355.5" y="-196.5" font-family="Helvetica,sans-Serif" font-size="10.00">/custom_conditions/potential_wall_condition.h</text>
</a>
</g>
</g>
<!-- Node2 -->
<g id="node2" class="node">
<title>Node2</title>
<g id="a_node2"><a xlink:href="../../d9/df3/compressible__potential__flow__application_8h.html" target="_top" xlink:title=" ">
<polygon fill="none" stroke="black" points="6,-95 6,-147 233,-147 233,-95 6,-95"/>
<text text-anchor="start" x="14" y="-135" font-family="Helvetica,sans-Serif" font-size="10.00">/home/runner/work/Documentation</text>
<text text-anchor="start" x="14" y="-124" font-family="Helvetica,sans-Serif" font-size="10.00">/Documentation/master/applications</text>
<text text-anchor="start" x="14" y="-113" font-family="Helvetica,sans-Serif" font-size="10.00">/CompressiblePotentialFlowApplication</text>
<text text-anchor="middle" x="119.5" y="-102" font-family="Helvetica,sans-Serif" font-size="10.00">/compressible_potential_flow_application.h</text>
</a>
</g>
</g>
<!-- Node1&#45;&gt;Node2 -->
<g id="edge1" class="edge">
<title>Node1&#45;&gt;Node2</title>
<path fill="none" stroke="midnightblue" d="M282.01,-185.69C250.42,-173.32 213.86,-158.98 183.42,-147.05"/>
<polygon fill="midnightblue" stroke="midnightblue" points="281.05,-189.08 291.64,-189.47 283.6,-182.56 281.05,-189.08"/>
</g>
<!-- Node4 -->
<g id="node4" class="node">
<title>Node4</title>
<g id="a_node4"><a xlink:href="../../d7/dcf/adjoint__potential__wall__condition_8cpp.html" target="_top" xlink:title=" ">
<polygon fill="none" stroke="black" points="251.5,-89.5 251.5,-152.5 459.5,-152.5 459.5,-89.5 251.5,-89.5"/>
<text text-anchor="start" x="259.5" y="-140.5" font-family="Helvetica,sans-Serif" font-size="10.00">/home/runner/work/Documentation</text>
<text text-anchor="start" x="259.5" y="-129.5" font-family="Helvetica,sans-Serif" font-size="10.00">/Documentation/master/applications</text>
<text text-anchor="start" x="259.5" y="-118.5" font-family="Helvetica,sans-Serif" font-size="10.00">/CompressiblePotentialFlowApplication</text>
<text text-anchor="start" x="259.5" y="-107.5" font-family="Helvetica,sans-Serif" font-size="10.00">/custom_conditions/adjoint_potential</text>
<text text-anchor="middle" x="355.5" y="-96.5" font-family="Helvetica,sans-Serif" font-size="10.00">_wall_condition.cpp</text>
</a>
</g>
</g>
<!-- Node1&#45;&gt;Node4 -->
<g id="edge3" class="edge">
<title>Node1&#45;&gt;Node4</title>
<path fill="none" stroke="midnightblue" d="M355.5,-178.94C355.5,-170.23 355.5,-160.97 355.5,-152.51"/>
<polygon fill="midnightblue" stroke="midnightblue" points="352,-179.22 355.5,-189.22 359,-179.22 352,-179.22"/>
</g>
<!-- Node5 -->
<g id="node5" class="node">
<title>Node5</title>
<g id="a_node5"><a xlink:href="../../d2/d4b/potential__wall__condition_8cpp.html" target="_top" xlink:title=" ">
<polygon fill="none" stroke="black" points="477.5,-95 477.5,-147 731.5,-147 731.5,-95 477.5,-95"/>
<text text-anchor="start" x="485.5" y="-135" font-family="Helvetica,sans-Serif" font-size="10.00">/home/runner/work/Documentation</text>
<text text-anchor="start" x="485.5" y="-124" font-family="Helvetica,sans-Serif" font-size="10.00">/Documentation/master/applications</text>
<text text-anchor="start" x="485.5" y="-113" font-family="Helvetica,sans-Serif" font-size="10.00">/CompressiblePotentialFlowApplication</text>
<text text-anchor="middle" x="604.5" y="-102" font-family="Helvetica,sans-Serif" font-size="10.00">/custom_conditions/potential_wall_condition.cpp</text>
</a>
</g>
</g>
<!-- Node1&#45;&gt;Node5 -->
<g id="edge4" class="edge">
<title>Node1&#45;&gt;Node5</title>
<path fill="none" stroke="midnightblue" d="M432.61,-185.85C466.03,-173.44 504.81,-159.03 537.06,-147.05"/>
<polygon fill="midnightblue" stroke="midnightblue" points="431.04,-182.7 422.88,-189.47 433.48,-189.27 431.04,-182.7"/>
</g>
<!-- Node3 -->
<g id="node3" class="node">
<title>Node3</title>
<g id="a_node3"><a xlink:href="../../d4/df2/compressible__potential__flow__application_8cpp.html" target="_top" xlink:title=" ">
<polygon fill="none" stroke="black" points="0,-0.5 0,-52.5 239,-52.5 239,-0.5 0,-0.5"/>
<text text-anchor="start" x="8" y="-40.5" font-family="Helvetica,sans-Serif" font-size="10.00">/home/runner/work/Documentation</text>
<text text-anchor="start" x="8" y="-29.5" font-family="Helvetica,sans-Serif" font-size="10.00">/Documentation/master/applications</text>
<text text-anchor="start" x="8" y="-18.5" font-family="Helvetica,sans-Serif" font-size="10.00">/CompressiblePotentialFlowApplication</text>
<text text-anchor="middle" x="119.5" y="-7.5" font-family="Helvetica,sans-Serif" font-size="10.00">/compressible_potential_flow_application.cpp</text>
</a>
</g>
</g>
<!-- Node2&#45;&gt;Node3 -->
<g id="edge2" class="edge">
<title>Node2&#45;&gt;Node3</title>
<path fill="none" stroke="midnightblue" d="M119.5,-84.49C119.5,-73.91 119.5,-62.53 119.5,-52.75"/>
<polygon fill="midnightblue" stroke="midnightblue" points="116,-84.72 119.5,-94.72 123,-84.72 116,-84.72"/>
</g>
</g>
</svg>
