<?xml version="1.0" encoding="UTF-8" standalone="no"?>
<!DOCTYPE svg PUBLIC "-//W3C//DTD SVG 1.1//EN"
 "http://www.w3.org/Graphics/SVG/1.1/DTD/svg11.dtd">
<!-- Generated by graphviz version 2.43.0 (0)
 -->
<!-- Title: /home/runner/work/Documentation/Documentation/master/applications/OptimizationApplication/custom_elements/helmholtz_surf_shape_element.h Pages: 1 -->
<svg width="711pt" height="250pt"
 viewBox="0.00 0.00 711.00 250.00" xmlns="http://www.w3.org/2000/svg" xmlns:xlink="http://www.w3.org/1999/xlink">
<g id="graph0" class="graph" transform="scale(1 1) rotate(0) translate(4 246)">
<title>/home/runner/work/Documentation/Documentation/master/applications/OptimizationApplication/custom_elements/helmholtz_surf_shape_element.h</title>
<!-- Node1 -->
<g id="node1" class="node">
<title>Node1</title>
<g id="a_node1"><a xlink:title=" ">
<polygon fill="#bfbfbf" stroke="black" points="244.5,-189.5 244.5,-241.5 477.5,-241.5 477.5,-189.5 244.5,-189.5"/>
<text text-anchor="start" x="252.5" y="-229.5" font-family="Helvetica,sans-Serif" font-size="10.00">/home/runner/work/Documentation</text>
<text text-anchor="start" x="252.5" y="-218.5" font-family="Helvetica,sans-Serif" font-size="10.00">/Documentation/master/applications</text>
<text text-anchor="start" x="252.5" y="-207.5" font-family="Helvetica,sans-Serif" font-size="10.00">/OptimizationApplication/custom</text>
<text text-anchor="middle" x="361" y="-196.5" font-family="Helvetica,sans-Serif" font-size="10.00">_elements/helmholtz_surf_shape_element.h</text>
</a>
</g>
</g>
<!-- Node2 -->
<g id="node2" class="node">
<title>Node2</title>
<g id="a_node2"><a xlink:href="../../d1/d90/implicit__vertex__morphing_8h.html" target="_top" xlink:title=" ">
<polygon fill="none" stroke="black" points="15,-89.5 15,-152.5 221,-152.5 221,-89.5 15,-89.5"/>
<text text-anchor="start" x="23" y="-140.5" font-family="Helvetica,sans-Serif" font-size="10.00">/home/runner/work/Documentation</text>
<text text-anchor="start" x="23" y="-129.5" font-family="Helvetica,sans-Serif" font-size="10.00">/Documentation/master/applications</text>
<text text-anchor="start" x="23" y="-118.5" font-family="Helvetica,sans-Serif" font-size="10.00">/OptimizationApplication/custom</text>
<text text-anchor="start" x="23" y="-107.5" font-family="Helvetica,sans-Serif" font-size="10.00">_controls/shape_controls/vertex</text>
<text text-anchor="middle" x="118" y="-96.5" font-family="Helvetica,sans-Serif" font-size="10.00">_morphing/implicit_vertex_morphing.h</text>
</a>
</g>
</g>
<!-- Node1&#45;&gt;Node2 -->
<g id="edge1" class="edge">
<title>Node1&#45;&gt;Node2</title>
<path fill="none" stroke="midnightblue" d="M285.63,-185.81C258,-175.29 226.62,-163.35 198.55,-152.66"/>
<polygon fill="midnightblue" stroke="midnightblue" points="284.65,-189.18 295.24,-189.47 287.14,-182.64 284.65,-189.18"/>
</g>
<!-- Node4 -->
<g id="node4" class="node">
<title>Node4</title>
<g id="a_node4"><a xlink:href="../../d4/d64/helmholtz__surf__shape__element_8cpp.html" target="_top" xlink:title=" ">
<polygon fill="none" stroke="black" points="239,-95 239,-147 483,-147 483,-95 239,-95"/>
<text text-anchor="start" x="247" y="-135" font-family="Helvetica,sans-Serif" font-size="10.00">/home/runner/work/Documentation</text>
<text text-anchor="start" x="247" y="-124" font-family="Helvetica,sans-Serif" font-size="10.00">/Documentation/master/applications</text>
<text text-anchor="start" x="247" y="-113" font-family="Helvetica,sans-Serif" font-size="10.00">/OptimizationApplication/custom</text>
<text text-anchor="middle" x="361" y="-102" font-family="Helvetica,sans-Serif" font-size="10.00">_elements/helmholtz_surf_shape_element.cpp</text>
</a>
</g>
</g>
<!-- Node1&#45;&gt;Node4 -->
<g id="edge3" class="edge">
<title>Node1&#45;&gt;Node4</title>
<path fill="none" stroke="midnightblue" d="M361,-178.99C361,-168.41 361,-157.03 361,-147.25"/>
<polygon fill="midnightblue" stroke="midnightblue" points="357.5,-179.22 361,-189.22 364.5,-179.22 357.5,-179.22"/>
</g>
<!-- Node5 -->
<g id="node5" class="node">
<title>Node5</title>
<g id="a_node5"><a xlink:href="../../dd/d65/optimization__application_8h.html" target="_top" xlink:title=" ">
<polygon fill="none" stroke="black" points="501,-95 501,-147 703,-147 703,-95 501,-95"/>
<text text-anchor="start" x="509" y="-135" font-family="Helvetica,sans-Serif" font-size="10.00">/home/runner/work/Documentation</text>
<text text-anchor="start" x="509" y="-124" font-family="Helvetica,sans-Serif" font-size="10.00">/Documentation/master/applications</text>
<text text-anchor="start" x="509" y="-113" font-family="Helvetica,sans-Serif" font-size="10.00">/OptimizationApplication/optimization</text>
<text text-anchor="middle" x="602" y="-102" font-family="Helvetica,sans-Serif" font-size="10.00">_application.h</text>
</a>
</g>
</g>
<!-- Node1&#45;&gt;Node5 -->
<g id="edge4" class="edge">
<title>Node1&#45;&gt;Node5</title>
<path fill="none" stroke="midnightblue" d="M435.63,-185.85C467.98,-173.44 505.51,-159.03 536.73,-147.05"/>
<polygon fill="midnightblue" stroke="midnightblue" points="434.3,-182.62 426.22,-189.47 436.81,-189.15 434.3,-182.62"/>
</g>
<!-- Node3 -->
<g id="node3" class="node">
<title>Node3</title>
<g id="a_node3"><a xlink:href="../../df/d8a/add__custom__controls__to__python_8cpp.html" target="_top" xlink:title=" ">
<polygon fill="none" stroke="black" points="0,-0.5 0,-52.5 236,-52.5 236,-0.5 0,-0.5"/>
<text text-anchor="start" x="8" y="-40.5" font-family="Helvetica,sans-Serif" font-size="10.00">/home/runner/work/Documentation</text>
<text text-anchor="start" x="8" y="-29.5" font-family="Helvetica,sans-Serif" font-size="10.00">/Documentation/master/applications</text>
<text text-anchor="start" x="8" y="-18.5" font-family="Helvetica,sans-Serif" font-size="10.00">/OptimizationApplication/custom</text>
<text text-anchor="middle" x="118" y="-7.5" font-family="Helvetica,sans-Serif" font-size="10.00">_python/add_custom_controls_to_python.cpp</text>
</a>
</g>
</g>
<!-- Node2&#45;&gt;Node3 -->
<g id="edge2" class="edge">
<title>Node2&#45;&gt;Node3</title>
<path fill="none" stroke="midnightblue" d="M118,-79.42C118,-70.36 118,-61 118,-52.77"/>
<polygon fill="midnightblue" stroke="midnightblue" points="114.5,-79.46 118,-89.46 121.5,-79.46 114.5,-79.46"/>
</g>
<!-- Node6 -->
<g id="node6" class="node">
<title>Node6</title>
<g id="a_node6"><a xlink:href="../../dd/d79/optimization__application_8cpp.html" target="_top" xlink:title=" ">
<polygon fill="none" stroke="black" points="501,-0.5 501,-52.5 703,-52.5 703,-0.5 501,-0.5"/>
<text text-anchor="start" x="509" y="-40.5" font-family="Helvetica,sans-Serif" font-size="10.00">/home/runner/work/Documentation</text>
<text text-anchor="start" x="509" y="-29.5" font-family="Helvetica,sans-Serif" font-size="10.00">/Documentation/master/applications</text>
<text text-anchor="start" x="509" y="-18.5" font-family="Helvetica,sans-Serif" font-size="10.00">/OptimizationApplication/optimization</text>
<text text-anchor="middle" x="602" y="-7.5" font-family="Helvetica,sans-Serif" font-size="10.00">_application.cpp</text>
</a>
</g>
</g>
<!-- Node5&#45;&gt;Node6 -->
<g id="edge5" class="edge">
<title>Node5&#45;&gt;Node6</title>
<path fill="none" stroke="midnightblue" d="M602,-84.49C602,-73.91 602,-62.53 602,-52.75"/>
<polygon fill="midnightblue" stroke="midnightblue" points="598.5,-84.72 602,-94.72 605.5,-84.72 598.5,-84.72"/>
</g>
</g>
</svg>
