<?xml version="1.0" encoding="UTF-8" standalone="no"?>
<!DOCTYPE svg PUBLIC "-//W3C//DTD SVG 1.1//EN"
 "http://www.w3.org/Graphics/SVG/1.1/DTD/svg11.dtd">
<!-- Generated by graphviz version 2.43.0 (0)
 -->
<!-- Title: /home/runner/work/Documentation/Documentation/master/applications/StructuralMechanicsApplication/custom_elements/truss_elements/linear_truss_element_2D.h Pages: 1 -->
<svg width="2314pt" height="672pt"
 viewBox="0.00 0.00 2313.50 672.00" xmlns="http://www.w3.org/2000/svg" xmlns:xlink="http://www.w3.org/1999/xlink">
<g id="graph0" class="graph" transform="scale(1 1) rotate(0) translate(4 668)">
<title>/home/runner/work/Documentation/Documentation/master/applications/StructuralMechanicsApplication/custom_elements/truss_elements/linear_truss_element_2D.h</title>
<!-- Node1 -->
<g id="node1" class="node">
<title>Node1</title>
<g id="a_node1"><a xlink:title=" ">
<polygon fill="#bfbfbf" stroke="black" points="772,-600.5 772,-663.5 966,-663.5 966,-600.5 772,-600.5"/>
<text text-anchor="start" x="780" y="-651.5" font-family="Helvetica,sans-Serif" font-size="10.00">/home/runner/work/Documentation</text>
<text text-anchor="start" x="780" y="-640.5" font-family="Helvetica,sans-Serif" font-size="10.00">/Documentation/master/applications</text>
<text text-anchor="start" x="780" y="-629.5" font-family="Helvetica,sans-Serif" font-size="10.00">/StructuralMechanicsApplication</text>
<text text-anchor="start" x="780" y="-618.5" font-family="Helvetica,sans-Serif" font-size="10.00">/custom_elements/truss_elements</text>
<text text-anchor="middle" x="869" y="-607.5" font-family="Helvetica,sans-Serif" font-size="10.00">/linear_truss_element_2D.h</text>
</a>
</g>
</g>
<!-- Node2 -->
<g id="node2" class="node">
<title>Node2</title>
<g id="a_node2"><a xlink:href="../../df/d34/linear__truss__element__2_d_8cpp.html" target="_top" xlink:title=" ">
<polygon fill="none" stroke="black" points="666,-500.5 666,-563.5 860,-563.5 860,-500.5 666,-500.5"/>
<text text-anchor="start" x="674" y="-551.5" font-family="Helvetica,sans-Serif" font-size="10.00">/home/runner/work/Documentation</text>
<text text-anchor="start" x="674" y="-540.5" font-family="Helvetica,sans-Serif" font-size="10.00">/Documentation/master/applications</text>
<text text-anchor="start" x="674" y="-529.5" font-family="Helvetica,sans-Serif" font-size="10.00">/StructuralMechanicsApplication</text>
<text text-anchor="start" x="674" y="-518.5" font-family="Helvetica,sans-Serif" font-size="10.00">/custom_elements/truss_elements</text>
<text text-anchor="middle" x="763" y="-507.5" font-family="Helvetica,sans-Serif" font-size="10.00">/linear_truss_element_2D.cpp</text>
</a>
</g>
</g>
<!-- Node1&#45;&gt;Node2 -->
<g id="edge1" class="edge">
<title>Node1&#45;&gt;Node2</title>
<path fill="none" stroke="midnightblue" d="M828.18,-593.26C817.57,-583.46 806.28,-573.02 796.13,-563.63"/>
<polygon fill="midnightblue" stroke="midnightblue" points="826.03,-596.04 835.75,-600.26 830.79,-590.9 826.03,-596.04"/>
</g>
<!-- Node3 -->
<g id="node3" class="node">
<title>Node3</title>
<g id="a_node3"><a xlink:href="../../da/d9a/structural__mechanics__application_8h.html" target="_top" xlink:title=" ">
<polygon fill="none" stroke="black" points="878,-506 878,-558 1072,-558 1072,-506 878,-506"/>
<text text-anchor="start" x="886" y="-546" font-family="Helvetica,sans-Serif" font-size="10.00">/home/runner/work/Documentation</text>
<text text-anchor="start" x="886" y="-535" font-family="Helvetica,sans-Serif" font-size="10.00">/Documentation/master/applications</text>
<text text-anchor="start" x="886" y="-524" font-family="Helvetica,sans-Serif" font-size="10.00">/StructuralMechanicsApplication</text>
<text text-anchor="middle" x="975" y="-513" font-family="Helvetica,sans-Serif" font-size="10.00">/structural_mechanics_application.h</text>
</a>
</g>
</g>
<!-- Node1&#45;&gt;Node3 -->
<g id="edge2" class="edge">
<title>Node1&#45;&gt;Node3</title>
<path fill="none" stroke="midnightblue" d="M909.65,-593.42C922.45,-581.58 936.28,-568.8 947.9,-558.05"/>
<polygon fill="midnightblue" stroke="midnightblue" points="907.21,-590.9 902.25,-600.26 911.97,-596.04 907.21,-590.9"/>
</g>
<!-- Node4 -->
<g id="node4" class="node">
<title>Node4</title>
<g id="a_node4"><a xlink:href="../../d0/d34/kratos__internals_8h.html" target="_top" xlink:title=" ">
<polygon fill="none" stroke="black" points="322,-406 322,-458 516,-458 516,-406 322,-406"/>
<text text-anchor="start" x="330" y="-446" font-family="Helvetica,sans-Serif" font-size="10.00">/home/runner/work/Documentation</text>
<text text-anchor="start" x="330" y="-435" font-family="Helvetica,sans-Serif" font-size="10.00">/Documentation/master/applications</text>
<text text-anchor="start" x="330" y="-424" font-family="Helvetica,sans-Serif" font-size="10.00">/CSharpWrapperApplication/custom</text>
<text text-anchor="middle" x="419" y="-413" font-family="Helvetica,sans-Serif" font-size="10.00">_includes/kratos_internals.h</text>
</a>
</g>
</g>
<!-- Node3&#45;&gt;Node4 -->
<g id="edge3" class="edge">
<title>Node3&#45;&gt;Node4</title>
<path fill="none" stroke="midnightblue" d="M883.41,-503.37C878.55,-502.17 873.73,-501.04 869,-500 748.65,-473.57 607.87,-454.47 516.26,-443.59"/>
<polygon fill="midnightblue" stroke="midnightblue" points="882.85,-506.84 893.4,-505.93 884.58,-500.06 882.85,-506.84"/>
</g>
<!-- Node9 -->
<g id="node9" class="node">
<title>Node9</title>
<g id="a_node9"><a xlink:href="../../d4/d4c/dgeosettlement_8h.html" target="_top" xlink:title=" ">
<polygon fill="none" stroke="black" points="770,-406 770,-458 964,-458 964,-406 770,-406"/>
<text text-anchor="start" x="778" y="-446" font-family="Helvetica,sans-Serif" font-size="10.00">/home/runner/work/Documentation</text>
<text text-anchor="start" x="778" y="-435" font-family="Helvetica,sans-Serif" font-size="10.00">/Documentation/master/applications</text>
<text text-anchor="start" x="778" y="-424" font-family="Helvetica,sans-Serif" font-size="10.00">/GeoMechanicsApplication/custom</text>
<text text-anchor="middle" x="867" y="-413" font-family="Helvetica,sans-Serif" font-size="10.00">_workflows/dgeosettlement.h</text>
</a>
</g>
</g>
<!-- Node3&#45;&gt;Node9 -->
<g id="edge8" class="edge">
<title>Node3&#45;&gt;Node9</title>
<path fill="none" stroke="midnightblue" d="M939.76,-499.02C925.15,-485.76 908.44,-470.6 894.72,-458.15"/>
<polygon fill="midnightblue" stroke="midnightblue" points="937.43,-501.63 947.19,-505.76 942.13,-496.45 937.43,-501.63"/>
</g>
<!-- Node14 -->
<g id="node14" class="node">
<title>Node14</title>
<g id="a_node14"><a xlink:href="../../db/d93/structural__mechanics__application_8cpp.html" target="_top" xlink:title=" ">
<polygon fill="none" stroke="black" points="981.5,-406 981.5,-458 1184.5,-458 1184.5,-406 981.5,-406"/>
<text text-anchor="start" x="989.5" y="-446" font-family="Helvetica,sans-Serif" font-size="10.00">/home/runner/work/Documentation</text>
<text text-anchor="start" x="989.5" y="-435" font-family="Helvetica,sans-Serif" font-size="10.00">/Documentation/master/applications</text>
<text text-anchor="start" x="989.5" y="-424" font-family="Helvetica,sans-Serif" font-size="10.00">/StructuralMechanicsApplication</text>
<text text-anchor="middle" x="1083" y="-413" font-family="Helvetica,sans-Serif" font-size="10.00">/structural_mechanics_application.cpp</text>
</a>
</g>
</g>
<!-- Node3&#45;&gt;Node14 -->
<g id="edge13" class="edge">
<title>Node3&#45;&gt;Node14</title>
<path fill="none" stroke="midnightblue" d="M1010.24,-499.02C1024.85,-485.76 1041.56,-470.6 1055.28,-458.15"/>
<polygon fill="midnightblue" stroke="midnightblue" points="1007.87,-496.45 1002.81,-505.76 1012.57,-501.63 1007.87,-496.45"/>
</g>
<!-- Node15 -->
<g id="node15" class="node">
<title>Node15</title>
<g id="a_node15"><a xlink:href="../../d8/df8/small__displacement__simp__element_8h.html" target="_top" xlink:title=" ">
<polygon fill="none" stroke="black" points="1247,-400.5 1247,-463.5 1455,-463.5 1455,-400.5 1247,-400.5"/>
<text text-anchor="start" x="1255" y="-451.5" font-family="Helvetica,sans-Serif" font-size="10.00">/home/runner/work/Documentation</text>
<text text-anchor="start" x="1255" y="-440.5" font-family="Helvetica,sans-Serif" font-size="10.00">/Documentation/master/applications</text>
<text text-anchor="start" x="1255" y="-429.5" font-family="Helvetica,sans-Serif" font-size="10.00">/TopologyOptimizationApplication</text>
<text text-anchor="start" x="1255" y="-418.5" font-family="Helvetica,sans-Serif" font-size="10.00">/custom_elements/small_displacement</text>
<text text-anchor="middle" x="1351" y="-407.5" font-family="Helvetica,sans-Serif" font-size="10.00">_simp_element.h</text>
</a>
</g>
</g>
<!-- Node3&#45;&gt;Node15 -->
<g id="edge14" class="edge">
<title>Node3&#45;&gt;Node15</title>
<path fill="none" stroke="midnightblue" d="M1081.24,-503.31C1133.15,-489.78 1195.39,-473.56 1246.99,-460.11"/>
<polygon fill="midnightblue" stroke="midnightblue" points="1080.14,-499.98 1071.34,-505.89 1081.9,-506.75 1080.14,-499.98"/>
</g>
<!-- Node5 -->
<g id="node5" class="node">
<title>Node5</title>
<g id="a_node5"><a xlink:href="../../d0/d29/kratos__wrapper_8h.html" target="_top" xlink:title=" ">
<polygon fill="none" stroke="black" points="110,-311.5 110,-363.5 304,-363.5 304,-311.5 110,-311.5"/>
<text text-anchor="start" x="118" y="-351.5" font-family="Helvetica,sans-Serif" font-size="10.00">/home/runner/work/Documentation</text>
<text text-anchor="start" x="118" y="-340.5" font-family="Helvetica,sans-Serif" font-size="10.00">/Documentation/master/applications</text>
<text text-anchor="start" x="118" y="-329.5" font-family="Helvetica,sans-Serif" font-size="10.00">/CSharpWrapperApplication/custom</text>
<text text-anchor="middle" x="207" y="-318.5" font-family="Helvetica,sans-Serif" font-size="10.00">_includes/kratos_wrapper.h</text>
</a>
</g>
</g>
<!-- Node4&#45;&gt;Node5 -->
<g id="edge4" class="edge">
<title>Node4&#45;&gt;Node5</title>
<path fill="none" stroke="midnightblue" d="M352.24,-401.87C324.04,-389.57 291.52,-375.38 264.42,-363.55"/>
<polygon fill="midnightblue" stroke="midnightblue" points="351.06,-405.18 361.63,-405.97 353.86,-398.76 351.06,-405.18"/>
</g>
<!-- Node8 -->
<g id="node8" class="node">
<title>Node8</title>
<g id="a_node8"><a xlink:href="../../d5/d45/kratos__internals_8cpp.html" target="_top" xlink:title=" ">
<polygon fill="none" stroke="black" points="322,-311.5 322,-363.5 516,-363.5 516,-311.5 322,-311.5"/>
<text text-anchor="start" x="330" y="-351.5" font-family="Helvetica,sans-Serif" font-size="10.00">/home/runner/work/Documentation</text>
<text text-anchor="start" x="330" y="-340.5" font-family="Helvetica,sans-Serif" font-size="10.00">/Documentation/master/applications</text>
<text text-anchor="start" x="330" y="-329.5" font-family="Helvetica,sans-Serif" font-size="10.00">/CSharpWrapperApplication/custom</text>
<text text-anchor="middle" x="419" y="-318.5" font-family="Helvetica,sans-Serif" font-size="10.00">_sources/kratos_internals.cpp</text>
</a>
</g>
</g>
<!-- Node4&#45;&gt;Node8 -->
<g id="edge7" class="edge">
<title>Node4&#45;&gt;Node8</title>
<path fill="none" stroke="midnightblue" d="M419,-395.49C419,-384.91 419,-373.53 419,-363.75"/>
<polygon fill="midnightblue" stroke="midnightblue" points="415.5,-395.72 419,-405.72 422.5,-395.72 415.5,-395.72"/>
</g>
<!-- Node6 -->
<g id="node6" class="node">
<title>Node6</title>
<g id="a_node6"><a xlink:href="../../da/df4/kratos__wrapper_8cpp.html" target="_top" xlink:title=" ">
<polygon fill="none" stroke="black" points="0,-211.5 0,-263.5 194,-263.5 194,-211.5 0,-211.5"/>
<text text-anchor="start" x="8" y="-251.5" font-family="Helvetica,sans-Serif" font-size="10.00">/home/runner/work/Documentation</text>
<text text-anchor="start" x="8" y="-240.5" font-family="Helvetica,sans-Serif" font-size="10.00">/Documentation/master/applications</text>
<text text-anchor="start" x="8" y="-229.5" font-family="Helvetica,sans-Serif" font-size="10.00">/CSharpWrapperApplication/custom</text>
<text text-anchor="middle" x="97" y="-218.5" font-family="Helvetica,sans-Serif" font-size="10.00">_sources/kratos_wrapper.cpp</text>
</a>
</g>
</g>
<!-- Node5&#45;&gt;Node6 -->
<g id="edge5" class="edge">
<title>Node5&#45;&gt;Node6</title>
<path fill="none" stroke="midnightblue" d="M171.11,-304.52C156.22,-291.26 139.2,-276.1 125.23,-263.65"/>
<polygon fill="midnightblue" stroke="midnightblue" points="168.88,-307.22 178.67,-311.26 173.53,-302 168.88,-307.22"/>
</g>
<!-- Node7 -->
<g id="node7" class="node">
<title>Node7</title>
<g id="a_node7"><a xlink:href="../../d9/df3/_c_sharp_wrapper_application_2external__bindings_2kratos__external__bindings_8cpp.html" target="_top" xlink:title=" ">
<polygon fill="none" stroke="black" points="212.5,-211.5 212.5,-263.5 421.5,-263.5 421.5,-211.5 212.5,-211.5"/>
<text text-anchor="start" x="220.5" y="-251.5" font-family="Helvetica,sans-Serif" font-size="10.00">/home/runner/work/Documentation</text>
<text text-anchor="start" x="220.5" y="-240.5" font-family="Helvetica,sans-Serif" font-size="10.00">/Documentation/master/applications</text>
<text text-anchor="start" x="220.5" y="-229.5" font-family="Helvetica,sans-Serif" font-size="10.00">/CSharpWrapperApplication/external</text>
<text text-anchor="middle" x="317" y="-218.5" font-family="Helvetica,sans-Serif" font-size="10.00">_bindings/kratos_external_bindings.cpp</text>
</a>
</g>
</g>
<!-- Node5&#45;&gt;Node7 -->
<g id="edge6" class="edge">
<title>Node5&#45;&gt;Node7</title>
<path fill="none" stroke="midnightblue" d="M242.89,-304.52C257.78,-291.26 274.8,-276.1 288.77,-263.65"/>
<polygon fill="midnightblue" stroke="midnightblue" points="240.47,-302 235.33,-311.26 245.12,-307.22 240.47,-302"/>
</g>
<!-- Node10 -->
<g id="node10" class="node">
<title>Node10</title>
<g id="a_node10"><a xlink:href="../../dc/d5d/custom__workflow__factory_8cpp.html" target="_top" xlink:title=" ">
<polygon fill="none" stroke="black" points="534,-311.5 534,-363.5 752,-363.5 752,-311.5 534,-311.5"/>
<text text-anchor="start" x="542" y="-351.5" font-family="Helvetica,sans-Serif" font-size="10.00">/home/runner/work/Documentation</text>
<text text-anchor="start" x="542" y="-340.5" font-family="Helvetica,sans-Serif" font-size="10.00">/Documentation/master/applications</text>
<text text-anchor="start" x="542" y="-329.5" font-family="Helvetica,sans-Serif" font-size="10.00">/GeoMechanicsApplication/custom</text>
<text text-anchor="middle" x="643" y="-318.5" font-family="Helvetica,sans-Serif" font-size="10.00">_workflows/custom_workflow_factory.cpp</text>
</a>
</g>
</g>
<!-- Node9&#45;&gt;Node10 -->
<g id="edge9" class="edge">
<title>Node9&#45;&gt;Node10</title>
<path fill="none" stroke="midnightblue" d="M796.85,-402.03C766.97,-389.69 732.43,-375.43 703.67,-363.55"/>
<polygon fill="midnightblue" stroke="midnightblue" points="795.8,-405.39 806.38,-405.97 798.48,-398.92 795.8,-405.39"/>
</g>
<!-- Node11 -->
<g id="node11" class="node">
<title>Node11</title>
<g id="a_node11"><a xlink:href="../../d3/d51/dgeosettlement_8cpp.html" target="_top" xlink:title=" ">
<polygon fill="none" stroke="black" points="770,-311.5 770,-363.5 964,-363.5 964,-311.5 770,-311.5"/>
<text text-anchor="start" x="778" y="-351.5" font-family="Helvetica,sans-Serif" font-size="10.00">/home/runner/work/Documentation</text>
<text text-anchor="start" x="778" y="-340.5" font-family="Helvetica,sans-Serif" font-size="10.00">/Documentation/master/applications</text>
<text text-anchor="start" x="778" y="-329.5" font-family="Helvetica,sans-Serif" font-size="10.00">/GeoMechanicsApplication/custom</text>
<text text-anchor="middle" x="867" y="-318.5" font-family="Helvetica,sans-Serif" font-size="10.00">_workflows/dgeosettlement.cpp</text>
</a>
</g>
</g>
<!-- Node9&#45;&gt;Node11 -->
<g id="edge10" class="edge">
<title>Node9&#45;&gt;Node11</title>
<path fill="none" stroke="midnightblue" d="M867,-395.49C867,-384.91 867,-373.53 867,-363.75"/>
<polygon fill="midnightblue" stroke="midnightblue" points="863.5,-395.72 867,-405.72 870.5,-395.72 863.5,-395.72"/>
</g>
<!-- Node12 -->
<g id="node12" class="node">
<title>Node12</title>
<g id="a_node12"><a xlink:href="../../d4/d24/kratos__external__bindings_8h.html" target="_top" xlink:title=" ">
<polygon fill="none" stroke="black" points="982,-311.5 982,-363.5 1180,-363.5 1180,-311.5 982,-311.5"/>
<text text-anchor="start" x="990" y="-351.5" font-family="Helvetica,sans-Serif" font-size="10.00">/home/runner/work/Documentation</text>
<text text-anchor="start" x="990" y="-340.5" font-family="Helvetica,sans-Serif" font-size="10.00">/Documentation/master/applications</text>
<text text-anchor="start" x="990" y="-329.5" font-family="Helvetica,sans-Serif" font-size="10.00">/GeoMechanicsApplication/external</text>
<text text-anchor="middle" x="1081" y="-318.5" font-family="Helvetica,sans-Serif" font-size="10.00">_bindings/kratos_external_bindings.h</text>
</a>
</g>
</g>
<!-- Node9&#45;&gt;Node12 -->
<g id="edge11" class="edge">
<title>Node9&#45;&gt;Node12</title>
<path fill="none" stroke="midnightblue" d="M934.38,-401.87C962.85,-389.57 995.68,-375.38 1023.04,-363.55"/>
<polygon fill="midnightblue" stroke="midnightblue" points="932.7,-398.79 924.91,-405.97 935.48,-405.21 932.7,-398.79"/>
</g>
<!-- Node13 -->
<g id="node13" class="node">
<title>Node13</title>
<g id="a_node13"><a xlink:href="../../dd/d6d/_geo_mechanics_application_2external__bindings_2kratos__external__bindings_8cpp.html" target="_top" xlink:title=" ">
<polygon fill="none" stroke="black" points="904.5,-211.5 904.5,-263.5 1113.5,-263.5 1113.5,-211.5 904.5,-211.5"/>
<text text-anchor="start" x="912.5" y="-251.5" font-family="Helvetica,sans-Serif" font-size="10.00">/home/runner/work/Documentation</text>
<text text-anchor="start" x="912.5" y="-240.5" font-family="Helvetica,sans-Serif" font-size="10.00">/Documentation/master/applications</text>
<text text-anchor="start" x="912.5" y="-229.5" font-family="Helvetica,sans-Serif" font-size="10.00">/GeoMechanicsApplication/external</text>
<text text-anchor="middle" x="1009" y="-218.5" font-family="Helvetica,sans-Serif" font-size="10.00">_bindings/kratos_external_bindings.cpp</text>
</a>
</g>
</g>
<!-- Node12&#45;&gt;Node13 -->
<g id="edge12" class="edge">
<title>Node12&#45;&gt;Node13</title>
<path fill="none" stroke="midnightblue" d="M1056.43,-303.06C1046.95,-290.15 1036.29,-275.64 1027.48,-263.65"/>
<polygon fill="midnightblue" stroke="midnightblue" points="1053.72,-305.28 1062.46,-311.26 1059.36,-301.13 1053.72,-305.28"/>
</g>
<!-- Node16 -->
<g id="node16" class="node">
<title>Node16</title>
<g id="a_node16"><a xlink:href="../../da/d01/small__displacement__simp__element_8cpp.html" target="_top" xlink:title=" ">
<polygon fill="none" stroke="black" points="1132,-206 1132,-269 1340,-269 1340,-206 1132,-206"/>
<text text-anchor="start" x="1140" y="-257" font-family="Helvetica,sans-Serif" font-size="10.00">/home/runner/work/Documentation</text>
<text text-anchor="start" x="1140" y="-246" font-family="Helvetica,sans-Serif" font-size="10.00">/Documentation/master/applications</text>
<text text-anchor="start" x="1140" y="-235" font-family="Helvetica,sans-Serif" font-size="10.00">/TopologyOptimizationApplication</text>
<text text-anchor="start" x="1140" y="-224" font-family="Helvetica,sans-Serif" font-size="10.00">/custom_elements/small_displacement</text>
<text text-anchor="middle" x="1236" y="-213" font-family="Helvetica,sans-Serif" font-size="10.00">_simp_element.cpp</text>
</a>
</g>
</g>
<!-- Node15&#45;&gt;Node16 -->
<g id="edge15" class="edge">
<title>Node15&#45;&gt;Node16</title>
<path fill="none" stroke="midnightblue" d="M1327.5,-391.67C1305.85,-355.43 1274.16,-302.38 1254.33,-269.18"/>
<polygon fill="midnightblue" stroke="midnightblue" points="1324.64,-393.71 1332.78,-400.5 1330.65,-390.12 1324.64,-393.71"/>
</g>
<!-- Node17 -->
<g id="node17" class="node">
<title>Node17</title>
<g id="a_node17"><a xlink:href="../../d5/d7a/structure__adjoint__sensitivity__strategy_8h.html" target="_top" xlink:title=" ">
<polygon fill="none" stroke="black" points="2110.5,-206 2110.5,-269 2305.5,-269 2305.5,-206 2110.5,-206"/>
<text text-anchor="start" x="2118.5" y="-257" font-family="Helvetica,sans-Serif" font-size="10.00">/home/runner/work/Documentation</text>
<text text-anchor="start" x="2118.5" y="-246" font-family="Helvetica,sans-Serif" font-size="10.00">/Documentation/master/applications</text>
<text text-anchor="start" x="2118.5" y="-235" font-family="Helvetica,sans-Serif" font-size="10.00">/TopologyOptimizationApplication</text>
<text text-anchor="start" x="2118.5" y="-224" font-family="Helvetica,sans-Serif" font-size="10.00">/custom_strategies/structure_adjoint</text>
<text text-anchor="middle" x="2208" y="-213" font-family="Helvetica,sans-Serif" font-size="10.00">_sensitivity_strategy.h</text>
</a>
</g>
</g>
<!-- Node15&#45;&gt;Node17 -->
<g id="edge16" class="edge">
<title>Node15&#45;&gt;Node17</title>
<path fill="none" stroke="midnightblue" d="M1465.09,-411.81C1613.01,-385.89 1878.41,-335.86 2101,-275 2107.63,-273.19 2114.44,-271.19 2121.27,-269.09"/>
<polygon fill="midnightblue" stroke="midnightblue" points="1464.33,-408.39 1455.08,-413.55 1465.53,-415.28 1464.33,-408.39"/>
</g>
<!-- Node19 -->
<g id="node19" class="node">
<title>Node19</title>
<g id="a_node19"><a xlink:href="../../db/d32/topology__optimization__application_8h.html" target="_top" xlink:title=" ">
<polygon fill="none" stroke="black" points="1396.5,-311.5 1396.5,-363.5 1593.5,-363.5 1593.5,-311.5 1396.5,-311.5"/>
<text text-anchor="start" x="1404.5" y="-351.5" font-family="Helvetica,sans-Serif" font-size="10.00">/home/runner/work/Documentation</text>
<text text-anchor="start" x="1404.5" y="-340.5" font-family="Helvetica,sans-Serif" font-size="10.00">/Documentation/master/applications</text>
<text text-anchor="start" x="1404.5" y="-329.5" font-family="Helvetica,sans-Serif" font-size="10.00">/TopologyOptimizationApplication</text>
<text text-anchor="middle" x="1495" y="-318.5" font-family="Helvetica,sans-Serif" font-size="10.00">/topology_optimization_application.h</text>
</a>
</g>
</g>
<!-- Node15&#45;&gt;Node19 -->
<g id="edge18" class="edge">
<title>Node15&#45;&gt;Node19</title>
<path fill="none" stroke="midnightblue" d="M1407.39,-394.78C1423.53,-384.41 1440.78,-373.33 1455.67,-363.77"/>
<polygon fill="midnightblue" stroke="midnightblue" points="1405.07,-392.11 1398.55,-400.46 1408.86,-398 1405.07,-392.11"/>
</g>
<!-- Node18 -->
<g id="node18" class="node">
<title>Node18</title>
<g id="a_node18"><a xlink:href="../../d1/d32/_topology_optimization_application_2custom__python_2add__custom__strategies__to__python_8cpp.html" target="_top" xlink:title=" ">
<polygon fill="none" stroke="black" points="1989.5,-100.5 1989.5,-163.5 2200.5,-163.5 2200.5,-100.5 1989.5,-100.5"/>
<text text-anchor="start" x="1997.5" y="-151.5" font-family="Helvetica,sans-Serif" font-size="10.00">/home/runner/work/Documentation</text>
<text text-anchor="start" x="1997.5" y="-140.5" font-family="Helvetica,sans-Serif" font-size="10.00">/Documentation/master/applications</text>
<text text-anchor="start" x="1997.5" y="-129.5" font-family="Helvetica,sans-Serif" font-size="10.00">/TopologyOptimizationApplication</text>
<text text-anchor="start" x="1997.5" y="-118.5" font-family="Helvetica,sans-Serif" font-size="10.00">/custom_python/add_custom_strategies</text>
<text text-anchor="middle" x="2095" y="-107.5" font-family="Helvetica,sans-Serif" font-size="10.00">_to_python.cpp</text>
</a>
</g>
</g>
<!-- Node17&#45;&gt;Node18 -->
<g id="edge17" class="edge">
<title>Node17&#45;&gt;Node18</title>
<path fill="none" stroke="midnightblue" d="M2166.77,-198.73C2154.24,-187.26 2140.63,-174.79 2128.66,-163.83"/>
<polygon fill="midnightblue" stroke="midnightblue" points="2164.66,-201.55 2174.4,-205.73 2169.39,-196.39 2164.66,-201.55"/>
</g>
<!-- Node19&#45;&gt;Node16 -->
<g id="edge19" class="edge">
<title>Node19&#45;&gt;Node16</title>
<path fill="none" stroke="midnightblue" d="M1418.88,-307.7C1386.84,-295.58 1349.53,-281.46 1316.99,-269.14"/>
<polygon fill="midnightblue" stroke="midnightblue" points="1418.05,-311.12 1428.64,-311.39 1420.52,-304.58 1418.05,-311.12"/>
</g>
<!-- Node19&#45;&gt;Node17 -->
<g id="edge22" class="edge">
<title>Node19&#45;&gt;Node17</title>
<path fill="none" stroke="midnightblue" d="M1603.8,-332.91C1726,-327.16 1929.66,-312.4 2101,-275 2108.67,-273.33 2116.56,-271.28 2124.4,-269.03"/>
<polygon fill="midnightblue" stroke="midnightblue" points="1603.52,-329.42 1593.69,-333.37 1603.84,-336.41 1603.52,-329.42"/>
</g>
<!-- Node19&#45;&gt;Node19 -->
<g id="edge31" class="edge">
<title>Node19&#45;&gt;Node19</title>
<path fill="none" stroke="midnightblue" d="M1603.32,-348.67C1608.47,-345.86 1611.5,-342.14 1611.5,-337.5 1611.5,-330.43 1604.47,-325.49 1593.59,-322.67"/>
<polygon fill="midnightblue" stroke="midnightblue" points="1601.72,-345.53 1593.59,-352.33 1604.18,-352.08 1601.72,-345.53"/>
</g>
<!-- Node20 -->
<g id="node20" class="node">
<title>Node20</title>
<g id="a_node20"><a xlink:href="../../dc/dc2/residualbased__incrementalupdate__static__simp__scheme_8h.html" target="_top" xlink:title=" ">
<polygon fill="none" stroke="black" points="1874,-200.5 1874,-274.5 2092,-274.5 2092,-200.5 1874,-200.5"/>
<text text-anchor="start" x="1882" y="-262.5" font-family="Helvetica,sans-Serif" font-size="10.00">/home/runner/work/Documentation</text>
<text text-anchor="start" x="1882" y="-251.5" font-family="Helvetica,sans-Serif" font-size="10.00">/Documentation/master/applications</text>
<text text-anchor="start" x="1882" y="-240.5" font-family="Helvetica,sans-Serif" font-size="10.00">/TopologyOptimizationApplication</text>
<text text-anchor="start" x="1882" y="-229.5" font-family="Helvetica,sans-Serif" font-size="10.00">/custom_strategies/custom_schemes</text>
<text text-anchor="start" x="1882" y="-218.5" font-family="Helvetica,sans-Serif" font-size="10.00">/residualbased_incrementalupdate_static</text>
<text text-anchor="middle" x="1983" y="-207.5" font-family="Helvetica,sans-Serif" font-size="10.00">_simp_scheme.h</text>
</a>
</g>
</g>
<!-- Node19&#45;&gt;Node20 -->
<g id="edge20" class="edge">
<title>Node19&#45;&gt;Node20</title>
<path fill="none" stroke="midnightblue" d="M1604.16,-322.32C1678.25,-311.72 1778.15,-295.55 1865,-275 1867.92,-274.31 1870.88,-273.58 1873.85,-272.83"/>
<polygon fill="midnightblue" stroke="midnightblue" points="1603.29,-318.9 1593.88,-323.77 1604.27,-325.84 1603.29,-318.9"/>
</g>
<!-- Node21 -->
<g id="node21" class="node">
<title>Node21</title>
<g id="a_node21"><a xlink:href="../../db/db6/structure__response__function__utilities_8h.html" target="_top" xlink:title=" ">
<polygon fill="none" stroke="black" points="1662,-206 1662,-269 1856,-269 1856,-206 1662,-206"/>
<text text-anchor="start" x="1670" y="-257" font-family="Helvetica,sans-Serif" font-size="10.00">/home/runner/work/Documentation</text>
<text text-anchor="start" x="1670" y="-246" font-family="Helvetica,sans-Serif" font-size="10.00">/Documentation/master/applications</text>
<text text-anchor="start" x="1670" y="-235" font-family="Helvetica,sans-Serif" font-size="10.00">/TopologyOptimizationApplication</text>
<text text-anchor="start" x="1670" y="-224" font-family="Helvetica,sans-Serif" font-size="10.00">/custom_utilities/structure_response</text>
<text text-anchor="middle" x="1759" y="-213" font-family="Helvetica,sans-Serif" font-size="10.00">_function_utilities.h</text>
</a>
</g>
</g>
<!-- Node19&#45;&gt;Node21 -->
<g id="edge23" class="edge">
<title>Node19&#45;&gt;Node21</title>
<path fill="none" stroke="midnightblue" d="M1572.17,-307.85C1604.92,-295.7 1643.14,-281.51 1676.45,-269.14"/>
<polygon fill="midnightblue" stroke="midnightblue" points="1570.8,-304.63 1562.64,-311.39 1573.24,-311.19 1570.8,-304.63"/>
</g>
<!-- Node23 -->
<g id="node23" class="node">
<title>Node23</title>
<g id="a_node23"><a xlink:href="../../d3/d19/topology__updating__utilities_8h.html" target="_top" xlink:title=" ">
<polygon fill="none" stroke="black" points="1503,-100.5 1503,-163.5 1697,-163.5 1697,-100.5 1503,-100.5"/>
<text text-anchor="start" x="1511" y="-151.5" font-family="Helvetica,sans-Serif" font-size="10.00">/home/runner/work/Documentation</text>
<text text-anchor="start" x="1511" y="-140.5" font-family="Helvetica,sans-Serif" font-size="10.00">/Documentation/master/applications</text>
<text text-anchor="start" x="1511" y="-129.5" font-family="Helvetica,sans-Serif" font-size="10.00">/TopologyOptimizationApplication</text>
<text text-anchor="start" x="1511" y="-118.5" font-family="Helvetica,sans-Serif" font-size="10.00">/custom_utilities/topology_updating</text>
<text text-anchor="middle" x="1600" y="-107.5" font-family="Helvetica,sans-Serif" font-size="10.00">_utilities.h</text>
</a>
</g>
</g>
<!-- Node19&#45;&gt;Node23 -->
<g id="edge29" class="edge">
<title>Node19&#45;&gt;Node23</title>
<path fill="none" stroke="midnightblue" d="M1447.28,-304.58C1438.25,-296.11 1430.05,-286.17 1425,-275 1411.26,-244.63 1406.11,-227.46 1425,-200 1435,-185.46 1467.96,-171.21 1502.62,-159.61"/>
<polygon fill="midnightblue" stroke="midnightblue" points="1445.19,-307.4 1455.02,-311.34 1449.79,-302.13 1445.19,-307.4"/>
</g>
<!-- Node24 -->
<g id="node24" class="node">
<title>Node24</title>
<g id="a_node24"><a xlink:href="../../de/da4/topology__filtering__utilities_8h.html" target="_top" xlink:title=" ">
<polygon fill="none" stroke="black" points="1278,-100.5 1278,-163.5 1472,-163.5 1472,-100.5 1278,-100.5"/>
<text text-anchor="start" x="1286" y="-151.5" font-family="Helvetica,sans-Serif" font-size="10.00">/home/runner/work/Documentation</text>
<text text-anchor="start" x="1286" y="-140.5" font-family="Helvetica,sans-Serif" font-size="10.00">/Documentation/master/applications</text>
<text text-anchor="start" x="1286" y="-129.5" font-family="Helvetica,sans-Serif" font-size="10.00">/TopologyOptimizationApplication</text>
<text text-anchor="start" x="1286" y="-118.5" font-family="Helvetica,sans-Serif" font-size="10.00">/custom_utilities/topology_filtering</text>
<text text-anchor="middle" x="1375" y="-107.5" font-family="Helvetica,sans-Serif" font-size="10.00">_utilities.h</text>
</a>
</g>
</g>
<!-- Node19&#45;&gt;Node24 -->
<g id="edge27" class="edge">
<title>Node19&#45;&gt;Node24</title>
<path fill="none" stroke="midnightblue" d="M1438.99,-305.36C1427.66,-296.81 1416.84,-286.64 1409,-275 1386.35,-241.35 1378.73,-194.3 1376.2,-163.74"/>
<polygon fill="midnightblue" stroke="midnightblue" points="1437.12,-308.32 1447.29,-311.29 1441.19,-302.63 1437.12,-308.32"/>
</g>
<!-- Node25 -->
<g id="node25" class="node">
<title>Node25</title>
<g id="a_node25"><a xlink:href="../../d2/d19/topology__optimization__application_8cpp.html" target="_top" xlink:title=" ">
<polygon fill="none" stroke="black" points="1434.5,-211.5 1434.5,-263.5 1643.5,-263.5 1643.5,-211.5 1434.5,-211.5"/>
<text text-anchor="start" x="1442.5" y="-251.5" font-family="Helvetica,sans-Serif" font-size="10.00">/home/runner/work/Documentation</text>
<text text-anchor="start" x="1442.5" y="-240.5" font-family="Helvetica,sans-Serif" font-size="10.00">/Documentation/master/applications</text>
<text text-anchor="start" x="1442.5" y="-229.5" font-family="Helvetica,sans-Serif" font-size="10.00">/TopologyOptimizationApplication</text>
<text text-anchor="middle" x="1539" y="-218.5" font-family="Helvetica,sans-Serif" font-size="10.00">/topology_optimization_application.cpp</text>
</a>
</g>
</g>
<!-- Node19&#45;&gt;Node25 -->
<g id="edge30" class="edge">
<title>Node19&#45;&gt;Node25</title>
<path fill="none" stroke="midnightblue" d="M1510.51,-301.95C1516.18,-289.33 1522.48,-275.3 1527.71,-263.65"/>
<polygon fill="midnightblue" stroke="midnightblue" points="1507.23,-300.71 1506.33,-311.26 1513.62,-303.57 1507.23,-300.71"/>
</g>
<!-- Node20&#45;&gt;Node18 -->
<g id="edge21" class="edge">
<title>Node20&#45;&gt;Node18</title>
<path fill="none" stroke="midnightblue" d="M2029.6,-193.44C2040.47,-183.39 2051.84,-172.89 2061.98,-163.52"/>
<polygon fill="midnightblue" stroke="midnightblue" points="2027.14,-190.94 2022.17,-200.3 2031.89,-196.08 2027.14,-190.94"/>
</g>
<!-- Node22 -->
<g id="node22" class="node">
<title>Node22</title>
<g id="a_node22"><a xlink:href="../../de/d8e/_topology_optimization_application_2custom__python_2add__custom__utilities__to__python_8cpp.html" target="_top" xlink:title=" ">
<polygon fill="none" stroke="black" points="1500.5,-0.5 1500.5,-63.5 1699.5,-63.5 1699.5,-0.5 1500.5,-0.5"/>
<text text-anchor="start" x="1508.5" y="-51.5" font-family="Helvetica,sans-Serif" font-size="10.00">/home/runner/work/Documentation</text>
<text text-anchor="start" x="1508.5" y="-40.5" font-family="Helvetica,sans-Serif" font-size="10.00">/Documentation/master/applications</text>
<text text-anchor="start" x="1508.5" y="-29.5" font-family="Helvetica,sans-Serif" font-size="10.00">/TopologyOptimizationApplication</text>
<text text-anchor="start" x="1508.5" y="-18.5" font-family="Helvetica,sans-Serif" font-size="10.00">/custom_python/add_custom_utilities</text>
<text text-anchor="middle" x="1600" y="-7.5" font-family="Helvetica,sans-Serif" font-size="10.00">_to_python.cpp</text>
</a>
</g>
</g>
<!-- Node21&#45;&gt;Node22 -->
<g id="edge24" class="edge">
<title>Node21&#45;&gt;Node22</title>
<path fill="none" stroke="midnightblue" d="M1750.44,-195.85C1742.7,-166.7 1728.91,-127.83 1706,-100 1694.24,-85.71 1678.6,-73.53 1662.96,-63.62"/>
<polygon fill="midnightblue" stroke="midnightblue" points="1747.09,-196.88 1752.94,-205.72 1753.88,-195.17 1747.09,-196.88"/>
</g>
<!-- Node21&#45;&gt;Node23 -->
<g id="edge25" class="edge">
<title>Node21&#45;&gt;Node23</title>
<path fill="none" stroke="midnightblue" d="M1702.93,-200C1684.68,-188.12 1664.62,-175.06 1647.09,-163.65"/>
<polygon fill="midnightblue" stroke="midnightblue" points="1701.43,-203.2 1711.73,-205.73 1705.25,-197.34 1701.43,-203.2"/>
</g>
<!-- Node23&#45;&gt;Node22 -->
<g id="edge26" class="edge">
<title>Node23&#45;&gt;Node22</title>
<path fill="none" stroke="midnightblue" d="M1600,-90.1C1600,-81.24 1600,-72.01 1600,-63.63"/>
<polygon fill="midnightblue" stroke="midnightblue" points="1596.5,-90.26 1600,-100.26 1603.5,-90.26 1596.5,-90.26"/>
</g>
<!-- Node24&#45;&gt;Node22 -->
<g id="edge28" class="edge">
<title>Node24&#45;&gt;Node22</title>
<path fill="none" stroke="midnightblue" d="M1454.56,-96.35C1479.13,-85.65 1506,-73.94 1529.88,-63.54"/>
<polygon fill="midnightblue" stroke="midnightblue" points="1453.04,-93.19 1445.27,-100.4 1455.83,-99.61 1453.04,-93.19"/>
</g>
</g>
</svg>
