<?xml version="1.0" encoding="UTF-8" standalone="no"?>
<!DOCTYPE svg PUBLIC "-//W3C//DTD SVG 1.1//EN"
 "http://www.w3.org/Graphics/SVG/1.1/DTD/svg11.dtd">
<!-- Generated by graphviz version 2.43.0 (0)
 -->
<!-- Title: Kratos::EmbeddedNavierStokes&lt; TDim, TNumNodes &gt;::EmbeddedElementDataStruct Pages: 1 -->
<!--zoomable 1450 -->
<svg id="main" version="1.1" xmlns="http://www.w3.org/2000/svg" xmlns:xlink="http://www.w3.org/1999/xlink" xml:space="preserve" onload="init(evt)">
<style type="text/css"><![CDATA[
.edge:hover path { stroke: red; }
.edge:hover polygon { stroke: red; fill: red; }
]]></style>
<script type="text/javascript"><![CDATA[
var edges = document.getElementsByTagName('g');
if (edges && edges.length) {
  for (var i=0;i<edges.length;i++) {
    if (edges[i].id.substr(0,4)=='edge') {
      edges[i].setAttribute('class','edge');
    }
  }
}
]]></script>
        <defs>
                <circle id="rim" cx="0" cy="0" r="7"/>
                <circle id="rim2" cx="0" cy="0" r="3.5"/>
                <g id="zoomPlus">
                        <use xlink:href="#rim" fill="#404040">
                                <set attributeName="fill" to="#808080" begin="zoomplus.mouseover" end="zoomplus.mouseout"/>
                        </use>
                        <path d="M-4,0h8M0,-4v8" fill="none" stroke="white" stroke-width="1.5" pointer-events="none"/>
                </g>
                <g id="zoomMin">
                        <use xlink:href="#rim" fill="#404040">
                                <set attributeName="fill" to="#808080" begin="zoomminus.mouseover" end="zoomminus.mouseout"/>
                        </use>
                        <path d="M-4,0h8" fill="none" stroke="white" stroke-width="1.5" pointer-events="none"/>
                </g>
                <g id="dirArrow">
                        <path fill="none" stroke="white" stroke-width="1.5" d="M0,-3.0v7 M-2.5,-0.5L0,-3.0L2.5,-0.5"/>
                </g>
               <g id="resetDef">
                       <use xlink:href="#rim2" fill="#404040">
                               <set attributeName="fill" to="#808080" begin="reset.mouseover" end="reset.mouseout"/>
                       </use>
               </g>
        </defs>

<script type="text/javascript">
var viewWidth = 678;
var viewHeight = 1450;
var sectionId = 'dynsection-1';
</script>
<script xlink:href="../../svgpan.js"/>
<svg id="graph" class="graph">
<g id="viewport">
<title>Kratos::EmbeddedNavierStokes&lt; TDim, TNumNodes &gt;::EmbeddedElementDataStruct</title>
<!-- Node1 -->
<g id="node1" class="node">
<title>Node1</title>
<g id="a_node1"><a xlink:title=" ">
<polygon fill="#bfbfbf" stroke="black" points="235,-0.5 235,-189.5 465,-189.5 465,-0.5 235,-0.5"/>
<text text-anchor="start" x="243" y="-177.5" font-family="Helvetica,sans-Serif" font-size="10.00">Kratos::EmbeddedNavierStokes</text>
<text text-anchor="start" x="243" y="-166.5" font-family="Helvetica,sans-Serif" font-size="10.00">&lt; TDim, TNumNodes &gt;::EmbeddedElement</text>
<text text-anchor="middle" x="350" y="-155.5" font-family="Helvetica,sans-Serif" font-size="10.00">DataStruct</text>
<polyline fill="none" stroke="black" points="235,-148.5 465,-148.5 "/>
<text text-anchor="start" x="243" y="-136.5" font-family="Helvetica,sans-Serif" font-size="10.00">+ N_pos_side</text>
<text text-anchor="start" x="243" y="-125.5" font-family="Helvetica,sans-Serif" font-size="10.00">+ DN_DX_pos_side</text>
<text text-anchor="start" x="243" y="-114.5" font-family="Helvetica,sans-Serif" font-size="10.00">+ w_gauss_pos_side</text>
<text text-anchor="start" x="243" y="-103.5" font-family="Helvetica,sans-Serif" font-size="10.00">+ N_pos_int</text>
<text text-anchor="start" x="243" y="-92.5" font-family="Helvetica,sans-Serif" font-size="10.00">+ DN_DX_pos_int</text>
<text text-anchor="start" x="243" y="-81.5" font-family="Helvetica,sans-Serif" font-size="10.00">+ w_gauss_pos_int</text>
<text text-anchor="start" x="243" y="-70.5" font-family="Helvetica,sans-Serif" font-size="10.00">+ pos_int_unit_normals</text>
<text text-anchor="start" x="243" y="-59.5" font-family="Helvetica,sans-Serif" font-size="10.00">+ int_vec_identifiers</text>
<text text-anchor="start" x="243" y="-48.5" font-family="Helvetica,sans-Serif" font-size="10.00">+ out_vec_identifiers</text>
<text text-anchor="start" x="243" y="-37.5" font-family="Helvetica,sans-Serif" font-size="10.00">+ n_pos</text>
<text text-anchor="start" x="243" y="-26.5" font-family="Helvetica,sans-Serif" font-size="10.00">+ n_neg</text>
<polyline fill="none" stroke="black" points="235,-19.5 465,-19.5 "/>
<text text-anchor="middle" x="350" y="-7.5" font-family="Helvetica,sans-Serif" font-size="10.00"> </text>
</a>
</g>
</g>
<!-- Node2 -->
<g id="node2" class="node">
<title>Node2</title>
<g id="a_node2"><a xlink:href="../../d9/d2a/struct_kratos_1_1_navier_stokes_1_1_element_data_struct.html" target="_top" xlink:title=" ">
<polygon fill="none" stroke="black" points="298.5,-227.5 298.5,-383.5 401.5,-383.5 401.5,-227.5 298.5,-227.5"/>
<text text-anchor="middle" x="350" y="-371.5" font-family="Helvetica,sans-Serif" font-size="10.00">ElementDataType</text>
<polyline fill="none" stroke="black" points="298.5,-364.5 401.5,-364.5 "/>
<text text-anchor="start" x="306.5" y="-352.5" font-family="Helvetica,sans-Serif" font-size="10.00">+ bdf0</text>
<text text-anchor="start" x="306.5" y="-341.5" font-family="Helvetica,sans-Serif" font-size="10.00">+ bdf1</text>
<text text-anchor="start" x="306.5" y="-330.5" font-family="Helvetica,sans-Serif" font-size="10.00">+ bdf2</text>
<text text-anchor="start" x="306.5" y="-319.5" font-family="Helvetica,sans-Serif" font-size="10.00">+ c</text>
<text text-anchor="start" x="306.5" y="-308.5" font-family="Helvetica,sans-Serif" font-size="10.00">+ h</text>
<text text-anchor="start" x="306.5" y="-297.5" font-family="Helvetica,sans-Serif" font-size="10.00">+ volume</text>
<text text-anchor="start" x="306.5" y="-286.5" font-family="Helvetica,sans-Serif" font-size="10.00">+ dt</text>
<text text-anchor="start" x="306.5" y="-275.5" font-family="Helvetica,sans-Serif" font-size="10.00">+ dyn_tau</text>
<text text-anchor="start" x="306.5" y="-264.5" font-family="Helvetica,sans-Serif" font-size="10.00">+ mu</text>
<text text-anchor="start" x="306.5" y="-253.5" font-family="Helvetica,sans-Serif" font-size="10.00">+ rho</text>
<polyline fill="none" stroke="black" points="298.5,-246.5 401.5,-246.5 "/>
<text text-anchor="middle" x="350" y="-234.5" font-family="Helvetica,sans-Serif" font-size="10.00"> </text>
</a>
</g>
</g>
<!-- Node2&#45;&gt;Node1 -->
<g id="edge1" class="edge">
<title>Node2&#45;&gt;Node1</title>
<path fill="none" stroke="midnightblue" d="M350,-217.26C350,-208.15 350,-198.87 350,-189.69"/>
<polygon fill="none" stroke="midnightblue" points="346.5,-217.45 350,-227.45 353.5,-217.45 346.5,-217.45"/>
</g>
<!-- Node3 -->
<g id="node3" class="node">
<title>Node3</title>
<g id="a_node3"><a xlink:href="../../d9/dbb/class_kratos_1_1_internals_1_1_matrix.html" target="_top" xlink:title=" ">
<polygon fill="none" stroke="black" points="365.5,-805.5 365.5,-994.5 502.5,-994.5 502.5,-805.5 365.5,-805.5"/>
<text text-anchor="start" x="373.5" y="-982.5" font-family="Helvetica,sans-Serif" font-size="10.00">Kratos::Internals::</text>
<text text-anchor="start" x="373.5" y="-971.5" font-family="Helvetica,sans-Serif" font-size="10.00">Matrix&lt; double, AMatrix</text>
<text text-anchor="middle" x="434" y="-960.5" font-family="Helvetica,sans-Serif" font-size="10.00">::dynamic, 1 &gt;</text>
<polyline fill="none" stroke="black" points="365.5,-953.5 502.5,-953.5 "/>
<text text-anchor="middle" x="434" y="-941.5" font-family="Helvetica,sans-Serif" font-size="10.00"> </text>
<polyline fill="none" stroke="black" points="365.5,-934.5 502.5,-934.5 "/>
<text text-anchor="start" x="373.5" y="-922.5" font-family="Helvetica,sans-Serif" font-size="10.00">+ Matrix()</text>
<text text-anchor="start" x="373.5" y="-911.5" font-family="Helvetica,sans-Serif" font-size="10.00">+ Matrix()</text>
<text text-anchor="start" x="373.5" y="-900.5" font-family="Helvetica,sans-Serif" font-size="10.00">+ Matrix()</text>
<text text-anchor="start" x="373.5" y="-889.5" font-family="Helvetica,sans-Serif" font-size="10.00">+ Matrix()</text>
<text text-anchor="start" x="373.5" y="-878.5" font-family="Helvetica,sans-Serif" font-size="10.00">+ Matrix()</text>
<text text-anchor="start" x="373.5" y="-867.5" font-family="Helvetica,sans-Serif" font-size="10.00">+ Matrix()</text>
<text text-anchor="start" x="373.5" y="-856.5" font-family="Helvetica,sans-Serif" font-size="10.00">+ Matrix()</text>
<text text-anchor="start" x="373.5" y="-845.5" font-family="Helvetica,sans-Serif" font-size="10.00">+ Matrix()</text>
<text text-anchor="start" x="373.5" y="-834.5" font-family="Helvetica,sans-Serif" font-size="10.00">+ operator=()</text>
<text text-anchor="start" x="373.5" y="-823.5" font-family="Helvetica,sans-Serif" font-size="10.00">+ operator=()</text>
<text text-anchor="start" x="373.5" y="-812.5" font-family="Helvetica,sans-Serif" font-size="10.00">and 30 more...</text>
</a>
</g>
</g>
<!-- Node3&#45;&gt;Node2 -->
<g id="edge2" class="edge">
<title>Node3&#45;&gt;Node2</title>
<path fill="none" stroke="#404040" d="M432.78,-805.24C429.71,-704.39 419.58,-539.91 387,-402 386.46,-399.73 385.88,-397.44 385.27,-395.14"/>
<polygon fill="none" stroke="#404040" points="385.26,-395.12 379.75,-390.47 381.92,-383.59 387.43,-388.24 385.26,-395.12"/>
<text text-anchor="middle" x="419" y="-438" font-family="Helvetica,sans-Serif" font-size="10.00"> +strain</text>
<text text-anchor="middle" x="419" y="-427" font-family="Helvetica,sans-Serif" font-size="10.00">+stress</text>
</g>
<!-- Node4 -->
<g id="node4" class="node">
<title>Node4</title>
<g id="a_node4"><a xlink:title=" ">
<polygon fill="none" stroke="#bfbfbf" points="224.5,-1351.5 224.5,-1441.5 389.5,-1441.5 389.5,-1351.5 224.5,-1351.5"/>
<text text-anchor="start" x="232.5" y="-1429.5" font-family="Helvetica,sans-Serif" font-size="10.00">AMatrix::MatrixExpression</text>
<text text-anchor="start" x="232.5" y="-1418.5" font-family="Helvetica,sans-Serif" font-size="10.00">&lt; Matrix&lt; double, TSize1,</text>
<text text-anchor="start" x="232.5" y="-1407.5" font-family="Helvetica,sans-Serif" font-size="10.00"> TSize2 &gt;, AMatrix::row_major</text>
<text text-anchor="middle" x="307" y="-1396.5" font-family="Helvetica,sans-Serif" font-size="10.00">_access &gt;</text>
<polyline fill="none" stroke="#bfbfbf" points="224.5,-1389.5 389.5,-1389.5 "/>
<text text-anchor="middle" x="307" y="-1377.5" font-family="Helvetica,sans-Serif" font-size="10.00"> </text>
<polyline fill="none" stroke="#bfbfbf" points="224.5,-1370.5 389.5,-1370.5 "/>
<text text-anchor="middle" x="307" y="-1358.5" font-family="Helvetica,sans-Serif" font-size="10.00"> </text>
</a>
</g>
</g>
<!-- Node4&#45;&gt;Node3 -->
<g id="edge3" class="edge">
<title>Node4&#45;&gt;Node3</title>
<path fill="none" stroke="midnightblue" d="M342.46,-1342.57C347.58,-1333.32 352.35,-1323.59 356,-1314 396.14,-1208.65 416.24,-1080.03 425.87,-994.6"/>
<polygon fill="none" stroke="midnightblue" points="339.41,-1340.85 337.46,-1351.26 345.48,-1344.34 339.41,-1340.85"/>
</g>
<!-- Node6 -->
<g id="node6" class="node">
<title>Node6</title>
<g id="a_node6"><a xlink:href="../../d9/dbb/class_kratos_1_1_internals_1_1_matrix.html" target="_top" xlink:title=" ">
<polygon fill="none" stroke="black" points="0,-805.5 0,-994.5 168,-994.5 168,-805.5 0,-805.5"/>
<text text-anchor="start" x="8" y="-982.5" font-family="Helvetica,sans-Serif" font-size="10.00">Kratos::Internals::</text>
<text text-anchor="start" x="8" y="-971.5" font-family="Helvetica,sans-Serif" font-size="10.00">Matrix&lt; double, AMatrix</text>
<text text-anchor="middle" x="84" y="-960.5" font-family="Helvetica,sans-Serif" font-size="10.00">::dynamic, AMatrix::dynamic &gt;</text>
<polyline fill="none" stroke="black" points="0,-953.5 168,-953.5 "/>
<text text-anchor="middle" x="84" y="-941.5" font-family="Helvetica,sans-Serif" font-size="10.00"> </text>
<polyline fill="none" stroke="black" points="0,-934.5 168,-934.5 "/>
<text text-anchor="start" x="8" y="-922.5" font-family="Helvetica,sans-Serif" font-size="10.00">+ Matrix()</text>
<text text-anchor="start" x="8" y="-911.5" font-family="Helvetica,sans-Serif" font-size="10.00">+ Matrix()</text>
<text text-anchor="start" x="8" y="-900.5" font-family="Helvetica,sans-Serif" font-size="10.00">+ Matrix()</text>
<text text-anchor="start" x="8" y="-889.5" font-family="Helvetica,sans-Serif" font-size="10.00">+ Matrix()</text>
<text text-anchor="start" x="8" y="-878.5" font-family="Helvetica,sans-Serif" font-size="10.00">+ Matrix()</text>
<text text-anchor="start" x="8" y="-867.5" font-family="Helvetica,sans-Serif" font-size="10.00">+ Matrix()</text>
<text text-anchor="start" x="8" y="-856.5" font-family="Helvetica,sans-Serif" font-size="10.00">+ Matrix()</text>
<text text-anchor="start" x="8" y="-845.5" font-family="Helvetica,sans-Serif" font-size="10.00">+ Matrix()</text>
<text text-anchor="start" x="8" y="-834.5" font-family="Helvetica,sans-Serif" font-size="10.00">+ operator=()</text>
<text text-anchor="start" x="8" y="-823.5" font-family="Helvetica,sans-Serif" font-size="10.00">+ operator=()</text>
<text text-anchor="start" x="8" y="-812.5" font-family="Helvetica,sans-Serif" font-size="10.00">and 30 more...</text>
</a>
</g>
</g>
<!-- Node4&#45;&gt;Node6 -->
<g id="edge6" class="edge">
<title>Node4&#45;&gt;Node6</title>
<path fill="none" stroke="midnightblue" d="M215.97,-1351.68C201.17,-1341.12 187.33,-1328.58 177,-1314 109.89,-1219.23 90.19,-1084.12 84.95,-994.57"/>
<polygon fill="none" stroke="midnightblue" points="214.04,-1354.6 224.28,-1357.34 217.99,-1348.82 214.04,-1354.6"/>
</g>
<!-- Node9 -->
<g id="node9" class="node">
<title>Node9</title>
<g id="a_node9"><a xlink:href="../../d9/dbb/class_kratos_1_1_internals_1_1_matrix.html" target="_top" xlink:title=" ">
<polygon fill="none" stroke="black" points="186.5,-805.5 186.5,-994.5 347.5,-994.5 347.5,-805.5 186.5,-805.5"/>
<text text-anchor="start" x="194.5" y="-982.5" font-family="Helvetica,sans-Serif" font-size="10.00">Kratos::Internals::</text>
<text text-anchor="start" x="194.5" y="-971.5" font-family="Helvetica,sans-Serif" font-size="10.00">Matrix&lt; double, TNumNodes,</text>
<text text-anchor="middle" x="267" y="-960.5" font-family="Helvetica,sans-Serif" font-size="10.00"> TDim &gt;</text>
<polyline fill="none" stroke="black" points="186.5,-953.5 347.5,-953.5 "/>
<text text-anchor="middle" x="267" y="-941.5" font-family="Helvetica,sans-Serif" font-size="10.00"> </text>
<polyline fill="none" stroke="black" points="186.5,-934.5 347.5,-934.5 "/>
<text text-anchor="start" x="194.5" y="-922.5" font-family="Helvetica,sans-Serif" font-size="10.00">+ Matrix()</text>
<text text-anchor="start" x="194.5" y="-911.5" font-family="Helvetica,sans-Serif" font-size="10.00">+ Matrix()</text>
<text text-anchor="start" x="194.5" y="-900.5" font-family="Helvetica,sans-Serif" font-size="10.00">+ Matrix()</text>
<text text-anchor="start" x="194.5" y="-889.5" font-family="Helvetica,sans-Serif" font-size="10.00">+ Matrix()</text>
<text text-anchor="start" x="194.5" y="-878.5" font-family="Helvetica,sans-Serif" font-size="10.00">+ Matrix()</text>
<text text-anchor="start" x="194.5" y="-867.5" font-family="Helvetica,sans-Serif" font-size="10.00">+ Matrix()</text>
<text text-anchor="start" x="194.5" y="-856.5" font-family="Helvetica,sans-Serif" font-size="10.00">+ Matrix()</text>
<text text-anchor="start" x="194.5" y="-845.5" font-family="Helvetica,sans-Serif" font-size="10.00">+ Matrix()</text>
<text text-anchor="start" x="194.5" y="-834.5" font-family="Helvetica,sans-Serif" font-size="10.00">+ operator=()</text>
<text text-anchor="start" x="194.5" y="-823.5" font-family="Helvetica,sans-Serif" font-size="10.00">+ operator=()</text>
<text text-anchor="start" x="194.5" y="-812.5" font-family="Helvetica,sans-Serif" font-size="10.00">and 30 more...</text>
</a>
</g>
</g>
<!-- Node4&#45;&gt;Node9 -->
<g id="edge11" class="edge">
<title>Node4&#45;&gt;Node9</title>
<path fill="none" stroke="midnightblue" d="M302.6,-1341.16C295.86,-1257.8 282.88,-1097.26 274.59,-994.83"/>
<polygon fill="none" stroke="midnightblue" points="299.12,-1341.5 303.42,-1351.18 306.1,-1340.93 299.12,-1341.5"/>
</g>
<!-- Node5 -->
<g id="node5" class="node">
<title>Node5</title>
<g id="a_node5"><a xlink:title=" ">
<polygon fill="none" stroke="#bfbfbf" points="57.5,-1362.5 57.5,-1430.5 206.5,-1430.5 206.5,-1362.5 57.5,-1362.5"/>
<text text-anchor="start" x="65.5" y="-1418.5" font-family="Helvetica,sans-Serif" font-size="10.00">AMatrix::MatrixStorage</text>
<text text-anchor="middle" x="132" y="-1407.5" font-family="Helvetica,sans-Serif" font-size="10.00">&lt; double, TSize1, TSize2 &gt;</text>
<polyline fill="none" stroke="#bfbfbf" points="57.5,-1400.5 206.5,-1400.5 "/>
<text text-anchor="middle" x="132" y="-1388.5" font-family="Helvetica,sans-Serif" font-size="10.00"> </text>
<polyline fill="none" stroke="#bfbfbf" points="57.5,-1381.5 206.5,-1381.5 "/>
<text text-anchor="middle" x="132" y="-1369.5" font-family="Helvetica,sans-Serif" font-size="10.00"> </text>
</a>
</g>
</g>
<!-- Node5&#45;&gt;Node3 -->
<g id="edge4" class="edge">
<title>Node5&#45;&gt;Node3</title>
<path fill="none" stroke="midnightblue" d="M198.75,-1358C204.18,-1355.48 209.64,-1353.11 215,-1351 275.3,-1327.31 311.82,-1361.39 356,-1314 435.87,-1228.34 446.25,-1087.75 442.88,-994.78"/>
<polygon fill="none" stroke="midnightblue" points="197.17,-1354.87 189.67,-1362.36 200.2,-1361.18 197.17,-1354.87"/>
</g>
<!-- Node5&#45;&gt;Node6 -->
<g id="edge7" class="edge">
<title>Node5&#45;&gt;Node6</title>
<path fill="none" stroke="midnightblue" d="M127.79,-1352.15C120.08,-1272.66 103.51,-1101.95 93.11,-994.81"/>
<polygon fill="none" stroke="midnightblue" points="124.33,-1352.67 128.78,-1362.29 131.29,-1352 124.33,-1352.67"/>
</g>
<!-- Node5&#45;&gt;Node9 -->
<g id="edge12" class="edge">
<title>Node5&#45;&gt;Node9</title>
<path fill="none" stroke="midnightblue" d="M158.12,-1353.69C165.03,-1341.27 171.97,-1327.39 177,-1314 216.83,-1208.04 241.33,-1079.83 254.52,-994.65"/>
<polygon fill="none" stroke="midnightblue" points="155.03,-1352.03 153.11,-1362.45 161.11,-1355.5 155.03,-1352.03"/>
</g>
<!-- Node6&#45;&gt;Node2 -->
<g id="edge5" class="edge">
<title>Node6&#45;&gt;Node2</title>
<path fill="none" stroke="#404040" d="M90.59,-805.38C99.98,-718.22 122.61,-586.94 177,-486 204.63,-434.72 251.03,-387.74 288.82,-354.72"/>
<polygon fill="none" stroke="#404040" points="289.13,-354.46 291.07,-347.51 298.23,-346.63 296.29,-353.58 289.13,-354.46"/>
<text text-anchor="middle" x="247.5" y="-432.5" font-family="Helvetica,sans-Serif" font-size="10.00"> +C</text>
</g>
<!-- Node7 -->
<g id="node7" class="node">
<title>Node7</title>
<g id="a_node7"><a xlink:href="../../d4/ddc/class_kratos_1_1array__1d.html" target="_top" xlink:title=" ">
<polygon fill="none" stroke="black" points="520.5,-486.5 520.5,-1313.5 669.5,-1313.5 669.5,-486.5 520.5,-486.5"/>
<text text-anchor="start" x="528.5" y="-1301.5" font-family="Helvetica,sans-Serif" font-size="10.00">Kratos::array_1d&lt; double,</text>
<text text-anchor="middle" x="595" y="-1290.5" font-family="Helvetica,sans-Serif" font-size="10.00"> TNumNodes &gt;</text>
<polyline fill="none" stroke="black" points="520.5,-1283.5 669.5,-1283.5 "/>
<text text-anchor="middle" x="595" y="-1271.5" font-family="Helvetica,sans-Serif" font-size="10.00"> </text>
<polyline fill="none" stroke="black" points="520.5,-1264.5 669.5,-1264.5 "/>
<text text-anchor="start" x="528.5" y="-1252.5" font-family="Helvetica,sans-Serif" font-size="10.00">+ array_1d()</text>
<text text-anchor="start" x="528.5" y="-1241.5" font-family="Helvetica,sans-Serif" font-size="10.00">+ array_1d()</text>
<text text-anchor="start" x="528.5" y="-1230.5" font-family="Helvetica,sans-Serif" font-size="10.00">+ array_1d()</text>
<text text-anchor="start" x="528.5" y="-1219.5" font-family="Helvetica,sans-Serif" font-size="10.00">+ array_1d()</text>
<text text-anchor="start" x="528.5" y="-1208.5" font-family="Helvetica,sans-Serif" font-size="10.00">+ array_1d()</text>
<text text-anchor="start" x="528.5" y="-1197.5" font-family="Helvetica,sans-Serif" font-size="10.00">+ array_1d()</text>
<text text-anchor="start" x="528.5" y="-1186.5" font-family="Helvetica,sans-Serif" font-size="10.00">+ array_1d()</text>
<text text-anchor="start" x="528.5" y="-1175.5" font-family="Helvetica,sans-Serif" font-size="10.00">+ operator()()</text>
<text text-anchor="start" x="528.5" y="-1164.5" font-family="Helvetica,sans-Serif" font-size="10.00">+ operator()()</text>
<text text-anchor="start" x="528.5" y="-1153.5" font-family="Helvetica,sans-Serif" font-size="10.00">+ operator[]()</text>
<text text-anchor="start" x="528.5" y="-1142.5" font-family="Helvetica,sans-Serif" font-size="10.00">+ operator[]()</text>
<text text-anchor="start" x="528.5" y="-1131.5" font-family="Helvetica,sans-Serif" font-size="10.00">+ operator=()</text>
<text text-anchor="start" x="528.5" y="-1120.5" font-family="Helvetica,sans-Serif" font-size="10.00">+ operator=()</text>
<text text-anchor="start" x="528.5" y="-1109.5" font-family="Helvetica,sans-Serif" font-size="10.00">+ operator+=()</text>
<text text-anchor="start" x="528.5" y="-1098.5" font-family="Helvetica,sans-Serif" font-size="10.00">+ operator&#45;=()</text>
<text text-anchor="start" x="528.5" y="-1087.5" font-family="Helvetica,sans-Serif" font-size="10.00">+ operator/=()</text>
<text text-anchor="start" x="528.5" y="-1076.5" font-family="Helvetica,sans-Serif" font-size="10.00">+ operator==()</text>
<text text-anchor="start" x="528.5" y="-1065.5" font-family="Helvetica,sans-Serif" font-size="10.00">* size_type</text>
<text text-anchor="start" x="528.5" y="-1054.5" font-family="Helvetica,sans-Serif" font-size="10.00">* difference_type</text>
<text text-anchor="start" x="528.5" y="-1043.5" font-family="Helvetica,sans-Serif" font-size="10.00">* value_type</text>
<text text-anchor="start" x="528.5" y="-1032.5" font-family="Helvetica,sans-Serif" font-size="10.00">* const_reference</text>
<text text-anchor="start" x="528.5" y="-1021.5" font-family="Helvetica,sans-Serif" font-size="10.00">* reference</text>
<text text-anchor="start" x="528.5" y="-1010.5" font-family="Helvetica,sans-Serif" font-size="10.00">* array_type</text>
<text text-anchor="start" x="528.5" y="-999.5" font-family="Helvetica,sans-Serif" font-size="10.00">* pointer</text>
<text text-anchor="start" x="528.5" y="-988.5" font-family="Helvetica,sans-Serif" font-size="10.00">* self_type</text>
<text text-anchor="start" x="528.5" y="-977.5" font-family="Helvetica,sans-Serif" font-size="10.00">* const_closure_type</text>
<text text-anchor="start" x="528.5" y="-966.5" font-family="Helvetica,sans-Serif" font-size="10.00">* closure_type</text>
<text text-anchor="start" x="528.5" y="-955.5" font-family="Helvetica,sans-Serif" font-size="10.00">* vector_temporary_type</text>
<text text-anchor="start" x="528.5" y="-944.5" font-family="Helvetica,sans-Serif" font-size="10.00">* storage_category</text>
<text text-anchor="start" x="528.5" y="-933.5" font-family="Helvetica,sans-Serif" font-size="10.00">* KRATOS_CLASS_POINTER</text>
<text text-anchor="start" x="528.5" y="-922.5" font-family="Helvetica,sans-Serif" font-size="10.00">_DEFINITION()</text>
<text text-anchor="start" x="528.5" y="-911.5" font-family="Helvetica,sans-Serif" font-size="10.00">* const_reverse_iterator</text>
<text text-anchor="start" x="528.5" y="-900.5" font-family="Helvetica,sans-Serif" font-size="10.00">* reverse_iterator</text>
<text text-anchor="start" x="528.5" y="-889.5" font-family="Helvetica,sans-Serif" font-size="10.00">* const_iterator_type</text>
<text text-anchor="start" x="528.5" y="-878.5" font-family="Helvetica,sans-Serif" font-size="10.00">* iterator_type</text>
<text text-anchor="start" x="528.5" y="-867.5" font-family="Helvetica,sans-Serif" font-size="10.00">* find()</text>
<text text-anchor="start" x="528.5" y="-856.5" font-family="Helvetica,sans-Serif" font-size="10.00">* find()</text>
<text text-anchor="start" x="528.5" y="-845.5" font-family="Helvetica,sans-Serif" font-size="10.00">* size()</text>
<text text-anchor="start" x="528.5" y="-834.5" font-family="Helvetica,sans-Serif" font-size="10.00">* minus_assign()</text>
<text text-anchor="start" x="528.5" y="-823.5" font-family="Helvetica,sans-Serif" font-size="10.00">* data()</text>
<text text-anchor="start" x="528.5" y="-812.5" font-family="Helvetica,sans-Serif" font-size="10.00">* data()</text>
<text text-anchor="start" x="528.5" y="-801.5" font-family="Helvetica,sans-Serif" font-size="10.00">and 8 more...</text>
<text text-anchor="start" x="528.5" y="-790.5" font-family="Helvetica,sans-Serif" font-size="10.00">* data_</text>
<text text-anchor="start" x="528.5" y="-779.5" font-family="Helvetica,sans-Serif" font-size="10.00">* array_1d()</text>
<text text-anchor="start" x="528.5" y="-768.5" font-family="Helvetica,sans-Serif" font-size="10.00">* array_1d()</text>
<text text-anchor="start" x="528.5" y="-757.5" font-family="Helvetica,sans-Serif" font-size="10.00">* array_1d()</text>
<text text-anchor="start" x="528.5" y="-746.5" font-family="Helvetica,sans-Serif" font-size="10.00">* array_1d()</text>
<text text-anchor="start" x="528.5" y="-735.5" font-family="Helvetica,sans-Serif" font-size="10.00">* array_1d()</text>
<text text-anchor="start" x="528.5" y="-724.5" font-family="Helvetica,sans-Serif" font-size="10.00">* array_1d()</text>
<text text-anchor="start" x="528.5" y="-713.5" font-family="Helvetica,sans-Serif" font-size="10.00">* array_1d()</text>
<text text-anchor="start" x="528.5" y="-702.5" font-family="Helvetica,sans-Serif" font-size="10.00">* operator()()</text>
<text text-anchor="start" x="528.5" y="-691.5" font-family="Helvetica,sans-Serif" font-size="10.00">* operator()()</text>
<text text-anchor="start" x="528.5" y="-680.5" font-family="Helvetica,sans-Serif" font-size="10.00">* operator[]()</text>
<text text-anchor="start" x="528.5" y="-669.5" font-family="Helvetica,sans-Serif" font-size="10.00">* operator[]()</text>
<text text-anchor="start" x="528.5" y="-658.5" font-family="Helvetica,sans-Serif" font-size="10.00">* operator=()</text>
<text text-anchor="start" x="528.5" y="-647.5" font-family="Helvetica,sans-Serif" font-size="10.00">* operator=()</text>
<text text-anchor="start" x="528.5" y="-636.5" font-family="Helvetica,sans-Serif" font-size="10.00">* operator+=()</text>
<text text-anchor="start" x="528.5" y="-625.5" font-family="Helvetica,sans-Serif" font-size="10.00">* operator&#45;=()</text>
<text text-anchor="start" x="528.5" y="-614.5" font-family="Helvetica,sans-Serif" font-size="10.00">* operator/=()</text>
<text text-anchor="start" x="528.5" y="-603.5" font-family="Helvetica,sans-Serif" font-size="10.00">* operator==()</text>
<text text-anchor="start" x="528.5" y="-592.5" font-family="Helvetica,sans-Serif" font-size="10.00">* resize()</text>
<text text-anchor="start" x="528.5" y="-581.5" font-family="Helvetica,sans-Serif" font-size="10.00">* assign_temporary()</text>
<text text-anchor="start" x="528.5" y="-570.5" font-family="Helvetica,sans-Serif" font-size="10.00">* operator*=()</text>
<text text-anchor="start" x="528.5" y="-559.5" font-family="Helvetica,sans-Serif" font-size="10.00">* plus_assign()</text>
<text text-anchor="start" x="528.5" y="-548.5" font-family="Helvetica,sans-Serif" font-size="10.00">* assign()</text>
<text text-anchor="start" x="528.5" y="-537.5" font-family="Helvetica,sans-Serif" font-size="10.00">* swap()</text>
<text text-anchor="start" x="528.5" y="-526.5" font-family="Helvetica,sans-Serif" font-size="10.00">* insert_element()</text>
<text text-anchor="start" x="528.5" y="-515.5" font-family="Helvetica,sans-Serif" font-size="10.00">* erase_element()</text>
<text text-anchor="start" x="528.5" y="-504.5" font-family="Helvetica,sans-Serif" font-size="10.00">* clear()</text>
<text text-anchor="start" x="528.5" y="-493.5" font-family="Helvetica,sans-Serif" font-size="10.00">* swap</text>
</a>
</g>
</g>
<!-- Node7&#45;&gt;Node2 -->
<g id="edge8" class="edge">
<title>Node7&#45;&gt;Node2</title>
<path fill="none" stroke="#404040" d="M520.45,-507.2C517.43,-500.02 514.28,-492.95 511,-486 487.65,-436.47 446.12,-390.69 411.09,-357.76"/>
<polygon fill="none" stroke="#404040" points="410.69,-357.39 403.57,-356.26 401.88,-349.25 409,-350.38 410.69,-357.39"/>
<text text-anchor="middle" x="512.5" y="-449" font-family="Helvetica,sans-Serif" font-size="10.00"> +N</text>
<text text-anchor="middle" x="512.5" y="-438" font-family="Helvetica,sans-Serif" font-size="10.00">+p</text>
<text text-anchor="middle" x="512.5" y="-427" font-family="Helvetica,sans-Serif" font-size="10.00">+pn</text>
<text text-anchor="middle" x="512.5" y="-416" font-family="Helvetica,sans-Serif" font-size="10.00">+pnn</text>
</g>
<!-- Node8 -->
<g id="node8" class="node">
<title>Node8</title>
<g id="a_node8"><a xlink:title=" ">
<polygon fill="none" stroke="#bfbfbf" points="523.5,-1357 523.5,-1436 666.5,-1436 666.5,-1357 523.5,-1357"/>
<text text-anchor="start" x="531.5" y="-1424" font-family="Helvetica,sans-Serif" font-size="10.00">boost::numeric::ublas</text>
<text text-anchor="start" x="531.5" y="-1413" font-family="Helvetica,sans-Serif" font-size="10.00">::vector_expression&lt;</text>
<text text-anchor="middle" x="595" y="-1402" font-family="Helvetica,sans-Serif" font-size="10.00"> array_1d&lt; double, N &gt; &gt;</text>
<polyline fill="none" stroke="#bfbfbf" points="523.5,-1395 666.5,-1395 "/>
<text text-anchor="middle" x="595" y="-1383" font-family="Helvetica,sans-Serif" font-size="10.00"> </text>
<polyline fill="none" stroke="#bfbfbf" points="523.5,-1376 666.5,-1376 "/>
<text text-anchor="middle" x="595" y="-1364" font-family="Helvetica,sans-Serif" font-size="10.00"> </text>
</a>
</g>
</g>
<!-- Node8&#45;&gt;Node7 -->
<g id="edge9" class="edge">
<title>Node8&#45;&gt;Node7</title>
<path fill="none" stroke="midnightblue" d="M595,-1346.49C595,-1336.63 595,-1325.55 595,-1313.51"/>
<polygon fill="none" stroke="midnightblue" points="591.5,-1346.7 595,-1356.7 598.5,-1346.7 591.5,-1346.7"/>
</g>
<!-- Node9&#45;&gt;Node2 -->
<g id="edge10" class="edge">
<title>Node9&#45;&gt;Node2</title>
<path fill="none" stroke="#404040" d="M280.11,-805.44C295.85,-693.08 322.06,-505.96 337.52,-395.61"/>
<polygon fill="none" stroke="#404040" points="337.54,-395.42 334.42,-388.92 339.21,-383.53 342.34,-390.03 337.54,-395.42"/>
<text text-anchor="middle" x="360" y="-460" font-family="Helvetica,sans-Serif" font-size="10.00"> +DN_DX</text>
<text text-anchor="middle" x="360" y="-449" font-family="Helvetica,sans-Serif" font-size="10.00">+f</text>
<text text-anchor="middle" x="360" y="-438" font-family="Helvetica,sans-Serif" font-size="10.00">+v</text>
<text text-anchor="middle" x="360" y="-427" font-family="Helvetica,sans-Serif" font-size="10.00">+vmesh</text>
<text text-anchor="middle" x="360" y="-416" font-family="Helvetica,sans-Serif" font-size="10.00">+vn</text>
<text text-anchor="middle" x="360" y="-405" font-family="Helvetica,sans-Serif" font-size="10.00">+vnn</text>
</g>
</g>
</svg>
        <g id="navigator" transform="translate(0 0)" fill="#404254">
                <rect fill="#f2f5e9" fill-opacity="0.5" stroke="#606060" stroke-width=".5" x="0" y="0" width="60" height="60"/>
                <use id="zoomplus" xlink:href="#zoomPlus" x="17" y="9" onmousedown="handleZoom(evt,'in')"/>
                <use id="zoomminus" xlink:href="#zoomMin" x="42" y="9" onmousedown="handleZoom(evt,'out')"/>
                <use id="reset" xlink:href="#resetDef" x="30" y="36" onmousedown="handleReset()"/>
                <g id="arrowUp" xlink:href="#dirArrow" transform="translate(30 24)" onmousedown="handlePan(0,-1)">
                  <use xlink:href="#rim" fill="#404040">
                        <set attributeName="fill" to="#808080" begin="arrowUp.mouseover" end="arrowUp.mouseout"/>
                  </use>
                  <path fill="none" stroke="white" stroke-width="1.5" d="M0,-3.0v7 M-2.5,-0.5L0,-3.0L2.5,-0.5"/>
                </g>
                <g id="arrowRight" xlink:href="#dirArrow" transform="rotate(90) translate(36 -43)" onmousedown="handlePan(1,0)">
                  <use xlink:href="#rim" fill="#404040">
                        <set attributeName="fill" to="#808080" begin="arrowRight.mouseover" end="arrowRight.mouseout"/>
                  </use>
                  <path fill="none" stroke="white" stroke-width="1.5" d="M0,-3.0v7 M-2.5,-0.5L0,-3.0L2.5,-0.5"/>
                </g>
                <g id="arrowDown" xlink:href="#dirArrow" transform="rotate(180) translate(-30 -48)" onmousedown="handlePan(0,1)">
                  <use xlink:href="#rim" fill="#404040">
                        <set attributeName="fill" to="#808080" begin="arrowDown.mouseover" end="arrowDown.mouseout"/>
                  </use>
                  <path fill="none" stroke="white" stroke-width="1.5" d="M0,-3.0v7 M-2.5,-0.5L0,-3.0L2.5,-0.5"/>
                </g>
                <g id="arrowLeft" xlink:href="#dirArrow" transform="rotate(270) translate(-36 17)" onmousedown="handlePan(-1,0)">
                  <use xlink:href="#rim" fill="#404040">
                        <set attributeName="fill" to="#808080" begin="arrowLeft.mouseover" end="arrowLeft.mouseout"/>
                  </use>
                  <path fill="none" stroke="white" stroke-width="1.5" d="M0,-3.0v7 M-2.5,-0.5L0,-3.0L2.5,-0.5"/>
                </g>
        </g>
        <svg viewBox="0 0 15 15" width="100%" height="30px" preserveAspectRatio="xMaxYMin meet">
         <g id="arrow_out" transform="scale(0.3 0.3)">
          <a xlink:href="struct_kratos_1_1_embedded_navier_stokes_1_1_embedded_element_data_struct__coll__graph_org.svg" target="_base">
           <rect id="button" ry="5" rx="5" y="6" x="6" height="38" width="38"
                fill="#f2f5e9" fill-opacity="0.5" stroke="#606060" stroke-width="1.0"/>
           <path id="arrow"
             d="M 11.500037,31.436501 C 11.940474,20.09759 22.043105,11.32322 32.158766,21.979434 L 37.068811,17.246167 C 37.068811,17.246167 37.088388,32 37.088388,32 L 22.160133,31.978069 C 22.160133,31.978069 26.997745,27.140456 26.997745,27.140456 C 18.528582,18.264221 13.291696,25.230495 11.500037,31.436501 z"
             style="fill:#404040;"/>
          </a>
         </g>
        </svg>
</svg>
