<?xml version="1.0" encoding="UTF-8" standalone="no"?>
<!DOCTYPE svg PUBLIC "-//W3C//DTD SVG 1.1//EN"
 "http://www.w3.org/Graphics/SVG/1.1/DTD/svg11.dtd">
<!-- Generated by graphviz version 2.43.0 (0)
 -->
<!-- Title: Kratos::Internals::MPIDataType&lt; Flags::BlockType &gt; Pages: 1 -->
<svg width="132pt" height="193pt"
 viewBox="0.00 0.00 132.00 193.00" xmlns="http://www.w3.org/2000/svg" xmlns:xlink="http://www.w3.org/1999/xlink">
<g id="graph0" class="graph" transform="scale(1 1) rotate(0) translate(4 189)">
<title>Kratos::Internals::MPIDataType&lt; Flags::BlockType &gt;</title>
<!-- Node1 -->
<g id="node1" class="node">
<title>Node1</title>
<g id="a_node1"><a xlink:title=" ">
<polygon fill="#bfbfbf" stroke="black" points="0,-105.5 0,-184.5 124,-184.5 124,-105.5 0,-105.5"/>
<text text-anchor="start" x="8" y="-172.5" font-family="Helvetica,sans-Serif" font-size="10.00">Kratos::Internals::</text>
<text text-anchor="start" x="8" y="-161.5" font-family="Helvetica,sans-Serif" font-size="10.00">MPIDataType&lt; Flags::</text>
<text text-anchor="middle" x="62" y="-150.5" font-family="Helvetica,sans-Serif" font-size="10.00">BlockType &gt;</text>
<polyline fill="none" stroke="black" points="0,-143.5 124,-143.5 "/>
<text text-anchor="start" x="8" y="-131.5" font-family="Helvetica,sans-Serif" font-size="10.00">+ LengthPerObject</text>
<polyline fill="none" stroke="black" points="0,-124.5 124,-124.5 "/>
<text text-anchor="start" x="8" y="-112.5" font-family="Helvetica,sans-Serif" font-size="10.00">+ DataType()</text>
</a>
</g>
</g>
<!-- Node2 -->
<g id="node2" class="node">
<title>Node2</title>
<g id="a_node2"><a xlink:href="../../da/d86/class_kratos_1_1_m_p_i_message_3_01_flags_1_1_block_type_01_4.html" target="_top" xlink:title=" ">
<polygon fill="none" stroke="black" points="1.5,-0.5 1.5,-68.5 122.5,-68.5 122.5,-0.5 1.5,-0.5"/>
<text text-anchor="start" x="9.5" y="-56.5" font-family="Helvetica,sans-Serif" font-size="10.00">Kratos::MPIMessage</text>
<text text-anchor="middle" x="62" y="-45.5" font-family="Helvetica,sans-Serif" font-size="10.00">&lt; Flags::BlockType &gt;</text>
<polyline fill="none" stroke="black" points="1.5,-38.5 122.5,-38.5 "/>
<text text-anchor="middle" x="62" y="-26.5" font-family="Helvetica,sans-Serif" font-size="10.00"> </text>
<polyline fill="none" stroke="black" points="1.5,-19.5 122.5,-19.5 "/>
<text text-anchor="middle" x="62" y="-7.5" font-family="Helvetica,sans-Serif" font-size="10.00"> </text>
</a>
</g>
</g>
<!-- Node1&#45;&gt;Node2 -->
<g id="edge1" class="edge">
<title>Node1&#45;&gt;Node2</title>
<path fill="none" stroke="midnightblue" d="M62,-95.35C62,-86.28 62,-77 62,-68.54"/>
<polygon fill="none" stroke="midnightblue" points="58.5,-95.44 62,-105.44 65.5,-95.44 58.5,-95.44"/>
</g>
</g>
</svg>
