<?xml version="1.0" encoding="UTF-8" standalone="no"?>
<!DOCTYPE svg PUBLIC "-//W3C//DTD SVG 1.1//EN"
 "http://www.w3.org/Graphics/SVG/1.1/DTD/svg11.dtd">
<!-- Generated by graphviz version 2.43.0 (0)
 -->
<!-- Title: /home/runner/work/Documentation/Documentation/master/applications/DamApplication/custom_utilities/transfer_selfweight_stress_utility.hpp Pages: 1 -->
<svg width="3244pt" height="944pt"
 viewBox="0.00 0.00 3243.61 944.00" xmlns="http://www.w3.org/2000/svg" xmlns:xlink="http://www.w3.org/1999/xlink">
<g id="graph0" class="graph" transform="scale(1 1) rotate(0) translate(4 940)">
<title>/home/runner/work/Documentation/Documentation/master/applications/DamApplication/custom_utilities/transfer_selfweight_stress_utility.hpp</title>
<!-- Node1 -->
<g id="node1" class="node">
<title>Node1</title>
<g id="a_node1"><a xlink:title=" ">
<polygon fill="#bfbfbf" stroke="black" points="1011.65,-883.5 1011.65,-935.5 1212.65,-935.5 1212.65,-883.5 1011.65,-883.5"/>
<text text-anchor="start" x="1019.65" y="-923.5" font-family="Helvetica,sans-Serif" font-size="10.00">/home/runner/work/Documentation</text>
<text text-anchor="start" x="1019.65" y="-912.5" font-family="Helvetica,sans-Serif" font-size="10.00">/Documentation/master/applications</text>
<text text-anchor="start" x="1019.65" y="-901.5" font-family="Helvetica,sans-Serif" font-size="10.00">/DamApplication/custom_utilities</text>
<text text-anchor="middle" x="1112.15" y="-890.5" font-family="Helvetica,sans-Serif" font-size="10.00">/transfer_selfweight_stress_utility.hpp</text>
</a>
</g>
</g>
<!-- Node2 -->
<g id="node2" class="node">
<title>Node2</title>
<g id="a_node2"><a xlink:title=" ">
<polygon fill="none" stroke="#bfbfbf" points="350.65,-123.5 350.65,-142.5 397.65,-142.5 397.65,-123.5 350.65,-123.5"/>
<text text-anchor="middle" x="374.15" y="-130.5" font-family="Helvetica,sans-Serif" font-size="10.00">cmath</text>
</a>
</g>
</g>
<!-- Node1&#45;&gt;Node2 -->
<g id="edge1" class="edge">
<title>Node1&#45;&gt;Node2</title>
<path fill="none" stroke="midnightblue" d="M1011.2,-906.99C737.57,-901.57 2.15,-877.6 2.15,-776.5 2.15,-776.5 2.15,-776.5 2.15,-260.5 2.15,-223.31 -6.46,-203.92 21.15,-179 67.53,-137.14 260.93,-133.33 340.12,-133.58"/>
<polygon fill="midnightblue" stroke="midnightblue" points="340.49,-137.08 350.51,-133.64 340.53,-130.08 340.49,-137.08"/>
</g>
<!-- Node3 -->
<g id="node3" class="node">
<title>Node3</title>
<g id="a_node3"><a xlink:href="../../dd/dfe/model__part_8h.html" target="_top" xlink:title=" ">
<polygon fill="none" stroke="black" points="2126.65,-766 2126.65,-785 2251.65,-785 2251.65,-766 2126.65,-766"/>
<text text-anchor="middle" x="2189.15" y="-773" font-family="Helvetica,sans-Serif" font-size="10.00">includes/model_part.h</text>
</a>
</g>
</g>
<!-- Node1&#45;&gt;Node3 -->
<g id="edge2" class="edge">
<title>Node1&#45;&gt;Node3</title>
<path fill="none" stroke="midnightblue" d="M1212.99,-896.14C1428.39,-869.74 1929.04,-808.38 2116.53,-785.4"/>
<polygon fill="midnightblue" stroke="midnightblue" points="2117.06,-788.86 2126.56,-784.17 2116.21,-781.91 2117.06,-788.86"/>
</g>
<!-- Node111 -->
<g id="node27" class="node">
<title>Node111</title>
<g id="a_node27"><a xlink:href="../../d4/dfe/element_8h.html" target="_top" xlink:title=" ">
<polygon fill="none" stroke="black" points="1570.15,-637.5 1570.15,-656.5 1680.15,-656.5 1680.15,-637.5 1570.15,-637.5"/>
<text text-anchor="middle" x="1625.15" y="-644.5" font-family="Helvetica,sans-Serif" font-size="10.00">includes/element.h</text>
</a>
</g>
</g>
<!-- Node1&#45;&gt;Node111 -->
<g id="edge166" class="edge">
<title>Node1&#45;&gt;Node111</title>
<path fill="none" stroke="midnightblue" d="M1161.81,-883.29C1268.85,-828.93 1518.2,-702.31 1599.22,-661.17"/>
<polygon fill="midnightblue" stroke="midnightblue" points="1600.91,-664.23 1608.24,-656.59 1597.74,-657.99 1600.91,-664.23"/>
</g>
<!-- Node96 -->
<g id="node35" class="node">
<title>Node96</title>
<g id="a_node35"><a xlink:href="../../d8/d88/math__utils_8h.html" target="_top" xlink:title=" ">
<polygon fill="none" stroke="black" points="1046.65,-252 1046.65,-271 1163.65,-271 1163.65,-252 1046.65,-252"/>
<text text-anchor="middle" x="1105.15" y="-259" font-family="Helvetica,sans-Serif" font-size="10.00">utilities/math_utils.h</text>
</a>
</g>
</g>
<!-- Node1&#45;&gt;Node96 -->
<g id="edge165" class="edge">
<title>Node1&#45;&gt;Node96</title>
<path fill="none" stroke="midnightblue" d="M1100.34,-883.32C1089.18,-857.2 1074.15,-814.89 1074.15,-776.5 1074.15,-776.5 1074.15,-776.5 1074.15,-394.5 1074.15,-352.89 1088.93,-305.82 1098.08,-280.66"/>
<polygon fill="midnightblue" stroke="midnightblue" points="1101.36,-281.89 1101.6,-271.29 1094.8,-279.42 1101.36,-281.89"/>
</g>
<!-- Node125 -->
<g id="node37" class="node">
<title>Node125</title>
<g id="a_node37"><a xlink:href="../../db/d71/kratos__parameters_8h.html" target="_top" xlink:title=" ">
<polygon fill="none" stroke="black" points="1857.65,-509 1857.65,-528 2018.65,-528 2018.65,-509 1857.65,-509"/>
<text text-anchor="middle" x="1938.15" y="-516" font-family="Helvetica,sans-Serif" font-size="10.00">includes/kratos_parameters.h</text>
</a>
</g>
</g>
<!-- Node1&#45;&gt;Node125 -->
<g id="edge153" class="edge">
<title>Node1&#45;&gt;Node125</title>
<path fill="none" stroke="midnightblue" d="M1212.85,-907.26C1605.86,-902.19 3019.2,-881.6 3108.15,-847 3179.91,-819.09 3203.57,-796.26 3230.15,-724 3234.91,-711.07 3239.22,-703.37 3230.15,-693 3150.86,-602.34 2310.11,-542.49 2029.06,-524.9"/>
<polygon fill="midnightblue" stroke="midnightblue" points="2029.1,-521.39 2018.9,-524.26 2028.67,-528.38 2029.1,-521.39"/>
</g>
<!-- Node131 -->
<g id="node43" class="node">
<title>Node131</title>
<g id="a_node43"><a xlink:href="../../d1/db8/openmp__utils_8h.html" target="_top" xlink:title=" ">
<polygon fill="none" stroke="black" points="54.65,-252 54.65,-271 185.65,-271 185.65,-252 54.65,-252"/>
<text text-anchor="middle" x="120.15" y="-259" font-family="Helvetica,sans-Serif" font-size="10.00">utilities/openmp_utils.h</text>
</a>
</g>
</g>
<!-- Node1&#45;&gt;Node131 -->
<g id="edge154" class="edge">
<title>Node1&#45;&gt;Node131</title>
<path fill="none" stroke="midnightblue" d="M1011.26,-905.13C764.06,-895.52 148.15,-862.91 148.15,-776.5 148.15,-776.5 148.15,-776.5 148.15,-394.5 148.15,-353.07 134.79,-305.9 126.53,-280.68"/>
<polygon fill="midnightblue" stroke="midnightblue" points="129.78,-279.36 123.26,-271.02 123.15,-281.61 129.78,-279.36"/>
</g>
<!-- Node134 -->
<g id="node47" class="node">
<title>Node134</title>
<g id="a_node47"><a xlink:href="../../dc/d38/dam__application__variables_8h.html" target="_top" xlink:title=" ">
<polygon fill="none" stroke="black" points="2941.65,-827.5 2941.65,-846.5 3098.65,-846.5 3098.65,-827.5 2941.65,-827.5"/>
<text text-anchor="middle" x="3020.15" y="-834.5" font-family="Helvetica,sans-Serif" font-size="10.00">dam_application_variables.h</text>
</a>
</g>
</g>
<!-- Node1&#45;&gt;Node134 -->
<g id="edge167" class="edge">
<title>Node1&#45;&gt;Node134</title>
<path fill="none" stroke="midnightblue" d="M1212.72,-904.78C1546.7,-892.44 2615.65,-852.95 2931.48,-841.28"/>
<polygon fill="midnightblue" stroke="midnightblue" points="2931.63,-844.77 2941.5,-840.91 2931.37,-837.78 2931.63,-844.77"/>
</g>
<!-- Node4 -->
<g id="node4" class="node">
<title>Node4</title>
<g id="a_node4"><a xlink:title=" ">
<polygon fill="none" stroke="#bfbfbf" points="2221.15,-6 2221.15,-25 2265.15,-25 2265.15,-6 2221.15,-6"/>
<text text-anchor="middle" x="2243.15" y="-13" font-family="Helvetica,sans-Serif" font-size="10.00">string</text>
</a>
</g>
</g>
<!-- Node3&#45;&gt;Node4 -->
<g id="edge3" class="edge">
<title>Node3&#45;&gt;Node4</title>
<path fill="none" stroke="midnightblue" d="M2251.92,-773.32C2418.22,-769.76 2861.39,-757.22 2918.15,-724 3068.43,-636.05 3133.15,-570.62 3133.15,-396.5 3133.15,-396.5 3133.15,-396.5 3133.15,-132 3133.15,-59.34 3053.75,-84.17 2983.15,-67 2845.77,-33.59 2399.56,-20.34 2275.45,-17.25"/>
<polygon fill="midnightblue" stroke="midnightblue" points="2275.52,-13.75 2265.43,-17 2275.34,-20.75 2275.52,-13.75"/>
</g>
<!-- Node5 -->
<g id="node5" class="node">
<title>Node5</title>
<g id="a_node5"><a xlink:title=" ">
<polygon fill="none" stroke="#bfbfbf" points="1421.15,-6 1421.15,-25 1481.15,-25 1481.15,-6 1421.15,-6"/>
<text text-anchor="middle" x="1451.15" y="-13" font-family="Helvetica,sans-Serif" font-size="10.00">iostream</text>
</a>
</g>
</g>
<!-- Node3&#45;&gt;Node5 -->
<g id="edge4" class="edge">
<title>Node3&#45;&gt;Node5</title>
<path fill="none" stroke="midnightblue" d="M2126.63,-774.37C1817.23,-773.5 461.75,-767.24 384.15,-724 348.83,-704.32 334.15,-688.43 334.15,-648 334.15,-648 334.15,-648 334.15,-394.5 334.15,-318.45 360.6,-294.53 419.15,-246 456.81,-214.79 479.81,-232.66 523.15,-210 618.71,-160.04 617.84,-103.93 719.15,-67 847.77,-20.11 1276.39,-16.36 1410.61,-16.36"/>
<polygon fill="midnightblue" stroke="midnightblue" points="1410.85,-19.86 1420.85,-16.37 1410.85,-12.86 1410.85,-19.86"/>
</g>
<!-- Node6 -->
<g id="node6" class="node">
<title>Node6</title>
<g id="a_node6"><a xlink:title=" ">
<polygon fill="none" stroke="#bfbfbf" points="502.15,-6 502.15,-25 558.15,-25 558.15,-6 502.15,-6"/>
<text text-anchor="middle" x="530.15" y="-13" font-family="Helvetica,sans-Serif" font-size="10.00">sstream</text>
</a>
</g>
</g>
<!-- Node3&#45;&gt;Node6 -->
<g id="edge5" class="edge">
<title>Node3&#45;&gt;Node6</title>
<path fill="none" stroke="midnightblue" d="M2126.43,-774.66C1823.15,-775.16 516.3,-774.37 342.15,-724 278.6,-705.62 214.15,-714.16 214.15,-648 214.15,-648 214.15,-648 214.15,-327.5 214.15,-196.48 246.9,-145.03 352.15,-67 393.55,-36.31 452.96,-24.25 491.55,-19.53"/>
<polygon fill="midnightblue" stroke="midnightblue" points="492.3,-22.97 501.85,-18.38 491.53,-16.01 492.3,-22.97"/>
</g>
<!-- Node7 -->
<g id="node7" class="node">
<title>Node7</title>
<g id="a_node7"><a xlink:title=" ">
<polygon fill="none" stroke="#bfbfbf" points="994.65,-185 994.65,-204 1047.65,-204 1047.65,-185 994.65,-185"/>
<text text-anchor="middle" x="1021.15" y="-192" font-family="Helvetica,sans-Serif" font-size="10.00">cstddef</text>
</a>
</g>
</g>
<!-- Node3&#45;&gt;Node7 -->
<g id="edge6" class="edge">
<title>Node3&#45;&gt;Node7</title>
<path fill="none" stroke="midnightblue" d="M2126.64,-774.16C1885.14,-772.55 1013.01,-764.03 739.15,-724 606.89,-704.67 448.15,-781.67 448.15,-648 448.15,-648 448.15,-648 448.15,-517.5 448.15,-300.8 657.21,-338.55 853.15,-246 896.33,-225.61 949.63,-211.25 984.46,-203.19"/>
<polygon fill="midnightblue" stroke="midnightblue" points="985.66,-206.5 994.65,-200.89 984.12,-199.68 985.66,-206.5"/>
</g>
<!-- Node8 -->
<g id="node8" class="node">
<title>Node8</title>
<g id="a_node8"><a xlink:href="../../df/d67/define_8h.html" target="_top" xlink:title=" ">
<polygon fill="none" stroke="black" points="1938.65,-123.5 1938.65,-142.5 2037.65,-142.5 2037.65,-123.5 1938.65,-123.5"/>
<text text-anchor="middle" x="1988.15" y="-130.5" font-family="Helvetica,sans-Serif" font-size="10.00">includes/define.h</text>
</a>
</g>
</g>
<!-- Node3&#45;&gt;Node8 -->
<g id="edge7" class="edge">
<title>Node3&#45;&gt;Node8</title>
<path fill="none" stroke="midnightblue" d="M2251.75,-766.72C2310.52,-758.37 2393.18,-743.62 2419.15,-724 2515.48,-651.23 2474.15,-578.72 2474.15,-458 2474.15,-458 2474.15,-458 2474.15,-394.5 2474.15,-353.34 2496.28,-347.87 2518.15,-313 2528.64,-296.28 2538.08,-295.78 2544.15,-277 2548.39,-263.89 2551.69,-257.53 2544.15,-246 2543.52,-245.03 2392.27,-179.3 2391.15,-179 2327.92,-162.05 2143.88,-145.98 2047.92,-138.45"/>
<polygon fill="midnightblue" stroke="midnightblue" points="2048.04,-134.95 2037.8,-137.67 2047.5,-141.93 2048.04,-134.95"/>
</g>
<!-- Node19 -->
<g id="node14" class="node">
<title>Node19</title>
<g id="a_node14"><a xlink:href="../../dd/d5f/serializer_8h.html" target="_top" xlink:title=" ">
<polygon fill="none" stroke="red" points="2268.65,-185 2268.65,-204 2381.65,-204 2381.65,-185 2268.65,-185"/>
<text text-anchor="middle" x="2325.15" y="-192" font-family="Helvetica,sans-Serif" font-size="10.00">includes/serializer.h</text>
</a>
</g>
</g>
<!-- Node3&#45;&gt;Node19 -->
<g id="edge20" class="edge">
<title>Node3&#45;&gt;Node19</title>
<path fill="none" stroke="midnightblue" d="M2222.99,-765.94C2247.43,-758.32 2279.93,-745.06 2302.15,-724 2329.71,-697.89 2341.15,-685.97 2341.15,-648 2341.15,-648 2341.15,-648 2341.15,-517.5 2341.15,-396.83 2357.73,-365.38 2340.15,-246 2338.55,-235.09 2335.12,-223.25 2331.95,-213.78"/>
<polygon fill="midnightblue" stroke="midnightblue" points="2335.22,-212.53 2328.59,-204.27 2328.62,-214.86 2335.22,-212.53"/>
</g>
<!-- Node26 -->
<g id="node16" class="node">
<title>Node26</title>
<g id="a_node16"><a xlink:href="../../d1/d8c/logger_8h.html" target="_top" xlink:title=" ">
<polygon fill="none" stroke="red" points="2144.15,-123.5 2144.15,-142.5 2264.15,-142.5 2264.15,-123.5 2144.15,-123.5"/>
<text text-anchor="middle" x="2204.15" y="-130.5" font-family="Helvetica,sans-Serif" font-size="10.00">input_output/logger.h</text>
</a>
</g>
</g>
<!-- Node3&#45;&gt;Node26 -->
<g id="edge147" class="edge">
<title>Node3&#45;&gt;Node26</title>
<path fill="none" stroke="midnightblue" d="M2245.82,-766C2274.38,-759.05 2307.63,-746.52 2330.15,-724 2361.05,-693.11 2382.15,-536.16 2382.15,-519.5 2382.15,-519.5 2382.15,-519.5 2382.15,-456 2382.15,-332.82 2467.38,-275.75 2391.15,-179 2376.57,-160.49 2321.22,-148.71 2274.49,-141.87"/>
<polygon fill="midnightblue" stroke="midnightblue" points="2274.76,-138.37 2264.37,-140.44 2273.78,-145.3 2274.76,-138.37"/>
</g>
<!-- Node57 -->
<g id="node17" class="node">
<title>Node57</title>
<g id="a_node17"><a xlink:href="../../de/db8/process__info_8h.html" target="_top" xlink:title=" ">
<polygon fill="none" stroke="red" points="1236.65,-447.5 1236.65,-466.5 1367.65,-466.5 1367.65,-447.5 1236.65,-447.5"/>
<text text-anchor="middle" x="1302.15" y="-454.5" font-family="Helvetica,sans-Serif" font-size="10.00">includes/process_info.h</text>
</a>
</g>
</g>
<!-- Node3&#45;&gt;Node57 -->
<g id="edge30" class="edge">
<title>Node3&#45;&gt;Node57</title>
<path fill="none" stroke="midnightblue" d="M2126.63,-773.36C1959.1,-769.07 1505.22,-749.04 1393.15,-657 1335.05,-609.28 1312.39,-516.39 1305.11,-476.71"/>
<polygon fill="midnightblue" stroke="midnightblue" points="1308.55,-476.07 1303.41,-466.81 1301.65,-477.25 1308.55,-476.07"/>
</g>
<!-- Node58 -->
<g id="node18" class="node">
<title>Node58</title>
<g id="a_node18"><a xlink:href="../../d1/d82/data__value__container_8h.html" target="_top" xlink:title=" ">
<polygon fill="none" stroke="red" points="1462.65,-380.5 1462.65,-410.5 1587.65,-410.5 1587.65,-380.5 1462.65,-380.5"/>
<text text-anchor="start" x="1470.65" y="-398.5" font-family="Helvetica,sans-Serif" font-size="10.00">containers/data_value</text>
<text text-anchor="middle" x="1525.15" y="-387.5" font-family="Helvetica,sans-Serif" font-size="10.00">_container.h</text>
</a>
</g>
</g>
<!-- Node3&#45;&gt;Node58 -->
<g id="edge53" class="edge">
<title>Node3&#45;&gt;Node58</title>
<path fill="none" stroke="midnightblue" d="M2184.64,-765.87C2174.58,-745.79 2151.15,-694.09 2151.15,-648 2151.15,-648 2151.15,-648 2151.15,-517.5 2151.15,-485.05 2157.07,-467.79 2132.15,-447 2091.92,-413.44 1750.15,-401.57 1597.86,-397.93"/>
<polygon fill="midnightblue" stroke="midnightblue" points="1597.75,-394.42 1587.67,-397.69 1597.59,-401.42 1597.75,-394.42"/>
</g>
<!-- Node59 -->
<g id="node19" class="node">
<title>Node59</title>
<g id="a_node19"><a xlink:href="../../da/d89/variable_8h.html" target="_top" xlink:title=" ">
<polygon fill="none" stroke="red" points="2540.65,-319 2540.65,-338 2659.65,-338 2659.65,-319 2540.65,-319"/>
<text text-anchor="middle" x="2600.15" y="-326" font-family="Helvetica,sans-Serif" font-size="10.00">containers/variable.h</text>
</a>
</g>
</g>
<!-- Node3&#45;&gt;Node59 -->
<g id="edge151" class="edge">
<title>Node3&#45;&gt;Node59</title>
<path fill="none" stroke="midnightblue" d="M2251.89,-771.74C2337.72,-766.88 2486.14,-754.27 2530.15,-724 2550.12,-710.27 2631.01,-557.44 2637.15,-534 2654.98,-466.02 2624.26,-383.11 2608.55,-347.33"/>
<polygon fill="midnightblue" stroke="midnightblue" points="2611.71,-345.84 2604.39,-338.18 2605.34,-348.73 2611.71,-345.84"/>
</g>
<!-- Node73 -->
<g id="node20" class="node">
<title>Node73</title>
<g id="a_node20"><a xlink:href="../../d3/dc3/variable__data_8h.html" target="_top" xlink:title=" ">
<polygon fill="none" stroke="red" points="2443.15,-252 2443.15,-271 2535.15,-271 2535.15,-252 2443.15,-252"/>
<text text-anchor="middle" x="2489.15" y="-259" font-family="Helvetica,sans-Serif" font-size="10.00">variable_data.h</text>
</a>
</g>
</g>
<!-- Node3&#45;&gt;Node73 -->
<g id="edge152" class="edge">
<title>Node3&#45;&gt;Node73</title>
<path fill="none" stroke="midnightblue" d="M2251.69,-766.64C2304.38,-758.69 2374.14,-744.62 2393.15,-724 2518.61,-587.93 2398.18,-487.39 2460.15,-313 2464.32,-301.28 2471.17,-289.17 2477.17,-279.74"/>
<polygon fill="midnightblue" stroke="midnightblue" points="2480.15,-281.59 2482.76,-271.33 2474.31,-277.72 2480.15,-281.59"/>
</g>
<!-- Node82 -->
<g id="node21" class="node">
<title>Node82</title>
<g id="a_node21"><a xlink:href="../../d8/d3b/mesh_8h.html" target="_top" xlink:title=" ">
<polygon fill="none" stroke="red" points="628.15,-576 628.15,-595 724.15,-595 724.15,-576 628.15,-576"/>
<text text-anchor="middle" x="676.15" y="-583" font-family="Helvetica,sans-Serif" font-size="10.00">includes/mesh.h</text>
</a>
</g>
</g>
<!-- Node3&#45;&gt;Node82 -->
<g id="edge54" class="edge">
<title>Node3&#45;&gt;Node82</title>
<path fill="none" stroke="midnightblue" d="M2126.44,-774.76C1870.41,-775.49 912.11,-774.76 787.15,-724 733.02,-702.01 697.99,-636.62 683.61,-604.59"/>
<polygon fill="midnightblue" stroke="midnightblue" points="686.7,-602.92 679.52,-595.12 680.27,-605.69 686.7,-602.92"/>
</g>
<!-- Node86 -->
<g id="node22" class="node">
<title>Node86</title>
<g id="a_node22"><a xlink:href="../../d2/d58/pointer__vector__map_8h.html" target="_top" xlink:title=" ">
<polygon fill="none" stroke="red" points="428.65,-246.5 428.65,-276.5 533.65,-276.5 533.65,-246.5 428.65,-246.5"/>
<text text-anchor="start" x="436.65" y="-264.5" font-family="Helvetica,sans-Serif" font-size="10.00">containers/pointer</text>
<text text-anchor="middle" x="481.15" y="-253.5" font-family="Helvetica,sans-Serif" font-size="10.00">_vector_map.h</text>
</a>
</g>
</g>
<!-- Node3&#45;&gt;Node86 -->
<g id="edge145" class="edge">
<title>Node3&#45;&gt;Node86</title>
<path fill="none" stroke="midnightblue" d="M2126.44,-774.15C1822.2,-772.29 511.47,-762.08 434.15,-724 395.05,-704.74 372.15,-691.59 372.15,-648 372.15,-648 372.15,-648 372.15,-394.5 372.15,-345.53 417.31,-304.91 449.49,-282.18"/>
<polygon fill="midnightblue" stroke="midnightblue" points="451.49,-285.06 457.77,-276.53 447.54,-279.28 451.49,-285.06"/>
</g>
<!-- Node98 -->
<g id="node23" class="node">
<title>Node98</title>
<g id="a_node23"><a xlink:href="../../da/da4/master__slave__constraint_8h.html" target="_top" xlink:title=" ">
<polygon fill="none" stroke="red" points="2502.15,-503.5 2502.15,-533.5 2628.15,-533.5 2628.15,-503.5 2502.15,-503.5"/>
<text text-anchor="start" x="2510.15" y="-521.5" font-family="Helvetica,sans-Serif" font-size="10.00">includes/master_slave</text>
<text text-anchor="middle" x="2565.15" y="-510.5" font-family="Helvetica,sans-Serif" font-size="10.00">_constraint.h</text>
</a>
</g>
</g>
<!-- Node3&#45;&gt;Node98 -->
<g id="edge150" class="edge">
<title>Node3&#45;&gt;Node98</title>
<path fill="none" stroke="midnightblue" d="M2251.78,-772.37C2333.47,-768.31 2470.31,-756.7 2507.15,-724 2534.29,-699.91 2553.96,-592.18 2561.62,-543.51"/>
<polygon fill="midnightblue" stroke="midnightblue" points="2565.09,-543.96 2563.15,-533.54 2558.17,-542.89 2565.09,-543.96"/>
</g>
<!-- Node109 -->
<g id="node24" class="node">
<title>Node109</title>
<g id="a_node24"><a xlink:href="../../d3/dad/geometry__container_8h.html" target="_top" xlink:title=" ">
<polygon fill="none" stroke="black" points="2138.15,-313.5 2138.15,-343.5 2256.15,-343.5 2256.15,-313.5 2138.15,-313.5"/>
<text text-anchor="start" x="2146.15" y="-331.5" font-family="Helvetica,sans-Serif" font-size="10.00">containers/geometry</text>
<text text-anchor="middle" x="2197.15" y="-320.5" font-family="Helvetica,sans-Serif" font-size="10.00">_container.h</text>
</a>
</g>
</g>
<!-- Node3&#45;&gt;Node109 -->
<g id="edge72" class="edge">
<title>Node3&#45;&gt;Node109</title>
<path fill="none" stroke="midnightblue" d="M2215.17,-765.94C2235.33,-758.05 2262.54,-744.44 2279.15,-724 2301.5,-696.52 2303.15,-683.42 2303.15,-648 2303.15,-648 2303.15,-648 2303.15,-456 2303.15,-409.51 2260.58,-371.14 2229.39,-349.27"/>
<polygon fill="midnightblue" stroke="midnightblue" points="2231.18,-346.25 2220.94,-343.54 2227.26,-352.05 2231.18,-346.25"/>
</g>
<!-- Node110 -->
<g id="node25" class="node">
<title>Node110</title>
<g id="a_node25"><a xlink:href="../../da/d92/pointer__hash__map__set_8h.html" target="_top" xlink:title=" ">
<polygon fill="none" stroke="red" points="2091.65,-246.5 2091.65,-276.5 2196.65,-276.5 2196.65,-246.5 2091.65,-246.5"/>
<text text-anchor="start" x="2099.65" y="-264.5" font-family="Helvetica,sans-Serif" font-size="10.00">containers/pointer</text>
<text text-anchor="middle" x="2144.15" y="-253.5" font-family="Helvetica,sans-Serif" font-size="10.00">_hash_map_set.h</text>
</a>
</g>
</g>
<!-- Node3&#45;&gt;Node110 -->
<g id="edge146" class="edge">
<title>Node3&#45;&gt;Node110</title>
<path fill="none" stroke="midnightblue" d="M2199.09,-765.77C2219.69,-746.66 2265.15,-698.73 2265.15,-648 2265.15,-648 2265.15,-648 2265.15,-517.5 2265.15,-419.52 2161.12,-436.61 2129.15,-344 2122.62,-325.08 2127.62,-302.65 2133.54,-286.12"/>
<polygon fill="midnightblue" stroke="midnightblue" points="2136.86,-287.26 2137.26,-276.67 2130.34,-284.7 2136.86,-287.26"/>
</g>
<!-- Node3&#45;&gt;Node111 -->
<g id="edge78" class="edge">
<title>Node3&#45;&gt;Node111</title>
<path fill="none" stroke="midnightblue" d="M2150.83,-765.9C2050.93,-743.5 1782.71,-683.34 1672.96,-658.72"/>
<polygon fill="midnightblue" stroke="midnightblue" points="1673.68,-655.3 1663.16,-656.52 1672.15,-662.13 1673.68,-655.3"/>
</g>
<!-- Node114 -->
<g id="node29" class="node">
<title>Node114</title>
<g id="a_node29"><a xlink:href="../../dd/d98/table_8h.html" target="_top" xlink:title=" ">
<polygon fill="none" stroke="black" points="1949.15,-386 1949.15,-405 2043.15,-405 2043.15,-386 1949.15,-386"/>
<text text-anchor="middle" x="1996.15" y="-393" font-family="Helvetica,sans-Serif" font-size="10.00">includes/table.h</text>
</a>
</g>
</g>
<!-- Node3&#45;&gt;Node114 -->
<g id="edge144" class="edge">
<title>Node3&#45;&gt;Node114</title>
<path fill="none" stroke="midnightblue" d="M2193.66,-765.87C2203.73,-745.79 2227.15,-694.09 2227.15,-648 2227.15,-648 2227.15,-648 2227.15,-584.5 2227.15,-517.46 2215.6,-491.14 2165.15,-447 2134.21,-419.93 2089.25,-407.36 2053.48,-401.53"/>
<polygon fill="midnightblue" stroke="midnightblue" points="2053.58,-398.01 2043.17,-400 2052.55,-404.93 2053.58,-398.01"/>
</g>
<!-- Node129 -->
<g id="node40" class="node">
<title>Node129</title>
<g id="a_node40"><a xlink:href="../../d7/d6c/condition_8h.html" target="_top" xlink:title=" ">
<polygon fill="none" stroke="black" points="1402.15,-637.5 1402.15,-656.5 1516.15,-656.5 1516.15,-637.5 1402.15,-637.5"/>
<text text-anchor="middle" x="1459.15" y="-644.5" font-family="Helvetica,sans-Serif" font-size="10.00">includes/condition.h</text>
</a>
</g>
</g>
<!-- Node3&#45;&gt;Node129 -->
<g id="edge129" class="edge">
<title>Node3&#45;&gt;Node129</title>
<path fill="none" stroke="midnightblue" d="M2126.63,-766.69C2055.76,-757.58 1936.86,-741.52 1835.15,-724 1716.92,-703.64 1578.9,-674.3 1507.49,-658.7"/>
<polygon fill="midnightblue" stroke="midnightblue" points="1507.96,-655.22 1497.45,-656.5 1506.47,-662.06 1507.96,-655.22"/>
</g>
<!-- Node130 -->
<g id="node41" class="node">
<title>Node130</title>
<g id="a_node41"><a xlink:href="../../d8/d75/communicator_8h.html" target="_top" xlink:title=" ">
<polygon fill="none" stroke="black" points="796.65,-699 796.65,-718 935.65,-718 935.65,-699 796.65,-699"/>
<text text-anchor="middle" x="866.15" y="-706" font-family="Helvetica,sans-Serif" font-size="10.00">includes/communicator.h</text>
</a>
</g>
</g>
<!-- Node3&#45;&gt;Node130 -->
<g id="edge135" class="edge">
<title>Node3&#45;&gt;Node130</title>
<path fill="none" stroke="midnightblue" d="M2126.54,-771.62C1963.43,-764.1 1512.01,-743.1 1136.15,-724 1072.18,-720.75 999.69,-716.84 945.94,-713.91"/>
<polygon fill="midnightblue" stroke="midnightblue" points="945.97,-710.4 935.79,-713.35 945.59,-717.39 945.97,-710.4"/>
</g>
<!-- Node108 -->
<g id="node42" class="node">
<title>Node108</title>
<g id="a_node42"><a xlink:href="../../d0/dac/kratos__flags_8h.html" target="_top" xlink:title=" ">
<polygon fill="none" stroke="red" points="2597.15,-637.5 2597.15,-656.5 2725.15,-656.5 2725.15,-637.5 2597.15,-637.5"/>
<text text-anchor="middle" x="2661.15" y="-644.5" font-family="Helvetica,sans-Serif" font-size="10.00">includes/kratos_flags.h</text>
</a>
</g>
</g>
<!-- Node3&#45;&gt;Node108 -->
<g id="edge148" class="edge">
<title>Node3&#45;&gt;Node108</title>
<path fill="none" stroke="midnightblue" d="M2251.95,-771.29C2347.96,-765.57 2526.1,-751.56 2583.15,-724 2610.99,-710.56 2635.08,-683.28 2648.86,-665.33"/>
<polygon fill="midnightblue" stroke="midnightblue" points="2651.96,-667.03 2655.09,-656.91 2646.33,-662.87 2651.96,-667.03"/>
</g>
<!-- Node8&#45;&gt;Node6 -->
<g id="edge9" class="edge">
<title>Node8&#45;&gt;Node6</title>
<path fill="none" stroke="midnightblue" d="M1938.39,-128.06C1710.64,-110.02 770.19,-35.52 568.39,-19.53"/>
<polygon fill="midnightblue" stroke="midnightblue" points="568.52,-16.03 558.28,-18.73 567.97,-23.01 568.52,-16.03"/>
</g>
<!-- Node9 -->
<g id="node9" class="node">
<title>Node9</title>
<g id="a_node9"><a xlink:title=" ">
<polygon fill="none" stroke="#bfbfbf" points="1843.65,-6 1843.65,-25 1908.65,-25 1908.65,-6 1843.65,-6"/>
<text text-anchor="middle" x="1876.15" y="-13" font-family="Helvetica,sans-Serif" font-size="10.00">stdexcept</text>
</a>
</g>
</g>
<!-- Node8&#45;&gt;Node9 -->
<g id="edge8" class="edge">
<title>Node8&#45;&gt;Node9</title>
<path fill="none" stroke="midnightblue" d="M1979.73,-123.32C1961,-104 1915.65,-57.24 1891.65,-32.48"/>
<polygon fill="midnightblue" stroke="midnightblue" points="1894.14,-30.02 1884.67,-25.28 1889.12,-34.9 1894.14,-30.02"/>
</g>
<!-- Node10 -->
<g id="node10" class="node">
<title>Node10</title>
<g id="a_node10"><a xlink:href="../../dc/d25/kratos__export__api_8h.html" target="_top" xlink:title=" ">
<polygon fill="none" stroke="black" points="2030.15,-0.5 2030.15,-30.5 2158.15,-30.5 2158.15,-0.5 2030.15,-0.5"/>
<text text-anchor="start" x="2038.15" y="-18.5" font-family="Helvetica,sans-Serif" font-size="10.00">includes/kratos_export</text>
<text text-anchor="middle" x="2094.15" y="-7.5" font-family="Helvetica,sans-Serif" font-size="10.00">_api.h</text>
</a>
</g>
</g>
<!-- Node8&#45;&gt;Node10 -->
<g id="edge10" class="edge">
<title>Node8&#45;&gt;Node10</title>
<path fill="none" stroke="midnightblue" d="M1996.12,-123.32C2012.61,-105.35 2050.92,-63.61 2074.47,-37.95"/>
<polygon fill="midnightblue" stroke="midnightblue" points="2077.08,-40.28 2081.26,-30.55 2071.92,-35.55 2077.08,-40.28"/>
</g>
<!-- Node11 -->
<g id="node11" class="node">
<title>Node11</title>
<g id="a_node11"><a xlink:href="../../d9/dc0/smart__pointers_8h.html" target="_top" xlink:title=" ">
<polygon fill="none" stroke="red" points="1574.65,-67.5 1574.65,-86.5 1717.65,-86.5 1717.65,-67.5 1574.65,-67.5"/>
<text text-anchor="middle" x="1646.15" y="-74.5" font-family="Helvetica,sans-Serif" font-size="10.00">includes/smart_pointers.h</text>
</a>
</g>
</g>
<!-- Node8&#45;&gt;Node11 -->
<g id="edge11" class="edge">
<title>Node8&#45;&gt;Node11</title>
<path fill="none" stroke="midnightblue" d="M1938.42,-124.15C1878.07,-114.62 1776.19,-98.53 1710.07,-88.09"/>
<polygon fill="midnightblue" stroke="midnightblue" points="1710.6,-84.63 1700.18,-86.53 1709.51,-91.55 1710.6,-84.63"/>
</g>
<!-- Node15 -->
<g id="node12" class="node">
<title>Node15</title>
<g id="a_node12"><a xlink:href="../../dd/d2d/exception_8h.html" target="_top" xlink:title=" ">
<polygon fill="none" stroke="red" points="1774.65,-67.5 1774.65,-86.5 1891.65,-86.5 1891.65,-67.5 1774.65,-67.5"/>
<text text-anchor="middle" x="1833.15" y="-74.5" font-family="Helvetica,sans-Serif" font-size="10.00">includes/exception.h</text>
</a>
</g>
</g>
<!-- Node8&#45;&gt;Node15 -->
<g id="edge13" class="edge">
<title>Node8&#45;&gt;Node15</title>
<path fill="none" stroke="midnightblue" d="M1963.59,-123.44C1937.63,-114.4 1896.48,-100.06 1867.36,-89.92"/>
<polygon fill="midnightblue" stroke="midnightblue" points="1868.19,-86.5 1857.6,-86.52 1865.89,-93.11 1868.19,-86.5"/>
</g>
<!-- Node11&#45;&gt;Node5 -->
<g id="edge12" class="edge">
<title>Node11&#45;&gt;Node5</title>
<path fill="none" stroke="midnightblue" d="M1618.21,-67.48C1584.18,-57.09 1526.57,-39.51 1488.69,-27.95"/>
<polygon fill="midnightblue" stroke="midnightblue" points="1489.63,-24.58 1479.04,-25.01 1487.58,-31.28 1489.63,-24.58"/>
</g>
<!-- Node15&#45;&gt;Node4 -->
<g id="edge15" class="edge">
<title>Node15&#45;&gt;Node4</title>
<path fill="none" stroke="midnightblue" d="M1891.82,-69.08C1958.63,-60.97 2071,-46.64 2167.15,-31 2181.63,-28.65 2197.58,-25.66 2211.11,-23.01"/>
<polygon fill="midnightblue" stroke="midnightblue" points="2211.8,-26.45 2220.93,-21.07 2210.44,-19.58 2211.8,-26.45"/>
</g>
<!-- Node15&#45;&gt;Node5 -->
<g id="edge16" class="edge">
<title>Node15&#45;&gt;Node5</title>
<path fill="none" stroke="midnightblue" d="M1778.42,-67.48C1700.71,-55.37 1560.22,-33.49 1491.37,-22.76"/>
<polygon fill="midnightblue" stroke="midnightblue" points="1491.78,-19.29 1481.36,-21.2 1490.7,-26.2 1491.78,-19.29"/>
</g>
<!-- Node15&#45;&gt;Node6 -->
<g id="edge17" class="edge">
<title>Node15&#45;&gt;Node6</title>
<path fill="none" stroke="midnightblue" d="M1774.59,-70.58C1759.17,-69.27 1742.54,-67.98 1727.15,-67 1271.55,-38.06 717.31,-21.62 568.46,-17.52"/>
<polygon fill="midnightblue" stroke="midnightblue" points="568.54,-14.02 558.45,-17.25 568.35,-21.02 568.54,-14.02"/>
</g>
<!-- Node15&#45;&gt;Node9 -->
<g id="edge14" class="edge">
<title>Node15&#45;&gt;Node9</title>
<path fill="none" stroke="midnightblue" d="M1839.31,-67.48C1845.76,-58.55 1856.06,-44.31 1864.12,-33.14"/>
<polygon fill="midnightblue" stroke="midnightblue" points="1866.98,-35.16 1870,-25.01 1861.31,-31.06 1866.98,-35.16"/>
</g>
<!-- Node15&#45;&gt;Node10 -->
<g id="edge19" class="edge">
<title>Node15&#45;&gt;Node10</title>
<path fill="none" stroke="midnightblue" d="M1870.55,-67.48C1910.11,-58.46 1973.49,-44.01 2022.69,-32.79"/>
<polygon fill="midnightblue" stroke="midnightblue" points="2023.67,-36.16 2032.64,-30.52 2022.11,-29.33 2023.67,-36.16"/>
</g>
<!-- Node16 -->
<g id="node13" class="node">
<title>Node16</title>
<g id="a_node13"><a xlink:title=" ">
<polygon fill="none" stroke="#bfbfbf" points="300.65,-6 300.65,-25 347.65,-25 347.65,-6 300.65,-6"/>
<text text-anchor="middle" x="324.15" y="-13" font-family="Helvetica,sans-Serif" font-size="10.00">vector</text>
</a>
</g>
</g>
<!-- Node15&#45;&gt;Node16 -->
<g id="edge18" class="edge">
<title>Node15&#45;&gt;Node16</title>
<path fill="none" stroke="midnightblue" d="M1774.6,-70.44C1759.18,-69.14 1742.55,-67.88 1727.15,-67 1179.36,-35.78 1040.93,-62.46 493.15,-31 446.33,-28.31 392.36,-23.36 358.25,-19.99"/>
<polygon fill="midnightblue" stroke="midnightblue" points="358.21,-16.47 347.91,-18.96 357.52,-23.44 358.21,-16.47"/>
</g>
<!-- Node19&#45;&gt;Node4 -->
<g id="edge22" class="edge">
<title>Node19&#45;&gt;Node4</title>
<path fill="none" stroke="midnightblue" d="M2331.81,-184.79C2338.7,-175.17 2349.04,-158.92 2353.15,-143 2361.99,-108.83 2353.35,-93.59 2330.15,-67 2315.17,-49.82 2292.84,-37.03 2274.56,-28.62"/>
<polygon fill="midnightblue" stroke="midnightblue" points="2275.73,-25.31 2265.16,-24.51 2272.92,-31.72 2275.73,-25.31"/>
</g>
<!-- Node19&#45;&gt;Node5 -->
<g id="edge24" class="edge">
<title>Node19&#45;&gt;Node5</title>
<path fill="none" stroke="midnightblue" d="M2289.16,-184.95C2250.75,-175.58 2188.23,-159.67 2135.15,-143 2110.34,-135.21 2105.47,-128.97 2080.15,-123 1943.43,-90.78 1900.59,-127.71 1766.15,-87 1747.51,-81.36 1745.6,-73.26 1727.15,-67 1645.91,-39.41 1545.79,-25.88 1491.25,-20.12"/>
<polygon fill="midnightblue" stroke="midnightblue" points="1491.59,-16.64 1481.28,-19.1 1490.88,-23.6 1491.59,-16.64"/>
</g>
<!-- Node19&#45;&gt;Node6 -->
<g id="edge23" class="edge">
<title>Node19&#45;&gt;Node6</title>
<path fill="none" stroke="midnightblue" d="M2282.93,-184.99C2214.12,-171.09 2084.89,-144.86 2080.15,-143 2064.19,-136.73 2063.49,-128.22 2047.15,-123 2044.66,-122.2 1296.77,-67.18 1294.15,-67 1015.72,-47.44 680.05,-25.99 568.36,-18.91"/>
<polygon fill="midnightblue" stroke="midnightblue" points="568.46,-15.41 558.25,-18.27 568.01,-22.4 568.46,-15.41"/>
</g>
<!-- Node19&#45;&gt;Node8 -->
<g id="edge25" class="edge">
<title>Node19&#45;&gt;Node8</title>
<path fill="none" stroke="midnightblue" d="M2284.65,-184.98C2274.69,-182.96 2264.05,-180.85 2254.15,-179 2183.43,-165.8 2101.82,-152.24 2047.84,-143.5"/>
<polygon fill="midnightblue" stroke="midnightblue" points="2048.19,-140.02 2037.76,-141.88 2047.07,-146.93 2048.19,-140.02"/>
</g>
<!-- Node20 -->
<g id="node15" class="node">
<title>Node20</title>
<g id="a_node15"><a xlink:title=" ">
<polygon fill="none" stroke="#bfbfbf" points="2306.15,-123.5 2306.15,-142.5 2344.15,-142.5 2344.15,-123.5 2306.15,-123.5"/>
<text text-anchor="middle" x="2325.15" y="-130.5" font-family="Helvetica,sans-Serif" font-size="10.00">map</text>
</a>
</g>
</g>
<!-- Node19&#45;&gt;Node20 -->
<g id="edge21" class="edge">
<title>Node19&#45;&gt;Node20</title>
<path fill="none" stroke="midnightblue" d="M2325.15,-184.98C2325.15,-176.58 2325.15,-163.48 2325.15,-152.66"/>
<polygon fill="midnightblue" stroke="midnightblue" points="2328.65,-152.51 2325.15,-142.51 2321.65,-152.51 2328.65,-152.51"/>
</g>
<!-- Node19&#45;&gt;Node26 -->
<g id="edge26" class="edge">
<title>Node19&#45;&gt;Node26</title>
<path fill="none" stroke="midnightblue" d="M2307.82,-184.98C2287.6,-175.03 2253.97,-158.49 2230.51,-146.96"/>
<polygon fill="midnightblue" stroke="midnightblue" points="2231.97,-143.78 2221.46,-142.51 2228.89,-150.06 2231.97,-143.78"/>
</g>
<!-- Node26&#45;&gt;Node4 -->
<g id="edge27" class="edge">
<title>Node26&#45;&gt;Node4</title>
<path fill="none" stroke="midnightblue" d="M2257.47,-123.43C2278.81,-117.1 2301.33,-106.1 2314.15,-87 2329.42,-64.26 2298.96,-42.8 2273.3,-29.66"/>
<polygon fill="midnightblue" stroke="midnightblue" points="2274.68,-26.44 2264.16,-25.2 2271.62,-32.73 2274.68,-26.44"/>
</g>
<!-- Node26&#45;&gt;Node5 -->
<g id="edge28" class="edge">
<title>Node26&#45;&gt;Node5</title>
<path fill="none" stroke="midnightblue" d="M2169.83,-123.47C2113.88,-109.82 1999.39,-83.01 1901.15,-67 1750.78,-42.5 1570.19,-26.15 1491.31,-19.66"/>
<polygon fill="midnightblue" stroke="midnightblue" points="1491.56,-16.16 1481.31,-18.84 1490.99,-23.14 1491.56,-16.16"/>
</g>
<!-- Node26&#45;&gt;Node15 -->
<g id="edge29" class="edge">
<title>Node26&#45;&gt;Node15</title>
<path fill="none" stroke="midnightblue" d="M2145.37,-123.44C2079.15,-113.81 1971.68,-98.16 1901.71,-87.98"/>
<polygon fill="midnightblue" stroke="midnightblue" points="1902.06,-84.49 1891.66,-86.52 1901.05,-91.42 1902.06,-84.49"/>
</g>
<!-- Node57&#45;&gt;Node4 -->
<g id="edge31" class="edge">
<title>Node57&#45;&gt;Node4</title>
<path fill="none" stroke="midnightblue" d="M1312.34,-447.45C1322.09,-438.9 1336.8,-425.06 1347.15,-411 1416.23,-317.19 1385.24,-259.81 1469.15,-179 1510.68,-139.01 1530.75,-138.94 1586.15,-123 1721.57,-84.04 1762.89,-114.19 1901.15,-87 1933.32,-80.67 1940.22,-74.43 1972.15,-67 2057.99,-47.03 2080.53,-47.26 2167.15,-31 2181.57,-28.29 2197.51,-25.26 2211.05,-22.67"/>
<polygon fill="midnightblue" stroke="midnightblue" points="2211.72,-26.11 2220.88,-20.79 2210.4,-19.23 2211.72,-26.11"/>
</g>
<!-- Node57&#45;&gt;Node5 -->
<g id="edge32" class="edge">
<title>Node57&#45;&gt;Node5</title>
<path fill="none" stroke="midnightblue" d="M1307.06,-447.44C1321.16,-422.31 1361.59,-346.16 1375.15,-277 1377.8,-263.48 1381.12,-258.42 1375.15,-246 1364.06,-222.92 1343.59,-231.81 1330.15,-210 1296.27,-155 1266.62,-119.58 1304.15,-67 1328.16,-33.36 1376.06,-21.9 1410.67,-18.12"/>
<polygon fill="midnightblue" stroke="midnightblue" points="1411.3,-21.57 1420.94,-17.17 1410.66,-14.6 1411.3,-21.57"/>
</g>
<!-- Node57&#45;&gt;Node6 -->
<g id="edge33" class="edge">
<title>Node57&#45;&gt;Node6</title>
<path fill="none" stroke="midnightblue" d="M1236.44,-450.27C1190.36,-444.5 1128.13,-433.13 1077.15,-411 841.77,-308.81 608.51,-92.46 546.25,-32.31"/>
<polygon fill="midnightblue" stroke="midnightblue" points="548.52,-29.64 538.92,-25.18 543.65,-34.66 548.52,-29.64"/>
</g>
<!-- Node57&#45;&gt;Node7 -->
<g id="edge34" class="edge">
<title>Node57&#45;&gt;Node7</title>
<path fill="none" stroke="midnightblue" d="M1257.47,-447.44C1181.74,-430.26 1030.19,-383.68 966.15,-277 959.06,-265.19 960.61,-258.61 966.15,-246 972.7,-231.1 986.05,-218.67 997.96,-209.87"/>
<polygon fill="midnightblue" stroke="midnightblue" points="1000.03,-212.69 1006.26,-204.12 996.04,-206.94 1000.03,-212.69"/>
</g>
<!-- Node57&#45;&gt;Node8 -->
<g id="edge35" class="edge">
<title>Node57&#45;&gt;Node8</title>
<path fill="none" stroke="midnightblue" d="M1367.87,-454.24C1429.11,-450.7 1522.02,-440.42 1597.15,-411 1761.52,-346.65 1922.03,-198.67 1972.16,-149.91"/>
<polygon fill="midnightblue" stroke="midnightblue" points="1974.8,-152.22 1979.49,-142.72 1969.9,-147.22 1974.8,-152.22"/>
</g>
<!-- Node57&#45;&gt;Node58 -->
<g id="edge36" class="edge">
<title>Node57&#45;&gt;Node58</title>
<path fill="none" stroke="midnightblue" d="M1334.1,-447.48C1367.55,-438.55 1420.93,-424.31 1462.77,-413.14"/>
<polygon fill="midnightblue" stroke="midnightblue" points="1463.84,-416.48 1472.6,-410.52 1462.03,-409.72 1463.84,-416.48"/>
</g>
<!-- Node58&#45;&gt;Node4 -->
<g id="edge37" class="edge">
<title>Node58&#45;&gt;Node4</title>
<path fill="none" stroke="midnightblue" d="M1521.04,-380.27C1510.38,-343.14 1482.4,-243.86 1478.15,-210 1476.44,-196.33 1469.49,-189.72 1478.15,-179 1513.25,-135.58 1918.4,-102.11 1972.15,-87 1994.4,-80.75 1998.13,-74.02 2020.15,-67 2055.52,-55.72 2158.24,-33.97 2211.02,-23.06"/>
<polygon fill="midnightblue" stroke="midnightblue" points="2211.78,-26.48 2220.87,-21.04 2210.37,-19.62 2211.78,-26.48"/>
</g>
<!-- Node58&#45;&gt;Node5 -->
<g id="edge38" class="edge">
<title>Node58&#45;&gt;Node5</title>
<path fill="none" stroke="midnightblue" d="M1516.48,-380.36C1498.64,-350.35 1458.31,-277.45 1444.15,-210 1430.94,-147.04 1441.39,-70.08 1447.51,-35.23"/>
<polygon fill="midnightblue" stroke="midnightblue" points="1451.01,-35.58 1449.38,-25.11 1444.12,-34.31 1451.01,-35.58"/>
</g>
<!-- Node58&#45;&gt;Node7 -->
<g id="edge39" class="edge">
<title>Node58&#45;&gt;Node7</title>
<path fill="none" stroke="midnightblue" d="M1497.62,-380.48C1459.94,-361.93 1389.71,-329.66 1326.15,-313 1263.55,-296.59 1084.49,-321.14 1037.15,-277 1020.13,-261.13 1018.21,-232.87 1019.12,-214.16"/>
<polygon fill="midnightblue" stroke="midnightblue" points="1022.61,-214.41 1019.91,-204.17 1015.63,-213.86 1022.61,-214.41"/>
</g>
<!-- Node58&#45;&gt;Node8 -->
<g id="edge41" class="edge">
<title>Node58&#45;&gt;Node8</title>
<path fill="none" stroke="midnightblue" d="M1550.05,-380.49C1630.73,-335.1 1884.38,-192.38 1964,-147.59"/>
<polygon fill="midnightblue" stroke="midnightblue" points="1965.82,-150.58 1972.82,-142.63 1962.39,-144.48 1965.82,-150.58"/>
</g>
<!-- Node58&#45;&gt;Node15 -->
<g id="edge52" class="edge">
<title>Node58&#45;&gt;Node15</title>
<path fill="none" stroke="midnightblue" d="M1534.34,-380.33C1540.49,-370.43 1548.48,-356.75 1554.15,-344 1585.53,-273.51 1556.55,-236.37 1608.15,-179 1653.39,-128.71 1728.47,-102.03 1779.34,-88.97"/>
<polygon fill="midnightblue" stroke="midnightblue" points="1780.31,-92.33 1789.18,-86.53 1778.63,-85.54 1780.31,-92.33"/>
</g>
<!-- Node58&#45;&gt;Node16 -->
<g id="edge40" class="edge">
<title>Node58&#45;&gt;Node16</title>
<path fill="none" stroke="midnightblue" d="M1505.46,-380.5C1478.93,-362.28 1429.64,-330.69 1383.15,-313 1310.16,-285.22 1281.64,-310.64 1211.15,-277 1191.48,-267.61 1190.31,-259.45 1173.15,-246 1163.41,-238.36 1095.24,-184.49 1084.15,-179 1042.98,-158.61 929.87,-133.52 885.15,-123 686.7,-76.33 445.08,-35.92 357.7,-21.82"/>
<polygon fill="midnightblue" stroke="midnightblue" points="358.25,-18.37 347.82,-20.24 357.14,-25.28 358.25,-18.37"/>
</g>
<!-- Node58&#45;&gt;Node59 -->
<g id="edge42" class="edge">
<title>Node58&#45;&gt;Node59</title>
<path fill="none" stroke="midnightblue" d="M1587.99,-390.7C1776.05,-379.33 2333.56,-345.62 2530.38,-333.72"/>
<polygon fill="midnightblue" stroke="midnightblue" points="2530.83,-337.2 2540.6,-333.1 2530.4,-330.21 2530.83,-337.2"/>
</g>
<!-- Node59&#45;&gt;Node4 -->
<g id="edge43" class="edge">
<title>Node59&#45;&gt;Node4</title>
<path fill="none" stroke="midnightblue" d="M2632.27,-318.9C2653.05,-311.48 2678.5,-298.49 2691.15,-277 2713.25,-239.47 2714.91,-215.5 2691.15,-179 2597.66,-35.37 2362.15,-17.78 2275.66,-16.3"/>
<polygon fill="midnightblue" stroke="midnightblue" points="2275.44,-12.8 2265.41,-16.19 2275.37,-19.8 2275.44,-12.8"/>
</g>
<!-- Node59&#45;&gt;Node5 -->
<g id="edge44" class="edge">
<title>Node59&#45;&gt;Node5</title>
<path fill="none" stroke="midnightblue" d="M2608.01,-318.8C2620.61,-303.75 2642.78,-271.98 2631.15,-246 2612.89,-205.2 2594.92,-201.25 2556.15,-179 2486.06,-138.77 2461.6,-142.44 2383.15,-123 2045.66,-39.38 1622.87,-21.16 1491.78,-17.42"/>
<polygon fill="midnightblue" stroke="midnightblue" points="1491.52,-13.91 1481.43,-17.13 1491.33,-20.91 1491.52,-13.91"/>
</g>
<!-- Node59&#45;&gt;Node8 -->
<g id="edge45" class="edge">
<title>Node59&#45;&gt;Node8</title>
<path fill="none" stroke="midnightblue" d="M2605.34,-318.77C2613.89,-303.13 2628.73,-269.73 2615.15,-246 2585.96,-194.99 2557.13,-196.9 2501.15,-179 2458.91,-165.5 2173.96,-145.89 2047.92,-137.76"/>
<polygon fill="midnightblue" stroke="midnightblue" points="2047.88,-134.25 2037.68,-137.1 2047.43,-141.23 2047.88,-134.25"/>
</g>
<!-- Node59&#45;&gt;Node73 -->
<g id="edge46" class="edge">
<title>Node59&#45;&gt;Node73</title>
<path fill="none" stroke="midnightblue" d="M2585.18,-318.73C2566.54,-307.82 2534.49,-289.05 2512.58,-276.22"/>
<polygon fill="midnightblue" stroke="midnightblue" points="2514.28,-273.16 2503.89,-271.13 2510.75,-279.2 2514.28,-273.16"/>
</g>
<!-- Node73&#45;&gt;Node4 -->
<g id="edge47" class="edge">
<title>Node73&#45;&gt;Node4</title>
<path fill="none" stroke="midnightblue" d="M2502.26,-251.89C2514.43,-243.04 2531.74,-228.03 2539.15,-210 2544.39,-197.26 2545.96,-190.98 2539.15,-179 2482.5,-79.3 2339.6,-37.09 2275.34,-22.72"/>
<polygon fill="midnightblue" stroke="midnightblue" points="2275.88,-19.25 2265.36,-20.57 2274.4,-26.1 2275.88,-19.25"/>
</g>
<!-- Node73&#45;&gt;Node5 -->
<g id="edge48" class="edge">
<title>Node73&#45;&gt;Node5</title>
<path fill="none" stroke="midnightblue" d="M2484.07,-251.82C2468.46,-226.16 2418.34,-150.73 2353.15,-123 2313.07,-105.95 2008.39,-72.24 1965.15,-67 1789.13,-45.66 1578.34,-27.16 1491.53,-19.84"/>
<polygon fill="midnightblue" stroke="midnightblue" points="1491.59,-16.33 1481.33,-18.98 1491,-23.31 1491.59,-16.33"/>
</g>
<!-- Node73&#45;&gt;Node7 -->
<g id="edge49" class="edge">
<title>Node73&#45;&gt;Node7</title>
<path fill="none" stroke="midnightblue" d="M2443.08,-258.02C2387.08,-255.03 2289.69,-249.92 2206.15,-246 1753.65,-224.77 1203.76,-202.73 1058.03,-196.96"/>
<polygon fill="midnightblue" stroke="midnightblue" points="1057.98,-193.45 1047.85,-196.55 1057.71,-200.45 1057.98,-193.45"/>
</g>
<!-- Node73&#45;&gt;Node8 -->
<g id="edge50" class="edge">
<title>Node73&#45;&gt;Node8</title>
<path fill="none" stroke="midnightblue" d="M2442.73,-255.73C2395.24,-249.61 2320.12,-236.45 2260.15,-210 2238.27,-200.35 2238.15,-188.41 2216.15,-179 2186.5,-166.31 2104.94,-151.92 2047.88,-142.9"/>
<polygon fill="midnightblue" stroke="midnightblue" points="2048.31,-139.42 2037.89,-141.33 2047.22,-146.34 2048.31,-139.42"/>
</g>
<!-- Node73&#45;&gt;Node19 -->
<g id="edge51" class="edge">
<title>Node73&#45;&gt;Node19</title>
<path fill="none" stroke="midnightblue" d="M2467.37,-251.87C2438.87,-240.57 2388.72,-220.7 2356.23,-207.82"/>
<polygon fill="midnightblue" stroke="midnightblue" points="2357.35,-204.49 2346.76,-204.06 2354.77,-211 2357.35,-204.49"/>
</g>
<!-- Node82&#45;&gt;Node4 -->
<g id="edge55" class="edge">
<title>Node82&#45;&gt;Node4</title>
<path fill="none" stroke="midnightblue" d="M666.22,-575.77C645.62,-556.66 600.15,-508.73 600.15,-458 600.15,-458 600.15,-458 600.15,-394.5 600.15,-251.8 710.5,-242.77 838.15,-179 852.83,-171.67 1401.86,-68.95 1418.15,-67 1749.05,-27.3 1836.21,-70.33 2167.15,-31 2181.71,-29.27 2197.68,-26.38 2211.2,-23.63"/>
<polygon fill="midnightblue" stroke="midnightblue" points="2211.93,-27.05 2221,-21.58 2210.49,-20.2 2211.93,-27.05"/>
</g>
<!-- Node82&#45;&gt;Node5 -->
<g id="edge56" class="edge">
<title>Node82&#45;&gt;Node5</title>
<path fill="none" stroke="midnightblue" d="M650.13,-575.94C629.98,-568.05 602.77,-554.44 586.15,-534 563.81,-506.52 562.15,-493.42 562.15,-458 562.15,-458 562.15,-458 562.15,-327.5 562.15,-312.87 683.18,-147.79 718.15,-123 831.4,-42.75 1274.89,-22.11 1411.12,-17.61"/>
<polygon fill="midnightblue" stroke="midnightblue" points="1411.25,-21.11 1421.13,-17.29 1411.03,-14.12 1411.25,-21.11"/>
</g>
<!-- Node82&#45;&gt;Node6 -->
<g id="edge57" class="edge">
<title>Node82&#45;&gt;Node6</title>
<path fill="none" stroke="midnightblue" d="M627.82,-578.17C595.56,-571.76 553.93,-559.04 525.15,-534 380.28,-407.91 372.76,-332.44 341.15,-143 339.69,-134.23 336.67,-130.67 341.15,-123 358.89,-92.65 451.22,-49.95 499.95,-29.03"/>
<polygon fill="midnightblue" stroke="midnightblue" points="501.53,-32.17 509.37,-25.03 498.8,-25.72 501.53,-32.17"/>
</g>
<!-- Node82&#45;&gt;Node7 -->
<g id="edge58" class="edge">
<title>Node82&#45;&gt;Node7</title>
<path fill="none" stroke="midnightblue" d="M679.28,-575.75C694.91,-533.18 768.72,-345.71 890.15,-246 917.67,-223.41 956.43,-210.16 984.65,-202.94"/>
<polygon fill="midnightblue" stroke="midnightblue" points="985.63,-206.3 994.53,-200.55 983.98,-199.5 985.63,-206.3"/>
</g>
<!-- Node82&#45;&gt;Node8 -->
<g id="edge59" class="edge">
<title>Node82&#45;&gt;Node8</title>
<path fill="none" stroke="midnightblue" d="M676.15,-575.91C676.15,-555.48 676.15,-502.36 676.15,-458 676.15,-458 676.15,-458 676.15,-394.5 676.15,-316.69 876.71,-198.08 952.15,-179 1046.61,-155.11 1722.08,-139.45 1928.43,-135.18"/>
<polygon fill="midnightblue" stroke="midnightblue" points="1928.55,-138.68 1938.48,-134.97 1928.41,-131.68 1928.55,-138.68"/>
</g>
<!-- Node82&#45;&gt;Node58 -->
<g id="edge67" class="edge">
<title>Node82&#45;&gt;Node58</title>
<path fill="none" stroke="midnightblue" d="M707.09,-575.92C790.64,-552.93 1028.05,-488.87 1228.15,-447 1304.25,-431.08 1392.12,-416.62 1452.42,-407.29"/>
<polygon fill="midnightblue" stroke="midnightblue" points="1453.25,-410.71 1462.6,-405.73 1452.19,-403.79 1453.25,-410.71"/>
</g>
<!-- Node82&#45;&gt;Node86 -->
<g id="edge60" class="edge">
<title>Node82&#45;&gt;Node86</title>
<path fill="none" stroke="midnightblue" d="M628.11,-576.11C601.26,-569.09 569.09,-556.45 548.15,-534 524,-508.09 524.15,-493.42 524.15,-458 524.15,-458 524.15,-458 524.15,-394.5 524.15,-354.75 506.3,-311.43 493.61,-285.64"/>
<polygon fill="midnightblue" stroke="midnightblue" points="496.69,-283.98 489.04,-276.66 490.45,-287.16 496.69,-283.98"/>
</g>
<!-- Node82&#45;&gt;Node98 -->
<g id="edge68" class="edge">
<title>Node82&#45;&gt;Node98</title>
<path fill="none" stroke="midnightblue" d="M724.27,-582.84C980.18,-574.04 2181.58,-532.7 2491.87,-522.02"/>
<polygon fill="midnightblue" stroke="midnightblue" points="2492.22,-525.51 2502.09,-521.67 2491.98,-518.52 2492.22,-525.51"/>
</g>
<!-- Node86&#45;&gt;Node4 -->
<g id="edge62" class="edge">
<title>Node86&#45;&gt;Node4</title>
<path fill="none" stroke="midnightblue" d="M532.91,-246.49C595.87,-229.63 705.47,-200.87 800.15,-179 1039.82,-123.65 1098.05,-97.35 1342.15,-67 1706.36,-21.72 1802.61,-73.5 2167.15,-31 2181.72,-29.3 2197.68,-26.41 2211.2,-23.66"/>
<polygon fill="midnightblue" stroke="midnightblue" points="2211.93,-27.08 2221,-21.61 2210.5,-20.23 2211.93,-27.08"/>
</g>
<!-- Node86&#45;&gt;Node5 -->
<g id="edge63" class="edge">
<title>Node86&#45;&gt;Node5</title>
<path fill="none" stroke="midnightblue" d="M525.36,-246.43C548.72,-237.86 577.22,-225.56 600.15,-210 679.62,-156.07 672.07,-100.3 762.15,-67 882.38,-22.55 1282.15,-17.12 1410.85,-16.54"/>
<polygon fill="midnightblue" stroke="midnightblue" points="1411.07,-20.04 1421.05,-16.5 1411.04,-13.04 1411.07,-20.04"/>
</g>
<!-- Node86&#45;&gt;Node6 -->
<g id="edge64" class="edge">
<title>Node86&#45;&gt;Node6</title>
<path fill="none" stroke="midnightblue" d="M484,-246.33C492.38,-204.61 516.95,-82.23 526.4,-35.2"/>
<polygon fill="midnightblue" stroke="midnightblue" points="529.87,-35.69 528.41,-25.2 523.01,-34.31 529.87,-35.69"/>
</g>
<!-- Node86&#45;&gt;Node7 -->
<g id="edge65" class="edge">
<title>Node86&#45;&gt;Node7</title>
<path fill="none" stroke="midnightblue" d="M533.92,-254.28C613.97,-244.82 770.9,-226.21 904.15,-210 930.93,-206.74 961.15,-202.99 984.17,-200.13"/>
<polygon fill="midnightblue" stroke="midnightblue" points="984.71,-203.59 994.2,-198.87 983.85,-196.64 984.71,-203.59"/>
</g>
<!-- Node86&#45;&gt;Node8 -->
<g id="edge66" class="edge">
<title>Node86&#45;&gt;Node8</title>
<path fill="none" stroke="midnightblue" d="M533.88,-250.75C588.5,-240.64 676.32,-224.32 752.15,-210 824.19,-196.4 841.33,-187.45 914.15,-179 1298.49,-134.42 1764.71,-132.53 1928.11,-133.43"/>
<polygon fill="midnightblue" stroke="midnightblue" points="1928.41,-136.93 1938.44,-133.49 1928.46,-129.93 1928.41,-136.93"/>
</g>
<!-- Node86&#45;&gt;Node16 -->
<g id="edge61" class="edge">
<title>Node86&#45;&gt;Node16</title>
<path fill="none" stroke="midnightblue" d="M428.61,-248.1C406.14,-240.44 381.21,-228.42 364.15,-210 318.53,-160.73 319.29,-73.67 322.17,-35.42"/>
<polygon fill="midnightblue" stroke="midnightblue" points="325.68,-35.49 323.09,-25.21 318.71,-34.86 325.68,-35.49"/>
</g>
<!-- Node98&#45;&gt;Node8 -->
<g id="edge69" class="edge">
<title>Node98&#45;&gt;Node8</title>
<path fill="none" stroke="midnightblue" d="M2557.43,-503.29C2539.81,-468.83 2500.53,-378.8 2532.15,-313 2543.25,-289.92 2566.06,-300.08 2577.15,-277 2583.12,-264.58 2584.52,-257.64 2577.15,-246 2557.17,-214.42 2532.75,-229.96 2501.15,-210 2482.72,-198.36 2483.32,-187.27 2463.15,-179 2425.59,-163.59 2167.02,-145.39 2047.94,-137.71"/>
<polygon fill="midnightblue" stroke="midnightblue" points="2048.1,-134.22 2037.9,-137.07 2047.65,-141.2 2048.1,-134.22"/>
</g>
<!-- Node98&#45;&gt;Node57 -->
<g id="edge71" class="edge">
<title>Node98&#45;&gt;Node57</title>
<path fill="none" stroke="midnightblue" d="M2502.09,-514.53C2290.65,-504.57 1607.3,-472.38 1377.98,-461.57"/>
<polygon fill="midnightblue" stroke="midnightblue" points="1377.89,-458.06 1367.74,-461.09 1377.56,-465.06 1377.89,-458.06"/>
</g>
<!-- Node98&#45;&gt;Node59 -->
<g id="edge70" class="edge">
<title>Node98&#45;&gt;Node59</title>
<path fill="none" stroke="midnightblue" d="M2567.78,-503.37C2574.01,-469.94 2589.64,-385.97 2596.65,-348.3"/>
<polygon fill="midnightblue" stroke="midnightblue" points="2600.14,-348.68 2598.53,-338.21 2593.26,-347.4 2600.14,-348.68"/>
</g>
<!-- Node109&#45;&gt;Node8 -->
<g id="edge73" class="edge">
<title>Node109&#45;&gt;Node8</title>
<path fill="none" stroke="midnightblue" d="M2203.07,-313.22C2209.1,-296.36 2216.26,-267.83 2206.15,-246 2178.04,-185.3 2102.24,-156.91 2047.93,-144.04"/>
<polygon fill="midnightblue" stroke="midnightblue" points="2048.57,-140.6 2038.05,-141.82 2047.04,-147.43 2048.57,-140.6"/>
</g>
<!-- Node109&#45;&gt;Node110 -->
<g id="edge74" class="edge">
<title>Node109&#45;&gt;Node110</title>
<path fill="none" stroke="midnightblue" d="M2185.65,-313.4C2178.78,-304.96 2169.89,-294.07 2162.11,-284.52"/>
<polygon fill="midnightblue" stroke="midnightblue" points="2164.66,-282.11 2155.63,-276.58 2159.24,-286.54 2164.66,-282.11"/>
</g>
<!-- Node110&#45;&gt;Node8 -->
<g id="edge76" class="edge">
<title>Node110&#45;&gt;Node8</title>
<path fill="none" stroke="midnightblue" d="M2140.31,-246.49C2134.71,-228.56 2122.69,-197.58 2102.15,-179 2084.43,-162.97 2060.32,-152.34 2038.84,-145.46"/>
<polygon fill="midnightblue" stroke="midnightblue" points="2039.77,-142.09 2029.18,-142.56 2037.75,-148.79 2039.77,-142.09"/>
</g>
<!-- Node110&#45;&gt;Node19 -->
<g id="edge77" class="edge">
<title>Node110&#45;&gt;Node19</title>
<path fill="none" stroke="midnightblue" d="M2183.43,-246.4C2215.75,-234.79 2261.07,-218.51 2291.68,-207.52"/>
<polygon fill="midnightblue" stroke="midnightblue" points="2293.24,-210.68 2301.46,-204.01 2290.87,-204.09 2293.24,-210.68"/>
</g>
<!-- Node78 -->
<g id="node26" class="node">
<title>Node78</title>
<g id="a_node26"><a xlink:title=" ">
<polygon fill="none" stroke="#bfbfbf" points="1486.65,-185 1486.65,-204 1555.65,-204 1555.65,-185 1486.65,-185"/>
<text text-anchor="middle" x="1521.15" y="-192" font-family="Helvetica,sans-Serif" font-size="10.00">type_traits</text>
</a>
</g>
</g>
<!-- Node110&#45;&gt;Node78 -->
<g id="edge75" class="edge">
<title>Node110&#45;&gt;Node78</title>
<path fill="none" stroke="midnightblue" d="M2091.62,-255.58C2000.07,-246.92 1805.37,-228.16 1641.15,-210 1616.19,-207.24 1588.34,-203.89 1565.76,-201.11"/>
<polygon fill="midnightblue" stroke="midnightblue" points="1566.14,-197.63 1555.79,-199.87 1565.28,-204.58 1566.14,-197.63"/>
</g>
<!-- Node111&#45;&gt;Node57 -->
<g id="edge92" class="edge">
<title>Node111&#45;&gt;Node57</title>
<path fill="none" stroke="midnightblue" d="M1610.43,-637.43C1559.25,-607.64 1388.73,-508.39 1325.77,-471.75"/>
<polygon fill="midnightblue" stroke="midnightblue" points="1327.36,-468.62 1316.96,-466.62 1323.84,-474.67 1327.36,-468.62"/>
</g>
<!-- Node112 -->
<g id="node28" class="node">
<title>Node112</title>
<g id="a_node28"><a xlink:href="../../d8/dbb/properties_8h.html" target="_top" xlink:title=" ">
<polygon fill="none" stroke="red" points="1491.65,-509 1491.65,-528 1610.65,-528 1610.65,-509 1491.65,-509"/>
<text text-anchor="middle" x="1551.15" y="-516" font-family="Helvetica,sans-Serif" font-size="10.00">includes/properties.h</text>
</a>
</g>
</g>
<!-- Node111&#45;&gt;Node112 -->
<g id="edge79" class="edge">
<title>Node111&#45;&gt;Node112</title>
<path fill="none" stroke="midnightblue" d="M1618.39,-637.29C1611.64,-628.4 1601.13,-614.1 1593.15,-601 1580.26,-579.83 1567.52,-554.27 1559.51,-537.48"/>
<polygon fill="midnightblue" stroke="midnightblue" points="1562.6,-535.84 1555.17,-528.29 1556.27,-538.82 1562.6,-535.84"/>
</g>
<!-- Node115 -->
<g id="node30" class="node">
<title>Node115</title>
<g id="a_node30"><a xlink:href="../../d5/d6d/geometrical__object_8h.html" target="_top" xlink:title=" ">
<polygon fill="none" stroke="red" points="1985.65,-570.5 1985.65,-600.5 2104.65,-600.5 2104.65,-570.5 1985.65,-570.5"/>
<text text-anchor="start" x="1993.65" y="-588.5" font-family="Helvetica,sans-Serif" font-size="10.00">includes/geometrical</text>
<text text-anchor="middle" x="2045.15" y="-577.5" font-family="Helvetica,sans-Serif" font-size="10.00">_object.h</text>
</a>
</g>
</g>
<!-- Node111&#45;&gt;Node115 -->
<g id="edge93" class="edge">
<title>Node111&#45;&gt;Node115</title>
<path fill="none" stroke="midnightblue" d="M1680.49,-638.16C1756.4,-627.41 1892.81,-608.08 1975.56,-596.36"/>
<polygon fill="midnightblue" stroke="midnightblue" points="1976.21,-599.8 1985.62,-594.93 1975.23,-592.87 1976.21,-599.8"/>
</g>
<!-- Node116 -->
<g id="node31" class="node">
<title>Node116</title>
<g id="a_node31"><a xlink:href="../../d6/ddf/constitutive__law_8h.html" target="_top" xlink:title=" ">
<polygon fill="none" stroke="red" points="1602.15,-570.5 1602.15,-600.5 1720.15,-600.5 1720.15,-570.5 1602.15,-570.5"/>
<text text-anchor="start" x="1610.15" y="-588.5" font-family="Helvetica,sans-Serif" font-size="10.00">includes/constitutive</text>
<text text-anchor="middle" x="1661.15" y="-577.5" font-family="Helvetica,sans-Serif" font-size="10.00">_law.h</text>
</a>
</g>
</g>
<!-- Node111&#45;&gt;Node116 -->
<g id="edge95" class="edge">
<title>Node111&#45;&gt;Node116</title>
<path fill="none" stroke="midnightblue" d="M1630.31,-637.48C1634.78,-630.09 1641.44,-619.08 1647.44,-609.17"/>
<polygon fill="midnightblue" stroke="midnightblue" points="1650.49,-610.89 1652.67,-600.52 1644.5,-607.27 1650.49,-610.89"/>
</g>
<!-- Node105 -->
<g id="node34" class="node">
<title>Node105</title>
<g id="a_node34"><a xlink:href="../../de/d44/global__pointers__vector_8h.html" target="_top" xlink:title=" ">
<polygon fill="none" stroke="red" points="1220.15,-246.5 1220.15,-276.5 1366.15,-276.5 1366.15,-246.5 1220.15,-246.5"/>
<text text-anchor="start" x="1228.15" y="-264.5" font-family="Helvetica,sans-Serif" font-size="10.00">containers/global_pointers</text>
<text text-anchor="middle" x="1293.15" y="-253.5" font-family="Helvetica,sans-Serif" font-size="10.00">_vector.h</text>
</a>
</g>
</g>
<!-- Node111&#45;&gt;Node105 -->
<g id="edge128" class="edge">
<title>Node111&#45;&gt;Node105</title>
<path fill="none" stroke="midnightblue" d="M1569.95,-640.19C1479.43,-627.33 1302.11,-587.27 1228.15,-467 1191.23,-406.96 1244.38,-323.97 1274.64,-284.75"/>
<polygon fill="midnightblue" stroke="midnightblue" points="1277.6,-286.64 1281.06,-276.63 1272.11,-282.3 1277.6,-286.64"/>
</g>
<!-- Node111&#45;&gt;Node125 -->
<g id="edge127" class="edge">
<title>Node111&#45;&gt;Node125</title>
<path fill="none" stroke="midnightblue" d="M1680.34,-643.19C1727.41,-638.9 1795.75,-628.12 1849.15,-601 1880.6,-585.03 1909.17,-554.82 1925.05,-536.01"/>
<polygon fill="midnightblue" stroke="midnightblue" points="1927.97,-537.98 1931.61,-528.03 1922.56,-533.53 1927.97,-537.98"/>
</g>
<!-- Node112&#45;&gt;Node4 -->
<g id="edge80" class="edge">
<title>Node112&#45;&gt;Node4</title>
<path fill="none" stroke="midnightblue" d="M1555.64,-508.91C1564.76,-491.12 1585.58,-448.74 1597.15,-411 1627.92,-310.66 1570.44,-256.55 1641.15,-179 1755.03,-54.1 1851.05,-144.04 2010.15,-87 2028.12,-80.56 2030.35,-73.88 2048.15,-67 2103.73,-45.51 2171.7,-30.26 2210.95,-22.46"/>
<polygon fill="midnightblue" stroke="midnightblue" points="2211.85,-25.85 2220.99,-20.5 2210.51,-18.98 2211.85,-25.85"/>
</g>
<!-- Node112&#45;&gt;Node5 -->
<g id="edge81" class="edge">
<title>Node112&#45;&gt;Node5</title>
<path fill="none" stroke="midnightblue" d="M1539.24,-508.87C1517.8,-492.54 1473.15,-454.83 1454.15,-411 1403.1,-293.25 1429.72,-251.29 1433.15,-123 1433.82,-98.08 1431.91,-91.56 1436.15,-67 1438.03,-56.13 1441.47,-44.29 1444.58,-34.81"/>
<polygon fill="midnightblue" stroke="midnightblue" points="1447.91,-35.88 1447.85,-25.29 1441.29,-33.61 1447.91,-35.88"/>
</g>
<!-- Node112&#45;&gt;Node7 -->
<g id="edge82" class="edge">
<title>Node112&#45;&gt;Node7</title>
<path fill="none" stroke="midnightblue" d="M1527.28,-508.9C1500.85,-499.24 1457.12,-482.84 1420.15,-467 1417.31,-465.78 1019.8,-279.61 1018.15,-277 1006.17,-258.08 1010.14,-231.43 1014.92,-213.82"/>
<polygon fill="midnightblue" stroke="midnightblue" points="1018.29,-214.76 1017.87,-204.18 1011.6,-212.72 1018.29,-214.76"/>
</g>
<!-- Node112&#45;&gt;Node8 -->
<g id="edge83" class="edge">
<title>Node112&#45;&gt;Node8</title>
<path fill="none" stroke="midnightblue" d="M1565.21,-508.86C1618.68,-475.49 1812.71,-349.94 1938.15,-210 1954.56,-191.69 1969.51,-167.54 1978.7,-151.43"/>
<polygon fill="midnightblue" stroke="midnightblue" points="1981.83,-153 1983.64,-142.56 1975.71,-149.59 1981.83,-153"/>
</g>
<!-- Node112&#45;&gt;Node57 -->
<g id="edge85" class="edge">
<title>Node112&#45;&gt;Node57</title>
<path fill="none" stroke="midnightblue" d="M1515.48,-508.98C1471.29,-498.42 1395.94,-480.41 1347.64,-468.87"/>
<polygon fill="midnightblue" stroke="midnightblue" points="1348.3,-465.43 1337.76,-466.51 1346.67,-472.24 1348.3,-465.43"/>
</g>
<!-- Node112&#45;&gt;Node58 -->
<g id="edge84" class="edge">
<title>Node112&#45;&gt;Node58</title>
<path fill="none" stroke="midnightblue" d="M1549.28,-508.8C1545.36,-490.52 1536.13,-447.6 1530.29,-420.43"/>
<polygon fill="midnightblue" stroke="midnightblue" points="1533.69,-419.58 1528.17,-410.54 1526.85,-421.05 1533.69,-419.58"/>
</g>
<!-- Node112&#45;&gt;Node114 -->
<g id="edge86" class="edge">
<title>Node112&#45;&gt;Node114</title>
<path fill="none" stroke="midnightblue" d="M1576.39,-508.94C1617.96,-494.99 1703.56,-466.93 1777.15,-447 1834.1,-431.57 1900.19,-416.75 1944.74,-407.2"/>
<polygon fill="midnightblue" stroke="midnightblue" points="1945.7,-410.58 1954.75,-405.07 1944.24,-403.73 1945.7,-410.58"/>
</g>
<!-- Node114&#45;&gt;Node4 -->
<g id="edge87" class="edge">
<title>Node114&#45;&gt;Node4</title>
<path fill="none" stroke="midnightblue" d="M1989.41,-385.85C1961.9,-349.5 1862.82,-207.05 1930.15,-123 1975.99,-65.78 2021.72,-110.56 2091.15,-87 2137.68,-71.21 2188.98,-45.57 2218.5,-29.95"/>
<polygon fill="midnightblue" stroke="midnightblue" points="2220.47,-32.86 2227.64,-25.06 2217.17,-26.69 2220.47,-32.86"/>
</g>
<!-- Node114&#45;&gt;Node5 -->
<g id="edge88" class="edge">
<title>Node114&#45;&gt;Node5</title>
<path fill="none" stroke="midnightblue" d="M1985.19,-385.67C1973.37,-375.94 1954.21,-359.6 1939.15,-344 1873.16,-275.61 1880.17,-234.67 1803.15,-179 1711.58,-112.81 1667.39,-137.17 1566.15,-87 1556.79,-82.36 1504.55,-49.9 1473.8,-30.69"/>
<polygon fill="midnightblue" stroke="midnightblue" points="1475.35,-27.53 1465.02,-25.19 1471.64,-33.46 1475.35,-27.53"/>
</g>
<!-- Node114&#45;&gt;Node8 -->
<g id="edge90" class="edge">
<title>Node114&#45;&gt;Node8</title>
<path fill="none" stroke="midnightblue" d="M1996.15,-385.98C1996.31,-363 1998,-298 2011.15,-246 2018.63,-216.42 2036.63,-207.66 2026.15,-179 2022.1,-167.91 2013.96,-157.67 2006.26,-149.76"/>
<polygon fill="midnightblue" stroke="midnightblue" points="2008.51,-147.07 1998.87,-142.7 2003.68,-152.14 2008.51,-147.07"/>
</g>
<!-- Node114&#45;&gt;Node26 -->
<g id="edge89" class="edge">
<title>Node114&#45;&gt;Node26</title>
<path fill="none" stroke="midnightblue" d="M2000.07,-385.9C2011.12,-362.2 2044.22,-294.44 2083.15,-246 2114.43,-207.08 2159.26,-169.2 2184.66,-149.01"/>
<polygon fill="midnightblue" stroke="midnightblue" points="2187.07,-151.57 2192.77,-142.64 2182.75,-146.06 2187.07,-151.57"/>
</g>
<!-- Node114&#45;&gt;Node59 -->
<g id="edge91" class="edge">
<title>Node114&#45;&gt;Node59</title>
<path fill="none" stroke="midnightblue" d="M2043.3,-389.43C2149.02,-378.05 2405.51,-350.45 2530.02,-337.05"/>
<polygon fill="midnightblue" stroke="midnightblue" points="2530.63,-340.5 2540.2,-335.95 2529.88,-333.54 2530.63,-340.5"/>
</g>
<!-- Node115&#45;&gt;Node8 -->
<g id="edge94" class="edge">
<title>Node115&#45;&gt;Node8</title>
<path fill="none" stroke="midnightblue" d="M2063.99,-570.15C2092.1,-546.86 2140.85,-498.24 2132.15,-447 2124.04,-399.19 2111.82,-389.89 2096.15,-344 2071.18,-270.85 2084.43,-243.05 2041.15,-179 2033.13,-167.12 2021.14,-156.58 2010.6,-148.69"/>
<polygon fill="midnightblue" stroke="midnightblue" points="2012.38,-145.66 2002.2,-142.72 2008.32,-151.37 2012.38,-145.66"/>
</g>
<!-- Node116&#45;&gt;Node8 -->
<g id="edge96" class="edge">
<title>Node116&#45;&gt;Node8</title>
<path fill="none" stroke="midnightblue" d="M1675.97,-570.25C1724.09,-523.22 1877.74,-367.01 1963.15,-210 1973.09,-191.74 1979.95,-168.85 1983.94,-152.99"/>
<polygon fill="midnightblue" stroke="midnightblue" points="1987.44,-153.39 1986.34,-142.85 1980.63,-151.78 1987.44,-153.39"/>
</g>
<!-- Node116&#45;&gt;Node19 -->
<g id="edge97" class="edge">
<title>Node116&#45;&gt;Node19</title>
<path fill="none" stroke="midnightblue" d="M1696.15,-570.36C1717.36,-561.17 1744.59,-548.29 1767.15,-534 1785.57,-522.34 1787.89,-516.3 1805.15,-503 1838.67,-477.17 1843.49,-464.21 1882.15,-447 1952.71,-415.6 1978.49,-434.2 2052.15,-411 2085.77,-400.41 2091.77,-391.31 2125.15,-380 2186,-359.39 2216.82,-386.33 2265.15,-344 2304.46,-309.57 2318.39,-245.67 2323.02,-214.12"/>
<polygon fill="midnightblue" stroke="midnightblue" points="2326.51,-214.44 2324.33,-204.07 2319.57,-213.53 2326.51,-214.44"/>
</g>
<!-- Node116&#45;&gt;Node57 -->
<g id="edge119" class="edge">
<title>Node116&#45;&gt;Node57</title>
<path fill="none" stroke="midnightblue" d="M1602.04,-573C1566.5,-564.82 1520.99,-552.05 1483.15,-534 1461.56,-523.7 1460.53,-513.74 1439.15,-503 1409.86,-488.29 1374.7,-476.85 1347.33,-469.19"/>
<polygon fill="midnightblue" stroke="midnightblue" points="1348.2,-465.8 1337.63,-466.54 1346.35,-472.55 1348.2,-465.8"/>
</g>
<!-- Node116&#45;&gt;Node58 -->
<g id="edge126" class="edge">
<title>Node116&#45;&gt;Node58</title>
<path fill="none" stroke="midnightblue" d="M1655.38,-570.33C1648.25,-553.56 1635.21,-525.13 1620.15,-503 1598.41,-471.03 1567.87,-438.46 1547.34,-417.9"/>
<polygon fill="midnightblue" stroke="midnightblue" points="1549.57,-415.18 1540,-410.64 1544.65,-420.16 1549.57,-415.18"/>
</g>
<!-- Node116&#45;&gt;Node112 -->
<g id="edge112" class="edge">
<title>Node116&#45;&gt;Node112</title>
<path fill="none" stroke="midnightblue" d="M1637.28,-570.4C1618.58,-559.34 1592.72,-544.06 1574.22,-533.13"/>
<polygon fill="midnightblue" stroke="midnightblue" points="1575.94,-530.08 1565.55,-528.01 1572.38,-536.11 1575.94,-530.08"/>
</g>
<!-- Node117 -->
<g id="node32" class="node">
<title>Node117</title>
<g id="a_node32"><a xlink:href="../../de/dca/variables_8h.html" target="_top" xlink:title=" ">
<polygon fill="none" stroke="red" points="2743.15,-386 2743.15,-405 2857.15,-405 2857.15,-386 2743.15,-386"/>
<text text-anchor="middle" x="2800.15" y="-393" font-family="Helvetica,sans-Serif" font-size="10.00">includes/variables.h</text>
</a>
</g>
</g>
<!-- Node116&#45;&gt;Node117 -->
<g id="edge98" class="edge">
<title>Node116&#45;&gt;Node117</title>
<path fill="none" stroke="midnightblue" d="M1712.66,-570.47C1740.83,-561.82 1775.84,-549.42 1805.15,-534 1863.13,-503.5 1862.48,-469.12 1924.15,-447 1999.44,-419.99 2540.73,-403.31 2732.79,-398.19"/>
<polygon fill="midnightblue" stroke="midnightblue" points="2733.12,-401.68 2743.03,-397.92 2732.94,-394.68 2733.12,-401.68"/>
</g>
<!-- Node35 -->
<g id="node33" class="node">
<title>Node35</title>
<g id="a_node33"><a xlink:href="../../d9/d3e/ublas__interface_8h.html" target="_top" xlink:title=" ">
<polygon fill="none" stroke="red" points="1650.15,-185 1650.15,-204 1794.15,-204 1794.15,-185 1650.15,-185"/>
<text text-anchor="middle" x="1722.15" y="-192" font-family="Helvetica,sans-Serif" font-size="10.00">includes/ublas_interface.h</text>
</a>
</g>
</g>
<!-- Node116&#45;&gt;Node35 -->
<g id="edge120" class="edge">
<title>Node116&#45;&gt;Node35</title>
<path fill="none" stroke="midnightblue" d="M1663.4,-570.19C1672.76,-510.46 1708.75,-280.96 1719.26,-213.96"/>
<polygon fill="midnightblue" stroke="midnightblue" points="1722.72,-214.45 1720.81,-204.03 1715.81,-213.37 1722.72,-214.45"/>
</g>
<!-- Node116&#45;&gt;Node96 -->
<g id="edge113" class="edge">
<title>Node116&#45;&gt;Node96</title>
<path fill="none" stroke="midnightblue" d="M1601.86,-582.17C1512.35,-575.85 1341.19,-552.56 1228.15,-467 1162.33,-417.17 1124.45,-321.01 1110.9,-280.84"/>
<polygon fill="midnightblue" stroke="midnightblue" points="1114.14,-279.5 1107.72,-271.08 1107.49,-281.67 1114.14,-279.5"/>
</g>
<!-- Node116&#45;&gt;Node125 -->
<g id="edge121" class="edge">
<title>Node116&#45;&gt;Node125</title>
<path fill="none" stroke="midnightblue" d="M1720.24,-570.64C1771.45,-558.62 1844.56,-541.46 1891.69,-530.4"/>
<polygon fill="midnightblue" stroke="midnightblue" points="1892.69,-533.76 1901.62,-528.07 1891.09,-526.95 1892.69,-533.76"/>
</g>
<!-- Node117&#45;&gt;Node4 -->
<g id="edge99" class="edge">
<title>Node117&#45;&gt;Node4</title>
<path fill="none" stroke="midnightblue" d="M2822.63,-385.91C2840.97,-377.79 2866.21,-363.87 2881.15,-344 2926.38,-283.86 2963.23,-239.99 2919.15,-179 2841.43,-71.47 2398.67,-28.79 2275.15,-18.87"/>
<polygon fill="midnightblue" stroke="midnightblue" points="2275.42,-15.38 2265.18,-18.09 2274.87,-22.36 2275.42,-15.38"/>
</g>
<!-- Node117&#45;&gt;Node5 -->
<g id="edge100" class="edge">
<title>Node117&#45;&gt;Node5</title>
<path fill="none" stroke="midnightblue" d="M2802.02,-385.9C2808.56,-353.33 2826.85,-236.5 2767.15,-179 2725.78,-139.15 2567.35,-154.92 2511.15,-143 2479.5,-136.29 2472.59,-130.63 2441.15,-123 2318.25,-93.16 2287.48,-83.96 2162.15,-67 1908.48,-32.67 1600.52,-20.85 1491.64,-17.57"/>
<polygon fill="midnightblue" stroke="midnightblue" points="1491.54,-14.07 1481.44,-17.27 1491.33,-21.07 1491.54,-14.07"/>
</g>
<!-- Node117&#45;&gt;Node8 -->
<g id="edge101" class="edge">
<title>Node117&#45;&gt;Node8</title>
<path fill="none" stroke="midnightblue" d="M2797.84,-385.68C2787.96,-350.14 2745.53,-217.52 2653.15,-179 2646.2,-176.1 2210.28,-148.13 2048.08,-137.8"/>
<polygon fill="midnightblue" stroke="midnightblue" points="2048.01,-134.29 2037.8,-137.15 2047.56,-141.28 2048.01,-134.29"/>
</g>
<!-- Node117&#45;&gt;Node59 -->
<g id="edge102" class="edge">
<title>Node117&#45;&gt;Node59</title>
<path fill="none" stroke="midnightblue" d="M2773.59,-385.87C2738.23,-374.38 2675.56,-354.01 2636.02,-341.16"/>
<polygon fill="midnightblue" stroke="midnightblue" points="2637.09,-337.83 2626.5,-338.06 2634.93,-344.48 2637.09,-337.83"/>
</g>
<!-- Node117&#45;&gt;Node35 -->
<g id="edge103" class="edge">
<title>Node117&#45;&gt;Node35</title>
<path fill="none" stroke="midnightblue" d="M2789.74,-385.87C2768.54,-368.83 2718.21,-330.92 2669.15,-313 2656.95,-308.54 2219.05,-247.61 2206.15,-246 2065.26,-228.46 1900.78,-212.19 1804.39,-203.08"/>
<polygon fill="midnightblue" stroke="midnightblue" points="1804.7,-199.59 1794.41,-202.14 1804.04,-206.56 1804.7,-199.59"/>
</g>
<!-- Node117&#45;&gt;Node105 -->
<g id="edge107" class="edge">
<title>Node117&#45;&gt;Node105</title>
<path fill="none" stroke="midnightblue" d="M2743.12,-390.63C2627.33,-382.69 2356.4,-363.63 2129.15,-344 1853.27,-320.17 1526.7,-286.85 1376.43,-271.23"/>
<polygon fill="midnightblue" stroke="midnightblue" points="1376.66,-267.74 1366.35,-270.18 1375.93,-274.7 1376.66,-267.74"/>
</g>
<!-- Node35&#45;&gt;Node4 -->
<g id="edge104" class="edge">
<title>Node35&#45;&gt;Node4</title>
<path fill="none" stroke="midnightblue" d="M1740.6,-184.93C1772.01,-170.6 1838.08,-141.52 1896.15,-123 1962.29,-101.9 1981.62,-106.83 2048.15,-87 2107.21,-69.39 2174.49,-43.81 2212.58,-28.79"/>
<polygon fill="midnightblue" stroke="midnightblue" points="2214.06,-31.96 2222.07,-25.03 2211.48,-25.46 2214.06,-31.96"/>
</g>
<!-- Node35&#45;&gt;Node5 -->
<g id="edge105" class="edge">
<title>Node35&#45;&gt;Node5</title>
<path fill="none" stroke="midnightblue" d="M1704.14,-184.96C1669.51,-168.21 1591.82,-129.02 1532.15,-87 1508.27,-70.18 1483.28,-47.54 1467.48,-32.5"/>
<polygon fill="midnightblue" stroke="midnightblue" points="1469.74,-29.82 1460.11,-25.41 1464.89,-34.86 1469.74,-29.82"/>
</g>
<!-- Node35&#45;&gt;Node8 -->
<g id="edge106" class="edge">
<title>Node35&#45;&gt;Node8</title>
<path fill="none" stroke="midnightblue" d="M1760.26,-184.98C1807.67,-174.37 1888.64,-156.26 1940.21,-144.72"/>
<polygon fill="midnightblue" stroke="midnightblue" points="1941.12,-148.11 1950.11,-142.51 1939.59,-141.28 1941.12,-148.11"/>
</g>
<!-- Node105&#45;&gt;Node5 -->
<g id="edge109" class="edge">
<title>Node105&#45;&gt;Node5</title>
<path fill="none" stroke="midnightblue" d="M1283.51,-246.38C1261.26,-211.87 1211.4,-122.1 1254.15,-67 1273.19,-42.47 1359.06,-27.81 1410.94,-21.03"/>
<polygon fill="midnightblue" stroke="midnightblue" points="1411.66,-24.47 1421.14,-19.75 1410.78,-17.53 1411.66,-24.47"/>
</g>
<!-- Node105&#45;&gt;Node8 -->
<g id="edge110" class="edge">
<title>Node105&#45;&gt;Node8</title>
<path fill="none" stroke="midnightblue" d="M1317.94,-246.42C1352.58,-227.5 1417.99,-194.46 1478.15,-179 1637.01,-138.19 1831.83,-132.83 1928.24,-133.02"/>
<polygon fill="midnightblue" stroke="midnightblue" points="1928.36,-136.52 1938.38,-133.06 1928.39,-129.52 1928.36,-136.52"/>
</g>
<!-- Node105&#45;&gt;Node16 -->
<g id="edge108" class="edge">
<title>Node105&#45;&gt;Node16</title>
<path fill="none" stroke="midnightblue" d="M1267.68,-246.48C1235.7,-229.22 1178.9,-199.67 1128.15,-179 844.83,-63.61 470.86,-27.45 357.88,-18.8"/>
<polygon fill="midnightblue" stroke="midnightblue" points="358,-15.3 347.77,-18.05 357.48,-22.28 358,-15.3"/>
</g>
<!-- Node105&#45;&gt;Node19 -->
<g id="edge111" class="edge">
<title>Node105&#45;&gt;Node19</title>
<path fill="none" stroke="midnightblue" d="M1366.54,-255.88C1558.62,-243.78 2073.96,-211.32 2258.38,-199.71"/>
<polygon fill="midnightblue" stroke="midnightblue" points="2258.72,-203.19 2268.48,-199.07 2258.28,-196.21 2258.72,-203.19"/>
</g>
<!-- Node96&#45;&gt;Node2 -->
<g id="edge114" class="edge">
<title>Node96&#45;&gt;Node2</title>
<path fill="none" stroke="midnightblue" d="M1046.62,-260.75C882.33,-260.85 425.86,-256.88 379.15,-210 364.45,-195.25 365.95,-169.88 369.28,-152.54"/>
<polygon fill="midnightblue" stroke="midnightblue" points="372.75,-153.03 371.57,-142.5 365.93,-151.47 372.75,-153.03"/>
</g>
<!-- Node96&#45;&gt;Node26 -->
<g id="edge116" class="edge">
<title>Node96&#45;&gt;Node26</title>
<path fill="none" stroke="midnightblue" d="M1136.3,-251.99C1199.96,-234.99 1349.81,-196.89 1478.15,-179 1510.25,-174.53 1957.71,-148.29 2133.74,-138.07"/>
<polygon fill="midnightblue" stroke="midnightblue" points="2134.16,-141.55 2143.94,-137.48 2133.75,-134.57 2134.16,-141.55"/>
</g>
<!-- Node96&#45;&gt;Node78 -->
<g id="edge115" class="edge">
<title>Node96&#45;&gt;Node78</title>
<path fill="none" stroke="midnightblue" d="M1159.96,-251.94C1243.09,-238.95 1399.47,-214.51 1476.27,-202.51"/>
<polygon fill="midnightblue" stroke="midnightblue" points="1477.23,-205.91 1486.57,-200.9 1476.15,-198.99 1477.23,-205.91"/>
</g>
<!-- Node96&#45;&gt;Node35 -->
<g id="edge117" class="edge">
<title>Node96&#45;&gt;Node35</title>
<path fill="none" stroke="midnightblue" d="M1163.7,-252.09C1179.12,-249.99 1195.75,-247.81 1211.15,-246 1291.88,-236.49 1516.93,-214.9 1639.69,-203.27"/>
<polygon fill="midnightblue" stroke="midnightblue" points="1640.17,-206.74 1649.8,-202.31 1639.51,-199.77 1640.17,-206.74"/>
</g>
<!-- Node70 -->
<g id="node36" class="node">
<title>Node70</title>
<g id="a_node36"><a xlink:href="../../d5/dfb/global__variables_8h.html" target="_top" xlink:title=" ">
<polygon fill="none" stroke="black" points="727.65,-123.5 727.65,-142.5 876.65,-142.5 876.65,-123.5 727.65,-123.5"/>
<text text-anchor="middle" x="802.15" y="-130.5" font-family="Helvetica,sans-Serif" font-size="10.00">includes/global_variables.h</text>
</a>
</g>
</g>
<!-- Node96&#45;&gt;Node70 -->
<g id="edge118" class="edge">
<title>Node96&#45;&gt;Node70</title>
<path fill="none" stroke="midnightblue" d="M1102.65,-251.93C1097.22,-234.98 1082.68,-197.24 1056.15,-179 1029.09,-160.39 949.68,-148.34 886.78,-141.43"/>
<polygon fill="midnightblue" stroke="midnightblue" points="887.15,-137.95 876.83,-140.37 886.4,-144.91 887.15,-137.95"/>
</g>
<!-- Node125&#45;&gt;Node19 -->
<g id="edge124" class="edge">
<title>Node125&#45;&gt;Node19</title>
<path fill="none" stroke="midnightblue" d="M1932.24,-508.56C1923.4,-493.95 1909.26,-464.8 1924.15,-447 1982.39,-377.4 2037.77,-435.5 2125.15,-411 2204.54,-388.74 2245.63,-407.56 2298.15,-344 2329.23,-306.39 2329.38,-244.92 2327.16,-214.21"/>
<polygon fill="midnightblue" stroke="midnightblue" points="2330.63,-213.7 2326.25,-204.05 2323.65,-214.32 2330.63,-213.7"/>
</g>
<!-- Node125&#45;&gt;Node35 -->
<g id="edge125" class="edge">
<title>Node125&#45;&gt;Node35</title>
<path fill="none" stroke="midnightblue" d="M1929.64,-508.74C1920.06,-498.8 1904.17,-482.03 1891.15,-467 1845.22,-413.95 1829.37,-403.49 1792.15,-344 1764.4,-299.65 1740.46,-242.56 1729.13,-213.79"/>
<polygon fill="midnightblue" stroke="midnightblue" points="1732.31,-212.3 1725.42,-204.24 1725.78,-214.83 1732.31,-212.3"/>
</g>
<!-- Node126 -->
<g id="node38" class="node">
<title>Node126</title>
<g id="a_node38"><a xlink:title=" ">
<polygon fill="none" stroke="#bfbfbf" points="2055.15,-447.5 2055.15,-466.5 2123.15,-466.5 2123.15,-447.5 2055.15,-447.5"/>
<text text-anchor="middle" x="2089.15" y="-454.5" font-family="Helvetica,sans-Serif" font-size="10.00">filesystem</text>
</a>
</g>
</g>
<!-- Node125&#45;&gt;Node126 -->
<g id="edge122" class="edge">
<title>Node125&#45;&gt;Node126</title>
<path fill="none" stroke="midnightblue" d="M1959.79,-508.98C1985.58,-498.81 2028.86,-481.76 2058.19,-470.2"/>
<polygon fill="midnightblue" stroke="midnightblue" points="2059.54,-473.43 2067.56,-466.51 2056.97,-466.92 2059.54,-473.43"/>
</g>
<!-- Node127 -->
<g id="node39" class="node">
<title>Node127</title>
<g id="a_node39"><a xlink:title=" ">
<polygon fill="none" stroke="#bfbfbf" points="1933.15,-447.5 1933.15,-466.5 2037.15,-466.5 2037.15,-447.5 1933.15,-447.5"/>
<text text-anchor="middle" x="1985.15" y="-454.5" font-family="Helvetica,sans-Serif" font-size="10.00">json/json_fwd.hpp</text>
</a>
</g>
</g>
<!-- Node125&#45;&gt;Node127 -->
<g id="edge123" class="edge">
<title>Node125&#45;&gt;Node127</title>
<path fill="none" stroke="midnightblue" d="M1944.89,-508.98C1951.94,-500.05 1963.19,-485.81 1972.01,-474.64"/>
<polygon fill="midnightblue" stroke="midnightblue" points="1974.98,-476.53 1978.43,-466.51 1969.49,-472.19 1974.98,-476.53"/>
</g>
<!-- Node129&#45;&gt;Node57 -->
<g id="edge131" class="edge">
<title>Node129&#45;&gt;Node57</title>
<path fill="none" stroke="midnightblue" d="M1452,-637.43C1427.68,-608.32 1347.95,-512.84 1315.79,-474.32"/>
<polygon fill="midnightblue" stroke="midnightblue" points="1318.44,-472.05 1309.35,-466.62 1313.07,-476.54 1318.44,-472.05"/>
</g>
<!-- Node129&#45;&gt;Node112 -->
<g id="edge130" class="edge">
<title>Node129&#45;&gt;Node112</title>
<path fill="none" stroke="midnightblue" d="M1465.48,-637.31C1480.58,-616.54 1518.95,-563.77 1538.82,-536.46"/>
<polygon fill="midnightblue" stroke="midnightblue" points="1541.73,-538.4 1544.78,-528.26 1536.07,-534.28 1541.73,-538.4"/>
</g>
<!-- Node129&#45;&gt;Node115 -->
<g id="edge132" class="edge">
<title>Node129&#45;&gt;Node115</title>
<path fill="none" stroke="midnightblue" d="M1516.41,-640.19C1624.46,-629.22 1858.06,-605.5 1975.2,-593.6"/>
<polygon fill="midnightblue" stroke="midnightblue" points="1975.89,-597.05 1985.48,-592.56 1975.18,-590.09 1975.89,-597.05"/>
</g>
<!-- Node129&#45;&gt;Node105 -->
<g id="edge134" class="edge">
<title>Node129&#45;&gt;Node105</title>
<path fill="none" stroke="midnightblue" d="M1417.26,-637.44C1334.97,-619.43 1160.15,-574.67 1160.15,-519.5 1160.15,-519.5 1160.15,-519.5 1160.15,-394.5 1160.15,-341.64 1213.72,-302.71 1252.87,-281.32"/>
<polygon fill="midnightblue" stroke="midnightblue" points="1254.76,-284.28 1261.97,-276.51 1251.49,-278.09 1254.76,-284.28"/>
</g>
<!-- Node129&#45;&gt;Node125 -->
<g id="edge133" class="edge">
<title>Node129&#45;&gt;Node125</title>
<path fill="none" stroke="midnightblue" d="M1516.26,-639.96C1571.42,-633.31 1656.99,-620.85 1729.15,-601 1796.14,-582.57 1871.25,-550.25 1910.64,-532.35"/>
<polygon fill="midnightblue" stroke="midnightblue" points="1912.22,-535.47 1919.86,-528.13 1909.31,-529.11 1912.22,-535.47"/>
</g>
<!-- Node130&#45;&gt;Node4 -->
<g id="edge136" class="edge">
<title>Node130&#45;&gt;Node4</title>
<path fill="none" stroke="midnightblue" d="M863.48,-698.92C845.56,-639.66 749.28,-290.06 935.15,-179 965.72,-160.74 1530.8,-71.18 1566.15,-67 1831.89,-35.56 1901.62,-64.14 2167.15,-31 2181.7,-29.18 2197.67,-26.28 2211.19,-23.55"/>
<polygon fill="midnightblue" stroke="midnightblue" points="2211.91,-26.97 2220.99,-21.51 2210.49,-20.12 2211.91,-26.97"/>
</g>
<!-- Node130&#45;&gt;Node5 -->
<g id="edge137" class="edge">
<title>Node130&#45;&gt;Node5</title>
<path fill="none" stroke="midnightblue" d="M853.76,-698.98C841.69,-689.99 823.78,-674.68 814.15,-657 725.3,-493.86 650.69,-409.88 738.15,-246 804.53,-121.63 1269.94,-43.3 1410.83,-22.24"/>
<polygon fill="midnightblue" stroke="midnightblue" points="1411.41,-25.69 1420.79,-20.77 1410.39,-18.77 1411.41,-25.69"/>
</g>
<!-- Node130&#45;&gt;Node6 -->
<g id="edge138" class="edge">
<title>Node130&#45;&gt;Node6</title>
<path fill="none" stroke="midnightblue" d="M834.77,-698.96C803.4,-690 754.08,-674.77 713.15,-657 492.32,-561.14 383.16,-511.13 327.15,-277 304.76,-183.38 301.22,-122.09 380.15,-67 414.11,-43.3 460.06,-30.01 492.12,-23.08"/>
<polygon fill="midnightblue" stroke="midnightblue" points="492.92,-26.49 502.01,-21.04 491.51,-19.63 492.92,-26.49"/>
</g>
<!-- Node130&#45;&gt;Node7 -->
<g id="edge139" class="edge">
<title>Node130&#45;&gt;Node7</title>
<path fill="none" stroke="midnightblue" d="M876.4,-698.97C897.15,-680.68 942.15,-635.37 942.15,-586.5 942.15,-586.5 942.15,-586.5 942.15,-456 942.15,-362.4 914.47,-328.78 958.15,-246 966.34,-230.49 981.57,-218.08 995.01,-209.44"/>
<polygon fill="midnightblue" stroke="midnightblue" points="997.16,-212.23 1003.92,-204.07 993.54,-206.23 997.16,-212.23"/>
</g>
<!-- Node130&#45;&gt;Node8 -->
<g id="edge140" class="edge">
<title>Node130&#45;&gt;Node8</title>
<path fill="none" stroke="midnightblue" d="M866.15,-698.99C866.15,-679.24 866.15,-628.72 866.15,-586.5 866.15,-586.5 866.15,-586.5 866.15,-394.5 866.15,-285.09 890.06,-233.1 985.15,-179 1026.24,-155.62 1718.11,-139.55 1928.16,-135.19"/>
<polygon fill="midnightblue" stroke="midnightblue" points="1928.46,-138.68 1938.38,-134.98 1928.31,-131.69 1928.46,-138.68"/>
</g>
<!-- Node130&#45;&gt;Node82 -->
<g id="edge143" class="edge">
<title>Node130&#45;&gt;Node82</title>
<path fill="none" stroke="midnightblue" d="M832.48,-698.97C805.34,-691.03 767.08,-677.33 738.15,-657 717.2,-642.27 698.6,-619.06 687.37,-603.33"/>
<polygon fill="midnightblue" stroke="midnightblue" points="690.21,-601.28 681.65,-595.05 684.46,-605.27 690.21,-601.28"/>
</g>
<!-- Node130&#45;&gt;Node111 -->
<g id="edge142" class="edge">
<title>Node130&#45;&gt;Node111</title>
<path fill="none" stroke="midnightblue" d="M935.92,-702.46C1056.22,-693.7 1310.46,-674.89 1525.15,-657 1536.44,-656.06 1548.44,-655.02 1560.06,-653.98"/>
<polygon fill="midnightblue" stroke="midnightblue" points="1560.5,-657.46 1570.15,-653.08 1559.88,-650.49 1560.5,-657.46"/>
</g>
<!-- Node130&#45;&gt;Node129 -->
<g id="edge141" class="edge">
<title>Node130&#45;&gt;Node129</title>
<path fill="none" stroke="midnightblue" d="M935.92,-700.5C1050.82,-688.97 1278.39,-666.14 1391.73,-654.76"/>
<polygon fill="midnightblue" stroke="midnightblue" points="1392.41,-658.21 1402.01,-653.73 1391.71,-651.25 1392.41,-658.21"/>
</g>
<!-- Node108&#45;&gt;Node8 -->
<g id="edge149" class="edge">
<title>Node108&#45;&gt;Node8</title>
<path fill="none" stroke="midnightblue" d="M2667.77,-637.34C2682.19,-617.6 2715.15,-567.26 2715.15,-519.5 2715.15,-519.5 2715.15,-519.5 2715.15,-456 2715.15,-314.05 2686.67,-234.81 2556.15,-179 2533.08,-169.13 2189.7,-146.63 2048.3,-137.73"/>
<polygon fill="midnightblue" stroke="midnightblue" points="2048.28,-134.22 2038.08,-137.09 2047.84,-141.21 2048.28,-134.22"/>
</g>
<!-- Node131&#45;&gt;Node5 -->
<g id="edge157" class="edge">
<title>Node131&#45;&gt;Node5</title>
<path fill="none" stroke="midnightblue" d="M185.67,-256.8C277.32,-250.74 438.42,-236.63 490.15,-210 537.4,-185.68 532.38,-158.24 572.15,-123 603.56,-95.18 608.72,-81.34 648.15,-67 790.62,-15.17 1268.82,-14.93 1410.97,-16.05"/>
<polygon fill="midnightblue" stroke="midnightblue" points="1410.97,-19.55 1421,-16.14 1411.03,-12.55 1410.97,-19.55"/>
</g>
<!-- Node131&#45;&gt;Node16 -->
<g id="edge156" class="edge">
<title>Node131&#45;&gt;Node16</title>
<path fill="none" stroke="midnightblue" d="M125.89,-251.71C132.31,-241.74 142.89,-224.95 151.15,-210 172.01,-172.25 167.31,-156.76 194.15,-123 225.31,-83.81 273.11,-49.31 301.24,-30.82"/>
<polygon fill="midnightblue" stroke="midnightblue" points="303.47,-33.54 309.97,-25.17 299.67,-27.66 303.47,-33.54"/>
</g>
<!-- Node132 -->
<g id="node44" class="node">
<title>Node132</title>
<g id="a_node44"><a xlink:title=" ">
<polygon fill="none" stroke="#bfbfbf" points="30.15,-185 30.15,-204 80.15,-204 80.15,-185 30.15,-185"/>
<text text-anchor="middle" x="55.15" y="-192" font-family="Helvetica,sans-Serif" font-size="10.00">stdio.h</text>
</a>
</g>
</g>
<!-- Node131&#45;&gt;Node132 -->
<g id="edge155" class="edge">
<title>Node131&#45;&gt;Node132</title>
<path fill="none" stroke="midnightblue" d="M111.39,-251.73C101.06,-241.4 83.69,-224.04 70.98,-211.33"/>
<polygon fill="midnightblue" stroke="midnightblue" points="73.33,-208.72 63.78,-204.13 68.38,-213.67 73.33,-208.72"/>
</g>
<!-- Node133 -->
<g id="node45" class="node">
<title>Node133</title>
<g id="a_node45"><a xlink:title=" ">
<polygon fill="none" stroke="#bfbfbf" points="98.15,-185 98.15,-204 142.15,-204 142.15,-185 98.15,-185"/>
<text text-anchor="middle" x="120.15" y="-192" font-family="Helvetica,sans-Serif" font-size="10.00">ctime</text>
</a>
</g>
</g>
<!-- Node131&#45;&gt;Node133 -->
<g id="edge158" class="edge">
<title>Node131&#45;&gt;Node133</title>
<path fill="none" stroke="midnightblue" d="M120.15,-251.73C120.15,-242.18 120.15,-226.62 120.15,-214.28"/>
<polygon fill="midnightblue" stroke="midnightblue" points="123.65,-214.13 120.15,-204.13 116.65,-214.13 123.65,-214.13"/>
</g>
<!-- Node63 -->
<g id="node46" class="node">
<title>Node63</title>
<g id="a_node46"><a xlink:href="../../de/d07/parallel__utilities_8h.html" target="_top" xlink:title=" ">
<polygon fill="none" stroke="red" points="388.65,-179.5 388.65,-209.5 481.65,-209.5 481.65,-179.5 388.65,-179.5"/>
<text text-anchor="start" x="396.65" y="-197.5" font-family="Helvetica,sans-Serif" font-size="10.00">utilities/parallel</text>
<text text-anchor="middle" x="435.15" y="-186.5" font-family="Helvetica,sans-Serif" font-size="10.00">_utilities.h</text>
</a>
</g>
</g>
<!-- Node131&#45;&gt;Node63 -->
<g id="edge159" class="edge">
<title>Node131&#45;&gt;Node63</title>
<path fill="none" stroke="midnightblue" d="M161.66,-251.94C217.2,-240.47 315.94,-220.1 378.35,-207.22"/>
<polygon fill="midnightblue" stroke="midnightblue" points="379.34,-210.59 388.42,-205.14 377.92,-203.74 379.34,-210.59"/>
</g>
<!-- Node63&#45;&gt;Node2 -->
<g id="edge162" class="edge">
<title>Node63&#45;&gt;Node2</title>
<path fill="none" stroke="midnightblue" d="M420.7,-179.4C411.56,-170.49 399.73,-158.95 390.29,-149.74"/>
<polygon fill="midnightblue" stroke="midnightblue" points="392.63,-147.13 383.03,-142.66 387.74,-152.15 392.63,-147.13"/>
</g>
<!-- Node63&#45;&gt;Node5 -->
<g id="edge160" class="edge">
<title>Node63&#45;&gt;Node5</title>
<path fill="none" stroke="midnightblue" d="M437.34,-179.44C442.37,-152.32 457.57,-93.16 497.15,-67 574.19,-16.08 1239.22,-15.54 1410.86,-16.26"/>
<polygon fill="midnightblue" stroke="midnightblue" points="1410.97,-19.76 1420.99,-16.3 1411,-12.76 1410.97,-19.76"/>
</g>
<!-- Node63&#45;&gt;Node8 -->
<g id="edge163" class="edge">
<title>Node63&#45;&gt;Node8</title>
<path fill="none" stroke="midnightblue" d="M482.05,-191.7C707.24,-183.08 1676.96,-145.92 1928.41,-136.29"/>
<polygon fill="midnightblue" stroke="midnightblue" points="1928.59,-139.78 1938.45,-135.9 1928.32,-132.79 1928.59,-139.78"/>
</g>
<!-- Node63&#45;&gt;Node16 -->
<g id="edge161" class="edge">
<title>Node63&#45;&gt;Node16</title>
<path fill="none" stroke="midnightblue" d="M430.63,-179.48C425.63,-164.87 416.86,-141.57 406.15,-123 386.26,-88.51 356.46,-52.69 338.79,-32.63"/>
<polygon fill="midnightblue" stroke="midnightblue" points="341.3,-30.18 332.03,-25.04 336.07,-34.84 341.3,-30.18"/>
</g>
<!-- Node63&#45;&gt;Node70 -->
<g id="edge164" class="edge">
<title>Node63&#45;&gt;Node70</title>
<path fill="none" stroke="midnightblue" d="M482.01,-185.9C547.52,-175.28 666.66,-155.97 739.67,-144.13"/>
<polygon fill="midnightblue" stroke="midnightblue" points="740.35,-147.57 749.66,-142.51 739.23,-140.66 740.35,-147.57"/>
</g>
<!-- Node134&#45;&gt;Node8 -->
<g id="edge168" class="edge">
<title>Node134&#45;&gt;Node8</title>
<path fill="none" stroke="midnightblue" d="M3076.9,-827.44C3107.27,-820.93 3144.24,-809.77 3173.15,-791 3215.41,-763.56 3244.77,-741.22 3230.15,-693 3144.48,-410.41 3089.28,-272.4 2809.15,-179 2666.86,-131.56 2284.9,-151.58 2135.15,-143 2106.53,-141.36 2074.79,-139.43 2048.14,-137.78"/>
<polygon fill="midnightblue" stroke="midnightblue" points="2048.02,-134.26 2037.82,-137.14 2047.58,-141.25 2048.02,-134.26"/>
</g>
<!-- Node134&#45;&gt;Node117 -->
<g id="edge177" class="edge">
<title>Node134&#45;&gt;Node117</title>
<path fill="none" stroke="midnightblue" d="M3013.06,-827.38C3006,-818.56 2995.09,-804.31 2987.15,-791 2976.38,-772.93 2843.57,-489.33 2808.56,-414.49"/>
<polygon fill="midnightblue" stroke="midnightblue" points="2811.54,-412.6 2804.14,-405.02 2805.2,-415.56 2811.54,-412.6"/>
</g>
<!-- Node135 -->
<g id="node48" class="node">
<title>Node135</title>
<g id="a_node48"><a xlink:href="../../d3/dec/kratos__application_8h.html" target="_top" xlink:title=" ">
<polygon fill="none" stroke="red" points="2749.65,-699 2749.65,-718 2908.65,-718 2908.65,-699 2749.65,-699"/>
<text text-anchor="middle" x="2829.15" y="-706" font-family="Helvetica,sans-Serif" font-size="10.00">includes/kratos_application.h</text>
</a>
</g>
</g>
<!-- Node134&#45;&gt;Node135 -->
<g id="edge169" class="edge">
<title>Node134&#45;&gt;Node135</title>
<path fill="none" stroke="midnightblue" d="M3007.02,-827.31C2974.57,-805.81 2890.35,-750.03 2850.56,-723.68"/>
<polygon fill="midnightblue" stroke="midnightblue" points="2852.39,-720.69 2842.12,-718.09 2848.52,-726.53 2852.39,-720.69"/>
</g>
<!-- Node202 -->
<g id="node49" class="node">
<title>Node202</title>
<g id="a_node49"><a xlink:href="../../db/d0c/structural__mechanics__application__variables_8h.html" target="_top" xlink:title=" ">
<polygon fill="none" stroke="red" points="3085.65,-693.5 3085.65,-723.5 3220.65,-723.5 3220.65,-693.5 3085.65,-693.5"/>
<text text-anchor="start" x="3093.65" y="-711.5" font-family="Helvetica,sans-Serif" font-size="10.00">structural_mechanics</text>
<text text-anchor="middle" x="3153.15" y="-700.5" font-family="Helvetica,sans-Serif" font-size="10.00">_application_variables.h</text>
</a>
</g>
</g>
<!-- Node134&#45;&gt;Node202 -->
<g id="edge178" class="edge">
<title>Node134&#45;&gt;Node202</title>
<path fill="none" stroke="midnightblue" d="M3097.25,-827.48C3119.53,-821.03 3141.5,-809.94 3155.15,-791 3166.94,-774.65 3164.99,-751.26 3160.94,-733.73"/>
<polygon fill="midnightblue" stroke="midnightblue" points="3164.22,-732.44 3158.25,-723.69 3157.46,-734.25 3164.22,-732.44"/>
</g>
<!-- Node204 -->
<g id="node50" class="node">
<title>Node204</title>
<g id="a_node50"><a xlink:href="../../df/d97/poromechanics__application__variables_8h.html" target="_top" xlink:title=" ">
<polygon fill="none" stroke="red" points="2996.15,-760.5 2996.15,-790.5 3146.15,-790.5 3146.15,-760.5 2996.15,-760.5"/>
<text text-anchor="start" x="3004.15" y="-778.5" font-family="Helvetica,sans-Serif" font-size="10.00">poromechanics_application</text>
<text text-anchor="middle" x="3071.15" y="-767.5" font-family="Helvetica,sans-Serif" font-size="10.00">_variables.h</text>
</a>
</g>
</g>
<!-- Node134&#45;&gt;Node204 -->
<g id="edge180" class="edge">
<title>Node134&#45;&gt;Node204</title>
<path fill="none" stroke="midnightblue" d="M3027.46,-827.48C3033.98,-819.87 3043.81,-808.4 3052.5,-798.26"/>
<polygon fill="midnightblue" stroke="midnightblue" points="3055.28,-800.39 3059.13,-790.52 3049.97,-795.84 3055.28,-800.39"/>
</g>
<!-- Node135&#45;&gt;Node4 -->
<g id="edge170" class="edge">
<title>Node135&#45;&gt;Node4</title>
<path fill="none" stroke="midnightblue" d="M2841.63,-698.95C2894.21,-661.77 3095.15,-508.05 3095.15,-329.5 3095.15,-329.5 3095.15,-329.5 3095.15,-132 3095.15,-47.73 2432.14,-22.26 2275.86,-17.42"/>
<polygon fill="midnightblue" stroke="midnightblue" points="2275.6,-13.91 2265.5,-17.11 2275.39,-20.91 2275.6,-13.91"/>
</g>
<!-- Node135&#45;&gt;Node5 -->
<g id="edge171" class="edge">
<title>Node135&#45;&gt;Node5</title>
<path fill="none" stroke="midnightblue" d="M2833.81,-698.98C2843.96,-679.62 2867.15,-630.54 2867.15,-586.5 2867.15,-586.5 2867.15,-586.5 2867.15,-517.5 2867.15,-367.05 2964.76,-289.96 2863.15,-179 2767.7,-74.76 1712.04,-26.94 1491.42,-18.05"/>
<polygon fill="midnightblue" stroke="midnightblue" points="1491.39,-14.55 1481.26,-17.64 1491.11,-21.54 1491.39,-14.55"/>
</g>
<!-- Node135&#45;&gt;Node26 -->
<g id="edge176" class="edge">
<title>Node135&#45;&gt;Node26</title>
<path fill="none" stroke="midnightblue" d="M2829.15,-698.99C2829.15,-679.24 2829.15,-628.72 2829.15,-586.5 2829.15,-586.5 2829.15,-586.5 2829.15,-517.5 2829.15,-484.4 2842.2,-478.23 2853.15,-447 2858.78,-430.95 2863.22,-427.76 2866.15,-411 2868.53,-397.43 2869.28,-393.42 2866.15,-380 2843.56,-283.01 2849.63,-234.8 2767.15,-179 2723.77,-149.65 2349.33,-147.52 2297.15,-143 2289.74,-142.36 2281.99,-141.66 2274.27,-140.94"/>
<polygon fill="midnightblue" stroke="midnightblue" points="2274.45,-137.44 2264.17,-139.99 2273.8,-144.41 2274.45,-137.44"/>
</g>
<!-- Node135&#45;&gt;Node98 -->
<g id="edge175" class="edge">
<title>Node135&#45;&gt;Node98</title>
<path fill="none" stroke="midnightblue" d="M2817.83,-698.92C2800.11,-685.53 2764.68,-658.93 2734.15,-637 2685.53,-602.07 2628.17,-562.54 2594.33,-539.39"/>
<polygon fill="midnightblue" stroke="midnightblue" points="2596.08,-536.34 2585.85,-533.59 2592.13,-542.12 2596.08,-536.34"/>
</g>
<!-- Node135&#45;&gt;Node111 -->
<g id="edge172" class="edge">
<title>Node135&#45;&gt;Node111</title>
<path fill="none" stroke="midnightblue" d="M2749.22,-703.55C2525.32,-692.49 1895,-661.34 1690.27,-651.22"/>
<polygon fill="midnightblue" stroke="midnightblue" points="1690.43,-647.72 1680.26,-650.72 1690.08,-654.71 1690.43,-647.72"/>
</g>
<!-- Node135&#45;&gt;Node115 -->
<g id="edge174" class="edge">
<title>Node135&#45;&gt;Node115</title>
<path fill="none" stroke="midnightblue" d="M2774.02,-698.99C2634.76,-677.5 2268.95,-621.04 2115.01,-597.28"/>
<polygon fill="midnightblue" stroke="midnightblue" points="2115.16,-593.76 2104.74,-595.7 2114.09,-600.68 2115.16,-593.76"/>
</g>
<!-- Node135&#45;&gt;Node129 -->
<g id="edge173" class="edge">
<title>Node135&#45;&gt;Node129</title>
<path fill="none" stroke="midnightblue" d="M2749.34,-705.66C2549.22,-700.75 2009.95,-685.72 1561.15,-657 1549.9,-656.28 1537.96,-655.36 1526.37,-654.39"/>
<polygon fill="midnightblue" stroke="midnightblue" points="1526.56,-650.9 1516.3,-653.53 1525.96,-657.87 1526.56,-650.9"/>
</g>
<!-- Node202&#45;&gt;Node8 -->
<g id="edge179" class="edge">
<title>Node202&#45;&gt;Node8</title>
<path fill="none" stroke="midnightblue" d="M3148.91,-693.45C3125.75,-619.74 3006.78,-277.42 2767.15,-179 2637.03,-125.55 2275.58,-151.3 2135.15,-143 2106.54,-141.31 2074.79,-139.37 2048.14,-137.73"/>
<polygon fill="midnightblue" stroke="midnightblue" points="2048.02,-134.22 2037.82,-137.09 2047.59,-141.2 2048.02,-134.22"/>
</g>
<!-- Node204&#45;&gt;Node8 -->
<g id="edge181" class="edge">
<title>Node204&#45;&gt;Node8</title>
<path fill="none" stroke="midnightblue" d="M3067.13,-760.04C3057.73,-726.47 3033.36,-640.76 3010.15,-570 2940.08,-356.36 2894.01,-271.65 2689.15,-179 2685.51,-177.35 2216.77,-148.17 2047.91,-137.7"/>
<polygon fill="midnightblue" stroke="midnightblue" points="2047.91,-134.19 2037.71,-137.07 2047.47,-141.18 2047.91,-134.19"/>
</g>
<!-- Node204&#45;&gt;Node117 -->
<g id="edge183" class="edge">
<title>Node204&#45;&gt;Node117</title>
<path fill="none" stroke="midnightblue" d="M3062.73,-760.09C3056.99,-750.08 3049.34,-736.37 3043.15,-724 2982.84,-603.35 3015.46,-541.44 2919.15,-447 2899.79,-428.01 2872.19,-415.7 2848.44,-407.99"/>
<polygon fill="midnightblue" stroke="midnightblue" points="2849.46,-404.64 2838.88,-405.06 2847.41,-411.33 2849.46,-404.64"/>
</g>
<!-- Node204&#45;&gt;Node135 -->
<g id="edge182" class="edge">
<title>Node204&#45;&gt;Node135</title>
<path fill="none" stroke="midnightblue" d="M3018.94,-760.48C2974.53,-748.55 2911.6,-731.64 2870.58,-720.63"/>
<polygon fill="midnightblue" stroke="midnightblue" points="2871.47,-717.24 2860.91,-718.03 2869.65,-724 2871.47,-717.24"/>
</g>
<!-- Node204&#45;&gt;Node202 -->
<g id="edge184" class="edge">
<title>Node204&#45;&gt;Node202</title>
<path fill="none" stroke="midnightblue" d="M3088.95,-760.4C3100.23,-751.45 3115.01,-739.74 3127.54,-729.8"/>
<polygon fill="midnightblue" stroke="midnightblue" points="3129.73,-732.53 3135.39,-723.58 3125.38,-727.05 3129.73,-732.53"/>
</g>
</g>
</svg>
