<?xml version="1.0" encoding="UTF-8" standalone="no"?>
<!DOCTYPE svg PUBLIC "-//W3C//DTD SVG 1.1//EN"
 "http://www.w3.org/Graphics/SVG/1.1/DTD/svg11.dtd">
<!-- Generated by graphviz version 2.43.0 (0)
 -->
<!-- Title: /home/runner/work/Documentation/Documentation/master/applications/DamApplication/custom_utilities/transfer_selfweight_stress_utility.hpp Pages: 1 -->
<svg width="3351pt" height="1056pt"
 viewBox="0.00 0.00 3350.67 1056.00" xmlns="http://www.w3.org/2000/svg" xmlns:xlink="http://www.w3.org/1999/xlink">
<g id="graph0" class="graph" transform="scale(1 1) rotate(0) translate(4 1052)">
<title>/home/runner/work/Documentation/Documentation/master/applications/DamApplication/custom_utilities/transfer_selfweight_stress_utility.hpp</title>
<!-- Node1 -->
<g id="node1" class="node">
<title>Node1</title>
<g id="a_node1"><a xlink:title=" ">
<polygon fill="#bfbfbf" stroke="black" points="787.04,-995.5 787.04,-1047.5 988.04,-1047.5 988.04,-995.5 787.04,-995.5"/>
<text text-anchor="start" x="795.04" y="-1035.5" font-family="Helvetica,sans-Serif" font-size="10.00">/home/runner/work/Documentation</text>
<text text-anchor="start" x="795.04" y="-1024.5" font-family="Helvetica,sans-Serif" font-size="10.00">/Documentation/master/applications</text>
<text text-anchor="start" x="795.04" y="-1013.5" font-family="Helvetica,sans-Serif" font-size="10.00">/DamApplication/custom_utilities</text>
<text text-anchor="middle" x="887.54" y="-1002.5" font-family="Helvetica,sans-Serif" font-size="10.00">/transfer_selfweight_stress_utility.hpp</text>
</a>
</g>
</g>
<!-- Node2 -->
<g id="node2" class="node">
<title>Node2</title>
<g id="a_node2"><a xlink:title=" ">
<polygon fill="none" stroke="#bfbfbf" points="187.04,-123.5 187.04,-142.5 234.04,-142.5 234.04,-123.5 187.04,-123.5"/>
<text text-anchor="middle" x="210.54" y="-130.5" font-family="Helvetica,sans-Serif" font-size="10.00">cmath</text>
</a>
</g>
</g>
<!-- Node1&#45;&gt;Node2 -->
<g id="edge1" class="edge">
<title>Node1&#45;&gt;Node2</title>
<path fill="none" stroke="midnightblue" d="M786.71,-1011.7C593.82,-993.49 191.54,-948.34 191.54,-888.5 191.54,-888.5 191.54,-888.5 191.54,-255 191.54,-218.29 200.19,-176.06 205.81,-152.45"/>
<polygon fill="midnightblue" stroke="midnightblue" points="209.21,-153.28 208.21,-142.73 202.42,-151.6 209.21,-153.28"/>
</g>
<!-- Node3 -->
<g id="node3" class="node">
<title>Node3</title>
<g id="a_node3"><a xlink:href="../../dd/dfe/model__part_8h.html" target="_top" xlink:title=" ">
<polygon fill="none" stroke="black" points="1927.04,-878 1927.04,-897 2052.04,-897 2052.04,-878 1927.04,-878"/>
<text text-anchor="middle" x="1989.54" y="-885" font-family="Helvetica,sans-Serif" font-size="10.00">includes/model_part.h</text>
</a>
</g>
</g>
<!-- Node1&#45;&gt;Node3 -->
<g id="edge2" class="edge">
<title>Node1&#45;&gt;Node3</title>
<path fill="none" stroke="midnightblue" d="M988.26,-1008.44C1207.89,-982.13 1725.51,-920.13 1916.82,-897.21"/>
<polygon fill="midnightblue" stroke="midnightblue" points="1917.26,-900.68 1926.77,-896.02 1916.43,-893.73 1917.26,-900.68"/>
</g>
<!-- Node110 -->
<g id="node26" class="node">
<title>Node110</title>
<g id="a_node26"><a xlink:href="../../d4/dfe/element_8h.html" target="_top" xlink:title=" ">
<polygon fill="none" stroke="black" points="1553.54,-749.5 1553.54,-768.5 1663.54,-768.5 1663.54,-749.5 1553.54,-749.5"/>
<text text-anchor="middle" x="1608.54" y="-756.5" font-family="Helvetica,sans-Serif" font-size="10.00">includes/element.h</text>
</a>
</g>
</g>
<!-- Node1&#45;&gt;Node110 -->
<g id="edge171" class="edge">
<title>Node1&#45;&gt;Node110</title>
<path fill="none" stroke="midnightblue" d="M957,-995.4C1108.62,-940.62 1464.49,-812.05 1575.12,-772.08"/>
<polygon fill="midnightblue" stroke="midnightblue" points="1576.54,-775.29 1584.75,-768.6 1574.16,-768.7 1576.54,-775.29"/>
</g>
<!-- Node96 -->
<g id="node33" class="node">
<title>Node96</title>
<g id="a_node33"><a xlink:href="../../d8/d88/math__utils_8h.html" target="_top" xlink:title=" ">
<polygon fill="none" stroke="black" points="766.04,-302.5 766.04,-321.5 883.04,-321.5 883.04,-302.5 766.04,-302.5"/>
<text text-anchor="middle" x="824.54" y="-309.5" font-family="Helvetica,sans-Serif" font-size="10.00">utilities/math_utils.h</text>
</a>
</g>
</g>
<!-- Node1&#45;&gt;Node96 -->
<g id="edge170" class="edge">
<title>Node1&#45;&gt;Node96</title>
<path fill="none" stroke="midnightblue" d="M786.71,-1005.75C674.13,-986.37 507.54,-947.69 507.54,-888.5 507.54,-888.5 507.54,-888.5 507.54,-506.5 507.54,-390.63 663.75,-342.09 756.85,-323.44"/>
<polygon fill="midnightblue" stroke="midnightblue" points="757.62,-326.86 766.77,-321.52 756.29,-319.99 757.62,-326.86"/>
</g>
<!-- Node124 -->
<g id="node36" class="node">
<title>Node124</title>
<g id="a_node36"><a xlink:href="../../db/d71/kratos__parameters_8h.html" target="_top" xlink:title=" ">
<polygon fill="none" stroke="black" points="1020.04,-621 1020.04,-640 1181.04,-640 1181.04,-621 1020.04,-621"/>
<text text-anchor="middle" x="1100.54" y="-628" font-family="Helvetica,sans-Serif" font-size="10.00">includes/kratos_parameters.h</text>
</a>
</g>
</g>
<!-- Node1&#45;&gt;Node124 -->
<g id="edge158" class="edge">
<title>Node1&#45;&gt;Node124</title>
<path fill="none" stroke="midnightblue" d="M887.54,-995.19C887.54,-968.62 887.54,-925.62 887.54,-888.5 887.54,-888.5 887.54,-888.5 887.54,-819.5 887.54,-725.59 1005.37,-667.38 1065.75,-643.71"/>
<polygon fill="midnightblue" stroke="midnightblue" points="1067.18,-646.91 1075.27,-640.08 1064.68,-640.37 1067.18,-646.91"/>
</g>
<!-- Node132 -->
<g id="node43" class="node">
<title>Node132</title>
<g id="a_node43"><a xlink:href="../../d1/db8/openmp__utils_8h.html" target="_top" xlink:title=" ">
<polygon fill="none" stroke="black" points="32.04,-246.5 32.04,-265.5 163.04,-265.5 163.04,-246.5 32.04,-246.5"/>
<text text-anchor="middle" x="97.54" y="-253.5" font-family="Helvetica,sans-Serif" font-size="10.00">utilities/openmp_utils.h</text>
</a>
</g>
</g>
<!-- Node1&#45;&gt;Node132 -->
<g id="edge159" class="edge">
<title>Node1&#45;&gt;Node132</title>
<path fill="none" stroke="midnightblue" d="M787.04,-1016.37C603.79,-1008.16 229.42,-988.07 177.54,-959 143.58,-939.96 125.54,-927.43 125.54,-888.5 125.54,-888.5 125.54,-888.5 125.54,-372.5 125.54,-337.21 113.05,-297.53 104.75,-275.07"/>
<polygon fill="midnightblue" stroke="midnightblue" points="107.94,-273.6 101.09,-265.52 101.4,-276.11 107.94,-273.6"/>
</g>
<!-- Node135 -->
<g id="node47" class="node">
<title>Node135</title>
<g id="a_node47"><a xlink:href="../../dc/d38/dam__application__variables_8h.html" target="_top" xlink:title=" ">
<polygon fill="none" stroke="black" points="1897.04,-939.5 1897.04,-958.5 2054.04,-958.5 2054.04,-939.5 1897.04,-939.5"/>
<text text-anchor="middle" x="1975.54" y="-946.5" font-family="Helvetica,sans-Serif" font-size="10.00">dam_application_variables.h</text>
</a>
</g>
</g>
<!-- Node1&#45;&gt;Node135 -->
<g id="edge172" class="edge">
<title>Node1&#45;&gt;Node135</title>
<path fill="none" stroke="midnightblue" d="M988.44,-1013.96C1199.83,-1000.26 1686.19,-968.75 1886.67,-955.76"/>
<polygon fill="midnightblue" stroke="midnightblue" points="1887.11,-959.24 1896.87,-955.1 1886.66,-952.25 1887.11,-959.24"/>
</g>
<!-- Node4 -->
<g id="node4" class="node">
<title>Node4</title>
<g id="a_node4"><a xlink:title=" ">
<polygon fill="none" stroke="#bfbfbf" points="1609.54,-6 1609.54,-25 1653.54,-25 1653.54,-6 1609.54,-6"/>
<text text-anchor="middle" x="1631.54" y="-13" font-family="Helvetica,sans-Serif" font-size="10.00">string</text>
</a>
</g>
</g>
<!-- Node3&#45;&gt;Node4 -->
<g id="edge3" class="edge">
<title>Node3&#45;&gt;Node4</title>
<path fill="none" stroke="midnightblue" d="M1926.84,-885.77C1676.85,-882.64 762.3,-868.96 710.54,-836 550.25,-733.93 559.36,-640.67 514.54,-456 475.56,-295.37 986.83,-101.23 1148.54,-67 1315.55,-31.64 1520.52,-20.63 1598.93,-17.56"/>
<polygon fill="midnightblue" stroke="midnightblue" points="1599.28,-21.05 1609.14,-17.18 1599.02,-14.06 1599.28,-21.05"/>
</g>
<!-- Node5 -->
<g id="node5" class="node">
<title>Node5</title>
<g id="a_node5"><a xlink:title=" ">
<polygon fill="none" stroke="#bfbfbf" points="869.54,-6 869.54,-25 929.54,-25 929.54,-6 869.54,-6"/>
<text text-anchor="middle" x="899.54" y="-13" font-family="Helvetica,sans-Serif" font-size="10.00">iostream</text>
</a>
</g>
</g>
<!-- Node3&#45;&gt;Node5 -->
<g id="edge4" class="edge">
<title>Node3&#45;&gt;Node5</title>
<path fill="none" stroke="midnightblue" d="M1926.87,-885.51C1671.45,-881.32 719.97,-863.88 662.54,-836 396.46,-706.83 438.26,-450.09 556.54,-179 579.3,-126.85 572.29,-100.13 618.54,-67 656.51,-39.81 790.81,-25.29 859.07,-19.52"/>
<polygon fill="midnightblue" stroke="midnightblue" points="859.76,-22.97 869.44,-18.66 859.18,-15.99 859.76,-22.97"/>
</g>
<!-- Node6 -->
<g id="node6" class="node">
<title>Node6</title>
<g id="a_node6"><a xlink:title=" ">
<polygon fill="none" stroke="#bfbfbf" points="2779.54,-6 2779.54,-25 2835.54,-25 2835.54,-6 2779.54,-6"/>
<text text-anchor="middle" x="2807.54" y="-13" font-family="Helvetica,sans-Serif" font-size="10.00">sstream</text>
</a>
</g>
</g>
<!-- Node3&#45;&gt;Node6 -->
<g id="edge5" class="edge">
<title>Node3&#45;&gt;Node6</title>
<path fill="none" stroke="midnightblue" d="M2025.99,-877.99C2037.32,-875.66 2049.9,-873.39 2061.54,-872 2264.26,-847.77 2783.42,-892.71 2979.54,-836 3008.14,-827.73 3077.41,-792.61 3095.54,-769 3115.32,-743.27 3114.54,-730.95 3114.54,-698.5 3114.54,-698.5 3114.54,-698.5 3114.54,-629.5 3114.54,-460.53 3190.54,-425.97 3190.54,-257 3190.54,-257 3190.54,-257 3190.54,-132 3190.54,-60.47 2942.56,-29.27 2845.68,-19.81"/>
<polygon fill="midnightblue" stroke="midnightblue" points="2845.99,-16.33 2835.71,-18.86 2845.33,-23.29 2845.99,-16.33"/>
</g>
<!-- Node7 -->
<g id="node7" class="node">
<title>Node7</title>
<g id="a_node7"><a xlink:title=" ">
<polygon fill="none" stroke="#bfbfbf" points="2389.04,-302.5 2389.04,-321.5 2442.04,-321.5 2442.04,-302.5 2389.04,-302.5"/>
<text text-anchor="middle" x="2415.54" y="-309.5" font-family="Helvetica,sans-Serif" font-size="10.00">cstddef</text>
</a>
</g>
</g>
<!-- Node3&#45;&gt;Node7 -->
<g id="edge6" class="edge">
<title>Node3&#45;&gt;Node7</title>
<path fill="none" stroke="midnightblue" d="M2027.13,-877.98C2038.17,-875.74 2050.3,-873.52 2061.54,-872 2287.6,-841.42 2350.2,-882.43 2573.54,-836 2672.77,-815.37 2788.54,-861.35 2788.54,-760 2788.54,-760 2788.54,-760 2788.54,-439.5 2788.54,-368.97 2546.32,-329.96 2452.26,-317.48"/>
<polygon fill="midnightblue" stroke="midnightblue" points="2452.44,-313.97 2442.07,-316.15 2451.53,-320.91 2452.44,-313.97"/>
</g>
<!-- Node8 -->
<g id="node8" class="node">
<title>Node8</title>
<g id="a_node8"><a xlink:href="../../df/d67/define_8h.html" target="_top" xlink:title=" ">
<polygon fill="none" stroke="black" points="2351.04,-123.5 2351.04,-142.5 2450.04,-142.5 2450.04,-123.5 2351.04,-123.5"/>
<text text-anchor="middle" x="2400.54" y="-130.5" font-family="Helvetica,sans-Serif" font-size="10.00">includes/define.h</text>
</a>
</g>
</g>
<!-- Node3&#45;&gt;Node8 -->
<g id="edge7" class="edge">
<title>Node3&#45;&gt;Node8</title>
<path fill="none" stroke="midnightblue" d="M2026.37,-877.96C2037.6,-875.65 2050.03,-873.41 2061.54,-872 2148.76,-861.29 2773.16,-875.71 2851.54,-836 2885.66,-818.71 2888.62,-803.3 2905.54,-769 2974.81,-628.58 3038.71,-570.77 2981.54,-425 2967.94,-390.3 2786.68,-196.05 2753.54,-179 2728.06,-165.89 2554.08,-148.15 2460.25,-139.37"/>
<polygon fill="midnightblue" stroke="midnightblue" points="2460.33,-135.86 2450.05,-138.42 2459.68,-142.83 2460.33,-135.86"/>
</g>
<!-- Node19 -->
<g id="node14" class="node">
<title>Node19</title>
<g id="a_node14"><a xlink:href="../../dd/d5f/serializer_8h.html" target="_top" xlink:title=" ">
<polygon fill="none" stroke="red" points="1453.04,-302.5 1453.04,-321.5 1566.04,-321.5 1566.04,-302.5 1453.04,-302.5"/>
<text text-anchor="middle" x="1509.54" y="-309.5" font-family="Helvetica,sans-Serif" font-size="10.00">includes/serializer.h</text>
</a>
</g>
</g>
<!-- Node3&#45;&gt;Node19 -->
<g id="edge20" class="edge">
<title>Node3&#45;&gt;Node19</title>
<path fill="none" stroke="midnightblue" d="M1927.02,-883.21C1713.48,-871.46 1021.9,-829.08 943.54,-769 869.48,-712.21 875.45,-621.75 944.54,-559 1011.43,-498.26 1273.85,-572.34 1349.54,-523 1419.7,-477.26 1383.55,-419.37 1440.54,-358 1452.48,-345.14 1468.83,-334.27 1482.61,-326.44"/>
<polygon fill="midnightblue" stroke="midnightblue" points="1484.55,-329.37 1491.66,-321.51 1481.2,-323.22 1484.55,-329.37"/>
</g>
<!-- Node26 -->
<g id="node15" class="node">
<title>Node26</title>
<g id="a_node15"><a xlink:href="../../d1/d8c/logger_8h.html" target="_top" xlink:title=" ">
<polygon fill="none" stroke="red" points="915.54,-246.5 915.54,-265.5 1035.54,-265.5 1035.54,-246.5 915.54,-246.5"/>
<text text-anchor="middle" x="975.54" y="-253.5" font-family="Helvetica,sans-Serif" font-size="10.00">input_output/logger.h</text>
</a>
</g>
</g>
<!-- Node3&#45;&gt;Node26 -->
<g id="edge152" class="edge">
<title>Node3&#45;&gt;Node26</title>
<path fill="none" stroke="midnightblue" d="M1926.96,-885.68C1681.68,-882.24 796.91,-867.67 746.54,-836 691.26,-801.23 621.54,-635.31 621.54,-570 621.54,-570 621.54,-570 621.54,-506.5 621.54,-421.36 668.11,-399.32 742.54,-358 802.49,-324.72 830.81,-351.82 892.54,-322 918.65,-309.39 944.22,-287.5 959.93,-272.64"/>
<polygon fill="midnightblue" stroke="midnightblue" points="962.45,-275.07 967.2,-265.6 957.58,-270.05 962.45,-275.07"/>
</g>
<!-- Node57 -->
<g id="node18" class="node">
<title>Node57</title>
<g id="a_node18"><a xlink:href="../../de/db8/process__info_8h.html" target="_top" xlink:title=" ">
<polygon fill="none" stroke="red" points="1834.04,-559.5 1834.04,-578.5 1965.04,-578.5 1965.04,-559.5 1834.04,-559.5"/>
<text text-anchor="middle" x="1899.54" y="-566.5" font-family="Helvetica,sans-Serif" font-size="10.00">includes/process_info.h</text>
</a>
</g>
</g>
<!-- Node3&#45;&gt;Node57 -->
<g id="edge37" class="edge">
<title>Node3&#45;&gt;Node57</title>
<path fill="none" stroke="midnightblue" d="M1989.54,-877.91C1989.54,-857.48 1989.54,-804.36 1989.54,-760 1989.54,-760 1989.54,-760 1989.54,-696.5 1989.54,-648.59 1946.15,-606.22 1919.62,-584.8"/>
<polygon fill="midnightblue" stroke="midnightblue" points="1921.72,-581.99 1911.68,-578.6 1917.41,-587.51 1921.72,-581.99"/>
</g>
<!-- Node58 -->
<g id="node19" class="node">
<title>Node58</title>
<g id="a_node19"><a xlink:href="../../d1/d82/data__value__container_8h.html" target="_top" xlink:title=" ">
<polygon fill="none" stroke="red" points="1668.04,-492.5 1668.04,-522.5 1793.04,-522.5 1793.04,-492.5 1668.04,-492.5"/>
<text text-anchor="start" x="1676.04" y="-510.5" font-family="Helvetica,sans-Serif" font-size="10.00">containers/data_value</text>
<text text-anchor="middle" x="1730.54" y="-499.5" font-family="Helvetica,sans-Serif" font-size="10.00">_container.h</text>
</a>
</g>
</g>
<!-- Node3&#45;&gt;Node58 -->
<g id="edge60" class="edge">
<title>Node3&#45;&gt;Node58</title>
<path fill="none" stroke="midnightblue" d="M1986.65,-877.8C1976.69,-848.55 1941.79,-751.65 1894.54,-682 1852.97,-620.71 1789.54,-560.46 1755.01,-529.65"/>
<polygon fill="midnightblue" stroke="midnightblue" points="1757.1,-526.83 1747.29,-522.82 1752.46,-532.07 1757.1,-526.83"/>
</g>
<!-- Node59 -->
<g id="node20" class="node">
<title>Node59</title>
<g id="a_node20"><a xlink:href="../../da/d89/variable_8h.html" target="_top" xlink:title=" ">
<polygon fill="none" stroke="red" points="1671.04,-431 1671.04,-450 1790.04,-450 1790.04,-431 1671.04,-431"/>
<text text-anchor="middle" x="1730.54" y="-438" font-family="Helvetica,sans-Serif" font-size="10.00">containers/variable.h</text>
</a>
</g>
</g>
<!-- Node3&#45;&gt;Node59 -->
<g id="edge156" class="edge">
<title>Node3&#45;&gt;Node59</title>
<path fill="none" stroke="midnightblue" d="M1994.05,-877.87C2004.12,-857.79 2027.54,-806.09 2027.54,-760 2027.54,-760 2027.54,-760 2027.54,-696.5 2027.54,-631.01 2018.94,-607.15 1974.54,-559 1966.54,-550.33 1821.03,-482.99 1758.61,-454.34"/>
<polygon fill="midnightblue" stroke="midnightblue" points="1759.88,-451.08 1749.33,-450.09 1756.97,-457.44 1759.88,-451.08"/>
</g>
<!-- Node73 -->
<g id="node21" class="node">
<title>Node73</title>
<g id="a_node21"><a xlink:href="../../d3/dc3/variable__data_8h.html" target="_top" xlink:title=" ">
<polygon fill="none" stroke="red" points="1822.54,-364 1822.54,-383 1914.54,-383 1914.54,-364 1822.54,-364"/>
<text text-anchor="middle" x="1868.54" y="-371" font-family="Helvetica,sans-Serif" font-size="10.00">variable_data.h</text>
</a>
</g>
</g>
<!-- Node3&#45;&gt;Node73 -->
<g id="edge157" class="edge">
<title>Node3&#45;&gt;Node73</title>
<path fill="none" stroke="midnightblue" d="M2027.9,-878C2038.74,-875.81 2050.57,-873.61 2061.54,-872 2186.24,-853.67 2617.54,-886.04 2617.54,-760 2617.54,-760 2617.54,-760 2617.54,-696.5 2617.54,-544.61 2091.13,-421.09 1920.94,-385.12"/>
<polygon fill="midnightblue" stroke="midnightblue" points="1921.47,-381.65 1910.96,-383.02 1920.03,-388.5 1921.47,-381.65"/>
</g>
<!-- Node82 -->
<g id="node22" class="node">
<title>Node82</title>
<g id="a_node22"><a xlink:href="../../d8/d3b/mesh_8h.html" target="_top" xlink:title=" ">
<polygon fill="none" stroke="red" points="2388.54,-688 2388.54,-707 2484.54,-707 2484.54,-688 2388.54,-688"/>
<text text-anchor="middle" x="2436.54" y="-695" font-family="Helvetica,sans-Serif" font-size="10.00">includes/mesh.h</text>
</a>
</g>
</g>
<!-- Node3&#45;&gt;Node82 -->
<g id="edge61" class="edge">
<title>Node3&#45;&gt;Node82</title>
<path fill="none" stroke="midnightblue" d="M2028.28,-877.96C2039.02,-875.8 2050.7,-873.63 2061.54,-872 2141.71,-859.98 2367.56,-893.66 2424.54,-836 2455.76,-804.41 2448.07,-746.5 2441.44,-716.93"/>
<polygon fill="midnightblue" stroke="midnightblue" points="2444.81,-715.98 2439.04,-707.1 2438.01,-717.65 2444.81,-715.98"/>
</g>
<!-- Node86 -->
<g id="node23" class="node">
<title>Node86</title>
<g id="a_node23"><a xlink:href="../../d2/d58/pointer__vector__map_8h.html" target="_top" xlink:title=" ">
<polygon fill="none" stroke="red" points="2123.04,-358.5 2123.04,-388.5 2228.04,-388.5 2228.04,-358.5 2123.04,-358.5"/>
<text text-anchor="start" x="2131.04" y="-376.5" font-family="Helvetica,sans-Serif" font-size="10.00">containers/pointer</text>
<text text-anchor="middle" x="2175.54" y="-365.5" font-family="Helvetica,sans-Serif" font-size="10.00">_vector_map.h</text>
</a>
</g>
</g>
<!-- Node3&#45;&gt;Node86 -->
<g id="edge147" class="edge">
<title>Node3&#45;&gt;Node86</title>
<path fill="none" stroke="midnightblue" d="M2021.96,-877.93C2091.25,-858.67 2247.54,-809.7 2247.54,-760 2247.54,-760 2247.54,-760 2247.54,-629.5 2247.54,-541.37 2207.22,-442.34 2186.93,-398.08"/>
<polygon fill="midnightblue" stroke="midnightblue" points="2189.98,-396.34 2182.58,-388.76 2183.64,-399.3 2189.98,-396.34"/>
</g>
<!-- Node98 -->
<g id="node24" class="node">
<title>Node98</title>
<g id="a_node24"><a xlink:href="../../da/da4/master__slave__constraint_8h.html" target="_top" xlink:title=" ">
<polygon fill="none" stroke="red" points="2055.54,-615.5 2055.54,-645.5 2181.54,-645.5 2181.54,-615.5 2055.54,-615.5"/>
<text text-anchor="start" x="2063.54" y="-633.5" font-family="Helvetica,sans-Serif" font-size="10.00">includes/master_slave</text>
<text text-anchor="middle" x="2118.54" y="-622.5" font-family="Helvetica,sans-Serif" font-size="10.00">_constraint.h</text>
</a>
</g>
</g>
<!-- Node3&#45;&gt;Node98 -->
<g id="edge155" class="edge">
<title>Node3&#45;&gt;Node98</title>
<path fill="none" stroke="midnightblue" d="M2000.91,-877.97C2012.51,-868.75 2030.37,-853.05 2041.54,-836 2080.3,-776.85 2103.44,-695.41 2113.16,-655.51"/>
<polygon fill="midnightblue" stroke="midnightblue" points="2116.6,-656.16 2115.5,-645.63 2109.79,-654.55 2116.6,-656.16"/>
</g>
<!-- Node109 -->
<g id="node25" class="node">
<title>Node109</title>
<g id="a_node25"><a xlink:href="../../d3/dad/geometry__container_8h.html" target="_top" xlink:title=" ">
<polygon fill="none" stroke="red" points="2854.54,-425.5 2854.54,-455.5 2972.54,-455.5 2972.54,-425.5 2854.54,-425.5"/>
<text text-anchor="start" x="2862.54" y="-443.5" font-family="Helvetica,sans-Serif" font-size="10.00">containers/geometry</text>
<text text-anchor="middle" x="2913.54" y="-432.5" font-family="Helvetica,sans-Serif" font-size="10.00">_container.h</text>
</a>
</g>
</g>
<!-- Node3&#45;&gt;Node109 -->
<g id="edge79" class="edge">
<title>Node3&#45;&gt;Node109</title>
<path fill="none" stroke="midnightblue" d="M2026.37,-877.98C2037.6,-875.68 2050.03,-873.43 2061.54,-872 2225.15,-851.67 2649.13,-896.37 2802.54,-836 2851.26,-816.83 2892.54,-812.35 2892.54,-760 2892.54,-760 2892.54,-760 2892.54,-568 2892.54,-531.96 2900.94,-490.92 2907.11,-465.61"/>
<polygon fill="midnightblue" stroke="midnightblue" points="2910.54,-466.34 2909.59,-455.79 2903.75,-464.63 2910.54,-466.34"/>
</g>
<!-- Node3&#45;&gt;Node110 -->
<g id="edge81" class="edge">
<title>Node3&#45;&gt;Node110</title>
<path fill="none" stroke="midnightblue" d="M1926.94,-882.7C1869.93,-877.47 1784.38,-865.1 1715.54,-836 1680.28,-821.1 1645.22,-793.02 1625.28,-775.48"/>
<polygon fill="midnightblue" stroke="midnightblue" points="1627.49,-772.76 1617.71,-768.68 1622.81,-777.97 1627.49,-772.76"/>
</g>
<!-- Node113 -->
<g id="node28" class="node">
<title>Node113</title>
<g id="a_node28"><a xlink:href="../../dd/d98/table_8h.html" target="_top" xlink:title=" ">
<polygon fill="none" stroke="black" points="916.54,-498 916.54,-517 1010.54,-517 1010.54,-498 916.54,-498"/>
<text text-anchor="middle" x="963.54" y="-505" font-family="Helvetica,sans-Serif" font-size="10.00">includes/table.h</text>
</a>
</g>
</g>
<!-- Node3&#45;&gt;Node113 -->
<g id="edge146" class="edge">
<title>Node3&#45;&gt;Node113</title>
<path fill="none" stroke="midnightblue" d="M1926.82,-886.83C1695.54,-887.64 898.7,-886.68 797.54,-836 758.57,-816.47 735.54,-803.59 735.54,-760 735.54,-760 735.54,-760 735.54,-629.5 735.54,-596.4 735.16,-581.38 759.54,-559 780.82,-539.47 853.78,-524.78 906.38,-516.42"/>
<polygon fill="midnightblue" stroke="midnightblue" points="906.93,-519.88 916.27,-514.88 905.86,-512.96 906.93,-519.88"/>
</g>
<!-- Node128 -->
<g id="node39" class="node">
<title>Node128</title>
<g id="a_node39"><a xlink:href="../../d7/d6c/condition_8h.html" target="_top" xlink:title=" ">
<polygon fill="none" stroke="black" points="1681.54,-749.5 1681.54,-768.5 1795.54,-768.5 1795.54,-749.5 1681.54,-749.5"/>
<text text-anchor="middle" x="1738.54" y="-756.5" font-family="Helvetica,sans-Serif" font-size="10.00">includes/condition.h</text>
</a>
</g>
</g>
<!-- Node3&#45;&gt;Node128 -->
<g id="edge131" class="edge">
<title>Node3&#45;&gt;Node128</title>
<path fill="none" stroke="midnightblue" d="M1927.04,-883.36C1857.72,-878.41 1752.36,-866.05 1727.54,-836 1714.19,-819.82 1721.41,-794.82 1728.95,-777.95"/>
<polygon fill="midnightblue" stroke="midnightblue" points="1732.25,-779.17 1733.51,-768.65 1725.97,-776.09 1732.25,-779.17"/>
</g>
<!-- Node129 -->
<g id="node40" class="node">
<title>Node129</title>
<g id="a_node40"><a xlink:href="../../d8/d75/communicator_8h.html" target="_top" xlink:title=" ">
<polygon fill="none" stroke="black" points="2276.04,-811 2276.04,-830 2415.04,-830 2415.04,-811 2276.04,-811"/>
<text text-anchor="middle" x="2345.54" y="-818" font-family="Helvetica,sans-Serif" font-size="10.00">includes/communicator.h</text>
</a>
</g>
</g>
<!-- Node3&#45;&gt;Node129 -->
<g id="edge137" class="edge">
<title>Node3&#45;&gt;Node129</title>
<path fill="none" stroke="midnightblue" d="M2031.01,-877.98C2041,-875.98 2051.65,-873.88 2061.54,-872 2103.69,-864.01 2216.62,-844.1 2286.72,-831.8"/>
<polygon fill="midnightblue" stroke="midnightblue" points="2287.49,-835.22 2296.74,-830.04 2286.28,-828.32 2287.49,-835.22"/>
</g>
<!-- Node130 -->
<g id="node41" class="node">
<title>Node130</title>
<g id="a_node41"><a xlink:href="../../da/d92/pointer__hash__map__set_8h.html" target="_top" xlink:title=" ">
<polygon fill="none" stroke="red" points="1471.04,-358.5 1471.04,-388.5 1576.04,-388.5 1576.04,-358.5 1471.04,-358.5"/>
<text text-anchor="start" x="1479.04" y="-376.5" font-family="Helvetica,sans-Serif" font-size="10.00">containers/pointer</text>
<text text-anchor="middle" x="1523.54" y="-365.5" font-family="Helvetica,sans-Serif" font-size="10.00">_hash_map_set.h</text>
</a>
</g>
</g>
<!-- Node3&#45;&gt;Node130 -->
<g id="edge148" class="edge">
<title>Node3&#45;&gt;Node130</title>
<path fill="none" stroke="midnightblue" d="M1926.83,-883.99C1858.95,-879.66 1748.38,-867.92 1658.54,-836 1603.17,-816.33 1594.98,-799.17 1544.54,-769 1503.46,-744.43 1476,-754.73 1452.54,-713 1392.49,-606.14 1473.36,-454.47 1508.59,-397.39"/>
<polygon fill="midnightblue" stroke="midnightblue" points="1511.65,-399.09 1514.01,-388.77 1505.73,-395.37 1511.65,-399.09"/>
</g>
<!-- Node108 -->
<g id="node42" class="node">
<title>Node108</title>
<g id="a_node42"><a xlink:href="../../d0/dac/kratos__flags_8h.html" target="_top" xlink:title=" ">
<polygon fill="none" stroke="red" points="2958.54,-749.5 2958.54,-768.5 3086.54,-768.5 3086.54,-749.5 2958.54,-749.5"/>
<text text-anchor="middle" x="3022.54" y="-756.5" font-family="Helvetica,sans-Serif" font-size="10.00">includes/kratos_flags.h</text>
</a>
</g>
</g>
<!-- Node3&#45;&gt;Node108 -->
<g id="edge153" class="edge">
<title>Node3&#45;&gt;Node108</title>
<path fill="none" stroke="midnightblue" d="M2025.99,-878C2037.32,-875.67 2049.9,-873.4 2061.54,-872 2159.03,-860.27 2854.36,-874.83 2944.54,-836 2973.36,-823.59 2997.6,-795.33 3011.08,-776.99"/>
<polygon fill="midnightblue" stroke="midnightblue" points="3014.05,-778.85 3016.96,-768.66 3008.33,-774.81 3014.05,-778.85"/>
</g>
<!-- Node8&#45;&gt;Node6 -->
<g id="edge9" class="edge">
<title>Node8&#45;&gt;Node6</title>
<path fill="none" stroke="midnightblue" d="M2422.09,-123.46C2456.17,-110.17 2524.82,-84.25 2584.54,-67 2648.76,-48.45 2724.98,-32.46 2769.63,-23.68"/>
<polygon fill="midnightblue" stroke="midnightblue" points="2770.32,-27.11 2779.46,-21.76 2768.98,-20.24 2770.32,-27.11"/>
</g>
<!-- Node9 -->
<g id="node9" class="node">
<title>Node9</title>
<g id="a_node9"><a xlink:title=" ">
<polygon fill="none" stroke="#bfbfbf" points="2187.04,-6 2187.04,-25 2252.04,-25 2252.04,-6 2187.04,-6"/>
<text text-anchor="middle" x="2219.54" y="-13" font-family="Helvetica,sans-Serif" font-size="10.00">stdexcept</text>
</a>
</g>
</g>
<!-- Node8&#45;&gt;Node9 -->
<g id="edge8" class="edge">
<title>Node8&#45;&gt;Node9</title>
<path fill="none" stroke="midnightblue" d="M2393.91,-123.37C2383.13,-109.84 2360.59,-83.46 2336.54,-67 2311.99,-50.19 2280.95,-37.11 2257.01,-28.47"/>
<polygon fill="midnightblue" stroke="midnightblue" points="2258.15,-25.17 2247.56,-25.16 2255.84,-31.77 2258.15,-25.17"/>
</g>
<!-- Node10 -->
<g id="node10" class="node">
<title>Node10</title>
<g id="a_node10"><a xlink:href="../../dc/d25/kratos__export__api_8h.html" target="_top" xlink:title=" ">
<polygon fill="none" stroke="black" points="2305.54,-0.5 2305.54,-30.5 2433.54,-30.5 2433.54,-0.5 2305.54,-0.5"/>
<text text-anchor="start" x="2313.54" y="-18.5" font-family="Helvetica,sans-Serif" font-size="10.00">includes/kratos_export</text>
<text text-anchor="middle" x="2369.54" y="-7.5" font-family="Helvetica,sans-Serif" font-size="10.00">_api.h</text>
</a>
</g>
</g>
<!-- Node8&#45;&gt;Node10 -->
<g id="edge10" class="edge">
<title>Node8&#45;&gt;Node10</title>
<path fill="none" stroke="midnightblue" d="M2405.47,-123.35C2412.01,-110.66 2421.94,-86.42 2414.54,-67 2410.38,-56.08 2402.66,-46.01 2394.76,-37.79"/>
<polygon fill="midnightblue" stroke="midnightblue" points="2397.17,-35.26 2387.57,-30.79 2392.29,-40.27 2397.17,-35.26"/>
</g>
<!-- Node11 -->
<g id="node11" class="node">
<title>Node11</title>
<g id="a_node11"><a xlink:href="../../d9/dc0/smart__pointers_8h.html" target="_top" xlink:title=" ">
<polygon fill="none" stroke="red" points="1926.04,-67.5 1926.04,-86.5 2069.04,-86.5 2069.04,-67.5 1926.04,-67.5"/>
<text text-anchor="middle" x="1997.54" y="-74.5" font-family="Helvetica,sans-Serif" font-size="10.00">includes/smart_pointers.h</text>
</a>
</g>
</g>
<!-- Node8&#45;&gt;Node11 -->
<g id="edge11" class="edge">
<title>Node8&#45;&gt;Node11</title>
<path fill="none" stroke="midnightblue" d="M2350.72,-125.32C2280.65,-115.93 2152.47,-98.76 2071.32,-87.89"/>
<polygon fill="midnightblue" stroke="midnightblue" points="2071.55,-84.39 2061.17,-86.53 2070.62,-91.32 2071.55,-84.39"/>
</g>
<!-- Node15 -->
<g id="node12" class="node">
<title>Node15</title>
<g id="a_node12"><a xlink:href="../../dd/d2d/exception_8h.html" target="_top" xlink:title=" ">
<polygon fill="none" stroke="red" points="2126.04,-67.5 2126.04,-86.5 2243.04,-86.5 2243.04,-67.5 2126.04,-67.5"/>
<text text-anchor="middle" x="2184.54" y="-74.5" font-family="Helvetica,sans-Serif" font-size="10.00">includes/exception.h</text>
</a>
</g>
</g>
<!-- Node8&#45;&gt;Node15 -->
<g id="edge13" class="edge">
<title>Node8&#45;&gt;Node15</title>
<path fill="none" stroke="midnightblue" d="M2366.32,-123.44C2329.03,-114.12 2269.27,-99.18 2228.53,-89"/>
<polygon fill="midnightblue" stroke="midnightblue" points="2229.16,-85.55 2218.61,-86.52 2227.46,-92.34 2229.16,-85.55"/>
</g>
<!-- Node11&#45;&gt;Node5 -->
<g id="edge12" class="edge">
<title>Node11&#45;&gt;Node5</title>
<path fill="none" stroke="midnightblue" d="M1925.92,-72.12C1715.32,-60.71 1102.66,-27.51 939.73,-18.68"/>
<polygon fill="midnightblue" stroke="midnightblue" points="939.83,-15.18 929.66,-18.13 939.45,-22.17 939.83,-15.18"/>
</g>
<!-- Node15&#45;&gt;Node4 -->
<g id="edge15" class="edge">
<title>Node15&#45;&gt;Node4</title>
<path fill="none" stroke="midnightblue" d="M2125.98,-68.69C2121.1,-68.11 2116.24,-67.54 2111.54,-67 1942.98,-47.74 1740.79,-27.36 1663.61,-19.67"/>
<polygon fill="midnightblue" stroke="midnightblue" points="1663.86,-16.18 1653.57,-18.68 1663.17,-23.15 1663.86,-16.18"/>
</g>
<!-- Node15&#45;&gt;Node5 -->
<g id="edge16" class="edge">
<title>Node15&#45;&gt;Node5</title>
<path fill="none" stroke="midnightblue" d="M2125.98,-70.59C2110.56,-69.28 2093.93,-67.98 2078.54,-67 1632.29,-38.51 1089.96,-21.89 939.76,-17.61"/>
<polygon fill="midnightblue" stroke="midnightblue" points="939.73,-14.11 929.63,-17.32 939.53,-21.11 939.73,-14.11"/>
</g>
<!-- Node15&#45;&gt;Node6 -->
<g id="edge17" class="edge">
<title>Node15&#45;&gt;Node6</title>
<path fill="none" stroke="midnightblue" d="M2243.1,-68.62C2247.98,-68.05 2252.85,-67.51 2257.54,-67 2449.48,-46.36 2679.67,-26.95 2769.25,-19.6"/>
<polygon fill="midnightblue" stroke="midnightblue" points="2769.79,-23.07 2779.47,-18.77 2769.21,-16.09 2769.79,-23.07"/>
</g>
<!-- Node15&#45;&gt;Node9 -->
<g id="edge14" class="edge">
<title>Node15&#45;&gt;Node9</title>
<path fill="none" stroke="midnightblue" d="M2189.56,-67.48C2194.7,-58.73 2202.86,-44.87 2209.36,-33.81"/>
<polygon fill="midnightblue" stroke="midnightblue" points="2212.48,-35.4 2214.54,-25.01 2206.45,-31.85 2212.48,-35.4"/>
</g>
<!-- Node15&#45;&gt;Node10 -->
<g id="edge19" class="edge">
<title>Node15&#45;&gt;Node10</title>
<path fill="none" stroke="midnightblue" d="M2211.05,-67.48C2238.33,-58.7 2281.59,-44.79 2316.03,-33.71"/>
<polygon fill="midnightblue" stroke="midnightblue" points="2317.49,-36.92 2325.94,-30.52 2315.35,-30.25 2317.49,-36.92"/>
</g>
<!-- Node16 -->
<g id="node13" class="node">
<title>Node16</title>
<g id="a_node13"><a xlink:title=" ">
<polygon fill="none" stroke="#bfbfbf" points="116.04,-6 116.04,-25 163.04,-25 163.04,-6 116.04,-6"/>
<text text-anchor="middle" x="139.54" y="-13" font-family="Helvetica,sans-Serif" font-size="10.00">vector</text>
</a>
</g>
</g>
<!-- Node15&#45;&gt;Node16 -->
<g id="edge18" class="edge">
<title>Node15&#45;&gt;Node16</title>
<path fill="none" stroke="midnightblue" d="M2125.99,-70.41C2110.57,-69.11 2093.94,-67.85 2078.54,-67 1881.31,-56.07 416.66,-22.75 173.66,-17.27"/>
<polygon fill="midnightblue" stroke="midnightblue" points="173.4,-13.76 163.33,-17.03 173.25,-20.76 173.4,-13.76"/>
</g>
<!-- Node19&#45;&gt;Node4 -->
<g id="edge21" class="edge">
<title>Node19&#45;&gt;Node4</title>
<path fill="none" stroke="midnightblue" d="M1513.19,-302.19C1530.07,-261.46 1600.66,-91.06 1624.01,-34.69"/>
<polygon fill="midnightblue" stroke="midnightblue" points="1627.31,-35.86 1627.91,-25.28 1620.85,-33.18 1627.31,-35.86"/>
</g>
<!-- Node19&#45;&gt;Node5 -->
<g id="edge23" class="edge">
<title>Node19&#45;&gt;Node5</title>
<path fill="none" stroke="midnightblue" d="M1496.06,-302.38C1462.33,-280.89 1371.38,-223.49 1293.54,-179 1193.44,-121.79 1167.55,-107.36 1059.54,-67 1019.11,-51.89 971.88,-37.35 939.27,-27.79"/>
<polygon fill="midnightblue" stroke="midnightblue" points="940.22,-24.42 929.64,-24.98 938.27,-31.14 940.22,-24.42"/>
</g>
<!-- Node19&#45;&gt;Node6 -->
<g id="edge22" class="edge">
<title>Node19&#45;&gt;Node6</title>
<path fill="none" stroke="midnightblue" d="M1538.65,-302.48C1613.77,-280.6 1820.49,-221.25 1994.54,-179 2225.97,-122.82 2284.76,-112.39 2518.54,-67 2608.03,-49.63 2713.64,-31.86 2769.09,-22.75"/>
<polygon fill="midnightblue" stroke="midnightblue" points="2769.87,-26.17 2779.17,-21.09 2768.74,-19.26 2769.87,-26.17"/>
</g>
<!-- Node19&#45;&gt;Node8 -->
<g id="edge24" class="edge">
<title>Node19&#45;&gt;Node8</title>
<path fill="none" stroke="midnightblue" d="M1536.05,-302.44C1609.6,-279.03 1822.77,-213.37 2004.54,-179 2122.64,-156.67 2262.79,-143.93 2340.69,-138.04"/>
<polygon fill="midnightblue" stroke="midnightblue" points="2341.09,-141.52 2350.8,-137.29 2340.57,-134.54 2341.09,-141.52"/>
</g>
<!-- Node19&#45;&gt;Node26 -->
<g id="edge25" class="edge">
<title>Node19&#45;&gt;Node26</title>
<path fill="none" stroke="midnightblue" d="M1452.9,-305.27C1354.61,-295.33 1152.74,-274.92 1045.72,-264.1"/>
<polygon fill="midnightblue" stroke="midnightblue" points="1045.97,-260.6 1035.67,-263.08 1045.27,-267.57 1045.97,-260.6"/>
</g>
<!-- Node31 -->
<g id="node16" class="node">
<title>Node31</title>
<g id="a_node16"><a xlink:href="../../d9/d36/array__1d_8h.html" target="_top" xlink:title=" ">
<polygon fill="none" stroke="red" points="1243.54,-246.5 1243.54,-265.5 1365.54,-265.5 1365.54,-246.5 1243.54,-246.5"/>
<text text-anchor="middle" x="1304.54" y="-253.5" font-family="Helvetica,sans-Serif" font-size="10.00">containers/array_1d.h</text>
</a>
</g>
</g>
<!-- Node19&#45;&gt;Node31 -->
<g id="edge29" class="edge">
<title>Node19&#45;&gt;Node31</title>
<path fill="none" stroke="midnightblue" d="M1477.06,-302.44C1441.82,-293.16 1385.44,-278.31 1346.79,-268.13"/>
<polygon fill="midnightblue" stroke="midnightblue" points="1347.44,-264.68 1336.87,-265.52 1345.65,-271.45 1347.44,-264.68"/>
</g>
<!-- Node26&#45;&gt;Node4 -->
<g id="edge26" class="edge">
<title>Node26&#45;&gt;Node4</title>
<path fill="none" stroke="midnightblue" d="M980.64,-246.2C990.13,-230.56 1011.95,-197.8 1038.54,-179 1221.94,-49.37 1504.42,-23.05 1599.25,-17.79"/>
<polygon fill="midnightblue" stroke="midnightblue" points="1599.55,-21.28 1609.36,-17.27 1599.19,-14.29 1599.55,-21.28"/>
</g>
<!-- Node26&#45;&gt;Node5 -->
<g id="edge27" class="edge">
<title>Node26&#45;&gt;Node5</title>
<path fill="none" stroke="midnightblue" d="M960.52,-246.37C948.38,-238.53 931.98,-225.8 923.54,-210 892.76,-152.34 894.76,-71.57 897.6,-35.36"/>
<polygon fill="midnightblue" stroke="midnightblue" points="901.1,-35.53 898.51,-25.26 894.13,-34.9 901.1,-35.53"/>
</g>
<!-- Node26&#45;&gt;Node15 -->
<g id="edge28" class="edge">
<title>Node26&#45;&gt;Node15</title>
<path fill="none" stroke="midnightblue" d="M986.85,-246.27C1008.86,-229.82 1059.61,-194.48 1108.54,-179 1132.7,-171.36 1882.38,-104.69 2115.84,-84.06"/>
<polygon fill="midnightblue" stroke="midnightblue" points="2116.25,-87.53 2125.9,-83.17 2115.63,-80.56 2116.25,-87.53"/>
</g>
<!-- Node31&#45;&gt;Node4 -->
<g id="edge30" class="edge">
<title>Node31&#45;&gt;Node4</title>
<path fill="none" stroke="midnightblue" d="M1307.58,-246.24C1318.51,-216.07 1358.83,-115.75 1427.54,-67 1479.8,-29.92 1556.36,-19.95 1599.29,-17.34"/>
<polygon fill="midnightblue" stroke="midnightblue" points="1599.64,-20.83 1609.45,-16.83 1599.28,-13.84 1599.64,-20.83"/>
</g>
<!-- Node31&#45;&gt;Node5 -->
<g id="edge31" class="edge">
<title>Node31&#45;&gt;Node5</title>
<path fill="none" stroke="midnightblue" d="M1302.81,-246.32C1299.3,-230.87 1289.99,-198.4 1270.54,-179 1257.46,-165.95 1015.79,-64.8 929.69,-29"/>
<polygon fill="midnightblue" stroke="midnightblue" points="930.8,-25.67 920.22,-25.07 928.11,-32.13 930.8,-25.67"/>
</g>
<!-- Node31&#45;&gt;Node8 -->
<g id="edge32" class="edge">
<title>Node31&#45;&gt;Node8</title>
<path fill="none" stroke="midnightblue" d="M1336.19,-246.44C1397.37,-230.27 1536.33,-195.41 1655.54,-179 1908.69,-144.16 2213.92,-136.29 2340.76,-134.52"/>
<polygon fill="midnightblue" stroke="midnightblue" points="2341.08,-138.01 2351.03,-134.38 2340.99,-131.01 2341.08,-138.01"/>
</g>
<!-- Node35 -->
<g id="node17" class="node">
<title>Node35</title>
<g id="a_node17"><a xlink:href="../../d9/d3e/ublas__interface_8h.html" target="_top" xlink:title=" ">
<polygon fill="none" stroke="red" points="1117.54,-185 1117.54,-204 1261.54,-204 1261.54,-185 1117.54,-185"/>
<text text-anchor="middle" x="1189.54" y="-192" font-family="Helvetica,sans-Serif" font-size="10.00">includes/ublas_interface.h</text>
</a>
</g>
</g>
<!-- Node31&#45;&gt;Node35 -->
<g id="edge33" class="edge">
<title>Node31&#45;&gt;Node35</title>
<path fill="none" stroke="midnightblue" d="M1288.07,-246.48C1268.94,-236.58 1237.17,-220.14 1214.89,-208.62"/>
<polygon fill="midnightblue" stroke="midnightblue" points="1216.48,-205.5 1205.99,-204.01 1213.26,-211.71 1216.48,-205.5"/>
</g>
<!-- Node35&#45;&gt;Node4 -->
<g id="edge34" class="edge">
<title>Node35&#45;&gt;Node4</title>
<path fill="none" stroke="midnightblue" d="M1200.06,-184.88C1228.6,-161.93 1310.72,-98.93 1389.54,-67 1461.29,-37.94 1552.06,-24.76 1599.44,-19.51"/>
<polygon fill="midnightblue" stroke="midnightblue" points="1599.84,-22.99 1609.42,-18.45 1599.1,-16.03 1599.84,-22.99"/>
</g>
<!-- Node35&#45;&gt;Node5 -->
<g id="edge35" class="edge">
<title>Node35&#45;&gt;Node5</title>
<path fill="none" stroke="midnightblue" d="M1176.59,-184.97C1144.97,-164.23 1061.18,-109.71 989.54,-67 967.66,-53.95 942.32,-39.82 924.11,-29.83"/>
<polygon fill="midnightblue" stroke="midnightblue" points="925.75,-26.74 915.3,-25.01 922.39,-32.88 925.75,-26.74"/>
</g>
<!-- Node35&#45;&gt;Node8 -->
<g id="edge36" class="edge">
<title>Node35&#45;&gt;Node8</title>
<path fill="none" stroke="midnightblue" d="M1261.6,-189.63C1317.29,-186.66 1396.3,-182.49 1465.54,-179 1796.03,-162.37 2192.29,-143.73 2340.62,-136.79"/>
<polygon fill="midnightblue" stroke="midnightblue" points="2341.05,-140.28 2350.87,-136.31 2340.72,-133.28 2341.05,-140.28"/>
</g>
<!-- Node57&#45;&gt;Node4 -->
<g id="edge38" class="edge">
<title>Node57&#45;&gt;Node4</title>
<path fill="none" stroke="midnightblue" d="M1893.22,-559.07C1869.56,-525.58 1787.22,-408.31 1780.54,-389 1733.34,-252.42 1835.28,-171.56 1735.54,-67 1715.87,-46.38 1686.03,-33.1 1663.35,-25.36"/>
<polygon fill="midnightblue" stroke="midnightblue" points="1664.4,-22.02 1653.81,-22.28 1662.25,-28.68 1664.4,-22.02"/>
</g>
<!-- Node57&#45;&gt;Node5 -->
<g id="edge39" class="edge">
<title>Node57&#45;&gt;Node5</title>
<path fill="none" stroke="midnightblue" d="M1833.79,-567.16C1626.4,-564.23 994.57,-552.91 907.54,-523 810.16,-489.53 797.23,-455.42 718.54,-389 654.48,-334.93 550.9,-316.95 595.54,-246 615.24,-214.71 646.06,-237.71 670.54,-210 714.93,-159.76 669.93,-113.16 718.54,-67 756.74,-30.73 818.75,-20.12 859.34,-17.24"/>
<polygon fill="midnightblue" stroke="midnightblue" points="859.65,-20.72 869.42,-16.65 859.24,-13.74 859.65,-20.72"/>
</g>
<!-- Node57&#45;&gt;Node6 -->
<g id="edge40" class="edge">
<title>Node57&#45;&gt;Node6</title>
<path fill="none" stroke="midnightblue" d="M1965.07,-567.49C2051.53,-565.41 2207.81,-556.76 2336.54,-523 2480.94,-485.13 2538.87,-494.45 2644.54,-389 2751.12,-282.65 2793.25,-94.95 2804.34,-35.27"/>
<polygon fill="midnightblue" stroke="midnightblue" points="2807.85,-35.56 2806.16,-25.1 2800.96,-34.33 2807.85,-35.56"/>
</g>
<!-- Node57&#45;&gt;Node7 -->
<g id="edge41" class="edge">
<title>Node57&#45;&gt;Node7</title>
<path fill="none" stroke="midnightblue" d="M1965.39,-566.43C2057.91,-563.15 2220.64,-553.16 2270.54,-523 2346.94,-476.83 2392.89,-373.27 2409.01,-331.25"/>
<polygon fill="midnightblue" stroke="midnightblue" points="2412.33,-332.34 2412.54,-321.75 2405.77,-329.9 2412.33,-332.34"/>
</g>
<!-- Node57&#45;&gt;Node8 -->
<g id="edge42" class="edge">
<title>Node57&#45;&gt;Node8</title>
<path fill="none" stroke="midnightblue" d="M1965.3,-566.21C2064.22,-562.59 2245.9,-552.1 2303.54,-523 2336.35,-506.43 2466.07,-370.63 2484.54,-322 2507.12,-262.59 2517.19,-233.53 2484.54,-179 2475.39,-163.72 2459.08,-153.33 2443.26,-146.43"/>
<polygon fill="midnightblue" stroke="midnightblue" points="2444.12,-143 2433.53,-142.56 2441.53,-149.51 2444.12,-143"/>
</g>
<!-- Node57&#45;&gt;Node58 -->
<g id="edge43" class="edge">
<title>Node57&#45;&gt;Node58</title>
<path fill="none" stroke="midnightblue" d="M1875.33,-559.48C1850.52,-550.74 1811.23,-536.91 1779.84,-525.86"/>
<polygon fill="midnightblue" stroke="midnightblue" points="1780.97,-522.54 1770.37,-522.52 1778.64,-529.15 1780.97,-522.54"/>
</g>
<!-- Node58&#45;&gt;Node4 -->
<g id="edge44" class="edge">
<title>Node58&#45;&gt;Node4</title>
<path fill="none" stroke="midnightblue" d="M1701.24,-492.41C1687.01,-483.94 1671.16,-471.73 1662.54,-456 1583.31,-311.38 1615.54,-98.66 1627.69,-35.09"/>
<polygon fill="midnightblue" stroke="midnightblue" points="1631.18,-35.5 1629.7,-25.01 1624.31,-34.13 1631.18,-35.5"/>
</g>
<!-- Node58&#45;&gt;Node5 -->
<g id="edge45" class="edge">
<title>Node58&#45;&gt;Node5</title>
<path fill="none" stroke="midnightblue" d="M1689.92,-492.42C1586.95,-455.65 1309.65,-349.82 1108.54,-210 1027.73,-153.82 946.24,-68.02 913.98,-32.63"/>
<polygon fill="midnightblue" stroke="midnightblue" points="916.5,-30.2 907.19,-25.13 911.31,-34.89 916.5,-30.2"/>
</g>
<!-- Node58&#45;&gt;Node7 -->
<g id="edge46" class="edge">
<title>Node58&#45;&gt;Node7</title>
<path fill="none" stroke="midnightblue" d="M1793.1,-498.37C1886.27,-486.13 2053.5,-463.58 2080.54,-456 2153.59,-435.52 2167.77,-418.78 2237.54,-389 2289.94,-366.63 2351.02,-340.55 2386.29,-325.49"/>
<polygon fill="midnightblue" stroke="midnightblue" points="2387.7,-328.7 2395.52,-321.55 2384.95,-322.26 2387.7,-328.7"/>
</g>
<!-- Node58&#45;&gt;Node8 -->
<g id="edge48" class="edge">
<title>Node58&#45;&gt;Node8</title>
<path fill="none" stroke="midnightblue" d="M1793.1,-497.28C1852.58,-487.77 1937.2,-472.1 1966.54,-456 2041.36,-414.95 2159.16,-222.57 2232.54,-179 2265.49,-159.44 2307.04,-148.22 2340.58,-141.87"/>
<polygon fill="midnightblue" stroke="midnightblue" points="2341.49,-145.26 2350.71,-140.05 2340.25,-138.37 2341.49,-145.26"/>
</g>
<!-- Node58&#45;&gt;Node15 -->
<g id="edge59" class="edge">
<title>Node58&#45;&gt;Node15</title>
<path fill="none" stroke="midnightblue" d="M1759.96,-492.43C1799.59,-472.66 1871.17,-433.99 1923.54,-389 2036.06,-292.34 2139.96,-144.45 2173.38,-94.86"/>
<polygon fill="midnightblue" stroke="midnightblue" points="2176.29,-96.8 2178.94,-86.54 2170.47,-92.91 2176.29,-96.8"/>
</g>
<!-- Node58&#45;&gt;Node16 -->
<g id="edge47" class="edge">
<title>Node58&#45;&gt;Node16</title>
<path fill="none" stroke="midnightblue" d="M1667.97,-501.98C1511.16,-490.03 1089.11,-453.96 742.54,-389 625.26,-367.02 596.84,-356.3 482.54,-322 343.43,-280.25 287.97,-301.95 175.54,-210 129.99,-172.75 129.68,-145.76 126.54,-87 126.07,-78.12 125.43,-75.82 126.54,-67 127.9,-56.28 130.82,-44.59 133.54,-35.15"/>
<polygon fill="midnightblue" stroke="midnightblue" points="136.98,-35.89 136.55,-25.31 130.28,-33.85 136.98,-35.89"/>
</g>
<!-- Node58&#45;&gt;Node59 -->
<g id="edge49" class="edge">
<title>Node58&#45;&gt;Node59</title>
<path fill="none" stroke="midnightblue" d="M1730.54,-492.4C1730.54,-483.06 1730.54,-470.71 1730.54,-460.52"/>
<polygon fill="midnightblue" stroke="midnightblue" points="1734.04,-460.19 1730.54,-450.19 1727.04,-460.19 1734.04,-460.19"/>
</g>
<!-- Node59&#45;&gt;Node4 -->
<g id="edge50" class="edge">
<title>Node59&#45;&gt;Node4</title>
<path fill="none" stroke="midnightblue" d="M1731.48,-430.65C1734.77,-398.88 1745.54,-287.6 1745.54,-195.5 1745.54,-195.5 1745.54,-195.5 1745.54,-132 1745.54,-83.2 1693.35,-47.56 1659.6,-29.61"/>
<polygon fill="midnightblue" stroke="midnightblue" points="1661.12,-26.46 1650.62,-25.02 1657.93,-32.69 1661.12,-26.46"/>
</g>
<!-- Node59&#45;&gt;Node5 -->
<g id="edge51" class="edge">
<title>Node59&#45;&gt;Node5</title>
<path fill="none" stroke="midnightblue" d="M1722.44,-430.93C1700.43,-407.96 1637.06,-343.96 1575.54,-302 1380.31,-168.83 1321.86,-144.34 1098.54,-67 1044.52,-48.29 980.07,-33.2 939.46,-24.54"/>
<polygon fill="midnightblue" stroke="midnightblue" points="940.18,-21.11 929.68,-22.48 938.74,-27.96 940.18,-21.11"/>
</g>
<!-- Node59&#45;&gt;Node8 -->
<g id="edge52" class="edge">
<title>Node59&#45;&gt;Node8</title>
<path fill="none" stroke="midnightblue" d="M1790.45,-435.4C1837.99,-430.02 1904.84,-417.62 1956.54,-389 2004.11,-362.67 1999.11,-334.7 2042.54,-302 2069.24,-281.91 2081.85,-286.09 2108.54,-266 2151.98,-233.3 2146.91,-205.22 2194.54,-179 2239.82,-154.08 2297.81,-142.96 2340.72,-138"/>
<polygon fill="midnightblue" stroke="midnightblue" points="2341.17,-141.47 2350.74,-136.92 2340.42,-134.51 2341.17,-141.47"/>
</g>
<!-- Node59&#45;&gt;Node73 -->
<g id="edge53" class="edge">
<title>Node59&#45;&gt;Node73</title>
<path fill="none" stroke="midnightblue" d="M1748.87,-430.87C1772.48,-419.75 1813.73,-400.32 1841.1,-387.43"/>
<polygon fill="midnightblue" stroke="midnightblue" points="1842.59,-390.59 1850.14,-383.17 1839.6,-384.26 1842.59,-390.59"/>
</g>
<!-- Node73&#45;&gt;Node4 -->
<g id="edge54" class="edge">
<title>Node73&#45;&gt;Node4</title>
<path fill="none" stroke="midnightblue" d="M1872.16,-363.96C1888.18,-324.68 1948.66,-159.41 1873.54,-67 1847.43,-34.88 1723.25,-22.49 1663.63,-18.34"/>
<polygon fill="midnightblue" stroke="midnightblue" points="1663.83,-14.84 1653.62,-17.67 1663.37,-21.83 1663.83,-14.84"/>
</g>
<!-- Node73&#45;&gt;Node5 -->
<g id="edge55" class="edge">
<title>Node73&#45;&gt;Node5</title>
<path fill="none" stroke="midnightblue" d="M1855.66,-363.89C1793.6,-322.86 1518.12,-145.97 1265.54,-67 1151.06,-31.21 1008.54,-20.76 940.03,-17.73"/>
<polygon fill="midnightblue" stroke="midnightblue" points="939.82,-14.22 929.69,-17.3 939.53,-21.21 939.82,-14.22"/>
</g>
<!-- Node73&#45;&gt;Node7 -->
<g id="edge56" class="edge">
<title>Node73&#45;&gt;Node7</title>
<path fill="none" stroke="midnightblue" d="M1914.71,-367.48C2021.21,-355.89 2282.35,-327.49 2378.89,-316.99"/>
<polygon fill="midnightblue" stroke="midnightblue" points="2379.47,-320.44 2389.04,-315.88 2378.72,-313.49 2379.47,-320.44"/>
</g>
<!-- Node73&#45;&gt;Node8 -->
<g id="edge57" class="edge">
<title>Node73&#45;&gt;Node8</title>
<path fill="none" stroke="midnightblue" d="M1875.09,-363.81C1885.64,-350.04 1907.38,-322.65 1928.54,-302 1959.65,-271.66 2040.69,-196.32 2080.54,-179 2126.03,-159.23 2261.33,-145.3 2340.69,-138.58"/>
<polygon fill="midnightblue" stroke="midnightblue" points="2341.35,-142.04 2351.02,-137.72 2340.77,-135.06 2341.35,-142.04"/>
</g>
<!-- Node73&#45;&gt;Node19 -->
<g id="edge58" class="edge">
<title>Node73&#45;&gt;Node19</title>
<path fill="none" stroke="midnightblue" d="M1822.35,-364.84C1758.36,-354.24 1642.6,-335.05 1571.27,-323.23"/>
<polygon fill="midnightblue" stroke="midnightblue" points="1571.51,-319.72 1561.07,-321.54 1570.37,-326.63 1571.51,-319.72"/>
</g>
<!-- Node82&#45;&gt;Node4 -->
<g id="edge62" class="edge">
<title>Node82&#45;&gt;Node4</title>
<path fill="none" stroke="midnightblue" d="M2441.12,-687.84C2446.09,-678 2453.81,-661.31 2457.54,-646 2487.93,-521.31 2507.13,-483.12 2478.54,-358 2472.39,-331.06 2468.59,-323.74 2451.54,-302 2405.67,-243.49 2322.54,-269.85 2322.54,-195.5 2322.54,-195.5 2322.54,-195.5 2322.54,-132 2322.54,-89.54 2291.4,-84.11 2252.54,-67 2145.48,-19.86 1776.02,-16.33 1663.99,-16.37"/>
<polygon fill="midnightblue" stroke="midnightblue" points="1663.67,-12.87 1653.68,-16.38 1663.68,-19.87 1663.67,-12.87"/>
</g>
<!-- Node82&#45;&gt;Node5 -->
<g id="edge63" class="edge">
<title>Node82&#45;&gt;Node5</title>
<path fill="none" stroke="midnightblue" d="M2388.13,-696.13C2256.61,-694.59 1881.92,-686.67 1573.54,-646 1384.12,-621.02 1340.7,-592.24 1152.54,-559 1044.16,-539.86 1009.7,-563.96 907.54,-523 811.97,-484.68 771.82,-477.12 718.54,-389 698.43,-355.73 706.79,-340.78 709.54,-302 718.02,-182.72 755.96,-151.52 840.54,-67 853.13,-54.42 868.42,-41.39 880.28,-31.72"/>
<polygon fill="midnightblue" stroke="midnightblue" points="882.63,-34.32 888.22,-25.32 878.24,-28.87 882.63,-34.32"/>
</g>
<!-- Node82&#45;&gt;Node6 -->
<g id="edge64" class="edge">
<title>Node82&#45;&gt;Node6</title>
<path fill="none" stroke="midnightblue" d="M2480.44,-687.99C2510.86,-680.54 2551.19,-667.48 2581.54,-646 2732.04,-539.52 2779.55,-495.97 2840.54,-322 2876.97,-218.1 2833.21,-83.16 2814.88,-34.77"/>
<polygon fill="midnightblue" stroke="midnightblue" points="2818.1,-33.37 2811.21,-25.32 2811.57,-35.91 2818.1,-33.37"/>
</g>
<!-- Node82&#45;&gt;Node7 -->
<g id="edge65" class="edge">
<title>Node82&#45;&gt;Node7</title>
<path fill="none" stroke="midnightblue" d="M2437.69,-687.93C2440.32,-667.54 2446.54,-614.5 2446.54,-570 2446.54,-570 2446.54,-570 2446.54,-506.5 2446.54,-440.21 2485.91,-419.25 2460.54,-358 2455.62,-346.12 2445.88,-335.74 2436.71,-327.96"/>
<polygon fill="midnightblue" stroke="midnightblue" points="2438.63,-325.01 2428.61,-321.56 2434.29,-330.51 2438.63,-325.01"/>
</g>
<!-- Node82&#45;&gt;Node8 -->
<g id="edge66" class="edge">
<title>Node82&#45;&gt;Node8</title>
<path fill="none" stroke="midnightblue" d="M2474.9,-687.93C2500.45,-680.53 2533.29,-667.54 2555.54,-646 2602.88,-600.19 2674.54,-440.37 2674.54,-374.5 2674.54,-374.5 2674.54,-374.5 2674.54,-255 2674.54,-213.31 2654.57,-201.62 2619.54,-179 2593.68,-162.3 2515.79,-149.02 2460.27,-141.33"/>
<polygon fill="midnightblue" stroke="midnightblue" points="2460.56,-137.84 2450.18,-139.96 2459.62,-144.77 2460.56,-137.84"/>
</g>
<!-- Node82&#45;&gt;Node58 -->
<g id="edge74" class="edge">
<title>Node82&#45;&gt;Node58</title>
<path fill="none" stroke="midnightblue" d="M2412.62,-687.99C2368.83,-672.54 2272.75,-639.25 2190.54,-615 2095.42,-586.95 2071.13,-581.5 1974.54,-559 1917.22,-545.64 1851.9,-532.22 1803.28,-522.57"/>
<polygon fill="midnightblue" stroke="midnightblue" points="1803.65,-519.08 1793.16,-520.57 1802.29,-525.95 1803.65,-519.08"/>
</g>
<!-- Node82&#45;&gt;Node86 -->
<g id="edge67" class="edge">
<title>Node82&#45;&gt;Node86</title>
<path fill="none" stroke="midnightblue" d="M2429.56,-687.89C2395.43,-645.77 2245.62,-460.95 2193.5,-396.65"/>
<polygon fill="midnightblue" stroke="midnightblue" points="2196.1,-394.3 2187.08,-388.74 2190.66,-398.71 2196.1,-394.3"/>
</g>
<!-- Node82&#45;&gt;Node98 -->
<g id="edge75" class="edge">
<title>Node82&#45;&gt;Node98</title>
<path fill="none" stroke="midnightblue" d="M2394.64,-687.94C2343.01,-677.38 2254.42,-659.27 2191.52,-646.42"/>
<polygon fill="midnightblue" stroke="midnightblue" points="2192.16,-642.97 2181.66,-644.4 2190.76,-649.83 2192.16,-642.97"/>
</g>
<!-- Node86&#45;&gt;Node4 -->
<g id="edge69" class="edge">
<title>Node86&#45;&gt;Node4</title>
<path fill="none" stroke="midnightblue" d="M2175.98,-358.39C2176.64,-309.1 2171.62,-143.5 2078.54,-67 2046.56,-40.71 1760.87,-23.33 1663.72,-18.13"/>
<polygon fill="midnightblue" stroke="midnightblue" points="1663.78,-14.63 1653.61,-17.6 1663.41,-21.62 1663.78,-14.63"/>
</g>
<!-- Node86&#45;&gt;Node5 -->
<g id="edge70" class="edge">
<title>Node86&#45;&gt;Node5</title>
<path fill="none" stroke="midnightblue" d="M2143.51,-358.42C2031,-309.58 1642.55,-146.17 1305.54,-67 1173.9,-36.08 1013.51,-23.22 939.94,-18.66"/>
<polygon fill="midnightblue" stroke="midnightblue" points="939.92,-15.15 929.73,-18.04 939.5,-22.14 939.92,-15.15"/>
</g>
<!-- Node86&#45;&gt;Node6 -->
<g id="edge71" class="edge">
<title>Node86&#45;&gt;Node6</title>
<path fill="none" stroke="midnightblue" d="M2207.26,-358.4C2228.74,-348.64 2257.63,-335.09 2282.54,-322 2481.31,-217.51 2712.65,-75.48 2784.85,-30.65"/>
<polygon fill="midnightblue" stroke="midnightblue" points="2786.95,-33.47 2793.6,-25.22 2783.26,-27.52 2786.95,-33.47"/>
</g>
<!-- Node86&#45;&gt;Node7 -->
<g id="edge72" class="edge">
<title>Node86&#45;&gt;Node7</title>
<path fill="none" stroke="midnightblue" d="M2228.21,-359.44C2273.91,-348.11 2338.87,-332.01 2379.05,-322.05"/>
<polygon fill="midnightblue" stroke="midnightblue" points="2380.09,-325.4 2388.95,-319.59 2378.4,-318.6 2380.09,-325.4"/>
</g>
<!-- Node86&#45;&gt;Node8 -->
<g id="edge73" class="edge">
<title>Node86&#45;&gt;Node8</title>
<path fill="none" stroke="midnightblue" d="M2207.18,-358.46C2224.38,-349.72 2245.21,-337.25 2260.54,-322 2313.13,-269.7 2298.27,-235.3 2346.54,-179 2356.32,-167.6 2369.18,-156.75 2379.9,-148.57"/>
<polygon fill="midnightblue" stroke="midnightblue" points="2381.98,-151.38 2387.93,-142.62 2377.82,-145.76 2381.98,-151.38"/>
</g>
<!-- Node86&#45;&gt;Node16 -->
<g id="edge68" class="edge">
<title>Node86&#45;&gt;Node16</title>
<path fill="none" stroke="midnightblue" d="M2122.96,-369.07C2071.99,-365.83 1992.5,-361.05 1923.54,-358 1405.58,-335.11 1273.03,-377.58 757.54,-322 622.25,-307.41 588.49,-299.25 456.54,-266 377.36,-246.05 355.39,-244.86 281.54,-210 275.33,-207.07 181.68,-148.49 177.54,-143 152.92,-110.28 144.16,-61.66 141.11,-35.24"/>
<polygon fill="midnightblue" stroke="midnightblue" points="144.58,-34.69 140.1,-25.09 137.61,-35.39 144.58,-34.69"/>
</g>
<!-- Node98&#45;&gt;Node8 -->
<g id="edge76" class="edge">
<title>Node98&#45;&gt;Node8</title>
<path fill="none" stroke="midnightblue" d="M2181.67,-620.69C2259.85,-607.84 2395.31,-579.12 2498.54,-523 2596.67,-469.66 2636.54,-424.68 2636.54,-313 2636.54,-313 2636.54,-313 2636.54,-255 2636.54,-175.9 2530.26,-148.47 2460.34,-138.99"/>
<polygon fill="midnightblue" stroke="midnightblue" points="2460.67,-135.5 2450.3,-137.71 2459.78,-142.44 2460.67,-135.5"/>
</g>
<!-- Node98&#45;&gt;Node57 -->
<g id="edge78" class="edge">
<title>Node98&#45;&gt;Node57</title>
<path fill="none" stroke="midnightblue" d="M2066.92,-615.47C2028.48,-605.03 1976.68,-590.96 1940.94,-581.25"/>
<polygon fill="midnightblue" stroke="midnightblue" points="1941.42,-577.75 1930.85,-578.51 1939.59,-584.51 1941.42,-577.75"/>
</g>
<!-- Node98&#45;&gt;Node59 -->
<g id="edge77" class="edge">
<title>Node98&#45;&gt;Node59</title>
<path fill="none" stroke="midnightblue" d="M2106.99,-615.27C2093.63,-599.61 2070.28,-574.6 2045.54,-559 1958.37,-504.04 1841.61,-469 1777.54,-452.55"/>
<polygon fill="midnightblue" stroke="midnightblue" points="1778.27,-449.12 1767.72,-450.06 1776.56,-455.91 1778.27,-449.12"/>
</g>
<!-- Node109&#45;&gt;Node8 -->
<g id="edge80" class="edge">
<title>Node109&#45;&gt;Node8</title>
<path fill="none" stroke="midnightblue" d="M2904.36,-425.38C2870.4,-373.37 2752.59,-194.71 2726.54,-179 2704.22,-165.54 2548.01,-148.4 2460.18,-139.67"/>
<polygon fill="midnightblue" stroke="midnightblue" points="2460.37,-136.17 2450.08,-138.67 2459.69,-143.13 2460.37,-136.17"/>
</g>
<!-- Node110&#45;&gt;Node57 -->
<g id="edge95" class="edge">
<title>Node110&#45;&gt;Node57</title>
<path fill="none" stroke="midnightblue" d="M1621.81,-749.47C1644.86,-734.82 1694.04,-704.26 1737.54,-682 1772.97,-663.87 1786.4,-668.04 1819.54,-646 1833.35,-636.82 1865.08,-605.29 1884.17,-585.84"/>
<polygon fill="midnightblue" stroke="midnightblue" points="1886.78,-588.18 1891.26,-578.58 1881.77,-583.29 1886.78,-588.18"/>
</g>
<!-- Node111 -->
<g id="node27" class="node">
<title>Node111</title>
<g id="a_node27"><a xlink:href="../../d8/dbb/properties_8h.html" target="_top" xlink:title=" ">
<polygon fill="none" stroke="red" points="1582.04,-621 1582.04,-640 1701.04,-640 1701.04,-621 1582.04,-621"/>
<text text-anchor="middle" x="1641.54" y="-628" font-family="Helvetica,sans-Serif" font-size="10.00">includes/properties.h</text>
</a>
</g>
</g>
<!-- Node110&#45;&gt;Node111 -->
<g id="edge82" class="edge">
<title>Node110&#45;&gt;Node111</title>
<path fill="none" stroke="midnightblue" d="M1610.81,-749.31C1616.11,-728.99 1629.4,-678.05 1636.65,-650.28"/>
<polygon fill="midnightblue" stroke="midnightblue" points="1640.12,-650.82 1639.26,-640.26 1633.35,-649.05 1640.12,-650.82"/>
</g>
<!-- Node114 -->
<g id="node29" class="node">
<title>Node114</title>
<g id="a_node29"><a xlink:href="../../d5/d6d/geometrical__object_8h.html" target="_top" xlink:title=" ">
<polygon fill="none" stroke="red" points="1766.04,-682.5 1766.04,-712.5 1885.04,-712.5 1885.04,-682.5 1766.04,-682.5"/>
<text text-anchor="start" x="1774.04" y="-700.5" font-family="Helvetica,sans-Serif" font-size="10.00">includes/geometrical</text>
<text text-anchor="middle" x="1825.54" y="-689.5" font-family="Helvetica,sans-Serif" font-size="10.00">_object.h</text>
</a>
</g>
</g>
<!-- Node110&#45;&gt;Node114 -->
<g id="edge96" class="edge">
<title>Node110&#45;&gt;Node114</title>
<path fill="none" stroke="midnightblue" d="M1639.63,-749.48C1672.11,-740.57 1723.9,-726.37 1764.58,-715.22"/>
<polygon fill="midnightblue" stroke="midnightblue" points="1765.68,-718.54 1774.4,-712.52 1763.83,-711.79 1765.68,-718.54"/>
</g>
<!-- Node115 -->
<g id="node30" class="node">
<title>Node115</title>
<g id="a_node30"><a xlink:href="../../d6/ddf/constitutive__law_8h.html" target="_top" xlink:title=" ">
<polygon fill="none" stroke="red" points="1461.54,-682.5 1461.54,-712.5 1579.54,-712.5 1579.54,-682.5 1461.54,-682.5"/>
<text text-anchor="start" x="1469.54" y="-700.5" font-family="Helvetica,sans-Serif" font-size="10.00">includes/constitutive</text>
<text text-anchor="middle" x="1520.54" y="-689.5" font-family="Helvetica,sans-Serif" font-size="10.00">_law.h</text>
</a>
</g>
</g>
<!-- Node110&#45;&gt;Node115 -->
<g id="edge98" class="edge">
<title>Node110&#45;&gt;Node115</title>
<path fill="none" stroke="midnightblue" d="M1595.94,-749.48C1583.91,-741.34 1565.34,-728.79 1549.65,-718.18"/>
<polygon fill="midnightblue" stroke="midnightblue" points="1551.53,-715.22 1541.28,-712.52 1547.61,-721.02 1551.53,-715.22"/>
</g>
<!-- Node105 -->
<g id="node32" class="node">
<title>Node105</title>
<g id="a_node32"><a xlink:href="../../de/d44/global__pointers__vector_8h.html" target="_top" xlink:title=" ">
<polygon fill="none" stroke="red" points="751.54,-358.5 751.54,-388.5 897.54,-388.5 897.54,-358.5 751.54,-358.5"/>
<text text-anchor="start" x="759.54" y="-376.5" font-family="Helvetica,sans-Serif" font-size="10.00">containers/global_pointers</text>
<text text-anchor="middle" x="824.54" y="-365.5" font-family="Helvetica,sans-Serif" font-size="10.00">_vector.h</text>
</a>
</g>
</g>
<!-- Node110&#45;&gt;Node105 -->
<g id="edge130" class="edge">
<title>Node110&#45;&gt;Node105</title>
<path fill="none" stroke="midnightblue" d="M1553.33,-758.09C1454.14,-757.22 1239.71,-750.68 1063.54,-713 975.98,-694.27 951.7,-689.69 873.54,-646 769.3,-587.73 714.01,-571.47 683.54,-456 680.03,-442.68 675.61,-436.27 683.54,-425 692.49,-412.29 723.84,-400.44 754.71,-391.41"/>
<polygon fill="midnightblue" stroke="midnightblue" points="756.02,-394.68 764.68,-388.58 754.11,-387.94 756.02,-394.68"/>
</g>
<!-- Node110&#45;&gt;Node124 -->
<g id="edge129" class="edge">
<title>Node110&#45;&gt;Node124</title>
<path fill="none" stroke="midnightblue" d="M1553.41,-756.03C1485.39,-752.4 1366.81,-742.09 1269.54,-713 1214.39,-696.5 1154.85,-663.95 1123.26,-645.36"/>
<polygon fill="midnightblue" stroke="midnightblue" points="1124.77,-642.19 1114.39,-640.08 1121.19,-648.2 1124.77,-642.19"/>
</g>
<!-- Node111&#45;&gt;Node4 -->
<g id="edge83" class="edge">
<title>Node111&#45;&gt;Node4</title>
<path fill="none" stroke="midnightblue" d="M1631.78,-620.94C1594.57,-587.41 1462.75,-459.97 1444.54,-322 1429.36,-206.99 1520.23,-114.32 1560.54,-67 1573.38,-51.93 1591.64,-39.08 1606.43,-30.11"/>
<polygon fill="midnightblue" stroke="midnightblue" points="1608.24,-33.1 1615.11,-25.04 1604.71,-27.06 1608.24,-33.1"/>
</g>
<!-- Node111&#45;&gt;Node5 -->
<g id="edge84" class="edge">
<title>Node111&#45;&gt;Node5</title>
<path fill="none" stroke="midnightblue" d="M1586.25,-620.97C1495.71,-607.14 1310.14,-579.3 1152.54,-559 1011.91,-540.88 966.44,-577.52 835.54,-523 704.89,-468.58 656.27,-446.28 588.54,-322 572.31,-292.22 571.86,-278.51 581.54,-246 595.11,-200.46 659.84,-94.57 698.54,-67 746.73,-32.67 815.95,-21.61 859.29,-18.08"/>
<polygon fill="midnightblue" stroke="midnightblue" points="859.74,-21.56 869.46,-17.36 859.24,-14.58 859.74,-21.56"/>
</g>
<!-- Node111&#45;&gt;Node7 -->
<g id="edge85" class="edge">
<title>Node111&#45;&gt;Node7</title>
<path fill="none" stroke="midnightblue" d="M1652.68,-620.89C1672.12,-606.23 1713.98,-576.33 1753.54,-559 1914.21,-488.61 1969.22,-514.63 2134.54,-456 2203.74,-431.46 2220.19,-422.47 2285.54,-389 2324.3,-369.15 2367.65,-342.96 2393.21,-327.08"/>
<polygon fill="midnightblue" stroke="midnightblue" points="2395.16,-330 2401.79,-321.73 2391.45,-324.06 2395.16,-330"/>
</g>
<!-- Node111&#45;&gt;Node8 -->
<g id="edge86" class="edge">
<title>Node111&#45;&gt;Node8</title>
<path fill="none" stroke="midnightblue" d="M1662.02,-620.97C1695.77,-607.06 1765.34,-579.06 1825.54,-559 2107.79,-464.98 2298.75,-577.26 2451.54,-322 2485.52,-265.24 2437.8,-185.46 2413.39,-150.97"/>
<polygon fill="midnightblue" stroke="midnightblue" points="2415.93,-148.52 2407.21,-142.51 2410.28,-152.65 2415.93,-148.52"/>
</g>
<!-- Node111&#45;&gt;Node57 -->
<g id="edge88" class="edge">
<title>Node111&#45;&gt;Node57</title>
<path fill="none" stroke="midnightblue" d="M1678.51,-620.98C1724.39,-610.39 1802.69,-592.34 1852.73,-580.8"/>
<polygon fill="midnightblue" stroke="midnightblue" points="1853.69,-584.17 1862.65,-578.51 1852.12,-577.35 1853.69,-584.17"/>
</g>
<!-- Node111&#45;&gt;Node58 -->
<g id="edge87" class="edge">
<title>Node111&#45;&gt;Node58</title>
<path fill="none" stroke="midnightblue" d="M1644.9,-620.72C1650.44,-606.82 1662.43,-579.27 1677.54,-559 1685.5,-548.33 1695.81,-537.95 1705.22,-529.39"/>
<polygon fill="midnightblue" stroke="midnightblue" points="1707.66,-531.91 1712.84,-522.67 1703.03,-526.66 1707.66,-531.91"/>
</g>
<!-- Node111&#45;&gt;Node113 -->
<g id="edge89" class="edge">
<title>Node111&#45;&gt;Node113</title>
<path fill="none" stroke="midnightblue" d="M1609.36,-620.99C1554.1,-606.61 1437.47,-577.29 1337.54,-559 1225.98,-538.58 1094.28,-522.68 1020.69,-514.53"/>
<polygon fill="midnightblue" stroke="midnightblue" points="1021.03,-511.05 1010.7,-513.43 1020.26,-518.01 1021.03,-511.05"/>
</g>
<!-- Node113&#45;&gt;Node4 -->
<g id="edge90" class="edge">
<title>Node113&#45;&gt;Node4</title>
<path fill="none" stroke="midnightblue" d="M962.94,-497.91C960.66,-472.4 950.32,-396.45 906.54,-358 855.36,-313.04 799.68,-375.53 757.54,-322 731.26,-288.62 781.49,-264.73 807.54,-246 971.64,-128.04 1030.46,-119.77 1225.54,-67 1360.92,-30.38 1528.97,-20.21 1598.78,-17.47"/>
<polygon fill="midnightblue" stroke="midnightblue" points="1599.25,-20.96 1609.12,-17.09 1599,-13.96 1599.25,-20.96"/>
</g>
<!-- Node113&#45;&gt;Node5 -->
<g id="edge91" class="edge">
<title>Node113&#45;&gt;Node5</title>
<path fill="none" stroke="midnightblue" d="M950.15,-497.83C925.85,-482.27 872.65,-449.01 825.54,-425 789.72,-406.74 770.42,-417.98 742.54,-389 720.4,-365.98 722.42,-353.4 716.54,-322 710.22,-288.24 716.08,-277.15 730.54,-246 771.84,-157.06 800.42,-145.23 859.54,-67 868.11,-55.66 878.03,-43.13 885.85,-33.39"/>
<polygon fill="midnightblue" stroke="midnightblue" points="888.79,-35.33 892.34,-25.34 883.34,-30.93 888.79,-35.33"/>
</g>
<!-- Node113&#45;&gt;Node8 -->
<g id="edge93" class="edge">
<title>Node113&#45;&gt;Node8</title>
<path fill="none" stroke="midnightblue" d="M1010.65,-501.14C1200.77,-479.44 1902.52,-398.85 1923.54,-389 1941.77,-380.47 1941.85,-371.75 1956.54,-358 2042.66,-277.37 2046.7,-231.1 2152.54,-179 2212.36,-149.56 2288.81,-139.22 2340.91,-135.68"/>
<polygon fill="midnightblue" stroke="midnightblue" points="2341.23,-139.17 2350.99,-135.06 2340.8,-132.18 2341.23,-139.17"/>
</g>
<!-- Node113&#45;&gt;Node26 -->
<g id="edge92" class="edge">
<title>Node113&#45;&gt;Node26</title>
<path fill="none" stroke="midnightblue" d="M965.27,-497.81C969.63,-474.96 980.49,-411.26 977.54,-358 976.65,-341.93 974.43,-338.07 973.54,-322 973.05,-313.12 973.35,-310.89 973.54,-302 973.73,-293.39 974.13,-283.86 974.52,-275.8"/>
<polygon fill="midnightblue" stroke="midnightblue" points="978.03,-275.79 975.05,-265.62 971.04,-275.43 978.03,-275.79"/>
</g>
<!-- Node113&#45;&gt;Node59 -->
<g id="edge94" class="edge">
<title>Node113&#45;&gt;Node59</title>
<path fill="none" stroke="midnightblue" d="M1010.66,-502.51C1140.89,-491.47 1506.29,-460.5 1660.49,-447.44"/>
<polygon fill="midnightblue" stroke="midnightblue" points="1661.11,-450.9 1670.78,-446.56 1660.52,-443.92 1661.11,-450.9"/>
</g>
<!-- Node114&#45;&gt;Node8 -->
<g id="edge97" class="edge">
<title>Node114&#45;&gt;Node8</title>
<path fill="none" stroke="midnightblue" d="M1862.12,-682.42C1905.8,-665.75 1981.17,-637.41 2046.54,-615 2174.46,-571.15 2220.24,-591.98 2336.54,-523 2456.7,-451.73 2498.17,-404.36 2517.54,-266 2522.96,-227.34 2529.83,-209.56 2505.54,-179 2492.72,-162.87 2473.02,-152.42 2454.12,-145.7"/>
<polygon fill="midnightblue" stroke="midnightblue" points="2454.95,-142.29 2444.36,-142.51 2452.78,-148.94 2454.95,-142.29"/>
</g>
<!-- Node115&#45;&gt;Node8 -->
<g id="edge99" class="edge">
<title>Node115&#45;&gt;Node8</title>
<path fill="none" stroke="midnightblue" d="M1579.57,-686.94C1618.18,-679.23 1668.98,-666.27 1710.54,-646 1768.15,-617.91 1769.91,-590.82 1825.54,-559 1997.5,-460.66 2084.19,-514.38 2237.54,-389 2320.77,-320.96 2375.08,-198.8 2393.53,-152.48"/>
<polygon fill="midnightblue" stroke="midnightblue" points="2396.91,-153.46 2397.28,-142.87 2390.39,-150.92 2396.91,-153.46"/>
</g>
<!-- Node115&#45;&gt;Node19 -->
<g id="edge100" class="edge">
<title>Node115&#45;&gt;Node19</title>
<path fill="none" stroke="midnightblue" d="M1524.44,-682.11C1540.76,-621.27 1602.03,-386.92 1585.54,-358 1577.13,-343.25 1561.78,-332.84 1547.06,-325.77"/>
<polygon fill="midnightblue" stroke="midnightblue" points="1548.12,-322.42 1537.56,-321.6 1545.31,-328.83 1548.12,-322.42"/>
</g>
<!-- Node115&#45;&gt;Node35 -->
<g id="edge122" class="edge">
<title>Node115&#45;&gt;Node35</title>
<path fill="none" stroke="midnightblue" d="M1492.57,-682.37C1420.75,-645.86 1234.36,-549.35 1217.54,-523 1153.34,-422.39 1175.35,-267.57 1185.56,-214.28"/>
<polygon fill="midnightblue" stroke="midnightblue" points="1189.04,-214.74 1187.58,-204.25 1182.18,-213.36 1189.04,-214.74"/>
</g>
<!-- Node115&#45;&gt;Node57 -->
<g id="edge121" class="edge">
<title>Node115&#45;&gt;Node57</title>
<path fill="none" stroke="midnightblue" d="M1579.63,-691.55C1633.75,-685.53 1715.28,-672.64 1781.54,-646 1805.11,-636.53 1808.2,-628.76 1829.54,-615 1845.53,-604.7 1863.58,-593.1 1877.35,-584.25"/>
<polygon fill="midnightblue" stroke="midnightblue" points="1879.6,-586.97 1886.12,-578.62 1875.81,-581.08 1879.6,-586.97"/>
</g>
<!-- Node115&#45;&gt;Node58 -->
<g id="edge128" class="edge">
<title>Node115&#45;&gt;Node58</title>
<path fill="none" stroke="midnightblue" d="M1527.51,-682.33C1536.48,-665.05 1553.34,-635.61 1573.54,-615 1609.59,-578.25 1660.15,-546.67 1694.06,-527.65"/>
<polygon fill="midnightblue" stroke="midnightblue" points="1696.09,-530.53 1703.16,-522.63 1692.71,-524.4 1696.09,-530.53"/>
</g>
<!-- Node115&#45;&gt;Node111 -->
<g id="edge113" class="edge">
<title>Node115&#45;&gt;Node111</title>
<path fill="none" stroke="midnightblue" d="M1546.8,-682.4C1567.56,-671.24 1596.34,-655.78 1616.72,-644.83"/>
<polygon fill="midnightblue" stroke="midnightblue" points="1618.55,-647.82 1625.71,-640.01 1615.24,-641.66 1618.55,-647.82"/>
</g>
<!-- Node116 -->
<g id="node31" class="node">
<title>Node116</title>
<g id="a_node31"><a xlink:href="../../de/dca/variables_8h.html" target="_top" xlink:title=" ">
<polygon fill="none" stroke="red" points="1226.54,-498 1226.54,-517 1340.54,-517 1340.54,-498 1226.54,-498"/>
<text text-anchor="middle" x="1283.54" y="-505" font-family="Helvetica,sans-Serif" font-size="10.00">includes/variables.h</text>
</a>
</g>
</g>
<!-- Node115&#45;&gt;Node116 -->
<g id="edge101" class="edge">
<title>Node115&#45;&gt;Node116</title>
<path fill="none" stroke="midnightblue" d="M1513.04,-682.38C1497.79,-654.94 1460.61,-594.04 1413.54,-559 1388.66,-540.47 1356.12,-527.84 1329.82,-519.84"/>
<polygon fill="midnightblue" stroke="midnightblue" points="1330.65,-516.44 1320.07,-517 1328.7,-523.16 1330.65,-516.44"/>
</g>
<!-- Node115&#45;&gt;Node96 -->
<g id="edge114" class="edge">
<title>Node115&#45;&gt;Node96</title>
<path fill="none" stroke="midnightblue" d="M1483.02,-682.46C1389.52,-647.5 1153.6,-559.27 1152.54,-559 1099.25,-545.29 943.64,-564.53 907.54,-523 859.44,-467.65 944.09,-420.99 906.54,-358 897.52,-342.87 881.42,-332.48 865.86,-325.53"/>
<polygon fill="midnightblue" stroke="midnightblue" points="866.89,-322.17 856.31,-321.64 864.25,-328.65 866.89,-322.17"/>
</g>
<!-- Node115&#45;&gt;Node124 -->
<g id="edge123" class="edge">
<title>Node115&#45;&gt;Node124</title>
<path fill="none" stroke="midnightblue" d="M1461.26,-687.32C1383.19,-675.24 1246.4,-654.07 1165.57,-641.56"/>
<polygon fill="midnightblue" stroke="midnightblue" points="1165.94,-638.08 1155.52,-640.01 1164.87,-645 1165.94,-638.08"/>
</g>
<!-- Node116&#45;&gt;Node4 -->
<g id="edge102" class="edge">
<title>Node116&#45;&gt;Node4</title>
<path fill="none" stroke="midnightblue" d="M1286.72,-497.74C1295.46,-474.18 1321.29,-407.86 1352.54,-358 1437.9,-221.85 1570.85,-79.39 1615.96,-32.49"/>
<polygon fill="midnightblue" stroke="midnightblue" points="1618.67,-34.72 1623.11,-25.1 1613.64,-29.85 1618.67,-34.72"/>
</g>
<!-- Node116&#45;&gt;Node5 -->
<g id="edge103" class="edge">
<title>Node116&#45;&gt;Node5</title>
<path fill="none" stroke="midnightblue" d="M1275.71,-497.93C1229.02,-446.87 988.64,-183.45 961.54,-143 937.36,-106.91 916.89,-60 906.62,-34.66"/>
<polygon fill="midnightblue" stroke="midnightblue" points="909.81,-33.22 902.86,-25.22 903.31,-35.8 909.81,-33.22"/>
</g>
<!-- Node116&#45;&gt;Node8 -->
<g id="edge104" class="edge">
<title>Node116&#45;&gt;Node8</title>
<path fill="none" stroke="midnightblue" d="M1340.76,-505.42C1436.72,-502.61 1635.69,-492.49 1799.54,-456 1886.53,-436.63 1908.38,-427.95 1988.54,-389 2145.58,-312.69 2170.63,-268.5 2320.54,-179 2338.79,-168.11 2359.73,-156.36 2375.61,-147.59"/>
<polygon fill="midnightblue" stroke="midnightblue" points="2377.69,-150.44 2384.77,-142.56 2374.32,-144.31 2377.69,-150.44"/>
</g>
<!-- Node116&#45;&gt;Node31 -->
<g id="edge107" class="edge">
<title>Node116&#45;&gt;Node31</title>
<path fill="none" stroke="midnightblue" d="M1284.27,-497.91C1287.26,-462.3 1298.76,-325.75 1302.98,-275.61"/>
<polygon fill="midnightblue" stroke="midnightblue" points="1306.47,-275.81 1303.82,-265.55 1299.5,-275.22 1306.47,-275.81"/>
</g>
<!-- Node116&#45;&gt;Node35 -->
<g id="edge106" class="edge">
<title>Node116&#45;&gt;Node35</title>
<path fill="none" stroke="midnightblue" d="M1280.93,-497.86C1268.26,-455.92 1213.05,-273.26 1195.16,-214.08"/>
<polygon fill="midnightblue" stroke="midnightblue" points="1198.43,-212.81 1192.19,-204.25 1191.73,-214.83 1198.43,-212.81"/>
</g>
<!-- Node116&#45;&gt;Node59 -->
<g id="edge105" class="edge">
<title>Node116&#45;&gt;Node59</title>
<path fill="none" stroke="midnightblue" d="M1340.61,-498.2C1422.68,-486.27 1573.82,-464.29 1661.89,-451.48"/>
<polygon fill="midnightblue" stroke="midnightblue" points="1662.65,-454.91 1672.04,-450.01 1661.65,-447.98 1662.65,-454.91"/>
</g>
<!-- Node116&#45;&gt;Node105 -->
<g id="edge108" class="edge">
<title>Node116&#45;&gt;Node105</title>
<path fill="none" stroke="midnightblue" d="M1253.78,-497.94C1179.07,-476.46 982.52,-419.93 883.43,-391.44"/>
<polygon fill="midnightblue" stroke="midnightblue" points="884.16,-388 873.58,-388.6 882.22,-394.73 884.16,-388"/>
</g>
<!-- Node105&#45;&gt;Node5 -->
<g id="edge110" class="edge">
<title>Node105&#45;&gt;Node5</title>
<path fill="none" stroke="midnightblue" d="M771.08,-358.46C752.76,-350.82 734.21,-339.26 723.54,-322 718.87,-314.44 721.76,-310.71 723.54,-302 728.99,-275.47 732.21,-268.32 747.54,-246 760.54,-227.09 770.34,-228.02 784.54,-210 831.67,-150.23 873.66,-69.4 891.04,-34.15"/>
<polygon fill="midnightblue" stroke="midnightblue" points="894.21,-35.64 895.45,-25.11 887.92,-32.57 894.21,-35.64"/>
</g>
<!-- Node105&#45;&gt;Node8 -->
<g id="edge111" class="edge">
<title>Node105&#45;&gt;Node8</title>
<path fill="none" stroke="midnightblue" d="M897.46,-358.47C1117.59,-316.16 1766.26,-191.97 1862.54,-179 2035.47,-155.71 2241.4,-142.5 2340.88,-137.02"/>
<polygon fill="midnightblue" stroke="midnightblue" points="2341.24,-140.51 2351.04,-136.47 2340.86,-133.52 2341.24,-140.51"/>
</g>
<!-- Node105&#45;&gt;Node16 -->
<g id="edge109" class="edge">
<title>Node105&#45;&gt;Node16</title>
<path fill="none" stroke="midnightblue" d="M751.45,-360.77C659.98,-344.89 499.32,-313.03 367.54,-266 340.96,-256.51 278.26,-223.63 253.54,-210 203.75,-182.54 173.27,-192.08 144.54,-143 124.81,-109.29 130.07,-61.43 135.12,-35.3"/>
<polygon fill="midnightblue" stroke="midnightblue" points="138.61,-35.76 137.28,-25.25 131.76,-34.29 138.61,-35.76"/>
</g>
<!-- Node105&#45;&gt;Node19 -->
<g id="edge112" class="edge">
<title>Node105&#45;&gt;Node19</title>
<path fill="none" stroke="midnightblue" d="M897.85,-366.13C1031.76,-354.5 1313.99,-329.99 1442.84,-318.79"/>
<polygon fill="midnightblue" stroke="midnightblue" points="1443.31,-322.27 1452.97,-317.91 1442.7,-315.29 1443.31,-322.27"/>
</g>
<!-- Node96&#45;&gt;Node2 -->
<g id="edge115" class="edge">
<title>Node96&#45;&gt;Node2</title>
<path fill="none" stroke="midnightblue" d="M766.82,-302.48C653,-285.18 403.77,-244.62 324.54,-210 302.96,-200.57 301.06,-192.2 281.54,-179 265.58,-168.2 247.19,-156.57 233.13,-147.83"/>
<polygon fill="midnightblue" stroke="midnightblue" points="234.93,-144.83 224.58,-142.55 231.25,-150.79 234.93,-144.83"/>
</g>
<!-- Node96&#45;&gt;Node26 -->
<g id="edge117" class="edge">
<title>Node96&#45;&gt;Node26</title>
<path fill="none" stroke="midnightblue" d="M848.47,-302.44C873.76,-293.4 913.85,-279.06 942.22,-268.92"/>
<polygon fill="midnightblue" stroke="midnightblue" points="943.49,-272.18 951.73,-265.52 941.13,-265.59 943.49,-272.18"/>
</g>
<!-- Node96&#45;&gt;Node31 -->
<g id="edge120" class="edge">
<title>Node96&#45;&gt;Node31</title>
<path fill="none" stroke="midnightblue" d="M883.4,-304.38C971.68,-294.45 1138.15,-275.72 1233.21,-265.03"/>
<polygon fill="midnightblue" stroke="midnightblue" points="1233.76,-268.48 1243.31,-263.89 1232.98,-261.53 1233.76,-268.48"/>
</g>
<!-- Node96&#45;&gt;Node35 -->
<g id="edge118" class="edge">
<title>Node96&#45;&gt;Node35</title>
<path fill="none" stroke="midnightblue" d="M820.33,-302.19C814.42,-288.4 805.85,-261.69 819.54,-246 838.19,-224.64 1004.11,-208.89 1107.33,-201.06"/>
<polygon fill="midnightblue" stroke="midnightblue" points="1107.71,-204.54 1117.42,-200.3 1107.19,-197.56 1107.71,-204.54"/>
</g>
<!-- Node78 -->
<g id="node34" class="node">
<title>Node78</title>
<g id="a_node34"><a xlink:title=" ">
<polygon fill="none" stroke="#bfbfbf" points="828.04,-246.5 828.04,-265.5 897.04,-265.5 897.04,-246.5 828.04,-246.5"/>
<text text-anchor="middle" x="862.54" y="-253.5" font-family="Helvetica,sans-Serif" font-size="10.00">type_traits</text>
</a>
</g>
</g>
<!-- Node96&#45;&gt;Node78 -->
<g id="edge116" class="edge">
<title>Node96&#45;&gt;Node78</title>
<path fill="none" stroke="midnightblue" d="M830.82,-302.08C836.19,-294.46 844.06,-283.26 850.62,-273.94"/>
<polygon fill="midnightblue" stroke="midnightblue" points="853.49,-275.94 856.39,-265.75 847.77,-271.91 853.49,-275.94"/>
</g>
<!-- Node70 -->
<g id="node35" class="node">
<title>Node70</title>
<g id="a_node35"><a xlink:href="../../d5/dfb/global__variables_8h.html" target="_top" xlink:title=" ">
<polygon fill="none" stroke="black" points="366.04,-123.5 366.04,-142.5 515.04,-142.5 515.04,-123.5 366.04,-123.5"/>
<text text-anchor="middle" x="440.54" y="-130.5" font-family="Helvetica,sans-Serif" font-size="10.00">includes/global_variables.h</text>
</a>
</g>
</g>
<!-- Node96&#45;&gt;Node70 -->
<g id="edge119" class="edge">
<title>Node96&#45;&gt;Node70</title>
<path fill="none" stroke="midnightblue" d="M806.02,-302.46C743.94,-273.85 542.94,-181.2 468.56,-146.91"/>
<polygon fill="midnightblue" stroke="midnightblue" points="469.88,-143.67 459.33,-142.66 466.95,-150.02 469.88,-143.67"/>
</g>
<!-- Node124&#45;&gt;Node19 -->
<g id="edge126" class="edge">
<title>Node124&#45;&gt;Node19</title>
<path fill="none" stroke="midnightblue" d="M1164.76,-620.97C1228.52,-609.31 1325.23,-582.57 1385.54,-523 1443.12,-466.13 1415.4,-423.77 1462.54,-358 1470.48,-346.92 1481.38,-336.29 1490.68,-328.14"/>
<polygon fill="midnightblue" stroke="midnightblue" points="1492.95,-330.81 1498.33,-321.68 1488.43,-325.46 1492.95,-330.81"/>
</g>
<!-- Node124&#45;&gt;Node35 -->
<g id="edge127" class="edge">
<title>Node124&#45;&gt;Node35</title>
<path fill="none" stroke="midnightblue" d="M1114.03,-620.96C1126.58,-612.16 1144.5,-597.18 1152.54,-579 1212.46,-443.58 1126.3,-389.32 1163.54,-246 1166.56,-234.38 1172.59,-222.4 1178.08,-213.02"/>
<polygon fill="midnightblue" stroke="midnightblue" points="1181.18,-214.66 1183.46,-204.31 1175.22,-210.98 1181.18,-214.66"/>
</g>
<!-- Node125 -->
<g id="node37" class="node">
<title>Node125</title>
<g id="a_node37"><a xlink:title=" ">
<polygon fill="none" stroke="#bfbfbf" points="953.54,-559.5 953.54,-578.5 1021.54,-578.5 1021.54,-559.5 953.54,-559.5"/>
<text text-anchor="middle" x="987.54" y="-566.5" font-family="Helvetica,sans-Serif" font-size="10.00">filesystem</text>
</a>
</g>
</g>
<!-- Node124&#45;&gt;Node125 -->
<g id="edge124" class="edge">
<title>Node124&#45;&gt;Node125</title>
<path fill="none" stroke="midnightblue" d="M1084.35,-620.98C1065.64,-611.12 1034.62,-594.79 1012.75,-583.27"/>
<polygon fill="midnightblue" stroke="midnightblue" points="1014.18,-580.07 1003.7,-578.51 1010.92,-586.27 1014.18,-580.07"/>
</g>
<!-- Node126 -->
<g id="node38" class="node">
<title>Node126</title>
<g id="a_node38"><a xlink:title=" ">
<polygon fill="none" stroke="#bfbfbf" points="1039.54,-559.5 1039.54,-578.5 1143.54,-578.5 1143.54,-559.5 1039.54,-559.5"/>
<text text-anchor="middle" x="1091.54" y="-566.5" font-family="Helvetica,sans-Serif" font-size="10.00">json/json_fwd.hpp</text>
</a>
</g>
</g>
<!-- Node124&#45;&gt;Node126 -->
<g id="edge125" class="edge">
<title>Node124&#45;&gt;Node126</title>
<path fill="none" stroke="midnightblue" d="M1099.25,-620.98C1097.98,-612.58 1096,-599.48 1094.37,-588.66"/>
<polygon fill="midnightblue" stroke="midnightblue" points="1097.79,-587.87 1092.83,-578.51 1090.87,-588.92 1097.79,-587.87"/>
</g>
<!-- Node128&#45;&gt;Node57 -->
<g id="edge133" class="edge">
<title>Node128&#45;&gt;Node57</title>
<path fill="none" stroke="midnightblue" d="M1738.23,-749.27C1738.14,-733.75 1740.21,-701.17 1757.54,-682 1789.22,-646.96 1821.59,-676.64 1857.54,-646 1875.52,-630.68 1887.23,-605.64 1893.6,-588.52"/>
<polygon fill="midnightblue" stroke="midnightblue" points="1897.07,-589.19 1897.03,-578.6 1890.46,-586.91 1897.07,-589.19"/>
</g>
<!-- Node128&#45;&gt;Node111 -->
<g id="edge132" class="edge">
<title>Node128&#45;&gt;Node111</title>
<path fill="none" stroke="midnightblue" d="M1731.88,-749.31C1715.96,-728.54 1675.49,-675.77 1654.55,-648.46"/>
<polygon fill="midnightblue" stroke="midnightblue" points="1657.12,-646.06 1648.26,-640.26 1651.57,-650.32 1657.12,-646.06"/>
</g>
<!-- Node128&#45;&gt;Node114 -->
<g id="edge134" class="edge">
<title>Node128&#45;&gt;Node114</title>
<path fill="none" stroke="midnightblue" d="M1751.01,-749.48C1762.9,-741.34 1781.25,-728.79 1796.77,-718.18"/>
<polygon fill="midnightblue" stroke="midnightblue" points="1798.76,-721.06 1805.04,-712.52 1794.81,-715.28 1798.76,-721.06"/>
</g>
<!-- Node128&#45;&gt;Node105 -->
<g id="edge136" class="edge">
<title>Node128&#45;&gt;Node105</title>
<path fill="none" stroke="midnightblue" d="M1681.32,-750.07C1678.35,-749.7 1675.41,-749.34 1672.54,-749 1377.27,-714.12 1272.15,-789.12 1011.54,-646 943.78,-608.79 931.95,-586.97 888.54,-523 861.33,-482.89 841.71,-429.34 831.83,-398.72"/>
<polygon fill="midnightblue" stroke="midnightblue" points="835.08,-397.4 828.74,-388.91 828.4,-399.5 835.08,-397.4"/>
</g>
<!-- Node128&#45;&gt;Node124 -->
<g id="edge135" class="edge">
<title>Node128&#45;&gt;Node124</title>
<path fill="none" stroke="midnightblue" d="M1681.36,-750.23C1623.47,-742.08 1531.49,-728.33 1452.54,-713 1340.61,-691.26 1210.16,-659.31 1143.93,-642.6"/>
<polygon fill="midnightblue" stroke="midnightblue" points="1144.42,-639.11 1133.86,-640.05 1142.7,-645.9 1144.42,-639.11"/>
</g>
<!-- Node129&#45;&gt;Node4 -->
<g id="edge138" class="edge">
<title>Node129&#45;&gt;Node4</title>
<path fill="none" stroke="midnightblue" d="M2321.85,-811C2282.89,-795.32 2209.54,-757.91 2209.54,-698.5 2209.54,-698.5 2209.54,-698.5 2209.54,-629.5 2209.54,-423.58 1923.31,-563.22 1813.54,-389 1750.24,-288.54 1823.59,-236.45 1788.54,-123 1780.15,-95.82 1778.87,-85.83 1757.54,-67 1730.75,-43.35 1691.5,-30 1663.94,-23.05"/>
<polygon fill="midnightblue" stroke="midnightblue" points="1664.54,-19.59 1654,-20.68 1662.92,-26.4 1664.54,-19.59"/>
</g>
<!-- Node129&#45;&gt;Node5 -->
<g id="edge139" class="edge">
<title>Node129&#45;&gt;Node5</title>
<path fill="none" stroke="midnightblue" d="M2275.64,-817.27C2028.8,-808.92 1199.02,-776.66 941.54,-713 790.27,-675.6 720.35,-696.11 617.54,-579 483.8,-426.64 502.9,-297.84 605.54,-123 620.65,-97.27 617.76,-83.61 642.54,-67 677.52,-43.56 796.38,-27.6 859.46,-20.57"/>
<polygon fill="midnightblue" stroke="midnightblue" points="859.89,-24.05 869.45,-19.48 859.13,-17.09 859.89,-24.05"/>
</g>
<!-- Node129&#45;&gt;Node6 -->
<g id="edge140" class="edge">
<title>Node129&#45;&gt;Node6</title>
<path fill="none" stroke="midnightblue" d="M2415.25,-817.39C2554.65,-811.27 2854.54,-787.74 2854.54,-698.5 2854.54,-698.5 2854.54,-698.5 2854.54,-629.5 2854.54,-533.94 2941.67,-542.84 2981.54,-456 2997.06,-422.2 3000.54,-411.69 3000.54,-374.5 3000.54,-374.5 3000.54,-374.5 3000.54,-311 3000.54,-185 2875.42,-70.98 2826.67,-31.33"/>
<polygon fill="midnightblue" stroke="midnightblue" points="2828.75,-28.52 2818.75,-25.01 2824.38,-33.99 2828.75,-28.52"/>
</g>
<!-- Node129&#45;&gt;Node7 -->
<g id="edge141" class="edge">
<title>Node129&#45;&gt;Node7</title>
<path fill="none" stroke="midnightblue" d="M2346.76,-810.71C2354.89,-751.87 2401.44,-415.04 2412.96,-331.67"/>
<polygon fill="midnightblue" stroke="midnightblue" points="2416.45,-332.02 2414.35,-321.64 2409.51,-331.06 2416.45,-332.02"/>
</g>
<!-- Node129&#45;&gt;Node8 -->
<g id="edge142" class="edge">
<title>Node129&#45;&gt;Node8</title>
<path fill="none" stroke="midnightblue" d="M2415.07,-813.11C2457.92,-806.75 2512.67,-794.1 2555.54,-769 2619.87,-731.34 2639.92,-714.4 2669.54,-646 2710.81,-550.71 2737.28,-240.4 2653.54,-179 2623.53,-156.99 2525.2,-144.56 2460.33,-138.57"/>
<polygon fill="midnightblue" stroke="midnightblue" points="2460.49,-135.07 2450.22,-137.66 2459.87,-142.04 2460.49,-135.07"/>
</g>
<!-- Node129&#45;&gt;Node82 -->
<g id="edge145" class="edge">
<title>Node129&#45;&gt;Node82</title>
<path fill="none" stroke="midnightblue" d="M2352.09,-810.8C2367.11,-790.83 2404.26,-741.42 2423.91,-715.3"/>
<polygon fill="midnightblue" stroke="midnightblue" points="2426.85,-717.22 2430.06,-707.12 2421.25,-713.01 2426.85,-717.22"/>
</g>
<!-- Node129&#45;&gt;Node110 -->
<g id="edge144" class="edge">
<title>Node129&#45;&gt;Node110</title>
<path fill="none" stroke="midnightblue" d="M2275.65,-815.75C2155.02,-808.95 1899.76,-793.13 1673.73,-769.06"/>
<polygon fill="midnightblue" stroke="midnightblue" points="1673.99,-765.57 1663.67,-767.98 1673.24,-772.53 1673.99,-765.57"/>
</g>
<!-- Node129&#45;&gt;Node128 -->
<g id="edge143" class="edge">
<title>Node129&#45;&gt;Node128</title>
<path fill="none" stroke="midnightblue" d="M2275.91,-812.67C2158.33,-801.15 1921.9,-777.97 1805.88,-766.6"/>
<polygon fill="midnightblue" stroke="midnightblue" points="1806,-763.1 1795.71,-765.6 1805.32,-770.06 1806,-763.1"/>
</g>
<!-- Node130&#45;&gt;Node8 -->
<g id="edge150" class="edge">
<title>Node130&#45;&gt;Node8</title>
<path fill="none" stroke="midnightblue" d="M1576.21,-364.7C1654.06,-351.78 1803.06,-321.67 1918.54,-266 1956.34,-247.78 1961.39,-235.71 1994.54,-210 2011.77,-196.64 2012.49,-187.55 2032.54,-179 2086.7,-155.91 2251.4,-142.84 2340.98,-137.26"/>
<polygon fill="midnightblue" stroke="midnightblue" points="2341.22,-140.75 2350.99,-136.65 2340.8,-133.77 2341.22,-140.75"/>
</g>
<!-- Node130&#45;&gt;Node19 -->
<g id="edge151" class="edge">
<title>Node130&#45;&gt;Node19</title>
<path fill="none" stroke="midnightblue" d="M1520.23,-358.4C1518.34,-350.38 1515.95,-340.23 1513.91,-331.57"/>
<polygon fill="midnightblue" stroke="midnightblue" points="1517.28,-330.59 1511.58,-321.66 1510.46,-332.19 1517.28,-330.59"/>
</g>
<!-- Node130&#45;&gt;Node78 -->
<g id="edge149" class="edge">
<title>Node130&#45;&gt;Node78</title>
<path fill="none" stroke="midnightblue" d="M1471.03,-364C1366.06,-346.88 1122.63,-306.57 907.03,-266.04"/>
<polygon fill="midnightblue" stroke="midnightblue" points="907.59,-262.59 897.11,-264.18 906.29,-269.47 907.59,-262.59"/>
</g>
<!-- Node108&#45;&gt;Node8 -->
<g id="edge154" class="edge">
<title>Node108&#45;&gt;Node8</title>
<path fill="none" stroke="midnightblue" d="M3029.17,-749.34C3043.58,-729.6 3076.54,-679.26 3076.54,-631.5 3076.54,-631.5 3076.54,-631.5 3076.54,-506.5 3076.54,-316.72 2976.87,-254.01 2802.54,-179 2742.48,-153.16 2557.09,-141.1 2460.49,-136.45"/>
<polygon fill="midnightblue" stroke="midnightblue" points="2460.44,-132.94 2450.29,-135.97 2460.11,-139.93 2460.44,-132.94"/>
</g>
<!-- Node132&#45;&gt;Node5 -->
<g id="edge162" class="edge">
<title>Node132&#45;&gt;Node5</title>
<path fill="none" stroke="midnightblue" d="M163.32,-248.47C259.12,-238.65 426.66,-220.15 435.54,-210 444.62,-199.63 443,-190.59 435.54,-179 414.67,-146.55 377.42,-175.45 356.54,-143 351.74,-135.52 351.32,-130.19 356.54,-123 415.86,-41.3 743.82,-21.97 859.3,-17.66"/>
<polygon fill="midnightblue" stroke="midnightblue" points="859.61,-21.15 869.48,-17.3 859.36,-14.16 859.61,-21.15"/>
</g>
<!-- Node132&#45;&gt;Node16 -->
<g id="edge161" class="edge">
<title>Node132&#45;&gt;Node16</title>
<path fill="none" stroke="midnightblue" d="M58.29,-246.48C38.55,-239.99 16.36,-228.84 4.54,-210 -2.78,-198.33 1.01,-192.32 4.54,-179 19.26,-123.59 30.06,-109.5 68.54,-67 81.91,-52.24 100.31,-39.3 115.03,-30.22"/>
<polygon fill="midnightblue" stroke="midnightblue" points="116.85,-33.21 123.64,-25.08 113.26,-27.2 116.85,-33.21"/>
</g>
<!-- Node133 -->
<g id="node44" class="node">
<title>Node133</title>
<g id="a_node44"><a xlink:title=" ">
<polygon fill="none" stroke="#bfbfbf" points="75.54,-185 75.54,-204 125.54,-204 125.54,-185 75.54,-185"/>
<text text-anchor="middle" x="100.54" y="-192" font-family="Helvetica,sans-Serif" font-size="10.00">stdio.h</text>
</a>
</g>
</g>
<!-- Node132&#45;&gt;Node133 -->
<g id="edge160" class="edge">
<title>Node132&#45;&gt;Node133</title>
<path fill="none" stroke="midnightblue" d="M97.97,-246.48C98.4,-238.08 99.06,-224.98 99.6,-214.16"/>
<polygon fill="midnightblue" stroke="midnightblue" points="103.11,-214.17 100.11,-204.01 96.12,-213.82 103.11,-214.17"/>
</g>
<!-- Node134 -->
<g id="node45" class="node">
<title>Node134</title>
<g id="a_node45"><a xlink:title=" ">
<polygon fill="none" stroke="#bfbfbf" points="13.54,-185 13.54,-204 57.54,-204 57.54,-185 13.54,-185"/>
<text text-anchor="middle" x="35.54" y="-192" font-family="Helvetica,sans-Serif" font-size="10.00">ctime</text>
</a>
</g>
</g>
<!-- Node132&#45;&gt;Node134 -->
<g id="edge163" class="edge">
<title>Node132&#45;&gt;Node134</title>
<path fill="none" stroke="midnightblue" d="M88.66,-246.48C79.08,-237.28 63.63,-222.46 51.86,-211.16"/>
<polygon fill="midnightblue" stroke="midnightblue" points="54.05,-208.41 44.41,-204.01 49.2,-213.46 54.05,-208.41"/>
</g>
<!-- Node63 -->
<g id="node46" class="node">
<title>Node63</title>
<g id="a_node46"><a xlink:href="../../de/d07/parallel__utilities_8h.html" target="_top" xlink:title=" ">
<polygon fill="none" stroke="red" points="334.04,-179.5 334.04,-209.5 427.04,-209.5 427.04,-179.5 334.04,-179.5"/>
<text text-anchor="start" x="342.04" y="-197.5" font-family="Helvetica,sans-Serif" font-size="10.00">utilities/parallel</text>
<text text-anchor="middle" x="380.54" y="-186.5" font-family="Helvetica,sans-Serif" font-size="10.00">_utilities.h</text>
</a>
</g>
</g>
<!-- Node132&#45;&gt;Node63 -->
<g id="edge164" class="edge">
<title>Node132&#45;&gt;Node63</title>
<path fill="none" stroke="midnightblue" d="M138.09,-246.48C186.87,-236.22 269.03,-218.94 324.02,-207.38"/>
<polygon fill="midnightblue" stroke="midnightblue" points="324.89,-210.78 333.95,-205.3 323.45,-203.93 324.89,-210.78"/>
</g>
<!-- Node63&#45;&gt;Node2 -->
<g id="edge167" class="edge">
<title>Node63&#45;&gt;Node2</title>
<path fill="none" stroke="midnightblue" d="M340.26,-179.4C310.87,-169.12 271.53,-155.34 243.9,-145.68"/>
<polygon fill="midnightblue" stroke="midnightblue" points="244.89,-142.31 234.29,-142.31 242.58,-148.92 244.89,-142.31"/>
</g>
<!-- Node63&#45;&gt;Node5 -->
<g id="edge165" class="edge">
<title>Node63&#45;&gt;Node5</title>
<path fill="none" stroke="midnightblue" d="M357.07,-179.32C344.92,-170.54 331.25,-158.07 324.54,-143 310.82,-112.14 301.73,-91.91 324.54,-67 360.55,-27.69 734,-18.84 859.02,-16.97"/>
<polygon fill="midnightblue" stroke="midnightblue" points="859.35,-20.47 869.3,-16.82 859.26,-13.47 859.35,-20.47"/>
</g>
<!-- Node63&#45;&gt;Node8 -->
<g id="edge168" class="edge">
<title>Node63&#45;&gt;Node8</title>
<path fill="none" stroke="midnightblue" d="M427.5,-192.12C696.36,-184.2 2039,-144.65 2340.41,-135.77"/>
<polygon fill="midnightblue" stroke="midnightblue" points="2340.8,-139.26 2350.69,-135.47 2340.59,-132.26 2340.8,-139.26"/>
</g>
<!-- Node63&#45;&gt;Node16 -->
<g id="edge166" class="edge">
<title>Node63&#45;&gt;Node16</title>
<path fill="none" stroke="midnightblue" d="M350.36,-179.39C331.43,-170.03 306.85,-156.95 286.54,-143 235.45,-107.91 181.83,-57.88 155.73,-32.54"/>
<polygon fill="midnightblue" stroke="midnightblue" points="157.86,-29.72 148.27,-25.22 152.96,-34.72 157.86,-29.72"/>
</g>
<!-- Node63&#45;&gt;Node70 -->
<g id="edge169" class="edge">
<title>Node63&#45;&gt;Node70</title>
<path fill="none" stroke="midnightblue" d="M394.76,-179.4C403.75,-170.49 415.38,-158.95 424.67,-149.74"/>
<polygon fill="midnightblue" stroke="midnightblue" points="427.18,-152.18 431.81,-142.66 422.25,-147.21 427.18,-152.18"/>
</g>
<!-- Node135&#45;&gt;Node8 -->
<g id="edge173" class="edge">
<title>Node135&#45;&gt;Node8</title>
<path fill="none" stroke="midnightblue" d="M2054.05,-947.22C2319.95,-943.77 3174.43,-925.74 3254.54,-836 3434.23,-634.72 3314.25,-424.08 3111.54,-246 3054.55,-195.93 3028.2,-197.2 2954.54,-179 2862.17,-156.18 2583.36,-141.81 2460.17,-136.42"/>
<polygon fill="midnightblue" stroke="midnightblue" points="2460.3,-132.92 2450.15,-135.99 2459.99,-139.92 2460.3,-132.92"/>
</g>
<!-- Node135&#45;&gt;Node116 -->
<g id="edge182" class="edge">
<title>Node135&#45;&gt;Node116</title>
<path fill="none" stroke="midnightblue" d="M1897.03,-947.62C1619.3,-945.47 695.25,-931.18 607.54,-836 577.21,-803.08 610.21,-681.2 873.54,-559 932.9,-531.46 1115.96,-517.52 1216.21,-511.79"/>
<polygon fill="midnightblue" stroke="midnightblue" points="1216.45,-515.28 1226.24,-511.23 1216.06,-508.29 1216.45,-515.28"/>
</g>
<!-- Node136 -->
<g id="node48" class="node">
<title>Node136</title>
<g id="a_node48"><a xlink:href="../../d3/dec/kratos__application_8h.html" target="_top" xlink:title=" ">
<polygon fill="none" stroke="red" points="1736.04,-811 1736.04,-830 1895.04,-830 1895.04,-811 1736.04,-811"/>
<text text-anchor="middle" x="1815.54" y="-818" font-family="Helvetica,sans-Serif" font-size="10.00">includes/kratos_application.h</text>
</a>
</g>
</g>
<!-- Node135&#45;&gt;Node136 -->
<g id="edge174" class="edge">
<title>Node135&#45;&gt;Node136</title>
<path fill="none" stroke="midnightblue" d="M1964.61,-939.38C1953.14,-930.32 1934.57,-915.67 1918.54,-903 1889.12,-879.74 1854.98,-852.72 1834.33,-836.38"/>
<polygon fill="midnightblue" stroke="midnightblue" points="1836.38,-833.53 1826.37,-830.07 1832.03,-839.02 1836.38,-833.53"/>
</g>
<!-- Node228 -->
<g id="node49" class="node">
<title>Node228</title>
<g id="a_node49"><a xlink:href="../../db/d0c/structural__mechanics__application__variables_8h.html" target="_top" xlink:title=" ">
<polygon fill="none" stroke="red" points="3110.04,-805.5 3110.04,-835.5 3245.04,-835.5 3245.04,-805.5 3110.04,-805.5"/>
<text text-anchor="start" x="3118.04" y="-823.5" font-family="Helvetica,sans-Serif" font-size="10.00">structural_mechanics</text>
<text text-anchor="middle" x="3177.54" y="-812.5" font-family="Helvetica,sans-Serif" font-size="10.00">_application_variables.h</text>
</a>
</g>
</g>
<!-- Node135&#45;&gt;Node228 -->
<g id="edge183" class="edge">
<title>Node135&#45;&gt;Node228</title>
<path fill="none" stroke="midnightblue" d="M2054.2,-942.19C2237.33,-928.2 2706.22,-889.81 3095.54,-836 3097.02,-835.8 3098.51,-835.58 3100.01,-835.37"/>
<polygon fill="midnightblue" stroke="midnightblue" points="3100.67,-838.81 3110.04,-833.85 3099.63,-831.89 3100.67,-838.81"/>
</g>
<!-- Node230 -->
<g id="node50" class="node">
<title>Node230</title>
<g id="a_node50"><a xlink:href="../../df/d97/poromechanics__application__variables_8h.html" target="_top" xlink:title=" ">
<polygon fill="none" stroke="red" points="2070.54,-872.5 2070.54,-902.5 2220.54,-902.5 2220.54,-872.5 2070.54,-872.5"/>
<text text-anchor="start" x="2078.54" y="-890.5" font-family="Helvetica,sans-Serif" font-size="10.00">poromechanics_application</text>
<text text-anchor="middle" x="2145.54" y="-879.5" font-family="Helvetica,sans-Serif" font-size="10.00">_variables.h</text>
</a>
</g>
</g>
<!-- Node135&#45;&gt;Node230 -->
<g id="edge185" class="edge">
<title>Node135&#45;&gt;Node230</title>
<path fill="none" stroke="midnightblue" d="M1999.9,-939.48C2024.86,-930.74 2064.38,-916.91 2095.96,-905.86"/>
<polygon fill="midnightblue" stroke="midnightblue" points="2097.2,-909.13 2105.48,-902.52 2094.88,-902.52 2097.2,-909.13"/>
</g>
<!-- Node136&#45;&gt;Node4 -->
<g id="edge175" class="edge">
<title>Node136&#45;&gt;Node4</title>
<path fill="none" stroke="midnightblue" d="M1895.17,-815.8C2024.04,-807.89 2284.96,-783.82 2493.54,-713 2552.49,-692.99 2572.48,-689.97 2616.54,-646 2745.67,-517.14 2761.16,-420.67 2708.54,-246 2699.18,-214.93 2703.92,-200.41 2679.54,-179 2522.84,-41.38 1822.77,-20.07 1663.75,-16.99"/>
<polygon fill="midnightblue" stroke="midnightblue" points="1663.72,-13.49 1653.66,-16.81 1663.59,-20.49 1663.72,-13.49"/>
</g>
<!-- Node136&#45;&gt;Node5 -->
<g id="edge176" class="edge">
<title>Node136&#45;&gt;Node5</title>
<path fill="none" stroke="midnightblue" d="M1735.93,-817.9C1618.83,-814.42 1393.69,-803.46 1205.54,-769 1116.85,-752.76 1096.56,-740.04 1010.54,-713 879.69,-671.87 827.49,-677.98 732.54,-579 602.26,-443.18 510.66,-347.97 593.54,-179 620.37,-124.31 621.75,-100.62 672.54,-67 729.78,-29.11 811.12,-19.27 859.3,-16.94"/>
<polygon fill="midnightblue" stroke="midnightblue" points="859.49,-20.44 869.35,-16.54 859.21,-13.44 859.49,-20.44"/>
</g>
<!-- Node136&#45;&gt;Node26 -->
<g id="edge181" class="edge">
<title>Node136&#45;&gt;Node26</title>
<path fill="none" stroke="midnightblue" d="M1735.78,-813.59C1570.5,-800.43 1196.37,-765.67 1080.54,-713 997.34,-675.16 962.69,-662.06 924.54,-579 896.9,-518.81 1014.09,-530.9 1019.54,-523 1074.3,-443.69 1012.52,-319.89 986.23,-274.47"/>
<polygon fill="midnightblue" stroke="midnightblue" points="989.19,-272.6 981.08,-265.78 983.17,-276.17 989.19,-272.6"/>
</g>
<!-- Node136&#45;&gt;Node98 -->
<g id="edge180" class="edge">
<title>Node136&#45;&gt;Node98</title>
<path fill="none" stroke="midnightblue" d="M1829.35,-810.93C1875.02,-782.6 2021.96,-691.42 2087.03,-651.05"/>
<polygon fill="midnightblue" stroke="midnightblue" points="2089,-653.95 2095.65,-645.7 2085.31,-648 2089,-653.95"/>
</g>
<!-- Node136&#45;&gt;Node110 -->
<g id="edge177" class="edge">
<title>Node136&#45;&gt;Node110</title>
<path fill="none" stroke="midnightblue" d="M1785.89,-810.98C1749.61,-800.55 1688.08,-782.86 1647.88,-771.31"/>
<polygon fill="midnightblue" stroke="midnightblue" points="1648.72,-767.91 1638.15,-768.51 1646.79,-774.64 1648.72,-767.91"/>
</g>
<!-- Node136&#45;&gt;Node114 -->
<g id="edge179" class="edge">
<title>Node136&#45;&gt;Node114</title>
<path fill="none" stroke="midnightblue" d="M1816.26,-810.8C1817.77,-792.6 1821.29,-749.98 1823.54,-722.79"/>
<polygon fill="midnightblue" stroke="midnightblue" points="1827.05,-722.79 1824.38,-712.54 1820.07,-722.22 1827.05,-722.79"/>
</g>
<!-- Node136&#45;&gt;Node128 -->
<g id="edge178" class="edge">
<title>Node136&#45;&gt;Node128</title>
<path fill="none" stroke="midnightblue" d="M1804.51,-810.98C1792.28,-801.52 1772.32,-786.1 1757.55,-774.69"/>
<polygon fill="midnightblue" stroke="midnightblue" points="1759.61,-771.85 1749.56,-768.51 1755.33,-777.39 1759.61,-771.85"/>
</g>
<!-- Node228&#45;&gt;Node8 -->
<g id="edge184" class="edge">
<title>Node228&#45;&gt;Node8</title>
<path fill="none" stroke="midnightblue" d="M3180.05,-805.4C3183.83,-782.88 3190.54,-737.38 3190.54,-698.5 3190.54,-698.5 3190.54,-698.5 3190.54,-439.5 3190.54,-415.3 3109.27,-261.33 3090.54,-246 3045.48,-209.11 3017.58,-234.06 2964.54,-210 2941.42,-199.51 2940.57,-187.23 2916.54,-179 2833.66,-150.59 2577.97,-139.36 2460.58,-135.61"/>
<polygon fill="midnightblue" stroke="midnightblue" points="2460.45,-132.11 2450.34,-135.29 2460.23,-139.1 2460.45,-132.11"/>
</g>
<!-- Node230&#45;&gt;Node8 -->
<g id="edge186" class="edge">
<title>Node230&#45;&gt;Node8</title>
<path fill="none" stroke="midnightblue" d="M2220.73,-883.74C2432.21,-875.8 3019.37,-852.41 3057.54,-836 3077.48,-827.43 3116.81,-787.25 3128.54,-769 3146.44,-741.16 3152.54,-731.6 3152.54,-698.5 3152.54,-698.5 3152.54,-698.5 3152.54,-629.5 3152.54,-474.02 3132.27,-418.71 3029.54,-302 3004.35,-273.38 2995.55,-268.19 2964.54,-246 2916.76,-211.79 2906.41,-197.24 2850.54,-179 2779.57,-155.83 2565.73,-142.25 2460.43,-136.8"/>
<polygon fill="midnightblue" stroke="midnightblue" points="2460.45,-133.3 2450.29,-136.28 2460.1,-140.29 2460.45,-133.3"/>
</g>
<!-- Node230&#45;&gt;Node116 -->
<g id="edge188" class="edge">
<title>Node230&#45;&gt;Node116</title>
<path fill="none" stroke="midnightblue" d="M2070.47,-873.3C2067.46,-872.85 2064.47,-872.41 2061.54,-872 1913.68,-851.29 1875.42,-856.62 1727.54,-836 1548.45,-811.02 925.54,-879.32 925.54,-698.5 925.54,-698.5 925.54,-698.5 925.54,-629.5 925.54,-597.05 920.31,-580.59 944.54,-559 983.65,-524.16 1129.26,-513.36 1216.42,-510.01"/>
<polygon fill="midnightblue" stroke="midnightblue" points="1216.62,-513.5 1226.49,-509.64 1216.37,-506.51 1216.62,-513.5"/>
</g>
<!-- Node230&#45;&gt;Node136 -->
<g id="edge187" class="edge">
<title>Node230&#45;&gt;Node136</title>
<path fill="none" stroke="midnightblue" d="M2074.34,-872.48C2012.63,-860.32 1924.69,-843 1868.88,-832.01"/>
<polygon fill="midnightblue" stroke="midnightblue" points="1869.33,-828.53 1858.84,-830.03 1867.98,-835.4 1869.33,-828.53"/>
</g>
<!-- Node230&#45;&gt;Node228 -->
<g id="edge189" class="edge">
<title>Node230&#45;&gt;Node228</title>
<path fill="none" stroke="midnightblue" d="M2220.62,-885.62C2381.51,-883.04 2771.26,-873.15 3095.54,-836 3096.84,-835.85 3098.14,-835.7 3099.45,-835.53"/>
<polygon fill="midnightblue" stroke="midnightblue" points="3100.18,-838.97 3109.62,-834.17 3099.25,-832.03 3100.18,-838.97"/>
</g>
</g>
</svg>
