<?xml version="1.0" encoding="UTF-8" standalone="no"?>
<!DOCTYPE svg PUBLIC "-//W3C//DTD SVG 1.1//EN"
 "http://www.w3.org/Graphics/SVG/1.1/DTD/svg11.dtd">
<!-- Generated by graphviz version 2.43.0 (0)
 -->
<!-- Title: /home/runner/work/Documentation/Documentation/master/kratos/utilities/split_triangle.h Pages: 1 -->
<svg width="1652pt" height="428pt"
 viewBox="0.00 0.00 1652.00 428.00" xmlns="http://www.w3.org/2000/svg" xmlns:xlink="http://www.w3.org/1999/xlink">
<g id="graph0" class="graph" transform="scale(1 1) rotate(0) translate(4 424)">
<title>/home/runner/work/Documentation/Documentation/master/kratos/utilities/split_triangle.h</title>
<!-- Node1 -->
<g id="node1" class="node">
<title>Node1</title>
<g id="a_node1"><a xlink:title=" ">
<polygon fill="#bfbfbf" stroke="black" points="531,-378.5 531,-419.5 718,-419.5 718,-378.5 531,-378.5"/>
<text text-anchor="start" x="539" y="-407.5" font-family="Helvetica,sans-Serif" font-size="10.00">/home/runner/work/Documentation</text>
<text text-anchor="start" x="539" y="-396.5" font-family="Helvetica,sans-Serif" font-size="10.00">/Documentation/master/kratos</text>
<text text-anchor="middle" x="624.5" y="-385.5" font-family="Helvetica,sans-Serif" font-size="10.00">/utilities/split_triangle.h</text>
</a>
</g>
</g>
<!-- Node2 -->
<g id="node2" class="node">
<title>Node2</title>
<g id="a_node2"><a xlink:href="../../d0/dca/cutting__utility_8h.html" target="_top" xlink:title=" ">
<polygon fill="none" stroke="black" points="0,-295 0,-336 187,-336 187,-295 0,-295"/>
<text text-anchor="start" x="8" y="-324" font-family="Helvetica,sans-Serif" font-size="10.00">/home/runner/work/Documentation</text>
<text text-anchor="start" x="8" y="-313" font-family="Helvetica,sans-Serif" font-size="10.00">/Documentation/master/kratos</text>
<text text-anchor="middle" x="93.5" y="-302" font-family="Helvetica,sans-Serif" font-size="10.00">/utilities/cutting_utility.h</text>
</a>
</g>
</g>
<!-- Node1&#45;&gt;Node2 -->
<g id="edge1" class="edge">
<title>Node1&#45;&gt;Node2</title>
<path fill="none" stroke="midnightblue" d="M520.53,-387.82C433.32,-378.47 305.71,-362.9 195.5,-342 186.35,-340.27 176.8,-338.21 167.37,-336.03"/>
<polygon fill="midnightblue" stroke="midnightblue" points="520.38,-391.32 530.7,-388.9 521.12,-384.36 520.38,-391.32"/>
</g>
<!-- Node4 -->
<g id="node4" class="node">
<title>Node4</title>
<g id="a_node4"><a xlink:href="../../d1/d5c/divide__triangle__2d__3_8cpp.html" target="_top" xlink:title=" ">
<polygon fill="none" stroke="black" points="205,-295 205,-336 392,-336 392,-295 205,-295"/>
<text text-anchor="start" x="213" y="-324" font-family="Helvetica,sans-Serif" font-size="10.00">/home/runner/work/Documentation</text>
<text text-anchor="start" x="213" y="-313" font-family="Helvetica,sans-Serif" font-size="10.00">/Documentation/master/kratos</text>
<text text-anchor="middle" x="298.5" y="-302" font-family="Helvetica,sans-Serif" font-size="10.00">/utilities/divide_triangle_2d_3.cpp</text>
</a>
</g>
</g>
<!-- Node1&#45;&gt;Node4 -->
<g id="edge3" class="edge">
<title>Node1&#45;&gt;Node4</title>
<path fill="none" stroke="midnightblue" d="M536.6,-376.02C486.67,-363.54 424.71,-348.05 376.51,-336"/>
<polygon fill="midnightblue" stroke="midnightblue" points="535.86,-379.45 546.41,-378.48 537.56,-372.66 535.86,-379.45"/>
</g>
<!-- Node5 -->
<g id="node5" class="node">
<title>Node5</title>
<g id="a_node5"><a xlink:href="../../d2/dea/iso__printer_8h.html" target="_top" xlink:title=" ">
<polygon fill="none" stroke="black" points="410,-295 410,-336 597,-336 597,-295 410,-295"/>
<text text-anchor="start" x="418" y="-324" font-family="Helvetica,sans-Serif" font-size="10.00">/home/runner/work/Documentation</text>
<text text-anchor="start" x="418" y="-313" font-family="Helvetica,sans-Serif" font-size="10.00">/Documentation/master/kratos</text>
<text text-anchor="middle" x="503.5" y="-302" font-family="Helvetica,sans-Serif" font-size="10.00">/utilities/iso_printer.h</text>
</a>
</g>
</g>
<!-- Node1&#45;&gt;Node5 -->
<g id="edge4" class="edge">
<title>Node1&#45;&gt;Node5</title>
<path fill="none" stroke="midnightblue" d="M587.18,-372.87C569.64,-361.05 549.04,-347.17 532.67,-336.14"/>
<polygon fill="midnightblue" stroke="midnightblue" points="585.27,-375.8 595.52,-378.48 589.18,-369.99 585.27,-375.8"/>
</g>
<!-- Node6 -->
<g id="node6" class="node">
<title>Node6</title>
<g id="a_node6"><a xlink:href="../../d2/dd3/cutting__iso__app_8h.html" target="_top" xlink:title=" ">
<polygon fill="none" stroke="black" points="437,-95 437,-147 634,-147 634,-95 437,-95"/>
<text text-anchor="start" x="445" y="-135" font-family="Helvetica,sans-Serif" font-size="10.00">/home/runner/work/Documentation</text>
<text text-anchor="start" x="445" y="-124" font-family="Helvetica,sans-Serif" font-size="10.00">/Documentation/master/applications</text>
<text text-anchor="start" x="445" y="-113" font-family="Helvetica,sans-Serif" font-size="10.00">/MeshingApplication/custom_utilities</text>
<text text-anchor="middle" x="535.5" y="-102" font-family="Helvetica,sans-Serif" font-size="10.00">/cutting_iso_app.h</text>
</a>
</g>
</g>
<!-- Node1&#45;&gt;Node6 -->
<g id="edge6" class="edge">
<title>Node1&#45;&gt;Node6</title>
<path fill="none" stroke="midnightblue" d="M621.15,-368.29C618.22,-346.14 613.2,-315.3 605.5,-289 590.27,-236.95 563.78,-179.22 548.12,-147.1"/>
<polygon fill="midnightblue" stroke="midnightblue" points="617.7,-368.92 622.43,-378.4 624.65,-368.04 617.7,-368.92"/>
</g>
<!-- Node8 -->
<g id="node8" class="node">
<title>Node8</title>
<g id="a_node8"><a xlink:href="../../d8/d23/local__refine__tetrahedra__mesh_8hpp.html" target="_top" xlink:title=" ">
<polygon fill="none" stroke="black" points="673,-289.5 673,-341.5 870,-341.5 870,-289.5 673,-289.5"/>
<text text-anchor="start" x="681" y="-329.5" font-family="Helvetica,sans-Serif" font-size="10.00">/home/runner/work/Documentation</text>
<text text-anchor="start" x="681" y="-318.5" font-family="Helvetica,sans-Serif" font-size="10.00">/Documentation/master/applications</text>
<text text-anchor="start" x="681" y="-307.5" font-family="Helvetica,sans-Serif" font-size="10.00">/MeshingApplication/custom_utilities</text>
<text text-anchor="middle" x="771.5" y="-296.5" font-family="Helvetica,sans-Serif" font-size="10.00">/local_refine_tetrahedra_mesh.hpp</text>
</a>
</g>
</g>
<!-- Node1&#45;&gt;Node8 -->
<g id="edge8" class="edge">
<title>Node1&#45;&gt;Node8</title>
<path fill="none" stroke="midnightblue" d="M668.91,-373.38C687.07,-363.31 708.04,-351.69 726.27,-341.58"/>
<polygon fill="midnightblue" stroke="midnightblue" points="666.76,-370.57 659.71,-378.48 670.15,-376.69 666.76,-370.57"/>
</g>
<!-- Node13 -->
<g id="node13" class="node">
<title>Node13</title>
<g id="a_node13"><a xlink:href="../../d4/d6a/local__refine__triangle__mesh__generic_8hpp.html" target="_top" xlink:title=" ">
<polygon fill="none" stroke="black" points="1164,-195 1164,-247 1377,-247 1377,-195 1164,-195"/>
<text text-anchor="start" x="1172" y="-235" font-family="Helvetica,sans-Serif" font-size="10.00">/home/runner/work/Documentation</text>
<text text-anchor="start" x="1172" y="-224" font-family="Helvetica,sans-Serif" font-size="10.00">/Documentation/master/applications</text>
<text text-anchor="start" x="1172" y="-213" font-family="Helvetica,sans-Serif" font-size="10.00">/MeshingApplication/custom_utilities</text>
<text text-anchor="middle" x="1270.5" y="-202" font-family="Helvetica,sans-Serif" font-size="10.00">/local_refine_triangle_mesh_generic.hpp</text>
</a>
</g>
</g>
<!-- Node1&#45;&gt;Node13 -->
<g id="edge17" class="edge">
<title>Node1&#45;&gt;Node13</title>
<path fill="none" stroke="midnightblue" d="M728.15,-377.11C774.37,-367.29 829.37,-354.91 878.5,-342 989.67,-312.78 1116.58,-272.67 1195.13,-247.04"/>
<polygon fill="midnightblue" stroke="midnightblue" points="727.18,-373.74 718.12,-379.23 728.63,-380.59 727.18,-373.74"/>
</g>
<!-- Node16 -->
<g id="node16" class="node">
<title>Node16</title>
<g id="a_node16"><a xlink:href="../../db/df2/trilinos__refine__mesh_8h.html" target="_top" xlink:title=" ">
<polygon fill="none" stroke="black" points="1160.5,-289.5 1160.5,-341.5 1354.5,-341.5 1354.5,-289.5 1160.5,-289.5"/>
<text text-anchor="start" x="1168.5" y="-329.5" font-family="Helvetica,sans-Serif" font-size="10.00">/home/runner/work/Documentation</text>
<text text-anchor="start" x="1168.5" y="-318.5" font-family="Helvetica,sans-Serif" font-size="10.00">/Documentation/master/applications</text>
<text text-anchor="start" x="1168.5" y="-307.5" font-family="Helvetica,sans-Serif" font-size="10.00">/TrilinosApplication/custom_utilities</text>
<text text-anchor="middle" x="1257.5" y="-296.5" font-family="Helvetica,sans-Serif" font-size="10.00">/trilinos_refine_mesh.h</text>
</a>
</g>
</g>
<!-- Node1&#45;&gt;Node16 -->
<g id="edge22" class="edge">
<title>Node1&#45;&gt;Node16</title>
<path fill="none" stroke="midnightblue" d="M728.19,-387C824.33,-376.5 971.28,-359.71 1098.5,-342 1118.58,-339.21 1140.03,-335.95 1160.48,-332.72"/>
<polygon fill="midnightblue" stroke="midnightblue" points="727.74,-383.53 718.18,-388.09 728.5,-390.49 727.74,-383.53"/>
</g>
<!-- Node3 -->
<g id="node3" class="node">
<title>Node3</title>
<g id="a_node3"><a xlink:href="../../d9/df1/add__geometrical__utilities__to__python_8cpp.html" target="_top" xlink:title=" ">
<polygon fill="none" stroke="black" points="205,-195 205,-247 392,-247 392,-195 205,-195"/>
<text text-anchor="start" x="213" y="-235" font-family="Helvetica,sans-Serif" font-size="10.00">/home/runner/work/Documentation</text>
<text text-anchor="start" x="213" y="-224" font-family="Helvetica,sans-Serif" font-size="10.00">/Documentation/master/kratos</text>
<text text-anchor="start" x="213" y="-213" font-family="Helvetica,sans-Serif" font-size="10.00">/python/add_geometrical_utilities</text>
<text text-anchor="middle" x="298.5" y="-202" font-family="Helvetica,sans-Serif" font-size="10.00">_to_python.cpp</text>
</a>
</g>
</g>
<!-- Node2&#45;&gt;Node3 -->
<g id="edge2" class="edge">
<title>Node2&#45;&gt;Node3</title>
<path fill="none" stroke="midnightblue" d="M146.32,-290.66C175.96,-277.29 212.91,-260.62 242.98,-247.05"/>
<polygon fill="midnightblue" stroke="midnightblue" points="144.65,-287.58 136.98,-294.88 147.53,-293.96 144.65,-287.58"/>
</g>
<!-- Node5&#45;&gt;Node3 -->
<g id="edge5" class="edge">
<title>Node5&#45;&gt;Node3</title>
<path fill="none" stroke="midnightblue" d="M450.68,-290.66C421.04,-277.29 384.09,-260.62 354.02,-247.05"/>
<polygon fill="midnightblue" stroke="midnightblue" points="449.47,-293.96 460.02,-294.88 452.35,-287.58 449.47,-293.96"/>
</g>
<!-- Node7 -->
<g id="node7" class="node">
<title>Node7</title>
<g id="a_node7"><a xlink:href="../../d4/d31/_meshing_application_2custom__python_2add__custom__utilities__to__python_8cpp.html" target="_top" xlink:title=" ">
<polygon fill="none" stroke="black" points="861,-0.5 861,-52.5 1056,-52.5 1056,-0.5 861,-0.5"/>
<text text-anchor="start" x="869" y="-40.5" font-family="Helvetica,sans-Serif" font-size="10.00">/home/runner/work/Documentation</text>
<text text-anchor="start" x="869" y="-29.5" font-family="Helvetica,sans-Serif" font-size="10.00">/Documentation/master/applications</text>
<text text-anchor="start" x="869" y="-18.5" font-family="Helvetica,sans-Serif" font-size="10.00">/MeshingApplication/custom_python</text>
<text text-anchor="middle" x="958.5" y="-7.5" font-family="Helvetica,sans-Serif" font-size="10.00">/add_custom_utilities_to_python.cpp</text>
</a>
</g>
</g>
<!-- Node6&#45;&gt;Node7 -->
<g id="edge7" class="edge">
<title>Node6&#45;&gt;Node7</title>
<path fill="none" stroke="midnightblue" d="M634.33,-92.45C639.12,-91.25 643.86,-90.1 648.5,-89 719.12,-72.33 799.51,-56.47 860.72,-45.03"/>
<polygon fill="midnightblue" stroke="midnightblue" points="633.31,-89.09 624.48,-94.95 635.03,-95.88 633.31,-89.09"/>
</g>
<!-- Node8&#45;&gt;Node7 -->
<g id="edge9" class="edge">
<title>Node8&#45;&gt;Node7</title>
<path fill="none" stroke="midnightblue" d="M708.9,-283.68C697.88,-275.31 687.9,-265.12 681.5,-253 647.11,-187.85 653.49,-141.17 705.5,-89 727.52,-66.91 799.32,-50.77 860.83,-40.58"/>
<polygon fill="midnightblue" stroke="midnightblue" points="706.89,-286.54 717.08,-289.46 710.93,-280.83 706.89,-286.54"/>
</g>
<!-- Node9 -->
<g id="node9" class="node">
<title>Node9</title>
<g id="a_node9"><a xlink:href="../../d8/d09/linear__to__quadratic__tetrahedra__mesh__converter__utility_8h.html" target="_top" xlink:title=" ">
<polygon fill="none" stroke="black" points="690.5,-189.5 690.5,-252.5 892.5,-252.5 892.5,-189.5 690.5,-189.5"/>
<text text-anchor="start" x="698.5" y="-240.5" font-family="Helvetica,sans-Serif" font-size="10.00">/home/runner/work/Documentation</text>
<text text-anchor="start" x="698.5" y="-229.5" font-family="Helvetica,sans-Serif" font-size="10.00">/Documentation/master/applications</text>
<text text-anchor="start" x="698.5" y="-218.5" font-family="Helvetica,sans-Serif" font-size="10.00">/MeshingApplication/custom_utilities</text>
<text text-anchor="start" x="698.5" y="-207.5" font-family="Helvetica,sans-Serif" font-size="10.00">/linear_to_quadratic_tetrahedra_mesh</text>
<text text-anchor="middle" x="791.5" y="-196.5" font-family="Helvetica,sans-Serif" font-size="10.00">_converter_utility.h</text>
</a>
</g>
</g>
<!-- Node8&#45;&gt;Node9 -->
<g id="edge10" class="edge">
<title>Node8&#45;&gt;Node9</title>
<path fill="none" stroke="midnightblue" d="M779.13,-279.23C781.03,-270.43 783.05,-261.06 784.9,-252.51"/>
<polygon fill="midnightblue" stroke="midnightblue" points="775.66,-278.71 776.97,-289.22 782.5,-280.19 775.66,-278.71"/>
</g>
<!-- Node11 -->
<g id="node11" class="node">
<title>Node11</title>
<g id="a_node11"><a xlink:href="../../d1/d1c/local__refine__tetrahedra__mesh__parallel__to__boundaries_8hpp.html" target="_top" xlink:title=" ">
<polygon fill="none" stroke="black" points="910.5,-189.5 910.5,-252.5 1116.5,-252.5 1116.5,-189.5 910.5,-189.5"/>
<text text-anchor="start" x="918.5" y="-240.5" font-family="Helvetica,sans-Serif" font-size="10.00">/home/runner/work/Documentation</text>
<text text-anchor="start" x="918.5" y="-229.5" font-family="Helvetica,sans-Serif" font-size="10.00">/Documentation/master/applications</text>
<text text-anchor="start" x="918.5" y="-218.5" font-family="Helvetica,sans-Serif" font-size="10.00">/MeshingApplication/custom_utilities</text>
<text text-anchor="start" x="918.5" y="-207.5" font-family="Helvetica,sans-Serif" font-size="10.00">/local_refine_tetrahedra_mesh_parallel</text>
<text text-anchor="middle" x="1013.5" y="-196.5" font-family="Helvetica,sans-Serif" font-size="10.00">_to_boundaries.hpp</text>
</a>
</g>
</g>
<!-- Node8&#45;&gt;Node11 -->
<g id="edge13" class="edge">
<title>Node8&#45;&gt;Node11</title>
<path fill="none" stroke="midnightblue" d="M846.56,-285.81C874.08,-275.29 905.32,-263.35 933.28,-252.66"/>
<polygon fill="midnightblue" stroke="midnightblue" points="845.08,-282.63 836.99,-289.47 847.58,-289.17 845.08,-282.63"/>
</g>
<!-- Node9&#45;&gt;Node7 -->
<g id="edge11" class="edge">
<title>Node9&#45;&gt;Node7</title>
<path fill="none" stroke="midnightblue" d="M740.09,-182.47C731.72,-173.8 724.24,-163.89 719.5,-153 708.14,-126.92 702.07,-111.48 719.5,-89 737.25,-66.1 802.96,-50.23 860.99,-40.36"/>
<polygon fill="midnightblue" stroke="midnightblue" points="737.68,-185.01 747.3,-189.45 742.55,-179.98 737.68,-185.01"/>
</g>
<!-- Node10 -->
<g id="node10" class="node">
<title>Node10</title>
<g id="a_node10"><a xlink:href="../../da/dd2/linear__to__quadratic__tetrahedra__mesh__converter__utility_8cpp.html" target="_top" xlink:title=" ">
<polygon fill="none" stroke="black" points="728.5,-89.5 728.5,-152.5 930.5,-152.5 930.5,-89.5 728.5,-89.5"/>
<text text-anchor="start" x="736.5" y="-140.5" font-family="Helvetica,sans-Serif" font-size="10.00">/home/runner/work/Documentation</text>
<text text-anchor="start" x="736.5" y="-129.5" font-family="Helvetica,sans-Serif" font-size="10.00">/Documentation/master/applications</text>
<text text-anchor="start" x="736.5" y="-118.5" font-family="Helvetica,sans-Serif" font-size="10.00">/MeshingApplication/custom_utilities</text>
<text text-anchor="start" x="736.5" y="-107.5" font-family="Helvetica,sans-Serif" font-size="10.00">/linear_to_quadratic_tetrahedra_mesh</text>
<text text-anchor="middle" x="829.5" y="-96.5" font-family="Helvetica,sans-Serif" font-size="10.00">_converter_utility.cpp</text>
</a>
</g>
</g>
<!-- Node9&#45;&gt;Node10 -->
<g id="edge12" class="edge">
<title>Node9&#45;&gt;Node10</title>
<path fill="none" stroke="midnightblue" d="M807.14,-179.68C810.64,-170.64 814.3,-161.2 817.62,-152.63"/>
<polygon fill="midnightblue" stroke="midnightblue" points="803.77,-178.67 803.42,-189.26 810.3,-181.2 803.77,-178.67"/>
</g>
<!-- Node11&#45;&gt;Node7 -->
<g id="edge14" class="edge">
<title>Node11&#45;&gt;Node7</title>
<path fill="none" stroke="midnightblue" d="M989.37,-180.43C984.84,-171.65 980.57,-162.2 977.5,-153 966.28,-119.34 961.66,-78.38 959.77,-52.62"/>
<polygon fill="midnightblue" stroke="midnightblue" points="986.33,-182.16 994.15,-189.3 992.49,-178.84 986.33,-182.16"/>
</g>
<!-- Node12 -->
<g id="node12" class="node">
<title>Node12</title>
<g id="a_node12"><a xlink:href="../../d0/d42/local__refine__tetrahedra__mesh__only__on__boundaries_8hpp.html" target="_top" xlink:title=" ">
<polygon fill="none" stroke="black" points="987,-89.5 987,-152.5 1184,-152.5 1184,-89.5 987,-89.5"/>
<text text-anchor="start" x="995" y="-140.5" font-family="Helvetica,sans-Serif" font-size="10.00">/home/runner/work/Documentation</text>
<text text-anchor="start" x="995" y="-129.5" font-family="Helvetica,sans-Serif" font-size="10.00">/Documentation/master/applications</text>
<text text-anchor="start" x="995" y="-118.5" font-family="Helvetica,sans-Serif" font-size="10.00">/MeshingApplication/custom_utilities</text>
<text text-anchor="start" x="995" y="-107.5" font-family="Helvetica,sans-Serif" font-size="10.00">/local_refine_tetrahedra_mesh_only</text>
<text text-anchor="middle" x="1085.5" y="-96.5" font-family="Helvetica,sans-Serif" font-size="10.00">_on_boundaries.hpp</text>
</a>
</g>
</g>
<!-- Node11&#45;&gt;Node12 -->
<g id="edge15" class="edge">
<title>Node11&#45;&gt;Node12</title>
<path fill="none" stroke="midnightblue" d="M1042.07,-181.11C1049.02,-171.65 1056.37,-161.65 1063,-152.63"/>
<polygon fill="midnightblue" stroke="midnightblue" points="1039.18,-179.13 1036.08,-189.26 1044.83,-183.27 1039.18,-179.13"/>
</g>
<!-- Node12&#45;&gt;Node7 -->
<g id="edge16" class="edge">
<title>Node12&#45;&gt;Node7</title>
<path fill="none" stroke="midnightblue" d="M1035.37,-83.49C1021.25,-73.2 1006.2,-62.24 993.19,-52.77"/>
<polygon fill="midnightblue" stroke="midnightblue" points="1033.42,-86.4 1043.56,-89.46 1037.54,-80.74 1033.42,-86.4"/>
</g>
<!-- Node14 -->
<g id="node14" class="node">
<title>Node14</title>
<g id="a_node14"><a xlink:href="../../d8/de7/local__refine__triangle__mesh_8hpp.html" target="_top" xlink:title=" ">
<polygon fill="none" stroke="black" points="1202,-95 1202,-147 1399,-147 1399,-95 1202,-95"/>
<text text-anchor="start" x="1210" y="-135" font-family="Helvetica,sans-Serif" font-size="10.00">/home/runner/work/Documentation</text>
<text text-anchor="start" x="1210" y="-124" font-family="Helvetica,sans-Serif" font-size="10.00">/Documentation/master/applications</text>
<text text-anchor="start" x="1210" y="-113" font-family="Helvetica,sans-Serif" font-size="10.00">/MeshingApplication/custom_utilities</text>
<text text-anchor="middle" x="1300.5" y="-102" font-family="Helvetica,sans-Serif" font-size="10.00">/local_refine_triangle_mesh.hpp</text>
</a>
</g>
</g>
<!-- Node13&#45;&gt;Node14 -->
<g id="edge18" class="edge">
<title>Node13&#45;&gt;Node14</title>
<path fill="none" stroke="midnightblue" d="M1281.19,-185.08C1285.03,-172.55 1289.27,-158.69 1292.8,-147.15"/>
<polygon fill="midnightblue" stroke="midnightblue" points="1277.81,-184.18 1278.23,-194.76 1284.5,-186.23 1277.81,-184.18"/>
</g>
<!-- Node15 -->
<g id="node15" class="node">
<title>Node15</title>
<g id="a_node15"><a xlink:href="../../d9/d2e/local__refine__triangle__mesh__conditions_8hpp.html" target="_top" xlink:title=" ">
<polygon fill="none" stroke="black" points="1417,-95 1417,-147 1644,-147 1644,-95 1417,-95"/>
<text text-anchor="start" x="1425" y="-135" font-family="Helvetica,sans-Serif" font-size="10.00">/home/runner/work/Documentation</text>
<text text-anchor="start" x="1425" y="-124" font-family="Helvetica,sans-Serif" font-size="10.00">/Documentation/master/applications</text>
<text text-anchor="start" x="1425" y="-113" font-family="Helvetica,sans-Serif" font-size="10.00">/MeshingApplication/custom_utilities</text>
<text text-anchor="middle" x="1530.5" y="-102" font-family="Helvetica,sans-Serif" font-size="10.00">/local_refine_triangle_mesh_conditions.hpp</text>
</a>
</g>
</g>
<!-- Node13&#45;&gt;Node15 -->
<g id="edge20" class="edge">
<title>Node13&#45;&gt;Node15</title>
<path fill="none" stroke="midnightblue" d="M1346.9,-191.2C1384.06,-177.2 1428.31,-160.52 1464.05,-147.04"/>
<polygon fill="midnightblue" stroke="midnightblue" points="1345.24,-188.09 1337.12,-194.89 1347.71,-194.64 1345.24,-188.09"/>
</g>
<!-- Node14&#45;&gt;Node7 -->
<g id="edge19" class="edge">
<title>Node14&#45;&gt;Node7</title>
<path fill="none" stroke="midnightblue" d="M1205,-92.2C1201.12,-91.11 1197.27,-90.04 1193.5,-89 1148.47,-76.59 1098.42,-63.4 1056.12,-52.44"/>
<polygon fill="midnightblue" stroke="midnightblue" points="1204.13,-95.59 1214.71,-94.93 1206.03,-88.85 1204.13,-95.59"/>
</g>
<!-- Node15&#45;&gt;Node7 -->
<g id="edge21" class="edge">
<title>Node15&#45;&gt;Node7</title>
<path fill="none" stroke="midnightblue" d="M1426.34,-92.7C1420.32,-91.38 1414.34,-90.14 1408.5,-89 1287.95,-65.53 1147.52,-47.85 1056.02,-37.61"/>
<polygon fill="midnightblue" stroke="midnightblue" points="1425.97,-96.21 1436.49,-94.98 1427.5,-89.38 1425.97,-96.21"/>
</g>
<!-- Node17 -->
<g id="node17" class="node">
<title>Node17</title>
<g id="a_node17"><a xlink:href="../../da/deb/_trilinos_application_2custom__python_2add__custom__utilities__to__python_8cpp.html" target="_top" xlink:title=" ">
<polygon fill="none" stroke="black" points="1395,-195 1395,-247 1590,-247 1590,-195 1395,-195"/>
<text text-anchor="start" x="1403" y="-235" font-family="Helvetica,sans-Serif" font-size="10.00">/home/runner/work/Documentation</text>
<text text-anchor="start" x="1403" y="-224" font-family="Helvetica,sans-Serif" font-size="10.00">/Documentation/master/applications</text>
<text text-anchor="start" x="1403" y="-213" font-family="Helvetica,sans-Serif" font-size="10.00">/TrilinosApplication/custom_python</text>
<text text-anchor="middle" x="1492.5" y="-202" font-family="Helvetica,sans-Serif" font-size="10.00">/add_custom_utilities_to_python.cpp</text>
</a>
</g>
</g>
<!-- Node16&#45;&gt;Node17 -->
<g id="edge23" class="edge">
<title>Node16&#45;&gt;Node17</title>
<path fill="none" stroke="midnightblue" d="M1330.68,-285.69C1362.13,-273.32 1398.54,-258.98 1428.85,-247.05"/>
<polygon fill="midnightblue" stroke="midnightblue" points="1329.12,-282.55 1321.09,-289.47 1331.68,-289.06 1329.12,-282.55"/>
</g>
</g>
</svg>
