<?xml version="1.0" encoding="UTF-8" standalone="no"?>
<!DOCTYPE svg PUBLIC "-//W3C//DTD SVG 1.1//EN"
 "http://www.w3.org/Graphics/SVG/1.1/DTD/svg11.dtd">
<!-- Generated by graphviz version 2.43.0 (0)
 -->
<!-- Title: Kratos::ConvectionModel Pages: 1 -->
<svg width="686pt" height="628pt"
 viewBox="0.00 0.00 686.00 628.00" xmlns="http://www.w3.org/2000/svg" xmlns:xlink="http://www.w3.org/1999/xlink">
<g id="graph0" class="graph" transform="scale(1 1) rotate(0) translate(4 624)">
<title>Kratos::ConvectionModel</title>
<!-- Node1 -->
<g id="node1" class="node">
<title>Node1</title>
<g id="a_node1"><a xlink:title=" ">
<polygon fill="#bfbfbf" stroke="black" points="254.5,-193.5 254.5,-382.5 424.5,-382.5 424.5,-193.5 254.5,-193.5"/>
<text text-anchor="middle" x="339.5" y="-370.5" font-family="Helvetica,sans-Serif" font-size="10.00">Kratos::ConvectionModel</text>
<polyline fill="none" stroke="black" points="254.5,-363.5 424.5,-363.5 "/>
<text text-anchor="middle" x="339.5" y="-351.5" font-family="Helvetica,sans-Serif" font-size="10.00"> </text>
<polyline fill="none" stroke="black" points="254.5,-344.5 424.5,-344.5 "/>
<text text-anchor="start" x="262.5" y="-332.5" font-family="Helvetica,sans-Serif" font-size="10.00">+ KRATOS_CLASS_POINTER</text>
<text text-anchor="start" x="262.5" y="-321.5" font-family="Helvetica,sans-Serif" font-size="10.00">_DEFINITION()</text>
<text text-anchor="start" x="262.5" y="-310.5" font-family="Helvetica,sans-Serif" font-size="10.00">+ ConvectionModel()</text>
<text text-anchor="start" x="262.5" y="-299.5" font-family="Helvetica,sans-Serif" font-size="10.00">+ ~ConvectionModel()</text>
<text text-anchor="start" x="262.5" y="-288.5" font-family="Helvetica,sans-Serif" font-size="10.00">+ SetHeatExchangeMechanism</text>
<text text-anchor="start" x="262.5" y="-277.5" font-family="Helvetica,sans-Serif" font-size="10.00">InProperties()</text>
<text text-anchor="start" x="262.5" y="-266.5" font-family="Helvetica,sans-Serif" font-size="10.00">+ ComputeHeatFlux()</text>
<text text-anchor="start" x="262.5" y="-255.5" font-family="Helvetica,sans-Serif" font-size="10.00">+ ComputeNusseltNumber()</text>
<text text-anchor="start" x="262.5" y="-244.5" font-family="Helvetica,sans-Serif" font-size="10.00">+ CloneRaw()</text>
<text text-anchor="start" x="262.5" y="-233.5" font-family="Helvetica,sans-Serif" font-size="10.00">+ CloneShared()</text>
<text text-anchor="start" x="262.5" y="-222.5" font-family="Helvetica,sans-Serif" font-size="10.00">+ Info()</text>
<text text-anchor="start" x="262.5" y="-211.5" font-family="Helvetica,sans-Serif" font-size="10.00">+ PrintInfo()</text>
<text text-anchor="start" x="262.5" y="-200.5" font-family="Helvetica,sans-Serif" font-size="10.00">+ PrintData()</text>
</a>
</g>
</g>
<!-- Node3 -->
<g id="node3" class="node">
<title>Node3</title>
<g id="a_node3"><a xlink:href="../../d5/d43/class_kratos_1_1_nusselt_gunn.html" target="_top" xlink:title=" ">
<polygon fill="none" stroke="black" points="0,-0.5 0,-156.5 155,-156.5 155,-0.5 0,-0.5"/>
<text text-anchor="middle" x="77.5" y="-144.5" font-family="Helvetica,sans-Serif" font-size="10.00">Kratos::NusseltGunn</text>
<polyline fill="none" stroke="black" points="0,-137.5 155,-137.5 "/>
<text text-anchor="middle" x="77.5" y="-125.5" font-family="Helvetica,sans-Serif" font-size="10.00"> </text>
<polyline fill="none" stroke="black" points="0,-118.5 155,-118.5 "/>
<text text-anchor="start" x="8" y="-106.5" font-family="Helvetica,sans-Serif" font-size="10.00">+ KRATOS_CLASS_POINTER</text>
<text text-anchor="start" x="8" y="-95.5" font-family="Helvetica,sans-Serif" font-size="10.00">_DEFINITION()</text>
<text text-anchor="start" x="8" y="-84.5" font-family="Helvetica,sans-Serif" font-size="10.00">+ NusseltGunn()</text>
<text text-anchor="start" x="8" y="-73.5" font-family="Helvetica,sans-Serif" font-size="10.00">+ ~NusseltGunn()</text>
<text text-anchor="start" x="8" y="-62.5" font-family="Helvetica,sans-Serif" font-size="10.00">+ ComputeNusseltNumber()</text>
<text text-anchor="start" x="8" y="-51.5" font-family="Helvetica,sans-Serif" font-size="10.00">+ CloneRaw()</text>
<text text-anchor="start" x="8" y="-40.5" font-family="Helvetica,sans-Serif" font-size="10.00">+ CloneShared()</text>
<text text-anchor="start" x="8" y="-29.5" font-family="Helvetica,sans-Serif" font-size="10.00">+ Info()</text>
<text text-anchor="start" x="8" y="-18.5" font-family="Helvetica,sans-Serif" font-size="10.00">+ PrintInfo()</text>
<text text-anchor="start" x="8" y="-7.5" font-family="Helvetica,sans-Serif" font-size="10.00">+ PrintData()</text>
</a>
</g>
</g>
<!-- Node1&#45;&gt;Node3 -->
<g id="edge2" class="edge">
<title>Node1&#45;&gt;Node3</title>
<path fill="none" stroke="midnightblue" d="M246.02,-219.93C219.31,-200.14 190.43,-178.11 164.5,-157 161.52,-154.57 158.5,-152.08 155.47,-149.54"/>
<polygon fill="none" stroke="midnightblue" points="244.1,-222.87 254.23,-226 248.26,-217.24 244.1,-222.87"/>
</g>
<!-- Node4 -->
<g id="node4" class="node">
<title>Node4</title>
<g id="a_node4"><a xlink:href="../../d2/d52/class_kratos_1_1_nusselt_hanz_marshall.html" target="_top" xlink:title=" ">
<polygon fill="none" stroke="black" points="173.5,-0.5 173.5,-156.5 331.5,-156.5 331.5,-0.5 173.5,-0.5"/>
<text text-anchor="middle" x="252.5" y="-144.5" font-family="Helvetica,sans-Serif" font-size="10.00">Kratos::NusseltHanzMarshall</text>
<polyline fill="none" stroke="black" points="173.5,-137.5 331.5,-137.5 "/>
<text text-anchor="middle" x="252.5" y="-125.5" font-family="Helvetica,sans-Serif" font-size="10.00"> </text>
<polyline fill="none" stroke="black" points="173.5,-118.5 331.5,-118.5 "/>
<text text-anchor="start" x="181.5" y="-106.5" font-family="Helvetica,sans-Serif" font-size="10.00">+ KRATOS_CLASS_POINTER</text>
<text text-anchor="start" x="181.5" y="-95.5" font-family="Helvetica,sans-Serif" font-size="10.00">_DEFINITION()</text>
<text text-anchor="start" x="181.5" y="-84.5" font-family="Helvetica,sans-Serif" font-size="10.00">+ NusseltHanzMarshall()</text>
<text text-anchor="start" x="181.5" y="-73.5" font-family="Helvetica,sans-Serif" font-size="10.00">+ ~NusseltHanzMarshall()</text>
<text text-anchor="start" x="181.5" y="-62.5" font-family="Helvetica,sans-Serif" font-size="10.00">+ ComputeNusseltNumber()</text>
<text text-anchor="start" x="181.5" y="-51.5" font-family="Helvetica,sans-Serif" font-size="10.00">+ CloneRaw()</text>
<text text-anchor="start" x="181.5" y="-40.5" font-family="Helvetica,sans-Serif" font-size="10.00">+ CloneShared()</text>
<text text-anchor="start" x="181.5" y="-29.5" font-family="Helvetica,sans-Serif" font-size="10.00">+ Info()</text>
<text text-anchor="start" x="181.5" y="-18.5" font-family="Helvetica,sans-Serif" font-size="10.00">+ PrintInfo()</text>
<text text-anchor="start" x="181.5" y="-7.5" font-family="Helvetica,sans-Serif" font-size="10.00">+ PrintData()</text>
</a>
</g>
</g>
<!-- Node1&#45;&gt;Node4 -->
<g id="edge3" class="edge">
<title>Node1&#45;&gt;Node4</title>
<path fill="none" stroke="midnightblue" d="M296.22,-183.77C292.39,-174.65 288.56,-165.52 284.85,-156.66"/>
<polygon fill="none" stroke="midnightblue" points="293.11,-185.4 300.2,-193.27 299.56,-182.69 293.11,-185.4"/>
</g>
<!-- Node5 -->
<g id="node5" class="node">
<title>Node5</title>
<g id="a_node5"><a xlink:href="../../d1/d37/class_kratos_1_1_nusselt_li_mason.html" target="_top" xlink:title=" ">
<polygon fill="none" stroke="black" points="350,-0.5 350,-156.5 505,-156.5 505,-0.5 350,-0.5"/>
<text text-anchor="middle" x="427.5" y="-144.5" font-family="Helvetica,sans-Serif" font-size="10.00">Kratos::NusseltLiMason</text>
<polyline fill="none" stroke="black" points="350,-137.5 505,-137.5 "/>
<text text-anchor="middle" x="427.5" y="-125.5" font-family="Helvetica,sans-Serif" font-size="10.00"> </text>
<polyline fill="none" stroke="black" points="350,-118.5 505,-118.5 "/>
<text text-anchor="start" x="358" y="-106.5" font-family="Helvetica,sans-Serif" font-size="10.00">+ KRATOS_CLASS_POINTER</text>
<text text-anchor="start" x="358" y="-95.5" font-family="Helvetica,sans-Serif" font-size="10.00">_DEFINITION()</text>
<text text-anchor="start" x="358" y="-84.5" font-family="Helvetica,sans-Serif" font-size="10.00">+ NusseltLiMason()</text>
<text text-anchor="start" x="358" y="-73.5" font-family="Helvetica,sans-Serif" font-size="10.00">+ ~NusseltLiMason()</text>
<text text-anchor="start" x="358" y="-62.5" font-family="Helvetica,sans-Serif" font-size="10.00">+ ComputeNusseltNumber()</text>
<text text-anchor="start" x="358" y="-51.5" font-family="Helvetica,sans-Serif" font-size="10.00">+ CloneRaw()</text>
<text text-anchor="start" x="358" y="-40.5" font-family="Helvetica,sans-Serif" font-size="10.00">+ CloneShared()</text>
<text text-anchor="start" x="358" y="-29.5" font-family="Helvetica,sans-Serif" font-size="10.00">+ Info()</text>
<text text-anchor="start" x="358" y="-18.5" font-family="Helvetica,sans-Serif" font-size="10.00">+ PrintInfo()</text>
<text text-anchor="start" x="358" y="-7.5" font-family="Helvetica,sans-Serif" font-size="10.00">+ PrintData()</text>
</a>
</g>
</g>
<!-- Node1&#45;&gt;Node5 -->
<g id="edge4" class="edge">
<title>Node1&#45;&gt;Node5</title>
<path fill="none" stroke="midnightblue" d="M383.16,-184.06C387.07,-174.84 390.98,-165.61 394.78,-156.66"/>
<polygon fill="none" stroke="midnightblue" points="379.93,-182.69 379.25,-193.27 386.38,-185.43 379.93,-182.69"/>
</g>
<!-- Node6 -->
<g id="node6" class="node">
<title>Node6</title>
<g id="a_node6"><a xlink:href="../../d8/d8e/class_kratos_1_1_nusselt_whitaker.html" target="_top" xlink:title=" ">
<polygon fill="none" stroke="black" points="523,-0.5 523,-156.5 678,-156.5 678,-0.5 523,-0.5"/>
<text text-anchor="middle" x="600.5" y="-144.5" font-family="Helvetica,sans-Serif" font-size="10.00">Kratos::NusseltWhitaker</text>
<polyline fill="none" stroke="black" points="523,-137.5 678,-137.5 "/>
<text text-anchor="middle" x="600.5" y="-125.5" font-family="Helvetica,sans-Serif" font-size="10.00"> </text>
<polyline fill="none" stroke="black" points="523,-118.5 678,-118.5 "/>
<text text-anchor="start" x="531" y="-106.5" font-family="Helvetica,sans-Serif" font-size="10.00">+ KRATOS_CLASS_POINTER</text>
<text text-anchor="start" x="531" y="-95.5" font-family="Helvetica,sans-Serif" font-size="10.00">_DEFINITION()</text>
<text text-anchor="start" x="531" y="-84.5" font-family="Helvetica,sans-Serif" font-size="10.00">+ NusseltWhitaker()</text>
<text text-anchor="start" x="531" y="-73.5" font-family="Helvetica,sans-Serif" font-size="10.00">+ ~NusseltWhitaker()</text>
<text text-anchor="start" x="531" y="-62.5" font-family="Helvetica,sans-Serif" font-size="10.00">+ ComputeNusseltNumber()</text>
<text text-anchor="start" x="531" y="-51.5" font-family="Helvetica,sans-Serif" font-size="10.00">+ CloneRaw()</text>
<text text-anchor="start" x="531" y="-40.5" font-family="Helvetica,sans-Serif" font-size="10.00">+ CloneShared()</text>
<text text-anchor="start" x="531" y="-29.5" font-family="Helvetica,sans-Serif" font-size="10.00">+ Info()</text>
<text text-anchor="start" x="531" y="-18.5" font-family="Helvetica,sans-Serif" font-size="10.00">+ PrintInfo()</text>
<text text-anchor="start" x="531" y="-7.5" font-family="Helvetica,sans-Serif" font-size="10.00">+ PrintData()</text>
</a>
</g>
</g>
<!-- Node1&#45;&gt;Node6 -->
<g id="edge5" class="edge">
<title>Node1&#45;&gt;Node6</title>
<path fill="none" stroke="midnightblue" d="M433.06,-220.03C459.77,-200.24 488.63,-178.19 514.5,-157 517.3,-154.71 520.13,-152.35 522.97,-149.96"/>
<polygon fill="none" stroke="midnightblue" points="430.81,-217.34 424.85,-226.09 434.97,-222.97 430.81,-217.34"/>
</g>
<!-- Node2 -->
<g id="node2" class="node">
<title>Node2</title>
<g id="a_node2"><a xlink:href="../../dc/daa/class_kratos_1_1_heat_exchange_mechanism.html" target="_top" xlink:title=" ">
<polygon fill="none" stroke="black" points="249,-419.5 249,-619.5 430,-619.5 430,-419.5 249,-419.5"/>
<text text-anchor="middle" x="339.5" y="-607.5" font-family="Helvetica,sans-Serif" font-size="10.00">Kratos::HeatExchangeMechanism</text>
<polyline fill="none" stroke="black" points="249,-600.5 430,-600.5 "/>
<text text-anchor="middle" x="339.5" y="-588.5" font-family="Helvetica,sans-Serif" font-size="10.00"> </text>
<polyline fill="none" stroke="black" points="249,-581.5 430,-581.5 "/>
<text text-anchor="start" x="257" y="-569.5" font-family="Helvetica,sans-Serif" font-size="10.00">+ KRATOS_CLASS_POINTER</text>
<text text-anchor="start" x="257" y="-558.5" font-family="Helvetica,sans-Serif" font-size="10.00">_DEFINITION()</text>
<text text-anchor="start" x="257" y="-547.5" font-family="Helvetica,sans-Serif" font-size="10.00">+ HeatExchangeMechanism()</text>
<text text-anchor="start" x="257" y="-536.5" font-family="Helvetica,sans-Serif" font-size="10.00">+ ~HeatExchangeMechanism()</text>
<text text-anchor="start" x="257" y="-525.5" font-family="Helvetica,sans-Serif" font-size="10.00">+ SetHeatExchangeMechanism</text>
<text text-anchor="start" x="257" y="-514.5" font-family="Helvetica,sans-Serif" font-size="10.00">InProperties()</text>
<text text-anchor="start" x="257" y="-503.5" font-family="Helvetica,sans-Serif" font-size="10.00">+ GetSearchDistance()</text>
<text text-anchor="start" x="257" y="-492.5" font-family="Helvetica,sans-Serif" font-size="10.00">+ ComputeHeatFlux()</text>
<text text-anchor="start" x="257" y="-481.5" font-family="Helvetica,sans-Serif" font-size="10.00">+ FinalizeHeatFlux()</text>
<text text-anchor="start" x="257" y="-470.5" font-family="Helvetica,sans-Serif" font-size="10.00">+ CloneRaw()</text>
<text text-anchor="start" x="257" y="-459.5" font-family="Helvetica,sans-Serif" font-size="10.00">+ CloneShared()</text>
<text text-anchor="start" x="257" y="-448.5" font-family="Helvetica,sans-Serif" font-size="10.00">+ Info()</text>
<text text-anchor="start" x="257" y="-437.5" font-family="Helvetica,sans-Serif" font-size="10.00">+ PrintInfo()</text>
<text text-anchor="start" x="257" y="-426.5" font-family="Helvetica,sans-Serif" font-size="10.00">+ PrintData()</text>
</a>
</g>
</g>
<!-- Node2&#45;&gt;Node1 -->
<g id="edge1" class="edge">
<title>Node2&#45;&gt;Node1</title>
<path fill="none" stroke="midnightblue" d="M339.5,-408.91C339.5,-400.14 339.5,-391.33 339.5,-382.68"/>
<polygon fill="none" stroke="midnightblue" points="336,-409.17 339.5,-419.17 343,-409.17 336,-409.17"/>
</g>
</g>
</svg>
