<?xml version="1.0" encoding="UTF-8" standalone="no"?>
<!DOCTYPE svg PUBLIC "-//W3C//DTD SVG 1.1//EN"
 "http://www.w3.org/Graphics/SVG/1.1/DTD/svg11.dtd">
<!-- Generated by graphviz version 2.43.0 (0)
 -->
<!-- Title: /home/runner/work/Documentation/Documentation/master/applications/FemToDemApplication/custom_elements/base_solid_element.cpp Pages: 1 -->
<svg width="3318pt" height="575pt"
 viewBox="0.00 0.00 3318.23 575.00" xmlns="http://www.w3.org/2000/svg" xmlns:xlink="http://www.w3.org/1999/xlink">
<g id="graph0" class="graph" transform="scale(1 1) rotate(0) translate(4 571)">
<title>/home/runner/work/Documentation/Documentation/master/applications/FemToDemApplication/custom_elements/base_solid_element.cpp</title>
<!-- Node1 -->
<g id="node1" class="node">
<title>Node1</title>
<g id="a_node1"><a xlink:title=" ">
<polygon fill="#bfbfbf" stroke="black" points="2591.5,-514.5 2591.5,-566.5 2810.5,-566.5 2810.5,-514.5 2591.5,-514.5"/>
<text text-anchor="start" x="2599.5" y="-554.5" font-family="Helvetica,sans-Serif" font-size="10.00">/home/runner/work/Documentation</text>
<text text-anchor="start" x="2599.5" y="-543.5" font-family="Helvetica,sans-Serif" font-size="10.00">/Documentation/master/applications</text>
<text text-anchor="start" x="2599.5" y="-532.5" font-family="Helvetica,sans-Serif" font-size="10.00">/FemToDemApplication/custom_elements</text>
<text text-anchor="middle" x="2701" y="-521.5" font-family="Helvetica,sans-Serif" font-size="10.00">/base_solid_element.cpp</text>
</a>
</g>
</g>
<!-- Node2 -->
<g id="node2" class="node">
<title>Node2</title>
<g id="a_node2"><a xlink:href="../../d5/d16/checks_8h.html" target="_top" xlink:title=" ">
<polygon fill="none" stroke="black" points="2418.5,-453 2418.5,-472 2521.5,-472 2521.5,-453 2418.5,-453"/>
<text text-anchor="middle" x="2470" y="-460" font-family="Helvetica,sans-Serif" font-size="10.00">includes/checks.h</text>
</a>
</g>
</g>
<!-- Node1&#45;&gt;Node2 -->
<g id="edge1" class="edge">
<title>Node1&#45;&gt;Node2</title>
<path fill="none" stroke="midnightblue" d="M2624.72,-514.4C2584.64,-501.22 2537.41,-485.68 2505.77,-475.27"/>
<polygon fill="midnightblue" stroke="midnightblue" points="2506.67,-471.88 2496.07,-472.08 2504.48,-478.53 2506.67,-471.88"/>
</g>
<!-- Node15 -->
<g id="node15" class="node">
<title>Node15</title>
<g id="a_node15"><a xlink:title=" ">
<polygon fill="none" stroke="#bfbfbf" points="2707,-447.5 2707,-477.5 2837,-477.5 2837,-447.5 2707,-447.5"/>
<text text-anchor="start" x="2715" y="-465.5" font-family="Helvetica,sans-Serif" font-size="10.00">custom_elements/base</text>
<text text-anchor="middle" x="2772" y="-454.5" font-family="Helvetica,sans-Serif" font-size="10.00">_solid_element.h</text>
</a>
</g>
</g>
<!-- Node1&#45;&gt;Node15 -->
<g id="edge19" class="edge">
<title>Node1&#45;&gt;Node15</title>
<path fill="none" stroke="midnightblue" d="M2724.64,-514.19C2733.38,-504.84 2743.2,-494.33 2751.62,-485.32"/>
<polygon fill="midnightblue" stroke="midnightblue" points="2754.33,-487.54 2758.6,-477.85 2749.21,-482.76 2754.33,-487.54"/>
</g>
<!-- Node16 -->
<g id="node16" class="node">
<title>Node16</title>
<g id="a_node16"><a xlink:href="../../d8/d88/math__utils_8h.html" target="_top" xlink:title=" ">
<polygon fill="none" stroke="black" points="2571.5,-453 2571.5,-472 2688.5,-472 2688.5,-453 2571.5,-453"/>
<text text-anchor="middle" x="2630" y="-460" font-family="Helvetica,sans-Serif" font-size="10.00">utilities/math_utils.h</text>
</a>
</g>
</g>
<!-- Node1&#45;&gt;Node16 -->
<g id="edge20" class="edge">
<title>Node1&#45;&gt;Node16</title>
<path fill="none" stroke="midnightblue" d="M2677.36,-514.19C2666.77,-502.86 2654.59,-489.82 2645.23,-479.81"/>
<polygon fill="midnightblue" stroke="midnightblue" points="2647.52,-477.13 2638.14,-472.21 2642.41,-481.91 2647.52,-477.13"/>
</g>
<!-- Node46 -->
<g id="node46" class="node">
<title>Node46</title>
<g id="a_node46"><a xlink:title=" ">
<polygon fill="none" stroke="#bfbfbf" points="2855,-447.5 2855,-477.5 2959,-477.5 2959,-447.5 2855,-447.5"/>
<text text-anchor="start" x="2863" y="-465.5" font-family="Helvetica,sans-Serif" font-size="10.00">utilities/geometry</text>
<text text-anchor="middle" x="2907" y="-454.5" font-family="Helvetica,sans-Serif" font-size="10.00">_utilities.h</text>
</a>
</g>
</g>
<!-- Node1&#45;&gt;Node46 -->
<g id="edge75" class="edge">
<title>Node1&#45;&gt;Node46</title>
<path fill="none" stroke="midnightblue" d="M2769.02,-514.4C2798.56,-503.51 2832.45,-491 2859.26,-481.11"/>
<polygon fill="midnightblue" stroke="midnightblue" points="2860.62,-484.34 2868.79,-477.6 2858.2,-477.77 2860.62,-484.34"/>
</g>
<!-- Node3 -->
<g id="node3" class="node">
<title>Node3</title>
<g id="a_node3"><a xlink:title=" ">
<polygon fill="none" stroke="#bfbfbf" points="2330,-391.5 2330,-410.5 2380,-410.5 2380,-391.5 2330,-391.5"/>
<text text-anchor="middle" x="2355" y="-398.5" font-family="Helvetica,sans-Serif" font-size="10.00">cstring</text>
</a>
</g>
</g>
<!-- Node2&#45;&gt;Node3 -->
<g id="edge2" class="edge">
<title>Node2&#45;&gt;Node3</title>
<path fill="none" stroke="midnightblue" d="M2453.52,-452.98C2434.39,-443.08 2402.63,-426.64 2380.35,-415.12"/>
<polygon fill="midnightblue" stroke="midnightblue" points="2381.94,-412 2371.45,-410.51 2378.72,-418.21 2381.94,-412"/>
</g>
<!-- Node4 -->
<g id="node4" class="node">
<title>Node4</title>
<g id="a_node4"><a xlink:title=" ">
<polygon fill="none" stroke="#bfbfbf" points="2398,-391.5 2398,-410.5 2442,-410.5 2442,-391.5 2398,-391.5"/>
<text text-anchor="middle" x="2420" y="-398.5" font-family="Helvetica,sans-Serif" font-size="10.00">limits</text>
</a>
</g>
</g>
<!-- Node2&#45;&gt;Node4 -->
<g id="edge3" class="edge">
<title>Node2&#45;&gt;Node4</title>
<path fill="none" stroke="midnightblue" d="M2462.84,-452.98C2455.26,-443.96 2443.13,-429.52 2433.71,-418.31"/>
<polygon fill="midnightblue" stroke="midnightblue" points="2436.26,-415.91 2427.15,-410.51 2430.9,-420.42 2436.26,-415.91"/>
</g>
<!-- Node5 -->
<g id="node5" class="node">
<title>Node5</title>
<g id="a_node5"><a xlink:title=" ">
<polygon fill="none" stroke="#bfbfbf" points="2498.5,-391.5 2498.5,-410.5 2545.5,-410.5 2545.5,-391.5 2498.5,-391.5"/>
<text text-anchor="middle" x="2522" y="-398.5" font-family="Helvetica,sans-Serif" font-size="10.00">cmath</text>
</a>
</g>
</g>
<!-- Node2&#45;&gt;Node5 -->
<g id="edge4" class="edge">
<title>Node2&#45;&gt;Node5</title>
<path fill="none" stroke="midnightblue" d="M2477.45,-452.98C2485.33,-443.96 2497.94,-429.52 2507.74,-418.31"/>
<polygon fill="midnightblue" stroke="midnightblue" points="2510.62,-420.34 2514.56,-410.51 2505.35,-415.74 2510.62,-420.34"/>
</g>
<!-- Node6 -->
<g id="node6" class="node">
<title>Node6</title>
<g id="a_node6"><a xlink:href="../../dd/d2d/exception_8h.html" target="_top" xlink:title=" ">
<polygon fill="none" stroke="black" points="2445.5,-140 2445.5,-159 2562.5,-159 2562.5,-140 2445.5,-140"/>
<text text-anchor="middle" x="2504" y="-147" font-family="Helvetica,sans-Serif" font-size="10.00">includes/exception.h</text>
</a>
</g>
</g>
<!-- Node2&#45;&gt;Node6 -->
<g id="edge5" class="edge">
<title>Node2&#45;&gt;Node6</title>
<path fill="none" stroke="midnightblue" d="M2470,-452.99C2470,-433.24 2470,-382.72 2470,-340.5 2470,-340.5 2470,-340.5 2470,-277 2470,-237.18 2485.9,-192.66 2495.96,-168.49"/>
<polygon fill="midnightblue" stroke="midnightblue" points="2499.23,-169.75 2499.97,-159.18 2492.8,-166.98 2499.23,-169.75"/>
</g>
<!-- Node7 -->
<g id="node7" class="node">
<title>Node7</title>
<g id="a_node7"><a xlink:title=" ">
<polygon fill="none" stroke="#bfbfbf" points="2334.5,-73 2334.5,-92 2399.5,-92 2399.5,-73 2334.5,-73"/>
<text text-anchor="middle" x="2367" y="-80" font-family="Helvetica,sans-Serif" font-size="10.00">stdexcept</text>
</a>
</g>
</g>
<!-- Node6&#45;&gt;Node7 -->
<g id="edge6" class="edge">
<title>Node6&#45;&gt;Node7</title>
<path fill="none" stroke="midnightblue" d="M2485.81,-139.87C2462.47,-128.8 2421.77,-109.49 2394.61,-96.6"/>
<polygon fill="midnightblue" stroke="midnightblue" points="2395.8,-93.29 2385.27,-92.17 2392.8,-99.62 2395.8,-93.29"/>
</g>
<!-- Node8 -->
<g id="node8" class="node">
<title>Node8</title>
<g id="a_node8"><a xlink:title=" ">
<polygon fill="none" stroke="#bfbfbf" points="1926,-6 1926,-25 1970,-25 1970,-6 1926,-6"/>
<text text-anchor="middle" x="1948" y="-13" font-family="Helvetica,sans-Serif" font-size="10.00">string</text>
</a>
</g>
</g>
<!-- Node6&#45;&gt;Node8 -->
<g id="edge7" class="edge">
<title>Node6&#45;&gt;Node8</title>
<path fill="none" stroke="midnightblue" d="M2497.14,-139.96C2482.72,-122.72 2447.36,-83.95 2408,-67 2330.63,-33.68 2071.36,-21.06 1980.11,-17.59"/>
<polygon fill="midnightblue" stroke="midnightblue" points="1980.2,-14.09 1970.08,-17.22 1979.94,-21.09 1980.2,-14.09"/>
</g>
<!-- Node9 -->
<g id="node9" class="node">
<title>Node9</title>
<g id="a_node9"><a xlink:title=" ">
<polygon fill="none" stroke="#bfbfbf" points="2770,-6 2770,-25 2830,-25 2830,-6 2770,-6"/>
<text text-anchor="middle" x="2800" y="-13" font-family="Helvetica,sans-Serif" font-size="10.00">iostream</text>
</a>
</g>
</g>
<!-- Node6&#45;&gt;Node9 -->
<g id="edge8" class="edge">
<title>Node6&#45;&gt;Node9</title>
<path fill="none" stroke="midnightblue" d="M2503.21,-139.89C2502.2,-123.22 2502.59,-86.44 2523,-67 2556.42,-35.17 2691.22,-22.82 2759.68,-18.53"/>
<polygon fill="midnightblue" stroke="midnightblue" points="2759.9,-22.03 2769.67,-17.93 2759.48,-15.04 2759.9,-22.03"/>
</g>
<!-- Node10 -->
<g id="node10" class="node">
<title>Node10</title>
<g id="a_node10"><a xlink:title=" ">
<polygon fill="none" stroke="#bfbfbf" points="2532,-73 2532,-92 2588,-92 2588,-73 2532,-73"/>
<text text-anchor="middle" x="2560" y="-80" font-family="Helvetica,sans-Serif" font-size="10.00">sstream</text>
</a>
</g>
</g>
<!-- Node6&#45;&gt;Node10 -->
<g id="edge9" class="edge">
<title>Node6&#45;&gt;Node10</title>
<path fill="none" stroke="midnightblue" d="M2511.55,-139.73C2520.28,-129.6 2534.85,-112.69 2545.74,-100.06"/>
<polygon fill="midnightblue" stroke="midnightblue" points="2548.69,-101.99 2552.57,-92.13 2543.39,-97.42 2548.69,-101.99"/>
</g>
<!-- Node11 -->
<g id="node11" class="node">
<title>Node11</title>
<g id="a_node11"><a xlink:title=" ">
<polygon fill="none" stroke="#bfbfbf" points="2563.5,-6 2563.5,-25 2610.5,-25 2610.5,-6 2563.5,-6"/>
<text text-anchor="middle" x="2587" y="-13" font-family="Helvetica,sans-Serif" font-size="10.00">vector</text>
</a>
</g>
</g>
<!-- Node6&#45;&gt;Node11 -->
<g id="edge10" class="edge">
<title>Node6&#45;&gt;Node11</title>
<path fill="none" stroke="midnightblue" d="M2499,-139.94C2490.57,-124.27 2475.78,-90.44 2490,-67 2503.75,-44.34 2531.35,-31.37 2553.61,-24.27"/>
<polygon fill="midnightblue" stroke="midnightblue" points="2554.78,-27.58 2563.39,-21.41 2552.81,-20.86 2554.78,-27.58"/>
</g>
<!-- Node12 -->
<g id="node12" class="node">
<title>Node12</title>
<g id="a_node12"><a xlink:href="../../dc/d25/kratos__export__api_8h.html" target="_top" xlink:title=" ">
<polygon fill="none" stroke="black" points="2987,-0.5 2987,-30.5 3115,-30.5 3115,-0.5 2987,-0.5"/>
<text text-anchor="start" x="2995" y="-18.5" font-family="Helvetica,sans-Serif" font-size="10.00">includes/kratos_export</text>
<text text-anchor="middle" x="3051" y="-7.5" font-family="Helvetica,sans-Serif" font-size="10.00">_api.h</text>
</a>
</g>
</g>
<!-- Node6&#45;&gt;Node12 -->
<g id="edge11" class="edge">
<title>Node6&#45;&gt;Node12</title>
<path fill="none" stroke="midnightblue" d="M2562.64,-147.28C2672.36,-144.17 2904.01,-133.48 2975,-98 3001.44,-84.78 3023.39,-58.31 3036.8,-39.11"/>
<polygon fill="midnightblue" stroke="midnightblue" points="3039.83,-40.87 3042.51,-30.62 3034.02,-36.97 3039.83,-40.87"/>
</g>
<!-- Node13 -->
<g id="node13" class="node">
<title>Node13</title>
<g id="a_node13"><a xlink:href="../../da/da6/code__location_8h.html" target="_top" xlink:title=" ">
<polygon fill="none" stroke="black" points="2828.5,-73 2828.5,-92 2965.5,-92 2965.5,-73 2828.5,-73"/>
<text text-anchor="middle" x="2897" y="-80" font-family="Helvetica,sans-Serif" font-size="10.00">includes/code_location.h</text>
</a>
</g>
</g>
<!-- Node6&#45;&gt;Node13 -->
<g id="edge12" class="edge">
<title>Node6&#45;&gt;Node13</title>
<path fill="none" stroke="midnightblue" d="M2555.78,-139.94C2627.89,-128.01 2758.35,-106.43 2835.37,-93.69"/>
<polygon fill="midnightblue" stroke="midnightblue" points="2836.12,-97.12 2845.42,-92.03 2834.98,-90.21 2836.12,-97.12"/>
</g>
<!-- Node14 -->
<g id="node14" class="node">
<title>Node14</title>
<g id="a_node14"><a xlink:href="../../d9/d06/stl__vector__io_8h.html" target="_top" xlink:title=" ">
<polygon fill="none" stroke="black" points="2644,-73 2644,-92 2772,-92 2772,-73 2644,-73"/>
<text text-anchor="middle" x="2708" y="-80" font-family="Helvetica,sans-Serif" font-size="10.00">utilities/stl_vector_io.h</text>
</a>
</g>
</g>
<!-- Node6&#45;&gt;Node14 -->
<g id="edge16" class="edge">
<title>Node6&#45;&gt;Node14</title>
<path fill="none" stroke="midnightblue" d="M2531.09,-139.87C2567.16,-128.38 2631.08,-108.01 2671.41,-95.16"/>
<polygon fill="midnightblue" stroke="midnightblue" points="2672.66,-98.43 2681.12,-92.06 2670.53,-91.76 2672.66,-98.43"/>
</g>
<!-- Node13&#45;&gt;Node8 -->
<g id="edge13" class="edge">
<title>Node13&#45;&gt;Node8</title>
<path fill="none" stroke="midnightblue" d="M2834.77,-72.98C2817.39,-70.8 2798.48,-68.62 2781,-67 2470.01,-38.17 2092.1,-22.08 1980.49,-17.72"/>
<polygon fill="midnightblue" stroke="midnightblue" points="1980.37,-14.22 1970.24,-17.33 1980.1,-21.21 1980.37,-14.22"/>
</g>
<!-- Node13&#45;&gt;Node9 -->
<g id="edge14" class="edge">
<title>Node13&#45;&gt;Node9</title>
<path fill="none" stroke="midnightblue" d="M2883.92,-72.73C2867.85,-61.96 2840.37,-43.55 2821.25,-30.74"/>
<polygon fill="midnightblue" stroke="midnightblue" points="2823.13,-27.79 2812.87,-25.13 2819.23,-33.6 2823.13,-27.79"/>
</g>
<!-- Node13&#45;&gt;Node12 -->
<g id="edge15" class="edge">
<title>Node13&#45;&gt;Node12</title>
<path fill="none" stroke="midnightblue" d="M2917.45,-72.87C2940.56,-63.12 2978.81,-46.97 3008.47,-34.45"/>
<polygon fill="midnightblue" stroke="midnightblue" points="3009.91,-37.64 3017.76,-30.53 3007.19,-31.19 3009.91,-37.64"/>
</g>
<!-- Node14&#45;&gt;Node9 -->
<g id="edge17" class="edge">
<title>Node14&#45;&gt;Node9</title>
<path fill="none" stroke="midnightblue" d="M2720.41,-72.73C2735.58,-62.01 2761.48,-43.72 2779.6,-30.91"/>
<polygon fill="midnightblue" stroke="midnightblue" points="2781.64,-33.76 2787.79,-25.13 2777.6,-28.04 2781.64,-33.76"/>
</g>
<!-- Node14&#45;&gt;Node11 -->
<g id="edge18" class="edge">
<title>Node14&#45;&gt;Node11</title>
<path fill="none" stroke="midnightblue" d="M2691.68,-72.73C2671.18,-61.72 2635.8,-42.71 2611.91,-29.88"/>
<polygon fill="midnightblue" stroke="midnightblue" points="2613.53,-26.78 2603.06,-25.13 2610.21,-32.94 2613.53,-26.78"/>
</g>
<!-- Node16&#45;&gt;Node5 -->
<g id="edge21" class="edge">
<title>Node16&#45;&gt;Node5</title>
<path fill="none" stroke="midnightblue" d="M2614.53,-452.98C2596.72,-443.17 2567.26,-426.93 2546.37,-415.42"/>
<polygon fill="midnightblue" stroke="midnightblue" points="2547.89,-412.27 2537.45,-410.51 2544.51,-418.4 2547.89,-412.27"/>
</g>
<!-- Node17 -->
<g id="node17" class="node">
<title>Node17</title>
<g id="a_node17"><a xlink:title=" ">
<polygon fill="none" stroke="#bfbfbf" points="2740.5,-391.5 2740.5,-410.5 2809.5,-410.5 2809.5,-391.5 2740.5,-391.5"/>
<text text-anchor="middle" x="2775" y="-398.5" font-family="Helvetica,sans-Serif" font-size="10.00">type_traits</text>
</a>
</g>
</g>
<!-- Node16&#45;&gt;Node17 -->
<g id="edge22" class="edge">
<title>Node16&#45;&gt;Node17</title>
<path fill="none" stroke="midnightblue" d="M2650.77,-452.98C2675.43,-442.86 2716.75,-425.9 2744.9,-414.35"/>
<polygon fill="midnightblue" stroke="midnightblue" points="2746.34,-417.54 2754.26,-410.51 2743.68,-411.07 2746.34,-417.54"/>
</g>
<!-- Node18 -->
<g id="node18" class="node">
<title>Node18</title>
<g id="a_node18"><a xlink:href="../../d1/d8c/logger_8h.html" target="_top" xlink:title=" ">
<polygon fill="none" stroke="black" points="2602,-391.5 2602,-410.5 2722,-410.5 2722,-391.5 2602,-391.5"/>
<text text-anchor="middle" x="2662" y="-398.5" font-family="Helvetica,sans-Serif" font-size="10.00">input_output/logger.h</text>
</a>
</g>
</g>
<!-- Node16&#45;&gt;Node18 -->
<g id="edge23" class="edge">
<title>Node16&#45;&gt;Node18</title>
<path fill="none" stroke="midnightblue" d="M2634.58,-452.98C2639.24,-444.32 2646.59,-430.65 2652.51,-419.65"/>
<polygon fill="midnightblue" stroke="midnightblue" points="2655.77,-420.97 2657.42,-410.51 2649.6,-417.66 2655.77,-420.97"/>
</g>
<!-- Node29 -->
<g id="node29" class="node">
<title>Node29</title>
<g id="a_node29"><a xlink:href="../../d9/d3e/ublas__interface_8h.html" target="_top" xlink:title=" ">
<polygon fill="none" stroke="black" points="1129,-268.5 1129,-287.5 1273,-287.5 1273,-268.5 1129,-268.5"/>
<text text-anchor="middle" x="1201" y="-275.5" font-family="Helvetica,sans-Serif" font-size="10.00">includes/ublas_interface.h</text>
</a>
</g>
</g>
<!-- Node16&#45;&gt;Node29 -->
<g id="edge55" class="edge">
<title>Node16&#45;&gt;Node29</title>
<path fill="none" stroke="midnightblue" d="M2623.8,-452.61C2612.31,-436.95 2586.02,-404.8 2555,-391 2325.44,-288.9 1540.34,-279.17 1283.24,-278.78"/>
<polygon fill="midnightblue" stroke="midnightblue" points="1283.22,-275.28 1273.22,-278.77 1283.22,-282.28 1283.22,-275.28"/>
</g>
<!-- Node45 -->
<g id="node45" class="node">
<title>Node45</title>
<g id="a_node45"><a xlink:href="../../d5/dfb/global__variables_8h.html" target="_top" xlink:title=" ">
<polygon fill="none" stroke="black" points="2827.5,-391.5 2827.5,-410.5 2976.5,-410.5 2976.5,-391.5 2827.5,-391.5"/>
<text text-anchor="middle" x="2902" y="-398.5" font-family="Helvetica,sans-Serif" font-size="10.00">includes/global_variables.h</text>
</a>
</g>
</g>
<!-- Node16&#45;&gt;Node45 -->
<g id="edge74" class="edge">
<title>Node16&#45;&gt;Node45</title>
<path fill="none" stroke="midnightblue" d="M2668.97,-452.98C2717.55,-442.35 2800.58,-424.18 2853.3,-412.65"/>
<polygon fill="midnightblue" stroke="midnightblue" points="2854.08,-416.07 2863.1,-410.51 2852.58,-409.23 2854.08,-416.07"/>
</g>
<!-- Node18&#45;&gt;Node6 -->
<g id="edge54" class="edge">
<title>Node18&#45;&gt;Node6</title>
<path fill="none" stroke="midnightblue" d="M2644.99,-391.29C2615.61,-375.27 2555.84,-338.09 2528,-288 2506.78,-249.82 2503.55,-197.24 2503.49,-169.46"/>
<polygon fill="midnightblue" stroke="midnightblue" points="2506.99,-169.24 2503.61,-159.19 2499.99,-169.15 2506.99,-169.24"/>
</g>
<!-- Node18&#45;&gt;Node8 -->
<g id="edge24" class="edge">
<title>Node18&#45;&gt;Node8</title>
<path fill="none" stroke="midnightblue" d="M2601.76,-394.51C2586.52,-393.23 2570.16,-391.97 2555,-391 2413.21,-381.93 0,-421.08 0,-279 0,-279 0,-279 0,-148.5 0,-48.3 1662.23,-20.58 1915.74,-16.94"/>
<polygon fill="midnightblue" stroke="midnightblue" points="1915.84,-20.44 1925.79,-16.8 1915.74,-13.44 1915.84,-20.44"/>
</g>
<!-- Node18&#45;&gt;Node9 -->
<g id="edge25" class="edge">
<title>Node18&#45;&gt;Node9</title>
<path fill="none" stroke="midnightblue" d="M2722.19,-391.88C2882.56,-369.86 3308,-308.63 3308,-279 3308,-279 3308,-279 3308,-148.5 3308,-111.31 3316.91,-91.59 3289,-67 3280.59,-59.59 2956.34,-30.3 2840.57,-20.06"/>
<polygon fill="midnightblue" stroke="midnightblue" points="2840.62,-16.55 2830.35,-19.16 2840,-23.52 2840.62,-16.55"/>
</g>
<!-- Node19 -->
<g id="node19" class="node">
<title>Node19</title>
<g id="a_node19"><a xlink:href="../../df/d27/logger__message_8h.html" target="_top" xlink:title=" ">
<polygon fill="none" stroke="black" points="3098,-134.5 3098,-164.5 3210,-164.5 3210,-134.5 3098,-134.5"/>
<text text-anchor="start" x="3106" y="-152.5" font-family="Helvetica,sans-Serif" font-size="10.00">input_output/logger</text>
<text text-anchor="middle" x="3154" y="-141.5" font-family="Helvetica,sans-Serif" font-size="10.00">_message.h</text>
</a>
</g>
</g>
<!-- Node18&#45;&gt;Node19 -->
<g id="edge26" class="edge">
<title>Node18&#45;&gt;Node19</title>
<path fill="none" stroke="midnightblue" d="M2703.9,-391.45C2795.23,-372.36 3009.19,-325.02 3073,-288 3103.45,-270.34 3110.86,-262.16 3129,-232 3139.64,-214.31 3146.1,-191.71 3149.79,-174.8"/>
<polygon fill="midnightblue" stroke="midnightblue" points="3153.3,-175.11 3151.82,-164.61 3146.43,-173.73 3153.3,-175.11"/>
</g>
<!-- Node22 -->
<g id="node22" class="node">
<title>Node22</title>
<g id="a_node22"><a xlink:href="../../da/d8c/logger__output_8h.html" target="_top" xlink:title=" ">
<polygon fill="none" stroke="black" points="2612,-324.5 2612,-354.5 2724,-354.5 2724,-324.5 2612,-324.5"/>
<text text-anchor="start" x="2620" y="-342.5" font-family="Helvetica,sans-Serif" font-size="10.00">input_output/logger</text>
<text text-anchor="middle" x="2668" y="-331.5" font-family="Helvetica,sans-Serif" font-size="10.00">_output.h</text>
</a>
</g>
</g>
<!-- Node18&#45;&gt;Node22 -->
<g id="edge35" class="edge">
<title>Node18&#45;&gt;Node22</title>
<path fill="none" stroke="midnightblue" d="M2662.86,-391.48C2663.57,-384.47 2664.6,-374.19 2665.56,-364.7"/>
<polygon fill="midnightblue" stroke="midnightblue" points="2669.06,-364.82 2666.59,-354.52 2662.1,-364.12 2669.06,-364.82"/>
</g>
<!-- Node19&#45;&gt;Node8 -->
<g id="edge27" class="edge">
<title>Node19&#45;&gt;Node8</title>
<path fill="none" stroke="midnightblue" d="M3097.59,-147.11C2981.01,-143.59 2717.56,-132 2635,-98 2614.85,-89.7 2617.23,-75.1 2597,-67 2483.04,-21.36 2095.13,-16.81 1980.29,-16.48"/>
<polygon fill="midnightblue" stroke="midnightblue" points="1980.05,-12.98 1970.04,-16.46 1980.04,-19.98 1980.05,-12.98"/>
</g>
<!-- Node19&#45;&gt;Node9 -->
<g id="edge29" class="edge">
<title>Node19&#45;&gt;Node9</title>
<path fill="none" stroke="midnightblue" d="M3139.66,-134.27C3120.17,-115.8 3083.46,-83.93 3046,-67 2977.75,-36.16 2890.33,-23.97 2840.2,-19.29"/>
<polygon fill="midnightblue" stroke="midnightblue" points="2840.35,-15.79 2830.08,-18.4 2839.74,-22.76 2840.35,-15.79"/>
</g>
<!-- Node19&#45;&gt;Node10 -->
<g id="edge28" class="edge">
<title>Node19&#45;&gt;Node10</title>
<path fill="none" stroke="midnightblue" d="M3097.7,-147.81C2997.09,-145.59 2780.29,-136.34 2602,-98 2598.5,-97.25 2594.89,-96.29 2591.32,-95.23"/>
<polygon fill="midnightblue" stroke="midnightblue" points="2592.11,-91.8 2581.52,-92.04 2589.94,-98.46 2592.11,-91.8"/>
</g>
<!-- Node19&#45;&gt;Node12 -->
<g id="edge32" class="edge">
<title>Node19&#45;&gt;Node12</title>
<path fill="none" stroke="midnightblue" d="M3170.35,-134.23C3187.65,-117.36 3210.48,-88.84 3195,-67 3178.9,-44.29 3151.76,-31.72 3125.35,-24.78"/>
<polygon fill="midnightblue" stroke="midnightblue" points="3125.82,-21.3 3115.29,-22.39 3124.21,-28.11 3125.82,-21.3"/>
</g>
<!-- Node19&#45;&gt;Node13 -->
<g id="edge33" class="edge">
<title>Node19&#45;&gt;Node13</title>
<path fill="none" stroke="midnightblue" d="M3098.55,-134.48C3051.18,-122.5 2983.99,-105.5 2940.45,-94.49"/>
<polygon fill="midnightblue" stroke="midnightblue" points="2941.27,-91.09 2930.72,-92.03 2939.56,-97.87 2941.27,-91.09"/>
</g>
<!-- Node19&#45;&gt;Node14 -->
<g id="edge34" class="edge">
<title>Node19&#45;&gt;Node14</title>
<path fill="none" stroke="midnightblue" d="M3097.97,-140.33C3016.3,-128.43 2864.74,-106.34 2776.54,-93.49"/>
<polygon fill="midnightblue" stroke="midnightblue" points="2777.04,-90.02 2766.64,-92.05 2776.03,-96.95 2777.04,-90.02"/>
</g>
<!-- Node20 -->
<g id="node20" class="node">
<title>Node20</title>
<g id="a_node20"><a xlink:title=" ">
<polygon fill="none" stroke="#bfbfbf" points="3242,-73 3242,-92 3280,-92 3280,-73 3242,-73"/>
<text text-anchor="middle" x="3261" y="-80" font-family="Helvetica,sans-Serif" font-size="10.00">map</text>
</a>
</g>
</g>
<!-- Node19&#45;&gt;Node20 -->
<g id="edge30" class="edge">
<title>Node19&#45;&gt;Node20</title>
<path fill="none" stroke="midnightblue" d="M3177.22,-134.4C3195.33,-123.39 3220.34,-108.2 3238.31,-97.28"/>
<polygon fill="midnightblue" stroke="midnightblue" points="3240.27,-100.19 3247,-92.01 3236.63,-94.21 3240.27,-100.19"/>
</g>
<!-- Node21 -->
<g id="node21" class="node">
<title>Node21</title>
<g id="a_node21"><a xlink:title=" ">
<polygon fill="none" stroke="#bfbfbf" points="3136,-73 3136,-92 3186,-92 3186,-73 3136,-73"/>
<text text-anchor="middle" x="3161" y="-80" font-family="Helvetica,sans-Serif" font-size="10.00">chrono</text>
</a>
</g>
</g>
<!-- Node19&#45;&gt;Node21 -->
<g id="edge31" class="edge">
<title>Node19&#45;&gt;Node21</title>
<path fill="none" stroke="midnightblue" d="M3155.52,-134.4C3156.53,-124.96 3157.88,-112.45 3158.99,-102.19"/>
<polygon fill="midnightblue" stroke="midnightblue" points="3162.47,-102.51 3160.06,-92.19 3155.51,-101.76 3162.47,-102.51"/>
</g>
<!-- Node22&#45;&gt;Node8 -->
<g id="edge36" class="edge">
<title>Node22&#45;&gt;Node8</title>
<path fill="none" stroke="midnightblue" d="M2611.96,-325.85C2461.94,-291.69 2059.05,-197.98 2007,-165 1973.73,-143.92 1962.98,-134.82 1949,-98 1941.33,-77.79 1942.45,-52.68 1944.61,-35.72"/>
<polygon fill="midnightblue" stroke="midnightblue" points="1948.13,-35.84 1946.18,-25.43 1941.21,-34.79 1948.13,-35.84"/>
</g>
<!-- Node22&#45;&gt;Node9 -->
<g id="edge37" class="edge">
<title>Node22&#45;&gt;Node9</title>
<path fill="none" stroke="midnightblue" d="M2724.08,-331.69C2826.18,-317.72 3032,-281.6 3032,-217.5 3032,-217.5 3032,-217.5 3032,-148.5 3032,-61.4 2906.95,-31.05 2840.47,-21.06"/>
<polygon fill="midnightblue" stroke="midnightblue" points="2840.72,-17.56 2830.33,-19.63 2839.74,-24.49 2840.72,-17.56"/>
</g>
<!-- Node22&#45;&gt;Node19 -->
<g id="edge49" class="edge">
<title>Node22&#45;&gt;Node19</title>
<path fill="none" stroke="midnightblue" d="M2724.23,-336.14C2815.8,-331.46 2992.32,-318.66 3046,-288 3092.82,-261.26 3126.66,-205.43 3143,-173.75"/>
<polygon fill="midnightblue" stroke="midnightblue" points="3146.15,-175.27 3147.5,-164.76 3139.89,-172.13 3146.15,-175.27"/>
</g>
<!-- Node22&#45;&gt;Node20 -->
<g id="edge38" class="edge">
<title>Node22&#45;&gt;Node20</title>
<path fill="none" stroke="midnightblue" d="M2724.09,-335.44C2820.14,-329.56 3011.65,-314.82 3073,-288 3150.74,-254.02 3166.09,-231.33 3219,-165 3234.62,-145.42 3246.9,-119.12 3254.05,-101.76"/>
<polygon fill="midnightblue" stroke="midnightblue" points="3257.39,-102.83 3257.82,-92.24 3250.89,-100.25 3257.39,-102.83"/>
</g>
<!-- Node23 -->
<g id="node23" class="node">
<title>Node23</title>
<g id="a_node23"><a xlink:href="../../df/d67/define_8h.html" target="_top" xlink:title=" ">
<polygon fill="none" stroke="black" points="2537.5,-207 2537.5,-226 2636.5,-226 2636.5,-207 2537.5,-207"/>
<text text-anchor="middle" x="2587" y="-214" font-family="Helvetica,sans-Serif" font-size="10.00">includes/define.h</text>
</a>
</g>
</g>
<!-- Node22&#45;&gt;Node23 -->
<g id="edge39" class="edge">
<title>Node22&#45;&gt;Node23</title>
<path fill="none" stroke="midnightblue" d="M2666.78,-324.49C2664.93,-309.47 2660.31,-285.44 2649,-268 2639.37,-253.14 2623.94,-240.55 2610.88,-231.66"/>
<polygon fill="midnightblue" stroke="midnightblue" points="2612.62,-228.61 2602.32,-226.11 2608.81,-234.49 2612.62,-228.61"/>
</g>
<!-- Node28 -->
<g id="node28" class="node">
<title>Node28</title>
<g id="a_node28"><a xlink:href="../../d9/da0/flags_8h.html" target="_top" xlink:title=" ">
<polygon fill="none" stroke="black" points="2536.5,-268.5 2536.5,-287.5 2639.5,-287.5 2639.5,-268.5 2536.5,-268.5"/>
<text text-anchor="middle" x="2588" y="-275.5" font-family="Helvetica,sans-Serif" font-size="10.00">containers/flags.h</text>
</a>
</g>
</g>
<!-- Node22&#45;&gt;Node28 -->
<g id="edge50" class="edge">
<title>Node22&#45;&gt;Node28</title>
<path fill="none" stroke="midnightblue" d="M2649.04,-324.4C2636.58,-315.13 2620.3,-303.03 2607.69,-293.65"/>
<polygon fill="midnightblue" stroke="midnightblue" points="2609.75,-290.82 2599.64,-287.66 2605.58,-296.43 2609.75,-290.82"/>
</g>
<!-- Node23&#45;&gt;Node6 -->
<g id="edge48" class="edge">
<title>Node23&#45;&gt;Node6</title>
<path fill="none" stroke="midnightblue" d="M2575.81,-206.73C2562.37,-196.21 2539.6,-178.38 2523.3,-165.62"/>
<polygon fill="midnightblue" stroke="midnightblue" points="2525.05,-162.54 2515.02,-159.13 2520.73,-168.05 2525.05,-162.54"/>
</g>
<!-- Node23&#45;&gt;Node7 -->
<g id="edge40" class="edge">
<title>Node23&#45;&gt;Node7</title>
<path fill="none" stroke="midnightblue" d="M2540.8,-206.92C2509.29,-199.49 2467.69,-186.47 2436,-165 2410.78,-147.91 2389.5,-119.17 2377.5,-100.79"/>
<polygon fill="midnightblue" stroke="midnightblue" points="2380.4,-98.82 2372.1,-92.23 2374.48,-102.56 2380.4,-98.82"/>
</g>
<!-- Node23&#45;&gt;Node10 -->
<g id="edge41" class="edge">
<title>Node23&#45;&gt;Node10</title>
<path fill="none" stroke="midnightblue" d="M2585.57,-206.91C2583.05,-192.01 2577.58,-160.47 2572,-134 2569.76,-123.35 2566.96,-111.51 2564.63,-101.98"/>
<polygon fill="midnightblue" stroke="midnightblue" points="2567.97,-100.91 2562.17,-92.05 2561.18,-102.6 2567.97,-100.91"/>
</g>
<!-- Node23&#45;&gt;Node12 -->
<g id="edge42" class="edge">
<title>Node23&#45;&gt;Node12</title>
<path fill="none" stroke="midnightblue" d="M2636.83,-213.99C2721.96,-208.95 2896.96,-187.56 3008,-98 3026.3,-83.24 3037.76,-58.56 3044.2,-40.22"/>
<polygon fill="midnightblue" stroke="midnightblue" points="3047.59,-41.13 3047.35,-30.54 3040.93,-38.96 3047.59,-41.13"/>
</g>
<!-- Node24 -->
<g id="node24" class="node">
<title>Node24</title>
<g id="a_node24"><a xlink:href="../../d9/dc0/smart__pointers_8h.html" target="_top" xlink:title=" ">
<polygon fill="none" stroke="black" points="2134.5,-140 2134.5,-159 2277.5,-159 2277.5,-140 2134.5,-140"/>
<text text-anchor="middle" x="2206" y="-147" font-family="Helvetica,sans-Serif" font-size="10.00">includes/smart_pointers.h</text>
</a>
</g>
</g>
<!-- Node23&#45;&gt;Node24 -->
<g id="edge43" class="edge">
<title>Node23&#45;&gt;Node24</title>
<path fill="none" stroke="midnightblue" d="M2537.19,-207C2467.55,-195.12 2341.23,-173.57 2266.34,-160.79"/>
<polygon fill="midnightblue" stroke="midnightblue" points="2266.57,-157.28 2256.12,-159.05 2265.39,-164.18 2266.57,-157.28"/>
</g>
<!-- Node24&#45;&gt;Node9 -->
<g id="edge44" class="edge">
<title>Node24&#45;&gt;Node9</title>
<path fill="none" stroke="midnightblue" d="M2213.86,-139.73C2231.33,-120.49 2273.29,-75.55 2292,-67 2313.2,-57.31 2642.79,-29.43 2759.46,-19.81"/>
<polygon fill="midnightblue" stroke="midnightblue" points="2760.07,-23.27 2769.74,-18.96 2759.49,-16.29 2760.07,-23.27"/>
</g>
<!-- Node25 -->
<g id="node25" class="node">
<title>Node25</title>
<g id="a_node25"><a xlink:title=" ">
<polygon fill="none" stroke="#bfbfbf" points="2118.5,-73 2118.5,-92 2163.5,-92 2163.5,-73 2118.5,-73"/>
<text text-anchor="middle" x="2141" y="-80" font-family="Helvetica,sans-Serif" font-size="10.00">utility</text>
</a>
</g>
</g>
<!-- Node24&#45;&gt;Node25 -->
<g id="edge45" class="edge">
<title>Node24&#45;&gt;Node25</title>
<path fill="none" stroke="midnightblue" d="M2197.23,-139.73C2186.9,-129.4 2169.54,-112.04 2156.83,-99.33"/>
<polygon fill="midnightblue" stroke="midnightblue" points="2159.17,-96.72 2149.63,-92.13 2154.22,-101.67 2159.17,-96.72"/>
</g>
<!-- Node26 -->
<g id="node26" class="node">
<title>Node26</title>
<g id="a_node26"><a xlink:title=" ">
<polygon fill="none" stroke="#bfbfbf" points="2182,-73 2182,-92 2240,-92 2240,-73 2182,-73"/>
<text text-anchor="middle" x="2211" y="-80" font-family="Helvetica,sans-Serif" font-size="10.00">memory</text>
</a>
</g>
</g>
<!-- Node24&#45;&gt;Node26 -->
<g id="edge46" class="edge">
<title>Node24&#45;&gt;Node26</title>
<path fill="none" stroke="midnightblue" d="M2206.67,-139.73C2207.41,-130.18 2208.61,-114.62 2209.56,-102.28"/>
<polygon fill="midnightblue" stroke="midnightblue" points="2213.06,-102.37 2210.34,-92.13 2206.08,-101.83 2213.06,-102.37"/>
</g>
<!-- Node27 -->
<g id="node27" class="node">
<title>Node27</title>
<g id="a_node27"><a xlink:title=" ">
<polygon fill="none" stroke="#bfbfbf" points="1976,-67.5 1976,-97.5 2100,-97.5 2100,-67.5 1976,-67.5"/>
<text text-anchor="start" x="1984" y="-85.5" font-family="Helvetica,sans-Serif" font-size="10.00">intrusive_ptr/intrusive</text>
<text text-anchor="middle" x="2038" y="-74.5" font-family="Helvetica,sans-Serif" font-size="10.00">_ptr.hpp</text>
</a>
</g>
</g>
<!-- Node24&#45;&gt;Node27 -->
<g id="edge47" class="edge">
<title>Node24&#45;&gt;Node27</title>
<path fill="none" stroke="midnightblue" d="M2183.69,-139.87C2158.37,-130.07 2116.39,-113.83 2083.98,-101.29"/>
<polygon fill="midnightblue" stroke="midnightblue" points="2084.85,-97.87 2074.26,-97.53 2082.32,-104.4 2084.85,-97.87"/>
</g>
<!-- Node28&#45;&gt;Node8 -->
<g id="edge51" class="edge">
<title>Node28&#45;&gt;Node8</title>
<path fill="none" stroke="midnightblue" d="M2541.96,-268.47C2457.93,-252.32 2274.59,-214.44 2125,-165 2052.58,-141.06 2016.1,-156.37 1967,-98 1952.2,-80.41 1948.44,-53.42 1947.72,-35.38"/>
<polygon fill="midnightblue" stroke="midnightblue" points="1951.22,-35.19 1947.6,-25.23 1944.22,-35.27 1951.22,-35.19"/>
</g>
<!-- Node28&#45;&gt;Node9 -->
<g id="edge52" class="edge">
<title>Node28&#45;&gt;Node9</title>
<path fill="none" stroke="midnightblue" d="M2602.22,-268.42C2638.58,-245.7 2735.23,-180 2781,-98 2791.93,-78.42 2796.59,-52.81 2798.56,-35.57"/>
<polygon fill="midnightblue" stroke="midnightblue" points="2802.09,-35.44 2799.55,-25.15 2795.12,-34.78 2802.09,-35.44"/>
</g>
<!-- Node28&#45;&gt;Node23 -->
<g id="edge53" class="edge">
<title>Node28&#45;&gt;Node23</title>
<path fill="none" stroke="midnightblue" d="M2587.86,-268.48C2587.72,-260.08 2587.5,-246.98 2587.31,-236.16"/>
<polygon fill="midnightblue" stroke="midnightblue" points="2590.81,-235.95 2587.14,-226.01 2583.81,-236.07 2590.81,-235.95"/>
</g>
<!-- Node29&#45;&gt;Node8 -->
<g id="edge56" class="edge">
<title>Node29&#45;&gt;Node8</title>
<path fill="none" stroke="midnightblue" d="M1128.66,-276.88C883.05,-276.13 94.19,-270.69 57,-232 47.45,-222.07 47.74,-211.2 57,-201 187.42,-57.24 1676.68,-21.86 1915.72,-17.1"/>
<polygon fill="midnightblue" stroke="midnightblue" points="1915.91,-20.6 1925.84,-16.9 1915.78,-13.6 1915.91,-20.6"/>
</g>
<!-- Node29&#45;&gt;Node9 -->
<g id="edge57" class="edge">
<title>Node29&#45;&gt;Node9</title>
<path fill="none" stroke="midnightblue" d="M1273.01,-275.96C1455.92,-272.89 1934.92,-262.14 2091,-232 2180.98,-214.63 2219.67,-228.23 2286,-165 2319.93,-132.65 2287.65,-95.33 2325,-67 2342.26,-53.91 2647.96,-28.53 2759.6,-19.66"/>
<polygon fill="midnightblue" stroke="midnightblue" points="2760.1,-23.13 2769.79,-18.85 2759.54,-16.15 2760.1,-23.13"/>
</g>
<!-- Node29&#45;&gt;Node23 -->
<g id="edge73" class="edge">
<title>Node29&#45;&gt;Node23</title>
<path fill="none" stroke="midnightblue" d="M1273.02,-274.46C1450.8,-268.1 1924.78,-250.68 2320,-232 2391.23,-228.63 2473.1,-224.09 2527.2,-220.99"/>
<polygon fill="midnightblue" stroke="midnightblue" points="2527.53,-224.48 2537.31,-220.41 2527.13,-217.49 2527.53,-224.48"/>
</g>
<!-- Node30 -->
<g id="node30" class="node">
<title>Node30</title>
<g id="a_node30"><a xlink:title=" ">
<polygon fill="none" stroke="#bfbfbf" points="1282,-201.5 1282,-231.5 1398,-231.5 1398,-201.5 1282,-201.5"/>
<text text-anchor="start" x="1290" y="-219.5" font-family="Helvetica,sans-Serif" font-size="10.00">boost/numeric/ublas</text>
<text text-anchor="middle" x="1340" y="-208.5" font-family="Helvetica,sans-Serif" font-size="10.00">/matrix.hpp</text>
</a>
</g>
</g>
<!-- Node29&#45;&gt;Node30 -->
<g id="edge58" class="edge">
<title>Node29&#45;&gt;Node30</title>
<path fill="none" stroke="midnightblue" d="M1220.92,-268.48C1240.88,-259.93 1272.25,-246.5 1297.78,-235.57"/>
<polygon fill="midnightblue" stroke="midnightblue" points="1299.42,-238.68 1307.24,-231.52 1296.67,-232.24 1299.42,-238.68"/>
</g>
<!-- Node31 -->
<g id="node31" class="node">
<title>Node31</title>
<g id="a_node31"><a xlink:title=" ">
<polygon fill="none" stroke="#bfbfbf" points="1416,-201.5 1416,-231.5 1532,-231.5 1532,-201.5 1416,-201.5"/>
<text text-anchor="start" x="1424" y="-219.5" font-family="Helvetica,sans-Serif" font-size="10.00">boost/numeric/ublas</text>
<text text-anchor="middle" x="1474" y="-208.5" font-family="Helvetica,sans-Serif" font-size="10.00">/vector.hpp</text>
</a>
</g>
</g>
<!-- Node29&#45;&gt;Node31 -->
<g id="edge59" class="edge">
<title>Node29&#45;&gt;Node31</title>
<path fill="none" stroke="midnightblue" d="M1240.11,-268.48C1283.33,-259.06 1353.72,-243.72 1406,-232.32"/>
<polygon fill="midnightblue" stroke="midnightblue" points="1406.85,-235.72 1415.87,-230.17 1405.36,-228.88 1406.85,-235.72"/>
</g>
<!-- Node32 -->
<g id="node32" class="node">
<title>Node32</title>
<g id="a_node32"><a xlink:title=" ">
<polygon fill="none" stroke="#bfbfbf" points="1550,-201.5 1550,-231.5 1666,-231.5 1666,-201.5 1550,-201.5"/>
<text text-anchor="start" x="1558" y="-219.5" font-family="Helvetica,sans-Serif" font-size="10.00">boost/numeric/ublas</text>
<text text-anchor="middle" x="1608" y="-208.5" font-family="Helvetica,sans-Serif" font-size="10.00">/vector_proxy.hpp</text>
</a>
</g>
</g>
<!-- Node29&#45;&gt;Node32 -->
<g id="edge60" class="edge">
<title>Node29&#45;&gt;Node32</title>
<path fill="none" stroke="midnightblue" d="M1273.23,-269.17C1339.94,-261.55 1442,-248.88 1539.88,-232.11"/>
<polygon fill="midnightblue" stroke="midnightblue" points="1540.7,-235.52 1549.95,-230.37 1539.5,-228.62 1540.7,-235.52"/>
</g>
<!-- Node33 -->
<g id="node33" class="node">
<title>Node33</title>
<g id="a_node33"><a xlink:title=" ">
<polygon fill="none" stroke="#bfbfbf" points="1684,-201.5 1684,-231.5 1800,-231.5 1800,-201.5 1684,-201.5"/>
<text text-anchor="start" x="1692" y="-219.5" font-family="Helvetica,sans-Serif" font-size="10.00">boost/numeric/ublas</text>
<text text-anchor="middle" x="1742" y="-208.5" font-family="Helvetica,sans-Serif" font-size="10.00">/vector_sparse.hpp</text>
</a>
</g>
</g>
<!-- Node29&#45;&gt;Node33 -->
<g id="edge61" class="edge">
<title>Node29&#45;&gt;Node33</title>
<path fill="none" stroke="midnightblue" d="M1273.2,-272.82C1364.32,-266.94 1526.01,-254.53 1673.81,-232.06"/>
<polygon fill="midnightblue" stroke="midnightblue" points="1674.62,-235.48 1683.97,-230.5 1673.56,-228.56 1674.62,-235.48"/>
</g>
<!-- Node34 -->
<g id="node34" class="node">
<title>Node34</title>
<g id="a_node34"><a xlink:title=" ">
<polygon fill="none" stroke="#bfbfbf" points="1818,-201.5 1818,-231.5 1948,-231.5 1948,-201.5 1818,-201.5"/>
<text text-anchor="start" x="1826" y="-219.5" font-family="Helvetica,sans-Serif" font-size="10.00">boost/numeric/ublas</text>
<text text-anchor="middle" x="1883" y="-208.5" font-family="Helvetica,sans-Serif" font-size="10.00">/vector_expression.hpp</text>
</a>
</g>
</g>
<!-- Node29&#45;&gt;Node34 -->
<g id="edge62" class="edge">
<title>Node29&#45;&gt;Node34</title>
<path fill="none" stroke="midnightblue" d="M1273.36,-274.45C1385.69,-269.86 1608.94,-258.28 1807.66,-232.07"/>
<polygon fill="midnightblue" stroke="midnightblue" points="1808.25,-235.53 1817.7,-230.73 1807.33,-228.59 1808.25,-235.53"/>
</g>
<!-- Node35 -->
<g id="node35" class="node">
<title>Node35</title>
<g id="a_node35"><a xlink:title=" ">
<polygon fill="none" stroke="#bfbfbf" points="1966,-201.5 1966,-231.5 2082,-231.5 2082,-201.5 1966,-201.5"/>
<text text-anchor="start" x="1974" y="-219.5" font-family="Helvetica,sans-Serif" font-size="10.00">boost/numeric/ublas</text>
<text text-anchor="middle" x="2024" y="-208.5" font-family="Helvetica,sans-Serif" font-size="10.00">/matrix_proxy.hpp</text>
</a>
</g>
</g>
<!-- Node29&#45;&gt;Node35 -->
<g id="edge63" class="edge">
<title>Node29&#45;&gt;Node35</title>
<path fill="none" stroke="midnightblue" d="M1273.02,-276.39C1406.09,-274.46 1699.51,-266.45 1955.74,-232.02"/>
<polygon fill="midnightblue" stroke="midnightblue" points="1956.56,-235.44 1965.99,-230.62 1955.61,-228.5 1956.56,-235.44"/>
</g>
<!-- Node36 -->
<g id="node36" class="node">
<title>Node36</title>
<g id="a_node36"><a xlink:title=" ">
<polygon fill="none" stroke="#bfbfbf" points="66,-201.5 66,-231.5 182,-231.5 182,-201.5 66,-201.5"/>
<text text-anchor="start" x="74" y="-219.5" font-family="Helvetica,sans-Serif" font-size="10.00">boost/numeric/ublas</text>
<text text-anchor="middle" x="124" y="-208.5" font-family="Helvetica,sans-Serif" font-size="10.00">/symmetric.hpp</text>
</a>
</g>
</g>
<!-- Node29&#45;&gt;Node36 -->
<g id="edge64" class="edge">
<title>Node29&#45;&gt;Node36</title>
<path fill="none" stroke="midnightblue" d="M1128.69,-275.36C932.39,-270.67 391.49,-256.03 192.09,-231.94"/>
<polygon fill="midnightblue" stroke="midnightblue" points="192.36,-228.45 182,-230.68 191.49,-235.4 192.36,-228.45"/>
</g>
<!-- Node37 -->
<g id="node37" class="node">
<title>Node37</title>
<g id="a_node37"><a xlink:title=" ">
<polygon fill="none" stroke="#bfbfbf" points="200,-201.5 200,-231.5 316,-231.5 316,-201.5 200,-201.5"/>
<text text-anchor="start" x="208" y="-219.5" font-family="Helvetica,sans-Serif" font-size="10.00">boost/numeric/ublas</text>
<text text-anchor="middle" x="258" y="-208.5" font-family="Helvetica,sans-Serif" font-size="10.00">/hermitian.hpp</text>
</a>
</g>
</g>
<!-- Node29&#45;&gt;Node37 -->
<g id="edge65" class="edge">
<title>Node29&#45;&gt;Node37</title>
<path fill="none" stroke="midnightblue" d="M1128.82,-277.23C980.24,-276.85 629.43,-271.55 326.31,-232.01"/>
<polygon fill="midnightblue" stroke="midnightblue" points="326.38,-228.49 316,-230.65 325.46,-235.43 326.38,-228.49"/>
</g>
<!-- Node38 -->
<g id="node38" class="node">
<title>Node38</title>
<g id="a_node38"><a xlink:title=" ">
<polygon fill="none" stroke="#bfbfbf" points="334,-201.5 334,-231.5 450,-231.5 450,-201.5 334,-201.5"/>
<text text-anchor="start" x="342" y="-219.5" font-family="Helvetica,sans-Serif" font-size="10.00">boost/numeric/ublas</text>
<text text-anchor="middle" x="392" y="-208.5" font-family="Helvetica,sans-Serif" font-size="10.00">/banded.hpp</text>
</a>
</g>
</g>
<!-- Node29&#45;&gt;Node38 -->
<g id="edge66" class="edge">
<title>Node29&#45;&gt;Node38</title>
<path fill="none" stroke="midnightblue" d="M1128.75,-276.27C997.41,-274.14 710.72,-265.83 460.04,-231.99"/>
<polygon fill="midnightblue" stroke="midnightblue" points="460.39,-228.51 450.01,-230.62 459.44,-235.44 460.39,-228.51"/>
</g>
<!-- Node39 -->
<g id="node39" class="node">
<title>Node39</title>
<g id="a_node39"><a xlink:title=" ">
<polygon fill="none" stroke="#bfbfbf" points="468,-201.5 468,-231.5 584,-231.5 584,-201.5 468,-201.5"/>
<text text-anchor="start" x="476" y="-219.5" font-family="Helvetica,sans-Serif" font-size="10.00">boost/numeric/ublas</text>
<text text-anchor="middle" x="526" y="-208.5" font-family="Helvetica,sans-Serif" font-size="10.00">/triangular.hpp</text>
</a>
</g>
</g>
<!-- Node29&#45;&gt;Node39 -->
<g id="edge67" class="edge">
<title>Node29&#45;&gt;Node39</title>
<path fill="none" stroke="midnightblue" d="M1128.58,-274.9C1016.17,-270.92 792.8,-260.14 594.06,-232.01"/>
<polygon fill="midnightblue" stroke="midnightblue" points="594.41,-228.53 584.01,-230.57 593.42,-235.46 594.41,-228.53"/>
</g>
<!-- Node40 -->
<g id="node40" class="node">
<title>Node40</title>
<g id="a_node40"><a xlink:title=" ">
<polygon fill="none" stroke="#bfbfbf" points="602,-201.5 602,-231.5 718,-231.5 718,-201.5 602,-201.5"/>
<text text-anchor="start" x="610" y="-219.5" font-family="Helvetica,sans-Serif" font-size="10.00">boost/numeric/ublas</text>
<text text-anchor="middle" x="660" y="-208.5" font-family="Helvetica,sans-Serif" font-size="10.00">/lu.hpp</text>
</a>
</g>
</g>
<!-- Node29&#45;&gt;Node40 -->
<g id="edge68" class="edge">
<title>Node29&#45;&gt;Node40</title>
<path fill="none" stroke="midnightblue" d="M1128.8,-272.82C1037.68,-266.94 875.99,-254.53 728.19,-232.06"/>
<polygon fill="midnightblue" stroke="midnightblue" points="728.44,-228.56 718.03,-230.5 727.38,-235.48 728.44,-228.56"/>
</g>
<!-- Node41 -->
<g id="node41" class="node">
<title>Node41</title>
<g id="a_node41"><a xlink:title=" ">
<polygon fill="none" stroke="#bfbfbf" points="736,-201.5 736,-231.5 852,-231.5 852,-201.5 736,-201.5"/>
<text text-anchor="start" x="744" y="-219.5" font-family="Helvetica,sans-Serif" font-size="10.00">boost/numeric/ublas</text>
<text text-anchor="middle" x="794" y="-208.5" font-family="Helvetica,sans-Serif" font-size="10.00">/io.hpp</text>
</a>
</g>
</g>
<!-- Node29&#45;&gt;Node41 -->
<g id="edge69" class="edge">
<title>Node29&#45;&gt;Node41</title>
<path fill="none" stroke="midnightblue" d="M1128.77,-269.17C1062.06,-261.55 960,-248.88 862.12,-232.11"/>
<polygon fill="midnightblue" stroke="midnightblue" points="862.5,-228.62 852.05,-230.37 861.3,-235.52 862.5,-228.62"/>
</g>
<!-- Node42 -->
<g id="node42" class="node">
<title>Node42</title>
<g id="a_node42"><a xlink:title=" ">
<polygon fill="none" stroke="#bfbfbf" points="870,-201.5 870,-231.5 986,-231.5 986,-201.5 870,-201.5"/>
<text text-anchor="start" x="878" y="-219.5" font-family="Helvetica,sans-Serif" font-size="10.00">boost/numeric/ublas</text>
<text text-anchor="middle" x="928" y="-208.5" font-family="Helvetica,sans-Serif" font-size="10.00">/matrix_sparse.hpp</text>
</a>
</g>
</g>
<!-- Node29&#45;&gt;Node42 -->
<g id="edge70" class="edge">
<title>Node29&#45;&gt;Node42</title>
<path fill="none" stroke="midnightblue" d="M1161.89,-268.48C1118.67,-259.06 1048.28,-243.72 996,-232.32"/>
<polygon fill="midnightblue" stroke="midnightblue" points="996.64,-228.88 986.13,-230.17 995.15,-235.72 996.64,-228.88"/>
</g>
<!-- Node43 -->
<g id="node43" class="node">
<title>Node43</title>
<g id="a_node43"><a xlink:title=" ">
<polygon fill="none" stroke="#bfbfbf" points="1004,-201.5 1004,-231.5 1120,-231.5 1120,-201.5 1004,-201.5"/>
<text text-anchor="start" x="1012" y="-219.5" font-family="Helvetica,sans-Serif" font-size="10.00">boost/numeric/ublas</text>
<text text-anchor="middle" x="1062" y="-208.5" font-family="Helvetica,sans-Serif" font-size="10.00">/operation.hpp</text>
</a>
</g>
</g>
<!-- Node29&#45;&gt;Node43 -->
<g id="edge71" class="edge">
<title>Node29&#45;&gt;Node43</title>
<path fill="none" stroke="midnightblue" d="M1181.08,-268.48C1161.12,-259.93 1129.75,-246.5 1104.22,-235.57"/>
<polygon fill="midnightblue" stroke="midnightblue" points="1105.33,-232.24 1094.76,-231.52 1102.58,-238.68 1105.33,-232.24"/>
</g>
<!-- Node44 -->
<g id="node44" class="node">
<title>Node44</title>
<g id="a_node44"><a xlink:title=" ">
<polygon fill="none" stroke="#bfbfbf" points="1138.5,-201.5 1138.5,-231.5 1263.5,-231.5 1263.5,-201.5 1138.5,-201.5"/>
<text text-anchor="start" x="1146.5" y="-219.5" font-family="Helvetica,sans-Serif" font-size="10.00">boost/numeric/ublas</text>
<text text-anchor="middle" x="1201" y="-208.5" font-family="Helvetica,sans-Serif" font-size="10.00">/operation_sparse.hpp</text>
</a>
</g>
</g>
<!-- Node29&#45;&gt;Node44 -->
<g id="edge72" class="edge">
<title>Node29&#45;&gt;Node44</title>
<path fill="none" stroke="midnightblue" d="M1201,-268.48C1201,-261.47 1201,-251.19 1201,-241.7"/>
<polygon fill="midnightblue" stroke="midnightblue" points="1204.5,-241.52 1201,-231.52 1197.5,-241.52 1204.5,-241.52"/>
</g>
</g>
</svg>
