<?xml version="1.0" encoding="UTF-8" standalone="no"?>
<!DOCTYPE svg PUBLIC "-//W3C//DTD SVG 1.1//EN"
 "http://www.w3.org/Graphics/SVG/1.1/DTD/svg11.dtd">
<!-- Generated by graphviz version 2.43.0 (0)
 -->
<!-- Title: /home/runner/work/Documentation/Documentation/master/applications/FluidTransportApplication/custom_elements/steady_convection_diffusion_FIC_element.hpp Pages: 1 -->
<svg width="872pt" height="461pt"
 viewBox="0.00 0.00 872.00 461.00" xmlns="http://www.w3.org/2000/svg" xmlns:xlink="http://www.w3.org/1999/xlink">
<g id="graph0" class="graph" transform="scale(1 1) rotate(0) translate(4 457)">
<title>/home/runner/work/Documentation/Documentation/master/applications/FluidTransportApplication/custom_elements/steady_convection_diffusion_FIC_element.hpp</title>
<!-- Node1 -->
<g id="node1" class="node">
<title>Node1</title>
<g id="a_node1"><a xlink:title=" ">
<polygon fill="#bfbfbf" stroke="black" points="381.5,-389.5 381.5,-452.5 590.5,-452.5 590.5,-389.5 381.5,-389.5"/>
<text text-anchor="start" x="389.5" y="-440.5" font-family="Helvetica,sans-Serif" font-size="10.00">/home/runner/work/Documentation</text>
<text text-anchor="start" x="389.5" y="-429.5" font-family="Helvetica,sans-Serif" font-size="10.00">/Documentation/master/applications</text>
<text text-anchor="start" x="389.5" y="-418.5" font-family="Helvetica,sans-Serif" font-size="10.00">/FluidTransportApplication/custom</text>
<text text-anchor="start" x="389.5" y="-407.5" font-family="Helvetica,sans-Serif" font-size="10.00">_elements/steady_convection_diffusion</text>
<text text-anchor="middle" x="486" y="-396.5" font-family="Helvetica,sans-Serif" font-size="10.00">_FIC_element.hpp</text>
</a>
</g>
</g>
<!-- Node2 -->
<g id="node2" class="node">
<title>Node2</title>
<g id="a_node2"><a xlink:href="../../d6/d35/steady__convection__diffusion___f_i_c__element_8cpp.html" target="_top" xlink:title=" ">
<polygon fill="none" stroke="black" points="148.5,-289.5 148.5,-352.5 357.5,-352.5 357.5,-289.5 148.5,-289.5"/>
<text text-anchor="start" x="156.5" y="-340.5" font-family="Helvetica,sans-Serif" font-size="10.00">/home/runner/work/Documentation</text>
<text text-anchor="start" x="156.5" y="-329.5" font-family="Helvetica,sans-Serif" font-size="10.00">/Documentation/master/applications</text>
<text text-anchor="start" x="156.5" y="-318.5" font-family="Helvetica,sans-Serif" font-size="10.00">/FluidTransportApplication/custom</text>
<text text-anchor="start" x="156.5" y="-307.5" font-family="Helvetica,sans-Serif" font-size="10.00">_elements/steady_convection_diffusion</text>
<text text-anchor="middle" x="253" y="-296.5" font-family="Helvetica,sans-Serif" font-size="10.00">_FIC_element.cpp</text>
</a>
</g>
</g>
<!-- Node1&#45;&gt;Node2 -->
<g id="edge1" class="edge">
<title>Node1&#45;&gt;Node2</title>
<path fill="none" stroke="midnightblue" d="M403.95,-385.49C378.41,-374.75 350.45,-362.99 325.61,-352.54"/>
<polygon fill="midnightblue" stroke="midnightblue" points="402.66,-388.74 413.24,-389.4 405.37,-382.29 402.66,-388.74"/>
</g>
<!-- Node3 -->
<g id="node3" class="node">
<title>Node3</title>
<g id="a_node3"><a xlink:href="../../d7/d72/transient__convection__diffusion___f_i_c__element_8hpp.html" target="_top" xlink:title=" ">
<polygon fill="none" stroke="black" points="376,-289.5 376,-352.5 596,-352.5 596,-289.5 376,-289.5"/>
<text text-anchor="start" x="384" y="-340.5" font-family="Helvetica,sans-Serif" font-size="10.00">/home/runner/work/Documentation</text>
<text text-anchor="start" x="384" y="-329.5" font-family="Helvetica,sans-Serif" font-size="10.00">/Documentation/master/applications</text>
<text text-anchor="start" x="384" y="-318.5" font-family="Helvetica,sans-Serif" font-size="10.00">/FluidTransportApplication/custom</text>
<text text-anchor="start" x="384" y="-307.5" font-family="Helvetica,sans-Serif" font-size="10.00">_elements/transient_convection_diffusion</text>
<text text-anchor="middle" x="486" y="-296.5" font-family="Helvetica,sans-Serif" font-size="10.00">_FIC_element.hpp</text>
</a>
</g>
</g>
<!-- Node1&#45;&gt;Node3 -->
<g id="edge2" class="edge">
<title>Node1&#45;&gt;Node3</title>
<path fill="none" stroke="midnightblue" d="M486,-379.1C486,-370.24 486,-361.01 486,-352.63"/>
<polygon fill="midnightblue" stroke="midnightblue" points="482.5,-379.26 486,-389.26 489.5,-379.26 482.5,-379.26"/>
</g>
<!-- Node7 -->
<g id="node7" class="node">
<title>Node7</title>
<g id="a_node7"><a xlink:href="../../dc/d69/fluid__transport__application_8h.html" target="_top" xlink:title=" ">
<polygon fill="none" stroke="black" points="432,-95 432,-147 626,-147 626,-95 432,-95"/>
<text text-anchor="start" x="440" y="-135" font-family="Helvetica,sans-Serif" font-size="10.00">/home/runner/work/Documentation</text>
<text text-anchor="start" x="440" y="-124" font-family="Helvetica,sans-Serif" font-size="10.00">/Documentation/master/applications</text>
<text text-anchor="start" x="440" y="-113" font-family="Helvetica,sans-Serif" font-size="10.00">/FluidTransportApplication/fluid</text>
<text text-anchor="middle" x="529" y="-102" font-family="Helvetica,sans-Serif" font-size="10.00">_transport_application.h</text>
</a>
</g>
</g>
<!-- Node1&#45;&gt;Node7 -->
<g id="edge12" class="edge">
<title>Node1&#45;&gt;Node7</title>
<path fill="none" stroke="midnightblue" d="M583.91,-385.4C642.1,-359.04 710.69,-316.32 743,-253 755.93,-227.66 759.84,-211.92 743,-189 740.9,-186.15 672.06,-164.89 613.02,-147.08"/>
<polygon fill="midnightblue" stroke="midnightblue" points="582.39,-382.25 574.66,-389.5 585.23,-388.65 582.39,-382.25"/>
</g>
<!-- Node4 -->
<g id="node4" class="node">
<title>Node4</title>
<g id="a_node4"><a xlink:href="../../db/d08/transient__convection__diffusion___f_i_c__element_8cpp.html" target="_top" xlink:title=" ">
<polygon fill="none" stroke="black" points="0,-189.5 0,-252.5 220,-252.5 220,-189.5 0,-189.5"/>
<text text-anchor="start" x="8" y="-240.5" font-family="Helvetica,sans-Serif" font-size="10.00">/home/runner/work/Documentation</text>
<text text-anchor="start" x="8" y="-229.5" font-family="Helvetica,sans-Serif" font-size="10.00">/Documentation/master/applications</text>
<text text-anchor="start" x="8" y="-218.5" font-family="Helvetica,sans-Serif" font-size="10.00">/FluidTransportApplication/custom</text>
<text text-anchor="start" x="8" y="-207.5" font-family="Helvetica,sans-Serif" font-size="10.00">_elements/transient_convection_diffusion</text>
<text text-anchor="middle" x="110" y="-196.5" font-family="Helvetica,sans-Serif" font-size="10.00">_FIC_element.cpp</text>
</a>
</g>
</g>
<!-- Node3&#45;&gt;Node4 -->
<g id="edge3" class="edge">
<title>Node3&#45;&gt;Node4</title>
<path fill="none" stroke="midnightblue" d="M366.09,-288.75C319.27,-276.54 265.92,-262.64 220.09,-250.69"/>
<polygon fill="midnightblue" stroke="midnightblue" points="365.42,-292.19 375.98,-291.32 367.19,-285.42 365.42,-292.19"/>
</g>
<!-- Node5 -->
<g id="node5" class="node">
<title>Node5</title>
<g id="a_node5"><a xlink:href="../../d2/def/transient__convection__diffusion___f_i_c__explicit__element_8hpp.html" target="_top" xlink:title=" ">
<polygon fill="none" stroke="black" points="238,-189.5 238,-252.5 458,-252.5 458,-189.5 238,-189.5"/>
<text text-anchor="start" x="246" y="-240.5" font-family="Helvetica,sans-Serif" font-size="10.00">/home/runner/work/Documentation</text>
<text text-anchor="start" x="246" y="-229.5" font-family="Helvetica,sans-Serif" font-size="10.00">/Documentation/master/applications</text>
<text text-anchor="start" x="246" y="-218.5" font-family="Helvetica,sans-Serif" font-size="10.00">/FluidTransportApplication/custom</text>
<text text-anchor="start" x="246" y="-207.5" font-family="Helvetica,sans-Serif" font-size="10.00">_elements/transient_convection_diffusion</text>
<text text-anchor="middle" x="348" y="-196.5" font-family="Helvetica,sans-Serif" font-size="10.00">_FIC_explicit_element.hpp</text>
</a>
</g>
</g>
<!-- Node3&#45;&gt;Node5 -->
<g id="edge4" class="edge">
<title>Node3&#45;&gt;Node5</title>
<path fill="none" stroke="midnightblue" d="M434.46,-283.4C420.19,-273.27 404.86,-262.38 391.13,-252.63"/>
<polygon fill="midnightblue" stroke="midnightblue" points="432.53,-286.32 442.71,-289.26 436.59,-280.62 432.53,-286.32"/>
</g>
<!-- Node3&#45;&gt;Node7 -->
<g id="edge11" class="edge">
<title>Node3&#45;&gt;Node7</title>
<path fill="none" stroke="midnightblue" d="M489.79,-279.22C492.73,-253.16 497.58,-218.79 505,-189 508.52,-174.85 513.9,-159.51 518.67,-147.08"/>
<polygon fill="midnightblue" stroke="midnightblue" points="486.28,-279.17 488.68,-289.49 493.24,-279.92 486.28,-279.17"/>
</g>
<!-- Node9 -->
<g id="node9" class="node">
<title>Node9</title>
<g id="a_node9"><a xlink:href="../../dc/d99/transient__convection__diffusion___p_f_e_m2___f_i_c__element_8hpp.html" target="_top" xlink:title=" ">
<polygon fill="none" stroke="black" points="514,-189.5 514,-252.5 734,-252.5 734,-189.5 514,-189.5"/>
<text text-anchor="start" x="522" y="-240.5" font-family="Helvetica,sans-Serif" font-size="10.00">/home/runner/work/Documentation</text>
<text text-anchor="start" x="522" y="-229.5" font-family="Helvetica,sans-Serif" font-size="10.00">/Documentation/master/applications</text>
<text text-anchor="start" x="522" y="-218.5" font-family="Helvetica,sans-Serif" font-size="10.00">/FluidTransportApplication/custom</text>
<text text-anchor="start" x="522" y="-207.5" font-family="Helvetica,sans-Serif" font-size="10.00">_elements/transient_convection_diffusion</text>
<text text-anchor="middle" x="624" y="-196.5" font-family="Helvetica,sans-Serif" font-size="10.00">_PFEM2_FIC_element.hpp</text>
</a>
</g>
</g>
<!-- Node3&#45;&gt;Node9 -->
<g id="edge8" class="edge">
<title>Node3&#45;&gt;Node9</title>
<path fill="none" stroke="midnightblue" d="M537.54,-283.4C551.81,-273.27 567.14,-262.38 580.87,-252.63"/>
<polygon fill="midnightblue" stroke="midnightblue" points="535.41,-280.62 529.29,-289.26 539.47,-286.32 535.41,-280.62"/>
</g>
<!-- Node6 -->
<g id="node6" class="node">
<title>Node6</title>
<g id="a_node6"><a xlink:href="../../d2/d75/transient__convection__diffusion___f_i_c__explicit__element_8cpp.html" target="_top" xlink:title=" ">
<polygon fill="none" stroke="black" points="194,-89.5 194,-152.5 414,-152.5 414,-89.5 194,-89.5"/>
<text text-anchor="start" x="202" y="-140.5" font-family="Helvetica,sans-Serif" font-size="10.00">/home/runner/work/Documentation</text>
<text text-anchor="start" x="202" y="-129.5" font-family="Helvetica,sans-Serif" font-size="10.00">/Documentation/master/applications</text>
<text text-anchor="start" x="202" y="-118.5" font-family="Helvetica,sans-Serif" font-size="10.00">/FluidTransportApplication/custom</text>
<text text-anchor="start" x="202" y="-107.5" font-family="Helvetica,sans-Serif" font-size="10.00">_elements/transient_convection_diffusion</text>
<text text-anchor="middle" x="304" y="-96.5" font-family="Helvetica,sans-Serif" font-size="10.00">_FIC_explicit_element.cpp</text>
</a>
</g>
</g>
<!-- Node5&#45;&gt;Node6 -->
<g id="edge5" class="edge">
<title>Node5&#45;&gt;Node6</title>
<path fill="none" stroke="midnightblue" d="M330.02,-179.96C325.93,-170.84 321.64,-161.29 317.75,-152.63"/>
<polygon fill="midnightblue" stroke="midnightblue" points="326.91,-181.57 334.2,-189.26 333.3,-178.7 326.91,-181.57"/>
</g>
<!-- Node5&#45;&gt;Node7 -->
<g id="edge6" class="edge">
<title>Node5&#45;&gt;Node7</title>
<path fill="none" stroke="midnightblue" d="M413.74,-184.4C436.61,-172.02 461.77,-158.4 482.73,-147.05"/>
<polygon fill="midnightblue" stroke="midnightblue" points="411.9,-181.42 404.77,-189.26 415.23,-187.58 411.9,-181.42"/>
</g>
<!-- Node8 -->
<g id="node8" class="node">
<title>Node8</title>
<g id="a_node8"><a xlink:href="../../d9/d50/fluid__transport__application_8cpp.html" target="_top" xlink:title=" ">
<polygon fill="none" stroke="black" points="432,-0.5 432,-52.5 626,-52.5 626,-0.5 432,-0.5"/>
<text text-anchor="start" x="440" y="-40.5" font-family="Helvetica,sans-Serif" font-size="10.00">/home/runner/work/Documentation</text>
<text text-anchor="start" x="440" y="-29.5" font-family="Helvetica,sans-Serif" font-size="10.00">/Documentation/master/applications</text>
<text text-anchor="start" x="440" y="-18.5" font-family="Helvetica,sans-Serif" font-size="10.00">/FluidTransportApplication/fluid</text>
<text text-anchor="middle" x="529" y="-7.5" font-family="Helvetica,sans-Serif" font-size="10.00">_transport_application.cpp</text>
</a>
</g>
</g>
<!-- Node7&#45;&gt;Node8 -->
<g id="edge7" class="edge">
<title>Node7&#45;&gt;Node8</title>
<path fill="none" stroke="midnightblue" d="M529,-84.49C529,-73.91 529,-62.53 529,-52.75"/>
<polygon fill="midnightblue" stroke="midnightblue" points="525.5,-84.72 529,-94.72 532.5,-84.72 525.5,-84.72"/>
</g>
<!-- Node9&#45;&gt;Node7 -->
<g id="edge10" class="edge">
<title>Node9&#45;&gt;Node7</title>
<path fill="none" stroke="midnightblue" d="M586.93,-181.76C575.63,-170.1 563.51,-157.6 553.29,-147.05"/>
<polygon fill="midnightblue" stroke="midnightblue" points="584.73,-184.52 594.2,-189.26 589.75,-179.64 584.73,-184.52"/>
</g>
<!-- Node10 -->
<g id="node10" class="node">
<title>Node10</title>
<g id="a_node10"><a xlink:href="../../d6/d51/transient__convection__diffusion___p_f_e_m2___f_i_c__element_8cpp.html" target="_top" xlink:title=" ">
<polygon fill="none" stroke="black" points="644,-89.5 644,-152.5 864,-152.5 864,-89.5 644,-89.5"/>
<text text-anchor="start" x="652" y="-140.5" font-family="Helvetica,sans-Serif" font-size="10.00">/home/runner/work/Documentation</text>
<text text-anchor="start" x="652" y="-129.5" font-family="Helvetica,sans-Serif" font-size="10.00">/Documentation/master/applications</text>
<text text-anchor="start" x="652" y="-118.5" font-family="Helvetica,sans-Serif" font-size="10.00">/FluidTransportApplication/custom</text>
<text text-anchor="start" x="652" y="-107.5" font-family="Helvetica,sans-Serif" font-size="10.00">_elements/transient_convection_diffusion</text>
<text text-anchor="middle" x="754" y="-96.5" font-family="Helvetica,sans-Serif" font-size="10.00">_PFEM2_FIC_element.cpp</text>
</a>
</g>
</g>
<!-- Node9&#45;&gt;Node10 -->
<g id="edge9" class="edge">
<title>Node9&#45;&gt;Node10</title>
<path fill="none" stroke="midnightblue" d="M672.93,-183.11C686.26,-173.06 700.55,-162.29 713.37,-152.63"/>
<polygon fill="midnightblue" stroke="midnightblue" points="670.65,-180.45 664.78,-189.26 674.87,-186.04 670.65,-180.45"/>
</g>
</g>
</svg>
