<?xml version="1.0" encoding="UTF-8" standalone="no"?>
<!DOCTYPE svg PUBLIC "-//W3C//DTD SVG 1.1//EN"
 "http://www.w3.org/Graphics/SVG/1.1/DTD/svg11.dtd">
<!-- Generated by graphviz version 2.43.0 (0)
 -->
<!-- Title: /home/runner/work/Documentation/Documentation/master/applications/StructuralMechanicsApplication/custom_strategies/custom_strategies/mechanical_explicit_strategy.hpp Pages: 1 -->
<svg width="438pt" height="372pt"
 viewBox="0.00 0.00 437.50 372.00" xmlns="http://www.w3.org/2000/svg" xmlns:xlink="http://www.w3.org/1999/xlink">
<g id="graph0" class="graph" transform="scale(1 1) rotate(0) translate(4 368)">
<title>/home/runner/work/Documentation/Documentation/master/applications/StructuralMechanicsApplication/custom_strategies/custom_strategies/mechanical_explicit_strategy.hpp</title>
<!-- Node1 -->
<g id="node1" class="node">
<title>Node1</title>
<g id="a_node1"><a xlink:title=" ">
<polygon fill="#bfbfbf" stroke="black" points="110.5,-300.5 110.5,-363.5 313.5,-363.5 313.5,-300.5 110.5,-300.5"/>
<text text-anchor="start" x="118.5" y="-351.5" font-family="Helvetica,sans-Serif" font-size="10.00">/home/runner/work/Documentation</text>
<text text-anchor="start" x="118.5" y="-340.5" font-family="Helvetica,sans-Serif" font-size="10.00">/Documentation/master/applications</text>
<text text-anchor="start" x="118.5" y="-329.5" font-family="Helvetica,sans-Serif" font-size="10.00">/StructuralMechanicsApplication</text>
<text text-anchor="start" x="118.5" y="-318.5" font-family="Helvetica,sans-Serif" font-size="10.00">/custom_strategies/custom_strategies</text>
<text text-anchor="middle" x="212" y="-307.5" font-family="Helvetica,sans-Serif" font-size="10.00">/mechanical_explicit_strategy.hpp</text>
</a>
</g>
</g>
<!-- Node2 -->
<g id="node2" class="node">
<title>Node2</title>
<g id="a_node2"><a xlink:href="../../d0/dbe/poromechanics__explicit__strategy_8hpp.html" target="_top" xlink:title=" ">
<polygon fill="none" stroke="black" points="0,-200.5 0,-263.5 200,-263.5 200,-200.5 0,-200.5"/>
<text text-anchor="start" x="8" y="-251.5" font-family="Helvetica,sans-Serif" font-size="10.00">/home/runner/work/Documentation</text>
<text text-anchor="start" x="8" y="-240.5" font-family="Helvetica,sans-Serif" font-size="10.00">/Documentation/master/applications</text>
<text text-anchor="start" x="8" y="-229.5" font-family="Helvetica,sans-Serif" font-size="10.00">/PoromechanicsApplication/custom</text>
<text text-anchor="start" x="8" y="-218.5" font-family="Helvetica,sans-Serif" font-size="10.00">_strategies/strategies/poromechanics</text>
<text text-anchor="middle" x="100" y="-207.5" font-family="Helvetica,sans-Serif" font-size="10.00">_explicit_strategy.hpp</text>
</a>
</g>
</g>
<!-- Node1&#45;&gt;Node2 -->
<g id="edge1" class="edge">
<title>Node1&#45;&gt;Node2</title>
<path fill="none" stroke="midnightblue" d="M169.19,-293.54C157.9,-283.66 145.84,-273.11 135.01,-263.63"/>
<polygon fill="midnightblue" stroke="midnightblue" points="167.04,-296.31 176.87,-300.26 171.65,-291.04 167.04,-296.31"/>
</g>
<!-- Node5 -->
<g id="node5" class="node">
<title>Node5</title>
<g id="a_node5"><a xlink:href="../../d7/d8b/_structural_mechanics_application_2custom__python_2add__custom__strategies__to__python_8cpp.html" target="_top" xlink:title=" ">
<polygon fill="none" stroke="black" points="218.5,-200.5 218.5,-263.5 429.5,-263.5 429.5,-200.5 218.5,-200.5"/>
<text text-anchor="start" x="226.5" y="-251.5" font-family="Helvetica,sans-Serif" font-size="10.00">/home/runner/work/Documentation</text>
<text text-anchor="start" x="226.5" y="-240.5" font-family="Helvetica,sans-Serif" font-size="10.00">/Documentation/master/applications</text>
<text text-anchor="start" x="226.5" y="-229.5" font-family="Helvetica,sans-Serif" font-size="10.00">/StructuralMechanicsApplication</text>
<text text-anchor="start" x="226.5" y="-218.5" font-family="Helvetica,sans-Serif" font-size="10.00">/custom_python/add_custom_strategies</text>
<text text-anchor="middle" x="324" y="-207.5" font-family="Helvetica,sans-Serif" font-size="10.00">_to_python.cpp</text>
</a>
</g>
</g>
<!-- Node1&#45;&gt;Node5 -->
<g id="edge5" class="edge">
<title>Node1&#45;&gt;Node5</title>
<path fill="none" stroke="midnightblue" d="M254.81,-293.54C266.1,-283.66 278.16,-273.11 288.99,-263.63"/>
<polygon fill="midnightblue" stroke="midnightblue" points="252.35,-291.04 247.13,-300.26 256.96,-296.31 252.35,-291.04"/>
</g>
<!-- Node3 -->
<g id="node3" class="node">
<title>Node3</title>
<g id="a_node3"><a xlink:href="../../d6/d5f/_poromechanics_application_2custom__python_2add__custom__strategies__to__python_8cpp.html" target="_top" xlink:title=" ">
<polygon fill="none" stroke="black" points="3,-0.5 3,-63.5 197,-63.5 197,-0.5 3,-0.5"/>
<text text-anchor="start" x="11" y="-51.5" font-family="Helvetica,sans-Serif" font-size="10.00">/home/runner/work/Documentation</text>
<text text-anchor="start" x="11" y="-40.5" font-family="Helvetica,sans-Serif" font-size="10.00">/Documentation/master/applications</text>
<text text-anchor="start" x="11" y="-29.5" font-family="Helvetica,sans-Serif" font-size="10.00">/PoromechanicsApplication/custom</text>
<text text-anchor="start" x="11" y="-18.5" font-family="Helvetica,sans-Serif" font-size="10.00">_python/add_custom_strategies_to</text>
<text text-anchor="middle" x="100" y="-7.5" font-family="Helvetica,sans-Serif" font-size="10.00">_python.cpp</text>
</a>
</g>
</g>
<!-- Node2&#45;&gt;Node3 -->
<g id="edge2" class="edge">
<title>Node2&#45;&gt;Node3</title>
<path fill="none" stroke="midnightblue" d="M68.23,-191.88C62.79,-183.17 57.94,-173.65 55,-164 46.71,-136.79 46.71,-127.21 55,-100 58.92,-87.13 66.23,-74.49 73.83,-63.72"/>
<polygon fill="midnightblue" stroke="midnightblue" points="65.37,-193.9 73.83,-200.28 71.2,-190.02 65.37,-193.9"/>
</g>
<!-- Node4 -->
<g id="node4" class="node">
<title>Node4</title>
<g id="a_node4"><a xlink:href="../../da/d6d/poromechanics__explicit__nonlocal__strategy_8hpp.html" target="_top" xlink:title=" ">
<polygon fill="none" stroke="black" points="64,-100.5 64,-163.5 264,-163.5 264,-100.5 64,-100.5"/>
<text text-anchor="start" x="72" y="-151.5" font-family="Helvetica,sans-Serif" font-size="10.00">/home/runner/work/Documentation</text>
<text text-anchor="start" x="72" y="-140.5" font-family="Helvetica,sans-Serif" font-size="10.00">/Documentation/master/applications</text>
<text text-anchor="start" x="72" y="-129.5" font-family="Helvetica,sans-Serif" font-size="10.00">/PoromechanicsApplication/custom</text>
<text text-anchor="start" x="72" y="-118.5" font-family="Helvetica,sans-Serif" font-size="10.00">_strategies/strategies/poromechanics</text>
<text text-anchor="middle" x="164" y="-107.5" font-family="Helvetica,sans-Serif" font-size="10.00">_explicit_nonlocal_strategy.hpp</text>
</a>
</g>
</g>
<!-- Node2&#45;&gt;Node4 -->
<g id="edge3" class="edge">
<title>Node2&#45;&gt;Node4</title>
<path fill="none" stroke="midnightblue" d="M125.58,-191.83C131.71,-182.44 138.16,-172.56 144,-163.63"/>
<polygon fill="midnightblue" stroke="midnightblue" points="122.61,-189.97 120.07,-200.26 128.47,-193.8 122.61,-189.97"/>
</g>
<!-- Node4&#45;&gt;Node3 -->
<g id="edge4" class="edge">
<title>Node4&#45;&gt;Node3</title>
<path fill="none" stroke="midnightblue" d="M138.42,-91.83C132.29,-82.44 125.84,-72.56 120,-63.63"/>
<polygon fill="midnightblue" stroke="midnightblue" points="135.53,-93.8 143.93,-100.26 141.39,-89.97 135.53,-93.8"/>
</g>
</g>
</svg>
