<?xml version="1.0" encoding="UTF-8" standalone="no"?>
<!DOCTYPE svg PUBLIC "-//W3C//DTD SVG 1.1//EN"
 "http://www.w3.org/Graphics/SVG/1.1/DTD/svg11.dtd">
<!-- Generated by graphviz version 2.43.0 (0)
 -->
<!-- Title: /home/runner/work/Documentation/Documentation/master/applications/ConstitutiveLawsApplication/custom_constitutive/auxiliary_files/yield_surfaces/von_mises_yield_surface.h Pages: 1 -->
<svg width="3933pt" height="494pt"
 viewBox="0.00 0.00 3932.50 494.00" xmlns="http://www.w3.org/2000/svg" xmlns:xlink="http://www.w3.org/1999/xlink">
<g id="graph0" class="graph" transform="scale(1 1) rotate(0) translate(4 490)">
<title>/home/runner/work/Documentation/Documentation/master/applications/ConstitutiveLawsApplication/custom_constitutive/auxiliary_files/yield_surfaces/von_mises_yield_surface.h</title>
<!-- Node1 -->
<g id="node1" class="node">
<title>Node1</title>
<g id="a_node1"><a xlink:title=" ">
<polygon fill="#bfbfbf" stroke="black" points="1902.5,-422.5 1902.5,-485.5 2100.5,-485.5 2100.5,-422.5 1902.5,-422.5"/>
<text text-anchor="start" x="1910.5" y="-473.5" font-family="Helvetica,sans-Serif" font-size="10.00">/home/runner/work/Documentation</text>
<text text-anchor="start" x="1910.5" y="-462.5" font-family="Helvetica,sans-Serif" font-size="10.00">/Documentation/master/applications</text>
<text text-anchor="start" x="1910.5" y="-451.5" font-family="Helvetica,sans-Serif" font-size="10.00">/ConstitutiveLawsApplication/custom</text>
<text text-anchor="start" x="1910.5" y="-440.5" font-family="Helvetica,sans-Serif" font-size="10.00">_constitutive/auxiliary_files/yield</text>
<text text-anchor="middle" x="2001.5" y="-429.5" font-family="Helvetica,sans-Serif" font-size="10.00">_surfaces/von_mises_yield_surface.h</text>
</a>
</g>
</g>
<!-- Node2 -->
<g id="node2" class="node">
<title>Node2</title>
<g id="a_node2"><a xlink:href="../../dc/d99/constitutive__laws__application_8h.html" target="_top" xlink:title=" ">
<polygon fill="none" stroke="black" points="251,-100.5 251,-152.5 470,-152.5 470,-100.5 251,-100.5"/>
<text text-anchor="start" x="259" y="-140.5" font-family="Helvetica,sans-Serif" font-size="10.00">/home/runner/work/Documentation</text>
<text text-anchor="start" x="259" y="-129.5" font-family="Helvetica,sans-Serif" font-size="10.00">/Documentation/master/applications</text>
<text text-anchor="start" x="259" y="-118.5" font-family="Helvetica,sans-Serif" font-size="10.00">/ConstitutiveLawsApplication/constitutive</text>
<text text-anchor="middle" x="360.5" y="-107.5" font-family="Helvetica,sans-Serif" font-size="10.00">_laws_application.h</text>
</a>
</g>
</g>
<!-- Node1&#45;&gt;Node2 -->
<g id="edge1" class="edge">
<title>Node1&#45;&gt;Node2</title>
<path fill="none" stroke="midnightblue" d="M1892.23,-451.03C1518.88,-443.12 311.04,-407.42 205.5,-275 184.72,-248.93 187.61,-228.12 205.5,-200 219.13,-178.57 240.95,-163.37 263.96,-152.62"/>
<polygon fill="midnightblue" stroke="midnightblue" points="1892.43,-454.53 1902.5,-451.24 1892.57,-447.54 1892.43,-454.53"/>
</g>
<!-- Node4 -->
<g id="node4" class="node">
<title>Node4</title>
<g id="a_node4"><a xlink:href="../../d2/d76/generic__finite__strain__isotropic__plasticity_8cpp.html" target="_top" xlink:title=" ">
<polygon fill="none" stroke="black" points="1353,-317 1353,-380 1588,-380 1588,-317 1353,-317"/>
<text text-anchor="start" x="1361" y="-368" font-family="Helvetica,sans-Serif" font-size="10.00">/home/runner/work/Documentation</text>
<text text-anchor="start" x="1361" y="-357" font-family="Helvetica,sans-Serif" font-size="10.00">/Documentation/master/applications</text>
<text text-anchor="start" x="1361" y="-346" font-family="Helvetica,sans-Serif" font-size="10.00">/ConstitutiveLawsApplication/custom</text>
<text text-anchor="start" x="1361" y="-335" font-family="Helvetica,sans-Serif" font-size="10.00">_constitutive/finite_strains/plasticity</text>
<text text-anchor="middle" x="1470.5" y="-324" font-family="Helvetica,sans-Serif" font-size="10.00">/generic_finite_strain_isotropic_plasticity.cpp</text>
</a>
</g>
</g>
<!-- Node1&#45;&gt;Node4 -->
<g id="edge3" class="edge">
<title>Node1&#45;&gt;Node4</title>
<path fill="none" stroke="midnightblue" d="M1891.8,-438.31C1810.16,-426.53 1696.26,-408.3 1597.5,-386 1589.44,-384.18 1581.14,-382.15 1572.82,-380.01"/>
<polygon fill="midnightblue" stroke="midnightblue" points="1891.7,-441.83 1902.09,-439.78 1892.69,-434.9 1891.7,-441.83"/>
</g>
<!-- Node5 -->
<g id="node5" class="node">
<title>Node5</title>
<g id="a_node5"><a xlink:href="../../da/d98/generic__finite__strain__kinematic__plasticity_8cpp.html" target="_top" xlink:title=" ">
<polygon fill="none" stroke="black" points="1606.5,-317 1606.5,-380 1848.5,-380 1848.5,-317 1606.5,-317"/>
<text text-anchor="start" x="1614.5" y="-368" font-family="Helvetica,sans-Serif" font-size="10.00">/home/runner/work/Documentation</text>
<text text-anchor="start" x="1614.5" y="-357" font-family="Helvetica,sans-Serif" font-size="10.00">/Documentation/master/applications</text>
<text text-anchor="start" x="1614.5" y="-346" font-family="Helvetica,sans-Serif" font-size="10.00">/ConstitutiveLawsApplication/custom</text>
<text text-anchor="start" x="1614.5" y="-335" font-family="Helvetica,sans-Serif" font-size="10.00">_constitutive/finite_strains/plasticity</text>
<text text-anchor="middle" x="1727.5" y="-324" font-family="Helvetica,sans-Serif" font-size="10.00">/generic_finite_strain_kinematic_plasticity.cpp</text>
</a>
</g>
</g>
<!-- Node1&#45;&gt;Node5 -->
<g id="edge4" class="edge">
<title>Node1&#45;&gt;Node5</title>
<path fill="none" stroke="midnightblue" d="M1910.74,-418.72C1877.67,-406.23 1840.54,-392.2 1808.39,-380.05"/>
<polygon fill="midnightblue" stroke="midnightblue" points="1909.81,-422.11 1920.4,-422.37 1912.29,-415.56 1909.81,-422.11"/>
</g>
<!-- Node6 -->
<g id="node6" class="node">
<title>Node6</title>
<g id="a_node6"><a xlink:href="../../d5/df0/generic__small__strain__d__plus__d__minus__damage_8cpp.html" target="_top" xlink:title=" ">
<polygon fill="none" stroke="black" points="1867,-317 1867,-380 2136,-380 2136,-317 1867,-317"/>
<text text-anchor="start" x="1875" y="-368" font-family="Helvetica,sans-Serif" font-size="10.00">/home/runner/work/Documentation</text>
<text text-anchor="start" x="1875" y="-357" font-family="Helvetica,sans-Serif" font-size="10.00">/Documentation/master/applications</text>
<text text-anchor="start" x="1875" y="-346" font-family="Helvetica,sans-Serif" font-size="10.00">/ConstitutiveLawsApplication/custom</text>
<text text-anchor="start" x="1875" y="-335" font-family="Helvetica,sans-Serif" font-size="10.00">_constitutive/small_strains/damage</text>
<text text-anchor="middle" x="2001.5" y="-324" font-family="Helvetica,sans-Serif" font-size="10.00">/generic_small_strain_d_plus_d_minus_damage.cpp</text>
</a>
</g>
</g>
<!-- Node1&#45;&gt;Node6 -->
<g id="edge5" class="edge">
<title>Node1&#45;&gt;Node6</title>
<path fill="none" stroke="midnightblue" d="M2001.5,-411.96C2001.5,-401.42 2001.5,-390.26 2001.5,-380.33"/>
<polygon fill="midnightblue" stroke="midnightblue" points="1998,-412.23 2001.5,-422.23 2005,-412.23 1998,-412.23"/>
</g>
<!-- Node7 -->
<g id="node7" class="node">
<title>Node7</title>
<g id="a_node7"><a xlink:href="../../d3/dca/generic__small__strain__isotropic__damage_8cpp.html" target="_top" xlink:title=" ">
<polygon fill="none" stroke="black" points="0,-95 0,-158 233,-158 233,-95 0,-95"/>
<text text-anchor="start" x="8" y="-146" font-family="Helvetica,sans-Serif" font-size="10.00">/home/runner/work/Documentation</text>
<text text-anchor="start" x="8" y="-135" font-family="Helvetica,sans-Serif" font-size="10.00">/Documentation/master/applications</text>
<text text-anchor="start" x="8" y="-124" font-family="Helvetica,sans-Serif" font-size="10.00">/ConstitutiveLawsApplication/custom</text>
<text text-anchor="start" x="8" y="-113" font-family="Helvetica,sans-Serif" font-size="10.00">_constitutive/small_strains/damage</text>
<text text-anchor="middle" x="116.5" y="-102" font-family="Helvetica,sans-Serif" font-size="10.00">/generic_small_strain_isotropic_damage.cpp</text>
</a>
</g>
</g>
<!-- Node1&#45;&gt;Node7 -->
<g id="edge6" class="edge">
<title>Node1&#45;&gt;Node7</title>
<path fill="none" stroke="midnightblue" d="M1892.16,-451.43C1522.44,-445.76 338.05,-424.67 266.5,-386 178.4,-338.39 137.88,-215.64 123.27,-158.11"/>
<polygon fill="midnightblue" stroke="midnightblue" points="1892.27,-454.93 1902.33,-451.58 1892.38,-447.93 1892.27,-454.93"/>
</g>
<!-- Node8 -->
<g id="node8" class="node">
<title>Node8</title>
<g id="a_node8"><a xlink:href="../../d7/d37/generic__small__strain__isotropic__damage__plane__stress_8cpp.html" target="_top" xlink:title=" ">
<polygon fill="none" stroke="black" points="2154,-311.5 2154,-385.5 2367,-385.5 2367,-311.5 2154,-311.5"/>
<text text-anchor="start" x="2162" y="-373.5" font-family="Helvetica,sans-Serif" font-size="10.00">/home/runner/work/Documentation</text>
<text text-anchor="start" x="2162" y="-362.5" font-family="Helvetica,sans-Serif" font-size="10.00">/Documentation/master/applications</text>
<text text-anchor="start" x="2162" y="-351.5" font-family="Helvetica,sans-Serif" font-size="10.00">/ConstitutiveLawsApplication/custom</text>
<text text-anchor="start" x="2162" y="-340.5" font-family="Helvetica,sans-Serif" font-size="10.00">_constitutive/small_strains/damage</text>
<text text-anchor="start" x="2162" y="-329.5" font-family="Helvetica,sans-Serif" font-size="10.00">/generic_small_strain_isotropic_damage</text>
<text text-anchor="middle" x="2260.5" y="-318.5" font-family="Helvetica,sans-Serif" font-size="10.00">_plane_stress.cpp</text>
</a>
</g>
</g>
<!-- Node1&#45;&gt;Node8 -->
<g id="edge7" class="edge">
<title>Node1&#45;&gt;Node8</title>
<path fill="none" stroke="midnightblue" d="M2087.45,-418.65C2114.06,-408.02 2143.45,-396.27 2170.34,-385.53"/>
<polygon fill="midnightblue" stroke="midnightblue" points="2086.14,-415.41 2078.16,-422.37 2088.74,-421.91 2086.14,-415.41"/>
</g>
<!-- Node9 -->
<g id="node9" class="node">
<title>Node9</title>
<g id="a_node9"><a xlink:href="../../d5/d94/generic__small__strain__orthotropic__damage_8cpp.html" target="_top" xlink:title=" ">
<polygon fill="none" stroke="black" points="2385,-317 2385,-380 2630,-380 2630,-317 2385,-317"/>
<text text-anchor="start" x="2393" y="-368" font-family="Helvetica,sans-Serif" font-size="10.00">/home/runner/work/Documentation</text>
<text text-anchor="start" x="2393" y="-357" font-family="Helvetica,sans-Serif" font-size="10.00">/Documentation/master/applications</text>
<text text-anchor="start" x="2393" y="-346" font-family="Helvetica,sans-Serif" font-size="10.00">/ConstitutiveLawsApplication/custom</text>
<text text-anchor="start" x="2393" y="-335" font-family="Helvetica,sans-Serif" font-size="10.00">_constitutive/small_strains/damage</text>
<text text-anchor="middle" x="2507.5" y="-324" font-family="Helvetica,sans-Serif" font-size="10.00">/generic_small_strain_orthotropic_damage.cpp</text>
</a>
</g>
</g>
<!-- Node1&#45;&gt;Node9 -->
<g id="edge8" class="edge">
<title>Node1&#45;&gt;Node9</title>
<path fill="none" stroke="midnightblue" d="M2110.66,-436.31C2185.78,-424.13 2287.64,-406.27 2376.5,-386 2384.56,-384.16 2392.86,-382.14 2401.19,-380.03"/>
<polygon fill="midnightblue" stroke="midnightblue" points="2110.03,-432.86 2100.71,-437.91 2111.14,-439.77 2110.03,-432.86"/>
</g>
<!-- Node10 -->
<g id="node10" class="node">
<title>Node10</title>
<g id="a_node10"><a xlink:href="../../d3/d19/generic__small__strain__high__cycle__fatigue__law_8cpp.html" target="_top" xlink:title=" ">
<polygon fill="none" stroke="black" points="2648.5,-317 2648.5,-380 2908.5,-380 2908.5,-317 2648.5,-317"/>
<text text-anchor="start" x="2656.5" y="-368" font-family="Helvetica,sans-Serif" font-size="10.00">/home/runner/work/Documentation</text>
<text text-anchor="start" x="2656.5" y="-357" font-family="Helvetica,sans-Serif" font-size="10.00">/Documentation/master/applications</text>
<text text-anchor="start" x="2656.5" y="-346" font-family="Helvetica,sans-Serif" font-size="10.00">/ConstitutiveLawsApplication/custom</text>
<text text-anchor="start" x="2656.5" y="-335" font-family="Helvetica,sans-Serif" font-size="10.00">_constitutive/small_strains/fatigue</text>
<text text-anchor="middle" x="2778.5" y="-324" font-family="Helvetica,sans-Serif" font-size="10.00">/generic_small_strain_high_cycle_fatigue_law.cpp</text>
</a>
</g>
</g>
<!-- Node1&#45;&gt;Node10 -->
<g id="edge9" class="edge">
<title>Node1&#45;&gt;Node10</title>
<path fill="none" stroke="midnightblue" d="M2110.7,-446.61C2238.32,-437.96 2455.49,-419.62 2639.5,-386 2648.95,-384.27 2658.7,-382.24 2668.45,-380.03"/>
<polygon fill="midnightblue" stroke="midnightblue" points="2110.27,-443.13 2100.53,-447.29 2110.74,-450.11 2110.27,-443.13"/>
</g>
<!-- Node11 -->
<g id="node11" class="node">
<title>Node11</title>
<g id="a_node11"><a xlink:href="../../dd/d67/associative__plastic__damage__model_8cpp.html" target="_top" xlink:title=" ">
<polygon fill="none" stroke="black" points="2927,-317 2927,-380 3186,-380 3186,-317 2927,-317"/>
<text text-anchor="start" x="2935" y="-368" font-family="Helvetica,sans-Serif" font-size="10.00">/home/runner/work/Documentation</text>
<text text-anchor="start" x="2935" y="-357" font-family="Helvetica,sans-Serif" font-size="10.00">/Documentation/master/applications</text>
<text text-anchor="start" x="2935" y="-346" font-family="Helvetica,sans-Serif" font-size="10.00">/ConstitutiveLawsApplication/custom</text>
<text text-anchor="start" x="2935" y="-335" font-family="Helvetica,sans-Serif" font-size="10.00">_constitutive/small_strains/plastic</text>
<text text-anchor="middle" x="3056.5" y="-324" font-family="Helvetica,sans-Serif" font-size="10.00">_damage/associative_plastic_damage_model.cpp</text>
</a>
</g>
</g>
<!-- Node1&#45;&gt;Node11 -->
<g id="edge10" class="edge">
<title>Node1&#45;&gt;Node11</title>
<path fill="none" stroke="midnightblue" d="M2110.93,-451.48C2283.49,-447.63 2628.92,-434.02 2917.5,-386 2927.47,-384.34 2937.76,-382.29 2948.03,-380.02"/>
<polygon fill="midnightblue" stroke="midnightblue" points="2110.74,-447.98 2100.82,-451.7 2110.89,-454.98 2110.74,-447.98"/>
</g>
<!-- Node12 -->
<g id="node12" class="node">
<title>Node12</title>
<g id="a_node12"><a xlink:href="../../d9/d14/generic__small__strain__plastic__damage__model_8cpp.html" target="_top" xlink:title=" ">
<polygon fill="none" stroke="black" points="3204,-311.5 3204,-385.5 3407,-385.5 3407,-311.5 3204,-311.5"/>
<text text-anchor="start" x="3212" y="-373.5" font-family="Helvetica,sans-Serif" font-size="10.00">/home/runner/work/Documentation</text>
<text text-anchor="start" x="3212" y="-362.5" font-family="Helvetica,sans-Serif" font-size="10.00">/Documentation/master/applications</text>
<text text-anchor="start" x="3212" y="-351.5" font-family="Helvetica,sans-Serif" font-size="10.00">/ConstitutiveLawsApplication/custom</text>
<text text-anchor="start" x="3212" y="-340.5" font-family="Helvetica,sans-Serif" font-size="10.00">_constitutive/small_strains/plastic</text>
<text text-anchor="start" x="3212" y="-329.5" font-family="Helvetica,sans-Serif" font-size="10.00">_damage/generic_small_strain_plastic</text>
<text text-anchor="middle" x="3305.5" y="-318.5" font-family="Helvetica,sans-Serif" font-size="10.00">_damage_model.cpp</text>
</a>
</g>
</g>
<!-- Node1&#45;&gt;Node12 -->
<g id="edge11" class="edge">
<title>Node1&#45;&gt;Node12</title>
<path fill="none" stroke="midnightblue" d="M2111.16,-450.55C2365.49,-444.26 2989.56,-425.23 3195.5,-386 3198.27,-385.47 3201.06,-384.89 3203.87,-384.27"/>
<polygon fill="midnightblue" stroke="midnightblue" points="2110.71,-447.06 2100.8,-450.8 2110.88,-454.05 2110.71,-447.06"/>
</g>
<!-- Node13 -->
<g id="node13" class="node">
<title>Node13</title>
<g id="a_node13"><a xlink:href="../../d1/d17/generic__small__strain__isotropic__plasticity_8cpp.html" target="_top" xlink:title=" ">
<polygon fill="none" stroke="black" points="3425,-317 3425,-380 3662,-380 3662,-317 3425,-317"/>
<text text-anchor="start" x="3433" y="-368" font-family="Helvetica,sans-Serif" font-size="10.00">/home/runner/work/Documentation</text>
<text text-anchor="start" x="3433" y="-357" font-family="Helvetica,sans-Serif" font-size="10.00">/Documentation/master/applications</text>
<text text-anchor="start" x="3433" y="-346" font-family="Helvetica,sans-Serif" font-size="10.00">/ConstitutiveLawsApplication/custom</text>
<text text-anchor="start" x="3433" y="-335" font-family="Helvetica,sans-Serif" font-size="10.00">_constitutive/small_strains/plasticity</text>
<text text-anchor="middle" x="3543.5" y="-324" font-family="Helvetica,sans-Serif" font-size="10.00">/generic_small_strain_isotropic_plasticity.cpp</text>
</a>
</g>
</g>
<!-- Node1&#45;&gt;Node13 -->
<g id="edge12" class="edge">
<title>Node1&#45;&gt;Node13</title>
<path fill="none" stroke="midnightblue" d="M2111.35,-451.1C2398.38,-445.6 3165.87,-427.37 3416.5,-386 3426.12,-384.41 3436.05,-382.35 3445.91,-380"/>
<polygon fill="midnightblue" stroke="midnightblue" points="2110.86,-447.61 2100.93,-451.3 2111,-454.61 2110.86,-447.61"/>
</g>
<!-- Node14 -->
<g id="node14" class="node">
<title>Node14</title>
<g id="a_node14"><a xlink:href="../../df/dcc/generic__small__strain__kinematic__plasticity_8cpp.html" target="_top" xlink:title=" ">
<polygon fill="none" stroke="black" points="3680.5,-317 3680.5,-380 3924.5,-380 3924.5,-317 3680.5,-317"/>
<text text-anchor="start" x="3688.5" y="-368" font-family="Helvetica,sans-Serif" font-size="10.00">/home/runner/work/Documentation</text>
<text text-anchor="start" x="3688.5" y="-357" font-family="Helvetica,sans-Serif" font-size="10.00">/Documentation/master/applications</text>
<text text-anchor="start" x="3688.5" y="-346" font-family="Helvetica,sans-Serif" font-size="10.00">/ConstitutiveLawsApplication/custom</text>
<text text-anchor="start" x="3688.5" y="-335" font-family="Helvetica,sans-Serif" font-size="10.00">_constitutive/small_strains/plasticity</text>
<text text-anchor="middle" x="3802.5" y="-324" font-family="Helvetica,sans-Serif" font-size="10.00">/generic_small_strain_kinematic_plasticity.cpp</text>
</a>
</g>
</g>
<!-- Node1&#45;&gt;Node14 -->
<g id="edge13" class="edge">
<title>Node1&#45;&gt;Node14</title>
<path fill="none" stroke="midnightblue" d="M2110.88,-451.91C2432.15,-448.2 3369.33,-433.5 3671.5,-386 3681.41,-384.44 3691.64,-382.4 3701.82,-380.06"/>
<polygon fill="midnightblue" stroke="midnightblue" points="2110.59,-448.42 2100.63,-452.03 2110.67,-455.42 2110.59,-448.42"/>
</g>
<!-- Node15 -->
<g id="node15" class="node">
<title>Node15</title>
<g id="a_node15"><a xlink:href="../../d6/d07/thermal__von__mises__yield__surface_8h.html" target="_top" xlink:title=" ">
<polygon fill="none" stroke="black" points="699,-311.5 699,-385.5 932,-385.5 932,-311.5 699,-311.5"/>
<text text-anchor="start" x="707" y="-373.5" font-family="Helvetica,sans-Serif" font-size="10.00">/home/runner/work/Documentation</text>
<text text-anchor="start" x="707" y="-362.5" font-family="Helvetica,sans-Serif" font-size="10.00">/Documentation/master/applications</text>
<text text-anchor="start" x="707" y="-351.5" font-family="Helvetica,sans-Serif" font-size="10.00">/ConstitutiveLawsApplication/custom</text>
<text text-anchor="start" x="707" y="-340.5" font-family="Helvetica,sans-Serif" font-size="10.00">_constitutive/thermal/auxiliary_files</text>
<text text-anchor="start" x="707" y="-329.5" font-family="Helvetica,sans-Serif" font-size="10.00">/thermal_yield_surfaces/thermal_von_mises</text>
<text text-anchor="middle" x="815.5" y="-318.5" font-family="Helvetica,sans-Serif" font-size="10.00">_yield_surface.h</text>
</a>
</g>
</g>
<!-- Node1&#45;&gt;Node15 -->
<g id="edge14" class="edge">
<title>Node1&#45;&gt;Node15</title>
<path fill="none" stroke="midnightblue" d="M1892.33,-443.47C1668.94,-423.98 1161.46,-379.69 932,-359.67"/>
<polygon fill="midnightblue" stroke="midnightblue" points="1892.16,-446.97 1902.42,-444.35 1892.76,-440 1892.16,-446.97"/>
</g>
<!-- Node19 -->
<g id="node19" class="node">
<title>Node19</title>
<g id="a_node19"><a xlink:href="../../d8/d97/_constitutive_laws_application_2custom__python_2add__custom__constitutive__laws__to__python_8cpp.html" target="_top" xlink:title=" ">
<polygon fill="none" stroke="black" points="1153,-95 1153,-158 1362,-158 1362,-95 1153,-95"/>
<text text-anchor="start" x="1161" y="-146" font-family="Helvetica,sans-Serif" font-size="10.00">/home/runner/work/Documentation</text>
<text text-anchor="start" x="1161" y="-135" font-family="Helvetica,sans-Serif" font-size="10.00">/Documentation/master/applications</text>
<text text-anchor="start" x="1161" y="-124" font-family="Helvetica,sans-Serif" font-size="10.00">/ConstitutiveLawsApplication/custom</text>
<text text-anchor="start" x="1161" y="-113" font-family="Helvetica,sans-Serif" font-size="10.00">_python/add_custom_constitutive_laws</text>
<text text-anchor="middle" x="1257.5" y="-102" font-family="Helvetica,sans-Serif" font-size="10.00">_to_python.cpp</text>
</a>
</g>
</g>
<!-- Node1&#45;&gt;Node19 -->
<g id="edge49" class="edge">
<title>Node1&#45;&gt;Node19</title>
<path fill="none" stroke="midnightblue" d="M1892.12,-448.69C1715.9,-440.75 1384.74,-421.3 1344.5,-386 1280.64,-329.98 1332.31,-278.77 1300.5,-200 1294.69,-185.62 1286.32,-170.71 1278.51,-158.19"/>
<polygon fill="midnightblue" stroke="midnightblue" points="1892.05,-452.19 1902.2,-449.14 1892.37,-445.2 1892.05,-452.19"/>
</g>
<!-- Node20 -->
<g id="node20" class="node">
<title>Node20</title>
<g id="a_node20"><a xlink:href="../../d6/d85/automatic__differentiation__tangent__utilities_8cpp.html" target="_top" xlink:title=" ">
<polygon fill="none" stroke="black" points="938,-95 938,-158 1135,-158 1135,-95 938,-95"/>
<text text-anchor="start" x="946" y="-146" font-family="Helvetica,sans-Serif" font-size="10.00">/home/runner/work/Documentation</text>
<text text-anchor="start" x="946" y="-135" font-family="Helvetica,sans-Serif" font-size="10.00">/Documentation/master/applications</text>
<text text-anchor="start" x="946" y="-124" font-family="Helvetica,sans-Serif" font-size="10.00">/ConstitutiveLawsApplication/custom</text>
<text text-anchor="start" x="946" y="-113" font-family="Helvetica,sans-Serif" font-size="10.00">_utilities/automatic_differentiation</text>
<text text-anchor="middle" x="1036.5" y="-102" font-family="Helvetica,sans-Serif" font-size="10.00">_tangent_utilities.cpp</text>
</a>
</g>
</g>
<!-- Node1&#45;&gt;Node20 -->
<g id="edge50" class="edge">
<title>Node1&#45;&gt;Node20</title>
<path fill="none" stroke="midnightblue" d="M1892.1,-447.89C1708.54,-438.53 1353.79,-416.7 1305.5,-386 1224.45,-334.47 1266.92,-264.21 1195.5,-200 1176.21,-182.66 1152.07,-168.81 1128.47,-158.06"/>
<polygon fill="midnightblue" stroke="midnightblue" points="1892.16,-451.4 1902.32,-448.41 1892.51,-444.41 1892.16,-451.4"/>
</g>
<!-- Node3 -->
<g id="node3" class="node">
<title>Node3</title>
<g id="a_node3"><a xlink:href="../../d3/d03/constitutive__laws__application_8cpp.html" target="_top" xlink:title=" ">
<polygon fill="none" stroke="black" points="251,-0.5 251,-52.5 470,-52.5 470,-0.5 251,-0.5"/>
<text text-anchor="start" x="259" y="-40.5" font-family="Helvetica,sans-Serif" font-size="10.00">/home/runner/work/Documentation</text>
<text text-anchor="start" x="259" y="-29.5" font-family="Helvetica,sans-Serif" font-size="10.00">/Documentation/master/applications</text>
<text text-anchor="start" x="259" y="-18.5" font-family="Helvetica,sans-Serif" font-size="10.00">/ConstitutiveLawsApplication/constitutive</text>
<text text-anchor="middle" x="360.5" y="-7.5" font-family="Helvetica,sans-Serif" font-size="10.00">_laws_application.cpp</text>
</a>
</g>
</g>
<!-- Node2&#45;&gt;Node3 -->
<g id="edge2" class="edge">
<title>Node2&#45;&gt;Node3</title>
<path fill="none" stroke="midnightblue" d="M360.5,-90.2C360.5,-77.78 360.5,-64.07 360.5,-52.65"/>
<polygon fill="midnightblue" stroke="midnightblue" points="357,-90.26 360.5,-100.26 364,-90.26 357,-90.26"/>
</g>
<!-- Node15&#45;&gt;Node2 -->
<g id="edge15" class="edge">
<title>Node15&#45;&gt;Node2</title>
<path fill="none" stroke="midnightblue" d="M688.59,-340.78C523.87,-330.73 253.79,-309.23 223.5,-275 201.41,-250.04 206.3,-228.56 223.5,-200 236.27,-178.79 257.56,-163.46 279.59,-152.53"/>
<polygon fill="midnightblue" stroke="midnightblue" points="688.61,-344.28 698.8,-341.39 689.03,-337.29 688.61,-344.28"/>
</g>
<!-- Node15&#45;&gt;Node7 -->
<g id="edge16" class="edge">
<title>Node15&#45;&gt;Node7</title>
<path fill="none" stroke="midnightblue" d="M688.7,-345.34C533.84,-340.51 282.94,-324.97 205.5,-275 163.28,-247.76 138.15,-192.75 125.85,-158.15"/>
<polygon fill="midnightblue" stroke="midnightblue" points="688.66,-348.84 698.76,-345.64 688.87,-341.84 688.66,-348.84"/>
</g>
<!-- Node16 -->
<g id="node16" class="node">
<title>Node16</title>
<g id="a_node16"><a xlink:href="../../d4/d6f/thermal__mohr__coulomb__yield__surface_8h.html" target="_top" xlink:title=" ">
<polygon fill="none" stroke="black" points="938.5,-200.5 938.5,-274.5 1144.5,-274.5 1144.5,-200.5 938.5,-200.5"/>
<text text-anchor="start" x="946.5" y="-262.5" font-family="Helvetica,sans-Serif" font-size="10.00">/home/runner/work/Documentation</text>
<text text-anchor="start" x="946.5" y="-251.5" font-family="Helvetica,sans-Serif" font-size="10.00">/Documentation/master/applications</text>
<text text-anchor="start" x="946.5" y="-240.5" font-family="Helvetica,sans-Serif" font-size="10.00">/ConstitutiveLawsApplication/custom</text>
<text text-anchor="start" x="946.5" y="-229.5" font-family="Helvetica,sans-Serif" font-size="10.00">_constitutive/thermal/auxiliary_files</text>
<text text-anchor="start" x="946.5" y="-218.5" font-family="Helvetica,sans-Serif" font-size="10.00">/thermal_yield_surfaces/thermal_mohr</text>
<text text-anchor="middle" x="1041.5" y="-207.5" font-family="Helvetica,sans-Serif" font-size="10.00">_coulomb_yield_surface.h</text>
</a>
</g>
</g>
<!-- Node15&#45;&gt;Node16 -->
<g id="edge17" class="edge">
<title>Node15&#45;&gt;Node16</title>
<path fill="none" stroke="midnightblue" d="M899.47,-307C921.54,-296.36 945.21,-284.94 966.76,-274.55"/>
<polygon fill="midnightblue" stroke="midnightblue" points="897.93,-303.86 890.44,-311.36 900.97,-310.16 897.93,-303.86"/>
</g>
<!-- Node17 -->
<g id="node17" class="node">
<title>Node17</title>
<g id="a_node17"><a xlink:href="../../d8/da8/generic__small__strain__thermal__isotropic__damage_8cpp.html" target="_top" xlink:title=" ">
<polygon fill="none" stroke="black" points="713,-89.5 713,-163.5 920,-163.5 920,-89.5 713,-89.5"/>
<text text-anchor="start" x="721" y="-151.5" font-family="Helvetica,sans-Serif" font-size="10.00">/home/runner/work/Documentation</text>
<text text-anchor="start" x="721" y="-140.5" font-family="Helvetica,sans-Serif" font-size="10.00">/Documentation/master/applications</text>
<text text-anchor="start" x="721" y="-129.5" font-family="Helvetica,sans-Serif" font-size="10.00">/ConstitutiveLawsApplication/custom</text>
<text text-anchor="start" x="721" y="-118.5" font-family="Helvetica,sans-Serif" font-size="10.00">_constitutive/thermal/small_strains</text>
<text text-anchor="start" x="721" y="-107.5" font-family="Helvetica,sans-Serif" font-size="10.00">/damage/generic_small_strain_thermal</text>
<text text-anchor="middle" x="816.5" y="-96.5" font-family="Helvetica,sans-Serif" font-size="10.00">_isotropic_damage.cpp</text>
</a>
</g>
</g>
<!-- Node15&#45;&gt;Node17 -->
<g id="edge45" class="edge">
<title>Node15&#45;&gt;Node17</title>
<path fill="none" stroke="midnightblue" d="M942.02,-336.76C1026.5,-326.66 1126.83,-308 1153.5,-275 1174.45,-249.08 1175.12,-225.37 1153.5,-200 1120.8,-161.63 978.52,-175.78 929.5,-164 926.39,-163.25 923.25,-162.46 920.08,-161.64"/>
<polygon fill="midnightblue" stroke="midnightblue" points="941.59,-333.29 932.07,-337.92 942.4,-340.24 941.59,-333.29"/>
</g>
<!-- Node18 -->
<g id="node18" class="node">
<title>Node18</title>
<g id="a_node18"><a xlink:href="../../db/d9c/generic__small__strain__thermal__isotropic__damage__plane__stress_8cpp.html" target="_top" xlink:title=" ">
<polygon fill="none" stroke="black" points="488,-89.5 488,-163.5 695,-163.5 695,-89.5 488,-89.5"/>
<text text-anchor="start" x="496" y="-151.5" font-family="Helvetica,sans-Serif" font-size="10.00">/home/runner/work/Documentation</text>
<text text-anchor="start" x="496" y="-140.5" font-family="Helvetica,sans-Serif" font-size="10.00">/Documentation/master/applications</text>
<text text-anchor="start" x="496" y="-129.5" font-family="Helvetica,sans-Serif" font-size="10.00">/ConstitutiveLawsApplication/custom</text>
<text text-anchor="start" x="496" y="-118.5" font-family="Helvetica,sans-Serif" font-size="10.00">_constitutive/thermal/small_strains</text>
<text text-anchor="start" x="496" y="-107.5" font-family="Helvetica,sans-Serif" font-size="10.00">/damage/generic_small_strain_thermal</text>
<text text-anchor="middle" x="591.5" y="-96.5" font-family="Helvetica,sans-Serif" font-size="10.00">_isotropic_damage_plane_stress.cpp</text>
</a>
</g>
</g>
<!-- Node15&#45;&gt;Node18 -->
<g id="edge46" class="edge">
<title>Node15&#45;&gt;Node18</title>
<path fill="none" stroke="midnightblue" d="M688.39,-340.17C528.85,-329.65 272.44,-307.84 243.5,-275 221.46,-249.99 221.78,-225.29 243.5,-200 278.07,-159.76 427.88,-176.26 479.5,-164 482.29,-163.34 485.1,-162.64 487.94,-161.91"/>
<polygon fill="midnightblue" stroke="midnightblue" points="688.55,-343.69 698.76,-340.85 689.01,-336.7 688.55,-343.69"/>
</g>
<!-- Node15&#45;&gt;Node19 -->
<g id="edge47" class="edge">
<title>Node15&#45;&gt;Node19</title>
<path fill="none" stroke="midnightblue" d="M942.09,-336.22C1037.07,-325.44 1157.06,-306.13 1195.5,-275 1231.55,-245.81 1246.95,-191.93 1253.3,-158"/>
<polygon fill="midnightblue" stroke="midnightblue" points="941.65,-332.75 932.1,-337.33 942.43,-339.71 941.65,-332.75"/>
</g>
<!-- Node15&#45;&gt;Node20 -->
<g id="edge48" class="edge">
<title>Node15&#45;&gt;Node20</title>
<path fill="none" stroke="midnightblue" d="M942.42,-338.61C1033.55,-329.28 1145.25,-310.75 1174.5,-275 1195.61,-249.2 1191.74,-228.53 1174.5,-200 1163.72,-182.16 1146.94,-168.5 1128.75,-158.11"/>
<polygon fill="midnightblue" stroke="midnightblue" points="941.86,-335.15 932.26,-339.62 942.56,-342.11 941.86,-335.15"/>
</g>
<!-- Node21 -->
<g id="node21" class="node">
<title>Node21</title>
<g id="a_node21"><a xlink:href="../../d2/d53/thermal__rankine__yield__surface_8h.html" target="_top" xlink:title=" ">
<polygon fill="none" stroke="black" points="253,-200.5 253,-274.5 470,-274.5 470,-200.5 253,-200.5"/>
<text text-anchor="start" x="261" y="-262.5" font-family="Helvetica,sans-Serif" font-size="10.00">/home/runner/work/Documentation</text>
<text text-anchor="start" x="261" y="-251.5" font-family="Helvetica,sans-Serif" font-size="10.00">/Documentation/master/applications</text>
<text text-anchor="start" x="261" y="-240.5" font-family="Helvetica,sans-Serif" font-size="10.00">/ConstitutiveLawsApplication/custom</text>
<text text-anchor="start" x="261" y="-229.5" font-family="Helvetica,sans-Serif" font-size="10.00">_constitutive/thermal/auxiliary_files</text>
<text text-anchor="start" x="261" y="-218.5" font-family="Helvetica,sans-Serif" font-size="10.00">/thermal_yield_surfaces/thermal_rankine</text>
<text text-anchor="middle" x="361.5" y="-207.5" font-family="Helvetica,sans-Serif" font-size="10.00">_yield_surface.h</text>
</a>
</g>
</g>
<!-- Node15&#45;&gt;Node21 -->
<g id="edge24" class="edge">
<title>Node15&#45;&gt;Node21</title>
<path fill="none" stroke="midnightblue" d="M688.66,-322.86C625.48,-309.9 548.13,-292.98 479.5,-275 476.39,-274.18 473.24,-273.34 470.06,-272.47"/>
<polygon fill="midnightblue" stroke="midnightblue" points="688.17,-326.33 698.67,-324.91 689.57,-319.48 688.17,-326.33"/>
</g>
<!-- Node22 -->
<g id="node22" class="node">
<title>Node22</title>
<g id="a_node22"><a xlink:href="../../d4/dda/thermal__simo__ju__yield__surface_8h.html" target="_top" xlink:title=" ">
<polygon fill="none" stroke="black" points="488.5,-200.5 488.5,-274.5 692.5,-274.5 692.5,-200.5 488.5,-200.5"/>
<text text-anchor="start" x="496.5" y="-262.5" font-family="Helvetica,sans-Serif" font-size="10.00">/home/runner/work/Documentation</text>
<text text-anchor="start" x="496.5" y="-251.5" font-family="Helvetica,sans-Serif" font-size="10.00">/Documentation/master/applications</text>
<text text-anchor="start" x="496.5" y="-240.5" font-family="Helvetica,sans-Serif" font-size="10.00">/ConstitutiveLawsApplication/custom</text>
<text text-anchor="start" x="496.5" y="-229.5" font-family="Helvetica,sans-Serif" font-size="10.00">_constitutive/thermal/auxiliary_files</text>
<text text-anchor="start" x="496.5" y="-218.5" font-family="Helvetica,sans-Serif" font-size="10.00">/thermal_yield_surfaces/thermal_simo</text>
<text text-anchor="middle" x="590.5" y="-207.5" font-family="Helvetica,sans-Serif" font-size="10.00">_ju_yield_surface.h</text>
</a>
</g>
</g>
<!-- Node15&#45;&gt;Node22 -->
<g id="edge31" class="edge">
<title>Node15&#45;&gt;Node22</title>
<path fill="none" stroke="midnightblue" d="M731.61,-306.86C709.72,-296.25 686.27,-284.9 664.91,-274.55"/>
<polygon fill="midnightblue" stroke="midnightblue" points="730.37,-310.15 740.89,-311.36 733.42,-303.85 730.37,-310.15"/>
</g>
<!-- Node23 -->
<g id="node23" class="node">
<title>Node23</title>
<g id="a_node23"><a xlink:href="../../de/d39/thermal__tresca__yield__surface_8h.html" target="_top" xlink:title=" ">
<polygon fill="none" stroke="black" points="710.5,-200.5 710.5,-274.5 920.5,-274.5 920.5,-200.5 710.5,-200.5"/>
<text text-anchor="start" x="718.5" y="-262.5" font-family="Helvetica,sans-Serif" font-size="10.00">/home/runner/work/Documentation</text>
<text text-anchor="start" x="718.5" y="-251.5" font-family="Helvetica,sans-Serif" font-size="10.00">/Documentation/master/applications</text>
<text text-anchor="start" x="718.5" y="-240.5" font-family="Helvetica,sans-Serif" font-size="10.00">/ConstitutiveLawsApplication/custom</text>
<text text-anchor="start" x="718.5" y="-229.5" font-family="Helvetica,sans-Serif" font-size="10.00">_constitutive/thermal/auxiliary_files</text>
<text text-anchor="start" x="718.5" y="-218.5" font-family="Helvetica,sans-Serif" font-size="10.00">/thermal_yield_surfaces/thermal_tresca</text>
<text text-anchor="middle" x="815.5" y="-207.5" font-family="Helvetica,sans-Serif" font-size="10.00">_yield_surface.h</text>
</a>
</g>
</g>
<!-- Node15&#45;&gt;Node23 -->
<g id="edge38" class="edge">
<title>Node15&#45;&gt;Node23</title>
<path fill="none" stroke="midnightblue" d="M815.5,-301.03C815.5,-292.2 815.5,-283.09 815.5,-274.64"/>
<polygon fill="midnightblue" stroke="midnightblue" points="812,-301.2 815.5,-311.2 819,-301.2 812,-301.2"/>
</g>
<!-- Node16&#45;&gt;Node2 -->
<g id="edge18" class="edge">
<title>Node16&#45;&gt;Node2</title>
<path fill="none" stroke="midnightblue" d="M928.48,-199.96C730.91,-161.94 673.4,-201.03 479.5,-164 464.32,-161.1 448.34,-156.97 433.19,-152.53"/>
<polygon fill="midnightblue" stroke="midnightblue" points="927.81,-203.4 938.3,-201.89 929.16,-196.53 927.81,-203.4"/>
</g>
<!-- Node16&#45;&gt;Node7 -->
<g id="edge19" class="edge">
<title>Node16&#45;&gt;Node7</title>
<path fill="none" stroke="midnightblue" d="M928.41,-199.97C626.6,-145.6 540.13,-214.71 241.5,-164 232.14,-162.41 222.48,-160.36 212.89,-158.04"/>
<polygon fill="midnightblue" stroke="midnightblue" points="927.85,-203.42 938.32,-201.78 929.12,-196.54 927.85,-203.42"/>
</g>
<!-- Node16&#45;&gt;Node17 -->
<g id="edge20" class="edge">
<title>Node16&#45;&gt;Node17</title>
<path fill="none" stroke="midnightblue" d="M957.61,-195.86C935.72,-185.25 912.27,-173.9 890.91,-163.55"/>
<polygon fill="midnightblue" stroke="midnightblue" points="956.37,-199.15 966.89,-200.36 959.42,-192.85 956.37,-199.15"/>
</g>
<!-- Node16&#45;&gt;Node18 -->
<g id="edge21" class="edge">
<title>Node16&#45;&gt;Node18</title>
<path fill="none" stroke="midnightblue" d="M928.41,-199.87C829.23,-176.92 799.9,-186.9 704.5,-164 701.39,-163.25 698.25,-162.47 695.08,-161.64"/>
<polygon fill="midnightblue" stroke="midnightblue" points="927.7,-203.3 938.23,-202.2 929.31,-196.48 927.7,-203.3"/>
</g>
<!-- Node16&#45;&gt;Node19 -->
<g id="edge22" class="edge">
<title>Node16&#45;&gt;Node19</title>
<path fill="none" stroke="midnightblue" d="M1122.14,-195.8C1146.91,-183.31 1173.72,-169.78 1196.9,-158.08"/>
<polygon fill="midnightblue" stroke="midnightblue" points="1120.48,-192.73 1113.12,-200.36 1123.63,-198.98 1120.48,-192.73"/>
</g>
<!-- Node16&#45;&gt;Node20 -->
<g id="edge23" class="edge">
<title>Node16&#45;&gt;Node20</title>
<path fill="none" stroke="midnightblue" d="M1039.37,-190.06C1038.88,-179.28 1038.36,-168.08 1037.91,-158.18"/>
<polygon fill="midnightblue" stroke="midnightblue" points="1035.88,-190.38 1039.84,-200.2 1042.87,-190.05 1035.88,-190.38"/>
</g>
<!-- Node21&#45;&gt;Node2 -->
<g id="edge25" class="edge">
<title>Node21&#45;&gt;Node2</title>
<path fill="none" stroke="midnightblue" d="M361.07,-190.08C360.96,-177.23 360.83,-163.77 360.73,-152.63"/>
<polygon fill="midnightblue" stroke="midnightblue" points="357.58,-190.24 361.17,-200.2 364.58,-190.17 357.58,-190.24"/>
</g>
<!-- Node21&#45;&gt;Node7 -->
<g id="edge26" class="edge">
<title>Node21&#45;&gt;Node7</title>
<path fill="none" stroke="midnightblue" d="M270.77,-196.13C242.48,-183.55 211.76,-169.88 185.23,-158.08"/>
<polygon fill="midnightblue" stroke="midnightblue" points="269.7,-199.49 280.26,-200.36 272.54,-193.09 269.7,-199.49"/>
</g>
<!-- Node21&#45;&gt;Node17 -->
<g id="edge27" class="edge">
<title>Node21&#45;&gt;Node17</title>
<path fill="none" stroke="midnightblue" d="M479.91,-200.03C579.94,-177.62 609.13,-187.02 704.5,-164 707.28,-163.33 710.1,-162.62 712.93,-161.88"/>
<polygon fill="midnightblue" stroke="midnightblue" points="478.97,-196.66 470,-202.31 480.53,-203.48 478.97,-196.66"/>
</g>
<!-- Node21&#45;&gt;Node18 -->
<g id="edge28" class="edge">
<title>Node21&#45;&gt;Node18</title>
<path fill="none" stroke="midnightblue" d="M446.95,-196C469.42,-185.36 493.5,-173.94 515.44,-163.55"/>
<polygon fill="midnightblue" stroke="midnightblue" points="445.3,-192.91 437.77,-200.36 448.3,-199.24 445.3,-192.91"/>
</g>
<!-- Node21&#45;&gt;Node19 -->
<g id="edge29" class="edge">
<title>Node21&#45;&gt;Node19</title>
<path fill="none" stroke="midnightblue" d="M480.28,-200.03C772.74,-149.43 856.74,-217.33 1144.5,-164 1153.01,-162.42 1161.78,-160.38 1170.47,-158.07"/>
<polygon fill="midnightblue" stroke="midnightblue" points="479.48,-196.62 470.24,-201.8 480.69,-203.51 479.48,-196.62"/>
</g>
<!-- Node21&#45;&gt;Node20 -->
<g id="edge30" class="edge">
<title>Node21&#45;&gt;Node20</title>
<path fill="none" stroke="midnightblue" d="M480.11,-200.05C678.39,-163.48 736.2,-204.05 929.5,-164 937.38,-162.37 945.48,-160.32 953.53,-158.04"/>
<polygon fill="midnightblue" stroke="midnightblue" points="479.43,-196.61 470.26,-201.91 480.73,-203.49 479.43,-196.61"/>
</g>
<!-- Node22&#45;&gt;Node2 -->
<g id="edge32" class="edge">
<title>Node22&#45;&gt;Node2</title>
<path fill="none" stroke="midnightblue" d="M504.81,-195.89C474.11,-181.34 440.42,-165.38 413.32,-152.53"/>
<polygon fill="midnightblue" stroke="midnightblue" points="503.7,-199.24 514.23,-200.36 506.7,-192.91 503.7,-199.24"/>
</g>
<!-- Node22&#45;&gt;Node7 -->
<g id="edge33" class="edge">
<title>Node22&#45;&gt;Node7</title>
<path fill="none" stroke="midnightblue" d="M478.43,-199.89C373.58,-175.89 342.81,-186.35 241.5,-164 233.44,-162.22 225.14,-160.21 216.83,-158.07"/>
<polygon fill="midnightblue" stroke="midnightblue" points="477.93,-203.37 488.47,-202.24 479.53,-196.55 477.93,-203.37"/>
</g>
<!-- Node22&#45;&gt;Node17 -->
<g id="edge34" class="edge">
<title>Node22&#45;&gt;Node17</title>
<path fill="none" stroke="midnightblue" d="M674.47,-196C696.54,-185.36 720.21,-173.94 741.76,-163.55"/>
<polygon fill="midnightblue" stroke="midnightblue" points="672.93,-192.86 665.44,-200.36 675.97,-199.16 672.93,-192.86"/>
</g>
<!-- Node22&#45;&gt;Node18 -->
<g id="edge35" class="edge">
<title>Node22&#45;&gt;Node18</title>
<path fill="none" stroke="midnightblue" d="M590.93,-190.03C591.01,-181.2 591.09,-172.09 591.17,-163.64"/>
<polygon fill="midnightblue" stroke="midnightblue" points="587.42,-190.17 590.83,-200.2 594.42,-190.24 587.42,-190.17"/>
</g>
<!-- Node22&#45;&gt;Node19 -->
<g id="edge36" class="edge">
<title>Node22&#45;&gt;Node19</title>
<path fill="none" stroke="midnightblue" d="M702.73,-199.92C897.01,-162.24 953.99,-201.98 1144.5,-164 1152.69,-162.37 1161.11,-160.34 1169.5,-158.08"/>
<polygon fill="midnightblue" stroke="midnightblue" points="701.9,-196.51 692.77,-201.89 703.26,-203.38 701.9,-196.51"/>
</g>
<!-- Node22&#45;&gt;Node20 -->
<g id="edge37" class="edge">
<title>Node22&#45;&gt;Node20</title>
<path fill="none" stroke="midnightblue" d="M702.5,-199.9C803.08,-176.66 833.03,-187.88 929.5,-164 936.64,-162.23 943.99,-160.2 951.33,-158.01"/>
<polygon fill="midnightblue" stroke="midnightblue" points="701.46,-196.55 692.54,-202.26 703.08,-203.36 701.46,-196.55"/>
</g>
<!-- Node23&#45;&gt;Node2 -->
<g id="edge39" class="edge">
<title>Node23&#45;&gt;Node2</title>
<path fill="none" stroke="midnightblue" d="M700.36,-199.86C602.46,-177.31 573.7,-185.98 479.5,-164 465.51,-160.74 450.75,-156.7 436.58,-152.52"/>
<polygon fill="midnightblue" stroke="midnightblue" points="699.84,-203.33 710.38,-202.21 701.45,-196.51 699.84,-203.33"/>
</g>
<!-- Node23&#45;&gt;Node7 -->
<g id="edge40" class="edge">
<title>Node23&#45;&gt;Node7</title>
<path fill="none" stroke="midnightblue" d="M700.41,-199.95C498.4,-161.75 439.97,-200.34 241.5,-164 232.49,-162.35 223.21,-160.31 213.96,-158.04"/>
<polygon fill="midnightblue" stroke="midnightblue" points="699.97,-203.43 710.45,-201.89 701.29,-196.56 699.97,-203.43"/>
</g>
<!-- Node23&#45;&gt;Node17 -->
<g id="edge41" class="edge">
<title>Node23&#45;&gt;Node17</title>
<path fill="none" stroke="midnightblue" d="M815.93,-190.03C816.01,-181.2 816.09,-172.09 816.17,-163.64"/>
<polygon fill="midnightblue" stroke="midnightblue" points="812.42,-190.17 815.83,-200.2 819.42,-190.24 812.42,-190.17"/>
</g>
<!-- Node23&#45;&gt;Node18 -->
<g id="edge42" class="edge">
<title>Node23&#45;&gt;Node18</title>
<path fill="none" stroke="midnightblue" d="M731.99,-195.86C710.19,-185.25 686.85,-173.9 665.58,-163.55"/>
<polygon fill="midnightblue" stroke="midnightblue" points="730.7,-199.13 741.22,-200.36 733.76,-192.83 730.7,-199.13"/>
</g>
<!-- Node23&#45;&gt;Node19 -->
<g id="edge43" class="edge">
<title>Node23&#45;&gt;Node19</title>
<path fill="none" stroke="midnightblue" d="M930.35,-199.92C1025.45,-177.77 1053.41,-186.21 1144.5,-164 1151.81,-162.22 1159.33,-160.2 1166.86,-158.05"/>
<polygon fill="midnightblue" stroke="midnightblue" points="929.54,-196.51 920.63,-202.23 931.16,-203.32 929.54,-196.51"/>
</g>
<!-- Node23&#45;&gt;Node20 -->
<g id="edge44" class="edge">
<title>Node23&#45;&gt;Node20</title>
<path fill="none" stroke="midnightblue" d="M898.01,-195.8C923.35,-183.31 950.78,-169.78 974.5,-158.08"/>
<polygon fill="midnightblue" stroke="midnightblue" points="896.2,-192.79 888.78,-200.36 899.3,-199.07 896.2,-192.79"/>
</g>
</g>
</svg>
