<?xml version="1.0" encoding="UTF-8" standalone="no"?>
<!DOCTYPE svg PUBLIC "-//W3C//DTD SVG 1.1//EN"
 "http://www.w3.org/Graphics/SVG/1.1/DTD/svg11.dtd">
<!-- Generated by graphviz version 2.43.0 (0)
 -->
<!-- Title: /home/runner/work/Documentation/Documentation/master/applications/ConstitutiveModelsApplication/custom_laws/small_strain_laws/small_strain_3D_law.hpp Pages: 1 -->
<!--zoomable 361 -->
<svg id="main" version="1.1" xmlns="http://www.w3.org/2000/svg" xmlns:xlink="http://www.w3.org/1999/xlink" xml:space="preserve" onload="init(evt)">
<style type="text/css"><![CDATA[
.edge:hover path { stroke: red; }
.edge:hover polygon { stroke: red; fill: red; }
]]></style>
<script type="text/javascript"><![CDATA[
var edges = document.getElementsByTagName('g');
if (edges && edges.length) {
  for (var i=0;i<edges.length;i++) {
    if (edges[i].id.substr(0,4)=='edge') {
      edges[i].setAttribute('class','edge');
    }
  }
}
]]></script>
        <defs>
                <circle id="rim" cx="0" cy="0" r="7"/>
                <circle id="rim2" cx="0" cy="0" r="3.5"/>
                <g id="zoomPlus">
                        <use xlink:href="#rim" fill="#404040">
                                <set attributeName="fill" to="#808080" begin="zoomplus.mouseover" end="zoomplus.mouseout"/>
                        </use>
                        <path d="M-4,0h8M0,-4v8" fill="none" stroke="white" stroke-width="1.5" pointer-events="none"/>
                </g>
                <g id="zoomMin">
                        <use xlink:href="#rim" fill="#404040">
                                <set attributeName="fill" to="#808080" begin="zoomminus.mouseover" end="zoomminus.mouseout"/>
                        </use>
                        <path d="M-4,0h8" fill="none" stroke="white" stroke-width="1.5" pointer-events="none"/>
                </g>
                <g id="dirArrow">
                        <path fill="none" stroke="white" stroke-width="1.5" d="M0,-3.0v7 M-2.5,-0.5L0,-3.0L2.5,-0.5"/>
                </g>
               <g id="resetDef">
                       <use xlink:href="#rim2" fill="#404040">
                               <set attributeName="fill" to="#808080" begin="reset.mouseover" end="reset.mouseout"/>
                       </use>
               </g>
        </defs>

<script type="text/javascript">
var viewWidth = 1100;
var viewHeight = 361;
var sectionId = 'dynsection-1';
</script>
<script xlink:href="../../svgpan.js"/>
<svg id="graph" class="graph">
<g id="viewport">
<title>/home/runner/work/Documentation/Documentation/master/applications/ConstitutiveModelsApplication/custom_laws/small_strain_laws/small_strain_3D_law.hpp</title>
<!-- Node1 -->
<g id="node1" class="node">
<title>Node1</title>
<g id="a_node1"><a xlink:title=" ">
<polygon fill="#bfbfbf" stroke="black" points="444,-289.5 444,-352.5 648,-352.5 648,-289.5 444,-289.5"/>
<text text-anchor="start" x="452" y="-340.5" font-family="Helvetica,sans-Serif" font-size="10.00">/home/runner/work/Documentation</text>
<text text-anchor="start" x="452" y="-329.5" font-family="Helvetica,sans-Serif" font-size="10.00">/Documentation/master/applications</text>
<text text-anchor="start" x="452" y="-318.5" font-family="Helvetica,sans-Serif" font-size="10.00">/ConstitutiveModelsApplication</text>
<text text-anchor="start" x="452" y="-307.5" font-family="Helvetica,sans-Serif" font-size="10.00">/custom_laws/small_strain_laws/small</text>
<text text-anchor="middle" x="546" y="-296.5" font-family="Helvetica,sans-Serif" font-size="10.00">_strain_3D_law.hpp</text>
</a>
</g>
</g>
<!-- Node2 -->
<g id="node2" class="node">
<title>Node2</title>
<g id="a_node2"><a xlink:href="../../de/dfe/small__strain__3_d__law_8cpp.html" target="_top" xlink:title=" ">
<polygon fill="none" stroke="black" points="0,-189.5 0,-252.5 204,-252.5 204,-189.5 0,-189.5"/>
<text text-anchor="start" x="8" y="-240.5" font-family="Helvetica,sans-Serif" font-size="10.00">/home/runner/work/Documentation</text>
<text text-anchor="start" x="8" y="-229.5" font-family="Helvetica,sans-Serif" font-size="10.00">/Documentation/master/applications</text>
<text text-anchor="start" x="8" y="-218.5" font-family="Helvetica,sans-Serif" font-size="10.00">/ConstitutiveModelsApplication</text>
<text text-anchor="start" x="8" y="-207.5" font-family="Helvetica,sans-Serif" font-size="10.00">/custom_laws/small_strain_laws/small</text>
<text text-anchor="middle" x="102" y="-196.5" font-family="Helvetica,sans-Serif" font-size="10.00">_strain_3D_law.cpp</text>
</a>
</g>
</g>
<!-- Node1&#45;&gt;Node2 -->
<g id="edge1" class="edge">
<title>Node1&#45;&gt;Node2</title>
<path fill="none" stroke="midnightblue" d="M434.09,-299.62C369.25,-287.28 286.23,-270.57 213,-253 210.08,-252.3 207.12,-251.58 204.14,-250.83"/>
<polygon fill="midnightblue" stroke="midnightblue" points="433.45,-303.06 443.92,-301.48 434.75,-296.18 433.45,-303.06"/>
</g>
<!-- Node3 -->
<g id="node3" class="node">
<title>Node3</title>
<g id="a_node3"><a xlink:href="../../dc/d84/small__strain__axisymmetric__2_d__law_8hpp.html" target="_top" xlink:title=" ">
<polygon fill="none" stroke="black" points="888,-189.5 888,-252.5 1092,-252.5 1092,-189.5 888,-189.5"/>
<text text-anchor="start" x="896" y="-240.5" font-family="Helvetica,sans-Serif" font-size="10.00">/home/runner/work/Documentation</text>
<text text-anchor="start" x="896" y="-229.5" font-family="Helvetica,sans-Serif" font-size="10.00">/Documentation/master/applications</text>
<text text-anchor="start" x="896" y="-218.5" font-family="Helvetica,sans-Serif" font-size="10.00">/ConstitutiveModelsApplication</text>
<text text-anchor="start" x="896" y="-207.5" font-family="Helvetica,sans-Serif" font-size="10.00">/custom_laws/small_strain_laws/small</text>
<text text-anchor="middle" x="990" y="-196.5" font-family="Helvetica,sans-Serif" font-size="10.00">_strain_axisymmetric_2D_law.hpp</text>
</a>
</g>
</g>
<!-- Node1&#45;&gt;Node3 -->
<g id="edge2" class="edge">
<title>Node1&#45;&gt;Node3</title>
<path fill="none" stroke="midnightblue" d="M657.91,-299.62C722.75,-287.28 805.77,-270.57 879,-253 881.92,-252.3 884.88,-251.58 887.86,-250.83"/>
<polygon fill="midnightblue" stroke="midnightblue" points="657.25,-296.18 648.08,-301.48 658.55,-303.06 657.25,-296.18"/>
</g>
<!-- Node7 -->
<g id="node7" class="node">
<title>Node7</title>
<g id="a_node7"><a xlink:href="../../da/d3b/small__strain__orthotropic__3_d__law_8hpp.html" target="_top" xlink:title=" ">
<polygon fill="none" stroke="black" points="222,-189.5 222,-252.5 426,-252.5 426,-189.5 222,-189.5"/>
<text text-anchor="start" x="230" y="-240.5" font-family="Helvetica,sans-Serif" font-size="10.00">/home/runner/work/Documentation</text>
<text text-anchor="start" x="230" y="-229.5" font-family="Helvetica,sans-Serif" font-size="10.00">/Documentation/master/applications</text>
<text text-anchor="start" x="230" y="-218.5" font-family="Helvetica,sans-Serif" font-size="10.00">/ConstitutiveModelsApplication</text>
<text text-anchor="start" x="230" y="-207.5" font-family="Helvetica,sans-Serif" font-size="10.00">/custom_laws/small_strain_laws/small</text>
<text text-anchor="middle" x="324" y="-196.5" font-family="Helvetica,sans-Serif" font-size="10.00">_strain_orthotropic_3D_law.hpp</text>
</a>
</g>
</g>
<!-- Node1&#45;&gt;Node7 -->
<g id="edge6" class="edge">
<title>Node1&#45;&gt;Node7</title>
<path fill="none" stroke="midnightblue" d="M467.5,-285.35C443.26,-274.65 416.75,-262.94 393.18,-252.54"/>
<polygon fill="midnightblue" stroke="midnightblue" points="466.11,-288.56 476.67,-289.4 468.94,-282.15 466.11,-288.56"/>
</g>
<!-- Node8 -->
<g id="node8" class="node">
<title>Node8</title>
<g id="a_node8"><a xlink:href="../../de/df0/small__strain__plane__strain__2_d__law_8hpp.html" target="_top" xlink:title=" ">
<polygon fill="none" stroke="black" points="444,-189.5 444,-252.5 648,-252.5 648,-189.5 444,-189.5"/>
<text text-anchor="start" x="452" y="-240.5" font-family="Helvetica,sans-Serif" font-size="10.00">/home/runner/work/Documentation</text>
<text text-anchor="start" x="452" y="-229.5" font-family="Helvetica,sans-Serif" font-size="10.00">/Documentation/master/applications</text>
<text text-anchor="start" x="452" y="-218.5" font-family="Helvetica,sans-Serif" font-size="10.00">/ConstitutiveModelsApplication</text>
<text text-anchor="start" x="452" y="-207.5" font-family="Helvetica,sans-Serif" font-size="10.00">/custom_laws/small_strain_laws/small</text>
<text text-anchor="middle" x="546" y="-196.5" font-family="Helvetica,sans-Serif" font-size="10.00">_strain_plane_strain_2D_law.hpp</text>
</a>
</g>
</g>
<!-- Node1&#45;&gt;Node8 -->
<g id="edge9" class="edge">
<title>Node1&#45;&gt;Node8</title>
<path fill="none" stroke="midnightblue" d="M546,-279.1C546,-270.24 546,-261.01 546,-252.63"/>
<polygon fill="midnightblue" stroke="midnightblue" points="542.5,-279.26 546,-289.26 549.5,-279.26 542.5,-279.26"/>
</g>
<!-- Node9 -->
<g id="node9" class="node">
<title>Node9</title>
<g id="a_node9"><a xlink:href="../../d3/d98/small__strain__plane__stress__2_d__law_8hpp.html" target="_top" xlink:title=" ">
<polygon fill="none" stroke="black" points="666,-189.5 666,-252.5 870,-252.5 870,-189.5 666,-189.5"/>
<text text-anchor="start" x="674" y="-240.5" font-family="Helvetica,sans-Serif" font-size="10.00">/home/runner/work/Documentation</text>
<text text-anchor="start" x="674" y="-229.5" font-family="Helvetica,sans-Serif" font-size="10.00">/Documentation/master/applications</text>
<text text-anchor="start" x="674" y="-218.5" font-family="Helvetica,sans-Serif" font-size="10.00">/ConstitutiveModelsApplication</text>
<text text-anchor="start" x="674" y="-207.5" font-family="Helvetica,sans-Serif" font-size="10.00">/custom_laws/small_strain_laws/small</text>
<text text-anchor="middle" x="768" y="-196.5" font-family="Helvetica,sans-Serif" font-size="10.00">_strain_plane_stress_2D_law.hpp</text>
</a>
</g>
</g>
<!-- Node1&#45;&gt;Node9 -->
<g id="edge12" class="edge">
<title>Node1&#45;&gt;Node9</title>
<path fill="none" stroke="midnightblue" d="M624.5,-285.35C648.74,-274.65 675.25,-262.94 698.82,-252.54"/>
<polygon fill="midnightblue" stroke="midnightblue" points="623.06,-282.15 615.33,-289.4 625.89,-288.56 623.06,-282.15"/>
</g>
<!-- Node4 -->
<g id="node4" class="node">
<title>Node4</title>
<g id="a_node4"><a xlink:href="../../d4/d36/constitutive__models__application_8h.html" target="_top" xlink:title=" ">
<polygon fill="none" stroke="black" points="447,-95 447,-147 641,-147 641,-95 447,-95"/>
<text text-anchor="start" x="455" y="-135" font-family="Helvetica,sans-Serif" font-size="10.00">/home/runner/work/Documentation</text>
<text text-anchor="start" x="455" y="-124" font-family="Helvetica,sans-Serif" font-size="10.00">/Documentation/master/applications</text>
<text text-anchor="start" x="455" y="-113" font-family="Helvetica,sans-Serif" font-size="10.00">/ConstitutiveModelsApplication</text>
<text text-anchor="middle" x="544" y="-102" font-family="Helvetica,sans-Serif" font-size="10.00">/constitutive_models_application.h</text>
</a>
</g>
</g>
<!-- Node3&#45;&gt;Node4 -->
<g id="edge3" class="edge">
<title>Node3&#45;&gt;Node4</title>
<path fill="none" stroke="midnightblue" d="M877.86,-188.85C776.52,-167.6 747.4,-174.8 650,-153 642.05,-151.22 633.81,-149.18 625.61,-147.01"/>
<polygon fill="midnightblue" stroke="midnightblue" points="877.38,-192.33 887.9,-191 878.85,-185.49 877.38,-192.33"/>
</g>
<!-- Node6 -->
<g id="node6" class="node">
<title>Node6</title>
<g id="a_node6"><a xlink:href="../../df/dfa/_constitutive_models_application_2custom__python_2add__custom__constitutive__laws__to__python_8cpp.html" target="_top" xlink:title=" ">
<polygon fill="none" stroke="black" points="659,-89.5 659,-152.5 879,-152.5 879,-89.5 659,-89.5"/>
<text text-anchor="start" x="667" y="-140.5" font-family="Helvetica,sans-Serif" font-size="10.00">/home/runner/work/Documentation</text>
<text text-anchor="start" x="667" y="-129.5" font-family="Helvetica,sans-Serif" font-size="10.00">/Documentation/master/applications</text>
<text text-anchor="start" x="667" y="-118.5" font-family="Helvetica,sans-Serif" font-size="10.00">/ConstitutiveModelsApplication</text>
<text text-anchor="start" x="667" y="-107.5" font-family="Helvetica,sans-Serif" font-size="10.00">/custom_python/add_custom_constitutive</text>
<text text-anchor="middle" x="769" y="-96.5" font-family="Helvetica,sans-Serif" font-size="10.00">_laws_to_python.cpp</text>
</a>
</g>
</g>
<!-- Node3&#45;&gt;Node6 -->
<g id="edge5" class="edge">
<title>Node3&#45;&gt;Node6</title>
<path fill="none" stroke="midnightblue" d="M911.54,-185.21C887.49,-174.54 861.23,-162.9 837.87,-152.54"/>
<polygon fill="midnightblue" stroke="midnightblue" points="910.42,-188.54 920.98,-189.4 913.26,-182.14 910.42,-188.54"/>
</g>
<!-- Node5 -->
<g id="node5" class="node">
<title>Node5</title>
<g id="a_node5"><a xlink:href="../../d0/dce/constitutive__models__application_8cpp.html" target="_top" xlink:title=" ">
<polygon fill="none" stroke="black" points="445,-0.5 445,-52.5 643,-52.5 643,-0.5 445,-0.5"/>
<text text-anchor="start" x="453" y="-40.5" font-family="Helvetica,sans-Serif" font-size="10.00">/home/runner/work/Documentation</text>
<text text-anchor="start" x="453" y="-29.5" font-family="Helvetica,sans-Serif" font-size="10.00">/Documentation/master/applications</text>
<text text-anchor="start" x="453" y="-18.5" font-family="Helvetica,sans-Serif" font-size="10.00">/ConstitutiveModelsApplication</text>
<text text-anchor="middle" x="544" y="-7.5" font-family="Helvetica,sans-Serif" font-size="10.00">/constitutive_models_application.cpp</text>
</a>
</g>
</g>
<!-- Node4&#45;&gt;Node5 -->
<g id="edge4" class="edge">
<title>Node4&#45;&gt;Node5</title>
<path fill="none" stroke="midnightblue" d="M544,-84.49C544,-73.91 544,-62.53 544,-52.75"/>
<polygon fill="midnightblue" stroke="midnightblue" points="540.5,-84.72 544,-94.72 547.5,-84.72 540.5,-84.72"/>
</g>
<!-- Node7&#45;&gt;Node4 -->
<g id="edge7" class="edge">
<title>Node7&#45;&gt;Node4</title>
<path fill="none" stroke="midnightblue" d="M402.14,-185.19C430.35,-172.63 461.62,-158.7 487.61,-147.12"/>
<polygon fill="midnightblue" stroke="midnightblue" points="400.41,-182.13 392.7,-189.4 403.26,-188.52 400.41,-182.13"/>
</g>
<!-- Node7&#45;&gt;Node6 -->
<g id="edge8" class="edge">
<title>Node7&#45;&gt;Node6</title>
<path fill="none" stroke="midnightblue" d="M436.17,-188.83C531.35,-168.26 558.4,-172.56 650,-153 652.92,-152.38 655.88,-151.73 658.86,-151.06"/>
<polygon fill="midnightblue" stroke="midnightblue" points="435.13,-185.48 426.11,-191.04 436.63,-192.31 435.13,-185.48"/>
</g>
<!-- Node8&#45;&gt;Node4 -->
<g id="edge10" class="edge">
<title>Node8&#45;&gt;Node4</title>
<path fill="none" stroke="midnightblue" d="M545.16,-179.08C544.94,-168.21 544.71,-156.79 544.51,-147.05"/>
<polygon fill="midnightblue" stroke="midnightblue" points="541.67,-179.33 545.37,-189.26 548.67,-179.19 541.67,-179.33"/>
</g>
<!-- Node8&#45;&gt;Node6 -->
<g id="edge11" class="edge">
<title>Node8&#45;&gt;Node6</title>
<path fill="none" stroke="midnightblue" d="M624.85,-185.35C649.2,-174.65 675.83,-162.94 699.5,-152.54"/>
<polygon fill="midnightblue" stroke="midnightblue" points="623.39,-182.17 615.64,-189.4 626.2,-188.58 623.39,-182.17"/>
</g>
<!-- Node9&#45;&gt;Node4 -->
<g id="edge13" class="edge">
<title>Node9&#45;&gt;Node4</title>
<path fill="none" stroke="midnightblue" d="M688.81,-185.36C659.99,-172.75 627.99,-158.75 601.42,-147.12"/>
<polygon fill="midnightblue" stroke="midnightblue" points="687.48,-188.59 698.05,-189.4 690.29,-182.18 687.48,-188.59"/>
</g>
<!-- Node9&#45;&gt;Node6 -->
<g id="edge14" class="edge">
<title>Node9&#45;&gt;Node6</title>
<path fill="none" stroke="midnightblue" d="M768.42,-179.1C768.51,-170.24 768.6,-161.01 768.69,-152.63"/>
<polygon fill="midnightblue" stroke="midnightblue" points="764.92,-179.23 768.31,-189.26 771.92,-179.3 764.92,-179.23"/>
</g>
</g>
</svg>
        <g id="navigator" transform="translate(0 0)" fill="#404254">
                <rect fill="#f2f5e9" fill-opacity="0.5" stroke="#606060" stroke-width=".5" x="0" y="0" width="60" height="60"/>
                <use id="zoomplus" xlink:href="#zoomPlus" x="17" y="9" onmousedown="handleZoom(evt,'in')"/>
                <use id="zoomminus" xlink:href="#zoomMin" x="42" y="9" onmousedown="handleZoom(evt,'out')"/>
                <use id="reset" xlink:href="#resetDef" x="30" y="36" onmousedown="handleReset()"/>
                <g id="arrowUp" xlink:href="#dirArrow" transform="translate(30 24)" onmousedown="handlePan(0,-1)">
                  <use xlink:href="#rim" fill="#404040">
                        <set attributeName="fill" to="#808080" begin="arrowUp.mouseover" end="arrowUp.mouseout"/>
                  </use>
                  <path fill="none" stroke="white" stroke-width="1.5" d="M0,-3.0v7 M-2.5,-0.5L0,-3.0L2.5,-0.5"/>
                </g>
                <g id="arrowRight" xlink:href="#dirArrow" transform="rotate(90) translate(36 -43)" onmousedown="handlePan(1,0)">
                  <use xlink:href="#rim" fill="#404040">
                        <set attributeName="fill" to="#808080" begin="arrowRight.mouseover" end="arrowRight.mouseout"/>
                  </use>
                  <path fill="none" stroke="white" stroke-width="1.5" d="M0,-3.0v7 M-2.5,-0.5L0,-3.0L2.5,-0.5"/>
                </g>
                <g id="arrowDown" xlink:href="#dirArrow" transform="rotate(180) translate(-30 -48)" onmousedown="handlePan(0,1)">
                  <use xlink:href="#rim" fill="#404040">
                        <set attributeName="fill" to="#808080" begin="arrowDown.mouseover" end="arrowDown.mouseout"/>
                  </use>
                  <path fill="none" stroke="white" stroke-width="1.5" d="M0,-3.0v7 M-2.5,-0.5L0,-3.0L2.5,-0.5"/>
                </g>
                <g id="arrowLeft" xlink:href="#dirArrow" transform="rotate(270) translate(-36 17)" onmousedown="handlePan(-1,0)">
                  <use xlink:href="#rim" fill="#404040">
                        <set attributeName="fill" to="#808080" begin="arrowLeft.mouseover" end="arrowLeft.mouseout"/>
                  </use>
                  <path fill="none" stroke="white" stroke-width="1.5" d="M0,-3.0v7 M-2.5,-0.5L0,-3.0L2.5,-0.5"/>
                </g>
        </g>
        <svg viewBox="0 0 15 15" width="100%" height="30px" preserveAspectRatio="xMaxYMin meet">
         <g id="arrow_out" transform="scale(0.3 0.3)">
          <a xlink:href="small__strain__3_d__law_8hpp__dep__incl_org.svg" target="_base">
           <rect id="button" ry="5" rx="5" y="6" x="6" height="38" width="38"
                fill="#f2f5e9" fill-opacity="0.5" stroke="#606060" stroke-width="1.0"/>
           <path id="arrow"
             d="M 11.500037,31.436501 C 11.940474,20.09759 22.043105,11.32322 32.158766,21.979434 L 37.068811,17.246167 C 37.068811,17.246167 37.088388,32 37.088388,32 L 22.160133,31.978069 C 22.160133,31.978069 26.997745,27.140456 26.997745,27.140456 C 18.528582,18.264221 13.291696,25.230495 11.500037,31.436501 z"
             style="fill:#404040;"/>
          </a>
         </g>
        </svg>
</svg>
