<?xml version="1.0" encoding="UTF-8" standalone="no"?>
<!DOCTYPE svg PUBLIC "-//W3C//DTD SVG 1.1//EN"
 "http://www.w3.org/Graphics/SVG/1.1/DTD/svg11.dtd">
<!-- Generated by graphviz version 2.43.0 (0)
 -->
<!-- Title: /home/runner/work/Documentation/Documentation/master/applications/StructuralMechanicsApplication/custom_utilities/perturb_geometry_subgrid_utility.h Pages: 1 -->
<svg width="3502pt" height="1179pt"
 viewBox="0.00 0.00 3501.99 1179.00" xmlns="http://www.w3.org/2000/svg" xmlns:xlink="http://www.w3.org/1999/xlink">
<g id="graph0" class="graph" transform="scale(1 1) rotate(0) translate(4 1175)">
<title>/home/runner/work/Documentation/Documentation/master/applications/StructuralMechanicsApplication/custom_utilities/perturb_geometry_subgrid_utility.h</title>
<!-- Node1 -->
<g id="node1" class="node">
<title>Node1</title>
<g id="a_node1"><a xlink:title=" ">
<polygon fill="#bfbfbf" stroke="black" points="3115.79,-1107.5 3115.79,-1170.5 3309.79,-1170.5 3309.79,-1107.5 3115.79,-1107.5"/>
<text text-anchor="start" x="3123.79" y="-1158.5" font-family="Helvetica,sans-Serif" font-size="10.00">/home/runner/work/Documentation</text>
<text text-anchor="start" x="3123.79" y="-1147.5" font-family="Helvetica,sans-Serif" font-size="10.00">/Documentation/master/applications</text>
<text text-anchor="start" x="3123.79" y="-1136.5" font-family="Helvetica,sans-Serif" font-size="10.00">/StructuralMechanicsApplication</text>
<text text-anchor="start" x="3123.79" y="-1125.5" font-family="Helvetica,sans-Serif" font-size="10.00">/custom_utilities/perturb_geometry</text>
<text text-anchor="middle" x="3212.79" y="-1114.5" font-family="Helvetica,sans-Serif" font-size="10.00">_subgrid_utility.h</text>
</a>
</g>
</g>
<!-- Node2 -->
<g id="node2" class="node">
<title>Node2</title>
<g id="a_node2"><a xlink:href="../../d3/d3a/perturb__geometry__base__utility_8h.html" target="_top" xlink:title=" ">
<polygon fill="none" stroke="black" points="3094.29,-1040.5 3094.29,-1070.5 3233.29,-1070.5 3233.29,-1040.5 3094.29,-1040.5"/>
<text text-anchor="start" x="3102.29" y="-1058.5" font-family="Helvetica,sans-Serif" font-size="10.00">custom_utilities/perturb</text>
<text text-anchor="middle" x="3163.79" y="-1047.5" font-family="Helvetica,sans-Serif" font-size="10.00">_geometry_base_utility.h</text>
</a>
</g>
</g>
<!-- Node1&#45;&gt;Node2 -->
<g id="edge1" class="edge">
<title>Node1&#45;&gt;Node2</title>
<path fill="none" stroke="midnightblue" d="M3194.26,-1107.19C3188.69,-1097.92 3182.68,-1087.92 3177.48,-1079.27"/>
<polygon fill="midnightblue" stroke="midnightblue" points="3180.37,-1077.28 3172.21,-1070.52 3174.37,-1080.89 3180.37,-1077.28"/>
</g>
<!-- Node141 -->
<g id="node49" class="node">
<title>Node141</title>
<g id="a_node49"><a xlink:href="../../d2/d9f/linear__solver_8h.html" target="_top" xlink:title=" ">
<polygon fill="none" stroke="black" points="3203.79,-917.5 3203.79,-947.5 3319.79,-947.5 3319.79,-917.5 3203.79,-917.5"/>
<text text-anchor="start" x="3211.79" y="-935.5" font-family="Helvetica,sans-Serif" font-size="10.00">linear_solvers/linear</text>
<text text-anchor="middle" x="3261.79" y="-924.5" font-family="Helvetica,sans-Serif" font-size="10.00">_solver.h</text>
</a>
</g>
</g>
<!-- Node1&#45;&gt;Node141 -->
<g id="edge170" class="edge">
<title>Node1&#45;&gt;Node141</title>
<path fill="none" stroke="midnightblue" d="M3228.72,-1107.33C3233.93,-1096.15 3239.28,-1083.25 3242.79,-1071 3253.87,-1032.35 3258.58,-985.67 3260.51,-957.85"/>
<polygon fill="midnightblue" stroke="midnightblue" points="3264.01,-958.03 3261.14,-947.83 3257.02,-957.59 3264.01,-958.03"/>
</g>
<!-- Node3 -->
<g id="node3" class="node">
<title>Node3</title>
<g id="a_node3"><a xlink:href="../../dd/dfe/model__part_8h.html" target="_top" xlink:title=" ">
<polygon fill="none" stroke="black" points="1892.29,-861.5 1892.29,-880.5 2017.29,-880.5 2017.29,-861.5 1892.29,-861.5"/>
<text text-anchor="middle" x="1954.79" y="-868.5" font-family="Helvetica,sans-Serif" font-size="10.00">includes/model_part.h</text>
</a>
</g>
</g>
<!-- Node2&#45;&gt;Node3 -->
<g id="edge2" class="edge">
<title>Node2&#45;&gt;Node3</title>
<path fill="none" stroke="midnightblue" d="M3094,-1043.97C2879.4,-1011.57 2231.08,-913.71 2021.16,-882.02"/>
<polygon fill="midnightblue" stroke="midnightblue" points="2021.61,-878.55 2011.2,-880.52 2020.56,-885.47 2021.61,-878.55"/>
</g>
<!-- Node133 -->
<g id="node43" class="node">
<title>Node133</title>
<g id="a_node43"><a xlink:href="../../d2/daf/ublas__space_8h.html" target="_top" xlink:title=" ">
<polygon fill="none" stroke="black" points="344.79,-984.5 344.79,-1003.5 466.79,-1003.5 466.79,-984.5 344.79,-984.5"/>
<text text-anchor="middle" x="405.79" y="-991.5" font-family="Helvetica,sans-Serif" font-size="10.00">spaces/ublas_space.h</text>
</a>
</g>
</g>
<!-- Node2&#45;&gt;Node133 -->
<g id="edge153" class="edge">
<title>Node2&#45;&gt;Node133</title>
<path fill="none" stroke="midnightblue" d="M3094.23,-1053C2711.44,-1044.74 864.58,-1004.9 477.17,-996.54"/>
<polygon fill="midnightblue" stroke="midnightblue" points="477.01,-993.04 466.94,-996.32 476.86,-1000.03 477.01,-993.04"/>
</g>
<!-- Node4 -->
<g id="node4" class="node">
<title>Node4</title>
<g id="a_node4"><a xlink:title=" ">
<polygon fill="none" stroke="#bfbfbf" points="2815.79,-6 2815.79,-25 2859.79,-25 2859.79,-6 2815.79,-6"/>
<text text-anchor="middle" x="2837.79" y="-13" font-family="Helvetica,sans-Serif" font-size="10.00">string</text>
</a>
</g>
</g>
<!-- Node3&#45;&gt;Node4 -->
<g id="edge3" class="edge">
<title>Node3&#45;&gt;Node4</title>
<path fill="none" stroke="midnightblue" d="M2017.37,-870.08C2234.1,-870 2951.7,-866.52 3177.79,-825 3266.4,-808.73 3369.79,-850.09 3369.79,-760 3369.79,-760 3369.79,-760 3369.79,-322 3369.79,-90.13 2985.05,-31.69 2869.94,-19.4"/>
<polygon fill="midnightblue" stroke="midnightblue" points="2870.27,-15.91 2859.97,-18.38 2869.56,-22.88 2870.27,-15.91"/>
</g>
<!-- Node5 -->
<g id="node5" class="node">
<title>Node5</title>
<g id="a_node5"><a xlink:title=" ">
<polygon fill="none" stroke="#bfbfbf" points="1702.79,-6 1702.79,-25 1762.79,-25 1762.79,-6 1702.79,-6"/>
<text text-anchor="middle" x="1732.79" y="-13" font-family="Helvetica,sans-Serif" font-size="10.00">iostream</text>
</a>
</g>
</g>
<!-- Node3&#45;&gt;Node5 -->
<g id="edge4" class="edge">
<title>Node3&#45;&gt;Node5</title>
<path fill="none" stroke="midnightblue" d="M1892.03,-869.57C1678.03,-867.81 977.97,-859.48 755.79,-825 663.73,-810.71 622.43,-831.99 553.79,-769 486.18,-706.96 481.79,-667.26 481.79,-575.5 481.79,-575.5 481.79,-575.5 481.79,-512 481.79,-326.52 209.79,-380.98 209.79,-195.5 209.79,-195.5 209.79,-195.5 209.79,-132 209.79,-37.69 318.91,-83.4 411.79,-67 666.88,-21.96 1499.2,-17.09 1692.45,-16.56"/>
<polygon fill="midnightblue" stroke="midnightblue" points="1692.73,-20.06 1702.72,-16.54 1692.71,-13.06 1692.73,-20.06"/>
</g>
<!-- Node6 -->
<g id="node6" class="node">
<title>Node6</title>
<g id="a_node6"><a xlink:title=" ">
<polygon fill="none" stroke="#bfbfbf" points="3246.79,-6 3246.79,-25 3302.79,-25 3302.79,-6 3246.79,-6"/>
<text text-anchor="middle" x="3274.79" y="-13" font-family="Helvetica,sans-Serif" font-size="10.00">sstream</text>
</a>
</g>
</g>
<!-- Node3&#45;&gt;Node6 -->
<g id="edge5" class="edge">
<title>Node3&#45;&gt;Node6</title>
<path fill="none" stroke="midnightblue" d="M2017.41,-869.53C2263.35,-867.47 3155.49,-857.79 3277.79,-825 3562.12,-748.76 3483.79,-489.88 3483.79,-195.5 3483.79,-195.5 3483.79,-195.5 3483.79,-132 3483.79,-54.8 3373.19,-28.8 3312.9,-20.36"/>
<polygon fill="midnightblue" stroke="midnightblue" points="3313.34,-16.89 3302.97,-19.06 3312.44,-23.83 3313.34,-16.89"/>
</g>
<!-- Node7 -->
<g id="node7" class="node">
<title>Node7</title>
<g id="a_node7"><a xlink:title=" ">
<polygon fill="none" stroke="#bfbfbf" points="2756.29,-313.5 2756.29,-332.5 2809.29,-332.5 2809.29,-313.5 2756.29,-313.5"/>
<text text-anchor="middle" x="2782.79" y="-320.5" font-family="Helvetica,sans-Serif" font-size="10.00">cstddef</text>
</a>
</g>
</g>
<!-- Node3&#45;&gt;Node7 -->
<g id="edge6" class="edge">
<title>Node3&#45;&gt;Node7</title>
<path fill="none" stroke="midnightblue" d="M2017.63,-870.5C2239.25,-871.87 2976.08,-872.73 3069.79,-825 3133.65,-792.47 3169.79,-770.17 3169.79,-698.5 3169.79,-698.5 3169.79,-698.5 3169.79,-512 3169.79,-376.32 3004.49,-465.72 2885.79,-400 2853.78,-382.28 2820.34,-355.92 2800.55,-339.36"/>
<polygon fill="midnightblue" stroke="midnightblue" points="2802.6,-336.51 2792.71,-332.71 2798.07,-341.85 2802.6,-336.51"/>
</g>
<!-- Node8 -->
<g id="node8" class="node">
<title>Node8</title>
<g id="a_node8"><a xlink:href="../../df/d67/define_8h.html" target="_top" xlink:title=" ">
<polygon fill="none" stroke="black" points="946.29,-123.5 946.29,-142.5 1045.29,-142.5 1045.29,-123.5 946.29,-123.5"/>
<text text-anchor="middle" x="995.79" y="-130.5" font-family="Helvetica,sans-Serif" font-size="10.00">includes/define.h</text>
</a>
</g>
</g>
<!-- Node3&#45;&gt;Node8 -->
<g id="edge7" class="edge">
<title>Node3&#45;&gt;Node8</title>
<path fill="none" stroke="midnightblue" d="M1892.05,-868.39C1620.22,-861.03 557.79,-827.89 557.79,-760 557.79,-760 557.79,-760 557.79,-573.5 557.79,-397.08 466.54,-292.28 601.79,-179 651.11,-137.69 838.39,-132.71 935.93,-133.04"/>
<polygon fill="midnightblue" stroke="midnightblue" points="935.91,-136.54 945.93,-133.09 935.95,-129.54 935.91,-136.54"/>
</g>
<!-- Node19 -->
<g id="node14" class="node">
<title>Node19</title>
<g id="a_node14"><a xlink:href="../../dd/d5f/serializer_8h.html" target="_top" xlink:title=" ">
<polygon fill="none" stroke="black" points="1568.29,-313.5 1568.29,-332.5 1681.29,-332.5 1681.29,-313.5 1568.29,-313.5"/>
<text text-anchor="middle" x="1624.79" y="-320.5" font-family="Helvetica,sans-Serif" font-size="10.00">includes/serializer.h</text>
</a>
</g>
</g>
<!-- Node3&#45;&gt;Node19 -->
<g id="edge20" class="edge">
<title>Node3&#45;&gt;Node19</title>
<path fill="none" stroke="midnightblue" d="M1891.99,-868.78C1690.26,-864.04 1071.79,-842.75 1071.79,-760 1071.79,-760 1071.79,-760 1071.79,-635 1071.79,-414.22 1410.8,-348.51 1557.95,-330.39"/>
<polygon fill="midnightblue" stroke="midnightblue" points="1558.69,-333.83 1568.21,-329.17 1557.86,-326.88 1558.69,-333.83"/>
</g>
<!-- Node26 -->
<g id="node21" class="node">
<title>Node26</title>
<g id="a_node21"><a xlink:href="../../d1/d8c/logger_8h.html" target="_top" xlink:title=" ">
<polygon fill="none" stroke="red" points="2007.79,-123.5 2007.79,-142.5 2127.79,-142.5 2127.79,-123.5 2007.79,-123.5"/>
<text text-anchor="middle" x="2067.79" y="-130.5" font-family="Helvetica,sans-Serif" font-size="10.00">input_output/logger.h</text>
</a>
</g>
</g>
<!-- Node3&#45;&gt;Node26 -->
<g id="edge145" class="edge">
<title>Node3&#45;&gt;Node26</title>
<path fill="none" stroke="midnightblue" d="M2017.35,-868.46C2191.36,-863.9 2672.65,-849.21 2739.79,-825 2831.79,-791.82 2848.36,-741.85 2867.79,-646 2894.6,-513.73 2534.25,-300.51 2410.79,-246 2338.94,-214.28 2312.51,-234.17 2237.79,-210 2184.54,-192.78 2125.58,-164.1 2092.98,-147.33"/>
<polygon fill="midnightblue" stroke="midnightblue" points="2094.23,-144.04 2083.74,-142.54 2091,-150.25 2094.23,-144.04"/>
</g>
<!-- Node57 -->
<g id="node26" class="node">
<title>Node57</title>
<g id="a_node26"><a xlink:href="../../de/db8/process__info_8h.html" target="_top" xlink:title=" ">
<polygon fill="none" stroke="black" points="2706.29,-626.5 2706.29,-645.5 2837.29,-645.5 2837.29,-626.5 2706.29,-626.5"/>
<text text-anchor="middle" x="2771.79" y="-633.5" font-family="Helvetica,sans-Serif" font-size="10.00">includes/process_info.h</text>
</a>
</g>
</g>
<!-- Node3&#45;&gt;Node57 -->
<g id="edge53" class="edge">
<title>Node3&#45;&gt;Node57</title>
<path fill="none" stroke="midnightblue" d="M2017.56,-870.08C2173.32,-869.68 2574.11,-864.68 2700.79,-825 2769.79,-803.39 2803.2,-783.61 2818.79,-713 2821.76,-699.55 2824.2,-694.67 2818.79,-682 2813.64,-669.95 2803.51,-659.58 2793.96,-651.84"/>
<polygon fill="midnightblue" stroke="midnightblue" points="2795.96,-648.96 2785.87,-645.74 2791.75,-654.55 2795.96,-648.96"/>
</g>
<!-- Node58 -->
<g id="node27" class="node">
<title>Node58</title>
<g id="a_node27"><a xlink:href="../../d1/d82/data__value__container_8h.html" target="_top" xlink:title=" ">
<polygon fill="none" stroke="black" points="2238.29,-559.5 2238.29,-589.5 2363.29,-589.5 2363.29,-559.5 2238.29,-559.5"/>
<text text-anchor="start" x="2246.29" y="-577.5" font-family="Helvetica,sans-Serif" font-size="10.00">containers/data_value</text>
<text text-anchor="middle" x="2300.79" y="-566.5" font-family="Helvetica,sans-Serif" font-size="10.00">_container.h</text>
</a>
</g>
</g>
<!-- Node3&#45;&gt;Node58 -->
<g id="edge84" class="edge">
<title>Node3&#45;&gt;Node58</title>
<path fill="none" stroke="midnightblue" d="M1929.8,-861.47C1892.55,-846.97 1826.79,-813.77 1826.79,-760 1826.79,-760 1826.79,-760 1826.79,-696.5 1826.79,-614.76 2094.76,-587.53 2227.73,-579.05"/>
<polygon fill="midnightblue" stroke="midnightblue" points="2228.08,-582.54 2237.84,-578.43 2227.65,-575.55 2228.08,-582.54"/>
</g>
<!-- Node59 -->
<g id="node28" class="node">
<title>Node59</title>
<g id="a_node28"><a xlink:href="../../da/d89/variable_8h.html" target="_top" xlink:title=" ">
<polygon fill="none" stroke="red" points="1653.29,-442 1653.29,-461 1772.29,-461 1772.29,-442 1653.29,-442"/>
<text text-anchor="middle" x="1712.79" y="-449" font-family="Helvetica,sans-Serif" font-size="10.00">containers/variable.h</text>
</a>
</g>
</g>
<!-- Node3&#45;&gt;Node59 -->
<g id="edge151" class="edge">
<title>Node3&#45;&gt;Node59</title>
<path fill="none" stroke="midnightblue" d="M1892.15,-867.75C1820.45,-861.42 1712.79,-838.8 1712.79,-760 1712.79,-760 1712.79,-760 1712.79,-573.5 1712.79,-537.21 1712.79,-494.81 1712.79,-471.06"/>
<polygon fill="midnightblue" stroke="midnightblue" points="1716.29,-471.01 1712.79,-461.01 1709.29,-471.01 1716.29,-471.01"/>
</g>
<!-- Node74 -->
<g id="node29" class="node">
<title>Node74</title>
<g id="a_node29"><a xlink:href="../../d3/dc3/variable__data_8h.html" target="_top" xlink:title=" ">
<polygon fill="none" stroke="red" points="1657.79,-375 1657.79,-394 1749.79,-394 1749.79,-375 1657.79,-375"/>
<text text-anchor="middle" x="1703.79" y="-382" font-family="Helvetica,sans-Serif" font-size="10.00">variable_data.h</text>
</a>
</g>
</g>
<!-- Node3&#45;&gt;Node74 -->
<g id="edge152" class="edge">
<title>Node3&#45;&gt;Node74</title>
<path fill="none" stroke="midnightblue" d="M1892.02,-869.84C1795.53,-868.38 1605.5,-860.71 1448.79,-825 1368.7,-806.75 1275.79,-842.14 1275.79,-760 1275.79,-760 1275.79,-760 1275.79,-512 1275.79,-435.38 1531.25,-401.64 1647.45,-390.26"/>
<polygon fill="midnightblue" stroke="midnightblue" points="1647.96,-393.73 1657.58,-389.29 1647.29,-386.76 1647.96,-393.73"/>
</g>
<!-- Node83 -->
<g id="node31" class="node">
<title>Node83</title>
<g id="a_node31"><a xlink:href="../../d8/d3b/mesh_8h.html" target="_top" xlink:title=" ">
<polygon fill="none" stroke="red" points="2252.79,-749.5 2252.79,-768.5 2348.79,-768.5 2348.79,-749.5 2252.79,-749.5"/>
<text text-anchor="middle" x="2300.79" y="-756.5" font-family="Helvetica,sans-Serif" font-size="10.00">includes/mesh.h</text>
</a>
</g>
</g>
<!-- Node3&#45;&gt;Node83 -->
<g id="edge85" class="edge">
<title>Node3&#45;&gt;Node83</title>
<path fill="none" stroke="midnightblue" d="M1981.65,-861.46C2043.09,-841.93 2193.96,-793.96 2263.98,-771.7"/>
<polygon fill="midnightblue" stroke="midnightblue" points="2265.23,-774.98 2273.7,-768.61 2263.11,-768.3 2265.23,-774.98"/>
</g>
<!-- Node87 -->
<g id="node33" class="node">
<title>Node87</title>
<g id="a_node33"><a xlink:href="../../d2/d58/pointer__vector__map_8h.html" target="_top" xlink:title=" ">
<polygon fill="none" stroke="red" points="2894.29,-369.5 2894.29,-399.5 2999.29,-399.5 2999.29,-369.5 2894.29,-369.5"/>
<text text-anchor="start" x="2902.29" y="-387.5" font-family="Helvetica,sans-Serif" font-size="10.00">containers/pointer</text>
<text text-anchor="middle" x="2946.79" y="-376.5" font-family="Helvetica,sans-Serif" font-size="10.00">_vector_map.h</text>
</a>
</g>
</g>
<!-- Node3&#45;&gt;Node87 -->
<g id="edge143" class="edge">
<title>Node3&#45;&gt;Node87</title>
<path fill="none" stroke="midnightblue" d="M2017.61,-869.01C2242.81,-865.27 3001.91,-850.86 3107.79,-825 3173.65,-808.91 3245.79,-827.8 3245.79,-760 3245.79,-760 3245.79,-760 3245.79,-512 3245.79,-410.34 3097.38,-389.14 3009.67,-385.48"/>
<polygon fill="midnightblue" stroke="midnightblue" points="3009.67,-381.98 2999.55,-385.12 3009.43,-388.97 3009.67,-381.98"/>
</g>
<!-- Node99 -->
<g id="node35" class="node">
<title>Node99</title>
<g id="a_node35"><a xlink:href="../../da/da4/master__slave__constraint_8h.html" target="_top" xlink:title=" ">
<polygon fill="none" stroke="red" points="1558.79,-682.5 1558.79,-712.5 1684.79,-712.5 1684.79,-682.5 1558.79,-682.5"/>
<text text-anchor="start" x="1566.79" y="-700.5" font-family="Helvetica,sans-Serif" font-size="10.00">includes/master_slave</text>
<text text-anchor="middle" x="1621.79" y="-689.5" font-family="Helvetica,sans-Serif" font-size="10.00">_constraint.h</text>
</a>
</g>
</g>
<!-- Node3&#45;&gt;Node99 -->
<g id="edge150" class="edge">
<title>Node3&#45;&gt;Node99</title>
<path fill="none" stroke="midnightblue" d="M1892.1,-864.91C1826.7,-858.58 1729.49,-845.96 1698.79,-825 1662.29,-800.08 1640.09,-751.6 1629.44,-722.42"/>
<polygon fill="midnightblue" stroke="midnightblue" points="1632.63,-720.93 1626.04,-712.63 1626.01,-723.22 1632.63,-720.93"/>
</g>
<!-- Node110 -->
<g id="node36" class="node">
<title>Node110</title>
<g id="a_node36"><a xlink:href="../../d3/dad/geometry__container_8h.html" target="_top" xlink:title=" ">
<polygon fill="none" stroke="black" points="887.79,-436.5 887.79,-466.5 1005.79,-466.5 1005.79,-436.5 887.79,-436.5"/>
<text text-anchor="start" x="895.79" y="-454.5" font-family="Helvetica,sans-Serif" font-size="10.00">containers/geometry</text>
<text text-anchor="middle" x="946.79" y="-443.5" font-family="Helvetica,sans-Serif" font-size="10.00">_container.h</text>
</a>
</g>
</g>
<!-- Node3&#45;&gt;Node110 -->
<g id="edge118" class="edge">
<title>Node3&#45;&gt;Node110</title>
<path fill="none" stroke="midnightblue" d="M1891.97,-869.44C1695.3,-867.35 1099.77,-858.32 1019.79,-825 980.29,-808.55 948.79,-802.78 948.79,-760 948.79,-760 948.79,-760 948.79,-573.5 948.79,-539.98 948.01,-501.24 947.43,-476.8"/>
<polygon fill="midnightblue" stroke="midnightblue" points="950.92,-476.57 947.17,-466.66 943.92,-476.74 950.92,-476.57"/>
</g>
<!-- Node111 -->
<g id="node37" class="node">
<title>Node111</title>
<g id="a_node37"><a xlink:href="../../da/d92/pointer__hash__map__set_8h.html" target="_top" xlink:title=" ">
<polygon fill="none" stroke="red" points="862.29,-369.5 862.29,-399.5 967.29,-399.5 967.29,-369.5 862.29,-369.5"/>
<text text-anchor="start" x="870.29" y="-387.5" font-family="Helvetica,sans-Serif" font-size="10.00">containers/pointer</text>
<text text-anchor="middle" x="914.79" y="-376.5" font-family="Helvetica,sans-Serif" font-size="10.00">_hash_map_set.h</text>
</a>
</g>
</g>
<!-- Node3&#45;&gt;Node111 -->
<g id="edge144" class="edge">
<title>Node3&#45;&gt;Node111</title>
<path fill="none" stroke="midnightblue" d="M1891.95,-868.74C1693.52,-864.5 1091.34,-849.65 1057.79,-825 1032.97,-806.77 1033.79,-790.8 1033.79,-760 1033.79,-760 1033.79,-760 1033.79,-512 1033.79,-477.18 1036.52,-463.2 1014.79,-436 1003.52,-421.9 987.29,-411.39 971.16,-403.71"/>
<polygon fill="midnightblue" stroke="midnightblue" points="972.28,-400.38 961.72,-399.52 969.44,-406.78 972.28,-400.38"/>
</g>
<!-- Node113 -->
<g id="node38" class="node">
<title>Node113</title>
<g id="a_node38"><a xlink:href="../../d4/dfe/element_8h.html" target="_top" xlink:title=" ">
<polygon fill="none" stroke="red" points="2541.79,-749.5 2541.79,-768.5 2651.79,-768.5 2651.79,-749.5 2541.79,-749.5"/>
<text text-anchor="middle" x="2596.79" y="-756.5" font-family="Helvetica,sans-Serif" font-size="10.00">includes/element.h</text>
</a>
</g>
</g>
<!-- Node3&#45;&gt;Node113 -->
<g id="edge124" class="edge">
<title>Node3&#45;&gt;Node113</title>
<path fill="none" stroke="midnightblue" d="M2004.63,-861.46C2121.11,-841.5 2410.82,-791.86 2536.75,-770.29"/>
<polygon fill="midnightblue" stroke="midnightblue" points="2537.71,-773.67 2546.98,-768.53 2536.53,-766.77 2537.71,-773.67"/>
</g>
<!-- Node131 -->
<g id="node39" class="node">
<title>Node131</title>
<g id="a_node39"><a xlink:href="../../d7/d6c/condition_8h.html" target="_top" xlink:title=" ">
<polygon fill="none" stroke="red" points="2669.79,-749.5 2669.79,-768.5 2783.79,-768.5 2783.79,-749.5 2669.79,-749.5"/>
<text text-anchor="middle" x="2726.79" y="-756.5" font-family="Helvetica,sans-Serif" font-size="10.00">includes/condition.h</text>
</a>
</g>
</g>
<!-- Node3&#45;&gt;Node131 -->
<g id="edge126" class="edge">
<title>Node3&#45;&gt;Node131</title>
<path fill="none" stroke="midnightblue" d="M2017.31,-869.01C2181.86,-865.99 2618.3,-855.21 2675.79,-825 2695.37,-814.71 2709.87,-793.23 2718.3,-777.77"/>
<polygon fill="midnightblue" stroke="midnightblue" points="2721.52,-779.16 2722.96,-768.67 2715.29,-775.98 2721.52,-779.16"/>
</g>
<!-- Node132 -->
<g id="node40" class="node">
<title>Node132</title>
<g id="a_node40"><a xlink:href="../../d8/d75/communicator_8h.html" target="_top" xlink:title=" ">
<polygon fill="none" stroke="black" points="2527.29,-805.5 2527.29,-824.5 2666.29,-824.5 2666.29,-805.5 2527.29,-805.5"/>
<text text-anchor="middle" x="2596.79" y="-812.5" font-family="Helvetica,sans-Serif" font-size="10.00">includes/communicator.h</text>
</a>
</g>
</g>
<!-- Node3&#45;&gt;Node132 -->
<g id="edge128" class="edge">
<title>Node3&#45;&gt;Node132</title>
<path fill="none" stroke="midnightblue" d="M2017.51,-864.72C2134.86,-854.85 2387.4,-833.61 2516.79,-822.73"/>
<polygon fill="midnightblue" stroke="midnightblue" points="2517.36,-826.19 2527.03,-821.87 2516.77,-819.22 2517.36,-826.19"/>
</g>
<!-- Node116 -->
<g id="node41" class="node">
<title>Node116</title>
<g id="a_node41"><a xlink:href="../../dd/d98/table_8h.html" target="_top" xlink:title=" ">
<polygon fill="none" stroke="black" points="1341.79,-503.5 1341.79,-522.5 1435.79,-522.5 1435.79,-503.5 1341.79,-503.5"/>
<text text-anchor="middle" x="1388.79" y="-510.5" font-family="Helvetica,sans-Serif" font-size="10.00">includes/table.h</text>
</a>
</g>
</g>
<!-- Node3&#45;&gt;Node116 -->
<g id="edge137" class="edge">
<title>Node3&#45;&gt;Node116</title>
<path fill="none" stroke="midnightblue" d="M1892.25,-865.11C1737.99,-852.22 1351.79,-814.5 1351.79,-760 1351.79,-760 1351.79,-760 1351.79,-635 1351.79,-596.9 1368.77,-554.89 1379.72,-531.75"/>
<polygon fill="midnightblue" stroke="midnightblue" points="1382.99,-533.05 1384.25,-522.53 1376.7,-529.96 1382.99,-533.05"/>
</g>
<!-- Node109 -->
<g id="node42" class="node">
<title>Node109</title>
<g id="a_node42"><a xlink:href="../../d0/dac/kratos__flags_8h.html" target="_top" xlink:title=" ">
<polygon fill="none" stroke="black" points="1928.79,-565 1928.79,-584 2056.79,-584 2056.79,-565 1928.79,-565"/>
<text text-anchor="middle" x="1992.79" y="-572" font-family="Helvetica,sans-Serif" font-size="10.00">includes/kratos_flags.h</text>
</a>
</g>
</g>
<!-- Node3&#45;&gt;Node109 -->
<g id="edge146" class="edge">
<title>Node3&#45;&gt;Node109</title>
<path fill="none" stroke="midnightblue" d="M1892.23,-862.69C1864.88,-856.6 1834.21,-845.44 1812.79,-825 1790.51,-803.74 1788.79,-790.8 1788.79,-760 1788.79,-760 1788.79,-760 1788.79,-696.5 1788.79,-663.4 1788.75,-648.76 1812.79,-626 1841.12,-599.18 1882.53,-586.41 1918.49,-580.41"/>
<polygon fill="midnightblue" stroke="midnightblue" points="1919.11,-583.86 1928.47,-578.89 1918.06,-576.94 1919.11,-583.86"/>
</g>
<!-- Node8&#45;&gt;Node6 -->
<g id="edge9" class="edge">
<title>Node8&#45;&gt;Node6</title>
<path fill="none" stroke="midnightblue" d="M1045.36,-130.92C1217.22,-127.04 1803.33,-112.67 2286.79,-87 2657.12,-67.34 3104.66,-30.77 3236.51,-19.74"/>
<polygon fill="midnightblue" stroke="midnightblue" points="3236.84,-23.22 3246.52,-18.9 3236.26,-16.24 3236.84,-23.22"/>
</g>
<!-- Node9 -->
<g id="node9" class="node">
<title>Node9</title>
<g id="a_node9"><a xlink:title=" ">
<polygon fill="none" stroke="#bfbfbf" points="1883.29,-6 1883.29,-25 1948.29,-25 1948.29,-6 1883.29,-6"/>
<text text-anchor="middle" x="1915.79" y="-13" font-family="Helvetica,sans-Serif" font-size="10.00">stdexcept</text>
</a>
</g>
</g>
<!-- Node8&#45;&gt;Node9 -->
<g id="edge8" class="edge">
<title>Node8&#45;&gt;Node9</title>
<path fill="none" stroke="midnightblue" d="M1045.58,-125.75C1207.97,-105.36 1720.5,-41.02 1872.74,-21.9"/>
<polygon fill="midnightblue" stroke="midnightblue" points="1873.59,-25.33 1883.07,-20.61 1872.71,-18.38 1873.59,-25.33"/>
</g>
<!-- Node10 -->
<g id="node10" class="node">
<title>Node10</title>
<g id="a_node10"><a xlink:href="../../dc/d25/kratos__export__api_8h.html" target="_top" xlink:title=" ">
<polygon fill="none" stroke="black" points="2111.79,-0.5 2111.79,-30.5 2239.79,-30.5 2239.79,-0.5 2111.79,-0.5"/>
<text text-anchor="start" x="2119.79" y="-18.5" font-family="Helvetica,sans-Serif" font-size="10.00">includes/kratos_export</text>
<text text-anchor="middle" x="2175.79" y="-7.5" font-family="Helvetica,sans-Serif" font-size="10.00">_api.h</text>
</a>
</g>
</g>
<!-- Node8&#45;&gt;Node10 -->
<g id="edge10" class="edge">
<title>Node8&#45;&gt;Node10</title>
<path fill="none" stroke="midnightblue" d="M1045.48,-127.14C1129.84,-118.89 1306.45,-101.62 1455.79,-87 1691.59,-63.92 1970.83,-36.57 2101.45,-23.78"/>
<polygon fill="midnightblue" stroke="midnightblue" points="2102.12,-27.23 2111.73,-22.77 2101.44,-20.27 2102.12,-27.23"/>
</g>
<!-- Node11 -->
<g id="node11" class="node">
<title>Node11</title>
<g id="a_node11"><a xlink:href="../../d9/dc0/smart__pointers_8h.html" target="_top" xlink:title=" ">
<polygon fill="none" stroke="red" points="824.29,-67.5 824.29,-86.5 967.29,-86.5 967.29,-67.5 824.29,-67.5"/>
<text text-anchor="middle" x="895.79" y="-74.5" font-family="Helvetica,sans-Serif" font-size="10.00">includes/smart_pointers.h</text>
</a>
</g>
</g>
<!-- Node8&#45;&gt;Node11 -->
<g id="edge11" class="edge">
<title>Node8&#45;&gt;Node11</title>
<path fill="none" stroke="midnightblue" d="M979.72,-123.32C963.83,-114.74 939.28,-101.49 920.83,-91.52"/>
<polygon fill="midnightblue" stroke="midnightblue" points="922.28,-88.33 911.81,-86.65 918.95,-94.49 922.28,-88.33"/>
</g>
<!-- Node15 -->
<g id="node12" class="node">
<title>Node15</title>
<g id="a_node12"><a xlink:href="../../dd/d2d/exception_8h.html" target="_top" xlink:title=" ">
<polygon fill="none" stroke="red" points="2160.29,-67.5 2160.29,-86.5 2277.29,-86.5 2277.29,-67.5 2160.29,-67.5"/>
<text text-anchor="middle" x="2218.79" y="-74.5" font-family="Helvetica,sans-Serif" font-size="10.00">includes/exception.h</text>
</a>
</g>
</g>
<!-- Node8&#45;&gt;Node15 -->
<g id="edge13" class="edge">
<title>Node8&#45;&gt;Node15</title>
<path fill="none" stroke="midnightblue" d="M1045.47,-131.54C1205.36,-129.73 1720.85,-121.45 2145.79,-87 2147.26,-86.88 2148.75,-86.75 2150.25,-86.62"/>
<polygon fill="midnightblue" stroke="midnightblue" points="2150.64,-90.1 2160.26,-85.65 2149.97,-83.13 2150.64,-90.1"/>
</g>
<!-- Node11&#45;&gt;Node5 -->
<g id="edge12" class="edge">
<title>Node11&#45;&gt;Node5</title>
<path fill="none" stroke="midnightblue" d="M967.56,-68.29C972.38,-67.83 977.15,-67.4 981.79,-67 1252.96,-43.7 1580,-24.89 1692.5,-18.68"/>
<polygon fill="midnightblue" stroke="midnightblue" points="1692.92,-22.16 1702.71,-18.12 1692.53,-15.17 1692.92,-22.16"/>
</g>
<!-- Node15&#45;&gt;Node4 -->
<g id="edge15" class="edge">
<title>Node15&#45;&gt;Node4</title>
<path fill="none" stroke="midnightblue" d="M2277.3,-70.38C2405.24,-58.08 2706.36,-29.13 2805.5,-19.6"/>
<polygon fill="midnightblue" stroke="midnightblue" points="2805.9,-23.08 2815.52,-18.64 2805.23,-16.11 2805.9,-23.08"/>
</g>
<!-- Node15&#45;&gt;Node5 -->
<g id="edge16" class="edge">
<title>Node15&#45;&gt;Node5</title>
<path fill="none" stroke="midnightblue" d="M2160.16,-68.82C2060.07,-56.57 1858.73,-31.92 1772.96,-21.42"/>
<polygon fill="midnightblue" stroke="midnightblue" points="1773.2,-17.92 1762.85,-20.18 1772.35,-24.87 1773.2,-17.92"/>
</g>
<!-- Node15&#45;&gt;Node6 -->
<g id="edge17" class="edge">
<title>Node15&#45;&gt;Node6</title>
<path fill="none" stroke="midnightblue" d="M2277.45,-72.69C2469.56,-61.87 3076.69,-27.66 3236.13,-18.68"/>
<polygon fill="midnightblue" stroke="midnightblue" points="3236.61,-22.16 3246.4,-18.1 3236.22,-15.17 3236.61,-22.16"/>
</g>
<!-- Node15&#45;&gt;Node9 -->
<g id="edge14" class="edge">
<title>Node15&#45;&gt;Node9</title>
<path fill="none" stroke="midnightblue" d="M2175.38,-67.48C2117.49,-56.11 2015.67,-36.11 1958.26,-24.84"/>
<polygon fill="midnightblue" stroke="midnightblue" points="1958.91,-21.4 1948.42,-22.91 1957.56,-28.27 1958.91,-21.4"/>
</g>
<!-- Node15&#45;&gt;Node10 -->
<g id="edge19" class="edge">
<title>Node15&#45;&gt;Node10</title>
<path fill="none" stroke="midnightblue" d="M2212.63,-67.48C2207.24,-60.02 2199.17,-48.85 2191.95,-38.87"/>
<polygon fill="midnightblue" stroke="midnightblue" points="2194.62,-36.58 2185.92,-30.52 2188.94,-40.68 2194.62,-36.58"/>
</g>
<!-- Node16 -->
<g id="node13" class="node">
<title>Node16</title>
<g id="a_node13"><a xlink:title=" ">
<polygon fill="none" stroke="#bfbfbf" points="2396.29,-6 2396.29,-25 2443.29,-25 2443.29,-6 2396.29,-6"/>
<text text-anchor="middle" x="2419.79" y="-13" font-family="Helvetica,sans-Serif" font-size="10.00">vector</text>
</a>
</g>
</g>
<!-- Node15&#45;&gt;Node16 -->
<g id="edge18" class="edge">
<title>Node15&#45;&gt;Node16</title>
<path fill="none" stroke="midnightblue" d="M2247.59,-67.48C2284.26,-56.62 2347.5,-37.9 2386.29,-26.42"/>
<polygon fill="midnightblue" stroke="midnightblue" points="2387.47,-29.72 2396.07,-23.52 2385.48,-23 2387.47,-29.72"/>
</g>
<!-- Node19&#45;&gt;Node4 -->
<g id="edge23" class="edge">
<title>Node19&#45;&gt;Node4</title>
<path fill="none" stroke="midnightblue" d="M1678.3,-313.44C1718.71,-306.12 1775.16,-294.04 1822.79,-277 1851.8,-266.62 1854.97,-253.75 1884.79,-246 1971.55,-223.46 2614.36,-256.86 2690.79,-210 2753.06,-171.82 2723.82,-122.08 2771.79,-67 2784.22,-52.72 2801.26,-39.81 2814.9,-30.62"/>
<polygon fill="midnightblue" stroke="midnightblue" points="2816.84,-33.53 2823.3,-25.13 2813.01,-27.67 2816.84,-33.53"/>
</g>
<!-- Node19&#45;&gt;Node5 -->
<g id="edge27" class="edge">
<title>Node19&#45;&gt;Node5</title>
<path fill="none" stroke="midnightblue" d="M1649.26,-313.44C1665.35,-306.38 1685.16,-294.63 1694.79,-277 1701.39,-264.91 1702,-257.74 1694.79,-246 1676.27,-215.85 1642.3,-240.15 1623.79,-210 1590.53,-155.84 1589.57,-120.56 1623.79,-67 1638.94,-43.29 1668.39,-30.54 1692.86,-23.79"/>
<polygon fill="midnightblue" stroke="midnightblue" points="1693.8,-27.16 1702.65,-21.33 1692.1,-20.38 1693.8,-27.16"/>
</g>
<!-- Node19&#45;&gt;Node6 -->
<g id="edge25" class="edge">
<title>Node19&#45;&gt;Node6</title>
<path fill="none" stroke="midnightblue" d="M1681.37,-321.96C1848.99,-320.69 2356.63,-308.36 2762.79,-210 2955.03,-163.45 3173.15,-64.67 3247.96,-29.37"/>
<polygon fill="midnightblue" stroke="midnightblue" points="3249.62,-32.46 3257.16,-25.01 3246.62,-26.13 3249.62,-32.46"/>
</g>
<!-- Node19&#45;&gt;Node8 -->
<g id="edge30" class="edge">
<title>Node19&#45;&gt;Node8</title>
<path fill="none" stroke="midnightblue" d="M1568.07,-322.49C1470.14,-322.24 1274.66,-316.62 1220.79,-277 1182.47,-248.82 1214.17,-209.64 1177.79,-179 1143.85,-150.42 1094.45,-139.52 1055.68,-135.57"/>
<polygon fill="midnightblue" stroke="midnightblue" points="1055.83,-132.07 1045.55,-134.67 1055.21,-139.04 1055.83,-132.07"/>
</g>
<!-- Node20 -->
<g id="node15" class="node">
<title>Node20</title>
<g id="a_node15"><a xlink:title=" ">
<polygon fill="none" stroke="#bfbfbf" points="1893.79,-252 1893.79,-271 1931.79,-271 1931.79,-252 1893.79,-252"/>
<text text-anchor="middle" x="1912.79" y="-259" font-family="Helvetica,sans-Serif" font-size="10.00">map</text>
</a>
</g>
</g>
<!-- Node19&#45;&gt;Node20 -->
<g id="edge21" class="edge">
<title>Node19&#45;&gt;Node20</title>
<path fill="none" stroke="midnightblue" d="M1681.41,-315.95C1733.69,-309.45 1813.1,-297.21 1879.79,-277 1881.72,-276.41 1883.69,-275.75 1885.65,-275.03"/>
<polygon fill="midnightblue" stroke="midnightblue" points="1887.32,-278.13 1895.27,-271.12 1884.69,-271.64 1887.32,-278.13"/>
</g>
<!-- Node21 -->
<g id="node16" class="node">
<title>Node21</title>
<g id="a_node16"><a xlink:title=" ">
<polygon fill="none" stroke="#bfbfbf" points="1229.79,-252 1229.79,-271 1261.79,-271 1261.79,-252 1229.79,-252"/>
<text text-anchor="middle" x="1245.79" y="-259" font-family="Helvetica,sans-Serif" font-size="10.00">set</text>
</a>
</g>
</g>
<!-- Node19&#45;&gt;Node21 -->
<g id="edge22" class="edge">
<title>Node19&#45;&gt;Node21</title>
<path fill="none" stroke="midnightblue" d="M1568.06,-321.67C1496.83,-319.71 1371.73,-311.13 1270.79,-277 1269.72,-276.64 1268.64,-276.23 1267.57,-275.78"/>
<polygon fill="midnightblue" stroke="midnightblue" points="1268.79,-272.48 1258.29,-271.06 1265.62,-278.71 1268.79,-272.48"/>
</g>
<!-- Node22 -->
<g id="node17" class="node">
<title>Node22</title>
<g id="a_node17"><a xlink:title=" ">
<polygon fill="none" stroke="#bfbfbf" points="1279.79,-252 1279.79,-271 1329.79,-271 1329.79,-252 1279.79,-252"/>
<text text-anchor="middle" x="1304.79" y="-259" font-family="Helvetica,sans-Serif" font-size="10.00">cstring</text>
</a>
</g>
</g>
<!-- Node19&#45;&gt;Node22 -->
<g id="edge24" class="edge">
<title>Node19&#45;&gt;Node22</title>
<path fill="none" stroke="midnightblue" d="M1568.24,-317.05C1510.12,-311.03 1417.41,-298.88 1339.79,-277 1337.35,-276.31 1334.85,-275.5 1332.37,-274.63"/>
<polygon fill="midnightblue" stroke="midnightblue" points="1333.62,-271.36 1323.03,-271.01 1331.09,-277.88 1333.62,-271.36"/>
</g>
<!-- Node23 -->
<g id="node18" class="node">
<title>Node23</title>
<g id="a_node18"><a xlink:title=" ">
<polygon fill="none" stroke="#bfbfbf" points="1348.29,-252 1348.29,-271 1403.29,-271 1403.29,-252 1348.29,-252"/>
<text text-anchor="middle" x="1375.79" y="-259" font-family="Helvetica,sans-Serif" font-size="10.00">fstream</text>
</a>
</g>
</g>
<!-- Node19&#45;&gt;Node23 -->
<g id="edge26" class="edge">
<title>Node19&#45;&gt;Node23</title>
<path fill="none" stroke="midnightblue" d="M1572.78,-313.43C1529.49,-305.7 1466.49,-293.1 1412.79,-277 1410.36,-276.27 1407.87,-275.45 1405.37,-274.59"/>
<polygon fill="midnightblue" stroke="midnightblue" points="1406.53,-271.28 1395.93,-271.09 1404.09,-277.84 1406.53,-271.28"/>
</g>
<!-- Node24 -->
<g id="node19" class="node">
<title>Node24</title>
<g id="a_node19"><a xlink:title=" ">
<polygon fill="none" stroke="#bfbfbf" points="966.29,-252 966.29,-271 1059.29,-271 1059.29,-252 966.29,-252"/>
<text text-anchor="middle" x="1012.79" y="-259" font-family="Helvetica,sans-Serif" font-size="10.00">unordered_map</text>
</a>
</g>
</g>
<!-- Node19&#45;&gt;Node24 -->
<g id="edge28" class="edge">
<title>Node19&#45;&gt;Node24</title>
<path fill="none" stroke="midnightblue" d="M1568.04,-316.48C1451.54,-305.16 1186.58,-279.4 1069.84,-268.05"/>
<polygon fill="midnightblue" stroke="midnightblue" points="1069.97,-264.54 1059.68,-267.06 1069.29,-271.51 1069.97,-264.54"/>
</g>
<!-- Node25 -->
<g id="node20" class="node">
<title>Node25</title>
<g id="a_node20"><a xlink:title=" ">
<polygon fill="none" stroke="#bfbfbf" points="1421.79,-252 1421.79,-271 1507.79,-271 1507.79,-252 1421.79,-252"/>
<text text-anchor="middle" x="1464.79" y="-259" font-family="Helvetica,sans-Serif" font-size="10.00">unordered_set</text>
</a>
</g>
</g>
<!-- Node19&#45;&gt;Node25 -->
<g id="edge29" class="edge">
<title>Node19&#45;&gt;Node25</title>
<path fill="none" stroke="midnightblue" d="M1601.86,-313.48C1574.42,-303.27 1528.27,-286.11 1497.19,-274.55"/>
<polygon fill="midnightblue" stroke="midnightblue" points="1498.26,-271.21 1487.67,-271.01 1495.82,-277.78 1498.26,-271.21"/>
</g>
<!-- Node19&#45;&gt;Node26 -->
<g id="edge31" class="edge">
<title>Node19&#45;&gt;Node26</title>
<path fill="none" stroke="midnightblue" d="M1649.44,-313.41C1670.91,-305.42 1702.47,-292.46 1727.79,-277 1746.39,-265.64 1746.87,-256.82 1765.79,-246 1851.82,-196.78 1963.49,-162.02 2024.06,-145.3"/>
<polygon fill="midnightblue" stroke="midnightblue" points="2025.31,-148.59 2034.04,-142.58 2023.47,-141.83 2025.31,-148.59"/>
</g>
<!-- Node30 -->
<g id="node22" class="node">
<title>Node30</title>
<g id="a_node22"><a xlink:href="../../d9/da0/flags_8h.html" target="_top" xlink:title=" ">
<polygon fill="none" stroke="black" points="2064.29,-252 2064.29,-271 2167.29,-271 2167.29,-252 2064.29,-252"/>
<text text-anchor="middle" x="2115.79" y="-259" font-family="Helvetica,sans-Serif" font-size="10.00">containers/flags.h</text>
</a>
</g>
</g>
<!-- Node19&#45;&gt;Node30 -->
<g id="edge35" class="edge">
<title>Node19&#45;&gt;Node30</title>
<path fill="none" stroke="midnightblue" d="M1681.59,-315.12C1774.39,-303.87 1957.76,-281.65 2053.81,-270.01"/>
<polygon fill="midnightblue" stroke="midnightblue" points="2054.44,-273.46 2063.95,-268.78 2053.6,-266.51 2054.44,-273.46"/>
</g>
<!-- Node31 -->
<g id="node23" class="node">
<title>Node31</title>
<g id="a_node23"><a xlink:href="../../d9/d36/array__1d_8h.html" target="_top" xlink:title=" ">
<polygon fill="none" stroke="red" points="1563.79,-252 1563.79,-271 1685.79,-271 1685.79,-252 1563.79,-252"/>
<text text-anchor="middle" x="1624.79" y="-259" font-family="Helvetica,sans-Serif" font-size="10.00">containers/array_1d.h</text>
</a>
</g>
</g>
<!-- Node19&#45;&gt;Node31 -->
<g id="edge39" class="edge">
<title>Node19&#45;&gt;Node31</title>
<path fill="none" stroke="midnightblue" d="M1624.79,-313.48C1624.79,-305.08 1624.79,-291.98 1624.79,-281.16"/>
<polygon fill="midnightblue" stroke="midnightblue" points="1628.29,-281.01 1624.79,-271.01 1621.29,-281.01 1628.29,-281.01"/>
</g>
<!-- Node53 -->
<g id="node25" class="node">
<title>Node53</title>
<g id="a_node25"><a xlink:href="../../d5/d10/weak__pointer__vector_8h.html" target="_top" xlink:title=" ">
<polygon fill="none" stroke="red" points="2318.29,-179.5 2318.29,-209.5 2455.29,-209.5 2455.29,-179.5 2318.29,-179.5"/>
<text text-anchor="start" x="2326.29" y="-197.5" font-family="Helvetica,sans-Serif" font-size="10.00">containers/weak_pointer</text>
<text text-anchor="middle" x="2386.79" y="-186.5" font-family="Helvetica,sans-Serif" font-size="10.00">_vector.h</text>
</a>
</g>
</g>
<!-- Node19&#45;&gt;Node53 -->
<g id="edge47" class="edge">
<title>Node19&#45;&gt;Node53</title>
<path fill="none" stroke="midnightblue" d="M1652.71,-313.42C1681.23,-304.58 1726.74,-290.26 1765.79,-277 1804.26,-263.93 1812.14,-254.87 1851.79,-246 2011.05,-210.38 2202.46,-199.86 2307.72,-196.77"/>
<polygon fill="midnightblue" stroke="midnightblue" points="2308.04,-200.26 2317.94,-196.48 2307.85,-193.26 2308.04,-200.26"/>
</g>
<!-- Node26&#45;&gt;Node4 -->
<g id="edge32" class="edge">
<title>Node26&#45;&gt;Node4</title>
<path fill="none" stroke="midnightblue" d="M2123.4,-123.47C2181.79,-114.49 2276.26,-99.9 2357.79,-87 2412.93,-78.28 2426.59,-75.36 2481.79,-67 2601.1,-48.92 2743.22,-29.35 2805.67,-20.85"/>
<polygon fill="midnightblue" stroke="midnightblue" points="2806.25,-24.3 2815.69,-19.49 2805.31,-17.37 2806.25,-24.3"/>
</g>
<!-- Node26&#45;&gt;Node5 -->
<g id="edge33" class="edge">
<title>Node26&#45;&gt;Node5</title>
<path fill="none" stroke="midnightblue" d="M2055.65,-123.28C2035.75,-109.38 1994.5,-82.21 1955.79,-67 1894.26,-42.83 1818.42,-28.74 1772.92,-21.84"/>
<polygon fill="midnightblue" stroke="midnightblue" points="1773.26,-18.35 1762.86,-20.35 1772.24,-25.28 1773.26,-18.35"/>
</g>
<!-- Node26&#45;&gt;Node15 -->
<g id="edge34" class="edge">
<title>Node26&#45;&gt;Node15</title>
<path fill="none" stroke="midnightblue" d="M2091.71,-123.44C2117.01,-114.4 2157.09,-100.06 2185.47,-89.92"/>
<polygon fill="midnightblue" stroke="midnightblue" points="2186.74,-93.18 2194.97,-86.52 2184.38,-86.59 2186.74,-93.18"/>
</g>
<!-- Node30&#45;&gt;Node4 -->
<g id="edge36" class="edge">
<title>Node30&#45;&gt;Node4</title>
<path fill="none" stroke="midnightblue" d="M2167.43,-257.85C2312.63,-250.2 2715.43,-227.49 2737.79,-210 2790.59,-168.69 2750.07,-123.73 2785.79,-67 2794.34,-53.42 2807.27,-40.84 2818.1,-31.63"/>
<polygon fill="midnightblue" stroke="midnightblue" points="2820.33,-34.33 2825.86,-25.29 2815.9,-28.91 2820.33,-34.33"/>
</g>
<!-- Node30&#45;&gt;Node5 -->
<g id="edge37" class="edge">
<title>Node30&#45;&gt;Node5</title>
<path fill="none" stroke="midnightblue" d="M2064.19,-252.05C2007.28,-242.19 1919.79,-225.28 1889.79,-210 1812.49,-170.62 1759.95,-74.19 1740.82,-34.26"/>
<polygon fill="midnightblue" stroke="midnightblue" points="1743.98,-32.78 1736.58,-25.19 1737.64,-35.74 1743.98,-32.78"/>
</g>
<!-- Node30&#45;&gt;Node8 -->
<g id="edge38" class="edge">
<title>Node30&#45;&gt;Node8</title>
<path fill="none" stroke="midnightblue" d="M2064.12,-255.97C2029.29,-252.97 1982.29,-249.05 1940.79,-246 1816.42,-236.85 1498.17,-252.11 1380.79,-210 1358.61,-202.05 1359.69,-187.69 1337.79,-179 1244.2,-141.87 1126.04,-134.1 1055.94,-133.14"/>
<polygon fill="midnightblue" stroke="midnightblue" points="1055.57,-129.64 1045.53,-133.04 1055.5,-136.64 1055.57,-129.64"/>
</g>
<!-- Node31&#45;&gt;Node4 -->
<g id="edge40" class="edge">
<title>Node31&#45;&gt;Node4</title>
<path fill="none" stroke="midnightblue" d="M1685.95,-256.27C1731.63,-253.18 1795.6,-249.04 1851.79,-246 1897.04,-243.56 2631.02,-237.84 2666.79,-210 2719.16,-169.23 2664.86,-115.85 2709.79,-67 2734.85,-39.75 2776.47,-26.99 2805.42,-21.16"/>
<polygon fill="midnightblue" stroke="midnightblue" points="2806.26,-24.56 2815.46,-19.31 2804.99,-17.68 2806.26,-24.56"/>
</g>
<!-- Node31&#45;&gt;Node5 -->
<g id="edge41" class="edge">
<title>Node31&#45;&gt;Node5</title>
<path fill="none" stroke="midnightblue" d="M1615.22,-251.94C1605.66,-242.7 1591.58,-226.98 1585.79,-210 1565.26,-149.85 1548.86,-118.73 1585.79,-67 1609.8,-33.36 1657.7,-21.9 1692.3,-18.12"/>
<polygon fill="midnightblue" stroke="midnightblue" points="1692.94,-21.57 1702.57,-17.17 1692.3,-14.6 1692.94,-21.57"/>
</g>
<!-- Node31&#45;&gt;Node8 -->
<g id="edge42" class="edge">
<title>Node31&#45;&gt;Node8</title>
<path fill="none" stroke="midnightblue" d="M1581.18,-251.96C1570.89,-249.97 1559.96,-247.89 1549.79,-246 1460.13,-229.34 1432.65,-243.39 1347.79,-210 1324.16,-200.7 1323.55,-187.95 1299.79,-179 1218.68,-148.45 1118.09,-138.55 1055.4,-135.4"/>
<polygon fill="midnightblue" stroke="midnightblue" points="1055.45,-131.9 1045.3,-134.93 1055.13,-138.89 1055.45,-131.9"/>
</g>
<!-- Node35 -->
<g id="node24" class="node">
<title>Node35</title>
<g id="a_node24"><a xlink:href="../../d9/d3e/ublas__interface_8h.html" target="_top" xlink:title=" ">
<polygon fill="none" stroke="red" points="1389.79,-185 1389.79,-204 1533.79,-204 1533.79,-185 1389.79,-185"/>
<text text-anchor="middle" x="1461.79" y="-192" font-family="Helvetica,sans-Serif" font-size="10.00">includes/ublas_interface.h</text>
</a>
</g>
</g>
<!-- Node31&#45;&gt;Node35 -->
<g id="edge43" class="edge">
<title>Node31&#45;&gt;Node35</title>
<path fill="none" stroke="midnightblue" d="M1603.14,-251.87C1574.81,-240.57 1524.97,-220.7 1492.68,-207.82"/>
<polygon fill="midnightblue" stroke="midnightblue" points="1493.85,-204.52 1483.26,-204.06 1491.26,-211.02 1493.85,-204.52"/>
</g>
<!-- Node35&#45;&gt;Node4 -->
<g id="edge44" class="edge">
<title>Node35&#45;&gt;Node4</title>
<path fill="none" stroke="midnightblue" d="M1525.83,-184.96C1626.49,-171.57 1827.88,-144.9 1998.79,-123 2126.74,-106.6 2160.35,-112.56 2286.79,-87 2318.92,-80.5 2325.59,-73.18 2357.79,-67 2524.41,-35.01 2727.73,-22.03 2805.47,-18"/>
<polygon fill="midnightblue" stroke="midnightblue" points="2805.77,-21.49 2815.58,-17.49 2805.42,-14.5 2805.77,-21.49"/>
</g>
<!-- Node35&#45;&gt;Node5 -->
<g id="edge45" class="edge">
<title>Node35&#45;&gt;Node5</title>
<path fill="none" stroke="midnightblue" d="M1465.12,-184.88C1474.43,-161.94 1503.05,-98.95 1547.79,-67 1591.06,-36.1 1652.36,-24.1 1692.34,-19.44"/>
<polygon fill="midnightblue" stroke="midnightblue" points="1692.94,-22.9 1702.52,-18.36 1692.2,-15.94 1692.94,-22.9"/>
</g>
<!-- Node35&#45;&gt;Node8 -->
<g id="edge46" class="edge">
<title>Node35&#45;&gt;Node8</title>
<path fill="none" stroke="midnightblue" d="M1413.64,-184.95C1401.32,-182.88 1388.08,-180.76 1375.79,-179 1262.89,-162.81 1130.52,-148.1 1055.57,-140.16"/>
<polygon fill="midnightblue" stroke="midnightblue" points="1055.69,-136.65 1045.38,-139.09 1054.96,-143.62 1055.69,-136.65"/>
</g>
<!-- Node53&#45;&gt;Node4 -->
<g id="edge48" class="edge">
<title>Node53&#45;&gt;Node4</title>
<path fill="none" stroke="midnightblue" d="M2394.51,-179.35C2404.01,-163.29 2421.63,-137.44 2443.79,-123 2561.8,-46.09 2734.12,-24.41 2805.24,-18.56"/>
<polygon fill="midnightblue" stroke="midnightblue" points="2805.67,-22.03 2815.37,-17.78 2805.13,-15.05 2805.67,-22.03"/>
</g>
<!-- Node53&#45;&gt;Node5 -->
<g id="edge49" class="edge">
<title>Node53&#45;&gt;Node5</title>
<path fill="none" stroke="midnightblue" d="M2343.78,-179.5C2284.13,-159.87 2173.09,-122.58 2079.79,-87 2058.19,-78.76 2053.99,-73.41 2031.79,-67 1941.32,-40.88 1831.3,-26.61 1773.22,-20.38"/>
<polygon fill="midnightblue" stroke="midnightblue" points="1773.31,-16.87 1763,-19.31 1772.58,-23.83 1773.31,-16.87"/>
</g>
<!-- Node53&#45;&gt;Node6 -->
<g id="edge50" class="edge">
<title>Node53&#45;&gt;Node6</title>
<path fill="none" stroke="midnightblue" d="M2455.36,-179.83C2632.19,-144.58 3099.38,-51.46 3236.46,-24.14"/>
<polygon fill="midnightblue" stroke="midnightblue" points="3237.37,-27.53 3246.49,-22.14 3236,-20.66 3237.37,-27.53"/>
</g>
<!-- Node53&#45;&gt;Node8 -->
<g id="edge52" class="edge">
<title>Node53&#45;&gt;Node8</title>
<path fill="none" stroke="midnightblue" d="M2318.28,-190.57C2078.75,-180.32 1281.04,-146.2 1055.6,-136.56"/>
<polygon fill="midnightblue" stroke="midnightblue" points="1055.44,-133.05 1045.3,-136.12 1055.14,-140.04 1055.44,-133.05"/>
</g>
<!-- Node53&#45;&gt;Node16 -->
<g id="edge51" class="edge">
<title>Node53&#45;&gt;Node16</title>
<path fill="none" stroke="midnightblue" d="M2378.72,-179.26C2371.68,-165.08 2363.25,-142.64 2367.79,-123 2375.59,-89.25 2395.61,-53.84 2408.42,-33.54"/>
<polygon fill="midnightblue" stroke="midnightblue" points="2411.38,-35.4 2413.88,-25.1 2405.5,-31.59 2411.38,-35.4"/>
</g>
<!-- Node57&#45;&gt;Node4 -->
<g id="edge54" class="edge">
<title>Node57&#45;&gt;Node4</title>
<path fill="none" stroke="midnightblue" d="M2785.98,-626.36C2830.8,-598.5 2971.38,-506.61 3056.79,-400 3077.67,-373.94 3083.02,-365.48 3090.79,-333 3119.89,-211.34 3102.49,-136.96 2998.79,-67 2958.95,-40.13 2904.07,-26.96 2869.77,-20.96"/>
<polygon fill="midnightblue" stroke="midnightblue" points="2870.26,-17.5 2859.83,-19.33 2869.13,-24.41 2870.26,-17.5"/>
</g>
<!-- Node57&#45;&gt;Node5 -->
<g id="edge55" class="edge">
<title>Node57&#45;&gt;Node5</title>
<path fill="none" stroke="midnightblue" d="M2756.96,-626.45C2709.37,-598.5 2557.74,-505.56 2457.79,-400 2425.83,-366.26 2430.36,-347.99 2399.79,-313 2392.38,-304.52 2334.01,-250.71 2323.79,-246 2220.64,-198.45 2176.94,-250.39 2070.79,-210 2020.44,-190.85 2012.88,-175.32 1969.79,-143 1927.9,-111.59 1925.32,-92.84 1879.79,-67 1845.84,-47.74 1803.32,-34.12 1772.76,-25.92"/>
<polygon fill="midnightblue" stroke="midnightblue" points="1773.44,-22.48 1762.88,-23.34 1771.68,-29.25 1773.44,-22.48"/>
</g>
<!-- Node57&#45;&gt;Node6 -->
<g id="edge56" class="edge">
<title>Node57&#45;&gt;Node6</title>
<path fill="none" stroke="midnightblue" d="M2794.81,-626.38C2816.43,-618 2849.43,-604.46 2876.79,-590 2943.11,-554.95 3105.7,-455.84 3155.79,-400 3256.49,-287.75 3265.61,-236.31 3286.79,-87 3289.32,-69.17 3285.13,-48.92 3281.02,-34.71"/>
<polygon fill="midnightblue" stroke="midnightblue" points="3284.36,-33.64 3278.01,-25.16 3277.68,-35.75 3284.36,-33.64"/>
</g>
<!-- Node57&#45;&gt;Node7 -->
<g id="edge57" class="edge">
<title>Node57&#45;&gt;Node7</title>
<path fill="none" stroke="midnightblue" d="M2773.99,-626.26C2778.8,-606.44 2789.79,-556.48 2789.79,-514 2789.79,-514 2789.79,-514 2789.79,-450.5 2789.79,-412.14 2786.54,-367.35 2784.47,-342.68"/>
<polygon fill="midnightblue" stroke="midnightblue" points="2787.94,-342.24 2783.59,-332.58 2780.97,-342.85 2787.94,-342.24"/>
</g>
<!-- Node57&#45;&gt;Node8 -->
<g id="edge58" class="edge">
<title>Node57&#45;&gt;Node8</title>
<path fill="none" stroke="midnightblue" d="M2706.05,-634.5C2459.48,-631.93 1590.66,-616.29 1332.79,-523 1239.07,-489.1 1005.14,-364.7 957.79,-277 935.19,-235.15 965.16,-179.02 983.48,-151.17"/>
<polygon fill="midnightblue" stroke="midnightblue" points="986.61,-152.8 989.37,-142.57 980.83,-148.84 986.61,-152.8"/>
</g>
<!-- Node57&#45;&gt;Node30 -->
<g id="edge83" class="edge">
<title>Node57&#45;&gt;Node30</title>
<path fill="none" stroke="midnightblue" d="M2705.82,-628.19C2664.16,-622.08 2610.04,-610.73 2565.79,-590 2384.25,-504.94 2377.79,-422.38 2209.79,-313 2188.14,-298.91 2162.19,-285.18 2143.04,-275.61"/>
<polygon fill="midnightblue" stroke="midnightblue" points="2144.49,-272.42 2133.97,-271.13 2141.39,-278.7 2144.49,-272.42"/>
</g>
<!-- Node57&#45;&gt;Node58 -->
<g id="edge59" class="edge">
<title>Node57&#45;&gt;Node58</title>
<path fill="none" stroke="midnightblue" d="M2705.8,-626.66C2618.2,-615.6 2464.01,-596.12 2373.26,-584.65"/>
<polygon fill="midnightblue" stroke="midnightblue" points="2373.68,-581.18 2363.32,-583.4 2372.81,-588.13 2373.68,-581.18"/>
</g>
<!-- Node58&#45;&gt;Node4 -->
<g id="edge60" class="edge">
<title>Node58&#45;&gt;Node4</title>
<path fill="none" stroke="midnightblue" d="M2363.44,-567.52C2523.46,-550.93 2940.96,-498.88 3031.79,-400 3115.09,-309.31 3087.27,-229.69 3025.79,-123 3008.53,-93.04 3000.67,-86.01 2971.79,-67 2939.97,-46.07 2898.25,-32.1 2869.87,-24.26"/>
<polygon fill="midnightblue" stroke="midnightblue" points="2870.63,-20.84 2860.06,-21.65 2868.83,-27.61 2870.63,-20.84"/>
</g>
<!-- Node58&#45;&gt;Node5 -->
<g id="edge61" class="edge">
<title>Node58&#45;&gt;Node5</title>
<path fill="none" stroke="midnightblue" d="M2298.39,-559.22C2288.44,-501.81 2248.64,-288.95 2198.79,-246 2119.4,-177.61 2061,-253.75 1965.79,-210 1921.39,-189.6 1836.76,-97.75 1798.79,-67 1783.66,-54.75 1766.16,-41.39 1752.97,-31.49"/>
<polygon fill="midnightblue" stroke="midnightblue" points="1754.73,-28.43 1744.62,-25.25 1750.53,-34.04 1754.73,-28.43"/>
</g>
<!-- Node58&#45;&gt;Node7 -->
<g id="edge62" class="edge">
<title>Node58&#45;&gt;Node7</title>
<path fill="none" stroke="midnightblue" d="M2341.46,-559.45C2414.25,-533.42 2570.34,-473.62 2689.79,-400 2718.62,-382.23 2748.3,-356.42 2766.15,-339.92"/>
<polygon fill="midnightblue" stroke="midnightblue" points="2769.01,-342.04 2773.91,-332.64 2764.22,-336.93 2769.01,-342.04"/>
</g>
<!-- Node58&#45;&gt;Node8 -->
<g id="edge64" class="edge">
<title>Node58&#45;&gt;Node8</title>
<path fill="none" stroke="midnightblue" d="M2238,-570.98C2065.96,-561.76 1576.51,-519.68 1225.79,-333 1185.52,-311.57 1175.27,-305.66 1139.79,-277 1088.38,-235.46 1034.99,-178.01 1010.13,-150.28"/>
<polygon fill="midnightblue" stroke="midnightblue" points="1012.62,-147.82 1003.36,-142.67 1007.39,-152.47 1012.62,-147.82"/>
</g>
<!-- Node58&#45;&gt;Node15 -->
<g id="edge82" class="edge">
<title>Node58&#45;&gt;Node15</title>
<path fill="none" stroke="midnightblue" d="M2301.81,-559.24C2304.74,-513.23 2311.43,-364.78 2285.79,-246 2273.46,-188.89 2243.66,-126.05 2228.3,-95.98"/>
<polygon fill="midnightblue" stroke="midnightblue" points="2231.23,-94.03 2223.52,-86.77 2225.02,-97.26 2231.23,-94.03"/>
</g>
<!-- Node58&#45;&gt;Node16 -->
<g id="edge63" class="edge">
<title>Node58&#45;&gt;Node16</title>
<path fill="none" stroke="midnightblue" d="M2309.86,-559.39C2339.52,-512.27 2433.55,-355.18 2464.79,-210 2478.73,-145.22 2446.4,-68.69 2429.4,-34.53"/>
<polygon fill="midnightblue" stroke="midnightblue" points="2432.36,-32.64 2424.68,-25.35 2426.14,-35.84 2432.36,-32.64"/>
</g>
<!-- Node58&#45;&gt;Node59 -->
<g id="edge65" class="edge">
<title>Node58&#45;&gt;Node59</title>
<path fill="none" stroke="midnightblue" d="M2238.27,-570.54C2163.59,-565.75 2035.49,-553.51 1929.79,-523 1909.15,-517.04 1905.93,-510.47 1885.79,-503 1842.94,-487.1 1792.66,-472.9 1757.38,-463.64"/>
<polygon fill="midnightblue" stroke="midnightblue" points="1757.95,-460.17 1747.4,-461.05 1756.19,-466.95 1757.95,-460.17"/>
</g>
<!-- Node76 -->
<g id="node30" class="node">
<title>Node76</title>
<g id="a_node30"><a xlink:href="../../dc/d8e/kratos__components_8h.html" target="_top" xlink:title=" ">
<polygon fill="none" stroke="red" points="1938.29,-503.5 1938.29,-522.5 2103.29,-522.5 2103.29,-503.5 1938.29,-503.5"/>
<text text-anchor="middle" x="2020.79" y="-510.5" font-family="Helvetica,sans-Serif" font-size="10.00">includes/kratos_components.h</text>
</a>
</g>
</g>
<!-- Node58&#45;&gt;Node76 -->
<g id="edge75" class="edge">
<title>Node58&#45;&gt;Node76</title>
<path fill="none" stroke="midnightblue" d="M2237.95,-560.15C2187.48,-549.42 2117.55,-534.56 2070.82,-524.63"/>
<polygon fill="midnightblue" stroke="midnightblue" points="2071.43,-521.18 2060.92,-522.53 2069.98,-528.03 2071.43,-521.18"/>
</g>
<!-- Node59&#45;&gt;Node4 -->
<g id="edge66" class="edge">
<title>Node59&#45;&gt;Node4</title>
<path fill="none" stroke="midnightblue" d="M1772.48,-447.97C1962.47,-439.79 2542.87,-413.81 2580.79,-400 2613.99,-387.91 2815.34,-238.82 2835.79,-210 2873.04,-157.5 2871.39,-130.13 2858.79,-67 2856.52,-55.65 2851.65,-43.66 2847.17,-34.21"/>
<polygon fill="midnightblue" stroke="midnightblue" points="2850.22,-32.47 2842.61,-25.1 2843.96,-35.61 2850.22,-32.47"/>
</g>
<!-- Node59&#45;&gt;Node5 -->
<g id="edge67" class="edge">
<title>Node59&#45;&gt;Node5</title>
<path fill="none" stroke="midnightblue" d="M1734.76,-441.87C1782.87,-421.61 1896.72,-365.91 1940.79,-277 1997.03,-163.54 1827.57,-289.27 1737.79,-210 1688.49,-166.47 1681.02,-130.03 1699.79,-67 1703.5,-54.52 1711.39,-42.26 1718.52,-32.94"/>
<polygon fill="midnightblue" stroke="midnightblue" points="1721.38,-34.97 1724.96,-25 1715.95,-30.56 1721.38,-34.97"/>
</g>
<!-- Node59&#45;&gt;Node8 -->
<g id="edge68" class="edge">
<title>Node59&#45;&gt;Node8</title>
<path fill="none" stroke="midnightblue" d="M1672.4,-441.99C1560.04,-417.65 1246.85,-345.1 1168.79,-277 1129.03,-242.31 1142.6,-212.43 1101.79,-179 1083.23,-163.8 1058.78,-152.96 1038.04,-145.74"/>
<polygon fill="midnightblue" stroke="midnightblue" points="1039.09,-142.4 1028.5,-142.57 1036.89,-149.04 1039.09,-142.4"/>
</g>
<!-- Node59&#45;&gt;Node74 -->
<g id="edge69" class="edge">
<title>Node59&#45;&gt;Node74</title>
<path fill="none" stroke="midnightblue" d="M1711.57,-441.73C1710.25,-432.18 1708.1,-416.62 1706.39,-404.28"/>
<polygon fill="midnightblue" stroke="midnightblue" points="1709.82,-403.55 1704.98,-394.13 1702.89,-404.51 1709.82,-403.55"/>
</g>
<!-- Node74&#45;&gt;Node4 -->
<g id="edge70" class="edge">
<title>Node74&#45;&gt;Node4</title>
<path fill="none" stroke="midnightblue" d="M1750.03,-377.23C1948.82,-350.09 2722.46,-242.72 2762.79,-210 2818.04,-165.16 2832.68,-74.34 2836.48,-35.17"/>
<polygon fill="midnightblue" stroke="midnightblue" points="2839.97,-35.43 2837.32,-25.17 2833,-34.85 2839.97,-35.43"/>
</g>
<!-- Node74&#45;&gt;Node5 -->
<g id="edge71" class="edge">
<title>Node74&#45;&gt;Node5</title>
<path fill="none" stroke="midnightblue" d="M1704.54,-374.95C1706.09,-356.88 1709.59,-313.48 1710.79,-277 1711.24,-263.23 1712.84,-259.62 1710.79,-246 1704.65,-205.22 1642.88,-103.65 1661.79,-67 1670.34,-50.41 1687.15,-38.08 1702.26,-29.76"/>
<polygon fill="midnightblue" stroke="midnightblue" points="1704.06,-32.77 1711.36,-25.09 1700.87,-26.54 1704.06,-32.77"/>
</g>
<!-- Node74&#45;&gt;Node7 -->
<g id="edge72" class="edge">
<title>Node74&#45;&gt;Node7</title>
<path fill="none" stroke="midnightblue" d="M1749.81,-380.96C1929.68,-371.04 2583.34,-335 2745.96,-326.03"/>
<polygon fill="midnightblue" stroke="midnightblue" points="2746.16,-329.53 2755.95,-325.48 2745.77,-322.54 2746.16,-329.53"/>
</g>
<!-- Node74&#45;&gt;Node8 -->
<g id="edge73" class="edge">
<title>Node74&#45;&gt;Node8</title>
<path fill="none" stroke="midnightblue" d="M1657.52,-378.61C1546.91,-366.19 1270.88,-330.52 1196.79,-277 1155.94,-247.5 1179.17,-210.43 1139.79,-179 1115.72,-159.8 1083.39,-148.74 1055.46,-142.4"/>
<polygon fill="midnightblue" stroke="midnightblue" points="1055.9,-138.91 1045.39,-140.27 1054.45,-145.76 1055.9,-138.91"/>
</g>
<!-- Node74&#45;&gt;Node19 -->
<g id="edge74" class="edge">
<title>Node74&#45;&gt;Node19</title>
<path fill="none" stroke="midnightblue" d="M1692.47,-374.98C1679.91,-365.52 1659.44,-350.1 1644.29,-338.69"/>
<polygon fill="midnightblue" stroke="midnightblue" points="1646.18,-335.73 1636.09,-332.51 1641.97,-341.32 1646.18,-335.73"/>
</g>
<!-- Node76&#45;&gt;Node4 -->
<g id="edge76" class="edge">
<title>Node76&#45;&gt;Node4</title>
<path fill="none" stroke="midnightblue" d="M2103.62,-507.97C2329.03,-496.25 2941.14,-459.25 3008.79,-400 3034.98,-377.06 3027.79,-358.82 3027.79,-324 3027.79,-324 3027.79,-324 3027.79,-193.5 3027.79,-126.74 2997.09,-110.9 2946.79,-67 2924.34,-47.41 2893,-33.96 2869.69,-25.89"/>
<polygon fill="midnightblue" stroke="midnightblue" points="2870.51,-22.48 2859.92,-22.66 2868.31,-29.13 2870.51,-22.48"/>
</g>
<!-- Node76&#45;&gt;Node5 -->
<g id="edge77" class="edge">
<title>Node76&#45;&gt;Node5</title>
<path fill="none" stroke="midnightblue" d="M2033.08,-503.46C2081.7,-468.7 2254.23,-335.45 2176.79,-246 2140.19,-203.73 1978.54,-233.46 1927.79,-210 1883.04,-189.31 1783.38,-75.82 1746.69,-32.93"/>
<polygon fill="midnightblue" stroke="midnightblue" points="1749.19,-30.47 1740.04,-25.12 1743.86,-35 1749.19,-30.47"/>
</g>
<!-- Node76&#45;&gt;Node8 -->
<g id="edge79" class="edge">
<title>Node76&#45;&gt;Node8</title>
<path fill="none" stroke="midnightblue" d="M2009.45,-503.49C1968.63,-473.24 1824.47,-369.63 1690.79,-313 1633.21,-288.61 1610.49,-305.4 1554.79,-277 1535.37,-267.1 1536.65,-254.97 1516.79,-246 1427.7,-205.75 1394.89,-232.66 1299.79,-210 1254.94,-199.31 1245.35,-190.84 1200.79,-179 1150.04,-165.51 1091.46,-152.95 1049.95,-144.54"/>
<polygon fill="midnightblue" stroke="midnightblue" points="1050.54,-141.09 1040.04,-142.55 1049.16,-147.95 1050.54,-141.09"/>
</g>
<!-- Node76&#45;&gt;Node20 -->
<g id="edge78" class="edge">
<title>Node76&#45;&gt;Node20</title>
<path fill="none" stroke="midnightblue" d="M2017.07,-503.41C2001.59,-467.65 1942.05,-330.1 1920.57,-280.48"/>
<polygon fill="midnightblue" stroke="midnightblue" points="1923.67,-278.84 1916.49,-271.05 1917.25,-281.62 1923.67,-278.84"/>
</g>
<!-- Node76&#45;&gt;Node30 -->
<g id="edge80" class="edge">
<title>Node76&#45;&gt;Node30</title>
<path fill="none" stroke="midnightblue" d="M2024.06,-503.41C2037.68,-467.65 2090.05,-330.1 2108.94,-280.48"/>
<polygon fill="midnightblue" stroke="midnightblue" points="2112.24,-281.64 2112.53,-271.05 2105.7,-279.15 2112.24,-281.64"/>
</g>
<!-- Node76&#45;&gt;Node59 -->
<g id="edge81" class="edge">
<title>Node76&#45;&gt;Node59</title>
<path fill="none" stroke="midnightblue" d="M1976.66,-503.48C1921.31,-492.78 1826.45,-474.46 1766.82,-462.94"/>
<polygon fill="midnightblue" stroke="midnightblue" points="1767.32,-459.47 1756.83,-461.01 1765.99,-466.34 1767.32,-459.47"/>
</g>
<!-- Node83&#45;&gt;Node4 -->
<g id="edge86" class="edge">
<title>Node83&#45;&gt;Node4</title>
<path fill="none" stroke="midnightblue" d="M2348.9,-755.18C2446.09,-749.13 2662.59,-733.75 2733.79,-713 2933.18,-654.88 2973.68,-577.94 3080.79,-400 3144.28,-294.52 3155.93,-222.77 3083.79,-123 3062.79,-93.96 3056.97,-84.65 3025.79,-67 2975.79,-38.69 2909.28,-25.71 2870.24,-20.18"/>
<polygon fill="midnightblue" stroke="midnightblue" points="2870.38,-16.67 2860,-18.82 2869.45,-23.61 2870.38,-16.67"/>
</g>
<!-- Node83&#45;&gt;Node5 -->
<g id="edge87" class="edge">
<title>Node83&#45;&gt;Node5</title>
<path fill="none" stroke="midnightblue" d="M2252.5,-753.16C2167.88,-741.77 1994.7,-704.91 1919.79,-590 1835.73,-461.06 2051.38,-369.7 1959.79,-246 1927.16,-201.93 1886.93,-241.12 1841.79,-210 1786.44,-171.86 1781.83,-148.09 1753.79,-87 1745.97,-69.98 1740.22,-49.33 1736.73,-34.79"/>
<polygon fill="midnightblue" stroke="midnightblue" points="1740.14,-34 1734.51,-25.03 1733.32,-35.55 1740.14,-34"/>
</g>
<!-- Node83&#45;&gt;Node6 -->
<g id="edge88" class="edge">
<title>Node83&#45;&gt;Node6</title>
<path fill="none" stroke="midnightblue" d="M2349.13,-756.03C2455.94,-751.28 2709.01,-737.71 2790.79,-713 2850.75,-694.88 2863.77,-682.35 2914.79,-646 3098.39,-515.2 3174.04,-484.23 3262.79,-277 3296.69,-197.84 3295.44,-172.95 3300.79,-87 3301.34,-78.13 3302.88,-75.64 3300.79,-67 3297.96,-55.33 3291.94,-43.35 3286.41,-33.98"/>
<polygon fill="midnightblue" stroke="midnightblue" points="3289.24,-31.91 3280.97,-25.29 3283.31,-35.62 3289.24,-31.91"/>
</g>
<!-- Node83&#45;&gt;Node7 -->
<g id="edge89" class="edge">
<title>Node83&#45;&gt;Node7</title>
<path fill="none" stroke="midnightblue" d="M2312.66,-749.41C2364.54,-711.58 2575.32,-554.88 2723.79,-400 2741.76,-381.25 2759.67,-357.24 2770.96,-341.28"/>
<polygon fill="midnightblue" stroke="midnightblue" points="2773.94,-343.11 2776.79,-332.91 2768.2,-339.11 2773.94,-343.11"/>
</g>
<!-- Node83&#45;&gt;Node8 -->
<g id="edge90" class="edge">
<title>Node83&#45;&gt;Node8</title>
<path fill="none" stroke="midnightblue" d="M2252.74,-755.78C2175.38,-751.53 2018.74,-740.13 1888.79,-713 1611.65,-655.14 1546.26,-621.36 1280.79,-523 1221.8,-501.14 1205.78,-497.55 1150.79,-467 1117.43,-448.47 1042.66,-388.38 1009.79,-369 978.63,-350.63 967.31,-352.41 936.79,-333 903.17,-311.62 884.31,-312.78 866.79,-277 847.63,-237.88 840.52,-214.48 865.79,-179 881.88,-156.4 910.13,-145.05 936.2,-139.38"/>
<polygon fill="midnightblue" stroke="midnightblue" points="936.9,-142.81 946.05,-137.48 935.57,-135.94 936.9,-142.81"/>
</g>
<!-- Node83&#45;&gt;Node30 -->
<g id="edge110" class="edge">
<title>Node83&#45;&gt;Node30</title>
<path fill="none" stroke="midnightblue" d="M2287.75,-749.39C2262.59,-731.63 2209.79,-688.26 2209.79,-637 2209.79,-637 2209.79,-637 2209.79,-512 2209.79,-419.4 2152.39,-319.17 2127.3,-279.78"/>
<polygon fill="midnightblue" stroke="midnightblue" points="2130.05,-277.59 2121.67,-271.11 2124.18,-281.41 2130.05,-277.59"/>
</g>
<!-- Node83&#45;&gt;Node58 -->
<g id="edge111" class="edge">
<title>Node83&#45;&gt;Node58</title>
<path fill="none" stroke="midnightblue" d="M2300.79,-749.2C2300.79,-722.39 2300.79,-641.09 2300.79,-599.93"/>
<polygon fill="midnightblue" stroke="midnightblue" points="2304.29,-599.69 2300.79,-589.69 2297.29,-599.69 2304.29,-599.69"/>
</g>
<!-- Node84 -->
<g id="node32" class="node">
<title>Node84</title>
<g id="a_node32"><a xlink:href="../../d4/d35/pointer__vector__set_8h.html" target="_top" xlink:title=" ">
<polygon fill="none" stroke="red" points="2466.29,-369.5 2466.29,-399.5 2571.29,-399.5 2571.29,-369.5 2466.29,-369.5"/>
<text text-anchor="start" x="2474.29" y="-387.5" font-family="Helvetica,sans-Serif" font-size="10.00">containers/pointer</text>
<text text-anchor="middle" x="2518.79" y="-376.5" font-family="Helvetica,sans-Serif" font-size="10.00">_vector_set.h</text>
</a>
</g>
</g>
<!-- Node83&#45;&gt;Node84 -->
<g id="edge91" class="edge">
<title>Node83&#45;&gt;Node84</title>
<path fill="none" stroke="midnightblue" d="M2305.96,-749.16C2333.48,-702.13 2463.03,-480.77 2505.37,-408.43"/>
<polygon fill="midnightblue" stroke="midnightblue" points="2508.49,-410.02 2510.52,-399.62 2502.45,-406.48 2508.49,-410.02"/>
</g>
<!-- Node83&#45;&gt;Node87 -->
<g id="edge99" class="edge">
<title>Node83&#45;&gt;Node87</title>
<path fill="none" stroke="midnightblue" d="M2349,-754.49C2468.63,-744.82 2774.64,-713.88 2846.79,-646 2870.42,-623.76 2865.79,-607.95 2865.79,-575.5 2865.79,-575.5 2865.79,-575.5 2865.79,-512 2865.79,-469.41 2898.76,-429.67 2922.63,-406.49"/>
<polygon fill="midnightblue" stroke="midnightblue" points="2925.11,-408.95 2930,-399.56 2920.32,-403.85 2925.11,-408.95"/>
</g>
<!-- Node89 -->
<g id="node34" class="node">
<title>Node89</title>
<g id="a_node34"><a xlink:href="../../de/d69/indexed__object_8h.html" target="_top" xlink:title=" ">
<polygon fill="none" stroke="black" points="624.29,-375 624.29,-394 767.29,-394 767.29,-375 624.29,-375"/>
<text text-anchor="middle" x="695.79" y="-382" font-family="Helvetica,sans-Serif" font-size="10.00">includes/indexed_object.h</text>
</a>
</g>
</g>
<!-- Node83&#45;&gt;Node89 -->
<g id="edge106" class="edge">
<title>Node83&#45;&gt;Node89</title>
<path fill="none" stroke="midnightblue" d="M2252.64,-756.71C2056.1,-750.95 1314.74,-724.37 1095.79,-646 930.6,-586.87 765.06,-447.38 712.73,-400.88"/>
<polygon fill="midnightblue" stroke="midnightblue" points="714.84,-398.08 705.06,-394.01 710.17,-403.29 714.84,-398.08"/>
</g>
<!-- Node83&#45;&gt;Node99 -->
<g id="edge112" class="edge">
<title>Node83&#45;&gt;Node99</title>
<path fill="none" stroke="midnightblue" d="M2252.77,-753.79C2135.64,-743.53 1834.65,-717.15 1694.99,-704.91"/>
<polygon fill="midnightblue" stroke="midnightblue" points="1695.08,-701.41 1684.81,-704.02 1694.47,-708.38 1695.08,-701.41"/>
</g>
<!-- Node84&#45;&gt;Node4 -->
<g id="edge93" class="edge">
<title>Node84&#45;&gt;Node4</title>
<path fill="none" stroke="midnightblue" d="M2532.93,-369.49C2548.5,-354.48 2574.68,-330.45 2599.79,-313 2650.9,-277.47 2666.41,-272.39 2722.79,-246 2762.18,-227.56 2787.16,-244.39 2813.79,-210 2854.16,-157.84 2846.98,-72.99 2841.25,-35.42"/>
<polygon fill="midnightblue" stroke="midnightblue" points="2844.67,-34.66 2839.57,-25.37 2837.76,-35.81 2844.67,-34.66"/>
</g>
<!-- Node84&#45;&gt;Node5 -->
<g id="edge94" class="edge">
<title>Node84&#45;&gt;Node5</title>
<path fill="none" stroke="midnightblue" d="M2512.74,-369.4C2505.64,-354.08 2492.65,-329.59 2475.79,-313 2433.89,-271.78 2416.47,-267.53 2361.79,-246 2293.16,-218.98 2270.87,-229.69 2199.79,-210 2109.04,-184.86 2079.67,-191.22 1998.79,-143 1956.39,-117.72 1960.87,-91.1 1917.79,-67 1871.78,-41.26 1811.9,-28.04 1772.92,-21.7"/>
<polygon fill="midnightblue" stroke="midnightblue" points="1773.41,-18.24 1763,-20.16 1772.34,-25.16 1773.41,-18.24"/>
</g>
<!-- Node84&#45;&gt;Node6 -->
<g id="edge95" class="edge">
<title>Node84&#45;&gt;Node6</title>
<path fill="none" stroke="midnightblue" d="M2552.25,-369.41C2648.03,-328.76 2930.9,-206.56 3156.79,-87 3191.05,-68.87 3229.34,-45.36 3252.75,-30.6"/>
<polygon fill="midnightblue" stroke="midnightblue" points="3254.67,-33.53 3261.25,-25.22 3250.93,-27.62 3254.67,-33.53"/>
</g>
<!-- Node84&#45;&gt;Node7 -->
<g id="edge96" class="edge">
<title>Node84&#45;&gt;Node7</title>
<path fill="none" stroke="midnightblue" d="M2571.58,-371.6C2623.37,-359.93 2700.98,-342.44 2746.28,-332.23"/>
<polygon fill="midnightblue" stroke="midnightblue" points="2747.27,-335.59 2756.26,-329.98 2745.73,-328.76 2747.27,-335.59"/>
</g>
<!-- Node84&#45;&gt;Node8 -->
<g id="edge97" class="edge">
<title>Node84&#45;&gt;Node8</title>
<path fill="none" stroke="midnightblue" d="M2491.31,-369.31C2434.36,-340.61 2298.6,-275.88 2176.79,-246 2019.33,-207.37 1975,-227.21 1813.79,-210 1693.24,-197.13 1663.44,-190.86 1542.79,-179 1365.84,-161.61 1156.24,-145.66 1055.59,-138.29"/>
<polygon fill="midnightblue" stroke="midnightblue" points="1055.84,-134.8 1045.61,-137.57 1055.33,-141.78 1055.84,-134.8"/>
</g>
<!-- Node84&#45;&gt;Node16 -->
<g id="edge92" class="edge">
<title>Node84&#45;&gt;Node16</title>
<path fill="none" stroke="midnightblue" d="M2526.85,-369.39C2540.07,-344.41 2563.76,-290.83 2551.79,-246 2528.39,-158.39 2462.66,-69.52 2433.74,-33.36"/>
<polygon fill="midnightblue" stroke="midnightblue" points="2436.25,-30.89 2427.23,-25.33 2430.81,-35.3 2436.25,-30.89"/>
</g>
<!-- Node84&#45;&gt;Node19 -->
<g id="edge98" class="edge">
<title>Node84&#45;&gt;Node19</title>
<path fill="none" stroke="midnightblue" d="M2466.2,-380C2312.15,-369.75 1862.02,-339.79 1691.4,-328.43"/>
<polygon fill="midnightblue" stroke="midnightblue" points="1691.51,-324.93 1681.3,-327.76 1691.04,-331.92 1691.51,-324.93"/>
</g>
<!-- Node87&#45;&gt;Node4 -->
<g id="edge101" class="edge">
<title>Node87&#45;&gt;Node4</title>
<path fill="none" stroke="midnightblue" d="M2950.32,-369.46C2961.32,-322.36 2990.63,-167.29 2927.79,-67 2914.71,-46.12 2889.71,-33.1 2869.38,-25.52"/>
<polygon fill="midnightblue" stroke="midnightblue" points="2870.44,-22.19 2859.84,-22.23 2868.15,-28.8 2870.44,-22.19"/>
</g>
<!-- Node87&#45;&gt;Node5 -->
<g id="edge102" class="edge">
<title>Node87&#45;&gt;Node5</title>
<path fill="none" stroke="midnightblue" d="M2930.26,-369.32C2912.08,-354.15 2881.6,-330 2852.79,-313 2790.25,-276.1 2774.02,-264.45 2703.79,-246 2533.72,-201.33 2478.85,-258.35 2309.79,-210 2268.41,-198.17 2176.45,-139.68 2136.79,-123 2091.31,-103.87 2077.47,-105.64 2031.79,-87 2012.64,-79.19 2009.42,-73.49 1989.79,-67 1915.27,-42.37 1824.4,-27.99 1773.11,-21.24"/>
<polygon fill="midnightblue" stroke="midnightblue" points="1773.46,-17.76 1763.09,-19.96 1772.56,-24.7 1773.46,-17.76"/>
</g>
<!-- Node87&#45;&gt;Node6 -->
<g id="edge103" class="edge">
<title>Node87&#45;&gt;Node6</title>
<path fill="none" stroke="midnightblue" d="M2972.53,-369.35C3036.46,-332.61 3202.15,-227.2 3269.79,-87 3277.6,-70.8 3278.11,-50.03 3277.11,-35.24"/>
<polygon fill="midnightblue" stroke="midnightblue" points="3280.59,-34.89 3276.15,-25.27 3273.63,-35.56 3280.59,-34.89"/>
</g>
<!-- Node87&#45;&gt;Node7 -->
<g id="edge104" class="edge">
<title>Node87&#45;&gt;Node7</title>
<path fill="none" stroke="midnightblue" d="M2907.92,-369.4C2880.04,-359.28 2842.85,-345.79 2816.27,-336.15"/>
<polygon fill="midnightblue" stroke="midnightblue" points="2817.25,-332.78 2806.65,-332.66 2814.86,-339.36 2817.25,-332.78"/>
</g>
<!-- Node87&#45;&gt;Node8 -->
<g id="edge105" class="edge">
<title>Node87&#45;&gt;Node8</title>
<path fill="none" stroke="midnightblue" d="M2923.85,-369.46C2893.17,-350.94 2840.16,-319.87 2818.79,-313 2578.67,-235.85 1942.94,-202.03 1691.79,-179 1456.87,-157.46 1176.42,-142.64 1055.79,-136.79"/>
<polygon fill="midnightblue" stroke="midnightblue" points="1055.81,-133.29 1045.65,-136.3 1055.47,-140.28 1055.81,-133.29"/>
</g>
<!-- Node87&#45;&gt;Node16 -->
<g id="edge100" class="edge">
<title>Node87&#45;&gt;Node16</title>
<path fill="none" stroke="midnightblue" d="M2937.12,-369.27C2926.53,-354.29 2908.56,-330.49 2889.79,-313 2851.72,-277.53 2841.96,-265.67 2793.79,-246 2704.09,-209.38 2660.59,-261.92 2578.79,-210 2546.16,-189.29 2505.8,-95.58 2479.79,-67 2467.84,-53.87 2452.5,-41.02 2440.33,-31.57"/>
<polygon fill="midnightblue" stroke="midnightblue" points="2442.19,-28.59 2432.11,-25.33 2437.96,-34.16 2442.19,-28.59"/>
</g>
<!-- Node89&#45;&gt;Node5 -->
<g id="edge107" class="edge">
<title>Node89&#45;&gt;Node5</title>
<path fill="none" stroke="midnightblue" d="M684.11,-374.94C646.75,-346.49 535.31,-252.77 581.79,-179 643.25,-81.45 704.09,-95.6 815.79,-67 985.1,-23.64 1536.96,-17.51 1691.96,-16.64"/>
<polygon fill="midnightblue" stroke="midnightblue" points="1692.45,-20.14 1702.43,-16.59 1692.41,-13.14 1692.45,-20.14"/>
</g>
<!-- Node89&#45;&gt;Node8 -->
<g id="edge108" class="edge">
<title>Node89&#45;&gt;Node8</title>
<path fill="none" stroke="midnightblue" d="M689.82,-374.81C669.36,-343.9 606.16,-237.95 657.79,-179 675.81,-158.42 843.98,-144.1 936.11,-137.73"/>
<polygon fill="midnightblue" stroke="midnightblue" points="936.4,-141.22 946.14,-137.05 935.92,-134.23 936.4,-141.22"/>
</g>
<!-- Node89&#45;&gt;Node19 -->
<g id="edge109" class="edge">
<title>Node89&#45;&gt;Node19</title>
<path fill="none" stroke="midnightblue" d="M767.32,-376.43C794.39,-373.89 825.5,-371.12 853.79,-369 1114.08,-349.47 1424.36,-333.62 1558.07,-327.15"/>
<polygon fill="midnightblue" stroke="midnightblue" points="1558.34,-330.64 1568.16,-326.66 1558,-323.65 1558.34,-330.64"/>
</g>
<!-- Node99&#45;&gt;Node8 -->
<g id="edge113" class="edge">
<title>Node99&#45;&gt;Node8</title>
<path fill="none" stroke="midnightblue" d="M1558.56,-683.33C1513.77,-673.72 1452.37,-659.98 1398.79,-646 1026.73,-548.94 595.79,-708.51 595.79,-324 595.79,-324 595.79,-324 595.79,-260.5 595.79,-219.95 603.66,-202.38 636.79,-179 683.68,-145.9 846.59,-137.12 935.97,-134.81"/>
<polygon fill="midnightblue" stroke="midnightblue" points="936.31,-138.31 946.23,-134.57 936.15,-131.31 936.31,-138.31"/>
</g>
<!-- Node99&#45;&gt;Node30 -->
<g id="edge114" class="edge">
<title>Node99&#45;&gt;Node30</title>
<path fill="none" stroke="midnightblue" d="M1637.94,-682.31C1712.24,-617.04 2020.73,-346.01 2098.12,-278.02"/>
<polygon fill="midnightblue" stroke="midnightblue" points="2100.81,-280.32 2106.01,-271.09 2096.19,-275.06 2100.81,-280.32"/>
</g>
<!-- Node99&#45;&gt;Node57 -->
<g id="edge116" class="edge">
<title>Node99&#45;&gt;Node57</title>
<path fill="none" stroke="midnightblue" d="M1684.84,-693.24C1881.4,-683.07 2482.56,-651.96 2695.8,-640.93"/>
<polygon fill="midnightblue" stroke="midnightblue" points="2696.15,-644.42 2705.96,-640.41 2695.79,-637.43 2696.15,-644.42"/>
</g>
<!-- Node99&#45;&gt;Node59 -->
<g id="edge115" class="edge">
<title>Node99&#45;&gt;Node59</title>
<path fill="none" stroke="midnightblue" d="M1627.07,-682.33C1642.7,-640.43 1688.66,-517.19 1706.03,-470.61"/>
<polygon fill="midnightblue" stroke="midnightblue" points="1709.33,-471.79 1709.54,-461.2 1702.77,-469.34 1709.33,-471.79"/>
</g>
<!-- Node99&#45;&gt;Node89 -->
<g id="edge117" class="edge">
<title>Node99&#45;&gt;Node89</title>
<path fill="none" stroke="midnightblue" d="M1576.13,-682.46C1513.42,-662.93 1397.31,-625.91 1299.79,-590 1203.44,-554.53 1184.81,-530.14 1085.79,-503 981.76,-474.49 946.69,-505.11 845.79,-467 822.03,-458.03 819.87,-448.54 797.79,-436 773.31,-422.1 744.5,-408.03 723.75,-398.29"/>
<polygon fill="midnightblue" stroke="midnightblue" points="725.09,-395.05 714.54,-394 722.13,-401.4 725.09,-395.05"/>
</g>
<!-- Node110&#45;&gt;Node8 -->
<g id="edge119" class="edge">
<title>Node110&#45;&gt;Node8</title>
<path fill="none" stroke="midnightblue" d="M914.56,-436.4C895.85,-427.41 872.38,-414.7 853.79,-400 768.78,-332.79 681.43,-262.26 750.79,-179 773.91,-151.24 871.19,-140.55 935.99,-136.47"/>
<polygon fill="midnightblue" stroke="midnightblue" points="936.33,-139.96 946.1,-135.87 935.91,-132.97 936.33,-139.96"/>
</g>
<!-- Node110&#45;&gt;Node111 -->
<g id="edge120" class="edge">
<title>Node110&#45;&gt;Node111</title>
<path fill="none" stroke="midnightblue" d="M939.84,-436.4C935.86,-428.3 930.76,-417.94 926.2,-408.69"/>
<polygon fill="midnightblue" stroke="midnightblue" points="929.27,-407 921.72,-399.58 922.99,-410.09 929.27,-407"/>
</g>
<!-- Node111&#45;&gt;Node8 -->
<g id="edge122" class="edge">
<title>Node111&#45;&gt;Node8</title>
<path fill="none" stroke="midnightblue" d="M880.84,-369.4C846.19,-352.95 794.4,-322.11 771.79,-277 752.27,-238.06 744.19,-212.7 771.79,-179 792.22,-154.05 877.06,-142.64 936.25,-137.64"/>
<polygon fill="midnightblue" stroke="midnightblue" points="936.56,-141.12 946.24,-136.83 936,-134.15 936.56,-141.12"/>
</g>
<!-- Node111&#45;&gt;Node19 -->
<g id="edge123" class="edge">
<title>Node111&#45;&gt;Node19</title>
<path fill="none" stroke="midnightblue" d="M967.57,-379.08C1094.71,-368.42 1417.74,-341.35 1558.04,-329.59"/>
<polygon fill="midnightblue" stroke="midnightblue" points="1558.55,-333.06 1568.23,-328.74 1557.97,-326.09 1558.55,-333.06"/>
</g>
<!-- Node111&#45;&gt;Node24 -->
<g id="edge121" class="edge">
<title>Node111&#45;&gt;Node24</title>
<path fill="none" stroke="midnightblue" d="M926.41,-369.14C944.75,-346.51 980.27,-302.65 999.55,-278.84"/>
<polygon fill="midnightblue" stroke="midnightblue" points="1002.29,-281.03 1005.86,-271.05 996.85,-276.62 1002.29,-281.03"/>
</g>
<!-- Node113&#45;&gt;Node57 -->
<g id="edge125" class="edge">
<title>Node113&#45;&gt;Node57</title>
<path fill="none" stroke="midnightblue" d="M2609.09,-749.49C2638.64,-729.06 2713.88,-677.04 2750.76,-651.54"/>
<polygon fill="midnightblue" stroke="midnightblue" points="2753.03,-654.23 2759.26,-645.66 2749.05,-648.47 2753.03,-654.23"/>
</g>
<!-- Node131&#45;&gt;Node57 -->
<g id="edge127" class="edge">
<title>Node131&#45;&gt;Node57</title>
<path fill="none" stroke="midnightblue" d="M2755.16,-749.49C2772.54,-742.65 2793.38,-731.13 2803.79,-713 2814.97,-693.51 2800.42,-669.36 2787.48,-653.58"/>
<polygon fill="midnightblue" stroke="midnightblue" points="2789.85,-650.98 2780.63,-645.76 2784.58,-655.59 2789.85,-650.98"/>
</g>
<!-- Node132&#45;&gt;Node4 -->
<g id="edge129" class="edge">
<title>Node132&#45;&gt;Node4</title>
<path fill="none" stroke="midnightblue" d="M2662.05,-805.47C2835.32,-778.82 3293.79,-680.42 3293.79,-385.5 3293.79,-385.5 3293.79,-385.5 3293.79,-322 3293.79,-166.37 3188.64,-144.69 3053.79,-67 2994.75,-32.99 2914.16,-21.87 2869.99,-18.24"/>
<polygon fill="midnightblue" stroke="midnightblue" points="2870.08,-14.74 2859.84,-17.49 2869.56,-21.72 2870.08,-14.74"/>
</g>
<!-- Node132&#45;&gt;Node5 -->
<g id="edge130" class="edge">
<title>Node132&#45;&gt;Node5</title>
<path fill="none" stroke="midnightblue" d="M2581.33,-805.38C2534.89,-778.2 2399.79,-689.35 2399.79,-575.5 2399.79,-575.5 2399.79,-575.5 2399.79,-450.5 2399.79,-330.59 2328.24,-304.9 2223.79,-246 2139.77,-198.63 2098.25,-248.42 2009.79,-210 1961.8,-189.16 1866.49,-95.76 1822.79,-67 1801.89,-53.24 1777.01,-39.47 1758.71,-29.79"/>
<polygon fill="midnightblue" stroke="midnightblue" points="1760.28,-26.66 1749.79,-25.12 1757.03,-32.86 1760.28,-26.66"/>
</g>
<!-- Node132&#45;&gt;Node6 -->
<g id="edge131" class="edge">
<title>Node132&#45;&gt;Node6</title>
<path fill="none" stroke="midnightblue" d="M2666.3,-806.64C2725.47,-799.57 2812.44,-787.24 2886.79,-769 3085.09,-720.35 3163.17,-693.98 3274.79,-523 3381.16,-360.06 3312.3,-281.58 3314.79,-87 3314.9,-78.11 3317.71,-75.39 3314.79,-67 3310.18,-53.77 3300.5,-41.39 3291.82,-32.2"/>
<polygon fill="midnightblue" stroke="midnightblue" points="3294.15,-29.58 3284.6,-25 3289.21,-34.54 3294.15,-29.58"/>
</g>
<!-- Node132&#45;&gt;Node7 -->
<g id="edge132" class="edge">
<title>Node132&#45;&gt;Node7</title>
<path fill="none" stroke="midnightblue" d="M2656.89,-805.43C2706.2,-797.47 2771.26,-784.51 2792.79,-769 2844.73,-731.57 2850.48,-707.64 2867.79,-646 2900.33,-530.13 2823.75,-389.8 2793.99,-341.39"/>
<polygon fill="midnightblue" stroke="midnightblue" points="2796.84,-339.35 2788.56,-332.74 2790.91,-343.07 2796.84,-339.35"/>
</g>
<!-- Node132&#45;&gt;Node8 -->
<g id="edge133" class="edge">
<title>Node132&#45;&gt;Node8</title>
<path fill="none" stroke="midnightblue" d="M2527.1,-810.93C2323.69,-801.4 1733.61,-769.51 1549.79,-713 1331.92,-646.03 1291.67,-590.02 1099.79,-467 1057.81,-440.09 1048.02,-432.01 1009.79,-400 994.36,-387.08 993.55,-380.13 976.79,-369 943.97,-347.21 927.26,-356.7 895.79,-333 869.83,-313.46 860.36,-307.36 848.79,-277 833.28,-236.29 820.81,-213.98 846.79,-179 867.21,-151.5 903.95,-140.2 935.83,-135.8"/>
<polygon fill="midnightblue" stroke="midnightblue" points="936.47,-139.25 945.99,-134.6 935.65,-132.3 936.47,-139.25"/>
</g>
<!-- Node132&#45;&gt;Node83 -->
<g id="edge136" class="edge">
<title>Node132&#45;&gt;Node83</title>
<path fill="none" stroke="midnightblue" d="M2549.89,-805.44C2497.71,-795.92 2413.42,-780.55 2357.56,-770.36"/>
<polygon fill="midnightblue" stroke="midnightblue" points="2357.94,-766.87 2347.47,-768.52 2356.68,-773.75 2357.94,-766.87"/>
</g>
<!-- Node132&#45;&gt;Node113 -->
<g id="edge135" class="edge">
<title>Node132&#45;&gt;Node113</title>
<path fill="none" stroke="midnightblue" d="M2596.79,-805.08C2596.79,-798.01 2596.79,-787.86 2596.79,-778.99"/>
<polygon fill="midnightblue" stroke="midnightblue" points="2600.29,-778.75 2596.79,-768.75 2593.29,-778.75 2600.29,-778.75"/>
</g>
<!-- Node132&#45;&gt;Node131 -->
<g id="edge134" class="edge">
<title>Node132&#45;&gt;Node131</title>
<path fill="none" stroke="midnightblue" d="M2617.39,-805.44C2638.78,-796.56 2672.47,-782.56 2696.81,-772.45"/>
<polygon fill="midnightblue" stroke="midnightblue" points="2698.39,-775.58 2706.29,-768.52 2695.71,-769.12 2698.39,-775.58"/>
</g>
<!-- Node116&#45;&gt;Node4 -->
<g id="edge138" class="edge">
<title>Node116&#45;&gt;Node4</title>
<path fill="none" stroke="midnightblue" d="M1436.01,-511C1633.89,-506.29 2396.37,-483.02 2619.79,-400 2641.81,-391.82 2773.86,-292.19 2791.79,-277 2823.91,-249.77 2836.97,-246.02 2858.79,-210 2891.89,-155.34 2896.48,-126.74 2873.79,-67 2869.05,-54.52 2860.45,-42.27 2852.84,-32.97"/>
<polygon fill="midnightblue" stroke="midnightblue" points="2855.45,-30.63 2846.28,-25.33 2850.14,-35.2 2855.45,-30.63"/>
</g>
<!-- Node116&#45;&gt;Node5 -->
<g id="edge139" class="edge">
<title>Node116&#45;&gt;Node5</title>
<path fill="none" stroke="midnightblue" d="M1341.63,-511.59C1245.46,-509.99 1020.08,-502.44 834.79,-467 734.81,-447.88 711.05,-435.87 615.79,-400 608,-397.07 349.65,-281.7 342.79,-277 299.05,-247.04 243.89,-222.08 274.79,-179 365.31,-52.81 453.15,-95.65 605.79,-67 820.6,-26.68 1517.48,-18.28 1692.58,-16.79"/>
<polygon fill="midnightblue" stroke="midnightblue" points="1692.68,-20.29 1702.65,-16.71 1692.62,-13.29 1692.68,-20.29"/>
</g>
<!-- Node116&#45;&gt;Node8 -->
<g id="edge141" class="edge">
<title>Node116&#45;&gt;Node8</title>
<path fill="none" stroke="midnightblue" d="M1341.47,-509.69C1222.98,-503.64 920.04,-486.45 878.79,-467 841.81,-449.57 776.47,-366.32 752.79,-333 712.61,-276.48 680.68,-229.88 727.79,-179 755.21,-149.38 865.67,-139.25 935.94,-135.79"/>
<polygon fill="midnightblue" stroke="midnightblue" points="936.17,-139.29 946,-135.33 935.85,-132.29 936.17,-139.29"/>
</g>
<!-- Node116&#45;&gt;Node26 -->
<g id="edge140" class="edge">
<title>Node116&#45;&gt;Node26</title>
<path fill="none" stroke="midnightblue" d="M1417.88,-503.45C1502.38,-478.59 1742.82,-407.6 1758.79,-400 1846.95,-358.05 1867.35,-341.33 1940.79,-277 1987.44,-236.13 2033.62,-178.77 2055.19,-150.74"/>
<polygon fill="midnightblue" stroke="midnightblue" points="2058.01,-152.81 2061.29,-142.73 2052.45,-148.57 2058.01,-152.81"/>
</g>
<!-- Node116&#45;&gt;Node59 -->
<g id="edge142" class="edge">
<title>Node116&#45;&gt;Node59</title>
<path fill="none" stroke="midnightblue" d="M1435.83,-503.76C1486.11,-494.89 1568.14,-480.28 1638.79,-467 1645.53,-465.73 1652.61,-464.38 1659.62,-463.02"/>
<polygon fill="midnightblue" stroke="midnightblue" points="1660.62,-466.39 1669.77,-461.05 1659.28,-459.52 1660.62,-466.39"/>
</g>
<!-- Node109&#45;&gt;Node8 -->
<g id="edge147" class="edge">
<title>Node109&#45;&gt;Node8</title>
<path fill="none" stroke="midnightblue" d="M1941.76,-565C1781.11,-537.94 1287.27,-452.55 1133.79,-400 1104.69,-390.04 902,-303.14 885.79,-277 862.83,-239.99 861.51,-215.16 885.79,-179 897.4,-161.71 916.95,-151.06 936.39,-144.5"/>
<polygon fill="midnightblue" stroke="midnightblue" points="937.64,-147.77 946.19,-141.51 935.6,-141.08 937.64,-147.77"/>
</g>
<!-- Node109&#45;&gt;Node30 -->
<g id="edge148" class="edge">
<title>Node109&#45;&gt;Node30</title>
<path fill="none" stroke="midnightblue" d="M2045.59,-564.94C2070.34,-558.01 2097.65,-545.51 2112.79,-523 2164.32,-446.37 2135.56,-326.28 2121.81,-280.79"/>
<polygon fill="midnightblue" stroke="midnightblue" points="2125.1,-279.61 2118.76,-271.13 2118.43,-281.71 2125.1,-279.61"/>
</g>
<!-- Node109&#45;&gt;Node76 -->
<g id="edge149" class="edge">
<title>Node109&#45;&gt;Node76</title>
<path fill="none" stroke="midnightblue" d="M1996.8,-564.98C2000.87,-556.32 2007.31,-542.65 2012.48,-531.65"/>
<polygon fill="midnightblue" stroke="midnightblue" points="2015.69,-533.05 2016.78,-522.51 2009.36,-530.07 2015.69,-533.05"/>
</g>
<!-- Node133&#45;&gt;Node8 -->
<g id="edge155" class="edge">
<title>Node133&#45;&gt;Node8</title>
<path fill="none" stroke="midnightblue" d="M410.45,-984.48C420.59,-965.12 443.79,-916.04 443.79,-872 443.79,-872 443.79,-872 443.79,-512 443.79,-426.75 481.79,-409.25 481.79,-324 481.79,-324 481.79,-324 481.79,-260.5 481.79,-208.16 519.31,-201.03 566.79,-179 599.49,-163.83 825.67,-146.02 935.8,-138.13"/>
<polygon fill="midnightblue" stroke="midnightblue" points="936.36,-141.6 946.08,-137.4 935.86,-134.61 936.36,-141.6"/>
</g>
<!-- Node133&#45;&gt;Node35 -->
<g id="edge157" class="edge">
<title>Node133&#45;&gt;Node35</title>
<path fill="none" stroke="midnightblue" d="M419.62,-984.26C431.35,-976.18 447.82,-963.16 457.79,-948 477.25,-918.4 481.79,-907.42 481.79,-872 481.79,-872 481.79,-872 481.79,-758 481.79,-575.14 487.36,-499.17 615.79,-369 729.23,-254.01 800.24,-281.65 957.79,-246 1103.94,-212.93 1278.82,-201.51 1379.44,-197.57"/>
<polygon fill="midnightblue" stroke="midnightblue" points="1379.68,-201.06 1389.54,-197.19 1379.41,-194.07 1379.68,-201.06"/>
</g>
<!-- Node133&#45;&gt;Node57 -->
<g id="edge156" class="edge">
<title>Node133&#45;&gt;Node57</title>
<path fill="none" stroke="midnightblue" d="M466.87,-991.93C869.98,-984.7 3131.79,-941.04 3131.79,-872 3131.79,-872 3131.79,-872 3131.79,-814 3131.79,-688.34 2952.96,-651.89 2847.38,-641.31"/>
<polygon fill="midnightblue" stroke="midnightblue" points="2847.68,-637.83 2837.4,-640.37 2847.02,-644.8 2847.68,-637.83"/>
</g>
<!-- Node134 -->
<g id="node44" class="node">
<title>Node134</title>
<g id="a_node44"><a xlink:title=" ">
<polygon fill="none" stroke="#bfbfbf" points="171.79,-923 171.79,-942 227.79,-942 227.79,-923 171.79,-923"/>
<text text-anchor="middle" x="199.79" y="-930" font-family="Helvetica,sans-Serif" font-size="10.00">numeric</text>
</a>
</g>
</g>
<!-- Node133&#45;&gt;Node134 -->
<g id="edge154" class="edge">
<title>Node133&#45;&gt;Node134</title>
<path fill="none" stroke="midnightblue" d="M368.84,-984.44C334.37,-976.15 281.65,-962.71 236.79,-948 234.52,-947.26 232.19,-946.45 229.85,-945.61"/>
<polygon fill="midnightblue" stroke="midnightblue" points="230.97,-942.29 220.38,-942.05 228.51,-948.84 230.97,-942.29"/>
</g>
<!-- Node135 -->
<g id="node45" class="node">
<title>Node135</title>
<g id="a_node45"><a xlink:href="../../df/d22/matrix__market__interface_8h.html" target="_top" xlink:title=" ">
<polygon fill="none" stroke="red" points="245.79,-917.5 245.79,-947.5 377.79,-947.5 377.79,-917.5 245.79,-917.5"/>
<text text-anchor="start" x="253.79" y="-935.5" font-family="Helvetica,sans-Serif" font-size="10.00">includes/matrix_market</text>
<text text-anchor="middle" x="311.79" y="-924.5" font-family="Helvetica,sans-Serif" font-size="10.00">_interface.h</text>
</a>
</g>
</g>
<!-- Node133&#45;&gt;Node135 -->
<g id="edge158" class="edge">
<title>Node133&#45;&gt;Node135</title>
<path fill="none" stroke="midnightblue" d="M392.32,-984.48C379.35,-976.27 359.27,-963.56 342.41,-952.88"/>
<polygon fill="midnightblue" stroke="midnightblue" points="344.26,-949.91 333.94,-947.52 340.52,-955.83 344.26,-949.91"/>
</g>
<!-- Node138 -->
<g id="node46" class="node">
<title>Node138</title>
<g id="a_node46"><a xlink:href="../../de/d6c/dof__updater_8h.html" target="_top" xlink:title=" ">
<polygon fill="none" stroke="black" points="30.29,-923 30.29,-942 153.29,-942 153.29,-923 30.29,-923"/>
<text text-anchor="middle" x="91.79" y="-930" font-family="Helvetica,sans-Serif" font-size="10.00">utilities/dof_updater.h</text>
</a>
</g>
</g>
<!-- Node133&#45;&gt;Node138 -->
<g id="edge159" class="edge">
<title>Node133&#45;&gt;Node138</title>
<path fill="none" stroke="midnightblue" d="M358.24,-984.46C309.22,-975.6 230.59,-961.2 162.79,-948 156.47,-946.77 149.83,-945.45 143.27,-944.13"/>
<polygon fill="midnightblue" stroke="midnightblue" points="143.56,-940.62 133.06,-942.06 142.17,-947.48 143.56,-940.62"/>
</g>
<!-- Node63 -->
<g id="node47" class="node">
<title>Node63</title>
<g id="a_node47"><a xlink:href="../../de/d07/parallel__utilities_8h.html" target="_top" xlink:title=" ">
<polygon fill="none" stroke="red" points="284.29,-179.5 284.29,-209.5 377.29,-209.5 377.29,-179.5 284.29,-179.5"/>
<text text-anchor="start" x="292.29" y="-197.5" font-family="Helvetica,sans-Serif" font-size="10.00">utilities/parallel</text>
<text text-anchor="middle" x="330.79" y="-186.5" font-family="Helvetica,sans-Serif" font-size="10.00">_utilities.h</text>
</a>
</g>
</g>
<!-- Node133&#45;&gt;Node63 -->
<g id="edge166" class="edge">
<title>Node133&#45;&gt;Node63</title>
<path fill="none" stroke="midnightblue" d="M344.57,-989.63C242.09,-983.44 44.61,-968.94 20.79,-948 -5.36,-925.01 1.79,-906.82 1.79,-872 1.79,-872 1.79,-872 1.79,-322 1.79,-264.36 179.95,-223.05 274.06,-205.25"/>
<polygon fill="midnightblue" stroke="midnightblue" points="274.81,-208.67 284,-203.4 273.53,-201.79 274.81,-208.67"/>
</g>
<!-- Node139 -->
<g id="node48" class="node">
<title>Node139</title>
<g id="a_node48"><a xlink:href="../../d6/d05/reduction__utilities_8h.html" target="_top" xlink:title=" ">
<polygon fill="none" stroke="red" points="351.79,-246.5 351.79,-276.5 453.79,-276.5 453.79,-246.5 351.79,-246.5"/>
<text text-anchor="start" x="359.79" y="-264.5" font-family="Helvetica,sans-Serif" font-size="10.00">utilities/reduction</text>
<text text-anchor="middle" x="402.79" y="-253.5" font-family="Helvetica,sans-Serif" font-size="10.00">_utilities.h</text>
</a>
</g>
</g>
<!-- Node133&#45;&gt;Node139 -->
<g id="edge167" class="edge">
<title>Node133&#45;&gt;Node139</title>
<path fill="none" stroke="midnightblue" d="M404.73,-984.43C398.59,-933.88 367.79,-669.33 367.79,-452.5 367.79,-452.5 367.79,-452.5 367.79,-383.5 367.79,-348.48 381.48,-309.93 391.74,-285.97"/>
<polygon fill="midnightblue" stroke="midnightblue" points="395.02,-287.2 395.87,-276.64 388.62,-284.37 395.02,-287.2"/>
</g>
<!-- Node138&#45;&gt;Node3 -->
<g id="edge161" class="edge">
<title>Node138&#45;&gt;Node3</title>
<path fill="none" stroke="midnightblue" d="M127.35,-922.96C138.61,-920.6 151.16,-918.32 162.79,-917 504.29,-878.15 1590.54,-872.84 1882.15,-872.11"/>
<polygon fill="midnightblue" stroke="midnightblue" points="1882.19,-875.61 1892.18,-872.09 1882.17,-868.61 1882.19,-875.61"/>
</g>
<!-- Node138&#45;&gt;Node8 -->
<g id="edge160" class="edge">
<title>Node138&#45;&gt;Node8</title>
<path fill="none" stroke="midnightblue" d="M123.08,-922.99C186.4,-904.82 323.79,-860.32 323.79,-816 323.79,-816 323.79,-816 323.79,-322 323.79,-287.18 323.63,-275.08 342.79,-246 346.17,-240.87 425.05,-181.19 430.79,-179 454.1,-170.09 795.45,-147.03 936,-137.85"/>
<polygon fill="midnightblue" stroke="midnightblue" points="936.42,-141.33 946.17,-137.19 935.96,-134.35 936.42,-141.33"/>
</g>
<!-- Node138&#45;&gt;Node63 -->
<g id="edge162" class="edge">
<title>Node138&#45;&gt;Node63</title>
<path fill="none" stroke="midnightblue" d="M125.25,-922.93C171.09,-908.94 247.79,-876.49 247.79,-816 247.79,-816 247.79,-816 247.79,-322 247.79,-279.34 281.2,-239.89 305.62,-216.75"/>
<polygon fill="midnightblue" stroke="midnightblue" points="308.17,-219.16 313.19,-209.83 303.45,-214 308.17,-219.16"/>
</g>
<!-- Node63&#45;&gt;Node5 -->
<g id="edge163" class="edge">
<title>Node63&#45;&gt;Node5</title>
<path fill="none" stroke="midnightblue" d="M361.15,-179.39C421.96,-151.9 563.66,-91.73 689.79,-67 887.03,-28.33 1525.12,-18.76 1692.35,-16.89"/>
<polygon fill="midnightblue" stroke="midnightblue" points="1692.49,-20.39 1702.46,-16.78 1692.42,-13.39 1692.49,-20.39"/>
</g>
<!-- Node63&#45;&gt;Node8 -->
<g id="edge165" class="edge">
<title>Node63&#45;&gt;Node8</title>
<path fill="none" stroke="midnightblue" d="M377.6,-181.58C382.37,-180.6 387.16,-179.72 391.79,-179 589.59,-148.32 827.19,-138.39 936.03,-135.31"/>
<polygon fill="midnightblue" stroke="midnightblue" points="936.26,-138.8 946.16,-135.03 936.07,-131.81 936.26,-138.8"/>
</g>
<!-- Node63&#45;&gt;Node16 -->
<g id="edge164" class="edge">
<title>Node63&#45;&gt;Node16</title>
<path fill="none" stroke="midnightblue" d="M377.62,-181.71C382.39,-180.71 387.17,-179.78 391.79,-179 632.3,-138.26 694.75,-143.99 937.79,-123 1519.72,-72.75 1666.43,-76.12 2248.79,-31 2296.57,-27.3 2351.82,-22.52 2386.29,-19.49"/>
<polygon fill="midnightblue" stroke="midnightblue" points="2386.63,-22.97 2396.29,-18.6 2386.02,-16 2386.63,-22.97"/>
</g>
<!-- Node139&#45;&gt;Node8 -->
<g id="edge168" class="edge">
<title>Node139&#45;&gt;Node8</title>
<path fill="none" stroke="midnightblue" d="M409.47,-246.32C419.28,-227.29 439.54,-194.11 467.79,-179 508.26,-157.34 806.59,-142.1 936.08,-136.44"/>
<polygon fill="midnightblue" stroke="midnightblue" points="936.38,-139.93 946.22,-136 936.08,-132.93 936.38,-139.93"/>
</g>
<!-- Node139&#45;&gt;Node63 -->
<g id="edge169" class="edge">
<title>Node139&#45;&gt;Node63</title>
<path fill="none" stroke="midnightblue" d="M387.16,-246.4C377.45,-237.62 364.77,-226.18 353.91,-216.37"/>
<polygon fill="midnightblue" stroke="midnightblue" points="356.15,-213.68 346.38,-209.58 351.46,-218.88 356.15,-213.68"/>
</g>
<!-- Node141&#45;&gt;Node3 -->
<g id="edge176" class="edge">
<title>Node141&#45;&gt;Node3</title>
<path fill="none" stroke="midnightblue" d="M3203.58,-919.71C3196.92,-918.65 3190.22,-917.71 3183.79,-917 2957.67,-891.98 2256.4,-877.43 2027.71,-873.26"/>
<polygon fill="midnightblue" stroke="midnightblue" points="2027.57,-869.76 2017.51,-873.07 2027.44,-876.76 2027.57,-869.76"/>
</g>
<!-- Node142 -->
<g id="node50" class="node">
<title>Node142</title>
<g id="a_node50"><a xlink:href="../../d5/d67/reorderer_8h.html" target="_top" xlink:title=" ">
<polygon fill="none" stroke="black" points="2587.79,-185 2587.79,-204 2657.79,-204 2657.79,-185 2587.79,-185"/>
<text text-anchor="middle" x="2622.79" y="-192" font-family="Helvetica,sans-Serif" font-size="10.00">reorderer.h</text>
</a>
</g>
</g>
<!-- Node141&#45;&gt;Node142 -->
<g id="edge171" class="edge">
<title>Node141&#45;&gt;Node142</title>
<path fill="none" stroke="midnightblue" d="M3320.01,-920.41C3373.91,-906.38 3445.79,-876.35 3445.79,-816 3445.79,-816 3445.79,-816 3445.79,-758 3445.79,-404.05 3169.64,-363.57 2835.79,-246 2779.37,-226.13 2711.82,-211.61 2668.14,-203.36"/>
<polygon fill="midnightblue" stroke="midnightblue" points="2668.59,-199.89 2658.12,-201.5 2667.31,-206.77 2668.59,-199.89"/>
</g>
<!-- Node142&#45;&gt;Node4 -->
<g id="edge172" class="edge">
<title>Node142&#45;&gt;Node4</title>
<path fill="none" stroke="midnightblue" d="M2623.6,-184.69C2626.17,-161.81 2636.23,-100.01 2671.79,-67 2708.86,-32.58 2768.72,-21.59 2805.52,-18.1"/>
<polygon fill="midnightblue" stroke="midnightblue" points="2806.02,-21.57 2815.71,-17.27 2805.45,-14.59 2806.02,-21.57"/>
</g>
<!-- Node142&#45;&gt;Node5 -->
<g id="edge173" class="edge">
<title>Node142&#45;&gt;Node5</title>
<path fill="none" stroke="midnightblue" d="M2587.59,-185.75C2509.21,-168.46 2314.4,-125.21 2151.79,-87 2115.27,-78.42 2106.6,-74.23 2069.79,-67 1963.38,-46.1 1836.59,-29.24 1773.15,-21.35"/>
<polygon fill="midnightblue" stroke="midnightblue" points="1773.51,-17.87 1763.15,-20.11 1772.65,-24.81 1773.51,-17.87"/>
</g>
<!-- Node142&#45;&gt;Node8 -->
<g id="edge175" class="edge">
<title>Node142&#45;&gt;Node8</title>
<path fill="none" stroke="midnightblue" d="M2587.69,-189.66C2555.71,-186.31 2507.13,-181.59 2464.79,-179 1918.1,-145.57 1255.36,-136.56 1055.57,-134.53"/>
<polygon fill="midnightblue" stroke="midnightblue" points="1055.33,-131.02 1045.3,-134.42 1055.26,-138.02 1055.33,-131.02"/>
</g>
<!-- Node142&#45;&gt;Node16 -->
<g id="edge174" class="edge">
<title>Node142&#45;&gt;Node16</title>
<path fill="none" stroke="midnightblue" d="M2622.9,-184.74C2622.7,-162 2618.94,-100.51 2585.79,-67 2550.6,-31.43 2491.19,-20.76 2453.8,-17.65"/>
<polygon fill="midnightblue" stroke="midnightblue" points="2453.64,-14.13 2443.42,-16.93 2453.16,-21.11 2453.64,-14.13"/>
</g>
</g>
</svg>
