<?xml version="1.0" encoding="UTF-8" standalone="no"?>
<!DOCTYPE svg PUBLIC "-//W3C//DTD SVG 1.1//EN"
 "http://www.w3.org/Graphics/SVG/1.1/DTD/svg11.dtd">
<!-- Generated by graphviz version 2.43.0 (0)
 -->
<!-- Title: /home/runner/work/Documentation/Documentation/master/applications/OptimizationApplication/custom_utilities/optimization_utils.h Pages: 1 -->
<svg width="3034pt" height="1034pt"
 viewBox="0.00 0.00 3034.00 1034.00" xmlns="http://www.w3.org/2000/svg" xmlns:xlink="http://www.w3.org/1999/xlink">
<g id="graph0" class="graph" transform="scale(1 1) rotate(0) translate(4 1030)">
<title>/home/runner/work/Documentation/Documentation/master/applications/OptimizationApplication/custom_utilities/optimization_utils.h</title>
<!-- Node1 -->
<g id="node1" class="node">
<title>Node1</title>
<g id="a_node1"><a xlink:title=" ">
<polygon fill="#bfbfbf" stroke="black" points="1155,-973.5 1155,-1025.5 1349,-1025.5 1349,-973.5 1155,-973.5"/>
<text text-anchor="start" x="1163" y="-1013.5" font-family="Helvetica,sans-Serif" font-size="10.00">/home/runner/work/Documentation</text>
<text text-anchor="start" x="1163" y="-1002.5" font-family="Helvetica,sans-Serif" font-size="10.00">/Documentation/master/applications</text>
<text text-anchor="start" x="1163" y="-991.5" font-family="Helvetica,sans-Serif" font-size="10.00">/OptimizationApplication/custom</text>
<text text-anchor="middle" x="1252" y="-980.5" font-family="Helvetica,sans-Serif" font-size="10.00">_utilities/optimization_utils.h</text>
</a>
</g>
</g>
<!-- Node2 -->
<g id="node2" class="node">
<title>Node2</title>
<g id="a_node2"><a xlink:title=" ">
<polygon fill="none" stroke="#bfbfbf" points="852,-6 852,-25 896,-25 896,-6 852,-6"/>
<text text-anchor="middle" x="874" y="-13" font-family="Helvetica,sans-Serif" font-size="10.00">string</text>
</a>
</g>
</g>
<!-- Node1&#45;&gt;Node2 -->
<g id="edge1" class="edge">
<title>Node1&#45;&gt;Node2</title>
<path fill="none" stroke="midnightblue" d="M1154.64,-996.22C894.78,-989.72 197.86,-969.45 99,-937 48.99,-920.59 0,-924.64 0,-872 0,-872 0,-872 0,-143 0,-103.52 12.21,-87.43 46,-67 114.99,-25.29 696.76,-17.91 841.5,-16.72"/>
<polygon fill="midnightblue" stroke="midnightblue" points="841.93,-20.21 851.9,-16.63 841.87,-13.21 841.93,-20.21"/>
</g>
<!-- Node3 -->
<g id="node3" class="node">
<title>Node3</title>
<g id="a_node3"><a xlink:title=" ">
<polygon fill="none" stroke="#bfbfbf" points="1757.5,-6 1757.5,-25 1804.5,-25 1804.5,-6 1757.5,-6"/>
<text text-anchor="middle" x="1781" y="-13" font-family="Helvetica,sans-Serif" font-size="10.00">vector</text>
</a>
</g>
</g>
<!-- Node1&#45;&gt;Node3 -->
<g id="edge2" class="edge">
<title>Node1&#45;&gt;Node3</title>
<path fill="none" stroke="midnightblue" d="M1349.02,-996.58C1622.56,-990.78 2396.41,-971.71 2648,-937 2767.7,-920.49 2912,-992.84 2912,-872 2912,-872 2912,-872 2912,-439.5 2912,-8.35 2381.1,-307.01 2004,-98 1984.63,-87.27 1984.74,-77.02 1965,-67 1915.86,-42.06 1852.89,-28.21 1814.81,-21.56"/>
<polygon fill="midnightblue" stroke="midnightblue" points="1815.2,-18.08 1804.76,-19.88 1814.04,-24.98 1815.2,-18.08"/>
</g>
<!-- Node4 -->
<g id="node4" class="node">
<title>Node4</title>
<g id="a_node4"><a xlink:href="../../df/d67/define_8h.html" target="_top" xlink:title=" ">
<polygon fill="none" stroke="black" points="1130.5,-190.5 1130.5,-209.5 1229.5,-209.5 1229.5,-190.5 1130.5,-190.5"/>
<text text-anchor="middle" x="1180" y="-197.5" font-family="Helvetica,sans-Serif" font-size="10.00">includes/define.h</text>
</a>
</g>
</g>
<!-- Node1&#45;&gt;Node4 -->
<g id="edge3" class="edge">
<title>Node1&#45;&gt;Node4</title>
<path fill="none" stroke="midnightblue" d="M1154.96,-998.52C867.12,-997.3 38,-984.08 38,-872 38,-872 38,-872 38,-814 38,-578.5 342,-615.5 342,-380 342,-380 342,-380 342,-322 342,-243.29 928.6,-211.59 1120.23,-203.33"/>
<polygon fill="midnightblue" stroke="midnightblue" points="1120.56,-206.82 1130.4,-202.9 1120.26,-199.83 1120.56,-206.82"/>
</g>
<!-- Node16 -->
<g id="node16" class="node">
<title>Node16</title>
<g id="a_node16"><a xlink:href="../../dd/dfe/model__part_8h.html" target="_top" xlink:title=" ">
<polygon fill="none" stroke="black" points="1189.5,-861.5 1189.5,-880.5 1314.5,-880.5 1314.5,-861.5 1189.5,-861.5"/>
<text text-anchor="middle" x="1252" y="-868.5" font-family="Helvetica,sans-Serif" font-size="10.00">includes/model_part.h</text>
</a>
</g>
</g>
<!-- Node1&#45;&gt;Node16 -->
<g id="edge26" class="edge">
<title>Node1&#45;&gt;Node16</title>
<path fill="none" stroke="midnightblue" d="M1252,-973.2C1252,-948.88 1252,-912.67 1252,-890.8"/>
<polygon fill="midnightblue" stroke="midnightblue" points="1255.5,-890.55 1252,-880.55 1248.5,-890.55 1255.5,-890.55"/>
</g>
<!-- Node124 -->
<g id="node39" class="node">
<title>Node124</title>
<g id="a_node39"><a xlink:href="../../db/d71/kratos__parameters_8h.html" target="_top" xlink:title=" ">
<polygon fill="none" stroke="black" points="1583.5,-688 1583.5,-707 1744.5,-707 1744.5,-688 1583.5,-688"/>
<text text-anchor="middle" x="1664" y="-695" font-family="Helvetica,sans-Serif" font-size="10.00">includes/kratos_parameters.h</text>
</a>
</g>
</g>
<!-- Node1&#45;&gt;Node124 -->
<g id="edge164" class="edge">
<title>Node1&#45;&gt;Node124</title>
<path fill="none" stroke="midnightblue" d="M1293.8,-973.3C1346.79,-940.85 1440.36,-881.83 1516,-825 1565.72,-787.65 1620.41,-738.65 1647.25,-714.04"/>
<polygon fill="midnightblue" stroke="midnightblue" points="1649.67,-716.57 1654.65,-707.22 1644.92,-711.42 1649.67,-716.57"/>
</g>
<!-- Node77 -->
<g id="node48" class="node">
<title>Node77</title>
<g id="a_node48"><a xlink:href="../../d9/dd1/data__communicator_8h.html" target="_top" xlink:title=" ">
<polygon fill="none" stroke="black" points="2158,-369.5 2158,-388.5 2324,-388.5 2324,-369.5 2158,-369.5"/>
<text text-anchor="middle" x="2241" y="-376.5" font-family="Helvetica,sans-Serif" font-size="10.00">includes/data_communicator.h</text>
</a>
</g>
</g>
<!-- Node1&#45;&gt;Node77 -->
<g id="edge152" class="edge">
<title>Node1&#45;&gt;Node77</title>
<path fill="none" stroke="midnightblue" d="M1349.21,-996.04C1699.14,-986.54 2874,-948.92 2874,-872 2874,-872 2874,-872 2874,-814 2874,-536.12 2453.92,-422.97 2298.19,-390.56"/>
<polygon fill="midnightblue" stroke="midnightblue" points="2298.82,-387.12 2288.32,-388.55 2297.41,-393.98 2298.82,-387.12"/>
</g>
<!-- Node132 -->
<g id="node50" class="node">
<title>Node132</title>
<g id="a_node50"><a xlink:href="../../dc/d51/model_8h.html" target="_top" xlink:title=" ">
<polygon fill="none" stroke="black" points="974,-917.5 974,-936.5 1084,-936.5 1084,-917.5 974,-917.5"/>
<text text-anchor="middle" x="1029" y="-924.5" font-family="Helvetica,sans-Serif" font-size="10.00">containers/model.h</text>
</a>
</g>
</g>
<!-- Node1&#45;&gt;Node132 -->
<g id="edge165" class="edge">
<title>Node1&#45;&gt;Node132</title>
<path fill="none" stroke="midnightblue" d="M1172.75,-973.45C1136.24,-961.9 1094.69,-948.77 1065.68,-939.6"/>
<polygon fill="midnightblue" stroke="midnightblue" points="1066.56,-936.2 1055.97,-936.53 1064.45,-942.88 1066.56,-936.2"/>
</g>
<!-- Node5 -->
<g id="node5" class="node">
<title>Node5</title>
<g id="a_node5"><a xlink:title=" ">
<polygon fill="none" stroke="#bfbfbf" points="1668.5,-73 1668.5,-92 1733.5,-92 1733.5,-73 1668.5,-73"/>
<text text-anchor="middle" x="1701" y="-80" font-family="Helvetica,sans-Serif" font-size="10.00">stdexcept</text>
</a>
</g>
</g>
<!-- Node4&#45;&gt;Node5 -->
<g id="edge4" class="edge">
<title>Node4&#45;&gt;Node5</title>
<path fill="none" stroke="midnightblue" d="M1229.84,-197.42C1348.23,-193.25 1639.11,-180.41 1674,-154 1690.13,-141.79 1696.63,-118.67 1699.24,-102.24"/>
<polygon fill="midnightblue" stroke="midnightblue" points="1702.73,-102.5 1700.5,-92.14 1695.79,-101.63 1702.73,-102.5"/>
</g>
<!-- Node6 -->
<g id="node6" class="node">
<title>Node6</title>
<g id="a_node6"><a xlink:title=" ">
<polygon fill="none" stroke="#bfbfbf" points="524,-73 524,-92 580,-92 580,-73 524,-73"/>
<text text-anchor="middle" x="552" y="-80" font-family="Helvetica,sans-Serif" font-size="10.00">sstream</text>
</a>
</g>
</g>
<!-- Node4&#45;&gt;Node6 -->
<g id="edge5" class="edge">
<title>Node4&#45;&gt;Node6</title>
<path fill="none" stroke="midnightblue" d="M1138.65,-190.49C1076.22,-177.72 954.1,-153.07 850,-134 756.95,-116.95 647.17,-98.87 590.37,-89.67"/>
<polygon fill="midnightblue" stroke="midnightblue" points="590.83,-86.2 580.4,-88.05 589.71,-93.11 590.83,-86.2"/>
</g>
<!-- Node7 -->
<g id="node7" class="node">
<title>Node7</title>
<g id="a_node7"><a xlink:href="../../dc/d25/kratos__export__api_8h.html" target="_top" xlink:title=" ">
<polygon fill="none" stroke="black" points="1403,-0.5 1403,-30.5 1531,-30.5 1531,-0.5 1403,-0.5"/>
<text text-anchor="start" x="1411" y="-18.5" font-family="Helvetica,sans-Serif" font-size="10.00">includes/kratos_export</text>
<text text-anchor="middle" x="1467" y="-7.5" font-family="Helvetica,sans-Serif" font-size="10.00">_api.h</text>
</a>
</g>
</g>
<!-- Node4&#45;&gt;Node7 -->
<g id="edge6" class="edge">
<title>Node4&#45;&gt;Node7</title>
<path fill="none" stroke="midnightblue" d="M1193.46,-190.44C1236.87,-162.84 1373.98,-75.65 1436,-36.21"/>
<polygon fill="midnightblue" stroke="midnightblue" points="1438.02,-39.07 1444.58,-30.75 1434.27,-33.17 1438.02,-39.07"/>
</g>
<!-- Node8 -->
<g id="node8" class="node">
<title>Node8</title>
<g id="a_node8"><a xlink:href="../../d9/dc0/smart__pointers_8h.html" target="_top" xlink:title=" ">
<polygon fill="none" stroke="black" points="2170.5,-134.5 2170.5,-153.5 2313.5,-153.5 2313.5,-134.5 2170.5,-134.5"/>
<text text-anchor="middle" x="2242" y="-141.5" font-family="Helvetica,sans-Serif" font-size="10.00">includes/smart_pointers.h</text>
</a>
</g>
</g>
<!-- Node4&#45;&gt;Node8 -->
<g id="edge7" class="edge">
<title>Node4&#45;&gt;Node8</title>
<path fill="none" stroke="midnightblue" d="M1229.8,-196.47C1398.65,-187.88 1950.57,-159.82 2160.21,-149.16"/>
<polygon fill="midnightblue" stroke="midnightblue" points="2160.42,-152.65 2170.23,-148.65 2160.07,-145.66 2160.42,-152.65"/>
</g>
<!-- Node13 -->
<g id="node13" class="node">
<title>Node13</title>
<g id="a_node13"><a xlink:href="../../dd/d2d/exception_8h.html" target="_top" xlink:title=" ">
<polygon fill="none" stroke="black" points="1547.5,-134.5 1547.5,-153.5 1664.5,-153.5 1664.5,-134.5 1547.5,-134.5"/>
<text text-anchor="middle" x="1606" y="-141.5" font-family="Helvetica,sans-Serif" font-size="10.00">includes/exception.h</text>
</a>
</g>
</g>
<!-- Node4&#45;&gt;Node13 -->
<g id="edge12" class="edge">
<title>Node4&#45;&gt;Node13</title>
<path fill="none" stroke="midnightblue" d="M1229.7,-192.7C1305.81,-183.05 1451.44,-164.59 1537.5,-153.68"/>
<polygon fill="midnightblue" stroke="midnightblue" points="1537.96,-157.15 1547.44,-152.42 1537.08,-150.21 1537.96,-157.15"/>
</g>
<!-- Node9 -->
<g id="node9" class="node">
<title>Node9</title>
<g id="a_node9"><a xlink:title=" ">
<polygon fill="none" stroke="#bfbfbf" points="2559,-6 2559,-25 2619,-25 2619,-6 2559,-6"/>
<text text-anchor="middle" x="2589" y="-13" font-family="Helvetica,sans-Serif" font-size="10.00">iostream</text>
</a>
</g>
</g>
<!-- Node8&#45;&gt;Node9 -->
<g id="edge8" class="edge">
<title>Node8&#45;&gt;Node9</title>
<path fill="none" stroke="midnightblue" d="M2250.52,-134.41C2268.53,-116.41 2310.3,-75.71 2328,-67 2400.4,-31.36 2495.65,-20.85 2548.77,-17.76"/>
<polygon fill="midnightblue" stroke="midnightblue" points="2549.01,-21.26 2558.81,-17.24 2548.64,-14.26 2549.01,-21.26"/>
</g>
<!-- Node10 -->
<g id="node10" class="node">
<title>Node10</title>
<g id="a_node10"><a xlink:title=" ">
<polygon fill="none" stroke="#bfbfbf" points="2012.5,-73 2012.5,-92 2057.5,-92 2057.5,-73 2012.5,-73"/>
<text text-anchor="middle" x="2035" y="-80" font-family="Helvetica,sans-Serif" font-size="10.00">utility</text>
</a>
</g>
</g>
<!-- Node8&#45;&gt;Node10 -->
<g id="edge9" class="edge">
<title>Node8&#45;&gt;Node10</title>
<path fill="none" stroke="midnightblue" d="M2200.38,-134.44C2164.54,-126.56 2111.68,-113.73 2067,-98 2065.34,-97.42 2063.65,-96.78 2061.95,-96.11"/>
<polygon fill="midnightblue" stroke="midnightblue" points="2062.95,-92.73 2052.38,-92.04 2060.21,-99.17 2062.95,-92.73"/>
</g>
<!-- Node11 -->
<g id="node11" class="node">
<title>Node11</title>
<g id="a_node11"><a xlink:title=" ">
<polygon fill="none" stroke="#bfbfbf" points="2218,-73 2218,-92 2276,-92 2276,-73 2218,-73"/>
<text text-anchor="middle" x="2247" y="-80" font-family="Helvetica,sans-Serif" font-size="10.00">memory</text>
</a>
</g>
</g>
<!-- Node8&#45;&gt;Node11 -->
<g id="edge10" class="edge">
<title>Node8&#45;&gt;Node11</title>
<path fill="none" stroke="midnightblue" d="M2242.72,-134.48C2243.42,-126.08 2244.52,-112.98 2245.43,-102.16"/>
<polygon fill="midnightblue" stroke="midnightblue" points="2248.94,-102.27 2246.28,-92.01 2241.96,-101.68 2248.94,-102.27"/>
</g>
<!-- Node12 -->
<g id="node12" class="node">
<title>Node12</title>
<g id="a_node12"><a xlink:title=" ">
<polygon fill="none" stroke="#bfbfbf" points="2076,-67.5 2076,-97.5 2200,-97.5 2200,-67.5 2076,-67.5"/>
<text text-anchor="start" x="2084" y="-85.5" font-family="Helvetica,sans-Serif" font-size="10.00">intrusive_ptr/intrusive</text>
<text text-anchor="middle" x="2138" y="-74.5" font-family="Helvetica,sans-Serif" font-size="10.00">_ptr.hpp</text>
</a>
</g>
</g>
<!-- Node8&#45;&gt;Node12 -->
<g id="edge11" class="edge">
<title>Node8&#45;&gt;Node12</title>
<path fill="none" stroke="midnightblue" d="M2227.1,-134.48C2212.62,-126.19 2190.13,-113.32 2171.37,-102.59"/>
<polygon fill="midnightblue" stroke="midnightblue" points="2172.93,-99.45 2162.51,-97.52 2169.45,-105.53 2172.93,-99.45"/>
</g>
<!-- Node13&#45;&gt;Node2 -->
<g id="edge14" class="edge">
<title>Node13&#45;&gt;Node2</title>
<path fill="none" stroke="midnightblue" d="M1552.79,-134.43C1508.5,-126.72 1444.02,-114.12 1389,-98 1352.01,-87.16 1345.44,-76.19 1308,-67 1160.85,-30.88 979.11,-20.38 906.34,-17.51"/>
<polygon fill="midnightblue" stroke="midnightblue" points="906.14,-14 896.02,-17.13 905.88,-21 906.14,-14"/>
</g>
<!-- Node13&#45;&gt;Node3 -->
<g id="edge17" class="edge">
<title>Node13&#45;&gt;Node3</title>
<path fill="none" stroke="midnightblue" d="M1605.75,-134.21C1605.81,-118.58 1608.21,-85.85 1626,-67 1657.69,-33.43 1711.93,-22.14 1747.11,-18.36"/>
<polygon fill="midnightblue" stroke="midnightblue" points="1747.74,-21.82 1757.37,-17.41 1747.1,-14.85 1747.74,-21.82"/>
</g>
<!-- Node13&#45;&gt;Node5 -->
<g id="edge13" class="edge">
<title>Node13&#45;&gt;Node5</title>
<path fill="none" stroke="midnightblue" d="M1619.61,-134.48C1635.06,-124.8 1660.49,-108.87 1678.82,-97.39"/>
<polygon fill="midnightblue" stroke="midnightblue" points="1680.8,-100.28 1687.41,-92.01 1677.08,-94.35 1680.8,-100.28"/>
</g>
<!-- Node13&#45;&gt;Node6 -->
<g id="edge16" class="edge">
<title>Node13&#45;&gt;Node6</title>
<path fill="none" stroke="midnightblue" d="M1547.45,-139.69C1355.7,-128.87 749.72,-94.66 590.59,-85.68"/>
<polygon fill="midnightblue" stroke="midnightblue" points="590.52,-82.17 580.33,-85.1 590.12,-89.16 590.52,-82.17"/>
</g>
<!-- Node13&#45;&gt;Node7 -->
<g id="edge18" class="edge">
<title>Node13&#45;&gt;Node7</title>
<path fill="none" stroke="midnightblue" d="M1600.37,-134.27C1590.44,-119.31 1568.61,-88.32 1545,-67 1532.04,-55.29 1516.08,-44.45 1501.99,-35.84"/>
<polygon fill="midnightblue" stroke="midnightblue" points="1503.43,-32.63 1493.05,-30.52 1499.85,-38.64 1503.43,-32.63"/>
</g>
<!-- Node13&#45;&gt;Node9 -->
<g id="edge15" class="edge">
<title>Node13&#45;&gt;Node9</title>
<path fill="none" stroke="midnightblue" d="M1609.13,-134.45C1615.67,-117.99 1632.5,-82.16 1660,-67 1738.55,-23.71 2380.12,-17.52 2548.6,-16.64"/>
<polygon fill="midnightblue" stroke="midnightblue" points="2548.8,-20.14 2558.78,-16.6 2548.76,-13.14 2548.8,-20.14"/>
</g>
<!-- Node14 -->
<g id="node14" class="node">
<title>Node14</title>
<g id="a_node14"><a xlink:href="../../da/da6/code__location_8h.html" target="_top" xlink:title=" ">
<polygon fill="none" stroke="black" points="1398.5,-73 1398.5,-92 1535.5,-92 1535.5,-73 1398.5,-73"/>
<text text-anchor="middle" x="1467" y="-80" font-family="Helvetica,sans-Serif" font-size="10.00">includes/code_location.h</text>
</a>
</g>
</g>
<!-- Node13&#45;&gt;Node14 -->
<g id="edge19" class="edge">
<title>Node13&#45;&gt;Node14</title>
<path fill="none" stroke="midnightblue" d="M1586.08,-134.48C1562.55,-124.4 1523.19,-107.55 1496.21,-96"/>
<polygon fill="midnightblue" stroke="midnightblue" points="1497.45,-92.73 1486.88,-92.01 1494.69,-99.16 1497.45,-92.73"/>
</g>
<!-- Node15 -->
<g id="node15" class="node">
<title>Node15</title>
<g id="a_node15"><a xlink:href="../../d9/d06/stl__vector__io_8h.html" target="_top" xlink:title=" ">
<polygon fill="none" stroke="black" points="1828,-73 1828,-92 1956,-92 1956,-73 1828,-73"/>
<text text-anchor="middle" x="1892" y="-80" font-family="Helvetica,sans-Serif" font-size="10.00">utilities/stl_vector_io.h</text>
</a>
</g>
</g>
<!-- Node13&#45;&gt;Node15 -->
<g id="edge23" class="edge">
<title>Node13&#45;&gt;Node15</title>
<path fill="none" stroke="midnightblue" d="M1646.98,-134.48C1698.16,-123.83 1785.73,-105.61 1841.14,-94.08"/>
<polygon fill="midnightblue" stroke="midnightblue" points="1842.02,-97.47 1851.1,-92.01 1840.6,-90.62 1842.02,-97.47"/>
</g>
<!-- Node14&#45;&gt;Node2 -->
<g id="edge20" class="edge">
<title>Node14&#45;&gt;Node2</title>
<path fill="none" stroke="midnightblue" d="M1398.23,-73.11C1381.17,-71.07 1362.92,-68.92 1346,-67 1180.93,-48.28 983.15,-27.73 906.54,-19.84"/>
<polygon fill="midnightblue" stroke="midnightblue" points="906.43,-16.31 896.13,-18.77 905.72,-23.27 906.43,-16.31"/>
</g>
<!-- Node14&#45;&gt;Node7 -->
<g id="edge22" class="edge">
<title>Node14&#45;&gt;Node7</title>
<path fill="none" stroke="midnightblue" d="M1467,-72.73C1467,-64.54 1467,-51.92 1467,-40.71"/>
<polygon fill="midnightblue" stroke="midnightblue" points="1470.5,-40.59 1467,-30.59 1463.5,-40.59 1470.5,-40.59"/>
</g>
<!-- Node14&#45;&gt;Node9 -->
<g id="edge21" class="edge">
<title>Node14&#45;&gt;Node9</title>
<path fill="none" stroke="midnightblue" d="M1535.82,-74.64C1563.79,-72.01 1596.42,-69.12 1626,-67 1983.28,-41.35 2416.01,-23.3 2548.52,-18.06"/>
<polygon fill="midnightblue" stroke="midnightblue" points="2548.76,-21.56 2558.61,-17.67 2548.48,-14.56 2548.76,-21.56"/>
</g>
<!-- Node15&#45;&gt;Node3 -->
<g id="edge25" class="edge">
<title>Node15&#45;&gt;Node3</title>
<path fill="none" stroke="midnightblue" d="M1877.03,-72.73C1858.39,-61.82 1826.34,-43.05 1804.43,-30.22"/>
<polygon fill="midnightblue" stroke="midnightblue" points="1806.13,-27.16 1795.73,-25.13 1802.59,-33.2 1806.13,-27.16"/>
</g>
<!-- Node15&#45;&gt;Node9 -->
<g id="edge24" class="edge">
<title>Node15&#45;&gt;Node9</title>
<path fill="none" stroke="midnightblue" d="M1954.15,-72.97C1970.36,-70.88 1987.82,-68.74 2004,-67 2208.42,-44.95 2453.85,-26.3 2548.78,-19.38"/>
<polygon fill="midnightblue" stroke="midnightblue" points="2549.1,-22.86 2558.82,-18.65 2548.59,-15.88 2549.1,-22.86"/>
</g>
<!-- Node16&#45;&gt;Node2 -->
<g id="edge27" class="edge">
<title>Node16&#45;&gt;Node2</title>
<path fill="none" stroke="midnightblue" d="M1189.4,-869.38C980.41,-867.01 314.7,-857.02 224,-825 102.42,-782.08 76,-704.43 76,-575.5 76,-575.5 76,-575.5 76,-143 76,-101.31 94.53,-87.21 131,-67 193.83,-32.18 707.49,-19.76 841.91,-17.09"/>
<polygon fill="midnightblue" stroke="midnightblue" points="842.05,-20.58 851.98,-16.89 841.91,-13.59 842.05,-20.58"/>
</g>
<!-- Node16&#45;&gt;Node4 -->
<g id="edge31" class="edge">
<title>Node16&#45;&gt;Node4</title>
<path fill="none" stroke="midnightblue" d="M1274.95,-861.48C1310.29,-846.71 1374,-812.76 1374,-760 1374,-760 1374,-760 1374,-506.5 1374,-376.7 1247.65,-257.44 1198.89,-216.24"/>
<polygon fill="midnightblue" stroke="midnightblue" points="1200.92,-213.37 1190.99,-209.68 1196.44,-218.76 1200.92,-213.37"/>
</g>
<!-- Node16&#45;&gt;Node6 -->
<g id="edge29" class="edge">
<title>Node16&#45;&gt;Node6</title>
<path fill="none" stroke="midnightblue" d="M1189.31,-870.36C956.09,-870.87 152,-865.02 152,-760 152,-760 152,-760 152,-635 152,-496.78 152,-462.22 152,-324 152,-324 152,-324 152,-199 152,-124.13 413.96,-94.8 513.89,-86.33"/>
<polygon fill="midnightblue" stroke="midnightblue" points="514.19,-89.82 523.87,-85.51 513.62,-82.84 514.19,-89.82"/>
</g>
<!-- Node16&#45;&gt;Node9 -->
<g id="edge28" class="edge">
<title>Node16&#45;&gt;Node9</title>
<path fill="none" stroke="midnightblue" d="M1314.72,-869.23C1545.21,-865.79 2344.47,-848.29 2585,-769 2747.56,-715.41 2824.16,-727.57 2926,-590 3014.14,-470.93 2988,-410.64 2988,-262.5 2988,-262.5 2988,-262.5 2988,-143 2988,-99.69 2964.56,-88.57 2927,-67 2877,-38.28 2708.1,-24.06 2629.66,-18.88"/>
<polygon fill="midnightblue" stroke="midnightblue" points="2629.41,-15.36 2619.21,-18.21 2628.97,-22.34 2629.41,-15.36"/>
</g>
<!-- Node17 -->
<g id="node17" class="node">
<title>Node17</title>
<g id="a_node17"><a xlink:title=" ">
<polygon fill="none" stroke="#bfbfbf" points="612.5,-369.5 612.5,-388.5 665.5,-388.5 665.5,-369.5 612.5,-369.5"/>
<text text-anchor="middle" x="639" y="-376.5" font-family="Helvetica,sans-Serif" font-size="10.00">cstddef</text>
</a>
</g>
</g>
<!-- Node16&#45;&gt;Node17 -->
<g id="edge30" class="edge">
<title>Node16&#45;&gt;Node17</title>
<path fill="none" stroke="midnightblue" d="M1189.23,-867.95C1000.63,-860.98 452,-834.3 452,-760 452,-760 452,-760 452,-635 452,-577.25 578.28,-442.22 623.29,-395.91"/>
<polygon fill="midnightblue" stroke="midnightblue" points="625.99,-398.16 630.48,-388.57 620.98,-393.27 625.99,-398.16"/>
</g>
<!-- Node18 -->
<g id="node18" class="node">
<title>Node18</title>
<g id="a_node18"><a xlink:href="../../dd/d5f/serializer_8h.html" target="_top" xlink:title=" ">
<polygon fill="none" stroke="black" points="1672.5,-369.5 1672.5,-388.5 1785.5,-388.5 1785.5,-369.5 1672.5,-369.5"/>
<text text-anchor="middle" x="1729" y="-376.5" font-family="Helvetica,sans-Serif" font-size="10.00">includes/serializer.h</text>
</a>
</g>
</g>
<!-- Node16&#45;&gt;Node18 -->
<g id="edge32" class="edge">
<title>Node16&#45;&gt;Node18</title>
<path fill="none" stroke="midnightblue" d="M1314.55,-866.61C1442.44,-859.42 1729.96,-841.95 1827,-825 1934.59,-806.21 2064,-869.22 2064,-760 2064,-760 2064,-760 2064,-506.5 2064,-449.16 2015.96,-449.24 1964,-425 1910.58,-400.08 1844.17,-388.96 1795.59,-384"/>
<polygon fill="midnightblue" stroke="midnightblue" points="1795.8,-380.5 1785.51,-383.03 1795.13,-387.47 1795.8,-380.5"/>
</g>
<!-- Node25 -->
<g id="node25" class="node">
<title>Node25</title>
<g id="a_node25"><a xlink:href="../../d1/d8c/logger_8h.html" target="_top" xlink:title=" ">
<polygon fill="none" stroke="red" points="2050,-190.5 2050,-209.5 2170,-209.5 2170,-190.5 2050,-190.5"/>
<text text-anchor="middle" x="2110" y="-197.5" font-family="Helvetica,sans-Serif" font-size="10.00">input_output/logger.h</text>
</a>
</g>
</g>
<!-- Node16&#45;&gt;Node25 -->
<g id="edge145" class="edge">
<title>Node16&#45;&gt;Node25</title>
<path fill="none" stroke="midnightblue" d="M1314.65,-869.11C1489.45,-866.25 1980,-855.67 2138,-825 2424.43,-769.4 2606.26,-843.34 2751,-590 2795.57,-511.98 2810.96,-469.46 2464,-313 2358.46,-265.41 2312.11,-323.31 2206,-277 2186.02,-268.28 2185.06,-259.57 2168,-246 2155.13,-235.76 2140.49,-224.4 2129.14,-215.66"/>
<polygon fill="midnightblue" stroke="midnightblue" points="2131.24,-212.86 2121.18,-209.55 2126.98,-218.42 2131.24,-212.86"/>
</g>
<!-- Node56 -->
<g id="node30" class="node">
<title>Node56</title>
<g id="a_node30"><a xlink:href="../../de/db8/process__info_8h.html" target="_top" xlink:title=" ">
<polygon fill="none" stroke="black" points="952.5,-626.5 952.5,-645.5 1083.5,-645.5 1083.5,-626.5 952.5,-626.5"/>
<text text-anchor="middle" x="1018" y="-633.5" font-family="Helvetica,sans-Serif" font-size="10.00">includes/process_info.h</text>
</a>
</g>
</g>
<!-- Node16&#45;&gt;Node56 -->
<g id="edge65" class="edge">
<title>Node16&#45;&gt;Node56</title>
<path fill="none" stroke="midnightblue" d="M1189.46,-865.03C1128.04,-856.43 1037.43,-832.98 994,-769 970,-733.64 992.73,-681.17 1007.53,-654.27"/>
<polygon fill="midnightblue" stroke="midnightblue" points="1010.57,-656.01 1012.53,-645.6 1004.5,-652.51 1010.57,-656.01"/>
</g>
<!-- Node57 -->
<g id="node31" class="node">
<title>Node57</title>
<g id="a_node31"><a xlink:href="../../d1/d82/data__value__container_8h.html" target="_top" xlink:title=" ">
<polygon fill="none" stroke="red" points="860.5,-559.5 860.5,-589.5 985.5,-589.5 985.5,-559.5 860.5,-559.5"/>
<text text-anchor="start" x="868.5" y="-577.5" font-family="Helvetica,sans-Serif" font-size="10.00">containers/data_value</text>
<text text-anchor="middle" x="923" y="-566.5" font-family="Helvetica,sans-Serif" font-size="10.00">_container.h</text>
</a>
</g>
</g>
<!-- Node16&#45;&gt;Node57 -->
<g id="edge90" class="edge">
<title>Node16&#45;&gt;Node57</title>
<path fill="none" stroke="midnightblue" d="M1189.14,-868.83C1141.55,-865.36 1076.2,-854.87 1027,-825 947.04,-776.46 928.55,-652.25 924.28,-599.64"/>
<polygon fill="midnightblue" stroke="midnightblue" points="927.76,-599.28 923.57,-589.55 920.78,-599.77 927.76,-599.28"/>
</g>
<!-- Node58 -->
<g id="node32" class="node">
<title>Node58</title>
<g id="a_node32"><a xlink:href="../../da/d89/variable_8h.html" target="_top" xlink:title=" ">
<polygon fill="none" stroke="red" points="1614.5,-498 1614.5,-517 1733.5,-517 1733.5,-498 1614.5,-498"/>
<text text-anchor="middle" x="1674" y="-505" font-family="Helvetica,sans-Serif" font-size="10.00">containers/variable.h</text>
</a>
</g>
</g>
<!-- Node16&#45;&gt;Node58 -->
<g id="edge150" class="edge">
<title>Node16&#45;&gt;Node58</title>
<path fill="none" stroke="midnightblue" d="M1314.77,-864.18C1460.8,-849.81 1811,-810.1 1811,-760 1811,-760 1811,-760 1811,-696.5 1811,-618.92 1733.86,-551.91 1695.35,-523.29"/>
<polygon fill="midnightblue" stroke="midnightblue" points="1697.04,-520.2 1686.89,-517.16 1692.93,-525.86 1697.04,-520.2"/>
</g>
<!-- Node73 -->
<g id="node33" class="node">
<title>Node73</title>
<g id="a_node33"><a xlink:href="../../d3/dc3/variable__data_8h.html" target="_top" xlink:title=" ">
<polygon fill="none" stroke="red" points="1254,-431 1254,-450 1346,-450 1346,-431 1254,-431"/>
<text text-anchor="middle" x="1300" y="-438" font-family="Helvetica,sans-Serif" font-size="10.00">variable_data.h</text>
</a>
</g>
</g>
<!-- Node16&#45;&gt;Node73 -->
<g id="edge151" class="edge">
<title>Node16&#45;&gt;Node73</title>
<path fill="none" stroke="midnightblue" d="M1265.12,-861.46C1288.75,-844.94 1336,-806.14 1336,-760 1336,-760 1336,-760 1336,-573.5 1336,-531.52 1318.84,-484.58 1308.21,-459.55"/>
<polygon fill="midnightblue" stroke="midnightblue" points="1311.35,-457.99 1304.13,-450.24 1304.94,-460.8 1311.35,-457.99"/>
</g>
<!-- Node82 -->
<g id="node34" class="node">
<title>Node82</title>
<g id="a_node34"><a xlink:href="../../d8/d3b/mesh_8h.html" target="_top" xlink:title=" ">
<polygon fill="none" stroke="red" points="685,-749.5 685,-768.5 781,-768.5 781,-749.5 685,-749.5"/>
<text text-anchor="middle" x="733" y="-756.5" font-family="Helvetica,sans-Serif" font-size="10.00">includes/mesh.h</text>
</a>
</g>
</g>
<!-- Node16&#45;&gt;Node82 -->
<g id="edge91" class="edge">
<title>Node16&#45;&gt;Node82</title>
<path fill="none" stroke="midnightblue" d="M1189.28,-865.66C1120.86,-859.99 1008.48,-847.98 914,-825 858.93,-811.61 797.31,-787.4 762.04,-772.6"/>
<polygon fill="midnightblue" stroke="midnightblue" points="762.97,-769.2 752.4,-768.52 760.24,-775.64 762.97,-769.2"/>
</g>
<!-- Node86 -->
<g id="node35" class="node">
<title>Node86</title>
<g id="a_node35"><a xlink:href="../../d2/d58/pointer__vector__map_8h.html" target="_top" xlink:title=" ">
<polygon fill="none" stroke="red" points="408.5,-425.5 408.5,-455.5 513.5,-455.5 513.5,-425.5 408.5,-425.5"/>
<text text-anchor="start" x="416.5" y="-443.5" font-family="Helvetica,sans-Serif" font-size="10.00">containers/pointer</text>
<text text-anchor="middle" x="461" y="-432.5" font-family="Helvetica,sans-Serif" font-size="10.00">_vector_map.h</text>
</a>
</g>
</g>
<!-- Node16&#45;&gt;Node86 -->
<g id="edge138" class="edge">
<title>Node16&#45;&gt;Node86</title>
<path fill="none" stroke="midnightblue" d="M1189.3,-870.51C1008.84,-871.44 497.28,-870.02 438,-825 318.23,-734.05 304.31,-623.09 378,-492 385.66,-478.37 398.66,-467.99 412.12,-460.29"/>
<polygon fill="midnightblue" stroke="midnightblue" points="413.77,-463.38 420.98,-455.62 410.5,-457.19 413.77,-463.38"/>
</g>
<!-- Node98 -->
<g id="node36" class="node">
<title>Node98</title>
<g id="a_node36"><a xlink:href="../../da/da4/master__slave__constraint_8h.html" target="_top" xlink:title=" ">
<polygon fill="none" stroke="red" points="1115,-682.5 1115,-712.5 1241,-712.5 1241,-682.5 1115,-682.5"/>
<text text-anchor="start" x="1123" y="-700.5" font-family="Helvetica,sans-Serif" font-size="10.00">includes/master_slave</text>
<text text-anchor="middle" x="1178" y="-689.5" font-family="Helvetica,sans-Serif" font-size="10.00">_constraint.h</text>
</a>
</g>
</g>
<!-- Node16&#45;&gt;Node98 -->
<g id="edge149" class="edge">
<title>Node16&#45;&gt;Node98</title>
<path fill="none" stroke="midnightblue" d="M1254.81,-861.42C1261.09,-840.65 1274.15,-786.59 1254,-749 1246.88,-735.73 1234.57,-725.35 1221.91,-717.54"/>
<polygon fill="midnightblue" stroke="midnightblue" points="1223.56,-714.46 1213.14,-712.55 1220.1,-720.54 1223.56,-714.46"/>
</g>
<!-- Node109 -->
<g id="node37" class="node">
<title>Node109</title>
<g id="a_node37"><a xlink:href="../../d3/dad/geometry__container_8h.html" target="_top" xlink:title=" ">
<polygon fill="none" stroke="red" points="1478,-492.5 1478,-522.5 1596,-522.5 1596,-492.5 1478,-492.5"/>
<text text-anchor="start" x="1486" y="-510.5" font-family="Helvetica,sans-Serif" font-size="10.00">containers/geometry</text>
<text text-anchor="middle" x="1537" y="-499.5" font-family="Helvetica,sans-Serif" font-size="10.00">_container.h</text>
</a>
</g>
</g>
<!-- Node16&#45;&gt;Node109 -->
<g id="edge111" class="edge">
<title>Node16&#45;&gt;Node109</title>
<path fill="none" stroke="midnightblue" d="M1314.76,-868.61C1388.82,-863.24 1502,-841.68 1502,-760 1502,-760 1502,-760 1502,-635 1502,-597.95 1516.12,-556.93 1526.42,-531.93"/>
<polygon fill="midnightblue" stroke="midnightblue" points="1529.71,-533.14 1530.42,-522.57 1523.28,-530.39 1529.71,-533.14"/>
</g>
<!-- Node110 -->
<g id="node38" class="node">
<title>Node110</title>
<g id="a_node38"><a xlink:href="../../d4/dfe/element_8h.html" target="_top" xlink:title=" ">
<polygon fill="none" stroke="red" points="1135,-749.5 1135,-768.5 1245,-768.5 1245,-749.5 1135,-749.5"/>
<text text-anchor="middle" x="1190" y="-756.5" font-family="Helvetica,sans-Serif" font-size="10.00">includes/element.h</text>
</a>
</g>
</g>
<!-- Node16&#45;&gt;Node110 -->
<g id="edge113" class="edge">
<title>Node16&#45;&gt;Node110</title>
<path fill="none" stroke="midnightblue" d="M1247.13,-861.37C1236.95,-843.3 1213.21,-801.18 1199.76,-777.31"/>
<polygon fill="midnightblue" stroke="midnightblue" points="1202.8,-775.58 1194.84,-768.59 1196.7,-779.02 1202.8,-775.58"/>
</g>
<!-- Node128 -->
<g id="node42" class="node">
<title>Node128</title>
<g id="a_node42"><a xlink:href="../../d7/d6c/condition_8h.html" target="_top" xlink:title=" ">
<polygon fill="none" stroke="red" points="1003,-749.5 1003,-768.5 1117,-768.5 1117,-749.5 1003,-749.5"/>
<text text-anchor="middle" x="1060" y="-756.5" font-family="Helvetica,sans-Serif" font-size="10.00">includes/condition.h</text>
</a>
</g>
</g>
<!-- Node16&#45;&gt;Node128 -->
<g id="edge120" class="edge">
<title>Node16&#45;&gt;Node128</title>
<path fill="none" stroke="midnightblue" d="M1236.93,-861.37C1203.71,-842.33 1123.91,-796.62 1083.83,-773.65"/>
<polygon fill="midnightblue" stroke="midnightblue" points="1085.41,-770.53 1075,-768.59 1081.93,-776.6 1085.41,-770.53"/>
</g>
<!-- Node129 -->
<g id="node43" class="node">
<title>Node129</title>
<g id="a_node43"><a xlink:href="../../d8/d75/communicator_8h.html" target="_top" xlink:title=" ">
<polygon fill="none" stroke="black" points="663.5,-805.5 663.5,-824.5 802.5,-824.5 802.5,-805.5 663.5,-805.5"/>
<text text-anchor="middle" x="733" y="-812.5" font-family="Helvetica,sans-Serif" font-size="10.00">includes/communicator.h</text>
</a>
</g>
</g>
<!-- Node16&#45;&gt;Node129 -->
<g id="edge123" class="edge">
<title>Node16&#45;&gt;Node129</title>
<path fill="none" stroke="midnightblue" d="M1189.4,-863.49C1095.07,-853.67 916.56,-835.1 812.95,-824.32"/>
<polygon fill="midnightblue" stroke="midnightblue" points="813.17,-820.82 802.86,-823.27 812.44,-827.78 813.17,-820.82"/>
</g>
<!-- Node113 -->
<g id="node44" class="node">
<title>Node113</title>
<g id="a_node44"><a xlink:href="../../dd/d98/table_8h.html" target="_top" xlink:title=" ">
<polygon fill="none" stroke="black" points="2349,-565 2349,-584 2443,-584 2443,-565 2349,-565"/>
<text text-anchor="middle" x="2396" y="-572" font-family="Helvetica,sans-Serif" font-size="10.00">includes/table.h</text>
</a>
</g>
</g>
<!-- Node16&#45;&gt;Node113 -->
<g id="edge132" class="edge">
<title>Node16&#45;&gt;Node113</title>
<path fill="none" stroke="midnightblue" d="M1314.65,-866.77C1505.74,-856.88 2068.81,-827.56 2078,-825 2137.18,-808.5 2200,-821.44 2200,-760 2200,-760 2200,-760 2200,-696.5 2200,-630.72 2280.91,-599.52 2338.77,-585.62"/>
<polygon fill="midnightblue" stroke="midnightblue" points="2339.59,-589.02 2348.55,-583.37 2338.02,-582.2 2339.59,-589.02"/>
</g>
<!-- Node130 -->
<g id="node45" class="node">
<title>Node130</title>
<g id="a_node45"><a xlink:href="../../da/d92/pointer__hash__map__set_8h.html" target="_top" xlink:title=" ">
<polygon fill="none" stroke="red" points="1849.5,-425.5 1849.5,-455.5 1954.5,-455.5 1954.5,-425.5 1849.5,-425.5"/>
<text text-anchor="start" x="1857.5" y="-443.5" font-family="Helvetica,sans-Serif" font-size="10.00">containers/pointer</text>
<text text-anchor="middle" x="1902" y="-432.5" font-family="Helvetica,sans-Serif" font-size="10.00">_hash_map_set.h</text>
</a>
</g>
</g>
<!-- Node16&#45;&gt;Node130 -->
<g id="edge139" class="edge">
<title>Node16&#45;&gt;Node130</title>
<path fill="none" stroke="midnightblue" d="M1314.56,-866.68C1485.88,-856.77 1950,-824.02 1950,-760 1950,-760 1950,-760 1950,-573.5 1950,-533.28 1930.08,-490.1 1915.9,-464.46"/>
<polygon fill="midnightblue" stroke="midnightblue" points="1918.8,-462.48 1910.8,-455.54 1912.73,-465.96 1918.8,-462.48"/>
</g>
<!-- Node108 -->
<g id="node47" class="node">
<title>Node108</title>
<g id="a_node47"><a xlink:href="../../d0/dac/kratos__flags_8h.html" target="_top" xlink:title=" ">
<polygon fill="none" stroke="red" points="1381,-369.5 1381,-388.5 1509,-388.5 1509,-369.5 1381,-369.5"/>
<text text-anchor="middle" x="1445" y="-376.5" font-family="Helvetica,sans-Serif" font-size="10.00">includes/kratos_flags.h</text>
</a>
</g>
</g>
<!-- Node16&#45;&gt;Node108 -->
<g id="edge146" class="edge">
<title>Node16&#45;&gt;Node108</title>
<path fill="none" stroke="midnightblue" d="M1314.71,-861.42C1340.2,-855.09 1368.24,-844.1 1388,-825 1410.14,-803.6 1412,-790.8 1412,-760 1412,-760 1412,-760 1412,-506.5 1412,-466.76 1427.44,-422.21 1437.19,-398.01"/>
<polygon fill="midnightblue" stroke="midnightblue" points="1440.46,-399.27 1441.08,-388.69 1434,-396.57 1440.46,-399.27"/>
</g>
<!-- Node18&#45;&gt;Node2 -->
<g id="edge35" class="edge">
<title>Node18&#45;&gt;Node2</title>
<path fill="none" stroke="midnightblue" d="M1679.67,-369.43C1573.97,-350.01 1319.15,-297.37 1121,-210 1033.05,-171.22 1007.47,-162.27 936,-98 914.7,-78.84 895.64,-51.51 884.45,-33.88"/>
<polygon fill="midnightblue" stroke="midnightblue" points="887.32,-31.86 879.08,-25.2 881.37,-35.55 887.32,-31.86"/>
</g>
<!-- Node18&#45;&gt;Node4 -->
<g id="edge42" class="edge">
<title>Node18&#45;&gt;Node4</title>
<path fill="none" stroke="midnightblue" d="M1681.12,-369.47C1649.02,-362.52 1606.48,-350.89 1572,-333 1517.29,-304.61 1520.34,-271 1464,-246 1453.83,-241.49 1319.95,-221.42 1239.7,-209.66"/>
<polygon fill="midnightblue" stroke="midnightblue" points="1240.11,-206.18 1229.71,-208.2 1239.1,-213.11 1240.11,-206.18"/>
</g>
<!-- Node18&#45;&gt;Node6 -->
<g id="edge37" class="edge">
<title>Node18&#45;&gt;Node6</title>
<path fill="none" stroke="midnightblue" d="M1692.18,-369.45C1653.88,-360.52 1592.18,-346.02 1539,-333 1168.77,-242.37 721.87,-127.37 590.22,-93.38"/>
<polygon fill="midnightblue" stroke="midnightblue" points="590.78,-89.91 580.23,-90.8 589.03,-96.69 590.78,-89.91"/>
</g>
<!-- Node18&#45;&gt;Node9 -->
<g id="edge39" class="edge">
<title>Node18&#45;&gt;Node9</title>
<path fill="none" stroke="midnightblue" d="M1785.61,-372.95C1863.43,-365.7 2007.7,-351.21 2130,-333 2197.29,-322.98 2370.8,-308.7 2431,-277 2528.47,-225.68 2571.91,-85.47 2584.73,-34.95"/>
<polygon fill="midnightblue" stroke="midnightblue" points="2588.16,-35.65 2587.13,-25.11 2581.36,-34 2588.16,-35.65"/>
</g>
<!-- Node19 -->
<g id="node19" class="node">
<title>Node19</title>
<g id="a_node19"><a xlink:title=" ">
<polygon fill="none" stroke="#bfbfbf" points="1820,-313.5 1820,-332.5 1858,-332.5 1858,-313.5 1820,-313.5"/>
<text text-anchor="middle" x="1839" y="-320.5" font-family="Helvetica,sans-Serif" font-size="10.00">map</text>
</a>
</g>
</g>
<!-- Node18&#45;&gt;Node19 -->
<g id="edge33" class="edge">
<title>Node18&#45;&gt;Node19</title>
<path fill="none" stroke="midnightblue" d="M1746.67,-369.32C1764.39,-360.62 1791.9,-347.12 1812.29,-337.11"/>
<polygon fill="midnightblue" stroke="midnightblue" points="1813.94,-340.2 1821.37,-332.65 1810.85,-333.92 1813.94,-340.2"/>
</g>
<!-- Node20 -->
<g id="node20" class="node">
<title>Node20</title>
<g id="a_node20"><a xlink:title=" ">
<polygon fill="none" stroke="#bfbfbf" points="1592,-313.5 1592,-332.5 1624,-332.5 1624,-313.5 1592,-313.5"/>
<text text-anchor="middle" x="1608" y="-320.5" font-family="Helvetica,sans-Serif" font-size="10.00">set</text>
</a>
</g>
</g>
<!-- Node18&#45;&gt;Node20 -->
<g id="edge34" class="edge">
<title>Node18&#45;&gt;Node20</title>
<path fill="none" stroke="midnightblue" d="M1709.83,-369.44C1689.28,-360.27 1656.54,-345.66 1633.76,-335.5"/>
<polygon fill="midnightblue" stroke="midnightblue" points="1634.93,-332.18 1624.37,-331.3 1632.07,-338.58 1634.93,-332.18"/>
</g>
<!-- Node21 -->
<g id="node21" class="node">
<title>Node21</title>
<g id="a_node21"><a xlink:title=" ">
<polygon fill="none" stroke="#bfbfbf" points="2188,-190.5 2188,-209.5 2238,-209.5 2238,-190.5 2188,-190.5"/>
<text text-anchor="middle" x="2213" y="-197.5" font-family="Helvetica,sans-Serif" font-size="10.00">cstring</text>
</a>
</g>
</g>
<!-- Node18&#45;&gt;Node21 -->
<g id="edge36" class="edge">
<title>Node18&#45;&gt;Node21</title>
<path fill="none" stroke="midnightblue" d="M1785.61,-376.26C1876.34,-372.64 2049.56,-362.05 2103,-333 2152,-306.36 2188.1,-248.23 2204,-218.81"/>
<polygon fill="midnightblue" stroke="midnightblue" points="2207.24,-220.19 2208.78,-209.7 2201.04,-216.94 2207.24,-220.19"/>
</g>
<!-- Node22 -->
<g id="node22" class="node">
<title>Node22</title>
<g id="a_node22"><a xlink:title=" ">
<polygon fill="none" stroke="#bfbfbf" points="1642.5,-313.5 1642.5,-332.5 1697.5,-332.5 1697.5,-313.5 1642.5,-313.5"/>
<text text-anchor="middle" x="1670" y="-320.5" font-family="Helvetica,sans-Serif" font-size="10.00">fstream</text>
</a>
</g>
</g>
<!-- Node18&#45;&gt;Node22 -->
<g id="edge38" class="edge">
<title>Node18&#45;&gt;Node22</title>
<path fill="none" stroke="midnightblue" d="M1719.52,-369.32C1710.8,-361.34 1697.66,-349.31 1687.1,-339.65"/>
<polygon fill="midnightblue" stroke="midnightblue" points="1689.39,-337 1679.65,-332.83 1684.67,-342.17 1689.39,-337"/>
</g>
<!-- Node23 -->
<g id="node23" class="node">
<title>Node23</title>
<g id="a_node23"><a xlink:title=" ">
<polygon fill="none" stroke="#bfbfbf" points="978.5,-313.5 978.5,-332.5 1071.5,-332.5 1071.5,-313.5 978.5,-313.5"/>
<text text-anchor="middle" x="1025" y="-320.5" font-family="Helvetica,sans-Serif" font-size="10.00">unordered_map</text>
</a>
</g>
</g>
<!-- Node18&#45;&gt;Node23 -->
<g id="edge40" class="edge">
<title>Node18&#45;&gt;Node23</title>
<path fill="none" stroke="midnightblue" d="M1672.2,-374.23C1564.33,-366.96 1322.42,-350.24 1119,-333 1107,-331.98 1094.15,-330.81 1081.93,-329.65"/>
<polygon fill="midnightblue" stroke="midnightblue" points="1082.13,-326.15 1071.84,-328.69 1081.46,-333.12 1082.13,-326.15"/>
</g>
<!-- Node24 -->
<g id="node24" class="node">
<title>Node24</title>
<g id="a_node24"><a xlink:title=" ">
<polygon fill="none" stroke="#bfbfbf" points="1716,-313.5 1716,-332.5 1802,-332.5 1802,-313.5 1716,-313.5"/>
<text text-anchor="middle" x="1759" y="-320.5" font-family="Helvetica,sans-Serif" font-size="10.00">unordered_set</text>
</a>
</g>
</g>
<!-- Node18&#45;&gt;Node24 -->
<g id="edge41" class="edge">
<title>Node18&#45;&gt;Node24</title>
<path fill="none" stroke="midnightblue" d="M1733.95,-369.08C1738.1,-361.61 1744.15,-350.72 1749.27,-341.52"/>
<polygon fill="midnightblue" stroke="midnightblue" points="1752.34,-343.19 1754.14,-332.75 1746.22,-339.79 1752.34,-343.19"/>
</g>
<!-- Node18&#45;&gt;Node25 -->
<g id="edge43" class="edge">
<title>Node18&#45;&gt;Node25</title>
<path fill="none" stroke="midnightblue" d="M1785.77,-378.78C1874.96,-378.75 2041.98,-373.13 2083,-333 2110.95,-305.66 2087.28,-284.11 2096,-246 2098.06,-237.02 2101.01,-227.23 2103.68,-219.08"/>
<polygon fill="midnightblue" stroke="midnightblue" points="2107.02,-220.11 2106.92,-209.52 2100.4,-217.87 2107.02,-220.11"/>
</g>
<!-- Node29 -->
<g id="node26" class="node">
<title>Node29</title>
<g id="a_node26"><a xlink:href="../../d9/da0/flags_8h.html" target="_top" xlink:title=" ">
<polygon fill="none" stroke="black" points="1128.5,-313.5 1128.5,-332.5 1231.5,-332.5 1231.5,-313.5 1128.5,-313.5"/>
<text text-anchor="middle" x="1180" y="-320.5" font-family="Helvetica,sans-Serif" font-size="10.00">containers/flags.h</text>
</a>
</g>
</g>
<!-- Node18&#45;&gt;Node29 -->
<g id="edge47" class="edge">
<title>Node18&#45;&gt;Node29</title>
<path fill="none" stroke="midnightblue" d="M1672.32,-372.42C1568.54,-362.22 1348.86,-340.61 1241.57,-330.06"/>
<polygon fill="midnightblue" stroke="midnightblue" points="1241.84,-326.57 1231.54,-329.07 1241.15,-333.53 1241.84,-326.57"/>
</g>
<!-- Node30 -->
<g id="node27" class="node">
<title>Node30</title>
<g id="a_node27"><a xlink:href="../../d9/d36/array__1d_8h.html" target="_top" xlink:title=" ">
<polygon fill="none" stroke="red" points="1952,-313.5 1952,-332.5 2074,-332.5 2074,-313.5 1952,-313.5"/>
<text text-anchor="middle" x="2013" y="-320.5" font-family="Helvetica,sans-Serif" font-size="10.00">containers/array_1d.h</text>
</a>
</g>
</g>
<!-- Node18&#45;&gt;Node30 -->
<g id="edge51" class="edge">
<title>Node18&#45;&gt;Node30</title>
<path fill="none" stroke="midnightblue" d="M1774,-369.44C1823.96,-359.94 1904.6,-344.61 1958.2,-334.42"/>
<polygon fill="midnightblue" stroke="midnightblue" points="1959.04,-337.82 1968.21,-332.52 1957.73,-330.95 1959.04,-337.82"/>
</g>
<!-- Node52 -->
<g id="node29" class="node">
<title>Node52</title>
<g id="a_node29"><a xlink:href="../../d5/d10/weak__pointer__vector_8h.html" target="_top" xlink:title=" ">
<polygon fill="none" stroke="red" points="1668.5,-246.5 1668.5,-276.5 1805.5,-276.5 1805.5,-246.5 1668.5,-246.5"/>
<text text-anchor="start" x="1676.5" y="-264.5" font-family="Helvetica,sans-Serif" font-size="10.00">containers/weak_pointer</text>
<text text-anchor="middle" x="1737" y="-253.5" font-family="Helvetica,sans-Serif" font-size="10.00">_vector.h</text>
</a>
</g>
</g>
<!-- Node18&#45;&gt;Node52 -->
<g id="edge59" class="edge">
<title>Node18&#45;&gt;Node52</title>
<path fill="none" stroke="midnightblue" d="M1672.3,-372.67C1620.9,-365.46 1556.87,-349.06 1583,-313 1600.5,-288.85 1629.91,-276.04 1658.37,-269.32"/>
<polygon fill="midnightblue" stroke="midnightblue" points="1659.32,-272.69 1668.37,-267.19 1657.86,-265.85 1659.32,-272.69"/>
</g>
<!-- Node25&#45;&gt;Node2 -->
<g id="edge44" class="edge">
<title>Node25&#45;&gt;Node2</title>
<path fill="none" stroke="midnightblue" d="M2049.89,-195.62C1907.38,-187.46 1557.02,-166.43 1505,-154 1482.52,-148.63 1479.09,-140.78 1457,-134 1380.25,-110.45 1354.34,-128.3 1280,-98 1256.48,-88.41 1255.8,-75.87 1232,-67 1117.74,-24.41 970.74,-17.38 906.49,-16.46"/>
<polygon fill="midnightblue" stroke="midnightblue" points="906.22,-12.96 896.19,-16.36 906.15,-19.96 906.22,-12.96"/>
</g>
<!-- Node25&#45;&gt;Node9 -->
<g id="edge45" class="edge">
<title>Node25&#45;&gt;Node9</title>
<path fill="none" stroke="midnightblue" d="M2170.16,-190.84C2250.78,-179.7 2384.9,-160.39 2394,-154 2430.15,-128.63 2408.19,-95.41 2442,-67 2472.57,-41.31 2516.92,-28.45 2548.9,-22.16"/>
<polygon fill="midnightblue" stroke="midnightblue" points="2549.61,-25.59 2558.82,-20.35 2548.35,-18.71 2549.61,-25.59"/>
</g>
<!-- Node25&#45;&gt;Node13 -->
<g id="edge46" class="edge">
<title>Node25&#45;&gt;Node13</title>
<path fill="none" stroke="midnightblue" d="M2049.96,-192.57C1955.92,-182.49 1774.43,-163.05 1675.1,-152.4"/>
<polygon fill="midnightblue" stroke="midnightblue" points="1675.19,-148.89 1664.87,-151.31 1674.44,-155.85 1675.19,-148.89"/>
</g>
<!-- Node29&#45;&gt;Node2 -->
<g id="edge48" class="edge">
<title>Node29&#45;&gt;Node2</title>
<path fill="none" stroke="midnightblue" d="M1132.41,-313.43C992.66,-287.19 588.68,-203.31 515,-98 507.1,-86.71 505.96,-77.4 515,-67 557.28,-18.35 761.68,-15.22 841.74,-15.91"/>
<polygon fill="midnightblue" stroke="midnightblue" points="841.71,-19.41 851.75,-16.03 841.79,-12.41 841.71,-19.41"/>
</g>
<!-- Node29&#45;&gt;Node4 -->
<g id="edge50" class="edge">
<title>Node29&#45;&gt;Node4</title>
<path fill="none" stroke="midnightblue" d="M1180,-313.3C1180,-293.85 1180,-246.49 1180,-219.9"/>
<polygon fill="midnightblue" stroke="midnightblue" points="1183.5,-219.62 1180,-209.62 1176.5,-219.62 1183.5,-219.62"/>
</g>
<!-- Node29&#45;&gt;Node9 -->
<g id="edge49" class="edge">
<title>Node29&#45;&gt;Node9</title>
<path fill="none" stroke="midnightblue" d="M1231.78,-320.6C1456.27,-314.46 2335.33,-289.67 2361,-277 2388.17,-263.59 2514.23,-89.06 2535,-67 2546.64,-54.64 2560.67,-41.57 2571.51,-31.82"/>
<polygon fill="midnightblue" stroke="midnightblue" points="2573.94,-34.35 2579.09,-25.08 2569.29,-29.11 2573.94,-34.35"/>
</g>
<!-- Node30&#45;&gt;Node2 -->
<g id="edge52" class="edge">
<title>Node30&#45;&gt;Node2</title>
<path fill="none" stroke="midnightblue" d="M1963.08,-313.46C1930.49,-306.58 1887.69,-295.03 1853,-277 1833.66,-266.95 1834.66,-255.41 1815,-246 1637.16,-160.84 1572.91,-199.24 1381,-154 1346.59,-145.89 1338.29,-142.62 1304,-134 1238.35,-117.49 1219.57,-121.28 1156,-98 1127.07,-87.4 1123,-77.41 1094,-67 1029.09,-43.7 949.45,-28.57 906.02,-21.39"/>
<polygon fill="midnightblue" stroke="midnightblue" points="906.47,-17.91 896.04,-19.77 905.35,-24.83 906.47,-17.91"/>
</g>
<!-- Node30&#45;&gt;Node4 -->
<g id="edge54" class="edge">
<title>Node30&#45;&gt;Node4</title>
<path fill="none" stroke="midnightblue" d="M1951.76,-314.57C1852.48,-302.48 1666.74,-279.62 1660,-277 1637.7,-268.34 1638.43,-254.32 1616,-246 1460.26,-188.24 1408.95,-229.57 1244,-210 1242.54,-209.83 1241.06,-209.65 1239.56,-209.46"/>
<polygon fill="midnightblue" stroke="midnightblue" points="1239.95,-205.98 1229.59,-208.19 1239.06,-212.93 1239.95,-205.98"/>
</g>
<!-- Node30&#45;&gt;Node9 -->
<g id="edge53" class="edge">
<title>Node30&#45;&gt;Node9</title>
<path fill="none" stroke="midnightblue" d="M2074.26,-319.88C2167.39,-315.81 2339.53,-304.7 2394,-277 2499.07,-223.57 2495.24,-168.01 2556,-67 2562.79,-55.71 2570.88,-43.32 2577.34,-33.64"/>
<polygon fill="midnightblue" stroke="midnightblue" points="2580.27,-35.56 2582.95,-25.31 2574.46,-31.65 2580.27,-35.56"/>
</g>
<!-- Node34 -->
<g id="node28" class="node">
<title>Node34</title>
<g id="a_node28"><a xlink:href="../../d9/d3e/ublas__interface_8h.html" target="_top" xlink:title=" ">
<polygon fill="none" stroke="red" points="1862,-252 1862,-271 2006,-271 2006,-252 1862,-252"/>
<text text-anchor="middle" x="1934" y="-259" font-family="Helvetica,sans-Serif" font-size="10.00">includes/ublas_interface.h</text>
</a>
</g>
</g>
<!-- Node30&#45;&gt;Node34 -->
<g id="edge55" class="edge">
<title>Node30&#45;&gt;Node34</title>
<path fill="none" stroke="midnightblue" d="M2001.68,-313.48C1989.13,-304.02 1968.65,-288.6 1953.5,-277.19"/>
<polygon fill="midnightblue" stroke="midnightblue" points="1955.39,-274.23 1945.3,-271.01 1951.18,-279.82 1955.39,-274.23"/>
</g>
<!-- Node34&#45;&gt;Node2 -->
<g id="edge56" class="edge">
<title>Node34&#45;&gt;Node2</title>
<path fill="none" stroke="midnightblue" d="M1921.26,-251.97C1897.57,-236.59 1844.62,-204.47 1795,-190 1638.08,-144.25 1587.51,-193.87 1429,-154 1406.59,-148.36 1403.09,-140.78 1381,-134 1304.25,-110.45 1278.34,-128.3 1204,-98 1180.48,-88.41 1179.63,-76.31 1156,-67 1069.85,-33.06 959.86,-21.77 906.27,-18.15"/>
<polygon fill="midnightblue" stroke="midnightblue" points="906.22,-14.64 896.02,-17.5 905.78,-21.62 906.22,-14.64"/>
</g>
<!-- Node34&#45;&gt;Node4 -->
<g id="edge58" class="edge">
<title>Node34&#45;&gt;Node4</title>
<path fill="none" stroke="midnightblue" d="M1868.91,-251.97C1851.42,-249.84 1832.51,-247.69 1815,-246 1604.04,-225.69 1352.82,-210.56 1240.03,-204.24"/>
<polygon fill="midnightblue" stroke="midnightblue" points="1240.06,-200.74 1229.88,-203.68 1239.67,-207.73 1240.06,-200.74"/>
</g>
<!-- Node34&#45;&gt;Node9 -->
<g id="edge57" class="edge">
<title>Node34&#45;&gt;Node9</title>
<path fill="none" stroke="midnightblue" d="M1943.47,-251.98C1961.16,-236.61 2001.06,-204.5 2041,-190 2173.46,-141.92 2234.61,-225.57 2356,-154 2396.9,-129.89 2379.34,-94.56 2418,-67 2457.11,-39.11 2511.64,-26.48 2548.52,-20.85"/>
<polygon fill="midnightblue" stroke="midnightblue" points="2549.49,-24.25 2558.9,-19.38 2548.51,-17.32 2549.49,-24.25"/>
</g>
<!-- Node52&#45;&gt;Node2 -->
<g id="edge60" class="edge">
<title>Node52&#45;&gt;Node2</title>
<path fill="none" stroke="midnightblue" d="M1680.49,-246.42C1572.62,-219.33 1330.12,-157.35 1128,-98 1047.52,-74.37 953.78,-43.38 905.83,-27.27"/>
<polygon fill="midnightblue" stroke="midnightblue" points="906.9,-23.94 896.31,-24.07 904.67,-30.58 906.9,-23.94"/>
</g>
<!-- Node52&#45;&gt;Node3 -->
<g id="edge63" class="edge">
<title>Node52&#45;&gt;Node3</title>
<path fill="none" stroke="midnightblue" d="M1739.56,-246.33C1747.08,-204.61 1769.15,-82.23 1777.63,-35.2"/>
<polygon fill="midnightblue" stroke="midnightblue" points="1781.1,-35.66 1779.43,-25.2 1774.21,-34.42 1781.1,-35.66"/>
</g>
<!-- Node52&#45;&gt;Node4 -->
<g id="edge64" class="edge">
<title>Node52&#45;&gt;Node4</title>
<path fill="none" stroke="midnightblue" d="M1668.23,-248.02C1663.42,-247.29 1658.64,-246.61 1654,-246 1472.63,-222.24 1425.74,-230.74 1244,-210 1242.54,-209.83 1241.06,-209.66 1239.56,-209.48"/>
<polygon fill="midnightblue" stroke="midnightblue" points="1239.94,-206 1229.58,-208.23 1239.07,-212.95 1239.94,-206"/>
</g>
<!-- Node52&#45;&gt;Node6 -->
<g id="edge62" class="edge">
<title>Node52&#45;&gt;Node6</title>
<path fill="none" stroke="midnightblue" d="M1668.4,-248.36C1662.86,-247.51 1657.34,-246.71 1652,-246 1488.24,-224.09 1441.59,-252.76 1282,-210 1261.25,-204.44 1258.53,-196.33 1238,-190 1098.34,-146.97 1058.39,-156.54 914,-134 796.17,-115.6 656.23,-97 590.16,-88.41"/>
<polygon fill="midnightblue" stroke="midnightblue" points="590.58,-84.93 580.21,-87.12 589.68,-91.87 590.58,-84.93"/>
</g>
<!-- Node52&#45;&gt;Node9 -->
<g id="edge61" class="edge">
<title>Node52&#45;&gt;Node9</title>
<path fill="none" stroke="midnightblue" d="M1780.85,-246.43C1832.33,-230.44 1920.52,-204.67 1998,-190 2140.79,-162.97 2196.6,-225.71 2323,-154 2365.21,-130.05 2348.52,-93.78 2389,-67 2437.84,-34.69 2505.88,-23.05 2548.67,-18.86"/>
<polygon fill="midnightblue" stroke="midnightblue" points="2549.07,-22.34 2558.72,-17.97 2548.45,-15.36 2549.07,-22.34"/>
</g>
<!-- Node56&#45;&gt;Node2 -->
<g id="edge66" class="edge">
<title>Node56&#45;&gt;Node2</title>
<path fill="none" stroke="midnightblue" d="M963.58,-626.48C914.52,-618.4 840.53,-605.26 777,-590 513.37,-526.66 228,-595.13 228,-324 228,-324 228,-324 228,-143 228,-16.56 710.65,-14.19 841.57,-15.87"/>
<polygon fill="midnightblue" stroke="midnightblue" points="841.71,-19.37 851.76,-16.02 841.82,-12.38 841.71,-19.37"/>
</g>
<!-- Node56&#45;&gt;Node4 -->
<g id="edge70" class="edge">
<title>Node56&#45;&gt;Node4</title>
<path fill="none" stroke="midnightblue" d="M1015.31,-626.32C1002.06,-583.46 944.13,-393.99 936,-333 934.83,-324.19 933.73,-321.59 936,-313 944.73,-279.9 946.44,-266.31 974,-246 1016.38,-214.78 1076.15,-204.43 1120.4,-201.36"/>
<polygon fill="midnightblue" stroke="midnightblue" points="1120.66,-204.85 1130.44,-200.77 1120.25,-197.86 1120.66,-204.85"/>
</g>
<!-- Node56&#45;&gt;Node6 -->
<g id="edge68" class="edge">
<title>Node56&#45;&gt;Node6</title>
<path fill="none" stroke="midnightblue" d="M952.26,-627.61C897.89,-620.36 826,-607.79 803,-590 759.13,-556.06 597,-187.07 559.69,-101.26"/>
<polygon fill="midnightblue" stroke="midnightblue" points="562.88,-99.82 555.69,-92.04 556.46,-102.61 562.88,-99.82"/>
</g>
<!-- Node56&#45;&gt;Node9 -->
<g id="edge67" class="edge">
<title>Node56&#45;&gt;Node9</title>
<path fill="none" stroke="midnightblue" d="M1083.64,-633.8C1355.91,-628.71 2385.36,-608.34 2452,-590 2637.73,-538.89 2696.35,-494.72 2801,-333 2837.42,-276.72 2874,-268.04 2874,-201 2874,-201 2874,-201 2874,-143 2874,-37.18 2707.83,-19.21 2629.26,-16.62"/>
<polygon fill="midnightblue" stroke="midnightblue" points="2629.32,-13.12 2619.23,-16.36 2629.14,-20.12 2629.32,-13.12"/>
</g>
<!-- Node56&#45;&gt;Node17 -->
<g id="edge69" class="edge">
<title>Node56&#45;&gt;Node17</title>
<path fill="none" stroke="midnightblue" d="M957.52,-626.49C924.44,-619.97 883.67,-608.79 851,-590 760.17,-537.76 680.54,-436.99 651.1,-396.98"/>
<polygon fill="midnightblue" stroke="midnightblue" points="653.86,-394.82 645.16,-388.79 648.2,-398.93 653.86,-394.82"/>
</g>
<!-- Node56&#45;&gt;Node29 -->
<g id="edge89" class="edge">
<title>Node56&#45;&gt;Node29</title>
<path fill="none" stroke="midnightblue" d="M1020.18,-626.35C1031.2,-582.97 1080.78,-390.27 1098,-369 1109.76,-354.47 1127.52,-343.91 1143.51,-336.69"/>
<polygon fill="midnightblue" stroke="midnightblue" points="1145.32,-339.72 1153.17,-332.61 1142.6,-333.27 1145.32,-339.72"/>
</g>
<!-- Node56&#45;&gt;Node57 -->
<g id="edge71" class="edge">
<title>Node56&#45;&gt;Node57</title>
<path fill="none" stroke="midnightblue" d="M1004.39,-626.48C991.28,-618.27 970.99,-605.56 953.95,-594.88"/>
<polygon fill="midnightblue" stroke="midnightblue" points="955.72,-591.86 945.39,-589.52 952.01,-597.8 955.72,-591.86"/>
</g>
<!-- Node57&#45;&gt;Node2 -->
<g id="edge72" class="edge">
<title>Node57&#45;&gt;Node2</title>
<path fill="none" stroke="midnightblue" d="M860.24,-567.39C702.87,-550.33 304,-495.69 304,-380 304,-380 304,-380 304,-143 304,-32.06 720.74,-18.35 841.55,-16.71"/>
<polygon fill="midnightblue" stroke="midnightblue" points="841.7,-20.21 851.66,-16.59 841.62,-13.21 841.7,-20.21"/>
</g>
<!-- Node57&#45;&gt;Node3 -->
<g id="edge75" class="edge">
<title>Node57&#45;&gt;Node3</title>
<path fill="none" stroke="midnightblue" d="M985.62,-561.43C1133.74,-533.31 1517.5,-462.93 1841,-425 2058.76,-399.47 2122.5,-450.33 2333,-389 2383.4,-374.32 2410.08,-378.07 2437,-333 2487.11,-249.11 2361.89,-223.24 2270,-190 2077.62,-120.42 1974.97,-230.38 1819,-98 1799.79,-81.69 1789.7,-53.55 1784.86,-34.98"/>
<polygon fill="midnightblue" stroke="midnightblue" points="1788.23,-34.02 1782.54,-25.08 1781.41,-35.61 1788.23,-34.02"/>
</g>
<!-- Node57&#45;&gt;Node4 -->
<g id="edge76" class="edge">
<title>Node57&#45;&gt;Node4</title>
<path fill="none" stroke="midnightblue" d="M923.01,-559.28C922.53,-531.99 918.97,-470.89 898,-425 873,-370.29 792.12,-365.21 822,-313 851.19,-261.99 880.93,-266.53 936,-246 996.42,-223.48 1069.6,-211.91 1119.97,-206.18"/>
<polygon fill="midnightblue" stroke="midnightblue" points="1120.48,-209.65 1130.04,-205.08 1119.72,-202.69 1120.48,-209.65"/>
</g>
<!-- Node57&#45;&gt;Node9 -->
<g id="edge73" class="edge">
<title>Node57&#45;&gt;Node9</title>
<path fill="none" stroke="midnightblue" d="M985.74,-573.82C1191.97,-573.76 1866.87,-564.69 2411,-456 2584.92,-421.26 2760,-439.86 2760,-262.5 2760,-262.5 2760,-262.5 2760,-143 2760,-78.09 2679.38,-42.68 2628.85,-26.86"/>
<polygon fill="midnightblue" stroke="midnightblue" points="2629.76,-23.48 2619.18,-23.95 2627.75,-30.18 2629.76,-23.48"/>
</g>
<!-- Node57&#45;&gt;Node13 -->
<g id="edge88" class="edge">
<title>Node57&#45;&gt;Node13</title>
<path fill="none" stroke="midnightblue" d="M912.82,-559.33C901.1,-543.04 881.25,-515.53 864,-492 811.98,-421.02 773.62,-416.56 746,-333 732.76,-292.94 749.41,-270.16 784,-246 905.2,-161.33 1362.15,-147.52 1537.19,-145.36"/>
<polygon fill="midnightblue" stroke="midnightblue" points="1537.35,-148.86 1547.31,-145.24 1537.27,-141.86 1537.35,-148.86"/>
</g>
<!-- Node57&#45;&gt;Node17 -->
<g id="edge74" class="edge">
<title>Node57&#45;&gt;Node17</title>
<path fill="none" stroke="midnightblue" d="M907.31,-559.28C870.79,-526.36 780.58,-446.11 746,-425 723.73,-411.4 696.61,-400.05 675.25,-392.15"/>
<polygon fill="midnightblue" stroke="midnightblue" points="676.17,-388.76 665.57,-388.66 673.79,-395.34 676.17,-388.76"/>
</g>
<!-- Node57&#45;&gt;Node58 -->
<g id="edge77" class="edge">
<title>Node57&#45;&gt;Node58</title>
<path fill="none" stroke="midnightblue" d="M985.83,-571.64C1106.4,-567.47 1378.41,-555.05 1605,-523 1612.5,-521.94 1620.41,-520.54 1628.08,-519.04"/>
<polygon fill="midnightblue" stroke="midnightblue" points="1628.89,-522.44 1637.99,-517.01 1627.49,-515.59 1628.89,-522.44"/>
</g>
<!-- Node58&#45;&gt;Node2 -->
<g id="edge78" class="edge">
<title>Node58&#45;&gt;Node2</title>
<path fill="none" stroke="midnightblue" d="M1636.89,-497.94C1626.6,-495.77 1615.4,-493.61 1605,-492 1260.2,-438.69 1025.78,-578.38 850,-277 803.4,-197.1 846.14,-79.45 865.56,-34.69"/>
<polygon fill="midnightblue" stroke="midnightblue" points="868.83,-35.94 869.72,-25.39 862.44,-33.08 868.83,-35.94"/>
</g>
<!-- Node58&#45;&gt;Node4 -->
<g id="edge80" class="edge">
<title>Node58&#45;&gt;Node4</title>
<path fill="none" stroke="midnightblue" d="M1667.42,-497.88C1638.36,-460.47 1516.73,-311.17 1379,-246 1354.51,-234.41 1288.24,-220.61 1238.86,-211.37"/>
<polygon fill="midnightblue" stroke="midnightblue" points="1239.39,-207.91 1228.92,-209.53 1238.11,-214.79 1239.39,-207.91"/>
</g>
<!-- Node58&#45;&gt;Node9 -->
<g id="edge79" class="edge">
<title>Node58&#45;&gt;Node9</title>
<path fill="none" stroke="midnightblue" d="M1733.5,-503.39C1867.45,-496.12 2189.3,-477 2296,-456 2473.08,-421.14 2543.42,-447.41 2683,-333 2710.69,-310.3 2722,-298.31 2722,-262.5 2722,-262.5 2722,-262.5 2722,-143 2722,-104.83 2708.81,-94.17 2682,-67 2665.33,-50.11 2641.8,-37.41 2622.58,-28.97"/>
<polygon fill="midnightblue" stroke="midnightblue" points="2623.84,-25.7 2613.27,-25.05 2621.13,-32.15 2623.84,-25.7"/>
</g>
<!-- Node58&#45;&gt;Node15 -->
<g id="edge87" class="edge">
<title>Node58&#45;&gt;Node15</title>
<path fill="none" stroke="midnightblue" d="M1733.73,-502.13C1910.51,-488.59 2421.76,-444.88 2470,-389 2511.53,-340.89 2503.6,-299.95 2470,-246 2407.44,-145.57 2094.72,-155.15 2090,-154 2028.48,-139.06 1959.41,-111.99 1921.27,-96.09"/>
<polygon fill="midnightblue" stroke="midnightblue" points="1922.39,-92.77 1911.82,-92.11 1919.68,-99.22 1922.39,-92.77"/>
</g>
<!-- Node58&#45;&gt;Node73 -->
<g id="edge81" class="edge">
<title>Node58&#45;&gt;Node73</title>
<path fill="none" stroke="midnightblue" d="M1634.65,-497.93C1624.97,-495.9 1614.62,-493.81 1605,-492 1518.48,-475.75 1417.63,-459.6 1356.33,-450.08"/>
<polygon fill="midnightblue" stroke="midnightblue" points="1356.51,-446.57 1346.1,-448.5 1355.44,-453.49 1356.51,-446.57"/>
</g>
<!-- Node73&#45;&gt;Node2 -->
<g id="edge82" class="edge">
<title>Node73&#45;&gt;Node2</title>
<path fill="none" stroke="midnightblue" d="M1266.71,-430.96C1186.68,-410.13 988.61,-356.69 969,-333 893.04,-241.23 993.67,-171.24 936,-67 927.54,-51.7 912.4,-39.23 899.2,-30.51"/>
<polygon fill="midnightblue" stroke="midnightblue" points="900.81,-27.4 890.47,-25.09 897.11,-33.34 900.81,-27.4"/>
</g>
<!-- Node73&#45;&gt;Node4 -->
<g id="edge85" class="edge">
<title>Node73&#45;&gt;Node4</title>
<path fill="none" stroke="midnightblue" d="M1292.18,-430.8C1283.91,-421.19 1270.96,-404.95 1263,-389 1247.23,-357.43 1253.51,-345.6 1240,-313 1225.57,-278.19 1203.68,-239.96 1190.71,-218.38"/>
<polygon fill="midnightblue" stroke="midnightblue" points="1193.63,-216.43 1185.44,-209.71 1187.65,-220.07 1193.63,-216.43"/>
</g>
<!-- Node73&#45;&gt;Node9 -->
<g id="edge83" class="edge">
<title>Node73&#45;&gt;Node9</title>
<path fill="none" stroke="midnightblue" d="M1346.27,-438.02C1541.13,-431.7 2289.76,-406.51 2394,-389 2532.68,-365.71 2684,-403.12 2684,-262.5 2684,-262.5 2684,-262.5 2684,-143 2684,-107.58 2680.85,-95.64 2660,-67 2648.57,-51.3 2630.76,-38.65 2615.83,-29.94"/>
<polygon fill="midnightblue" stroke="midnightblue" points="2617.43,-26.82 2606.99,-25.03 2614.03,-32.94 2617.43,-26.82"/>
</g>
<!-- Node73&#45;&gt;Node17 -->
<g id="edge84" class="edge">
<title>Node73&#45;&gt;Node17</title>
<path fill="none" stroke="midnightblue" d="M1253.78,-435.34C1129.32,-424.14 788.92,-393.49 675.97,-383.33"/>
<polygon fill="midnightblue" stroke="midnightblue" points="676.04,-379.82 665.76,-382.41 675.41,-386.79 676.04,-379.82"/>
</g>
<!-- Node73&#45;&gt;Node18 -->
<g id="edge86" class="edge">
<title>Node73&#45;&gt;Node18</title>
<path fill="none" stroke="midnightblue" d="M1346.32,-433.08C1422.49,-422.51 1574.5,-401.43 1662.27,-389.25"/>
<polygon fill="midnightblue" stroke="midnightblue" points="1662.96,-392.69 1672.39,-387.85 1662,-385.76 1662.96,-392.69"/>
</g>
<!-- Node82&#45;&gt;Node2 -->
<g id="edge92" class="edge">
<title>Node82&#45;&gt;Node2</title>
<path fill="none" stroke="midnightblue" d="M688.1,-749.43C558.01,-721.76 190,-622.07 190,-380 190,-380 190,-380 190,-143 190,-99.96 212.06,-87.32 250,-67 302.43,-38.92 721.42,-21.94 841.78,-17.61"/>
<polygon fill="midnightblue" stroke="midnightblue" points="841.97,-21.1 851.84,-17.25 841.72,-14.11 841.97,-21.1"/>
</g>
<!-- Node82&#45;&gt;Node4 -->
<g id="edge96" class="edge">
<title>Node82&#45;&gt;Node4</title>
<path fill="none" stroke="midnightblue" d="M734.48,-749.18C744.66,-688.51 804.22,-334.59 812,-313 823.6,-280.79 821.65,-265.19 850,-246 892.92,-216.94 1037.56,-206.51 1120.4,-202.87"/>
<polygon fill="midnightblue" stroke="midnightblue" points="1120.59,-206.37 1130.44,-202.45 1120.3,-199.37 1120.59,-206.37"/>
</g>
<!-- Node82&#45;&gt;Node6 -->
<g id="edge94" class="edge">
<title>Node82&#45;&gt;Node6</title>
<path fill="none" stroke="midnightblue" d="M706.37,-749.41C685.26,-741.83 655.65,-729.43 633,-713 507.96,-622.3 454.76,-600.06 399,-456 394.03,-443.15 397.72,-438.72 399,-425 403.24,-379.52 418,-369.68 418,-324 418,-324 418,-324 418,-199 418,-146.51 477.72,-112.63 517.43,-95.9"/>
<polygon fill="midnightblue" stroke="midnightblue" points="518.84,-99.11 526.8,-92.11 516.21,-92.62 518.84,-99.11"/>
</g>
<!-- Node82&#45;&gt;Node9 -->
<g id="edge93" class="edge">
<title>Node82&#45;&gt;Node9</title>
<path fill="none" stroke="midnightblue" d="M781.32,-756.19C977.41,-748.81 1705.55,-720.97 1754,-713 1802.85,-704.96 1812.59,-692.37 1861,-682 2147.59,-620.62 2232.43,-671.35 2514,-590 2583.76,-569.85 2602.37,-562.95 2663,-523 2745.86,-468.41 2912,-271.14 2912,-262.5 2912,-262.5 2912,-262.5 2912,-143 2912,-101.82 2893.59,-89.34 2859,-67 2821.54,-42.81 2694.75,-27.02 2629.11,-20.26"/>
<polygon fill="midnightblue" stroke="midnightblue" points="2629.43,-16.77 2619.13,-19.25 2628.72,-23.74 2629.43,-16.77"/>
</g>
<!-- Node82&#45;&gt;Node17 -->
<g id="edge95" class="edge">
<title>Node82&#45;&gt;Node17</title>
<path fill="none" stroke="midnightblue" d="M726.52,-749.43C720.12,-740.65 710.39,-726.43 704,-713 665.85,-632.78 656.87,-610.57 642,-523 634.54,-479.09 636.06,-426.5 637.64,-398.96"/>
<polygon fill="midnightblue" stroke="midnightblue" points="641.15,-398.99 638.3,-388.79 634.16,-398.54 641.15,-398.99"/>
</g>
<!-- Node82&#45;&gt;Node29 -->
<g id="edge104" class="edge">
<title>Node82&#45;&gt;Node29</title>
<path fill="none" stroke="midnightblue" d="M781.07,-756.9C857.76,-752.48 1007.71,-732.51 1092,-646 1114.73,-622.67 1112,-608.07 1112,-575.5 1112,-575.5 1112,-575.5 1112,-439.5 1112,-399.24 1143.07,-360.64 1163.2,-339.84"/>
<polygon fill="midnightblue" stroke="midnightblue" points="1165.92,-342.08 1170.54,-332.54 1160.99,-337.11 1165.92,-342.08"/>
</g>
<!-- Node82&#45;&gt;Node57 -->
<g id="edge105" class="edge">
<title>Node82&#45;&gt;Node57</title>
<path fill="none" stroke="midnightblue" d="M741.91,-749.44C770.3,-722.18 859.2,-636.78 900.94,-596.69"/>
<polygon fill="midnightblue" stroke="midnightblue" points="903.37,-599.21 908.16,-589.75 898.52,-594.16 903.37,-599.21"/>
</g>
<!-- Node82&#45;&gt;Node86 -->
<g id="edge97" class="edge">
<title>Node82&#45;&gt;Node86</title>
<path fill="none" stroke="midnightblue" d="M717.31,-749.48C703.01,-741.27 681.78,-727.93 666,-713 580.96,-632.53 504.7,-513.9 474.62,-464.45"/>
<polygon fill="midnightblue" stroke="midnightblue" points="477.55,-462.53 469.38,-455.78 471.55,-466.15 477.55,-462.53"/>
</g>
<!-- Node82&#45;&gt;Node98 -->
<g id="edge106" class="edge">
<title>Node82&#45;&gt;Node98</title>
<path fill="none" stroke="midnightblue" d="M781.05,-751.58C858.92,-741.16 1013.2,-720.53 1104.8,-708.29"/>
<polygon fill="midnightblue" stroke="midnightblue" points="1105.39,-711.74 1114.83,-706.95 1104.46,-704.8 1105.39,-711.74"/>
</g>
<!-- Node86&#45;&gt;Node2 -->
<g id="edge99" class="edge">
<title>Node86&#45;&gt;Node2</title>
<path fill="none" stroke="midnightblue" d="M442.21,-425.34C418.29,-405.53 380,-367.11 380,-324 380,-324 380,-324 380,-143 380,-47.36 731.87,-23.05 841.67,-17.79"/>
<polygon fill="midnightblue" stroke="midnightblue" points="841.98,-21.28 851.81,-17.33 841.66,-14.29 841.98,-21.28"/>
</g>
<!-- Node86&#45;&gt;Node3 -->
<g id="edge98" class="edge">
<title>Node86&#45;&gt;Node3</title>
<path fill="none" stroke="midnightblue" d="M467.84,-425.29C477.5,-403.85 494,-361.75 494,-324 494,-324 494,-324 494,-143 494,-107.96 487.49,-88.71 515,-67 559.73,-31.7 1483.08,-33.71 1540,-31 1614,-27.48 1700.68,-21.91 1747.27,-18.8"/>
<polygon fill="midnightblue" stroke="midnightblue" points="1747.66,-22.28 1757.41,-18.12 1747.19,-15.29 1747.66,-22.28"/>
</g>
<!-- Node86&#45;&gt;Node4 -->
<g id="edge103" class="edge">
<title>Node86&#45;&gt;Node4</title>
<path fill="none" stroke="midnightblue" d="M475.27,-425.23C518.39,-382.25 645.92,-256.33 670,-246 749.59,-211.85 1003.52,-203.62 1120.26,-201.63"/>
<polygon fill="midnightblue" stroke="midnightblue" points="1120.5,-205.13 1130.45,-201.47 1120.39,-198.13 1120.5,-205.13"/>
</g>
<!-- Node86&#45;&gt;Node6 -->
<g id="edge101" class="edge">
<title>Node86&#45;&gt;Node6</title>
<path fill="none" stroke="midnightblue" d="M459.99,-425.28C458.53,-403.5 456,-360.53 456,-324 456,-324 456,-324 456,-260.5 456,-194.04 508.95,-128.67 536.2,-99.43"/>
<polygon fill="midnightblue" stroke="midnightblue" points="538.76,-101.81 543.14,-92.17 533.7,-96.98 538.76,-101.81"/>
</g>
<!-- Node86&#45;&gt;Node9 -->
<g id="edge100" class="edge">
<title>Node86&#45;&gt;Node9</title>
<path fill="none" stroke="midnightblue" d="M513.61,-438.41C812.76,-432.19 2287.82,-400.95 2333,-389 2471.48,-352.39 2536.03,-337.65 2601,-210 2629.93,-153.16 2627.5,-129.11 2613,-67 2610.28,-55.35 2604.62,-43.22 2599.48,-33.77"/>
<polygon fill="midnightblue" stroke="midnightblue" points="2602.47,-31.95 2594.46,-25.02 2596.4,-35.43 2602.47,-31.95"/>
</g>
<!-- Node86&#45;&gt;Node17 -->
<g id="edge102" class="edge">
<title>Node86&#45;&gt;Node17</title>
<path fill="none" stroke="midnightblue" d="M503.18,-425.4C533.81,-415.16 574.77,-401.47 603.67,-391.81"/>
<polygon fill="midnightblue" stroke="midnightblue" points="604.98,-395.06 613.36,-388.57 602.77,-388.42 604.98,-395.06"/>
</g>
<!-- Node98&#45;&gt;Node4 -->
<g id="edge107" class="edge">
<title>Node98&#45;&gt;Node4</title>
<path fill="none" stroke="midnightblue" d="M1165.97,-682.23C1115.5,-621.62 925.53,-385.29 969,-313 1003.46,-255.69 1078.23,-226.14 1128.85,-212.12"/>
<polygon fill="midnightblue" stroke="midnightblue" points="1129.86,-215.47 1138.63,-209.52 1128.07,-208.7 1129.86,-215.47"/>
</g>
<!-- Node98&#45;&gt;Node29 -->
<g id="edge108" class="edge">
<title>Node98&#45;&gt;Node29</title>
<path fill="none" stroke="midnightblue" d="M1178.08,-682.35C1178.38,-624.81 1179.55,-408.29 1179.9,-342.85"/>
<polygon fill="midnightblue" stroke="midnightblue" points="1183.4,-342.78 1179.95,-332.76 1176.4,-342.74 1183.4,-342.78"/>
</g>
<!-- Node98&#45;&gt;Node56 -->
<g id="edge110" class="edge">
<title>Node98&#45;&gt;Node56</title>
<path fill="none" stroke="midnightblue" d="M1140.08,-682.4C1112.88,-672.28 1076.6,-658.79 1050.67,-649.15"/>
<polygon fill="midnightblue" stroke="midnightblue" points="1051.87,-645.86 1041.28,-645.66 1049.43,-652.42 1051.87,-645.86"/>
</g>
<!-- Node98&#45;&gt;Node58 -->
<g id="edge109" class="edge">
<title>Node98&#45;&gt;Node58</title>
<path fill="none" stroke="midnightblue" d="M1215.28,-682.37C1309.1,-646.81 1553.78,-554.07 1641.84,-520.69"/>
<polygon fill="midnightblue" stroke="midnightblue" points="1643.19,-523.92 1651.3,-517.1 1640.71,-517.37 1643.19,-523.92"/>
</g>
<!-- Node109&#45;&gt;Node4 -->
<g id="edge112" class="edge">
<title>Node109&#45;&gt;Node4</title>
<path fill="none" stroke="midnightblue" d="M1539.21,-492.36C1542.6,-465.41 1546.04,-406.1 1518,-369 1494,-337.25 1469.05,-355.18 1436,-333 1389.8,-302 1394.37,-273.48 1346,-246 1326.33,-234.83 1271.8,-221.12 1230.56,-211.79"/>
<polygon fill="midnightblue" stroke="midnightblue" points="1231.18,-208.34 1220.66,-209.57 1229.65,-215.17 1231.18,-208.34"/>
</g>
<!-- Node110&#45;&gt;Node56 -->
<g id="edge114" class="edge">
<title>Node110&#45;&gt;Node56</title>
<path fill="none" stroke="midnightblue" d="M1171.3,-749.46C1153.81,-741.13 1127.27,-727.62 1106,-713 1079.12,-694.53 1051.12,-669.1 1034.12,-652.86"/>
<polygon fill="midnightblue" stroke="midnightblue" points="1036.33,-650.13 1026.71,-645.69 1031.46,-655.16 1036.33,-650.13"/>
</g>
<!-- Node110&#45;&gt;Node124 -->
<g id="edge115" class="edge">
<title>Node110&#45;&gt;Node124</title>
<path fill="none" stroke="midnightblue" d="M1245.3,-751.06C1329.5,-740.49 1490.18,-720.32 1586.15,-708.27"/>
<polygon fill="midnightblue" stroke="midnightblue" points="1586.6,-711.74 1596.09,-707.03 1585.73,-704.8 1586.6,-711.74"/>
</g>
<!-- Node124&#45;&gt;Node18 -->
<g id="edge118" class="edge">
<title>Node124&#45;&gt;Node18</title>
<path fill="none" stroke="midnightblue" d="M1681.03,-687.77C1711.69,-670.71 1773,-629.79 1773,-575.5 1773,-575.5 1773,-575.5 1773,-506.5 1773,-465.6 1752.23,-421.19 1739.23,-397.4"/>
<polygon fill="midnightblue" stroke="midnightblue" points="1742.19,-395.52 1734.22,-388.54 1736.1,-398.96 1742.19,-395.52"/>
</g>
<!-- Node124&#45;&gt;Node34 -->
<g id="edge119" class="edge">
<title>Node124&#45;&gt;Node34</title>
<path fill="none" stroke="midnightblue" d="M1683.26,-687.94C1754.64,-654.95 2004.08,-528.06 2083,-333 2086.33,-324.76 2088.18,-320.22 2083,-313 2071.35,-296.75 2024.29,-282.57 1986.13,-273.41"/>
<polygon fill="midnightblue" stroke="midnightblue" points="1986.68,-269.94 1976.14,-271.07 1985.08,-276.76 1986.68,-269.94"/>
</g>
<!-- Node125 -->
<g id="node40" class="node">
<title>Node125</title>
<g id="a_node40"><a xlink:title=" ">
<polygon fill="none" stroke="#bfbfbf" points="1537,-626.5 1537,-645.5 1605,-645.5 1605,-626.5 1537,-626.5"/>
<text text-anchor="middle" x="1571" y="-633.5" font-family="Helvetica,sans-Serif" font-size="10.00">filesystem</text>
</a>
</g>
</g>
<!-- Node124&#45;&gt;Node125 -->
<g id="edge116" class="edge">
<title>Node124&#45;&gt;Node125</title>
<path fill="none" stroke="midnightblue" d="M1650.68,-687.98C1635.62,-678.34 1610.88,-662.52 1592.96,-651.05"/>
<polygon fill="midnightblue" stroke="midnightblue" points="1594.61,-647.95 1584.3,-645.51 1590.84,-653.85 1594.61,-647.95"/>
</g>
<!-- Node126 -->
<g id="node41" class="node">
<title>Node126</title>
<g id="a_node41"><a xlink:title=" ">
<polygon fill="none" stroke="#bfbfbf" points="1623,-626.5 1623,-645.5 1727,-645.5 1727,-626.5 1623,-626.5"/>
<text text-anchor="middle" x="1675" y="-633.5" font-family="Helvetica,sans-Serif" font-size="10.00">json/json_fwd.hpp</text>
</a>
</g>
</g>
<!-- Node124&#45;&gt;Node126 -->
<g id="edge117" class="edge">
<title>Node124&#45;&gt;Node126</title>
<path fill="none" stroke="midnightblue" d="M1665.58,-687.98C1667.13,-679.58 1669.55,-666.48 1671.55,-655.66"/>
<polygon fill="midnightblue" stroke="midnightblue" points="1675.05,-655.98 1673.43,-645.51 1668.17,-654.71 1675.05,-655.98"/>
</g>
<!-- Node128&#45;&gt;Node56 -->
<g id="edge121" class="edge">
<title>Node128&#45;&gt;Node56</title>
<path fill="none" stroke="midnightblue" d="M1056.98,-749.3C1050.17,-729.68 1033.49,-681.64 1024.32,-655.19"/>
<polygon fill="midnightblue" stroke="midnightblue" points="1027.58,-653.92 1020.99,-645.62 1020.97,-656.22 1027.58,-653.92"/>
</g>
<!-- Node128&#45;&gt;Node124 -->
<g id="edge122" class="edge">
<title>Node128&#45;&gt;Node124</title>
<path fill="none" stroke="midnightblue" d="M1117.22,-750.05C1120.19,-749.68 1123.13,-749.33 1126,-749 1282.87,-730.95 1466.04,-714.8 1573.11,-705.86"/>
<polygon fill="midnightblue" stroke="midnightblue" points="1573.55,-709.34 1583.23,-705.02 1572.97,-702.36 1573.55,-709.34"/>
</g>
<!-- Node129&#45;&gt;Node2 -->
<g id="edge124" class="edge">
<title>Node129&#45;&gt;Node2</title>
<path fill="none" stroke="midnightblue" d="M676.85,-805.49C635.91,-798.32 579.51,-786.41 532,-769 277.22,-675.65 114,-595.35 114,-324 114,-324 114,-324 114,-143 114,-91.66 153.64,-86.83 201,-67 318.78,-17.7 723.81,-15.74 841.62,-16.25"/>
<polygon fill="midnightblue" stroke="midnightblue" points="841.77,-19.75 851.79,-16.3 841.81,-12.75 841.77,-19.75"/>
</g>
<!-- Node129&#45;&gt;Node4 -->
<g id="edge128" class="edge">
<title>Node129&#45;&gt;Node4</title>
<path fill="none" stroke="midnightblue" d="M714.92,-805.39C701.44,-797.87 684.03,-785.57 676,-769 672.12,-761 674.76,-757.8 676,-749 708.31,-518.72 643.38,-397.25 820,-246 863.88,-208.43 1029.7,-201.59 1120.19,-200.74"/>
<polygon fill="midnightblue" stroke="midnightblue" points="1120.33,-204.24 1130.31,-200.67 1120.28,-197.24 1120.33,-204.24"/>
</g>
<!-- Node129&#45;&gt;Node6 -->
<g id="edge126" class="edge">
<title>Node129&#45;&gt;Node6</title>
<path fill="none" stroke="midnightblue" d="M695.68,-805.48C642.38,-792.07 542.96,-762.36 471,-713 309.85,-602.45 266,-519.43 266,-324 266,-324 266,-324 266,-199 266,-146.15 436.03,-106.13 513.89,-90.58"/>
<polygon fill="midnightblue" stroke="midnightblue" points="514.66,-94 523.79,-88.63 513.31,-87.13 514.66,-94"/>
</g>
<!-- Node129&#45;&gt;Node9 -->
<g id="edge125" class="edge">
<title>Node129&#45;&gt;Node9</title>
<path fill="none" stroke="midnightblue" d="M802.55,-808.27C902.47,-799.97 1092.41,-783.96 1254,-769 1938.93,-705.6 2235.84,-941.15 2782,-523 2891.39,-439.25 2950,-400.27 2950,-262.5 2950,-262.5 2950,-262.5 2950,-143 2950,-100.51 2928.4,-88.92 2892,-67 2848.35,-40.71 2701.02,-25.53 2629.13,-19.52"/>
<polygon fill="midnightblue" stroke="midnightblue" points="2629.34,-16.03 2619.09,-18.7 2628.77,-23.01 2629.34,-16.03"/>
</g>
<!-- Node129&#45;&gt;Node17 -->
<g id="edge127" class="edge">
<title>Node129&#45;&gt;Node17</title>
<path fill="none" stroke="midnightblue" d="M694.27,-805.39C644.93,-791.87 566,-760.54 566,-698.5 566,-698.5 566,-698.5 566,-635 566,-542.65 610.8,-438.5 630.21,-397.71"/>
<polygon fill="midnightblue" stroke="midnightblue" points="633.44,-399.08 634.65,-388.55 627.14,-396.02 633.44,-399.08"/>
</g>
<!-- Node129&#45;&gt;Node82 -->
<g id="edge131" class="edge">
<title>Node129&#45;&gt;Node82</title>
<path fill="none" stroke="midnightblue" d="M733,-805.08C733,-798.01 733,-787.86 733,-778.99"/>
<polygon fill="midnightblue" stroke="midnightblue" points="736.5,-778.75 733,-768.75 729.5,-778.75 736.5,-778.75"/>
</g>
<!-- Node129&#45;&gt;Node110 -->
<g id="edge130" class="edge">
<title>Node129&#45;&gt;Node110</title>
<path fill="none" stroke="midnightblue" d="M802.64,-806.57C879.09,-798.3 1005.75,-784.22 1124.83,-769.12"/>
<polygon fill="midnightblue" stroke="midnightblue" points="1125.38,-772.58 1134.85,-767.85 1124.49,-765.64 1125.38,-772.58"/>
</g>
<!-- Node129&#45;&gt;Node128 -->
<g id="edge129" class="edge">
<title>Node129&#45;&gt;Node128</title>
<path fill="none" stroke="midnightblue" d="M784.81,-805.44C842.82,-795.87 936.74,-780.36 998.44,-770.17"/>
<polygon fill="midnightblue" stroke="midnightblue" points="999.13,-773.6 1008.43,-768.52 997.99,-766.69 999.13,-773.6"/>
</g>
<!-- Node113&#45;&gt;Node2 -->
<g id="edge133" class="edge">
<title>Node113&#45;&gt;Node2</title>
<path fill="none" stroke="midnightblue" d="M2348.78,-574.16C2091.88,-576.5 874,-571.3 874,-262.5 874,-262.5 874,-262.5 874,-143 874,-104.7 874,-59.88 874,-35.2"/>
<polygon fill="midnightblue" stroke="midnightblue" points="877.5,-35.09 874,-25.09 870.5,-35.09 877.5,-35.09"/>
</g>
<!-- Node113&#45;&gt;Node4 -->
<g id="edge136" class="edge">
<title>Node113&#45;&gt;Node4</title>
<path fill="none" stroke="midnightblue" d="M2376.76,-564.95C2309.86,-535.08 2081.59,-431.77 1900,-333 1884.93,-324.81 1883.2,-318.63 1867,-313 1744.73,-270.52 1703.38,-309.16 1578,-277 1541.87,-267.73 1536.08,-255.46 1500,-246 1387.87,-216.6 1353.88,-227.16 1239.89,-210.84"/>
<polygon fill="midnightblue" stroke="midnightblue" points="1240.12,-207.34 1229.72,-209.35 1239.1,-214.26 1240.12,-207.34"/>
</g>
<!-- Node113&#45;&gt;Node9 -->
<g id="edge134" class="edge">
<title>Node113&#45;&gt;Node9</title>
<path fill="none" stroke="midnightblue" d="M2423.47,-564.97C2450.87,-556.02 2493.85,-540.8 2529,-523 2626.78,-473.49 2657.67,-465.65 2736,-389 2780.75,-345.21 2798,-325.11 2798,-262.5 2798,-262.5 2798,-262.5 2798,-143 2798,-107.58 2799.54,-91.55 2774,-67 2734.95,-29.46 2670.8,-19.24 2629.24,-16.77"/>
<polygon fill="midnightblue" stroke="midnightblue" points="2629.34,-13.28 2619.19,-16.3 2629.01,-20.27 2629.34,-13.28"/>
</g>
<!-- Node113&#45;&gt;Node25 -->
<g id="edge135" class="edge">
<title>Node113&#45;&gt;Node25</title>
<path fill="none" stroke="midnightblue" d="M2442.6,-564.96C2466.49,-557.96 2493.53,-545.39 2508,-523 2561.46,-440.24 2519.93,-366.2 2437,-313 2336.96,-248.82 2275.69,-335.1 2172,-277 2147.94,-263.52 2129.5,-236.66 2119.21,-218.76"/>
<polygon fill="midnightblue" stroke="midnightblue" points="2122.21,-216.97 2114.34,-209.88 2116.07,-220.33 2122.21,-216.97"/>
</g>
<!-- Node113&#45;&gt;Node58 -->
<g id="edge137" class="edge">
<title>Node113&#45;&gt;Node58</title>
<path fill="none" stroke="midnightblue" d="M2348.91,-569.26C2225.15,-558.12 1890.24,-527.97 1743.95,-514.8"/>
<polygon fill="midnightblue" stroke="midnightblue" points="1744.03,-511.29 1733.75,-513.88 1743.4,-518.26 1744.03,-511.29"/>
</g>
<!-- Node130&#45;&gt;Node4 -->
<g id="edge143" class="edge">
<title>Node130&#45;&gt;Node4</title>
<path fill="none" stroke="midnightblue" d="M1849.33,-437.37C1753.62,-432.87 1545.08,-420.1 1372,-389 1338.05,-382.9 1330.59,-376.87 1297,-369 1218.41,-350.59 1170.1,-395.47 1119,-333 1089.03,-296.36 1135.68,-242.59 1162.79,-216.43"/>
<polygon fill="midnightblue" stroke="midnightblue" points="1165.25,-218.92 1170.16,-209.53 1160.47,-213.81 1165.25,-218.92"/>
</g>
<!-- Node130&#45;&gt;Node10 -->
<g id="edge140" class="edge">
<title>Node130&#45;&gt;Node10</title>
<path fill="none" stroke="midnightblue" d="M1954.6,-438.78C2088.76,-436.39 2435.58,-426.61 2470,-389 2512.9,-342.11 2503.6,-299.95 2470,-246 2394.46,-124.74 2296.44,-202.33 2162,-154 2122.23,-139.7 2080.1,-113.91 2055.75,-97.8"/>
<polygon fill="midnightblue" stroke="midnightblue" points="2057.58,-94.82 2047.33,-92.15 2053.68,-100.63 2057.58,-94.82"/>
</g>
<!-- Node130&#45;&gt;Node18 -->
<g id="edge144" class="edge">
<title>Node130&#45;&gt;Node18</title>
<path fill="none" stroke="midnightblue" d="M1861,-425.4C1831.37,-415.21 1791.77,-401.59 1763.7,-391.93"/>
<polygon fill="midnightblue" stroke="midnightblue" points="1764.52,-388.51 1753.92,-388.57 1762.24,-395.13 1764.52,-388.51"/>
</g>
<!-- Node130&#45;&gt;Node23 -->
<g id="edge142" class="edge">
<title>Node130&#45;&gt;Node23</title>
<path fill="none" stroke="midnightblue" d="M1849.37,-436.8C1749.47,-431.22 1525.64,-416.6 1339,-389 1242.17,-374.68 1130.23,-349.37 1069.61,-334.92"/>
<polygon fill="midnightblue" stroke="midnightblue" points="1070.16,-331.45 1059.62,-332.52 1068.53,-338.26 1070.16,-331.45"/>
</g>
<!-- Node78 -->
<g id="node46" class="node">
<title>Node78</title>
<g id="a_node46"><a xlink:title=" ">
<polygon fill="none" stroke="#bfbfbf" points="2358.5,-313.5 2358.5,-332.5 2427.5,-332.5 2427.5,-313.5 2358.5,-313.5"/>
<text text-anchor="middle" x="2393" y="-320.5" font-family="Helvetica,sans-Serif" font-size="10.00">type_traits</text>
</a>
</g>
</g>
<!-- Node130&#45;&gt;Node78 -->
<g id="edge141" class="edge">
<title>Node130&#45;&gt;Node78</title>
<path fill="none" stroke="midnightblue" d="M1954.52,-437.87C2054.49,-434.03 2267.96,-422.12 2333,-389 2354.31,-378.15 2371.89,-356.46 2382.4,-341.12"/>
<polygon fill="midnightblue" stroke="midnightblue" points="2385.46,-342.84 2387.99,-332.55 2379.6,-339.01 2385.46,-342.84"/>
</g>
<!-- Node108&#45;&gt;Node4 -->
<g id="edge147" class="edge">
<title>Node108&#45;&gt;Node4</title>
<path fill="none" stroke="midnightblue" d="M1435.92,-369.45C1426.4,-360.45 1411.04,-345.84 1398,-333 1359.25,-294.86 1358.07,-274.87 1312,-246 1287.01,-230.34 1255.91,-219.39 1230.17,-212.22"/>
<polygon fill="midnightblue" stroke="midnightblue" points="1230.8,-208.76 1220.24,-209.56 1228.99,-215.52 1230.8,-208.76"/>
</g>
<!-- Node108&#45;&gt;Node29 -->
<g id="edge148" class="edge">
<title>Node108&#45;&gt;Node29</title>
<path fill="none" stroke="midnightblue" d="M1403.01,-369.44C1356.59,-359.98 1281.77,-344.74 1231.76,-334.55"/>
<polygon fill="midnightblue" stroke="midnightblue" points="1232.29,-331.08 1221.79,-332.52 1230.89,-337.94 1232.29,-331.08"/>
</g>
<!-- Node77&#45;&gt;Node2 -->
<g id="edge153" class="edge">
<title>Node77&#45;&gt;Node2</title>
<path fill="none" stroke="midnightblue" d="M2228.31,-369.17C2194.81,-346.19 2100.68,-283.68 2015,-246 1937.92,-212.1 1916.57,-206.53 1834,-190 1668.96,-156.95 1618.3,-202.11 1457,-154 1438.71,-148.55 1437.01,-140.32 1419,-134 1339.13,-105.99 1308.67,-133.84 1232,-98 1212.25,-88.77 1213.9,-75.9 1194,-67 1095.88,-23.13 965.93,-16.62 906.35,-16.13"/>
<polygon fill="midnightblue" stroke="midnightblue" points="906.08,-12.63 896.07,-16.11 906.06,-19.63 906.08,-12.63"/>
</g>
<!-- Node77&#45;&gt;Node4 -->
<g id="edge158" class="edge">
<title>Node77&#45;&gt;Node4</title>
<path fill="none" stroke="midnightblue" d="M2157.71,-371.83C2097.16,-365.81 2013.76,-354.32 1943,-333 1922.82,-326.92 1920.25,-318.84 1900,-313 1777.75,-277.75 1732.93,-327.15 1616,-277 1595.97,-268.41 1598.11,-254.4 1578,-246 1440.24,-188.43 1392.17,-228.4 1244,-210 1242.54,-209.82 1241.06,-209.63 1239.57,-209.44"/>
<polygon fill="midnightblue" stroke="midnightblue" points="1239.96,-205.96 1229.59,-208.14 1239.05,-212.9 1239.96,-205.96"/>
</g>
<!-- Node77&#45;&gt;Node9 -->
<g id="edge154" class="edge">
<title>Node77&#45;&gt;Node9</title>
<path fill="none" stroke="midnightblue" d="M2252.46,-369.5C2271.65,-355.64 2311.96,-328.23 2350,-313 2416.86,-286.23 2443.89,-309.83 2508,-277 2528.04,-266.74 2574.47,-230.4 2584,-210 2611.47,-151.21 2600.34,-71.01 2593.22,-35.16"/>
<polygon fill="midnightblue" stroke="midnightblue" points="2596.59,-34.21 2591.1,-25.15 2589.75,-35.66 2596.59,-34.21"/>
</g>
<!-- Node77&#45;&gt;Node29 -->
<g id="edge157" class="edge">
<title>Node77&#45;&gt;Node29</title>
<path fill="none" stroke="midnightblue" d="M2157.75,-373.76C1951.92,-363.29 1422.76,-336.36 1241.78,-327.14"/>
<polygon fill="midnightblue" stroke="midnightblue" points="1241.8,-323.64 1231.63,-326.63 1241.44,-330.63 1241.8,-323.64"/>
</g>
<!-- Node77&#45;&gt;Node30 -->
<g id="edge156" class="edge">
<title>Node77&#45;&gt;Node30</title>
<path fill="none" stroke="midnightblue" d="M2204.87,-369.44C2165.35,-360.08 2101.9,-345.06 2058.89,-334.87"/>
<polygon fill="midnightblue" stroke="midnightblue" points="2059.5,-331.42 2048.96,-332.52 2057.88,-338.23 2059.5,-331.42"/>
</g>
<!-- Node77&#45;&gt;Node78 -->
<g id="edge155" class="edge">
<title>Node77&#45;&gt;Node78</title>
<path fill="none" stroke="midnightblue" d="M2265.08,-369.44C2290.54,-360.4 2330.89,-346.06 2359.46,-335.92"/>
<polygon fill="midnightblue" stroke="midnightblue" points="2360.78,-339.16 2369.03,-332.52 2358.43,-332.57 2360.78,-339.16"/>
</g>
<!-- Node79 -->
<g id="node49" class="node">
<title>Node79</title>
<g id="a_node49"><a xlink:href="../../da/dae/mpi__serializer_8h.html" target="_top" xlink:title=" ">
<polygon fill="none" stroke="red" points="2214.5,-252 2214.5,-271 2351.5,-271 2351.5,-252 2214.5,-252"/>
<text text-anchor="middle" x="2283" y="-259" font-family="Helvetica,sans-Serif" font-size="10.00">includes/mpi_serializer.h</text>
</a>
</g>
</g>
<!-- Node77&#45;&gt;Node79 -->
<g id="edge159" class="edge">
<title>Node77&#45;&gt;Node79</title>
<path fill="none" stroke="midnightblue" d="M2244.16,-369.32C2250.97,-350.59 2267.17,-306.05 2276.35,-280.79"/>
<polygon fill="midnightblue" stroke="midnightblue" points="2279.68,-281.88 2279.81,-271.28 2273.1,-279.48 2279.68,-281.88"/>
</g>
<!-- Node79&#45;&gt;Node2 -->
<g id="edge160" class="edge">
<title>Node79&#45;&gt;Node2</title>
<path fill="none" stroke="midnightblue" d="M2281.43,-251.69C2278.13,-236.15 2268.92,-204.19 2247,-190 2180.89,-147.18 1615.53,-172.63 1539,-154 1518.13,-148.92 1515.47,-140.52 1495,-134 1414.36,-108.31 1384.67,-133.84 1308,-98 1288.25,-88.77 1290.03,-75.6 1270,-67 1204.49,-38.87 988.52,-23.34 906.23,-18.32"/>
<polygon fill="midnightblue" stroke="midnightblue" points="906.4,-14.83 896.21,-17.72 905.98,-21.81 906.4,-14.83"/>
</g>
<!-- Node79&#45;&gt;Node4 -->
<g id="edge163" class="edge">
<title>Node79&#45;&gt;Node4</title>
<path fill="none" stroke="midnightblue" d="M2214.43,-256.79C2160.28,-253.85 2082.81,-249.66 2015,-246 1724.66,-230.32 1377.53,-211.63 1240.18,-204.24"/>
<polygon fill="midnightblue" stroke="midnightblue" points="1240.06,-200.73 1229.88,-203.68 1239.68,-207.72 1240.06,-200.73"/>
</g>
<!-- Node79&#45;&gt;Node9 -->
<g id="edge162" class="edge">
<title>Node79&#45;&gt;Node9</title>
<path fill="none" stroke="midnightblue" d="M2296.02,-251.81C2320.95,-234.8 2376.47,-195.19 2416,-154 2449.24,-119.37 2442.83,-97.38 2480,-67 2501.1,-49.75 2529.06,-36.96 2551.37,-28.56"/>
<polygon fill="midnightblue" stroke="midnightblue" points="2552.66,-31.82 2560.87,-25.12 2550.28,-25.24 2552.66,-31.82"/>
</g>
<!-- Node79&#45;&gt;Node21 -->
<g id="edge161" class="edge">
<title>Node79&#45;&gt;Node21</title>
<path fill="none" stroke="midnightblue" d="M2272.97,-251.98C2261.95,-242.61 2244.04,-227.38 2230.66,-216.01"/>
<polygon fill="midnightblue" stroke="midnightblue" points="2232.9,-213.32 2223.01,-209.51 2228.36,-218.65 2232.9,-213.32"/>
</g>
<!-- Node132&#45;&gt;Node2 -->
<g id="edge166" class="edge">
<title>Node132&#45;&gt;Node2</title>
<path fill="none" stroke="midnightblue" d="M973.96,-925.07C827.55,-922.19 431.02,-911.71 304,-881 148.07,-843.3 38,-797.43 38,-637 38,-637 38,-637 38,-143 38,-103.05 51.65,-87.39 86,-67 151.77,-27.95 701.79,-18.61 841.72,-16.85"/>
<polygon fill="midnightblue" stroke="midnightblue" points="841.85,-20.35 851.8,-16.73 841.76,-13.35 841.85,-20.35"/>
</g>
<!-- Node132&#45;&gt;Node4 -->
<g id="edge169" class="edge">
<title>Node132&#45;&gt;Node4</title>
<path fill="none" stroke="midnightblue" d="M973.99,-924.28C792.46,-917.9 224,-891.86 224,-816 224,-816 224,-816 224,-758 224,-569.43 391.52,-592.13 522,-456 558.56,-417.86 562.9,-403.4 603,-369 676.82,-305.68 692.8,-279.81 784,-246 844.17,-223.69 1025.05,-210.09 1120.12,-204.28"/>
<polygon fill="midnightblue" stroke="midnightblue" points="1120.39,-207.77 1130.16,-203.68 1119.97,-200.79 1120.39,-207.77"/>
</g>
<!-- Node132&#45;&gt;Node9 -->
<g id="edge167" class="edge">
<title>Node132&#45;&gt;Node9</title>
<path fill="none" stroke="midnightblue" d="M1084.02,-924.67C1350.18,-917.45 2504.14,-877.02 2817,-713 3012.48,-610.52 3026,-483.22 3026,-262.5 3026,-262.5 3026,-262.5 3026,-143 3026,-99.13 3001.37,-88.28 2963,-67 2906.34,-35.57 2713.98,-22.56 2629.43,-18.27"/>
<polygon fill="midnightblue" stroke="midnightblue" points="2629.35,-14.76 2619.19,-17.77 2629.01,-21.75 2629.35,-14.76"/>
</g>
<!-- Node132&#45;&gt;Node16 -->
<g id="edge170" class="edge">
<title>Node132&#45;&gt;Node16</title>
<path fill="none" stroke="midnightblue" d="M1064.34,-917.44C1102.91,-908.1 1164.78,-893.12 1206.85,-882.93"/>
<polygon fill="midnightblue" stroke="midnightblue" points="1207.93,-886.27 1216.83,-880.52 1206.29,-879.47 1207.93,-886.27"/>
</g>
<!-- Node132&#45;&gt;Node23 -->
<g id="edge168" class="edge">
<title>Node132&#45;&gt;Node23</title>
<path fill="none" stroke="midnightblue" d="M999.86,-917.43C959.1,-903.45 890,-871.55 890,-816 890,-816 890,-816 890,-758 890,-667.87 822.76,-644.59 851,-559 882.64,-463.09 970.2,-374.32 1007.64,-339.52"/>
<polygon fill="midnightblue" stroke="midnightblue" points="1010.22,-341.9 1015.23,-332.57 1005.5,-336.74 1010.22,-341.9"/>
</g>
</g>
</svg>
