<?xml version="1.0" encoding="UTF-8" standalone="no"?>
<!DOCTYPE svg PUBLIC "-//W3C//DTD SVG 1.1//EN"
 "http://www.w3.org/Graphics/SVG/1.1/DTD/svg11.dtd">
<!-- Generated by graphviz version 2.43.0 (0)
 -->
<!-- Title: /home/runner/work/Documentation/Documentation/master/applications/ThermalDEMApplication/custom_utilities/numerical_integration_adaptive_simpson.h Pages: 1 -->
<svg width="3434pt" height="1045pt"
 viewBox="0.00 0.00 3434.00 1045.00" xmlns="http://www.w3.org/2000/svg" xmlns:xlink="http://www.w3.org/1999/xlink">
<g id="graph0" class="graph" transform="scale(1 1) rotate(0) translate(4 1041)">
<title>/home/runner/work/Documentation/Documentation/master/applications/ThermalDEMApplication/custom_utilities/numerical_integration_adaptive_simpson.h</title>
<!-- Node1 -->
<g id="node1" class="node">
<title>Node1</title>
<g id="a_node1"><a xlink:title=" ">
<polygon fill="#bfbfbf" stroke="black" points="2534,-984.5 2534,-1036.5 2764,-1036.5 2764,-984.5 2534,-984.5"/>
<text text-anchor="start" x="2542" y="-1024.5" font-family="Helvetica,sans-Serif" font-size="10.00">/home/runner/work/Documentation</text>
<text text-anchor="start" x="2542" y="-1013.5" font-family="Helvetica,sans-Serif" font-size="10.00">/Documentation/master/applications</text>
<text text-anchor="start" x="2542" y="-1002.5" font-family="Helvetica,sans-Serif" font-size="10.00">/ThermalDEMApplication/custom_utilities</text>
<text text-anchor="middle" x="2649" y="-991.5" font-family="Helvetica,sans-Serif" font-size="10.00">/numerical_integration_adaptive_simpson.h</text>
</a>
</g>
</g>
<!-- Node2 -->
<g id="node2" class="node">
<title>Node2</title>
<g id="a_node2"><a xlink:title=" ">
<polygon fill="none" stroke="#bfbfbf" points="2532,-923 2532,-942 2576,-942 2576,-923 2532,-923"/>
<text text-anchor="middle" x="2554" y="-930" font-family="Helvetica,sans-Serif" font-size="10.00">limits</text>
</a>
</g>
</g>
<!-- Node1&#45;&gt;Node2 -->
<g id="edge1" class="edge">
<title>Node1&#45;&gt;Node2</title>
<path fill="none" stroke="midnightblue" d="M2617.63,-984.4C2602.88,-972.6 2585.77,-958.91 2573.01,-948.7"/>
<polygon fill="midnightblue" stroke="midnightblue" points="2574.95,-945.77 2564.95,-942.26 2570.57,-951.24 2574.95,-945.77"/>
</g>
<!-- Node3 -->
<g id="node3" class="node">
<title>Node3</title>
<g id="a_node3"><a xlink:href="../../df/d67/define_8h.html" target="_top" xlink:title=" ">
<polygon fill="none" stroke="black" points="2434.5,-190.5 2434.5,-209.5 2533.5,-209.5 2533.5,-190.5 2434.5,-190.5"/>
<text text-anchor="middle" x="2484" y="-197.5" font-family="Helvetica,sans-Serif" font-size="10.00">includes/define.h</text>
</a>
</g>
</g>
<!-- Node1&#45;&gt;Node3 -->
<g id="edge2" class="edge">
<title>Node1&#45;&gt;Node3</title>
<path fill="none" stroke="midnightblue" d="M2764.07,-1000.87C2980.36,-983.09 3426,-938.4 3426,-872 3426,-872 3426,-872 3426,-450.5 3426,-352.76 3189.32,-275.64 3079,-246 2979.28,-219.21 2674.06,-206.86 2543.86,-202.7"/>
<polygon fill="midnightblue" stroke="midnightblue" points="2543.78,-199.2 2533.68,-202.38 2543.56,-206.19 2543.78,-199.2"/>
</g>
<!-- Node17 -->
<g id="node17" class="node">
<title>Node17</title>
<g id="a_node17"><a xlink:href="../../dd/dfe/model__part_8h.html" target="_top" xlink:title=" ">
<polygon fill="none" stroke="black" points="1906.5,-861.5 1906.5,-880.5 2031.5,-880.5 2031.5,-861.5 1906.5,-861.5"/>
<text text-anchor="middle" x="1969" y="-868.5" font-family="Helvetica,sans-Serif" font-size="10.00">includes/model_part.h</text>
</a>
</g>
</g>
<!-- Node1&#45;&gt;Node17 -->
<g id="edge25" class="edge">
<title>Node1&#45;&gt;Node17</title>
<path fill="none" stroke="midnightblue" d="M2639.05,-984.26C2628.97,-962.37 2611.11,-931.92 2585,-917 2538.87,-890.64 2194.94,-878.12 2041.98,-873.81"/>
<polygon fill="midnightblue" stroke="midnightblue" points="2041.84,-870.31 2031.74,-873.53 2041.64,-877.31 2041.84,-870.31"/>
</g>
<!-- Node132 -->
<g id="node50" class="node">
<title>Node132</title>
<g id="a_node50"><a xlink:href="../../db/d86/numerical__integration__method_8h.html" target="_top" xlink:title=" ">
<polygon fill="none" stroke="black" points="2632,-917.5 2632,-947.5 2756,-947.5 2756,-917.5 2632,-917.5"/>
<text text-anchor="start" x="2640" y="-935.5" font-family="Helvetica,sans-Serif" font-size="10.00">numerical_integration</text>
<text text-anchor="middle" x="2694" y="-924.5" font-family="Helvetica,sans-Serif" font-size="10.00">_method.h</text>
</a>
</g>
</g>
<!-- Node1&#45;&gt;Node132 -->
<g id="edge183" class="edge">
<title>Node1&#45;&gt;Node132</title>
<path fill="none" stroke="midnightblue" d="M2663.98,-984.19C2669.24,-975.31 2675.12,-965.39 2680.27,-956.69"/>
<polygon fill="midnightblue" stroke="midnightblue" points="2683.42,-958.23 2685.51,-947.85 2677.4,-954.67 2683.42,-958.23"/>
</g>
<!-- Node4 -->
<g id="node4" class="node">
<title>Node4</title>
<g id="a_node4"><a xlink:title=" ">
<polygon fill="none" stroke="#bfbfbf" points="1815.5,-73 1815.5,-92 1880.5,-92 1880.5,-73 1815.5,-73"/>
<text text-anchor="middle" x="1848" y="-80" font-family="Helvetica,sans-Serif" font-size="10.00">stdexcept</text>
</a>
</g>
</g>
<!-- Node3&#45;&gt;Node4 -->
<g id="edge3" class="edge">
<title>Node3&#45;&gt;Node4</title>
<path fill="none" stroke="midnightblue" d="M2436.98,-190.46C2317.84,-168.82 2005.5,-112.1 1890.93,-91.3"/>
<polygon fill="midnightblue" stroke="midnightblue" points="1891.26,-87.8 1880.79,-89.46 1890.01,-94.69 1891.26,-87.8"/>
</g>
<!-- Node5 -->
<g id="node5" class="node">
<title>Node5</title>
<g id="a_node5"><a xlink:title=" ">
<polygon fill="none" stroke="#bfbfbf" points="523,-73 523,-92 579,-92 579,-73 523,-73"/>
<text text-anchor="middle" x="551" y="-80" font-family="Helvetica,sans-Serif" font-size="10.00">sstream</text>
</a>
</g>
</g>
<!-- Node3&#45;&gt;Node5 -->
<g id="edge4" class="edge">
<title>Node3&#45;&gt;Node5</title>
<path fill="none" stroke="midnightblue" d="M2434.41,-197.22C2290.34,-191.95 1859.33,-175.43 1502,-154 1147.16,-132.72 718.56,-97.54 589.54,-86.75"/>
<polygon fill="midnightblue" stroke="midnightblue" points="589.63,-83.24 579.38,-85.9 589.05,-90.22 589.63,-83.24"/>
</g>
<!-- Node6 -->
<g id="node6" class="node">
<title>Node6</title>
<g id="a_node6"><a xlink:href="../../dc/d25/kratos__export__api_8h.html" target="_top" xlink:title=" ">
<polygon fill="none" stroke="black" points="2082,-0.5 2082,-30.5 2210,-30.5 2210,-0.5 2082,-0.5"/>
<text text-anchor="start" x="2090" y="-18.5" font-family="Helvetica,sans-Serif" font-size="10.00">includes/kratos_export</text>
<text text-anchor="middle" x="2146" y="-7.5" font-family="Helvetica,sans-Serif" font-size="10.00">_api.h</text>
</a>
</g>
</g>
<!-- Node3&#45;&gt;Node6 -->
<g id="edge5" class="edge">
<title>Node3&#45;&gt;Node6</title>
<path fill="none" stroke="midnightblue" d="M2487.08,-190.25C2494.67,-166.9 2511.49,-102.51 2480,-67 2446.64,-29.38 2308.14,-19.5 2220.3,-17.08"/>
<polygon fill="midnightblue" stroke="midnightblue" points="2220.2,-13.57 2210.11,-16.82 2220.02,-20.57 2220.2,-13.57"/>
</g>
<!-- Node7 -->
<g id="node7" class="node">
<title>Node7</title>
<g id="a_node7"><a xlink:href="../../d9/dc0/smart__pointers_8h.html" target="_top" xlink:title=" ">
<polygon fill="none" stroke="black" points="2327.5,-134.5 2327.5,-153.5 2470.5,-153.5 2470.5,-134.5 2327.5,-134.5"/>
<text text-anchor="middle" x="2399" y="-141.5" font-family="Helvetica,sans-Serif" font-size="10.00">includes/smart_pointers.h</text>
</a>
</g>
</g>
<!-- Node3&#45;&gt;Node7 -->
<g id="edge6" class="edge">
<title>Node3&#45;&gt;Node7</title>
<path fill="none" stroke="midnightblue" d="M2470.34,-190.32C2457.08,-181.9 2436.73,-168.97 2421.15,-159.07"/>
<polygon fill="midnightblue" stroke="midnightblue" points="2422.94,-156.06 2412.62,-153.65 2419.19,-161.97 2422.94,-156.06"/>
</g>
<!-- Node12 -->
<g id="node12" class="node">
<title>Node12</title>
<g id="a_node12"><a xlink:href="../../dd/d2d/exception_8h.html" target="_top" xlink:title=" ">
<polygon fill="none" stroke="black" points="1511.5,-134.5 1511.5,-153.5 1628.5,-153.5 1628.5,-134.5 1511.5,-134.5"/>
<text text-anchor="middle" x="1570" y="-141.5" font-family="Helvetica,sans-Serif" font-size="10.00">includes/exception.h</text>
</a>
</g>
</g>
<!-- Node3&#45;&gt;Node12 -->
<g id="edge11" class="edge">
<title>Node3&#45;&gt;Node12</title>
<path fill="none" stroke="midnightblue" d="M2434.21,-196.06C2280.81,-187 1815.12,-159.48 1638.72,-149.06"/>
<polygon fill="midnightblue" stroke="midnightblue" points="1638.72,-145.55 1628.53,-148.46 1638.3,-152.54 1638.72,-145.55"/>
</g>
<!-- Node8 -->
<g id="node8" class="node">
<title>Node8</title>
<g id="a_node8"><a xlink:title=" ">
<polygon fill="none" stroke="#bfbfbf" points="882,-6 882,-25 942,-25 942,-6 882,-6"/>
<text text-anchor="middle" x="912" y="-13" font-family="Helvetica,sans-Serif" font-size="10.00">iostream</text>
</a>
</g>
</g>
<!-- Node7&#45;&gt;Node8 -->
<g id="edge7" class="edge">
<title>Node7&#45;&gt;Node8</title>
<path fill="none" stroke="midnightblue" d="M2327.25,-135.12C2237.17,-124.93 2091.53,-107.39 2068,-98 2046.12,-89.26 2047.25,-74.75 2025,-67 1922.24,-31.23 1140.3,-19.33 952.47,-16.97"/>
<polygon fill="midnightblue" stroke="midnightblue" points="952.26,-13.47 942.21,-16.84 952.17,-20.47 952.26,-13.47"/>
</g>
<!-- Node9 -->
<g id="node9" class="node">
<title>Node9</title>
<g id="a_node9"><a xlink:title=" ">
<polygon fill="none" stroke="#bfbfbf" points="1937.5,-73 1937.5,-92 1982.5,-92 1982.5,-73 1937.5,-73"/>
<text text-anchor="middle" x="1960" y="-80" font-family="Helvetica,sans-Serif" font-size="10.00">utility</text>
</a>
</g>
</g>
<!-- Node7&#45;&gt;Node9 -->
<g id="edge8" class="edge">
<title>Node7&#45;&gt;Node9</title>
<path fill="none" stroke="midnightblue" d="M2327.31,-135.59C2253.76,-127.65 2136.1,-114 2035,-98 2021.05,-95.79 2005.72,-92.91 1992.58,-90.3"/>
<polygon fill="midnightblue" stroke="midnightblue" points="1993.07,-86.83 1982.58,-88.28 1991.69,-93.69 1993.07,-86.83"/>
</g>
<!-- Node10 -->
<g id="node10" class="node">
<title>Node10</title>
<g id="a_node10"><a xlink:title=" ">
<polygon fill="none" stroke="#bfbfbf" points="2271,-73 2271,-92 2329,-92 2329,-73 2271,-73"/>
<text text-anchor="middle" x="2300" y="-80" font-family="Helvetica,sans-Serif" font-size="10.00">memory</text>
</a>
</g>
</g>
<!-- Node7&#45;&gt;Node10 -->
<g id="edge9" class="edge">
<title>Node7&#45;&gt;Node10</title>
<path fill="none" stroke="midnightblue" d="M2384.82,-134.48C2368.64,-124.75 2341.97,-108.73 2322.86,-97.24"/>
<polygon fill="midnightblue" stroke="midnightblue" points="2324.53,-94.16 2314.16,-92.01 2320.93,-100.16 2324.53,-94.16"/>
</g>
<!-- Node11 -->
<g id="node11" class="node">
<title>Node11</title>
<g id="a_node11"><a xlink:title=" ">
<polygon fill="none" stroke="#bfbfbf" points="2347,-67.5 2347,-97.5 2471,-97.5 2471,-67.5 2347,-67.5"/>
<text text-anchor="start" x="2355" y="-85.5" font-family="Helvetica,sans-Serif" font-size="10.00">intrusive_ptr/intrusive</text>
<text text-anchor="middle" x="2409" y="-74.5" font-family="Helvetica,sans-Serif" font-size="10.00">_ptr.hpp</text>
</a>
</g>
</g>
<!-- Node7&#45;&gt;Node11 -->
<g id="edge10" class="edge">
<title>Node7&#45;&gt;Node11</title>
<path fill="none" stroke="midnightblue" d="M2400.43,-134.48C2401.62,-127.4 2403.37,-116.97 2404.98,-107.39"/>
<polygon fill="midnightblue" stroke="midnightblue" points="2408.44,-107.96 2406.64,-97.52 2401.53,-106.8 2408.44,-107.96"/>
</g>
<!-- Node12&#45;&gt;Node4 -->
<g id="edge12" class="edge">
<title>Node12&#45;&gt;Node4</title>
<path fill="none" stroke="midnightblue" d="M1622.19,-134.47C1669.24,-126.4 1740.17,-113.26 1801,-98 1804.61,-97.09 1808.35,-96.08 1812.07,-95.01"/>
<polygon fill="midnightblue" stroke="midnightblue" points="1813.2,-98.33 1821.79,-92.13 1811.21,-91.62 1813.2,-98.33"/>
</g>
<!-- Node12&#45;&gt;Node5 -->
<g id="edge15" class="edge">
<title>Node12&#45;&gt;Node5</title>
<path fill="none" stroke="midnightblue" d="M1511.18,-139.57C1323.89,-128.63 744.65,-94.81 589.54,-85.75"/>
<polygon fill="midnightblue" stroke="midnightblue" points="589.3,-82.23 579.12,-85.14 588.9,-89.22 589.3,-82.23"/>
</g>
<!-- Node12&#45;&gt;Node6 -->
<g id="edge17" class="edge">
<title>Node12&#45;&gt;Node6</title>
<path fill="none" stroke="midnightblue" d="M1588.58,-134.43C1623.78,-118.56 1702.93,-84.62 1773,-67 1874.69,-41.42 1995.43,-28.07 2071.4,-21.67"/>
<polygon fill="midnightblue" stroke="midnightblue" points="2072.14,-25.12 2081.82,-20.81 2071.56,-18.14 2072.14,-25.12"/>
</g>
<!-- Node12&#45;&gt;Node8 -->
<g id="edge14" class="edge">
<title>Node12&#45;&gt;Node8</title>
<path fill="none" stroke="midnightblue" d="M1561.12,-134.49C1543.39,-118.09 1501.62,-82.38 1459,-67 1365.58,-33.3 1062.09,-21.01 952.19,-17.6"/>
<polygon fill="midnightblue" stroke="midnightblue" points="952.28,-14.1 942.18,-17.29 952.07,-21.09 952.28,-14.1"/>
</g>
<!-- Node13 -->
<g id="node13" class="node">
<title>Node13</title>
<g id="a_node13"><a xlink:title=" ">
<polygon fill="none" stroke="#bfbfbf" points="2591,-6 2591,-25 2635,-25 2635,-6 2591,-6"/>
<text text-anchor="middle" x="2613" y="-13" font-family="Helvetica,sans-Serif" font-size="10.00">string</text>
</a>
</g>
</g>
<!-- Node12&#45;&gt;Node13 -->
<g id="edge13" class="edge">
<title>Node12&#45;&gt;Node13</title>
<path fill="none" stroke="midnightblue" d="M1610.47,-134.45C1645.32,-126.59 1696.68,-113.76 1740,-98 1770.45,-86.92 1774.61,-75.04 1806,-67 1881.96,-47.54 2440.04,-23.58 2580.82,-17.8"/>
<polygon fill="midnightblue" stroke="midnightblue" points="2581.11,-21.29 2590.96,-17.38 2580.83,-14.3 2581.11,-21.29"/>
</g>
<!-- Node14 -->
<g id="node14" class="node">
<title>Node14</title>
<g id="a_node14"><a xlink:title=" ">
<polygon fill="none" stroke="#bfbfbf" points="166.5,-6 166.5,-25 213.5,-25 213.5,-6 166.5,-6"/>
<text text-anchor="middle" x="190" y="-13" font-family="Helvetica,sans-Serif" font-size="10.00">vector</text>
</a>
</g>
</g>
<!-- Node12&#45;&gt;Node14 -->
<g id="edge16" class="edge">
<title>Node12&#45;&gt;Node14</title>
<path fill="none" stroke="midnightblue" d="M1511.14,-137.6C1275.71,-116.02 405.67,-36.27 223.56,-19.58"/>
<polygon fill="midnightblue" stroke="midnightblue" points="223.78,-16.08 213.51,-18.65 223.15,-23.05 223.78,-16.08"/>
</g>
<!-- Node15 -->
<g id="node15" class="node">
<title>Node15</title>
<g id="a_node15"><a xlink:href="../../da/da6/code__location_8h.html" target="_top" xlink:title=" ">
<polygon fill="none" stroke="black" points="2077.5,-73 2077.5,-92 2214.5,-92 2214.5,-73 2077.5,-73"/>
<text text-anchor="middle" x="2146" y="-80" font-family="Helvetica,sans-Serif" font-size="10.00">includes/code_location.h</text>
</a>
</g>
</g>
<!-- Node12&#45;&gt;Node15 -->
<g id="edge18" class="edge">
<title>Node12&#45;&gt;Node15</title>
<path fill="none" stroke="midnightblue" d="M1628.67,-136.94C1732.87,-126.18 1950.28,-103.72 2067.34,-91.63"/>
<polygon fill="midnightblue" stroke="midnightblue" points="2067.72,-95.1 2077.31,-90.6 2067,-88.14 2067.72,-95.1"/>
</g>
<!-- Node16 -->
<g id="node16" class="node">
<title>Node16</title>
<g id="a_node16"><a xlink:href="../../d9/d06/stl__vector__io_8h.html" target="_top" xlink:title=" ">
<polygon fill="none" stroke="black" points="256,-73 256,-92 384,-92 384,-73 256,-73"/>
<text text-anchor="middle" x="320" y="-80" font-family="Helvetica,sans-Serif" font-size="10.00">utilities/stl_vector_io.h</text>
</a>
</g>
</g>
<!-- Node12&#45;&gt;Node16 -->
<g id="edge22" class="edge">
<title>Node12&#45;&gt;Node16</title>
<path fill="none" stroke="midnightblue" d="M1511.29,-141.16C1351.25,-135.99 893.88,-120.28 514,-98 474.4,-95.68 430.3,-92.43 394.16,-89.6"/>
<polygon fill="midnightblue" stroke="midnightblue" points="394.43,-86.11 384.19,-88.82 393.88,-93.09 394.43,-86.11"/>
</g>
<!-- Node15&#45;&gt;Node6 -->
<g id="edge21" class="edge">
<title>Node15&#45;&gt;Node6</title>
<path fill="none" stroke="midnightblue" d="M2146,-72.73C2146,-64.54 2146,-51.92 2146,-40.71"/>
<polygon fill="midnightblue" stroke="midnightblue" points="2149.5,-40.59 2146,-30.59 2142.5,-40.59 2149.5,-40.59"/>
</g>
<!-- Node15&#45;&gt;Node8 -->
<g id="edge20" class="edge">
<title>Node15&#45;&gt;Node8</title>
<path fill="none" stroke="midnightblue" d="M2103.5,-72.99C2090.55,-70.69 2076.23,-68.44 2063,-67 1629.97,-19.87 1100.75,-16.38 952.36,-16.39"/>
<polygon fill="midnightblue" stroke="midnightblue" points="952.34,-12.89 942.34,-16.4 952.34,-19.89 952.34,-12.89"/>
</g>
<!-- Node15&#45;&gt;Node13 -->
<g id="edge19" class="edge">
<title>Node15&#45;&gt;Node13</title>
<path fill="none" stroke="midnightblue" d="M2192.91,-72.95C2204.68,-70.9 2217.29,-68.79 2229,-67 2359.02,-47.1 2514.54,-28.13 2580.68,-20.28"/>
<polygon fill="midnightblue" stroke="midnightblue" points="2581.36,-23.73 2590.88,-19.08 2580.53,-16.78 2581.36,-23.73"/>
</g>
<!-- Node16&#45;&gt;Node8 -->
<g id="edge23" class="edge">
<title>Node16&#45;&gt;Node8</title>
<path fill="none" stroke="midnightblue" d="M362.4,-72.93C373.92,-70.79 386.41,-68.64 398,-67 573.56,-42.1 784.6,-25.54 871.55,-19.29"/>
<polygon fill="midnightblue" stroke="midnightblue" points="872.04,-22.76 881.77,-18.56 871.54,-15.78 872.04,-22.76"/>
</g>
<!-- Node16&#45;&gt;Node14 -->
<g id="edge24" class="edge">
<title>Node16&#45;&gt;Node14</title>
<path fill="none" stroke="midnightblue" d="M302.74,-72.87C280.69,-61.84 242.31,-42.66 216.54,-29.77"/>
<polygon fill="midnightblue" stroke="midnightblue" points="217.84,-26.51 207.33,-25.17 214.71,-32.77 217.84,-26.51"/>
</g>
<!-- Node17&#45;&gt;Node3 -->
<g id="edge30" class="edge">
<title>Node17&#45;&gt;Node3</title>
<path fill="none" stroke="midnightblue" d="M2031.82,-869.38C2228.25,-867.1 2829.06,-857.59 3021,-825 3119.42,-808.29 3236,-859.83 3236,-760 3236,-760 3236,-760 3236,-512 3236,-347.3 3130.42,-308.39 2978,-246 2900.81,-214.4 2657.61,-204.86 2543.81,-202.08"/>
<polygon fill="midnightblue" stroke="midnightblue" points="2543.62,-198.58 2533.54,-201.84 2543.46,-205.58 2543.62,-198.58"/>
</g>
<!-- Node17&#45;&gt;Node5 -->
<g id="edge28" class="edge">
<title>Node17&#45;&gt;Node5</title>
<path fill="none" stroke="midnightblue" d="M1906.38,-869.58C1585.64,-867 142,-850.39 142,-760 142,-760 142,-760 142,-322 142,-235.68 417.32,-130.46 516.18,-95.46"/>
<polygon fill="midnightblue" stroke="midnightblue" points="517.45,-98.72 525.72,-92.1 515.13,-92.12 517.45,-98.72"/>
</g>
<!-- Node17&#45;&gt;Node8 -->
<g id="edge27" class="edge">
<title>Node17&#45;&gt;Node8</title>
<path fill="none" stroke="midnightblue" d="M1906.11,-869.91C1641.26,-869.27 615.68,-864.28 295,-825 161.74,-808.68 0,-894.26 0,-760 0,-760 0,-760 0,-199 0,-92.5 99.14,-101.22 200,-67 325.83,-24.31 740.45,-17.7 871.75,-16.69"/>
<polygon fill="midnightblue" stroke="midnightblue" points="871.81,-20.19 881.78,-16.61 871.76,-13.19 871.81,-20.19"/>
</g>
<!-- Node17&#45;&gt;Node13 -->
<g id="edge26" class="edge">
<title>Node17&#45;&gt;Node13</title>
<path fill="none" stroke="midnightblue" d="M2031.6,-870.16C2241.78,-870.28 2920.99,-867.33 3135,-825 3217.21,-808.74 3312,-843.8 3312,-760 3312,-760 3312,-760 3312,-696.5 3312,-608.64 3388,-601.86 3388,-514 3388,-514 3388,-514 3388,-450.5 3388,-366.64 3404,-346.36 3404,-262.5 3404,-262.5 3404,-262.5 3404,-143 3404,-88.23 3358.09,-86.73 3307,-67 3183.93,-19.46 2765.62,-16.28 2645.5,-16.37"/>
<polygon fill="midnightblue" stroke="midnightblue" points="2645.13,-12.87 2635.14,-16.39 2645.15,-19.87 2645.13,-12.87"/>
</g>
<!-- Node18 -->
<g id="node18" class="node">
<title>Node18</title>
<g id="a_node18"><a xlink:title=" ">
<polygon fill="none" stroke="#bfbfbf" points="1526.5,-313.5 1526.5,-332.5 1579.5,-332.5 1579.5,-313.5 1526.5,-313.5"/>
<text text-anchor="middle" x="1553" y="-320.5" font-family="Helvetica,sans-Serif" font-size="10.00">cstddef</text>
</a>
</g>
</g>
<!-- Node17&#45;&gt;Node18 -->
<g id="edge29" class="edge">
<title>Node17&#45;&gt;Node18</title>
<path fill="none" stroke="midnightblue" d="M1906.17,-869.06C1694.73,-865.66 1016.99,-852.68 923,-825 868.16,-808.85 812,-817.17 812,-760 812,-760 812,-760 812,-635 812,-398.99 1009.4,-463.25 1327,-369 1406.47,-345.42 1428.76,-349.49 1510,-333 1512.04,-332.59 1514.14,-332.16 1516.26,-331.72"/>
<polygon fill="midnightblue" stroke="midnightblue" points="1517.09,-335.12 1526.17,-329.67 1515.67,-328.27 1517.09,-335.12"/>
</g>
<!-- Node19 -->
<g id="node19" class="node">
<title>Node19</title>
<g id="a_node19"><a xlink:href="../../dd/d5f/serializer_8h.html" target="_top" xlink:title=" ">
<polygon fill="none" stroke="black" points="1175.5,-313.5 1175.5,-332.5 1288.5,-332.5 1288.5,-313.5 1175.5,-313.5"/>
<text text-anchor="middle" x="1232" y="-320.5" font-family="Helvetica,sans-Serif" font-size="10.00">includes/serializer.h</text>
</a>
</g>
</g>
<!-- Node17&#45;&gt;Node19 -->
<g id="edge31" class="edge">
<title>Node17&#45;&gt;Node19</title>
<path fill="none" stroke="midnightblue" d="M1906.45,-870.24C1683.18,-870.74 933.55,-869.07 836,-825 799.62,-808.56 774,-799.92 774,-760 774,-760 774,-760 774,-573.5 774,-427.53 893.55,-418.15 1031,-369 1075.23,-353.18 1127,-341.75 1166.92,-334.36"/>
<polygon fill="midnightblue" stroke="midnightblue" points="1167.58,-337.8 1176.8,-332.57 1166.34,-330.91 1167.58,-337.8"/>
</g>
<!-- Node26 -->
<g id="node26" class="node">
<title>Node26</title>
<g id="a_node26"><a xlink:href="../../d1/d8c/logger_8h.html" target="_top" xlink:title=" ">
<polygon fill="none" stroke="red" points="1674,-252 1674,-271 1794,-271 1794,-252 1674,-252"/>
<text text-anchor="middle" x="1734" y="-259" font-family="Helvetica,sans-Serif" font-size="10.00">input_output/logger.h</text>
</a>
</g>
</g>
<!-- Node17&#45;&gt;Node26 -->
<g id="edge175" class="edge">
<title>Node17&#45;&gt;Node26</title>
<path fill="none" stroke="midnightblue" d="M1964.65,-861.27C1952.96,-837.69 1920.22,-770.57 1897,-713 1826.55,-538.32 1827.22,-487.77 1757,-313 1752.62,-302.1 1747.2,-290.13 1742.72,-280.58"/>
<polygon fill="midnightblue" stroke="midnightblue" points="1745.77,-278.86 1738.32,-271.33 1739.45,-281.87 1745.77,-278.86"/>
</g>
<!-- Node57 -->
<g id="node30" class="node">
<title>Node57</title>
<g id="a_node30"><a xlink:href="../../de/db8/process__info_8h.html" target="_top" xlink:title=" ">
<polygon fill="none" stroke="black" points="1988.5,-626.5 1988.5,-645.5 2119.5,-645.5 2119.5,-626.5 1988.5,-626.5"/>
<text text-anchor="middle" x="2054" y="-633.5" font-family="Helvetica,sans-Serif" font-size="10.00">includes/process_info.h</text>
</a>
</g>
</g>
<!-- Node17&#45;&gt;Node57 -->
<g id="edge60" class="edge">
<title>Node17&#45;&gt;Node57</title>
<path fill="none" stroke="midnightblue" d="M2031.55,-862.35C2166.86,-844.39 2479.64,-794.75 2542,-713 2550.36,-702.05 2551.28,-692.18 2542,-682 2514.82,-652.2 2260.18,-641.86 2129.94,-638.5"/>
<polygon fill="midnightblue" stroke="midnightblue" points="2129.73,-634.99 2119.64,-638.24 2129.55,-641.99 2129.73,-634.99"/>
</g>
<!-- Node58 -->
<g id="node31" class="node">
<title>Node58</title>
<g id="a_node31"><a xlink:href="../../d1/d82/data__value__container_8h.html" target="_top" xlink:title=" ">
<polygon fill="none" stroke="black" points="1636.5,-559.5 1636.5,-589.5 1761.5,-589.5 1761.5,-559.5 1636.5,-559.5"/>
<text text-anchor="start" x="1644.5" y="-577.5" font-family="Helvetica,sans-Serif" font-size="10.00">containers/data_value</text>
<text text-anchor="middle" x="1699" y="-566.5" font-family="Helvetica,sans-Serif" font-size="10.00">_container.h</text>
</a>
</g>
</g>
<!-- Node17&#45;&gt;Node58 -->
<g id="edge92" class="edge">
<title>Node17&#45;&gt;Node58</title>
<path fill="none" stroke="midnightblue" d="M1906.44,-870.51C1762.29,-870.01 1419,-858.47 1419,-760 1419,-760 1419,-760 1419,-696.5 1419,-606.27 1543.05,-582.55 1626.01,-576.77"/>
<polygon fill="midnightblue" stroke="midnightblue" points="1626.4,-580.25 1636.16,-576.14 1625.96,-573.27 1626.4,-580.25"/>
</g>
<!-- Node59 -->
<g id="node32" class="node">
<title>Node59</title>
<g id="a_node32"><a xlink:href="../../da/d89/variable_8h.html" target="_top" xlink:title=" ">
<polygon fill="none" stroke="red" points="1331.5,-442 1331.5,-461 1450.5,-461 1450.5,-442 1331.5,-442"/>
<text text-anchor="middle" x="1391" y="-449" font-family="Helvetica,sans-Serif" font-size="10.00">containers/variable.h</text>
</a>
</g>
</g>
<!-- Node17&#45;&gt;Node59 -->
<g id="edge181" class="edge">
<title>Node17&#45;&gt;Node59</title>
<path fill="none" stroke="midnightblue" d="M1906.48,-867.55C1777.62,-862.06 1491.29,-847.48 1453,-825 1330.59,-753.15 1370.88,-536.41 1386.23,-471.24"/>
<polygon fill="midnightblue" stroke="midnightblue" points="1389.71,-471.74 1388.68,-461.2 1382.91,-470.08 1389.71,-471.74"/>
</g>
<!-- Node73 -->
<g id="node33" class="node">
<title>Node73</title>
<g id="a_node33"><a xlink:href="../../d3/dc3/variable__data_8h.html" target="_top" xlink:title=" ">
<polygon fill="none" stroke="red" points="1050,-375 1050,-394 1142,-394 1142,-375 1050,-375"/>
<text text-anchor="middle" x="1096" y="-382" font-family="Helvetica,sans-Serif" font-size="10.00">variable_data.h</text>
</a>
</g>
</g>
<!-- Node17&#45;&gt;Node73 -->
<g id="edge182" class="edge">
<title>Node17&#45;&gt;Node73</title>
<path fill="none" stroke="midnightblue" d="M1906.44,-870.47C1670.78,-871.4 850,-867 850,-760 850,-760 850,-760 850,-635 850,-512.92 1001.2,-428.91 1066.52,-398.31"/>
<polygon fill="midnightblue" stroke="midnightblue" points="1068.24,-401.37 1075.87,-394.02 1065.32,-395.01 1068.24,-401.37"/>
</g>
<!-- Node82 -->
<g id="node35" class="node">
<title>Node82</title>
<g id="a_node35"><a xlink:href="../../d8/d3b/mesh_8h.html" target="_top" xlink:title=" ">
<polygon fill="none" stroke="black" points="1595,-749.5 1595,-768.5 1691,-768.5 1691,-749.5 1595,-749.5"/>
<text text-anchor="middle" x="1643" y="-756.5" font-family="Helvetica,sans-Serif" font-size="10.00">includes/mesh.h</text>
</a>
</g>
</g>
<!-- Node17&#45;&gt;Node82 -->
<g id="edge93" class="edge">
<title>Node17&#45;&gt;Node82</title>
<path fill="none" stroke="midnightblue" d="M1906.24,-864.3C1838.41,-857.31 1735.39,-843.98 1701,-825 1680.6,-813.74 1663.75,-792.5 1653.57,-777.36"/>
<polygon fill="midnightblue" stroke="midnightblue" points="1656.46,-775.4 1648.11,-768.87 1650.57,-779.18 1656.46,-775.4"/>
</g>
<!-- Node86 -->
<g id="node37" class="node">
<title>Node86</title>
<g id="a_node37"><a xlink:href="../../d2/d58/pointer__vector__map_8h.html" target="_top" xlink:title=" ">
<polygon fill="none" stroke="red" points="502.5,-369.5 502.5,-399.5 607.5,-399.5 607.5,-369.5 502.5,-369.5"/>
<text text-anchor="start" x="510.5" y="-387.5" font-family="Helvetica,sans-Serif" font-size="10.00">containers/pointer</text>
<text text-anchor="middle" x="555" y="-376.5" font-family="Helvetica,sans-Serif" font-size="10.00">_vector_map.h</text>
</a>
</g>
</g>
<!-- Node17&#45;&gt;Node86 -->
<g id="edge173" class="edge">
<title>Node17&#45;&gt;Node86</title>
<path fill="none" stroke="midnightblue" d="M1906.37,-870.13C1691.18,-870.2 983.03,-867.13 760,-825 673.95,-808.75 574,-847.57 574,-760 574,-760 574,-760 574,-512 574,-476.05 566.4,-434.99 560.82,-409.65"/>
<polygon fill="midnightblue" stroke="midnightblue" points="564.21,-408.78 558.57,-399.81 557.38,-410.34 564.21,-408.78"/>
</g>
<!-- Node98 -->
<g id="node40" class="node">
<title>Node98</title>
<g id="a_node40"><a xlink:href="../../da/da4/master__slave__constraint_8h.html" target="_top" xlink:title=" ">
<polygon fill="none" stroke="red" points="1906,-682.5 1906,-712.5 2032,-712.5 2032,-682.5 1906,-682.5"/>
<text text-anchor="start" x="1914" y="-700.5" font-family="Helvetica,sans-Serif" font-size="10.00">includes/master_slave</text>
<text text-anchor="middle" x="1969" y="-689.5" font-family="Helvetica,sans-Serif" font-size="10.00">_constraint.h</text>
</a>
</g>
</g>
<!-- Node17&#45;&gt;Node98 -->
<g id="edge180" class="edge">
<title>Node17&#45;&gt;Node98</title>
<path fill="none" stroke="midnightblue" d="M1969,-861.26C1969,-835.97 1969,-762.08 1969,-723.15"/>
<polygon fill="midnightblue" stroke="midnightblue" points="1972.5,-722.72 1969,-712.72 1965.5,-722.72 1972.5,-722.72"/>
</g>
<!-- Node109 -->
<g id="node41" class="node">
<title>Node109</title>
<g id="a_node41"><a xlink:href="../../d3/dad/geometry__container_8h.html" target="_top" xlink:title=" ">
<polygon fill="none" stroke="black" points="2862,-436.5 2862,-466.5 2980,-466.5 2980,-436.5 2862,-436.5"/>
<text text-anchor="start" x="2870" y="-454.5" font-family="Helvetica,sans-Serif" font-size="10.00">containers/geometry</text>
<text text-anchor="middle" x="2921" y="-443.5" font-family="Helvetica,sans-Serif" font-size="10.00">_container.h</text>
</a>
</g>
</g>
<!-- Node17&#45;&gt;Node109 -->
<g id="edge130" class="edge">
<title>Node17&#45;&gt;Node109</title>
<path fill="none" stroke="midnightblue" d="M2031.61,-869.76C2251.62,-868.12 2976,-855.46 2976,-760 2976,-760 2976,-760 2976,-573.5 2976,-536.47 2954.38,-498.31 2938.25,-474.99"/>
<polygon fill="midnightblue" stroke="midnightblue" points="2941.06,-472.91 2932.4,-466.82 2935.37,-476.98 2941.06,-472.91"/>
</g>
<!-- Node110 -->
<g id="node42" class="node">
<title>Node110</title>
<g id="a_node42"><a xlink:href="../../da/d92/pointer__hash__map__set_8h.html" target="_top" xlink:title=" ">
<polygon fill="none" stroke="red" points="2206.5,-369.5 2206.5,-399.5 2311.5,-399.5 2311.5,-369.5 2206.5,-369.5"/>
<text text-anchor="start" x="2214.5" y="-387.5" font-family="Helvetica,sans-Serif" font-size="10.00">containers/pointer</text>
<text text-anchor="middle" x="2259" y="-376.5" font-family="Helvetica,sans-Serif" font-size="10.00">_hash_map_set.h</text>
</a>
</g>
</g>
<!-- Node17&#45;&gt;Node110 -->
<g id="edge174" class="edge">
<title>Node17&#45;&gt;Node110</title>
<path fill="none" stroke="midnightblue" d="M2031.65,-867.84C2163.55,-862.88 2465.98,-849.19 2566,-825 2638.21,-807.53 2720,-834.29 2720,-760 2720,-760 2720,-760 2720,-696.5 2720,-690.42 2756.89,-700.87 2599,-626 2482.2,-570.62 2422.74,-609.85 2327,-523 2292.77,-491.95 2273.7,-439.81 2264.97,-409.44"/>
<polygon fill="midnightblue" stroke="midnightblue" points="2268.31,-408.41 2262.3,-399.68 2261.56,-410.25 2268.31,-408.41"/>
</g>
<!-- Node112 -->
<g id="node43" class="node">
<title>Node112</title>
<g id="a_node43"><a xlink:href="../../d4/dfe/element_8h.html" target="_top" xlink:title=" ">
<polygon fill="none" stroke="red" points="2001,-749.5 2001,-768.5 2111,-768.5 2111,-749.5 2001,-749.5"/>
<text text-anchor="middle" x="2056" y="-756.5" font-family="Helvetica,sans-Serif" font-size="10.00">includes/element.h</text>
</a>
</g>
</g>
<!-- Node17&#45;&gt;Node112 -->
<g id="edge137" class="edge">
<title>Node17&#45;&gt;Node112</title>
<path fill="none" stroke="midnightblue" d="M1975.83,-861.37C1990.25,-843.14 2024.03,-800.43 2042.81,-776.68"/>
<polygon fill="midnightblue" stroke="midnightblue" points="2045.75,-778.61 2049.2,-768.59 2040.26,-774.26 2045.75,-778.61"/>
</g>
<!-- Node115 -->
<g id="node45" class="node">
<title>Node115</title>
<g id="a_node45"><a xlink:href="../../dd/d98/table_8h.html" target="_top" xlink:title=" ">
<polygon fill="none" stroke="black" points="2097,-503.5 2097,-522.5 2191,-522.5 2191,-503.5 2097,-503.5"/>
<text text-anchor="middle" x="2144" y="-510.5" font-family="Helvetica,sans-Serif" font-size="10.00">includes/table.h</text>
</a>
</g>
</g>
<!-- Node17&#45;&gt;Node115 -->
<g id="edge172" class="edge">
<title>Node17&#45;&gt;Node115</title>
<path fill="none" stroke="midnightblue" d="M2031.65,-866.89C2205.63,-857.42 2682,-825.52 2682,-760 2682,-760 2682,-760 2682,-696.5 2682,-644.89 2322.39,-555.68 2191.18,-524.85"/>
<polygon fill="midnightblue" stroke="midnightblue" points="2191.94,-521.43 2181.4,-522.56 2190.34,-528.25 2191.94,-521.43"/>
</g>
<!-- Node130 -->
<g id="node47" class="node">
<title>Node130</title>
<g id="a_node47"><a xlink:href="../../d7/d6c/condition_8h.html" target="_top" xlink:title=" ">
<polygon fill="none" stroke="red" points="2129,-749.5 2129,-768.5 2243,-768.5 2243,-749.5 2129,-749.5"/>
<text text-anchor="middle" x="2186" y="-756.5" font-family="Helvetica,sans-Serif" font-size="10.00">includes/condition.h</text>
</a>
</g>
</g>
<!-- Node17&#45;&gt;Node130 -->
<g id="edge159" class="edge">
<title>Node17&#45;&gt;Node130</title>
<path fill="none" stroke="midnightblue" d="M1986.03,-861.37C2023.82,-842.21 2114.91,-796.04 2159.93,-773.22"/>
<polygon fill="midnightblue" stroke="midnightblue" points="2161.71,-776.23 2169.05,-768.59 2158.55,-769.99 2161.71,-776.23"/>
</g>
<!-- Node131 -->
<g id="node48" class="node">
<title>Node131</title>
<g id="a_node48"><a xlink:href="../../d8/d75/communicator_8h.html" target="_top" xlink:title=" ">
<polygon fill="none" stroke="black" points="1710.5,-805.5 1710.5,-824.5 1849.5,-824.5 1849.5,-805.5 1710.5,-805.5"/>
<text text-anchor="middle" x="1780" y="-812.5" font-family="Helvetica,sans-Serif" font-size="10.00">includes/communicator.h</text>
</a>
</g>
</g>
<!-- Node17&#45;&gt;Node131 -->
<g id="edge163" class="edge">
<title>Node17&#45;&gt;Node131</title>
<path fill="none" stroke="midnightblue" d="M1939.05,-861.44C1906.84,-852.24 1855.47,-837.56 1819.86,-827.39"/>
<polygon fill="midnightblue" stroke="midnightblue" points="1820.38,-823.9 1809.81,-824.52 1818.46,-830.63 1820.38,-823.9"/>
</g>
<!-- Node108 -->
<g id="node49" class="node">
<title>Node108</title>
<g id="a_node49"><a xlink:href="../../d0/dac/kratos__flags_8h.html" target="_top" xlink:title=" ">
<polygon fill="none" stroke="black" points="3004,-565 3004,-584 3132,-584 3132,-565 3004,-565"/>
<text text-anchor="middle" x="3068" y="-572" font-family="Helvetica,sans-Serif" font-size="10.00">includes/kratos_flags.h</text>
</a>
</g>
</g>
<!-- Node17&#45;&gt;Node108 -->
<g id="edge176" class="edge">
<title>Node17&#45;&gt;Node108</title>
<path fill="none" stroke="midnightblue" d="M2031.56,-870.26C2240.37,-870.71 2905.03,-868.67 2990,-825 3022.66,-808.21 3041,-796.72 3041,-760 3041,-760 3041,-760 3041,-696.5 3041,-659.34 3053.28,-617.26 3061.28,-593.81"/>
<polygon fill="midnightblue" stroke="midnightblue" points="3064.66,-594.75 3064.69,-584.16 3058.06,-592.42 3064.66,-594.75"/>
</g>
<!-- Node19&#45;&gt;Node3 -->
<g id="edge41" class="edge">
<title>Node19&#45;&gt;Node3</title>
<path fill="none" stroke="midnightblue" d="M1288.77,-318.97C1381.87,-313.43 1562.58,-300.03 1622,-277 1643.97,-268.49 1642.79,-253.85 1665,-246 1673.95,-242.84 2236.78,-213.69 2424.1,-204.07"/>
<polygon fill="midnightblue" stroke="midnightblue" points="2424.51,-207.55 2434.32,-203.54 2424.15,-200.56 2424.51,-207.55"/>
</g>
<!-- Node19&#45;&gt;Node5 -->
<g id="edge36" class="edge">
<title>Node19&#45;&gt;Node5</title>
<path fill="none" stroke="midnightblue" d="M1175.19,-319.6C1076.29,-314.82 876.81,-302.31 812,-277 705.07,-235.23 603.2,-137.58 565.92,-99.29"/>
<polygon fill="midnightblue" stroke="midnightblue" points="568.43,-96.85 558.97,-92.07 563.38,-101.7 568.43,-96.85"/>
</g>
<!-- Node19&#45;&gt;Node8 -->
<g id="edge38" class="edge">
<title>Node19&#45;&gt;Node8</title>
<path fill="none" stroke="midnightblue" d="M1175.19,-317.38C1070.3,-308.58 855.85,-289.19 845,-277 780.66,-204.74 864.35,-78.82 898.6,-33.42"/>
<polygon fill="midnightblue" stroke="midnightblue" points="901.41,-35.51 904.74,-25.45 895.86,-31.24 901.41,-35.51"/>
</g>
<!-- Node19&#45;&gt;Node13 -->
<g id="edge34" class="edge">
<title>Node19&#45;&gt;Node13</title>
<path fill="none" stroke="midnightblue" d="M1288.82,-313.6C1290.23,-313.4 1291.62,-313.2 1293,-313 1407.6,-296.55 1439.58,-308.46 1551,-277 1584.14,-267.64 1588.72,-254.83 1622,-246 1807.14,-196.89 2299.28,-220.23 2479,-154 2520.41,-138.74 2530.29,-129.69 2561,-98 2579.65,-78.76 2595.26,-51.81 2604.37,-34.26"/>
<polygon fill="midnightblue" stroke="midnightblue" points="2607.59,-35.65 2608.96,-25.14 2601.34,-32.5 2607.59,-35.65"/>
</g>
<!-- Node20 -->
<g id="node20" class="node">
<title>Node20</title>
<g id="a_node20"><a xlink:title=" ">
<polygon fill="none" stroke="#bfbfbf" points="2304,-252 2304,-271 2342,-271 2342,-252 2304,-252"/>
<text text-anchor="middle" x="2323" y="-259" font-family="Helvetica,sans-Serif" font-size="10.00">map</text>
</a>
</g>
</g>
<!-- Node19&#45;&gt;Node20 -->
<g id="edge32" class="edge">
<title>Node19&#45;&gt;Node20</title>
<path fill="none" stroke="midnightblue" d="M1288.71,-320.26C1501.81,-313.61 2245.06,-289.65 2294,-277 2295.72,-276.55 2297.46,-276 2299.19,-275.36"/>
<polygon fill="midnightblue" stroke="midnightblue" points="2301,-278.39 2308.72,-271.13 2298.16,-271.99 2301,-278.39"/>
</g>
<!-- Node21 -->
<g id="node21" class="node">
<title>Node21</title>
<g id="a_node21"><a xlink:title=" ">
<polygon fill="none" stroke="#bfbfbf" points="1086,-252 1086,-271 1118,-271 1118,-252 1086,-252"/>
<text text-anchor="middle" x="1102" y="-259" font-family="Helvetica,sans-Serif" font-size="10.00">set</text>
</a>
</g>
</g>
<!-- Node19&#45;&gt;Node21 -->
<g id="edge33" class="edge">
<title>Node19&#45;&gt;Node21</title>
<path fill="none" stroke="midnightblue" d="M1209.93,-313.45C1188.44,-304.9 1155.01,-291.06 1127,-277 1126.33,-276.66 1125.65,-276.31 1124.96,-275.96"/>
<polygon fill="midnightblue" stroke="midnightblue" points="1126.56,-272.84 1116.11,-271.08 1123.18,-278.97 1126.56,-272.84"/>
</g>
<!-- Node22 -->
<g id="node22" class="node">
<title>Node22</title>
<g id="a_node22"><a xlink:title=" ">
<polygon fill="none" stroke="#bfbfbf" points="1136,-252 1136,-271 1186,-271 1186,-252 1136,-252"/>
<text text-anchor="middle" x="1161" y="-259" font-family="Helvetica,sans-Serif" font-size="10.00">cstring</text>
</a>
</g>
</g>
<!-- Node19&#45;&gt;Node22 -->
<g id="edge35" class="edge">
<title>Node19&#45;&gt;Node22</title>
<path fill="none" stroke="midnightblue" d="M1221.83,-313.48C1210.65,-304.11 1192.48,-288.88 1178.91,-277.51"/>
<polygon fill="midnightblue" stroke="midnightblue" points="1181.07,-274.75 1171.15,-271.01 1176.57,-280.11 1181.07,-274.75"/>
</g>
<!-- Node23 -->
<g id="node23" class="node">
<title>Node23</title>
<g id="a_node23"><a xlink:title=" ">
<polygon fill="none" stroke="#bfbfbf" points="1204.5,-252 1204.5,-271 1259.5,-271 1259.5,-252 1204.5,-252"/>
<text text-anchor="middle" x="1232" y="-259" font-family="Helvetica,sans-Serif" font-size="10.00">fstream</text>
</a>
</g>
</g>
<!-- Node19&#45;&gt;Node23 -->
<g id="edge37" class="edge">
<title>Node19&#45;&gt;Node23</title>
<path fill="none" stroke="midnightblue" d="M1232,-313.48C1232,-305.08 1232,-291.98 1232,-281.16"/>
<polygon fill="midnightblue" stroke="midnightblue" points="1235.5,-281.01 1232,-271.01 1228.5,-281.01 1235.5,-281.01"/>
</g>
<!-- Node24 -->
<g id="node24" class="node">
<title>Node24</title>
<g id="a_node24"><a xlink:title=" ">
<polygon fill="none" stroke="#bfbfbf" points="2192.5,-252 2192.5,-271 2285.5,-271 2285.5,-252 2192.5,-252"/>
<text text-anchor="middle" x="2239" y="-259" font-family="Helvetica,sans-Serif" font-size="10.00">unordered_map</text>
</a>
</g>
</g>
<!-- Node19&#45;&gt;Node24 -->
<g id="edge39" class="edge">
<title>Node19&#45;&gt;Node24</title>
<path fill="none" stroke="midnightblue" d="M1288.66,-318.65C1465.41,-308.21 2005.38,-276.3 2182.25,-265.85"/>
<polygon fill="midnightblue" stroke="midnightblue" points="2182.61,-269.34 2192.38,-265.25 2182.19,-262.35 2182.61,-269.34"/>
</g>
<!-- Node25 -->
<g id="node25" class="node">
<title>Node25</title>
<g id="a_node25"><a xlink:title=" ">
<polygon fill="none" stroke="#bfbfbf" points="1278,-252 1278,-271 1364,-271 1364,-252 1278,-252"/>
<text text-anchor="middle" x="1321" y="-259" font-family="Helvetica,sans-Serif" font-size="10.00">unordered_set</text>
</a>
</g>
</g>
<!-- Node19&#45;&gt;Node25 -->
<g id="edge40" class="edge">
<title>Node19&#45;&gt;Node25</title>
<path fill="none" stroke="midnightblue" d="M1244.75,-313.48C1259.03,-303.93 1282.4,-288.31 1299.51,-276.87"/>
<polygon fill="midnightblue" stroke="midnightblue" points="1301.9,-279.48 1308.27,-271.01 1298.01,-273.66 1301.9,-279.48"/>
</g>
<!-- Node19&#45;&gt;Node26 -->
<g id="edge42" class="edge">
<title>Node19&#45;&gt;Node26</title>
<path fill="none" stroke="midnightblue" d="M1288.63,-317.66C1370.75,-310.99 1527.56,-296.9 1660,-277 1667.74,-275.84 1675.9,-274.43 1683.86,-272.95"/>
<polygon fill="midnightblue" stroke="midnightblue" points="1684.62,-276.37 1693.79,-271.05 1683.31,-269.49 1684.62,-276.37"/>
</g>
<!-- Node30 -->
<g id="node27" class="node">
<title>Node30</title>
<g id="a_node27"><a xlink:href="../../d9/da0/flags_8h.html" target="_top" xlink:title=" ">
<polygon fill="none" stroke="black" points="2702.5,-252 2702.5,-271 2805.5,-271 2805.5,-252 2702.5,-252"/>
<text text-anchor="middle" x="2754" y="-259" font-family="Helvetica,sans-Serif" font-size="10.00">containers/flags.h</text>
</a>
</g>
</g>
<!-- Node19&#45;&gt;Node30 -->
<g id="edge46" class="edge">
<title>Node19&#45;&gt;Node30</title>
<path fill="none" stroke="midnightblue" d="M1288.89,-319.78C1527.23,-310.46 2444.56,-274.6 2692.13,-264.92"/>
<polygon fill="midnightblue" stroke="midnightblue" points="2692.52,-268.41 2702.38,-264.52 2692.25,-261.41 2692.52,-268.41"/>
</g>
<!-- Node31 -->
<g id="node28" class="node">
<title>Node31</title>
<g id="a_node28"><a xlink:href="../../d9/d36/array__1d_8h.html" target="_top" xlink:title=" ">
<polygon fill="none" stroke="red" points="1420,-252 1420,-271 1542,-271 1542,-252 1420,-252"/>
<text text-anchor="middle" x="1481" y="-259" font-family="Helvetica,sans-Serif" font-size="10.00">containers/array_1d.h</text>
</a>
</g>
</g>
<!-- Node19&#45;&gt;Node31 -->
<g id="edge50" class="edge">
<title>Node19&#45;&gt;Node31</title>
<path fill="none" stroke="midnightblue" d="M1267.68,-313.48C1311.87,-302.92 1387.21,-284.91 1435.51,-273.37"/>
<polygon fill="midnightblue" stroke="midnightblue" points="1436.48,-276.74 1445.39,-271.01 1434.85,-269.93 1436.48,-276.74"/>
</g>
<!-- Node53 -->
<g id="node29" class="node">
<title>Node53</title>
<g id="a_node29"><a xlink:href="../../d5/d10/weak__pointer__vector_8h.html" target="_top" xlink:title=" ">
<polygon fill="none" stroke="red" points="854.5,-246.5 854.5,-276.5 991.5,-276.5 991.5,-246.5 854.5,-246.5"/>
<text text-anchor="start" x="862.5" y="-264.5" font-family="Helvetica,sans-Serif" font-size="10.00">containers/weak_pointer</text>
<text text-anchor="middle" x="923" y="-253.5" font-family="Helvetica,sans-Serif" font-size="10.00">_vector.h</text>
</a>
</g>
</g>
<!-- Node19&#45;&gt;Node53 -->
<g id="edge54" class="edge">
<title>Node19&#45;&gt;Node53</title>
<path fill="none" stroke="midnightblue" d="M1187.73,-313.48C1139.3,-304.15 1060.72,-289.02 1001.73,-277.66"/>
<polygon fill="midnightblue" stroke="midnightblue" points="1002.18,-274.18 991.69,-275.73 1000.85,-281.06 1002.18,-274.18"/>
</g>
<!-- Node26&#45;&gt;Node8 -->
<g id="edge44" class="edge">
<title>Node26&#45;&gt;Node8</title>
<path fill="none" stroke="midnightblue" d="M1714.23,-251.97C1673.92,-234.44 1579.48,-192.79 1502,-154 1429.62,-117.76 1419.15,-91.5 1342,-67 1203.79,-23.11 1029.68,-16.69 952.28,-16.19"/>
<polygon fill="midnightblue" stroke="midnightblue" points="952.02,-12.69 942.01,-16.16 952,-19.69 952.02,-12.69"/>
</g>
<!-- Node26&#45;&gt;Node12 -->
<g id="edge45" class="edge">
<title>Node26&#45;&gt;Node12</title>
<path fill="none" stroke="midnightblue" d="M1721.67,-251.82C1693.77,-232.17 1625.53,-184.11 1590.9,-159.72"/>
<polygon fill="midnightblue" stroke="midnightblue" points="1592.66,-156.68 1582.47,-153.78 1588.63,-162.4 1592.66,-156.68"/>
</g>
<!-- Node26&#45;&gt;Node13 -->
<g id="edge43" class="edge">
<title>Node26&#45;&gt;Node13</title>
<path fill="none" stroke="midnightblue" d="M1769.65,-251.97C1779.15,-249.86 1789.44,-247.71 1799,-246 1874.05,-232.58 2411.19,-188.85 2479,-154 2526.26,-129.71 2523.71,-104.85 2561,-67 2572.57,-55.26 2585.91,-42.31 2596.19,-32.47"/>
<polygon fill="midnightblue" stroke="midnightblue" points="2598.86,-34.75 2603.67,-25.32 2594.02,-29.69 2598.86,-34.75"/>
</g>
<!-- Node30&#45;&gt;Node3 -->
<g id="edge49" class="edge">
<title>Node30&#45;&gt;Node3</title>
<path fill="none" stroke="midnightblue" d="M2715.32,-251.98C2667.2,-241.37 2585.01,-223.26 2532.67,-211.72"/>
<polygon fill="midnightblue" stroke="midnightblue" points="2533.13,-208.24 2522.61,-209.51 2531.63,-215.08 2533.13,-208.24"/>
</g>
<!-- Node30&#45;&gt;Node8 -->
<g id="edge48" class="edge">
<title>Node30&#45;&gt;Node8</title>
<path fill="none" stroke="midnightblue" d="M2732.06,-251.89C2693.96,-237.24 2612.83,-207.35 2542,-190 2444.06,-166.01 2417.31,-171.47 2318,-154 2285.36,-148.26 2054.64,-112.84 2025,-98 2006.71,-88.85 2009.89,-74.83 1991,-67 1893.71,-26.67 1136.33,-18.23 952.23,-16.77"/>
<polygon fill="midnightblue" stroke="midnightblue" points="952.19,-13.27 942.17,-16.69 952.14,-20.27 952.19,-13.27"/>
</g>
<!-- Node30&#45;&gt;Node13 -->
<g id="edge47" class="edge">
<title>Node30&#45;&gt;Node13</title>
<path fill="none" stroke="midnightblue" d="M2751.83,-251.67C2744.43,-222.89 2718.12,-130.01 2672,-67 2661.75,-52.99 2646.88,-40.3 2634.64,-31.15"/>
<polygon fill="midnightblue" stroke="midnightblue" points="2636.45,-28.14 2626.29,-25.13 2632.36,-33.82 2636.45,-28.14"/>
</g>
<!-- Node31&#45;&gt;Node3 -->
<g id="edge53" class="edge">
<title>Node31&#45;&gt;Node3</title>
<path fill="none" stroke="midnightblue" d="M1542.3,-254.01C1569.71,-251.26 1602.45,-248.2 1632,-246 1929.22,-223.89 2285.57,-208.74 2424.48,-203.26"/>
<polygon fill="midnightblue" stroke="midnightblue" points="2424.64,-206.76 2434.49,-202.87 2424.36,-199.76 2424.64,-206.76"/>
</g>
<!-- Node31&#45;&gt;Node8 -->
<g id="edge52" class="edge">
<title>Node31&#45;&gt;Node8</title>
<path fill="none" stroke="midnightblue" d="M1471.97,-251.73C1461.81,-241.8 1444.92,-225.02 1431,-210 1373.82,-148.3 1381.15,-106.72 1307,-67 1246.17,-34.41 1040,-21.94 952.17,-18.03"/>
<polygon fill="midnightblue" stroke="midnightblue" points="952.2,-14.53 942.06,-17.59 951.9,-21.52 952.2,-14.53"/>
</g>
<!-- Node31&#45;&gt;Node13 -->
<g id="edge51" class="edge">
<title>Node31&#45;&gt;Node13</title>
<path fill="none" stroke="midnightblue" d="M1510.79,-251.94C1580.07,-231.34 1756.25,-174.95 1889,-98 1908.16,-86.9 1907.38,-75.06 1928,-67 1989.18,-43.09 2452.45,-22.93 2580.37,-17.78"/>
<polygon fill="midnightblue" stroke="midnightblue" points="2580.83,-21.26 2590.68,-17.36 2580.55,-14.27 2580.83,-21.26"/>
</g>
<!-- Node53&#45;&gt;Node3 -->
<g id="edge59" class="edge">
<title>Node53&#45;&gt;Node3</title>
<path fill="none" stroke="midnightblue" d="M991.54,-253.13C1018.19,-250.5 1048.99,-247.76 1077,-246 1598.22,-213.16 2229.66,-203.79 2424.13,-201.59"/>
<polygon fill="midnightblue" stroke="midnightblue" points="2424.45,-205.09 2434.41,-201.48 2424.37,-198.09 2424.45,-205.09"/>
</g>
<!-- Node53&#45;&gt;Node5 -->
<g id="edge57" class="edge">
<title>Node53&#45;&gt;Node5</title>
<path fill="none" stroke="midnightblue" d="M893.5,-246.46C823.23,-213.03 646.76,-129.06 578.53,-96.6"/>
<polygon fill="midnightblue" stroke="midnightblue" points="579.81,-93.33 569.27,-92.19 576.8,-99.65 579.81,-93.33"/>
</g>
<!-- Node53&#45;&gt;Node8 -->
<g id="edge56" class="edge">
<title>Node53&#45;&gt;Node8</title>
<path fill="none" stroke="midnightblue" d="M922.36,-246.33C920.48,-204.61 914.96,-82.23 912.84,-35.2"/>
<polygon fill="midnightblue" stroke="midnightblue" points="916.34,-35.03 912.39,-25.2 909.35,-35.34 916.34,-35.03"/>
</g>
<!-- Node53&#45;&gt;Node13 -->
<g id="edge55" class="edge">
<title>Node53&#45;&gt;Node13</title>
<path fill="none" stroke="midnightblue" d="M973.73,-246.47C1121.93,-205.71 1552.77,-88.8 1697,-67 1785.72,-53.59 2427.99,-24.66 2580.55,-17.92"/>
<polygon fill="midnightblue" stroke="midnightblue" points="2580.84,-21.41 2590.68,-17.48 2580.53,-14.42 2580.84,-21.41"/>
</g>
<!-- Node53&#45;&gt;Node14 -->
<g id="edge58" class="edge">
<title>Node53&#45;&gt;Node14</title>
<path fill="none" stroke="midnightblue" d="M854.3,-259.62C724.49,-254.8 439.01,-228.85 247,-98 223.64,-82.08 206.85,-53.2 197.78,-34.44"/>
<polygon fill="midnightblue" stroke="midnightblue" points="200.89,-32.83 193.54,-25.21 194.53,-35.75 200.89,-32.83"/>
</g>
<!-- Node57&#45;&gt;Node3 -->
<g id="edge65" class="edge">
<title>Node57&#45;&gt;Node3</title>
<path fill="none" stroke="midnightblue" d="M2075.76,-626.45C2116.05,-610.92 2205.26,-577.93 2283,-559 2382.25,-534.83 2433.6,-590.8 2510,-523 2534.36,-501.38 2530,-485.07 2530,-452.5 2530,-452.5 2530,-452.5 2530,-383.5 2530,-321.61 2581.3,-300.52 2552,-246 2544.38,-231.82 2530.1,-221.35 2516.59,-214.1"/>
<polygon fill="midnightblue" stroke="midnightblue" points="2517.97,-210.88 2507.45,-209.59 2514.87,-217.16 2517.97,-210.88"/>
</g>
<!-- Node57&#45;&gt;Node5 -->
<g id="edge63" class="edge">
<title>Node57&#45;&gt;Node5</title>
<path fill="none" stroke="midnightblue" d="M1988.15,-628.18C1904.27,-619.47 1754.84,-603.86 1627,-590 1359.8,-561.03 1291.55,-564.47 1026,-523 901.47,-503.55 862.92,-518.75 748,-467 727.17,-457.62 727.98,-445.04 707,-436 618.43,-397.82 555.29,-473.64 493,-400 416.58,-309.66 506.33,-152.14 539.58,-100.46"/>
<polygon fill="midnightblue" stroke="midnightblue" points="542.52,-102.36 545.08,-92.08 536.67,-98.52 542.52,-102.36"/>
</g>
<!-- Node57&#45;&gt;Node8 -->
<g id="edge62" class="edge">
<title>Node57&#45;&gt;Node8</title>
<path fill="none" stroke="midnightblue" d="M2050.12,-626.47C2029.72,-582.29 1930.96,-376.61 1803,-246 1740.72,-182.43 1713.98,-178.66 1637,-134 1607.86,-117.09 1533.46,-76.04 1501,-67 1397.21,-38.09 1067.52,-22.63 952.25,-18.01"/>
<polygon fill="midnightblue" stroke="midnightblue" points="952.23,-14.5 942.1,-17.61 951.95,-21.5 952.23,-14.5"/>
</g>
<!-- Node57&#45;&gt;Node13 -->
<g id="edge61" class="edge">
<title>Node57&#45;&gt;Node13</title>
<path fill="none" stroke="midnightblue" d="M2119.7,-634.52C2349.03,-632.54 3102.28,-623.51 3141,-590 3207.51,-532.45 3214,-288.95 3214,-201 3214,-201 3214,-201 3214,-143 3214,-94.92 3180.56,-87.37 3137,-67 3048.94,-25.81 2745.35,-18.21 2645.28,-16.81"/>
<polygon fill="midnightblue" stroke="midnightblue" points="2645.21,-13.31 2635.17,-16.68 2645.12,-20.31 2645.21,-13.31"/>
</g>
<!-- Node57&#45;&gt;Node18 -->
<g id="edge64" class="edge">
<title>Node57&#45;&gt;Node18</title>
<path fill="none" stroke="midnightblue" d="M2040.08,-626.36C1970.7,-583.29 1662.2,-391.79 1575.65,-338.06"/>
<polygon fill="midnightblue" stroke="midnightblue" points="1577.43,-335.05 1567.09,-332.75 1573.74,-341 1577.43,-335.05"/>
</g>
<!-- Node57&#45;&gt;Node30 -->
<g id="edge91" class="edge">
<title>Node57&#45;&gt;Node30</title>
<path fill="none" stroke="midnightblue" d="M2099.27,-626.47C2213.35,-604.7 2506.24,-547.16 2544,-523 2643.29,-459.47 2629.29,-402.51 2706,-313 2716.21,-301.09 2728.39,-288.29 2737.93,-278.55"/>
<polygon fill="midnightblue" stroke="midnightblue" points="2740.67,-280.75 2745.22,-271.18 2735.7,-275.83 2740.67,-280.75"/>
</g>
<!-- Node57&#45;&gt;Node58 -->
<g id="edge66" class="edge">
<title>Node57&#45;&gt;Node58</title>
<path fill="none" stroke="midnightblue" d="M2003.14,-626.48C1942.47,-616.31 1840.62,-599.24 1771.66,-587.68"/>
<polygon fill="midnightblue" stroke="midnightblue" points="1772.18,-584.22 1761.74,-586.02 1771.02,-591.12 1772.18,-584.22"/>
</g>
<!-- Node58&#45;&gt;Node3 -->
<g id="edge71" class="edge">
<title>Node58&#45;&gt;Node3</title>
<path fill="none" stroke="midnightblue" d="M1717.01,-559.47C1749.27,-534.4 1819.14,-480.38 1879,-436 1954.21,-380.25 1973.1,-366.4 2050,-313 2055.49,-309.19 2143.75,-248.37 2150,-246 2198.86,-227.49 2342.13,-212.9 2424.28,-205.78"/>
<polygon fill="midnightblue" stroke="midnightblue" points="2424.81,-209.24 2434.48,-204.9 2424.21,-202.27 2424.81,-209.24"/>
</g>
<!-- Node58&#45;&gt;Node8 -->
<g id="edge68" class="edge">
<title>Node58&#45;&gt;Node8</title>
<path fill="none" stroke="midnightblue" d="M1636.21,-563.27C1430.22,-529.54 785.97,-422.74 747,-400 590.98,-308.97 394.58,-202.53 514,-67 537.44,-40.4 775.38,-24.17 871.77,-18.64"/>
<polygon fill="midnightblue" stroke="midnightblue" points="872.21,-22.12 882,-18.06 871.82,-15.13 872.21,-22.12"/>
</g>
<!-- Node58&#45;&gt;Node12 -->
<g id="edge90" class="edge">
<title>Node58&#45;&gt;Node12</title>
<path fill="none" stroke="midnightblue" d="M1688.27,-559.48C1672.79,-537.79 1646,-494.24 1646,-452.5 1646,-452.5 1646,-452.5 1646,-383.5 1646,-297.33 1600.41,-201.57 1579.85,-162.76"/>
<polygon fill="midnightblue" stroke="midnightblue" points="1582.82,-160.91 1574.99,-153.77 1576.66,-164.23 1582.82,-160.91"/>
</g>
<!-- Node58&#45;&gt;Node13 -->
<g id="edge67" class="edge">
<title>Node58&#45;&gt;Node13</title>
<path fill="none" stroke="midnightblue" d="M1761.71,-571.63C2008.95,-563.82 2907.94,-531.2 3017,-467 3135.69,-397.13 3176,-338.73 3176,-201 3176,-201 3176,-201 3176,-143 3176,-91.99 3136.69,-87.55 3090,-67 3009.73,-31.67 2738.63,-20.29 2645.07,-17.37"/>
<polygon fill="midnightblue" stroke="midnightblue" points="2645.16,-13.87 2635.06,-17.07 2644.95,-20.87 2645.16,-13.87"/>
</g>
<!-- Node58&#45;&gt;Node14 -->
<g id="edge70" class="edge">
<title>Node58&#45;&gt;Node14</title>
<path fill="none" stroke="midnightblue" d="M1636.48,-566.69C1553.38,-557.51 1401.99,-540.29 1273,-523 1227.23,-516.86 494.96,-414.13 451,-400 302.89,-352.38 243.81,-339.11 157,-210 120.6,-155.87 95.11,-125.48 124,-67 131.92,-50.98 147.62,-38.64 161.73,-30.17"/>
<polygon fill="midnightblue" stroke="midnightblue" points="163.65,-33.1 170.67,-25.16 160.23,-26.99 163.65,-33.1"/>
</g>
<!-- Node58&#45;&gt;Node18 -->
<g id="edge69" class="edge">
<title>Node58&#45;&gt;Node18</title>
<path fill="none" stroke="midnightblue" d="M1673.8,-559.4C1631.49,-534.04 1547.88,-476.19 1518,-400 1512.97,-387.17 1513.53,-382.03 1518,-369 1521.72,-358.16 1529.23,-347.92 1536.35,-339.96"/>
<polygon fill="midnightblue" stroke="midnightblue" points="1539.05,-342.19 1543.44,-332.55 1534,-337.35 1539.05,-342.19"/>
</g>
<!-- Node58&#45;&gt;Node59 -->
<g id="edge72" class="edge">
<title>Node58&#45;&gt;Node59</title>
<path fill="none" stroke="midnightblue" d="M1636.14,-566.52C1590.98,-559.74 1529.58,-546.84 1480,-523 1451.3,-509.2 1423.38,-484.74 1406.68,-468.57"/>
<polygon fill="midnightblue" stroke="midnightblue" points="1409,-465.94 1399.43,-461.38 1404.07,-470.91 1409,-465.94"/>
</g>
<!-- Node75 -->
<g id="node34" class="node">
<title>Node75</title>
<g id="a_node34"><a xlink:href="../../dc/d8e/kratos__components_8h.html" target="_top" xlink:title=" ">
<polygon fill="none" stroke="red" points="2336.5,-503.5 2336.5,-522.5 2501.5,-522.5 2501.5,-503.5 2336.5,-503.5"/>
<text text-anchor="middle" x="2419" y="-510.5" font-family="Helvetica,sans-Serif" font-size="10.00">includes/kratos_components.h</text>
</a>
</g>
</g>
<!-- Node58&#45;&gt;Node75 -->
<g id="edge83" class="edge">
<title>Node58&#45;&gt;Node75</title>
<path fill="none" stroke="midnightblue" d="M1761.64,-568.32C1888.73,-557.82 2177.42,-533.96 2326.33,-521.66"/>
<polygon fill="midnightblue" stroke="midnightblue" points="2326.7,-525.14 2336.37,-520.83 2326.12,-518.16 2326.7,-525.14"/>
</g>
<!-- Node59&#45;&gt;Node3 -->
<g id="edge75" class="edge">
<title>Node59&#45;&gt;Node3</title>
<path fill="none" stroke="midnightblue" d="M1432.72,-441.93C1514.06,-424.78 1699.05,-383.48 1850,-333 1871.92,-325.67 1875.95,-319.92 1898,-313 1970.03,-290.39 1994.28,-305.95 2064,-277 2087.45,-267.26 2088.12,-254.63 2112,-246 2167.96,-225.77 2333.93,-211.47 2424.09,-204.96"/>
<polygon fill="midnightblue" stroke="midnightblue" points="2424.44,-208.44 2434.16,-204.24 2423.94,-201.46 2424.44,-208.44"/>
</g>
<!-- Node59&#45;&gt;Node8 -->
<g id="edge74" class="edge">
<title>Node59&#45;&gt;Node8</title>
<path fill="none" stroke="midnightblue" d="M1331.43,-448.92C1187.6,-444.62 829.93,-430.93 786,-400 664.56,-314.5 655.13,-174.13 758,-67 787.76,-36.01 836.81,-24.02 871.55,-19.39"/>
<polygon fill="midnightblue" stroke="midnightblue" points="872.31,-22.83 881.83,-18.18 871.49,-15.88 872.31,-22.83"/>
</g>
<!-- Node59&#45;&gt;Node13 -->
<g id="edge73" class="edge">
<title>Node59&#45;&gt;Node13</title>
<path fill="none" stroke="midnightblue" d="M1450.66,-449.48C1643.11,-445.87 2239.69,-432.18 2320,-400 2440.55,-351.7 2458.24,-309.24 2542,-210 2579.41,-165.67 2592.19,-153.51 2609,-98 2615.27,-77.29 2615.48,-52.28 2614.63,-35.47"/>
<polygon fill="midnightblue" stroke="midnightblue" points="2618.11,-35.04 2613.94,-25.3 2611.13,-35.52 2618.11,-35.04"/>
</g>
<!-- Node59&#45;&gt;Node16 -->
<g id="edge82" class="edge">
<title>Node59&#45;&gt;Node16</title>
<path fill="none" stroke="midnightblue" d="M1331.37,-448.67C1136.51,-442.48 528.96,-421.54 493,-400 379.17,-331.81 335.25,-159.66 323.5,-102.37"/>
<polygon fill="midnightblue" stroke="midnightblue" points="326.87,-101.38 321.52,-92.24 320,-102.72 326.87,-101.38"/>
</g>
<!-- Node59&#45;&gt;Node73 -->
<g id="edge76" class="edge">
<title>Node59&#45;&gt;Node73</title>
<path fill="none" stroke="midnightblue" d="M1352.13,-441.94C1298.85,-430.2 1203.13,-409.11 1145,-396.3"/>
<polygon fill="midnightblue" stroke="midnightblue" points="1145.47,-392.82 1134.96,-394.08 1143.97,-399.65 1145.47,-392.82"/>
</g>
<!-- Node73&#45;&gt;Node3 -->
<g id="edge80" class="edge">
<title>Node73&#45;&gt;Node3</title>
<path fill="none" stroke="midnightblue" d="M1128.23,-374.93C1137.18,-372.77 1146.92,-370.6 1156,-369 1296.07,-344.25 1337.07,-371.49 1474,-333 1494.29,-327.3 1496.59,-318.28 1517,-313 1736.57,-256.24 1810.87,-348.78 2026,-277 2050.09,-268.96 2050.07,-254.5 2074,-246 2137.05,-223.6 2326.55,-209.92 2424.27,-204.17"/>
<polygon fill="midnightblue" stroke="midnightblue" points="2424.51,-207.66 2434.29,-203.59 2424.11,-200.67 2424.51,-207.66"/>
</g>
<!-- Node73&#45;&gt;Node8 -->
<g id="edge78" class="edge">
<title>Node73&#45;&gt;Node8</title>
<path fill="none" stroke="midnightblue" d="M1049.93,-379.88C987.57,-372.3 877.93,-348.91 824,-277 767.43,-201.57 800.32,-144.5 854,-67 863.79,-52.87 878.4,-40.18 890.51,-31.05"/>
<polygon fill="midnightblue" stroke="midnightblue" points="892.73,-33.77 898.78,-25.07 888.63,-28.1 892.73,-33.77"/>
</g>
<!-- Node73&#45;&gt;Node13 -->
<g id="edge77" class="edge">
<title>Node73&#45;&gt;Node13</title>
<path fill="none" stroke="midnightblue" d="M1142.3,-380.13C1229.7,-373.45 1424.91,-357.08 1588,-333 1613.92,-329.17 2490.11,-164.75 2514,-154 2551.29,-137.23 2563.49,-131.46 2587,-98 2600.38,-78.96 2607.12,-52.7 2610.34,-35.19"/>
<polygon fill="midnightblue" stroke="midnightblue" points="2613.83,-35.54 2611.98,-25.11 2606.92,-34.41 2613.83,-35.54"/>
</g>
<!-- Node73&#45;&gt;Node18 -->
<g id="edge79" class="edge">
<title>Node73&#45;&gt;Node18</title>
<path fill="none" stroke="midnightblue" d="M1127.91,-374.94C1136.94,-372.74 1146.81,-370.57 1156,-369 1312.76,-342.26 1354.96,-358.09 1512,-333 1513.3,-332.79 1514.61,-332.57 1515.94,-332.34"/>
<polygon fill="midnightblue" stroke="midnightblue" points="1517.03,-335.69 1526.18,-330.35 1515.69,-328.82 1517.03,-335.69"/>
</g>
<!-- Node73&#45;&gt;Node19 -->
<g id="edge81" class="edge">
<title>Node73&#45;&gt;Node19</title>
<path fill="none" stroke="midnightblue" d="M1115.49,-374.98C1138.41,-364.95 1176.69,-348.2 1203.08,-336.65"/>
<polygon fill="midnightblue" stroke="midnightblue" points="1204.79,-339.72 1212.55,-332.51 1201.99,-333.31 1204.79,-339.72"/>
</g>
<!-- Node75&#45;&gt;Node3 -->
<g id="edge87" class="edge">
<title>Node75&#45;&gt;Node3</title>
<path fill="none" stroke="midnightblue" d="M2423.09,-503.19C2436.14,-475.15 2478.17,-385.6 2516,-313 2524.46,-296.77 2531.41,-294.72 2536,-277 2539.46,-263.66 2541.73,-258.53 2536,-246 2530.22,-233.36 2518.95,-222.91 2508.37,-215.27"/>
<polygon fill="midnightblue" stroke="midnightblue" points="2510.04,-212.18 2499.78,-209.53 2506.15,-218 2510.04,-212.18"/>
</g>
<!-- Node75&#45;&gt;Node8 -->
<g id="edge85" class="edge">
<title>Node75&#45;&gt;Node8</title>
<path fill="none" stroke="midnightblue" d="M2400.57,-503.42C2362.14,-485.36 2270.88,-441.68 2197,-400 1936.09,-252.82 1900.86,-142.6 1611,-67 1485.18,-34.18 1082.19,-20.96 952.57,-17.49"/>
<polygon fill="midnightblue" stroke="midnightblue" points="952.38,-13.99 942.3,-17.22 952.2,-20.98 952.38,-13.99"/>
</g>
<!-- Node75&#45;&gt;Node13 -->
<g id="edge84" class="edge">
<title>Node75&#45;&gt;Node13</title>
<path fill="none" stroke="midnightblue" d="M2501.76,-510.99C2651.18,-508.37 2953.84,-499.11 2989,-467 3057.09,-404.82 3024,-354.71 3024,-262.5 3024,-262.5 3024,-262.5 3024,-143 3024,-63.84 2742,-29.03 2645.18,-19.41"/>
<polygon fill="midnightblue" stroke="midnightblue" points="2645.39,-15.91 2635.1,-18.43 2644.71,-22.88 2645.39,-15.91"/>
</g>
<!-- Node75&#45;&gt;Node20 -->
<g id="edge86" class="edge">
<title>Node75&#45;&gt;Node20</title>
<path fill="none" stroke="midnightblue" d="M2415.7,-503.41C2401.93,-467.65 2349.01,-330.1 2329.92,-280.48"/>
<polygon fill="midnightblue" stroke="midnightblue" points="2333.15,-279.13 2326.29,-271.05 2326.62,-281.64 2333.15,-279.13"/>
</g>
<!-- Node75&#45;&gt;Node30 -->
<g id="edge88" class="edge">
<title>Node75&#45;&gt;Node30</title>
<path fill="none" stroke="midnightblue" d="M2429.03,-503.11C2461.99,-474.08 2570.43,-380.12 2668,-313 2687.74,-299.42 2711.27,-285.77 2728.72,-276.09"/>
<polygon fill="midnightblue" stroke="midnightblue" points="2730.64,-279.02 2737.73,-271.14 2727.28,-272.89 2730.64,-279.02"/>
</g>
<!-- Node75&#45;&gt;Node59 -->
<g id="edge89" class="edge">
<title>Node75&#45;&gt;Node59</title>
<path fill="none" stroke="midnightblue" d="M2336.18,-507.21C2138.88,-495.79 1643.92,-467.14 1460.66,-456.53"/>
<polygon fill="midnightblue" stroke="midnightblue" points="1460.79,-453.03 1450.61,-455.95 1460.39,-460.02 1460.79,-453.03"/>
</g>
<!-- Node82&#45;&gt;Node3 -->
<g id="edge98" class="edge">
<title>Node82&#45;&gt;Node3</title>
<path fill="none" stroke="midnightblue" d="M1691.25,-756.42C1834.23,-751.48 2249.29,-735.39 2306,-713 2326.27,-705 2325.58,-693.65 2344,-682 2437.16,-623.07 2568,-685.73 2568,-575.5 2568,-575.5 2568,-575.5 2568,-512 2568,-393.77 2632.47,-347 2571,-246 2561.54,-230.46 2544.79,-220.05 2528.5,-213.19"/>
<polygon fill="midnightblue" stroke="midnightblue" points="2529.6,-209.87 2519.01,-209.55 2527.1,-216.4 2529.6,-209.87"/>
</g>
<!-- Node82&#45;&gt;Node5 -->
<g id="edge96" class="edge">
<title>Node82&#45;&gt;Node5</title>
<path fill="none" stroke="midnightblue" d="M1594.91,-757.76C1471.25,-756.62 1144.81,-750.08 1044,-713 1040.94,-711.87 667,-437.29 664,-436 583.88,-401.45 532.03,-462.37 471,-400 387.6,-314.77 441.27,-234.14 506,-134 514.17,-121.36 525.43,-108.73 534.65,-99.25"/>
<polygon fill="midnightblue" stroke="midnightblue" points="537.19,-101.66 541.79,-92.11 532.25,-96.71 537.19,-101.66"/>
</g>
<!-- Node82&#45;&gt;Node8 -->
<g id="edge95" class="edge">
<title>Node82&#45;&gt;Node8</title>
<path fill="none" stroke="midnightblue" d="M1594.77,-757.47C1464.78,-755.58 1109.43,-747.33 998,-713 820.98,-658.46 799.93,-592.94 638,-503 552.32,-455.41 515.34,-466.13 443,-400 324.89,-292.04 292.42,-251.43 247,-98 243.09,-84.79 237.63,-77.1 247,-67 289.53,-21.12 734.2,-16.71 871.71,-16.45"/>
<polygon fill="midnightblue" stroke="midnightblue" points="871.82,-19.95 881.82,-16.44 871.81,-12.95 871.82,-19.95"/>
</g>
<!-- Node82&#45;&gt;Node13 -->
<g id="edge94" class="edge">
<title>Node82&#45;&gt;Node13</title>
<path fill="none" stroke="midnightblue" d="M1691.09,-755.98C1825.81,-750.11 2198.26,-732.19 2216,-713 2225.35,-702.88 2216.04,-695.78 2216,-682 2215.78,-602.44 2222.09,-582.24 2215,-503 2212.32,-473.07 2182.17,-395.13 2197,-369 2236.35,-299.66 2311.65,-346.34 2351,-277 2401.03,-188.84 2195.62,-143.61 2262,-67 2303.1,-19.56 2501.42,-15.65 2580.42,-16.03"/>
<polygon fill="midnightblue" stroke="midnightblue" points="2580.72,-19.53 2590.75,-16.11 2580.77,-12.53 2580.72,-19.53"/>
</g>
<!-- Node82&#45;&gt;Node18 -->
<g id="edge97" class="edge">
<title>Node82&#45;&gt;Node18</title>
<path fill="none" stroke="midnightblue" d="M1594.79,-753.88C1560.05,-748.86 1513.57,-737.72 1480,-713 1375.36,-635.96 1358.59,-591.68 1322,-467 1318.12,-453.78 1314.69,-447.68 1322,-436 1344.26,-400.47 1458.54,-356.68 1517.58,-335.96"/>
<polygon fill="midnightblue" stroke="midnightblue" points="1518.95,-339.19 1527.25,-332.6 1516.65,-332.57 1518.95,-339.19"/>
</g>
<!-- Node82&#45;&gt;Node30 -->
<g id="edge122" class="edge">
<title>Node82&#45;&gt;Node30</title>
<path fill="none" stroke="midnightblue" d="M1691.04,-756.46C1839.22,-751.48 2282.95,-734.9 2344,-713 2366.18,-705.05 2365.33,-691.25 2387,-682 2468.05,-647.39 2511.67,-699.11 2582,-646 2707.54,-551.2 2743.62,-344.1 2751.88,-281.07"/>
<polygon fill="midnightblue" stroke="midnightblue" points="2755.37,-281.39 2753.11,-271.04 2748.42,-280.54 2755.37,-281.39"/>
</g>
<!-- Node82&#45;&gt;Node58 -->
<g id="edge123" class="edge">
<title>Node82&#45;&gt;Node58</title>
<path fill="none" stroke="midnightblue" d="M1613.69,-749.41C1554.58,-730.63 1430.44,-683.03 1476,-626 1494.64,-602.67 1568.41,-589.32 1626.06,-582.27"/>
<polygon fill="midnightblue" stroke="midnightblue" points="1626.73,-585.72 1636.25,-581.07 1625.91,-578.77 1626.73,-585.72"/>
</g>
<!-- Node83 -->
<g id="node36" class="node">
<title>Node83</title>
<g id="a_node36"><a xlink:href="../../d4/d35/pointer__vector__set_8h.html" target="_top" xlink:title=" ">
<polygon fill="none" stroke="red" points="795.5,-369.5 795.5,-399.5 900.5,-399.5 900.5,-369.5 795.5,-369.5"/>
<text text-anchor="start" x="803.5" y="-387.5" font-family="Helvetica,sans-Serif" font-size="10.00">containers/pointer</text>
<text text-anchor="middle" x="848" y="-376.5" font-family="Helvetica,sans-Serif" font-size="10.00">_vector_set.h</text>
</a>
</g>
</g>
<!-- Node82&#45;&gt;Node83 -->
<g id="edge99" class="edge">
<title>Node82&#45;&gt;Node83</title>
<path fill="none" stroke="midnightblue" d="M1594.64,-758.14C1484.57,-757.76 1218.82,-752.63 1140,-713 1103.62,-694.71 924.33,-478.53 866.22,-407.76"/>
<polygon fill="midnightblue" stroke="midnightblue" points="868.8,-405.39 859.75,-399.88 863.38,-409.83 868.8,-405.39"/>
</g>
<!-- Node82&#45;&gt;Node86 -->
<g id="edge108" class="edge">
<title>Node82&#45;&gt;Node86</title>
<path fill="none" stroke="midnightblue" d="M1594.82,-757.52C1479.46,-755.82 1190.32,-748.06 1101,-713 1008.18,-676.56 837.32,-480.32 748,-436 736.12,-430.11 669.4,-413.19 617.69,-400.55"/>
<polygon fill="midnightblue" stroke="midnightblue" points="618.45,-397.14 607.9,-398.17 616.79,-403.94 618.45,-397.14"/>
</g>
<!-- Node88 -->
<g id="node38" class="node">
<title>Node88</title>
<g id="a_node38"><a xlink:href="../../de/d69/indexed__object_8h.html" target="_top" xlink:title=" ">
<polygon fill="none" stroke="black" points="1485.5,-626.5 1485.5,-645.5 1628.5,-645.5 1628.5,-626.5 1485.5,-626.5"/>
<text text-anchor="middle" x="1557" y="-633.5" font-family="Helvetica,sans-Serif" font-size="10.00">includes/indexed_object.h</text>
</a>
</g>
</g>
<!-- Node82&#45;&gt;Node88 -->
<g id="edge115" class="edge">
<title>Node82&#45;&gt;Node88</title>
<path fill="none" stroke="midnightblue" d="M1636.82,-749.3C1622.62,-729.33 1587.51,-679.92 1568.94,-653.8"/>
<polygon fill="midnightblue" stroke="midnightblue" points="1571.78,-651.75 1563.13,-645.62 1566.07,-655.8 1571.78,-651.75"/>
</g>
<!-- Node89 -->
<g id="node39" class="node">
<title>Node89</title>
<g id="a_node39"><a xlink:href="../../d4/d67/geometry_8h.html" target="_top" xlink:title=" ">
<polygon fill="none" stroke="red" points="1723,-626.5 1723,-645.5 1853,-645.5 1853,-626.5 1723,-626.5"/>
<text text-anchor="middle" x="1788" y="-633.5" font-family="Helvetica,sans-Serif" font-size="10.00">geometries/geometry.h</text>
</a>
</g>
</g>
<!-- Node82&#45;&gt;Node89 -->
<g id="edge119" class="edge">
<title>Node82&#45;&gt;Node89</title>
<path fill="none" stroke="midnightblue" d="M1653.43,-749.3C1677.88,-728.89 1739.17,-677.75 1769.87,-652.13"/>
<polygon fill="midnightblue" stroke="midnightblue" points="1772.23,-654.72 1777.67,-645.62 1767.75,-649.34 1772.23,-654.72"/>
</g>
<!-- Node82&#45;&gt;Node98 -->
<g id="edge124" class="edge">
<title>Node82&#45;&gt;Node98</title>
<path fill="none" stroke="midnightblue" d="M1689.71,-749.48C1743.6,-739.64 1832.89,-723.34 1895.99,-711.83"/>
<polygon fill="midnightblue" stroke="midnightblue" points="1896.67,-715.26 1905.88,-710.02 1895.41,-708.37 1896.67,-715.26"/>
</g>
<!-- Node83&#45;&gt;Node3 -->
<g id="edge106" class="edge">
<title>Node83&#45;&gt;Node3</title>
<path fill="none" stroke="midnightblue" d="M900.57,-379.55C1040.03,-369.01 1410.5,-340.47 1436,-333 1454.31,-327.63 1455.7,-318.4 1474,-313 1645.19,-262.45 1697.39,-302.87 1874,-277 1942.22,-267.01 1957.82,-256.27 2026,-246 2168.11,-224.59 2336.64,-211.05 2424.29,-204.89"/>
<polygon fill="midnightblue" stroke="midnightblue" points="2424.58,-208.38 2434.32,-204.19 2424.1,-201.39 2424.58,-208.38"/>
</g>
<!-- Node83&#45;&gt;Node5 -->
<g id="edge103" class="edge">
<title>Node83&#45;&gt;Node5</title>
<path fill="none" stroke="midnightblue" d="M826.81,-369.33C811.94,-359.32 791.63,-345.51 774,-333 739.78,-308.73 728.15,-306.18 698,-277 647.97,-228.58 642.71,-209.75 601,-154 587.58,-136.06 572.81,-115.07 562.82,-100.68"/>
<polygon fill="midnightblue" stroke="midnightblue" points="565.58,-98.52 557.02,-92.29 559.82,-102.5 565.58,-98.52"/>
</g>
<!-- Node83&#45;&gt;Node8 -->
<g id="edge102" class="edge">
<title>Node83&#45;&gt;Node8</title>
<path fill="none" stroke="midnightblue" d="M833.27,-369.44C818.34,-355.2 794.58,-332.55 774,-313 757.13,-296.98 745.19,-298.37 736,-277 730.56,-264.34 734.2,-259.66 736,-246 746.76,-164.34 729.16,-128.46 784,-67 806.59,-41.68 843.53,-28.91 871.93,-22.56"/>
<polygon fill="midnightblue" stroke="midnightblue" points="872.87,-25.94 881.96,-20.5 871.46,-19.08 872.87,-25.94"/>
</g>
<!-- Node83&#45;&gt;Node9 -->
<g id="edge105" class="edge">
<title>Node83&#45;&gt;Node9</title>
<path fill="none" stroke="midnightblue" d="M900.58,-371.56C951.83,-359.55 1023.53,-341.61 1034,-333 1067.31,-305.6 1041.96,-271.15 1077,-246 1125.81,-210.96 1285.69,-219.66 1345,-210 1475.42,-188.75 1507.55,-180.54 1637,-154 1743.39,-132.19 1868.98,-104.1 1927.25,-90.94"/>
<polygon fill="midnightblue" stroke="midnightblue" points="1928.35,-94.28 1937.33,-88.66 1926.8,-87.45 1928.35,-94.28"/>
</g>
<!-- Node83&#45;&gt;Node13 -->
<g id="edge101" class="edge">
<title>Node83&#45;&gt;Node13</title>
<path fill="none" stroke="midnightblue" d="M867.29,-369.38C910.56,-337.94 1014.61,-263.51 1054,-246 1176.33,-191.61 1509.23,-134.65 1638,-98 1681.94,-85.49 1691.07,-75.27 1736,-67 1820.23,-51.5 2431.87,-24.32 2580.51,-17.89"/>
<polygon fill="midnightblue" stroke="midnightblue" points="2580.95,-21.38 2590.79,-17.45 2580.64,-14.38 2580.95,-21.38"/>
</g>
<!-- Node83&#45;&gt;Node14 -->
<g id="edge100" class="edge">
<title>Node83&#45;&gt;Node14</title>
<path fill="none" stroke="midnightblue" d="M806.13,-369.45C726.36,-342.18 547.74,-278.7 404,-210 358.74,-188.37 349.27,-179.38 306,-154 264.38,-129.59 242.27,-136.35 213,-98 198.88,-79.51 193.43,-52.73 191.33,-34.98"/>
<polygon fill="midnightblue" stroke="midnightblue" points="194.81,-34.65 190.38,-25.03 187.84,-35.31 194.81,-34.65"/>
</g>
<!-- Node83&#45;&gt;Node18 -->
<g id="edge104" class="edge">
<title>Node83&#45;&gt;Node18</title>
<path fill="none" stroke="midnightblue" d="M900.81,-379.47C1030.7,-369.51 1363.17,-343.78 1474,-333 1487.77,-331.66 1502.86,-329.99 1516.14,-328.45"/>
<polygon fill="midnightblue" stroke="midnightblue" points="1516.8,-331.9 1526.33,-327.26 1515.99,-324.95 1516.8,-331.9"/>
</g>
<!-- Node83&#45;&gt;Node19 -->
<g id="edge107" class="edge">
<title>Node83&#45;&gt;Node19</title>
<path fill="none" stroke="midnightblue" d="M900.6,-371.74C905.46,-370.77 910.31,-369.84 915,-369 1001.09,-353.59 1101.09,-340.13 1165.39,-332.04"/>
<polygon fill="midnightblue" stroke="midnightblue" points="1165.91,-335.5 1175.4,-330.78 1165.04,-328.55 1165.91,-335.5"/>
</g>
<!-- Node86&#45;&gt;Node3 -->
<g id="edge114" class="edge">
<title>Node86&#45;&gt;Node3</title>
<path fill="none" stroke="midnightblue" d="M607.75,-380.14C765.84,-370.04 1229.03,-340.19 1297,-333 1359.07,-326.43 1374.04,-320.49 1436,-313 1598.71,-293.32 1644.39,-318.3 1803,-277 1836.32,-268.32 1840.58,-254.27 1874,-246 1926.42,-233.02 2280.65,-212.26 2423.98,-204.27"/>
<polygon fill="midnightblue" stroke="midnightblue" points="2424.55,-207.75 2434.34,-203.7 2424.16,-200.76 2424.55,-207.75"/>
</g>
<!-- Node86&#45;&gt;Node5 -->
<g id="edge112" class="edge">
<title>Node86&#45;&gt;Node5</title>
<path fill="none" stroke="midnightblue" d="M551.81,-369.44C549.69,-359.36 547.1,-345.42 546,-333 538.4,-247 545.66,-143.72 549.25,-102.16"/>
<polygon fill="midnightblue" stroke="midnightblue" points="552.74,-102.41 550.15,-92.14 545.77,-101.79 552.74,-102.41"/>
</g>
<!-- Node86&#45;&gt;Node8 -->
<g id="edge111" class="edge">
<title>Node86&#45;&gt;Node8</title>
<path fill="none" stroke="midnightblue" d="M535.91,-369.44C501.63,-342.85 430.73,-281.43 404,-210 381.17,-149 382.82,-104.6 436,-67 505.63,-17.77 769.56,-15.02 871.49,-15.86"/>
<polygon fill="midnightblue" stroke="midnightblue" points="871.65,-19.36 881.68,-15.96 871.72,-12.36 871.65,-19.36"/>
</g>
<!-- Node86&#45;&gt;Node13 -->
<g id="edge110" class="edge">
<title>Node86&#45;&gt;Node13</title>
<path fill="none" stroke="midnightblue" d="M580.23,-369.32C629.66,-342.06 743.31,-281.84 845,-246 1148.27,-139.12 1227.99,-114.62 1546,-67 1650.43,-51.36 2413.55,-23.58 2580.7,-17.64"/>
<polygon fill="midnightblue" stroke="midnightblue" points="2580.97,-21.13 2590.84,-17.28 2580.72,-14.14 2580.97,-21.13"/>
</g>
<!-- Node86&#45;&gt;Node14 -->
<g id="edge109" class="edge">
<title>Node86&#45;&gt;Node14</title>
<path fill="none" stroke="midnightblue" d="M502.14,-373.95C406.79,-353.44 209.28,-295.06 138,-154 120.56,-119.49 122.94,-102.61 138,-67 144.09,-52.59 156.53,-40.27 167.71,-31.4"/>
<polygon fill="midnightblue" stroke="midnightblue" points="169.96,-34.09 175.89,-25.32 165.78,-28.48 169.96,-34.09"/>
</g>
<!-- Node86&#45;&gt;Node18 -->
<g id="edge113" class="edge">
<title>Node86&#45;&gt;Node18</title>
<path fill="none" stroke="midnightblue" d="M607.75,-380.08C654.56,-377.07 724.83,-372.61 786,-369 1074.83,-351.94 1147.3,-352.1 1436,-333 1462.79,-331.23 1493.02,-328.89 1516.03,-327.05"/>
<polygon fill="midnightblue" stroke="midnightblue" points="1516.37,-330.53 1526.06,-326.24 1515.81,-323.55 1516.37,-330.53"/>
</g>
<!-- Node88&#45;&gt;Node3 -->
<g id="edge117" class="edge">
<title>Node88&#45;&gt;Node3</title>
<path fill="none" stroke="midnightblue" d="M1606.06,-626.43C1649.5,-618.42 1714.46,-605.4 1770,-590 1894.61,-555.46 2209.44,-467.06 2320,-400 2388.01,-358.75 2403.99,-341.88 2450,-277 2462.77,-258.99 2472.41,-235.41 2478.1,-219.33"/>
<polygon fill="midnightblue" stroke="midnightblue" points="2481.52,-220.14 2481.41,-209.55 2474.89,-217.9 2481.52,-220.14"/>
</g>
<!-- Node88&#45;&gt;Node8 -->
<g id="edge116" class="edge">
<title>Node88&#45;&gt;Node8</title>
<path fill="none" stroke="midnightblue" d="M1485.44,-633.53C1331.78,-626.67 966.45,-590.02 747,-400 634.95,-302.98 615.96,-162.86 729,-67 769.47,-32.68 831.41,-21.56 871.81,-18.02"/>
<polygon fill="midnightblue" stroke="midnightblue" points="872.14,-21.51 881.84,-17.26 871.61,-14.53 872.14,-21.51"/>
</g>
<!-- Node88&#45;&gt;Node19 -->
<g id="edge118" class="edge">
<title>Node88&#45;&gt;Node19</title>
<path fill="none" stroke="midnightblue" d="M1485.05,-626.51C1368.18,-608.41 1140.2,-554.18 1041,-400 1009.04,-350.33 1098.24,-333.12 1165.29,-327.16"/>
<polygon fill="midnightblue" stroke="midnightblue" points="1165.74,-330.63 1175.42,-326.32 1165.17,-323.65 1165.74,-330.63"/>
</g>
<!-- Node89&#45;&gt;Node26 -->
<g id="edge121" class="edge">
<title>Node89&#45;&gt;Node26</title>
<path fill="none" stroke="midnightblue" d="M1786.72,-626.16C1779.76,-578.15 1746.45,-348.41 1736.69,-281.08"/>
<polygon fill="midnightblue" stroke="midnightblue" points="1740.14,-280.49 1735.25,-271.09 1733.22,-281.49 1740.14,-280.49"/>
</g>
<!-- Node89&#45;&gt;Node58 -->
<g id="edge120" class="edge">
<title>Node89&#45;&gt;Node58</title>
<path fill="none" stroke="midnightblue" d="M1775.25,-626.48C1763.08,-618.34 1744.31,-605.79 1728.44,-595.18"/>
<polygon fill="midnightblue" stroke="midnightblue" points="1730.23,-592.17 1719.98,-589.52 1726.34,-597.99 1730.23,-592.17"/>
</g>
<!-- Node98&#45;&gt;Node3 -->
<g id="edge125" class="edge">
<title>Node98&#45;&gt;Node3</title>
<path fill="none" stroke="midnightblue" d="M1969.68,-682.44C1970.69,-668 1973.13,-645.02 1979,-626 1988.79,-594.28 1996.71,-588.46 2012,-559 2085.04,-418.31 2053.03,-336.76 2183,-246 2220.86,-219.56 2347.33,-208.25 2423.76,-203.73"/>
<polygon fill="midnightblue" stroke="midnightblue" points="2424.42,-207.2 2434.2,-203.14 2424.02,-200.21 2424.42,-207.2"/>
</g>
<!-- Node98&#45;&gt;Node30 -->
<g id="edge126" class="edge">
<title>Node98&#45;&gt;Node30</title>
<path fill="none" stroke="midnightblue" d="M2032.08,-682.75C2167.1,-652.61 2479.34,-578.97 2572,-523 2602.67,-504.48 2607.64,-495 2630,-467 2680.93,-403.25 2726.74,-316.86 2745.28,-280.16"/>
<polygon fill="midnightblue" stroke="midnightblue" points="2748.42,-281.7 2749.76,-271.19 2742.16,-278.57 2748.42,-281.7"/>
</g>
<!-- Node98&#45;&gt;Node57 -->
<g id="edge128" class="edge">
<title>Node98&#45;&gt;Node57</title>
<path fill="none" stroke="midnightblue" d="M1989.14,-682.4C2002.39,-673.13 2019.68,-661.03 2033.08,-651.65"/>
<polygon fill="midnightblue" stroke="midnightblue" points="2035.45,-654.26 2041.63,-645.66 2031.43,-648.53 2035.45,-654.26"/>
</g>
<!-- Node98&#45;&gt;Node59 -->
<g id="edge127" class="edge">
<title>Node98&#45;&gt;Node59</title>
<path fill="none" stroke="midnightblue" d="M1905.59,-693.54C1780.27,-687.19 1510.03,-670.79 1476,-646 1417.42,-603.34 1398.64,-511.33 1393.11,-471.51"/>
<polygon fill="midnightblue" stroke="midnightblue" points="1396.55,-470.83 1391.84,-461.34 1389.61,-471.7 1396.55,-470.83"/>
</g>
<!-- Node98&#45;&gt;Node88 -->
<g id="edge129" class="edge">
<title>Node98&#45;&gt;Node88</title>
<path fill="none" stroke="midnightblue" d="M1905.98,-687.4C1830.47,-676.49 1704.4,-658.29 1626.24,-647"/>
<polygon fill="midnightblue" stroke="midnightblue" points="1626.4,-643.49 1616.01,-645.52 1625.4,-650.42 1626.4,-643.49"/>
</g>
<!-- Node109&#45;&gt;Node3 -->
<g id="edge131" class="edge">
<title>Node109&#45;&gt;Node3</title>
<path fill="none" stroke="midnightblue" d="M2926.91,-436.36C2941.21,-399.62 2973.02,-300.29 2924,-246 2898.99,-218.3 2658.28,-206.72 2543.85,-202.75"/>
<polygon fill="midnightblue" stroke="midnightblue" points="2543.96,-199.25 2533.85,-202.41 2543.72,-206.25 2543.96,-199.25"/>
</g>
<!-- Node109&#45;&gt;Node110 -->
<g id="edge132" class="edge">
<title>Node109&#45;&gt;Node110</title>
<path fill="none" stroke="midnightblue" d="M2861.96,-444.7C2737.46,-432.48 2449.02,-404.16 2321.53,-391.64"/>
<polygon fill="midnightblue" stroke="midnightblue" points="2321.82,-388.15 2311.53,-390.66 2321.14,-395.12 2321.82,-388.15"/>
</g>
<!-- Node110&#45;&gt;Node3 -->
<g id="edge135" class="edge">
<title>Node110&#45;&gt;Node3</title>
<path fill="none" stroke="midnightblue" d="M2288.98,-369.49C2308.13,-360.08 2333.18,-346.9 2354,-333 2386.56,-311.26 2394.38,-304.75 2422,-277 2440.68,-258.24 2459.54,-234.23 2471.47,-218.27"/>
<polygon fill="midnightblue" stroke="midnightblue" points="2474.52,-220.03 2477.64,-209.9 2468.89,-215.87 2474.52,-220.03"/>
</g>
<!-- Node110&#45;&gt;Node9 -->
<g id="edge133" class="edge">
<title>Node110&#45;&gt;Node9</title>
<path fill="none" stroke="midnightblue" d="M2279.43,-369.37C2311.93,-346.38 2372.89,-301.07 2384,-277 2389.78,-264.49 2391.86,-257.32 2384,-246 2330.3,-168.66 2072.78,-136.81 1987,-98 1986.15,-97.62 1985.29,-97.22 1984.43,-96.81"/>
<polygon fill="midnightblue" stroke="midnightblue" points="1985.74,-93.55 1975.24,-92.15 1982.58,-99.79 1985.74,-93.55"/>
</g>
<!-- Node110&#45;&gt;Node19 -->
<g id="edge136" class="edge">
<title>Node110&#45;&gt;Node19</title>
<path fill="none" stroke="midnightblue" d="M2206.3,-380.45C2034.3,-370.48 1489.42,-338.91 1298.7,-327.86"/>
<polygon fill="midnightblue" stroke="midnightblue" points="1298.73,-324.36 1288.54,-327.28 1298.32,-331.35 1298.73,-324.36"/>
</g>
<!-- Node110&#45;&gt;Node24 -->
<g id="edge134" class="edge">
<title>Node110&#45;&gt;Node24</title>
<path fill="none" stroke="midnightblue" d="M2256.63,-369.14C2253,-347.2 2246.08,-305.33 2242.07,-281.09"/>
<polygon fill="midnightblue" stroke="midnightblue" points="2245.5,-280.35 2240.41,-271.05 2238.59,-281.49 2245.5,-280.35"/>
</g>
<!-- Node112&#45;&gt;Node57 -->
<g id="edge153" class="edge">
<title>Node112&#45;&gt;Node57</title>
<path fill="none" stroke="midnightblue" d="M2055.86,-749.3C2055.53,-729.85 2054.75,-682.49 2054.31,-655.9"/>
<polygon fill="midnightblue" stroke="midnightblue" points="2057.81,-655.56 2054.14,-645.62 2050.81,-655.68 2057.81,-655.56"/>
</g>
<!-- Node113 -->
<g id="node44" class="node">
<title>Node113</title>
<g id="a_node44"><a xlink:href="../../d8/dbb/properties_8h.html" target="_top" xlink:title=" ">
<polygon fill="none" stroke="red" points="2088.5,-688 2088.5,-707 2207.5,-707 2207.5,-688 2088.5,-688"/>
<text text-anchor="middle" x="2148" y="-695" font-family="Helvetica,sans-Serif" font-size="10.00">includes/properties.h</text>
</a>
</g>
</g>
<!-- Node112&#45;&gt;Node113 -->
<g id="edge138" class="edge">
<title>Node112&#45;&gt;Node113</title>
<path fill="none" stroke="midnightblue" d="M2069.18,-749.48C2084.07,-739.84 2108.54,-724.02 2126.27,-712.55"/>
<polygon fill="midnightblue" stroke="midnightblue" points="2128.35,-715.38 2134.84,-707.01 2124.55,-709.5 2128.35,-715.38"/>
</g>
<!-- Node116 -->
<g id="node46" class="node">
<title>Node116</title>
<g id="a_node46"><a xlink:href="../../d5/d6d/geometrical__object_8h.html" target="_top" xlink:title=" ">
<polygon fill="none" stroke="red" points="2396.5,-682.5 2396.5,-712.5 2515.5,-712.5 2515.5,-682.5 2396.5,-682.5"/>
<text text-anchor="start" x="2404.5" y="-700.5" font-family="Helvetica,sans-Serif" font-size="10.00">includes/geometrical</text>
<text text-anchor="middle" x="2456" y="-689.5" font-family="Helvetica,sans-Serif" font-size="10.00">_object.h</text>
</a>
</g>
</g>
<!-- Node112&#45;&gt;Node116 -->
<g id="edge154" class="edge">
<title>Node112&#45;&gt;Node116</title>
<path fill="none" stroke="midnightblue" d="M2111.16,-750.23C2114.15,-749.81 2117.11,-749.4 2120,-749 2236.42,-732.82 2266.06,-732.31 2382,-713 2383.45,-712.76 2384.92,-712.51 2386.4,-712.26"/>
<polygon fill="midnightblue" stroke="midnightblue" points="2387.04,-715.7 2396.28,-710.51 2385.82,-708.8 2387.04,-715.7"/>
</g>
<!-- Node113&#45;&gt;Node3 -->
<g id="edge143" class="edge">
<title>Node113&#45;&gt;Node3</title>
<path fill="none" stroke="midnightblue" d="M2190.6,-687.93C2321.56,-658.86 2715.29,-550.09 2814,-277 2818.68,-264.04 2823.06,-256.38 2814,-246 2779.61,-206.6 2629.04,-200.41 2543.66,-200.17"/>
<polygon fill="midnightblue" stroke="midnightblue" points="2543.59,-196.67 2533.58,-200.17 2543.58,-203.67 2543.59,-196.67"/>
</g>
<!-- Node113&#45;&gt;Node8 -->
<g id="edge140" class="edge">
<title>Node113&#45;&gt;Node8</title>
<path fill="none" stroke="midnightblue" d="M2088.33,-688.09C2072.93,-686.01 2056.36,-683.85 2041,-682 1888.81,-663.71 1839.99,-703.74 1698,-646 1632.22,-619.25 1608,-585.01 1608,-514 1608,-514 1608,-514 1608,-383.5 1608,-350.93 1611.89,-335.14 1588,-313 1529.13,-258.43 1483.55,-311.37 1411,-277 1391.3,-267.67 1391.31,-257.82 1373,-246 1219.87,-147.18 1018.31,-60.22 942.54,-28.89"/>
<polygon fill="midnightblue" stroke="midnightblue" points="943.69,-25.58 933.11,-25.01 941.02,-32.05 943.69,-25.58"/>
</g>
<!-- Node113&#45;&gt;Node13 -->
<g id="edge139" class="edge">
<title>Node113&#45;&gt;Node13</title>
<path fill="none" stroke="midnightblue" d="M2207.56,-691.94C2419.72,-675.48 3128.02,-618.62 3167,-590 3218.62,-552.11 3290,-508.28 3290,-262.5 3290,-262.5 3290,-262.5 3290,-143 3290,-83.94 3236.5,-87.18 3181,-67 3081.27,-30.73 2750.23,-19.79 2645.24,-17.19"/>
<polygon fill="midnightblue" stroke="midnightblue" points="2645.32,-13.7 2635.24,-16.96 2645.15,-20.69 2645.32,-13.7"/>
</g>
<!-- Node113&#45;&gt;Node18 -->
<g id="edge141" class="edge">
<title>Node113&#45;&gt;Node18</title>
<path fill="none" stroke="midnightblue" d="M2106.36,-687.95C2071.29,-679.84 2020.38,-665.93 1979,-646 1806.38,-562.86 1770.31,-524.87 1625,-400 1603.13,-381.21 1580.72,-356.53 1566.84,-340.47"/>
<polygon fill="midnightblue" stroke="midnightblue" points="1569.21,-337.86 1560.06,-332.52 1563.89,-342.4 1569.21,-337.86"/>
</g>
<!-- Node113&#45;&gt;Node24 -->
<g id="edge142" class="edge">
<title>Node113&#45;&gt;Node24</title>
<path fill="none" stroke="midnightblue" d="M2151.65,-687.68C2161.84,-662.52 2190.47,-588.03 2200,-523 2210.2,-453.45 2142.77,-436.01 2164,-369 2175.53,-332.59 2204.49,-297.87 2222.86,-278.46"/>
<polygon fill="midnightblue" stroke="midnightblue" points="2225.54,-280.72 2230,-271.12 2220.52,-275.84 2225.54,-280.72"/>
</g>
<!-- Node113&#45;&gt;Node57 -->
<g id="edge146" class="edge">
<title>Node113&#45;&gt;Node57</title>
<path fill="none" stroke="midnightblue" d="M2134.53,-687.98C2119.32,-678.34 2094.31,-662.52 2076.2,-651.05"/>
<polygon fill="midnightblue" stroke="midnightblue" points="2077.76,-647.9 2067.44,-645.51 2074.02,-653.81 2077.76,-647.9"/>
</g>
<!-- Node113&#45;&gt;Node58 -->
<g id="edge145" class="edge">
<title>Node113&#45;&gt;Node58</title>
<path fill="none" stroke="midnightblue" d="M2088.33,-688.14C2072.92,-686.06 2056.35,-683.88 2041,-682 1968.44,-673.09 1768.21,-695.05 1714,-646 1701.46,-634.65 1697.98,-615.63 1697.49,-600.2"/>
<polygon fill="midnightblue" stroke="midnightblue" points="1700.99,-599.79 1697.57,-589.76 1693.99,-599.74 1700.99,-599.79"/>
</g>
<!-- Node113&#45;&gt;Node88 -->
<g id="edge144" class="edge">
<title>Node113&#45;&gt;Node88</title>
<path fill="none" stroke="midnightblue" d="M2088.63,-687.98C2073.14,-685.88 2056.46,-683.75 2041,-682 1864.51,-662.07 1819.77,-663.24 1643,-646 1641.7,-645.87 1640.38,-645.74 1639.06,-645.61"/>
<polygon fill="midnightblue" stroke="midnightblue" points="1639.09,-642.1 1628.79,-644.59 1638.39,-649.06 1639.09,-642.1"/>
</g>
<!-- Node113&#45;&gt;Node115 -->
<g id="edge147" class="edge">
<title>Node113&#45;&gt;Node115</title>
<path fill="none" stroke="midnightblue" d="M2147.81,-687.7C2147.19,-659.69 2145.28,-572.21 2144.42,-533.16"/>
<polygon fill="midnightblue" stroke="midnightblue" points="2147.91,-532.63 2144.19,-522.71 2140.91,-532.79 2147.91,-532.63"/>
</g>
<!-- Node115&#45;&gt;Node3 -->
<g id="edge151" class="edge">
<title>Node115&#45;&gt;Node3</title>
<path fill="none" stroke="midnightblue" d="M2173.31,-503.38C2222.06,-488.08 2321.43,-452.75 2392,-400 2449.8,-356.8 2472.87,-344.65 2498,-277 2505.06,-257.99 2498.91,-234.94 2492.68,-219.24"/>
<polygon fill="midnightblue" stroke="midnightblue" points="2495.72,-217.46 2488.52,-209.69 2489.3,-220.26 2495.72,-217.46"/>
</g>
<!-- Node115&#45;&gt;Node8 -->
<g id="edge149" class="edge">
<title>Node115&#45;&gt;Node8</title>
<path fill="none" stroke="midnightblue" d="M2139.87,-503.2C2125.24,-472.84 2072.88,-371.14 2002,-313 1971.85,-288.27 1954.02,-299.24 1922,-277 1877.34,-245.99 1880.94,-220.6 1836,-190 1750.09,-131.51 1712.76,-146.81 1621,-98 1598.58,-86.07 1597.07,-75.11 1573,-67 1457.08,-27.96 1077.97,-18.94 952.63,-17"/>
<polygon fill="midnightblue" stroke="midnightblue" points="952.39,-13.49 942.33,-16.84 952.28,-20.49 952.39,-13.49"/>
</g>
<!-- Node115&#45;&gt;Node13 -->
<g id="edge148" class="edge">
<title>Node115&#45;&gt;Node13</title>
<path fill="none" stroke="midnightblue" d="M2191.28,-509.63C2368.67,-500.74 2984.73,-469.66 2989,-467 3046.52,-431.2 3138,-268.75 3138,-201 3138,-201 3138,-201 3138,-143 3138,-41.16 2759.93,-21.07 2645.46,-17.32"/>
<polygon fill="midnightblue" stroke="midnightblue" points="2645.33,-13.81 2635.22,-17 2645.11,-20.81 2645.33,-13.81"/>
</g>
<!-- Node115&#45;&gt;Node26 -->
<g id="edge150" class="edge">
<title>Node115&#45;&gt;Node26</title>
<path fill="none" stroke="midnightblue" d="M2124.19,-503.41C2104.9,-494.83 2074.94,-480.97 2050,-467 2048.09,-465.93 1827.79,-323.25 1756.19,-276.88"/>
<polygon fill="midnightblue" stroke="midnightblue" points="1757.78,-273.73 1747.48,-271.23 1753.97,-279.61 1757.78,-273.73"/>
</g>
<!-- Node115&#45;&gt;Node59 -->
<g id="edge152" class="edge">
<title>Node115&#45;&gt;Node59</title>
<path fill="none" stroke="midnightblue" d="M2096.9,-508.28C1968.56,-498.14 1612.23,-469.98 1460.67,-458"/>
<polygon fill="midnightblue" stroke="midnightblue" points="1460.79,-454.5 1450.55,-457.21 1460.24,-461.48 1460.79,-454.5"/>
</g>
<!-- Node116&#45;&gt;Node3 -->
<g id="edge155" class="edge">
<title>Node116&#45;&gt;Node3</title>
<path fill="none" stroke="midnightblue" d="M2515.61,-687.83C2613.12,-671.94 2796,-634.32 2796,-575.5 2796,-575.5 2796,-575.5 2796,-512 2796,-391.54 2927.78,-336.25 2848,-246 2828.22,-223.62 2641.94,-209.88 2543.82,-204.13"/>
<polygon fill="midnightblue" stroke="midnightblue" points="2543.93,-200.63 2533.74,-203.55 2543.53,-207.62 2543.93,-200.63"/>
</g>
<!-- Node116&#45;&gt;Node30 -->
<g id="edge156" class="edge">
<title>Node116&#45;&gt;Node30</title>
<path fill="none" stroke="midnightblue" d="M2515.76,-685.34C2548.16,-677.56 2588.01,-665.07 2620,-646 2684.02,-607.83 2698.12,-588.33 2734,-523 2779.66,-439.87 2788.16,-406.46 2772,-313 2770.09,-301.94 2765.98,-290.09 2762.17,-280.65"/>
<polygon fill="midnightblue" stroke="midnightblue" points="2765.28,-279.01 2758.13,-271.19 2758.84,-281.76 2765.28,-279.01"/>
</g>
<!-- Node116&#45;&gt;Node88 -->
<g id="edge158" class="edge">
<title>Node116&#45;&gt;Node88</title>
<path fill="none" stroke="midnightblue" d="M2396.32,-692.55C2239.84,-682.19 1817.52,-654.24 1638.73,-642.41"/>
<polygon fill="midnightblue" stroke="midnightblue" points="1638.81,-638.91 1628.6,-641.74 1638.35,-645.89 1638.81,-638.91"/>
</g>
<!-- Node116&#45;&gt;Node89 -->
<g id="edge157" class="edge">
<title>Node116&#45;&gt;Node89</title>
<path fill="none" stroke="midnightblue" d="M2396.43,-691.19C2274.73,-680.35 1997.77,-655.68 1863.62,-643.74"/>
<polygon fill="midnightblue" stroke="midnightblue" points="1863.7,-640.23 1853.43,-642.83 1863.08,-647.2 1863.7,-640.23"/>
</g>
<!-- Node130&#45;&gt;Node57 -->
<g id="edge161" class="edge">
<title>Node130&#45;&gt;Node57</title>
<path fill="none" stroke="midnightblue" d="M2243.19,-754.44C2334.74,-748.16 2505.82,-733.76 2524,-713 2533.08,-702.63 2533.27,-692.2 2524,-682 2498.06,-653.46 2256.22,-642.56 2129.96,-638.79"/>
<polygon fill="midnightblue" stroke="midnightblue" points="2129.69,-635.28 2119.59,-638.49 2129.49,-642.28 2129.69,-635.28"/>
</g>
<!-- Node130&#45;&gt;Node113 -->
<g id="edge160" class="edge">
<title>Node130&#45;&gt;Node113</title>
<path fill="none" stroke="midnightblue" d="M2180.56,-749.48C2174.91,-740.64 2165.94,-726.59 2158.84,-715.48"/>
<polygon fill="midnightblue" stroke="midnightblue" points="2161.77,-713.55 2153.43,-707.01 2155.87,-717.32 2161.77,-713.55"/>
</g>
<!-- Node130&#45;&gt;Node116 -->
<g id="edge162" class="edge">
<title>Node130&#45;&gt;Node116</title>
<path fill="none" stroke="midnightblue" d="M2224.68,-749.48C2266.79,-740.2 2334.97,-725.17 2386.43,-713.83"/>
<polygon fill="midnightblue" stroke="midnightblue" points="2387.47,-717.19 2396.49,-711.62 2385.97,-710.35 2387.47,-717.19"/>
</g>
<!-- Node131&#45;&gt;Node3 -->
<g id="edge168" class="edge">
<title>Node131&#45;&gt;Node3</title>
<path fill="none" stroke="midnightblue" d="M1849.56,-813.18C2084.51,-808.58 2834,-778 2834,-575.5 2834,-575.5 2834,-575.5 2834,-512 2834,-392.58 2960.18,-326.54 2872,-246 2848.25,-224.31 2646.58,-210.05 2543.76,-204.12"/>
<polygon fill="midnightblue" stroke="midnightblue" points="2543.71,-200.62 2533.53,-203.54 2543.31,-207.6 2543.71,-200.62"/>
</g>
<!-- Node131&#45;&gt;Node5 -->
<g id="edge166" class="edge">
<title>Node131&#45;&gt;Node5</title>
<path fill="none" stroke="midnightblue" d="M1710.36,-811.09C1548.24,-802.35 1135.07,-768.81 816,-646 716.11,-607.55 505.46,-487.46 443,-400 388.65,-323.9 411.38,-272.18 456,-190 469.89,-164.41 470.97,-156.03 490,-134 501.72,-120.44 517.32,-107.59 529.81,-98.25"/>
<polygon fill="midnightblue" stroke="midnightblue" points="532.23,-100.82 538.26,-92.11 528.11,-95.16 532.23,-100.82"/>
</g>
<!-- Node131&#45;&gt;Node8 -->
<g id="edge165" class="edge">
<title>Node131&#45;&gt;Node8</title>
<path fill="none" stroke="midnightblue" d="M1710.48,-812.68C1402.95,-806.37 180,-776.41 180,-698.5 180,-698.5 180,-698.5 180,-635 180,-514.54 107.07,-487.63 128,-369 152.82,-228.32 124.12,-153.24 238,-67 288.54,-28.73 734.11,-19.08 871.71,-17.01"/>
<polygon fill="midnightblue" stroke="midnightblue" points="871.87,-20.51 881.82,-16.86 871.77,-13.51 871.87,-20.51"/>
</g>
<!-- Node131&#45;&gt;Node13 -->
<g id="edge164" class="edge">
<title>Node131&#45;&gt;Node13</title>
<path fill="none" stroke="midnightblue" d="M1849.5,-813.61C1977.52,-812.01 2258.91,-804.36 2493,-769 2638.71,-746.99 3163.76,-613.54 3201,-590 3359.74,-489.65 3366,-388.8 3366,-201 3366,-201 3366,-201 3366,-143 3366,-77.6 3302.25,-87.05 3240,-67 3127.58,-30.8 2757.53,-19.72 2645.45,-17.15"/>
<polygon fill="midnightblue" stroke="midnightblue" points="2645.21,-13.65 2635.13,-16.93 2645.05,-20.65 2645.21,-13.65"/>
</g>
<!-- Node131&#45;&gt;Node18 -->
<g id="edge167" class="edge">
<title>Node131&#45;&gt;Node18</title>
<path fill="none" stroke="midnightblue" d="M1710.34,-809.88C1612.22,-799.82 1437.11,-765.17 1364,-646 1313.83,-564.22 1283.34,-526.91 1314,-436 1325.96,-400.54 1333.65,-389.43 1365,-369 1371.39,-364.83 1463.59,-343.87 1516.45,-332.09"/>
<polygon fill="midnightblue" stroke="midnightblue" points="1517.46,-335.45 1526.46,-329.86 1515.94,-328.61 1517.46,-335.45"/>
</g>
<!-- Node131&#45;&gt;Node82 -->
<g id="edge171" class="edge">
<title>Node131&#45;&gt;Node82</title>
<path fill="none" stroke="midnightblue" d="M1758.29,-805.44C1735.65,-796.52 1699.93,-782.44 1674.25,-772.32"/>
<polygon fill="midnightblue" stroke="midnightblue" points="1675.19,-768.93 1664.61,-768.52 1672.63,-775.44 1675.19,-768.93"/>
</g>
<!-- Node131&#45;&gt;Node112 -->
<g id="edge170" class="edge">
<title>Node131&#45;&gt;Node112</title>
<path fill="none" stroke="midnightblue" d="M1823.73,-805.44C1872.18,-795.96 1950.33,-780.67 2002.42,-770.48"/>
<polygon fill="midnightblue" stroke="midnightblue" points="2003.33,-773.87 2012.47,-768.52 2001.99,-767 2003.33,-773.87"/>
</g>
<!-- Node131&#45;&gt;Node130 -->
<g id="edge169" class="edge">
<title>Node131&#45;&gt;Node130</title>
<path fill="none" stroke="midnightblue" d="M1844.87,-805.49C1911.09,-796.79 2017.15,-782.8 2118.64,-769.18"/>
<polygon fill="midnightblue" stroke="midnightblue" points="2119.32,-772.62 2128.76,-767.82 2118.39,-765.68 2119.32,-772.62"/>
</g>
<!-- Node108&#45;&gt;Node3 -->
<g id="edge177" class="edge">
<title>Node108&#45;&gt;Node3</title>
<path fill="none" stroke="midnightblue" d="M3067.97,-564.72C3067.3,-521.24 3058.03,-327.89 2948,-246 2916.25,-222.37 2662.15,-208.58 2544,-203.39"/>
<polygon fill="midnightblue" stroke="midnightblue" points="2543.83,-199.88 2533.69,-202.94 2543.53,-206.87 2543.83,-199.88"/>
</g>
<!-- Node108&#45;&gt;Node30 -->
<g id="edge178" class="edge">
<title>Node108&#45;&gt;Node30</title>
<path fill="none" stroke="midnightblue" d="M3064.26,-564.83C3054.21,-542.16 3024.99,-479.83 2989,-436 2936.23,-371.73 2916.39,-360.31 2848,-313 2826.89,-298.39 2801.08,-284.8 2781.86,-275.41"/>
<polygon fill="midnightblue" stroke="midnightblue" points="2783.26,-272.2 2772.73,-271.02 2780.23,-278.51 2783.26,-272.2"/>
</g>
<!-- Node108&#45;&gt;Node75 -->
<g id="edge179" class="edge">
<title>Node108&#45;&gt;Node75</title>
<path fill="none" stroke="midnightblue" d="M3004,-567.63C2888.68,-557.06 2645.61,-534.78 2511.95,-522.52"/>
<polygon fill="midnightblue" stroke="midnightblue" points="2512.01,-519.01 2501.73,-521.58 2511.37,-525.98 2512.01,-519.01"/>
</g>
<!-- Node132&#45;&gt;Node3 -->
<g id="edge184" class="edge">
<title>Node132&#45;&gt;Node3</title>
<path fill="none" stroke="midnightblue" d="M2756.01,-927.07C2919.54,-914.57 3350,-875.95 3350,-816 3350,-816 3350,-816 3350,-450.5 3350,-344.09 3244.52,-368.94 3154,-313 3100.71,-280.07 3090.05,-263.84 3030,-246 2940.41,-219.38 2666.61,-207.11 2544.22,-202.85"/>
<polygon fill="midnightblue" stroke="midnightblue" points="2544.02,-199.34 2533.91,-202.5 2543.78,-206.34 2544.02,-199.34"/>
</g>
<!-- Node132&#45;&gt;Node17 -->
<g id="edge185" class="edge">
<title>Node132&#45;&gt;Node17</title>
<path fill="none" stroke="midnightblue" d="M2631.88,-919.02C2627.2,-918.27 2622.53,-917.59 2618,-917 2410.12,-890.06 2162.56,-878.53 2042.1,-874.23"/>
<polygon fill="midnightblue" stroke="midnightblue" points="2042.01,-870.72 2031.9,-873.87 2041.77,-877.72 2042.01,-870.72"/>
</g>
</g>
</svg>
