<?xml version="1.0" encoding="UTF-8" standalone="no"?>
<!DOCTYPE svg PUBLIC "-//W3C//DTD SVG 1.1//EN"
 "http://www.w3.org/Graphics/SVG/1.1/DTD/svg11.dtd">
<!-- Generated by graphviz version 2.43.0 (0)
 -->
<!-- Title: /home/runner/work/Documentation/Documentation/master/applications/SolidMechanicsApplication/custom_elements/solid_elements/large_displacement_U_P_element.hpp Pages: 1 -->
<!--zoomable 661 -->
<svg id="main" version="1.1" xmlns="http://www.w3.org/2000/svg" xmlns:xlink="http://www.w3.org/1999/xlink" xml:space="preserve" onload="init(evt)">
<style type="text/css"><![CDATA[
.edge:hover path { stroke: red; }
.edge:hover polygon { stroke: red; fill: red; }
]]></style>
<script type="text/javascript"><![CDATA[
var edges = document.getElementsByTagName('g');
if (edges && edges.length) {
  for (var i=0;i<edges.length;i++) {
    if (edges[i].id.substr(0,4)=='edge') {
      edges[i].setAttribute('class','edge');
    }
  }
}
]]></script>
        <defs>
                <circle id="rim" cx="0" cy="0" r="7"/>
                <circle id="rim2" cx="0" cy="0" r="3.5"/>
                <g id="zoomPlus">
                        <use xlink:href="#rim" fill="#404040">
                                <set attributeName="fill" to="#808080" begin="zoomplus.mouseover" end="zoomplus.mouseout"/>
                        </use>
                        <path d="M-4,0h8M0,-4v8" fill="none" stroke="white" stroke-width="1.5" pointer-events="none"/>
                </g>
                <g id="zoomMin">
                        <use xlink:href="#rim" fill="#404040">
                                <set attributeName="fill" to="#808080" begin="zoomminus.mouseover" end="zoomminus.mouseout"/>
                        </use>
                        <path d="M-4,0h8" fill="none" stroke="white" stroke-width="1.5" pointer-events="none"/>
                </g>
                <g id="dirArrow">
                        <path fill="none" stroke="white" stroke-width="1.5" d="M0,-3.0v7 M-2.5,-0.5L0,-3.0L2.5,-0.5"/>
                </g>
               <g id="resetDef">
                       <use xlink:href="#rim2" fill="#404040">
                               <set attributeName="fill" to="#808080" begin="reset.mouseover" end="reset.mouseout"/>
                       </use>
               </g>
        </defs>

<script type="text/javascript">
var viewWidth = 2090;
var viewHeight = 661;
var sectionId = 'dynsection-1';
</script>
<script xlink:href="../../svgpan.js"/>
<svg id="graph" class="graph">
<g id="viewport">
<title>/home/runner/work/Documentation/Documentation/master/applications/SolidMechanicsApplication/custom_elements/solid_elements/large_displacement_U_P_element.hpp</title>
<!-- Node1 -->
<g id="node1" class="node">
<title>Node1</title>
<g id="a_node1"><a xlink:title=" ">
<polygon fill="#bfbfbf" stroke="black" points="520,-589.5 520,-652.5 764,-652.5 764,-589.5 520,-589.5"/>
<text text-anchor="start" x="528" y="-640.5" font-family="Helvetica,sans-Serif" font-size="10.00">/home/runner/work/Documentation</text>
<text text-anchor="start" x="528" y="-629.5" font-family="Helvetica,sans-Serif" font-size="10.00">/Documentation/master/applications</text>
<text text-anchor="start" x="528" y="-618.5" font-family="Helvetica,sans-Serif" font-size="10.00">/SolidMechanicsApplication/custom</text>
<text text-anchor="start" x="528" y="-607.5" font-family="Helvetica,sans-Serif" font-size="10.00">_elements/solid_elements/large_displacement</text>
<text text-anchor="middle" x="642" y="-596.5" font-family="Helvetica,sans-Serif" font-size="10.00">_U_P_element.hpp</text>
</a>
</g>
</g>
<!-- Node2 -->
<g id="node2" class="node">
<title>Node2</title>
<g id="a_node2"><a xlink:href="../../d3/d8f/axisymmetric__updated__lagrangian___u___p__element_8hpp.html" target="_top" xlink:title=" ">
<polygon fill="none" stroke="black" points="286.5,-489.5 286.5,-552.5 501.5,-552.5 501.5,-489.5 286.5,-489.5"/>
<text text-anchor="start" x="294.5" y="-540.5" font-family="Helvetica,sans-Serif" font-size="10.00">/home/runner/work/Documentation</text>
<text text-anchor="start" x="294.5" y="-529.5" font-family="Helvetica,sans-Serif" font-size="10.00">/Documentation/master/applications</text>
<text text-anchor="start" x="294.5" y="-518.5" font-family="Helvetica,sans-Serif" font-size="10.00">/SolidMechanicsApplication/custom</text>
<text text-anchor="start" x="294.5" y="-507.5" font-family="Helvetica,sans-Serif" font-size="10.00">_elements/solid_elements/axisymmetric</text>
<text text-anchor="middle" x="394" y="-496.5" font-family="Helvetica,sans-Serif" font-size="10.00">_updated_lagrangian_U_P_element.hpp</text>
</a>
</g>
</g>
<!-- Node1&#45;&gt;Node2 -->
<g id="edge1" class="edge">
<title>Node1&#45;&gt;Node2</title>
<path fill="none" stroke="midnightblue" d="M555.02,-585.63C527.75,-574.85 497.84,-563.04 471.29,-552.54"/>
<polygon fill="midnightblue" stroke="midnightblue" points="553.96,-588.98 564.55,-589.4 556.54,-582.47 553.96,-588.98"/>
</g>
<!-- Node9 -->
<g id="node9" class="node">
<title>Node9</title>
<g id="a_node9"><a xlink:href="../../d8/d66/large__displacement___u___p__element_8cpp.html" target="_top" xlink:title=" ">
<polygon fill="none" stroke="black" points="520,-489.5 520,-552.5 764,-552.5 764,-489.5 520,-489.5"/>
<text text-anchor="start" x="528" y="-540.5" font-family="Helvetica,sans-Serif" font-size="10.00">/home/runner/work/Documentation</text>
<text text-anchor="start" x="528" y="-529.5" font-family="Helvetica,sans-Serif" font-size="10.00">/Documentation/master/applications</text>
<text text-anchor="start" x="528" y="-518.5" font-family="Helvetica,sans-Serif" font-size="10.00">/SolidMechanicsApplication/custom</text>
<text text-anchor="start" x="528" y="-507.5" font-family="Helvetica,sans-Serif" font-size="10.00">_elements/solid_elements/large_displacement</text>
<text text-anchor="middle" x="642" y="-496.5" font-family="Helvetica,sans-Serif" font-size="10.00">_U_P_element.cpp</text>
</a>
</g>
</g>
<!-- Node1&#45;&gt;Node9 -->
<g id="edge8" class="edge">
<title>Node1&#45;&gt;Node9</title>
<path fill="none" stroke="midnightblue" d="M642,-579.1C642,-570.24 642,-561.01 642,-552.63"/>
<polygon fill="midnightblue" stroke="midnightblue" points="638.5,-579.26 642,-589.26 645.5,-579.26 638.5,-579.26"/>
</g>
<!-- Node10 -->
<g id="node10" class="node">
<title>Node10</title>
<g id="a_node10"><a xlink:href="../../d5/ddd/updated__lagrangian___u___p__element_8hpp.html" target="_top" xlink:title=" ">
<polygon fill="none" stroke="black" points="782,-489.5 782,-552.5 976,-552.5 976,-489.5 782,-489.5"/>
<text text-anchor="start" x="790" y="-540.5" font-family="Helvetica,sans-Serif" font-size="10.00">/home/runner/work/Documentation</text>
<text text-anchor="start" x="790" y="-529.5" font-family="Helvetica,sans-Serif" font-size="10.00">/Documentation/master/applications</text>
<text text-anchor="start" x="790" y="-518.5" font-family="Helvetica,sans-Serif" font-size="10.00">/SolidMechanicsApplication/custom</text>
<text text-anchor="start" x="790" y="-507.5" font-family="Helvetica,sans-Serif" font-size="10.00">_elements/solid_elements/updated</text>
<text text-anchor="middle" x="879" y="-496.5" font-family="Helvetica,sans-Serif" font-size="10.00">_lagrangian_U_P_element.hpp</text>
</a>
</g>
</g>
<!-- Node1&#45;&gt;Node10 -->
<g id="edge9" class="edge">
<title>Node1&#45;&gt;Node10</title>
<path fill="none" stroke="midnightblue" d="M725.46,-585.49C751.43,-574.75 779.87,-562.99 805.14,-552.54"/>
<polygon fill="midnightblue" stroke="midnightblue" points="723.92,-582.34 716.01,-589.4 726.59,-588.81 723.92,-582.34"/>
</g>
<!-- Node3 -->
<g id="node3" class="node">
<title>Node3</title>
<g id="a_node3"><a xlink:href="../../da/dfd/axisymmetric__updated__lagrangian___u___p__element_8cpp.html" target="_top" xlink:title=" ">
<polygon fill="none" stroke="black" points="193.5,-389.5 193.5,-452.5 408.5,-452.5 408.5,-389.5 193.5,-389.5"/>
<text text-anchor="start" x="201.5" y="-440.5" font-family="Helvetica,sans-Serif" font-size="10.00">/home/runner/work/Documentation</text>
<text text-anchor="start" x="201.5" y="-429.5" font-family="Helvetica,sans-Serif" font-size="10.00">/Documentation/master/applications</text>
<text text-anchor="start" x="201.5" y="-418.5" font-family="Helvetica,sans-Serif" font-size="10.00">/SolidMechanicsApplication/custom</text>
<text text-anchor="start" x="201.5" y="-407.5" font-family="Helvetica,sans-Serif" font-size="10.00">_elements/solid_elements/axisymmetric</text>
<text text-anchor="middle" x="301" y="-396.5" font-family="Helvetica,sans-Serif" font-size="10.00">_updated_lagrangian_U_P_element.cpp</text>
</a>
</g>
</g>
<!-- Node2&#45;&gt;Node3 -->
<g id="edge2" class="edge">
<title>Node2&#45;&gt;Node3</title>
<path fill="none" stroke="midnightblue" d="M357.91,-481.97C348.69,-472.25 338.89,-461.93 330.07,-452.63"/>
<polygon fill="midnightblue" stroke="midnightblue" points="355.41,-484.42 364.83,-489.26 360.48,-479.6 355.41,-484.42"/>
</g>
<!-- Node4 -->
<g id="node4" class="node">
<title>Node4</title>
<g id="a_node4"><a xlink:href="../../d4/d0a/solid__mechanics__application_8h.html" target="_top" xlink:title=" ">
<polygon fill="none" stroke="black" points="427,-395 427,-447 621,-447 621,-395 427,-395"/>
<text text-anchor="start" x="435" y="-435" font-family="Helvetica,sans-Serif" font-size="10.00">/home/runner/work/Documentation</text>
<text text-anchor="start" x="435" y="-424" font-family="Helvetica,sans-Serif" font-size="10.00">/Documentation/master/applications</text>
<text text-anchor="start" x="435" y="-413" font-family="Helvetica,sans-Serif" font-size="10.00">/SolidMechanicsApplication/solid</text>
<text text-anchor="middle" x="524" y="-402" font-family="Helvetica,sans-Serif" font-size="10.00">_mechanics_application.h</text>
</a>
</g>
</g>
<!-- Node2&#45;&gt;Node4 -->
<g id="edge3" class="edge">
<title>Node2&#45;&gt;Node4</title>
<path fill="none" stroke="midnightblue" d="M442.97,-483.08C458.92,-471.06 476.25,-458 490.77,-447.05"/>
<polygon fill="midnightblue" stroke="midnightblue" points="440.65,-480.45 434.78,-489.26 444.87,-486.04 440.65,-480.45"/>
</g>
<!-- Node5 -->
<g id="node5" class="node">
<title>Node5</title>
<g id="a_node5"><a xlink:href="../../dc/d5a/_solid_mechanics_application_2custom__elements_2shell__elements_2shell__thick__element__3_d4_n_8cpp.html" target="_top" xlink:title=" ">
<polygon fill="none" stroke="black" points="424,-289.5 424,-352.5 624,-352.5 624,-289.5 424,-289.5"/>
<text text-anchor="start" x="432" y="-340.5" font-family="Helvetica,sans-Serif" font-size="10.00">/home/runner/work/Documentation</text>
<text text-anchor="start" x="432" y="-329.5" font-family="Helvetica,sans-Serif" font-size="10.00">/Documentation/master/applications</text>
<text text-anchor="start" x="432" y="-318.5" font-family="Helvetica,sans-Serif" font-size="10.00">/SolidMechanicsApplication/custom</text>
<text text-anchor="start" x="432" y="-307.5" font-family="Helvetica,sans-Serif" font-size="10.00">_elements/shell_elements/shell_thick</text>
<text text-anchor="middle" x="524" y="-296.5" font-family="Helvetica,sans-Serif" font-size="10.00">_element_3D4N.cpp</text>
</a>
</g>
</g>
<!-- Node4&#45;&gt;Node5 -->
<g id="edge4" class="edge">
<title>Node4&#45;&gt;Node5</title>
<path fill="none" stroke="midnightblue" d="M524,-384.69C524,-374.24 524,-362.89 524,-352.75"/>
<polygon fill="midnightblue" stroke="midnightblue" points="520.5,-384.76 524,-394.76 527.5,-384.76 520.5,-384.76"/>
</g>
<!-- Node6 -->
<g id="node6" class="node">
<title>Node6</title>
<g id="a_node6"><a xlink:href="../../da/d5c/_solid_mechanics_application_2custom__elements_2shell__elements_2shell__thin__element__3_d3_n_8cpp.html" target="_top" xlink:title=" ">
<polygon fill="none" stroke="black" points="642.5,-289.5 642.5,-352.5 837.5,-352.5 837.5,-289.5 642.5,-289.5"/>
<text text-anchor="start" x="650.5" y="-340.5" font-family="Helvetica,sans-Serif" font-size="10.00">/home/runner/work/Documentation</text>
<text text-anchor="start" x="650.5" y="-329.5" font-family="Helvetica,sans-Serif" font-size="10.00">/Documentation/master/applications</text>
<text text-anchor="start" x="650.5" y="-318.5" font-family="Helvetica,sans-Serif" font-size="10.00">/SolidMechanicsApplication/custom</text>
<text text-anchor="start" x="650.5" y="-307.5" font-family="Helvetica,sans-Serif" font-size="10.00">_elements/shell_elements/shell_thin</text>
<text text-anchor="middle" x="740" y="-296.5" font-family="Helvetica,sans-Serif" font-size="10.00">_element_3D3N.cpp</text>
</a>
</g>
</g>
<!-- Node4&#45;&gt;Node6 -->
<g id="edge5" class="edge">
<title>Node4&#45;&gt;Node6</title>
<path fill="none" stroke="midnightblue" d="M588.52,-390.73C615,-378.71 645.67,-364.8 672.46,-352.64"/>
<polygon fill="midnightblue" stroke="midnightblue" points="587.01,-387.57 579.34,-394.89 589.9,-393.95 587.01,-387.57"/>
</g>
<!-- Node7 -->
<g id="node7" class="node">
<title>Node7</title>
<g id="a_node7"><a xlink:href="../../da/d03/_solid_mechanics_application_2custom__utilities_2shell__cross__section_8cpp.html" target="_top" xlink:title=" ">
<polygon fill="none" stroke="black" points="0,-295 0,-347 194,-347 194,-295 0,-295"/>
<text text-anchor="start" x="8" y="-335" font-family="Helvetica,sans-Serif" font-size="10.00">/home/runner/work/Documentation</text>
<text text-anchor="start" x="8" y="-324" font-family="Helvetica,sans-Serif" font-size="10.00">/Documentation/master/applications</text>
<text text-anchor="start" x="8" y="-313" font-family="Helvetica,sans-Serif" font-size="10.00">/SolidMechanicsApplication/custom</text>
<text text-anchor="middle" x="97" y="-302" font-family="Helvetica,sans-Serif" font-size="10.00">_utilities/shell_cross_section.cpp</text>
</a>
</g>
</g>
<!-- Node4&#45;&gt;Node7 -->
<g id="edge6" class="edge">
<title>Node4&#45;&gt;Node7</title>
<path fill="none" stroke="midnightblue" d="M431.17,-392.4C426.39,-391.2 421.65,-390.06 417,-389 322.97,-367.54 297,-374.57 203,-353 195.24,-351.22 187.22,-349.2 179.21,-347.07"/>
<polygon fill="midnightblue" stroke="midnightblue" points="430.45,-395.83 441.01,-394.94 432.2,-389.05 430.45,-395.83"/>
</g>
<!-- Node8 -->
<g id="node8" class="node">
<title>Node8</title>
<g id="a_node8"><a xlink:href="../../d2/d54/solid__mechanics__application_8cpp.html" target="_top" xlink:title=" ">
<polygon fill="none" stroke="black" points="212,-295 212,-347 406,-347 406,-295 212,-295"/>
<text text-anchor="start" x="220" y="-335" font-family="Helvetica,sans-Serif" font-size="10.00">/home/runner/work/Documentation</text>
<text text-anchor="start" x="220" y="-324" font-family="Helvetica,sans-Serif" font-size="10.00">/Documentation/master/applications</text>
<text text-anchor="start" x="220" y="-313" font-family="Helvetica,sans-Serif" font-size="10.00">/SolidMechanicsApplication/solid</text>
<text text-anchor="middle" x="309" y="-302" font-family="Helvetica,sans-Serif" font-size="10.00">_mechanics_application.cpp</text>
</a>
</g>
</g>
<!-- Node4&#45;&gt;Node8 -->
<g id="edge7" class="edge">
<title>Node4&#45;&gt;Node8</title>
<path fill="none" stroke="midnightblue" d="M459.64,-390.67C429.16,-376.77 393.13,-360.35 363.95,-347.04"/>
<polygon fill="midnightblue" stroke="midnightblue" points="458.36,-393.93 468.91,-394.89 461.26,-387.56 458.36,-393.93"/>
</g>
<!-- Node10&#45;&gt;Node4 -->
<g id="edge27" class="edge">
<title>Node10&#45;&gt;Node4</title>
<path fill="none" stroke="midnightblue" d="M772.21,-488.79C716.07,-473.09 662.96,-458.76 619.02,-447.05"/>
<polygon fill="midnightblue" stroke="midnightblue" points="771.4,-492.2 781.98,-491.53 773.29,-485.46 771.4,-492.2"/>
</g>
<!-- Node11 -->
<g id="node11" class="node">
<title>Node11</title>
<g id="a_node11"><a xlink:href="../../d7/d54/total__updated__lagrangian___u___p__element_8hpp.html" target="_top" xlink:title=" ">
<polygon fill="none" stroke="black" points="925,-389.5 925,-452.5 1159,-452.5 1159,-389.5 925,-389.5"/>
<text text-anchor="start" x="933" y="-440.5" font-family="Helvetica,sans-Serif" font-size="10.00">/home/runner/work/Documentation</text>
<text text-anchor="start" x="933" y="-429.5" font-family="Helvetica,sans-Serif" font-size="10.00">/Documentation/master/applications</text>
<text text-anchor="start" x="933" y="-418.5" font-family="Helvetica,sans-Serif" font-size="10.00">/PfemSolidMechanicsApplication</text>
<text text-anchor="start" x="933" y="-407.5" font-family="Helvetica,sans-Serif" font-size="10.00">/custom_elements/total_updated_lagrangian</text>
<text text-anchor="middle" x="1042" y="-396.5" font-family="Helvetica,sans-Serif" font-size="10.00">_U_P_element.hpp</text>
</a>
</g>
</g>
<!-- Node10&#45;&gt;Node11 -->
<g id="edge10" class="edge">
<title>Node10&#45;&gt;Node11</title>
<path fill="none" stroke="midnightblue" d="M938.93,-483.97C956.05,-473.68 974.53,-462.56 991.05,-452.63"/>
<polygon fill="midnightblue" stroke="midnightblue" points="936.89,-481.11 930.13,-489.26 940.5,-487.11 936.89,-481.11"/>
</g>
<!-- Node15 -->
<g id="node15" class="node">
<title>Node15</title>
<g id="a_node15"><a xlink:href="../../dc/d94/updated__lagrangian___u___pressure__element_8hpp.html" target="_top" xlink:title=" ">
<polygon fill="none" stroke="black" points="1370,-389.5 1370,-452.5 1576,-452.5 1576,-389.5 1370,-389.5"/>
<text text-anchor="start" x="1378" y="-440.5" font-family="Helvetica,sans-Serif" font-size="10.00">/home/runner/work/Documentation</text>
<text text-anchor="start" x="1378" y="-429.5" font-family="Helvetica,sans-Serif" font-size="10.00">/Documentation/master/applications</text>
<text text-anchor="start" x="1378" y="-418.5" font-family="Helvetica,sans-Serif" font-size="10.00">/PfemSolidMechanicsApplication</text>
<text text-anchor="start" x="1378" y="-407.5" font-family="Helvetica,sans-Serif" font-size="10.00">/custom_elements/updated_lagrangian</text>
<text text-anchor="middle" x="1473" y="-396.5" font-family="Helvetica,sans-Serif" font-size="10.00">_U_Pressure_element.hpp</text>
</a>
</g>
</g>
<!-- Node10&#45;&gt;Node15 -->
<g id="edge14" class="edge">
<title>Node10&#45;&gt;Node15</title>
<path fill="none" stroke="midnightblue" d="M986.11,-502.33C1094.99,-484.36 1262.51,-456.73 1369.92,-439.01"/>
<polygon fill="midnightblue" stroke="midnightblue" points="985.39,-498.9 976.09,-503.98 986.53,-505.81 985.39,-498.9"/>
</g>
<!-- Node23 -->
<g id="node23" class="node">
<title>Node23</title>
<g id="a_node23"><a xlink:href="../../d7/dce/updated__lagrangian___u___p__element_8cpp.html" target="_top" xlink:title=" ">
<polygon fill="none" stroke="black" points="713,-389.5 713,-452.5 907,-452.5 907,-389.5 713,-389.5"/>
<text text-anchor="start" x="721" y="-440.5" font-family="Helvetica,sans-Serif" font-size="10.00">/home/runner/work/Documentation</text>
<text text-anchor="start" x="721" y="-429.5" font-family="Helvetica,sans-Serif" font-size="10.00">/Documentation/master/applications</text>
<text text-anchor="start" x="721" y="-418.5" font-family="Helvetica,sans-Serif" font-size="10.00">/SolidMechanicsApplication/custom</text>
<text text-anchor="start" x="721" y="-407.5" font-family="Helvetica,sans-Serif" font-size="10.00">_elements/solid_elements/updated</text>
<text text-anchor="middle" x="810" y="-396.5" font-family="Helvetica,sans-Serif" font-size="10.00">_lagrangian_U_P_element.cpp</text>
</a>
</g>
</g>
<!-- Node10&#45;&gt;Node23 -->
<g id="edge26" class="edge">
<title>Node10&#45;&gt;Node23</title>
<path fill="none" stroke="midnightblue" d="M851.42,-480.83C844.81,-471.44 837.85,-461.56 831.57,-452.63"/>
<polygon fill="midnightblue" stroke="midnightblue" points="848.74,-483.1 857.36,-489.26 854.46,-479.07 848.74,-483.1"/>
</g>
<!-- Node12 -->
<g id="node12" class="node">
<title>Node12</title>
<g id="a_node12"><a xlink:href="../../d8/d30/total__updated__lagrangian___u___p__element_8cpp.html" target="_top" xlink:title=" ">
<polygon fill="none" stroke="black" points="856,-289.5 856,-352.5 1090,-352.5 1090,-289.5 856,-289.5"/>
<text text-anchor="start" x="864" y="-340.5" font-family="Helvetica,sans-Serif" font-size="10.00">/home/runner/work/Documentation</text>
<text text-anchor="start" x="864" y="-329.5" font-family="Helvetica,sans-Serif" font-size="10.00">/Documentation/master/applications</text>
<text text-anchor="start" x="864" y="-318.5" font-family="Helvetica,sans-Serif" font-size="10.00">/PfemSolidMechanicsApplication</text>
<text text-anchor="start" x="864" y="-307.5" font-family="Helvetica,sans-Serif" font-size="10.00">/custom_elements/total_updated_lagrangian</text>
<text text-anchor="middle" x="973" y="-296.5" font-family="Helvetica,sans-Serif" font-size="10.00">_U_P_element.cpp</text>
</a>
</g>
</g>
<!-- Node11&#45;&gt;Node12 -->
<g id="edge11" class="edge">
<title>Node11&#45;&gt;Node12</title>
<path fill="none" stroke="midnightblue" d="M1014.42,-380.83C1007.81,-371.44 1000.85,-361.56 994.57,-352.63"/>
<polygon fill="midnightblue" stroke="midnightblue" points="1011.74,-383.1 1020.36,-389.26 1017.46,-379.07 1011.74,-383.1"/>
</g>
<!-- Node13 -->
<g id="node13" class="node">
<title>Node13</title>
<g id="a_node13"><a xlink:href="../../d3/d81/pfem__solid__mechanics__application_8h.html" target="_top" xlink:title=" ">
<polygon fill="none" stroke="black" points="1504,-95 1504,-147 1704,-147 1704,-95 1504,-95"/>
<text text-anchor="start" x="1512" y="-135" font-family="Helvetica,sans-Serif" font-size="10.00">/home/runner/work/Documentation</text>
<text text-anchor="start" x="1512" y="-124" font-family="Helvetica,sans-Serif" font-size="10.00">/Documentation/master/applications</text>
<text text-anchor="start" x="1512" y="-113" font-family="Helvetica,sans-Serif" font-size="10.00">/PfemSolidMechanicsApplication</text>
<text text-anchor="middle" x="1604" y="-102" font-family="Helvetica,sans-Serif" font-size="10.00">/pfem_solid_mechanics_application.h</text>
</a>
</g>
</g>
<!-- Node11&#45;&gt;Node13 -->
<g id="edge12" class="edge">
<title>Node11&#45;&gt;Node13</title>
<path fill="none" stroke="midnightblue" d="M1080.13,-381.41C1087.25,-372.61 1094.01,-362.92 1099,-353 1132.64,-286.17 1081.89,-239.6 1137,-189 1189.04,-141.22 1382.98,-127.41 1503.97,-123.48"/>
<polygon fill="midnightblue" stroke="midnightblue" points="1077.32,-379.31 1073.54,-389.21 1082.67,-383.83 1077.32,-379.31"/>
</g>
<!-- Node14 -->
<g id="node14" class="node">
<title>Node14</title>
<g id="a_node14"><a xlink:href="../../d4/d5f/pfem__solid__mechanics__application_8cpp.html" target="_top" xlink:title=" ">
<polygon fill="none" stroke="black" points="1498.5,-0.5 1498.5,-52.5 1709.5,-52.5 1709.5,-0.5 1498.5,-0.5"/>
<text text-anchor="start" x="1506.5" y="-40.5" font-family="Helvetica,sans-Serif" font-size="10.00">/home/runner/work/Documentation</text>
<text text-anchor="start" x="1506.5" y="-29.5" font-family="Helvetica,sans-Serif" font-size="10.00">/Documentation/master/applications</text>
<text text-anchor="start" x="1506.5" y="-18.5" font-family="Helvetica,sans-Serif" font-size="10.00">/PfemSolidMechanicsApplication</text>
<text text-anchor="middle" x="1604" y="-7.5" font-family="Helvetica,sans-Serif" font-size="10.00">/pfem_solid_mechanics_application.cpp</text>
</a>
</g>
</g>
<!-- Node13&#45;&gt;Node14 -->
<g id="edge13" class="edge">
<title>Node13&#45;&gt;Node14</title>
<path fill="none" stroke="midnightblue" d="M1604,-84.49C1604,-73.91 1604,-62.53 1604,-52.75"/>
<polygon fill="midnightblue" stroke="midnightblue" points="1600.5,-84.72 1604,-94.72 1607.5,-84.72 1600.5,-84.72"/>
</g>
<!-- Node15&#45;&gt;Node13 -->
<g id="edge25" class="edge">
<title>Node15&#45;&gt;Node13</title>
<path fill="none" stroke="midnightblue" d="M1555.48,-383.58C1567.06,-375.12 1577.53,-365 1585,-353 1625.41,-288.1 1616.3,-192.29 1608.92,-147.2"/>
<polygon fill="midnightblue" stroke="midnightblue" points="1553.17,-380.92 1546.88,-389.45 1557.12,-386.7 1553.17,-380.92"/>
</g>
<!-- Node16 -->
<g id="node16" class="node">
<title>Node16</title>
<g id="a_node16"><a xlink:href="../../dc/d95/axisym__updated__lagrangian___u___pressure__element_8hpp.html" target="_top" xlink:title=" ">
<polygon fill="none" stroke="black" points="1651,-289.5 1651,-352.5 1851,-352.5 1851,-289.5 1651,-289.5"/>
<text text-anchor="start" x="1659" y="-340.5" font-family="Helvetica,sans-Serif" font-size="10.00">/home/runner/work/Documentation</text>
<text text-anchor="start" x="1659" y="-329.5" font-family="Helvetica,sans-Serif" font-size="10.00">/Documentation/master/applications</text>
<text text-anchor="start" x="1659" y="-318.5" font-family="Helvetica,sans-Serif" font-size="10.00">/PfemSolidMechanicsApplication</text>
<text text-anchor="start" x="1659" y="-307.5" font-family="Helvetica,sans-Serif" font-size="10.00">/custom_elements/axisym_updated</text>
<text text-anchor="middle" x="1751" y="-296.5" font-family="Helvetica,sans-Serif" font-size="10.00">_lagrangian_U_Pressure_element.hpp</text>
</a>
</g>
</g>
<!-- Node15&#45;&gt;Node16 -->
<g id="edge15" class="edge">
<title>Node15&#45;&gt;Node16</title>
<path fill="none" stroke="midnightblue" d="M1569.3,-386.05C1600.19,-375.16 1634.2,-363.17 1664.36,-352.54"/>
<polygon fill="midnightblue" stroke="midnightblue" points="1568.08,-382.77 1559.82,-389.4 1570.41,-389.37 1568.08,-382.77"/>
</g>
<!-- Node20 -->
<g id="node20" class="node">
<title>Node20</title>
<g id="a_node20"><a xlink:href="../../d3/db0/updated__lagrangian___u___p__w_p__element_8hpp.html" target="_top" xlink:title=" ">
<polygon fill="none" stroke="black" points="1146,-289.5 1146,-352.5 1352,-352.5 1352,-289.5 1146,-289.5"/>
<text text-anchor="start" x="1154" y="-340.5" font-family="Helvetica,sans-Serif" font-size="10.00">/home/runner/work/Documentation</text>
<text text-anchor="start" x="1154" y="-329.5" font-family="Helvetica,sans-Serif" font-size="10.00">/Documentation/master/applications</text>
<text text-anchor="start" x="1154" y="-318.5" font-family="Helvetica,sans-Serif" font-size="10.00">/PfemSolidMechanicsApplication</text>
<text text-anchor="start" x="1154" y="-307.5" font-family="Helvetica,sans-Serif" font-size="10.00">/custom_elements/updated_lagrangian</text>
<text text-anchor="middle" x="1249" y="-296.5" font-family="Helvetica,sans-Serif" font-size="10.00">_U_P_wP_element.hpp</text>
</a>
</g>
</g>
<!-- Node15&#45;&gt;Node20 -->
<g id="edge21" class="edge">
<title>Node15&#45;&gt;Node20</title>
<path fill="none" stroke="midnightblue" d="M1393.79,-385.35C1369.33,-374.65 1342.59,-362.94 1318.81,-352.54"/>
<polygon fill="midnightblue" stroke="midnightblue" points="1392.48,-388.59 1403.05,-389.4 1395.29,-382.18 1392.48,-388.59"/>
</g>
<!-- Node22 -->
<g id="node22" class="node">
<title>Node22</title>
<g id="a_node22"><a xlink:href="../../da/db0/updated__lagrangian___u___pressure__element_8cpp.html" target="_top" xlink:title=" ">
<polygon fill="none" stroke="black" points="1370,-289.5 1370,-352.5 1576,-352.5 1576,-289.5 1370,-289.5"/>
<text text-anchor="start" x="1378" y="-340.5" font-family="Helvetica,sans-Serif" font-size="10.00">/home/runner/work/Documentation</text>
<text text-anchor="start" x="1378" y="-329.5" font-family="Helvetica,sans-Serif" font-size="10.00">/Documentation/master/applications</text>
<text text-anchor="start" x="1378" y="-318.5" font-family="Helvetica,sans-Serif" font-size="10.00">/PfemSolidMechanicsApplication</text>
<text text-anchor="start" x="1378" y="-307.5" font-family="Helvetica,sans-Serif" font-size="10.00">/custom_elements/updated_lagrangian</text>
<text text-anchor="middle" x="1473" y="-296.5" font-family="Helvetica,sans-Serif" font-size="10.00">_U_Pressure_element.cpp</text>
</a>
</g>
</g>
<!-- Node15&#45;&gt;Node22 -->
<g id="edge24" class="edge">
<title>Node15&#45;&gt;Node22</title>
<path fill="none" stroke="midnightblue" d="M1473,-379.1C1473,-370.24 1473,-361.01 1473,-352.63"/>
<polygon fill="midnightblue" stroke="midnightblue" points="1469.5,-379.26 1473,-389.26 1476.5,-379.26 1469.5,-379.26"/>
</g>
<!-- Node16&#45;&gt;Node13 -->
<g id="edge20" class="edge">
<title>Node16&#45;&gt;Node13</title>
<path fill="none" stroke="midnightblue" d="M1692.06,-283.1C1680.78,-274.21 1669.77,-264.05 1661,-253 1635.41,-220.74 1619.04,-175.24 1610.69,-147.23"/>
<polygon fill="midnightblue" stroke="midnightblue" points="1690.21,-286.09 1700.29,-289.35 1694.44,-280.51 1690.21,-286.09"/>
</g>
<!-- Node17 -->
<g id="node17" class="node">
<title>Node17</title>
<g id="a_node17"><a xlink:href="../../d6/dba/axisym__updated__lagrangian___u___p__w_p__element_8hpp.html" target="_top" xlink:title=" ">
<polygon fill="none" stroke="black" points="1888,-189.5 1888,-252.5 2082,-252.5 2082,-189.5 1888,-189.5"/>
<text text-anchor="start" x="1896" y="-240.5" font-family="Helvetica,sans-Serif" font-size="10.00">/home/runner/work/Documentation</text>
<text text-anchor="start" x="1896" y="-229.5" font-family="Helvetica,sans-Serif" font-size="10.00">/Documentation/master/applications</text>
<text text-anchor="start" x="1896" y="-218.5" font-family="Helvetica,sans-Serif" font-size="10.00">/PfemSolidMechanicsApplication</text>
<text text-anchor="start" x="1896" y="-207.5" font-family="Helvetica,sans-Serif" font-size="10.00">/custom_elements/axisym_updated</text>
<text text-anchor="middle" x="1985" y="-196.5" font-family="Helvetica,sans-Serif" font-size="10.00">_lagrangian_U_P_wP_element.hpp</text>
</a>
</g>
</g>
<!-- Node16&#45;&gt;Node17 -->
<g id="edge16" class="edge">
<title>Node16&#45;&gt;Node17</title>
<path fill="none" stroke="midnightblue" d="M1833.4,-285.49C1859.05,-274.75 1887.13,-262.99 1912.08,-252.54"/>
<polygon fill="midnightblue" stroke="midnightblue" points="1831.95,-282.3 1824.08,-289.4 1834.65,-288.76 1831.95,-282.3"/>
</g>
<!-- Node19 -->
<g id="node19" class="node">
<title>Node19</title>
<g id="a_node19"><a xlink:href="../../de/dd1/axisym__updated__lagrangian___u___pressure__element_8cpp.html" target="_top" xlink:title=" ">
<polygon fill="none" stroke="black" points="1670,-189.5 1670,-252.5 1870,-252.5 1870,-189.5 1670,-189.5"/>
<text text-anchor="start" x="1678" y="-240.5" font-family="Helvetica,sans-Serif" font-size="10.00">/home/runner/work/Documentation</text>
<text text-anchor="start" x="1678" y="-229.5" font-family="Helvetica,sans-Serif" font-size="10.00">/Documentation/master/applications</text>
<text text-anchor="start" x="1678" y="-218.5" font-family="Helvetica,sans-Serif" font-size="10.00">/PfemSolidMechanicsApplication</text>
<text text-anchor="start" x="1678" y="-207.5" font-family="Helvetica,sans-Serif" font-size="10.00">/custom_elements/axisym_updated</text>
<text text-anchor="middle" x="1770" y="-196.5" font-family="Helvetica,sans-Serif" font-size="10.00">_lagrangian_U_Pressure_element.cpp</text>
</a>
</g>
</g>
<!-- Node16&#45;&gt;Node19 -->
<g id="edge19" class="edge">
<title>Node16&#45;&gt;Node19</title>
<path fill="none" stroke="midnightblue" d="M1758.87,-279.39C1760.61,-270.44 1762.42,-261.11 1764.06,-252.63"/>
<polygon fill="midnightblue" stroke="midnightblue" points="1755.43,-278.78 1756.96,-289.26 1762.3,-280.11 1755.43,-278.78"/>
</g>
<!-- Node17&#45;&gt;Node13 -->
<g id="edge18" class="edge">
<title>Node17&#45;&gt;Node13</title>
<path fill="none" stroke="midnightblue" d="M1878.01,-188.77C1815.02,-172.01 1753.9,-157.07 1704.21,-145.26"/>
<polygon fill="midnightblue" stroke="midnightblue" points="1877.15,-192.16 1887.72,-191.36 1878.96,-185.4 1877.15,-192.16"/>
</g>
<!-- Node18 -->
<g id="node18" class="node">
<title>Node18</title>
<g id="a_node18"><a xlink:href="../../db/d79/axisym__updated__lagrangian___u___p__w_p__element_8cpp.html" target="_top" xlink:title=" ">
<polygon fill="none" stroke="black" points="1888,-89.5 1888,-152.5 2082,-152.5 2082,-89.5 1888,-89.5"/>
<text text-anchor="start" x="1896" y="-140.5" font-family="Helvetica,sans-Serif" font-size="10.00">/home/runner/work/Documentation</text>
<text text-anchor="start" x="1896" y="-129.5" font-family="Helvetica,sans-Serif" font-size="10.00">/Documentation/master/applications</text>
<text text-anchor="start" x="1896" y="-118.5" font-family="Helvetica,sans-Serif" font-size="10.00">/PfemSolidMechanicsApplication</text>
<text text-anchor="start" x="1896" y="-107.5" font-family="Helvetica,sans-Serif" font-size="10.00">/custom_elements/axisym_updated</text>
<text text-anchor="middle" x="1985" y="-96.5" font-family="Helvetica,sans-Serif" font-size="10.00">_lagrangian_U_P_wP_element.cpp</text>
</a>
</g>
</g>
<!-- Node17&#45;&gt;Node18 -->
<g id="edge17" class="edge">
<title>Node17&#45;&gt;Node18</title>
<path fill="none" stroke="midnightblue" d="M1985,-179.1C1985,-170.24 1985,-161.01 1985,-152.63"/>
<polygon fill="midnightblue" stroke="midnightblue" points="1981.5,-179.26 1985,-189.26 1988.5,-179.26 1981.5,-179.26"/>
</g>
<!-- Node20&#45;&gt;Node13 -->
<g id="edge23" class="edge">
<title>Node20&#45;&gt;Node13</title>
<path fill="none" stroke="midnightblue" d="M1312.56,-284.55C1383.58,-244.94 1496.73,-181.83 1559.1,-147.05"/>
<polygon fill="midnightblue" stroke="midnightblue" points="1310.72,-281.57 1303.69,-289.5 1314.13,-287.68 1310.72,-281.57"/>
</g>
<!-- Node21 -->
<g id="node21" class="node">
<title>Node21</title>
<g id="a_node21"><a xlink:href="../../d1/d0b/updated__lagrangian___u___p__w_p__element_8cpp.html" target="_top" xlink:title=" ">
<polygon fill="none" stroke="black" points="1146,-189.5 1146,-252.5 1352,-252.5 1352,-189.5 1146,-189.5"/>
<text text-anchor="start" x="1154" y="-240.5" font-family="Helvetica,sans-Serif" font-size="10.00">/home/runner/work/Documentation</text>
<text text-anchor="start" x="1154" y="-229.5" font-family="Helvetica,sans-Serif" font-size="10.00">/Documentation/master/applications</text>
<text text-anchor="start" x="1154" y="-218.5" font-family="Helvetica,sans-Serif" font-size="10.00">/PfemSolidMechanicsApplication</text>
<text text-anchor="start" x="1154" y="-207.5" font-family="Helvetica,sans-Serif" font-size="10.00">/custom_elements/updated_lagrangian</text>
<text text-anchor="middle" x="1249" y="-196.5" font-family="Helvetica,sans-Serif" font-size="10.00">_U_P_wP_element.cpp</text>
</a>
</g>
</g>
<!-- Node20&#45;&gt;Node21 -->
<g id="edge22" class="edge">
<title>Node20&#45;&gt;Node21</title>
<path fill="none" stroke="midnightblue" d="M1249,-279.1C1249,-270.24 1249,-261.01 1249,-252.63"/>
<polygon fill="midnightblue" stroke="midnightblue" points="1245.5,-279.26 1249,-289.26 1252.5,-279.26 1245.5,-279.26"/>
</g>
</g>
</svg>
        <g id="navigator" transform="translate(0 0)" fill="#404254">
                <rect fill="#f2f5e9" fill-opacity="0.5" stroke="#606060" stroke-width=".5" x="0" y="0" width="60" height="60"/>
                <use id="zoomplus" xlink:href="#zoomPlus" x="17" y="9" onmousedown="handleZoom(evt,'in')"/>
                <use id="zoomminus" xlink:href="#zoomMin" x="42" y="9" onmousedown="handleZoom(evt,'out')"/>
                <use id="reset" xlink:href="#resetDef" x="30" y="36" onmousedown="handleReset()"/>
                <g id="arrowUp" xlink:href="#dirArrow" transform="translate(30 24)" onmousedown="handlePan(0,-1)">
                  <use xlink:href="#rim" fill="#404040">
                        <set attributeName="fill" to="#808080" begin="arrowUp.mouseover" end="arrowUp.mouseout"/>
                  </use>
                  <path fill="none" stroke="white" stroke-width="1.5" d="M0,-3.0v7 M-2.5,-0.5L0,-3.0L2.5,-0.5"/>
                </g>
                <g id="arrowRight" xlink:href="#dirArrow" transform="rotate(90) translate(36 -43)" onmousedown="handlePan(1,0)">
                  <use xlink:href="#rim" fill="#404040">
                        <set attributeName="fill" to="#808080" begin="arrowRight.mouseover" end="arrowRight.mouseout"/>
                  </use>
                  <path fill="none" stroke="white" stroke-width="1.5" d="M0,-3.0v7 M-2.5,-0.5L0,-3.0L2.5,-0.5"/>
                </g>
                <g id="arrowDown" xlink:href="#dirArrow" transform="rotate(180) translate(-30 -48)" onmousedown="handlePan(0,1)">
                  <use xlink:href="#rim" fill="#404040">
                        <set attributeName="fill" to="#808080" begin="arrowDown.mouseover" end="arrowDown.mouseout"/>
                  </use>
                  <path fill="none" stroke="white" stroke-width="1.5" d="M0,-3.0v7 M-2.5,-0.5L0,-3.0L2.5,-0.5"/>
                </g>
                <g id="arrowLeft" xlink:href="#dirArrow" transform="rotate(270) translate(-36 17)" onmousedown="handlePan(-1,0)">
                  <use xlink:href="#rim" fill="#404040">
                        <set attributeName="fill" to="#808080" begin="arrowLeft.mouseover" end="arrowLeft.mouseout"/>
                  </use>
                  <path fill="none" stroke="white" stroke-width="1.5" d="M0,-3.0v7 M-2.5,-0.5L0,-3.0L2.5,-0.5"/>
                </g>
        </g>
        <svg viewBox="0 0 15 15" width="100%" height="30px" preserveAspectRatio="xMaxYMin meet">
         <g id="arrow_out" transform="scale(0.3 0.3)">
          <a xlink:href="large__displacement___u___p__element_8hpp__dep__incl_org.svg" target="_base">
           <rect id="button" ry="5" rx="5" y="6" x="6" height="38" width="38"
                fill="#f2f5e9" fill-opacity="0.5" stroke="#606060" stroke-width="1.0"/>
           <path id="arrow"
             d="M 11.500037,31.436501 C 11.940474,20.09759 22.043105,11.32322 32.158766,21.979434 L 37.068811,17.246167 C 37.068811,17.246167 37.088388,32 37.088388,32 L 22.160133,31.978069 C 22.160133,31.978069 26.997745,27.140456 26.997745,27.140456 C 18.528582,18.264221 13.291696,25.230495 11.500037,31.436501 z"
             style="fill:#404040;"/>
          </a>
         </g>
        </svg>
</svg>
