<?xml version="1.0" encoding="UTF-8" standalone="no"?>
<!DOCTYPE svg PUBLIC "-//W3C//DTD SVG 1.1//EN"
 "http://www.w3.org/Graphics/SVG/1.1/DTD/svg11.dtd">
<!-- Generated by graphviz version 2.43.0 (0)
 -->
<!-- Title: /home/runner/work/Documentation/Documentation/master/applications/FluidTransportApplication/fluid_transport_application_variables.h Pages: 1 -->
<svg width="1154pt" height="550pt"
 viewBox="0.00 0.00 1154.00 550.00" xmlns="http://www.w3.org/2000/svg" xmlns:xlink="http://www.w3.org/1999/xlink">
<g id="graph0" class="graph" transform="scale(1 1) rotate(0) translate(4 546)">
<title>/home/runner/work/Documentation/Documentation/master/applications/FluidTransportApplication/fluid_transport_application_variables.h</title>
<!-- Node1 -->
<g id="node1" class="node">
<title>Node1</title>
<g id="a_node1"><a xlink:title=" ">
<polygon fill="#bfbfbf" stroke="black" points="541,-489.5 541,-541.5 735,-541.5 735,-489.5 541,-489.5"/>
<text text-anchor="start" x="549" y="-529.5" font-family="Helvetica,sans-Serif" font-size="10.00">/home/runner/work/Documentation</text>
<text text-anchor="start" x="549" y="-518.5" font-family="Helvetica,sans-Serif" font-size="10.00">/Documentation/master/applications</text>
<text text-anchor="start" x="549" y="-507.5" font-family="Helvetica,sans-Serif" font-size="10.00">/FluidTransportApplication/fluid</text>
<text text-anchor="middle" x="638" y="-496.5" font-family="Helvetica,sans-Serif" font-size="10.00">_transport_application_variables.h</text>
</a>
</g>
</g>
<!-- Node2 -->
<g id="node2" class="node">
<title>Node2</title>
<g id="a_node2"><a xlink:href="../../da/d88/steady__convection__diffusion___f_i_c__element_8hpp.html" target="_top" xlink:title=" ">
<polygon fill="none" stroke="black" points="233.5,-389.5 233.5,-452.5 442.5,-452.5 442.5,-389.5 233.5,-389.5"/>
<text text-anchor="start" x="241.5" y="-440.5" font-family="Helvetica,sans-Serif" font-size="10.00">/home/runner/work/Documentation</text>
<text text-anchor="start" x="241.5" y="-429.5" font-family="Helvetica,sans-Serif" font-size="10.00">/Documentation/master/applications</text>
<text text-anchor="start" x="241.5" y="-418.5" font-family="Helvetica,sans-Serif" font-size="10.00">/FluidTransportApplication/custom</text>
<text text-anchor="start" x="241.5" y="-407.5" font-family="Helvetica,sans-Serif" font-size="10.00">_elements/steady_convection_diffusion</text>
<text text-anchor="middle" x="338" y="-396.5" font-family="Helvetica,sans-Serif" font-size="10.00">_FIC_element.hpp</text>
</a>
</g>
</g>
<!-- Node1&#45;&gt;Node2 -->
<g id="edge1" class="edge">
<title>Node1&#45;&gt;Node2</title>
<path fill="none" stroke="midnightblue" d="M547.16,-486.49C512.42,-475.78 472.65,-463.52 437.17,-452.58"/>
<polygon fill="midnightblue" stroke="midnightblue" points="546.23,-489.87 556.82,-489.47 548.29,-483.18 546.23,-489.87"/>
</g>
<!-- Node4 -->
<g id="node4" class="node">
<title>Node4</title>
<g id="a_node4"><a xlink:href="../../d7/d72/transient__convection__diffusion___f_i_c__element_8hpp.html" target="_top" xlink:title=" ">
<polygon fill="none" stroke="black" points="382,-289.5 382,-352.5 602,-352.5 602,-289.5 382,-289.5"/>
<text text-anchor="start" x="390" y="-340.5" font-family="Helvetica,sans-Serif" font-size="10.00">/home/runner/work/Documentation</text>
<text text-anchor="start" x="390" y="-329.5" font-family="Helvetica,sans-Serif" font-size="10.00">/Documentation/master/applications</text>
<text text-anchor="start" x="390" y="-318.5" font-family="Helvetica,sans-Serif" font-size="10.00">/FluidTransportApplication/custom</text>
<text text-anchor="start" x="390" y="-307.5" font-family="Helvetica,sans-Serif" font-size="10.00">_elements/transient_convection_diffusion</text>
<text text-anchor="middle" x="492" y="-296.5" font-family="Helvetica,sans-Serif" font-size="10.00">_FIC_element.hpp</text>
</a>
</g>
</g>
<!-- Node1&#45;&gt;Node4 -->
<g id="edge14" class="edge">
<title>Node1&#45;&gt;Node4</title>
<path fill="none" stroke="midnightblue" d="M612.63,-481.06C585.18,-444.85 541.76,-387.61 515.19,-352.57"/>
<polygon fill="midnightblue" stroke="midnightblue" points="610.08,-483.48 618.91,-489.33 615.66,-479.25 610.08,-483.48"/>
</g>
<!-- Node6 -->
<g id="node6" class="node">
<title>Node6</title>
<g id="a_node6"><a xlink:href="../../d2/def/transient__convection__diffusion___f_i_c__explicit__element_8hpp.html" target="_top" xlink:title=" ">
<polygon fill="none" stroke="black" points="620,-189.5 620,-252.5 840,-252.5 840,-189.5 620,-189.5"/>
<text text-anchor="start" x="628" y="-240.5" font-family="Helvetica,sans-Serif" font-size="10.00">/home/runner/work/Documentation</text>
<text text-anchor="start" x="628" y="-229.5" font-family="Helvetica,sans-Serif" font-size="10.00">/Documentation/master/applications</text>
<text text-anchor="start" x="628" y="-218.5" font-family="Helvetica,sans-Serif" font-size="10.00">/FluidTransportApplication/custom</text>
<text text-anchor="start" x="628" y="-207.5" font-family="Helvetica,sans-Serif" font-size="10.00">_elements/transient_convection_diffusion</text>
<text text-anchor="middle" x="730" y="-196.5" font-family="Helvetica,sans-Serif" font-size="10.00">_FIC_explicit_element.hpp</text>
</a>
</g>
</g>
<!-- Node1&#45;&gt;Node6 -->
<g id="edge15" class="edge">
<title>Node1&#45;&gt;Node6</title>
<path fill="none" stroke="midnightblue" d="M639.3,-478.76C640.94,-453.32 644.64,-418.56 653,-389 667.11,-339.08 694.33,-285.24 712.34,-252.58"/>
<polygon fill="midnightblue" stroke="midnightblue" points="635.79,-478.86 638.72,-489.04 642.78,-479.26 635.79,-478.86"/>
</g>
<!-- Node8 -->
<g id="node8" class="node">
<title>Node8</title>
<g id="a_node8"><a xlink:href="../../dc/d69/fluid__transport__application_8h.html" target="_top" xlink:title=" ">
<polygon fill="none" stroke="black" points="0,-95 0,-147 194,-147 194,-95 0,-95"/>
<text text-anchor="start" x="8" y="-135" font-family="Helvetica,sans-Serif" font-size="10.00">/home/runner/work/Documentation</text>
<text text-anchor="start" x="8" y="-124" font-family="Helvetica,sans-Serif" font-size="10.00">/Documentation/master/applications</text>
<text text-anchor="start" x="8" y="-113" font-family="Helvetica,sans-Serif" font-size="10.00">/FluidTransportApplication/fluid</text>
<text text-anchor="middle" x="97" y="-102" font-family="Helvetica,sans-Serif" font-size="10.00">_transport_application.h</text>
</a>
</g>
</g>
<!-- Node1&#45;&gt;Node8 -->
<g id="edge21" class="edge">
<title>Node1&#45;&gt;Node8</title>
<path fill="none" stroke="midnightblue" d="M530.69,-505.1C426.79,-494.83 277.36,-476.64 224,-453 159.9,-424.6 136.33,-414.13 102,-353 64.78,-286.72 79.92,-191.99 90.3,-147.25"/>
<polygon fill="midnightblue" stroke="midnightblue" points="530.62,-508.61 540.92,-506.1 531.31,-501.64 530.62,-508.61"/>
</g>
<!-- Node12 -->
<g id="node12" class="node">
<title>Node12</title>
<g id="a_node12"><a xlink:href="../../d6/d92/explicit__forward__euler__scheme_8hpp.html" target="_top" xlink:title=" ">
<polygon fill="none" stroke="black" points="718.5,-289.5 718.5,-352.5 917.5,-352.5 917.5,-289.5 718.5,-289.5"/>
<text text-anchor="start" x="726.5" y="-340.5" font-family="Helvetica,sans-Serif" font-size="10.00">/home/runner/work/Documentation</text>
<text text-anchor="start" x="726.5" y="-329.5" font-family="Helvetica,sans-Serif" font-size="10.00">/Documentation/master/applications</text>
<text text-anchor="start" x="726.5" y="-318.5" font-family="Helvetica,sans-Serif" font-size="10.00">/FluidTransportApplication/custom</text>
<text text-anchor="start" x="726.5" y="-307.5" font-family="Helvetica,sans-Serif" font-size="10.00">_strategies/schemes/explicit_forward</text>
<text text-anchor="middle" x="818" y="-296.5" font-family="Helvetica,sans-Serif" font-size="10.00">_euler_scheme.hpp</text>
</a>
</g>
</g>
<!-- Node1&#45;&gt;Node12 -->
<g id="edge16" class="edge">
<title>Node1&#45;&gt;Node12</title>
<path fill="none" stroke="midnightblue" d="M647.29,-479.24C655.95,-451.96 671.16,-414.64 695,-389 708.58,-374.4 726.08,-362.28 743.6,-352.55"/>
<polygon fill="midnightblue" stroke="midnightblue" points="643.84,-478.58 644.29,-489.16 650.54,-480.6 643.84,-478.58"/>
</g>
<!-- Node14 -->
<g id="node14" class="node">
<title>Node14</title>
<g id="a_node14"><a xlink:href="../../d9/d2c/generalized__newmark___g_n11__scheme_8hpp.html" target="_top" xlink:title=" ">
<polygon fill="none" stroke="black" points="704,-389.5 704,-452.5 932,-452.5 932,-389.5 704,-389.5"/>
<text text-anchor="start" x="712" y="-440.5" font-family="Helvetica,sans-Serif" font-size="10.00">/home/runner/work/Documentation</text>
<text text-anchor="start" x="712" y="-429.5" font-family="Helvetica,sans-Serif" font-size="10.00">/Documentation/master/applications</text>
<text text-anchor="start" x="712" y="-418.5" font-family="Helvetica,sans-Serif" font-size="10.00">/FluidTransportApplication/custom</text>
<text text-anchor="start" x="712" y="-407.5" font-family="Helvetica,sans-Serif" font-size="10.00">_strategies/schemes/generalized_newmark</text>
<text text-anchor="middle" x="818" y="-396.5" font-family="Helvetica,sans-Serif" font-size="10.00">_GN11_scheme.hpp</text>
</a>
</g>
</g>
<!-- Node1&#45;&gt;Node14 -->
<g id="edge18" class="edge">
<title>Node1&#45;&gt;Node14</title>
<path fill="none" stroke="midnightblue" d="M695.71,-484.84C715.72,-474.56 738.17,-463.02 758.33,-452.66"/>
<polygon fill="midnightblue" stroke="midnightblue" points="694.01,-481.78 686.71,-489.47 697.2,-488.01 694.01,-481.78"/>
</g>
<!-- Node15 -->
<g id="node15" class="node">
<title>Node15</title>
<g id="a_node15"><a xlink:href="../../dc/de9/fluid__transport__application__variables_8cpp.html" target="_top" xlink:title=" ">
<polygon fill="none" stroke="black" points="950,-395 950,-447 1146,-447 1146,-395 950,-395"/>
<text text-anchor="start" x="958" y="-435" font-family="Helvetica,sans-Serif" font-size="10.00">/home/runner/work/Documentation</text>
<text text-anchor="start" x="958" y="-424" font-family="Helvetica,sans-Serif" font-size="10.00">/Documentation/master/applications</text>
<text text-anchor="start" x="958" y="-413" font-family="Helvetica,sans-Serif" font-size="10.00">/FluidTransportApplication/fluid</text>
<text text-anchor="middle" x="1048" y="-402" font-family="Helvetica,sans-Serif" font-size="10.00">_transport_application_variables.cpp</text>
</a>
</g>
</g>
<!-- Node1&#45;&gt;Node15 -->
<g id="edge22" class="edge">
<title>Node1&#45;&gt;Node15</title>
<path fill="none" stroke="midnightblue" d="M745.28,-494.94C803.45,-483.78 876.45,-468.87 941,-453 948.51,-451.15 956.29,-449.13 964.06,-447.02"/>
<polygon fill="midnightblue" stroke="midnightblue" points="744.5,-491.53 735.34,-496.84 745.81,-498.4 744.5,-491.53"/>
</g>
<!-- Node3 -->
<g id="node3" class="node">
<title>Node3</title>
<g id="a_node3"><a xlink:href="../../d6/d35/steady__convection__diffusion___f_i_c__element_8cpp.html" target="_top" xlink:title=" ">
<polygon fill="none" stroke="black" points="154.5,-289.5 154.5,-352.5 363.5,-352.5 363.5,-289.5 154.5,-289.5"/>
<text text-anchor="start" x="162.5" y="-340.5" font-family="Helvetica,sans-Serif" font-size="10.00">/home/runner/work/Documentation</text>
<text text-anchor="start" x="162.5" y="-329.5" font-family="Helvetica,sans-Serif" font-size="10.00">/Documentation/master/applications</text>
<text text-anchor="start" x="162.5" y="-318.5" font-family="Helvetica,sans-Serif" font-size="10.00">/FluidTransportApplication/custom</text>
<text text-anchor="start" x="162.5" y="-307.5" font-family="Helvetica,sans-Serif" font-size="10.00">_elements/steady_convection_diffusion</text>
<text text-anchor="middle" x="259" y="-296.5" font-family="Helvetica,sans-Serif" font-size="10.00">_FIC_element.cpp</text>
</a>
</g>
</g>
<!-- Node2&#45;&gt;Node3 -->
<g id="edge2" class="edge">
<title>Node2&#45;&gt;Node3</title>
<path fill="none" stroke="midnightblue" d="M306.88,-381.4C299.18,-371.85 291.04,-361.74 283.69,-352.63"/>
<polygon fill="midnightblue" stroke="midnightblue" points="304.22,-383.67 313.22,-389.26 309.67,-379.28 304.22,-383.67"/>
</g>
<!-- Node2&#45;&gt;Node4 -->
<g id="edge3" class="edge">
<title>Node2&#45;&gt;Node4</title>
<path fill="none" stroke="midnightblue" d="M395.07,-383.68C411.12,-373.47 428.4,-362.47 443.87,-352.63"/>
<polygon fill="midnightblue" stroke="midnightblue" points="392.86,-380.94 386.3,-389.26 396.62,-386.85 392.86,-380.94"/>
</g>
<!-- Node2&#45;&gt;Node8 -->
<g id="edge13" class="edge">
<title>Node2&#45;&gt;Node8</title>
<path fill="none" stroke="midnightblue" d="M223.92,-396.98C195.69,-387.07 167.21,-372.98 145,-353 86.09,-299.98 88.81,-195.14 93.65,-147.1"/>
<polygon fill="midnightblue" stroke="midnightblue" points="222.88,-400.32 233.48,-400.18 225.11,-393.68 222.88,-400.32"/>
</g>
<!-- Node5 -->
<g id="node5" class="node">
<title>Node5</title>
<g id="a_node5"><a xlink:href="../../db/d08/transient__convection__diffusion___f_i_c__element_8cpp.html" target="_top" xlink:title=" ">
<polygon fill="none" stroke="black" points="382,-189.5 382,-252.5 602,-252.5 602,-189.5 382,-189.5"/>
<text text-anchor="start" x="390" y="-240.5" font-family="Helvetica,sans-Serif" font-size="10.00">/home/runner/work/Documentation</text>
<text text-anchor="start" x="390" y="-229.5" font-family="Helvetica,sans-Serif" font-size="10.00">/Documentation/master/applications</text>
<text text-anchor="start" x="390" y="-218.5" font-family="Helvetica,sans-Serif" font-size="10.00">/FluidTransportApplication/custom</text>
<text text-anchor="start" x="390" y="-207.5" font-family="Helvetica,sans-Serif" font-size="10.00">_elements/transient_convection_diffusion</text>
<text text-anchor="middle" x="492" y="-196.5" font-family="Helvetica,sans-Serif" font-size="10.00">_FIC_element.cpp</text>
</a>
</g>
</g>
<!-- Node4&#45;&gt;Node5 -->
<g id="edge4" class="edge">
<title>Node4&#45;&gt;Node5</title>
<path fill="none" stroke="midnightblue" d="M492,-279.1C492,-270.24 492,-261.01 492,-252.63"/>
<polygon fill="midnightblue" stroke="midnightblue" points="488.5,-279.26 492,-289.26 495.5,-279.26 488.5,-279.26"/>
</g>
<!-- Node4&#45;&gt;Node6 -->
<g id="edge5" class="edge">
<title>Node4&#45;&gt;Node6</title>
<path fill="none" stroke="midnightblue" d="M575.81,-285.49C601.89,-274.75 630.45,-262.99 655.83,-252.54"/>
<polygon fill="midnightblue" stroke="midnightblue" points="574.24,-282.35 566.33,-289.4 576.91,-288.82 574.24,-282.35"/>
</g>
<!-- Node4&#45;&gt;Node8 -->
<g id="edge12" class="edge">
<title>Node4&#45;&gt;Node8</title>
<path fill="none" stroke="midnightblue" d="M372.31,-289.06C372.2,-289.04 372.1,-289.02 372,-289 319.81,-278.32 175.06,-288.11 135,-253 104.64,-226.39 97.86,-177.12 96.72,-147.17"/>
<polygon fill="midnightblue" stroke="midnightblue" points="371.41,-292.45 381.92,-291.1 372.86,-285.6 371.41,-292.45"/>
</g>
<!-- Node10 -->
<g id="node10" class="node">
<title>Node10</title>
<g id="a_node10"><a xlink:href="../../dc/d99/transient__convection__diffusion___p_f_e_m2___f_i_c__element_8hpp.html" target="_top" xlink:title=" ">
<polygon fill="none" stroke="black" points="144,-189.5 144,-252.5 364,-252.5 364,-189.5 144,-189.5"/>
<text text-anchor="start" x="152" y="-240.5" font-family="Helvetica,sans-Serif" font-size="10.00">/home/runner/work/Documentation</text>
<text text-anchor="start" x="152" y="-229.5" font-family="Helvetica,sans-Serif" font-size="10.00">/Documentation/master/applications</text>
<text text-anchor="start" x="152" y="-218.5" font-family="Helvetica,sans-Serif" font-size="10.00">/FluidTransportApplication/custom</text>
<text text-anchor="start" x="152" y="-207.5" font-family="Helvetica,sans-Serif" font-size="10.00">_elements/transient_convection_diffusion</text>
<text text-anchor="middle" x="254" y="-196.5" font-family="Helvetica,sans-Serif" font-size="10.00">_PFEM2_FIC_element.hpp</text>
</a>
</g>
</g>
<!-- Node4&#45;&gt;Node10 -->
<g id="edge9" class="edge">
<title>Node4&#45;&gt;Node10</title>
<path fill="none" stroke="midnightblue" d="M408.19,-285.49C382.11,-274.75 353.55,-262.99 328.17,-252.54"/>
<polygon fill="midnightblue" stroke="midnightblue" points="407.09,-288.82 417.67,-289.4 409.76,-282.35 407.09,-288.82"/>
</g>
<!-- Node7 -->
<g id="node7" class="node">
<title>Node7</title>
<g id="a_node7"><a xlink:href="../../d2/d75/transient__convection__diffusion___f_i_c__explicit__element_8cpp.html" target="_top" xlink:title=" ">
<polygon fill="none" stroke="black" points="620,-89.5 620,-152.5 840,-152.5 840,-89.5 620,-89.5"/>
<text text-anchor="start" x="628" y="-140.5" font-family="Helvetica,sans-Serif" font-size="10.00">/home/runner/work/Documentation</text>
<text text-anchor="start" x="628" y="-129.5" font-family="Helvetica,sans-Serif" font-size="10.00">/Documentation/master/applications</text>
<text text-anchor="start" x="628" y="-118.5" font-family="Helvetica,sans-Serif" font-size="10.00">/FluidTransportApplication/custom</text>
<text text-anchor="start" x="628" y="-107.5" font-family="Helvetica,sans-Serif" font-size="10.00">_elements/transient_convection_diffusion</text>
<text text-anchor="middle" x="730" y="-96.5" font-family="Helvetica,sans-Serif" font-size="10.00">_FIC_explicit_element.cpp</text>
</a>
</g>
</g>
<!-- Node6&#45;&gt;Node7 -->
<g id="edge6" class="edge">
<title>Node6&#45;&gt;Node7</title>
<path fill="none" stroke="midnightblue" d="M730,-179.1C730,-170.24 730,-161.01 730,-152.63"/>
<polygon fill="midnightblue" stroke="midnightblue" points="726.5,-179.26 730,-189.26 733.5,-179.26 726.5,-179.26"/>
</g>
<!-- Node6&#45;&gt;Node8 -->
<g id="edge7" class="edge">
<title>Node6&#45;&gt;Node8</title>
<path fill="none" stroke="midnightblue" d="M609.85,-188.92C429.79,-158.97 378.66,-186.1 203,-153 194.33,-151.37 185.36,-149.32 176.47,-147.06"/>
<polygon fill="midnightblue" stroke="midnightblue" points="609.48,-192.41 619.92,-190.63 610.65,-185.51 609.48,-192.41"/>
</g>
<!-- Node9 -->
<g id="node9" class="node">
<title>Node9</title>
<g id="a_node9"><a xlink:href="../../d9/d50/fluid__transport__application_8cpp.html" target="_top" xlink:title=" ">
<polygon fill="none" stroke="black" points="0,-0.5 0,-52.5 194,-52.5 194,-0.5 0,-0.5"/>
<text text-anchor="start" x="8" y="-40.5" font-family="Helvetica,sans-Serif" font-size="10.00">/home/runner/work/Documentation</text>
<text text-anchor="start" x="8" y="-29.5" font-family="Helvetica,sans-Serif" font-size="10.00">/Documentation/master/applications</text>
<text text-anchor="start" x="8" y="-18.5" font-family="Helvetica,sans-Serif" font-size="10.00">/FluidTransportApplication/fluid</text>
<text text-anchor="middle" x="97" y="-7.5" font-family="Helvetica,sans-Serif" font-size="10.00">_transport_application.cpp</text>
</a>
</g>
</g>
<!-- Node8&#45;&gt;Node9 -->
<g id="edge8" class="edge">
<title>Node8&#45;&gt;Node9</title>
<path fill="none" stroke="midnightblue" d="M97,-84.49C97,-73.91 97,-62.53 97,-52.75"/>
<polygon fill="midnightblue" stroke="midnightblue" points="93.5,-84.72 97,-94.72 100.5,-84.72 93.5,-84.72"/>
</g>
<!-- Node10&#45;&gt;Node8 -->
<g id="edge11" class="edge">
<title>Node10&#45;&gt;Node8</title>
<path fill="none" stroke="midnightblue" d="M196.18,-183.91C176.56,-171.66 155.07,-158.25 137.14,-147.05"/>
<polygon fill="midnightblue" stroke="midnightblue" points="194.42,-186.93 204.75,-189.26 198.13,-181 194.42,-186.93"/>
</g>
<!-- Node11 -->
<g id="node11" class="node">
<title>Node11</title>
<g id="a_node11"><a xlink:href="../../d6/d51/transient__convection__diffusion___p_f_e_m2___f_i_c__element_8cpp.html" target="_top" xlink:title=" ">
<polygon fill="none" stroke="black" points="212,-89.5 212,-152.5 432,-152.5 432,-89.5 212,-89.5"/>
<text text-anchor="start" x="220" y="-140.5" font-family="Helvetica,sans-Serif" font-size="10.00">/home/runner/work/Documentation</text>
<text text-anchor="start" x="220" y="-129.5" font-family="Helvetica,sans-Serif" font-size="10.00">/Documentation/master/applications</text>
<text text-anchor="start" x="220" y="-118.5" font-family="Helvetica,sans-Serif" font-size="10.00">/FluidTransportApplication/custom</text>
<text text-anchor="start" x="220" y="-107.5" font-family="Helvetica,sans-Serif" font-size="10.00">_elements/transient_convection_diffusion</text>
<text text-anchor="middle" x="322" y="-96.5" font-family="Helvetica,sans-Serif" font-size="10.00">_PFEM2_FIC_element.cpp</text>
</a>
</g>
</g>
<!-- Node10&#45;&gt;Node11 -->
<g id="edge10" class="edge">
<title>Node10&#45;&gt;Node11</title>
<path fill="none" stroke="midnightblue" d="M281.18,-180.83C287.69,-171.44 294.55,-161.56 300.75,-152.63"/>
<polygon fill="midnightblue" stroke="midnightblue" points="278.15,-179.05 275.33,-189.26 283.91,-183.04 278.15,-179.05"/>
</g>
<!-- Node13 -->
<g id="node13" class="node">
<title>Node13</title>
<g id="a_node13"><a xlink:href="../../db/da7/_fluid_transport_application_2custom__python_2add__custom__strategies__to__python_8cpp.html" target="_top" xlink:title=" ">
<polygon fill="none" stroke="black" points="858,-189.5 858,-252.5 1052,-252.5 1052,-189.5 858,-189.5"/>
<text text-anchor="start" x="866" y="-240.5" font-family="Helvetica,sans-Serif" font-size="10.00">/home/runner/work/Documentation</text>
<text text-anchor="start" x="866" y="-229.5" font-family="Helvetica,sans-Serif" font-size="10.00">/Documentation/master/applications</text>
<text text-anchor="start" x="866" y="-218.5" font-family="Helvetica,sans-Serif" font-size="10.00">/FluidTransportApplication/custom</text>
<text text-anchor="start" x="866" y="-207.5" font-family="Helvetica,sans-Serif" font-size="10.00">_python/add_custom_strategies_to</text>
<text text-anchor="middle" x="955" y="-196.5" font-family="Helvetica,sans-Serif" font-size="10.00">_python.cpp</text>
</a>
</g>
</g>
<!-- Node12&#45;&gt;Node13 -->
<g id="edge17" class="edge">
<title>Node12&#45;&gt;Node13</title>
<path fill="none" stroke="midnightblue" d="M869.17,-283.4C883.33,-273.27 898.55,-262.38 912.18,-252.63"/>
<polygon fill="midnightblue" stroke="midnightblue" points="867.07,-280.6 860.97,-289.26 871.14,-286.29 867.07,-280.6"/>
</g>
<!-- Node14&#45;&gt;Node12 -->
<g id="edge20" class="edge">
<title>Node14&#45;&gt;Node12</title>
<path fill="none" stroke="midnightblue" d="M818,-379.1C818,-370.24 818,-361.01 818,-352.63"/>
<polygon fill="midnightblue" stroke="midnightblue" points="814.5,-379.26 818,-389.26 821.5,-379.26 814.5,-379.26"/>
</g>
<!-- Node14&#45;&gt;Node13 -->
<g id="edge19" class="edge">
<title>Node14&#45;&gt;Node13</title>
<path fill="none" stroke="midnightblue" d="M895.12,-383.78C907.26,-375.17 918.56,-364.94 927,-353 948,-323.27 953.79,-280.94 955.12,-252.51"/>
<polygon fill="midnightblue" stroke="midnightblue" points="892.97,-381 886.61,-389.48 896.87,-386.82 892.97,-381"/>
</g>
</g>
</svg>
