<?xml version="1.0" encoding="UTF-8" standalone="no"?>
<!DOCTYPE svg PUBLIC "-//W3C//DTD SVG 1.1//EN"
 "http://www.w3.org/Graphics/SVG/1.1/DTD/svg11.dtd">
<!-- Generated by graphviz version 2.43.0 (0)
 -->
<!-- Title: /home/runner/work/Documentation/Documentation/master/kratos/spatial_containers/geometrical_objects_bins.h Pages: 1 -->
<svg width="816pt" height="150pt"
 viewBox="0.00 0.00 816.00 150.00" xmlns="http://www.w3.org/2000/svg" xmlns:xlink="http://www.w3.org/1999/xlink">
<g id="graph0" class="graph" transform="scale(1 1) rotate(0) translate(4 146)">
<title>/home/runner/work/Documentation/Documentation/master/kratos/spatial_containers/geometrical_objects_bins.h</title>
<!-- Node1 -->
<g id="node1" class="node">
<title>Node1</title>
<g id="a_node1"><a xlink:title=" ">
<polygon fill="#bfbfbf" stroke="black" points="312,-89.5 312,-141.5 499,-141.5 499,-89.5 312,-89.5"/>
<text text-anchor="start" x="320" y="-129.5" font-family="Helvetica,sans-Serif" font-size="10.00">/home/runner/work/Documentation</text>
<text text-anchor="start" x="320" y="-118.5" font-family="Helvetica,sans-Serif" font-size="10.00">/Documentation/master/kratos</text>
<text text-anchor="start" x="320" y="-107.5" font-family="Helvetica,sans-Serif" font-size="10.00">/spatial_containers/geometrical</text>
<text text-anchor="middle" x="405.5" y="-96.5" font-family="Helvetica,sans-Serif" font-size="10.00">_objects_bins.h</text>
</a>
</g>
</g>
<!-- Node2 -->
<g id="node2" class="node">
<title>Node2</title>
<g id="a_node2"><a xlink:href="../../d4/dd7/voxel__mesh__generator__modeler_8cpp.html" target="_top" xlink:title=" ">
<polygon fill="none" stroke="black" points="0,-0.5 0,-52.5 187,-52.5 187,-0.5 0,-0.5"/>
<text text-anchor="start" x="8" y="-40.5" font-family="Helvetica,sans-Serif" font-size="10.00">/home/runner/work/Documentation</text>
<text text-anchor="start" x="8" y="-29.5" font-family="Helvetica,sans-Serif" font-size="10.00">/Documentation/master/kratos</text>
<text text-anchor="start" x="8" y="-18.5" font-family="Helvetica,sans-Serif" font-size="10.00">/modeler/voxel_mesh_generator</text>
<text text-anchor="middle" x="93.5" y="-7.5" font-family="Helvetica,sans-Serif" font-size="10.00">_modeler.cpp</text>
</a>
</g>
</g>
<!-- Node1&#45;&gt;Node2 -->
<g id="edge1" class="edge">
<title>Node1&#45;&gt;Node2</title>
<path fill="none" stroke="midnightblue" d="M305.8,-86.7C266.44,-75.72 221.56,-63.21 183.23,-52.52"/>
<polygon fill="midnightblue" stroke="midnightblue" points="305.1,-90.14 315.68,-89.45 306.98,-83.4 305.1,-90.14"/>
</g>
<!-- Node3 -->
<g id="node3" class="node">
<title>Node3</title>
<g id="a_node3"><a xlink:href="../../da/d8f/calculate__nodal__distance__to__skin__process_8cpp.html" target="_top" xlink:title=" ">
<polygon fill="none" stroke="black" points="204.5,-0.5 204.5,-52.5 398.5,-52.5 398.5,-0.5 204.5,-0.5"/>
<text text-anchor="start" x="212.5" y="-40.5" font-family="Helvetica,sans-Serif" font-size="10.00">/home/runner/work/Documentation</text>
<text text-anchor="start" x="212.5" y="-29.5" font-family="Helvetica,sans-Serif" font-size="10.00">/Documentation/master/kratos</text>
<text text-anchor="start" x="212.5" y="-18.5" font-family="Helvetica,sans-Serif" font-size="10.00">/processes/calculate_nodal_distance</text>
<text text-anchor="middle" x="301.5" y="-7.5" font-family="Helvetica,sans-Serif" font-size="10.00">_to_skin_process.cpp</text>
</a>
</g>
</g>
<!-- Node1&#45;&gt;Node3 -->
<g id="edge2" class="edge">
<title>Node1&#45;&gt;Node3</title>
<path fill="none" stroke="midnightblue" d="M367.43,-82.65C355.59,-72.75 342.72,-61.98 331.51,-52.61"/>
<polygon fill="midnightblue" stroke="midnightblue" points="365.5,-85.6 375.42,-89.34 369.99,-80.24 365.5,-85.6"/>
</g>
<!-- Node4 -->
<g id="node4" class="node">
<title>Node4</title>
<g id="a_node4"><a xlink:href="../../d7/dbf/add__search__strategies__to__python_8cpp.html" target="_top" xlink:title=" ">
<polygon fill="none" stroke="black" points="416,-0.5 416,-52.5 603,-52.5 603,-0.5 416,-0.5"/>
<text text-anchor="start" x="424" y="-40.5" font-family="Helvetica,sans-Serif" font-size="10.00">/home/runner/work/Documentation</text>
<text text-anchor="start" x="424" y="-29.5" font-family="Helvetica,sans-Serif" font-size="10.00">/Documentation/master/kratos</text>
<text text-anchor="start" x="424" y="-18.5" font-family="Helvetica,sans-Serif" font-size="10.00">/python/add_search_strategies</text>
<text text-anchor="middle" x="509.5" y="-7.5" font-family="Helvetica,sans-Serif" font-size="10.00">_to_python.cpp</text>
</a>
</g>
</g>
<!-- Node1&#45;&gt;Node4 -->
<g id="edge3" class="edge">
<title>Node1&#45;&gt;Node4</title>
<path fill="none" stroke="midnightblue" d="M443.57,-82.65C455.41,-72.75 468.28,-61.98 479.49,-52.61"/>
<polygon fill="midnightblue" stroke="midnightblue" points="441.01,-80.24 435.58,-89.34 445.5,-85.6 441.01,-80.24"/>
</g>
<!-- Node5 -->
<g id="node5" class="node">
<title>Node5</title>
<g id="a_node5"><a xlink:href="../../de/d43/geometrical__objects__bins_8cpp.html" target="_top" xlink:title=" ">
<polygon fill="none" stroke="black" points="621,-0.5 621,-52.5 808,-52.5 808,-0.5 621,-0.5"/>
<text text-anchor="start" x="629" y="-40.5" font-family="Helvetica,sans-Serif" font-size="10.00">/home/runner/work/Documentation</text>
<text text-anchor="start" x="629" y="-29.5" font-family="Helvetica,sans-Serif" font-size="10.00">/Documentation/master/kratos</text>
<text text-anchor="start" x="629" y="-18.5" font-family="Helvetica,sans-Serif" font-size="10.00">/spatial_containers/geometrical</text>
<text text-anchor="middle" x="714.5" y="-7.5" font-family="Helvetica,sans-Serif" font-size="10.00">_objects_bins.cpp</text>
</a>
</g>
</g>
<!-- Node1&#45;&gt;Node5 -->
<g id="edge4" class="edge">
<title>Node1&#45;&gt;Node5</title>
<path fill="none" stroke="midnightblue" d="M504.25,-86.7C543.23,-75.72 587.68,-63.21 625.63,-52.52"/>
<polygon fill="midnightblue" stroke="midnightblue" points="503.14,-83.37 494.46,-89.45 505.04,-90.11 503.14,-83.37"/>
</g>
</g>
</svg>
