<?xml version="1.0" encoding="UTF-8" standalone="no"?>
<!DOCTYPE svg PUBLIC "-//W3C//DTD SVG 1.1//EN"
 "http://www.w3.org/Graphics/SVG/1.1/DTD/svg11.dtd">
<!-- Generated by graphviz version 2.43.0 (0)
 -->
<!-- Title: /home/runner/work/Documentation/Documentation/master/applications/HDF5Application/custom_utilities/vertex.h Pages: 1 -->
<svg width="838pt" height="228pt"
 viewBox="0.00 0.00 838.00 228.00" xmlns="http://www.w3.org/2000/svg" xmlns:xlink="http://www.w3.org/1999/xlink">
<g id="graph0" class="graph" transform="scale(1 1) rotate(0) translate(4 224)">
<title>/home/runner/work/Documentation/Documentation/master/applications/HDF5Application/custom_utilities/vertex.h</title>
<!-- Node1 -->
<g id="node1" class="node">
<title>Node1</title>
<g id="a_node1"><a xlink:title=" ">
<polygon fill="#bfbfbf" stroke="black" points="302,-178.5 302,-219.5 528,-219.5 528,-178.5 302,-178.5"/>
<text text-anchor="start" x="310" y="-207.5" font-family="Helvetica,sans-Serif" font-size="10.00">/home/runner/work/Documentation</text>
<text text-anchor="start" x="310" y="-196.5" font-family="Helvetica,sans-Serif" font-size="10.00">/Documentation/master/applications</text>
<text text-anchor="middle" x="415" y="-185.5" font-family="Helvetica,sans-Serif" font-size="10.00">/HDF5Application/custom_utilities/vertex.h</text>
</a>
</g>
</g>
<!-- Node2 -->
<g id="node2" class="node">
<title>Node2</title>
<g id="a_node2"><a xlink:href="../../d8/dd1/hdf5__container__component__io_8cpp.html" target="_top" xlink:title=" ">
<polygon fill="none" stroke="black" points="0,-89.5 0,-141.5 194,-141.5 194,-89.5 0,-89.5"/>
<text text-anchor="start" x="8" y="-129.5" font-family="Helvetica,sans-Serif" font-size="10.00">/home/runner/work/Documentation</text>
<text text-anchor="start" x="8" y="-118.5" font-family="Helvetica,sans-Serif" font-size="10.00">/Documentation/master/applications</text>
<text text-anchor="start" x="8" y="-107.5" font-family="Helvetica,sans-Serif" font-size="10.00">/HDF5Application/custom_io/hdf5</text>
<text text-anchor="middle" x="97" y="-96.5" font-family="Helvetica,sans-Serif" font-size="10.00">_container_component_io.cpp</text>
</a>
</g>
</g>
<!-- Node1&#45;&gt;Node2 -->
<g id="edge1" class="edge">
<title>Node1&#45;&gt;Node2</title>
<path fill="none" stroke="midnightblue" d="M329,-175.96C287.38,-165.29 237.25,-152.45 194.25,-141.43"/>
<polygon fill="midnightblue" stroke="midnightblue" points="328.28,-179.39 338.83,-178.48 330.01,-172.61 328.28,-179.39"/>
</g>
<!-- Node3 -->
<g id="node3" class="node">
<title>Node3</title>
<g id="a_node3"><a xlink:href="../../d2/d71/hdf5__vertex__container__io_8h.html" target="_top" xlink:title=" ">
<polygon fill="none" stroke="black" points="212,-89.5 212,-141.5 406,-141.5 406,-89.5 212,-89.5"/>
<text text-anchor="start" x="220" y="-129.5" font-family="Helvetica,sans-Serif" font-size="10.00">/home/runner/work/Documentation</text>
<text text-anchor="start" x="220" y="-118.5" font-family="Helvetica,sans-Serif" font-size="10.00">/Documentation/master/applications</text>
<text text-anchor="start" x="220" y="-107.5" font-family="Helvetica,sans-Serif" font-size="10.00">/HDF5Application/custom_io/hdf5</text>
<text text-anchor="middle" x="309" y="-96.5" font-family="Helvetica,sans-Serif" font-size="10.00">_vertex_container_io.h</text>
</a>
</g>
</g>
<!-- Node1&#45;&gt;Node3 -->
<g id="edge2" class="edge">
<title>Node1&#45;&gt;Node3</title>
<path fill="none" stroke="midnightblue" d="M381.56,-172.29C368.87,-162.53 354.44,-151.44 341.81,-141.73"/>
<polygon fill="midnightblue" stroke="midnightblue" points="379.55,-175.16 389.61,-178.48 383.82,-169.61 379.55,-175.16"/>
</g>
<!-- Node6 -->
<g id="node6" class="node">
<title>Node6</title>
<g id="a_node6"><a xlink:href="../../de/dfa/_h_d_f5_application_2custom__python_2add__custom__utilities__to__python_8cpp.html" target="_top" xlink:title=" ">
<polygon fill="none" stroke="black" points="423.5,-89.5 423.5,-141.5 618.5,-141.5 618.5,-89.5 423.5,-89.5"/>
<text text-anchor="start" x="431.5" y="-129.5" font-family="Helvetica,sans-Serif" font-size="10.00">/home/runner/work/Documentation</text>
<text text-anchor="start" x="431.5" y="-118.5" font-family="Helvetica,sans-Serif" font-size="10.00">/Documentation/master/applications</text>
<text text-anchor="start" x="431.5" y="-107.5" font-family="Helvetica,sans-Serif" font-size="10.00">/HDF5Application/custom_python</text>
<text text-anchor="middle" x="521" y="-96.5" font-family="Helvetica,sans-Serif" font-size="10.00">/add_custom_utilities_to_python.cpp</text>
</a>
</g>
</g>
<!-- Node1&#45;&gt;Node6 -->
<g id="edge5" class="edge">
<title>Node1&#45;&gt;Node6</title>
<path fill="none" stroke="midnightblue" d="M448.44,-172.29C461.13,-162.53 475.56,-151.44 488.19,-141.73"/>
<polygon fill="midnightblue" stroke="midnightblue" points="446.18,-169.61 440.39,-178.48 450.45,-175.16 446.18,-169.61"/>
</g>
<!-- Node7 -->
<g id="node7" class="node">
<title>Node7</title>
<g id="a_node7"><a xlink:href="../../d0/d3f/vertex_8cpp.html" target="_top" xlink:title=" ">
<polygon fill="none" stroke="black" points="636,-89.5 636,-141.5 830,-141.5 830,-89.5 636,-89.5"/>
<text text-anchor="start" x="644" y="-129.5" font-family="Helvetica,sans-Serif" font-size="10.00">/home/runner/work/Documentation</text>
<text text-anchor="start" x="644" y="-118.5" font-family="Helvetica,sans-Serif" font-size="10.00">/Documentation/master/applications</text>
<text text-anchor="start" x="644" y="-107.5" font-family="Helvetica,sans-Serif" font-size="10.00">/HDF5Application/custom_utilities</text>
<text text-anchor="middle" x="733" y="-96.5" font-family="Helvetica,sans-Serif" font-size="10.00">/vertex.cpp</text>
</a>
</g>
</g>
<!-- Node1&#45;&gt;Node7 -->
<g id="edge6" class="edge">
<title>Node1&#45;&gt;Node7</title>
<path fill="none" stroke="midnightblue" d="M501,-175.96C542.62,-165.29 592.75,-152.45 635.75,-141.43"/>
<polygon fill="midnightblue" stroke="midnightblue" points="499.99,-172.61 491.17,-178.48 501.72,-179.39 499.99,-172.61"/>
</g>
<!-- Node4 -->
<g id="node4" class="node">
<title>Node4</title>
<g id="a_node4"><a xlink:href="../../d4/dfd/hdf5__vertex__container__io_8cpp.html" target="_top" xlink:title=" ">
<polygon fill="none" stroke="black" points="106,-0.5 106,-52.5 300,-52.5 300,-0.5 106,-0.5"/>
<text text-anchor="start" x="114" y="-40.5" font-family="Helvetica,sans-Serif" font-size="10.00">/home/runner/work/Documentation</text>
<text text-anchor="start" x="114" y="-29.5" font-family="Helvetica,sans-Serif" font-size="10.00">/Documentation/master/applications</text>
<text text-anchor="start" x="114" y="-18.5" font-family="Helvetica,sans-Serif" font-size="10.00">/HDF5Application/custom_io/hdf5</text>
<text text-anchor="middle" x="203" y="-7.5" font-family="Helvetica,sans-Serif" font-size="10.00">_vertex_container_io.cpp</text>
</a>
</g>
</g>
<!-- Node3&#45;&gt;Node4 -->
<g id="edge3" class="edge">
<title>Node3&#45;&gt;Node4</title>
<path fill="none" stroke="midnightblue" d="M270.54,-82.93C258.38,-72.96 245.12,-62.07 233.59,-52.61"/>
<polygon fill="midnightblue" stroke="midnightblue" points="268.39,-85.7 278.34,-89.34 272.83,-80.29 268.39,-85.7"/>
</g>
<!-- Node5 -->
<g id="node5" class="node">
<title>Node5</title>
<g id="a_node5"><a xlink:href="../../df/d70/_h_d_f5_application_2custom__python_2add__custom__io__to__python_8cpp.html" target="_top" xlink:title=" ">
<polygon fill="none" stroke="black" points="318,-0.5 318,-52.5 512,-52.5 512,-0.5 318,-0.5"/>
<text text-anchor="start" x="326" y="-40.5" font-family="Helvetica,sans-Serif" font-size="10.00">/home/runner/work/Documentation</text>
<text text-anchor="start" x="326" y="-29.5" font-family="Helvetica,sans-Serif" font-size="10.00">/Documentation/master/applications</text>
<text text-anchor="start" x="326" y="-18.5" font-family="Helvetica,sans-Serif" font-size="10.00">/HDF5Application/custom_python</text>
<text text-anchor="middle" x="415" y="-7.5" font-family="Helvetica,sans-Serif" font-size="10.00">/add_custom_io_to_python.cpp</text>
</a>
</g>
</g>
<!-- Node3&#45;&gt;Node5 -->
<g id="edge4" class="edge">
<title>Node3&#45;&gt;Node5</title>
<path fill="none" stroke="midnightblue" d="M347.46,-82.93C359.62,-72.96 372.88,-62.07 384.41,-52.61"/>
<polygon fill="midnightblue" stroke="midnightblue" points="345.17,-80.29 339.66,-89.34 349.61,-85.7 345.17,-80.29"/>
</g>
</g>
</svg>
