<?xml version="1.0" encoding="UTF-8" standalone="no"?>
<!DOCTYPE svg PUBLIC "-//W3C//DTD SVG 1.1//EN"
 "http://www.w3.org/Graphics/SVG/1.1/DTD/svg11.dtd">
<!-- Generated by graphviz version 2.43.0 (0)
 -->
<!-- Title: /home/runner/work/Documentation/Documentation/master/kratos/processes/calculate_distance_to_skin_process.h Pages: 1 -->
<svg width="1192pt" height="417pt"
 viewBox="0.00 0.00 1191.50 417.00" xmlns="http://www.w3.org/2000/svg" xmlns:xlink="http://www.w3.org/1999/xlink">
<g id="graph0" class="graph" transform="scale(1 1) rotate(0) translate(4 413)">
<title>/home/runner/work/Documentation/Documentation/master/kratos/processes/calculate_distance_to_skin_process.h</title>
<!-- Node1 -->
<g id="node1" class="node">
<title>Node1</title>
<g id="a_node1"><a xlink:title=" ">
<polygon fill="#bfbfbf" stroke="black" points="471,-356.5 471,-408.5 658,-408.5 658,-356.5 471,-356.5"/>
<text text-anchor="start" x="479" y="-396.5" font-family="Helvetica,sans-Serif" font-size="10.00">/home/runner/work/Documentation</text>
<text text-anchor="start" x="479" y="-385.5" font-family="Helvetica,sans-Serif" font-size="10.00">/Documentation/master/kratos</text>
<text text-anchor="start" x="479" y="-374.5" font-family="Helvetica,sans-Serif" font-size="10.00">/processes/calculate_distance</text>
<text text-anchor="middle" x="564.5" y="-363.5" font-family="Helvetica,sans-Serif" font-size="10.00">_to_skin_process.h</text>
</a>
</g>
</g>
<!-- Node2 -->
<g id="node2" class="node">
<title>Node2</title>
<g id="a_node2"><a xlink:href="../../d2/d48/calculate__distance__to__skin__process_8cpp.html" target="_top" xlink:title=" ">
<polygon fill="none" stroke="black" points="0,-267.5 0,-319.5 187,-319.5 187,-267.5 0,-267.5"/>
<text text-anchor="start" x="8" y="-307.5" font-family="Helvetica,sans-Serif" font-size="10.00">/home/runner/work/Documentation</text>
<text text-anchor="start" x="8" y="-296.5" font-family="Helvetica,sans-Serif" font-size="10.00">/Documentation/master/kratos</text>
<text text-anchor="start" x="8" y="-285.5" font-family="Helvetica,sans-Serif" font-size="10.00">/processes/calculate_distance</text>
<text text-anchor="middle" x="93.5" y="-274.5" font-family="Helvetica,sans-Serif" font-size="10.00">_to_skin_process.cpp</text>
</a>
</g>
</g>
<!-- Node1&#45;&gt;Node2 -->
<g id="edge1" class="edge">
<title>Node1&#45;&gt;Node2</title>
<path fill="none" stroke="midnightblue" d="M460.55,-365.82C387.56,-354.35 287.77,-337.75 200.5,-320 196.1,-319.11 191.61,-318.16 187.08,-317.18"/>
<polygon fill="midnightblue" stroke="midnightblue" points="460.25,-369.32 470.67,-367.41 461.33,-362.4 460.25,-369.32"/>
</g>
<!-- Node3 -->
<g id="node3" class="node">
<title>Node3</title>
<g id="a_node3"><a xlink:href="../../d2/d5e/calculate__embedded__signed__distance__to__3d__skin__process_8h.html" target="_top" xlink:title=" ">
<polygon fill="none" stroke="black" points="242.5,-267.5 242.5,-319.5 452.5,-319.5 452.5,-267.5 242.5,-267.5"/>
<text text-anchor="start" x="250.5" y="-307.5" font-family="Helvetica,sans-Serif" font-size="10.00">/home/runner/work/Documentation</text>
<text text-anchor="start" x="250.5" y="-296.5" font-family="Helvetica,sans-Serif" font-size="10.00">/Documentation/master/kratos</text>
<text text-anchor="start" x="250.5" y="-285.5" font-family="Helvetica,sans-Serif" font-size="10.00">/processes/calculate_embedded</text>
<text text-anchor="middle" x="347.5" y="-274.5" font-family="Helvetica,sans-Serif" font-size="10.00">_signed_distance_to_3d_skin_process.h</text>
</a>
</g>
</g>
<!-- Node1&#45;&gt;Node3 -->
<g id="edge2" class="edge">
<title>Node1&#45;&gt;Node3</title>
<path fill="none" stroke="midnightblue" d="M492.71,-352.72C465.93,-341.98 435.77,-329.89 409.91,-319.52"/>
<polygon fill="midnightblue" stroke="midnightblue" points="491.44,-355.98 502.03,-356.45 494.05,-349.48 491.44,-355.98"/>
</g>
<!-- Node4 -->
<g id="node4" class="node">
<title>Node4</title>
<g id="a_node4"><a xlink:href="../../d5/d1a/kratos_2python_2add__processes__to__python_8cpp.html" target="_top" xlink:title=" ">
<polygon fill="none" stroke="black" points="246,-184 246,-225 449,-225 449,-184 246,-184"/>
<text text-anchor="start" x="254" y="-213" font-family="Helvetica,sans-Serif" font-size="10.00">/home/runner/work/Documentation</text>
<text text-anchor="start" x="254" y="-202" font-family="Helvetica,sans-Serif" font-size="10.00">/Documentation/master/kratos</text>
<text text-anchor="middle" x="347.5" y="-191" font-family="Helvetica,sans-Serif" font-size="10.00">/python/add_processes_to_python.cpp</text>
</a>
</g>
</g>
<!-- Node1&#45;&gt;Node4 -->
<g id="edge6" class="edge">
<title>Node1&#45;&gt;Node4</title>
<path fill="none" stroke="midnightblue" d="M460.66,-376.34C374.65,-369.62 262.07,-354.37 233.5,-320 218.44,-301.89 221.43,-287.23 233.5,-267 244.85,-247.98 264.34,-234.49 284.03,-225.09"/>
<polygon fill="midnightblue" stroke="midnightblue" points="460.51,-379.83 470.74,-377.09 461.03,-372.85 460.51,-379.83"/>
</g>
<!-- Node5 -->
<g id="node5" class="node">
<title>Node5</title>
<g id="a_node5"><a xlink:href="../../dc/d57/calculate__signed__distance__to__3d__skin__process_8h.html" target="_top" xlink:title=" ">
<polygon fill="none" stroke="black" points="471,-267.5 471,-319.5 658,-319.5 658,-267.5 471,-267.5"/>
<text text-anchor="start" x="479" y="-307.5" font-family="Helvetica,sans-Serif" font-size="10.00">/home/runner/work/Documentation</text>
<text text-anchor="start" x="479" y="-296.5" font-family="Helvetica,sans-Serif" font-size="10.00">/Documentation/master/kratos</text>
<text text-anchor="start" x="479" y="-285.5" font-family="Helvetica,sans-Serif" font-size="10.00">/processes/calculate_signed</text>
<text text-anchor="middle" x="564.5" y="-274.5" font-family="Helvetica,sans-Serif" font-size="10.00">_distance_to_3d_skin_process.h</text>
</a>
</g>
</g>
<!-- Node1&#45;&gt;Node5 -->
<g id="edge4" class="edge">
<title>Node1&#45;&gt;Node5</title>
<path fill="none" stroke="midnightblue" d="M564.5,-346.19C564.5,-337.28 564.5,-327.9 564.5,-319.61"/>
<polygon fill="midnightblue" stroke="midnightblue" points="561,-346.34 564.5,-356.34 568,-346.34 561,-346.34"/>
</g>
<!-- Node6 -->
<g id="node6" class="node">
<title>Node6</title>
<g id="a_node6"><a xlink:href="../../da/ddd/_chimera_application_2custom__python_2add__custom__processes__to__python_8cpp.html" target="_top" xlink:title=" ">
<polygon fill="none" stroke="black" points="520,-0.5 520,-52.5 727,-52.5 727,-0.5 520,-0.5"/>
<text text-anchor="start" x="528" y="-40.5" font-family="Helvetica,sans-Serif" font-size="10.00">/home/runner/work/Documentation</text>
<text text-anchor="start" x="528" y="-29.5" font-family="Helvetica,sans-Serif" font-size="10.00">/Documentation/master/applications</text>
<text text-anchor="start" x="528" y="-18.5" font-family="Helvetica,sans-Serif" font-size="10.00">/ChimeraApplication/custom_python</text>
<text text-anchor="middle" x="623.5" y="-7.5" font-family="Helvetica,sans-Serif" font-size="10.00">/add_custom_processes_to_python.cpp</text>
</a>
</g>
</g>
<!-- Node1&#45;&gt;Node6 -->
<g id="edge7" class="edge">
<title>Node1&#45;&gt;Node6</title>
<path fill="none" stroke="midnightblue" d="M668.33,-375.4C750.43,-368.15 855.57,-352.63 882.5,-320 947.84,-240.81 946.16,-169.55 882.5,-89 881.21,-87.36 798.85,-67.98 727.36,-51.41"/>
<polygon fill="midnightblue" stroke="midnightblue" points="667.85,-371.93 658.18,-376.26 668.44,-378.9 667.85,-371.93"/>
</g>
<!-- Node7 -->
<g id="node7" class="node">
<title>Node7</title>
<g id="a_node7"><a xlink:href="../../de/d67/distance__calcuation__utility_8h.html" target="_top" xlink:title=" ">
<polygon fill="none" stroke="black" points="676,-267.5 676,-319.5 873,-319.5 873,-267.5 676,-267.5"/>
<text text-anchor="start" x="684" y="-307.5" font-family="Helvetica,sans-Serif" font-size="10.00">/home/runner/work/Documentation</text>
<text text-anchor="start" x="684" y="-296.5" font-family="Helvetica,sans-Serif" font-size="10.00">/Documentation/master/applications</text>
<text text-anchor="start" x="684" y="-285.5" font-family="Helvetica,sans-Serif" font-size="10.00">/ChimeraApplication/custom_utilities</text>
<text text-anchor="middle" x="774.5" y="-274.5" font-family="Helvetica,sans-Serif" font-size="10.00">/distance_calcuation_utility.h</text>
</a>
</g>
</g>
<!-- Node1&#45;&gt;Node7 -->
<g id="edge8" class="edge">
<title>Node1&#45;&gt;Node7</title>
<path fill="none" stroke="midnightblue" d="M634.32,-352.58C660.14,-341.88 689.18,-329.85 714.1,-319.52"/>
<polygon fill="midnightblue" stroke="midnightblue" points="632.86,-349.39 624.96,-356.45 635.54,-355.86 632.86,-349.39"/>
</g>
<!-- Node14 -->
<g id="node14" class="node">
<title>Node14</title>
<g id="a_node14"><a xlink:href="../../df/df0/define__3d__wake__process_8cpp.html" target="_top" xlink:title=" ">
<polygon fill="none" stroke="black" points="929.5,-267.5 929.5,-319.5 1183.5,-319.5 1183.5,-267.5 929.5,-267.5"/>
<text text-anchor="start" x="937.5" y="-307.5" font-family="Helvetica,sans-Serif" font-size="10.00">/home/runner/work/Documentation</text>
<text text-anchor="start" x="937.5" y="-296.5" font-family="Helvetica,sans-Serif" font-size="10.00">/Documentation/master/applications</text>
<text text-anchor="start" x="937.5" y="-285.5" font-family="Helvetica,sans-Serif" font-size="10.00">/CompressiblePotentialFlowApplication</text>
<text text-anchor="middle" x="1056.5" y="-274.5" font-family="Helvetica,sans-Serif" font-size="10.00">/custom_processes/define_3d_wake_process.cpp</text>
</a>
</g>
</g>
<!-- Node1&#45;&gt;Node14 -->
<g id="edge18" class="edge">
<title>Node1&#45;&gt;Node14</title>
<path fill="none" stroke="midnightblue" d="M668.14,-363.49C738.04,-351.31 832.34,-334.81 915.5,-320 920.03,-319.19 924.64,-318.37 929.3,-317.54"/>
<polygon fill="midnightblue" stroke="midnightblue" points="667.26,-360.09 658.01,-365.26 668.46,-366.99 667.26,-360.09"/>
</g>
<!-- Node3&#45;&gt;Node4 -->
<g id="edge3" class="edge">
<title>Node3&#45;&gt;Node4</title>
<path fill="none" stroke="midnightblue" d="M347.5,-257.16C347.5,-246.21 347.5,-234.55 347.5,-225.08"/>
<polygon fill="midnightblue" stroke="midnightblue" points="344,-257.34 347.5,-267.34 351,-257.34 344,-257.34"/>
</g>
<!-- Node5&#45;&gt;Node4 -->
<g id="edge5" class="edge">
<title>Node5&#45;&gt;Node4</title>
<path fill="none" stroke="midnightblue" d="M492.41,-263.6C460.91,-250.97 424.78,-236.48 396.47,-225.13"/>
<polygon fill="midnightblue" stroke="midnightblue" points="491.44,-266.98 502.03,-267.45 494.05,-260.48 491.44,-266.98"/>
</g>
<!-- Node8 -->
<g id="node8" class="node">
<title>Node8</title>
<g id="a_node8"><a xlink:href="../../d1/dab/apply__chimera__process_8h.html" target="_top" xlink:title=" ">
<polygon fill="none" stroke="black" points="519,-178.5 519,-230.5 728,-230.5 728,-178.5 519,-178.5"/>
<text text-anchor="start" x="527" y="-218.5" font-family="Helvetica,sans-Serif" font-size="10.00">/home/runner/work/Documentation</text>
<text text-anchor="start" x="527" y="-207.5" font-family="Helvetica,sans-Serif" font-size="10.00">/Documentation/master/applications</text>
<text text-anchor="start" x="527" y="-196.5" font-family="Helvetica,sans-Serif" font-size="10.00">/ChimeraApplication/custom_processes</text>
<text text-anchor="middle" x="623.5" y="-185.5" font-family="Helvetica,sans-Serif" font-size="10.00">/apply_chimera_process.h</text>
</a>
</g>
</g>
<!-- Node7&#45;&gt;Node8 -->
<g id="edge9" class="edge">
<title>Node7&#45;&gt;Node8</title>
<path fill="none" stroke="midnightblue" d="M721.69,-262.07C703.84,-251.79 684.13,-240.43 667.08,-230.61"/>
<polygon fill="midnightblue" stroke="midnightblue" points="720.41,-265.38 730.82,-267.34 723.91,-259.31 720.41,-265.38"/>
</g>
<!-- Node8&#45;&gt;Node6 -->
<g id="edge17" class="edge">
<title>Node8&#45;&gt;Node6</title>
<path fill="none" stroke="midnightblue" d="M623.5,-168.25C623.5,-134.04 623.5,-82.97 623.5,-52.67"/>
<polygon fill="midnightblue" stroke="midnightblue" points="620,-168.28 623.5,-178.28 627,-168.28 620,-168.28"/>
</g>
<!-- Node9 -->
<g id="node9" class="node">
<title>Node9</title>
<g id="a_node9"><a xlink:href="../../d2/d28/apply__chimera__process_8cpp.html" target="_top" xlink:title=" ">
<polygon fill="none" stroke="black" points="386,-89.5 386,-141.5 595,-141.5 595,-89.5 386,-89.5"/>
<text text-anchor="start" x="394" y="-129.5" font-family="Helvetica,sans-Serif" font-size="10.00">/home/runner/work/Documentation</text>
<text text-anchor="start" x="394" y="-118.5" font-family="Helvetica,sans-Serif" font-size="10.00">/Documentation/master/applications</text>
<text text-anchor="start" x="394" y="-107.5" font-family="Helvetica,sans-Serif" font-size="10.00">/ChimeraApplication/custom_processes</text>
<text text-anchor="middle" x="490.5" y="-96.5" font-family="Helvetica,sans-Serif" font-size="10.00">/apply_chimera_process.cpp</text>
</a>
</g>
</g>
<!-- Node8&#45;&gt;Node9 -->
<g id="edge10" class="edge">
<title>Node8&#45;&gt;Node9</title>
<path fill="none" stroke="midnightblue" d="M576.55,-172.79C560.94,-162.58 543.76,-151.34 528.88,-141.61"/>
<polygon fill="midnightblue" stroke="midnightblue" points="574.75,-175.79 585.03,-178.34 578.58,-169.93 574.75,-175.79"/>
</g>
<!-- Node10 -->
<g id="node10" class="node">
<title>Node10</title>
<g id="a_node10"><a xlink:href="../../dc/dc5/apply__chimera__process__fractional__step_8h.html" target="_top" xlink:title=" ">
<polygon fill="none" stroke="black" points="652,-89.5 652,-141.5 873,-141.5 873,-89.5 652,-89.5"/>
<text text-anchor="start" x="660" y="-129.5" font-family="Helvetica,sans-Serif" font-size="10.00">/home/runner/work/Documentation</text>
<text text-anchor="start" x="660" y="-118.5" font-family="Helvetica,sans-Serif" font-size="10.00">/Documentation/master/applications</text>
<text text-anchor="start" x="660" y="-107.5" font-family="Helvetica,sans-Serif" font-size="10.00">/ChimeraApplication/custom_processes</text>
<text text-anchor="middle" x="762.5" y="-96.5" font-family="Helvetica,sans-Serif" font-size="10.00">/apply_chimera_process_fractional_step.h</text>
</a>
</g>
</g>
<!-- Node8&#45;&gt;Node10 -->
<g id="edge11" class="edge">
<title>Node8&#45;&gt;Node10</title>
<path fill="none" stroke="midnightblue" d="M672.57,-172.79C688.88,-162.58 706.84,-151.34 722.39,-141.61"/>
<polygon fill="midnightblue" stroke="midnightblue" points="670.32,-170.06 663.7,-178.34 674.04,-176 670.32,-170.06"/>
</g>
<!-- Node12 -->
<g id="node12" class="node">
<title>Node12</title>
<g id="a_node12"><a xlink:href="../../d8/d4b/apply__chimera__process__monolithic_8h.html" target="_top" xlink:title=" ">
<polygon fill="none" stroke="black" points="159,-89.5 159,-141.5 368,-141.5 368,-89.5 159,-89.5"/>
<text text-anchor="start" x="167" y="-129.5" font-family="Helvetica,sans-Serif" font-size="10.00">/home/runner/work/Documentation</text>
<text text-anchor="start" x="167" y="-118.5" font-family="Helvetica,sans-Serif" font-size="10.00">/Documentation/master/applications</text>
<text text-anchor="start" x="167" y="-107.5" font-family="Helvetica,sans-Serif" font-size="10.00">/ChimeraApplication/custom_processes</text>
<text text-anchor="middle" x="263.5" y="-96.5" font-family="Helvetica,sans-Serif" font-size="10.00">/apply_chimera_process_monolithic.h</text>
</a>
</g>
</g>
<!-- Node8&#45;&gt;Node12 -->
<g id="edge14" class="edge">
<title>Node8&#45;&gt;Node12</title>
<path fill="none" stroke="midnightblue" d="M509.9,-176.05C464.14,-164.99 411.73,-152.32 367.04,-141.52"/>
<polygon fill="midnightblue" stroke="midnightblue" points="509.31,-179.51 519.86,-178.45 510.96,-172.7 509.31,-179.51"/>
</g>
<!-- Node10&#45;&gt;Node6 -->
<g id="edge13" class="edge">
<title>Node10&#45;&gt;Node6</title>
<path fill="none" stroke="midnightblue" d="M713.43,-83.79C697.12,-73.58 679.16,-62.34 663.61,-52.61"/>
<polygon fill="midnightblue" stroke="midnightblue" points="711.96,-87 722.3,-89.34 715.68,-81.06 711.96,-87"/>
</g>
<!-- Node11 -->
<g id="node11" class="node">
<title>Node11</title>
<g id="a_node11"><a xlink:href="../../d5/dce/apply__chimera__process__fractional__step_8cpp.html" target="_top" xlink:title=" ">
<polygon fill="none" stroke="black" points="745,-0.5 745,-52.5 978,-52.5 978,-0.5 745,-0.5"/>
<text text-anchor="start" x="753" y="-40.5" font-family="Helvetica,sans-Serif" font-size="10.00">/home/runner/work/Documentation</text>
<text text-anchor="start" x="753" y="-29.5" font-family="Helvetica,sans-Serif" font-size="10.00">/Documentation/master/applications</text>
<text text-anchor="start" x="753" y="-18.5" font-family="Helvetica,sans-Serif" font-size="10.00">/ChimeraApplication/custom_processes</text>
<text text-anchor="middle" x="861.5" y="-7.5" font-family="Helvetica,sans-Serif" font-size="10.00">/apply_chimera_process_fractional_step.cpp</text>
</a>
</g>
</g>
<!-- Node10&#45;&gt;Node11 -->
<g id="edge12" class="edge">
<title>Node10&#45;&gt;Node11</title>
<path fill="none" stroke="midnightblue" d="M798.74,-82.65C810.01,-72.75 822.26,-61.98 832.93,-52.61"/>
<polygon fill="midnightblue" stroke="midnightblue" points="796.34,-80.11 791.13,-89.34 800.96,-85.36 796.34,-80.11"/>
</g>
<!-- Node12&#45;&gt;Node6 -->
<g id="edge16" class="edge">
<title>Node12&#45;&gt;Node6</title>
<path fill="none" stroke="midnightblue" d="M377.1,-87.05C422.86,-75.99 475.27,-63.32 519.96,-52.52"/>
<polygon fill="midnightblue" stroke="midnightblue" points="376.04,-83.7 367.14,-89.45 377.69,-90.51 376.04,-83.7"/>
</g>
<!-- Node13 -->
<g id="node13" class="node">
<title>Node13</title>
<g id="a_node13"><a xlink:href="../../d6/d70/apply__chimera__process__monolithic_8cpp.html" target="_top" xlink:title=" ">
<polygon fill="none" stroke="black" points="157.5,-0.5 157.5,-52.5 369.5,-52.5 369.5,-0.5 157.5,-0.5"/>
<text text-anchor="start" x="165.5" y="-40.5" font-family="Helvetica,sans-Serif" font-size="10.00">/home/runner/work/Documentation</text>
<text text-anchor="start" x="165.5" y="-29.5" font-family="Helvetica,sans-Serif" font-size="10.00">/Documentation/master/applications</text>
<text text-anchor="start" x="165.5" y="-18.5" font-family="Helvetica,sans-Serif" font-size="10.00">/ChimeraApplication/custom_processes</text>
<text text-anchor="middle" x="263.5" y="-7.5" font-family="Helvetica,sans-Serif" font-size="10.00">/apply_chimera_process_monolithic.cpp</text>
</a>
</g>
</g>
<!-- Node12&#45;&gt;Node13 -->
<g id="edge15" class="edge">
<title>Node12&#45;&gt;Node13</title>
<path fill="none" stroke="midnightblue" d="M263.5,-79.19C263.5,-70.28 263.5,-60.9 263.5,-52.61"/>
<polygon fill="midnightblue" stroke="midnightblue" points="260,-79.34 263.5,-89.34 267,-79.34 260,-79.34"/>
</g>
</g>
</svg>
