<?xml version="1.0" encoding="UTF-8" standalone="no"?>
<!DOCTYPE svg PUBLIC "-//W3C//DTD SVG 1.1//EN"
 "http://www.w3.org/Graphics/SVG/1.1/DTD/svg11.dtd">
<!-- Generated by graphviz version 2.43.0 (0)
 -->
<!-- Title: /home/runner/work/Documentation/Documentation/master/kratos/includes/fsi_variables.h Pages: 1 -->
<!--zoomable 317 -->
<svg id="main" version="1.1" xmlns="http://www.w3.org/2000/svg" xmlns:xlink="http://www.w3.org/1999/xlink" xml:space="preserve" onload="init(evt)">
<style type="text/css"><![CDATA[
.edge:hover path { stroke: red; }
.edge:hover polygon { stroke: red; fill: red; }
]]></style>
<script type="text/javascript"><![CDATA[
var edges = document.getElementsByTagName('g');
if (edges && edges.length) {
  for (var i=0;i<edges.length;i++) {
    if (edges[i].id.substr(0,4)=='edge') {
      edges[i].setAttribute('class','edge');
    }
  }
}
]]></script>
        <defs>
                <circle id="rim" cx="0" cy="0" r="7"/>
                <circle id="rim2" cx="0" cy="0" r="3.5"/>
                <g id="zoomPlus">
                        <use xlink:href="#rim" fill="#404040">
                                <set attributeName="fill" to="#808080" begin="zoomplus.mouseover" end="zoomplus.mouseout"/>
                        </use>
                        <path d="M-4,0h8M0,-4v8" fill="none" stroke="white" stroke-width="1.5" pointer-events="none"/>
                </g>
                <g id="zoomMin">
                        <use xlink:href="#rim" fill="#404040">
                                <set attributeName="fill" to="#808080" begin="zoomminus.mouseover" end="zoomminus.mouseout"/>
                        </use>
                        <path d="M-4,0h8" fill="none" stroke="white" stroke-width="1.5" pointer-events="none"/>
                </g>
                <g id="dirArrow">
                        <path fill="none" stroke="white" stroke-width="1.5" d="M0,-3.0v7 M-2.5,-0.5L0,-3.0L2.5,-0.5"/>
                </g>
               <g id="resetDef">
                       <use xlink:href="#rim2" fill="#404040">
                               <set attributeName="fill" to="#808080" begin="reset.mouseover" end="reset.mouseout"/>
                       </use>
               </g>
        </defs>

<script type="text/javascript">
var viewWidth = 1322;
var viewHeight = 317;
var sectionId = 'dynsection-1';
</script>
<script xlink:href="../../svgpan.js"/>
<svg id="graph" class="graph">
<g id="viewport">
<title>/home/runner/work/Documentation/Documentation/master/kratos/includes/fsi_variables.h</title>
<!-- Node1 -->
<g id="node1" class="node">
<title>Node1</title>
<g id="a_node1"><a xlink:title=" ">
<polygon fill="#bfbfbf" stroke="black" points="514,-267.5 514,-308.5 701,-308.5 701,-267.5 514,-267.5"/>
<text text-anchor="start" x="522" y="-296.5" font-family="Helvetica,sans-Serif" font-size="10.00">/home/runner/work/Documentation</text>
<text text-anchor="start" x="522" y="-285.5" font-family="Helvetica,sans-Serif" font-size="10.00">/Documentation/master/kratos</text>
<text text-anchor="middle" x="607.5" y="-274.5" font-family="Helvetica,sans-Serif" font-size="10.00">/includes/fsi_variables.h</text>
</a>
</g>
</g>
<!-- Node2 -->
<g id="node2" class="node">
<title>Node2</title>
<g id="a_node2"><a xlink:href="../../d2/df2/add__fsi__variables__to__python_8cpp.html" target="_top" xlink:title=" ">
<polygon fill="none" stroke="black" points="0,-178.5 0,-230.5 187,-230.5 187,-178.5 0,-178.5"/>
<text text-anchor="start" x="8" y="-218.5" font-family="Helvetica,sans-Serif" font-size="10.00">/home/runner/work/Documentation</text>
<text text-anchor="start" x="8" y="-207.5" font-family="Helvetica,sans-Serif" font-size="10.00">/Documentation/master/kratos</text>
<text text-anchor="start" x="8" y="-196.5" font-family="Helvetica,sans-Serif" font-size="10.00">/python/add_fsi_variables_to</text>
<text text-anchor="middle" x="93.5" y="-185.5" font-family="Helvetica,sans-Serif" font-size="10.00">_python.cpp</text>
</a>
</g>
</g>
<!-- Node1&#45;&gt;Node2 -->
<g id="edge1" class="edge">
<title>Node1&#45;&gt;Node2</title>
<path fill="none" stroke="midnightblue" d="M503.74,-276.09C420.12,-266.54 299.72,-251.05 195.5,-231 192.72,-230.47 189.91,-229.9 187.07,-229.32"/>
<polygon fill="midnightblue" stroke="midnightblue" points="503.42,-279.58 513.75,-277.23 504.21,-272.63 503.42,-279.58"/>
</g>
<!-- Node3 -->
<g id="node3" class="node">
<title>Node3</title>
<g id="a_node3"><a xlink:href="../../d8/d45/fsi__variables_8cpp.html" target="_top" xlink:title=" ">
<polygon fill="none" stroke="black" points="205,-184 205,-225 392,-225 392,-184 205,-184"/>
<text text-anchor="start" x="213" y="-213" font-family="Helvetica,sans-Serif" font-size="10.00">/home/runner/work/Documentation</text>
<text text-anchor="start" x="213" y="-202" font-family="Helvetica,sans-Serif" font-size="10.00">/Documentation/master/kratos</text>
<text text-anchor="middle" x="298.5" y="-191" font-family="Helvetica,sans-Serif" font-size="10.00">/sources/fsi_variables.cpp</text>
</a>
</g>
</g>
<!-- Node1&#45;&gt;Node3 -->
<g id="edge2" class="edge">
<title>Node1&#45;&gt;Node3</title>
<path fill="none" stroke="midnightblue" d="M523.59,-264.87C476.37,-252.41 417.94,-237 372.44,-225"/>
<polygon fill="midnightblue" stroke="midnightblue" points="522.92,-268.31 533.49,-267.48 524.71,-261.54 522.92,-268.31"/>
</g>
<!-- Node4 -->
<g id="node4" class="node">
<title>Node4</title>
<g id="a_node4"><a xlink:href="../../d5/d26/variable__redistribution__utility_8cpp.html" target="_top" xlink:title=" ">
<polygon fill="none" stroke="black" points="410,-178.5 410,-230.5 597,-230.5 597,-178.5 410,-178.5"/>
<text text-anchor="start" x="418" y="-218.5" font-family="Helvetica,sans-Serif" font-size="10.00">/home/runner/work/Documentation</text>
<text text-anchor="start" x="418" y="-207.5" font-family="Helvetica,sans-Serif" font-size="10.00">/Documentation/master/kratos</text>
<text text-anchor="start" x="418" y="-196.5" font-family="Helvetica,sans-Serif" font-size="10.00">/utilities/variable_redistribution</text>
<text text-anchor="middle" x="503.5" y="-185.5" font-family="Helvetica,sans-Serif" font-size="10.00">_utility.cpp</text>
</a>
</g>
</g>
<!-- Node1&#45;&gt;Node4 -->
<g id="edge3" class="edge">
<title>Node1&#45;&gt;Node4</title>
<path fill="none" stroke="midnightblue" d="M574.69,-261.29C562.24,-251.53 548.08,-240.44 535.69,-230.73"/>
<polygon fill="midnightblue" stroke="midnightblue" points="572.56,-264.07 582.59,-267.48 576.88,-258.56 572.56,-264.07"/>
</g>
<!-- Node5 -->
<g id="node5" class="node">
<title>Node5</title>
<g id="a_node5"><a xlink:href="../../d3/d04/nodal__update__utilities_8h.html" target="_top" xlink:title=" ">
<polygon fill="none" stroke="black" points="614.5,-178.5 614.5,-230.5 808.5,-230.5 808.5,-178.5 614.5,-178.5"/>
<text text-anchor="start" x="622.5" y="-218.5" font-family="Helvetica,sans-Serif" font-size="10.00">/home/runner/work/Documentation</text>
<text text-anchor="start" x="622.5" y="-207.5" font-family="Helvetica,sans-Serif" font-size="10.00">/Documentation/master/applications</text>
<text text-anchor="start" x="622.5" y="-196.5" font-family="Helvetica,sans-Serif" font-size="10.00">/FSIApplication/custom_utilities</text>
<text text-anchor="middle" x="711.5" y="-185.5" font-family="Helvetica,sans-Serif" font-size="10.00">/nodal_update_utilities.h</text>
</a>
</g>
</g>
<!-- Node1&#45;&gt;Node5 -->
<g id="edge4" class="edge">
<title>Node1&#45;&gt;Node5</title>
<path fill="none" stroke="midnightblue" d="M640.31,-261.29C652.76,-251.53 666.92,-240.44 679.31,-230.73"/>
<polygon fill="midnightblue" stroke="midnightblue" points="638.12,-258.56 632.41,-267.48 642.44,-264.07 638.12,-258.56"/>
</g>
<!-- Node6 -->
<g id="node6" class="node">
<title>Node6</title>
<g id="a_node6"><a xlink:href="../../d9/dbf/partitioned__fsi__utilities_8hpp.html" target="_top" xlink:title=" ">
<polygon fill="none" stroke="black" points="695.5,-89.5 695.5,-141.5 889.5,-141.5 889.5,-89.5 695.5,-89.5"/>
<text text-anchor="start" x="703.5" y="-129.5" font-family="Helvetica,sans-Serif" font-size="10.00">/home/runner/work/Documentation</text>
<text text-anchor="start" x="703.5" y="-118.5" font-family="Helvetica,sans-Serif" font-size="10.00">/Documentation/master/applications</text>
<text text-anchor="start" x="703.5" y="-107.5" font-family="Helvetica,sans-Serif" font-size="10.00">/FSIApplication/custom_utilities</text>
<text text-anchor="middle" x="792.5" y="-96.5" font-family="Helvetica,sans-Serif" font-size="10.00">/partitioned_fsi_utilities.hpp</text>
</a>
</g>
</g>
<!-- Node1&#45;&gt;Node6 -->
<g id="edge5" class="edge">
<title>Node1&#45;&gt;Node6</title>
<path fill="none" stroke="midnightblue" d="M711.25,-271.46C757.11,-262.26 803.77,-248.88 817.5,-231 837.33,-205.18 822.61,-166.91 808.78,-141.84"/>
<polygon fill="midnightblue" stroke="midnightblue" points="710.33,-268.07 701.18,-273.42 711.66,-274.94 710.33,-268.07"/>
</g>
<!-- Node8 -->
<g id="node8" class="node">
<title>Node8</title>
<g id="a_node8"><a xlink:href="../../d4/dd0/fsi__application_8h.html" target="_top" xlink:title=" ">
<polygon fill="none" stroke="black" points="907.5,-184 907.5,-225 1101.5,-225 1101.5,-184 907.5,-184"/>
<text text-anchor="start" x="915.5" y="-213" font-family="Helvetica,sans-Serif" font-size="10.00">/home/runner/work/Documentation</text>
<text text-anchor="start" x="915.5" y="-202" font-family="Helvetica,sans-Serif" font-size="10.00">/Documentation/master/applications</text>
<text text-anchor="middle" x="1004.5" y="-191" font-family="Helvetica,sans-Serif" font-size="10.00">/FSIApplication/fsi_application.h</text>
</a>
</g>
</g>
<!-- Node1&#45;&gt;Node8 -->
<g id="edge7" class="edge">
<title>Node1&#45;&gt;Node8</title>
<path fill="none" stroke="midnightblue" d="M711.18,-265.72C772.54,-253.12 849.7,-237.28 909.48,-225.01"/>
<polygon fill="midnightblue" stroke="midnightblue" points="710.17,-262.35 701.08,-267.79 711.58,-269.21 710.17,-262.35"/>
</g>
<!-- Node7 -->
<g id="node7" class="node">
<title>Node7</title>
<g id="a_node7"><a xlink:href="../../d7/d9c/_f_s_i_application_2custom__python_2add__custom__utilities__to__python_8cpp.html" target="_top" xlink:title=" ">
<polygon fill="none" stroke="black" points="801.5,-0.5 801.5,-52.5 995.5,-52.5 995.5,-0.5 801.5,-0.5"/>
<text text-anchor="start" x="809.5" y="-40.5" font-family="Helvetica,sans-Serif" font-size="10.00">/home/runner/work/Documentation</text>
<text text-anchor="start" x="809.5" y="-29.5" font-family="Helvetica,sans-Serif" font-size="10.00">/Documentation/master/applications</text>
<text text-anchor="start" x="809.5" y="-18.5" font-family="Helvetica,sans-Serif" font-size="10.00">/FSIApplication/custom_python/add</text>
<text text-anchor="middle" x="898.5" y="-7.5" font-family="Helvetica,sans-Serif" font-size="10.00">_custom_utilities_to_python.cpp</text>
</a>
</g>
</g>
<!-- Node6&#45;&gt;Node7 -->
<g id="edge6" class="edge">
<title>Node6&#45;&gt;Node7</title>
<path fill="none" stroke="midnightblue" d="M830.96,-82.93C843.12,-72.96 856.38,-62.07 867.91,-52.61"/>
<polygon fill="midnightblue" stroke="midnightblue" points="828.67,-80.29 823.16,-89.34 833.11,-85.7 828.67,-80.29"/>
</g>
<!-- Node9 -->
<g id="node9" class="node">
<title>Node9</title>
<g id="a_node9"><a xlink:href="../../dd/de8/_f_s_i__utils_8h.html" target="_top" xlink:title=" ">
<polygon fill="none" stroke="black" points="907.5,-89.5 907.5,-141.5 1101.5,-141.5 1101.5,-89.5 907.5,-89.5"/>
<text text-anchor="start" x="915.5" y="-129.5" font-family="Helvetica,sans-Serif" font-size="10.00">/home/runner/work/Documentation</text>
<text text-anchor="start" x="915.5" y="-118.5" font-family="Helvetica,sans-Serif" font-size="10.00">/Documentation/master/applications</text>
<text text-anchor="start" x="915.5" y="-107.5" font-family="Helvetica,sans-Serif" font-size="10.00">/FSIApplication/custom_utilities</text>
<text text-anchor="middle" x="1004.5" y="-96.5" font-family="Helvetica,sans-Serif" font-size="10.00">/FSI_utils.h</text>
</a>
</g>
</g>
<!-- Node8&#45;&gt;Node9 -->
<g id="edge8" class="edge">
<title>Node8&#45;&gt;Node9</title>
<path fill="none" stroke="midnightblue" d="M1004.5,-173.51C1004.5,-163.17 1004.5,-151.71 1004.5,-141.79"/>
<polygon fill="midnightblue" stroke="midnightblue" points="1001,-173.76 1004.5,-183.76 1008,-173.76 1001,-173.76"/>
</g>
<!-- Node10 -->
<g id="node10" class="node">
<title>Node10</title>
<g id="a_node10"><a xlink:href="../../d4/da2/fsi__application_8cpp.html" target="_top" xlink:title=" ">
<polygon fill="none" stroke="black" points="1119.5,-95 1119.5,-136 1313.5,-136 1313.5,-95 1119.5,-95"/>
<text text-anchor="start" x="1127.5" y="-124" font-family="Helvetica,sans-Serif" font-size="10.00">/home/runner/work/Documentation</text>
<text text-anchor="start" x="1127.5" y="-113" font-family="Helvetica,sans-Serif" font-size="10.00">/Documentation/master/applications</text>
<text text-anchor="middle" x="1216.5" y="-102" font-family="Helvetica,sans-Serif" font-size="10.00">/FSIApplication/fsi_application.cpp</text>
</a>
</g>
</g>
<!-- Node8&#45;&gt;Node10 -->
<g id="edge10" class="edge">
<title>Node8&#45;&gt;Node10</title>
<path fill="none" stroke="midnightblue" d="M1061.73,-180.01C1095.22,-166.27 1137,-149.12 1168.72,-136.11"/>
<polygon fill="midnightblue" stroke="midnightblue" points="1060,-176.94 1052.08,-183.98 1062.66,-183.42 1060,-176.94"/>
</g>
<!-- Node9&#45;&gt;Node7 -->
<g id="edge9" class="edge">
<title>Node9&#45;&gt;Node7</title>
<path fill="none" stroke="midnightblue" d="M966.04,-82.93C953.88,-72.96 940.62,-62.07 929.09,-52.61"/>
<polygon fill="midnightblue" stroke="midnightblue" points="963.89,-85.7 973.84,-89.34 968.33,-80.29 963.89,-85.7"/>
</g>
</g>
</svg>
        <g id="navigator" transform="translate(0 0)" fill="#404254">
                <rect fill="#f2f5e9" fill-opacity="0.5" stroke="#606060" stroke-width=".5" x="0" y="0" width="60" height="60"/>
                <use id="zoomplus" xlink:href="#zoomPlus" x="17" y="9" onmousedown="handleZoom(evt,'in')"/>
                <use id="zoomminus" xlink:href="#zoomMin" x="42" y="9" onmousedown="handleZoom(evt,'out')"/>
                <use id="reset" xlink:href="#resetDef" x="30" y="36" onmousedown="handleReset()"/>
                <g id="arrowUp" xlink:href="#dirArrow" transform="translate(30 24)" onmousedown="handlePan(0,-1)">
                  <use xlink:href="#rim" fill="#404040">
                        <set attributeName="fill" to="#808080" begin="arrowUp.mouseover" end="arrowUp.mouseout"/>
                  </use>
                  <path fill="none" stroke="white" stroke-width="1.5" d="M0,-3.0v7 M-2.5,-0.5L0,-3.0L2.5,-0.5"/>
                </g>
                <g id="arrowRight" xlink:href="#dirArrow" transform="rotate(90) translate(36 -43)" onmousedown="handlePan(1,0)">
                  <use xlink:href="#rim" fill="#404040">
                        <set attributeName="fill" to="#808080" begin="arrowRight.mouseover" end="arrowRight.mouseout"/>
                  </use>
                  <path fill="none" stroke="white" stroke-width="1.5" d="M0,-3.0v7 M-2.5,-0.5L0,-3.0L2.5,-0.5"/>
                </g>
                <g id="arrowDown" xlink:href="#dirArrow" transform="rotate(180) translate(-30 -48)" onmousedown="handlePan(0,1)">
                  <use xlink:href="#rim" fill="#404040">
                        <set attributeName="fill" to="#808080" begin="arrowDown.mouseover" end="arrowDown.mouseout"/>
                  </use>
                  <path fill="none" stroke="white" stroke-width="1.5" d="M0,-3.0v7 M-2.5,-0.5L0,-3.0L2.5,-0.5"/>
                </g>
                <g id="arrowLeft" xlink:href="#dirArrow" transform="rotate(270) translate(-36 17)" onmousedown="handlePan(-1,0)">
                  <use xlink:href="#rim" fill="#404040">
                        <set attributeName="fill" to="#808080" begin="arrowLeft.mouseover" end="arrowLeft.mouseout"/>
                  </use>
                  <path fill="none" stroke="white" stroke-width="1.5" d="M0,-3.0v7 M-2.5,-0.5L0,-3.0L2.5,-0.5"/>
                </g>
        </g>
        <svg viewBox="0 0 15 15" width="100%" height="30px" preserveAspectRatio="xMaxYMin meet">
         <g id="arrow_out" transform="scale(0.3 0.3)">
          <a xlink:href="fsi__variables_8h__dep__incl_org.svg" target="_base">
           <rect id="button" ry="5" rx="5" y="6" x="6" height="38" width="38"
                fill="#f2f5e9" fill-opacity="0.5" stroke="#606060" stroke-width="1.0"/>
           <path id="arrow"
             d="M 11.500037,31.436501 C 11.940474,20.09759 22.043105,11.32322 32.158766,21.979434 L 37.068811,17.246167 C 37.068811,17.246167 37.088388,32 37.088388,32 L 22.160133,31.978069 C 22.160133,31.978069 26.997745,27.140456 26.997745,27.140456 C 18.528582,18.264221 13.291696,25.230495 11.500037,31.436501 z"
             style="fill:#404040;"/>
          </a>
         </g>
        </svg>
</svg>
