<?xml version="1.0" encoding="UTF-8" standalone="no"?>
<!DOCTYPE svg PUBLIC "-//W3C//DTD SVG 1.1//EN"
 "http://www.w3.org/Graphics/SVG/1.1/DTD/svg11.dtd">
<!-- Generated by graphviz version 2.43.0 (0)
 -->
<!-- Title: utils.io.bcolors Pages: 1 -->
<svg width="118pt" height="259pt"
 viewBox="0.00 0.00 118.00 259.00" xmlns="http://www.w3.org/2000/svg" xmlns:xlink="http://www.w3.org/1999/xlink">
<g id="graph0" class="graph" transform="scale(1 1) rotate(0) translate(4 255)">
<title>utils.io.bcolors</title>
<!-- Node1 -->
<g id="node1" class="node">
<title>Node1</title>
<g id="a_node1"><a xlink:title=" ">
<polygon fill="#bfbfbf" stroke="black" points="0,-0.5 0,-57.5 88,-57.5 88,-0.5 0,-0.5"/>
<text text-anchor="middle" x="44" y="-45.5" font-family="Helvetica,sans-Serif" font-size="10.00">utils.io.bcolors</text>
<polyline fill="none" stroke="black" points="0,-38.5 88,-38.5 "/>
<text text-anchor="middle" x="44" y="-26.5" font-family="Helvetica,sans-Serif" font-size="10.00"> </text>
<polyline fill="none" stroke="black" points="0,-19.5 88,-19.5 "/>
<text text-anchor="middle" x="44" y="-7.5" font-family="Helvetica,sans-Serif" font-size="10.00"> </text>
</a>
</g>
</g>
<!-- Node2 -->
<g id="node2" class="node">
<title>Node2</title>
<g id="a_node2"><a xlink:title=" ">
<polygon fill="none" stroke="#bfbfbf" points="22,-193.5 22,-250.5 66,-250.5 66,-193.5 22,-193.5"/>
<text text-anchor="middle" x="44" y="-238.5" font-family="Helvetica,sans-Serif" font-size="10.00">string</text>
<polyline fill="none" stroke="#bfbfbf" points="22,-231.5 66,-231.5 "/>
<text text-anchor="middle" x="44" y="-219.5" font-family="Helvetica,sans-Serif" font-size="10.00"> </text>
<polyline fill="none" stroke="#bfbfbf" points="22,-212.5 66,-212.5 "/>
<text text-anchor="middle" x="44" y="-200.5" font-family="Helvetica,sans-Serif" font-size="10.00"> </text>
</a>
</g>
</g>
<!-- Node2&#45;&gt;Node1 -->
<g id="edge1" class="edge">
<title>Node2&#45;&gt;Node1</title>
<path fill="none" stroke="#404040" d="M44,-193.23C44,-160.83 44,-107.02 44,-70.1"/>
<polygon fill="none" stroke="#404040" points="44,-69.81 40,-63.81 44,-57.81 48,-63.81 44,-69.81"/>
<text text-anchor="middle" x="77" y="-167" font-family="Helvetica,sans-Serif" font-size="10.00"> +BOLD</text>
<text text-anchor="middle" x="77" y="-156" font-family="Helvetica,sans-Serif" font-size="10.00">+CYAN</text>
<text text-anchor="middle" x="77" y="-145" font-family="Helvetica,sans-Serif" font-size="10.00">+ENDC</text>
<text text-anchor="middle" x="77" y="-134" font-family="Helvetica,sans-Serif" font-size="10.00">+FAIL</text>
<text text-anchor="middle" x="77" y="-123" font-family="Helvetica,sans-Serif" font-size="10.00">+HEADER</text>
<text text-anchor="middle" x="77" y="-112" font-family="Helvetica,sans-Serif" font-size="10.00">+OKBLUE</text>
<text text-anchor="middle" x="77" y="-101" font-family="Helvetica,sans-Serif" font-size="10.00">+OKGREEN</text>
<text text-anchor="middle" x="77" y="-90" font-family="Helvetica,sans-Serif" font-size="10.00">+UNDERLINE</text>
<text text-anchor="middle" x="77" y="-79" font-family="Helvetica,sans-Serif" font-size="10.00">+WARNING</text>
</g>
</g>
</svg>
