<?xml version="1.0" encoding="UTF-8" standalone="no"?>
<!DOCTYPE svg PUBLIC "-//W3C//DTD SVG 1.1//EN"
 "http://www.w3.org/Graphics/SVG/1.1/DTD/svg11.dtd">
<!-- Generated by graphviz version 2.43.0 (0)
 -->
<!-- Title: /home/runner/work/Documentation/Documentation/master/kratos/utilities/mortar_utilities.cpp Pages: 1 -->
<svg width="3393pt" height="956pt"
 viewBox="0.00 0.00 3392.61 956.00" xmlns="http://www.w3.org/2000/svg" xmlns:xlink="http://www.w3.org/1999/xlink">
<g id="graph0" class="graph" transform="scale(1 1) rotate(0) translate(4 952)">
<title>/home/runner/work/Documentation/Documentation/master/kratos/utilities/mortar_utilities.cpp</title>
<!-- Node1 -->
<g id="node1" class="node">
<title>Node1</title>
<g id="a_node1"><a xlink:title=" ">
<polygon fill="#bfbfbf" stroke="black" points="2156.11,-906.5 2156.11,-947.5 2343.11,-947.5 2343.11,-906.5 2156.11,-906.5"/>
<text text-anchor="start" x="2164.11" y="-935.5" font-family="Helvetica,sans-Serif" font-size="10.00">/home/runner/work/Documentation</text>
<text text-anchor="start" x="2164.11" y="-924.5" font-family="Helvetica,sans-Serif" font-size="10.00">/Documentation/master/kratos</text>
<text text-anchor="middle" x="2249.61" y="-913.5" font-family="Helvetica,sans-Serif" font-size="10.00">/utilities/mortar_utilities.cpp</text>
</a>
</g>
</g>
<!-- Node2 -->
<g id="node2" class="node">
<title>Node2</title>
<g id="a_node2"><a xlink:href="../../dd/dfe/model__part_8h.html" target="_top" xlink:title=" ">
<polygon fill="none" stroke="black" points="1558.11,-716.5 1558.11,-735.5 1683.11,-735.5 1683.11,-716.5 1558.11,-716.5"/>
<text text-anchor="middle" x="1620.61" y="-723.5" font-family="Helvetica,sans-Serif" font-size="10.00">includes/model_part.h</text>
</a>
</g>
</g>
<!-- Node1&#45;&gt;Node2 -->
<g id="edge1" class="edge">
<title>Node1&#45;&gt;Node2</title>
<path fill="none" stroke="midnightblue" d="M2172.69,-906.47C2085.6,-883.82 1939.8,-844.28 1816.61,-803 1756.73,-782.93 1688.25,-755.27 1650.15,-739.45"/>
<polygon fill="midnightblue" stroke="midnightblue" points="1651.27,-736.12 1640.7,-735.51 1648.58,-742.59 1651.27,-736.12"/>
</g>
<!-- Node96 -->
<g id="node22" class="node">
<title>Node96</title>
<g id="a_node22"><a xlink:href="../../d8/d88/math__utils_8h.html" target="_top" xlink:title=" ">
<polygon fill="none" stroke="black" points="1771.11,-286 1771.11,-305 1888.11,-305 1888.11,-286 1771.11,-286"/>
<text text-anchor="middle" x="1829.61" y="-293" font-family="Helvetica,sans-Serif" font-size="10.00">utilities/math_utils.h</text>
</a>
</g>
</g>
<!-- Node1&#45;&gt;Node96 -->
<g id="edge169" class="edge">
<title>Node1&#45;&gt;Node96</title>
<path fill="none" stroke="midnightblue" d="M2249.61,-906.42C2249.61,-879.75 2249.61,-830.51 2249.61,-788.5 2249.61,-788.5 2249.61,-788.5 2249.61,-551.5 2249.61,-417.02 2150.41,-399.5 2026.61,-347 2012.67,-341.09 1929.04,-320.45 1875.32,-307.45"/>
<polygon fill="midnightblue" stroke="midnightblue" points="1875.87,-303.99 1865.33,-305.04 1874.23,-310.79 1875.87,-303.99"/>
</g>
<!-- Node132 -->
<g id="node35" class="node">
<title>Node132</title>
<g id="a_node35"><a xlink:href="../../dc/df5/mortar__utilities_8h.html" target="_top" xlink:title=" ">
<polygon fill="none" stroke="black" points="472.61,-543 472.61,-562 612.61,-562 612.61,-543 472.61,-543"/>
<text text-anchor="middle" x="542.61" y="-550" font-family="Helvetica,sans-Serif" font-size="10.00">utilities/mortar_utilities.h</text>
</a>
</g>
</g>
<!-- Node1&#45;&gt;Node132 -->
<g id="edge119" class="edge">
<title>Node1&#45;&gt;Node132</title>
<path fill="none" stroke="midnightblue" d="M2155.92,-924.87C1747.21,-919.32 140.61,-890.98 140.61,-788.5 140.61,-788.5 140.61,-788.5 140.61,-725 140.61,-586.39 345.3,-558.27 462.56,-553.54"/>
<polygon fill="midnightblue" stroke="midnightblue" points="462.72,-557.03 472.58,-553.18 462.47,-550.04 462.72,-557.03"/>
</g>
<!-- Node134 -->
<g id="node38" class="node">
<title>Node134</title>
<g id="a_node38"><a xlink:href="../../d9/db3/normal__calculation__utils_8h.html" target="_top" xlink:title=" ">
<polygon fill="none" stroke="black" points="2073.11,-839.5 2073.11,-869.5 2222.11,-869.5 2222.11,-839.5 2073.11,-839.5"/>
<text text-anchor="start" x="2081.11" y="-857.5" font-family="Helvetica,sans-Serif" font-size="10.00">utilities/normal_calculation</text>
<text text-anchor="middle" x="2147.61" y="-846.5" font-family="Helvetica,sans-Serif" font-size="10.00">_utils.h</text>
</a>
</g>
</g>
<!-- Node1&#45;&gt;Node134 -->
<g id="edge131" class="edge">
<title>Node1&#45;&gt;Node134</title>
<path fill="none" stroke="midnightblue" d="M2221.19,-906.36C2207.23,-896.71 2190.44,-885.11 2176.43,-875.42"/>
<polygon fill="midnightblue" stroke="midnightblue" points="2178.33,-872.48 2168.11,-869.67 2174.35,-878.24 2178.33,-872.48"/>
</g>
<!-- Node135 -->
<g id="node39" class="node">
<title>Node135</title>
<g id="a_node39"><a xlink:href="../../db/d8c/variable__utils_8h.html" target="_top" xlink:title=" ">
<polygon fill="none" stroke="black" points="2527.61,-772.5 2527.61,-802.5 2623.61,-802.5 2623.61,-772.5 2527.61,-772.5"/>
<text text-anchor="start" x="2535.61" y="-790.5" font-family="Helvetica,sans-Serif" font-size="10.00">utilities/variable</text>
<text text-anchor="middle" x="2575.61" y="-779.5" font-family="Helvetica,sans-Serif" font-size="10.00">_utils.h</text>
</a>
</g>
</g>
<!-- Node1&#45;&gt;Node135 -->
<g id="edge170" class="edge">
<title>Node1&#45;&gt;Node135</title>
<path fill="none" stroke="midnightblue" d="M2343.14,-907.76C2379.52,-898.86 2420.94,-886.46 2456.61,-870 2491.84,-853.74 2528.03,-827.3 2551.1,-808.96"/>
<polygon fill="midnightblue" stroke="midnightblue" points="2553.39,-811.61 2558.98,-802.61 2549,-806.16 2553.39,-811.61"/>
</g>
<!-- Node62 -->
<g id="node42" class="node">
<title>Node62</title>
<g id="a_node42"><a xlink:href="../../de/d07/parallel__utilities_8h.html" target="_top" xlink:title=" ">
<polygon fill="none" stroke="red" points="2819.11,-280.5 2819.11,-310.5 2912.11,-310.5 2912.11,-280.5 2819.11,-280.5"/>
<text text-anchor="start" x="2827.11" y="-298.5" font-family="Helvetica,sans-Serif" font-size="10.00">utilities/parallel</text>
<text text-anchor="middle" x="2865.61" y="-287.5" font-family="Helvetica,sans-Serif" font-size="10.00">_utilities.h</text>
</a>
</g>
</g>
<!-- Node1&#45;&gt;Node62 -->
<g id="edge171" class="edge">
<title>Node1&#45;&gt;Node62</title>
<path fill="none" stroke="midnightblue" d="M2343.32,-924.36C2515.92,-918.78 2866.61,-894.4 2866.61,-788.5 2866.61,-788.5 2866.61,-788.5 2866.61,-428.5 2866.61,-391 2866.2,-347.51 2865.9,-321.01"/>
<polygon fill="midnightblue" stroke="midnightblue" points="2869.4,-320.72 2865.79,-310.76 2862.4,-320.8 2869.4,-320.72"/>
</g>
<!-- Node137 -->
<g id="node48" class="node">
<title>Node137</title>
<g id="a_node48"><a xlink:href="../../da/d3c/atomic__utilities_8h.html" target="_top" xlink:title=" ">
<polygon fill="none" stroke="red" points="2411.11,-286 2411.11,-305 2552.11,-305 2552.11,-286 2411.11,-286"/>
<text text-anchor="middle" x="2481.61" y="-293" font-family="Helvetica,sans-Serif" font-size="10.00">utilities/atomic_utilities.h</text>
</a>
</g>
</g>
<!-- Node1&#45;&gt;Node137 -->
<g id="edge172" class="edge">
<title>Node1&#45;&gt;Node137</title>
<path fill="none" stroke="midnightblue" d="M2321.75,-906.44C2376.57,-886.69 2442.61,-850.11 2442.61,-788.5 2442.61,-788.5 2442.61,-788.5 2442.61,-669 2442.61,-588.54 2480.61,-572.46 2480.61,-492 2480.61,-492 2480.61,-492 2480.61,-428.5 2480.61,-388.16 2481.08,-340.88 2481.38,-315.28"/>
<polygon fill="midnightblue" stroke="midnightblue" points="2484.88,-315.19 2481.5,-305.15 2477.88,-315.11 2484.88,-315.19"/>
</g>
<!-- Node3 -->
<g id="node3" class="node">
<title>Node3</title>
<g id="a_node3"><a xlink:title=" ">
<polygon fill="none" stroke="#bfbfbf" points="334.61,-56.5 334.61,-75.5 378.61,-75.5 378.61,-56.5 334.61,-56.5"/>
<text text-anchor="middle" x="356.61" y="-63.5" font-family="Helvetica,sans-Serif" font-size="10.00">string</text>
</a>
</g>
</g>
<!-- Node2&#45;&gt;Node3 -->
<g id="edge2" class="edge">
<title>Node2&#45;&gt;Node3</title>
<path fill="none" stroke="midnightblue" d="M1557.73,-724.22C1295.75,-720.81 301.79,-706.2 240.61,-680 1.4,-577.57 -84.16,-297.22 98.61,-112 129.63,-80.56 262.13,-70.93 324.24,-68.1"/>
<polygon fill="midnightblue" stroke="midnightblue" points="324.44,-71.6 334.28,-67.68 324.14,-64.61 324.44,-71.6"/>
</g>
<!-- Node4 -->
<g id="node4" class="node">
<title>Node4</title>
<g id="a_node4"><a xlink:title=" ">
<polygon fill="none" stroke="#bfbfbf" points="1156.61,-56.5 1156.61,-75.5 1216.61,-75.5 1216.61,-56.5 1156.61,-56.5"/>
<text text-anchor="middle" x="1186.61" y="-63.5" font-family="Helvetica,sans-Serif" font-size="10.00">iostream</text>
</a>
</g>
</g>
<!-- Node2&#45;&gt;Node4 -->
<g id="edge3" class="edge">
<title>Node2&#45;&gt;Node4</title>
<path fill="none" stroke="midnightblue" d="M1558.06,-723.8C1304.53,-718.83 365.66,-699.14 341.61,-680 161.79,-536.92 242.04,-320.87 413.61,-168 460.88,-125.88 483.06,-126.86 544.61,-112 659.77,-84.19 1024.7,-71.57 1146.55,-68.06"/>
<polygon fill="midnightblue" stroke="midnightblue" points="1146.68,-71.56 1156.58,-67.78 1146.48,-64.56 1146.68,-71.56"/>
</g>
<!-- Node5 -->
<g id="node5" class="node">
<title>Node5</title>
<g id="a_node5"><a xlink:title=" ">
<polygon fill="none" stroke="#bfbfbf" points="2297.61,-0.5 2297.61,-19.5 2353.61,-19.5 2353.61,-0.5 2297.61,-0.5"/>
<text text-anchor="middle" x="2325.61" y="-7.5" font-family="Helvetica,sans-Serif" font-size="10.00">sstream</text>
</a>
</g>
</g>
<!-- Node2&#45;&gt;Node5 -->
<g id="edge4" class="edge">
<title>Node2&#45;&gt;Node5</title>
<path fill="none" stroke="midnightblue" d="M1683.48,-724.03C1779.67,-721.52 1968.73,-712.47 2125.61,-680 2420.47,-618.97 3384.61,-480.12 3384.61,-179 3384.61,-179 3384.61,-179 3384.61,-121 3384.61,-65.74 3331.42,-72.26 3278.61,-56 3190.27,-28.81 2531.46,-14.82 2364.15,-11.69"/>
<polygon fill="midnightblue" stroke="midnightblue" points="2364.14,-8.19 2354.08,-11.5 2364.01,-15.19 2364.14,-8.19"/>
</g>
<!-- Node6 -->
<g id="node6" class="node">
<title>Node6</title>
<g id="a_node6"><a xlink:title=" ">
<polygon fill="none" stroke="#bfbfbf" points="1463.11,-224.5 1463.11,-243.5 1516.11,-243.5 1516.11,-224.5 1463.11,-224.5"/>
<text text-anchor="middle" x="1489.61" y="-231.5" font-family="Helvetica,sans-Serif" font-size="10.00">cstddef</text>
</a>
</g>
</g>
<!-- Node2&#45;&gt;Node6 -->
<g id="edge5" class="edge">
<title>Node2&#45;&gt;Node6</title>
<path fill="none" stroke="midnightblue" d="M1613.79,-716.46C1600.33,-698.69 1571.61,-655.98 1571.61,-615 1571.61,-615 1571.61,-615 1571.61,-490 1571.61,-405.21 1529.07,-392.48 1505.61,-311 1500.02,-291.61 1495.5,-268.91 1492.71,-253.4"/>
<polygon fill="midnightblue" stroke="midnightblue" points="1496.15,-252.78 1490.99,-243.53 1489.25,-253.99 1496.15,-252.78"/>
</g>
<!-- Node7 -->
<g id="node7" class="node">
<title>Node7</title>
<g id="a_node7"><a xlink:href="../../df/d67/define_8h.html" target="_top" xlink:title=" ">
<polygon fill="none" stroke="red" points="1958.11,-56.5 1958.11,-75.5 2057.11,-75.5 2057.11,-56.5 1958.11,-56.5"/>
<text text-anchor="middle" x="2007.61" y="-63.5" font-family="Helvetica,sans-Serif" font-size="10.00">includes/define.h</text>
</a>
</g>
</g>
<!-- Node2&#45;&gt;Node7 -->
<g id="edge6" class="edge">
<title>Node2&#45;&gt;Node7</title>
<path fill="none" stroke="midnightblue" d="M1683.17,-725.31C1795.64,-724.86 2026.68,-719.04 2095.61,-680 2292.81,-568.31 2344.61,-461.63 2344.61,-235 2344.61,-235 2344.61,-235 2344.61,-177 2344.61,-137.68 2319.24,-130.61 2284.61,-112 2248,-92.32 2137.16,-78.89 2067.29,-72.11"/>
<polygon fill="midnightblue" stroke="midnightblue" points="2067.57,-68.62 2057.29,-71.16 2066.91,-75.59 2067.57,-68.62"/>
</g>
<!-- Node18 -->
<g id="node8" class="node">
<title>Node18</title>
<g id="a_node8"><a xlink:href="../../dd/d5f/serializer_8h.html" target="_top" xlink:title=" ">
<polygon fill="none" stroke="red" points="739.11,-224.5 739.11,-243.5 852.11,-243.5 852.11,-224.5 739.11,-224.5"/>
<text text-anchor="middle" x="795.61" y="-231.5" font-family="Helvetica,sans-Serif" font-size="10.00">includes/serializer.h</text>
</a>
</g>
</g>
<!-- Node2&#45;&gt;Node18 -->
<g id="edge8" class="edge">
<title>Node2&#45;&gt;Node18</title>
<path fill="none" stroke="midnightblue" d="M1557.82,-724.44C1358.58,-722.35 742.21,-713.29 545.61,-680 447.18,-663.34 330.61,-714.83 330.61,-615 330.61,-615 330.61,-615 330.61,-490 330.61,-392.68 647.7,-282.2 758.18,-246.66"/>
<polygon fill="midnightblue" stroke="midnightblue" points="759.45,-249.93 767.91,-243.55 757.32,-243.26 759.45,-249.93"/>
</g>
<!-- Node25 -->
<g id="node10" class="node">
<title>Node25</title>
<g id="a_node10"><a xlink:href="../../d1/d8c/logger_8h.html" target="_top" xlink:title=" ">
<polygon fill="none" stroke="red" points="422.61,-168.5 422.61,-187.5 542.61,-187.5 542.61,-168.5 422.61,-168.5"/>
<text text-anchor="middle" x="482.61" y="-175.5" font-family="Helvetica,sans-Serif" font-size="10.00">input_output/logger.h</text>
</a>
</g>
</g>
<!-- Node2&#45;&gt;Node25 -->
<g id="edge114" class="edge">
<title>Node2&#45;&gt;Node25</title>
<path fill="none" stroke="midnightblue" d="M1558.07,-724.36C1300.97,-721.56 336.29,-709.13 278.61,-680 214.64,-647.69 178.61,-625.17 178.61,-553.5 178.61,-553.5 178.61,-553.5 178.61,-490 178.61,-333.96 376.72,-227.18 453.08,-191.82"/>
<polygon fill="midnightblue" stroke="midnightblue" points="454.54,-195 462.19,-187.67 451.64,-188.63 454.54,-195"/>
</g>
<!-- Node56 -->
<g id="node14" class="node">
<title>Node56</title>
<g id="a_node14"><a xlink:href="../../de/db8/process__info_8h.html" target="_top" xlink:title=" ">
<polygon fill="none" stroke="red" points="1752.11,-481.5 1752.11,-500.5 1883.11,-500.5 1883.11,-481.5 1752.11,-481.5"/>
<text text-anchor="middle" x="1817.61" y="-488.5" font-family="Helvetica,sans-Serif" font-size="10.00">includes/process_info.h</text>
</a>
</g>
</g>
<!-- Node2&#45;&gt;Node56 -->
<g id="edge26" class="edge">
<title>Node2&#45;&gt;Node56</title>
<path fill="none" stroke="midnightblue" d="M1682.77,-716.47C1710.25,-710.13 1741.5,-699.11 1764.61,-680 1815.76,-637.7 1819.68,-550.17 1818.68,-511.31"/>
<polygon fill="midnightblue" stroke="midnightblue" points="1822.16,-510.77 1818.26,-500.92 1815.17,-511.05 1822.16,-510.77"/>
</g>
<!-- Node57 -->
<g id="node15" class="node">
<title>Node57</title>
<g id="a_node15"><a xlink:href="../../d1/d82/data__value__container_8h.html" target="_top" xlink:title=" ">
<polygon fill="none" stroke="red" points="1304.11,-414.5 1304.11,-444.5 1429.11,-444.5 1429.11,-414.5 1304.11,-414.5"/>
<text text-anchor="start" x="1312.11" y="-432.5" font-family="Helvetica,sans-Serif" font-size="10.00">containers/data_value</text>
<text text-anchor="middle" x="1366.61" y="-421.5" font-family="Helvetica,sans-Serif" font-size="10.00">_container.h</text>
</a>
</g>
</g>
<!-- Node2&#45;&gt;Node57 -->
<g id="edge48" class="edge">
<title>Node2&#45;&gt;Node57</title>
<path fill="none" stroke="midnightblue" d="M1557.75,-722.39C1451.42,-717.32 1245.44,-704.45 1223.61,-680 1181.27,-632.6 1196.69,-594.57 1223.61,-537 1243.08,-495.35 1288.1,-466.18 1322.46,-449.03"/>
<polygon fill="midnightblue" stroke="midnightblue" points="1324.35,-452 1331.84,-444.51 1321.31,-445.69 1324.35,-452"/>
</g>
<!-- Node58 -->
<g id="node17" class="node">
<title>Node58</title>
<g id="a_node17"><a xlink:href="../../da/d89/variable_8h.html" target="_top" xlink:title=" ">
<polygon fill="none" stroke="red" points="977.11,-353 977.11,-372 1096.11,-372 1096.11,-353 977.11,-353"/>
<text text-anchor="middle" x="1036.61" y="-360" font-family="Helvetica,sans-Serif" font-size="10.00">containers/variable.h</text>
</a>
</g>
</g>
<!-- Node2&#45;&gt;Node58 -->
<g id="edge117" class="edge">
<title>Node2&#45;&gt;Node58</title>
<path fill="none" stroke="midnightblue" d="M1557.98,-723.67C1475.71,-720.69 1327.32,-711.06 1204.61,-680 1130.6,-661.27 1045.61,-691.34 1045.61,-615 1045.61,-615 1045.61,-615 1045.61,-551.5 1045.61,-490.39 1050.99,-474.87 1045.61,-414 1044.66,-403.29 1042.6,-391.45 1040.7,-381.92"/>
<polygon fill="midnightblue" stroke="midnightblue" points="1044.09,-381.07 1038.6,-372.02 1037.25,-382.52 1044.09,-381.07"/>
</g>
<!-- Node73 -->
<g id="node18" class="node">
<title>Node73</title>
<g id="a_node18"><a xlink:href="../../d3/dc3/variable__data_8h.html" target="_top" xlink:title=" ">
<polygon fill="none" stroke="red" points="928.61,-286 928.61,-305 1020.61,-305 1020.61,-286 928.61,-286"/>
<text text-anchor="middle" x="974.61" y="-293" font-family="Helvetica,sans-Serif" font-size="10.00">variable_data.h</text>
</a>
</g>
</g>
<!-- Node2&#45;&gt;Node73 -->
<g id="edge118" class="edge">
<title>Node2&#45;&gt;Node73</title>
<path fill="none" stroke="midnightblue" d="M1557.93,-725.66C1453.91,-725.48 1239.63,-719.72 1063.61,-680 984.3,-662.1 892.61,-696.31 892.61,-615 892.61,-615 892.61,-615 892.61,-490 892.61,-419.93 938.75,-346.1 961.81,-313.58"/>
<polygon fill="midnightblue" stroke="midnightblue" points="964.85,-315.35 967.9,-305.2 959.19,-311.23 964.85,-315.35"/>
</g>
<!-- Node82 -->
<g id="node19" class="node">
<title>Node82</title>
<g id="a_node19"><a xlink:href="../../d8/d3b/mesh_8h.html" target="_top" xlink:title=" ">
<polygon fill="none" stroke="red" points="1447.61,-604.5 1447.61,-623.5 1543.61,-623.5 1543.61,-604.5 1447.61,-604.5"/>
<text text-anchor="middle" x="1495.61" y="-611.5" font-family="Helvetica,sans-Serif" font-size="10.00">includes/mesh.h</text>
</a>
</g>
</g>
<!-- Node2&#45;&gt;Node82 -->
<g id="edge49" class="edge">
<title>Node2&#45;&gt;Node82</title>
<path fill="none" stroke="midnightblue" d="M1607.03,-716.38C1593.89,-707.8 1573.65,-693.92 1557.61,-680 1540.05,-664.77 1521.92,-645.23 1509.83,-631.58"/>
<polygon fill="midnightblue" stroke="midnightblue" points="1512.36,-629.15 1503.15,-623.92 1507.09,-633.76 1512.36,-629.15"/>
</g>
<!-- Node86 -->
<g id="node20" class="node">
<title>Node86</title>
<g id="a_node20"><a xlink:href="../../d2/d58/pointer__vector__map_8h.html" target="_top" xlink:title=" ">
<polygon fill="none" stroke="red" points="1945.11,-280.5 1945.11,-310.5 2050.11,-310.5 2050.11,-280.5 1945.11,-280.5"/>
<text text-anchor="start" x="1953.11" y="-298.5" font-family="Helvetica,sans-Serif" font-size="10.00">containers/pointer</text>
<text text-anchor="middle" x="1997.61" y="-287.5" font-family="Helvetica,sans-Serif" font-size="10.00">_vector_map.h</text>
</a>
</g>
</g>
<!-- Node2&#45;&gt;Node86 -->
<g id="edge112" class="edge">
<title>Node2&#45;&gt;Node86</title>
<path fill="none" stroke="midnightblue" d="M1683.18,-723.15C1741.44,-719.55 1829.71,-709.23 1900.61,-680 1940.06,-663.74 1959.13,-661.97 1978.61,-624 2021.35,-540.69 1947.74,-506.61 1961.61,-414 1966.62,-380.55 1979.23,-343.47 1988.11,-320.08"/>
<polygon fill="midnightblue" stroke="midnightblue" points="1991.41,-321.24 1991.76,-310.65 1984.88,-318.71 1991.41,-321.24"/>
</g>
<!-- Node98 -->
<g id="node26" class="node">
<title>Node98</title>
<g id="a_node26"><a xlink:href="../../da/da4/master__slave__constraint_8h.html" target="_top" xlink:title=" ">
<polygon fill="none" stroke="red" points="1303.61,-537.5 1303.61,-567.5 1429.61,-567.5 1429.61,-537.5 1303.61,-537.5"/>
<text text-anchor="start" x="1311.61" y="-555.5" font-family="Helvetica,sans-Serif" font-size="10.00">includes/master_slave</text>
<text text-anchor="middle" x="1366.61" y="-544.5" font-family="Helvetica,sans-Serif" font-size="10.00">_constraint.h</text>
</a>
</g>
</g>
<!-- Node2&#45;&gt;Node98 -->
<g id="edge116" class="edge">
<title>Node2&#45;&gt;Node98</title>
<path fill="none" stroke="midnightblue" d="M1600.87,-716.4C1566.19,-700.79 1492.82,-665.54 1438.61,-624 1419.39,-609.28 1399.91,-589.87 1386.07,-575.15"/>
<polygon fill="midnightblue" stroke="midnightblue" points="1388.36,-572.47 1379,-567.51 1383.22,-577.23 1388.36,-572.47"/>
</g>
<!-- Node108 -->
<g id="node28" class="node">
<title>Node108</title>
<g id="a_node28"><a xlink:href="../../d0/dac/kratos__flags_8h.html" target="_top" xlink:title=" ">
<polygon fill="none" stroke="red" points="1970.61,-420 1970.61,-439 2098.61,-439 2098.61,-420 1970.61,-420"/>
<text text-anchor="middle" x="2034.61" y="-427" font-family="Helvetica,sans-Serif" font-size="10.00">includes/kratos_flags.h</text>
</a>
</g>
</g>
<!-- Node2&#45;&gt;Node108 -->
<g id="edge115" class="edge">
<title>Node2&#45;&gt;Node108</title>
<path fill="none" stroke="midnightblue" d="M1683.47,-722.42C1800.66,-717.09 2043.4,-703.35 2073.61,-680 2097.97,-661.17 2097.61,-645.8 2097.61,-615 2097.61,-615 2097.61,-615 2097.61,-551.5 2097.61,-510.1 2068.24,-468.82 2049.6,-446.8"/>
<polygon fill="midnightblue" stroke="midnightblue" points="2052.07,-444.31 2042.84,-439.1 2046.81,-448.92 2052.07,-444.31"/>
</g>
<!-- Node109 -->
<g id="node29" class="node">
<title>Node109</title>
<g id="a_node29"><a xlink:href="../../d3/dad/geometry__container_8h.html" target="_top" xlink:title=" ">
<polygon fill="none" stroke="black" points="1836.61,-347.5 1836.61,-377.5 1954.61,-377.5 1954.61,-347.5 1836.61,-347.5"/>
<text text-anchor="start" x="1844.61" y="-365.5" font-family="Helvetica,sans-Serif" font-size="10.00">containers/geometry</text>
<text text-anchor="middle" x="1895.61" y="-354.5" font-family="Helvetica,sans-Serif" font-size="10.00">_container.h</text>
</a>
</g>
</g>
<!-- Node2&#45;&gt;Node109 -->
<g id="edge86" class="edge">
<title>Node2&#45;&gt;Node109</title>
<path fill="none" stroke="midnightblue" d="M1683.2,-716.62C1774.12,-702.91 1935.13,-672.28 1964.61,-624 1977.14,-603.47 1925.01,-447.81 1904.02,-387.38"/>
<polygon fill="midnightblue" stroke="midnightblue" points="1907.2,-385.86 1900.6,-377.58 1900.59,-388.17 1907.2,-385.86"/>
</g>
<!-- Node110 -->
<g id="node30" class="node">
<title>Node110</title>
<g id="a_node30"><a xlink:href="../../da/d92/pointer__hash__map__set_8h.html" target="_top" xlink:title=" ">
<polygon fill="none" stroke="red" points="1571.11,-280.5 1571.11,-310.5 1676.11,-310.5 1676.11,-280.5 1571.11,-280.5"/>
<text text-anchor="start" x="1579.11" y="-298.5" font-family="Helvetica,sans-Serif" font-size="10.00">containers/pointer</text>
<text text-anchor="middle" x="1623.61" y="-287.5" font-family="Helvetica,sans-Serif" font-size="10.00">_hash_map_set.h</text>
</a>
</g>
</g>
<!-- Node2&#45;&gt;Node110 -->
<g id="edge113" class="edge">
<title>Node2&#45;&gt;Node110</title>
<path fill="none" stroke="midnightblue" d="M1560.19,-716.45C1482.11,-701.72 1349.65,-663.34 1294.61,-568 1242.16,-477.15 1392.83,-528.45 1438.61,-501 1517.79,-453.52 1582.66,-361.52 1609.84,-319.02"/>
<polygon fill="midnightblue" stroke="midnightblue" points="1612.84,-320.83 1615.21,-310.51 1606.92,-317.1 1612.84,-320.83"/>
</g>
<!-- Node112 -->
<g id="node31" class="node">
<title>Node112</title>
<g id="a_node31"><a xlink:href="../../d4/dfe/element_8h.html" target="_top" xlink:title=" ">
<polygon fill="none" stroke="red" points="1675.61,-604.5 1675.61,-623.5 1785.61,-623.5 1785.61,-604.5 1675.61,-604.5"/>
<text text-anchor="middle" x="1730.61" y="-611.5" font-family="Helvetica,sans-Serif" font-size="10.00">includes/element.h</text>
</a>
</g>
</g>
<!-- Node2&#45;&gt;Node112 -->
<g id="edge93" class="edge">
<title>Node2&#45;&gt;Node112</title>
<path fill="none" stroke="midnightblue" d="M1683.4,-718.42C1707.89,-712.42 1733.63,-701.14 1748.61,-680 1758.62,-665.87 1751.06,-646.38 1742.89,-632.43"/>
<polygon fill="midnightblue" stroke="midnightblue" points="1745.69,-630.32 1737.34,-623.79 1739.8,-634.1 1745.69,-630.32"/>
</g>
<!-- Node130 -->
<g id="node32" class="node">
<title>Node130</title>
<g id="a_node32"><a xlink:href="../../d7/d6c/condition_8h.html" target="_top" xlink:title=" ">
<polygon fill="none" stroke="red" points="1841.61,-604.5 1841.61,-623.5 1955.61,-623.5 1955.61,-604.5 1841.61,-604.5"/>
<text text-anchor="middle" x="1898.61" y="-611.5" font-family="Helvetica,sans-Serif" font-size="10.00">includes/condition.h</text>
</a>
</g>
</g>
<!-- Node2&#45;&gt;Node130 -->
<g id="edge95" class="edge">
<title>Node2&#45;&gt;Node130</title>
<path fill="none" stroke="midnightblue" d="M1683.28,-720C1725.91,-714.59 1782.54,-703.33 1827.61,-680 1850.68,-668.05 1871.92,-646.64 1885.04,-631.67"/>
<polygon fill="midnightblue" stroke="midnightblue" points="1887.98,-633.61 1891.78,-623.72 1882.64,-629.08 1887.98,-633.61"/>
</g>
<!-- Node131 -->
<g id="node33" class="node">
<title>Node131</title>
<g id="a_node33"><a xlink:href="../../d8/d75/communicator_8h.html" target="_top" xlink:title=" ">
<polygon fill="none" stroke="black" points="1600.11,-660.5 1600.11,-679.5 1739.11,-679.5 1739.11,-660.5 1600.11,-660.5"/>
<text text-anchor="middle" x="1669.61" y="-667.5" font-family="Helvetica,sans-Serif" font-size="10.00">includes/communicator.h</text>
</a>
</g>
</g>
<!-- Node2&#45;&gt;Node131 -->
<g id="edge97" class="edge">
<title>Node2&#45;&gt;Node131</title>
<path fill="none" stroke="midnightblue" d="M1628.7,-716.08C1635.76,-708.3 1646.2,-696.8 1654.76,-687.37"/>
<polygon fill="midnightblue" stroke="midnightblue" points="1657.54,-689.51 1661.67,-679.75 1652.35,-684.8 1657.54,-689.51"/>
</g>
<!-- Node115 -->
<g id="node34" class="node">
<title>Node115</title>
<g id="a_node34"><a xlink:href="../../dd/d98/table_8h.html" target="_top" xlink:title=" ">
<polygon fill="none" stroke="black" points="569.61,-420 569.61,-439 663.61,-439 663.61,-420 569.61,-420"/>
<text text-anchor="middle" x="616.61" y="-427" font-family="Helvetica,sans-Serif" font-size="10.00">includes/table.h</text>
</a>
</g>
</g>
<!-- Node2&#45;&gt;Node115 -->
<g id="edge106" class="edge">
<title>Node2&#45;&gt;Node115</title>
<path fill="none" stroke="midnightblue" d="M1558.09,-722.82C1304.84,-713.59 368.61,-675.38 368.61,-615 368.61,-615 368.61,-615 368.61,-551.5 368.61,-467.08 486.11,-441.55 559.35,-433.83"/>
<polygon fill="midnightblue" stroke="midnightblue" points="559.76,-437.31 569.38,-432.86 559.09,-430.34 559.76,-437.31"/>
</g>
<!-- Node7&#45;&gt;Node5 -->
<g id="edge7" class="edge">
<title>Node7&#45;&gt;Node5</title>
<path fill="none" stroke="midnightblue" d="M2057.3,-56.56C2120.94,-45.76 2229.86,-27.26 2287.4,-17.49"/>
<polygon fill="midnightblue" stroke="midnightblue" points="2288.25,-20.89 2297.53,-15.77 2287.08,-13.99 2288.25,-20.89"/>
</g>
<!-- Node18&#45;&gt;Node3 -->
<g id="edge9" class="edge">
<title>Node18&#45;&gt;Node3</title>
<path fill="none" stroke="midnightblue" d="M777.42,-224.5C732.46,-203.66 612.22,-149.05 508.61,-112 467.75,-97.39 419.56,-83.71 388.57,-75.35"/>
<polygon fill="midnightblue" stroke="midnightblue" points="389.32,-71.93 378.75,-72.73 387.51,-78.69 389.32,-71.93"/>
</g>
<!-- Node18&#45;&gt;Node4 -->
<g id="edge11" class="edge">
<title>Node18&#45;&gt;Node4</title>
<path fill="none" stroke="midnightblue" d="M789.76,-224.32C781.71,-211.17 769.4,-185.85 780.61,-168 811.04,-119.51 841.95,-129.02 896.61,-112 983.16,-85.05 1089.49,-73.82 1146.29,-69.48"/>
<polygon fill="midnightblue" stroke="midnightblue" points="1146.59,-72.97 1156.31,-68.75 1146.08,-65.99 1146.59,-72.97"/>
</g>
<!-- Node18&#45;&gt;Node5 -->
<g id="edge10" class="edge">
<title>Node18&#45;&gt;Node5</title>
<path fill="none" stroke="midnightblue" d="M788.33,-224.21C778.95,-211.76 764.61,-188.24 771.61,-168 781.95,-138.09 788.39,-128.16 815.61,-112 944.26,-35.58 998.76,-71.33 1147.61,-56 1593.5,-10.07 2138.67,-9.79 2286.88,-10.67"/>
<polygon fill="midnightblue" stroke="midnightblue" points="2287.23,-14.17 2297.25,-10.74 2287.27,-7.17 2287.23,-14.17"/>
</g>
<!-- Node18&#45;&gt;Node7 -->
<g id="edge13" class="edge">
<title>Node18&#45;&gt;Node7</title>
<path fill="none" stroke="midnightblue" d="M819.73,-224.4C839.93,-216.58 869.01,-203.86 891.61,-188 930.71,-160.56 923.88,-131.23 967.61,-112 1057.24,-72.58 1740.43,-67.65 1947.99,-67.07"/>
<polygon fill="midnightblue" stroke="midnightblue" points="1948.1,-70.57 1958.09,-67.04 1948.08,-63.57 1948.1,-70.57"/>
</g>
<!-- Node23 -->
<g id="node9" class="node">
<title>Node23</title>
<g id="a_node9"><a xlink:title=" ">
<polygon fill="none" stroke="#bfbfbf" points="789.11,-168.5 789.11,-187.5 882.11,-187.5 882.11,-168.5 789.11,-168.5"/>
<text text-anchor="middle" x="835.61" y="-175.5" font-family="Helvetica,sans-Serif" font-size="10.00">unordered_map</text>
</a>
</g>
</g>
<!-- Node18&#45;&gt;Node23 -->
<g id="edge12" class="edge">
<title>Node18&#45;&gt;Node23</title>
<path fill="none" stroke="midnightblue" d="M802.21,-224.08C807.86,-216.46 816.15,-205.26 823.06,-195.94"/>
<polygon fill="midnightblue" stroke="midnightblue" points="825.99,-197.87 829.13,-187.75 820.36,-193.7 825.99,-197.87"/>
</g>
<!-- Node18&#45;&gt;Node25 -->
<g id="edge14" class="edge">
<title>Node18&#45;&gt;Node25</title>
<path fill="none" stroke="midnightblue" d="M746.01,-224.44C690.61,-214.89 600.97,-199.42 541.9,-189.23"/>
<polygon fill="midnightblue" stroke="midnightblue" points="542.42,-185.77 531.97,-187.52 541.23,-192.67 542.42,-185.77"/>
</g>
<!-- Node30 -->
<g id="node11" class="node">
<title>Node30</title>
<g id="a_node11"><a xlink:href="../../d9/d36/array__1d_8h.html" target="_top" xlink:title=" ">
<polygon fill="none" stroke="red" points="1052.61,-168.5 1052.61,-187.5 1174.61,-187.5 1174.61,-168.5 1052.61,-168.5"/>
<text text-anchor="middle" x="1113.61" y="-175.5" font-family="Helvetica,sans-Serif" font-size="10.00">containers/array_1d.h</text>
</a>
</g>
</g>
<!-- Node18&#45;&gt;Node30 -->
<g id="edge17" class="edge">
<title>Node18&#45;&gt;Node30</title>
<path fill="none" stroke="midnightblue" d="M846,-224.44C902.28,-214.89 993.36,-199.42 1053.37,-189.23"/>
<polygon fill="midnightblue" stroke="midnightblue" points="1054.18,-192.64 1063.46,-187.52 1053.01,-185.74 1054.18,-192.64"/>
</g>
<!-- Node25&#45;&gt;Node3 -->
<g id="edge15" class="edge">
<title>Node25&#45;&gt;Node3</title>
<path fill="none" stroke="midnightblue" d="M472.57,-168.15C458.36,-155.61 431.55,-132 408.61,-112 397.22,-102.07 384.38,-90.96 374.31,-82.26"/>
<polygon fill="midnightblue" stroke="midnightblue" points="376.45,-79.49 366.6,-75.6 371.88,-84.79 376.45,-79.49"/>
</g>
<!-- Node25&#45;&gt;Node4 -->
<g id="edge16" class="edge">
<title>Node25&#45;&gt;Node4</title>
<path fill="none" stroke="midnightblue" d="M493.57,-168.33C512.76,-153.71 554.24,-124.53 594.61,-112 697.95,-79.94 1029.95,-70.2 1146.06,-67.73"/>
<polygon fill="midnightblue" stroke="midnightblue" points="1146.36,-71.23 1156.29,-67.52 1146.22,-64.23 1146.36,-71.23"/>
</g>
<!-- Node30&#45;&gt;Node3 -->
<g id="edge18" class="edge">
<title>Node30&#45;&gt;Node3</title>
<path fill="none" stroke="midnightblue" d="M1054.84,-168.46C903.58,-146.48 504.63,-88.51 388.65,-71.66"/>
<polygon fill="midnightblue" stroke="midnightblue" points="389.04,-68.18 378.64,-70.2 388.03,-75.1 389.04,-68.18"/>
</g>
<!-- Node30&#45;&gt;Node4 -->
<g id="edge19" class="edge">
<title>Node30&#45;&gt;Node4</title>
<path fill="none" stroke="midnightblue" d="M1119.34,-168.37C1131.38,-150.22 1159.53,-107.8 1175.33,-83.99"/>
<polygon fill="midnightblue" stroke="midnightblue" points="1178.29,-85.86 1180.91,-75.59 1172.46,-81.99 1178.29,-85.86"/>
</g>
<!-- Node30&#45;&gt;Node7 -->
<g id="edge21" class="edge">
<title>Node30&#45;&gt;Node7</title>
<path fill="none" stroke="midnightblue" d="M1148.96,-168.5C1208.41,-154.52 1332.32,-126.78 1438.61,-112 1623.17,-86.34 1843.6,-74.1 1947.62,-69.4"/>
<polygon fill="midnightblue" stroke="midnightblue" points="1948.09,-72.89 1957.92,-68.95 1947.78,-65.89 1948.09,-72.89"/>
</g>
<!-- Node31 -->
<g id="node12" class="node">
<title>Node31</title>
<g id="a_node12"><a xlink:title=" ">
<polygon fill="none" stroke="#bfbfbf" points="1480.61,-112.5 1480.61,-131.5 1522.61,-131.5 1522.61,-112.5 1480.61,-112.5"/>
<text text-anchor="middle" x="1501.61" y="-119.5" font-family="Helvetica,sans-Serif" font-size="10.00">array</text>
</a>
</g>
</g>
<!-- Node30&#45;&gt;Node31 -->
<g id="edge20" class="edge">
<title>Node30&#45;&gt;Node31</title>
<path fill="none" stroke="midnightblue" d="M1174.66,-168.5C1258.55,-156.83 1406.36,-136.26 1470.48,-127.33"/>
<polygon fill="midnightblue" stroke="midnightblue" points="1470.96,-130.8 1480.39,-125.95 1470,-123.87 1470.96,-130.8"/>
</g>
<!-- Node34 -->
<g id="node13" class="node">
<title>Node34</title>
<g id="a_node13"><a xlink:href="../../d9/d3e/ublas__interface_8h.html" target="_top" xlink:title=" ">
<polygon fill="none" stroke="red" points="976.61,-112.5 976.61,-131.5 1120.61,-131.5 1120.61,-112.5 976.61,-112.5"/>
<text text-anchor="middle" x="1048.61" y="-119.5" font-family="Helvetica,sans-Serif" font-size="10.00">includes/ublas_interface.h</text>
</a>
</g>
</g>
<!-- Node30&#45;&gt;Node34 -->
<g id="edge22" class="edge">
<title>Node30&#45;&gt;Node34</title>
<path fill="none" stroke="midnightblue" d="M1103.16,-168.32C1093.46,-160.26 1078.79,-148.08 1067.11,-138.37"/>
<polygon fill="midnightblue" stroke="midnightblue" points="1069.17,-135.53 1059.24,-131.83 1064.7,-140.92 1069.17,-135.53"/>
</g>
<!-- Node34&#45;&gt;Node3 -->
<g id="edge23" class="edge">
<title>Node34&#45;&gt;Node3</title>
<path fill="none" stroke="midnightblue" d="M976.51,-115.37C828.08,-103.79 493.5,-77.68 388.66,-69.5"/>
<polygon fill="midnightblue" stroke="midnightblue" points="388.92,-66.01 378.68,-68.72 388.38,-72.99 388.92,-66.01"/>
</g>
<!-- Node34&#45;&gt;Node4 -->
<g id="edge24" class="edge">
<title>Node34&#45;&gt;Node4</title>
<path fill="none" stroke="midnightblue" d="M1070.47,-112.44C1093.39,-103.48 1129.58,-89.31 1155.47,-79.18"/>
<polygon fill="midnightblue" stroke="midnightblue" points="1156.81,-82.42 1164.84,-75.52 1154.26,-75.9 1156.81,-82.42"/>
</g>
<!-- Node34&#45;&gt;Node7 -->
<g id="edge25" class="edge">
<title>Node34&#45;&gt;Node7</title>
<path fill="none" stroke="midnightblue" d="M1120.69,-116.94C1302.98,-106.68 1779.81,-79.83 1947.9,-70.36"/>
<polygon fill="midnightblue" stroke="midnightblue" points="1948.26,-73.85 1958.05,-69.79 1947.87,-66.86 1948.26,-73.85"/>
</g>
<!-- Node56&#45;&gt;Node3 -->
<g id="edge27" class="edge">
<title>Node56&#45;&gt;Node3</title>
<path fill="none" stroke="midnightblue" d="M1751.73,-488.11C1497,-480.74 589.29,-453.9 560.61,-445 389.68,-391.98 297.7,-360.66 250.61,-188 246.06,-171.34 242.86,-126.27 252.61,-112 268.82,-88.26 300.41,-76.96 324.54,-71.63"/>
<polygon fill="midnightblue" stroke="midnightblue" points="325.22,-75.07 334.36,-69.7 323.87,-68.2 325.22,-75.07"/>
</g>
<!-- Node56&#45;&gt;Node4 -->
<g id="edge28" class="edge">
<title>Node56&#45;&gt;Node4</title>
<path fill="none" stroke="midnightblue" d="M1814.89,-481.36C1805.21,-451.42 1770.2,-350.13 1718.61,-280 1652.4,-190.01 1633.6,-157.6 1531.61,-112 1477.84,-87.96 1305.82,-74.44 1226.89,-69.35"/>
<polygon fill="midnightblue" stroke="midnightblue" points="1227.04,-65.86 1216.84,-68.72 1226.6,-72.84 1227.04,-65.86"/>
</g>
<!-- Node56&#45;&gt;Node5 -->
<g id="edge29" class="edge">
<title>Node56&#45;&gt;Node5</title>
<path fill="none" stroke="midnightblue" d="M1883.19,-483.01C2069.4,-463.04 2598.99,-405.45 2771.61,-378 2780.93,-376.52 3095.52,-313.54 3104.61,-311 3188.82,-287.42 3229.75,-307.75 3289.61,-244 3310.21,-222.06 3308.61,-209.1 3308.61,-179 3308.61,-179 3308.61,-179 3308.61,-121 3308.61,-24.13 2545,-12.57 2363.83,-11.19"/>
<polygon fill="midnightblue" stroke="midnightblue" points="2363.73,-7.69 2353.7,-11.12 2363.68,-14.69 2363.73,-7.69"/>
</g>
<!-- Node56&#45;&gt;Node6 -->
<g id="edge30" class="edge">
<title>Node56&#45;&gt;Node6</title>
<path fill="none" stroke="midnightblue" d="M1803.37,-481.38C1763.53,-456.98 1648.22,-384.41 1562.61,-311 1540.81,-292.31 1518.3,-267.97 1504.15,-251.94"/>
<polygon fill="midnightblue" stroke="midnightblue" points="1506.41,-249.21 1497.2,-243.97 1501.14,-253.81 1506.41,-249.21"/>
</g>
<!-- Node56&#45;&gt;Node7 -->
<g id="edge31" class="edge">
<title>Node56&#45;&gt;Node7</title>
<path fill="none" stroke="midnightblue" d="M1883.38,-486.88C1957.8,-482.15 2073.14,-470.8 2107.61,-445 2160.29,-405.56 2154.83,-374.89 2170.61,-311 2192.88,-220.8 2180.88,-167.81 2106.61,-112 2087.76,-97.83 2063.73,-86.78 2044.07,-79.17"/>
<polygon fill="midnightblue" stroke="midnightblue" points="2045.12,-75.83 2034.53,-75.61 2042.68,-82.39 2045.12,-75.83"/>
</g>
<!-- Node56&#45;&gt;Node57 -->
<g id="edge32" class="edge">
<title>Node56&#45;&gt;Node57</title>
<path fill="none" stroke="midnightblue" d="M1752.99,-481.48C1669.93,-470.52 1526.12,-451.54 1439.32,-440.09"/>
<polygon fill="midnightblue" stroke="midnightblue" points="1439.66,-436.61 1429.29,-438.77 1438.75,-443.55 1439.66,-436.61"/>
</g>
<!-- Node57&#45;&gt;Node3 -->
<g id="edge33" class="edge">
<title>Node57&#45;&gt;Node3</title>
<path fill="none" stroke="midnightblue" d="M1326.32,-414.38C1275.38,-396.89 1184.78,-366.96 1105.61,-347 1023.96,-326.42 1000.85,-333.13 919.61,-311 701.28,-251.53 457.65,-122.76 381.02,-80.64"/>
<polygon fill="midnightblue" stroke="midnightblue" points="382.57,-77.49 372.12,-75.72 379.18,-83.62 382.57,-77.49"/>
</g>
<!-- Node57&#45;&gt;Node4 -->
<g id="edge34" class="edge">
<title>Node57&#45;&gt;Node4</title>
<path fill="none" stroke="midnightblue" d="M1361.14,-414.16C1357.64,-404.19 1353.42,-390.49 1351.61,-378 1349.63,-364.37 1350.99,-360.76 1351.61,-347 1352.94,-317.13 1354.5,-309.73 1357.61,-280 1361.89,-239.04 1366.16,-229.11 1368.61,-188 1369.14,-179.13 1371.93,-176.24 1368.61,-168 1345.66,-111.14 1273.19,-85.29 1226.91,-74.31"/>
<polygon fill="midnightblue" stroke="midnightblue" points="1227.42,-70.84 1216.9,-72.07 1225.89,-77.67 1227.42,-70.84"/>
</g>
<!-- Node57&#45;&gt;Node6 -->
<g id="edge35" class="edge">
<title>Node57&#45;&gt;Node6</title>
<path fill="none" stroke="midnightblue" d="M1362.99,-414.16C1356.67,-385.57 1346.94,-320.73 1376.61,-280 1386.01,-267.1 1423.71,-253.74 1453.01,-244.97"/>
<polygon fill="midnightblue" stroke="midnightblue" points="1454.35,-248.22 1462.97,-242.06 1452.39,-241.5 1454.35,-248.22"/>
</g>
<!-- Node57&#45;&gt;Node7 -->
<g id="edge37" class="edge">
<title>Node57&#45;&gt;Node7</title>
<path fill="none" stroke="midnightblue" d="M1382.89,-414.49C1415.57,-386.76 1492.05,-323.78 1562.61,-280 1704.81,-191.75 1747.39,-181.56 1899.61,-112 1925.24,-100.29 1954.81,-88.05 1976.53,-79.3"/>
<polygon fill="midnightblue" stroke="midnightblue" points="1977.93,-82.51 1985.91,-75.54 1975.32,-76.01 1977.93,-82.51"/>
</g>
<!-- Node15 -->
<g id="node16" class="node">
<title>Node15</title>
<g id="a_node16"><a xlink:title=" ">
<polygon fill="none" stroke="#bfbfbf" points="2041.11,-224.5 2041.11,-243.5 2088.11,-243.5 2088.11,-224.5 2041.11,-224.5"/>
<text text-anchor="middle" x="2064.61" y="-231.5" font-family="Helvetica,sans-Serif" font-size="10.00">vector</text>
</a>
</g>
</g>
<!-- Node57&#45;&gt;Node15 -->
<g id="edge36" class="edge">
<title>Node57&#45;&gt;Node15</title>
<path fill="none" stroke="midnightblue" d="M1425.77,-414.45C1501.92,-396.75 1638.51,-366.32 1756.61,-347 1823.53,-336.05 2012.94,-360.19 2059.61,-311 2073.87,-295.97 2072.55,-270.87 2069.37,-253.66"/>
<polygon fill="midnightblue" stroke="midnightblue" points="2072.74,-252.68 2067.17,-243.67 2065.91,-254.19 2072.74,-252.68"/>
</g>
<!-- Node57&#45;&gt;Node58 -->
<g id="edge38" class="edge">
<title>Node57&#45;&gt;Node58</title>
<path fill="none" stroke="midnightblue" d="M1303.76,-416.12C1241.84,-403.92 1148.27,-385.49 1089.89,-374"/>
<polygon fill="midnightblue" stroke="midnightblue" points="1090.26,-370.5 1079.77,-372 1088.91,-377.37 1090.26,-370.5"/>
</g>
<!-- Node58&#45;&gt;Node3 -->
<g id="edge39" class="edge">
<title>Node58&#45;&gt;Node3</title>
<path fill="none" stroke="midnightblue" d="M976.71,-357.41C872.37,-348.43 652.38,-321.22 484.61,-244 441.81,-224.3 425.3,-223.74 394.61,-188 369.12,-158.32 360.7,-111.54 357.94,-85.7"/>
<polygon fill="midnightblue" stroke="midnightblue" points="361.43,-85.38 357.05,-75.73 354.46,-86 361.43,-85.38"/>
</g>
<!-- Node58&#45;&gt;Node4 -->
<g id="edge40" class="edge">
<title>Node58&#45;&gt;Node4</title>
<path fill="none" stroke="midnightblue" d="M1038.55,-352.94C1042.53,-336.98 1052.95,-302.27 1072.61,-280 1093.19,-256.68 1107.14,-261.84 1132.61,-244 1164.96,-221.34 1181.84,-222.19 1201.61,-188 1218.63,-158.55 1218.86,-145 1210.61,-112 1208.17,-102.25 1203.17,-92.29 1198.36,-84.23"/>
<polygon fill="midnightblue" stroke="midnightblue" points="1201.3,-82.32 1192.97,-75.77 1195.39,-86.08 1201.3,-82.32"/>
</g>
<!-- Node58&#45;&gt;Node7 -->
<g id="edge41" class="edge">
<title>Node58&#45;&gt;Node7</title>
<path fill="none" stroke="midnightblue" d="M1057.15,-352.96C1124.53,-325.08 1345.1,-234.63 1530.61,-168 1579.02,-150.61 1592.38,-149.91 1640.61,-132 1662.27,-123.96 1666.32,-118.11 1688.61,-112 1777.06,-87.76 1883.08,-76.11 1947.87,-70.87"/>
<polygon fill="midnightblue" stroke="midnightblue" points="1948.21,-74.35 1957.91,-70.08 1947.66,-67.37 1948.21,-74.35"/>
</g>
<!-- Node58&#45;&gt;Node73 -->
<g id="edge42" class="edge">
<title>Node58&#45;&gt;Node73</title>
<path fill="none" stroke="midnightblue" d="M1028.25,-352.73C1018.48,-342.5 1002.14,-325.36 990.05,-312.69"/>
<polygon fill="midnightblue" stroke="midnightblue" points="992.27,-309.95 982.84,-305.13 987.21,-314.78 992.27,-309.95"/>
</g>
<!-- Node73&#45;&gt;Node3 -->
<g id="edge43" class="edge">
<title>Node73&#45;&gt;Node3</title>
<path fill="none" stroke="midnightblue" d="M928.2,-291.39C808.34,-282.49 492.32,-253.24 413.61,-188 396.89,-174.14 374.17,-115.95 363.15,-85.6"/>
<polygon fill="midnightblue" stroke="midnightblue" points="366.31,-84.05 359.65,-75.81 359.72,-86.4 366.31,-84.05"/>
</g>
<!-- Node73&#45;&gt;Node4 -->
<g id="edge44" class="edge">
<title>Node73&#45;&gt;Node4</title>
<path fill="none" stroke="midnightblue" d="M998.24,-285.97C1048.27,-267.39 1162.06,-222.2 1183.61,-188 1203.41,-156.56 1197.29,-110.82 1191.61,-85.54"/>
<polygon fill="midnightblue" stroke="midnightblue" points="1194.99,-84.64 1189.2,-75.77 1188.19,-86.32 1194.99,-84.64"/>
</g>
<!-- Node73&#45;&gt;Node6 -->
<g id="edge45" class="edge">
<title>Node73&#45;&gt;Node6</title>
<path fill="none" stroke="midnightblue" d="M1020.76,-289.17C1121.81,-277.49 1360.92,-249.87 1452.78,-239.26"/>
<polygon fill="midnightblue" stroke="midnightblue" points="1453.45,-242.7 1462.98,-238.08 1452.64,-235.75 1453.45,-242.7"/>
</g>
<!-- Node73&#45;&gt;Node7 -->
<g id="edge46" class="edge">
<title>Node73&#45;&gt;Node7</title>
<path fill="none" stroke="midnightblue" d="M1003.62,-285.89C1120.06,-251.4 1550.17,-124.39 1612.61,-112 1730.2,-88.67 1870.07,-76.28 1947.85,-70.73"/>
<polygon fill="midnightblue" stroke="midnightblue" points="1948.21,-74.21 1957.94,-70.02 1947.72,-67.23 1948.21,-74.21"/>
</g>
<!-- Node73&#45;&gt;Node18 -->
<g id="edge47" class="edge">
<title>Node73&#45;&gt;Node18</title>
<path fill="none" stroke="midnightblue" d="M948.96,-285.98C917.99,-275.68 865.73,-258.31 830.96,-246.75"/>
<polygon fill="midnightblue" stroke="midnightblue" points="831.8,-243.34 821.21,-243.51 829.59,-249.98 831.8,-243.34"/>
</g>
<!-- Node82&#45;&gt;Node3 -->
<g id="edge50" class="edge">
<title>Node82&#45;&gt;Node3</title>
<path fill="none" stroke="midnightblue" d="M1447.34,-612.36C1256.19,-609.61 557.99,-597.62 463.61,-568 261.67,-504.63 150.83,-452.53 114.61,-244 104.57,-186.2 77.11,-157.12 114.61,-112 127.94,-95.96 261.65,-78.22 324.4,-70.69"/>
<polygon fill="midnightblue" stroke="midnightblue" points="325.03,-74.15 334.54,-69.49 324.2,-67.19 325.03,-74.15"/>
</g>
<!-- Node82&#45;&gt;Node4 -->
<g id="edge51" class="edge">
<title>Node82&#45;&gt;Node4</title>
<path fill="none" stroke="midnightblue" d="M1447.35,-606.7C1351.66,-593.09 1143.67,-557.51 1103.61,-501 1098.47,-493.75 1101.94,-489.73 1103.61,-481 1129.85,-343.42 1184.87,-323.68 1219.61,-188 1228.02,-155.14 1238.66,-143.71 1226.61,-112 1222.27,-100.6 1213.58,-90.24 1205.4,-82.34"/>
<polygon fill="midnightblue" stroke="midnightblue" points="1207.65,-79.66 1197.87,-75.57 1202.97,-84.86 1207.65,-79.66"/>
</g>
<!-- Node82&#45;&gt;Node5 -->
<g id="edge52" class="edge">
<title>Node82&#45;&gt;Node5</title>
<path fill="none" stroke="midnightblue" d="M1543.72,-609.69C1639.22,-602.82 1849.56,-586.14 1919.61,-568 2039.87,-536.86 2071.13,-519.42 2170.61,-445 2283.93,-360.23 2320.57,-324.31 2358.61,-188 2374.54,-130.92 2348.78,-61.32 2334.34,-29.04"/>
<polygon fill="midnightblue" stroke="midnightblue" points="2337.34,-27.19 2329.95,-19.6 2330.99,-30.14 2337.34,-27.19"/>
</g>
<!-- Node82&#45;&gt;Node6 -->
<g id="edge53" class="edge">
<title>Node82&#45;&gt;Node6</title>
<path fill="none" stroke="midnightblue" d="M1495.92,-604.47C1496.26,-590.32 1496.26,-561.13 1491.61,-537 1471.52,-432.8 1431.95,-415.69 1414.61,-311 1412.36,-297.41 1407.82,-291.99 1414.61,-280 1423.08,-265.04 1438.72,-254.51 1453.54,-247.42"/>
<polygon fill="midnightblue" stroke="midnightblue" points="1455.32,-250.46 1463.07,-243.25 1452.51,-244.05 1455.32,-250.46"/>
</g>
<!-- Node82&#45;&gt;Node7 -->
<g id="edge54" class="edge">
<title>Node82&#45;&gt;Node7</title>
<path fill="none" stroke="midnightblue" d="M1543.7,-612.09C1657.74,-607.66 1949.01,-582.64 2136.61,-445 2225.49,-379.79 2268.61,-345.24 2268.61,-235 2268.61,-235 2268.61,-235 2268.61,-177 2268.61,-90.18 2144.44,-70.79 2067.39,-67.12"/>
<polygon fill="midnightblue" stroke="midnightblue" points="2067.45,-63.62 2057.31,-66.72 2067.17,-70.62 2067.45,-63.62"/>
</g>
<!-- Node82&#45;&gt;Node57 -->
<g id="edge72" class="edge">
<title>Node82&#45;&gt;Node57</title>
<path fill="none" stroke="midnightblue" d="M1493.74,-604.35C1488.52,-581.78 1471.9,-520.19 1438.61,-481 1428.33,-468.9 1414.52,-458.29 1401.74,-449.97"/>
<polygon fill="midnightblue" stroke="midnightblue" points="1403.45,-446.91 1393.12,-444.58 1399.74,-452.85 1403.45,-446.91"/>
</g>
<!-- Node82&#45;&gt;Node86 -->
<g id="edge55" class="edge">
<title>Node82&#45;&gt;Node86</title>
<path fill="none" stroke="midnightblue" d="M1506.24,-604.33C1516.94,-595.48 1533.81,-581.21 1547.61,-568 1645.29,-474.54 1638.62,-412.99 1756.61,-347 1786.65,-330.2 1874.26,-314.55 1935.12,-305.26"/>
<polygon fill="midnightblue" stroke="midnightblue" points="1935.66,-308.72 1945.02,-303.76 1934.61,-301.79 1935.66,-308.72"/>
</g>
<!-- Node89 -->
<g id="node21" class="node">
<title>Node89</title>
<g id="a_node21"><a xlink:href="../../d4/d67/geometry_8h.html" target="_top" xlink:title=" ">
<polygon fill="none" stroke="red" points="1299.61,-481.5 1299.61,-500.5 1429.61,-500.5 1429.61,-481.5 1299.61,-481.5"/>
<text text-anchor="middle" x="1364.61" y="-488.5" font-family="Helvetica,sans-Serif" font-size="10.00">geometries/geometry.h</text>
</a>
</g>
</g>
<!-- Node82&#45;&gt;Node89 -->
<g id="edge62" class="edge">
<title>Node82&#45;&gt;Node89</title>
<path fill="none" stroke="midnightblue" d="M1490.54,-604.17C1481.55,-589.06 1461.57,-557.83 1438.61,-537 1424.72,-524.4 1406.81,-513.4 1392.08,-505.43"/>
<polygon fill="midnightblue" stroke="midnightblue" points="1393.43,-502.18 1382.94,-500.64 1390.18,-508.38 1393.43,-502.18"/>
</g>
<!-- Node82&#45;&gt;Node98 -->
<g id="edge73" class="edge">
<title>Node82&#45;&gt;Node98</title>
<path fill="none" stroke="midnightblue" d="M1477.13,-604.48C1458.67,-595.96 1429.74,-582.62 1406.11,-571.72"/>
<polygon fill="midnightblue" stroke="midnightblue" points="1407.56,-568.53 1397.01,-567.52 1404.63,-574.89 1407.56,-568.53"/>
</g>
<!-- Node86&#45;&gt;Node3 -->
<g id="edge57" class="edge">
<title>Node86&#45;&gt;Node3</title>
<path fill="none" stroke="midnightblue" d="M1973.76,-280.41C1956.7,-270.31 1933.21,-256.36 1912.61,-244 1897.9,-235.18 1895.74,-229.83 1879.61,-224 1562.61,-109.53 1464.84,-146.72 1129.61,-112 843.27,-82.35 495.08,-70.82 388.88,-67.84"/>
<polygon fill="midnightblue" stroke="midnightblue" points="388.9,-64.34 378.8,-67.56 388.7,-71.33 388.9,-64.34"/>
</g>
<!-- Node86&#45;&gt;Node4 -->
<g id="edge58" class="edge">
<title>Node86&#45;&gt;Node4</title>
<path fill="none" stroke="midnightblue" d="M1984.11,-280.45C1968.3,-264.71 1940.68,-239.4 1912.61,-224 1676.08,-94.2 1341.26,-71.7 1226.78,-67.81"/>
<polygon fill="midnightblue" stroke="midnightblue" points="1226.82,-64.31 1216.72,-67.5 1226.6,-71.31 1226.82,-64.31"/>
</g>
<!-- Node86&#45;&gt;Node5 -->
<g id="edge59" class="edge">
<title>Node86&#45;&gt;Node5</title>
<path fill="none" stroke="midnightblue" d="M2002.32,-280.36C2007.85,-265.24 2018.14,-241.12 2032.61,-224 2112.82,-129.06 2243.81,-53.76 2299.37,-24.36"/>
<polygon fill="midnightblue" stroke="midnightblue" points="2301.3,-27.3 2308.53,-19.57 2298.05,-21.1 2301.3,-27.3"/>
</g>
<!-- Node86&#45;&gt;Node6 -->
<g id="edge60" class="edge">
<title>Node86&#45;&gt;Node6</title>
<path fill="none" stroke="midnightblue" d="M1944.98,-286.52C1929.71,-284.3 1913.01,-281.97 1897.61,-280 1761.11,-262.58 1598.41,-245.84 1526.69,-238.66"/>
<polygon fill="midnightblue" stroke="midnightblue" points="1526.68,-235.14 1516.38,-237.63 1525.98,-242.11 1526.68,-235.14"/>
</g>
<!-- Node86&#45;&gt;Node7 -->
<g id="edge61" class="edge">
<title>Node86&#45;&gt;Node7</title>
<path fill="none" stroke="midnightblue" d="M1997.63,-280.45C1997.69,-266.22 1997.91,-243.57 1998.61,-224 2000.4,-173.9 2004.25,-114.9 2006.29,-85.54"/>
<polygon fill="midnightblue" stroke="midnightblue" points="2009.78,-85.72 2006.99,-75.5 2002.8,-85.23 2009.78,-85.72"/>
</g>
<!-- Node86&#45;&gt;Node15 -->
<g id="edge56" class="edge">
<title>Node86&#45;&gt;Node15</title>
<path fill="none" stroke="midnightblue" d="M2013.49,-280.4C2023.62,-271.4 2036.77,-259.72 2047.19,-250.47"/>
<polygon fill="midnightblue" stroke="midnightblue" points="2049.71,-252.92 2054.86,-243.66 2045.06,-247.68 2049.71,-252.92"/>
</g>
<!-- Node89&#45;&gt;Node25 -->
<g id="edge71" class="edge">
<title>Node89&#45;&gt;Node25</title>
<path fill="none" stroke="midnightblue" d="M1299.27,-486.01C1272.97,-484.42 1242.35,-482.6 1214.61,-481 1141.95,-476.82 626.83,-475.19 560.61,-445 485.11,-410.58 461.78,-387.9 430.61,-311 413.8,-269.55 447,-220.49 467.72,-195.47"/>
<polygon fill="midnightblue" stroke="midnightblue" points="470.56,-197.54 474.43,-187.67 465.25,-192.97 470.56,-197.54"/>
</g>
<!-- Node89&#45;&gt;Node57 -->
<g id="edge63" class="edge">
<title>Node89&#45;&gt;Node57</title>
<path fill="none" stroke="midnightblue" d="M1364.89,-481.48C1365.13,-474.47 1365.48,-464.19 1365.79,-454.7"/>
<polygon fill="midnightblue" stroke="midnightblue" points="1369.3,-454.63 1366.14,-444.52 1362.3,-454.4 1369.3,-454.63"/>
</g>
<!-- Node89&#45;&gt;Node96 -->
<g id="edge64" class="edge">
<title>Node89&#45;&gt;Node96</title>
<path fill="none" stroke="midnightblue" d="M1381.82,-481.49C1428.96,-458.33 1564.38,-392.87 1680.61,-347 1718.04,-332.23 1761.74,-317.73 1792.1,-308.09"/>
<polygon fill="midnightblue" stroke="midnightblue" points="1793.37,-311.36 1801.85,-305.01 1791.26,-304.68 1793.37,-311.36"/>
</g>
<!-- Node96&#45;&gt;Node25 -->
<g id="edge67" class="edge">
<title>Node96&#45;&gt;Node25</title>
<path fill="none" stroke="midnightblue" d="M1770.83,-287.74C1744.75,-284.96 1713.68,-281.94 1685.61,-280 1261.87,-250.71 1150.77,-306.22 730.61,-244 653.12,-232.53 564.97,-206.11 517.44,-190.72"/>
<polygon fill="midnightblue" stroke="midnightblue" points="518.52,-187.39 507.93,-187.61 516.35,-194.04 518.52,-187.39"/>
</g>
<!-- Node96&#45;&gt;Node30 -->
<g id="edge70" class="edge">
<title>Node96&#45;&gt;Node30</title>
<path fill="none" stroke="midnightblue" d="M1815.07,-285.92C1788.07,-270.45 1727.89,-238.18 1672.61,-224 1582.28,-200.82 1314.13,-187.13 1184.86,-181.71"/>
<polygon fill="midnightblue" stroke="midnightblue" points="1184.81,-178.21 1174.67,-181.29 1184.52,-185.2 1184.81,-178.21"/>
</g>
<!-- Node96&#45;&gt;Node34 -->
<g id="edge68" class="edge">
<title>Node96&#45;&gt;Node34</title>
<path fill="none" stroke="midnightblue" d="M1803.41,-285.95C1755.44,-270.69 1650,-238.95 1558.61,-224 1502,-214.74 1082.73,-229.95 1043.61,-188 1032.18,-175.74 1035.64,-155.92 1040.6,-141.39"/>
<polygon fill="midnightblue" stroke="midnightblue" points="1043.91,-142.51 1044.27,-131.92 1037.39,-139.97 1043.91,-142.51"/>
</g>
<!-- Node65 -->
<g id="node23" class="node">
<title>Node65</title>
<g id="a_node23"><a xlink:title=" ">
<polygon fill="none" stroke="#bfbfbf" points="2931.11,-224.5 2931.11,-243.5 2978.11,-243.5 2978.11,-224.5 2931.11,-224.5"/>
<text text-anchor="middle" x="2954.61" y="-231.5" font-family="Helvetica,sans-Serif" font-size="10.00">cmath</text>
</a>
</g>
</g>
<!-- Node96&#45;&gt;Node65 -->
<g id="edge65" class="edge">
<title>Node96&#45;&gt;Node65</title>
<path fill="none" stroke="midnightblue" d="M1885.03,-285.97C1901.59,-283.7 1919.8,-281.47 1936.61,-280 2339.39,-244.81 2442.04,-268.64 2845.61,-244 2870.74,-242.47 2899.08,-240.11 2920.56,-238.19"/>
<polygon fill="midnightblue" stroke="midnightblue" points="2921.17,-241.65 2930.81,-237.26 2920.54,-234.68 2921.17,-241.65"/>
</g>
<!-- Node78 -->
<g id="node24" class="node">
<title>Node78</title>
<g id="a_node24"><a xlink:title=" ">
<polygon fill="none" stroke="#bfbfbf" points="1801.11,-224.5 1801.11,-243.5 1870.11,-243.5 1870.11,-224.5 1801.11,-224.5"/>
<text text-anchor="middle" x="1835.61" y="-231.5" font-family="Helvetica,sans-Serif" font-size="10.00">type_traits</text>
</a>
</g>
</g>
<!-- Node96&#45;&gt;Node78 -->
<g id="edge66" class="edge">
<title>Node96&#45;&gt;Node78</title>
<path fill="none" stroke="midnightblue" d="M1830.47,-285.98C1831.31,-277.58 1832.63,-264.48 1833.73,-253.66"/>
<polygon fill="midnightblue" stroke="midnightblue" points="1837.23,-253.81 1834.75,-243.51 1830.26,-253.11 1837.23,-253.81"/>
</g>
<!-- Node70 -->
<g id="node25" class="node">
<title>Node70</title>
<g id="a_node25"><a xlink:href="../../d5/dfb/global__variables_8h.html" target="_top" xlink:title=" ">
<polygon fill="none" stroke="black" points="2524.11,-224.5 2524.11,-243.5 2673.11,-243.5 2673.11,-224.5 2524.11,-224.5"/>
<text text-anchor="middle" x="2598.61" y="-231.5" font-family="Helvetica,sans-Serif" font-size="10.00">includes/global_variables.h</text>
</a>
</g>
</g>
<!-- Node96&#45;&gt;Node70 -->
<g id="edge69" class="edge">
<title>Node96&#45;&gt;Node70</title>
<path fill="none" stroke="midnightblue" d="M1887.28,-285.97C1903.23,-283.8 1920.57,-281.63 1936.61,-280 2143.39,-258.98 2387.53,-245.24 2513.66,-238.96"/>
<polygon fill="midnightblue" stroke="midnightblue" points="2514.2,-242.43 2524.01,-238.44 2513.85,-235.44 2514.2,-242.43"/>
</g>
<!-- Node98&#45;&gt;Node7 -->
<g id="edge74" class="edge">
<title>Node98&#45;&gt;Node7</title>
<path fill="none" stroke="midnightblue" d="M1397.13,-537.38C1492.74,-493.21 1782.75,-359.9 1827.61,-347 1935.92,-315.86 1993.77,-385.18 2078.61,-311 2108.4,-284.95 2107.79,-262.25 2097.61,-224 2089.7,-194.31 2041.33,-118.33 2018.95,-84.13"/>
<polygon fill="midnightblue" stroke="midnightblue" points="2021.8,-82.1 2013.38,-75.67 2015.95,-85.95 2021.8,-82.1"/>
</g>
<!-- Node98&#45;&gt;Node56 -->
<g id="edge85" class="edge">
<title>Node98&#45;&gt;Node56</title>
<path fill="none" stroke="midnightblue" d="M1429.79,-543.16C1511.99,-532.32 1655.41,-513.4 1742.9,-501.86"/>
<polygon fill="midnightblue" stroke="midnightblue" points="1743.57,-505.3 1753.03,-500.52 1742.66,-498.36 1743.57,-505.3"/>
</g>
<!-- Node98&#45;&gt;Node58 -->
<g id="edge84" class="edge">
<title>Node98&#45;&gt;Node58</title>
<path fill="none" stroke="midnightblue" d="M1341.8,-537.37C1280.34,-502.35 1121.56,-411.9 1060.77,-377.27"/>
<polygon fill="midnightblue" stroke="midnightblue" points="1062.31,-374.12 1051.89,-372.21 1058.85,-380.2 1062.31,-374.12"/>
</g>
<!-- Node99 -->
<g id="node27" class="node">
<title>Node99</title>
<g id="a_node27"><a xlink:href="../../d1/d77/node_8h.html" target="_top" xlink:title=" ">
<polygon fill="none" stroke="red" points="1112.11,-481.5 1112.11,-500.5 1205.11,-500.5 1205.11,-481.5 1112.11,-481.5"/>
<text text-anchor="middle" x="1158.61" y="-488.5" font-family="Helvetica,sans-Serif" font-size="10.00">includes/node.h</text>
</a>
</g>
</g>
<!-- Node98&#45;&gt;Node99 -->
<g id="edge75" class="edge">
<title>Node98&#45;&gt;Node99</title>
<path fill="none" stroke="midnightblue" d="M1317.58,-537.47C1281.22,-527.08 1232.29,-513.08 1198.36,-503.37"/>
<polygon fill="midnightblue" stroke="midnightblue" points="1198.92,-499.89 1188.34,-500.51 1197,-506.62 1198.92,-499.89"/>
</g>
<!-- Node99&#45;&gt;Node3 -->
<g id="edge76" class="edge">
<title>Node99&#45;&gt;Node3</title>
<path fill="none" stroke="midnightblue" d="M1112.09,-489.85C981.46,-488.95 613.4,-483.02 499.61,-445 344.22,-393.08 268.73,-388.01 190.61,-244 162.63,-192.43 154.96,-158.6 190.61,-112 206.78,-90.86 280.95,-77.34 324.48,-71.08"/>
<polygon fill="midnightblue" stroke="midnightblue" points="325.15,-74.52 334.58,-69.68 324.19,-67.58 325.15,-74.52"/>
</g>
<!-- Node99&#45;&gt;Node4 -->
<g id="edge77" class="edge">
<title>Node99&#45;&gt;Node4</title>
<path fill="none" stroke="midnightblue" d="M1111.7,-490.05C977.27,-489.69 597.82,-485.12 560.61,-445 439.98,-314.95 627.08,-200.85 780.61,-112 842.16,-76.38 1056.46,-68.95 1146.39,-67.41"/>
<polygon fill="midnightblue" stroke="midnightblue" points="1146.53,-70.9 1156.47,-67.25 1146.42,-63.9 1146.53,-70.9"/>
</g>
<!-- Node99&#45;&gt;Node5 -->
<g id="edge78" class="edge">
<title>Node99&#45;&gt;Node5</title>
<path fill="none" stroke="midnightblue" d="M1111.86,-489.64C968.4,-488.17 535.94,-480.79 400.61,-445 200.98,-392.21 -52.4,-273.24 76.61,-112 147.47,-23.43 213.02,-69.79 325.61,-56 725.8,-6.99 2045.14,-9.86 2287.26,-10.82"/>
<polygon fill="midnightblue" stroke="midnightblue" points="2287.32,-14.32 2297.34,-10.86 2287.35,-7.32 2287.32,-14.32"/>
</g>
<!-- Node99&#45;&gt;Node6 -->
<g id="edge79" class="edge">
<title>Node99&#45;&gt;Node6</title>
<path fill="none" stroke="midnightblue" d="M1169.23,-481.47C1180.37,-472.49 1198.33,-457.89 1213.61,-445 1248.28,-415.74 1260.45,-411.89 1290.61,-378 1325.68,-338.59 1315.6,-311.92 1357.61,-280 1372.85,-268.42 1419.63,-253.97 1453.17,-244.62"/>
<polygon fill="midnightblue" stroke="midnightblue" points="1454.39,-247.92 1463.1,-241.89 1452.53,-241.17 1454.39,-247.92"/>
</g>
<!-- Node99&#45;&gt;Node7 -->
<g id="edge80" class="edge">
<title>Node99&#45;&gt;Node7</title>
<path fill="none" stroke="midnightblue" d="M1163.37,-481.07C1180.74,-449.31 1243.89,-340.46 1324.61,-280 1428.75,-202 1819.88,-109.01 1958.51,-77.81"/>
<polygon fill="midnightblue" stroke="midnightblue" points="1959.45,-81.18 1968.44,-75.58 1957.91,-74.35 1959.45,-81.18"/>
</g>
<!-- Node99&#45;&gt;Node57 -->
<g id="edge81" class="edge">
<title>Node99&#45;&gt;Node57</title>
<path fill="none" stroke="midnightblue" d="M1188.41,-481.48C1219.48,-472.59 1268.97,-458.43 1307.93,-447.29"/>
<polygon fill="midnightblue" stroke="midnightblue" points="1308.93,-450.64 1317.59,-444.52 1307.01,-443.91 1308.93,-450.64"/>
</g>
<!-- Node99&#45;&gt;Node108 -->
<g id="edge82" class="edge">
<title>Node99&#45;&gt;Node108</title>
<path fill="none" stroke="midnightblue" d="M1205.34,-486.81C1230.59,-485.09 1262.31,-482.93 1290.61,-481 1535.77,-464.32 1826.38,-444.61 1960.28,-435.54"/>
<polygon fill="midnightblue" stroke="midnightblue" points="1960.68,-439.02 1970.42,-434.85 1960.2,-432.03 1960.68,-439.02"/>
</g>
<!-- Node108&#45;&gt;Node7 -->
<g id="edge83" class="edge">
<title>Node108&#45;&gt;Node7</title>
<path fill="none" stroke="midnightblue" d="M2048.11,-419.8C2073.55,-402.57 2128.13,-361.36 2151.61,-311 2167.99,-275.87 2166.51,-261.72 2157.61,-224 2143.79,-165.45 2127.45,-150.95 2081.61,-112 2067.13,-99.7 2048.92,-88.58 2034.19,-80.47"/>
<polygon fill="midnightblue" stroke="midnightblue" points="2035.55,-77.23 2025.08,-75.6 2032.25,-83.4 2035.55,-77.23"/>
</g>
<!-- Node109&#45;&gt;Node7 -->
<g id="edge87" class="edge">
<title>Node109&#45;&gt;Node7</title>
<path fill="none" stroke="midnightblue" d="M1954.81,-357.1C2017.05,-351.1 2108.91,-337.86 2130.61,-311 2192.34,-234.59 2073.73,-122.15 2026.14,-81.96"/>
<polygon fill="midnightblue" stroke="midnightblue" points="2028.32,-79.22 2018.39,-75.53 2023.85,-84.61 2028.32,-79.22"/>
</g>
<!-- Node109&#45;&gt;Node110 -->
<g id="edge88" class="edge">
<title>Node109&#45;&gt;Node110</title>
<path fill="none" stroke="midnightblue" d="M1836.92,-347.48C1792.49,-336.86 1731.58,-322.3 1686.22,-311.46"/>
<polygon fill="midnightblue" stroke="midnightblue" points="1686.75,-307.99 1676.21,-309.07 1685.12,-314.8 1686.75,-307.99"/>
</g>
<!-- Node110&#45;&gt;Node7 -->
<g id="edge91" class="edge">
<title>Node110&#45;&gt;Node7</title>
<path fill="none" stroke="midnightblue" d="M1649.33,-280.33C1685.7,-260.21 1754.14,-222 1811.61,-188 1875.11,-150.43 1948.89,-104.16 1985.15,-81.25"/>
<polygon fill="midnightblue" stroke="midnightblue" points="1987.35,-83.99 1993.93,-75.69 1983.61,-78.08 1987.35,-83.99"/>
</g>
<!-- Node110&#45;&gt;Node18 -->
<g id="edge92" class="edge">
<title>Node110&#45;&gt;Node18</title>
<path fill="none" stroke="midnightblue" d="M1570.87,-290.71C1426.13,-280.31 1022.85,-251.33 862.55,-239.81"/>
<polygon fill="midnightblue" stroke="midnightblue" points="862.57,-236.3 852.35,-239.08 862.07,-243.29 862.57,-236.3"/>
</g>
<!-- Node110&#45;&gt;Node23 -->
<g id="edge90" class="edge">
<title>Node110&#45;&gt;Node23</title>
<path fill="none" stroke="midnightblue" d="M1609.53,-280.35C1591.74,-263.49 1559.34,-236.1 1525.61,-224 1496,-213.38 1052.13,-189.97 892.37,-181.85"/>
<polygon fill="midnightblue" stroke="midnightblue" points="892.43,-178.35 882.26,-181.33 892.07,-185.34 892.43,-178.35"/>
</g>
<!-- Node110&#45;&gt;Node78 -->
<g id="edge89" class="edge">
<title>Node110&#45;&gt;Node78</title>
<path fill="none" stroke="midnightblue" d="M1673.58,-280.47C1710.79,-270.03 1760.94,-255.96 1795.53,-246.25"/>
<polygon fill="midnightblue" stroke="midnightblue" points="1796.62,-249.58 1805.3,-243.51 1794.73,-242.84 1796.62,-249.58"/>
</g>
<!-- Node112&#45;&gt;Node56 -->
<g id="edge94" class="edge">
<title>Node112&#45;&gt;Node56</title>
<path fill="none" stroke="midnightblue" d="M1736.86,-604.3C1751.22,-584.33 1786.75,-534.92 1805.53,-508.8"/>
<polygon fill="midnightblue" stroke="midnightblue" points="1808.41,-510.79 1811.41,-500.62 1802.73,-506.7 1808.41,-510.79"/>
</g>
<!-- Node130&#45;&gt;Node56 -->
<g id="edge96" class="edge">
<title>Node130&#45;&gt;Node56</title>
<path fill="none" stroke="midnightblue" d="M1892.78,-604.3C1879.47,-584.41 1846.63,-535.35 1829.09,-509.15"/>
<polygon fill="midnightblue" stroke="midnightblue" points="1831.85,-506.99 1823.38,-500.62 1826.03,-510.88 1831.85,-506.99"/>
</g>
<!-- Node131&#45;&gt;Node3 -->
<g id="edge98" class="edge">
<title>Node131&#45;&gt;Node3</title>
<path fill="none" stroke="midnightblue" d="M1599.82,-669.19C1374.44,-668.86 668.74,-660.32 463.61,-568 267.39,-479.69 188.1,-401.78 163.61,-188 159.72,-154.09 151.07,-136.71 174.61,-112 194.97,-90.63 277.83,-76.95 324.42,-70.79"/>
<polygon fill="midnightblue" stroke="midnightblue" points="325.12,-74.23 334.59,-69.49 324.23,-67.29 325.12,-74.23"/>
</g>
<!-- Node131&#45;&gt;Node4 -->
<g id="edge99" class="edge">
<title>Node131&#45;&gt;Node4</title>
<path fill="none" stroke="midnightblue" d="M1668.86,-660.38C1668.12,-651.33 1667.03,-636.68 1666.61,-624 1666.31,-615.12 1666.32,-612.88 1666.61,-604 1671.28,-459.83 1761.66,-402.57 1685.61,-280 1596.95,-137.12 1503.56,-172.36 1346.61,-112 1306.75,-96.67 1259.51,-84.03 1226.74,-76.09"/>
<polygon fill="midnightblue" stroke="midnightblue" points="1227.17,-72.59 1216.63,-73.68 1225.55,-79.4 1227.17,-72.59"/>
</g>
<!-- Node131&#45;&gt;Node5 -->
<g id="edge100" class="edge">
<title>Node131&#45;&gt;Node5</title>
<path fill="none" stroke="midnightblue" d="M1739.34,-661.95C1806.21,-654.61 1909.84,-641.7 1998.61,-624 2132.48,-597.31 3059.75,-361.4 3186.61,-311 3272.28,-276.96 3346.61,-271.19 3346.61,-179 3346.61,-179 3346.61,-179 3346.61,-121 3346.61,-53.2 3274.37,-72.48 3208.61,-56 3045.19,-15.05 2512.82,-11.24 2364.36,-10.99"/>
<polygon fill="midnightblue" stroke="midnightblue" points="2363.95,-7.49 2353.95,-10.97 2363.94,-14.49 2363.95,-7.49"/>
</g>
<!-- Node131&#45;&gt;Node6 -->
<g id="edge101" class="edge">
<title>Node131&#45;&gt;Node6</title>
<path fill="none" stroke="midnightblue" d="M1661.16,-660.36C1653.14,-651.75 1641.21,-637.86 1633.61,-624 1617.7,-594.98 1609.61,-586.6 1609.61,-553.5 1609.61,-553.5 1609.61,-553.5 1609.61,-490 1609.61,-402.12 1566.57,-388.75 1525.61,-311 1515.32,-291.48 1504.64,-268.52 1497.6,-252.99"/>
<polygon fill="midnightblue" stroke="midnightblue" points="1500.66,-251.24 1493.37,-243.55 1494.27,-254.11 1500.66,-251.24"/>
</g>
<!-- Node131&#45;&gt;Node7 -->
<g id="edge102" class="edge">
<title>Node131&#45;&gt;Node7</title>
<path fill="none" stroke="midnightblue" d="M1739.21,-669.18C1801.05,-666.89 1892.55,-657.34 1964.61,-624 2173.53,-527.33 2306.61,-465.21 2306.61,-235 2306.61,-235 2306.61,-235 2306.61,-177 2306.61,-140.55 2287.74,-130.96 2256.61,-112 2225.6,-93.12 2130.82,-79.86 2067.55,-72.83"/>
<polygon fill="midnightblue" stroke="midnightblue" points="2067.62,-69.32 2057.3,-71.72 2066.86,-76.28 2067.62,-69.32"/>
</g>
<!-- Node131&#45;&gt;Node82 -->
<g id="edge105" class="edge">
<title>Node131&#45;&gt;Node82</title>
<path fill="none" stroke="midnightblue" d="M1642.04,-660.44C1612.51,-651.28 1565.49,-636.69 1532.72,-626.52"/>
<polygon fill="midnightblue" stroke="midnightblue" points="1533.64,-623.14 1523.05,-623.52 1531.56,-629.82 1533.64,-623.14"/>
</g>
<!-- Node131&#45;&gt;Node112 -->
<g id="edge104" class="edge">
<title>Node131&#45;&gt;Node112</title>
<path fill="none" stroke="midnightblue" d="M1679.41,-660.32C1688.43,-652.34 1702.01,-640.31 1712.93,-630.65"/>
<polygon fill="midnightblue" stroke="midnightblue" points="1715.46,-633.08 1720.63,-623.83 1710.82,-627.84 1715.46,-633.08"/>
</g>
<!-- Node131&#45;&gt;Node130 -->
<g id="edge103" class="edge">
<title>Node131&#45;&gt;Node130</title>
<path fill="none" stroke="midnightblue" d="M1705.89,-660.44C1745.59,-651.08 1809.31,-636.06 1852.52,-625.87"/>
<polygon fill="midnightblue" stroke="midnightblue" points="1853.56,-629.22 1862.49,-623.52 1851.96,-622.41 1853.56,-629.22"/>
</g>
<!-- Node115&#45;&gt;Node3 -->
<g id="edge107" class="edge">
<title>Node115&#45;&gt;Node3</title>
<path fill="none" stroke="midnightblue" d="M600.72,-419.95C540.19,-387.28 326.37,-270.81 304.61,-244 266.13,-196.6 234.51,-163.93 266.61,-112 279.18,-91.66 304.04,-80.21 324.45,-73.95"/>
<polygon fill="midnightblue" stroke="midnightblue" points="325.63,-77.25 334.33,-71.21 323.76,-70.51 325.63,-77.25"/>
</g>
<!-- Node115&#45;&gt;Node4 -->
<g id="edge108" class="edge">
<title>Node115&#45;&gt;Node4</title>
<path fill="none" stroke="midnightblue" d="M624.78,-419.88C648.19,-395.53 718.22,-325.07 786.61,-280 817.48,-259.65 832.65,-266.99 861.61,-244 920.54,-197.23 903.4,-151.23 967.61,-112 1023.07,-78.11 1099.68,-69.3 1146.04,-67.26"/>
<polygon fill="midnightblue" stroke="midnightblue" points="1146.43,-70.75 1156.3,-66.9 1146.18,-63.76 1146.43,-70.75"/>
</g>
<!-- Node115&#45;&gt;Node7 -->
<g id="edge110" class="edge">
<title>Node115&#45;&gt;Node7</title>
<path fill="none" stroke="midnightblue" d="M648.4,-419.91C760.71,-389.48 1149.23,-283.5 1467.61,-188 1495.75,-179.56 1502.3,-175.87 1530.61,-168 1543.49,-164.42 1751.53,-114.77 1764.61,-112 1826.84,-98.8 1898.51,-85.79 1947.8,-77.19"/>
<polygon fill="midnightblue" stroke="midnightblue" points="1948.41,-80.63 1957.66,-75.47 1947.21,-73.74 1948.41,-80.63"/>
</g>
<!-- Node115&#45;&gt;Node25 -->
<g id="edge109" class="edge">
<title>Node115&#45;&gt;Node25</title>
<path fill="none" stroke="midnightblue" d="M610.85,-419.85C598.18,-400.66 567.2,-352.91 544.61,-311 523.17,-271.24 501.5,-222.78 490.33,-197.07"/>
<polygon fill="midnightblue" stroke="midnightblue" points="493.52,-195.61 486.34,-187.81 487.09,-198.38 493.52,-195.61"/>
</g>
<!-- Node115&#45;&gt;Node58 -->
<g id="edge111" class="edge">
<title>Node115&#45;&gt;Node58</title>
<path fill="none" stroke="midnightblue" d="M659.56,-419.97C670.33,-417.93 681.88,-415.81 692.61,-414 787.35,-398.02 897.26,-382.39 966.86,-372.85"/>
<polygon fill="midnightblue" stroke="midnightblue" points="967.39,-376.31 976.83,-371.49 966.44,-369.37 967.39,-376.31"/>
</g>
<!-- Node132&#45;&gt;Node23 -->
<g id="edge121" class="edge">
<title>Node132&#45;&gt;Node23</title>
<path fill="none" stroke="midnightblue" d="M542.03,-542.97C540.88,-520.64 539.93,-459.08 560.61,-414 607.85,-311.01 638.58,-290.1 730.61,-224 750.77,-209.52 776.32,-198.44 797.17,-190.9"/>
<polygon fill="midnightblue" stroke="midnightblue" points="798.39,-194.18 806.68,-187.58 796.08,-187.57 798.39,-194.18"/>
</g>
<!-- Node132&#45;&gt;Node89 -->
<g id="edge130" class="edge">
<title>Node132&#45;&gt;Node89</title>
<path fill="none" stroke="midnightblue" d="M612.69,-546.43C766.27,-535.31 1131.35,-508.88 1289.46,-497.44"/>
<polygon fill="midnightblue" stroke="midnightblue" points="1289.85,-500.92 1299.57,-496.71 1289.35,-493.94 1289.85,-500.92"/>
</g>
<!-- Node132&#45;&gt;Node99 -->
<g id="edge129" class="edge">
<title>Node132&#45;&gt;Node99</title>
<path fill="none" stroke="midnightblue" d="M612.67,-544.73C735.75,-532.84 988.45,-508.44 1101.61,-497.51"/>
<polygon fill="midnightblue" stroke="midnightblue" points="1102.18,-500.97 1111.79,-496.52 1101.5,-494 1102.18,-500.97"/>
</g>
<!-- Node133 -->
<g id="node36" class="node">
<title>Node133</title>
<g id="a_node36"><a xlink:title=" ">
<polygon fill="none" stroke="#bfbfbf" points="434.61,-481.5 434.61,-500.5 490.61,-500.5 490.61,-481.5 434.61,-481.5"/>
<text text-anchor="middle" x="462.61" y="-488.5" font-family="Helvetica,sans-Serif" font-size="10.00">numeric</text>
</a>
</g>
</g>
<!-- Node132&#45;&gt;Node133 -->
<g id="edge120" class="edge">
<title>Node132&#45;&gt;Node133</title>
<path fill="none" stroke="midnightblue" d="M531.15,-542.98C518.43,-533.52 497.69,-518.1 482.36,-506.69"/>
<polygon fill="midnightblue" stroke="midnightblue" points="484.16,-503.67 474.05,-500.51 479.98,-509.29 484.16,-503.67"/>
</g>
<!-- Node118 -->
<g id="node37" class="node">
<title>Node118</title>
<g id="a_node37"><a xlink:href="../../de/dca/variables_8h.html" target="_top" xlink:title=" ">
<polygon fill="none" stroke="red" points="701.61,-420 701.61,-439 815.61,-439 815.61,-420 701.61,-420"/>
<text text-anchor="middle" x="758.61" y="-427" font-family="Helvetica,sans-Serif" font-size="10.00">includes/variables.h</text>
</a>
</g>
</g>
<!-- Node132&#45;&gt;Node118 -->
<g id="edge122" class="edge">
<title>Node132&#45;&gt;Node118</title>
<path fill="none" stroke="midnightblue" d="M551.17,-542.6C565.57,-528.04 596.09,-498.96 626.61,-481 655.49,-464.01 691.11,-450.78 718.07,-442.13"/>
<polygon fill="midnightblue" stroke="midnightblue" points="719.45,-445.36 727.95,-439.04 717.36,-438.68 719.45,-445.36"/>
</g>
<!-- Node118&#45;&gt;Node3 -->
<g id="edge123" class="edge">
<title>Node118&#45;&gt;Node3</title>
<path fill="none" stroke="midnightblue" d="M729.94,-419.99C656.78,-396.64 462.84,-324.02 376.61,-188 362.54,-165.8 362.09,-157.9 357.61,-132 354.96,-116.69 354.87,-99.05 355.35,-86.01"/>
<polygon fill="midnightblue" stroke="midnightblue" points="358.85,-86.08 355.88,-75.91 351.86,-85.72 358.85,-86.08"/>
</g>
<!-- Node118&#45;&gt;Node4 -->
<g id="edge124" class="edge">
<title>Node118&#45;&gt;Node4</title>
<path fill="none" stroke="midnightblue" d="M754.67,-419.68C742.35,-390.82 706.78,-296.89 730.61,-224 750.03,-164.6 761.15,-142.66 815.61,-112 871.45,-80.56 1062.04,-70.85 1146.15,-68.05"/>
<polygon fill="midnightblue" stroke="midnightblue" points="1146.46,-71.54 1156.34,-67.73 1146.24,-64.55 1146.46,-71.54"/>
</g>
<!-- Node118&#45;&gt;Node7 -->
<g id="edge125" class="edge">
<title>Node118&#45;&gt;Node7</title>
<path fill="none" stroke="midnightblue" d="M765.62,-419.68C786.37,-394.19 850.32,-319.69 919.61,-280 947.42,-264.07 1440.13,-118.04 1471.61,-112 1642.34,-79.24 1848.2,-70.33 1947.82,-67.9"/>
<polygon fill="midnightblue" stroke="midnightblue" points="1948.07,-71.4 1957.99,-67.67 1947.91,-64.4 1948.07,-71.4"/>
</g>
<!-- Node118&#45;&gt;Node30 -->
<g id="edge128" class="edge">
<title>Node118&#45;&gt;Node30</title>
<path fill="none" stroke="midnightblue" d="M761.65,-419.86C770.87,-394.85 800.82,-321.53 848.61,-280 879.27,-253.36 895.68,-260.91 932.61,-244 951.04,-235.56 954.8,-231.57 973.61,-224 1006.41,-210.81 1044.7,-198.72 1072.93,-190.4"/>
<polygon fill="midnightblue" stroke="midnightblue" points="1074.23,-193.67 1082.85,-187.51 1072.27,-186.95 1074.23,-193.67"/>
</g>
<!-- Node118&#45;&gt;Node34 -->
<g id="edge127" class="edge">
<title>Node118&#45;&gt;Node34</title>
<path fill="none" stroke="midnightblue" d="M759.25,-419.95C761.62,-394.54 772.19,-318.86 815.61,-280 844.36,-254.27 861.65,-264.06 894.61,-244 948.04,-211.48 1004.21,-163.21 1031.58,-138.62"/>
<polygon fill="midnightblue" stroke="midnightblue" points="1034.06,-141.1 1039.12,-131.8 1029.36,-135.92 1034.06,-141.1"/>
</g>
<!-- Node118&#45;&gt;Node58 -->
<g id="edge126" class="edge">
<title>Node118&#45;&gt;Node58</title>
<path fill="none" stroke="midnightblue" d="M795.24,-419.94C845.34,-408.22 935.28,-387.19 990.09,-374.38"/>
<polygon fill="midnightblue" stroke="midnightblue" points="990.96,-377.77 999.9,-372.08 989.36,-370.95 990.96,-377.77"/>
</g>
<!-- Node134&#45;&gt;Node2 -->
<g id="edge132" class="edge">
<title>Node134&#45;&gt;Node2</title>
<path fill="none" stroke="midnightblue" d="M2089.2,-839.48C1983.31,-814.06 1761.8,-760.89 1666.17,-737.94"/>
<polygon fill="midnightblue" stroke="midnightblue" points="1666.77,-734.48 1656.23,-735.55 1665.14,-741.29 1666.77,-734.48"/>
</g>
<!-- Node134&#45;&gt;Node96 -->
<g id="edge133" class="edge">
<title>Node134&#45;&gt;Node96</title>
<path fill="none" stroke="midnightblue" d="M2160.25,-839.5C2178.9,-817.33 2211.61,-772.04 2211.61,-727 2211.61,-727 2211.61,-727 2211.61,-669 2211.61,-546.6 2192.04,-502.61 2107.61,-414 2072.97,-377.65 1934.37,-329.87 1866.9,-308.15"/>
<polygon fill="midnightblue" stroke="midnightblue" points="1867.68,-304.72 1857.09,-305.01 1865.55,-311.39 1867.68,-304.72"/>
</g>
<!-- Node134&#45;&gt;Node135 -->
<g id="edge134" class="edge">
<title>Node134&#45;&gt;Node135</title>
<path fill="none" stroke="midnightblue" d="M2222.16,-842.18C2306.17,-829.42 2440.95,-808.95 2517.51,-797.32"/>
<polygon fill="midnightblue" stroke="midnightblue" points="2518.1,-800.77 2527.47,-795.81 2517.05,-793.85 2518.1,-800.77"/>
</g>
<!-- Node139 -->
<g id="node50" class="node">
<title>Node139</title>
<g id="a_node50"><a xlink:href="../../d1/d1a/deprecated__variables_8h.html" target="_top" xlink:title=" ">
<polygon fill="none" stroke="red" points="921.11,-414.5 921.11,-444.5 1036.11,-444.5 1036.11,-414.5 921.11,-414.5"/>
<text text-anchor="start" x="929.11" y="-432.5" font-family="Helvetica,sans-Serif" font-size="10.00">includes/deprecated</text>
<text text-anchor="middle" x="978.61" y="-421.5" font-family="Helvetica,sans-Serif" font-size="10.00">_variables.h</text>
</a>
</g>
</g>
<!-- Node134&#45;&gt;Node139 -->
<g id="edge165" class="edge">
<title>Node134&#45;&gt;Node139</title>
<path fill="none" stroke="midnightblue" d="M2072.79,-852.74C1833.3,-848.87 1090.71,-825.15 909.61,-680 839.33,-623.67 921.37,-502.63 960.32,-452.72"/>
<polygon fill="midnightblue" stroke="midnightblue" points="963.13,-454.81 966.6,-444.8 957.65,-450.45 963.13,-454.81"/>
</g>
<!-- Node135&#45;&gt;Node2 -->
<g id="edge137" class="edge">
<title>Node135&#45;&gt;Node2</title>
<path fill="none" stroke="midnightblue" d="M2527.59,-783.51C2371.87,-773.81 1880.11,-743.17 1693.44,-731.54"/>
<polygon fill="midnightblue" stroke="midnightblue" points="1693.38,-728.03 1683.18,-730.9 1692.95,-735.01 1693.38,-728.03"/>
</g>
<!-- Node135&#45;&gt;Node7 -->
<g id="edge136" class="edge">
<title>Node135&#45;&gt;Node7</title>
<path fill="none" stroke="midnightblue" d="M2579.45,-772.4C2585,-750.76 2594.61,-707.99 2594.61,-671 2594.61,-671 2594.61,-671 2594.61,-428.5 2594.61,-360.89 2597.68,-337.19 2561.61,-280 2547.76,-258.04 2534.98,-261.28 2515.61,-244 2454.17,-189.18 2459.54,-148.24 2385.61,-112 2330.98,-85.22 2159.44,-73.69 2067.39,-69.32"/>
<polygon fill="midnightblue" stroke="midnightblue" points="2067.53,-65.82 2057.38,-68.86 2067.21,-72.81 2067.53,-65.82"/>
</g>
<!-- Node135&#45;&gt;Node78 -->
<g id="edge135" class="edge">
<title>Node135&#45;&gt;Node78</title>
<path fill="none" stroke="midnightblue" d="M2567.83,-772.3C2532.64,-709.55 2381.17,-455.54 2178.61,-347 2082.76,-295.64 2036.35,-354.31 1936.61,-311 1916.3,-302.18 1915.24,-293.4 1897.61,-280 1883.97,-269.64 1868.37,-258.32 1856.23,-249.62"/>
<polygon fill="midnightblue" stroke="midnightblue" points="1858.25,-246.77 1848.08,-243.81 1854.18,-252.46 1858.25,-246.77"/>
</g>
<!-- Node135&#45;&gt;Node70 -->
<g id="edge141" class="edge">
<title>Node135&#45;&gt;Node70</title>
<path fill="none" stroke="midnightblue" d="M2587.98,-772.3C2604.74,-751.55 2632.61,-711.03 2632.61,-671 2632.61,-671 2632.61,-671 2632.61,-361.5 2632.61,-321.68 2616.7,-277.16 2606.65,-252.99"/>
<polygon fill="midnightblue" stroke="midnightblue" points="2609.81,-251.48 2602.64,-243.68 2603.38,-254.25 2609.81,-251.48"/>
</g>
<!-- Node136 -->
<g id="node40" class="node">
<title>Node136</title>
<g id="a_node40"><a xlink:href="../../d5/d16/checks_8h.html" target="_top" xlink:title=" ">
<polygon fill="none" stroke="red" points="2930.11,-286 2930.11,-305 3033.11,-305 3033.11,-286 2930.11,-286"/>
<text text-anchor="middle" x="2981.61" y="-293" font-family="Helvetica,sans-Serif" font-size="10.00">includes/checks.h</text>
</a>
</g>
</g>
<!-- Node135&#45;&gt;Node136 -->
<g id="edge138" class="edge">
<title>Node135&#45;&gt;Node136</title>
<path fill="none" stroke="midnightblue" d="M2623.74,-786.07C2668.75,-783.24 2735.48,-772.52 2779.61,-736 2920.57,-619.34 2967.91,-382.87 2978.88,-315.06"/>
<polygon fill="midnightblue" stroke="midnightblue" points="2982.36,-315.46 2980.43,-305.04 2975.45,-314.39 2982.36,-315.46"/>
</g>
<!-- Node135&#45;&gt;Node62 -->
<g id="edge142" class="edge">
<title>Node135&#45;&gt;Node62</title>
<path fill="none" stroke="midnightblue" d="M2623.86,-781.8C2687.25,-772.65 2790.61,-746.21 2790.61,-671 2790.61,-671 2790.61,-671 2790.61,-428.5 2790.61,-384.98 2821.81,-342.68 2843.97,-318.14"/>
<polygon fill="midnightblue" stroke="midnightblue" points="2846.53,-320.52 2850.79,-310.81 2841.41,-315.74 2846.53,-320.52"/>
</g>
<!-- Node135&#45;&gt;Node137 -->
<g id="edge155" class="edge">
<title>Node135&#45;&gt;Node137</title>
<path fill="none" stroke="midnightblue" d="M2571.76,-772.4C2566.21,-750.76 2556.61,-707.99 2556.61,-671 2556.61,-671 2556.61,-671 2556.61,-428.5 2556.61,-381.34 2519.98,-335.63 2497.92,-312.37"/>
<polygon fill="midnightblue" stroke="midnightblue" points="2500.3,-309.81 2490.8,-305.12 2495.3,-314.71 2500.3,-309.81"/>
</g>
<!-- Node138 -->
<g id="node49" class="node">
<title>Node138</title>
<g id="a_node49"><a xlink:href="../../d6/d05/reduction__utilities_8h.html" target="_top" xlink:title=" ">
<polygon fill="none" stroke="red" points="2660.61,-347.5 2660.61,-377.5 2762.61,-377.5 2762.61,-347.5 2660.61,-347.5"/>
<text text-anchor="start" x="2668.61" y="-365.5" font-family="Helvetica,sans-Serif" font-size="10.00">utilities/reduction</text>
<text text-anchor="middle" x="2711.61" y="-354.5" font-family="Helvetica,sans-Serif" font-size="10.00">_utilities.h</text>
</a>
</g>
</g>
<!-- Node135&#45;&gt;Node138 -->
<g id="edge158" class="edge">
<title>Node135&#45;&gt;Node138</title>
<path fill="none" stroke="midnightblue" d="M2606.39,-772.35C2640.75,-754.19 2691.61,-719.17 2691.61,-671 2691.61,-671 2691.61,-671 2691.61,-490 2691.61,-454.01 2699.6,-412.95 2705.48,-387.63"/>
<polygon fill="midnightblue" stroke="midnightblue" points="2708.91,-388.34 2707.85,-377.8 2702.11,-386.71 2708.91,-388.34"/>
</g>
<!-- Node136&#45;&gt;Node65 -->
<g id="edge140" class="edge">
<title>Node136&#45;&gt;Node65</title>
<path fill="none" stroke="midnightblue" d="M2977.74,-285.98C2973.81,-277.32 2967.61,-263.65 2962.61,-252.65"/>
<polygon fill="midnightblue" stroke="midnightblue" points="2965.79,-251.17 2958.47,-243.51 2959.41,-254.06 2965.79,-251.17"/>
</g>
<!-- Node66 -->
<g id="node41" class="node">
<title>Node66</title>
<g id="a_node41"><a xlink:title=" ">
<polygon fill="none" stroke="#bfbfbf" points="3236.61,-224.5 3236.61,-243.5 3280.61,-243.5 3280.61,-224.5 3236.61,-224.5"/>
<text text-anchor="middle" x="3258.61" y="-231.5" font-family="Helvetica,sans-Serif" font-size="10.00">limits</text>
</a>
</g>
</g>
<!-- Node136&#45;&gt;Node66 -->
<g id="edge139" class="edge">
<title>Node136&#45;&gt;Node66</title>
<path fill="none" stroke="midnightblue" d="M3029.02,-285.93C3076.61,-277.08 3152.2,-262.3 3226.34,-244.17"/>
<polygon fill="midnightblue" stroke="midnightblue" points="3227.44,-247.5 3236.31,-241.7 3225.77,-240.7 3227.44,-247.5"/>
</g>
<!-- Node62&#45;&gt;Node4 -->
<g id="edge143" class="edge">
<title>Node62&#45;&gt;Node4</title>
<path fill="none" stroke="midnightblue" d="M2870.6,-280.34C2875.18,-264.51 2879.37,-239.11 2865.61,-224 2751.54,-98.77 1471.49,-71.65 1226.87,-67.6"/>
<polygon fill="midnightblue" stroke="midnightblue" points="1226.71,-64.1 1216.66,-67.43 1226.6,-71.1 1226.71,-64.1"/>
</g>
<!-- Node62&#45;&gt;Node7 -->
<g id="edge153" class="edge">
<title>Node62&#45;&gt;Node7</title>
<path fill="none" stroke="midnightblue" d="M2912.24,-281.11C2942.79,-271.29 2978.66,-257.39 2987.61,-244 2992.55,-236.61 2992.56,-231.38 2987.61,-224 2914.56,-115.08 2842.41,-141.44 2714.61,-112 2592.15,-83.79 2214.72,-71.94 2067.39,-68.31"/>
<polygon fill="midnightblue" stroke="midnightblue" points="2067.27,-64.81 2057.18,-68.06 2067.1,-71.81 2067.27,-64.81"/>
</g>
<!-- Node62&#45;&gt;Node31 -->
<g id="edge144" class="edge">
<title>Node62&#45;&gt;Node31</title>
<path fill="none" stroke="midnightblue" d="M2866.02,-280.32C2865.64,-263.97 2862.26,-237.6 2845.61,-224 2832.43,-213.24 1733.71,-138.66 1532.92,-125.11"/>
<polygon fill="midnightblue" stroke="midnightblue" points="1532.98,-121.6 1522.77,-124.42 1532.51,-128.59 1532.98,-121.6"/>
</g>
<!-- Node62&#45;&gt;Node15 -->
<g id="edge146" class="edge">
<title>Node62&#45;&gt;Node15</title>
<path fill="none" stroke="midnightblue" d="M2819.08,-291.04C2672.92,-280.19 2225.19,-246.93 2098.39,-237.51"/>
<polygon fill="midnightblue" stroke="midnightblue" points="2098.37,-234 2088.14,-236.75 2097.85,-240.98 2098.37,-234"/>
</g>
<!-- Node62&#45;&gt;Node65 -->
<g id="edge148" class="edge">
<title>Node62&#45;&gt;Node65</title>
<path fill="none" stroke="midnightblue" d="M2886.7,-280.4C2900.7,-271.04 2919.02,-258.79 2933.1,-249.38"/>
<polygon fill="midnightblue" stroke="midnightblue" points="2935.29,-252.13 2941.66,-243.66 2931.4,-246.31 2935.29,-252.13"/>
</g>
<!-- Node62&#45;&gt;Node70 -->
<g id="edge154" class="edge">
<title>Node62&#45;&gt;Node70</title>
<path fill="none" stroke="midnightblue" d="M2819.1,-284.14C2770.84,-273.38 2695.71,-256.64 2646.82,-245.74"/>
<polygon fill="midnightblue" stroke="midnightblue" points="2647.33,-242.27 2636.81,-243.51 2645.81,-249.1 2647.33,-242.27"/>
</g>
<!-- Node62&#45;&gt;Node66 -->
<g id="edge149" class="edge">
<title>Node62&#45;&gt;Node66</title>
<path fill="none" stroke="midnightblue" d="M2912.25,-281.92C2915.41,-281.22 2918.55,-280.57 2921.61,-280 3053.05,-255.37 3091.6,-270.44 3226.49,-243.92"/>
<polygon fill="midnightblue" stroke="midnightblue" points="3227.25,-247.33 3236.37,-241.93 3225.87,-240.47 3227.25,-247.33"/>
</g>
<!-- Node63 -->
<g id="node43" class="node">
<title>Node63</title>
<g id="a_node43"><a xlink:title=" ">
<polygon fill="none" stroke="#bfbfbf" points="3035.11,-224.5 3035.11,-243.5 3088.11,-243.5 3088.11,-224.5 3035.11,-224.5"/>
<text text-anchor="middle" x="3061.61" y="-231.5" font-family="Helvetica,sans-Serif" font-size="10.00">iterator</text>
</a>
</g>
</g>
<!-- Node62&#45;&gt;Node63 -->
<g id="edge145" class="edge">
<title>Node62&#45;&gt;Node63</title>
<path fill="none" stroke="midnightblue" d="M2912.06,-280.4C2946.68,-269.89 2993.32,-255.73 3025.25,-246.04"/>
<polygon fill="midnightblue" stroke="midnightblue" points="3026.52,-249.31 3035.07,-243.06 3024.48,-242.61 3026.52,-249.31"/>
</g>
<!-- Node64 -->
<g id="node44" class="node">
<title>Node64</title>
<g id="a_node44"><a xlink:title=" ">
<polygon fill="none" stroke="#bfbfbf" points="2729.11,-224.5 2729.11,-243.5 2770.11,-243.5 2770.11,-224.5 2729.11,-224.5"/>
<text text-anchor="middle" x="2749.61" y="-231.5" font-family="Helvetica,sans-Serif" font-size="10.00">tuple</text>
</a>
</g>
</g>
<!-- Node62&#45;&gt;Node64 -->
<g id="edge147" class="edge">
<title>Node62&#45;&gt;Node64</title>
<path fill="none" stroke="midnightblue" d="M2838.12,-280.4C2819.18,-270.68 2794.17,-257.86 2775.56,-248.31"/>
<polygon fill="midnightblue" stroke="midnightblue" points="2776.98,-245.11 2766.49,-243.66 2773.79,-251.34 2776.98,-245.11"/>
</g>
<!-- Node67 -->
<g id="node45" class="node">
<title>Node67</title>
<g id="a_node45"><a xlink:title=" ">
<polygon fill="none" stroke="#bfbfbf" points="3106.61,-224.5 3106.61,-243.5 3152.61,-243.5 3152.61,-224.5 3106.61,-224.5"/>
<text text-anchor="middle" x="3129.61" y="-231.5" font-family="Helvetica,sans-Serif" font-size="10.00">future</text>
</a>
</g>
</g>
<!-- Node62&#45;&gt;Node67 -->
<g id="edge150" class="edge">
<title>Node62&#45;&gt;Node67</title>
<path fill="none" stroke="midnightblue" d="M2912.31,-282.21C2915.45,-281.45 2918.57,-280.7 2921.61,-280 2996.35,-262.69 3018.32,-262.78 3096.74,-244.07"/>
<polygon fill="midnightblue" stroke="midnightblue" points="3097.69,-247.44 3106.59,-241.69 3096.05,-240.63 3097.69,-247.44"/>
</g>
<!-- Node68 -->
<g id="node46" class="node">
<title>Node68</title>
<g id="a_node46"><a xlink:title=" ">
<polygon fill="none" stroke="#bfbfbf" points="3170.61,-224.5 3170.61,-243.5 3218.61,-243.5 3218.61,-224.5 3170.61,-224.5"/>
<text text-anchor="middle" x="3194.61" y="-231.5" font-family="Helvetica,sans-Serif" font-size="10.00">thread</text>
</a>
</g>
</g>
<!-- Node62&#45;&gt;Node68 -->
<g id="edge151" class="edge">
<title>Node62&#45;&gt;Node68</title>
<path fill="none" stroke="midnightblue" d="M2912.27,-282.03C2915.42,-281.31 2918.56,-280.62 2921.61,-280 3024.2,-259.08 3054.31,-265.8 3160.69,-243.97"/>
<polygon fill="midnightblue" stroke="midnightblue" points="3161.46,-247.39 3170.54,-241.92 3160.03,-240.53 3161.46,-247.39"/>
</g>
<!-- Node69 -->
<g id="node47" class="node">
<title>Node69</title>
<g id="a_node47"><a xlink:title=" ">
<polygon fill="none" stroke="#bfbfbf" points="2788.61,-224.5 2788.61,-243.5 2836.61,-243.5 2836.61,-224.5 2788.61,-224.5"/>
<text text-anchor="middle" x="2812.61" y="-231.5" font-family="Helvetica,sans-Serif" font-size="10.00">mutex</text>
</a>
</g>
</g>
<!-- Node62&#45;&gt;Node69 -->
<g id="edge152" class="edge">
<title>Node62&#45;&gt;Node69</title>
<path fill="none" stroke="midnightblue" d="M2853.05,-280.4C2845.27,-271.66 2835.24,-260.41 2827.12,-251.3"/>
<polygon fill="midnightblue" stroke="midnightblue" points="2829.58,-248.8 2820.32,-243.66 2824.36,-253.45 2829.58,-248.8"/>
</g>
<!-- Node137&#45;&gt;Node7 -->
<g id="edge156" class="edge">
<title>Node137&#45;&gt;Node7</title>
<path fill="none" stroke="midnightblue" d="M2478.68,-285.7C2468.12,-255.46 2428.85,-155.32 2358.61,-112 2311.14,-82.72 2154.45,-72.34 2067.34,-68.78"/>
<polygon fill="midnightblue" stroke="midnightblue" points="2067.46,-65.28 2057.33,-68.38 2067.19,-72.27 2067.46,-65.28"/>
</g>
<!-- Node137&#45;&gt;Node30 -->
<g id="edge157" class="edge">
<title>Node137&#45;&gt;Node30</title>
<path fill="none" stroke="midnightblue" d="M2444.52,-285.95C2376.29,-270.62 2226.07,-238.66 2097.61,-224 1757.61,-185.2 1347.92,-179.56 1185.22,-178.95"/>
<polygon fill="midnightblue" stroke="midnightblue" points="1184.88,-175.45 1174.87,-178.92 1184.86,-182.45 1184.88,-175.45"/>
</g>
<!-- Node138&#45;&gt;Node7 -->
<g id="edge162" class="edge">
<title>Node138&#45;&gt;Node7</title>
<path fill="none" stroke="midnightblue" d="M2709.59,-347.5C2706.41,-324.2 2700.61,-276 2700.61,-235 2700.61,-235 2700.61,-235 2700.61,-177 2700.61,-87.75 2597.91,-130.55 2510.61,-112 2353.14,-78.53 2162.79,-69.92 2067.74,-67.73"/>
<polygon fill="midnightblue" stroke="midnightblue" points="2067.53,-64.23 2057.46,-67.51 2067.38,-71.22 2067.53,-64.23"/>
</g>
<!-- Node138&#45;&gt;Node66 -->
<g id="edge160" class="edge">
<title>Node138&#45;&gt;Node66</title>
<path fill="none" stroke="midnightblue" d="M2762.66,-356.7C2828.18,-349.87 2945.04,-335.38 3042.61,-311 3110.84,-293.95 3187.92,-264.17 3229.04,-247.4"/>
<polygon fill="midnightblue" stroke="midnightblue" points="3230.53,-250.57 3238.45,-243.53 3227.87,-244.09 3230.53,-250.57"/>
</g>
<!-- Node138&#45;&gt;Node62 -->
<g id="edge164" class="edge">
<title>Node138&#45;&gt;Node62</title>
<path fill="none" stroke="midnightblue" d="M2745.02,-347.4C2767.83,-337.77 2798.24,-324.94 2822.81,-314.56"/>
<polygon fill="midnightblue" stroke="midnightblue" points="2824.41,-317.69 2832.26,-310.58 2821.68,-311.24 2824.41,-317.69"/>
</g>
<!-- Node138&#45;&gt;Node64 -->
<g id="edge159" class="edge">
<title>Node138&#45;&gt;Node64</title>
<path fill="none" stroke="midnightblue" d="M2715.82,-347.48C2722.72,-324.51 2736.42,-278.89 2744.09,-253.37"/>
<polygon fill="midnightblue" stroke="midnightblue" points="2747.44,-254.37 2746.97,-243.79 2740.74,-252.36 2747.44,-254.37"/>
</g>
<!-- Node138&#45;&gt;Node69 -->
<g id="edge161" class="edge">
<title>Node138&#45;&gt;Node69</title>
<path fill="none" stroke="midnightblue" d="M2722.8,-347.48C2741.55,-324 2779.2,-276.84 2799.28,-251.69"/>
<polygon fill="midnightblue" stroke="midnightblue" points="2802.09,-253.79 2805.59,-243.79 2796.62,-249.42 2802.09,-253.79"/>
</g>
<!-- Node138&#45;&gt;Node137 -->
<g id="edge163" class="edge">
<title>Node138&#45;&gt;Node137</title>
<path fill="none" stroke="midnightblue" d="M2661.98,-347.48C2620.04,-335.62 2560.72,-318.86 2521.73,-307.84"/>
<polygon fill="midnightblue" stroke="midnightblue" points="2522.36,-304.38 2511.79,-305.03 2520.46,-311.12 2522.36,-304.38"/>
</g>
<!-- Node139&#45;&gt;Node7 -->
<g id="edge166" class="edge">
<title>Node139&#45;&gt;Node7</title>
<path fill="none" stroke="midnightblue" d="M1019.17,-414.49C1044.52,-405.22 1077.55,-392.19 1105.61,-378 1179.01,-340.88 1191.23,-320.88 1262.61,-280 1355.76,-226.65 1377.54,-209.34 1476.61,-168 1525.25,-147.7 1539.93,-149.63 1589.61,-132 1612.55,-123.86 1617,-117.97 1640.61,-112 1746.63,-85.17 1874.08,-74.12 1947.48,-69.73"/>
<polygon fill="midnightblue" stroke="midnightblue" points="1948.13,-73.2 1957.91,-69.13 1947.72,-66.21 1948.13,-73.2"/>
</g>
<!-- Node139&#45;&gt;Node30 -->
<g id="edge168" class="edge">
<title>Node139&#45;&gt;Node30</title>
<path fill="none" stroke="midnightblue" d="M964.6,-414.26C939.47,-386.93 891.83,-325.77 919.61,-280 929.07,-264.41 1033.59,-215.34 1085.16,-191.82"/>
<polygon fill="midnightblue" stroke="midnightblue" points="1086.78,-194.93 1094.44,-187.6 1083.88,-188.55 1086.78,-194.93"/>
</g>
<!-- Node139&#45;&gt;Node58 -->
<g id="edge167" class="edge">
<title>Node139&#45;&gt;Node58</title>
<path fill="none" stroke="midnightblue" d="M991.19,-414.4C1000.24,-404.26 1012.46,-390.57 1021.94,-379.94"/>
<polygon fill="midnightblue" stroke="midnightblue" points="1024.8,-381.99 1028.85,-372.19 1019.58,-377.33 1024.8,-381.99"/>
</g>
</g>
</svg>
