<?xml version="1.0" encoding="UTF-8" standalone="no"?>
<!DOCTYPE svg PUBLIC "-//W3C//DTD SVG 1.1//EN"
 "http://www.w3.org/Graphics/SVG/1.1/DTD/svg11.dtd">
<!-- Generated by graphviz version 2.43.0 (0)
 -->
<!-- Title: /home/runner/work/Documentation/Documentation/master/applications/StructuralMechanicsApplication/custom_elements/spring_damper_element_3D2N.hpp Pages: 1 -->
<!--zoomable 672 -->
<svg id="main" version="1.1" xmlns="http://www.w3.org/2000/svg" xmlns:xlink="http://www.w3.org/1999/xlink" xml:space="preserve" onload="init(evt)">
<style type="text/css"><![CDATA[
.edge:hover path { stroke: red; }
.edge:hover polygon { stroke: red; fill: red; }
]]></style>
<script type="text/javascript"><![CDATA[
var edges = document.getElementsByTagName('g');
if (edges && edges.length) {
  for (var i=0;i<edges.length;i++) {
    if (edges[i].id.substr(0,4)=='edge') {
      edges[i].setAttribute('class','edge');
    }
  }
}
]]></script>
        <defs>
                <circle id="rim" cx="0" cy="0" r="7"/>
                <circle id="rim2" cx="0" cy="0" r="3.5"/>
                <g id="zoomPlus">
                        <use xlink:href="#rim" fill="#404040">
                                <set attributeName="fill" to="#808080" begin="zoomplus.mouseover" end="zoomplus.mouseout"/>
                        </use>
                        <path d="M-4,0h8M0,-4v8" fill="none" stroke="white" stroke-width="1.5" pointer-events="none"/>
                </g>
                <g id="zoomMin">
                        <use xlink:href="#rim" fill="#404040">
                                <set attributeName="fill" to="#808080" begin="zoomminus.mouseover" end="zoomminus.mouseout"/>
                        </use>
                        <path d="M-4,0h8" fill="none" stroke="white" stroke-width="1.5" pointer-events="none"/>
                </g>
                <g id="dirArrow">
                        <path fill="none" stroke="white" stroke-width="1.5" d="M0,-3.0v7 M-2.5,-0.5L0,-3.0L2.5,-0.5"/>
                </g>
               <g id="resetDef">
                       <use xlink:href="#rim2" fill="#404040">
                               <set attributeName="fill" to="#808080" begin="reset.mouseover" end="reset.mouseout"/>
                       </use>
               </g>
        </defs>

<script type="text/javascript">
var viewWidth = 1740;
var viewHeight = 672;
var sectionId = 'dynsection-1';
</script>
<script xlink:href="../../svgpan.js"/>
<svg id="graph" class="graph">
<g id="viewport">
<title>/home/runner/work/Documentation/Documentation/master/applications/StructuralMechanicsApplication/custom_elements/spring_damper_element_3D2N.hpp</title>
<!-- Node1 -->
<g id="node1" class="node">
<title>Node1</title>
<g id="a_node1"><a xlink:title=" ">
<polygon fill="#bfbfbf" stroke="black" points="362,-611.5 362,-663.5 643,-663.5 643,-611.5 362,-611.5"/>
<text text-anchor="start" x="370" y="-651.5" font-family="Helvetica,sans-Serif" font-size="10.00">/home/runner/work/Documentation</text>
<text text-anchor="start" x="370" y="-640.5" font-family="Helvetica,sans-Serif" font-size="10.00">/Documentation/master/applications</text>
<text text-anchor="start" x="370" y="-629.5" font-family="Helvetica,sans-Serif" font-size="10.00">/StructuralMechanicsApplication</text>
<text text-anchor="middle" x="502.5" y="-618.5" font-family="Helvetica,sans-Serif" font-size="10.00">/custom_elements/spring_damper_element_3D2N.hpp</text>
</a>
</g>
</g>
<!-- Node2 -->
<g id="node2" class="node">
<title>Node2</title>
<g id="a_node2"><a xlink:href="../../d7/dae/spring__damper__element__3_d2_n_8cpp.html" target="_top" xlink:title=" ">
<polygon fill="none" stroke="black" points="0,-511.5 0,-563.5 281,-563.5 281,-511.5 0,-511.5"/>
<text text-anchor="start" x="8" y="-551.5" font-family="Helvetica,sans-Serif" font-size="10.00">/home/runner/work/Documentation</text>
<text text-anchor="start" x="8" y="-540.5" font-family="Helvetica,sans-Serif" font-size="10.00">/Documentation/master/applications</text>
<text text-anchor="start" x="8" y="-529.5" font-family="Helvetica,sans-Serif" font-size="10.00">/StructuralMechanicsApplication</text>
<text text-anchor="middle" x="140.5" y="-518.5" font-family="Helvetica,sans-Serif" font-size="10.00">/custom_elements/spring_damper_element_3D2N.cpp</text>
</a>
</g>
</g>
<!-- Node1&#45;&gt;Node2 -->
<g id="edge1" class="edge">
<title>Node1&#45;&gt;Node2</title>
<path fill="none" stroke="midnightblue" d="M400.07,-608.77C347.54,-594.55 284.05,-577.36 233.01,-563.54"/>
<polygon fill="midnightblue" stroke="midnightblue" points="399.18,-612.16 409.75,-611.39 401.01,-605.4 399.18,-612.16"/>
</g>
<!-- Node3 -->
<g id="node3" class="node">
<title>Node3</title>
<g id="a_node3"><a xlink:href="../../dd/d34/adjoint__finite__difference__base__element_8cpp.html" target="_top" xlink:title=" ">
<polygon fill="none" stroke="black" points="299.5,-500.5 299.5,-574.5 493.5,-574.5 493.5,-500.5 299.5,-500.5"/>
<text text-anchor="start" x="307.5" y="-562.5" font-family="Helvetica,sans-Serif" font-size="10.00">/home/runner/work/Documentation</text>
<text text-anchor="start" x="307.5" y="-551.5" font-family="Helvetica,sans-Serif" font-size="10.00">/Documentation/master/applications</text>
<text text-anchor="start" x="307.5" y="-540.5" font-family="Helvetica,sans-Serif" font-size="10.00">/StructuralMechanicsApplication</text>
<text text-anchor="start" x="307.5" y="-529.5" font-family="Helvetica,sans-Serif" font-size="10.00">/custom_response_functions/adjoint</text>
<text text-anchor="start" x="307.5" y="-518.5" font-family="Helvetica,sans-Serif" font-size="10.00">_elements/adjoint_finite_difference</text>
<text text-anchor="middle" x="396.5" y="-507.5" font-family="Helvetica,sans-Serif" font-size="10.00">_base_element.cpp</text>
</a>
</g>
</g>
<!-- Node1&#45;&gt;Node3 -->
<g id="edge2" class="edge">
<title>Node1&#45;&gt;Node3</title>
<path fill="none" stroke="midnightblue" d="M467.62,-604.25C457.4,-594.8 446.16,-584.41 435.69,-574.73"/>
<polygon fill="midnightblue" stroke="midnightblue" points="465.48,-607.04 475.2,-611.26 470.24,-601.9 465.48,-607.04"/>
</g>
<!-- Node4 -->
<g id="node4" class="node">
<title>Node4</title>
<g id="a_node4"><a xlink:href="../../df/d22/adjoint__finite__difference__spring__damper__element__3_d2_n_8cpp.html" target="_top" xlink:title=" ">
<polygon fill="none" stroke="black" points="511.5,-500.5 511.5,-574.5 705.5,-574.5 705.5,-500.5 511.5,-500.5"/>
<text text-anchor="start" x="519.5" y="-562.5" font-family="Helvetica,sans-Serif" font-size="10.00">/home/runner/work/Documentation</text>
<text text-anchor="start" x="519.5" y="-551.5" font-family="Helvetica,sans-Serif" font-size="10.00">/Documentation/master/applications</text>
<text text-anchor="start" x="519.5" y="-540.5" font-family="Helvetica,sans-Serif" font-size="10.00">/StructuralMechanicsApplication</text>
<text text-anchor="start" x="519.5" y="-529.5" font-family="Helvetica,sans-Serif" font-size="10.00">/custom_response_functions/adjoint</text>
<text text-anchor="start" x="519.5" y="-518.5" font-family="Helvetica,sans-Serif" font-size="10.00">_elements/adjoint_finite_difference</text>
<text text-anchor="middle" x="608.5" y="-507.5" font-family="Helvetica,sans-Serif" font-size="10.00">_spring_damper_element_3D2N.cpp</text>
</a>
</g>
</g>
<!-- Node1&#45;&gt;Node4 -->
<g id="edge3" class="edge">
<title>Node1&#45;&gt;Node4</title>
<path fill="none" stroke="midnightblue" d="M537.38,-604.25C547.6,-594.8 558.84,-584.41 569.31,-574.73"/>
<polygon fill="midnightblue" stroke="midnightblue" points="534.76,-601.9 529.8,-611.26 539.52,-607.04 534.76,-601.9"/>
</g>
<!-- Node5 -->
<g id="node5" class="node">
<title>Node5</title>
<g id="a_node5"><a xlink:href="../../da/d9a/structural__mechanics__application_8h.html" target="_top" xlink:title=" ">
<polygon fill="none" stroke="black" points="723.5,-511.5 723.5,-563.5 917.5,-563.5 917.5,-511.5 723.5,-511.5"/>
<text text-anchor="start" x="731.5" y="-551.5" font-family="Helvetica,sans-Serif" font-size="10.00">/home/runner/work/Documentation</text>
<text text-anchor="start" x="731.5" y="-540.5" font-family="Helvetica,sans-Serif" font-size="10.00">/Documentation/master/applications</text>
<text text-anchor="start" x="731.5" y="-529.5" font-family="Helvetica,sans-Serif" font-size="10.00">/StructuralMechanicsApplication</text>
<text text-anchor="middle" x="820.5" y="-518.5" font-family="Helvetica,sans-Serif" font-size="10.00">/structural_mechanics_application.h</text>
</a>
</g>
</g>
<!-- Node1&#45;&gt;Node5 -->
<g id="edge4" class="edge">
<title>Node1&#45;&gt;Node5</title>
<path fill="none" stroke="midnightblue" d="M602.42,-608.61C637.92,-598.41 678.1,-586.54 714.5,-575 725.82,-571.41 737.76,-567.46 749.39,-563.53"/>
<polygon fill="midnightblue" stroke="midnightblue" points="601.19,-605.32 592.54,-611.44 603.12,-612.05 601.19,-605.32"/>
</g>
<!-- Node6 -->
<g id="node6" class="node">
<title>Node6</title>
<g id="a_node6"><a xlink:href="../../d0/d34/kratos__internals_8h.html" target="_top" xlink:title=" ">
<polygon fill="none" stroke="black" points="507.5,-406 507.5,-458 701.5,-458 701.5,-406 507.5,-406"/>
<text text-anchor="start" x="515.5" y="-446" font-family="Helvetica,sans-Serif" font-size="10.00">/home/runner/work/Documentation</text>
<text text-anchor="start" x="515.5" y="-435" font-family="Helvetica,sans-Serif" font-size="10.00">/Documentation/master/applications</text>
<text text-anchor="start" x="515.5" y="-424" font-family="Helvetica,sans-Serif" font-size="10.00">/CSharpWrapperApplication/custom</text>
<text text-anchor="middle" x="604.5" y="-413" font-family="Helvetica,sans-Serif" font-size="10.00">_includes/kratos_internals.h</text>
</a>
</g>
</g>
<!-- Node5&#45;&gt;Node6 -->
<g id="edge5" class="edge">
<title>Node5&#45;&gt;Node6</title>
<path fill="none" stroke="midnightblue" d="M758.86,-506.97C726.57,-491.49 687.46,-472.75 656.68,-458"/>
<polygon fill="midnightblue" stroke="midnightblue" points="757.68,-510.28 768.21,-511.45 760.71,-503.97 757.68,-510.28"/>
</g>
<!-- Node11 -->
<g id="node11" class="node">
<title>Node11</title>
<g id="a_node11"><a xlink:href="../../db/d93/structural__mechanics__application_8cpp.html" target="_top" xlink:title=" ">
<polygon fill="none" stroke="black" points="719,-406 719,-458 922,-458 922,-406 719,-406"/>
<text text-anchor="start" x="727" y="-446" font-family="Helvetica,sans-Serif" font-size="10.00">/home/runner/work/Documentation</text>
<text text-anchor="start" x="727" y="-435" font-family="Helvetica,sans-Serif" font-size="10.00">/Documentation/master/applications</text>
<text text-anchor="start" x="727" y="-424" font-family="Helvetica,sans-Serif" font-size="10.00">/StructuralMechanicsApplication</text>
<text text-anchor="middle" x="820.5" y="-413" font-family="Helvetica,sans-Serif" font-size="10.00">/structural_mechanics_application.cpp</text>
</a>
</g>
</g>
<!-- Node5&#45;&gt;Node11 -->
<g id="edge10" class="edge">
<title>Node5&#45;&gt;Node11</title>
<path fill="none" stroke="midnightblue" d="M820.5,-501.09C820.5,-486.99 820.5,-471.07 820.5,-458.18"/>
<polygon fill="midnightblue" stroke="midnightblue" points="817,-501.45 820.5,-511.45 824,-501.45 817,-501.45"/>
</g>
<!-- Node12 -->
<g id="node12" class="node">
<title>Node12</title>
<g id="a_node12"><a xlink:href="../../d8/df8/small__displacement__simp__element_8h.html" target="_top" xlink:title=" ">
<polygon fill="none" stroke="black" points="940.5,-400.5 940.5,-463.5 1148.5,-463.5 1148.5,-400.5 940.5,-400.5"/>
<text text-anchor="start" x="948.5" y="-451.5" font-family="Helvetica,sans-Serif" font-size="10.00">/home/runner/work/Documentation</text>
<text text-anchor="start" x="948.5" y="-440.5" font-family="Helvetica,sans-Serif" font-size="10.00">/Documentation/master/applications</text>
<text text-anchor="start" x="948.5" y="-429.5" font-family="Helvetica,sans-Serif" font-size="10.00">/TopologyOptimizationApplication</text>
<text text-anchor="start" x="948.5" y="-418.5" font-family="Helvetica,sans-Serif" font-size="10.00">/custom_elements/small_displacement</text>
<text text-anchor="middle" x="1044.5" y="-407.5" font-family="Helvetica,sans-Serif" font-size="10.00">_simp_element.h</text>
</a>
</g>
</g>
<!-- Node5&#45;&gt;Node12 -->
<g id="edge11" class="edge">
<title>Node5&#45;&gt;Node12</title>
<path fill="none" stroke="midnightblue" d="M884.09,-507.12C913.57,-493.5 948.6,-477.31 978.39,-463.55"/>
<polygon fill="midnightblue" stroke="midnightblue" points="882.33,-504.07 874.72,-511.45 885.27,-510.43 882.33,-504.07"/>
</g>
<!-- Node7 -->
<g id="node7" class="node">
<title>Node7</title>
<g id="a_node7"><a xlink:href="../../d0/d29/kratos__wrapper_8h.html" target="_top" xlink:title=" ">
<polygon fill="none" stroke="black" points="306.5,-311.5 306.5,-363.5 500.5,-363.5 500.5,-311.5 306.5,-311.5"/>
<text text-anchor="start" x="314.5" y="-351.5" font-family="Helvetica,sans-Serif" font-size="10.00">/home/runner/work/Documentation</text>
<text text-anchor="start" x="314.5" y="-340.5" font-family="Helvetica,sans-Serif" font-size="10.00">/Documentation/master/applications</text>
<text text-anchor="start" x="314.5" y="-329.5" font-family="Helvetica,sans-Serif" font-size="10.00">/CSharpWrapperApplication/custom</text>
<text text-anchor="middle" x="403.5" y="-318.5" font-family="Helvetica,sans-Serif" font-size="10.00">_includes/kratos_wrapper.h</text>
</a>
</g>
</g>
<!-- Node6&#45;&gt;Node7 -->
<g id="edge6" class="edge">
<title>Node6&#45;&gt;Node7</title>
<path fill="none" stroke="midnightblue" d="M540.86,-401.71C514.2,-389.44 483.53,-375.33 457.94,-363.55"/>
<polygon fill="midnightblue" stroke="midnightblue" points="539.56,-404.97 550.11,-405.97 542.49,-398.61 539.56,-404.97"/>
</g>
<!-- Node10 -->
<g id="node10" class="node">
<title>Node10</title>
<g id="a_node10"><a xlink:href="../../d5/d45/kratos__internals_8cpp.html" target="_top" xlink:title=" ">
<polygon fill="none" stroke="black" points="518.5,-311.5 518.5,-363.5 712.5,-363.5 712.5,-311.5 518.5,-311.5"/>
<text text-anchor="start" x="526.5" y="-351.5" font-family="Helvetica,sans-Serif" font-size="10.00">/home/runner/work/Documentation</text>
<text text-anchor="start" x="526.5" y="-340.5" font-family="Helvetica,sans-Serif" font-size="10.00">/Documentation/master/applications</text>
<text text-anchor="start" x="526.5" y="-329.5" font-family="Helvetica,sans-Serif" font-size="10.00">/CSharpWrapperApplication/custom</text>
<text text-anchor="middle" x="615.5" y="-318.5" font-family="Helvetica,sans-Serif" font-size="10.00">_sources/kratos_internals.cpp</text>
</a>
</g>
</g>
<!-- Node6&#45;&gt;Node10 -->
<g id="edge9" class="edge">
<title>Node6&#45;&gt;Node10</title>
<path fill="none" stroke="midnightblue" d="M608.72,-395.49C609.98,-384.91 611.33,-373.53 612.5,-363.75"/>
<polygon fill="midnightblue" stroke="midnightblue" points="605.21,-395.38 607.51,-405.72 612.16,-396.21 605.21,-395.38"/>
</g>
<!-- Node8 -->
<g id="node8" class="node">
<title>Node8</title>
<g id="a_node8"><a xlink:href="../../da/df4/kratos__wrapper_8cpp.html" target="_top" xlink:title=" ">
<polygon fill="none" stroke="black" points="97.5,-211.5 97.5,-263.5 291.5,-263.5 291.5,-211.5 97.5,-211.5"/>
<text text-anchor="start" x="105.5" y="-251.5" font-family="Helvetica,sans-Serif" font-size="10.00">/home/runner/work/Documentation</text>
<text text-anchor="start" x="105.5" y="-240.5" font-family="Helvetica,sans-Serif" font-size="10.00">/Documentation/master/applications</text>
<text text-anchor="start" x="105.5" y="-229.5" font-family="Helvetica,sans-Serif" font-size="10.00">/CSharpWrapperApplication/custom</text>
<text text-anchor="middle" x="194.5" y="-218.5" font-family="Helvetica,sans-Serif" font-size="10.00">_sources/kratos_wrapper.cpp</text>
</a>
</g>
</g>
<!-- Node7&#45;&gt;Node8 -->
<g id="edge7" class="edge">
<title>Node7&#45;&gt;Node8</title>
<path fill="none" stroke="midnightblue" d="M340.56,-306.99C311,-293.13 276.16,-276.79 247.91,-263.54"/>
<polygon fill="midnightblue" stroke="midnightblue" points="339.41,-310.31 349.95,-311.39 342.38,-303.98 339.41,-310.31"/>
</g>
<!-- Node9 -->
<g id="node9" class="node">
<title>Node9</title>
<g id="a_node9"><a xlink:href="../../d9/df3/_c_sharp_wrapper_application_2external__bindings_2kratos__external__bindings_8cpp.html" target="_top" xlink:title=" ">
<polygon fill="none" stroke="black" points="310,-211.5 310,-263.5 519,-263.5 519,-211.5 310,-211.5"/>
<text text-anchor="start" x="318" y="-251.5" font-family="Helvetica,sans-Serif" font-size="10.00">/home/runner/work/Documentation</text>
<text text-anchor="start" x="318" y="-240.5" font-family="Helvetica,sans-Serif" font-size="10.00">/Documentation/master/applications</text>
<text text-anchor="start" x="318" y="-229.5" font-family="Helvetica,sans-Serif" font-size="10.00">/CSharpWrapperApplication/external</text>
<text text-anchor="middle" x="414.5" y="-218.5" font-family="Helvetica,sans-Serif" font-size="10.00">_bindings/kratos_external_bindings.cpp</text>
</a>
</g>
</g>
<!-- Node7&#45;&gt;Node9 -->
<g id="edge8" class="edge">
<title>Node7&#45;&gt;Node9</title>
<path fill="none" stroke="midnightblue" d="M407.46,-301.2C408.86,-288.78 410.4,-275.07 411.68,-263.65"/>
<polygon fill="midnightblue" stroke="midnightblue" points="403.97,-300.93 406.33,-311.26 410.93,-301.72 403.97,-300.93"/>
</g>
<!-- Node13 -->
<g id="node13" class="node">
<title>Node13</title>
<g id="a_node13"><a xlink:href="../../da/d01/small__displacement__simp__element_8cpp.html" target="_top" xlink:title=" ">
<polygon fill="none" stroke="black" points="558.5,-206 558.5,-269 766.5,-269 766.5,-206 558.5,-206"/>
<text text-anchor="start" x="566.5" y="-257" font-family="Helvetica,sans-Serif" font-size="10.00">/home/runner/work/Documentation</text>
<text text-anchor="start" x="566.5" y="-246" font-family="Helvetica,sans-Serif" font-size="10.00">/Documentation/master/applications</text>
<text text-anchor="start" x="566.5" y="-235" font-family="Helvetica,sans-Serif" font-size="10.00">/TopologyOptimizationApplication</text>
<text text-anchor="start" x="566.5" y="-224" font-family="Helvetica,sans-Serif" font-size="10.00">/custom_elements/small_displacement</text>
<text text-anchor="middle" x="662.5" y="-213" font-family="Helvetica,sans-Serif" font-size="10.00">_simp_element.cpp</text>
</a>
</g>
</g>
<!-- Node12&#45;&gt;Node13 -->
<g id="edge12" class="edge">
<title>Node12&#45;&gt;Node13</title>
<path fill="none" stroke="midnightblue" d="M974.95,-395.95C902.94,-359.67 791.57,-303.54 723.06,-269.02"/>
<polygon fill="midnightblue" stroke="midnightblue" points="973.47,-399.12 983.97,-400.5 976.62,-392.87 973.47,-399.12"/>
</g>
<!-- Node14 -->
<g id="node14" class="node">
<title>Node14</title>
<g id="a_node14"><a xlink:href="../../d5/d7a/structure__adjoint__sensitivity__strategy_8h.html" target="_top" xlink:title=" ">
<polygon fill="none" stroke="black" points="1537,-206 1537,-269 1732,-269 1732,-206 1537,-206"/>
<text text-anchor="start" x="1545" y="-257" font-family="Helvetica,sans-Serif" font-size="10.00">/home/runner/work/Documentation</text>
<text text-anchor="start" x="1545" y="-246" font-family="Helvetica,sans-Serif" font-size="10.00">/Documentation/master/applications</text>
<text text-anchor="start" x="1545" y="-235" font-family="Helvetica,sans-Serif" font-size="10.00">/TopologyOptimizationApplication</text>
<text text-anchor="start" x="1545" y="-224" font-family="Helvetica,sans-Serif" font-size="10.00">/custom_strategies/structure_adjoint</text>
<text text-anchor="middle" x="1634.5" y="-213" font-family="Helvetica,sans-Serif" font-size="10.00">_sensitivity_strategy.h</text>
</a>
</g>
</g>
<!-- Node12&#45;&gt;Node14 -->
<g id="edge13" class="edge">
<title>Node12&#45;&gt;Node14</title>
<path fill="none" stroke="midnightblue" d="M1150.49,-397.32C1248.45,-366.05 1398,-318 1527.5,-275 1533.27,-273.08 1539.22,-271.09 1545.21,-269.08"/>
<polygon fill="midnightblue" stroke="midnightblue" points="1149.34,-394.01 1140.87,-400.38 1151.46,-400.68 1149.34,-394.01"/>
</g>
<!-- Node16 -->
<g id="node16" class="node">
<title>Node16</title>
<g id="a_node16"><a xlink:href="../../db/d32/topology__optimization__application_8h.html" target="_top" xlink:title=" ">
<polygon fill="none" stroke="black" points="946,-311.5 946,-363.5 1143,-363.5 1143,-311.5 946,-311.5"/>
<text text-anchor="start" x="954" y="-351.5" font-family="Helvetica,sans-Serif" font-size="10.00">/home/runner/work/Documentation</text>
<text text-anchor="start" x="954" y="-340.5" font-family="Helvetica,sans-Serif" font-size="10.00">/Documentation/master/applications</text>
<text text-anchor="start" x="954" y="-329.5" font-family="Helvetica,sans-Serif" font-size="10.00">/TopologyOptimizationApplication</text>
<text text-anchor="middle" x="1044.5" y="-318.5" font-family="Helvetica,sans-Serif" font-size="10.00">/topology_optimization_application.h</text>
</a>
</g>
</g>
<!-- Node12&#45;&gt;Node16 -->
<g id="edge15" class="edge">
<title>Node12&#45;&gt;Node16</title>
<path fill="none" stroke="midnightblue" d="M1044.5,-390.42C1044.5,-381.36 1044.5,-372 1044.5,-363.77"/>
<polygon fill="midnightblue" stroke="midnightblue" points="1041,-390.46 1044.5,-400.46 1048,-390.46 1041,-390.46"/>
</g>
<!-- Node15 -->
<g id="node15" class="node">
<title>Node15</title>
<g id="a_node15"><a xlink:href="../../d1/d32/_topology_optimization_application_2custom__python_2add__custom__strategies__to__python_8cpp.html" target="_top" xlink:title=" ">
<polygon fill="none" stroke="black" points="1416,-100.5 1416,-163.5 1627,-163.5 1627,-100.5 1416,-100.5"/>
<text text-anchor="start" x="1424" y="-151.5" font-family="Helvetica,sans-Serif" font-size="10.00">/home/runner/work/Documentation</text>
<text text-anchor="start" x="1424" y="-140.5" font-family="Helvetica,sans-Serif" font-size="10.00">/Documentation/master/applications</text>
<text text-anchor="start" x="1424" y="-129.5" font-family="Helvetica,sans-Serif" font-size="10.00">/TopologyOptimizationApplication</text>
<text text-anchor="start" x="1424" y="-118.5" font-family="Helvetica,sans-Serif" font-size="10.00">/custom_python/add_custom_strategies</text>
<text text-anchor="middle" x="1521.5" y="-107.5" font-family="Helvetica,sans-Serif" font-size="10.00">_to_python.cpp</text>
</a>
</g>
</g>
<!-- Node14&#45;&gt;Node15 -->
<g id="edge14" class="edge">
<title>Node14&#45;&gt;Node15</title>
<path fill="none" stroke="midnightblue" d="M1593.27,-198.73C1580.74,-187.26 1567.13,-174.79 1555.16,-163.83"/>
<polygon fill="midnightblue" stroke="midnightblue" points="1591.16,-201.55 1600.9,-205.73 1595.89,-196.39 1591.16,-201.55"/>
</g>
<!-- Node16&#45;&gt;Node13 -->
<g id="edge16" class="edge">
<title>Node16&#45;&gt;Node13</title>
<path fill="none" stroke="midnightblue" d="M936.21,-313.1C888.3,-302.28 831.39,-288.78 780.5,-275 773.57,-273.12 766.43,-271.11 759.25,-269.03"/>
<polygon fill="midnightblue" stroke="midnightblue" points="935.46,-316.52 945.98,-315.3 936.99,-309.69 935.46,-316.52"/>
</g>
<!-- Node16&#45;&gt;Node14 -->
<g id="edge19" class="edge">
<title>Node16&#45;&gt;Node14</title>
<path fill="none" stroke="midnightblue" d="M1153.1,-328.98C1251.73,-320.66 1400.71,-304.38 1527.5,-275 1534.86,-273.29 1542.43,-271.28 1549.97,-269.08"/>
<polygon fill="midnightblue" stroke="midnightblue" points="1152.8,-325.49 1143.12,-329.81 1153.38,-332.47 1152.8,-325.49"/>
</g>
<!-- Node16&#45;&gt;Node16 -->
<g id="edge28" class="edge">
<title>Node16&#45;&gt;Node16</title>
<path fill="none" stroke="midnightblue" d="M1152.82,-348.67C1157.97,-345.86 1161,-342.14 1161,-337.5 1161,-330.43 1153.97,-325.49 1143.09,-322.67"/>
<polygon fill="midnightblue" stroke="midnightblue" points="1151.22,-345.53 1143.09,-352.33 1153.68,-352.08 1151.22,-345.53"/>
</g>
<!-- Node17 -->
<g id="node17" class="node">
<title>Node17</title>
<g id="a_node17"><a xlink:href="../../dc/dc2/residualbased__incrementalupdate__static__simp__scheme_8h.html" target="_top" xlink:title=" ">
<polygon fill="none" stroke="black" points="1300.5,-200.5 1300.5,-274.5 1518.5,-274.5 1518.5,-200.5 1300.5,-200.5"/>
<text text-anchor="start" x="1308.5" y="-262.5" font-family="Helvetica,sans-Serif" font-size="10.00">/home/runner/work/Documentation</text>
<text text-anchor="start" x="1308.5" y="-251.5" font-family="Helvetica,sans-Serif" font-size="10.00">/Documentation/master/applications</text>
<text text-anchor="start" x="1308.5" y="-240.5" font-family="Helvetica,sans-Serif" font-size="10.00">/TopologyOptimizationApplication</text>
<text text-anchor="start" x="1308.5" y="-229.5" font-family="Helvetica,sans-Serif" font-size="10.00">/custom_strategies/custom_schemes</text>
<text text-anchor="start" x="1308.5" y="-218.5" font-family="Helvetica,sans-Serif" font-size="10.00">/residualbased_incrementalupdate_static</text>
<text text-anchor="middle" x="1409.5" y="-207.5" font-family="Helvetica,sans-Serif" font-size="10.00">_simp_scheme.h</text>
</a>
</g>
</g>
<!-- Node16&#45;&gt;Node17 -->
<g id="edge17" class="edge">
<title>Node16&#45;&gt;Node17</title>
<path fill="none" stroke="midnightblue" d="M1153.06,-310.86C1196.28,-300.29 1246.38,-287.58 1291.5,-275 1294.39,-274.19 1297.32,-273.37 1300.27,-272.52"/>
<polygon fill="midnightblue" stroke="midnightblue" points="1151.98,-307.52 1143.09,-313.29 1153.64,-314.32 1151.98,-307.52"/>
</g>
<!-- Node18 -->
<g id="node18" class="node">
<title>Node18</title>
<g id="a_node18"><a xlink:href="../../db/db6/structure__response__function__utilities_8h.html" target="_top" xlink:title=" ">
<polygon fill="none" stroke="black" points="822.5,-206 822.5,-269 1016.5,-269 1016.5,-206 822.5,-206"/>
<text text-anchor="start" x="830.5" y="-257" font-family="Helvetica,sans-Serif" font-size="10.00">/home/runner/work/Documentation</text>
<text text-anchor="start" x="830.5" y="-246" font-family="Helvetica,sans-Serif" font-size="10.00">/Documentation/master/applications</text>
<text text-anchor="start" x="830.5" y="-235" font-family="Helvetica,sans-Serif" font-size="10.00">/TopologyOptimizationApplication</text>
<text text-anchor="start" x="830.5" y="-224" font-family="Helvetica,sans-Serif" font-size="10.00">/custom_utilities/structure_response</text>
<text text-anchor="middle" x="919.5" y="-213" font-family="Helvetica,sans-Serif" font-size="10.00">_function_utilities.h</text>
</a>
</g>
</g>
<!-- Node16&#45;&gt;Node18 -->
<g id="edge20" class="edge">
<title>Node16&#45;&gt;Node18</title>
<path fill="none" stroke="midnightblue" d="M1004.4,-305.06C989.78,-293.6 973.27,-280.65 958.72,-269.25"/>
<polygon fill="midnightblue" stroke="midnightblue" points="1002.28,-307.85 1012.31,-311.26 1006.6,-302.34 1002.28,-307.85"/>
</g>
<!-- Node20 -->
<g id="node20" class="node">
<title>Node20</title>
<g id="a_node20"><a xlink:href="../../d3/d19/topology__updating__utilities_8h.html" target="_top" xlink:title=" ">
<polygon fill="none" stroke="black" points="947.5,-100.5 947.5,-163.5 1141.5,-163.5 1141.5,-100.5 947.5,-100.5"/>
<text text-anchor="start" x="955.5" y="-151.5" font-family="Helvetica,sans-Serif" font-size="10.00">/home/runner/work/Documentation</text>
<text text-anchor="start" x="955.5" y="-140.5" font-family="Helvetica,sans-Serif" font-size="10.00">/Documentation/master/applications</text>
<text text-anchor="start" x="955.5" y="-129.5" font-family="Helvetica,sans-Serif" font-size="10.00">/TopologyOptimizationApplication</text>
<text text-anchor="start" x="955.5" y="-118.5" font-family="Helvetica,sans-Serif" font-size="10.00">/custom_utilities/topology_updating</text>
<text text-anchor="middle" x="1044.5" y="-107.5" font-family="Helvetica,sans-Serif" font-size="10.00">_utilities.h</text>
</a>
</g>
</g>
<!-- Node16&#45;&gt;Node20 -->
<g id="edge26" class="edge">
<title>Node16&#45;&gt;Node20</title>
<path fill="none" stroke="midnightblue" d="M1044.5,-300.82C1044.5,-261.95 1044.5,-200.44 1044.5,-163.67"/>
<polygon fill="midnightblue" stroke="midnightblue" points="1041,-301.14 1044.5,-311.14 1048,-301.14 1041,-301.14"/>
</g>
<!-- Node21 -->
<g id="node21" class="node">
<title>Node21</title>
<g id="a_node21"><a xlink:href="../../de/da4/topology__filtering__utilities_8h.html" target="_top" xlink:title=" ">
<polygon fill="none" stroke="black" points="697.5,-100.5 697.5,-163.5 891.5,-163.5 891.5,-100.5 697.5,-100.5"/>
<text text-anchor="start" x="705.5" y="-151.5" font-family="Helvetica,sans-Serif" font-size="10.00">/home/runner/work/Documentation</text>
<text text-anchor="start" x="705.5" y="-140.5" font-family="Helvetica,sans-Serif" font-size="10.00">/Documentation/master/applications</text>
<text text-anchor="start" x="705.5" y="-129.5" font-family="Helvetica,sans-Serif" font-size="10.00">/TopologyOptimizationApplication</text>
<text text-anchor="start" x="705.5" y="-118.5" font-family="Helvetica,sans-Serif" font-size="10.00">/custom_utilities/topology_filtering</text>
<text text-anchor="middle" x="794.5" y="-107.5" font-family="Helvetica,sans-Serif" font-size="10.00">_utilities.h</text>
</a>
</g>
</g>
<!-- Node16&#45;&gt;Node21 -->
<g id="edge24" class="edge">
<title>Node16&#45;&gt;Node21</title>
<path fill="none" stroke="midnightblue" d="M935.98,-319.48C884.41,-309.12 830.37,-294.17 813.5,-275 786.71,-244.57 786.33,-195.32 789.59,-163.56"/>
<polygon fill="midnightblue" stroke="midnightblue" points="935.42,-322.94 945.91,-321.43 936.77,-316.07 935.42,-322.94"/>
</g>
<!-- Node22 -->
<g id="node22" class="node">
<title>Node22</title>
<g id="a_node22"><a xlink:href="../../d2/d19/topology__optimization__application_8cpp.html" target="_top" xlink:title=" ">
<polygon fill="none" stroke="black" points="1073,-211.5 1073,-263.5 1282,-263.5 1282,-211.5 1073,-211.5"/>
<text text-anchor="start" x="1081" y="-251.5" font-family="Helvetica,sans-Serif" font-size="10.00">/home/runner/work/Documentation</text>
<text text-anchor="start" x="1081" y="-240.5" font-family="Helvetica,sans-Serif" font-size="10.00">/Documentation/master/applications</text>
<text text-anchor="start" x="1081" y="-229.5" font-family="Helvetica,sans-Serif" font-size="10.00">/TopologyOptimizationApplication</text>
<text text-anchor="middle" x="1177.5" y="-218.5" font-family="Helvetica,sans-Serif" font-size="10.00">/topology_optimization_application.cpp</text>
</a>
</g>
</g>
<!-- Node16&#45;&gt;Node22 -->
<g id="edge27" class="edge">
<title>Node16&#45;&gt;Node22</title>
<path fill="none" stroke="midnightblue" d="M1086.91,-305.25C1105.14,-291.82 1126.16,-276.33 1143.37,-263.65"/>
<polygon fill="midnightblue" stroke="midnightblue" points="1084.73,-302.51 1078.75,-311.26 1088.88,-308.15 1084.73,-302.51"/>
</g>
<!-- Node17&#45;&gt;Node15 -->
<g id="edge18" class="edge">
<title>Node17&#45;&gt;Node15</title>
<path fill="none" stroke="midnightblue" d="M1456.1,-193.44C1466.97,-183.39 1478.34,-172.89 1488.48,-163.52"/>
<polygon fill="midnightblue" stroke="midnightblue" points="1453.64,-190.94 1448.67,-200.3 1458.39,-196.08 1453.64,-190.94"/>
</g>
<!-- Node19 -->
<g id="node19" class="node">
<title>Node19</title>
<g id="a_node19"><a xlink:href="../../de/d8e/_topology_optimization_application_2custom__python_2add__custom__utilities__to__python_8cpp.html" target="_top" xlink:title=" ">
<polygon fill="none" stroke="black" points="820,-0.5 820,-63.5 1019,-63.5 1019,-0.5 820,-0.5"/>
<text text-anchor="start" x="828" y="-51.5" font-family="Helvetica,sans-Serif" font-size="10.00">/home/runner/work/Documentation</text>
<text text-anchor="start" x="828" y="-40.5" font-family="Helvetica,sans-Serif" font-size="10.00">/Documentation/master/applications</text>
<text text-anchor="start" x="828" y="-29.5" font-family="Helvetica,sans-Serif" font-size="10.00">/TopologyOptimizationApplication</text>
<text text-anchor="start" x="828" y="-18.5" font-family="Helvetica,sans-Serif" font-size="10.00">/custom_python/add_custom_utilities</text>
<text text-anchor="middle" x="919.5" y="-7.5" font-family="Helvetica,sans-Serif" font-size="10.00">_to_python.cpp</text>
</a>
</g>
</g>
<!-- Node18&#45;&gt;Node19 -->
<g id="edge21" class="edge">
<title>Node18&#45;&gt;Node19</title>
<path fill="none" stroke="midnightblue" d="M919.5,-195.11C919.5,-156.1 919.5,-98.54 919.5,-63.53"/>
<polygon fill="midnightblue" stroke="midnightblue" points="916,-195.59 919.5,-205.59 923,-195.59 916,-195.59"/>
</g>
<!-- Node18&#45;&gt;Node20 -->
<g id="edge22" class="edge">
<title>Node18&#45;&gt;Node20</title>
<path fill="none" stroke="midnightblue" d="M964.72,-199.06C978.69,-187.49 993.9,-174.9 1007.26,-163.83"/>
<polygon fill="midnightblue" stroke="midnightblue" points="962.14,-196.65 956.67,-205.73 966.6,-202.05 962.14,-196.65"/>
</g>
<!-- Node20&#45;&gt;Node19 -->
<g id="edge23" class="edge">
<title>Node20&#45;&gt;Node19</title>
<path fill="none" stroke="midnightblue" d="M997.09,-93.83C984.37,-83.86 970.77,-73.2 958.57,-63.63"/>
<polygon fill="midnightblue" stroke="midnightblue" points="995.26,-96.85 1005.29,-100.26 999.58,-91.34 995.26,-96.85"/>
</g>
<!-- Node21&#45;&gt;Node19 -->
<g id="edge25" class="edge">
<title>Node21&#45;&gt;Node19</title>
<path fill="none" stroke="midnightblue" d="M841.91,-93.83C854.63,-83.86 868.23,-73.2 880.43,-63.63"/>
<polygon fill="midnightblue" stroke="midnightblue" points="839.42,-91.34 833.71,-100.26 843.74,-96.85 839.42,-91.34"/>
</g>
</g>
</svg>
        <g id="navigator" transform="translate(0 0)" fill="#404254">
                <rect fill="#f2f5e9" fill-opacity="0.5" stroke="#606060" stroke-width=".5" x="0" y="0" width="60" height="60"/>
                <use id="zoomplus" xlink:href="#zoomPlus" x="17" y="9" onmousedown="handleZoom(evt,'in')"/>
                <use id="zoomminus" xlink:href="#zoomMin" x="42" y="9" onmousedown="handleZoom(evt,'out')"/>
                <use id="reset" xlink:href="#resetDef" x="30" y="36" onmousedown="handleReset()"/>
                <g id="arrowUp" xlink:href="#dirArrow" transform="translate(30 24)" onmousedown="handlePan(0,-1)">
                  <use xlink:href="#rim" fill="#404040">
                        <set attributeName="fill" to="#808080" begin="arrowUp.mouseover" end="arrowUp.mouseout"/>
                  </use>
                  <path fill="none" stroke="white" stroke-width="1.5" d="M0,-3.0v7 M-2.5,-0.5L0,-3.0L2.5,-0.5"/>
                </g>
                <g id="arrowRight" xlink:href="#dirArrow" transform="rotate(90) translate(36 -43)" onmousedown="handlePan(1,0)">
                  <use xlink:href="#rim" fill="#404040">
                        <set attributeName="fill" to="#808080" begin="arrowRight.mouseover" end="arrowRight.mouseout"/>
                  </use>
                  <path fill="none" stroke="white" stroke-width="1.5" d="M0,-3.0v7 M-2.5,-0.5L0,-3.0L2.5,-0.5"/>
                </g>
                <g id="arrowDown" xlink:href="#dirArrow" transform="rotate(180) translate(-30 -48)" onmousedown="handlePan(0,1)">
                  <use xlink:href="#rim" fill="#404040">
                        <set attributeName="fill" to="#808080" begin="arrowDown.mouseover" end="arrowDown.mouseout"/>
                  </use>
                  <path fill="none" stroke="white" stroke-width="1.5" d="M0,-3.0v7 M-2.5,-0.5L0,-3.0L2.5,-0.5"/>
                </g>
                <g id="arrowLeft" xlink:href="#dirArrow" transform="rotate(270) translate(-36 17)" onmousedown="handlePan(-1,0)">
                  <use xlink:href="#rim" fill="#404040">
                        <set attributeName="fill" to="#808080" begin="arrowLeft.mouseover" end="arrowLeft.mouseout"/>
                  </use>
                  <path fill="none" stroke="white" stroke-width="1.5" d="M0,-3.0v7 M-2.5,-0.5L0,-3.0L2.5,-0.5"/>
                </g>
        </g>
        <svg viewBox="0 0 15 15" width="100%" height="30px" preserveAspectRatio="xMaxYMin meet">
         <g id="arrow_out" transform="scale(0.3 0.3)">
          <a xlink:href="spring__damper__element__3_d2_n_8hpp__dep__incl_org.svg" target="_base">
           <rect id="button" ry="5" rx="5" y="6" x="6" height="38" width="38"
                fill="#f2f5e9" fill-opacity="0.5" stroke="#606060" stroke-width="1.0"/>
           <path id="arrow"
             d="M 11.500037,31.436501 C 11.940474,20.09759 22.043105,11.32322 32.158766,21.979434 L 37.068811,17.246167 C 37.068811,17.246167 37.088388,32 37.088388,32 L 22.160133,31.978069 C 22.160133,31.978069 26.997745,27.140456 26.997745,27.140456 C 18.528582,18.264221 13.291696,25.230495 11.500037,31.436501 z"
             style="fill:#404040;"/>
          </a>
         </g>
        </svg>
</svg>
