<?xml version="1.0" encoding="UTF-8" standalone="no"?>
<!DOCTYPE svg PUBLIC "-//W3C//DTD SVG 1.1//EN"
 "http://www.w3.org/Graphics/SVG/1.1/DTD/svg11.dtd">
<!-- Generated by graphviz version 2.43.0 (0)
 -->
<!-- Title: /home/runner/work/Documentation/Documentation/master/kratos/processes/tetrahedra_mesh_quality_weighted_smoothing_process.h Pages: 1 -->
<svg width="3674pt" height="1123pt"
 viewBox="0.00 0.00 3674.00 1123.00" xmlns="http://www.w3.org/2000/svg" xmlns:xlink="http://www.w3.org/1999/xlink">
<g id="graph0" class="graph" transform="scale(1 1) rotate(0) translate(4 1119)">
<title>/home/runner/work/Documentation/Documentation/master/kratos/processes/tetrahedra_mesh_quality_weighted_smoothing_process.h</title>
<!-- Node1 -->
<g id="node1" class="node">
<title>Node1</title>
<g id="a_node1"><a xlink:title=" ">
<polygon fill="#bfbfbf" stroke="black" points="2673,-1062.5 2673,-1114.5 2867,-1114.5 2867,-1062.5 2673,-1062.5"/>
<text text-anchor="start" x="2681" y="-1102.5" font-family="Helvetica,sans-Serif" font-size="10.00">/home/runner/work/Documentation</text>
<text text-anchor="start" x="2681" y="-1091.5" font-family="Helvetica,sans-Serif" font-size="10.00">/Documentation/master/kratos</text>
<text text-anchor="start" x="2681" y="-1080.5" font-family="Helvetica,sans-Serif" font-size="10.00">/processes/tetrahedra_mesh_quality</text>
<text text-anchor="middle" x="2770" y="-1069.5" font-family="Helvetica,sans-Serif" font-size="10.00">_weighted_smoothing_process.h</text>
</a>
</g>
</g>
<!-- Node2 -->
<g id="node2" class="node">
<title>Node2</title>
<g id="a_node2"><a xlink:title=" ">
<polygon fill="none" stroke="#bfbfbf" points="3150,-6 3150,-25 3194,-25 3194,-6 3150,-6"/>
<text text-anchor="middle" x="3172" y="-13" font-family="Helvetica,sans-Serif" font-size="10.00">string</text>
</a>
</g>
</g>
<!-- Node1&#45;&gt;Node2 -->
<g id="edge1" class="edge">
<title>Node1&#45;&gt;Node2</title>
<path fill="none" stroke="midnightblue" d="M2867.17,-1080.89C3099.12,-1063.81 3666,-1013.85 3666,-933.5 3666,-933.5 3666,-933.5 3666,-143 3666,-99.13 3641.55,-87.94 3603,-67 3534.13,-29.59 3292.49,-19.63 3204.42,-17.21"/>
<polygon fill="midnightblue" stroke="midnightblue" points="3204.32,-13.71 3194.23,-16.95 3204.13,-20.71 3204.32,-13.71"/>
</g>
<!-- Node3 -->
<g id="node3" class="node">
<title>Node3</title>
<g id="a_node3"><a xlink:title=" ">
<polygon fill="none" stroke="#bfbfbf" points="588,-6 588,-25 648,-25 648,-6 588,-6"/>
<text text-anchor="middle" x="618" y="-13" font-family="Helvetica,sans-Serif" font-size="10.00">iostream</text>
</a>
</g>
</g>
<!-- Node1&#45;&gt;Node3 -->
<g id="edge2" class="edge">
<title>Node1&#45;&gt;Node3</title>
<path fill="none" stroke="midnightblue" d="M2672.63,-1087.28C2181.57,-1085.57 0,-1070.28 0,-933.5 0,-933.5 0,-933.5 0,-143 0,-103.75 11.78,-87.92 45,-67 89.85,-38.75 454.42,-22.62 577.55,-17.94"/>
<polygon fill="midnightblue" stroke="midnightblue" points="577.83,-21.43 587.69,-17.56 577.56,-14.44 577.83,-21.43"/>
</g>
<!-- Node4 -->
<g id="node4" class="node">
<title>Node4</title>
<g id="a_node4"><a xlink:href="../../df/d67/define_8h.html" target="_top" xlink:title=" ">
<polygon fill="none" stroke="black" points="1640.5,-190.5 1640.5,-209.5 1739.5,-209.5 1739.5,-190.5 1640.5,-190.5"/>
<text text-anchor="middle" x="1690" y="-197.5" font-family="Helvetica,sans-Serif" font-size="10.00">includes/define.h</text>
</a>
</g>
</g>
<!-- Node1&#45;&gt;Node4 -->
<g id="edge3" class="edge">
<title>Node1&#45;&gt;Node4</title>
<path fill="none" stroke="midnightblue" d="M2867.11,-1073.85C2998.04,-1052.68 3215,-1006.57 3215,-933.5 3215,-933.5 3215,-933.5 3215,-383.5 3215,-255.91 3086.05,-279.71 2963,-246 2845.44,-213.79 1986.19,-203.68 1749.96,-201.5"/>
<polygon fill="midnightblue" stroke="midnightblue" points="1749.87,-198 1739.84,-201.41 1749.81,-205 1749.87,-198"/>
</g>
<!-- Node16 -->
<g id="node16" class="node">
<title>Node16</title>
<g id="a_node16"><a xlink:href="../../db/de2/tetrahedra__mesh__worst__element__smoothing__process_8h.html" target="_top" xlink:title=" ">
<polygon fill="none" stroke="black" points="2678,-984.5 2678,-1025.5 2862,-1025.5 2862,-984.5 2678,-984.5"/>
<text text-anchor="start" x="2686" y="-1013.5" font-family="Helvetica,sans-Serif" font-size="10.00">processes/tetrahedra</text>
<text text-anchor="start" x="2686" y="-1002.5" font-family="Helvetica,sans-Serif" font-size="10.00">_mesh_worst_element_smoothing</text>
<text text-anchor="middle" x="2770" y="-991.5" font-family="Helvetica,sans-Serif" font-size="10.00">_process.h</text>
</a>
</g>
</g>
<!-- Node1&#45;&gt;Node16 -->
<g id="edge26" class="edge">
<title>Node1&#45;&gt;Node16</title>
<path fill="none" stroke="midnightblue" d="M2770,-1062.16C2770,-1053.79 2770,-1044.4 2770,-1035.73"/>
<polygon fill="midnightblue" stroke="midnightblue" points="2773.5,-1035.63 2770,-1025.63 2766.5,-1035.63 2773.5,-1035.63"/>
</g>
<!-- Node87 -->
<g id="node35" class="node">
<title>Node87</title>
<g id="a_node35"><a xlink:href="../../dd/dfe/model__part_8h.html" target="_top" xlink:title=" ">
<polygon fill="none" stroke="black" points="1326.5,-861.5 1326.5,-880.5 1451.5,-880.5 1451.5,-861.5 1326.5,-861.5"/>
<text text-anchor="middle" x="1389" y="-868.5" font-family="Helvetica,sans-Serif" font-size="10.00">includes/model_part.h</text>
</a>
</g>
</g>
<!-- Node1&#45;&gt;Node87 -->
<g id="edge190" class="edge">
<title>Node1&#45;&gt;Node87</title>
<path fill="none" stroke="midnightblue" d="M2672.98,-1072.49C2508.29,-1047 2163.49,-993.57 1872,-948 1721.85,-924.52 1545.47,-896.71 1453,-882.11"/>
<polygon fill="midnightblue" stroke="midnightblue" points="1453.38,-878.63 1442.96,-880.53 1452.29,-885.54 1453.38,-878.63"/>
</g>
<!-- Node5 -->
<g id="node5" class="node">
<title>Node5</title>
<g id="a_node5"><a xlink:title=" ">
<polygon fill="none" stroke="#bfbfbf" points="1601.5,-73 1601.5,-92 1666.5,-92 1666.5,-73 1601.5,-73"/>
<text text-anchor="middle" x="1634" y="-80" font-family="Helvetica,sans-Serif" font-size="10.00">stdexcept</text>
</a>
</g>
</g>
<!-- Node4&#45;&gt;Node5 -->
<g id="edge4" class="edge">
<title>Node4&#45;&gt;Node5</title>
<path fill="none" stroke="midnightblue" d="M1685.79,-190.32C1676.67,-171.51 1654.92,-126.65 1642.71,-101.46"/>
<polygon fill="midnightblue" stroke="midnightblue" points="1645.77,-99.75 1638.26,-92.28 1639.47,-102.81 1645.77,-99.75"/>
</g>
<!-- Node6 -->
<g id="node6" class="node">
<title>Node6</title>
<g id="a_node6"><a xlink:title=" ">
<polygon fill="none" stroke="#bfbfbf" points="937,-73 937,-92 993,-92 993,-73 937,-73"/>
<text text-anchor="middle" x="965" y="-80" font-family="Helvetica,sans-Serif" font-size="10.00">sstream</text>
</a>
</g>
</g>
<!-- Node4&#45;&gt;Node6 -->
<g id="edge5" class="edge">
<title>Node4&#45;&gt;Node6</title>
<path fill="none" stroke="midnightblue" d="M1640.34,-198.58C1547.68,-196.94 1342.56,-189.25 1174,-154 1108.17,-140.23 1034.31,-112.18 994.41,-95.92"/>
<polygon fill="midnightblue" stroke="midnightblue" points="995.6,-92.62 985.02,-92.05 992.94,-99.09 995.6,-92.62"/>
</g>
<!-- Node7 -->
<g id="node7" class="node">
<title>Node7</title>
<g id="a_node7"><a xlink:href="../../dc/d25/kratos__export__api_8h.html" target="_top" xlink:title=" ">
<polygon fill="none" stroke="black" points="1901,-0.5 1901,-30.5 2029,-30.5 2029,-0.5 1901,-0.5"/>
<text text-anchor="start" x="1909" y="-18.5" font-family="Helvetica,sans-Serif" font-size="10.00">includes/kratos_export</text>
<text text-anchor="middle" x="1965" y="-7.5" font-family="Helvetica,sans-Serif" font-size="10.00">_api.h</text>
</a>
</g>
</g>
<!-- Node4&#45;&gt;Node7 -->
<g id="edge6" class="edge">
<title>Node4&#45;&gt;Node7</title>
<path fill="none" stroke="midnightblue" d="M1739.68,-198.54C1806.41,-194.82 1921.81,-176.68 1967,-98 1976.98,-80.62 1975.31,-57.53 1971.82,-40.37"/>
<polygon fill="midnightblue" stroke="midnightblue" points="1975.21,-39.47 1969.5,-30.55 1968.39,-41.08 1975.21,-39.47"/>
</g>
<!-- Node8 -->
<g id="node8" class="node">
<title>Node8</title>
<g id="a_node8"><a xlink:href="../../d9/dc0/smart__pointers_8h.html" target="_top" xlink:title=" ">
<polygon fill="none" stroke="black" points="2697.5,-134.5 2697.5,-153.5 2840.5,-153.5 2840.5,-134.5 2697.5,-134.5"/>
<text text-anchor="middle" x="2769" y="-141.5" font-family="Helvetica,sans-Serif" font-size="10.00">includes/smart_pointers.h</text>
</a>
</g>
</g>
<!-- Node4&#45;&gt;Node8 -->
<g id="edge7" class="edge">
<title>Node4&#45;&gt;Node8</title>
<path fill="none" stroke="midnightblue" d="M1739.52,-196.52C1910.14,-187.98 2474.68,-159.73 2687.16,-149.1"/>
<polygon fill="midnightblue" stroke="midnightblue" points="2687.5,-152.58 2697.32,-148.59 2687.15,-145.59 2687.5,-152.58"/>
</g>
<!-- Node12 -->
<g id="node12" class="node">
<title>Node12</title>
<g id="a_node12"><a xlink:href="../../dd/d2d/exception_8h.html" target="_top" xlink:title=" ">
<polygon fill="none" stroke="black" points="1745.5,-134.5 1745.5,-153.5 1862.5,-153.5 1862.5,-134.5 1745.5,-134.5"/>
<text text-anchor="middle" x="1804" y="-141.5" font-family="Helvetica,sans-Serif" font-size="10.00">includes/exception.h</text>
</a>
</g>
</g>
<!-- Node4&#45;&gt;Node12 -->
<g id="edge12" class="edge">
<title>Node4&#45;&gt;Node12</title>
<path fill="none" stroke="midnightblue" d="M1708.06,-190.44C1726.57,-181.68 1755.58,-167.94 1776.86,-157.86"/>
<polygon fill="midnightblue" stroke="midnightblue" points="1778.48,-160.96 1786.02,-153.52 1775.49,-154.63 1778.48,-160.96"/>
</g>
<!-- Node8&#45;&gt;Node3 -->
<g id="edge8" class="edge">
<title>Node8&#45;&gt;Node3</title>
<path fill="none" stroke="midnightblue" d="M2697.49,-143.28C2502.05,-143.47 1962.1,-140.05 1790,-98 1758.13,-90.21 1754.87,-74.78 1723,-67 1515.14,-16.24 831.91,-15.59 658.37,-16.27"/>
<polygon fill="midnightblue" stroke="midnightblue" points="658.13,-12.77 648.15,-16.31 658.16,-19.77 658.13,-12.77"/>
</g>
<!-- Node9 -->
<g id="node9" class="node">
<title>Node9</title>
<g id="a_node9"><a xlink:title=" ">
<polygon fill="none" stroke="#bfbfbf" points="3143.5,-73 3143.5,-92 3188.5,-92 3188.5,-73 3143.5,-73"/>
<text text-anchor="middle" x="3166" y="-80" font-family="Helvetica,sans-Serif" font-size="10.00">utility</text>
</a>
</g>
</g>
<!-- Node8&#45;&gt;Node9 -->
<g id="edge9" class="edge">
<title>Node8&#45;&gt;Node9</title>
<path fill="none" stroke="midnightblue" d="M2825.88,-134.48C2910.14,-121.85 3065.42,-98.57 3133.06,-88.44"/>
<polygon fill="midnightblue" stroke="midnightblue" points="3133.77,-91.87 3143.14,-86.93 3132.74,-84.95 3133.77,-91.87"/>
</g>
<!-- Node10 -->
<g id="node10" class="node">
<title>Node10</title>
<g id="a_node10"><a xlink:title=" ">
<polygon fill="none" stroke="#bfbfbf" points="2697,-73 2697,-92 2755,-92 2755,-73 2697,-73"/>
<text text-anchor="middle" x="2726" y="-80" font-family="Helvetica,sans-Serif" font-size="10.00">memory</text>
</a>
</g>
</g>
<!-- Node8&#45;&gt;Node10 -->
<g id="edge10" class="edge">
<title>Node8&#45;&gt;Node10</title>
<path fill="none" stroke="midnightblue" d="M2762.84,-134.48C2756.39,-125.55 2746.1,-111.31 2738.03,-100.14"/>
<polygon fill="midnightblue" stroke="midnightblue" points="2740.84,-98.06 2732.15,-92.01 2735.17,-102.16 2740.84,-98.06"/>
</g>
<!-- Node11 -->
<g id="node11" class="node">
<title>Node11</title>
<g id="a_node11"><a xlink:title=" ">
<polygon fill="none" stroke="#bfbfbf" points="2773,-67.5 2773,-97.5 2897,-97.5 2897,-67.5 2773,-67.5"/>
<text text-anchor="start" x="2781" y="-85.5" font-family="Helvetica,sans-Serif" font-size="10.00">intrusive_ptr/intrusive</text>
<text text-anchor="middle" x="2835" y="-74.5" font-family="Helvetica,sans-Serif" font-size="10.00">_ptr.hpp</text>
</a>
</g>
</g>
<!-- Node8&#45;&gt;Node11 -->
<g id="edge11" class="edge">
<title>Node8&#45;&gt;Node11</title>
<path fill="none" stroke="midnightblue" d="M2778.46,-134.48C2787.14,-126.64 2800.38,-114.71 2811.86,-104.37"/>
<polygon fill="midnightblue" stroke="midnightblue" points="2814.36,-106.82 2819.45,-97.52 2809.67,-101.62 2814.36,-106.82"/>
</g>
<!-- Node12&#45;&gt;Node2 -->
<g id="edge14" class="edge">
<title>Node12&#45;&gt;Node2</title>
<path fill="none" stroke="midnightblue" d="M1834.52,-134.41C1899.61,-116.22 2050.42,-74.84 2103,-67 2310.5,-36.05 2983.79,-20.41 3139.6,-17.15"/>
<polygon fill="midnightblue" stroke="midnightblue" points="3139.99,-20.64 3149.91,-16.94 3139.84,-13.64 3139.99,-20.64"/>
</g>
<!-- Node12&#45;&gt;Node3 -->
<g id="edge15" class="edge">
<title>Node12&#45;&gt;Node3</title>
<path fill="none" stroke="midnightblue" d="M1793.47,-134.32C1772.49,-117.63 1723.32,-81.42 1675,-67 1576.35,-37.55 840.04,-20.96 658.41,-17.28"/>
<polygon fill="midnightblue" stroke="midnightblue" points="658.29,-13.78 648.22,-17.08 658.15,-20.78 658.29,-13.78"/>
</g>
<!-- Node12&#45;&gt;Node5 -->
<g id="edge13" class="edge">
<title>Node12&#45;&gt;Node5</title>
<path fill="none" stroke="midnightblue" d="M1779.64,-134.48C1750.36,-124.22 1701.03,-106.96 1668,-95.4"/>
<polygon fill="midnightblue" stroke="midnightblue" points="1668.91,-92.01 1658.31,-92.01 1666.59,-98.62 1668.91,-92.01"/>
</g>
<!-- Node12&#45;&gt;Node6 -->
<g id="edge16" class="edge">
<title>Node12&#45;&gt;Node6</title>
<path fill="none" stroke="midnightblue" d="M1745.34,-138.84C1584.03,-127.4 1136.93,-95.69 1003.24,-86.21"/>
<polygon fill="midnightblue" stroke="midnightblue" points="1003.3,-82.71 993.08,-85.49 1002.81,-89.69 1003.3,-82.71"/>
</g>
<!-- Node12&#45;&gt;Node7 -->
<g id="edge18" class="edge">
<title>Node12&#45;&gt;Node7</title>
<path fill="none" stroke="midnightblue" d="M1862.57,-137.61C1891.12,-132.02 1923.78,-120.72 1945,-98 1959.4,-82.59 1963.91,-58.54 1965.11,-40.56"/>
<polygon fill="midnightblue" stroke="midnightblue" points="1968.61,-40.65 1965.48,-30.53 1961.61,-40.39 1968.61,-40.65"/>
</g>
<!-- Node13 -->
<g id="node13" class="node">
<title>Node13</title>
<g id="a_node13"><a xlink:title=" ">
<polygon fill="none" stroke="#bfbfbf" points="1772.5,-6 1772.5,-25 1819.5,-25 1819.5,-6 1772.5,-6"/>
<text text-anchor="middle" x="1796" y="-13" font-family="Helvetica,sans-Serif" font-size="10.00">vector</text>
</a>
</g>
</g>
<!-- Node12&#45;&gt;Node13 -->
<g id="edge17" class="edge">
<title>Node12&#45;&gt;Node13</title>
<path fill="none" stroke="midnightblue" d="M1800.4,-134.22C1796.94,-125.28 1791.97,-110.94 1790,-98 1786.74,-76.57 1789.51,-51.7 1792.27,-35.12"/>
<polygon fill="midnightblue" stroke="midnightblue" points="1795.74,-35.58 1794.11,-25.11 1788.86,-34.32 1795.74,-35.58"/>
</g>
<!-- Node14 -->
<g id="node14" class="node">
<title>Node14</title>
<g id="a_node14"><a xlink:href="../../da/da6/code__location_8h.html" target="_top" xlink:title=" ">
<polygon fill="none" stroke="black" points="1799.5,-73 1799.5,-92 1936.5,-92 1936.5,-73 1799.5,-73"/>
<text text-anchor="middle" x="1868" y="-80" font-family="Helvetica,sans-Serif" font-size="10.00">includes/code_location.h</text>
</a>
</g>
</g>
<!-- Node12&#45;&gt;Node14 -->
<g id="edge19" class="edge">
<title>Node12&#45;&gt;Node14</title>
<path fill="none" stroke="midnightblue" d="M1813.17,-134.48C1823.15,-125.2 1839.31,-110.17 1851.51,-98.83"/>
<polygon fill="midnightblue" stroke="midnightblue" points="1853.91,-101.38 1858.85,-92.01 1849.14,-96.25 1853.91,-101.38"/>
</g>
<!-- Node15 -->
<g id="node15" class="node">
<title>Node15</title>
<g id="a_node15"><a xlink:href="../../d9/d06/stl__vector__io_8h.html" target="_top" xlink:title=" ">
<polygon fill="none" stroke="black" points="1455,-73 1455,-92 1583,-92 1583,-73 1455,-73"/>
<text text-anchor="middle" x="1519" y="-80" font-family="Helvetica,sans-Serif" font-size="10.00">utilities/stl_vector_io.h</text>
</a>
</g>
</g>
<!-- Node12&#45;&gt;Node15 -->
<g id="edge23" class="edge">
<title>Node12&#45;&gt;Node15</title>
<path fill="none" stroke="midnightblue" d="M1763.17,-134.48C1712.16,-123.83 1624.9,-105.61 1569.68,-94.08"/>
<polygon fill="midnightblue" stroke="midnightblue" points="1570.26,-90.63 1559.76,-92.01 1568.83,-97.48 1570.26,-90.63"/>
</g>
<!-- Node14&#45;&gt;Node2 -->
<g id="edge20" class="edge">
<title>Node14&#45;&gt;Node2</title>
<path fill="none" stroke="midnightblue" d="M1931.33,-72.98C1949.89,-70.74 1970.23,-68.52 1989,-67 2444.34,-30.05 3000.62,-19.2 3139.45,-16.98"/>
<polygon fill="midnightblue" stroke="midnightblue" points="3139.85,-20.47 3149.8,-16.81 3139.74,-13.47 3139.85,-20.47"/>
</g>
<!-- Node14&#45;&gt;Node3 -->
<g id="edge21" class="edge">
<title>Node14&#45;&gt;Node3</title>
<path fill="none" stroke="midnightblue" d="M1825.5,-72.98C1812.55,-70.68 1798.23,-68.44 1785,-67 1345.45,-19.3 808.17,-16.22 658.42,-16.35"/>
<polygon fill="midnightblue" stroke="midnightblue" points="658.31,-12.86 648.31,-16.37 658.32,-19.86 658.31,-12.86"/>
</g>
<!-- Node14&#45;&gt;Node7 -->
<g id="edge22" class="edge">
<title>Node14&#45;&gt;Node7</title>
<path fill="none" stroke="midnightblue" d="M1881.08,-72.73C1894.95,-63.44 1917.3,-48.46 1935.46,-36.3"/>
<polygon fill="midnightblue" stroke="midnightblue" points="1937.62,-39.06 1943.97,-30.59 1933.72,-33.25 1937.62,-39.06"/>
</g>
<!-- Node15&#45;&gt;Node3 -->
<g id="edge24" class="edge">
<title>Node15&#45;&gt;Node3</title>
<path fill="none" stroke="midnightblue" d="M1478.26,-72.95C1466.3,-70.71 1453.17,-68.5 1441,-67 1141.72,-30.14 777.75,-19.75 658.17,-17.22"/>
<polygon fill="midnightblue" stroke="midnightblue" points="658.09,-13.72 648.02,-17.02 657.94,-20.72 658.09,-13.72"/>
</g>
<!-- Node15&#45;&gt;Node13 -->
<g id="edge25" class="edge">
<title>Node15&#45;&gt;Node13</title>
<path fill="none" stroke="midnightblue" d="M1555.5,-72.94C1609.62,-60.23 1710.39,-36.59 1762.64,-24.33"/>
<polygon fill="midnightblue" stroke="midnightblue" points="1763.48,-27.73 1772.42,-22.03 1761.88,-20.91 1763.48,-27.73"/>
</g>
<!-- Node16&#45;&gt;Node2 -->
<g id="edge27" class="edge">
<title>Node16&#45;&gt;Node2</title>
<path fill="none" stroke="midnightblue" d="M2832.4,-984.46C3029.84,-918.35 3628,-683.33 3628,-262.5 3628,-262.5 3628,-262.5 3628,-143 3628,-99.41 3604.11,-88.17 3566,-67 3503.91,-32.52 3286.68,-20.83 3204.15,-17.58"/>
<polygon fill="midnightblue" stroke="midnightblue" points="3204.22,-14.08 3194.09,-17.2 3203.95,-21.08 3204.22,-14.08"/>
</g>
<!-- Node16&#45;&gt;Node3 -->
<g id="edge28" class="edge">
<title>Node16&#45;&gt;Node3</title>
<path fill="none" stroke="midnightblue" d="M2677.84,-1004.28C2231.42,-1004.79 307.24,-996.93 110,-825 23,-749.16 38,-690.91 38,-575.5 38,-575.5 38,-575.5 38,-143 38,-103.28 51.26,-87.95 85,-67 167.15,-15.99 467.86,-14.54 577.59,-15.78"/>
<polygon fill="midnightblue" stroke="midnightblue" points="577.85,-19.29 587.9,-15.91 577.94,-12.29 577.85,-19.29"/>
</g>
<!-- Node16&#45;&gt;Node4 -->
<g id="edge29" class="edge">
<title>Node16&#45;&gt;Node4</title>
<path fill="none" stroke="midnightblue" d="M2803.59,-984.35C2837.21,-961.87 2884,-921.66 2884,-872 2884,-872 2884,-872 2884,-814 2884,-733.81 2823.49,-732.26 2761,-682 2677.31,-614.69 2646.64,-611.58 2553,-559 2451.58,-502.05 2425.52,-489.04 2322,-436 2262.03,-405.27 2247.24,-397.1 2186,-369 2180.07,-366.28 1975.56,-280.41 1970,-277 1951.71,-265.79 1952.41,-255.14 1933,-246 1924.69,-242.08 1818.67,-223.26 1749.44,-211.23"/>
<polygon fill="midnightblue" stroke="midnightblue" points="1749.96,-207.77 1739.51,-209.51 1748.77,-214.66 1749.96,-207.77"/>
</g>
<!-- Node17 -->
<g id="node17" class="node">
<title>Node17</title>
<g id="a_node17"><a xlink:href="../../de/db4/mesh__local__smoothing__process_8h.html" target="_top" xlink:title=" ">
<polygon fill="none" stroke="black" points="2707.5,-917.5 2707.5,-947.5 2832.5,-947.5 2832.5,-917.5 2707.5,-917.5"/>
<text text-anchor="start" x="2715.5" y="-935.5" font-family="Helvetica,sans-Serif" font-size="10.00">processes/mesh_local</text>
<text text-anchor="middle" x="2770" y="-924.5" font-family="Helvetica,sans-Serif" font-size="10.00">_smoothing_process.h</text>
</a>
</g>
</g>
<!-- Node16&#45;&gt;Node17 -->
<g id="edge30" class="edge">
<title>Node16&#45;&gt;Node17</title>
<path fill="none" stroke="midnightblue" d="M2770,-984.36C2770,-976.23 2770,-966.7 2770,-958.11"/>
<polygon fill="midnightblue" stroke="midnightblue" points="2773.5,-957.89 2770,-947.89 2766.5,-957.89 2773.5,-957.89"/>
</g>
<!-- Node16&#45;&gt;Node87 -->
<g id="edge189" class="edge">
<title>Node16&#45;&gt;Node87</title>
<path fill="none" stroke="midnightblue" d="M2677.78,-995.19C2419.81,-970.53 1694.48,-901.2 1461.81,-878.96"/>
<polygon fill="midnightblue" stroke="midnightblue" points="1462.05,-875.47 1451.76,-878 1461.38,-882.43 1462.05,-875.47"/>
</g>
<!-- Node17&#45;&gt;Node2 -->
<g id="edge31" class="edge">
<title>Node17&#45;&gt;Node2</title>
<path fill="none" stroke="midnightblue" d="M2821.29,-917.41C3000.81,-864.67 3590,-661.19 3590,-262.5 3590,-262.5 3590,-262.5 3590,-143 3590,-100.24 3568,-88.44 3531,-67 3475.61,-34.9 3281.55,-21.93 3204.19,-17.95"/>
<polygon fill="midnightblue" stroke="midnightblue" points="3204.24,-14.45 3194.07,-17.45 3203.89,-21.44 3204.24,-14.45"/>
</g>
<!-- Node17&#45;&gt;Node3 -->
<g id="edge32" class="edge">
<title>Node17&#45;&gt;Node3</title>
<path fill="none" stroke="midnightblue" d="M2707.29,-930.46C2305.93,-923.6 114,-883.09 114,-816 114,-816 114,-816 114,-383.5 114,-293.83 200,-290.67 200,-201 200,-201 200,-201 200,-143 200,-92.32 239.15,-88.59 285,-67 336.28,-42.85 500.89,-26.32 577.75,-19.71"/>
<polygon fill="midnightblue" stroke="midnightblue" points="578.33,-23.18 588,-18.85 577.74,-16.2 578.33,-23.18"/>
</g>
<!-- Node17&#45;&gt;Node4 -->
<g id="edge33" class="edge">
<title>Node17&#45;&gt;Node4</title>
<path fill="none" stroke="midnightblue" d="M2777.87,-917.41C2789,-896.13 2808,-854.21 2808,-816 2808,-816 2808,-816 2808,-758 2808,-703.23 2756.71,-712.17 2711,-682 2469.79,-522.8 2398.99,-499.27 2141,-369 2054.02,-325.08 2027.13,-324.4 1942,-277 1920.14,-264.83 1918.05,-255.73 1895,-246 1848.17,-226.23 1791.51,-214.64 1749.63,-208.19"/>
<polygon fill="midnightblue" stroke="midnightblue" points="1750,-204.71 1739.59,-206.7 1748.97,-211.63 1750,-204.71"/>
</g>
<!-- Node18 -->
<g id="node18" class="node">
<title>Node18</title>
<g id="a_node18"><a xlink:href="../../da/d42/process_8h.html" target="_top" xlink:title=" ">
<polygon fill="none" stroke="red" points="2315.5,-626.5 2315.5,-645.5 2430.5,-645.5 2430.5,-626.5 2315.5,-626.5"/>
<text text-anchor="middle" x="2373" y="-633.5" font-family="Helvetica,sans-Serif" font-size="10.00">processes/process.h</text>
</a>
</g>
</g>
<!-- Node17&#45;&gt;Node18 -->
<g id="edge34" class="edge">
<title>Node17&#45;&gt;Node18</title>
<path fill="none" stroke="midnightblue" d="M2770,-917.28C2770,-895.48 2770,-852.49 2770,-816 2770,-816 2770,-816 2770,-758 2770,-689.98 2554.07,-656.48 2440.7,-643.57"/>
<polygon fill="midnightblue" stroke="midnightblue" points="2441.05,-640.09 2430.73,-642.46 2440.28,-647.05 2441.05,-640.09"/>
</g>
<!-- Node17&#45;&gt;Node87 -->
<g id="edge84" class="edge">
<title>Node17&#45;&gt;Node87</title>
<path fill="none" stroke="midnightblue" d="M2707.07,-928.79C2480.01,-919.01 1703.56,-885.55 1461.6,-875.13"/>
<polygon fill="midnightblue" stroke="midnightblue" points="1461.65,-871.63 1451.51,-874.69 1461.35,-878.62 1461.65,-871.63"/>
</g>
<!-- Node18&#45;&gt;Node4 -->
<g id="edge35" class="edge">
<title>Node18&#45;&gt;Node4</title>
<path fill="none" stroke="midnightblue" d="M2366.59,-626.33C2339.25,-589.89 2228.2,-447.53 2106,-369 2067.66,-344.37 2051.56,-351.68 2010,-333 1961.4,-311.16 1949.85,-304.14 1904,-277 1882.47,-264.25 1879.82,-256.28 1857,-246 1822.01,-230.24 1780.35,-219.01 1747.39,-211.7"/>
<polygon fill="midnightblue" stroke="midnightblue" points="1747.97,-208.25 1737.45,-209.56 1746.49,-215.09 1747.97,-208.25"/>
</g>
<!-- Node19 -->
<g id="node19" class="node">
<title>Node19</title>
<g id="a_node19"><a xlink:href="../../d0/dac/kratos__flags_8h.html" target="_top" xlink:title=" ">
<polygon fill="none" stroke="black" points="1906,-565 1906,-584 2034,-584 2034,-565 1906,-565"/>
<text text-anchor="middle" x="1970" y="-572" font-family="Helvetica,sans-Serif" font-size="10.00">includes/kratos_flags.h</text>
</a>
</g>
</g>
<!-- Node18&#45;&gt;Node19 -->
<g id="edge36" class="edge">
<title>Node18&#45;&gt;Node19</title>
<path fill="none" stroke="midnightblue" d="M2315.26,-626.48C2241.94,-615.65 2115.64,-597 2037.81,-585.51"/>
<polygon fill="midnightblue" stroke="midnightblue" points="2038.04,-582.01 2027.63,-584.01 2037.01,-588.93 2038.04,-582.01"/>
</g>
<!-- Node19&#45;&gt;Node4 -->
<g id="edge37" class="edge">
<title>Node19&#45;&gt;Node4</title>
<path fill="none" stroke="midnightblue" d="M1999.76,-564.9C2054.57,-547.27 2163.46,-503 2136,-436 2120.15,-397.32 2105.13,-391.64 2070,-369 2031,-343.86 2014.39,-351.88 1972,-333 1923.33,-311.32 1911.71,-304.37 1866,-277 1844.85,-264.33 1842.06,-257.01 1820,-246 1791.7,-231.87 1757.9,-220.32 1731.85,-212.46"/>
<polygon fill="midnightblue" stroke="midnightblue" points="1732.5,-209 1721.92,-209.52 1730.52,-215.71 1732.5,-209"/>
</g>
<!-- Node20 -->
<g id="node20" class="node">
<title>Node20</title>
<g id="a_node20"><a xlink:href="../../d9/da0/flags_8h.html" target="_top" xlink:title=" ">
<polygon fill="none" stroke="black" points="1558.5,-252 1558.5,-271 1661.5,-271 1661.5,-252 1558.5,-252"/>
<text text-anchor="middle" x="1610" y="-259" font-family="Helvetica,sans-Serif" font-size="10.00">containers/flags.h</text>
</a>
</g>
</g>
<!-- Node19&#45;&gt;Node20 -->
<g id="edge38" class="edge">
<title>Node19&#45;&gt;Node20</title>
<path fill="none" stroke="midnightblue" d="M1961.5,-564.77C1939.63,-542.45 1879.34,-481.88 1825,-436 1804.62,-418.8 1794.04,-420.51 1777,-400 1749.44,-366.82 1765.58,-342.38 1734,-313 1713.51,-293.94 1684.86,-281.63 1660.26,-273.95"/>
<polygon fill="midnightblue" stroke="midnightblue" points="1660.94,-270.5 1650.36,-271.03 1658.96,-277.22 1660.94,-270.5"/>
</g>
<!-- Node21 -->
<g id="node21" class="node">
<title>Node21</title>
<g id="a_node21"><a xlink:href="../../dc/d8e/kratos__components_8h.html" target="_top" xlink:title=" ">
<polygon fill="none" stroke="red" points="1608.5,-503.5 1608.5,-522.5 1773.5,-522.5 1773.5,-503.5 1608.5,-503.5"/>
<text text-anchor="middle" x="1691" y="-510.5" font-family="Helvetica,sans-Serif" font-size="10.00">includes/kratos_components.h</text>
</a>
</g>
</g>
<!-- Node19&#45;&gt;Node21 -->
<g id="edge42" class="edge">
<title>Node19&#45;&gt;Node21</title>
<path fill="none" stroke="midnightblue" d="M1930.03,-564.98C1880.2,-554.35 1795.03,-536.18 1740.95,-524.65"/>
<polygon fill="midnightblue" stroke="midnightblue" points="1741.41,-521.17 1730.9,-522.51 1739.95,-528.02 1741.41,-521.17"/>
</g>
<!-- Node20&#45;&gt;Node2 -->
<g id="edge39" class="edge">
<title>Node20&#45;&gt;Node2</title>
<path fill="none" stroke="midnightblue" d="M1661.63,-257.84C1881.97,-246.27 2737.44,-198.81 2849,-154 2906.2,-131.03 2901.62,-94.05 2957,-67 3017.63,-37.38 3096.51,-24.62 3139.89,-19.54"/>
<polygon fill="midnightblue" stroke="midnightblue" points="3140.31,-23.01 3149.87,-18.43 3139.54,-16.05 3140.31,-23.01"/>
</g>
<!-- Node20&#45;&gt;Node3 -->
<g id="edge40" class="edge">
<title>Node20&#45;&gt;Node3</title>
<path fill="none" stroke="midnightblue" d="M1593.43,-251.86C1532.88,-220.73 1317.2,-113.73 1126,-67 955.75,-25.39 745.4,-17.93 658.49,-16.69"/>
<polygon fill="midnightblue" stroke="midnightblue" points="658.31,-13.19 648.27,-16.57 658.23,-20.19 658.31,-13.19"/>
</g>
<!-- Node20&#45;&gt;Node4 -->
<g id="edge41" class="edge">
<title>Node20&#45;&gt;Node4</title>
<path fill="none" stroke="midnightblue" d="M1621.46,-251.98C1634.17,-242.52 1654.91,-227.1 1670.25,-215.69"/>
<polygon fill="midnightblue" stroke="midnightblue" points="1672.62,-218.29 1678.56,-209.51 1668.45,-212.67 1672.62,-218.29"/>
</g>
<!-- Node21&#45;&gt;Node2 -->
<g id="edge43" class="edge">
<title>Node21&#45;&gt;Node2</title>
<path fill="none" stroke="midnightblue" d="M1773.76,-505.72C1875.75,-497.77 2054.31,-483.14 2207,-467 2601.74,-425.27 2705.03,-429.74 3090,-333 3220.32,-300.25 3362,-335.37 3362,-201 3362,-201 3362,-201 3362,-143 3362,-67.98 3258.11,-34.74 3203.97,-22.51"/>
<polygon fill="midnightblue" stroke="midnightblue" points="3204.68,-19.08 3194.17,-20.4 3203.21,-25.93 3204.68,-19.08"/>
</g>
<!-- Node21&#45;&gt;Node3 -->
<g id="edge44" class="edge">
<title>Node21&#45;&gt;Node3</title>
<path fill="none" stroke="midnightblue" d="M1681.43,-503.29C1662.32,-486.54 1617.38,-450.24 1572,-436 1475.77,-405.81 739.19,-468.32 665,-400 611.02,-350.28 614.98,-105.37 617.27,-35.27"/>
<polygon fill="midnightblue" stroke="midnightblue" points="620.77,-35.37 617.63,-25.26 613.77,-35.13 620.77,-35.37"/>
</g>
<!-- Node21&#45;&gt;Node4 -->
<g id="edge46" class="edge">
<title>Node21&#45;&gt;Node4</title>
<path fill="none" stroke="midnightblue" d="M1685.68,-503.34C1660.09,-461.67 1550.81,-283.49 1549,-277 1545.3,-263.73 1540.87,-257.13 1549,-246 1567.58,-220.57 1600.68,-209.18 1630.14,-204.21"/>
<polygon fill="midnightblue" stroke="midnightblue" points="1631,-207.62 1640.38,-202.7 1629.98,-200.69 1631,-207.62"/>
</g>
<!-- Node21&#45;&gt;Node20 -->
<g id="edge47" class="edge">
<title>Node21&#45;&gt;Node20</title>
<path fill="none" stroke="midnightblue" d="M1690.75,-503.42C1690.17,-489.2 1688.25,-459.91 1682,-436 1679.91,-427.98 1635.75,-323.34 1617.65,-280.55"/>
<polygon fill="midnightblue" stroke="midnightblue" points="1620.86,-279.16 1613.74,-271.31 1614.41,-281.89 1620.86,-279.16"/>
</g>
<!-- Node22 -->
<g id="node22" class="node">
<title>Node22</title>
<g id="a_node22"><a xlink:title=" ">
<polygon fill="none" stroke="#bfbfbf" points="2916,-252 2916,-271 2954,-271 2954,-252 2916,-252"/>
<text text-anchor="middle" x="2935" y="-259" font-family="Helvetica,sans-Serif" font-size="10.00">map</text>
</a>
</g>
</g>
<!-- Node21&#45;&gt;Node22 -->
<g id="edge45" class="edge">
<title>Node21&#45;&gt;Node22</title>
<path fill="none" stroke="midnightblue" d="M1773.72,-505.98C1863.29,-498.91 2010.23,-485.73 2136,-467 2206.35,-456.52 2223.12,-449.25 2293,-436 2380.88,-419.34 2404.02,-420.85 2491,-400 2676.42,-355.54 2723.05,-342.81 2902,-277 2903.66,-276.39 2905.35,-275.74 2907.05,-275.06"/>
<polygon fill="midnightblue" stroke="midnightblue" points="2908.79,-278.13 2916.66,-271.04 2906.09,-271.67 2908.79,-278.13"/>
</g>
<!-- Node64 -->
<g id="node23" class="node">
<title>Node64</title>
<g id="a_node23"><a xlink:href="../../da/d89/variable_8h.html" target="_top" xlink:title=" ">
<polygon fill="none" stroke="red" points="1444.5,-442 1444.5,-461 1563.5,-461 1563.5,-442 1444.5,-442"/>
<text text-anchor="middle" x="1504" y="-449" font-family="Helvetica,sans-Serif" font-size="10.00">containers/variable.h</text>
</a>
</g>
</g>
<!-- Node21&#45;&gt;Node64 -->
<g id="edge48" class="edge">
<title>Node21&#45;&gt;Node64</title>
<path fill="none" stroke="midnightblue" d="M1664.21,-503.48C1631.71,-493.14 1576.79,-475.66 1540.46,-464.1"/>
<polygon fill="midnightblue" stroke="midnightblue" points="1541.33,-460.71 1530.74,-461.01 1539.21,-467.38 1541.33,-460.71"/>
</g>
<!-- Node64&#45;&gt;Node2 -->
<g id="edge49" class="edge">
<title>Node64&#45;&gt;Node2</title>
<path fill="none" stroke="midnightblue" d="M1563.56,-449.98C1766.07,-447.34 2446.03,-431.23 2997,-333 3052.84,-323.05 3209.26,-320.21 3246,-277 3307.11,-205.12 3259.51,-150.19 3215,-67 3208.19,-54.28 3197.75,-41.91 3188.86,-32.6"/>
<polygon fill="midnightblue" stroke="midnightblue" points="3191.11,-29.9 3181.58,-25.27 3186.14,-34.83 3191.11,-29.9"/>
</g>
<!-- Node64&#45;&gt;Node3 -->
<g id="edge50" class="edge">
<title>Node64&#45;&gt;Node3</title>
<path fill="none" stroke="midnightblue" d="M1444.19,-448.91C1252.46,-443.59 663.79,-425.24 632,-400 519.04,-310.32 587.11,-98.08 610.82,-34.69"/>
<polygon fill="midnightblue" stroke="midnightblue" points="614.13,-35.82 614.45,-25.23 607.6,-33.32 614.13,-35.82"/>
</g>
<!-- Node64&#45;&gt;Node4 -->
<g id="edge51" class="edge">
<title>Node64&#45;&gt;Node4</title>
<path fill="none" stroke="midnightblue" d="M1499.26,-441.85C1480.49,-407.03 1413.63,-277.54 1440,-246 1463.76,-217.58 1564.02,-207.08 1630.12,-203.22"/>
<polygon fill="midnightblue" stroke="midnightblue" points="1630.63,-206.7 1640.42,-202.66 1630.25,-199.71 1630.63,-206.7"/>
</g>
<!-- Node64&#45;&gt;Node15 -->
<g id="edge83" class="edge">
<title>Node64&#45;&gt;Node15</title>
<path fill="none" stroke="midnightblue" d="M1444.41,-448.21C1354.62,-441.45 1196.59,-415.09 1212,-313 1220.54,-256.42 1211.14,-231.99 1250,-190 1302.11,-133.69 1387.8,-106.66 1448.45,-94.02"/>
<polygon fill="midnightblue" stroke="midnightblue" points="1449.22,-97.44 1458.34,-92.04 1447.84,-90.57 1449.22,-97.44"/>
</g>
<!-- Node79 -->
<g id="node24" class="node">
<title>Node79</title>
<g id="a_node24"><a xlink:href="../../d3/dc3/variable__data_8h.html" target="_top" xlink:title=" ">
<polygon fill="none" stroke="red" points="1786,-375 1786,-394 1878,-394 1878,-375 1786,-375"/>
<text text-anchor="middle" x="1832" y="-382" font-family="Helvetica,sans-Serif" font-size="10.00">variable_data.h</text>
</a>
</g>
</g>
<!-- Node64&#45;&gt;Node79 -->
<g id="edge52" class="edge">
<title>Node64&#45;&gt;Node79</title>
<path fill="none" stroke="midnightblue" d="M1547.22,-441.94C1606.91,-430.11 1714.51,-408.78 1778.98,-396.01"/>
<polygon fill="midnightblue" stroke="midnightblue" points="1779.82,-399.41 1788.95,-394.03 1778.46,-392.54 1779.82,-399.41"/>
</g>
<!-- Node79&#45;&gt;Node2 -->
<g id="edge53" class="edge">
<title>Node79&#45;&gt;Node2</title>
<path fill="none" stroke="midnightblue" d="M1878.23,-375.23C1893.11,-372.85 1909.71,-370.5 1925,-369 2121.11,-349.79 2620.7,-384.14 2811,-333 2829.43,-328.05 2830.9,-319.04 2849,-313 2944.23,-281.2 2996.65,-343.34 3072,-277 3145.04,-212.69 3090.27,-153.94 3134,-67 3140.19,-54.69 3149.45,-42.31 3157.28,-32.89"/>
<polygon fill="midnightblue" stroke="midnightblue" points="3160.07,-35.01 3163.94,-25.15 3154.76,-30.45 3160.07,-35.01"/>
</g>
<!-- Node79&#45;&gt;Node3 -->
<g id="edge54" class="edge">
<title>Node79&#45;&gt;Node3</title>
<path fill="none" stroke="midnightblue" d="M1785.87,-381.78C1626.95,-374.6 1112,-340.59 1112,-201 1112,-201 1112,-201 1112,-143 1112,-49.54 776,-24.2 658.21,-18.18"/>
<polygon fill="midnightblue" stroke="midnightblue" points="658.32,-14.68 648.16,-17.69 657.97,-21.68 658.32,-14.68"/>
</g>
<!-- Node79&#45;&gt;Node4 -->
<g id="edge56" class="edge">
<title>Node79&#45;&gt;Node4</title>
<path fill="none" stroke="midnightblue" d="M1826.08,-374.94C1816.07,-360.88 1794.66,-332.5 1772,-313 1749,-293.21 1732.62,-300.96 1714,-277 1701.03,-260.31 1694.99,-236.48 1692.23,-219.97"/>
<polygon fill="midnightblue" stroke="midnightblue" points="1695.67,-219.3 1690.8,-209.89 1688.74,-220.28 1695.67,-219.3"/>
</g>
<!-- Node80 -->
<g id="node25" class="node">
<title>Node80</title>
<g id="a_node25"><a xlink:title=" ">
<polygon fill="none" stroke="#bfbfbf" points="878.5,-313.5 878.5,-332.5 931.5,-332.5 931.5,-313.5 878.5,-313.5"/>
<text text-anchor="middle" x="905" y="-320.5" font-family="Helvetica,sans-Serif" font-size="10.00">cstddef</text>
</a>
</g>
</g>
<!-- Node79&#45;&gt;Node80 -->
<g id="edge55" class="edge">
<title>Node79&#45;&gt;Node80</title>
<path fill="none" stroke="midnightblue" d="M1785.71,-380.53C1624.21,-370.16 1087.62,-335.72 941.83,-326.36"/>
<polygon fill="midnightblue" stroke="midnightblue" points="941.83,-322.86 931.63,-325.71 941.38,-329.84 941.83,-322.86"/>
</g>
<!-- Node51 -->
<g id="node26" class="node">
<title>Node51</title>
<g id="a_node26"><a xlink:href="../../dd/d5f/serializer_8h.html" target="_top" xlink:title=" ">
<polygon fill="none" stroke="black" points="2373.5,-313.5 2373.5,-332.5 2486.5,-332.5 2486.5,-313.5 2373.5,-313.5"/>
<text text-anchor="middle" x="2430" y="-320.5" font-family="Helvetica,sans-Serif" font-size="10.00">includes/serializer.h</text>
</a>
</g>
</g>
<!-- Node79&#45;&gt;Node51 -->
<g id="edge57" class="edge">
<title>Node79&#45;&gt;Node51</title>
<path fill="none" stroke="midnightblue" d="M1878.27,-375.67C1893.16,-373.32 1909.75,-370.87 1925,-369 2081.58,-349.84 2266.43,-335.45 2363.22,-328.54"/>
<polygon fill="midnightblue" stroke="midnightblue" points="2363.72,-332.02 2373.45,-327.82 2363.23,-325.04 2363.72,-332.02"/>
</g>
<!-- Node51&#45;&gt;Node2 -->
<g id="edge60" class="edge">
<title>Node51&#45;&gt;Node2</title>
<path fill="none" stroke="midnightblue" d="M2486.9,-320.11C2589.3,-316.07 2800.31,-304.59 2868,-277 2888.5,-268.64 2888.95,-258.82 2907,-246 2931.43,-228.65 2942.37,-230.73 2964,-210 3019.8,-156.51 3003.86,-116.77 3063,-67 3085.66,-47.93 3116.71,-34.48 3139.88,-26.28"/>
<polygon fill="midnightblue" stroke="midnightblue" points="3141.25,-29.51 3149.59,-22.99 3139,-22.88 3141.25,-29.51"/>
</g>
<!-- Node51&#45;&gt;Node3 -->
<g id="edge64" class="edge">
<title>Node51&#45;&gt;Node3</title>
<path fill="none" stroke="midnightblue" d="M2386.28,-313.43C2354.83,-306.25 2311.97,-294.36 2277,-277 2256.22,-266.68 2256.65,-254.34 2235,-246 2084.11,-187.91 2031.81,-240.33 1873,-210 1841.22,-203.93 1834.47,-197.53 1803,-190 1721.11,-170.42 1699.57,-170.48 1617,-154 1522.89,-135.22 1288.96,-80.88 1194,-67 994.11,-37.78 752.54,-23.29 658.35,-18.43"/>
<polygon fill="midnightblue" stroke="midnightblue" points="658.29,-14.93 648.12,-17.91 657.93,-21.92 658.29,-14.93"/>
</g>
<!-- Node51&#45;&gt;Node4 -->
<g id="edge67" class="edge">
<title>Node51&#45;&gt;Node4</title>
<path fill="none" stroke="midnightblue" d="M2374.03,-313.47C2317.88,-304.43 2235.61,-289.73 2206,-277 2184.02,-267.55 2184.43,-254.3 2162,-246 2152.44,-242.46 1874.82,-217.43 1749.9,-206.31"/>
<polygon fill="midnightblue" stroke="midnightblue" points="1750,-202.8 1739.73,-205.4 1749.38,-209.78 1750,-202.8"/>
</g>
<!-- Node51&#45;&gt;Node6 -->
<g id="edge62" class="edge">
<title>Node51&#45;&gt;Node6</title>
<path fill="none" stroke="midnightblue" d="M2373.38,-313.7C2335.62,-306.87 2285.5,-295.29 2244,-277 2221.44,-267.06 2221.2,-254.34 2198,-246 2043.36,-190.38 1992.01,-237.54 1830,-210 1793.02,-203.71 1784.86,-196.98 1748,-190 1464.03,-136.21 1117.17,-98.83 1003.24,-87.27"/>
<polygon fill="midnightblue" stroke="midnightblue" points="1003.56,-83.79 993.26,-86.27 1002.86,-90.75 1003.56,-83.79"/>
</g>
<!-- Node51&#45;&gt;Node20 -->
<g id="edge72" class="edge">
<title>Node51&#45;&gt;Node20</title>
<path fill="none" stroke="midnightblue" d="M2373.31,-317.89C2224.92,-307.12 1825.9,-278.17 1671.85,-266.99"/>
<polygon fill="midnightblue" stroke="midnightblue" points="1671.86,-263.48 1661.63,-266.25 1671.35,-270.46 1671.86,-263.48"/>
</g>
<!-- Node51&#45;&gt;Node22 -->
<g id="edge58" class="edge">
<title>Node51&#45;&gt;Node22</title>
<path fill="none" stroke="midnightblue" d="M2486.59,-322.37C2576.2,-321.68 2755.62,-315.08 2902,-277 2904.3,-276.4 2906.64,-275.66 2908.97,-274.84"/>
<polygon fill="midnightblue" stroke="midnightblue" points="2910.28,-278.08 2918.24,-271.09 2907.66,-271.59 2910.28,-278.08"/>
</g>
<!-- Node52 -->
<g id="node27" class="node">
<title>Node52</title>
<g id="a_node27"><a xlink:title=" ">
<polygon fill="none" stroke="#bfbfbf" points="2686,-252 2686,-271 2718,-271 2718,-252 2686,-252"/>
<text text-anchor="middle" x="2702" y="-259" font-family="Helvetica,sans-Serif" font-size="10.00">set</text>
</a>
</g>
</g>
<!-- Node51&#45;&gt;Node52 -->
<g id="edge59" class="edge">
<title>Node51&#45;&gt;Node52</title>
<path fill="none" stroke="midnightblue" d="M2486.89,-317.26C2537.92,-311.7 2614.22,-300.12 2677,-277 2678.04,-276.62 2679.08,-276.2 2680.12,-275.74"/>
<polygon fill="midnightblue" stroke="midnightblue" points="2681.9,-278.76 2689.18,-271.07 2678.69,-272.54 2681.9,-278.76"/>
</g>
<!-- Node49 -->
<g id="node28" class="node">
<title>Node49</title>
<g id="a_node28"><a xlink:title=" ">
<polygon fill="none" stroke="#bfbfbf" points="2736,-252 2736,-271 2786,-271 2786,-252 2736,-252"/>
<text text-anchor="middle" x="2761" y="-259" font-family="Helvetica,sans-Serif" font-size="10.00">cstring</text>
</a>
</g>
</g>
<!-- Node51&#45;&gt;Node49 -->
<g id="edge61" class="edge">
<title>Node51&#45;&gt;Node49</title>
<path fill="none" stroke="midnightblue" d="M2486.73,-317.69C2547.18,-312.12 2645.23,-300.23 2727,-277 2729.29,-276.35 2731.63,-275.58 2733.96,-274.75"/>
<polygon fill="midnightblue" stroke="midnightblue" points="2735.3,-277.98 2743.31,-271.04 2732.72,-271.47 2735.3,-277.98"/>
</g>
<!-- Node53 -->
<g id="node29" class="node">
<title>Node53</title>
<g id="a_node29"><a xlink:title=" ">
<polygon fill="none" stroke="#bfbfbf" points="2804.5,-252 2804.5,-271 2859.5,-271 2859.5,-252 2804.5,-252"/>
<text text-anchor="middle" x="2832" y="-259" font-family="Helvetica,sans-Serif" font-size="10.00">fstream</text>
</a>
</g>
</g>
<!-- Node51&#45;&gt;Node53 -->
<g id="edge63" class="edge">
<title>Node51&#45;&gt;Node53</title>
<path fill="none" stroke="midnightblue" d="M2486.77,-319.41C2559.25,-315.11 2688.08,-304.08 2795,-277 2797.67,-276.32 2800.4,-275.51 2803.12,-274.61"/>
<polygon fill="midnightblue" stroke="midnightblue" points="2804.52,-277.82 2812.71,-271.11 2802.12,-271.25 2804.52,-277.82"/>
</g>
<!-- Node54 -->
<g id="node30" class="node">
<title>Node54</title>
<g id="a_node30"><a xlink:title=" ">
<polygon fill="none" stroke="#bfbfbf" points="2060.5,-252 2060.5,-271 2153.5,-271 2153.5,-252 2060.5,-252"/>
<text text-anchor="middle" x="2107" y="-259" font-family="Helvetica,sans-Serif" font-size="10.00">unordered_map</text>
</a>
</g>
</g>
<!-- Node51&#45;&gt;Node54 -->
<g id="edge65" class="edge">
<title>Node51&#45;&gt;Node54</title>
<path fill="none" stroke="midnightblue" d="M2374.35,-313.49C2321.19,-305.11 2238.88,-291.5 2168,-277 2162.53,-275.88 2156.81,-274.63 2151.16,-273.34"/>
<polygon fill="midnightblue" stroke="midnightblue" points="2151.65,-269.86 2141.11,-271.01 2150.06,-276.68 2151.65,-269.86"/>
</g>
<!-- Node55 -->
<g id="node31" class="node">
<title>Node55</title>
<g id="a_node31"><a xlink:title=" ">
<polygon fill="none" stroke="#bfbfbf" points="2582,-252 2582,-271 2668,-271 2668,-252 2582,-252"/>
<text text-anchor="middle" x="2625" y="-259" font-family="Helvetica,sans-Serif" font-size="10.00">unordered_set</text>
</a>
</g>
</g>
<!-- Node51&#45;&gt;Node55 -->
<g id="edge66" class="edge">
<title>Node51&#45;&gt;Node55</title>
<path fill="none" stroke="midnightblue" d="M2457.94,-313.48C2491.97,-303.09 2549.58,-285.51 2587.46,-273.95"/>
<polygon fill="midnightblue" stroke="midnightblue" points="2588.57,-277.28 2597.11,-271.01 2586.53,-270.58 2588.57,-277.28"/>
</g>
<!-- Node56 -->
<g id="node32" class="node">
<title>Node56</title>
<g id="a_node32"><a xlink:href="../../d1/d8c/logger_8h.html" target="_top" xlink:title=" ">
<polygon fill="none" stroke="red" points="850,-252 850,-271 970,-271 970,-252 850,-252"/>
<text text-anchor="middle" x="910" y="-259" font-family="Helvetica,sans-Serif" font-size="10.00">input_output/logger.h</text>
</a>
</g>
</g>
<!-- Node51&#45;&gt;Node56 -->
<g id="edge68" class="edge">
<title>Node51&#45;&gt;Node56</title>
<path fill="none" stroke="midnightblue" d="M2373.19,-319.78C2137.85,-310.56 1239.64,-275.4 980.42,-265.26"/>
<polygon fill="midnightblue" stroke="midnightblue" points="980.51,-261.76 970.38,-264.86 980.23,-268.75 980.51,-261.76"/>
</g>
<!-- Node26 -->
<g id="node33" class="node">
<title>Node26</title>
<g id="a_node33"><a xlink:href="../../d9/d36/array__1d_8h.html" target="_top" xlink:title=" ">
<polygon fill="none" stroke="red" points="2442,-252 2442,-271 2564,-271 2564,-252 2442,-252"/>
<text text-anchor="middle" x="2503" y="-259" font-family="Helvetica,sans-Serif" font-size="10.00">containers/array_1d.h</text>
</a>
</g>
</g>
<!-- Node51&#45;&gt;Node26 -->
<g id="edge73" class="edge">
<title>Node51&#45;&gt;Node26</title>
<path fill="none" stroke="midnightblue" d="M2440.46,-313.48C2451.95,-304.11 2470.63,-288.88 2484.59,-277.51"/>
<polygon fill="midnightblue" stroke="midnightblue" points="2487.02,-280.04 2492.56,-271.01 2482.6,-274.61 2487.02,-280.04"/>
</g>
<!-- Node60 -->
<g id="node34" class="node">
<title>Node60</title>
<g id="a_node34"><a xlink:href="../../d5/d10/weak__pointer__vector_8h.html" target="_top" xlink:title=" ">
<polygon fill="none" stroke="red" points="2286.5,-246.5 2286.5,-276.5 2423.5,-276.5 2423.5,-246.5 2286.5,-246.5"/>
<text text-anchor="start" x="2294.5" y="-264.5" font-family="Helvetica,sans-Serif" font-size="10.00">containers/weak_pointer</text>
<text text-anchor="middle" x="2355" y="-253.5" font-family="Helvetica,sans-Serif" font-size="10.00">_vector.h</text>
</a>
</g>
</g>
<!-- Node51&#45;&gt;Node60 -->
<g id="edge77" class="edge">
<title>Node51&#45;&gt;Node60</title>
<path fill="none" stroke="midnightblue" d="M2419.25,-313.48C2409.19,-305.49 2393.77,-293.25 2380.55,-282.77"/>
<polygon fill="midnightblue" stroke="midnightblue" points="2382.69,-280 2372.68,-276.52 2378.33,-285.48 2382.69,-280"/>
</g>
<!-- Node56&#45;&gt;Node2 -->
<g id="edge69" class="edge">
<title>Node56&#45;&gt;Node2</title>
<path fill="none" stroke="midnightblue" d="M944.6,-251.99C954.38,-249.8 965.07,-247.61 975,-246 1370.15,-181.87 1473.07,-197.63 1871,-154 2202.81,-117.62 2284.98,-101.46 2617,-67 2815.42,-46.41 3054.23,-26.23 3139.67,-19.15"/>
<polygon fill="midnightblue" stroke="midnightblue" points="3140.1,-22.63 3149.77,-18.32 3139.52,-15.65 3140.1,-22.63"/>
</g>
<!-- Node56&#45;&gt;Node3 -->
<g id="edge70" class="edge">
<title>Node56&#45;&gt;Node3</title>
<path fill="none" stroke="midnightblue" d="M907.3,-251.58C897.55,-220.86 861.09,-118.54 794,-67 754.25,-36.46 696.7,-24.39 658.36,-19.61"/>
<polygon fill="midnightblue" stroke="midnightblue" points="658.41,-16.1 648.08,-18.45 657.62,-23.05 658.41,-16.1"/>
</g>
<!-- Node56&#45;&gt;Node12 -->
<g id="edge71" class="edge">
<title>Node56&#45;&gt;Node12</title>
<path fill="none" stroke="midnightblue" d="M935.5,-251.95C982.2,-236.69 1084.87,-204.94 1174,-190 1376.08,-156.12 1618.81,-147.72 1735.18,-145.66"/>
<polygon fill="midnightblue" stroke="midnightblue" points="1735.43,-149.16 1745.37,-145.49 1735.31,-142.16 1735.43,-149.16"/>
</g>
<!-- Node26&#45;&gt;Node2 -->
<g id="edge74" class="edge">
<title>Node26&#45;&gt;Node2</title>
<path fill="none" stroke="midnightblue" d="M2540.65,-251.94C2551.09,-249.77 2562.45,-247.61 2573,-246 2653.79,-233.69 2868.75,-251.76 2939,-210 2964.85,-194.63 2961.27,-179.64 2977,-154 3000.09,-116.36 2991.19,-95.41 3025,-67 3058.13,-39.16 3107.44,-26.38 3139.66,-20.72"/>
<polygon fill="midnightblue" stroke="midnightblue" points="3140.57,-24.12 3149.88,-19.06 3139.45,-17.21 3140.57,-24.12"/>
</g>
<!-- Node26&#45;&gt;Node3 -->
<g id="edge75" class="edge">
<title>Node26&#45;&gt;Node3</title>
<path fill="none" stroke="midnightblue" d="M2463.66,-251.95C2453.38,-249.86 2442.3,-247.73 2432,-246 2124.29,-194.31 2043.98,-204.05 1736,-154 1727.9,-152.68 1453.53,-101.25 1446,-98 1424.37,-88.66 1425.18,-74.96 1403,-67 1263.94,-17.11 799.2,-15.48 658.63,-16.17"/>
<polygon fill="midnightblue" stroke="midnightblue" points="658.29,-12.67 648.31,-16.23 658.33,-19.67 658.29,-12.67"/>
</g>
<!-- Node26&#45;&gt;Node4 -->
<g id="edge76" class="edge">
<title>Node26&#45;&gt;Node4</title>
<path fill="none" stroke="midnightblue" d="M2466.32,-251.98C2455.33,-249.71 2443.23,-247.48 2432,-246 2300.51,-228.67 1901.89,-210.16 1749.82,-203.54"/>
<polygon fill="midnightblue" stroke="midnightblue" points="1749.88,-200.04 1739.74,-203.1 1749.57,-207.03 1749.88,-200.04"/>
</g>
<!-- Node60&#45;&gt;Node2 -->
<g id="edge78" class="edge">
<title>Node60&#45;&gt;Node2</title>
<path fill="none" stroke="midnightblue" d="M2423.84,-247.32C2426.93,-246.85 2430,-246.4 2433,-246 2528.03,-233.22 2776.69,-251.77 2863,-210 2941.4,-172.06 2922.72,-112.48 2997,-67 3042.04,-39.42 3102.8,-26.33 3139.59,-20.57"/>
<polygon fill="midnightblue" stroke="midnightblue" points="3140.37,-23.99 3149.75,-19.07 3139.35,-17.07 3140.37,-23.99"/>
</g>
<!-- Node60&#45;&gt;Node3 -->
<g id="edge79" class="edge">
<title>Node60&#45;&gt;Node3</title>
<path fill="none" stroke="midnightblue" d="M2286.21,-248.14C2281.41,-247.38 2276.63,-246.66 2272,-246 2126.8,-225.37 2087.74,-239.09 1944,-210 1913.54,-203.84 1907.16,-197.47 1877,-190 1774.97,-164.72 1510.44,-137.44 1413,-98 1389.46,-88.47 1389.1,-75 1365,-67 1232.13,-22.9 793.94,-17.26 658.35,-16.58"/>
<polygon fill="midnightblue" stroke="midnightblue" points="658.03,-13.08 648.01,-16.53 658,-20.08 658.03,-13.08"/>
</g>
<!-- Node60&#45;&gt;Node4 -->
<g id="edge82" class="edge">
<title>Node60&#45;&gt;Node4</title>
<path fill="none" stroke="midnightblue" d="M2286.13,-254.19C2258.16,-251.63 2225.54,-248.66 2196,-246 2034.71,-231.47 1844.48,-214.64 1749.8,-206.27"/>
<polygon fill="midnightblue" stroke="midnightblue" points="1749.83,-202.76 1739.56,-205.37 1749.21,-209.74 1749.83,-202.76"/>
</g>
<!-- Node60&#45;&gt;Node6 -->
<g id="edge80" class="edge">
<title>Node60&#45;&gt;Node6</title>
<path fill="none" stroke="midnightblue" d="M2286.22,-248.08C2281.41,-247.33 2276.64,-246.63 2272,-246 2110.05,-223.92 2067.28,-236.57 1906,-210 1867.28,-203.62 1858.63,-196.88 1820,-190 1506.93,-134.26 1124.22,-97.65 1003.42,-86.84"/>
<polygon fill="midnightblue" stroke="midnightblue" points="1003.48,-83.33 993.21,-85.93 1002.86,-90.3 1003.48,-83.33"/>
</g>
<!-- Node60&#45;&gt;Node13 -->
<g id="edge81" class="edge">
<title>Node60&#45;&gt;Node13</title>
<path fill="none" stroke="midnightblue" d="M2338.38,-246.43C2294.93,-210.45 2173.15,-114.56 2055,-67 2014.41,-50.66 1890.18,-30.59 1829.73,-21.45"/>
<polygon fill="midnightblue" stroke="midnightblue" points="1829.98,-17.95 1819.57,-19.93 1828.94,-24.87 1829.98,-17.95"/>
</g>
<!-- Node87&#45;&gt;Node2 -->
<g id="edge85" class="edge">
<title>Node87&#45;&gt;Node2</title>
<path fill="none" stroke="midnightblue" d="M1451.76,-870.25C1660.87,-870.65 2332.57,-868.43 2544,-825 2795.27,-773.38 3552,-519.02 3552,-262.5 3552,-262.5 3552,-262.5 3552,-143 3552,-101.31 3532.56,-88.77 3497,-67 3448.24,-37.16 3276.95,-23.1 3204.62,-18.4"/>
<polygon fill="midnightblue" stroke="midnightblue" points="3204.49,-14.88 3194.29,-17.75 3204.05,-21.87 3204.49,-14.88"/>
</g>
<!-- Node87&#45;&gt;Node3 -->
<g id="edge86" class="edge">
<title>Node87&#45;&gt;Node3</title>
<path fill="none" stroke="midnightblue" d="M1326.16,-869.36C1088.08,-866.7 252.62,-855.24 205,-825 99.62,-758.08 76,-700.33 76,-575.5 76,-575.5 76,-575.5 76,-143 76,-102.07 92.83,-87.93 128,-67 203.67,-21.98 474.67,-16.71 577.78,-16.37"/>
<polygon fill="midnightblue" stroke="midnightblue" points="577.8,-19.87 587.8,-16.35 577.79,-12.87 577.8,-19.87"/>
</g>
<!-- Node87&#45;&gt;Node4 -->
<g id="edge89" class="edge">
<title>Node87&#45;&gt;Node4</title>
<path fill="none" stroke="midnightblue" d="M1451.57,-870.85C1554.32,-870.93 1764.61,-865.49 1937,-825 2012.93,-807.17 2100,-837.99 2100,-760 2100,-760 2100,-760 2100,-573.5 2100,-557.1 1899.87,-379.17 1887,-369 1857.34,-345.58 1771.33,-303.1 1744,-277 1725.78,-259.6 1709.75,-235.25 1699.98,-218.85"/>
<polygon fill="midnightblue" stroke="midnightblue" points="1702.78,-216.7 1694.75,-209.79 1696.72,-220.2 1702.78,-216.7"/>
</g>
<!-- Node87&#45;&gt;Node6 -->
<g id="edge87" class="edge">
<title>Node87&#45;&gt;Node6</title>
<path fill="none" stroke="midnightblue" d="M1326.22,-869.57C1134.89,-867.88 561.04,-859.95 378,-825 291.16,-808.42 190,-848.41 190,-760 190,-760 190,-760 190,-450.5 190,-120.51 771.01,-86.83 926.9,-83.73"/>
<polygon fill="midnightblue" stroke="midnightblue" points="927.02,-87.22 936.96,-83.56 926.9,-80.23 927.02,-87.22"/>
</g>
<!-- Node87&#45;&gt;Node19 -->
<g id="edge185" class="edge">
<title>Node87&#45;&gt;Node19</title>
<path fill="none" stroke="midnightblue" d="M1451.76,-864.98C1605.04,-851.87 1986,-813.88 1986,-760 1986,-760 1986,-760 1986,-696.5 1986,-660.08 1978.79,-618.02 1974.05,-594.31"/>
<polygon fill="midnightblue" stroke="midnightblue" points="1977.42,-593.33 1971.96,-584.25 1970.57,-594.76 1977.42,-593.33"/>
</g>
<!-- Node87&#45;&gt;Node64 -->
<g id="edge187" class="edge">
<title>Node87&#45;&gt;Node64</title>
<path fill="none" stroke="midnightblue" d="M1401.93,-861.39C1424.33,-845.76 1470.23,-810.48 1494,-769 1541.36,-686.34 1551.26,-653.2 1537,-559 1532.16,-527.06 1519.61,-491.5 1511.45,-470.61"/>
<polygon fill="midnightblue" stroke="midnightblue" points="1514.62,-469.11 1507.65,-461.13 1508.12,-471.71 1514.62,-469.11"/>
</g>
<!-- Node87&#45;&gt;Node79 -->
<g id="edge188" class="edge">
<title>Node87&#45;&gt;Node79</title>
<path fill="none" stroke="midnightblue" d="M1451.71,-866.3C1618.78,-855.62 2062,-821.49 2062,-760 2062,-760 2062,-760 2062,-635 2062,-600.18 2061.74,-588.34 2043,-559 2007.95,-504.13 1979.26,-508.39 1929,-467 1901.19,-444.1 1869.27,-417.15 1849.87,-400.7"/>
<polygon fill="midnightblue" stroke="midnightblue" points="1852.03,-397.94 1842.14,-394.13 1847.5,-403.27 1852.03,-397.94"/>
</g>
<!-- Node87&#45;&gt;Node80 -->
<g id="edge88" class="edge">
<title>Node87&#45;&gt;Node80</title>
<path fill="none" stroke="midnightblue" d="M1326.36,-868.17C1134.67,-861.76 569,-836.35 569,-760 569,-760 569,-760 569,-696.5 569,-505 711.54,-502.33 849,-369 860.16,-358.17 873.73,-347.22 884.72,-338.83"/>
<polygon fill="midnightblue" stroke="midnightblue" points="886.99,-341.51 892.88,-332.7 882.78,-335.91 886.99,-341.51"/>
</g>
<!-- Node87&#45;&gt;Node51 -->
<g id="edge90" class="edge">
<title>Node87&#45;&gt;Node51</title>
<path fill="none" stroke="midnightblue" d="M1451.8,-870.11C1698.11,-869.89 2588.62,-862.58 2668,-769 2764.06,-655.77 2741.74,-545.08 2641,-436 2593.03,-384.06 2515.37,-351.62 2468.84,-335.75"/>
<polygon fill="midnightblue" stroke="midnightblue" points="2469.72,-332.36 2459.13,-332.53 2467.51,-339 2469.72,-332.36"/>
</g>
<!-- Node87&#45;&gt;Node56 -->
<g id="edge184" class="edge">
<title>Node87&#45;&gt;Node56</title>
<path fill="none" stroke="midnightblue" d="M1326.26,-869.22C1127.65,-866.44 520.83,-855.51 438,-825 393.7,-808.68 354,-807.21 354,-760 354,-760 354,-760 354,-573.5 354,-353.21 690.56,-287.45 839.97,-269.11"/>
<polygon fill="midnightblue" stroke="midnightblue" points="840.45,-272.57 849.97,-267.92 839.63,-265.62 840.45,-272.57"/>
</g>
<!-- Node88 -->
<g id="node36" class="node">
<title>Node88</title>
<g id="a_node36"><a xlink:href="../../de/db8/process__info_8h.html" target="_top" xlink:title=" ">
<polygon fill="none" stroke="black" points="825.5,-626.5 825.5,-645.5 956.5,-645.5 956.5,-626.5 825.5,-626.5"/>
<text text-anchor="middle" x="891" y="-633.5" font-family="Helvetica,sans-Serif" font-size="10.00">includes/process_info.h</text>
</a>
</g>
</g>
<!-- Node87&#45;&gt;Node88 -->
<g id="edge91" class="edge">
<title>Node87&#45;&gt;Node88</title>
<path fill="none" stroke="midnightblue" d="M1326.36,-867.63C1214.82,-862.84 986.39,-850.22 911,-825 865.96,-809.94 843.17,-810.46 820,-769 796.55,-727.03 843.93,-676.88 872.12,-652.23"/>
<polygon fill="midnightblue" stroke="midnightblue" points="874.45,-654.84 879.82,-645.7 869.93,-649.5 874.45,-654.84"/>
</g>
<!-- Node89 -->
<g id="node37" class="node">
<title>Node89</title>
<g id="a_node37"><a xlink:href="../../d1/d82/data__value__container_8h.html" target="_top" xlink:title=" ">
<polygon fill="none" stroke="black" points="1203.5,-559.5 1203.5,-589.5 1328.5,-589.5 1328.5,-559.5 1203.5,-559.5"/>
<text text-anchor="start" x="1211.5" y="-577.5" font-family="Helvetica,sans-Serif" font-size="10.00">containers/data_value</text>
<text text-anchor="middle" x="1266" y="-566.5" font-family="Helvetica,sans-Serif" font-size="10.00">_container.h</text>
</a>
</g>
</g>
<!-- Node87&#45;&gt;Node89 -->
<g id="edge107" class="edge">
<title>Node87&#45;&gt;Node89</title>
<path fill="none" stroke="midnightblue" d="M1385.22,-861.35C1377.58,-843.03 1361,-798.82 1361,-760 1361,-760 1361,-760 1361,-696.5 1361,-653.9 1324.12,-617.41 1296.32,-595.96"/>
<polygon fill="midnightblue" stroke="midnightblue" points="1298.15,-592.95 1288.03,-589.79 1293.97,-598.57 1298.15,-592.95"/>
</g>
<!-- Node90 -->
<g id="node38" class="node">
<title>Node90</title>
<g id="a_node38"><a xlink:href="../../d8/d3b/mesh_8h.html" target="_top" xlink:title=" ">
<polygon fill="none" stroke="black" points="1389,-749.5 1389,-768.5 1485,-768.5 1485,-749.5 1389,-749.5"/>
<text text-anchor="middle" x="1437" y="-756.5" font-family="Helvetica,sans-Serif" font-size="10.00">includes/mesh.h</text>
</a>
</g>
</g>
<!-- Node87&#45;&gt;Node90 -->
<g id="edge108" class="edge">
<title>Node87&#45;&gt;Node90</title>
<path fill="none" stroke="midnightblue" d="M1392.77,-861.37C1400.58,-843.46 1418.71,-801.92 1429.17,-777.95"/>
<polygon fill="midnightblue" stroke="midnightblue" points="1432.46,-779.16 1433.25,-768.59 1426.04,-776.36 1432.46,-779.16"/>
</g>
<!-- Node94 -->
<g id="node40" class="node">
<title>Node94</title>
<g id="a_node40"><a xlink:href="../../d2/d58/pointer__vector__map_8h.html" target="_top" xlink:title=" ">
<polygon fill="none" stroke="red" points="674.5,-369.5 674.5,-399.5 779.5,-399.5 779.5,-369.5 674.5,-369.5"/>
<text text-anchor="start" x="682.5" y="-387.5" font-family="Helvetica,sans-Serif" font-size="10.00">containers/pointer</text>
<text text-anchor="middle" x="727" y="-376.5" font-family="Helvetica,sans-Serif" font-size="10.00">_vector_map.h</text>
</a>
</g>
</g>
<!-- Node87&#45;&gt;Node94 -->
<g id="edge178" class="edge">
<title>Node87&#45;&gt;Node94</title>
<path fill="none" stroke="midnightblue" d="M1326.25,-869.73C1158.2,-868.5 700.87,-861.79 555,-825 489.26,-808.42 417,-827.8 417,-760 417,-760 417,-760 417,-635 417,-506.85 579.75,-433.42 669.41,-402.69"/>
<polygon fill="midnightblue" stroke="midnightblue" points="670.54,-406 678.9,-399.5 668.31,-399.37 670.54,-406"/>
</g>
<!-- Node106 -->
<g id="node43" class="node">
<title>Node106</title>
<g id="a_node43"><a xlink:href="../../da/da4/master__slave__constraint_8h.html" target="_top" xlink:title=" ">
<polygon fill="none" stroke="red" points="1556,-682.5 1556,-712.5 1682,-712.5 1682,-682.5 1556,-682.5"/>
<text text-anchor="start" x="1564" y="-700.5" font-family="Helvetica,sans-Serif" font-size="10.00">includes/master_slave</text>
<text text-anchor="middle" x="1619" y="-689.5" font-family="Helvetica,sans-Serif" font-size="10.00">_constraint.h</text>
</a>
</g>
</g>
<!-- Node87&#45;&gt;Node106 -->
<g id="edge186" class="edge">
<title>Node87&#45;&gt;Node106</title>
<path fill="none" stroke="midnightblue" d="M1451.86,-862.22C1481.56,-856.02 1516.09,-844.9 1542,-825 1576.87,-798.22 1599.51,-750.77 1610.7,-722.22"/>
<polygon fill="midnightblue" stroke="midnightblue" points="1614.06,-723.22 1614.31,-712.63 1607.51,-720.76 1614.06,-723.22"/>
</g>
<!-- Node116 -->
<g id="node44" class="node">
<title>Node116</title>
<g id="a_node44"><a xlink:href="../../d3/dad/geometry__container_8h.html" target="_top" xlink:title=" ">
<polygon fill="none" stroke="black" points="2009,-436.5 2009,-466.5 2127,-466.5 2127,-436.5 2009,-436.5"/>
<text text-anchor="start" x="2017" y="-454.5" font-family="Helvetica,sans-Serif" font-size="10.00">containers/geometry</text>
<text text-anchor="middle" x="2068" y="-443.5" font-family="Helvetica,sans-Serif" font-size="10.00">_container.h</text>
</a>
</g>
</g>
<!-- Node87&#45;&gt;Node116 -->
<g id="edge145" class="edge">
<title>Node87&#45;&gt;Node116</title>
<path fill="none" stroke="midnightblue" d="M1451.79,-868.91C1655.81,-864.56 2287,-844.28 2287,-760 2287,-760 2287,-760 2287,-696.5 2287,-588.54 2166.78,-506.61 2104.49,-471.41"/>
<polygon fill="midnightblue" stroke="midnightblue" points="2106.18,-468.35 2095.74,-466.56 2102.78,-474.47 2106.18,-468.35"/>
</g>
<!-- Node117 -->
<g id="node45" class="node">
<title>Node117</title>
<g id="a_node45"><a xlink:href="../../d4/dfe/element_8h.html" target="_top" xlink:title=" ">
<polygon fill="none" stroke="red" points="961,-749.5 961,-768.5 1071,-768.5 1071,-749.5 961,-749.5"/>
<text text-anchor="middle" x="1016" y="-756.5" font-family="Helvetica,sans-Serif" font-size="10.00">includes/element.h</text>
</a>
</g>
</g>
<!-- Node87&#45;&gt;Node117 -->
<g id="edge148" class="edge">
<title>Node87&#45;&gt;Node117</title>
<path fill="none" stroke="midnightblue" d="M1360.04,-861.46C1293.59,-841.86 1130.1,-793.65 1054.94,-771.48"/>
<polygon fill="midnightblue" stroke="midnightblue" points="1055.52,-768.01 1044.94,-768.53 1053.54,-774.72 1055.52,-768.01"/>
</g>
<!-- Node120 -->
<g id="node47" class="node">
<title>Node120</title>
<g id="a_node47"><a xlink:href="../../dd/d98/table_8h.html" target="_top" xlink:title=" ">
<polygon fill="none" stroke="black" points="1028,-503.5 1028,-522.5 1122,-522.5 1122,-503.5 1028,-503.5"/>
<text text-anchor="middle" x="1075" y="-510.5" font-family="Helvetica,sans-Serif" font-size="10.00">includes/table.h</text>
</a>
</g>
</g>
<!-- Node87&#45;&gt;Node120 -->
<g id="edge177" class="edge">
<title>Node87&#45;&gt;Node120</title>
<path fill="none" stroke="midnightblue" d="M1326.41,-867.67C1193.44,-862.31 891.62,-847.78 851,-825 824.1,-809.91 819.59,-798.32 810,-769 797.72,-731.44 748.81,-723.02 816,-626 862.1,-559.43 956.65,-532.13 1017.86,-521.14"/>
<polygon fill="midnightblue" stroke="midnightblue" points="1018.49,-524.59 1027.76,-519.46 1017.32,-517.69 1018.49,-524.59"/>
</g>
<!-- Node132 -->
<g id="node48" class="node">
<title>Node132</title>
<g id="a_node48"><a xlink:href="../../d7/d6c/condition_8h.html" target="_top" xlink:title=" ">
<polygon fill="none" stroke="red" points="829,-749.5 829,-768.5 943,-768.5 943,-749.5 829,-749.5"/>
<text text-anchor="middle" x="886" y="-756.5" font-family="Helvetica,sans-Serif" font-size="10.00">includes/condition.h</text>
</a>
</g>
</g>
<!-- Node87&#45;&gt;Node132 -->
<g id="edge165" class="edge">
<title>Node87&#45;&gt;Node132</title>
<path fill="none" stroke="midnightblue" d="M1326.17,-869.75C1218.12,-868.33 1002.4,-860.93 937,-825 917.61,-814.35 903.08,-792.94 894.58,-777.6"/>
<polygon fill="midnightblue" stroke="midnightblue" points="897.6,-775.83 889.88,-768.57 891.39,-779.06 897.6,-775.83"/>
</g>
<!-- Node133 -->
<g id="node49" class="node">
<title>Node133</title>
<g id="a_node49"><a xlink:href="../../d8/d75/communicator_8h.html" target="_top" xlink:title=" ">
<polygon fill="none" stroke="black" points="946.5,-805.5 946.5,-824.5 1085.5,-824.5 1085.5,-805.5 946.5,-805.5"/>
<text text-anchor="middle" x="1016" y="-812.5" font-family="Helvetica,sans-Serif" font-size="10.00">includes/communicator.h</text>
</a>
</g>
</g>
<!-- Node87&#45;&gt;Node133 -->
<g id="edge168" class="edge">
<title>Node87&#45;&gt;Node133</title>
<path fill="none" stroke="midnightblue" d="M1329.9,-861.44C1263.33,-851.81 1155.28,-836.16 1084.92,-825.98"/>
<polygon fill="midnightblue" stroke="midnightblue" points="1085.22,-822.49 1074.83,-824.52 1084.22,-829.41 1085.22,-822.49"/>
</g>
<!-- Node134 -->
<g id="node50" class="node">
<title>Node134</title>
<g id="a_node50"><a xlink:href="../../da/d92/pointer__hash__map__set_8h.html" target="_top" xlink:title=" ">
<polygon fill="none" stroke="red" points="2377.5,-369.5 2377.5,-399.5 2482.5,-399.5 2482.5,-369.5 2377.5,-369.5"/>
<text text-anchor="start" x="2385.5" y="-387.5" font-family="Helvetica,sans-Serif" font-size="10.00">containers/pointer</text>
<text text-anchor="middle" x="2430" y="-376.5" font-family="Helvetica,sans-Serif" font-size="10.00">_hash_map_set.h</text>
</a>
</g>
</g>
<!-- Node87&#45;&gt;Node134 -->
<g id="edge179" class="edge">
<title>Node87&#45;&gt;Node134</title>
<path fill="none" stroke="midnightblue" d="M1451.83,-867.88C1707.49,-858.83 2656,-821.13 2656,-760 2656,-760 2656,-760 2656,-512 2656,-436.83 2559.63,-405.89 2492.75,-393.47"/>
<polygon fill="midnightblue" stroke="midnightblue" points="2493.16,-389.99 2482.7,-391.7 2491.94,-396.88 2493.16,-389.99"/>
</g>
<!-- Node88&#45;&gt;Node2 -->
<g id="edge92" class="edge">
<title>Node88&#45;&gt;Node2</title>
<path fill="none" stroke="midnightblue" d="M956.56,-632.39C1001.9,-630.58 1063.61,-628.14 1118,-626 1323.55,-617.93 1840.11,-623.94 2043,-590 2151.37,-571.87 2928.89,-373.73 2981,-277 2987.53,-264.87 2988.95,-257.25 2981,-246 2938.01,-185.15 2894.16,-212.06 2823,-190 2763.69,-171.61 2725.83,-203.24 2688,-154 2664.44,-123.34 2662.12,-95.73 2688,-67 2718.25,-33.43 3035.93,-20.7 3139.53,-17.42"/>
<polygon fill="midnightblue" stroke="midnightblue" points="3139.82,-20.92 3149.7,-17.11 3139.6,-13.92 3139.82,-20.92"/>
</g>
<!-- Node88&#45;&gt;Node3 -->
<g id="edge93" class="edge">
<title>Node88&#45;&gt;Node3</title>
<path fill="none" stroke="midnightblue" d="M857.94,-626.43C830.81,-618.75 791.82,-606.2 760,-590 525.6,-470.67 314,-464.03 314,-201 314,-201 314,-201 314,-143 314,-30.07 495.03,-16.1 577.69,-15.61"/>
<polygon fill="midnightblue" stroke="midnightblue" points="577.74,-19.11 587.74,-15.62 577.74,-12.11 577.74,-19.11"/>
</g>
<!-- Node88&#45;&gt;Node4 -->
<g id="edge96" class="edge">
<title>Node88&#45;&gt;Node4</title>
<path fill="none" stroke="midnightblue" d="M908.18,-626.29C936.78,-611.87 996.05,-582.31 1047,-559 1083.93,-542.1 1104.06,-553.4 1131,-523 1216.08,-427.01 1113.08,-327.66 1212,-246 1243.62,-219.9 1509.02,-207.34 1630.15,-202.92"/>
<polygon fill="midnightblue" stroke="midnightblue" points="1630.49,-206.41 1640.36,-202.55 1630.24,-199.41 1630.49,-206.41"/>
</g>
<!-- Node88&#45;&gt;Node6 -->
<g id="edge94" class="edge">
<title>Node88&#45;&gt;Node6</title>
<path fill="none" stroke="midnightblue" d="M875.73,-626.39C816.51,-592.64 603.49,-467.87 569,-400 562.76,-387.72 566.03,-382.45 569,-369 587.89,-283.37 586.79,-248.63 652,-190 731.86,-118.2 862.16,-94.47 926.53,-86.89"/>
<polygon fill="midnightblue" stroke="midnightblue" points="927.09,-90.35 936.64,-85.77 926.32,-83.39 927.09,-90.35"/>
</g>
<!-- Node88&#45;&gt;Node20 -->
<g id="edge106" class="edge">
<title>Node88&#45;&gt;Node20</title>
<path fill="none" stroke="midnightblue" d="M914.86,-626.49C962.92,-609.08 1074.44,-567.26 1164,-523 1332.95,-439.51 1525.09,-317.53 1588.48,-276.53"/>
<polygon fill="midnightblue" stroke="midnightblue" points="1590.39,-279.46 1596.88,-271.09 1586.58,-273.59 1590.39,-279.46"/>
</g>
<!-- Node88&#45;&gt;Node80 -->
<g id="edge95" class="edge">
<title>Node88&#45;&gt;Node80</title>
<path fill="none" stroke="midnightblue" d="M889.02,-626.35C884.85,-607.63 875.28,-561.91 872,-523 867.31,-467.32 888.57,-455.07 898,-400 901.28,-380.85 903.1,-358.71 904.05,-343.28"/>
<polygon fill="midnightblue" stroke="midnightblue" points="907.57,-343.13 904.63,-332.95 900.58,-342.74 907.57,-343.13"/>
</g>
<!-- Node88&#45;&gt;Node89 -->
<g id="edge97" class="edge">
<title>Node88&#45;&gt;Node89</title>
<path fill="none" stroke="midnightblue" d="M944.73,-626.48C1010.01,-616.12 1120.43,-598.6 1193.28,-587.04"/>
<polygon fill="midnightblue" stroke="midnightblue" points="1193.97,-590.47 1203.3,-585.45 1192.88,-583.56 1193.97,-590.47"/>
</g>
<!-- Node89&#45;&gt;Node2 -->
<g id="edge98" class="edge">
<title>Node89&#45;&gt;Node2</title>
<path fill="none" stroke="midnightblue" d="M1328.75,-564.58C1344.18,-562.57 1360.67,-560.56 1376,-559 1596.32,-536.52 1652.42,-542.8 1873,-523 1936.89,-517.27 2958.52,-414.52 3021,-400 3040.41,-395.49 3342.86,-289.96 3358,-277 3387.32,-251.9 3400,-239.59 3400,-201 3400,-201 3400,-201 3400,-143 3400,-54.63 3267.43,-27.48 3204.47,-19.56"/>
<polygon fill="midnightblue" stroke="midnightblue" points="3204.61,-16.06 3194.28,-18.37 3203.8,-23.01 3204.61,-16.06"/>
</g>
<!-- Node89&#45;&gt;Node3 -->
<g id="edge99" class="edge">
<title>Node89&#45;&gt;Node3</title>
<path fill="none" stroke="midnightblue" d="M1203.4,-571.33C1082.28,-565.46 808.88,-544.04 594,-467 497.07,-432.25 452.31,-424.46 405,-333 377.87,-280.56 390,-260.04 390,-201 390,-201 390,-201 390,-143 390,-107.58 388.17,-91.24 414,-67 437.44,-44.99 525.3,-29.35 577.77,-21.74"/>
<polygon fill="midnightblue" stroke="midnightblue" points="578.35,-25.2 587.76,-20.33 577.37,-18.26 578.35,-25.2"/>
</g>
<!-- Node89&#45;&gt;Node4 -->
<g id="edge102" class="edge">
<title>Node89&#45;&gt;Node4</title>
<path fill="none" stroke="midnightblue" d="M1283.8,-559.18C1294.4,-549.84 1307.43,-536.85 1316,-523 1333.42,-494.86 1340,-485.6 1340,-452.5 1340,-452.5 1340,-452.5 1340,-383.5 1340,-322.07 1285.32,-292.02 1326,-246 1345.78,-223.62 1532.06,-209.88 1630.18,-204.13"/>
<polygon fill="midnightblue" stroke="midnightblue" points="1630.47,-207.62 1640.26,-203.55 1630.07,-200.63 1630.47,-207.62"/>
</g>
<!-- Node89&#45;&gt;Node12 -->
<g id="edge105" class="edge">
<title>Node89&#45;&gt;Node12</title>
<path fill="none" stroke="midnightblue" d="M1254.18,-559.46C1214.2,-510.26 1091.05,-343.3 1174,-246 1245.54,-162.08 1586.86,-147.6 1735.06,-145.31"/>
<polygon fill="midnightblue" stroke="midnightblue" points="1735.44,-148.81 1745.39,-145.17 1735.34,-141.81 1735.44,-148.81"/>
</g>
<!-- Node89&#45;&gt;Node13 -->
<g id="edge101" class="edge">
<title>Node89&#45;&gt;Node13</title>
<path fill="none" stroke="midnightblue" d="M1328.77,-564.76C1344.2,-562.74 1360.68,-560.69 1376,-559 1556.06,-539.16 1602,-543.44 1782,-523 1915.18,-507.87 2883.88,-385.2 2963,-277 2971.13,-265.88 2971.7,-256.69 2963,-246 2932.13,-208.06 2149.08,-75.97 2101,-67 2002.86,-48.69 1886.31,-30.33 1829.92,-21.65"/>
<polygon fill="midnightblue" stroke="midnightblue" points="1830.2,-18.16 1819.79,-20.1 1829.14,-25.08 1830.2,-18.16"/>
</g>
<!-- Node89&#45;&gt;Node21 -->
<g id="edge104" class="edge">
<title>Node89&#45;&gt;Node21</title>
<path fill="none" stroke="midnightblue" d="M1328.71,-564.72C1406.43,-553.84 1538.55,-535.34 1619.94,-523.95"/>
<polygon fill="midnightblue" stroke="midnightblue" points="1620.68,-527.38 1630.1,-522.53 1619.71,-520.45 1620.68,-527.38"/>
</g>
<!-- Node89&#45;&gt;Node64 -->
<g id="edge103" class="edge">
<title>Node89&#45;&gt;Node64</title>
<path fill="none" stroke="midnightblue" d="M1293.77,-559.38C1340.15,-535.8 1432.74,-488.73 1477.95,-465.74"/>
<polygon fill="midnightblue" stroke="midnightblue" points="1479.77,-468.74 1487.1,-461.09 1476.6,-462.5 1479.77,-468.74"/>
</g>
<!-- Node89&#45;&gt;Node80 -->
<g id="edge100" class="edge">
<title>Node89&#45;&gt;Node80</title>
<path fill="none" stroke="midnightblue" d="M1203.46,-568.04C1139.35,-561.2 1045.4,-547.31 1019,-523 966.54,-474.7 1016.5,-426.25 974,-369 963.96,-355.47 948.54,-344.86 934.83,-337.35"/>
<polygon fill="midnightblue" stroke="midnightblue" points="936.19,-334.12 925.7,-332.65 932.99,-340.34 936.19,-334.12"/>
</g>
<!-- Node90&#45;&gt;Node2 -->
<g id="edge109" class="edge">
<title>Node90&#45;&gt;Node2</title>
<path fill="none" stroke="midnightblue" d="M1485.25,-755.25C1567.09,-750.1 1738.17,-737.29 1881,-713 1939.13,-703.12 1951.74,-691.08 2010,-682 2225.32,-648.43 2286.12,-692.58 2499,-646 2606.98,-622.37 2628.35,-597.42 2732,-559 2800.16,-533.73 3279.66,-362.73 3346,-333 3405.98,-306.12 3476,-328.23 3476,-262.5 3476,-262.5 3476,-262.5 3476,-143 3476,-26.44 3283.13,-15.31 3204.64,-15.6"/>
<polygon fill="midnightblue" stroke="midnightblue" points="3204.32,-12.11 3194.35,-15.71 3204.39,-19.11 3204.32,-12.11"/>
</g>
<!-- Node90&#45;&gt;Node3 -->
<g id="edge110" class="edge">
<title>Node90&#45;&gt;Node3</title>
<path fill="none" stroke="midnightblue" d="M1388.98,-756.15C1245.11,-750.43 823.85,-732.2 765,-713 430.76,-603.95 162,-552.58 162,-201 162,-201 162,-201 162,-143 162,-107.58 158.7,-89.56 186,-67 245.05,-18.2 481.86,-15.03 577.56,-15.82"/>
<polygon fill="midnightblue" stroke="midnightblue" points="577.68,-19.32 587.72,-15.92 577.75,-12.32 577.68,-19.32"/>
</g>
<!-- Node90&#45;&gt;Node4 -->
<g id="edge113" class="edge">
<title>Node90&#45;&gt;Node4</title>
<path fill="none" stroke="midnightblue" d="M1436.17,-749.38C1434.63,-735.09 1430.75,-705.72 1423,-682 1414.42,-655.73 1408.71,-650.53 1396,-626 1387.58,-609.75 1380.59,-607.72 1376,-590 1368.63,-561.56 1352.14,-310.44 1414,-246 1442.96,-215.83 1557.94,-205.89 1630.04,-202.61"/>
<polygon fill="midnightblue" stroke="midnightblue" points="1630.51,-206.09 1640.35,-202.17 1630.21,-199.1 1630.51,-206.09"/>
</g>
<!-- Node90&#45;&gt;Node6 -->
<g id="edge111" class="edge">
<title>Node90&#45;&gt;Node6</title>
<path fill="none" stroke="midnightblue" d="M1388.54,-756.94C1248.5,-753.56 850,-741.51 799,-713 767.03,-695.12 769.23,-677.78 751,-646 686.86,-534.18 627.14,-492.22 665,-369 707.98,-229.1 872.28,-131.18 937.79,-96.92"/>
<polygon fill="midnightblue" stroke="midnightblue" points="939.78,-99.84 947.07,-92.16 936.58,-93.61 939.78,-99.84"/>
</g>
<!-- Node90&#45;&gt;Node20 -->
<g id="edge137" class="edge">
<title>Node90&#45;&gt;Node20</title>
<path fill="none" stroke="midnightblue" d="M1485.21,-753.77C1592.18,-743.06 1840,-710.32 1840,-637 1840,-637 1840,-637 1840,-573.5 1840,-504.5 1718.83,-362.73 1671,-313 1658.42,-299.92 1642.6,-286.91 1630.22,-277.37"/>
<polygon fill="midnightblue" stroke="midnightblue" points="1632,-274.32 1621.92,-271.08 1627.78,-279.91 1632,-274.32"/>
</g>
<!-- Node90&#45;&gt;Node80 -->
<g id="edge112" class="edge">
<title>Node90&#45;&gt;Node80</title>
<path fill="none" stroke="midnightblue" d="M1388.83,-757.99C1253.36,-756.74 875.1,-744.37 816,-646 783.88,-592.53 868.56,-401.61 896.45,-341.95"/>
<polygon fill="midnightblue" stroke="midnightblue" points="899.72,-343.22 900.82,-332.68 893.39,-340.23 899.72,-343.22"/>
</g>
<!-- Node90&#45;&gt;Node89 -->
<g id="edge138" class="edge">
<title>Node90&#45;&gt;Node89</title>
<path fill="none" stroke="midnightblue" d="M1433.82,-749.32C1424.06,-723.03 1394.03,-644.93 1375,-626 1360.71,-611.78 1341.67,-601.1 1323.51,-593.32"/>
<polygon fill="midnightblue" stroke="midnightblue" points="1324.7,-590.02 1314.12,-589.5 1322.07,-596.51 1324.7,-590.02"/>
</g>
<!-- Node91 -->
<g id="node39" class="node">
<title>Node91</title>
<g id="a_node39"><a xlink:href="../../d4/d35/pointer__vector__set_8h.html" target="_top" xlink:title=" ">
<polygon fill="none" stroke="red" points="1934.5,-369.5 1934.5,-399.5 2039.5,-399.5 2039.5,-369.5 1934.5,-369.5"/>
<text text-anchor="start" x="1942.5" y="-387.5" font-family="Helvetica,sans-Serif" font-size="10.00">containers/pointer</text>
<text text-anchor="middle" x="1987" y="-376.5" font-family="Helvetica,sans-Serif" font-size="10.00">_vector_set.h</text>
</a>
</g>
</g>
<!-- Node90&#45;&gt;Node91 -->
<g id="edge114" class="edge">
<title>Node90&#45;&gt;Node91</title>
<path fill="none" stroke="midnightblue" d="M1485.31,-755.8C1589.12,-750.66 1826.33,-736.45 1854,-713 1908.21,-667.06 1870.95,-625.11 1897,-559 1919.08,-502.97 1953.8,-441.24 1973.03,-408.64"/>
<polygon fill="midnightblue" stroke="midnightblue" points="1976.14,-410.26 1978.24,-399.87 1970.12,-406.68 1976.14,-410.26"/>
</g>
<!-- Node90&#45;&gt;Node94 -->
<g id="edge123" class="edge">
<title>Node90&#45;&gt;Node94</title>
<path fill="none" stroke="midnightblue" d="M1388.63,-758.14C1267.5,-757.87 954.02,-753.19 859,-713 762.63,-672.24 744.53,-624.71 720,-523 710.65,-484.23 716.46,-437.59 721.64,-409.81"/>
<polygon fill="midnightblue" stroke="midnightblue" points="725.11,-410.29 723.64,-399.8 718.25,-408.92 725.11,-410.29"/>
</g>
<!-- Node96 -->
<g id="node41" class="node">
<title>Node96</title>
<g id="a_node41"><a xlink:href="../../de/d69/indexed__object_8h.html" target="_top" xlink:title=" ">
<polygon fill="none" stroke="black" points="1385.5,-565 1385.5,-584 1528.5,-584 1528.5,-565 1385.5,-565"/>
<text text-anchor="middle" x="1457" y="-572" font-family="Helvetica,sans-Serif" font-size="10.00">includes/indexed_object.h</text>
</a>
</g>
</g>
<!-- Node90&#45;&gt;Node96 -->
<g id="edge130" class="edge">
<title>Node90&#45;&gt;Node96</title>
<path fill="none" stroke="midnightblue" d="M1440.48,-749.2C1443.84,-740.25 1448.75,-725.9 1451,-713 1458.29,-671.17 1458.35,-621.16 1457.71,-594.48"/>
<polygon fill="midnightblue" stroke="midnightblue" points="1461.2,-594.16 1457.39,-584.27 1454.2,-594.37 1461.2,-594.16"/>
</g>
<!-- Node97 -->
<g id="node42" class="node">
<title>Node97</title>
<g id="a_node42"><a xlink:href="../../d4/d67/geometry_8h.html" target="_top" xlink:title=" ">
<polygon fill="none" stroke="red" points="1127,-626.5 1127,-645.5 1257,-645.5 1257,-626.5 1127,-626.5"/>
<text text-anchor="middle" x="1192" y="-633.5" font-family="Helvetica,sans-Serif" font-size="10.00">geometries/geometry.h</text>
</a>
</g>
</g>
<!-- Node90&#45;&gt;Node97 -->
<g id="edge134" class="edge">
<title>Node90&#45;&gt;Node97</title>
<path fill="none" stroke="midnightblue" d="M1419.77,-749.49C1377.61,-728.67 1269.03,-675.04 1218.54,-650.11"/>
<polygon fill="midnightblue" stroke="midnightblue" points="1220.05,-646.95 1209.54,-645.66 1216.95,-653.23 1220.05,-646.95"/>
</g>
<!-- Node90&#45;&gt;Node106 -->
<g id="edge139" class="edge">
<title>Node90&#45;&gt;Node106</title>
<path fill="none" stroke="midnightblue" d="M1463.08,-749.48C1489.91,-740.7 1532.47,-726.79 1566.35,-715.71"/>
<polygon fill="midnightblue" stroke="midnightblue" points="1567.69,-718.96 1576.11,-712.52 1565.51,-712.3 1567.69,-718.96"/>
</g>
<!-- Node91&#45;&gt;Node2 -->
<g id="edge116" class="edge">
<title>Node91&#45;&gt;Node2</title>
<path fill="none" stroke="midnightblue" d="M2039.8,-381.16C2226.44,-372.8 2846.04,-344.35 2887,-333 2905.39,-327.9 2906.85,-318.91 2925,-313 3030.49,-278.67 3087.57,-348.97 3172,-277 3243.53,-216.03 3218.41,-158.52 3197,-67 3194.29,-55.41 3188.5,-43.42 3183.18,-34.04"/>
<polygon fill="midnightblue" stroke="midnightblue" points="3186.1,-32.1 3177.95,-25.33 3180.1,-35.7 3186.1,-32.1"/>
</g>
<!-- Node91&#45;&gt;Node3 -->
<g id="edge117" class="edge">
<title>Node91&#45;&gt;Node3</title>
<path fill="none" stroke="midnightblue" d="M1934.4,-375.31C1919.13,-373.08 1902.42,-370.79 1887,-369 1655.22,-342.02 1048.48,-383.77 841,-277 784.57,-247.96 667.46,-86.61 629.88,-33.48"/>
<polygon fill="midnightblue" stroke="midnightblue" points="632.62,-31.29 624.01,-25.13 626.9,-35.32 632.62,-31.29"/>
</g>
<!-- Node91&#45;&gt;Node4 -->
<g id="edge121" class="edge">
<title>Node91&#45;&gt;Node4</title>
<path fill="none" stroke="midnightblue" d="M1957.82,-369.5C1918.65,-350.31 1847.34,-313.98 1790,-277 1759.99,-257.65 1727.45,-231.95 1707.9,-215.95"/>
<polygon fill="midnightblue" stroke="midnightblue" points="1710.07,-213.2 1700.13,-209.54 1705.61,-218.6 1710.07,-213.2"/>
</g>
<!-- Node91&#45;&gt;Node6 -->
<g id="edge118" class="edge">
<title>Node91&#45;&gt;Node6</title>
<path fill="none" stroke="midnightblue" d="M1934.37,-374.5C1794.9,-349.68 1405.54,-274.03 1100,-154 1059.01,-137.9 1014.22,-112.91 987.92,-97.41"/>
<polygon fill="midnightblue" stroke="midnightblue" points="989.49,-94.27 979.11,-92.16 985.91,-100.29 989.49,-94.27"/>
</g>
<!-- Node91&#45;&gt;Node9 -->
<g id="edge120" class="edge">
<title>Node91&#45;&gt;Node9</title>
<path fill="none" stroke="midnightblue" d="M2039.6,-381.45C2214.56,-374.47 2770.39,-351.13 2849,-333 2871.52,-327.81 2874.72,-319.13 2897,-313 2951.33,-298.04 3109.16,-317.82 3148,-277 3193.72,-228.95 3179.84,-140.58 3170.93,-102.16"/>
<polygon fill="midnightblue" stroke="midnightblue" points="3174.3,-101.2 3168.5,-92.33 3167.5,-102.88 3174.3,-101.2"/>
</g>
<!-- Node91&#45;&gt;Node13 -->
<g id="edge115" class="edge">
<title>Node91&#45;&gt;Node13</title>
<path fill="none" stroke="midnightblue" d="M1989.87,-369.17C1998.76,-320.48 2020.85,-159.28 1945,-67 1916.79,-32.68 1864.27,-21.58 1829.72,-18.06"/>
<polygon fill="midnightblue" stroke="midnightblue" points="1829.89,-14.56 1819.62,-17.19 1829.29,-21.53 1829.89,-14.56"/>
</g>
<!-- Node91&#45;&gt;Node80 -->
<g id="edge119" class="edge">
<title>Node91&#45;&gt;Node80</title>
<path fill="none" stroke="midnightblue" d="M1934.44,-374.87C1919.18,-372.63 1902.46,-370.45 1887,-369 1520.71,-334.56 1427.43,-351.66 1060,-333 1019.49,-330.94 973.04,-328.19 941.64,-326.28"/>
<polygon fill="midnightblue" stroke="midnightblue" points="941.79,-322.78 931.6,-325.66 941.37,-329.77 941.79,-322.78"/>
</g>
<!-- Node91&#45;&gt;Node51 -->
<g id="edge122" class="edge">
<title>Node91&#45;&gt;Node51</title>
<path fill="none" stroke="midnightblue" d="M2039.56,-376.44C2120.33,-365.59 2274.89,-344.83 2363.39,-332.95"/>
<polygon fill="midnightblue" stroke="midnightblue" points="2363.88,-336.41 2373.32,-331.61 2362.95,-329.47 2363.88,-336.41"/>
</g>
<!-- Node94&#45;&gt;Node2 -->
<g id="edge125" class="edge">
<title>Node94&#45;&gt;Node2</title>
<path fill="none" stroke="midnightblue" d="M779.89,-382.64C1035.99,-378.36 2148.96,-358.59 2495,-333 2547.23,-329.14 2917.74,-303.34 2963,-277 3063.26,-218.65 3040.87,-153.65 3118,-67 3129.15,-54.47 3142.99,-41.57 3153.87,-31.95"/>
<polygon fill="midnightblue" stroke="midnightblue" points="3156.27,-34.49 3161.51,-25.29 3151.67,-29.22 3156.27,-34.49"/>
</g>
<!-- Node94&#45;&gt;Node3 -->
<g id="edge126" class="edge">
<title>Node94&#45;&gt;Node3</title>
<path fill="none" stroke="midnightblue" d="M722.73,-369.11C705.68,-311.73 642.56,-99.21 623.49,-34.99"/>
<polygon fill="midnightblue" stroke="midnightblue" points="626.76,-33.69 620.55,-25.1 620.05,-35.68 626.76,-33.69"/>
</g>
<!-- Node94&#45;&gt;Node4 -->
<g id="edge129" class="edge">
<title>Node94&#45;&gt;Node4</title>
<path fill="none" stroke="midnightblue" d="M754.25,-369.38C788.87,-351.55 846.78,-322.1 869,-313 916.61,-293.51 930.52,-294.2 979,-277 1015.33,-264.11 1022.37,-254.35 1060,-246 1167.59,-222.12 1494.65,-208 1630.18,-203.03"/>
<polygon fill="midnightblue" stroke="midnightblue" points="1630.51,-206.52 1640.38,-202.66 1630.26,-199.53 1630.51,-206.52"/>
</g>
<!-- Node94&#45;&gt;Node6 -->
<g id="edge127" class="edge">
<title>Node94&#45;&gt;Node6</title>
<path fill="none" stroke="midnightblue" d="M733.75,-369.11C746.2,-343.25 774.43,-287.71 806,-246 850.86,-186.74 915.75,-126.74 946.93,-99.15"/>
<polygon fill="midnightblue" stroke="midnightblue" points="949.58,-101.48 954.79,-92.26 944.96,-96.22 949.58,-101.48"/>
</g>
<!-- Node94&#45;&gt;Node13 -->
<g id="edge124" class="edge">
<title>Node94&#45;&gt;Node13</title>
<path fill="none" stroke="midnightblue" d="M740.22,-369.11C749.31,-359.11 761.57,-345.4 772,-333 803.76,-295.23 800.1,-273.62 841,-246 1150.95,-36.69 1630.81,-17.57 1761.91,-16.39"/>
<polygon fill="midnightblue" stroke="midnightblue" points="1762.15,-19.89 1772.13,-16.33 1762.11,-12.89 1762.15,-19.89"/>
</g>
<!-- Node94&#45;&gt;Node80 -->
<g id="edge128" class="edge">
<title>Node94&#45;&gt;Node80</title>
<path fill="none" stroke="midnightblue" d="M769.18,-369.4C799.81,-359.16 840.77,-345.47 869.67,-335.81"/>
<polygon fill="midnightblue" stroke="midnightblue" points="870.98,-339.06 879.36,-332.57 868.77,-332.42 870.98,-339.06"/>
</g>
<!-- Node96&#45;&gt;Node3 -->
<g id="edge131" class="edge">
<title>Node96&#45;&gt;Node3</title>
<path fill="none" stroke="midnightblue" d="M1387.21,-564.98C1370.75,-562.99 1353.26,-560.9 1337,-559 1054.64,-525.96 974.01,-555.97 704,-467 542.19,-413.68 428,-371.36 428,-201 428,-201 428,-201 428,-143 428,-71.56 522.22,-38 577.97,-24.4"/>
<polygon fill="midnightblue" stroke="midnightblue" points="578.95,-27.77 587.89,-22.09 577.36,-20.95 578.95,-27.77"/>
</g>
<!-- Node96&#45;&gt;Node4 -->
<g id="edge132" class="edge">
<title>Node96&#45;&gt;Node4</title>
<path fill="none" stroke="midnightblue" d="M1454.68,-564.7C1442.49,-517.63 1388.02,-295.86 1430,-246 1455.08,-216.21 1561.53,-206.14 1630.2,-202.74"/>
<polygon fill="midnightblue" stroke="midnightblue" points="1630.64,-206.22 1640.47,-202.26 1630.32,-199.23 1630.64,-206.22"/>
</g>
<!-- Node96&#45;&gt;Node51 -->
<g id="edge133" class="edge">
<title>Node96&#45;&gt;Node51</title>
<path fill="none" stroke="midnightblue" d="M1528.97,-569.27C1654.72,-560.34 1921.44,-534.5 2136,-467 2242.85,-433.39 2359.67,-366.62 2407.6,-337.79"/>
<polygon fill="midnightblue" stroke="midnightblue" points="2409.5,-340.73 2416.24,-332.55 2405.87,-334.74 2409.5,-340.73"/>
</g>
<!-- Node97&#45;&gt;Node56 -->
<g id="edge136" class="edge">
<title>Node97&#45;&gt;Node56</title>
<path fill="none" stroke="midnightblue" d="M1170.51,-626.46C1134.32,-611.04 1061.08,-575.25 1019,-523 956.45,-445.34 983.19,-402.88 940,-313 934.5,-301.56 927.26,-289.3 921.26,-279.73"/>
<polygon fill="midnightblue" stroke="midnightblue" points="924.13,-277.72 915.8,-271.18 918.24,-281.49 924.13,-277.72"/>
</g>
<!-- Node97&#45;&gt;Node89 -->
<g id="edge135" class="edge">
<title>Node97&#45;&gt;Node89</title>
<path fill="none" stroke="midnightblue" d="M1202.6,-626.48C1212.44,-618.57 1227.46,-606.48 1240.42,-596.07"/>
<polygon fill="midnightblue" stroke="midnightblue" points="1242.96,-598.52 1248.56,-589.52 1238.57,-593.06 1242.96,-598.52"/>
</g>
<!-- Node106&#45;&gt;Node4 -->
<g id="edge140" class="edge">
<title>Node106&#45;&gt;Node4</title>
<path fill="none" stroke="midnightblue" d="M1619.1,-682.4C1619.04,-668.12 1618.48,-645.44 1616,-626 1595.89,-468.63 1557.76,-434.76 1541,-277 1539.54,-263.3 1532.79,-257.06 1541,-246 1561.42,-218.5 1598.16,-207.2 1630.05,-202.8"/>
<polygon fill="midnightblue" stroke="midnightblue" points="1630.68,-206.25 1640.2,-201.6 1629.86,-199.3 1630.68,-206.25"/>
</g>
<!-- Node106&#45;&gt;Node20 -->
<g id="edge141" class="edge">
<title>Node106&#45;&gt;Node20</title>
<path fill="none" stroke="midnightblue" d="M1647.32,-682.41C1700.74,-653.69 1808.7,-584.15 1782,-503 1764.22,-448.96 1738.3,-446.83 1706,-400 1679.89,-362.15 1676.75,-350.4 1650,-313 1641.73,-301.44 1631.81,-288.91 1623.92,-279.22"/>
<polygon fill="midnightblue" stroke="midnightblue" points="1626.41,-276.74 1617.35,-271.24 1621,-281.18 1626.41,-276.74"/>
</g>
<!-- Node106&#45;&gt;Node64 -->
<g id="edge142" class="edge">
<title>Node106&#45;&gt;Node64</title>
<path fill="none" stroke="midnightblue" d="M1615.23,-682.43C1608.19,-657.06 1591.84,-602.28 1571,-559 1554.98,-525.72 1530.89,-489.94 1516.38,-469.48"/>
<polygon fill="midnightblue" stroke="midnightblue" points="1519.13,-467.3 1510.45,-461.22 1513.44,-471.39 1519.13,-467.3"/>
</g>
<!-- Node106&#45;&gt;Node88 -->
<g id="edge143" class="edge">
<title>Node106&#45;&gt;Node88</title>
<path fill="none" stroke="midnightblue" d="M1555.99,-691.35C1422.32,-680.43 1110.85,-654.97 966.69,-643.19"/>
<polygon fill="midnightblue" stroke="midnightblue" points="966.86,-639.69 956.61,-642.36 966.29,-646.67 966.86,-639.69"/>
</g>
<!-- Node106&#45;&gt;Node96 -->
<g id="edge144" class="edge">
<title>Node106&#45;&gt;Node96</title>
<path fill="none" stroke="midnightblue" d="M1600.1,-682.38C1569.26,-659.35 1508.4,-613.89 1476.91,-590.37"/>
<polygon fill="midnightblue" stroke="midnightblue" points="1478.61,-587.27 1468.5,-584.09 1474.42,-592.88 1478.61,-587.27"/>
</g>
<!-- Node116&#45;&gt;Node4 -->
<g id="edge146" class="edge">
<title>Node116&#45;&gt;Node4</title>
<path fill="none" stroke="midnightblue" d="M2068.49,-436.47C2068.34,-418.5 2065.33,-387.5 2048,-369 2011.67,-330.22 1983.02,-353.49 1934,-333 1884.84,-312.45 1873.57,-304.61 1828,-277 1807.23,-264.42 1803.99,-258.21 1783,-246 1762.27,-233.94 1737.83,-222.2 1719.21,-213.74"/>
<polygon fill="midnightblue" stroke="midnightblue" points="1720.6,-210.53 1710.05,-209.63 1717.74,-216.92 1720.6,-210.53"/>
</g>
<!-- Node116&#45;&gt;Node91 -->
<g id="edge147" class="edge">
<title>Node116&#45;&gt;Node91</title>
<path fill="none" stroke="midnightblue" d="M2050.42,-436.4C2039.39,-427.54 2024.96,-415.96 2012.65,-406.09"/>
<polygon fill="midnightblue" stroke="midnightblue" points="2014.53,-403.11 2004.54,-399.58 2010.15,-408.56 2014.53,-403.11"/>
</g>
<!-- Node117&#45;&gt;Node88 -->
<g id="edge164" class="edge">
<title>Node117&#45;&gt;Node88</title>
<path fill="none" stroke="midnightblue" d="M997.15,-749.42C981.21,-741.53 958.41,-728.69 942,-713 924.12,-695.9 909.13,-671.49 900.12,-654.99"/>
<polygon fill="midnightblue" stroke="midnightblue" points="903.07,-653.08 895.31,-645.87 896.88,-656.35 903.07,-653.08"/>
</g>
<!-- Node118 -->
<g id="node46" class="node">
<title>Node118</title>
<g id="a_node46"><a xlink:href="../../d8/dbb/properties_8h.html" target="_top" xlink:title=" ">
<polygon fill="none" stroke="red" points="951.5,-688 951.5,-707 1070.5,-707 1070.5,-688 951.5,-688"/>
<text text-anchor="middle" x="1011" y="-695" font-family="Helvetica,sans-Serif" font-size="10.00">includes/properties.h</text>
</a>
</g>
</g>
<!-- Node117&#45;&gt;Node118 -->
<g id="edge149" class="edge">
<title>Node117&#45;&gt;Node118</title>
<path fill="none" stroke="midnightblue" d="M1015.28,-749.48C1014.58,-741.08 1013.48,-727.98 1012.57,-717.16"/>
<polygon fill="midnightblue" stroke="midnightblue" points="1016.04,-716.68 1011.72,-707.01 1009.06,-717.27 1016.04,-716.68"/>
</g>
<!-- Node118&#45;&gt;Node2 -->
<g id="edge150" class="edge">
<title>Node118&#45;&gt;Node2</title>
<path fill="none" stroke="midnightblue" d="M1070.86,-694.83C1340.21,-687.28 2428.17,-656.18 2462,-646 2532.88,-624.68 2537.84,-592.18 2604,-559 2735.76,-492.93 2770.96,-478.84 2912,-436 2985.48,-413.68 3007.5,-422.26 3081,-400 3116.7,-389.19 3124.13,-382.26 3159,-369 3202.76,-352.35 3214.2,-349.54 3258,-333 3338.38,-302.65 3438,-348.42 3438,-262.5 3438,-262.5 3438,-262.5 3438,-143 3438,-40.61 3275.29,-21 3204.38,-17.32"/>
<polygon fill="midnightblue" stroke="midnightblue" points="3204.37,-13.81 3194.22,-16.87 3204.06,-20.81 3204.37,-13.81"/>
</g>
<!-- Node118&#45;&gt;Node3 -->
<g id="edge151" class="edge">
<title>Node118&#45;&gt;Node3</title>
<path fill="none" stroke="midnightblue" d="M969.68,-687.95C929.79,-679.2 867.95,-664.31 816,-646 744.17,-620.69 473.52,-499.39 426,-467 355.89,-419.21 326.28,-409.71 290,-333 264.78,-279.67 276,-260 276,-201 276,-201 276,-201 276,-143 276,-103.28 290.07,-89.2 323,-67 363.93,-39.4 506.6,-24.95 577.44,-19.34"/>
<polygon fill="midnightblue" stroke="midnightblue" points="578.06,-22.8 587.76,-18.54 577.52,-15.82 578.06,-22.8"/>
</g>
<!-- Node118&#45;&gt;Node4 -->
<g id="edge154" class="edge">
<title>Node118&#45;&gt;Node4</title>
<path fill="none" stroke="midnightblue" d="M1018.04,-687.79C1035.65,-666.01 1083.06,-607.48 1123,-559 1136.24,-542.93 1142.53,-541 1153,-523 1218.58,-410.24 1147.82,-327.08 1250,-246 1279.17,-222.86 1516.68,-208.95 1630.11,-203.57"/>
<polygon fill="midnightblue" stroke="midnightblue" points="1630.54,-207.06 1640.36,-203.09 1630.21,-200.06 1630.54,-207.06"/>
</g>
<!-- Node118&#45;&gt;Node80 -->
<g id="edge152" class="edge">
<title>Node118&#45;&gt;Node80</title>
<path fill="none" stroke="midnightblue" d="M1005.59,-687.83C985.35,-655.3 914.97,-541.42 910,-523 892.16,-456.9 920.75,-437.13 914,-369 913.13,-360.17 911.31,-350.51 909.53,-342.4"/>
<polygon fill="midnightblue" stroke="midnightblue" points="912.92,-341.49 907.23,-332.55 906.1,-343.08 912.92,-341.49"/>
</g>
<!-- Node118&#45;&gt;Node54 -->
<g id="edge153" class="edge">
<title>Node118&#45;&gt;Node54</title>
<path fill="none" stroke="midnightblue" d="M1070.82,-694.86C1339.85,-687.41 2425.32,-656.73 2439,-646 2464.63,-625.91 2459,-608.07 2459,-575.5 2459,-575.5 2459,-575.5 2459,-512 2459,-432.74 2218.46,-314.03 2135.07,-275.25"/>
<polygon fill="midnightblue" stroke="midnightblue" points="2136.47,-272.04 2125.93,-271.03 2133.54,-278.4 2136.47,-272.04"/>
</g>
<!-- Node118&#45;&gt;Node88 -->
<g id="edge157" class="edge">
<title>Node118&#45;&gt;Node88</title>
<path fill="none" stroke="midnightblue" d="M993.81,-687.98C973.76,-678.03 940.4,-661.49 917.14,-649.96"/>
<polygon fill="midnightblue" stroke="midnightblue" points="918.68,-646.82 908.16,-645.51 915.57,-653.09 918.68,-646.82"/>
</g>
<!-- Node118&#45;&gt;Node89 -->
<g id="edge156" class="edge">
<title>Node118&#45;&gt;Node89</title>
<path fill="none" stroke="midnightblue" d="M1070.65,-693.2C1138.11,-688.07 1241.76,-675.51 1266,-646 1276.38,-633.37 1275.93,-614.72 1273.12,-599.78"/>
<polygon fill="midnightblue" stroke="midnightblue" points="1276.45,-598.64 1270.78,-589.69 1269.63,-600.22 1276.45,-598.64"/>
</g>
<!-- Node118&#45;&gt;Node96 -->
<g id="edge155" class="edge">
<title>Node118&#45;&gt;Node96</title>
<path fill="none" stroke="midnightblue" d="M1070.66,-689.04C1126.52,-681.22 1211.96,-667.1 1284,-646 1337.26,-630.4 1396.61,-604.16 1430.12,-588.47"/>
<polygon fill="midnightblue" stroke="midnightblue" points="1431.71,-591.59 1439.25,-584.15 1428.71,-585.26 1431.71,-591.59"/>
</g>
<!-- Node118&#45;&gt;Node120 -->
<g id="edge158" class="edge">
<title>Node118&#45;&gt;Node120</title>
<path fill="none" stroke="midnightblue" d="M1012.34,-687.84C1015.95,-665.69 1027.01,-605.47 1047,-559 1051.23,-549.17 1057.39,-538.99 1062.86,-530.81"/>
<polygon fill="midnightblue" stroke="midnightblue" points="1065.77,-532.74 1068.6,-522.53 1060.02,-528.75 1065.77,-532.74"/>
</g>
<!-- Node120&#45;&gt;Node2 -->
<g id="edge159" class="edge">
<title>Node120&#45;&gt;Node2</title>
<path fill="none" stroke="midnightblue" d="M1122.2,-511.02C1314.89,-506.88 2036.53,-489.98 2136,-467 2169.55,-459.25 2173.8,-445.15 2207,-436 2329.66,-402.2 2365.7,-422.07 2491,-400 2623.84,-376.6 2656.84,-368.37 2787,-333 2866.21,-311.47 2914.55,-343.26 2963,-277 2971.13,-265.88 2971.23,-257.05 2963,-246 2877.65,-131.43 2740.35,-268.57 2655,-154 2631.9,-122.99 2629.02,-95.64 2655,-67 2687.62,-31.04 3031.22,-19.84 3139.51,-17.2"/>
<polygon fill="midnightblue" stroke="midnightblue" points="3139.89,-20.69 3149.81,-16.95 3139.73,-13.69 3139.89,-20.69"/>
</g>
<!-- Node120&#45;&gt;Node3 -->
<g id="edge160" class="edge">
<title>Node120&#45;&gt;Node3</title>
<path fill="none" stroke="midnightblue" d="M1028.32,-503.49C915.28,-482.54 633.71,-428.11 601,-400 510.87,-322.55 555.3,-251.35 574,-134 578.77,-104.04 576,-95.27 587,-67 591.59,-55.21 598.92,-43.09 605.31,-33.68"/>
<polygon fill="midnightblue" stroke="midnightblue" points="608.33,-35.47 611.24,-25.29 602.61,-31.43 608.33,-35.47"/>
</g>
<!-- Node120&#45;&gt;Node4 -->
<g id="edge162" class="edge">
<title>Node120&#45;&gt;Node4</title>
<path fill="none" stroke="midnightblue" d="M1077.58,-503.47C1090.85,-459.85 1151.7,-262.98 1174,-246 1209.61,-218.88 1501.97,-206.73 1630.15,-202.66"/>
<polygon fill="midnightblue" stroke="midnightblue" points="1630.31,-206.16 1640.2,-202.35 1630.09,-199.16 1630.31,-206.16"/>
</g>
<!-- Node120&#45;&gt;Node64 -->
<g id="edge163" class="edge">
<title>Node120&#45;&gt;Node64</title>
<path fill="none" stroke="midnightblue" d="M1122.14,-505.46C1197.72,-494.98 1346.43,-474.35 1434.31,-462.17"/>
<polygon fill="midnightblue" stroke="midnightblue" points="1435.03,-465.6 1444.45,-460.76 1434.07,-458.67 1435.03,-465.6"/>
</g>
<!-- Node120&#45;&gt;Node56 -->
<g id="edge161" class="edge">
<title>Node120&#45;&gt;Node56</title>
<path fill="none" stroke="midnightblue" d="M1075.58,-503.19C1076.73,-479.56 1077.13,-413.56 1050,-369 1023.12,-324.84 970.57,-292.51 938.05,-275.68"/>
<polygon fill="midnightblue" stroke="midnightblue" points="939.56,-272.52 929.05,-271.15 936.41,-278.77 939.56,-272.52"/>
</g>
<!-- Node132&#45;&gt;Node88 -->
<g id="edge167" class="edge">
<title>Node132&#45;&gt;Node88</title>
<path fill="none" stroke="midnightblue" d="M886.36,-749.3C887.16,-729.85 889.12,-682.49 890.22,-655.9"/>
<polygon fill="midnightblue" stroke="midnightblue" points="893.73,-655.76 890.64,-645.62 886.73,-655.47 893.73,-655.76"/>
</g>
<!-- Node132&#45;&gt;Node118 -->
<g id="edge166" class="edge">
<title>Node132&#45;&gt;Node118</title>
<path fill="none" stroke="midnightblue" d="M903.91,-749.48C924.89,-739.49 959.85,-722.85 984.09,-711.31"/>
<polygon fill="midnightblue" stroke="midnightblue" points="985.6,-714.47 993.12,-707.01 982.59,-708.15 985.6,-714.47"/>
</g>
<!-- Node133&#45;&gt;Node2 -->
<g id="edge169" class="edge">
<title>Node133&#45;&gt;Node2</title>
<path fill="none" stroke="midnightblue" d="M1085.71,-807.93C1178.83,-799.7 1348.93,-784.28 1494,-769 1963.47,-719.54 2088.98,-751.95 2549,-646 2622.42,-629.09 2638.08,-615.44 2709,-590 2939.43,-507.34 2996.8,-485.99 3226,-400 3358.8,-350.18 3514,-404.34 3514,-262.5 3514,-262.5 3514,-262.5 3514,-143 3514,-102.81 3498.52,-89.17 3465,-67 3422.5,-38.89 3271.28,-24.1 3204.31,-18.81"/>
<polygon fill="midnightblue" stroke="midnightblue" points="3204.56,-15.31 3194.32,-18.04 3204.02,-22.29 3204.56,-15.31"/>
</g>
<!-- Node133&#45;&gt;Node3 -->
<g id="edge170" class="edge">
<title>Node133&#45;&gt;Node3</title>
<path fill="none" stroke="midnightblue" d="M946.39,-809.78C741.03,-795.43 152,-739.96 152,-575.5 152,-575.5 152,-575.5 152,-383.5 152,-301.44 124,-283.06 124,-201 124,-201 124,-201 124,-143 124,-105.43 130.29,-88.64 161,-67 227.65,-20.03 478.99,-15.87 577.78,-16.1"/>
<polygon fill="midnightblue" stroke="midnightblue" points="577.94,-19.6 587.95,-16.14 577.96,-12.6 577.94,-19.6"/>
</g>
<!-- Node133&#45;&gt;Node4 -->
<g id="edge173" class="edge">
<title>Node133&#45;&gt;Node4</title>
<path fill="none" stroke="midnightblue" d="M1034.72,-805.38C1049.17,-797.79 1068.58,-785.38 1080,-769 1117.61,-715.06 1093.91,-687.19 1118,-626 1137.01,-577.71 1149.41,-569.22 1173,-523 1235.27,-401.02 1196.32,-325.27 1308,-246 1358.45,-210.19 1536.01,-202.64 1630.24,-201.21"/>
<polygon fill="midnightblue" stroke="midnightblue" points="1630.52,-204.7 1640.47,-201.07 1630.42,-197.7 1630.52,-204.7"/>
</g>
<!-- Node133&#45;&gt;Node6 -->
<g id="edge171" class="edge">
<title>Node133&#45;&gt;Node6</title>
<path fill="none" stroke="midnightblue" d="M946.45,-813.39C901.33,-809.84 843.3,-799.01 801,-769 622.66,-642.46 620.38,-546.48 573,-333 550.26,-230.57 604.4,-177.23 700,-134 775.61,-99.81 873.51,-88.75 926.62,-85.19"/>
<polygon fill="midnightblue" stroke="midnightblue" points="926.85,-88.68 936.62,-84.57 926.42,-81.7 926.85,-88.68"/>
</g>
<!-- Node133&#45;&gt;Node80 -->
<g id="edge172" class="edge">
<title>Node133&#45;&gt;Node80</title>
<path fill="none" stroke="midnightblue" d="M946.41,-806.53C897.09,-799.72 836.81,-787.81 820,-769 721.19,-658.42 792.99,-576.31 841,-436 851.39,-405.62 851.61,-396.61 868,-369 874.05,-358.8 882.32,-348.5 889.51,-340.34"/>
<polygon fill="midnightblue" stroke="midnightblue" points="892.33,-342.44 896.47,-332.69 887.15,-337.73 892.33,-342.44"/>
</g>
<!-- Node133&#45;&gt;Node90 -->
<g id="edge176" class="edge">
<title>Node133&#45;&gt;Node90</title>
<path fill="none" stroke="midnightblue" d="M1082.71,-805.44C1164.37,-794.97 1301.32,-777.4 1378.86,-767.46"/>
<polygon fill="midnightblue" stroke="midnightblue" points="1379.46,-770.91 1388.94,-766.16 1378.57,-763.97 1379.46,-770.91"/>
</g>
<!-- Node133&#45;&gt;Node117 -->
<g id="edge175" class="edge">
<title>Node133&#45;&gt;Node117</title>
<path fill="none" stroke="midnightblue" d="M1016,-805.08C1016,-798.01 1016,-787.86 1016,-778.99"/>
<polygon fill="midnightblue" stroke="midnightblue" points="1019.5,-778.75 1016,-768.75 1012.5,-778.75 1019.5,-778.75"/>
</g>
<!-- Node133&#45;&gt;Node132 -->
<g id="edge174" class="edge">
<title>Node133&#45;&gt;Node132</title>
<path fill="none" stroke="midnightblue" d="M995.4,-805.44C974.01,-796.56 940.32,-782.56 915.98,-772.45"/>
<polygon fill="midnightblue" stroke="midnightblue" points="917.08,-769.12 906.5,-768.52 914.39,-775.58 917.08,-769.12"/>
</g>
<!-- Node134&#45;&gt;Node4 -->
<g id="edge182" class="edge">
<title>Node134&#45;&gt;Node4</title>
<path fill="none" stroke="midnightblue" d="M2377.43,-370.36C2303.83,-351.58 2166.17,-315.13 2051,-277 2014.41,-264.88 2007.23,-256 1970,-246 1895.31,-225.94 1806.87,-213.55 1749.67,-206.98"/>
<polygon fill="midnightblue" stroke="midnightblue" points="1750.04,-203.5 1739.71,-205.86 1749.26,-210.45 1750.04,-203.5"/>
</g>
<!-- Node134&#45;&gt;Node9 -->
<g id="edge180" class="edge">
<title>Node134&#45;&gt;Node9</title>
<path fill="none" stroke="midnightblue" d="M2482.56,-379.59C2573.16,-372.52 2764.48,-356.18 2925,-333 2933.36,-331.79 3218.6,-283.5 3224,-277 3268.4,-223.52 3209.28,-136.86 3180.32,-100.46"/>
<polygon fill="midnightblue" stroke="midnightblue" points="3182.73,-97.87 3173.69,-92.34 3177.31,-102.3 3182.73,-97.87"/>
</g>
<!-- Node134&#45;&gt;Node51 -->
<g id="edge183" class="edge">
<title>Node134&#45;&gt;Node51</title>
<path fill="none" stroke="midnightblue" d="M2430,-369.4C2430,-361.47 2430,-351.46 2430,-342.86"/>
<polygon fill="midnightblue" stroke="midnightblue" points="2433.5,-342.66 2430,-332.66 2426.5,-342.66 2433.5,-342.66"/>
</g>
<!-- Node134&#45;&gt;Node54 -->
<g id="edge181" class="edge">
<title>Node134&#45;&gt;Node54</title>
<path fill="none" stroke="midnightblue" d="M2412.56,-369.49C2391.89,-353.56 2355.83,-327.83 2321,-313 2256.73,-285.63 2235.98,-293.08 2168,-277 2163.03,-275.82 2157.83,-274.59 2152.66,-273.36"/>
<polygon fill="midnightblue" stroke="midnightblue" points="2153.34,-269.93 2142.8,-271.02 2151.72,-276.74 2153.34,-269.93"/>
</g>
</g>
</svg>
