<?xml version="1.0" encoding="UTF-8" standalone="no"?>
<!DOCTYPE svg PUBLIC "-//W3C//DTD SVG 1.1//EN"
 "http://www.w3.org/Graphics/SVG/1.1/DTD/svg11.dtd">
<!-- Generated by graphviz version 2.43.0 (0)
 -->
<!-- Title: /home/runner/work/Documentation/Documentation/master/applications/DamApplication/custom_constitutive/thermal_linear_elastic_2D_plane_strain_nodal.hpp Pages: 1 -->
<svg width="813pt" height="317pt"
 viewBox="0.00 0.00 812.50 317.00" xmlns="http://www.w3.org/2000/svg" xmlns:xlink="http://www.w3.org/1999/xlink">
<g id="graph0" class="graph" transform="scale(1 1) rotate(0) translate(4 313)">
<title>/home/runner/work/Documentation/Documentation/master/applications/DamApplication/custom_constitutive/thermal_linear_elastic_2D_plane_strain_nodal.hpp</title>
<!-- Node1 -->
<g id="node1" class="node">
<title>Node1</title>
<g id="a_node1"><a xlink:title=" ">
<polygon fill="#bfbfbf" stroke="black" points="241.5,-256.5 241.5,-308.5 507.5,-308.5 507.5,-256.5 241.5,-256.5"/>
<text text-anchor="start" x="249.5" y="-296.5" font-family="Helvetica,sans-Serif" font-size="10.00">/home/runner/work/Documentation</text>
<text text-anchor="start" x="249.5" y="-285.5" font-family="Helvetica,sans-Serif" font-size="10.00">/Documentation/master/applications</text>
<text text-anchor="start" x="249.5" y="-274.5" font-family="Helvetica,sans-Serif" font-size="10.00">/DamApplication/custom_constitutive</text>
<text text-anchor="middle" x="374.5" y="-263.5" font-family="Helvetica,sans-Serif" font-size="10.00">/thermal_linear_elastic_2D_plane_strain_nodal.hpp</text>
</a>
</g>
</g>
<!-- Node2 -->
<g id="node2" class="node">
<title>Node2</title>
<g id="a_node2"><a xlink:href="../../d4/d03/thermal__linear__elastic__2_d__plane__strain__nodal_8cpp.html" target="_top" xlink:title=" ">
<polygon fill="none" stroke="black" points="0,-167.5 0,-219.5 265,-219.5 265,-167.5 0,-167.5"/>
<text text-anchor="start" x="8" y="-207.5" font-family="Helvetica,sans-Serif" font-size="10.00">/home/runner/work/Documentation</text>
<text text-anchor="start" x="8" y="-196.5" font-family="Helvetica,sans-Serif" font-size="10.00">/Documentation/master/applications</text>
<text text-anchor="start" x="8" y="-185.5" font-family="Helvetica,sans-Serif" font-size="10.00">/DamApplication/custom_constitutive</text>
<text text-anchor="middle" x="132.5" y="-174.5" font-family="Helvetica,sans-Serif" font-size="10.00">/thermal_linear_elastic_2D_plane_strain_nodal.cpp</text>
</a>
</g>
</g>
<!-- Node1&#45;&gt;Node2 -->
<g id="edge1" class="edge">
<title>Node1&#45;&gt;Node2</title>
<path fill="none" stroke="midnightblue" d="M295.22,-253C265.16,-242.19 231.2,-229.98 202.1,-219.52"/>
<polygon fill="midnightblue" stroke="midnightblue" points="294.23,-256.36 304.83,-256.45 296.6,-249.78 294.23,-256.36"/>
</g>
<!-- Node3 -->
<g id="node3" class="node">
<title>Node3</title>
<g id="a_node3"><a xlink:href="../../dd/d50/thermal__linear__elastic__2_d__plane__stress__nodal_8hpp.html" target="_top" xlink:title=" ">
<polygon fill="none" stroke="black" points="322,-167.5 322,-219.5 589,-219.5 589,-167.5 322,-167.5"/>
<text text-anchor="start" x="330" y="-207.5" font-family="Helvetica,sans-Serif" font-size="10.00">/home/runner/work/Documentation</text>
<text text-anchor="start" x="330" y="-196.5" font-family="Helvetica,sans-Serif" font-size="10.00">/Documentation/master/applications</text>
<text text-anchor="start" x="330" y="-185.5" font-family="Helvetica,sans-Serif" font-size="10.00">/DamApplication/custom_constitutive</text>
<text text-anchor="middle" x="455.5" y="-174.5" font-family="Helvetica,sans-Serif" font-size="10.00">/thermal_linear_elastic_2D_plane_stress_nodal.hpp</text>
</a>
</g>
</g>
<!-- Node1&#45;&gt;Node3 -->
<g id="edge2" class="edge">
<title>Node1&#45;&gt;Node3</title>
<path fill="none" stroke="midnightblue" d="M404.95,-248.79C413.95,-239.13 423.65,-228.71 432.12,-219.61"/>
<polygon fill="midnightblue" stroke="midnightblue" points="402.18,-246.63 397.93,-256.34 407.3,-251.4 402.18,-246.63"/>
</g>
<!-- Node5 -->
<g id="node5" class="node">
<title>Node5</title>
<g id="a_node5"><a xlink:href="../../df/d67/_dam_application_2custom__python_2add__custom__constitutive__laws__to__python_8cpp.html" target="_top" xlink:title=" ">
<polygon fill="none" stroke="black" points="81,-78.5 81,-130.5 304,-130.5 304,-78.5 81,-78.5"/>
<text text-anchor="start" x="89" y="-118.5" font-family="Helvetica,sans-Serif" font-size="10.00">/home/runner/work/Documentation</text>
<text text-anchor="start" x="89" y="-107.5" font-family="Helvetica,sans-Serif" font-size="10.00">/Documentation/master/applications</text>
<text text-anchor="start" x="89" y="-96.5" font-family="Helvetica,sans-Serif" font-size="10.00">/DamApplication/custom_python/add</text>
<text text-anchor="middle" x="192.5" y="-85.5" font-family="Helvetica,sans-Serif" font-size="10.00">_custom_constitutive_laws_to_python.cpp</text>
</a>
</g>
</g>
<!-- Node1&#45;&gt;Node5 -->
<g id="edge7" class="edge">
<title>Node1&#45;&gt;Node5</title>
<path fill="none" stroke="midnightblue" d="M340.06,-249.22C330.81,-240.05 321.02,-229.87 312.5,-220 293.39,-197.86 294.02,-187.83 273.5,-167 260.49,-153.79 244.53,-141.07 230.22,-130.66"/>
<polygon fill="midnightblue" stroke="midnightblue" points="337.73,-251.84 347.33,-256.33 342.63,-246.83 337.73,-251.84"/>
</g>
<!-- Node6 -->
<g id="node6" class="node">
<title>Node6</title>
<g id="a_node6"><a xlink:href="../../d8/dec/dam__application_8h.html" target="_top" xlink:title=" ">
<polygon fill="none" stroke="black" points="606.5,-84 606.5,-125 800.5,-125 800.5,-84 606.5,-84"/>
<text text-anchor="start" x="614.5" y="-113" font-family="Helvetica,sans-Serif" font-size="10.00">/home/runner/work/Documentation</text>
<text text-anchor="start" x="614.5" y="-102" font-family="Helvetica,sans-Serif" font-size="10.00">/Documentation/master/applications</text>
<text text-anchor="middle" x="703.5" y="-91" font-family="Helvetica,sans-Serif" font-size="10.00">/DamApplication/dam_application.h</text>
</a>
</g>
</g>
<!-- Node1&#45;&gt;Node6 -->
<g id="edge8" class="edge">
<title>Node1&#45;&gt;Node6</title>
<path fill="none" stroke="midnightblue" d="M517.52,-254.75C545.22,-246.11 573.18,-234.8 597.5,-220 638,-195.36 672.66,-150.9 690.54,-125.24"/>
<polygon fill="midnightblue" stroke="midnightblue" points="516.3,-251.46 507.73,-257.69 518.32,-258.16 516.3,-251.46"/>
</g>
<!-- Node4 -->
<g id="node4" class="node">
<title>Node4</title>
<g id="a_node4"><a xlink:href="../../d6/de5/thermal__linear__elastic__2_d__plane__stress__nodal_8cpp.html" target="_top" xlink:title=" ">
<polygon fill="none" stroke="black" points="322.5,-78.5 322.5,-130.5 588.5,-130.5 588.5,-78.5 322.5,-78.5"/>
<text text-anchor="start" x="330.5" y="-118.5" font-family="Helvetica,sans-Serif" font-size="10.00">/home/runner/work/Documentation</text>
<text text-anchor="start" x="330.5" y="-107.5" font-family="Helvetica,sans-Serif" font-size="10.00">/Documentation/master/applications</text>
<text text-anchor="start" x="330.5" y="-96.5" font-family="Helvetica,sans-Serif" font-size="10.00">/DamApplication/custom_constitutive</text>
<text text-anchor="middle" x="455.5" y="-85.5" font-family="Helvetica,sans-Serif" font-size="10.00">/thermal_linear_elastic_2D_plane_stress_nodal.cpp</text>
</a>
</g>
</g>
<!-- Node3&#45;&gt;Node4 -->
<g id="edge3" class="edge">
<title>Node3&#45;&gt;Node4</title>
<path fill="none" stroke="midnightblue" d="M455.5,-157.19C455.5,-148.28 455.5,-138.9 455.5,-130.61"/>
<polygon fill="midnightblue" stroke="midnightblue" points="452,-157.34 455.5,-167.34 459,-157.34 452,-157.34"/>
</g>
<!-- Node3&#45;&gt;Node5 -->
<g id="edge4" class="edge">
<title>Node3&#45;&gt;Node5</title>
<path fill="none" stroke="midnightblue" d="M370.19,-164.28C337.32,-153.4 300.03,-141.07 268.14,-130.52"/>
<polygon fill="midnightblue" stroke="midnightblue" points="369.19,-167.63 379.78,-167.45 371.39,-160.99 369.19,-167.63"/>
</g>
<!-- Node3&#45;&gt;Node6 -->
<g id="edge5" class="edge">
<title>Node3&#45;&gt;Node6</title>
<path fill="none" stroke="midnightblue" d="M536.49,-164.09C572.82,-151.34 614.77,-136.63 647.53,-125.13"/>
<polygon fill="midnightblue" stroke="midnightblue" points="535.18,-160.84 526.9,-167.45 537.49,-167.45 535.18,-160.84"/>
</g>
<!-- Node7 -->
<g id="node7" class="node">
<title>Node7</title>
<g id="a_node7"><a xlink:href="../../d3/d06/dam__application_8cpp.html" target="_top" xlink:title=" ">
<polygon fill="none" stroke="black" points="602.5,-0.5 602.5,-41.5 804.5,-41.5 804.5,-0.5 602.5,-0.5"/>
<text text-anchor="start" x="610.5" y="-29.5" font-family="Helvetica,sans-Serif" font-size="10.00">/home/runner/work/Documentation</text>
<text text-anchor="start" x="610.5" y="-18.5" font-family="Helvetica,sans-Serif" font-size="10.00">/Documentation/master/applications</text>
<text text-anchor="middle" x="703.5" y="-7.5" font-family="Helvetica,sans-Serif" font-size="10.00">/DamApplication/dam_application.cpp</text>
</a>
</g>
</g>
<!-- Node6&#45;&gt;Node7 -->
<g id="edge6" class="edge">
<title>Node6&#45;&gt;Node7</title>
<path fill="none" stroke="midnightblue" d="M703.5,-73.56C703.5,-62.88 703.5,-51.13 703.5,-41.55"/>
<polygon fill="midnightblue" stroke="midnightblue" points="700,-73.77 703.5,-83.77 707,-73.77 700,-73.77"/>
</g>
</g>
</svg>
