<?xml version="1.0" encoding="UTF-8" standalone="no"?>
<!DOCTYPE svg PUBLIC "-//W3C//DTD SVG 1.1//EN"
 "http://www.w3.org/Graphics/SVG/1.1/DTD/svg11.dtd">
<!-- Generated by graphviz version 2.43.0 (0)
 -->
<!-- Title: /home/runner/work/Documentation/Documentation/master/applications/DEMApplication/custom_strategies/strategies/explicit_solver_continuum.h Pages: 1 -->
<svg width="461pt" height="250pt"
 viewBox="0.00 0.00 460.69 250.00" xmlns="http://www.w3.org/2000/svg" xmlns:xlink="http://www.w3.org/1999/xlink">
<g id="graph0" class="graph" transform="scale(1 1) rotate(0) translate(4 246)">
<title>/home/runner/work/Documentation/Documentation/master/applications/DEMApplication/custom_strategies/strategies/explicit_solver_continuum.h</title>
<!-- Node1 -->
<g id="node1" class="node">
<title>Node1</title>
<g id="a_node1"><a xlink:title=" ">
<polygon fill="#bfbfbf" stroke="black" points="26.19,-189.5 26.19,-241.5 235.19,-241.5 235.19,-189.5 26.19,-189.5"/>
<text text-anchor="start" x="34.19" y="-229.5" font-family="Helvetica,sans-Serif" font-size="10.00">/home/runner/work/Documentation</text>
<text text-anchor="start" x="34.19" y="-218.5" font-family="Helvetica,sans-Serif" font-size="10.00">/Documentation/master/applications</text>
<text text-anchor="start" x="34.19" y="-207.5" font-family="Helvetica,sans-Serif" font-size="10.00">/DEMApplication/custom_strategies</text>
<text text-anchor="middle" x="130.69" y="-196.5" font-family="Helvetica,sans-Serif" font-size="10.00">/strategies/explicit_solver_continuum.h</text>
</a>
</g>
</g>
<!-- Node2 -->
<g id="node2" class="node">
<title>Node2</title>
<g id="a_node2"><a xlink:href="../../d6/ddd/_d_e_m_application_2custom__python_2add__custom__strategies__to__python_8cpp.html" target="_top" xlink:title=" ">
<polygon fill="none" stroke="black" points="75.69,-0.5 75.69,-52.5 271.69,-52.5 271.69,-0.5 75.69,-0.5"/>
<text text-anchor="start" x="83.69" y="-40.5" font-family="Helvetica,sans-Serif" font-size="10.00">/home/runner/work/Documentation</text>
<text text-anchor="start" x="83.69" y="-29.5" font-family="Helvetica,sans-Serif" font-size="10.00">/Documentation/master/applications</text>
<text text-anchor="start" x="83.69" y="-18.5" font-family="Helvetica,sans-Serif" font-size="10.00">/DEMApplication/custom_python/add</text>
<text text-anchor="middle" x="173.69" y="-7.5" font-family="Helvetica,sans-Serif" font-size="10.00">_custom_strategies_to_python.cpp</text>
</a>
</g>
</g>
<!-- Node1&#45;&gt;Node2 -->
<g id="edge1" class="edge">
<title>Node1&#45;&gt;Node2</title>
<path fill="none" stroke="midnightblue" d="M43.46,-184.13C30.8,-175.97 19.45,-165.75 11.69,-153 -3.1,-128.7 -4.46,-112.41 11.69,-89 26.73,-67.21 50.57,-53.13 75.38,-44.04"/>
<polygon fill="midnightblue" stroke="midnightblue" points="42.01,-187.35 52.39,-189.46 45.6,-181.33 42.01,-187.35"/>
</g>
<!-- Node3 -->
<g id="node3" class="node">
<title>Node3</title>
<g id="a_node3"><a xlink:href="../../de/d2a/explicit__solver__continuum_8cpp.html" target="_top" xlink:title=" ">
<polygon fill="none" stroke="black" points="20.69,-95 20.69,-147 240.69,-147 240.69,-95 20.69,-95"/>
<text text-anchor="start" x="28.69" y="-135" font-family="Helvetica,sans-Serif" font-size="10.00">/home/runner/work/Documentation</text>
<text text-anchor="start" x="28.69" y="-124" font-family="Helvetica,sans-Serif" font-size="10.00">/Documentation/master/applications</text>
<text text-anchor="start" x="28.69" y="-113" font-family="Helvetica,sans-Serif" font-size="10.00">/DEMApplication/custom_strategies</text>
<text text-anchor="middle" x="130.69" y="-102" font-family="Helvetica,sans-Serif" font-size="10.00">/strategies/explicit_solver_continuum.cpp</text>
</a>
</g>
</g>
<!-- Node1&#45;&gt;Node3 -->
<g id="edge2" class="edge">
<title>Node1&#45;&gt;Node3</title>
<path fill="none" stroke="midnightblue" d="M130.69,-178.99C130.69,-168.41 130.69,-157.03 130.69,-147.25"/>
<polygon fill="midnightblue" stroke="midnightblue" points="127.19,-179.22 130.69,-189.22 134.19,-179.22 127.19,-179.22"/>
</g>
<!-- Node4 -->
<g id="node4" class="node">
<title>Node4</title>
<g id="a_node4"><a xlink:href="../../db/d87/velocity__verlet__solver__strategy_8h.html" target="_top" xlink:title=" ">
<polygon fill="none" stroke="black" points="258.69,-89.5 258.69,-152.5 452.69,-152.5 452.69,-89.5 258.69,-89.5"/>
<text text-anchor="start" x="266.69" y="-140.5" font-family="Helvetica,sans-Serif" font-size="10.00">/home/runner/work/Documentation</text>
<text text-anchor="start" x="266.69" y="-129.5" font-family="Helvetica,sans-Serif" font-size="10.00">/Documentation/master/applications</text>
<text text-anchor="start" x="266.69" y="-118.5" font-family="Helvetica,sans-Serif" font-size="10.00">/DEMApplication/custom_strategies</text>
<text text-anchor="start" x="266.69" y="-107.5" font-family="Helvetica,sans-Serif" font-size="10.00">/strategies/velocity_verlet_solver</text>
<text text-anchor="middle" x="355.69" y="-96.5" font-family="Helvetica,sans-Serif" font-size="10.00">_strategy.h</text>
</a>
</g>
</g>
<!-- Node1&#45;&gt;Node4 -->
<g id="edge3" class="edge">
<title>Node1&#45;&gt;Node4</title>
<path fill="none" stroke="midnightblue" d="M201.15,-185.54C226.57,-175.08 255.34,-163.26 281.11,-152.66"/>
<polygon fill="midnightblue" stroke="midnightblue" points="199.5,-182.43 191.58,-189.47 202.16,-188.9 199.5,-182.43"/>
</g>
<!-- Node4&#45;&gt;Node2 -->
<g id="edge4" class="edge">
<title>Node4&#45;&gt;Node2</title>
<path fill="none" stroke="midnightblue" d="M286.65,-84.91C265.5,-74.16 242.67,-62.56 223.11,-52.62"/>
<polygon fill="midnightblue" stroke="midnightblue" points="285.09,-88.04 295.59,-89.46 288.26,-81.8 285.09,-88.04"/>
</g>
</g>
</svg>
