<?xml version="1.0" encoding="UTF-8" standalone="no"?>
<!DOCTYPE svg PUBLIC "-//W3C//DTD SVG 1.1//EN"
 "http://www.w3.org/Graphics/SVG/1.1/DTD/svg11.dtd">
<!-- Generated by graphviz version 2.43.0 (0)
 -->
<!-- Title: /home/runner/work/Documentation/Documentation/master/applications/RANSApplication/custom_processes/rans_formulation_process.h Pages: 1 -->
<!--zoomable 250 -->
<svg id="main" version="1.1" xmlns="http://www.w3.org/2000/svg" xmlns:xlink="http://www.w3.org/1999/xlink" xml:space="preserve" onload="init(evt)">
<style type="text/css"><![CDATA[
.edge:hover path { stroke: red; }
.edge:hover polygon { stroke: red; fill: red; }
]]></style>
<script type="text/javascript"><![CDATA[
var edges = document.getElementsByTagName('g');
if (edges && edges.length) {
  for (var i=0;i<edges.length;i++) {
    if (edges[i].id.substr(0,4)=='edge') {
      edges[i].setAttribute('class','edge');
    }
  }
}
]]></script>
        <defs>
                <circle id="rim" cx="0" cy="0" r="7"/>
                <circle id="rim2" cx="0" cy="0" r="3.5"/>
                <g id="zoomPlus">
                        <use xlink:href="#rim" fill="#404040">
                                <set attributeName="fill" to="#808080" begin="zoomplus.mouseover" end="zoomplus.mouseout"/>
                        </use>
                        <path d="M-4,0h8M0,-4v8" fill="none" stroke="white" stroke-width="1.5" pointer-events="none"/>
                </g>
                <g id="zoomMin">
                        <use xlink:href="#rim" fill="#404040">
                                <set attributeName="fill" to="#808080" begin="zoomminus.mouseover" end="zoomminus.mouseout"/>
                        </use>
                        <path d="M-4,0h8" fill="none" stroke="white" stroke-width="1.5" pointer-events="none"/>
                </g>
                <g id="dirArrow">
                        <path fill="none" stroke="white" stroke-width="1.5" d="M0,-3.0v7 M-2.5,-0.5L0,-3.0L2.5,-0.5"/>
                </g>
               <g id="resetDef">
                       <use xlink:href="#rim2" fill="#404040">
                               <set attributeName="fill" to="#808080" begin="reset.mouseover" end="reset.mouseout"/>
                       </use>
               </g>
        </defs>

<script type="text/javascript">
var viewWidth = 2081;
var viewHeight = 250;
var sectionId = 'dynsection-1';
</script>
<script xlink:href="../../svgpan.js"/>
<svg id="graph" class="graph">
<g id="viewport">
<title>/home/runner/work/Documentation/Documentation/master/applications/RANSApplication/custom_processes/rans_formulation_process.h</title>
<!-- Node1 -->
<g id="node1" class="node">
<title>Node1</title>
<g id="a_node1"><a xlink:title=" ">
<polygon fill="#bfbfbf" stroke="black" points="947.5,-189.5 947.5,-241.5 1142.5,-241.5 1142.5,-189.5 947.5,-189.5"/>
<text text-anchor="start" x="955.5" y="-229.5" font-family="Helvetica,sans-Serif" font-size="10.00">/home/runner/work/Documentation</text>
<text text-anchor="start" x="955.5" y="-218.5" font-family="Helvetica,sans-Serif" font-size="10.00">/Documentation/master/applications</text>
<text text-anchor="start" x="955.5" y="-207.5" font-family="Helvetica,sans-Serif" font-size="10.00">/RANSApplication/custom_processes</text>
<text text-anchor="middle" x="1045" y="-196.5" font-family="Helvetica,sans-Serif" font-size="10.00">/rans_formulation_process.h</text>
</a>
</g>
</g>
<!-- Node2 -->
<g id="node2" class="node">
<title>Node2</title>
<g id="a_node2"><a xlink:href="../../d6/d3f/rans__clip__scalar__variable__process_8h.html" target="_top" xlink:title=" ">
<polygon fill="none" stroke="black" points="138.5,-100.5 138.5,-152.5 333.5,-152.5 333.5,-100.5 138.5,-100.5"/>
<text text-anchor="start" x="146.5" y="-140.5" font-family="Helvetica,sans-Serif" font-size="10.00">/home/runner/work/Documentation</text>
<text text-anchor="start" x="146.5" y="-129.5" font-family="Helvetica,sans-Serif" font-size="10.00">/Documentation/master/applications</text>
<text text-anchor="start" x="146.5" y="-118.5" font-family="Helvetica,sans-Serif" font-size="10.00">/RANSApplication/custom_processes</text>
<text text-anchor="middle" x="236" y="-107.5" font-family="Helvetica,sans-Serif" font-size="10.00">/rans_clip_scalar_variable_process.h</text>
</a>
</g>
</g>
<!-- Node1&#45;&gt;Node2 -->
<g id="edge1" class="edge">
<title>Node1&#45;&gt;Node2</title>
<path fill="none" stroke="midnightblue" d="M937.3,-210.06C798.82,-203.22 551.24,-187.13 342,-153 339.2,-152.54 336.36,-152.05 333.5,-151.53"/>
<polygon fill="midnightblue" stroke="midnightblue" points="937.33,-213.57 947.49,-210.56 937.67,-206.58 937.33,-213.57"/>
</g>
<!-- Node4 -->
<g id="node4" class="node">
<title>Node4</title>
<g id="a_node4"><a xlink:href="../../d6/dc6/_r_a_n_s_application_2custom__python_2add__custom__processes__to__python_8cpp.html" target="_top" xlink:title=" ">
<polygon fill="none" stroke="black" points="941.5,-6 941.5,-58 1148.5,-58 1148.5,-6 941.5,-6"/>
<text text-anchor="start" x="949.5" y="-46" font-family="Helvetica,sans-Serif" font-size="10.00">/home/runner/work/Documentation</text>
<text text-anchor="start" x="949.5" y="-35" font-family="Helvetica,sans-Serif" font-size="10.00">/Documentation/master/applications</text>
<text text-anchor="start" x="949.5" y="-24" font-family="Helvetica,sans-Serif" font-size="10.00">/RANSApplication/custom_python</text>
<text text-anchor="middle" x="1045" y="-13" font-family="Helvetica,sans-Serif" font-size="10.00">/add_custom_processes_to_python.cpp</text>
</a>
</g>
</g>
<!-- Node1&#45;&gt;Node4 -->
<g id="edge25" class="edge">
<title>Node1&#45;&gt;Node4</title>
<path fill="none" stroke="midnightblue" d="M1045,-178.84C1045,-143.2 1045,-89.35 1045,-58.02"/>
<polygon fill="midnightblue" stroke="midnightblue" points="1041.5,-179.26 1045,-189.26 1048.5,-179.26 1041.5,-179.26"/>
</g>
<!-- Node5 -->
<g id="node5" class="node">
<title>Node5</title>
<g id="a_node5"><a xlink:href="../../d3/df4/rans__nut__k__epsilon__update__process_8h.html" target="_top" xlink:title=" ">
<polygon fill="none" stroke="black" points="351,-100.5 351,-152.5 555,-152.5 555,-100.5 351,-100.5"/>
<text text-anchor="start" x="359" y="-140.5" font-family="Helvetica,sans-Serif" font-size="10.00">/home/runner/work/Documentation</text>
<text text-anchor="start" x="359" y="-129.5" font-family="Helvetica,sans-Serif" font-size="10.00">/Documentation/master/applications</text>
<text text-anchor="start" x="359" y="-118.5" font-family="Helvetica,sans-Serif" font-size="10.00">/RANSApplication/custom_processes</text>
<text text-anchor="middle" x="453" y="-107.5" font-family="Helvetica,sans-Serif" font-size="10.00">/rans_nut_k_epsilon_update_process.h</text>
</a>
</g>
</g>
<!-- Node1&#45;&gt;Node5 -->
<g id="edge4" class="edge">
<title>Node1&#45;&gt;Node5</title>
<path fill="none" stroke="midnightblue" d="M937.19,-203.79C839.4,-193.35 691.47,-175.73 564,-153 561.08,-152.48 558.12,-151.93 555.14,-151.36"/>
<polygon fill="midnightblue" stroke="midnightblue" points="937.06,-207.3 947.38,-204.87 937.8,-200.34 937.06,-207.3"/>
</g>
<!-- Node7 -->
<g id="node7" class="node">
<title>Node7</title>
<g id="a_node7"><a xlink:href="../../d6/d70/rans__nut__k__omega__sst__update__process_8h.html" target="_top" xlink:title=" ">
<polygon fill="none" stroke="black" points="573,-100.5 573,-152.5 795,-152.5 795,-100.5 573,-100.5"/>
<text text-anchor="start" x="581" y="-140.5" font-family="Helvetica,sans-Serif" font-size="10.00">/home/runner/work/Documentation</text>
<text text-anchor="start" x="581" y="-129.5" font-family="Helvetica,sans-Serif" font-size="10.00">/Documentation/master/applications</text>
<text text-anchor="start" x="581" y="-118.5" font-family="Helvetica,sans-Serif" font-size="10.00">/RANSApplication/custom_processes</text>
<text text-anchor="middle" x="684" y="-107.5" font-family="Helvetica,sans-Serif" font-size="10.00">/rans_nut_k_omega_sst_update_process.h</text>
</a>
</g>
</g>
<!-- Node1&#45;&gt;Node7 -->
<g id="edge7" class="edge">
<title>Node1&#45;&gt;Node7</title>
<path fill="none" stroke="midnightblue" d="M937.34,-188.55C890.01,-177.15 834.65,-163.81 787.77,-152.51"/>
<polygon fill="midnightblue" stroke="midnightblue" points="936.77,-192.02 947.31,-190.96 938.41,-185.21 936.77,-192.02"/>
</g>
<!-- Node9 -->
<g id="node9" class="node">
<title>Node9</title>
<g id="a_node9"><a xlink:href="../../dc/d49/rans__nut__k__omega__update__process_8h.html" target="_top" xlink:title=" ">
<polygon fill="none" stroke="black" points="813.5,-100.5 813.5,-152.5 1016.5,-152.5 1016.5,-100.5 813.5,-100.5"/>
<text text-anchor="start" x="821.5" y="-140.5" font-family="Helvetica,sans-Serif" font-size="10.00">/home/runner/work/Documentation</text>
<text text-anchor="start" x="821.5" y="-129.5" font-family="Helvetica,sans-Serif" font-size="10.00">/Documentation/master/applications</text>
<text text-anchor="start" x="821.5" y="-118.5" font-family="Helvetica,sans-Serif" font-size="10.00">/RANSApplication/custom_processes</text>
<text text-anchor="middle" x="915" y="-107.5" font-family="Helvetica,sans-Serif" font-size="10.00">/rans_nut_k_omega_update_process.h</text>
</a>
</g>
</g>
<!-- Node1&#45;&gt;Node9 -->
<g id="edge10" class="edge">
<title>Node1&#45;&gt;Node9</title>
<path fill="none" stroke="midnightblue" d="M998.68,-183.5C983.54,-173.37 966.93,-162.25 952.52,-152.61"/>
<polygon fill="midnightblue" stroke="midnightblue" points="997.14,-186.68 1007.4,-189.34 1001.03,-180.87 997.14,-186.68"/>
</g>
<!-- Node11 -->
<g id="node11" class="node">
<title>Node11</title>
<g id="a_node11"><a xlink:href="../../d7/d2a/rans__nut__nodal__update__process_8h.html" target="_top" xlink:title=" ">
<polygon fill="none" stroke="black" points="1072.5,-100.5 1072.5,-152.5 1267.5,-152.5 1267.5,-100.5 1072.5,-100.5"/>
<text text-anchor="start" x="1080.5" y="-140.5" font-family="Helvetica,sans-Serif" font-size="10.00">/home/runner/work/Documentation</text>
<text text-anchor="start" x="1080.5" y="-129.5" font-family="Helvetica,sans-Serif" font-size="10.00">/Documentation/master/applications</text>
<text text-anchor="start" x="1080.5" y="-118.5" font-family="Helvetica,sans-Serif" font-size="10.00">/RANSApplication/custom_processes</text>
<text text-anchor="middle" x="1170" y="-107.5" font-family="Helvetica,sans-Serif" font-size="10.00">/rans_nut_nodal_update_process.h</text>
</a>
</g>
</g>
<!-- Node1&#45;&gt;Node11 -->
<g id="edge13" class="edge">
<title>Node1&#45;&gt;Node11</title>
<path fill="none" stroke="midnightblue" d="M1089.54,-183.5C1104.09,-173.37 1120.07,-162.25 1133.93,-152.61"/>
<polygon fill="midnightblue" stroke="midnightblue" points="1087.36,-180.75 1081.16,-189.34 1091.36,-186.5 1087.36,-180.75"/>
</g>
<!-- Node13 -->
<g id="node13" class="node">
<title>Node13</title>
<g id="a_node13"><a xlink:href="../../da/d9f/rans__nut__y__plus__wall__function__update__process_8h.html" target="_top" xlink:title=" ">
<polygon fill="none" stroke="black" points="1286,-100.5 1286,-152.5 1546,-152.5 1546,-100.5 1286,-100.5"/>
<text text-anchor="start" x="1294" y="-140.5" font-family="Helvetica,sans-Serif" font-size="10.00">/home/runner/work/Documentation</text>
<text text-anchor="start" x="1294" y="-129.5" font-family="Helvetica,sans-Serif" font-size="10.00">/Documentation/master/applications</text>
<text text-anchor="start" x="1294" y="-118.5" font-family="Helvetica,sans-Serif" font-size="10.00">/RANSApplication/custom_processes</text>
<text text-anchor="middle" x="1416" y="-107.5" font-family="Helvetica,sans-Serif" font-size="10.00">/rans_nut_y_plus_wall_function_update_process.h</text>
</a>
</g>
</g>
<!-- Node1&#45;&gt;Node13 -->
<g id="edge16" class="edge">
<title>Node1&#45;&gt;Node13</title>
<path fill="none" stroke="midnightblue" d="M1153,-189.17C1202.21,-177.63 1260.29,-164.01 1309.33,-152.51"/>
<polygon fill="midnightblue" stroke="midnightblue" points="1151.9,-185.84 1142.96,-191.53 1153.5,-192.65 1151.9,-185.84"/>
</g>
<!-- Node15 -->
<g id="node15" class="node">
<title>Node15</title>
<g id="a_node15"><a xlink:href="../../dc/d9c/rans__wall__distance__calculation__process_8h.html" target="_top" xlink:title=" ">
<polygon fill="none" stroke="black" points="1564.5,-100.5 1564.5,-152.5 1787.5,-152.5 1787.5,-100.5 1564.5,-100.5"/>
<text text-anchor="start" x="1572.5" y="-140.5" font-family="Helvetica,sans-Serif" font-size="10.00">/home/runner/work/Documentation</text>
<text text-anchor="start" x="1572.5" y="-129.5" font-family="Helvetica,sans-Serif" font-size="10.00">/Documentation/master/applications</text>
<text text-anchor="start" x="1572.5" y="-118.5" font-family="Helvetica,sans-Serif" font-size="10.00">/RANSApplication/custom_processes</text>
<text text-anchor="middle" x="1676" y="-107.5" font-family="Helvetica,sans-Serif" font-size="10.00">/rans_wall_distance_calculation_process.h</text>
</a>
</g>
</g>
<!-- Node1&#45;&gt;Node15 -->
<g id="edge19" class="edge">
<title>Node1&#45;&gt;Node15</title>
<path fill="none" stroke="midnightblue" d="M1152.8,-204.27C1256.29,-193.8 1416.84,-175.84 1555,-153 1558.07,-152.49 1561.18,-151.96 1564.32,-151.41"/>
<polygon fill="midnightblue" stroke="midnightblue" points="1152.26,-200.81 1142.66,-205.29 1152.96,-207.78 1152.26,-200.81"/>
</g>
<!-- Node17 -->
<g id="node17" class="node">
<title>Node17</title>
<g id="a_node17"><a xlink:href="../../db/d12/rans__wall__function__update__process_8h.html" target="_top" xlink:title=" ">
<polygon fill="none" stroke="black" points="1806,-100.5 1806,-152.5 2008,-152.5 2008,-100.5 1806,-100.5"/>
<text text-anchor="start" x="1814" y="-140.5" font-family="Helvetica,sans-Serif" font-size="10.00">/home/runner/work/Documentation</text>
<text text-anchor="start" x="1814" y="-129.5" font-family="Helvetica,sans-Serif" font-size="10.00">/Documentation/master/applications</text>
<text text-anchor="start" x="1814" y="-118.5" font-family="Helvetica,sans-Serif" font-size="10.00">/RANSApplication/custom_processes</text>
<text text-anchor="middle" x="1907" y="-107.5" font-family="Helvetica,sans-Serif" font-size="10.00">/rans_wall_function_update_process.h</text>
</a>
</g>
</g>
<!-- Node1&#45;&gt;Node17 -->
<g id="edge22" class="edge">
<title>Node1&#45;&gt;Node17</title>
<path fill="none" stroke="midnightblue" d="M1152.92,-210.63C1299.49,-204.25 1569.33,-188.5 1797,-153 1799.91,-152.55 1802.85,-152.06 1805.81,-151.54"/>
<polygon fill="midnightblue" stroke="midnightblue" points="1152.42,-207.15 1142.58,-211.08 1152.72,-214.14 1152.42,-207.15"/>
</g>
<!-- Node3 -->
<g id="node3" class="node">
<title>Node3</title>
<g id="a_node3"><a xlink:href="../../d7/d31/rans__clip__scalar__variable__process_8cpp.html" target="_top" xlink:title=" ">
<polygon fill="none" stroke="black" points="0,-6 0,-58 206,-58 206,-6 0,-6"/>
<text text-anchor="start" x="8" y="-46" font-family="Helvetica,sans-Serif" font-size="10.00">/home/runner/work/Documentation</text>
<text text-anchor="start" x="8" y="-35" font-family="Helvetica,sans-Serif" font-size="10.00">/Documentation/master/applications</text>
<text text-anchor="start" x="8" y="-24" font-family="Helvetica,sans-Serif" font-size="10.00">/RANSApplication/custom_processes</text>
<text text-anchor="middle" x="103" y="-13" font-family="Helvetica,sans-Serif" font-size="10.00">/rans_clip_scalar_variable_process.cpp</text>
</a>
</g>
</g>
<!-- Node2&#45;&gt;Node3 -->
<g id="edge2" class="edge">
<title>Node2&#45;&gt;Node3</title>
<path fill="none" stroke="midnightblue" d="M191.8,-94.76C174.66,-82.84 155.29,-69.37 139.02,-58.05"/>
<polygon fill="midnightblue" stroke="midnightblue" points="189.8,-97.63 200.01,-100.47 193.8,-91.88 189.8,-97.63"/>
</g>
<!-- Node2&#45;&gt;Node4 -->
<g id="edge3" class="edge">
<title>Node2&#45;&gt;Node4</title>
<path fill="none" stroke="midnightblue" d="M343.89,-99.83C603.65,-62.28 676.12,-106.44 932,-64 941.53,-62.42 951.42,-60.36 961.2,-58.05"/>
<polygon fill="midnightblue" stroke="midnightblue" points="343.16,-96.4 333.77,-101.32 344.17,-103.33 343.16,-96.4"/>
</g>
<!-- Node5&#45;&gt;Node4 -->
<g id="edge6" class="edge">
<title>Node5&#45;&gt;Node4</title>
<path fill="none" stroke="midnightblue" d="M565,-99.94C727.96,-74.32 773.55,-93.26 932,-64 941.1,-62.32 950.54,-60.26 959.9,-58"/>
<polygon fill="midnightblue" stroke="midnightblue" points="564.44,-96.48 555.12,-101.52 565.55,-103.39 564.44,-96.48"/>
</g>
<!-- Node6 -->
<g id="node6" class="node">
<title>Node6</title>
<g id="a_node6"><a xlink:href="../../d4/d7e/rans__nut__k__epsilon__update__process_8cpp.html" target="_top" xlink:title=" ">
<polygon fill="none" stroke="black" points="224.5,-6 224.5,-58 439.5,-58 439.5,-6 224.5,-6"/>
<text text-anchor="start" x="232.5" y="-46" font-family="Helvetica,sans-Serif" font-size="10.00">/home/runner/work/Documentation</text>
<text text-anchor="start" x="232.5" y="-35" font-family="Helvetica,sans-Serif" font-size="10.00">/Documentation/master/applications</text>
<text text-anchor="start" x="232.5" y="-24" font-family="Helvetica,sans-Serif" font-size="10.00">/RANSApplication/custom_processes</text>
<text text-anchor="middle" x="332" y="-13" font-family="Helvetica,sans-Serif" font-size="10.00">/rans_nut_k_epsilon_update_process.cpp</text>
</a>
</g>
</g>
<!-- Node5&#45;&gt;Node6 -->
<g id="edge5" class="edge">
<title>Node5&#45;&gt;Node6</title>
<path fill="none" stroke="midnightblue" d="M411.93,-94.11C396.55,-82.35 379.3,-69.16 364.77,-58.05"/>
<polygon fill="midnightblue" stroke="midnightblue" points="410.19,-97.18 420.26,-100.47 414.44,-91.61 410.19,-97.18"/>
</g>
<!-- Node7&#45;&gt;Node4 -->
<g id="edge9" class="edge">
<title>Node7&#45;&gt;Node4</title>
<path fill="none" stroke="midnightblue" d="M797.1,-98.08C839.47,-87.64 888,-75.49 932,-64 939.28,-62.1 946.82,-60.1 954.39,-58.07"/>
<polygon fill="midnightblue" stroke="midnightblue" points="796.18,-94.7 787.31,-100.48 797.86,-101.49 796.18,-94.7"/>
</g>
<!-- Node8 -->
<g id="node8" class="node">
<title>Node8</title>
<g id="a_node8"><a xlink:href="../../d4/df3/rans__nut__k__omega__sst__update__process_8cpp.html" target="_top" xlink:title=" ">
<polygon fill="none" stroke="black" points="457.5,-6 457.5,-58 690.5,-58 690.5,-6 457.5,-6"/>
<text text-anchor="start" x="465.5" y="-46" font-family="Helvetica,sans-Serif" font-size="10.00">/home/runner/work/Documentation</text>
<text text-anchor="start" x="465.5" y="-35" font-family="Helvetica,sans-Serif" font-size="10.00">/Documentation/master/applications</text>
<text text-anchor="start" x="465.5" y="-24" font-family="Helvetica,sans-Serif" font-size="10.00">/RANSApplication/custom_processes</text>
<text text-anchor="middle" x="574" y="-13" font-family="Helvetica,sans-Serif" font-size="10.00">/rans_nut_k_omega_sst_update_process.cpp</text>
</a>
</g>
</g>
<!-- Node7&#45;&gt;Node8 -->
<g id="edge8" class="edge">
<title>Node7&#45;&gt;Node8</title>
<path fill="none" stroke="midnightblue" d="M646.28,-93.78C632.4,-82.11 616.88,-69.06 603.79,-58.05"/>
<polygon fill="midnightblue" stroke="midnightblue" points="644.33,-96.71 654.23,-100.47 648.83,-91.35 644.33,-96.71"/>
</g>
<!-- Node9&#45;&gt;Node4 -->
<g id="edge12" class="edge">
<title>Node9&#45;&gt;Node4</title>
<path fill="none" stroke="midnightblue" d="M958.66,-94.43C975.3,-82.59 994.04,-69.26 1009.79,-58.05"/>
<polygon fill="midnightblue" stroke="midnightblue" points="956.3,-91.82 950.18,-100.47 960.36,-97.52 956.3,-91.82"/>
</g>
<!-- Node10 -->
<g id="node10" class="node">
<title>Node10</title>
<g id="a_node10"><a xlink:href="../../d0/d40/rans__nut__k__omega__update__process_8cpp.html" target="_top" xlink:title=" ">
<polygon fill="none" stroke="black" points="709,-6 709,-58 923,-58 923,-6 709,-6"/>
<text text-anchor="start" x="717" y="-46" font-family="Helvetica,sans-Serif" font-size="10.00">/home/runner/work/Documentation</text>
<text text-anchor="start" x="717" y="-35" font-family="Helvetica,sans-Serif" font-size="10.00">/Documentation/master/applications</text>
<text text-anchor="start" x="717" y="-24" font-family="Helvetica,sans-Serif" font-size="10.00">/RANSApplication/custom_processes</text>
<text text-anchor="middle" x="816" y="-13" font-family="Helvetica,sans-Serif" font-size="10.00">/rans_nut_k_omega_update_process.cpp</text>
</a>
</g>
</g>
<!-- Node9&#45;&gt;Node10 -->
<g id="edge11" class="edge">
<title>Node9&#45;&gt;Node10</title>
<path fill="none" stroke="midnightblue" d="M880.7,-93.45C868.3,-81.86 854.48,-68.95 842.81,-58.05"/>
<polygon fill="midnightblue" stroke="midnightblue" points="878.51,-96.2 888.21,-100.47 883.29,-91.08 878.51,-96.2"/>
</g>
<!-- Node11&#45;&gt;Node4 -->
<g id="edge15" class="edge">
<title>Node11&#45;&gt;Node4</title>
<path fill="none" stroke="midnightblue" d="M1128.02,-94.43C1112.02,-82.59 1094,-69.26 1078.85,-58.05"/>
<polygon fill="midnightblue" stroke="midnightblue" points="1126.05,-97.33 1136.17,-100.47 1130.22,-91.71 1126.05,-97.33"/>
</g>
<!-- Node12 -->
<g id="node12" class="node">
<title>Node12</title>
<g id="a_node12"><a xlink:href="../../d0/d15/rans__nut__nodal__update__process_8cpp.html" target="_top" xlink:title=" ">
<polygon fill="none" stroke="black" points="1167,-6 1167,-58 1363,-58 1363,-6 1167,-6"/>
<text text-anchor="start" x="1175" y="-46" font-family="Helvetica,sans-Serif" font-size="10.00">/home/runner/work/Documentation</text>
<text text-anchor="start" x="1175" y="-35" font-family="Helvetica,sans-Serif" font-size="10.00">/Documentation/master/applications</text>
<text text-anchor="start" x="1175" y="-24" font-family="Helvetica,sans-Serif" font-size="10.00">/RANSApplication/custom_processes</text>
<text text-anchor="middle" x="1265" y="-13" font-family="Helvetica,sans-Serif" font-size="10.00">/rans_nut_nodal_update_process.cpp</text>
</a>
</g>
</g>
<!-- Node11&#45;&gt;Node12 -->
<g id="edge14" class="edge">
<title>Node11&#45;&gt;Node12</title>
<path fill="none" stroke="midnightblue" d="M1203.43,-92.95C1215.13,-81.56 1228.08,-68.95 1239.07,-58.25"/>
<polygon fill="midnightblue" stroke="midnightblue" points="1200.68,-90.74 1195.96,-100.22 1205.57,-95.76 1200.68,-90.74"/>
</g>
<!-- Node13&#45;&gt;Node4 -->
<g id="edge18" class="edge">
<title>Node13&#45;&gt;Node4</title>
<path fill="none" stroke="midnightblue" d="M1297.37,-98.11C1253.5,-87.74 1203.41,-75.64 1158,-64 1150.61,-62.11 1142.96,-60.1 1135.29,-58.06"/>
<polygon fill="midnightblue" stroke="midnightblue" points="1296.68,-101.54 1307.21,-100.43 1298.28,-94.73 1296.68,-101.54"/>
</g>
<!-- Node14 -->
<g id="node14" class="node">
<title>Node14</title>
<g id="a_node14"><a xlink:href="../../d8/d37/rans__nut__y__plus__wall__function__update__process_8cpp.html" target="_top" xlink:title=" ">
<polygon fill="none" stroke="black" points="1381,-0.5 1381,-63.5 1589,-63.5 1589,-0.5 1381,-0.5"/>
<text text-anchor="start" x="1389" y="-51.5" font-family="Helvetica,sans-Serif" font-size="10.00">/home/runner/work/Documentation</text>
<text text-anchor="start" x="1389" y="-40.5" font-family="Helvetica,sans-Serif" font-size="10.00">/Documentation/master/applications</text>
<text text-anchor="start" x="1389" y="-29.5" font-family="Helvetica,sans-Serif" font-size="10.00">/RANSApplication/custom_processes</text>
<text text-anchor="start" x="1389" y="-18.5" font-family="Helvetica,sans-Serif" font-size="10.00">/rans_nut_y_plus_wall_function_update</text>
<text text-anchor="middle" x="1485" y="-7.5" font-family="Helvetica,sans-Serif" font-size="10.00">_process.cpp</text>
</a>
</g>
</g>
<!-- Node13&#45;&gt;Node14 -->
<g id="edge17" class="edge">
<title>Node13&#45;&gt;Node14</title>
<path fill="none" stroke="midnightblue" d="M1441.03,-91.95C1447.96,-82.65 1455.44,-72.62 1462.24,-63.51"/>
<polygon fill="midnightblue" stroke="midnightblue" points="1438.03,-90.12 1434.85,-100.22 1443.64,-94.3 1438.03,-90.12"/>
</g>
<!-- Node15&#45;&gt;Node4 -->
<g id="edge21" class="edge">
<title>Node15&#45;&gt;Node4</title>
<path fill="none" stroke="midnightblue" d="M1554.21,-99.97C1377.99,-74.48 1329.1,-94.97 1158,-64 1148.89,-62.35 1139.45,-60.31 1130.09,-58.07"/>
<polygon fill="midnightblue" stroke="midnightblue" points="1553.94,-103.47 1564.34,-101.47 1554.96,-96.55 1553.94,-103.47"/>
</g>
<!-- Node16 -->
<g id="node16" class="node">
<title>Node16</title>
<g id="a_node16"><a xlink:href="../../d3/de1/rans__wall__distance__calculation__process_8cpp.html" target="_top" xlink:title=" ">
<polygon fill="none" stroke="black" points="1607,-6 1607,-58 1841,-58 1841,-6 1607,-6"/>
<text text-anchor="start" x="1615" y="-46" font-family="Helvetica,sans-Serif" font-size="10.00">/home/runner/work/Documentation</text>
<text text-anchor="start" x="1615" y="-35" font-family="Helvetica,sans-Serif" font-size="10.00">/Documentation/master/applications</text>
<text text-anchor="start" x="1615" y="-24" font-family="Helvetica,sans-Serif" font-size="10.00">/RANSApplication/custom_processes</text>
<text text-anchor="middle" x="1724" y="-13" font-family="Helvetica,sans-Serif" font-size="10.00">/rans_wall_distance_calculation_process.cpp</text>
</a>
</g>
</g>
<!-- Node15&#45;&gt;Node16 -->
<g id="edge20" class="edge">
<title>Node15&#45;&gt;Node16</title>
<path fill="none" stroke="midnightblue" d="M1693.74,-91.31C1699.42,-80.36 1705.61,-68.44 1710.9,-58.25"/>
<polygon fill="midnightblue" stroke="midnightblue" points="1690.62,-89.74 1689.12,-100.22 1696.83,-92.96 1690.62,-89.74"/>
</g>
<!-- Node17&#45;&gt;Node4 -->
<g id="edge24" class="edge">
<title>Node17&#45;&gt;Node4</title>
<path fill="none" stroke="midnightblue" d="M1795.71,-99.93C1513.59,-60.9 1435.44,-109.35 1158,-64 1148.36,-62.42 1138.37,-60.35 1128.49,-58.02"/>
<polygon fill="midnightblue" stroke="midnightblue" points="1795.44,-103.43 1805.83,-101.36 1796.41,-96.5 1795.44,-103.43"/>
</g>
<!-- Node18 -->
<g id="node18" class="node">
<title>Node18</title>
<g id="a_node18"><a xlink:href="../../dc/d30/rans__wall__function__update__process_8cpp.html" target="_top" xlink:title=" ">
<polygon fill="none" stroke="black" points="1859.5,-6 1859.5,-58 2072.5,-58 2072.5,-6 1859.5,-6"/>
<text text-anchor="start" x="1867.5" y="-46" font-family="Helvetica,sans-Serif" font-size="10.00">/home/runner/work/Documentation</text>
<text text-anchor="start" x="1867.5" y="-35" font-family="Helvetica,sans-Serif" font-size="10.00">/Documentation/master/applications</text>
<text text-anchor="start" x="1867.5" y="-24" font-family="Helvetica,sans-Serif" font-size="10.00">/RANSApplication/custom_processes</text>
<text text-anchor="middle" x="1966" y="-13" font-family="Helvetica,sans-Serif" font-size="10.00">/rans_wall_function_update_process.cpp</text>
</a>
</g>
</g>
<!-- Node17&#45;&gt;Node18 -->
<g id="edge23" class="edge">
<title>Node17&#45;&gt;Node18</title>
<path fill="none" stroke="midnightblue" d="M1928.6,-91.64C1935.64,-80.6 1943.33,-68.54 1949.9,-58.25"/>
<polygon fill="midnightblue" stroke="midnightblue" points="1925.55,-89.91 1923.12,-100.22 1931.45,-93.68 1925.55,-89.91"/>
</g>
</g>
</svg>
        <g id="navigator" transform="translate(0 0)" fill="#404254">
                <rect fill="#f2f5e9" fill-opacity="0.5" stroke="#606060" stroke-width=".5" x="0" y="0" width="60" height="60"/>
                <use id="zoomplus" xlink:href="#zoomPlus" x="17" y="9" onmousedown="handleZoom(evt,'in')"/>
                <use id="zoomminus" xlink:href="#zoomMin" x="42" y="9" onmousedown="handleZoom(evt,'out')"/>
                <use id="reset" xlink:href="#resetDef" x="30" y="36" onmousedown="handleReset()"/>
                <g id="arrowUp" xlink:href="#dirArrow" transform="translate(30 24)" onmousedown="handlePan(0,-1)">
                  <use xlink:href="#rim" fill="#404040">
                        <set attributeName="fill" to="#808080" begin="arrowUp.mouseover" end="arrowUp.mouseout"/>
                  </use>
                  <path fill="none" stroke="white" stroke-width="1.5" d="M0,-3.0v7 M-2.5,-0.5L0,-3.0L2.5,-0.5"/>
                </g>
                <g id="arrowRight" xlink:href="#dirArrow" transform="rotate(90) translate(36 -43)" onmousedown="handlePan(1,0)">
                  <use xlink:href="#rim" fill="#404040">
                        <set attributeName="fill" to="#808080" begin="arrowRight.mouseover" end="arrowRight.mouseout"/>
                  </use>
                  <path fill="none" stroke="white" stroke-width="1.5" d="M0,-3.0v7 M-2.5,-0.5L0,-3.0L2.5,-0.5"/>
                </g>
                <g id="arrowDown" xlink:href="#dirArrow" transform="rotate(180) translate(-30 -48)" onmousedown="handlePan(0,1)">
                  <use xlink:href="#rim" fill="#404040">
                        <set attributeName="fill" to="#808080" begin="arrowDown.mouseover" end="arrowDown.mouseout"/>
                  </use>
                  <path fill="none" stroke="white" stroke-width="1.5" d="M0,-3.0v7 M-2.5,-0.5L0,-3.0L2.5,-0.5"/>
                </g>
                <g id="arrowLeft" xlink:href="#dirArrow" transform="rotate(270) translate(-36 17)" onmousedown="handlePan(-1,0)">
                  <use xlink:href="#rim" fill="#404040">
                        <set attributeName="fill" to="#808080" begin="arrowLeft.mouseover" end="arrowLeft.mouseout"/>
                  </use>
                  <path fill="none" stroke="white" stroke-width="1.5" d="M0,-3.0v7 M-2.5,-0.5L0,-3.0L2.5,-0.5"/>
                </g>
        </g>
        <svg viewBox="0 0 15 15" width="100%" height="30px" preserveAspectRatio="xMaxYMin meet">
         <g id="arrow_out" transform="scale(0.3 0.3)">
          <a xlink:href="rans__formulation__process_8h__dep__incl_org.svg" target="_base">
           <rect id="button" ry="5" rx="5" y="6" x="6" height="38" width="38"
                fill="#f2f5e9" fill-opacity="0.5" stroke="#606060" stroke-width="1.0"/>
           <path id="arrow"
             d="M 11.500037,31.436501 C 11.940474,20.09759 22.043105,11.32322 32.158766,21.979434 L 37.068811,17.246167 C 37.068811,17.246167 37.088388,32 37.088388,32 L 22.160133,31.978069 C 22.160133,31.978069 26.997745,27.140456 26.997745,27.140456 C 18.528582,18.264221 13.291696,25.230495 11.500037,31.436501 z"
             style="fill:#404040;"/>
          </a>
         </g>
        </svg>
</svg>
