<?xml version="1.0" encoding="UTF-8" standalone="no"?>
<!DOCTYPE svg PUBLIC "-//W3C//DTD SVG 1.1//EN"
 "http://www.w3.org/Graphics/SVG/1.1/DTD/svg11.dtd">
<!-- Generated by graphviz version 2.43.0 (0)
 -->
<!-- Title: /home/runner/work/Documentation/Documentation/master/kratos/sources/global_pointer_variables.cpp Pages: 1 -->
<svg width="3062pt" height="1056pt"
 viewBox="0.00 0.00 3062.07 1056.00" xmlns="http://www.w3.org/2000/svg" xmlns:xlink="http://www.w3.org/1999/xlink">
<g id="graph0" class="graph" transform="scale(1 1) rotate(0) translate(4 1052)">
<title>/home/runner/work/Documentation/Documentation/master/kratos/sources/global_pointer_variables.cpp</title>
<!-- Node1 -->
<g id="node1" class="node">
<title>Node1</title>
<g id="a_node1"><a xlink:title=" ">
<polygon fill="#bfbfbf" stroke="black" points="2764,-1006.5 2764,-1047.5 2964,-1047.5 2964,-1006.5 2764,-1006.5"/>
<text text-anchor="start" x="2772" y="-1035.5" font-family="Helvetica,sans-Serif" font-size="10.00">/home/runner/work/Documentation</text>
<text text-anchor="start" x="2772" y="-1024.5" font-family="Helvetica,sans-Serif" font-size="10.00">/Documentation/master/kratos</text>
<text text-anchor="middle" x="2864" y="-1013.5" font-family="Helvetica,sans-Serif" font-size="10.00">/sources/global_pointer_variables.cpp</text>
</a>
</g>
</g>
<!-- Node2 -->
<g id="node2" class="node">
<title>Node2</title>
<g id="a_node2"><a xlink:title=" ">
<polygon fill="none" stroke="#bfbfbf" points="339,-6 339,-25 383,-25 383,-6 339,-6"/>
<text text-anchor="middle" x="361" y="-13" font-family="Helvetica,sans-Serif" font-size="10.00">string</text>
</a>
</g>
</g>
<!-- Node1&#45;&gt;Node2 -->
<g id="edge1" class="edge">
<title>Node1&#45;&gt;Node2</title>
<path fill="none" stroke="midnightblue" d="M2763.68,-1024.96C2374.46,-1020.72 963.84,-1003.33 517,-970 286.06,-952.77 0,-1136.59 0,-905 0,-905 0,-905 0,-143 0,-103.05 14.66,-89.02 48,-67 93.87,-36.7 258.71,-22.94 328.95,-18.35"/>
<polygon fill="midnightblue" stroke="midnightblue" points="329.23,-21.84 338.99,-17.72 328.78,-14.86 329.23,-21.84"/>
</g>
<!-- Node3 -->
<g id="node3" class="node">
<title>Node3</title>
<g id="a_node3"><a xlink:title=" ">
<polygon fill="none" stroke="#bfbfbf" points="2238,-6 2238,-25 2298,-25 2298,-6 2238,-6"/>
<text text-anchor="middle" x="2268" y="-13" font-family="Helvetica,sans-Serif" font-size="10.00">iostream</text>
</a>
</g>
</g>
<!-- Node1&#45;&gt;Node3 -->
<g id="edge2" class="edge">
<title>Node1&#45;&gt;Node3</title>
<path fill="none" stroke="midnightblue" d="M2921.9,-1006.41C2964.85,-987.78 3016,-955.09 3016,-905 3016,-905 3016,-905 3016,-143 3016,-68.26 2937.89,-87.41 2866,-67 2760.67,-37.1 2425.18,-22.25 2308.48,-17.9"/>
<polygon fill="midnightblue" stroke="midnightblue" points="2308.32,-14.39 2298.2,-17.52 2308.07,-21.39 2308.32,-14.39"/>
</g>
<!-- Node4 -->
<g id="node4" class="node">
<title>Node4</title>
<g id="a_node4"><a xlink:title=" ">
<polygon fill="none" stroke="#bfbfbf" points="2840.5,-6 2840.5,-25 2887.5,-25 2887.5,-6 2840.5,-6"/>
<text text-anchor="middle" x="2864" y="-13" font-family="Helvetica,sans-Serif" font-size="10.00">vector</text>
</a>
</g>
</g>
<!-- Node1&#45;&gt;Node4 -->
<g id="edge3" class="edge">
<title>Node1&#45;&gt;Node4</title>
<path fill="none" stroke="midnightblue" d="M2964.17,-1007.95C2988.08,-999.67 3011.9,-987.6 3030,-970 3052.08,-948.54 3054,-935.8 3054,-905 3054,-905 3054,-905 3054,-143 3054,-107.58 3055.18,-91.91 3030,-67 2994.43,-31.81 2935.14,-21.02 2897.88,-17.79"/>
<polygon fill="midnightblue" stroke="midnightblue" points="2897.76,-14.27 2887.53,-17.04 2897.25,-21.25 2897.76,-14.27"/>
</g>
<!-- Node5 -->
<g id="node5" class="node">
<title>Node5</title>
<g id="a_node5"><a xlink:href="../../df/d67/define_8h.html" target="_top" xlink:title=" ">
<polygon fill="none" stroke="black" points="1410.5,-190.5 1410.5,-209.5 1509.5,-209.5 1509.5,-190.5 1410.5,-190.5"/>
<text text-anchor="middle" x="1460" y="-197.5" font-family="Helvetica,sans-Serif" font-size="10.00">includes/define.h</text>
</a>
</g>
</g>
<!-- Node1&#45;&gt;Node5 -->
<g id="edge4" class="edge">
<title>Node1&#45;&gt;Node5</title>
<path fill="none" stroke="midnightblue" d="M2874.18,-1006.47C2885.44,-983.02 2902,-942.21 2902,-905 2902,-905 2902,-905 2902,-763.5 2902,-481.02 2729.86,-400.19 2465,-302 2289.52,-236.95 1708,-210.16 1519.53,-203.05"/>
<polygon fill="midnightblue" stroke="midnightblue" points="1519.65,-199.55 1509.53,-202.68 1519.39,-206.55 1519.65,-199.55"/>
</g>
<!-- Node16 -->
<g id="node16" class="node">
<title>Node16</title>
<g id="a_node16"><a xlink:href="../../d2/da6/global__pointer__variables_8h.html" target="_top" xlink:title=" ">
<polygon fill="none" stroke="black" points="2031,-682.5 2031,-712.5 2161,-712.5 2161,-682.5 2031,-682.5"/>
<text text-anchor="start" x="2039" y="-700.5" font-family="Helvetica,sans-Serif" font-size="10.00">includes/global_pointer</text>
<text text-anchor="middle" x="2096" y="-689.5" font-family="Helvetica,sans-Serif" font-size="10.00">_variables.h</text>
</a>
</g>
</g>
<!-- Node1&#45;&gt;Node16 -->
<g id="edge27" class="edge">
<title>Node1&#45;&gt;Node16</title>
<path fill="none" stroke="midnightblue" d="M2864,-1006.3C2864,-982.35 2864,-940.71 2864,-905 2864,-905 2864,-905 2864,-836 2864,-766.1 2364.62,-719.52 2171.23,-704.11"/>
<polygon fill="midnightblue" stroke="midnightblue" points="2171.39,-700.61 2161.15,-703.31 2170.84,-707.59 2171.39,-700.61"/>
</g>
<!-- Node94 -->
<g id="node40" class="node">
<title>Node94</title>
<g id="a_node40"><a xlink:href="../../d0/dac/kratos__flags_8h.html" target="_top" xlink:title=" ">
<polygon fill="none" stroke="black" points="568,-509 568,-528 696,-528 696,-509 568,-509"/>
<text text-anchor="middle" x="632" y="-516" font-family="Helvetica,sans-Serif" font-size="10.00">includes/kratos_flags.h</text>
</a>
</g>
</g>
<!-- Node1&#45;&gt;Node94 -->
<g id="edge172" class="edge">
<title>Node1&#45;&gt;Node94</title>
<path fill="none" stroke="midnightblue" d="M2763.87,-1026.43C2300.65,-1027.78 388,-1026.04 388,-905 388,-905 388,-905 388,-635 388,-558.9 486.15,-532.87 557.95,-524.01"/>
<polygon fill="midnightblue" stroke="midnightblue" points="558.36,-527.49 567.89,-522.87 557.56,-520.53 558.36,-527.49"/>
</g>
<!-- Node95 -->
<g id="node41" class="node">
<title>Node95</title>
<g id="a_node41"><a xlink:href="../../d0/daa/kernel_8h.html" target="_top" xlink:title=" ">
<polygon fill="none" stroke="black" points="828.5,-950.5 828.5,-969.5 927.5,-969.5 927.5,-950.5 828.5,-950.5"/>
<text text-anchor="middle" x="878" y="-957.5" font-family="Helvetica,sans-Serif" font-size="10.00">includes/kernel.h</text>
</a>
</g>
</g>
<!-- Node1&#45;&gt;Node95 -->
<g id="edge129" class="edge">
<title>Node1&#45;&gt;Node95</title>
<path fill="none" stroke="midnightblue" d="M2763.81,-1022.72C2409.07,-1011.11 1218.95,-972.16 937.86,-962.96"/>
<polygon fill="midnightblue" stroke="midnightblue" points="937.97,-959.46 927.86,-962.63 937.74,-966.46 937.97,-959.46"/>
</g>
<!-- Node6 -->
<g id="node6" class="node">
<title>Node6</title>
<g id="a_node6"><a xlink:title=" ">
<polygon fill="none" stroke="#bfbfbf" points="1248.5,-73 1248.5,-92 1313.5,-92 1313.5,-73 1248.5,-73"/>
<text text-anchor="middle" x="1281" y="-80" font-family="Helvetica,sans-Serif" font-size="10.00">stdexcept</text>
</a>
</g>
</g>
<!-- Node5&#45;&gt;Node6 -->
<g id="edge5" class="edge">
<title>Node5&#45;&gt;Node6</title>
<path fill="none" stroke="midnightblue" d="M1446.55,-190.32C1415.96,-170.59 1340.98,-122.2 1303.33,-97.91"/>
<polygon fill="midnightblue" stroke="midnightblue" points="1304.91,-94.76 1294.61,-92.28 1301.12,-100.64 1304.91,-94.76"/>
</g>
<!-- Node7 -->
<g id="node7" class="node">
<title>Node7</title>
<g id="a_node7"><a xlink:title=" ">
<polygon fill="none" stroke="#bfbfbf" points="1860,-73 1860,-92 1916,-92 1916,-73 1860,-73"/>
<text text-anchor="middle" x="1888" y="-80" font-family="Helvetica,sans-Serif" font-size="10.00">sstream</text>
</a>
</g>
</g>
<!-- Node5&#45;&gt;Node7 -->
<g id="edge6" class="edge">
<title>Node5&#45;&gt;Node7</title>
<path fill="none" stroke="midnightblue" d="M1491.82,-190.41C1569.18,-169.54 1766.88,-116.18 1850.14,-93.72"/>
<polygon fill="midnightblue" stroke="midnightblue" points="1851.2,-97.06 1859.94,-91.07 1849.37,-90.3 1851.2,-97.06"/>
</g>
<!-- Node8 -->
<g id="node8" class="node">
<title>Node8</title>
<g id="a_node8"><a xlink:href="../../dc/d25/kratos__export__api_8h.html" target="_top" xlink:title=" ">
<polygon fill="none" stroke="black" points="734,-0.5 734,-30.5 862,-30.5 862,-0.5 734,-0.5"/>
<text text-anchor="start" x="742" y="-18.5" font-family="Helvetica,sans-Serif" font-size="10.00">includes/kratos_export</text>
<text text-anchor="middle" x="798" y="-7.5" font-family="Helvetica,sans-Serif" font-size="10.00">_api.h</text>
</a>
</g>
</g>
<!-- Node5&#45;&gt;Node8 -->
<g id="edge7" class="edge">
<title>Node5&#45;&gt;Node8</title>
<path fill="none" stroke="midnightblue" d="M1410.4,-199.81C1269.31,-200.89 871.08,-195.16 797,-98 784.71,-81.88 786.49,-58.28 790.44,-40.62"/>
<polygon fill="midnightblue" stroke="midnightblue" points="793.94,-41.07 793.07,-30.51 787.16,-39.3 793.94,-41.07"/>
</g>
<!-- Node9 -->
<g id="node9" class="node">
<title>Node9</title>
<g id="a_node9"><a xlink:href="../../d9/dc0/smart__pointers_8h.html" target="_top" xlink:title=" ">
<polygon fill="none" stroke="black" points="2020.5,-134.5 2020.5,-153.5 2163.5,-153.5 2163.5,-134.5 2020.5,-134.5"/>
<text text-anchor="middle" x="2092" y="-141.5" font-family="Helvetica,sans-Serif" font-size="10.00">includes/smart_pointers.h</text>
</a>
</g>
</g>
<!-- Node5&#45;&gt;Node9 -->
<g id="edge8" class="edge">
<title>Node5&#45;&gt;Node9</title>
<path fill="none" stroke="midnightblue" d="M1509.59,-194.76C1618.07,-185.49 1877.34,-163.34 2010.3,-151.98"/>
<polygon fill="midnightblue" stroke="midnightblue" points="2010.77,-155.45 2020.43,-151.11 2010.17,-148.48 2010.77,-155.45"/>
</g>
<!-- Node13 -->
<g id="node13" class="node">
<title>Node13</title>
<g id="a_node13"><a xlink:href="../../dd/d2d/exception_8h.html" target="_top" xlink:title=" ">
<polygon fill="none" stroke="black" points="1010.5,-134.5 1010.5,-153.5 1127.5,-153.5 1127.5,-134.5 1010.5,-134.5"/>
<text text-anchor="middle" x="1069" y="-141.5" font-family="Helvetica,sans-Serif" font-size="10.00">includes/exception.h</text>
</a>
</g>
</g>
<!-- Node5&#45;&gt;Node13 -->
<g id="edge13" class="edge">
<title>Node5&#45;&gt;Node13</title>
<path fill="none" stroke="midnightblue" d="M1410.48,-192.16C1341.45,-182.63 1216.01,-165.3 1137.89,-154.51"/>
<polygon fill="midnightblue" stroke="midnightblue" points="1138.05,-151 1127.67,-153.1 1137.09,-157.94 1138.05,-151"/>
</g>
<!-- Node9&#45;&gt;Node3 -->
<g id="edge9" class="edge">
<title>Node9&#45;&gt;Node3</title>
<path fill="none" stroke="midnightblue" d="M2075.67,-134.39C2063.04,-126.72 2046.5,-114.21 2039,-98 2033.21,-85.5 2030.37,-77.74 2039,-67 2062.21,-38.11 2168.24,-24.77 2227.54,-19.47"/>
<polygon fill="midnightblue" stroke="midnightblue" points="2228.03,-22.95 2237.69,-18.61 2227.43,-15.97 2228.03,-22.95"/>
</g>
<!-- Node10 -->
<g id="node10" class="node">
<title>Node10</title>
<g id="a_node10"><a xlink:title=" ">
<polygon fill="none" stroke="#bfbfbf" points="2194.5,-73 2194.5,-92 2239.5,-92 2239.5,-73 2194.5,-73"/>
<text text-anchor="middle" x="2217" y="-80" font-family="Helvetica,sans-Serif" font-size="10.00">utility</text>
</a>
</g>
</g>
<!-- Node9&#45;&gt;Node10 -->
<g id="edge10" class="edge">
<title>Node9&#45;&gt;Node10</title>
<path fill="none" stroke="midnightblue" d="M2109.91,-134.48C2130.89,-124.49 2165.85,-107.85 2190.09,-96.31"/>
<polygon fill="midnightblue" stroke="midnightblue" points="2191.6,-99.47 2199.12,-92.01 2188.59,-93.15 2191.6,-99.47"/>
</g>
<!-- Node11 -->
<g id="node11" class="node">
<title>Node11</title>
<g id="a_node11"><a xlink:title=" ">
<polygon fill="none" stroke="#bfbfbf" points="1934,-73 1934,-92 1992,-92 1992,-73 1934,-73"/>
<text text-anchor="middle" x="1963" y="-80" font-family="Helvetica,sans-Serif" font-size="10.00">memory</text>
</a>
</g>
</g>
<!-- Node9&#45;&gt;Node11 -->
<g id="edge11" class="edge">
<title>Node9&#45;&gt;Node11</title>
<path fill="none" stroke="midnightblue" d="M2073.52,-134.48C2051.87,-124.49 2015.79,-107.85 1990.77,-96.31"/>
<polygon fill="midnightblue" stroke="midnightblue" points="1991.99,-93.02 1981.45,-92.01 1989.06,-99.38 1991.99,-93.02"/>
</g>
<!-- Node12 -->
<g id="node12" class="node">
<title>Node12</title>
<g id="a_node12"><a xlink:title=" ">
<polygon fill="none" stroke="#bfbfbf" points="2334,-67.5 2334,-97.5 2458,-97.5 2458,-67.5 2334,-67.5"/>
<text text-anchor="start" x="2342" y="-85.5" font-family="Helvetica,sans-Serif" font-size="10.00">intrusive_ptr/intrusive</text>
<text text-anchor="middle" x="2396" y="-74.5" font-family="Helvetica,sans-Serif" font-size="10.00">_ptr.hpp</text>
</a>
</g>
</g>
<!-- Node9&#45;&gt;Node12 -->
<g id="edge12" class="edge">
<title>Node9&#45;&gt;Node12</title>
<path fill="none" stroke="midnightblue" d="M2135.56,-134.48C2184.68,-124.86 2265.32,-109.08 2323.88,-97.62"/>
<polygon fill="midnightblue" stroke="midnightblue" points="2324.67,-101.03 2333.81,-95.67 2323.32,-94.16 2324.67,-101.03"/>
</g>
<!-- Node13&#45;&gt;Node2 -->
<g id="edge15" class="edge">
<title>Node13&#45;&gt;Node2</title>
<path fill="none" stroke="midnightblue" d="M1010.43,-135.72C955.03,-128.26 869.75,-115.32 797,-98 752.15,-87.32 742.93,-77.34 698,-67 587.59,-41.6 453.79,-25.94 393.37,-19.66"/>
<polygon fill="midnightblue" stroke="midnightblue" points="393.61,-16.17 383.3,-18.64 392.9,-23.13 393.61,-16.17"/>
</g>
<!-- Node13&#45;&gt;Node3 -->
<g id="edge16" class="edge">
<title>Node13&#45;&gt;Node3</title>
<path fill="none" stroke="midnightblue" d="M1087.36,-134.41C1105.57,-125.74 1134.12,-111.7 1158,-98 1180.03,-85.36 1181.82,-74.76 1206,-67 1304.55,-35.38 2045.56,-20.4 2227.67,-17.18"/>
<polygon fill="midnightblue" stroke="midnightblue" points="2227.94,-20.67 2237.88,-17 2227.82,-13.67 2227.94,-20.67"/>
</g>
<!-- Node13&#45;&gt;Node4 -->
<g id="edge18" class="edge">
<title>Node13&#45;&gt;Node4</title>
<path fill="none" stroke="midnightblue" d="M1100.52,-134.45C1126.84,-126.71 1164.94,-114.06 1196,-98 1217.25,-87.01 1217.31,-74.58 1240,-67 1259.56,-60.47 2599.22,-23.71 2830.25,-17.42"/>
<polygon fill="midnightblue" stroke="midnightblue" points="2830.51,-20.91 2840.41,-17.14 2830.32,-13.91 2830.51,-20.91"/>
</g>
<!-- Node13&#45;&gt;Node6 -->
<g id="edge14" class="edge">
<title>Node13&#45;&gt;Node6</title>
<path fill="none" stroke="midnightblue" d="M1101.65,-134.44C1135,-125.61 1188.24,-111.3 1234,-98 1237.2,-97.07 1240.51,-96.09 1243.83,-95.09"/>
<polygon fill="midnightblue" stroke="midnightblue" points="1245.16,-98.35 1253.71,-92.09 1243.12,-91.65 1245.16,-98.35"/>
</g>
<!-- Node13&#45;&gt;Node7 -->
<g id="edge17" class="edge">
<title>Node13&#45;&gt;Node7</title>
<path fill="none" stroke="midnightblue" d="M1127.75,-138.13C1144.62,-136.76 1163.04,-135.29 1180,-134 1435.7,-114.51 1743.54,-93.34 1849.78,-86.1"/>
<polygon fill="midnightblue" stroke="midnightblue" points="1850.26,-89.57 1860,-85.4 1849.78,-82.59 1850.26,-89.57"/>
</g>
<!-- Node13&#45;&gt;Node8 -->
<g id="edge19" class="edge">
<title>Node13&#45;&gt;Node8</title>
<path fill="none" stroke="midnightblue" d="M1010.5,-135.97C940.49,-127.04 830.9,-111.19 817,-98 801.66,-83.44 797.62,-59.08 796.99,-40.77"/>
<polygon fill="midnightblue" stroke="midnightblue" points="800.49,-40.55 796.96,-30.56 793.49,-40.57 800.49,-40.55"/>
</g>
<!-- Node14 -->
<g id="node14" class="node">
<title>Node14</title>
<g id="a_node14"><a xlink:href="../../da/da6/code__location_8h.html" target="_top" xlink:title=" ">
<polygon fill="none" stroke="black" points="826.5,-73 826.5,-92 963.5,-92 963.5,-73 826.5,-73"/>
<text text-anchor="middle" x="895" y="-80" font-family="Helvetica,sans-Serif" font-size="10.00">includes/code_location.h</text>
</a>
</g>
</g>
<!-- Node13&#45;&gt;Node14 -->
<g id="edge20" class="edge">
<title>Node13&#45;&gt;Node14</title>
<path fill="none" stroke="midnightblue" d="M1044.07,-134.48C1013.96,-124.18 963.17,-106.81 929.36,-95.25"/>
<polygon fill="midnightblue" stroke="midnightblue" points="930.48,-91.93 919.88,-92.01 928.21,-98.56 930.48,-91.93"/>
</g>
<!-- Node15 -->
<g id="node15" class="node">
<title>Node15</title>
<g id="a_node15"><a xlink:href="../../d9/d06/stl__vector__io_8h.html" target="_top" xlink:title=" ">
<polygon fill="none" stroke="black" points="2048,-73 2048,-92 2176,-92 2176,-73 2048,-73"/>
<text text-anchor="middle" x="2112" y="-80" font-family="Helvetica,sans-Serif" font-size="10.00">utilities/stl_vector_io.h</text>
</a>
</g>
</g>
<!-- Node13&#45;&gt;Node15 -->
<g id="edge24" class="edge">
<title>Node13&#45;&gt;Node15</title>
<path fill="none" stroke="midnightblue" d="M1127.73,-141.83C1274.96,-138.53 1671.64,-127.41 2001,-98 2014.79,-96.77 2029.49,-95.1 2043.54,-93.33"/>
<polygon fill="midnightblue" stroke="midnightblue" points="2044.16,-96.78 2053.63,-92.03 2043.26,-89.84 2044.16,-96.78"/>
</g>
<!-- Node14&#45;&gt;Node2 -->
<g id="edge21" class="edge">
<title>Node14&#45;&gt;Node2</title>
<path fill="none" stroke="midnightblue" d="M826.28,-73.14C709.85,-58.96 478.19,-30.76 393.21,-20.42"/>
<polygon fill="midnightblue" stroke="midnightblue" points="393.48,-16.93 383.14,-19.19 392.64,-23.88 393.48,-16.93"/>
</g>
<!-- Node14&#45;&gt;Node3 -->
<g id="edge22" class="edge">
<title>Node14&#45;&gt;Node3</title>
<path fill="none" stroke="midnightblue" d="M937.5,-72.95C950.45,-70.65 964.76,-68.41 978,-67 1468.2,-14.82 2068.31,-15.03 2227.62,-16.12"/>
<polygon fill="midnightblue" stroke="midnightblue" points="2227.87,-19.62 2237.89,-16.19 2227.92,-12.62 2227.87,-19.62"/>
</g>
<!-- Node14&#45;&gt;Node8 -->
<g id="edge23" class="edge">
<title>Node14&#45;&gt;Node8</title>
<path fill="none" stroke="midnightblue" d="M881.92,-72.73C868.05,-63.44 845.7,-48.46 827.54,-36.3"/>
<polygon fill="midnightblue" stroke="midnightblue" points="829.28,-33.25 819.03,-30.59 825.38,-39.06 829.28,-33.25"/>
</g>
<!-- Node15&#45;&gt;Node3 -->
<g id="edge25" class="edge">
<title>Node15&#45;&gt;Node3</title>
<path fill="none" stroke="midnightblue" d="M2132.72,-72.87C2159.64,-61.65 2206.86,-41.98 2237.78,-29.09"/>
<polygon fill="midnightblue" stroke="midnightblue" points="2239.31,-32.24 2247.2,-25.17 2236.62,-25.78 2239.31,-32.24"/>
</g>
<!-- Node15&#45;&gt;Node4 -->
<g id="edge26" class="edge">
<title>Node15&#45;&gt;Node4</title>
<path fill="none" stroke="midnightblue" d="M2151.03,-72.95C2162.27,-70.73 2174.58,-68.54 2186,-67 2432.05,-33.85 2731.47,-21.08 2830.46,-17.58"/>
<polygon fill="midnightblue" stroke="midnightblue" points="2830.6,-21.08 2840.47,-17.24 2830.36,-14.08 2830.6,-21.08"/>
</g>
<!-- Node16&#45;&gt;Node2 -->
<g id="edge28" class="edge">
<title>Node16&#45;&gt;Node2</title>
<path fill="none" stroke="midnightblue" d="M2030.7,-691.43C1921,-682.81 1692.79,-664.43 1500,-646 1265.97,-623.63 663.21,-628.64 448,-534 283.07,-461.47 152,-437.18 152,-257 152,-257 152,-257 152,-143 152,-61.38 270.11,-30.99 328.75,-20.93"/>
<polygon fill="midnightblue" stroke="midnightblue" points="329.32,-24.38 338.63,-19.33 328.2,-17.47 329.32,-24.38"/>
</g>
<!-- Node16&#45;&gt;Node3 -->
<g id="edge29" class="edge">
<title>Node16&#45;&gt;Node3</title>
<path fill="none" stroke="midnightblue" d="M2161.25,-692.33C2228.23,-686.7 2334.83,-673.92 2423,-646 2677.38,-565.45 2826,-467.83 2826,-201 2826,-201 2826,-201 2826,-143 2826,-36.72 2436.13,-19.73 2308.16,-17.02"/>
<polygon fill="midnightblue" stroke="midnightblue" points="2308.07,-13.51 2298,-16.82 2307.93,-20.51 2308.07,-13.51"/>
</g>
<!-- Node16&#45;&gt;Node5 -->
<g id="edge30" class="edge">
<title>Node16&#45;&gt;Node5</title>
<path fill="none" stroke="midnightblue" d="M2098.57,-682.46C2103.96,-649.96 2114.3,-567.4 2094,-503 2052.37,-370.97 2037.16,-316.48 1918,-246 1852.13,-207.04 1628.37,-201.19 1519.91,-200.71"/>
<polygon fill="midnightblue" stroke="midnightblue" points="1519.8,-197.21 1509.79,-200.68 1519.77,-204.21 1519.8,-197.21"/>
</g>
<!-- Node17 -->
<g id="node17" class="node">
<title>Node17</title>
<g id="a_node17"><a xlink:href="../../dc/d8e/kratos__components_8h.html" target="_top" xlink:title=" ">
<polygon fill="none" stroke="black" points="671.5,-442 671.5,-461 836.5,-461 836.5,-442 671.5,-442"/>
<text text-anchor="middle" x="754" y="-449" font-family="Helvetica,sans-Serif" font-size="10.00">includes/kratos_components.h</text>
</a>
</g>
</g>
<!-- Node16&#45;&gt;Node17 -->
<g id="edge31" class="edge">
<title>Node16&#45;&gt;Node17</title>
<path fill="none" stroke="midnightblue" d="M2030.69,-690.05C1943.03,-681.2 1782.56,-664.27 1646,-646 1374.53,-609.67 1305.33,-601.95 1040,-534 950.54,-511.09 846.47,-480.41 791.88,-464"/>
<polygon fill="midnightblue" stroke="midnightblue" points="792.86,-460.64 782.28,-461.11 790.84,-467.34 792.86,-460.64"/>
</g>
<!-- Node80 -->
<g id="node27" class="node">
<title>Node80</title>
<g id="a_node27"><a xlink:href="../../de/d44/global__pointers__vector_8h.html" target="_top" xlink:title=" ">
<polygon fill="none" stroke="black" points="2525,-436.5 2525,-466.5 2671,-466.5 2671,-436.5 2525,-436.5"/>
<text text-anchor="start" x="2533" y="-454.5" font-family="Helvetica,sans-Serif" font-size="10.00">containers/global_pointers</text>
<text text-anchor="middle" x="2598" y="-443.5" font-family="Helvetica,sans-Serif" font-size="10.00">_vector.h</text>
</a>
</g>
</g>
<!-- Node16&#45;&gt;Node80 -->
<g id="edge64" class="edge">
<title>Node16&#45;&gt;Node80</title>
<path fill="none" stroke="midnightblue" d="M2161.05,-692.6C2245.46,-684.74 2394.2,-661.09 2498,-590 2540.85,-560.65 2572.04,-506.69 2587.35,-475.81"/>
<polygon fill="midnightblue" stroke="midnightblue" points="2590.58,-477.19 2591.76,-466.66 2584.27,-474.15 2590.58,-477.19"/>
</g>
<!-- Node90 -->
<g id="node30" class="node">
<title>Node90</title>
<g id="a_node30"><a xlink:href="../../d1/d77/node_8h.html" target="_top" xlink:title=" ">
<polygon fill="none" stroke="black" points="1654.5,-626.5 1654.5,-645.5 1747.5,-645.5 1747.5,-626.5 1654.5,-626.5"/>
<text text-anchor="middle" x="1701" y="-633.5" font-family="Helvetica,sans-Serif" font-size="10.00">includes/node.h</text>
</a>
</g>
</g>
<!-- Node16&#45;&gt;Node90 -->
<g id="edge74" class="edge">
<title>Node16&#45;&gt;Node90</title>
<path fill="none" stroke="midnightblue" d="M2030.77,-686.67C1954.75,-675.22 1830.34,-656.48 1758.02,-645.59"/>
<polygon fill="midnightblue" stroke="midnightblue" points="1758.15,-642.07 1747.74,-644.04 1757.11,-648.99 1758.15,-642.07"/>
</g>
<!-- Node17&#45;&gt;Node2 -->
<g id="edge32" class="edge">
<title>Node17&#45;&gt;Node2</title>
<path fill="none" stroke="midnightblue" d="M671.41,-443.02C591.34,-434.77 476.25,-419.97 436,-400 397.42,-380.86 388.75,-369.57 366,-333 347.29,-302.92 342,-292.42 342,-257 342,-257 342,-257 342,-143 342,-104.27 350.82,-59.61 356.44,-35.07"/>
<polygon fill="midnightblue" stroke="midnightblue" points="359.92,-35.56 358.82,-25.02 353.11,-33.94 359.92,-35.56"/>
</g>
<!-- Node17&#45;&gt;Node3 -->
<g id="edge33" class="edge">
<title>Node17&#45;&gt;Node3</title>
<path fill="none" stroke="midnightblue" d="M678.24,-442C611.75,-430.05 519,-401.41 475,-333 449.59,-293.5 496.84,-273.38 535,-246 638.22,-171.93 675.06,-166.05 798,-134 888.78,-110.33 920.64,-136.93 1006,-98 1025.83,-88.96 1023.62,-74.73 1044,-67 1156.63,-24.25 2028.73,-17.61 2227.69,-16.65"/>
<polygon fill="midnightblue" stroke="midnightblue" points="2227.99,-20.15 2237.97,-16.61 2227.96,-13.15 2227.99,-20.15"/>
</g>
<!-- Node17&#45;&gt;Node5 -->
<g id="edge36" class="edge">
<title>Node17&#45;&gt;Node5</title>
<path fill="none" stroke="midnightblue" d="M759.78,-441.65C770.94,-425.21 797,-389.74 827,-369 863.46,-343.8 883,-357.41 920,-333 965.12,-303.23 956.27,-269.41 1005,-246 1073.36,-213.16 1293.18,-204.27 1400.26,-201.88"/>
<polygon fill="midnightblue" stroke="midnightblue" points="1400.34,-205.38 1410.26,-201.67 1400.19,-198.38 1400.34,-205.38"/>
</g>
<!-- Node18 -->
<g id="node18" class="node">
<title>Node18</title>
<g id="a_node18"><a xlink:title=" ">
<polygon fill="none" stroke="#bfbfbf" points="1014,-246.5 1014,-265.5 1052,-265.5 1052,-246.5 1014,-246.5"/>
<text text-anchor="middle" x="1033" y="-253.5" font-family="Helvetica,sans-Serif" font-size="10.00">map</text>
</a>
</g>
</g>
<!-- Node17&#45;&gt;Node18 -->
<g id="edge34" class="edge">
<title>Node17&#45;&gt;Node18</title>
<path fill="none" stroke="midnightblue" d="M765.94,-441.87C788.6,-425.78 839.83,-390.88 887,-369 933.28,-347.53 957.59,-366.58 996,-333 1013.31,-317.87 1023.29,-292.79 1028.43,-275.61"/>
<polygon fill="midnightblue" stroke="midnightblue" points="1031.89,-276.21 1031.14,-265.64 1025.14,-274.38 1031.89,-276.21"/>
</g>
<!-- Node19 -->
<g id="node19" class="node">
<title>Node19</title>
<g id="a_node19"><a xlink:title=" ">
<polygon fill="none" stroke="#bfbfbf" points="706.5,-375 706.5,-394 763.5,-394 763.5,-375 706.5,-375"/>
<text text-anchor="middle" x="735" y="-382" font-family="Helvetica,sans-Serif" font-size="10.00">typeinfo</text>
</a>
</g>
</g>
<!-- Node17&#45;&gt;Node19 -->
<g id="edge35" class="edge">
<title>Node17&#45;&gt;Node19</title>
<path fill="none" stroke="midnightblue" d="M751.44,-441.73C748.62,-432.09 744,-416.3 740.38,-403.91"/>
<polygon fill="midnightblue" stroke="midnightblue" points="743.69,-402.74 737.52,-394.13 736.97,-404.71 743.69,-402.74"/>
</g>
<!-- Node20 -->
<g id="node20" class="node">
<title>Node20</title>
<g id="a_node20"><a xlink:href="../../d9/dd1/data__communicator_8h.html" target="_top" xlink:title=" ">
<polygon fill="none" stroke="red" points="484,-308 484,-327 650,-327 650,-308 484,-308"/>
<text text-anchor="middle" x="567" y="-315" font-family="Helvetica,sans-Serif" font-size="10.00">includes/data_communicator.h</text>
</a>
</g>
</g>
<!-- Node17&#45;&gt;Node20 -->
<g id="edge37" class="edge">
<title>Node17&#45;&gt;Node20</title>
<path fill="none" stroke="midnightblue" d="M736.51,-441.93C717.94,-432.54 688.02,-416.61 664,-400 634.06,-379.29 602.29,-351.3 583.57,-334.09"/>
<polygon fill="midnightblue" stroke="midnightblue" points="585.87,-331.45 576.16,-327.22 581.11,-336.59 585.87,-331.45"/>
</g>
<!-- Node44 -->
<g id="node21" class="node">
<title>Node44</title>
<g id="a_node21"><a xlink:href="../../d9/da0/flags_8h.html" target="_top" xlink:title=" ">
<polygon fill="none" stroke="black" points="636.5,-246.5 636.5,-265.5 739.5,-265.5 739.5,-246.5 636.5,-246.5"/>
<text text-anchor="middle" x="688" y="-253.5" font-family="Helvetica,sans-Serif" font-size="10.00">containers/flags.h</text>
</a>
</g>
</g>
<!-- Node17&#45;&gt;Node44 -->
<g id="edge45" class="edge">
<title>Node17&#45;&gt;Node44</title>
<path fill="none" stroke="midnightblue" d="M738.31,-441.85C724.53,-433.26 705.41,-418.69 697,-400 691.35,-387.44 689.79,-380.74 697,-369 715.52,-338.85 749.48,-363.15 768,-333 775.21,-321.26 774.96,-313.89 768,-302 759.14,-286.85 743.09,-276.41 727.69,-269.42"/>
<polygon fill="midnightblue" stroke="midnightblue" points="728.83,-266.11 718.25,-265.51 726.15,-272.57 728.83,-266.11"/>
</g>
<!-- Node61 -->
<g id="node22" class="node">
<title>Node61</title>
<g id="a_node22"><a xlink:href="../../da/d89/variable_8h.html" target="_top" xlink:title=" ">
<polygon fill="none" stroke="red" points="1789.5,-246.5 1789.5,-265.5 1908.5,-265.5 1908.5,-246.5 1789.5,-246.5"/>
<text text-anchor="middle" x="1849" y="-253.5" font-family="Helvetica,sans-Serif" font-size="10.00">containers/variable.h</text>
</a>
</g>
</g>
<!-- Node17&#45;&gt;Node61 -->
<g id="edge46" class="edge">
<title>Node17&#45;&gt;Node61</title>
<path fill="none" stroke="midnightblue" d="M802.11,-442C979.62,-410.63 1597.53,-301.44 1790.78,-267.29"/>
<polygon fill="midnightblue" stroke="midnightblue" points="1791.5,-270.72 1800.74,-265.53 1790.28,-263.82 1791.5,-270.72"/>
</g>
<!-- Node79 -->
<g id="node23" class="node">
<title>Node79</title>
<g id="a_node23"><a xlink:href="../../da/d07/quaternion_8h.html" target="_top" xlink:title=" ">
<polygon fill="none" stroke="red" points="896,-375 896,-394 1014,-394 1014,-375 896,-375"/>
<text text-anchor="middle" x="955" y="-382" font-family="Helvetica,sans-Serif" font-size="10.00">utilities/quaternion.h</text>
</a>
</g>
</g>
<!-- Node17&#45;&gt;Node79 -->
<g id="edge51" class="edge">
<title>Node17&#45;&gt;Node79</title>
<path fill="none" stroke="midnightblue" d="M780.69,-441.87C816.23,-430.38 879.21,-410.01 918.95,-397.16"/>
<polygon fill="midnightblue" stroke="midnightblue" points="920.08,-400.47 928.52,-394.06 917.93,-393.81 920.08,-400.47"/>
</g>
<!-- Node20&#45;&gt;Node2 -->
<g id="edge38" class="edge">
<title>Node20&#45;&gt;Node2</title>
<path fill="none" stroke="midnightblue" d="M562.42,-307.79C552.94,-288.89 532,-242.49 532,-201 532,-201 532,-201 532,-143 532,-74.57 442.39,-38.92 392.91,-24.45"/>
<polygon fill="midnightblue" stroke="midnightblue" points="393.58,-21.01 383.01,-21.68 391.69,-27.75 393.58,-21.01"/>
</g>
<!-- Node20&#45;&gt;Node3 -->
<g id="edge39" class="edge">
<title>Node20&#45;&gt;Node3</title>
<path fill="none" stroke="midnightblue" d="M568.57,-307.92C571.68,-293.3 579.92,-263.46 598,-246 694.71,-152.61 750.44,-173.35 879,-134 950.77,-112.03 976.4,-130.62 1044,-98 1063.63,-88.53 1061.63,-74.75 1082,-67 1190.88,-25.59 2032.5,-17.94 2227.67,-16.71"/>
<polygon fill="midnightblue" stroke="midnightblue" points="2227.8,-20.21 2237.78,-16.65 2227.76,-13.21 2227.8,-20.21"/>
</g>
<!-- Node20&#45;&gt;Node5 -->
<g id="edge44" class="edge">
<title>Node20&#45;&gt;Node5</title>
<path fill="none" stroke="midnightblue" d="M571.32,-307.81C579.63,-292.16 599.49,-259.62 627,-246 695.75,-211.95 1221.35,-203.44 1400.44,-201.52"/>
<polygon fill="midnightblue" stroke="midnightblue" points="1400.51,-205.01 1410.48,-201.41 1400.44,-198.02 1400.51,-205.01"/>
</g>
<!-- Node20&#45;&gt;Node44 -->
<g id="edge40" class="edge">
<title>Node20&#45;&gt;Node44</title>
<path fill="none" stroke="midnightblue" d="M584.34,-307.98C604.55,-298.03 638.19,-281.49 661.64,-269.96"/>
<polygon fill="midnightblue" stroke="midnightblue" points="663.27,-273.06 670.7,-265.51 660.18,-266.78 663.27,-273.06"/>
</g>
<!-- Node44&#45;&gt;Node2 -->
<g id="edge41" class="edge">
<title>Node44&#45;&gt;Node2</title>
<path fill="none" stroke="midnightblue" d="M678.65,-246.46C660.77,-229.83 621.12,-191.44 594,-154 568.1,-118.23 580.71,-94.3 546,-67 501.06,-31.65 433.15,-21 393.32,-17.82"/>
<polygon fill="midnightblue" stroke="midnightblue" points="393.33,-14.31 383.11,-17.12 392.85,-21.3 393.33,-14.31"/>
</g>
<!-- Node44&#45;&gt;Node3 -->
<g id="edge42" class="edge">
<title>Node44&#45;&gt;Node3</title>
<path fill="none" stroke="midnightblue" d="M699.55,-246.49C718.09,-233.11 755.98,-206.95 791,-190 858.44,-157.36 878.48,-156.32 950,-134 1008.05,-115.89 1027.93,-125.83 1082,-98 1101.38,-88.03 1099.63,-74.76 1120,-67 1225.14,-26.93 2036.58,-18.26 2227.75,-16.77"/>
<polygon fill="midnightblue" stroke="midnightblue" points="2227.95,-20.27 2237.92,-16.69 2227.89,-13.27 2227.95,-20.27"/>
</g>
<!-- Node44&#45;&gt;Node5 -->
<g id="edge43" class="edge">
<title>Node44&#45;&gt;Node5</title>
<path fill="none" stroke="midnightblue" d="M739.56,-250.34C756.28,-248.88 774.92,-247.31 792,-246 1016.15,-228.75 1282.9,-211.88 1399.93,-204.66"/>
<polygon fill="midnightblue" stroke="midnightblue" points="1400.35,-208.14 1410.12,-204.03 1399.92,-201.16 1400.35,-208.14"/>
</g>
<!-- Node61&#45;&gt;Node2 -->
<g id="edge47" class="edge">
<title>Node61&#45;&gt;Node2</title>
<path fill="none" stroke="midnightblue" d="M1789.29,-254.71C1579.5,-253.39 883.9,-246.29 791,-210 779.54,-205.53 633.09,-72.31 622,-67 545.45,-30.33 444.18,-20.29 393.22,-17.54"/>
<polygon fill="midnightblue" stroke="midnightblue" points="393.29,-14.03 383.13,-17.05 392.95,-21.03 393.29,-14.03"/>
</g>
<!-- Node61&#45;&gt;Node3 -->
<g id="edge48" class="edge">
<title>Node61&#45;&gt;Node3</title>
<path fill="none" stroke="midnightblue" d="M1845.53,-246.1C1834.59,-216.35 1804.18,-119.27 1851,-67 1875.91,-39.19 2127.82,-23.56 2227.6,-18.42"/>
<polygon fill="midnightblue" stroke="midnightblue" points="2228.08,-21.9 2237.89,-17.9 2227.72,-14.91 2228.08,-21.9"/>
</g>
<!-- Node61&#45;&gt;Node5 -->
<g id="edge49" class="edge">
<title>Node61&#45;&gt;Node5</title>
<path fill="none" stroke="midnightblue" d="M1789.5,-246.74C1716.32,-236.58 1592.83,-219.44 1519.61,-209.27"/>
<polygon fill="midnightblue" stroke="midnightblue" points="1520.01,-205.8 1509.62,-207.89 1519.04,-212.73 1520.01,-205.8"/>
</g>
<!-- Node61&#45;&gt;Node15 -->
<g id="edge50" class="edge">
<title>Node61&#45;&gt;Node15</title>
<path fill="none" stroke="midnightblue" d="M1900.47,-246.5C1983.36,-231.63 2140.44,-198.26 2173,-154 2188.33,-133.17 2160.75,-110.88 2137.87,-97.06"/>
<polygon fill="midnightblue" stroke="midnightblue" points="2139.52,-93.98 2129.11,-92.03 2136.04,-100.05 2139.52,-93.98"/>
</g>
<!-- Node48 -->
<g id="node24" class="node">
<title>Node48</title>
<g id="a_node24"><a xlink:href="../../dd/d5f/serializer_8h.html" target="_top" xlink:title=" ">
<polygon fill="none" stroke="red" points="1099.5,-308 1099.5,-327 1212.5,-327 1212.5,-308 1099.5,-308"/>
<text text-anchor="middle" x="1156" y="-315" font-family="Helvetica,sans-Serif" font-size="10.00">includes/serializer.h</text>
</a>
</g>
</g>
<!-- Node79&#45;&gt;Node48 -->
<g id="edge52" class="edge">
<title>Node79&#45;&gt;Node48</title>
<path fill="none" stroke="midnightblue" d="M981.69,-374.87C1017.23,-363.38 1080.21,-343.01 1119.95,-330.16"/>
<polygon fill="midnightblue" stroke="midnightblue" points="1121.08,-333.47 1129.52,-327.06 1118.93,-326.81 1121.08,-333.47"/>
</g>
<!-- Node48&#45;&gt;Node2 -->
<g id="edge54" class="edge">
<title>Node48&#45;&gt;Node2</title>
<path fill="none" stroke="midnightblue" d="M1145.87,-307.93C1125.45,-290.82 1079.7,-253.45 1061,-246 937.08,-196.6 886.82,-259.66 763,-210 713.79,-190.26 620,-89.53 572,-67 512.43,-39.04 435.91,-25.73 393.3,-20.09"/>
<polygon fill="midnightblue" stroke="midnightblue" points="393.6,-16.6 383.24,-18.81 392.72,-23.54 393.6,-16.6"/>
</g>
<!-- Node48&#45;&gt;Node3 -->
<g id="edge56" class="edge">
<title>Node48&#45;&gt;Node3</title>
<path fill="none" stroke="midnightblue" d="M1158.36,-307.83C1162.59,-293.61 1172.56,-265.01 1189,-246 1263.63,-159.7 1309.86,-163.81 1420,-134 1723.55,-51.84 2104.6,-25.23 2227.69,-18.46"/>
<polygon fill="midnightblue" stroke="midnightblue" points="2227.99,-21.95 2237.79,-17.92 2227.61,-14.96 2227.99,-21.95"/>
</g>
<!-- Node48&#45;&gt;Node5 -->
<g id="edge58" class="edge">
<title>Node48&#45;&gt;Node5</title>
<path fill="none" stroke="midnightblue" d="M1165.42,-307.87C1182.27,-292.91 1219.27,-262.21 1256,-246 1302.29,-225.57 1358.7,-214.05 1400.47,-207.79"/>
<polygon fill="midnightblue" stroke="midnightblue" points="1401.08,-211.23 1410.48,-206.34 1400.09,-204.3 1401.08,-211.23"/>
</g>
<!-- Node48&#45;&gt;Node7 -->
<g id="edge55" class="edge">
<title>Node48&#45;&gt;Node7</title>
<path fill="none" stroke="midnightblue" d="M1161.1,-307.72C1170.21,-292.81 1190.71,-262.54 1216,-246 1426,-108.69 1741.11,-87.27 1849.66,-84.04"/>
<polygon fill="midnightblue" stroke="midnightblue" points="1849.9,-87.53 1859.8,-83.77 1849.71,-80.53 1849.9,-87.53"/>
</g>
<!-- Node48&#45;&gt;Node18 -->
<g id="edge53" class="edge">
<title>Node48&#45;&gt;Node18</title>
<path fill="none" stroke="midnightblue" d="M1138.38,-307.98C1117.83,-298.03 1083.64,-281.49 1059.79,-269.96"/>
<polygon fill="midnightblue" stroke="midnightblue" points="1061.12,-266.71 1050.59,-265.51 1058.07,-273.01 1061.12,-266.71"/>
</g>
<!-- Node48&#45;&gt;Node44 -->
<g id="edge63" class="edge">
<title>Node48&#45;&gt;Node44</title>
<path fill="none" stroke="midnightblue" d="M1099.08,-309.26C1010.65,-298.02 840.97,-276.45 749.71,-264.85"/>
<polygon fill="midnightblue" stroke="midnightblue" points="749.87,-261.34 739.51,-263.55 748.99,-268.28 749.87,-261.34"/>
</g>
<!-- Node52 -->
<g id="node25" class="node">
<title>Node52</title>
<g id="a_node25"><a xlink:title=" ">
<polygon fill="none" stroke="#bfbfbf" points="834,-246.5 834,-265.5 920,-265.5 920,-246.5 834,-246.5"/>
<text text-anchor="middle" x="877" y="-253.5" font-family="Helvetica,sans-Serif" font-size="10.00">unordered_set</text>
</a>
</g>
</g>
<!-- Node48&#45;&gt;Node52 -->
<g id="edge57" class="edge">
<title>Node48&#45;&gt;Node52</title>
<path fill="none" stroke="midnightblue" d="M1116.03,-307.98C1066.2,-297.35 981.03,-279.18 926.95,-267.65"/>
<polygon fill="midnightblue" stroke="midnightblue" points="927.41,-264.17 916.9,-265.51 925.95,-271.02 927.41,-264.17"/>
</g>
<!-- Node53 -->
<g id="node26" class="node">
<title>Node53</title>
<g id="a_node26"><a xlink:href="../../d1/d8c/logger_8h.html" target="_top" xlink:title=" ">
<polygon fill="none" stroke="red" points="800,-190.5 800,-209.5 920,-209.5 920,-190.5 800,-190.5"/>
<text text-anchor="middle" x="860" y="-197.5" font-family="Helvetica,sans-Serif" font-size="10.00">input_output/logger.h</text>
</a>
</g>
</g>
<!-- Node48&#45;&gt;Node53 -->
<g id="edge59" class="edge">
<title>Node48&#45;&gt;Node53</title>
<path fill="none" stroke="midnightblue" d="M1151.12,-307.93C1142.01,-292.76 1120.88,-261.38 1094,-246 1044.05,-217.42 979.29,-206.61 930.57,-202.7"/>
<polygon fill="midnightblue" stroke="midnightblue" points="930.65,-199.2 920.43,-201.97 930.15,-206.18 930.65,-199.2"/>
</g>
<!-- Node53&#45;&gt;Node2 -->
<g id="edge60" class="edge">
<title>Node53&#45;&gt;Node2</title>
<path fill="none" stroke="midnightblue" d="M844.85,-190.42C815.68,-173.72 750.03,-135.21 698,-98 680.27,-85.32 679.85,-76 660,-67 569.47,-25.94 449.81,-17.98 393.25,-16.62"/>
<polygon fill="midnightblue" stroke="midnightblue" points="393.19,-13.12 383.13,-16.44 393.06,-20.12 393.19,-13.12"/>
</g>
<!-- Node53&#45;&gt;Node3 -->
<g id="edge61" class="edge">
<title>Node53&#45;&gt;Node3</title>
<path fill="none" stroke="midnightblue" d="M876.61,-190.43C902.65,-177.2 954.88,-151.51 1001,-134 1052.66,-114.39 1071.22,-123.96 1120,-98 1139.24,-87.76 1137.64,-74.78 1158,-67 1259.37,-28.28 2040.05,-18.61 2227.59,-16.84"/>
<polygon fill="midnightblue" stroke="midnightblue" points="2227.86,-20.34 2237.83,-16.74 2227.8,-13.34 2227.86,-20.34"/>
</g>
<!-- Node53&#45;&gt;Node13 -->
<g id="edge62" class="edge">
<title>Node53&#45;&gt;Node13</title>
<path fill="none" stroke="midnightblue" d="M893.12,-190.44C929.12,-181.14 986.77,-166.25 1026.19,-156.06"/>
<polygon fill="midnightblue" stroke="midnightblue" points="1027.23,-159.41 1036.04,-153.52 1025.48,-152.63 1027.23,-159.41"/>
</g>
<!-- Node80&#45;&gt;Node3 -->
<g id="edge66" class="edge">
<title>Node80&#45;&gt;Node3</title>
<path fill="none" stroke="midnightblue" d="M2643.18,-436.34C2660.35,-428.51 2678.13,-416.85 2688,-400 2763.22,-271.54 2760.76,-168.64 2652,-67 2602.9,-21.12 2396.39,-16.1 2308.2,-16.1"/>
<polygon fill="midnightblue" stroke="midnightblue" points="2308.04,-12.6 2298.05,-16.12 2308.06,-19.6 2308.04,-12.6"/>
</g>
<!-- Node80&#45;&gt;Node4 -->
<g id="edge65" class="edge">
<title>Node80&#45;&gt;Node4</title>
<path fill="none" stroke="midnightblue" d="M2644.85,-436.4C2669.91,-427.79 2700.73,-415.46 2726,-400 2827.86,-337.66 2862.81,-316.92 2916,-210 2945.29,-151.12 2987.23,-123.75 2954,-67 2941.79,-46.14 2917.45,-33.24 2897.16,-25.7"/>
<polygon fill="midnightblue" stroke="midnightblue" points="2898.19,-22.36 2887.59,-22.43 2895.92,-28.98 2898.19,-22.36"/>
</g>
<!-- Node80&#45;&gt;Node5 -->
<g id="edge68" class="edge">
<title>Node80&#45;&gt;Node5</title>
<path fill="none" stroke="midnightblue" d="M2524.77,-448.09C2414.58,-443.49 2212.08,-431.02 2147,-400 2108.7,-381.75 2106.65,-365.18 2079,-333 2047.89,-296.79 2057.61,-269.41 2016,-246 1973.58,-222.14 1654.98,-208.01 1520.06,-203.03"/>
<polygon fill="midnightblue" stroke="midnightblue" points="1520.02,-199.53 1509.9,-202.66 1519.77,-206.53 1520.02,-199.53"/>
</g>
<!-- Node80&#45;&gt;Node48 -->
<g id="edge73" class="edge">
<title>Node80&#45;&gt;Node48</title>
<path fill="none" stroke="midnightblue" d="M2524.9,-447.61C2382.23,-441.61 2056.73,-426.13 1784,-400 1578.17,-380.28 1335.82,-345.55 1221.7,-328.5"/>
<polygon fill="midnightblue" stroke="midnightblue" points="1222.13,-325.03 1211.73,-327.01 1221.1,-331.95 1222.13,-325.03"/>
</g>
<!-- Node81 -->
<g id="node28" class="node">
<title>Node81</title>
<g id="a_node28"><a xlink:title=" ">
<polygon fill="none" stroke="#bfbfbf" points="2334,-302.5 2334,-332.5 2456,-332.5 2456,-302.5 2334,-302.5"/>
<text text-anchor="start" x="2342" y="-320.5" font-family="Helvetica,sans-Serif" font-size="10.00">boost/iterator/indirect</text>
<text text-anchor="middle" x="2395" y="-309.5" font-family="Helvetica,sans-Serif" font-size="10.00">_iterator.hpp</text>
</a>
</g>
</g>
<!-- Node80&#45;&gt;Node81 -->
<g id="edge67" class="edge">
<title>Node80&#45;&gt;Node81</title>
<path fill="none" stroke="midnightblue" d="M2576.28,-436.37C2539.87,-412.7 2466.49,-364.99 2425.13,-338.09"/>
<polygon fill="midnightblue" stroke="midnightblue" points="2426.86,-335.04 2416.57,-332.52 2423.04,-340.91 2426.86,-335.04"/>
</g>
<!-- Node82 -->
<g id="node29" class="node">
<title>Node82</title>
<g id="a_node29"><a xlink:href="../../d6/dd9/global__pointer_8h.html" target="_top" xlink:title=" ">
<polygon fill="none" stroke="red" points="2156,-375 2156,-394 2294,-394 2294,-375 2156,-375"/>
<text text-anchor="middle" x="2225" y="-382" font-family="Helvetica,sans-Serif" font-size="10.00">includes/global_pointer.h</text>
</a>
</g>
</g>
<!-- Node80&#45;&gt;Node82 -->
<g id="edge69" class="edge">
<title>Node80&#45;&gt;Node82</title>
<path fill="none" stroke="midnightblue" d="M2524.86,-438.18C2465.35,-428.09 2379.21,-413.36 2304,-400 2296.55,-398.68 2288.72,-397.26 2280.99,-395.86"/>
<polygon fill="midnightblue" stroke="midnightblue" points="2281.4,-392.38 2270.94,-394.02 2280.14,-399.26 2281.4,-392.38"/>
</g>
<!-- Node82&#45;&gt;Node3 -->
<g id="edge70" class="edge">
<title>Node82&#45;&gt;Node3</title>
<path fill="none" stroke="midnightblue" d="M2227.95,-374.89C2238.06,-344.89 2271.23,-242.02 2282,-154 2286.69,-115.62 2287.21,-105.31 2282,-67 2280.52,-56.13 2277.33,-44.29 2274.36,-34.81"/>
<polygon fill="midnightblue" stroke="midnightblue" points="2277.68,-33.69 2271.22,-25.29 2271.03,-35.88 2277.68,-33.69"/>
</g>
<!-- Node82&#45;&gt;Node5 -->
<g id="edge71" class="edge">
<title>Node82&#45;&gt;Node5</title>
<path fill="none" stroke="midnightblue" d="M2186.7,-374.96C2160.4,-367.5 2126.04,-354.43 2102,-333 2069.04,-303.61 2091.15,-269.87 2054,-246 2009.81,-217.6 1661.64,-205.94 1519.81,-202.33"/>
<polygon fill="midnightblue" stroke="midnightblue" points="1519.64,-198.83 1509.56,-202.07 1519.47,-205.82 1519.64,-198.83"/>
</g>
<!-- Node82&#45;&gt;Node48 -->
<g id="edge72" class="edge">
<title>Node82&#45;&gt;Node48</title>
<path fill="none" stroke="midnightblue" d="M2155.68,-379.29C1961.47,-367.48 1413.73,-334.17 1222.71,-322.56"/>
<polygon fill="midnightblue" stroke="midnightblue" points="1222.73,-319.05 1212.54,-321.94 1222.31,-326.04 1222.73,-319.05"/>
</g>
<!-- Node90&#45;&gt;Node2 -->
<g id="edge75" class="edge">
<title>Node90&#45;&gt;Node2</title>
<path fill="none" stroke="midnightblue" d="M1654.38,-634.11C1591.8,-631.63 1478,-622.56 1387,-590 1370.85,-584.22 1370.41,-574.97 1354,-570 1175.6,-516 693.2,-591.83 516,-534 464.97,-517.34 347.78,-442.52 315,-400 295.78,-375.07 300.13,-363.42 292,-333 261.47,-218.79 232.95,-168.84 293,-67 302.37,-51.1 318.9,-38.65 333.31,-30.1"/>
<polygon fill="midnightblue" stroke="midnightblue" points="335.36,-32.96 342.38,-25.03 331.95,-26.85 335.36,-32.96"/>
</g>
<!-- Node90&#45;&gt;Node3 -->
<g id="edge76" class="edge">
<title>Node90&#45;&gt;Node3</title>
<path fill="none" stroke="midnightblue" d="M1747.74,-634.8C1890.16,-633.78 2317.05,-627.59 2450,-590 2623.54,-540.93 2714.17,-506.32 2764,-333 2798.26,-213.85 2786.3,-130.8 2680,-67 2617.89,-29.72 2399.24,-19.85 2308.23,-17.33"/>
<polygon fill="midnightblue" stroke="midnightblue" points="2308.12,-13.83 2298.03,-17.06 2307.94,-20.82 2308.12,-13.83"/>
</g>
<!-- Node90&#45;&gt;Node5 -->
<g id="edge80" class="edge">
<title>Node90&#45;&gt;Node5</title>
<path fill="none" stroke="midnightblue" d="M1696.21,-626.19C1688.29,-612.39 1671.24,-585.67 1650,-570 1614,-543.44 1585.59,-567.55 1556,-534 1531.33,-506.03 1536,-489.8 1536,-452.5 1536,-452.5 1536,-452.5 1536,-316.5 1536,-274.81 1501.02,-236.53 1478.52,-216.22"/>
<polygon fill="midnightblue" stroke="midnightblue" points="1480.73,-213.5 1470.89,-209.58 1476.14,-218.78 1480.73,-213.5"/>
</g>
<!-- Node90&#45;&gt;Node7 -->
<g id="edge77" class="edge">
<title>Node90&#45;&gt;Node7</title>
<path fill="none" stroke="midnightblue" d="M1747.6,-630.13C1803.61,-623.68 1900.14,-610.65 1981,-590 2216.99,-529.75 2402.87,-568.5 2465,-333 2529.1,-90.07 2367.88,-356.86 1978,-154 1949.55,-139.2 1921.17,-115 1904.09,-99.16"/>
<polygon fill="midnightblue" stroke="midnightblue" points="1906.34,-96.47 1896.67,-92.13 1901.53,-101.55 1906.34,-96.47"/>
</g>
<!-- Node90&#45;&gt;Node12 -->
<g id="edge121" class="edge">
<title>Node90&#45;&gt;Node12</title>
<path fill="none" stroke="midnightblue" d="M1747.83,-630.11C1873.17,-616.58 2213.84,-576.81 2318,-534 2368.17,-513.38 2382.27,-505.96 2420,-467 2491.87,-392.79 2519.24,-345.65 2492,-246 2476.9,-190.77 2437.68,-135.22 2414.31,-105.52"/>
<polygon fill="midnightblue" stroke="midnightblue" points="2416.87,-103.13 2407.89,-97.51 2411.41,-107.5 2416.87,-103.13"/>
</g>
<!-- Node90&#45;&gt;Node44 -->
<g id="edge120" class="edge">
<title>Node90&#45;&gt;Node44</title>
<path fill="none" stroke="midnightblue" d="M1654.32,-630.33C1605.54,-624.5 1527.32,-612.44 1463,-590 1444.98,-583.71 1443.24,-575.63 1425,-570 1290.78,-528.58 1227.13,-613.02 1111,-534 1042.29,-487.24 1086.47,-422.65 1023,-369 943.6,-301.89 822.46,-274.55 749.67,-263.73"/>
<polygon fill="midnightblue" stroke="midnightblue" points="750.12,-260.26 739.73,-262.31 749.14,-267.19 750.12,-260.26"/>
</g>
<!-- Node90&#45;&gt;Node80 -->
<g id="edge122" class="edge">
<title>Node90&#45;&gt;Node80</title>
<path fill="none" stroke="midnightblue" d="M1747.66,-634.01C1897.59,-630.57 2360.88,-617.79 2422,-590 2471.49,-567.5 2464.76,-535.96 2508,-503 2523.6,-491.11 2542.33,-480.15 2558.65,-471.5"/>
<polygon fill="midnightblue" stroke="midnightblue" points="2560.67,-474.4 2567.93,-466.69 2557.44,-468.18 2560.67,-474.4"/>
</g>
<!-- Node77 -->
<g id="node31" class="node">
<title>Node77</title>
<g id="a_node31"><a xlink:title=" ">
<polygon fill="none" stroke="#bfbfbf" points="1679.5,-308 1679.5,-327 1732.5,-327 1732.5,-308 1679.5,-308"/>
<text text-anchor="middle" x="1706" y="-315" font-family="Helvetica,sans-Serif" font-size="10.00">cstddef</text>
</a>
</g>
</g>
<!-- Node90&#45;&gt;Node77 -->
<g id="edge78" class="edge">
<title>Node90&#45;&gt;Node77</title>
<path fill="none" stroke="midnightblue" d="M1747.71,-631.52C1775.96,-626.73 1809.91,-615.6 1828,-590 1833.13,-582.74 1829.99,-578.66 1828,-570 1822.25,-544.95 1742.47,-389.13 1715.12,-336.13"/>
<polygon fill="midnightblue" stroke="midnightblue" points="1718.22,-334.5 1710.52,-327.22 1712,-337.71 1718.22,-334.5"/>
</g>
<!-- Node89 -->
<g id="node32" class="node">
<title>Node89</title>
<g id="a_node32"><a xlink:title=" ">
<polygon fill="none" stroke="#bfbfbf" points="1295,-570.5 1295,-589.5 1345,-589.5 1345,-570.5 1295,-570.5"/>
<text text-anchor="middle" x="1320" y="-577.5" font-family="Helvetica,sans-Serif" font-size="10.00">atomic</text>
</a>
</g>
</g>
<!-- Node90&#45;&gt;Node89 -->
<g id="edge79" class="edge">
<title>Node90&#45;&gt;Node89</title>
<path fill="none" stroke="midnightblue" d="M1654.31,-630.29C1588.27,-623.31 1463.9,-608.96 1359,-590 1357.73,-589.77 1356.44,-589.53 1355.14,-589.27"/>
<polygon fill="midnightblue" stroke="midnightblue" points="1355.61,-585.8 1345.1,-587.17 1354.17,-592.65 1355.61,-585.8"/>
</g>
<!-- Node74 -->
<g id="node33" class="node">
<title>Node74</title>
<g id="a_node33"><a xlink:href="../../da/d55/lock__object_8h.html" target="_top" xlink:title=" ">
<polygon fill="none" stroke="red" points="1515.5,-570.5 1515.5,-589.5 1640.5,-589.5 1640.5,-570.5 1515.5,-570.5"/>
<text text-anchor="middle" x="1578" y="-577.5" font-family="Helvetica,sans-Serif" font-size="10.00">includes/lock_object.h</text>
</a>
</g>
</g>
<!-- Node90&#45;&gt;Node74 -->
<g id="edge81" class="edge">
<title>Node90&#45;&gt;Node74</title>
<path fill="none" stroke="midnightblue" d="M1681.51,-626.44C1661.36,-617.6 1629.68,-603.69 1606.67,-593.59"/>
<polygon fill="midnightblue" stroke="midnightblue" points="1607.96,-590.33 1597.4,-589.52 1605.15,-596.74 1607.96,-590.33"/>
</g>
<!-- Node91 -->
<g id="node34" class="node">
<title>Node91</title>
<g id="a_node34"><a xlink:href="../../d2/d91/point_8h.html" target="_top" xlink:title=" ">
<polygon fill="none" stroke="red" points="1120.5,-509 1120.5,-528 1229.5,-528 1229.5,-509 1120.5,-509"/>
<text text-anchor="middle" x="1175" y="-516" font-family="Helvetica,sans-Serif" font-size="10.00">geometries/point.h</text>
</a>
</g>
</g>
<!-- Node90&#45;&gt;Node91 -->
<g id="edge83" class="edge">
<title>Node90&#45;&gt;Node91</title>
<path fill="none" stroke="midnightblue" d="M1654.42,-626.89C1614.66,-619.34 1556.27,-606.73 1507,-590 1486.66,-583.09 1483.52,-576.35 1463,-570 1388.05,-546.81 1298.62,-533.21 1239.52,-526.08"/>
<polygon fill="midnightblue" stroke="midnightblue" points="1239.92,-522.6 1229.57,-524.9 1239.1,-529.55 1239.92,-522.6"/>
</g>
<!-- Node84 -->
<g id="node35" class="node">
<title>Node84</title>
<g id="a_node35"><a xlink:href="../../d1/d4e/dof_8h.html" target="_top" xlink:title=" ">
<polygon fill="none" stroke="black" points="1735,-570.5 1735,-589.5 1819,-589.5 1819,-570.5 1735,-570.5"/>
<text text-anchor="middle" x="1777" y="-577.5" font-family="Helvetica,sans-Serif" font-size="10.00">includes/dof.h</text>
</a>
</g>
</g>
<!-- Node90&#45;&gt;Node84 -->
<g id="edge86" class="edge">
<title>Node90&#45;&gt;Node84</title>
<path fill="none" stroke="midnightblue" d="M1713.21,-626.32C1724.78,-618.11 1742.38,-605.6 1756.16,-595.81"/>
<polygon fill="midnightblue" stroke="midnightblue" points="1758.44,-598.48 1764.57,-589.83 1754.39,-592.77 1758.44,-598.48"/>
</g>
<!-- Node85 -->
<g id="node36" class="node">
<title>Node85</title>
<g id="a_node36"><a xlink:href="../../d1/d82/data__value__container_8h.html" target="_top" xlink:title=" ">
<polygon fill="none" stroke="black" points="1564.5,-503.5 1564.5,-533.5 1689.5,-533.5 1689.5,-503.5 1564.5,-503.5"/>
<text text-anchor="start" x="1572.5" y="-521.5" font-family="Helvetica,sans-Serif" font-size="10.00">containers/data_value</text>
<text text-anchor="middle" x="1627" y="-510.5" font-family="Helvetica,sans-Serif" font-size="10.00">_container.h</text>
</a>
</g>
</g>
<!-- Node90&#45;&gt;Node85 -->
<g id="edge123" class="edge">
<title>Node90&#45;&gt;Node85</title>
<path fill="none" stroke="midnightblue" d="M1700.17,-626.39C1698.58,-613.33 1694.2,-588.13 1683,-570 1676.01,-558.69 1665.75,-548.41 1655.92,-540.11"/>
<polygon fill="midnightblue" stroke="midnightblue" points="1657.83,-537.16 1647.84,-533.64 1653.45,-542.62 1657.83,-537.16"/>
</g>
<!-- Node86 -->
<g id="node37" class="node">
<title>Node86</title>
<g id="a_node37"><a xlink:href="../../db/d22/nodal__data_8h.html" target="_top" xlink:title=" ">
<polygon fill="none" stroke="black" points="1951,-509 1951,-528 2085,-528 2085,-509 1951,-509"/>
<text text-anchor="middle" x="2018" y="-516" font-family="Helvetica,sans-Serif" font-size="10.00">containers/nodal_data.h</text>
</a>
</g>
</g>
<!-- Node90&#45;&gt;Node86 -->
<g id="edge124" class="edge">
<title>Node90&#45;&gt;Node86</title>
<path fill="none" stroke="midnightblue" d="M1747.84,-628.57C1788.75,-621.98 1849.22,-609.83 1899,-590 1936.22,-575.17 1975.47,-549.72 1998.3,-533.8"/>
<polygon fill="midnightblue" stroke="midnightblue" points="2000.34,-536.64 2006.48,-528.01 1996.29,-530.93 2000.34,-536.64"/>
</g>
<!-- Node87 -->
<g id="node38" class="node">
<title>Node87</title>
<g id="a_node38"><a xlink:href="../../d4/d52/variables__list__data__value__container_8h.html" target="_top" xlink:title=" ">
<polygon fill="none" stroke="red" points="1792.5,-369.5 1792.5,-399.5 1947.5,-399.5 1947.5,-369.5 1792.5,-369.5"/>
<text text-anchor="start" x="1800.5" y="-387.5" font-family="Helvetica,sans-Serif" font-size="10.00">containers/variables</text>
<text text-anchor="middle" x="1870" y="-376.5" font-family="Helvetica,sans-Serif" font-size="10.00">_list_data_value_container.h</text>
</a>
</g>
</g>
<!-- Node90&#45;&gt;Node87 -->
<g id="edge119" class="edge">
<title>Node90&#45;&gt;Node87</title>
<path fill="none" stroke="midnightblue" d="M1747.56,-628.05C1789.57,-620.74 1846.88,-607.81 1861,-590 1902.74,-537.35 1887.74,-450.94 1877.04,-409.35"/>
<polygon fill="midnightblue" stroke="midnightblue" points="1880.38,-408.29 1874.38,-399.55 1873.62,-410.12 1880.38,-408.29"/>
</g>
<!-- Node92 -->
<g id="node39" class="node">
<title>Node92</title>
<g id="a_node39"><a xlink:href="../../d4/d35/pointer__vector__set_8h.html" target="_top" xlink:title=" ">
<polygon fill="none" stroke="red" points="2312.5,-369.5 2312.5,-399.5 2417.5,-399.5 2417.5,-369.5 2312.5,-369.5"/>
<text text-anchor="start" x="2320.5" y="-387.5" font-family="Helvetica,sans-Serif" font-size="10.00">containers/pointer</text>
<text text-anchor="middle" x="2365" y="-376.5" font-family="Helvetica,sans-Serif" font-size="10.00">_vector_set.h</text>
</a>
</g>
</g>
<!-- Node90&#45;&gt;Node92 -->
<g id="edge109" class="edge">
<title>Node90&#45;&gt;Node92</title>
<path fill="none" stroke="midnightblue" d="M1747.67,-627.97C1794.84,-620.39 1869.61,-607.08 1933,-590 2006.15,-570.29 2024.76,-564.75 2094,-534 2184.01,-494.02 2284.28,-435.02 2333.81,-404.83"/>
<polygon fill="midnightblue" stroke="midnightblue" points="2335.75,-407.75 2342.46,-399.54 2332.1,-401.78 2335.75,-407.75"/>
</g>
<!-- Node90&#45;&gt;Node94 -->
<g id="edge125" class="edge">
<title>Node90&#45;&gt;Node94</title>
<path fill="none" stroke="midnightblue" d="M1654.15,-630.34C1600.45,-624.24 1510.15,-611.71 1435,-590 1412.8,-583.59 1409.5,-575.29 1387,-570 1259.2,-539.97 870.77,-526.05 706.56,-521.39"/>
<polygon fill="midnightblue" stroke="midnightblue" points="706.17,-517.88 696.07,-521.09 705.97,-524.87 706.17,-517.88"/>
</g>
<!-- Node74&#45;&gt;Node5 -->
<g id="edge82" class="edge">
<title>Node74&#45;&gt;Node5</title>
<path fill="none" stroke="midnightblue" d="M1562.75,-570.4C1550.08,-562.49 1532.48,-549.65 1522,-534 1500.99,-502.63 1498,-490.26 1498,-452.5 1498,-452.5 1498,-452.5 1498,-316.5 1498,-280.25 1480.91,-240.67 1469.65,-218.53"/>
<polygon fill="midnightblue" stroke="midnightblue" points="1472.73,-216.87 1464.97,-209.66 1466.54,-220.14 1472.73,-216.87"/>
</g>
<!-- Node91&#45;&gt;Node5 -->
<g id="edge84" class="edge">
<title>Node91&#45;&gt;Node5</title>
<path fill="none" stroke="midnightblue" d="M1179.22,-508.83C1197.31,-472.37 1271.95,-329.57 1370,-246 1386.38,-232.04 1407.83,-221.1 1425.69,-213.5"/>
<polygon fill="midnightblue" stroke="midnightblue" points="1427.25,-216.64 1435.18,-209.62 1424.6,-210.16 1427.25,-216.64"/>
</g>
<!-- Node91&#45;&gt;Node48 -->
<g id="edge85" class="edge">
<title>Node91&#45;&gt;Node48</title>
<path fill="none" stroke="midnightblue" d="M1175.42,-508.73C1176.38,-485.68 1178.05,-421.53 1170,-369 1168.34,-358.15 1165.13,-346.32 1162.21,-336.83"/>
<polygon fill="midnightblue" stroke="midnightblue" points="1165.54,-335.74 1159.13,-327.3 1158.88,-337.89 1165.54,-335.74"/>
</g>
<!-- Node84&#45;&gt;Node2 -->
<g id="edge87" class="edge">
<title>Node84&#45;&gt;Node2</title>
<path fill="none" stroke="midnightblue" d="M1734.98,-575.62C1710.25,-573.73 1678.37,-571.47 1650,-570 1528.87,-563.71 673.59,-573.76 559,-534 554.66,-532.5 429.97,-438.31 426,-436 391.94,-416.2 374.48,-426.14 345,-400 319.05,-376.99 316.23,-365.81 305,-333 276.28,-249.08 277.18,-221.76 290,-134 294.49,-103.25 294.02,-93.65 310,-67 318.09,-53.51 330.61,-41.04 341.21,-31.87"/>
<polygon fill="midnightblue" stroke="midnightblue" points="343.72,-34.34 349.19,-25.27 339.25,-28.95 343.72,-34.34"/>
</g>
<!-- Node84&#45;&gt;Node3 -->
<g id="edge88" class="edge">
<title>Node84&#45;&gt;Node3</title>
<path fill="none" stroke="midnightblue" d="M1819.24,-574.2C1880.18,-567 1996.19,-552.28 2094,-534 2274.99,-500.17 2363.48,-537.44 2486,-400 2587.02,-286.68 2677.61,-165.39 2562,-67 2524.49,-35.07 2380.38,-22.71 2308.81,-18.46"/>
<polygon fill="midnightblue" stroke="midnightblue" points="2308.57,-14.95 2298.39,-17.87 2308.17,-21.93 2308.57,-14.95"/>
</g>
<!-- Node84&#45;&gt;Node5 -->
<g id="edge91" class="edge">
<title>Node84&#45;&gt;Node5</title>
<path fill="none" stroke="midnightblue" d="M1769.2,-570.36C1761.4,-561.53 1749.26,-547.27 1740,-534 1655.05,-412.3 1683.29,-343.04 1571,-246 1552.72,-230.2 1528.16,-219.47 1506.79,-212.47"/>
<polygon fill="midnightblue" stroke="midnightblue" points="1507.82,-209.12 1497.24,-209.51 1505.75,-215.81 1507.82,-209.12"/>
</g>
<!-- Node84&#45;&gt;Node7 -->
<g id="edge89" class="edge">
<title>Node84&#45;&gt;Node7</title>
<path fill="none" stroke="midnightblue" d="M1793.28,-570.49C1833.13,-548.61 1935.07,-486.02 1973,-400 1978.56,-387.39 1974.99,-382.63 1973,-369 1957.85,-264.99 1913.18,-146.18 1895.41,-101.63"/>
<polygon fill="midnightblue" stroke="midnightblue" points="1898.58,-100.13 1891.6,-92.17 1892.09,-102.75 1898.58,-100.13"/>
</g>
<!-- Node84&#45;&gt;Node77 -->
<g id="edge90" class="edge">
<title>Node84&#45;&gt;Node77</title>
<path fill="none" stroke="midnightblue" d="M1772.87,-570.31C1760.96,-544.85 1726.53,-467.89 1712,-400 1707.46,-378.81 1706.2,-353.89 1705.93,-337.24"/>
<polygon fill="midnightblue" stroke="midnightblue" points="1709.43,-337.15 1705.86,-327.18 1702.43,-337.2 1709.43,-337.15"/>
</g>
<!-- Node84&#45;&gt;Node85 -->
<g id="edge92" class="edge">
<title>Node84&#45;&gt;Node85</title>
<path fill="none" stroke="midnightblue" d="M1755.51,-570.48C1733.77,-561.85 1699.51,-548.26 1671.84,-537.29"/>
<polygon fill="midnightblue" stroke="midnightblue" points="1672.94,-533.96 1662.35,-533.52 1670.36,-540.46 1672.94,-533.96"/>
</g>
<!-- Node84&#45;&gt;Node86 -->
<g id="edge101" class="edge">
<title>Node84&#45;&gt;Node86</title>
<path fill="none" stroke="midnightblue" d="M1811.53,-570.48C1854.21,-559.94 1926.92,-541.99 1973.68,-530.44"/>
<polygon fill="midnightblue" stroke="midnightblue" points="1974.67,-533.8 1983.53,-528.01 1972.99,-527.01 1974.67,-533.8"/>
</g>
<!-- Node85&#45;&gt;Node2 -->
<g id="edge93" class="edge">
<title>Node85&#45;&gt;Node2</title>
<path fill="none" stroke="midnightblue" d="M1564.42,-514.91C1364.75,-506.54 750.75,-480.05 662,-467 599.98,-457.88 438.82,-436.69 388,-400 328.24,-356.85 304,-330.71 304,-257 304,-257 304,-257 304,-143 304,-100.47 331.11,-56.43 347.94,-33.2"/>
<polygon fill="midnightblue" stroke="midnightblue" points="350.82,-35.2 354.01,-25.1 345.21,-31 350.82,-35.2"/>
</g>
<!-- Node85&#45;&gt;Node3 -->
<g id="edge94" class="edge">
<title>Node85&#45;&gt;Node3</title>
<path fill="none" stroke="midnightblue" d="M1689.84,-504.78C1777.56,-487.36 1941.86,-455.97 2083,-436 2159.1,-425.23 2362.69,-442.09 2427,-400 2489.98,-358.78 2535.92,-125.86 2489,-67 2466.83,-39.19 2365.79,-25.47 2308.31,-19.82"/>
<polygon fill="midnightblue" stroke="midnightblue" points="2308.4,-16.31 2298.11,-18.85 2307.74,-23.28 2308.4,-16.31"/>
</g>
<!-- Node85&#45;&gt;Node4 -->
<g id="edge96" class="edge">
<title>Node85&#45;&gt;Node4</title>
<path fill="none" stroke="midnightblue" d="M1689.62,-512.11C1857.26,-497.12 2313.03,-452.57 2454,-400 2644.61,-328.91 2694.09,-295.76 2840,-154 2861.57,-133.04 2869.17,-126.75 2878,-98 2884.5,-76.84 2878.09,-51.59 2871.96,-34.87"/>
<polygon fill="midnightblue" stroke="midnightblue" points="2875.08,-33.22 2868.12,-25.24 2868.57,-35.82 2875.08,-33.22"/>
</g>
<!-- Node85&#45;&gt;Node5 -->
<g id="edge97" class="edge">
<title>Node85&#45;&gt;Node5</title>
<path fill="none" stroke="midnightblue" d="M1617.03,-503.21C1601.68,-479.78 1574,-431.19 1574,-385.5 1574,-385.5 1574,-385.5 1574,-316.5 1574,-283.4 1571.77,-270.94 1550,-246 1536.82,-230.9 1517.37,-220.29 1499.92,-213.19"/>
<polygon fill="midnightblue" stroke="midnightblue" points="1501.08,-209.88 1490.49,-209.59 1498.59,-216.43 1501.08,-209.88"/>
</g>
<!-- Node85&#45;&gt;Node13 -->
<g id="edge100" class="edge">
<title>Node85&#45;&gt;Node13</title>
<path fill="none" stroke="midnightblue" d="M1565.03,-503.45C1462.08,-478.56 1251.19,-420.9 1090,-333 1047.77,-309.97 1025.99,-309.28 1005,-266 986.36,-227.58 1025.42,-183.48 1050.36,-160.6"/>
<polygon fill="midnightblue" stroke="midnightblue" points="1053,-162.94 1058.17,-153.7 1048.36,-157.7 1053,-162.94"/>
</g>
<!-- Node85&#45;&gt;Node17 -->
<g id="edge99" class="edge">
<title>Node85&#45;&gt;Node17</title>
<path fill="none" stroke="midnightblue" d="M1564.22,-512.83C1412.54,-501.53 1025.51,-472.72 846.9,-459.42"/>
<polygon fill="midnightblue" stroke="midnightblue" points="846.97,-455.91 836.74,-458.66 846.45,-462.89 846.97,-455.91"/>
</g>
<!-- Node85&#45;&gt;Node61 -->
<g id="edge98" class="edge">
<title>Node85&#45;&gt;Node61</title>
<path fill="none" stroke="midnightblue" d="M1664.01,-503.41C1707.79,-486.85 1782.95,-458.73 1848,-436 1896.16,-419.17 1927.11,-441.35 1957,-400 1965.07,-388.83 1962.97,-381.42 1957,-369 1945.9,-345.92 1930.27,-350.95 1912,-333 1892.99,-314.32 1873.84,-290.3 1861.72,-274.31"/>
<polygon fill="midnightblue" stroke="midnightblue" points="1864.25,-271.84 1855.46,-265.93 1858.64,-276.03 1864.25,-271.84"/>
</g>
<!-- Node85&#45;&gt;Node77 -->
<g id="edge95" class="edge">
<title>Node85&#45;&gt;Node77</title>
<path fill="none" stroke="midnightblue" d="M1630.24,-503.12C1636.61,-476.07 1652.09,-416.07 1674,-369 1679.45,-357.28 1687.17,-345.02 1693.66,-335.51"/>
<polygon fill="midnightblue" stroke="midnightblue" points="1696.73,-337.24 1699.61,-327.04 1691,-333.21 1696.73,-337.24"/>
</g>
<!-- Node86&#45;&gt;Node3 -->
<g id="edge102" class="edge">
<title>Node86&#45;&gt;Node3</title>
<path fill="none" stroke="midnightblue" d="M2085.33,-515.45C2178.61,-509.37 2348.27,-486.24 2460,-400 2487.1,-379.08 2484.19,-364.33 2498,-333 2546.22,-223.6 2614.37,-158.98 2538,-67 2509.3,-32.43 2376.58,-21.39 2308.51,-17.97"/>
<polygon fill="midnightblue" stroke="midnightblue" points="2308.32,-14.46 2298.17,-17.49 2307.99,-21.45 2308.32,-14.46"/>
</g>
<!-- Node86&#45;&gt;Node87 -->
<g id="edge103" class="edge">
<title>Node86&#45;&gt;Node87</title>
<path fill="none" stroke="midnightblue" d="M2012.45,-508.85C2002,-493.03 1978.12,-458.96 1952,-436 1938.38,-424.03 1921.57,-413.13 1906.73,-404.55"/>
<polygon fill="midnightblue" stroke="midnightblue" points="1908.22,-401.37 1897.79,-399.52 1904.79,-407.48 1908.22,-401.37"/>
</g>
<!-- Node87&#45;&gt;Node2 -->
<g id="edge104" class="edge">
<title>Node87&#45;&gt;Node2</title>
<path fill="none" stroke="midnightblue" d="M1792.42,-381.85C1498.75,-375.45 470.38,-351.74 442,-333 387.91,-297.29 380,-265.82 380,-201 380,-201 380,-201 380,-143 380,-104.27 371.18,-59.61 365.56,-35.07"/>
<polygon fill="midnightblue" stroke="midnightblue" points="368.89,-33.94 363.18,-25.02 362.08,-35.56 368.89,-33.94"/>
</g>
<!-- Node87&#45;&gt;Node3 -->
<g id="edge105" class="edge">
<title>Node87&#45;&gt;Node3</title>
<path fill="none" stroke="midnightblue" d="M1891.59,-369.36C1944.09,-334.69 2081.95,-241.87 2189,-154 2217.2,-130.86 2230.73,-129.57 2249,-98 2260.34,-78.4 2264.91,-52.46 2266.76,-35.16"/>
<polygon fill="midnightblue" stroke="midnightblue" points="2270.24,-35.46 2267.62,-25.19 2263.27,-34.85 2270.24,-35.46"/>
</g>
<!-- Node87&#45;&gt;Node5 -->
<g id="edge107" class="edge">
<title>Node87&#45;&gt;Node5</title>
<path fill="none" stroke="midnightblue" d="M1849.61,-369.47C1824.73,-352.59 1781.12,-323.8 1742,-302 1691.99,-274.13 1679.63,-266.02 1626,-246 1587.72,-231.71 1542.93,-219.84 1509.53,-211.89"/>
<polygon fill="midnightblue" stroke="midnightblue" points="1510.09,-208.42 1499.55,-209.54 1508.49,-215.24 1510.09,-208.42"/>
</g>
<!-- Node87&#45;&gt;Node61 -->
<g id="edge108" class="edge">
<title>Node87&#45;&gt;Node61</title>
<path fill="none" stroke="midnightblue" d="M1857.01,-369.25C1849.26,-359.75 1840.14,-346.55 1836,-333 1830.09,-313.65 1835.69,-290.66 1841.27,-275.07"/>
<polygon fill="midnightblue" stroke="midnightblue" points="1844.59,-276.19 1844.99,-265.6 1838.07,-273.63 1844.59,-276.19"/>
</g>
<!-- Node87&#45;&gt;Node77 -->
<g id="edge106" class="edge">
<title>Node87&#45;&gt;Node77</title>
<path fill="none" stroke="midnightblue" d="M1834.41,-369.4C1805.38,-357.89 1764.78,-341.8 1737.05,-330.81"/>
<polygon fill="midnightblue" stroke="midnightblue" points="1738.05,-327.44 1727.46,-327.01 1735.47,-333.95 1738.05,-327.44"/>
</g>
<!-- Node92&#45;&gt;Node2 -->
<g id="edge111" class="edge">
<title>Node92&#45;&gt;Node2</title>
<path fill="none" stroke="midnightblue" d="M2312.37,-370.4C2309.21,-369.86 2306.07,-369.39 2303,-369 2252.61,-362.68 514.72,-364.65 475,-333 447.77,-311.3 456,-291.82 456,-257 456,-257 456,-257 456,-143 456,-94.43 410.66,-52.59 382.62,-31.37"/>
<polygon fill="midnightblue" stroke="midnightblue" points="384.35,-28.29 374.21,-25.22 380.22,-33.94 384.35,-28.29"/>
</g>
<!-- Node92&#45;&gt;Node3 -->
<g id="edge112" class="edge">
<title>Node92&#45;&gt;Node3</title>
<path fill="none" stroke="midnightblue" d="M2331.59,-369.34C2316.61,-361.09 2300.44,-349.11 2292,-333 2285.6,-320.8 2287.22,-314.92 2292,-302 2337.21,-179.87 2546.96,-169.78 2467,-67 2447.71,-42.21 2360.66,-27.62 2308.29,-20.93"/>
<polygon fill="midnightblue" stroke="midnightblue" points="2308.66,-17.45 2298.31,-19.7 2307.8,-24.4 2308.66,-17.45"/>
</g>
<!-- Node92&#45;&gt;Node4 -->
<g id="edge110" class="edge">
<title>Node92&#45;&gt;Node4</title>
<path fill="none" stroke="midnightblue" d="M2349.23,-369.27C2332.84,-352.7 2311.34,-324.69 2325,-302 2383.72,-204.45 2724.1,-69.34 2831.53,-28.6"/>
<polygon fill="midnightblue" stroke="midnightblue" points="2832.77,-31.87 2840.89,-25.06 2830.3,-25.32 2832.77,-31.87"/>
</g>
<!-- Node92&#45;&gt;Node5 -->
<g id="edge117" class="edge">
<title>Node92&#45;&gt;Node5</title>
<path fill="none" stroke="midnightblue" d="M2312.25,-371.12C2309.12,-370.4 2306.02,-369.69 2303,-369 2230.66,-352.55 2202.03,-373.7 2140,-333 2100.09,-306.81 2118.7,-269.24 2077,-246 2029.13,-219.32 1665.4,-206.58 1519.89,-202.51"/>
<polygon fill="midnightblue" stroke="midnightblue" points="1519.89,-199.01 1509.8,-202.23 1519.7,-206.01 1519.89,-199.01"/>
</g>
<!-- Node92&#45;&gt;Node7 -->
<g id="edge113" class="edge">
<title>Node92&#45;&gt;Node7</title>
<path fill="none" stroke="midnightblue" d="M2320.51,-369.4C2294.15,-360.37 2260.45,-347.62 2232,-333 2169.83,-301.06 2160.49,-282.69 2101,-246 2030.86,-202.73 2001.57,-208.79 1940,-154 1922.66,-138.57 1907.52,-116.49 1898.12,-101.17"/>
<polygon fill="midnightblue" stroke="midnightblue" points="1900.91,-99.02 1892.8,-92.21 1894.89,-102.6 1900.91,-99.02"/>
</g>
<!-- Node92&#45;&gt;Node10 -->
<g id="edge115" class="edge">
<title>Node92&#45;&gt;Node10</title>
<path fill="none" stroke="midnightblue" d="M2312.4,-371.42C2291.09,-363.87 2268.2,-351.86 2254,-333 2200.68,-262.21 2208.54,-147.41 2214.17,-102.43"/>
<polygon fill="midnightblue" stroke="midnightblue" points="2217.66,-102.73 2215.55,-92.35 2210.73,-101.78 2217.66,-102.73"/>
</g>
<!-- Node92&#45;&gt;Node48 -->
<g id="edge118" class="edge">
<title>Node92&#45;&gt;Node48</title>
<path fill="none" stroke="midnightblue" d="M2312.36,-370.49C2309.2,-369.93 2306.07,-369.42 2303,-369 2196.28,-354.3 1451.89,-328.42 1222.88,-320.72"/>
<polygon fill="midnightblue" stroke="midnightblue" points="1222.81,-317.21 1212.69,-320.38 1222.57,-324.21 1222.81,-317.21"/>
</g>
<!-- Node92&#45;&gt;Node81 -->
<g id="edge116" class="edge">
<title>Node92&#45;&gt;Node81</title>
<path fill="none" stroke="midnightblue" d="M2371.51,-369.4C2375.24,-361.3 2380.03,-350.94 2384.3,-341.69"/>
<polygon fill="midnightblue" stroke="midnightblue" points="2387.49,-343.12 2388.5,-332.58 2381.13,-340.19 2387.49,-343.12"/>
</g>
<!-- Node92&#45;&gt;Node77 -->
<g id="edge114" class="edge">
<title>Node92&#45;&gt;Node77</title>
<path fill="none" stroke="midnightblue" d="M2312.34,-370.63C2309.19,-370.04 2306.06,-369.48 2303,-369 2092.54,-335.67 1836.62,-323.34 1742.76,-319.75"/>
<polygon fill="midnightblue" stroke="midnightblue" points="1742.77,-316.25 1732.65,-319.37 1742.51,-323.24 1742.77,-316.25"/>
</g>
<!-- Node94&#45;&gt;Node5 -->
<g id="edge126" class="edge">
<title>Node94&#45;&gt;Node5</title>
<path fill="none" stroke="midnightblue" d="M634.8,-508.79C639.72,-493.72 650.52,-461.92 662,-436 675.61,-405.28 675,-394.39 697,-369 714.93,-348.31 726.63,-351.3 747,-333 785.63,-298.29 778.36,-268.84 825,-246 875.83,-221.11 1251.85,-207.24 1400.13,-202.69"/>
<polygon fill="midnightblue" stroke="midnightblue" points="1400.52,-206.18 1410.41,-202.38 1400.31,-199.18 1400.52,-206.18"/>
</g>
<!-- Node94&#45;&gt;Node17 -->
<g id="edge128" class="edge">
<title>Node94&#45;&gt;Node17</title>
<path fill="none" stroke="midnightblue" d="M648.2,-508.87C668.8,-497.89 704.59,-478.82 728.78,-465.94"/>
<polygon fill="midnightblue" stroke="midnightblue" points="730.55,-468.96 737.73,-461.17 727.26,-462.78 730.55,-468.96"/>
</g>
<!-- Node94&#45;&gt;Node44 -->
<g id="edge127" class="edge">
<title>Node94&#45;&gt;Node44</title>
<path fill="none" stroke="midnightblue" d="M620.83,-508.87C610.08,-499.79 594.53,-484.42 588,-467 572.72,-426.21 561.25,-403.38 588,-369 627.98,-317.62 690.02,-384.38 730,-333 745.09,-313.6 723.93,-288.09 706.57,-272.12"/>
<polygon fill="midnightblue" stroke="midnightblue" points="708.83,-269.45 699,-265.5 704.23,-274.72 708.83,-269.45"/>
</g>
<!-- Node95&#45;&gt;Node2 -->
<g id="edge130" class="edge">
<title>Node95&#45;&gt;Node2</title>
<path fill="none" stroke="midnightblue" d="M828.28,-957.11C647.83,-949.62 38,-918.35 38,-838 38,-838 38,-838 38,-143 38,-102.57 54.31,-89.36 88,-67 127.2,-40.99 265.35,-25.28 328.76,-19.29"/>
<polygon fill="midnightblue" stroke="midnightblue" points="329.34,-22.75 338.98,-18.35 328.7,-15.78 329.34,-22.75"/>
</g>
<!-- Node95&#45;&gt;Node3 -->
<g id="edge131" class="edge">
<title>Node95&#45;&gt;Node3</title>
<path fill="none" stroke="midnightblue" d="M927.84,-958.38C1186.56,-954.5 2377.09,-928.73 2709,-780 2880.89,-702.97 2978,-640.86 2978,-452.5 2978,-452.5 2978,-452.5 2978,-255 2978,-145.57 2920.29,-108.43 2819,-67 2726.3,-29.09 2419.04,-19.43 2308.26,-17.15"/>
<polygon fill="midnightblue" stroke="midnightblue" points="2308.23,-13.65 2298.17,-16.96 2308.09,-20.65 2308.23,-13.65"/>
</g>
<!-- Node95&#45;&gt;Node5 -->
<g id="edge133" class="edge">
<title>Node95&#45;&gt;Node5</title>
<path fill="none" stroke="midnightblue" d="M874.39,-950.37C860.25,-915.18 811.44,-779.82 854,-682 861.09,-665.71 1306.69,-255.02 1322,-246 1348.66,-230.28 1381.5,-219.29 1408.46,-212.11"/>
<polygon fill="midnightblue" stroke="midnightblue" points="1409.66,-215.41 1418.47,-209.54 1407.92,-208.63 1409.66,-215.41"/>
</g>
<!-- Node95&#45;&gt;Node52 -->
<g id="edge132" class="edge">
<title>Node95&#45;&gt;Node52</title>
<path fill="none" stroke="midnightblue" d="M828.32,-953.9C683.83,-937.73 274,-881.6 274,-765.5 274,-765.5 274,-765.5 274,-579 274,-545.89 732.48,-325.69 849.88,-269.85"/>
<polygon fill="midnightblue" stroke="midnightblue" points="851.42,-273 858.95,-265.54 848.42,-266.67 851.42,-273"/>
</g>
<!-- Node96 -->
<g id="node42" class="node">
<title>Node96</title>
<g id="a_node42"><a xlink:href="../../d3/dec/kratos__application_8h.html" target="_top" xlink:title=" ">
<polygon fill="none" stroke="red" points="998.5,-894.5 998.5,-913.5 1157.5,-913.5 1157.5,-894.5 998.5,-894.5"/>
<text text-anchor="middle" x="1078" y="-901.5" font-family="Helvetica,sans-Serif" font-size="10.00">includes/kratos_application.h</text>
</a>
</g>
</g>
<!-- Node95&#45;&gt;Node96 -->
<g id="edge134" class="edge">
<title>Node95&#45;&gt;Node96</title>
<path fill="none" stroke="midnightblue" d="M909.69,-950.44C944.07,-941.16 999.08,-926.31 1036.79,-916.13"/>
<polygon fill="midnightblue" stroke="midnightblue" points="1037.72,-919.5 1046.46,-913.52 1035.89,-912.74 1037.72,-919.5"/>
</g>
<!-- Node96&#45;&gt;Node2 -->
<g id="edge135" class="edge">
<title>Node96&#45;&gt;Node2</title>
<path fill="none" stroke="midnightblue" d="M998.43,-896.06C935.28,-889.45 845.09,-877.55 768,-858 389.99,-762.12 76,-708.48 76,-318.5 76,-318.5 76,-318.5 76,-143 76,-33.62 253.56,-18.1 328.38,-16.41"/>
<polygon fill="midnightblue" stroke="midnightblue" points="328.69,-19.91 338.64,-16.26 328.58,-12.91 328.69,-19.91"/>
</g>
<!-- Node96&#45;&gt;Node3 -->
<g id="edge136" class="edge">
<title>Node96&#45;&gt;Node3</title>
<path fill="none" stroke="midnightblue" d="M1157.68,-898.44C1285.46,-890.97 1544.09,-875.23 1763,-858 2210.71,-822.76 2418.66,-1001.29 2763,-713 2789.83,-690.54 2940,-487.49 2940,-452.5 2940,-452.5 2940,-452.5 2940,-316.5 2940,-184.29 2896.39,-125.86 2778,-67 2695.68,-26.07 2413.93,-18.31 2308.37,-16.84"/>
<polygon fill="midnightblue" stroke="midnightblue" points="2308.17,-13.34 2298.13,-16.71 2308.09,-20.34 2308.17,-13.34"/>
</g>
<!-- Node96&#45;&gt;Node17 -->
<g id="edge147" class="edge">
<title>Node96&#45;&gt;Node17</title>
<path fill="none" stroke="midnightblue" d="M998.33,-902.37C902.39,-896.92 754,-871.37 754,-765.5 754,-765.5 754,-765.5 754,-579 754,-540.7 754,-495.88 754,-471.2"/>
<polygon fill="midnightblue" stroke="midnightblue" points="757.5,-471.09 754,-461.09 750.5,-471.09 757.5,-471.09"/>
</g>
<!-- Node96&#45;&gt;Node79 -->
<g id="edge164" class="edge">
<title>Node96&#45;&gt;Node79</title>
<path fill="none" stroke="midnightblue" d="M1048.43,-894.39C999.25,-878.05 906,-837.56 906,-765.5 906,-765.5 906,-765.5 906,-517.5 906,-474.1 929.57,-427.41 944.01,-402.87"/>
<polygon fill="midnightblue" stroke="midnightblue" points="947.17,-404.41 949.38,-394.05 941.19,-400.77 947.17,-404.41"/>
</g>
<!-- Node96&#45;&gt;Node53 -->
<g id="edge163" class="edge">
<title>Node96&#45;&gt;Node53</title>
<path fill="none" stroke="midnightblue" d="M1005.28,-894.49C976.38,-888.17 944.29,-877.17 920,-858 882.98,-828.78 868,-812.66 868,-765.5 868,-765.5 868,-765.5 868,-450.5 868,-366.3 834.62,-349.65 825,-266 823.98,-257.17 822.12,-254.41 825,-246 828.72,-235.16 836.23,-224.92 843.35,-216.96"/>
<polygon fill="midnightblue" stroke="midnightblue" points="846.05,-219.19 850.44,-209.55 841,-214.35 846.05,-219.19"/>
</g>
<!-- Node96&#45;&gt;Node91 -->
<g id="edge171" class="edge">
<title>Node96&#45;&gt;Node91</title>
<path fill="none" stroke="midnightblue" d="M1072.85,-894.35C1059.6,-870.99 1026.2,-804.64 1039,-749 1058.84,-662.8 1075.23,-642.43 1126,-570 1135.07,-557.06 1147.49,-544.29 1157.56,-534.84"/>
<polygon fill="midnightblue" stroke="midnightblue" points="1160,-537.35 1165.02,-528.02 1155.28,-532.18 1160,-537.35"/>
</g>
<!-- Node97 -->
<g id="node43" class="node">
<title>Node97</title>
<g id="a_node43"><a xlink:href="../../d4/dfe/element_8h.html" target="_top" xlink:title=" ">
<polygon fill="none" stroke="red" points="1725,-755 1725,-774 1835,-774 1835,-755 1725,-755"/>
<text text-anchor="middle" x="1780" y="-762" font-family="Helvetica,sans-Serif" font-size="10.00">includes/element.h</text>
</a>
</g>
</g>
<!-- Node96&#45;&gt;Node97 -->
<g id="edge137" class="edge">
<title>Node96&#45;&gt;Node97</title>
<path fill="none" stroke="midnightblue" d="M1157.77,-901.93C1322.14,-899.09 1687.13,-889.31 1734,-858 1759.27,-841.12 1771.24,-806.05 1776.45,-784.28"/>
<polygon fill="midnightblue" stroke="midnightblue" points="1779.92,-784.78 1778.59,-774.27 1773.08,-783.31 1779.92,-784.78"/>
</g>
<!-- Node111 -->
<g id="node44" class="node">
<title>Node111</title>
<g id="a_node44"><a xlink:href="../../d5/d6d/geometrical__object_8h.html" target="_top" xlink:title=" ">
<polygon fill="none" stroke="red" points="1325.5,-682.5 1325.5,-712.5 1444.5,-712.5 1444.5,-682.5 1325.5,-682.5"/>
<text text-anchor="start" x="1333.5" y="-700.5" font-family="Helvetica,sans-Serif" font-size="10.00">includes/geometrical</text>
<text text-anchor="middle" x="1385" y="-689.5" font-family="Helvetica,sans-Serif" font-size="10.00">_object.h</text>
</a>
</g>
</g>
<!-- Node96&#45;&gt;Node111 -->
<g id="edge148" class="edge">
<title>Node96&#45;&gt;Node111</title>
<path fill="none" stroke="midnightblue" d="M1077.27,-894.34C1076.32,-877.11 1076.73,-838.32 1097,-816 1132.16,-777.3 1160.3,-799.02 1209,-780 1258.03,-760.85 1312.8,-734.7 1348.02,-717.24"/>
<polygon fill="midnightblue" stroke="midnightblue" points="1350.03,-720.15 1357.41,-712.56 1346.9,-713.89 1350.03,-720.15"/>
</g>
<!-- Node125 -->
<g id="node45" class="node">
<title>Node125</title>
<g id="a_node45"><a xlink:href="../../d7/d6c/condition_8h.html" target="_top" xlink:title=" ">
<polygon fill="none" stroke="red" points="1555,-755 1555,-774 1669,-774 1669,-755 1555,-755"/>
<text text-anchor="middle" x="1612" y="-762" font-family="Helvetica,sans-Serif" font-size="10.00">includes/condition.h</text>
</a>
</g>
</g>
<!-- Node96&#45;&gt;Node125 -->
<g id="edge144" class="edge">
<title>Node96&#45;&gt;Node125</title>
<path fill="none" stroke="midnightblue" d="M1157.59,-903.52C1236.64,-901.78 1360.25,-892.88 1461,-858 1513.17,-839.94 1566.44,-801.71 1593.61,-780.48"/>
<polygon fill="midnightblue" stroke="midnightblue" points="1595.82,-783.2 1601.47,-774.24 1591.47,-777.71 1595.82,-783.2"/>
</g>
<!-- Node126 -->
<g id="node46" class="node">
<title>Node126</title>
<g id="a_node46"><a xlink:href="../../de/d71/periodic__condition_8h.html" target="_top" xlink:title=" ">
<polygon fill="none" stroke="red" points="1294,-827.5 1294,-846.5 1452,-846.5 1452,-827.5 1294,-827.5"/>
<text text-anchor="middle" x="1373" y="-834.5" font-family="Helvetica,sans-Serif" font-size="10.00">includes/periodic_condition.h</text>
</a>
</g>
</g>
<!-- Node96&#45;&gt;Node126 -->
<g id="edge149" class="edge">
<title>Node96&#45;&gt;Node126</title>
<path fill="none" stroke="midnightblue" d="M1116.87,-894.44C1170.15,-882.7 1265.87,-861.61 1324,-848.8"/>
<polygon fill="midnightblue" stroke="midnightblue" points="1325.03,-852.15 1334.04,-846.58 1323.53,-845.32 1325.03,-852.15"/>
</g>
<!-- Node127 -->
<g id="node47" class="node">
<title>Node127</title>
<g id="a_node47"><a xlink:href="../../da/da4/master__slave__constraint_8h.html" target="_top" xlink:title=" ">
<polygon fill="none" stroke="red" points="1143,-682.5 1143,-712.5 1269,-712.5 1269,-682.5 1143,-682.5"/>
<text text-anchor="start" x="1151" y="-700.5" font-family="Helvetica,sans-Serif" font-size="10.00">includes/master_slave</text>
<text text-anchor="middle" x="1206" y="-689.5" font-family="Helvetica,sans-Serif" font-size="10.00">_constraint.h</text>
</a>
</g>
</g>
<!-- Node96&#45;&gt;Node127 -->
<g id="edge158" class="edge">
<title>Node96&#45;&gt;Node127</title>
<path fill="none" stroke="midnightblue" d="M1139.98,-894.5C1182.59,-887.24 1233.77,-875.21 1247,-858 1278.37,-817.18 1245.33,-754.87 1222.96,-721.5"/>
<polygon fill="midnightblue" stroke="midnightblue" points="1225.57,-719.12 1217,-712.89 1219.82,-723.11 1225.57,-719.12"/>
</g>
<!-- Node128 -->
<g id="node48" class="node">
<title>Node128</title>
<g id="a_node48"><a xlink:href="../../d0/dfe/linear__master__slave__constraint_8h.html" target="_top" xlink:title=" ">
<polygon fill="none" stroke="black" points="1048.5,-749.5 1048.5,-779.5 1199.5,-779.5 1199.5,-749.5 1048.5,-749.5"/>
<text text-anchor="start" x="1056.5" y="-767.5" font-family="Helvetica,sans-Serif" font-size="10.00">constraints/linear</text>
<text text-anchor="middle" x="1124" y="-756.5" font-family="Helvetica,sans-Serif" font-size="10.00">_master_slave_constraint.h</text>
</a>
</g>
</g>
<!-- Node96&#45;&gt;Node128 -->
<g id="edge165" class="edge">
<title>Node96&#45;&gt;Node128</title>
<path fill="none" stroke="midnightblue" d="M1073.49,-894.4C1065.68,-878.25 1051.61,-842.63 1064,-816 1069.67,-803.82 1079.87,-793.54 1090.28,-785.49"/>
<polygon fill="midnightblue" stroke="midnightblue" points="1092.51,-788.19 1098.59,-779.52 1088.42,-782.51 1092.51,-788.19"/>
</g>
<!-- Node129 -->
<g id="node49" class="node">
<title>Node129</title>
<g id="a_node49"><a xlink:href="../../d4/d3d/register__kratos__components__for__geometry_8h.html" target="_top" xlink:title=" ">
<polygon fill="none" stroke="red" points="1587.5,-816.5 1587.5,-857.5 1724.5,-857.5 1724.5,-816.5 1587.5,-816.5"/>
<text text-anchor="start" x="1595.5" y="-845.5" font-family="Helvetica,sans-Serif" font-size="10.00">geometries/register</text>
<text text-anchor="start" x="1595.5" y="-834.5" font-family="Helvetica,sans-Serif" font-size="10.00">_kratos_components_for</text>
<text text-anchor="middle" x="1656" y="-823.5" font-family="Helvetica,sans-Serif" font-size="10.00">_geometry.h</text>
</a>
</g>
</g>
<!-- Node96&#45;&gt;Node129 -->
<g id="edge168" class="edge">
<title>Node96&#45;&gt;Node129</title>
<path fill="none" stroke="midnightblue" d="M1157.56,-896.93C1249.43,-889.52 1404.97,-875.76 1538,-858 1550.8,-856.29 1564.34,-854.23 1577.51,-852.1"/>
<polygon fill="midnightblue" stroke="midnightblue" points="1578.19,-855.53 1587.49,-850.45 1577.05,-848.62 1578.19,-855.53"/>
</g>
<!-- Node130 -->
<g id="node50" class="node">
<title>Node130</title>
<g id="a_node50"><a xlink:href="../../de/dda/line__2d__2_8h.html" target="_top" xlink:title=" ">
<polygon fill="none" stroke="red" points="1106.5,-827.5 1106.5,-846.5 1237.5,-846.5 1237.5,-827.5 1106.5,-827.5"/>
<text text-anchor="middle" x="1172" y="-834.5" font-family="Helvetica,sans-Serif" font-size="10.00">geometries/line_2d_2.h</text>
</a>
</g>
</g>
<!-- Node96&#45;&gt;Node130 -->
<g id="edge170" class="edge">
<title>Node96&#45;&gt;Node130</title>
<path fill="none" stroke="midnightblue" d="M1090.68,-894.23C1106.18,-883.51 1132.64,-865.22 1151.16,-852.41"/>
<polygon fill="midnightblue" stroke="midnightblue" points="1153.29,-855.19 1159.52,-846.63 1149.31,-849.44 1153.29,-855.19"/>
</g>
<!-- Node97&#45;&gt;Node80 -->
<g id="edge143" class="edge">
<title>Node97&#45;&gt;Node80</title>
<path fill="none" stroke="midnightblue" d="M1835.19,-762.7C2009.87,-759.83 2543.22,-748.25 2612,-713 2650.79,-693.12 2674,-680.59 2674,-637 2674,-637 2674,-637 2674,-579 2674,-537.34 2643.33,-497.56 2620.96,-474.09"/>
<polygon fill="midnightblue" stroke="midnightblue" points="2623.26,-471.43 2613.75,-466.77 2618.28,-476.35 2623.26,-471.43"/>
</g>
<!-- Node97&#45;&gt;Node111 -->
<g id="edge138" class="edge">
<title>Node97&#45;&gt;Node111</title>
<path fill="none" stroke="midnightblue" d="M1727.95,-754.94C1657.88,-743.4 1533,-722.85 1454.82,-709.99"/>
<polygon fill="midnightblue" stroke="midnightblue" points="1455.02,-706.48 1444.58,-708.31 1453.88,-713.38 1455.02,-706.48"/>
</g>
<!-- Node111&#45;&gt;Node5 -->
<g id="edge140" class="edge">
<title>Node111&#45;&gt;Node5</title>
<path fill="none" stroke="midnightblue" d="M1359.53,-682.48C1322.4,-660.12 1260.47,-614.35 1286,-570 1301.9,-542.39 1324.86,-555.9 1348,-534 1399.75,-485.02 1411.53,-466.92 1436,-400 1459.08,-336.89 1461,-255.76 1460.54,-219.71"/>
<polygon fill="midnightblue" stroke="midnightblue" points="1464.04,-219.59 1460.34,-209.66 1457.04,-219.73 1464.04,-219.59"/>
</g>
<!-- Node111&#45;&gt;Node44 -->
<g id="edge142" class="edge">
<title>Node111&#45;&gt;Node44</title>
<path fill="none" stroke="midnightblue" d="M1325.33,-686.88C1139.78,-656.7 583.73,-564.07 559,-534 534.43,-504.12 476.84,-485.1 569,-369 602.3,-327.05 651.16,-375.31 684,-333 696.51,-316.89 695.38,-292.57 692.52,-275.8"/>
<polygon fill="midnightblue" stroke="midnightblue" points="695.86,-274.68 690.41,-265.6 689.01,-276.1 695.86,-274.68"/>
</g>
<!-- Node111&#45;&gt;Node90 -->
<g id="edge141" class="edge">
<title>Node111&#45;&gt;Node90</title>
<path fill="none" stroke="midnightblue" d="M1444.81,-685.24C1502.59,-674.36 1589.38,-658.02 1645.62,-647.43"/>
<polygon fill="midnightblue" stroke="midnightblue" points="1646.57,-650.81 1655.75,-645.52 1645.27,-643.93 1646.57,-650.81"/>
</g>
<!-- Node111&#45;&gt;Node89 -->
<g id="edge139" class="edge">
<title>Node111&#45;&gt;Node89</title>
<path fill="none" stroke="midnightblue" d="M1377.03,-682.34C1365.16,-661.24 1342.85,-621.6 1329.93,-598.65"/>
<polygon fill="midnightblue" stroke="midnightblue" points="1332.83,-596.67 1324.88,-589.67 1326.73,-600.1 1332.83,-596.67"/>
</g>
<!-- Node125&#45;&gt;Node80 -->
<g id="edge146" class="edge">
<title>Node125&#45;&gt;Node80</title>
<path fill="none" stroke="midnightblue" d="M1668.32,-754.97C1683.75,-752.82 1700.5,-750.65 1716,-749 1814.23,-738.53 2598,-735.79 2598,-637 2598,-637 2598,-637 2598,-579 2598,-543.42 2598,-502.2 2598,-476.74"/>
<polygon fill="midnightblue" stroke="midnightblue" points="2601.5,-476.54 2598,-466.54 2594.5,-476.54 2601.5,-476.54"/>
</g>
<!-- Node125&#45;&gt;Node111 -->
<g id="edge145" class="edge">
<title>Node125&#45;&gt;Node111</title>
<path fill="none" stroke="midnightblue" d="M1581.86,-754.87C1546.76,-744.82 1487.97,-727.99 1443.76,-715.32"/>
<polygon fill="midnightblue" stroke="midnightblue" points="1444.57,-711.92 1433.99,-712.53 1442.64,-718.65 1444.57,-711.92"/>
</g>
<!-- Node126&#45;&gt;Node2 -->
<g id="edge150" class="edge">
<title>Node126&#45;&gt;Node2</title>
<path fill="none" stroke="midnightblue" d="M1323.42,-827.48C1300.25,-823.66 1272.26,-819.29 1247,-816 1091.06,-795.67 1049.88,-807.28 895,-780 483.58,-707.54 114,-674.75 114,-257 114,-257 114,-257 114,-143 114,-47.65 261.63,-24.12 328.62,-18.36"/>
<polygon fill="midnightblue" stroke="midnightblue" points="328.95,-21.84 338.64,-17.57 328.4,-14.86 328.95,-21.84"/>
</g>
<!-- Node126&#45;&gt;Node3 -->
<g id="edge151" class="edge">
<title>Node126&#45;&gt;Node3</title>
<path fill="none" stroke="midnightblue" d="M1319.36,-827.49C1222.17,-812.06 1026.57,-780.96 1023,-780 729.15,-700.86 620.9,-725.02 384,-534 299.21,-465.63 238.27,-388.09 305,-302 426.66,-145.06 527.28,-185.7 719,-134 828.66,-104.43 869.26,-146.41 972,-98 990.5,-89.28 987.08,-74.77 1006,-67 1121.14,-19.72 2024.85,-16.58 2227.68,-16.48"/>
<polygon fill="midnightblue" stroke="midnightblue" points="2227.89,-19.98 2237.89,-16.47 2227.89,-12.98 2227.89,-19.98"/>
</g>
<!-- Node126&#45;&gt;Node5 -->
<g id="edge154" class="edge">
<title>Node126&#45;&gt;Node5</title>
<path fill="none" stroke="midnightblue" d="M1365.6,-827.05C1339.03,-793.85 1251.38,-674.29 1276,-570 1280.11,-552.59 1286.01,-550 1294,-534 1354.07,-413.68 1426.22,-268.82 1451.08,-218.91"/>
<polygon fill="midnightblue" stroke="midnightblue" points="1454.32,-220.26 1455.64,-209.75 1448.05,-217.14 1454.32,-220.26"/>
</g>
<!-- Node126&#45;&gt;Node7 -->
<g id="edge152" class="edge">
<title>Node126&#45;&gt;Node7</title>
<path fill="none" stroke="midnightblue" d="M1452.23,-828.29C1490.53,-824.57 1537.15,-820.05 1579,-816 1709.16,-803.42 2750,-829.26 2750,-698.5 2750,-698.5 2750,-698.5 2750,-316.5 2750,-197.63 2607.79,-272.87 2492,-246 2280.41,-196.89 2215.81,-229.13 2012,-154 2009.35,-153.02 1947.34,-117.54 1912.04,-97.3"/>
<polygon fill="midnightblue" stroke="midnightblue" points="1913.69,-94.21 1903.27,-92.27 1910.21,-100.28 1913.69,-94.21"/>
</g>
<!-- Node126&#45;&gt;Node48 -->
<g id="edge157" class="edge">
<title>Node126&#45;&gt;Node48</title>
<path fill="none" stroke="midnightblue" d="M1319.41,-827.46C1225.59,-812.45 1041.26,-782.68 1039,-780 979.59,-709.8 1111.87,-412.92 1147.48,-336.5"/>
<polygon fill="midnightblue" stroke="midnightblue" points="1150.75,-337.77 1151.83,-327.23 1144.41,-334.79 1150.75,-337.77"/>
</g>
<!-- Node126&#45;&gt;Node90 -->
<g id="edge155" class="edge">
<title>Node126&#45;&gt;Node90</title>
<path fill="none" stroke="midnightblue" d="M1386.86,-827.27C1411.93,-811.5 1466.55,-777.26 1513,-749 1571.99,-713.1 1641.98,-671.72 1677.62,-650.74"/>
<polygon fill="midnightblue" stroke="midnightblue" points="1679.47,-653.71 1686.32,-645.62 1675.92,-647.68 1679.47,-653.71"/>
</g>
<!-- Node126&#45;&gt;Node77 -->
<g id="edge153" class="edge">
<title>Node126&#45;&gt;Node77</title>
<path fill="none" stroke="midnightblue" d="M1396.52,-827.46C1422.91,-817.5 1466.66,-799.84 1502,-780 1522.86,-768.29 1523.41,-756.88 1546,-749 1611.57,-726.12 2122.33,-763.5 2170,-713 2222.17,-657.73 2314.55,-706.43 2094,-503 1987.28,-404.57 1906.69,-477.62 1784,-400 1769.53,-390.84 1738.42,-356.16 1720.17,-335.1"/>
<polygon fill="midnightblue" stroke="midnightblue" points="1722.61,-332.57 1713.43,-327.27 1717.3,-337.13 1722.61,-332.57"/>
</g>
<!-- Node126&#45;&gt;Node125 -->
<g id="edge156" class="edge">
<title>Node126&#45;&gt;Node125</title>
<path fill="none" stroke="midnightblue" d="M1401.83,-827.5C1444.72,-814.85 1525.4,-791.05 1573.36,-776.9"/>
<polygon fill="midnightblue" stroke="midnightblue" points="1574.47,-780.22 1583.07,-774.03 1572.49,-773.51 1574.47,-780.22"/>
</g>
<!-- Node127&#45;&gt;Node5 -->
<g id="edge159" class="edge">
<title>Node127&#45;&gt;Node5</title>
<path fill="none" stroke="midnightblue" d="M1203.14,-682.38C1198.91,-657.64 1193.63,-605.71 1215,-570 1230.39,-544.29 1252.15,-556.44 1272,-534 1283.72,-520.75 1397.3,-260.09 1408,-246 1416.68,-234.56 1428.69,-223.93 1438.98,-215.88"/>
<polygon fill="midnightblue" stroke="midnightblue" points="1441.22,-218.57 1447.11,-209.76 1437.01,-212.98 1441.22,-218.57"/>
</g>
<!-- Node127&#45;&gt;Node44 -->
<g id="edge161" class="edge">
<title>Node127&#45;&gt;Node44</title>
<path fill="none" stroke="midnightblue" d="M1142.94,-684.55C972.92,-652.09 513.57,-562.84 450,-534 404.59,-513.4 382.38,-511.56 360,-467 321.15,-389.64 472.15,-369.7 474,-369 552.34,-339.35 594.89,-386.91 659,-333 676.02,-318.68 683.08,-293.22 685.98,-275.74"/>
<polygon fill="midnightblue" stroke="midnightblue" points="689.48,-275.98 687.36,-265.6 682.55,-275.04 689.48,-275.98"/>
</g>
<!-- Node127&#45;&gt;Node61 -->
<g id="edge162" class="edge">
<title>Node127&#45;&gt;Node61</title>
<path fill="none" stroke="midnightblue" d="M1269.04,-687.73C1284.69,-685.7 1301.44,-683.65 1317,-682 1491.79,-663.44 2001.33,-683.36 2094,-534 2164.77,-419.95 1956.56,-307.45 1877.83,-270.02"/>
<polygon fill="midnightblue" stroke="midnightblue" points="1879.01,-266.71 1868.47,-265.64 1876.04,-273.05 1879.01,-266.71"/>
</g>
<!-- Node127&#45;&gt;Node90 -->
<g id="edge160" class="edge">
<title>Node127&#45;&gt;Node90</title>
<path fill="none" stroke="midnightblue" d="M1269.08,-688.11C1284.74,-686.07 1301.47,-683.92 1317,-682 1433.11,-667.61 1569.12,-651.96 1644.11,-643.43"/>
<polygon fill="midnightblue" stroke="midnightblue" points="1644.74,-646.88 1654.28,-642.27 1643.95,-639.92 1644.74,-646.88"/>
</g>
<!-- Node128&#45;&gt;Node5 -->
<g id="edge166" class="edge">
<title>Node128&#45;&gt;Node5</title>
<path fill="none" stroke="midnightblue" d="M1123.95,-749.25C1124.3,-732.65 1126.15,-704.63 1134,-682 1153.08,-626.98 1165.73,-615.56 1202,-570 1216.29,-552.05 1226.53,-553.26 1239,-534 1313.02,-419.62 1248.65,-343.32 1344,-246 1359.99,-229.68 1382.56,-219.17 1403.55,-212.45"/>
<polygon fill="midnightblue" stroke="midnightblue" points="1404.78,-215.73 1413.37,-209.53 1402.79,-209.02 1404.78,-215.73"/>
</g>
<!-- Node128&#45;&gt;Node127 -->
<g id="edge167" class="edge">
<title>Node128&#45;&gt;Node127</title>
<path fill="none" stroke="midnightblue" d="M1141.79,-749.4C1153.08,-740.45 1167.85,-728.74 1180.39,-718.8"/>
<polygon fill="midnightblue" stroke="midnightblue" points="1182.58,-721.53 1188.24,-712.58 1178.23,-716.05 1182.58,-721.53"/>
</g>
<!-- Node129&#45;&gt;Node90 -->
<g id="edge169" class="edge">
<title>Node129&#45;&gt;Node90</title>
<path fill="none" stroke="midnightblue" d="M1664.9,-816.4C1669.4,-805.8 1674.61,-792.39 1678,-780 1689.95,-736.28 1696.48,-683.23 1699.29,-655.67"/>
<polygon fill="midnightblue" stroke="midnightblue" points="1702.79,-655.81 1700.27,-645.52 1695.83,-655.13 1702.79,-655.81"/>
</g>
</g>
</svg>
