<?xml version="1.0" encoding="UTF-8" standalone="no"?>
<!DOCTYPE svg PUBLIC "-//W3C//DTD SVG 1.1//EN"
 "http://www.w3.org/Graphics/SVG/1.1/DTD/svg11.dtd">
<!-- Generated by graphviz version 2.43.0 (0)
 -->
<!-- Title: /home/runner/work/Documentation/Documentation/master/applications/RANSApplication/custom_elements/data_containers/k_epsilon/k_element_data.h Pages: 1 -->
<svg width="1165pt" height="239pt"
 viewBox="0.00 0.00 1165.00 239.00" xmlns="http://www.w3.org/2000/svg" xmlns:xlink="http://www.w3.org/1999/xlink">
<g id="graph0" class="graph" transform="scale(1 1) rotate(0) translate(4 235)">
<title>/home/runner/work/Documentation/Documentation/master/applications/RANSApplication/custom_elements/data_containers/k_epsilon/k_element_data.h</title>
<!-- Node1 -->
<g id="node1" class="node">
<title>Node1</title>
<g id="a_node1"><a xlink:title=" ">
<polygon fill="#bfbfbf" stroke="black" points="448,-178.5 448,-230.5 686,-230.5 686,-178.5 448,-178.5"/>
<text text-anchor="start" x="456" y="-218.5" font-family="Helvetica,sans-Serif" font-size="10.00">/home/runner/work/Documentation</text>
<text text-anchor="start" x="456" y="-207.5" font-family="Helvetica,sans-Serif" font-size="10.00">/Documentation/master/applications</text>
<text text-anchor="start" x="456" y="-196.5" font-family="Helvetica,sans-Serif" font-size="10.00">/RANSApplication/custom_elements</text>
<text text-anchor="middle" x="567" y="-185.5" font-family="Helvetica,sans-Serif" font-size="10.00">/data_containers/k_epsilon/k_element_data.h</text>
</a>
</g>
</g>
<!-- Node2 -->
<g id="node2" class="node">
<title>Node2</title>
<g id="a_node2"><a xlink:href="../../da/db6/convection__diffusion__reaction__cross__wind__stabilized__element_8cpp.html" target="_top" xlink:title=" ">
<polygon fill="none" stroke="black" points="0,-78.5 0,-141.5 196,-141.5 196,-78.5 0,-78.5"/>
<text text-anchor="start" x="8" y="-129.5" font-family="Helvetica,sans-Serif" font-size="10.00">/home/runner/work/Documentation</text>
<text text-anchor="start" x="8" y="-118.5" font-family="Helvetica,sans-Serif" font-size="10.00">/Documentation/master/applications</text>
<text text-anchor="start" x="8" y="-107.5" font-family="Helvetica,sans-Serif" font-size="10.00">/RANSApplication/custom_elements</text>
<text text-anchor="start" x="8" y="-96.5" font-family="Helvetica,sans-Serif" font-size="10.00">/convection_diffusion_reaction_cross</text>
<text text-anchor="middle" x="98" y="-85.5" font-family="Helvetica,sans-Serif" font-size="10.00">_wind_stabilized_element.cpp</text>
</a>
</g>
</g>
<!-- Node1&#45;&gt;Node2 -->
<g id="edge1" class="edge">
<title>Node1&#45;&gt;Node2</title>
<path fill="none" stroke="midnightblue" d="M437.61,-185.17C368.25,-174.43 281.55,-159.53 205,-142 202.08,-141.33 199.12,-140.63 196.13,-139.9"/>
<polygon fill="midnightblue" stroke="midnightblue" points="437.3,-188.67 447.72,-186.73 438.36,-181.75 437.3,-188.67"/>
</g>
<!-- Node3 -->
<g id="node3" class="node">
<title>Node3</title>
<g id="a_node3"><a xlink:href="../../db/d5f/convection__diffusion__reaction__element_8cpp.html" target="_top" xlink:title=" ">
<polygon fill="none" stroke="black" points="213.5,-84 213.5,-136 444.5,-136 444.5,-84 213.5,-84"/>
<text text-anchor="start" x="221.5" y="-124" font-family="Helvetica,sans-Serif" font-size="10.00">/home/runner/work/Documentation</text>
<text text-anchor="start" x="221.5" y="-113" font-family="Helvetica,sans-Serif" font-size="10.00">/Documentation/master/applications</text>
<text text-anchor="start" x="221.5" y="-102" font-family="Helvetica,sans-Serif" font-size="10.00">/RANSApplication/custom_elements</text>
<text text-anchor="middle" x="329" y="-91" font-family="Helvetica,sans-Serif" font-size="10.00">/convection_diffusion_reaction_element.cpp</text>
</a>
</g>
</g>
<!-- Node1&#45;&gt;Node3 -->
<g id="edge2" class="edge">
<title>Node1&#45;&gt;Node3</title>
<path fill="none" stroke="midnightblue" d="M492.88,-174.69C461.03,-162.32 424.16,-147.98 393.46,-136.05"/>
<polygon fill="midnightblue" stroke="midnightblue" points="492.01,-178.11 502.59,-178.47 494.54,-171.58 492.01,-178.11"/>
</g>
<!-- Node4 -->
<g id="node4" class="node">
<title>Node4</title>
<g id="a_node4"><a xlink:href="../../d5/dd8/convection__diffusion__reaction__residual__based__flux__corrected__element_8cpp.html" target="_top" xlink:title=" ">
<polygon fill="none" stroke="black" points="462.5,-78.5 462.5,-141.5 671.5,-141.5 671.5,-78.5 462.5,-78.5"/>
<text text-anchor="start" x="470.5" y="-129.5" font-family="Helvetica,sans-Serif" font-size="10.00">/home/runner/work/Documentation</text>
<text text-anchor="start" x="470.5" y="-118.5" font-family="Helvetica,sans-Serif" font-size="10.00">/Documentation/master/applications</text>
<text text-anchor="start" x="470.5" y="-107.5" font-family="Helvetica,sans-Serif" font-size="10.00">/RANSApplication/custom_elements</text>
<text text-anchor="start" x="470.5" y="-96.5" font-family="Helvetica,sans-Serif" font-size="10.00">/convection_diffusion_reaction_residual</text>
<text text-anchor="middle" x="567" y="-85.5" font-family="Helvetica,sans-Serif" font-size="10.00">_based_flux_corrected_element.cpp</text>
</a>
</g>
</g>
<!-- Node1&#45;&gt;Node4 -->
<g id="edge3" class="edge">
<title>Node1&#45;&gt;Node4</title>
<path fill="none" stroke="midnightblue" d="M567,-167.94C567,-159.23 567,-149.97 567,-141.51"/>
<polygon fill="midnightblue" stroke="midnightblue" points="563.5,-168.22 567,-178.22 570.5,-168.22 563.5,-168.22"/>
</g>
<!-- Node5 -->
<g id="node5" class="node">
<title>Node5</title>
<g id="a_node5"><a xlink:href="../../da/d3e/k__epsilon_2k__element__data_8cpp.html" target="_top" xlink:title=" ">
<polygon fill="none" stroke="black" points="689.5,-84 689.5,-136 938.5,-136 938.5,-84 689.5,-84"/>
<text text-anchor="start" x="697.5" y="-124" font-family="Helvetica,sans-Serif" font-size="10.00">/home/runner/work/Documentation</text>
<text text-anchor="start" x="697.5" y="-113" font-family="Helvetica,sans-Serif" font-size="10.00">/Documentation/master/applications</text>
<text text-anchor="start" x="697.5" y="-102" font-family="Helvetica,sans-Serif" font-size="10.00">/RANSApplication/custom_elements</text>
<text text-anchor="middle" x="814" y="-91" font-family="Helvetica,sans-Serif" font-size="10.00">/data_containers/k_epsilon/k_element_data.cpp</text>
</a>
</g>
</g>
<!-- Node1&#45;&gt;Node5 -->
<g id="edge4" class="edge">
<title>Node1&#45;&gt;Node5</title>
<path fill="none" stroke="midnightblue" d="M643.49,-174.85C676.64,-162.44 715.11,-148.03 747.1,-136.05"/>
<polygon fill="midnightblue" stroke="midnightblue" points="641.98,-171.68 633.84,-178.47 644.43,-178.24 641.98,-171.68"/>
</g>
<!-- Node6 -->
<g id="node6" class="node">
<title>Node6</title>
<g id="a_node6"><a xlink:href="../../d8/d1c/rans__application_8h.html" target="_top" xlink:title=" ">
<polygon fill="none" stroke="black" points="957,-89.5 957,-130.5 1151,-130.5 1151,-89.5 957,-89.5"/>
<text text-anchor="start" x="965" y="-118.5" font-family="Helvetica,sans-Serif" font-size="10.00">/home/runner/work/Documentation</text>
<text text-anchor="start" x="965" y="-107.5" font-family="Helvetica,sans-Serif" font-size="10.00">/Documentation/master/applications</text>
<text text-anchor="middle" x="1054" y="-96.5" font-family="Helvetica,sans-Serif" font-size="10.00">/RANSApplication/rans_application.h</text>
</a>
</g>
</g>
<!-- Node1&#45;&gt;Node6 -->
<g id="edge5" class="edge">
<title>Node1&#45;&gt;Node6</title>
<path fill="none" stroke="midnightblue" d="M696.46,-186.69C770.55,-176.05 864.98,-160.76 948,-142 962.31,-138.77 977.53,-134.7 991.84,-130.58"/>
<polygon fill="midnightblue" stroke="midnightblue" points="695.55,-183.28 686.15,-188.16 696.54,-190.21 695.55,-183.28"/>
</g>
<!-- Node7 -->
<g id="node7" class="node">
<title>Node7</title>
<g id="a_node7"><a xlink:href="../../d3/d7b/rans__application_8cpp.html" target="_top" xlink:title=" ">
<polygon fill="none" stroke="black" points="951,-0.5 951,-41.5 1157,-41.5 1157,-0.5 951,-0.5"/>
<text text-anchor="start" x="959" y="-29.5" font-family="Helvetica,sans-Serif" font-size="10.00">/home/runner/work/Documentation</text>
<text text-anchor="start" x="959" y="-18.5" font-family="Helvetica,sans-Serif" font-size="10.00">/Documentation/master/applications</text>
<text text-anchor="middle" x="1054" y="-7.5" font-family="Helvetica,sans-Serif" font-size="10.00">/RANSApplication/rans_application.cpp</text>
</a>
</g>
</g>
<!-- Node6&#45;&gt;Node7 -->
<g id="edge6" class="edge">
<title>Node6&#45;&gt;Node7</title>
<path fill="none" stroke="midnightblue" d="M1054,-78.94C1054,-66.6 1054,-52.66 1054,-41.66"/>
<polygon fill="midnightblue" stroke="midnightblue" points="1050.5,-79.26 1054,-89.26 1057.5,-79.26 1050.5,-79.26"/>
</g>
</g>
</svg>
