<?xml version="1.0" encoding="UTF-8" standalone="no"?>
<!DOCTYPE svg PUBLIC "-//W3C//DTD SVG 1.1//EN"
 "http://www.w3.org/Graphics/SVG/1.1/DTD/svg11.dtd">
<!-- Generated by graphviz version 2.43.0 (0)
 -->
<!-- Title: assign_scalar_variable_to_entities_process.AssignScalarVariableToEntitiesProcess Pages: 1 -->
<svg width="190pt" height="270pt"
 viewBox="0.00 0.00 190.00 270.00" xmlns="http://www.w3.org/2000/svg" xmlns:xlink="http://www.w3.org/1999/xlink">
<g id="graph0" class="graph" transform="scale(1 1) rotate(0) translate(4 266)">
<title>assign_scalar_variable_to_entities_process.AssignScalarVariableToEntitiesProcess</title>
<!-- Node1 -->
<g id="node1" class="node">
<title>Node1</title>
<g id="a_node1"><a xlink:title="All the processes python should be derived from &quot;Process&quot;.">
<polygon fill="#bfbfbf" stroke="black" points="0,-0.5 0,-167.5 182,-167.5 182,-0.5 0,-0.5"/>
<text text-anchor="start" x="8" y="-155.5" font-family="Helvetica,sans-Serif" font-size="10.00">assign_scalar_variable</text>
<text text-anchor="start" x="8" y="-144.5" font-family="Helvetica,sans-Serif" font-size="10.00">_to_entities_process.AssignScalar</text>
<text text-anchor="middle" x="91" y="-133.5" font-family="Helvetica,sans-Serif" font-size="10.00">VariableToEntitiesProcess</text>
<polyline fill="none" stroke="black" points="0,-126.5 182,-126.5 "/>
<text text-anchor="start" x="8" y="-114.5" font-family="Helvetica,sans-Serif" font-size="10.00">+ interval</text>
<text text-anchor="start" x="8" y="-103.5" font-family="Helvetica,sans-Serif" font-size="10.00">+ model_part</text>
<text text-anchor="start" x="8" y="-92.5" font-family="Helvetica,sans-Serif" font-size="10.00">+ value_is_numeric</text>
<text text-anchor="start" x="8" y="-81.5" font-family="Helvetica,sans-Serif" font-size="10.00">+ entities</text>
<text text-anchor="start" x="8" y="-70.5" font-family="Helvetica,sans-Serif" font-size="10.00">+ aux_processes</text>
<text text-anchor="start" x="8" y="-59.5" font-family="Helvetica,sans-Serif" font-size="10.00">+ step_is_active</text>
<polyline fill="none" stroke="black" points="0,-52.5 182,-52.5 "/>
<text text-anchor="start" x="8" y="-40.5" font-family="Helvetica,sans-Serif" font-size="10.00">+ __init__()</text>
<text text-anchor="start" x="8" y="-29.5" font-family="Helvetica,sans-Serif" font-size="10.00">+ ExecuteInitializeSolution</text>
<text text-anchor="start" x="8" y="-18.5" font-family="Helvetica,sans-Serif" font-size="10.00">Step()</text>
<text text-anchor="start" x="8" y="-7.5" font-family="Helvetica,sans-Serif" font-size="10.00">+ ExecuteFinalizeSolutionStep()</text>
</a>
</g>
</g>
<!-- Node2 -->
<g id="node2" class="node">
<title>Node2</title>
<g id="a_node2"><a xlink:title=" ">
<polygon fill="none" stroke="#bfbfbf" points="16,-204.5 16,-261.5 166,-261.5 166,-204.5 16,-204.5"/>
<text text-anchor="middle" x="91" y="-249.5" font-family="Helvetica,sans-Serif" font-size="10.00">KratosMultiphysics.Process</text>
<polyline fill="none" stroke="#bfbfbf" points="16,-242.5 166,-242.5 "/>
<text text-anchor="middle" x="91" y="-230.5" font-family="Helvetica,sans-Serif" font-size="10.00"> </text>
<polyline fill="none" stroke="#bfbfbf" points="16,-223.5 166,-223.5 "/>
<text text-anchor="middle" x="91" y="-211.5" font-family="Helvetica,sans-Serif" font-size="10.00"> </text>
</a>
</g>
</g>
<!-- Node2&#45;&gt;Node1 -->
<g id="edge1" class="edge">
<title>Node2&#45;&gt;Node1</title>
<path fill="none" stroke="midnightblue" d="M91,-194.35C91,-186.08 91,-177.01 91,-167.74"/>
<polygon fill="none" stroke="midnightblue" points="87.5,-194.35 91,-204.35 94.5,-194.35 87.5,-194.35"/>
</g>
</g>
</svg>
