<?xml version="1.0" encoding="UTF-8" standalone="no"?>
<!DOCTYPE svg PUBLIC "-//W3C//DTD SVG 1.1//EN"
 "http://www.w3.org/Graphics/SVG/1.1/DTD/svg11.dtd">
<!-- Generated by graphviz version 2.43.0 (0)
 -->
<!-- Title: /home/runner/work/Documentation/Documentation/master/applications/DEMApplication/custom_constitutive/dem_kdem_2d_cl.h Pages: 1 -->
<svg width="684pt" height="239pt"
 viewBox="0.00 0.00 683.50 239.00" xmlns="http://www.w3.org/2000/svg" xmlns:xlink="http://www.w3.org/1999/xlink">
<g id="graph0" class="graph" transform="scale(1 1) rotate(0) translate(4 235)">
<title>/home/runner/work/Documentation/Documentation/master/applications/DEMApplication/custom_constitutive/dem_kdem_2d_cl.h</title>
<!-- Node1 -->
<g id="node1" class="node">
<title>Node1</title>
<g id="a_node1"><a xlink:title=" ">
<polygon fill="#bfbfbf" stroke="black" points="192,-178.5 192,-230.5 391,-230.5 391,-178.5 192,-178.5"/>
<text text-anchor="start" x="200" y="-218.5" font-family="Helvetica,sans-Serif" font-size="10.00">/home/runner/work/Documentation</text>
<text text-anchor="start" x="200" y="-207.5" font-family="Helvetica,sans-Serif" font-size="10.00">/Documentation/master/applications</text>
<text text-anchor="start" x="200" y="-196.5" font-family="Helvetica,sans-Serif" font-size="10.00">/DEMApplication/custom_constitutive</text>
<text text-anchor="middle" x="291.5" y="-185.5" font-family="Helvetica,sans-Serif" font-size="10.00">/dem_kdem_2d_cl.h</text>
</a>
</g>
</g>
<!-- Node2 -->
<g id="node2" class="node">
<title>Node2</title>
<g id="a_node2"><a xlink:href="../../d7/d4f/dem__kdem__2d__cl_8cpp.html" target="_top" xlink:title=" ">
<polygon fill="none" stroke="black" points="0,-89.5 0,-141.5 199,-141.5 199,-89.5 0,-89.5"/>
<text text-anchor="start" x="8" y="-129.5" font-family="Helvetica,sans-Serif" font-size="10.00">/home/runner/work/Documentation</text>
<text text-anchor="start" x="8" y="-118.5" font-family="Helvetica,sans-Serif" font-size="10.00">/Documentation/master/applications</text>
<text text-anchor="start" x="8" y="-107.5" font-family="Helvetica,sans-Serif" font-size="10.00">/DEMApplication/custom_constitutive</text>
<text text-anchor="middle" x="99.5" y="-96.5" font-family="Helvetica,sans-Serif" font-size="10.00">/dem_kdem_2d_cl.cpp</text>
</a>
</g>
</g>
<!-- Node1&#45;&gt;Node2 -->
<g id="edge1" class="edge">
<title>Node1&#45;&gt;Node2</title>
<path fill="none" stroke="midnightblue" d="M227.05,-174.29C203.59,-163.67 177.3,-151.76 154.72,-141.52"/>
<polygon fill="midnightblue" stroke="midnightblue" points="225.67,-177.51 236.22,-178.45 228.56,-171.14 225.67,-177.51"/>
</g>
<!-- Node3 -->
<g id="node3" class="node">
<title>Node3</title>
<g id="a_node3"><a xlink:href="../../d6/d4a/dem__kdem__fabric__2d__cl_8h.html" target="_top" xlink:title=" ">
<polygon fill="none" stroke="black" points="256,-89.5 256,-141.5 455,-141.5 455,-89.5 256,-89.5"/>
<text text-anchor="start" x="264" y="-129.5" font-family="Helvetica,sans-Serif" font-size="10.00">/home/runner/work/Documentation</text>
<text text-anchor="start" x="264" y="-118.5" font-family="Helvetica,sans-Serif" font-size="10.00">/Documentation/master/applications</text>
<text text-anchor="start" x="264" y="-107.5" font-family="Helvetica,sans-Serif" font-size="10.00">/DEMApplication/custom_constitutive</text>
<text text-anchor="middle" x="355.5" y="-96.5" font-family="Helvetica,sans-Serif" font-size="10.00">/dem_kdem_fabric_2d_cl.h</text>
</a>
</g>
</g>
<!-- Node1&#45;&gt;Node3 -->
<g id="edge2" class="edge">
<title>Node1&#45;&gt;Node3</title>
<path fill="none" stroke="midnightblue" d="M315.99,-170.22C322.97,-160.72 330.47,-150.53 337.03,-141.61"/>
<polygon fill="midnightblue" stroke="midnightblue" points="313.12,-168.21 310.01,-178.34 318.76,-172.35 313.12,-168.21"/>
</g>
<!-- Node5 -->
<g id="node5" class="node">
<title>Node5</title>
<g id="a_node5"><a xlink:href="../../d6/d7e/_d_e_m_application_2custom__python_2add__custom__constitutive__laws__to__python_8cpp.html" target="_top" xlink:title=" ">
<polygon fill="none" stroke="black" points="15,-0.5 15,-52.5 238,-52.5 238,-0.5 15,-0.5"/>
<text text-anchor="start" x="23" y="-40.5" font-family="Helvetica,sans-Serif" font-size="10.00">/home/runner/work/Documentation</text>
<text text-anchor="start" x="23" y="-29.5" font-family="Helvetica,sans-Serif" font-size="10.00">/Documentation/master/applications</text>
<text text-anchor="start" x="23" y="-18.5" font-family="Helvetica,sans-Serif" font-size="10.00">/DEMApplication/custom_python/add</text>
<text text-anchor="middle" x="126.5" y="-7.5" font-family="Helvetica,sans-Serif" font-size="10.00">_custom_constitutive_laws_to_python.cpp</text>
</a>
</g>
</g>
<!-- Node1&#45;&gt;Node5 -->
<g id="edge6" class="edge">
<title>Node1&#45;&gt;Node5</title>
<path fill="none" stroke="midnightblue" d="M267.57,-169.97C244.31,-137.47 211.99,-92.54 208.5,-89 195.4,-75.68 179.25,-62.94 164.75,-52.55"/>
<polygon fill="midnightblue" stroke="midnightblue" points="264.89,-172.25 273.56,-178.35 270.59,-168.18 264.89,-172.25"/>
</g>
<!-- Node6 -->
<g id="node6" class="node">
<title>Node6</title>
<g id="a_node6"><a xlink:href="../../d1/d08/_d_e_m__application_8cpp.html" target="_top" xlink:title=" ">
<polygon fill="none" stroke="black" points="473.5,-6 473.5,-47 675.5,-47 675.5,-6 473.5,-6"/>
<text text-anchor="start" x="481.5" y="-35" font-family="Helvetica,sans-Serif" font-size="10.00">/home/runner/work/Documentation</text>
<text text-anchor="start" x="481.5" y="-24" font-family="Helvetica,sans-Serif" font-size="10.00">/Documentation/master/applications</text>
<text text-anchor="middle" x="574.5" y="-13" font-family="Helvetica,sans-Serif" font-size="10.00">/DEMApplication/DEM_application.cpp</text>
</a>
</g>
</g>
<!-- Node1&#45;&gt;Node6 -->
<g id="edge7" class="edge">
<title>Node1&#45;&gt;Node6</title>
<path fill="none" stroke="midnightblue" d="M396.41,-174.99C419.8,-166.28 443.79,-155.38 464.5,-142 504.79,-115.98 541.13,-72.43 560.27,-47.21"/>
<polygon fill="midnightblue" stroke="midnightblue" points="395,-171.78 386.78,-178.47 397.38,-178.36 395,-171.78"/>
</g>
<!-- Node4 -->
<g id="node4" class="node">
<title>Node4</title>
<g id="a_node4"><a xlink:href="../../d3/dda/dem__kdem__fabric__2d__cl_8cpp.html" target="_top" xlink:title=" ">
<polygon fill="none" stroke="black" points="256,-0.5 256,-52.5 455,-52.5 455,-0.5 256,-0.5"/>
<text text-anchor="start" x="264" y="-40.5" font-family="Helvetica,sans-Serif" font-size="10.00">/home/runner/work/Documentation</text>
<text text-anchor="start" x="264" y="-29.5" font-family="Helvetica,sans-Serif" font-size="10.00">/Documentation/master/applications</text>
<text text-anchor="start" x="264" y="-18.5" font-family="Helvetica,sans-Serif" font-size="10.00">/DEMApplication/custom_constitutive</text>
<text text-anchor="middle" x="355.5" y="-7.5" font-family="Helvetica,sans-Serif" font-size="10.00">/dem_kdem_fabric_2d_cl.cpp</text>
</a>
</g>
</g>
<!-- Node3&#45;&gt;Node4 -->
<g id="edge3" class="edge">
<title>Node3&#45;&gt;Node4</title>
<path fill="none" stroke="midnightblue" d="M355.5,-79.19C355.5,-70.28 355.5,-60.9 355.5,-52.61"/>
<polygon fill="midnightblue" stroke="midnightblue" points="352,-79.34 355.5,-89.34 359,-79.34 352,-79.34"/>
</g>
<!-- Node3&#45;&gt;Node5 -->
<g id="edge4" class="edge">
<title>Node3&#45;&gt;Node5</title>
<path fill="none" stroke="midnightblue" d="M280.11,-85.86C251.76,-75.09 219.77,-62.94 192.36,-52.52"/>
<polygon fill="midnightblue" stroke="midnightblue" points="278.98,-89.17 289.57,-89.45 281.47,-82.63 278.98,-89.17"/>
</g>
<!-- Node3&#45;&gt;Node6 -->
<g id="edge5" class="edge">
<title>Node3&#45;&gt;Node6</title>
<path fill="none" stroke="midnightblue" d="M428.25,-85.6C460.04,-72.97 496.51,-58.48 525.08,-47.13"/>
<polygon fill="midnightblue" stroke="midnightblue" points="426.55,-82.51 418.55,-89.45 429.14,-89.01 426.55,-82.51"/>
</g>
</g>
</svg>
