<?xml version="1.0" encoding="UTF-8" standalone="no"?>
<!DOCTYPE svg PUBLIC "-//W3C//DTD SVG 1.1//EN"
 "http://www.w3.org/Graphics/SVG/1.1/DTD/svg11.dtd">
<!-- Generated by graphviz version 2.43.0 (0)
 -->
<!-- Title: json_settings_utility.JsonSettingsUtility Pages: 1 -->
<svg width="208pt" height="226pt"
 viewBox="0.00 0.00 208.00 226.00" xmlns="http://www.w3.org/2000/svg" xmlns:xlink="http://www.w3.org/1999/xlink">
<g id="graph0" class="graph" transform="scale(1 1) rotate(0) translate(4 222)">
<title>json_settings_utility.JsonSettingsUtility</title>
<!-- Node1 -->
<g id="node1" class="node">
<title>Node1</title>
<g id="a_node1"><a xlink:title=" ">
<polygon fill="#bfbfbf" stroke="black" points="0,-0.5 0,-123.5 200,-123.5 200,-0.5 0,-0.5"/>
<text text-anchor="start" x="8" y="-111.5" font-family="Helvetica,sans-Serif" font-size="10.00">json_settings_utility.Json</text>
<text text-anchor="middle" x="100" y="-100.5" font-family="Helvetica,sans-Serif" font-size="10.00">SettingsUtility</text>
<polyline fill="none" stroke="black" points="0,-93.5 200,-93.5 "/>
<text text-anchor="middle" x="100" y="-81.5" font-family="Helvetica,sans-Serif" font-size="10.00"> </text>
<polyline fill="none" stroke="black" points="0,-74.5 200,-74.5 "/>
<text text-anchor="start" x="8" y="-62.5" font-family="Helvetica,sans-Serif" font-size="10.00">+ CheckAndFixNotMatchingSettings()</text>
<text text-anchor="start" x="8" y="-51.5" font-family="Helvetica,sans-Serif" font-size="10.00">+ TransferMatchingSettings</text>
<text text-anchor="start" x="8" y="-40.5" font-family="Helvetica,sans-Serif" font-size="10.00">ToDestination()</text>
<text text-anchor="start" x="8" y="-29.5" font-family="Helvetica,sans-Serif" font-size="10.00">+ CheckAndTransferMatching</text>
<text text-anchor="start" x="8" y="-18.5" font-family="Helvetica,sans-Serif" font-size="10.00">ValueType()</text>
<text text-anchor="start" x="8" y="-7.5" font-family="Helvetica,sans-Serif" font-size="10.00">+ CheckMatchingValueType()</text>
</a>
</g>
</g>
<!-- Node2 -->
<g id="node2" class="node">
<title>Node2</title>
<g id="a_node2"><a xlink:title=" ">
<polygon fill="none" stroke="#bfbfbf" points="76.5,-160.5 76.5,-217.5 123.5,-217.5 123.5,-160.5 76.5,-160.5"/>
<text text-anchor="middle" x="100" y="-205.5" font-family="Helvetica,sans-Serif" font-size="10.00">object</text>
<polyline fill="none" stroke="#bfbfbf" points="76.5,-198.5 123.5,-198.5 "/>
<text text-anchor="middle" x="100" y="-186.5" font-family="Helvetica,sans-Serif" font-size="10.00"> </text>
<polyline fill="none" stroke="#bfbfbf" points="76.5,-179.5 123.5,-179.5 "/>
<text text-anchor="middle" x="100" y="-167.5" font-family="Helvetica,sans-Serif" font-size="10.00"> </text>
</a>
</g>
</g>
<!-- Node2&#45;&gt;Node1 -->
<g id="edge1" class="edge">
<title>Node2&#45;&gt;Node1</title>
<path fill="none" stroke="midnightblue" d="M100,-150.1C100,-141.74 100,-132.68 100,-123.67"/>
<polygon fill="none" stroke="midnightblue" points="96.5,-150.26 100,-160.26 103.5,-150.26 96.5,-150.26"/>
</g>
</g>
</svg>
