<?xml version="1.0" encoding="UTF-8" standalone="no"?>
<!DOCTYPE svg PUBLIC "-//W3C//DTD SVG 1.1//EN"
 "http://www.w3.org/Graphics/SVG/1.1/DTD/svg11.dtd">
<!-- Generated by graphviz version 2.43.0 (0)
 -->
<!-- Title: /home/runner/work/Documentation/Documentation/master/applications/FSIApplication/custom_utilities/mvqn_convergence_accelerator.hpp Pages: 1 -->
<svg width="284pt" height="250pt"
 viewBox="0.00 0.00 284.00 250.00" xmlns="http://www.w3.org/2000/svg" xmlns:xlink="http://www.w3.org/1999/xlink">
<g id="graph0" class="graph" transform="scale(1 1) rotate(0) translate(4 246)">
<title>/home/runner/work/Documentation/Documentation/master/applications/FSIApplication/custom_utilities/mvqn_convergence_accelerator.hpp</title>
<!-- Node1 -->
<g id="node1" class="node">
<title>Node1</title>
<g id="a_node1"><a xlink:title=" ">
<polygon fill="#bfbfbf" stroke="black" points="14.5,-189.5 14.5,-241.5 209.5,-241.5 209.5,-189.5 14.5,-189.5"/>
<text text-anchor="start" x="22.5" y="-229.5" font-family="Helvetica,sans-Serif" font-size="10.00">/home/runner/work/Documentation</text>
<text text-anchor="start" x="22.5" y="-218.5" font-family="Helvetica,sans-Serif" font-size="10.00">/Documentation/master/applications</text>
<text text-anchor="start" x="22.5" y="-207.5" font-family="Helvetica,sans-Serif" font-size="10.00">/FSIApplication/custom_utilities</text>
<text text-anchor="middle" x="112" y="-196.5" font-family="Helvetica,sans-Serif" font-size="10.00">/mvqn_convergence_accelerator.hpp</text>
</a>
</g>
</g>
<!-- Node2 -->
<g id="node2" class="node">
<title>Node2</title>
<g id="a_node2"><a xlink:href="../../d1/d02/applications_2_f_s_i_application_2custom__python_2add__convergence__accelerators__to__python_8cpp.html" target="_top" xlink:title=" ">
<polygon fill="none" stroke="black" points="0,-0.5 0,-52.5 224,-52.5 224,-0.5 0,-0.5"/>
<text text-anchor="start" x="8" y="-40.5" font-family="Helvetica,sans-Serif" font-size="10.00">/home/runner/work/Documentation</text>
<text text-anchor="start" x="8" y="-29.5" font-family="Helvetica,sans-Serif" font-size="10.00">/Documentation/master/applications</text>
<text text-anchor="start" x="8" y="-18.5" font-family="Helvetica,sans-Serif" font-size="10.00">/FSIApplication/custom_python/add</text>
<text text-anchor="middle" x="112" y="-7.5" font-family="Helvetica,sans-Serif" font-size="10.00">_convergence_accelerators_to_python.cpp</text>
</a>
</g>
</g>
<!-- Node1&#45;&gt;Node2 -->
<g id="edge1" class="edge">
<title>Node1&#45;&gt;Node2</title>
<path fill="none" stroke="midnightblue" d="M81.81,-181.12C75.74,-172.53 70.24,-162.9 67,-153 58.16,-125.96 58.16,-116.04 67,-89 71.32,-75.8 79.66,-63.08 88,-52.67"/>
<polygon fill="midnightblue" stroke="midnightblue" points="79.19,-183.46 88,-189.33 84.78,-179.24 79.19,-183.46"/>
</g>
<!-- Node3 -->
<g id="node3" class="node">
<title>Node3</title>
<g id="a_node3"><a xlink:href="../../da/d14/mvqn__randomized__svd__convergence__accelerator_8h.html" target="_top" xlink:title=" ">
<polygon fill="none" stroke="black" points="76,-89.5 76,-152.5 276,-152.5 276,-89.5 76,-89.5"/>
<text text-anchor="start" x="84" y="-140.5" font-family="Helvetica,sans-Serif" font-size="10.00">/home/runner/work/Documentation</text>
<text text-anchor="start" x="84" y="-129.5" font-family="Helvetica,sans-Serif" font-size="10.00">/Documentation/master/applications</text>
<text text-anchor="start" x="84" y="-118.5" font-family="Helvetica,sans-Serif" font-size="10.00">/FSIApplication/custom_utilities</text>
<text text-anchor="start" x="84" y="-107.5" font-family="Helvetica,sans-Serif" font-size="10.00">/mvqn_randomized_svd_convergence</text>
<text text-anchor="middle" x="176" y="-96.5" font-family="Helvetica,sans-Serif" font-size="10.00">_accelerator.h</text>
</a>
</g>
</g>
<!-- Node1&#45;&gt;Node3 -->
<g id="edge2" class="edge">
<title>Node1&#45;&gt;Node3</title>
<path fill="none" stroke="midnightblue" d="M135.22,-180.95C141.64,-171.65 148.59,-161.62 154.89,-152.51"/>
<polygon fill="midnightblue" stroke="midnightblue" points="132.3,-179.01 129.49,-189.22 138.06,-182.99 132.3,-179.01"/>
</g>
<!-- Node3&#45;&gt;Node2 -->
<g id="edge3" class="edge">
<title>Node3&#45;&gt;Node2</title>
<path fill="none" stroke="midnightblue" d="M149.14,-81.17C142.49,-71.57 135.55,-61.53 129.48,-52.77"/>
<polygon fill="midnightblue" stroke="midnightblue" points="146.3,-83.22 154.87,-89.46 152.06,-79.24 146.3,-83.22"/>
</g>
</g>
</svg>
