<?xml version="1.0" encoding="UTF-8" standalone="no"?>
<!DOCTYPE svg PUBLIC "-//W3C//DTD SVG 1.1//EN"
 "http://www.w3.org/Graphics/SVG/1.1/DTD/svg11.dtd">
<!-- Generated by graphviz version 2.43.0 (0)
 -->
<!-- Title: /home/runner/work/Documentation/Documentation/master/applications/FSIApplication/custom_utilities/shared_points_mapper.h Pages: 1 -->
<svg width="3580pt" height="1034pt"
 viewBox="0.00 0.00 3580.00 1034.00" xmlns="http://www.w3.org/2000/svg" xmlns:xlink="http://www.w3.org/1999/xlink">
<g id="graph0" class="graph" transform="scale(1 1) rotate(0) translate(4 1030)">
<title>/home/runner/work/Documentation/Documentation/master/applications/FSIApplication/custom_utilities/shared_points_mapper.h</title>
<!-- Node1 -->
<g id="node1" class="node">
<title>Node1</title>
<g id="a_node1"><a xlink:title=" ">
<polygon fill="#bfbfbf" stroke="black" points="1067,-973.5 1067,-1025.5 1261,-1025.5 1261,-973.5 1067,-973.5"/>
<text text-anchor="start" x="1075" y="-1013.5" font-family="Helvetica,sans-Serif" font-size="10.00">/home/runner/work/Documentation</text>
<text text-anchor="start" x="1075" y="-1002.5" font-family="Helvetica,sans-Serif" font-size="10.00">/Documentation/master/applications</text>
<text text-anchor="start" x="1075" y="-991.5" font-family="Helvetica,sans-Serif" font-size="10.00">/FSIApplication/custom_utilities</text>
<text text-anchor="middle" x="1164" y="-980.5" font-family="Helvetica,sans-Serif" font-size="10.00">/shared_points_mapper.h</text>
</a>
</g>
</g>
<!-- Node2 -->
<g id="node2" class="node">
<title>Node2</title>
<g id="a_node2"><a xlink:title=" ">
<polygon fill="none" stroke="#bfbfbf" points="902,-246.5 902,-265.5 934,-265.5 934,-246.5 902,-246.5"/>
<text text-anchor="middle" x="918" y="-253.5" font-family="Helvetica,sans-Serif" font-size="10.00">set</text>
</a>
</g>
</g>
<!-- Node1&#45;&gt;Node2 -->
<g id="edge1" class="edge">
<title>Node1&#45;&gt;Node2</title>
<path fill="none" stroke="midnightblue" d="M1066.97,-996.44C813.67,-989.79 152,-963.63 152,-872 152,-872 152,-872 152,-517.5 152,-437.58 757.4,-293.88 891.79,-262.96"/>
<polygon fill="midnightblue" stroke="midnightblue" points="892.68,-266.35 901.65,-260.7 891.12,-259.52 892.68,-266.35"/>
</g>
<!-- Node3 -->
<g id="node3" class="node">
<title>Node3</title>
<g id="a_node3"><a xlink:title=" ">
<polygon fill="none" stroke="#bfbfbf" points="3458,-917.5 3458,-936.5 3572,-936.5 3572,-917.5 3458,-917.5"/>
<text text-anchor="middle" x="3515" y="-924.5" font-family="Helvetica,sans-Serif" font-size="10.00">boost/smart_ptr.hpp</text>
</a>
</g>
</g>
<!-- Node1&#45;&gt;Node3 -->
<g id="edge2" class="edge">
<title>Node1&#45;&gt;Node3</title>
<path fill="none" stroke="midnightblue" d="M1261.14,-997.16C1638.79,-991.77 3009.82,-970.29 3444,-937 3445.11,-936.91 3446.24,-936.82 3447.37,-936.73"/>
<polygon fill="midnightblue" stroke="midnightblue" points="3448.07,-940.18 3457.7,-935.76 3447.42,-933.21 3448.07,-940.18"/>
</g>
<!-- Node4 -->
<g id="node4" class="node">
<title>Node4</title>
<g id="a_node4"><a xlink:href="../../df/d67/define_8h.html" target="_top" xlink:title=" ">
<polygon fill="none" stroke="black" points="1808.5,-190.5 1808.5,-209.5 1907.5,-209.5 1907.5,-190.5 1808.5,-190.5"/>
<text text-anchor="middle" x="1858" y="-197.5" font-family="Helvetica,sans-Serif" font-size="10.00">includes/define.h</text>
</a>
</g>
</g>
<!-- Node1&#45;&gt;Node4 -->
<g id="edge3" class="edge">
<title>Node1&#45;&gt;Node4</title>
<path fill="none" stroke="midnightblue" d="M1220.96,-973.34C1331.78,-920.82 1573.73,-787.75 1668,-590 1699.09,-524.79 1587.87,-502.54 1616,-436 1639.87,-379.54 1786.53,-258.27 1839.2,-215.94"/>
<polygon fill="midnightblue" stroke="midnightblue" points="1841.46,-218.62 1847.08,-209.63 1837.09,-213.15 1841.46,-218.62"/>
</g>
<!-- Node18 -->
<g id="node18" class="node">
<title>Node18</title>
<g id="a_node18"><a xlink:href="../../dd/dfe/model__part_8h.html" target="_top" xlink:title=" ">
<polygon fill="none" stroke="black" points="1923.5,-917.5 1923.5,-936.5 2048.5,-936.5 2048.5,-917.5 1923.5,-917.5"/>
<text text-anchor="middle" x="1986" y="-924.5" font-family="Helvetica,sans-Serif" font-size="10.00">includes/model_part.h</text>
</a>
</g>
</g>
<!-- Node1&#45;&gt;Node18 -->
<g id="edge26" class="edge">
<title>Node1&#45;&gt;Node18</title>
<path fill="none" stroke="midnightblue" d="M1261.12,-990.17C1427.79,-975.88 1764.67,-946.98 1913.03,-934.26"/>
<polygon fill="midnightblue" stroke="midnightblue" points="1913.72,-937.71 1923.38,-933.37 1913.12,-930.74 1913.72,-937.71"/>
</g>
<!-- Node100 -->
<g id="node35" class="node">
<title>Node100</title>
<g id="a_node35"><a xlink:href="../../d1/d77/node_8h.html" target="_top" xlink:title=" ">
<polygon fill="none" stroke="black" points="1312.5,-682.5 1312.5,-701.5 1405.5,-701.5 1405.5,-682.5 1312.5,-682.5"/>
<text text-anchor="middle" x="1359" y="-689.5" font-family="Helvetica,sans-Serif" font-size="10.00">includes/node.h</text>
</a>
</g>
</g>
<!-- Node1&#45;&gt;Node100 -->
<g id="edge191" class="edge">
<title>Node1&#45;&gt;Node100</title>
<path fill="none" stroke="midnightblue" d="M1066.67,-998.05C867.56,-996.12 428.53,-986.25 383,-937 360.07,-912.2 361.24,-886.83 383,-861 502.32,-719.38 1111.89,-697.14 1302.18,-693.65"/>
<polygon fill="midnightblue" stroke="midnightblue" points="1302.31,-697.15 1312.25,-693.48 1302.19,-690.15 1302.31,-697.15"/>
</g>
<!-- Node96 -->
<g id="node50" class="node">
<title>Node96</title>
<g id="a_node50"><a xlink:href="../../d4/df9/pointer__vector_8h.html" target="_top" xlink:title=" ">
<polygon fill="none" stroke="black" points="3092.5,-369.5 3092.5,-399.5 3197.5,-399.5 3197.5,-369.5 3092.5,-369.5"/>
<text text-anchor="start" x="3100.5" y="-387.5" font-family="Helvetica,sans-Serif" font-size="10.00">containers/pointer</text>
<text text-anchor="middle" x="3145" y="-376.5" font-family="Helvetica,sans-Serif" font-size="10.00">_vector.h</text>
</a>
</g>
</g>
<!-- Node1&#45;&gt;Node96 -->
<g id="edge182" class="edge">
<title>Node1&#45;&gt;Node96</title>
<path fill="none" stroke="midnightblue" d="M1261,-998.24C1694.13,-996.44 3430,-982.36 3430,-872 3430,-872 3430,-872 3430,-752.5 3430,-588.93 3251.22,-454.24 3176.85,-405.3"/>
<polygon fill="midnightblue" stroke="midnightblue" points="3178.62,-402.27 3168.32,-399.75 3174.8,-408.14 3178.62,-402.27"/>
</g>
<!-- Node5 -->
<g id="node5" class="node">
<title>Node5</title>
<g id="a_node5"><a xlink:title=" ">
<polygon fill="none" stroke="#bfbfbf" points="1836.5,-73 1836.5,-92 1901.5,-92 1901.5,-73 1836.5,-73"/>
<text text-anchor="middle" x="1869" y="-80" font-family="Helvetica,sans-Serif" font-size="10.00">stdexcept</text>
</a>
</g>
</g>
<!-- Node4&#45;&gt;Node5 -->
<g id="edge4" class="edge">
<title>Node4&#45;&gt;Node5</title>
<path fill="none" stroke="midnightblue" d="M1858.83,-190.32C1860.59,-171.76 1864.78,-127.84 1867.19,-102.47"/>
<polygon fill="midnightblue" stroke="midnightblue" points="1870.7,-102.57 1868.16,-92.28 1863.73,-101.91 1870.7,-102.57"/>
</g>
<!-- Node6 -->
<g id="node6" class="node">
<title>Node6</title>
<g id="a_node6"><a xlink:title=" ">
<polygon fill="none" stroke="#bfbfbf" points="2437,-73 2437,-92 2493,-92 2493,-73 2437,-73"/>
<text text-anchor="middle" x="2465" y="-80" font-family="Helvetica,sans-Serif" font-size="10.00">sstream</text>
</a>
</g>
</g>
<!-- Node4&#45;&gt;Node6 -->
<g id="edge5" class="edge">
<title>Node4&#45;&gt;Node6</title>
<path fill="none" stroke="midnightblue" d="M1907.76,-195.78C1979.84,-190.49 2117.27,-178.07 2232,-154 2304.68,-138.75 2387.36,-111.22 2432.07,-95.45"/>
<polygon fill="midnightblue" stroke="midnightblue" points="2433.29,-98.74 2441.54,-92.09 2430.94,-92.14 2433.29,-98.74"/>
</g>
<!-- Node7 -->
<g id="node7" class="node">
<title>Node7</title>
<g id="a_node7"><a xlink:href="../../dc/d25/kratos__export__api_8h.html" target="_top" xlink:title=" ">
<polygon fill="none" stroke="black" points="2212,-0.5 2212,-30.5 2340,-30.5 2340,-0.5 2212,-0.5"/>
<text text-anchor="start" x="2220" y="-18.5" font-family="Helvetica,sans-Serif" font-size="10.00">includes/kratos_export</text>
<text text-anchor="middle" x="2276" y="-7.5" font-family="Helvetica,sans-Serif" font-size="10.00">_api.h</text>
</a>
</g>
</g>
<!-- Node4&#45;&gt;Node7 -->
<g id="edge6" class="edge">
<title>Node4&#45;&gt;Node7</title>
<path fill="none" stroke="midnightblue" d="M1907.5,-199.74C1969.45,-198.89 2077.55,-191.45 2161,-154 2196.41,-138.11 2202.9,-127.6 2228,-98 2243.09,-80.2 2256.22,-57.05 2264.91,-39.97"/>
<polygon fill="midnightblue" stroke="midnightblue" points="2268.2,-41.22 2269.5,-30.71 2261.93,-38.11 2268.2,-41.22"/>
</g>
<!-- Node8 -->
<g id="node8" class="node">
<title>Node8</title>
<g id="a_node8"><a xlink:href="../../d9/dc0/smart__pointers_8h.html" target="_top" xlink:title=" ">
<polygon fill="none" stroke="black" points="1560.5,-134.5 1560.5,-153.5 1703.5,-153.5 1703.5,-134.5 1560.5,-134.5"/>
<text text-anchor="middle" x="1632" y="-141.5" font-family="Helvetica,sans-Serif" font-size="10.00">includes/smart_pointers.h</text>
</a>
</g>
</g>
<!-- Node4&#45;&gt;Node8 -->
<g id="edge7" class="edge">
<title>Node4&#45;&gt;Node8</title>
<path fill="none" stroke="midnightblue" d="M1822.19,-190.44C1783.01,-181.08 1720.12,-166.06 1677.48,-155.87"/>
<polygon fill="midnightblue" stroke="midnightblue" points="1678.18,-152.44 1667.64,-153.52 1676.56,-159.24 1678.18,-152.44"/>
</g>
<!-- Node13 -->
<g id="node13" class="node">
<title>Node13</title>
<g id="a_node13"><a xlink:href="../../dd/d2d/exception_8h.html" target="_top" xlink:title=" ">
<polygon fill="none" stroke="black" points="2034.5,-134.5 2034.5,-153.5 2151.5,-153.5 2151.5,-134.5 2034.5,-134.5"/>
<text text-anchor="middle" x="2093" y="-141.5" font-family="Helvetica,sans-Serif" font-size="10.00">includes/exception.h</text>
</a>
</g>
</g>
<!-- Node4&#45;&gt;Node13 -->
<g id="edge12" class="edge">
<title>Node4&#45;&gt;Node13</title>
<path fill="none" stroke="midnightblue" d="M1895.24,-190.44C1936.06,-181.06 2001.64,-165.99 2045.98,-155.8"/>
<polygon fill="midnightblue" stroke="midnightblue" points="2046.98,-159.17 2055.94,-153.52 2045.41,-152.34 2046.98,-159.17"/>
</g>
<!-- Node9 -->
<g id="node9" class="node">
<title>Node9</title>
<g id="a_node9"><a xlink:title=" ">
<polygon fill="none" stroke="#bfbfbf" points="1938,-6 1938,-25 1998,-25 1998,-6 1938,-6"/>
<text text-anchor="middle" x="1968" y="-13" font-family="Helvetica,sans-Serif" font-size="10.00">iostream</text>
</a>
</g>
</g>
<!-- Node8&#45;&gt;Node9 -->
<g id="edge8" class="edge">
<title>Node8&#45;&gt;Node9</title>
<path fill="none" stroke="midnightblue" d="M1643.09,-134.33C1663.74,-118.61 1710,-85.32 1754,-67 1812.08,-42.83 1884.06,-28.85 1927.98,-21.96"/>
<polygon fill="midnightblue" stroke="midnightblue" points="1928.62,-25.4 1937.98,-20.44 1927.56,-18.48 1928.62,-25.4"/>
</g>
<!-- Node10 -->
<g id="node10" class="node">
<title>Node10</title>
<g id="a_node10"><a xlink:title=" ">
<polygon fill="none" stroke="#bfbfbf" points="1522.5,-73 1522.5,-92 1567.5,-92 1567.5,-73 1522.5,-73"/>
<text text-anchor="middle" x="1545" y="-80" font-family="Helvetica,sans-Serif" font-size="10.00">utility</text>
</a>
</g>
</g>
<!-- Node8&#45;&gt;Node10 -->
<g id="edge9" class="edge">
<title>Node8&#45;&gt;Node10</title>
<path fill="none" stroke="midnightblue" d="M1619.54,-134.48C1605.58,-124.93 1582.74,-109.31 1566.01,-97.87"/>
<polygon fill="midnightblue" stroke="midnightblue" points="1567.67,-94.77 1557.44,-92.01 1563.72,-100.54 1567.67,-94.77"/>
</g>
<!-- Node11 -->
<g id="node11" class="node">
<title>Node11</title>
<g id="a_node11"><a xlink:title=" ">
<polygon fill="none" stroke="#bfbfbf" points="1603,-73 1603,-92 1661,-92 1661,-73 1603,-73"/>
<text text-anchor="middle" x="1632" y="-80" font-family="Helvetica,sans-Serif" font-size="10.00">memory</text>
</a>
</g>
</g>
<!-- Node8&#45;&gt;Node11 -->
<g id="edge10" class="edge">
<title>Node8&#45;&gt;Node11</title>
<path fill="none" stroke="midnightblue" d="M1632,-134.48C1632,-126.08 1632,-112.98 1632,-102.16"/>
<polygon fill="midnightblue" stroke="midnightblue" points="1635.5,-102.01 1632,-92.01 1628.5,-102.01 1635.5,-102.01"/>
</g>
<!-- Node12 -->
<g id="node12" class="node">
<title>Node12</title>
<g id="a_node12"><a xlink:title=" ">
<polygon fill="none" stroke="#bfbfbf" points="712,-67.5 712,-97.5 836,-97.5 836,-67.5 712,-67.5"/>
<text text-anchor="start" x="720" y="-85.5" font-family="Helvetica,sans-Serif" font-size="10.00">intrusive_ptr/intrusive</text>
<text text-anchor="middle" x="774" y="-74.5" font-family="Helvetica,sans-Serif" font-size="10.00">_ptr.hpp</text>
</a>
</g>
</g>
<!-- Node8&#45;&gt;Node12 -->
<g id="edge11" class="edge">
<title>Node8&#45;&gt;Node12</title>
<path fill="none" stroke="midnightblue" d="M1560.32,-138.03C1398.94,-126.84 1008.54,-99.76 846.44,-88.52"/>
<polygon fill="midnightblue" stroke="midnightblue" points="846.31,-85.01 836.09,-87.81 845.83,-91.99 846.31,-85.01"/>
</g>
<!-- Node13&#45;&gt;Node5 -->
<g id="edge13" class="edge">
<title>Node13&#45;&gt;Node5</title>
<path fill="none" stroke="midnightblue" d="M2057.26,-134.47C2021.41,-125.79 1964.68,-111.69 1916,-98 1912.61,-97.05 1909.09,-96.02 1905.57,-94.98"/>
<polygon fill="midnightblue" stroke="midnightblue" points="1906.36,-91.56 1895.77,-92.01 1904.33,-98.26 1906.36,-91.56"/>
</g>
<!-- Node13&#45;&gt;Node6 -->
<g id="edge16" class="edge">
<title>Node13&#45;&gt;Node6</title>
<path fill="none" stroke="midnightblue" d="M2146.3,-134.48C2222.39,-122.3 2360.3,-100.25 2426.93,-89.59"/>
<polygon fill="midnightblue" stroke="midnightblue" points="2427.67,-93.01 2436.99,-87.98 2426.57,-86.1 2427.67,-93.01"/>
</g>
<!-- Node13&#45;&gt;Node7 -->
<g id="edge18" class="edge">
<title>Node13&#45;&gt;Node7</title>
<path fill="none" stroke="midnightblue" d="M2120.57,-134.41C2142.45,-126.84 2173.21,-114.44 2197,-98 2221.1,-81.35 2243.85,-56.55 2258.69,-38.68"/>
<polygon fill="midnightblue" stroke="midnightblue" points="2261.73,-40.5 2265.32,-30.53 2256.29,-36.09 2261.73,-40.5"/>
</g>
<!-- Node13&#45;&gt;Node9 -->
<g id="edge15" class="edge">
<title>Node13&#45;&gt;Node9</title>
<path fill="none" stroke="midnightblue" d="M2128.85,-134.4C2147.88,-127.81 2169.63,-116.59 2181,-98 2188.19,-86.25 2189.55,-77.81 2181,-67 2159.91,-40.32 2064.21,-26.26 2008.52,-20.22"/>
<polygon fill="midnightblue" stroke="midnightblue" points="2008.6,-16.71 1998.29,-19.15 2007.87,-23.67 2008.6,-16.71"/>
</g>
<!-- Node14 -->
<g id="node14" class="node">
<title>Node14</title>
<g id="a_node14"><a xlink:title=" ">
<polygon fill="none" stroke="#bfbfbf" points="396,-6 396,-25 440,-25 440,-6 396,-6"/>
<text text-anchor="middle" x="418" y="-13" font-family="Helvetica,sans-Serif" font-size="10.00">string</text>
</a>
</g>
</g>
<!-- Node13&#45;&gt;Node14 -->
<g id="edge14" class="edge">
<title>Node13&#45;&gt;Node14</title>
<path fill="none" stroke="midnightblue" d="M2077.57,-134.28C2046.96,-117.5 1975.9,-81.15 1911,-67 1763.81,-34.91 653.99,-19.47 450.12,-16.89"/>
<polygon fill="midnightblue" stroke="midnightblue" points="450.1,-13.39 440.06,-16.77 450.02,-20.39 450.1,-13.39"/>
</g>
<!-- Node15 -->
<g id="node15" class="node">
<title>Node15</title>
<g id="a_node15"><a xlink:title=" ">
<polygon fill="none" stroke="#bfbfbf" points="3254.5,-6 3254.5,-25 3301.5,-25 3301.5,-6 3254.5,-6"/>
<text text-anchor="middle" x="3278" y="-13" font-family="Helvetica,sans-Serif" font-size="10.00">vector</text>
</a>
</g>
</g>
<!-- Node13&#45;&gt;Node15 -->
<g id="edge17" class="edge">
<title>Node13&#45;&gt;Node15</title>
<path fill="none" stroke="midnightblue" d="M2123.18,-134.4C2181.51,-118.17 2314.05,-83.2 2428,-67 2742.76,-22.25 3128.55,-17.05 3243.89,-16.53"/>
<polygon fill="midnightblue" stroke="midnightblue" points="3244.21,-20.03 3254.2,-16.49 3244.18,-13.03 3244.21,-20.03"/>
</g>
<!-- Node16 -->
<g id="node16" class="node">
<title>Node16</title>
<g id="a_node16"><a xlink:href="../../da/da6/code__location_8h.html" target="_top" xlink:title=" ">
<polygon fill="none" stroke="black" points="2034.5,-73 2034.5,-92 2171.5,-92 2171.5,-73 2034.5,-73"/>
<text text-anchor="middle" x="2103" y="-80" font-family="Helvetica,sans-Serif" font-size="10.00">includes/code_location.h</text>
</a>
</g>
</g>
<!-- Node13&#45;&gt;Node16 -->
<g id="edge19" class="edge">
<title>Node13&#45;&gt;Node16</title>
<path fill="none" stroke="midnightblue" d="M2094.43,-134.48C2095.84,-126.08 2098.05,-112.98 2099.86,-102.16"/>
<polygon fill="midnightblue" stroke="midnightblue" points="2103.36,-102.45 2101.57,-92.01 2096.46,-101.29 2103.36,-102.45"/>
</g>
<!-- Node17 -->
<g id="node17" class="node">
<title>Node17</title>
<g id="a_node17"><a xlink:href="../../d9/d06/stl__vector__io_8h.html" target="_top" xlink:title=" ">
<polygon fill="none" stroke="black" points="3046,-73 3046,-92 3174,-92 3174,-73 3046,-73"/>
<text text-anchor="middle" x="3110" y="-80" font-family="Helvetica,sans-Serif" font-size="10.00">utilities/stl_vector_io.h</text>
</a>
</g>
</g>
<!-- Node13&#45;&gt;Node17 -->
<g id="edge23" class="edge">
<title>Node13&#45;&gt;Node17</title>
<path fill="none" stroke="midnightblue" d="M2151.7,-139.57C2326.34,-129.35 2842.45,-99.15 3035.77,-87.84"/>
<polygon fill="midnightblue" stroke="midnightblue" points="3036.06,-91.33 3045.83,-87.25 3035.65,-84.34 3036.06,-91.33"/>
</g>
<!-- Node16&#45;&gt;Node7 -->
<g id="edge22" class="edge">
<title>Node16&#45;&gt;Node7</title>
<path fill="none" stroke="midnightblue" d="M2125.97,-72.87C2152.16,-63.03 2195.65,-46.69 2229.08,-34.13"/>
<polygon fill="midnightblue" stroke="midnightblue" points="2230.53,-37.32 2238.66,-30.53 2228.07,-30.77 2230.53,-37.32"/>
</g>
<!-- Node16&#45;&gt;Node9 -->
<g id="edge21" class="edge">
<title>Node16&#45;&gt;Node9</title>
<path fill="none" stroke="midnightblue" d="M2085.07,-72.87C2062.08,-61.8 2021.97,-42.49 1995.2,-29.6"/>
<polygon fill="midnightblue" stroke="midnightblue" points="1996.53,-26.35 1986,-25.17 1993.49,-32.66 1996.53,-26.35"/>
</g>
<!-- Node16&#45;&gt;Node14 -->
<g id="edge20" class="edge">
<title>Node16&#45;&gt;Node14</title>
<path fill="none" stroke="midnightblue" d="M2034.2,-74.35C2006.24,-71.67 1973.6,-68.84 1944,-67 1345.29,-29.82 612.62,-18.91 450.68,-16.88"/>
<polygon fill="midnightblue" stroke="midnightblue" points="450.47,-13.38 440.43,-16.75 450.38,-20.38 450.47,-13.38"/>
</g>
<!-- Node17&#45;&gt;Node9 -->
<g id="edge24" class="edge">
<title>Node17&#45;&gt;Node9</title>
<path fill="none" stroke="midnightblue" d="M3070.08,-72.96C3057.91,-70.66 3044.45,-68.42 3032,-67 2665.59,-25.2 2571.28,-50.36 2203,-31 2134.5,-27.4 2054.83,-22.29 2008.06,-19.2"/>
<polygon fill="midnightblue" stroke="midnightblue" points="2008.25,-15.7 1998.04,-18.53 2007.78,-22.68 2008.25,-15.7"/>
</g>
<!-- Node17&#45;&gt;Node15 -->
<g id="edge25" class="edge">
<title>Node17&#45;&gt;Node15</title>
<path fill="none" stroke="midnightblue" d="M3132.31,-72.87C3161.51,-61.57 3212.88,-41.7 3246.16,-28.82"/>
<polygon fill="midnightblue" stroke="midnightblue" points="3247.8,-31.94 3255.87,-25.06 3245.28,-25.41 3247.8,-31.94"/>
</g>
<!-- Node18&#45;&gt;Node4 -->
<g id="edge31" class="edge">
<title>Node18&#45;&gt;Node4</title>
<path fill="none" stroke="midnightblue" d="M2048.6,-921.7C2221.18,-906.97 2684.42,-846.52 2583,-626 2526.15,-502.4 2231.17,-291.61 2103,-246 2041.82,-224.23 1968.12,-212.52 1917.64,-206.55"/>
<polygon fill="midnightblue" stroke="midnightblue" points="1917.88,-203.06 1907.55,-205.4 1917.08,-210.01 1917.88,-203.06"/>
</g>
<!-- Node18&#45;&gt;Node6 -->
<g id="edge29" class="edge">
<title>Node18&#45;&gt;Node6</title>
<path fill="none" stroke="midnightblue" d="M2048.58,-924.81C2247.16,-920.83 2861.63,-906.68 3059,-881 3192.13,-863.68 3354,-950.26 3354,-816 3354,-816 3354,-816 3354,-635 3354,-454.33 3366.58,-370.86 3236,-246 3128.2,-142.92 2644.6,-97.54 2503.66,-86.36"/>
<polygon fill="midnightblue" stroke="midnightblue" points="2503.6,-82.84 2493.36,-85.55 2503.06,-89.82 2503.6,-82.84"/>
</g>
<!-- Node18&#45;&gt;Node9 -->
<g id="edge28" class="edge">
<title>Node18&#45;&gt;Node9</title>
<path fill="none" stroke="midnightblue" d="M2048.88,-926.29C2266.62,-926.9 2987.51,-925.44 3214,-881 3351.82,-853.96 3468,-833.45 3468,-693 3468,-693 3468,-693 3468,-143 3468,-30.27 3337.11,-86.04 3226,-67 3001.79,-28.57 2430.21,-42.01 2203,-31 2134.49,-27.68 2054.82,-22.48 2008.06,-19.3"/>
<polygon fill="midnightblue" stroke="midnightblue" points="2008.25,-15.8 1998.03,-18.61 2007.77,-22.78 2008.25,-15.8"/>
</g>
<!-- Node18&#45;&gt;Node14 -->
<g id="edge27" class="edge">
<title>Node18&#45;&gt;Node14</title>
<path fill="none" stroke="midnightblue" d="M1923.17,-925.26C1645.49,-921.83 539.04,-906.63 470,-881 185.44,-775.38 0,-689.03 0,-385.5 0,-385.5 0,-385.5 0,-143 0,-103.28 13.7,-88.64 47,-67 102.64,-30.85 305.47,-20.24 385.35,-17.43"/>
<polygon fill="midnightblue" stroke="midnightblue" points="385.9,-20.91 395.78,-17.08 385.67,-13.91 385.9,-20.91"/>
</g>
<!-- Node19 -->
<g id="node19" class="node">
<title>Node19</title>
<g id="a_node19"><a xlink:title=" ">
<polygon fill="none" stroke="#bfbfbf" points="2022.5,-308 2022.5,-327 2075.5,-327 2075.5,-308 2022.5,-308"/>
<text text-anchor="middle" x="2049" y="-315" font-family="Helvetica,sans-Serif" font-size="10.00">cstddef</text>
</a>
</g>
</g>
<!-- Node18&#45;&gt;Node19 -->
<g id="edge30" class="edge">
<title>Node18&#45;&gt;Node19</title>
<path fill="none" stroke="midnightblue" d="M2045.67,-917.46C2135.78,-903.19 2299.71,-871.43 2334,-825 2442.3,-678.37 2318.36,-577.95 2204,-436 2178.36,-404.17 2173.31,-394.03 2141,-369 2121.5,-353.89 2096.89,-340.64 2078.03,-331.5"/>
<polygon fill="midnightblue" stroke="midnightblue" points="2079.29,-328.23 2068.75,-327.12 2076.29,-334.55 2079.29,-328.23"/>
</g>
<!-- Node20 -->
<g id="node20" class="node">
<title>Node20</title>
<g id="a_node20"><a xlink:href="../../dd/d5f/serializer_8h.html" target="_top" xlink:title=" ">
<polygon fill="none" stroke="red" points="1162.5,-308 1162.5,-327 1275.5,-327 1275.5,-308 1162.5,-308"/>
<text text-anchor="middle" x="1219" y="-315" font-family="Helvetica,sans-Serif" font-size="10.00">includes/serializer.h</text>
</a>
</g>
</g>
<!-- Node18&#45;&gt;Node20 -->
<g id="edge32" class="edge">
<title>Node18&#45;&gt;Node20</title>
<path fill="none" stroke="midnightblue" d="M1923.38,-926.05C1826.16,-924.9 1633.58,-917.64 1475,-881 1181.94,-813.29 1021.26,-846.4 864,-590 859.35,-582.42 858.5,-576.98 864,-570 906.45,-516.16 962.98,-579.8 1014,-534 1071.96,-481.98 1017.64,-423.78 1073,-369 1094.22,-348 1124.6,-335.71 1152.15,-328.53"/>
<polygon fill="midnightblue" stroke="midnightblue" points="1153.26,-331.87 1162.15,-326.11 1151.61,-325.06 1153.26,-331.87"/>
</g>
<!-- Node26 -->
<g id="node23" class="node">
<title>Node26</title>
<g id="a_node23"><a xlink:href="../../d1/d8c/logger_8h.html" target="_top" xlink:title=" ">
<polygon fill="none" stroke="red" points="598,-190.5 598,-209.5 718,-209.5 718,-190.5 598,-190.5"/>
<text text-anchor="middle" x="658" y="-197.5" font-family="Helvetica,sans-Serif" font-size="10.00">input_output/logger.h</text>
</a>
</g>
</g>
<!-- Node18&#45;&gt;Node26 -->
<g id="edge177" class="edge">
<title>Node18&#45;&gt;Node26</title>
<path fill="none" stroke="midnightblue" d="M1923.28,-925.8C1656.09,-924.72 623.76,-918.15 566,-881 487.6,-830.57 473,-786.22 473,-693 473,-693 473,-693 473,-579 473,-424.29 599.57,-266.9 643.33,-217.11"/>
<polygon fill="midnightblue" stroke="midnightblue" points="646.01,-219.36 650.05,-209.57 640.78,-214.71 646.01,-219.36"/>
</g>
<!-- Node57 -->
<g id="node25" class="node">
<title>Node57</title>
<g id="a_node25"><a xlink:href="../../de/db8/process__info_8h.html" target="_top" xlink:title=" ">
<polygon fill="none" stroke="black" points="2121.5,-570.5 2121.5,-589.5 2252.5,-589.5 2252.5,-570.5 2121.5,-570.5"/>
<text text-anchor="middle" x="2187" y="-577.5" font-family="Helvetica,sans-Serif" font-size="10.00">includes/process_info.h</text>
</a>
</g>
</g>
<!-- Node18&#45;&gt;Node57 -->
<g id="edge48" class="edge">
<title>Node18&#45;&gt;Node57</title>
<path fill="none" stroke="midnightblue" d="M2015.91,-917.42C2035.37,-910.46 2060.03,-898.82 2076,-881 2153.03,-795.06 2178.14,-650.96 2184.87,-599.75"/>
<polygon fill="midnightblue" stroke="midnightblue" points="2188.38,-599.9 2186.12,-589.55 2181.43,-599.05 2188.38,-599.9"/>
</g>
<!-- Node58 -->
<g id="node26" class="node">
<title>Node58</title>
<g id="a_node26"><a xlink:href="../../d1/d82/data__value__container_8h.html" target="_top" xlink:title=" ">
<polygon fill="none" stroke="red" points="1948.5,-503.5 1948.5,-533.5 2073.5,-533.5 2073.5,-503.5 1948.5,-503.5"/>
<text text-anchor="start" x="1956.5" y="-521.5" font-family="Helvetica,sans-Serif" font-size="10.00">containers/data_value</text>
<text text-anchor="middle" x="2011" y="-510.5" font-family="Helvetica,sans-Serif" font-size="10.00">_container.h</text>
</a>
</g>
</g>
<!-- Node18&#45;&gt;Node58 -->
<g id="edge73" class="edge">
<title>Node18&#45;&gt;Node58</title>
<path fill="none" stroke="midnightblue" d="M1986.55,-917.13C1989.6,-867.44 2004.63,-623.02 2009.49,-544.11"/>
<polygon fill="midnightblue" stroke="midnightblue" points="2013.01,-543.91 2010.13,-533.71 2006.02,-543.48 2013.01,-543.91"/>
</g>
<!-- Node59 -->
<g id="node27" class="node">
<title>Node59</title>
<g id="a_node27"><a xlink:href="../../da/d89/variable_8h.html" target="_top" xlink:title=" ">
<polygon fill="none" stroke="red" points="764.5,-442 764.5,-461 883.5,-461 883.5,-442 764.5,-442"/>
<text text-anchor="middle" x="824" y="-449" font-family="Helvetica,sans-Serif" font-size="10.00">containers/variable.h</text>
</a>
</g>
</g>
<!-- Node18&#45;&gt;Node59 -->
<g id="edge180" class="edge">
<title>Node18&#45;&gt;Node59</title>
<path fill="none" stroke="midnightblue" d="M1923.33,-925.21C1666.82,-921.79 707.71,-907.31 649,-881 612.57,-864.67 587,-855.92 587,-816 587,-816 587,-816 587,-635 587,-537.99 713.21,-485.38 781.42,-464.03"/>
<polygon fill="midnightblue" stroke="midnightblue" points="782.5,-467.36 791.05,-461.1 780.46,-460.66 782.5,-467.36"/>
</g>
<!-- Node74 -->
<g id="node28" class="node">
<title>Node74</title>
<g id="a_node28"><a xlink:href="../../d3/dc3/variable__data_8h.html" target="_top" xlink:title=" ">
<polygon fill="none" stroke="red" points="781,-375 781,-394 873,-394 873,-375 781,-375"/>
<text text-anchor="middle" x="827" y="-382" font-family="Helvetica,sans-Serif" font-size="10.00">variable_data.h</text>
</a>
</g>
</g>
<!-- Node18&#45;&gt;Node74 -->
<g id="edge181" class="edge">
<title>Node18&#45;&gt;Node74</title>
<path fill="none" stroke="midnightblue" d="M1923.46,-925.36C1661.72,-922.5 665.12,-909.75 605,-881 570.6,-864.55 549,-854.13 549,-816 549,-816 549,-816 549,-691 549,-598.55 571.49,-567.21 638,-503 687.33,-455.38 759.09,-417.32 798.48,-398.45"/>
<polygon fill="midnightblue" stroke="midnightblue" points="800.21,-401.5 807.76,-394.07 797.22,-395.17 800.21,-401.5"/>
</g>
<!-- Node83 -->
<g id="node29" class="node">
<title>Node83</title>
<g id="a_node29"><a xlink:href="../../d8/d3b/mesh_8h.html" target="_top" xlink:title=" ">
<polygon fill="none" stroke="red" points="2229,-805.5 2229,-824.5 2325,-824.5 2325,-805.5 2229,-805.5"/>
<text text-anchor="middle" x="2277" y="-812.5" font-family="Helvetica,sans-Serif" font-size="10.00">includes/mesh.h</text>
</a>
</g>
</g>
<!-- Node18&#45;&gt;Node83 -->
<g id="edge74" class="edge">
<title>Node18&#45;&gt;Node83</title>
<path fill="none" stroke="midnightblue" d="M2011.61,-917.34C2037.53,-908.5 2078.71,-894.23 2114,-881 2160.66,-863.5 2214.24,-841.83 2246.85,-828.46"/>
<polygon fill="midnightblue" stroke="midnightblue" points="2248.35,-831.63 2256.27,-824.59 2245.69,-825.15 2248.35,-831.63"/>
</g>
<!-- Node87 -->
<g id="node32" class="node">
<title>Node87</title>
<g id="a_node32"><a xlink:href="../../d2/d58/pointer__vector__map_8h.html" target="_top" xlink:title=" ">
<polygon fill="none" stroke="red" points="2875.5,-369.5 2875.5,-399.5 2980.5,-399.5 2980.5,-369.5 2875.5,-369.5"/>
<text text-anchor="start" x="2883.5" y="-387.5" font-family="Helvetica,sans-Serif" font-size="10.00">containers/pointer</text>
<text text-anchor="middle" x="2928" y="-376.5" font-family="Helvetica,sans-Serif" font-size="10.00">_vector_map.h</text>
</a>
</g>
</g>
<!-- Node18&#45;&gt;Node87 -->
<g id="edge175" class="edge">
<title>Node18&#45;&gt;Node87</title>
<path fill="none" stroke="midnightblue" d="M2048.58,-925.36C2193.82,-923.31 2564.94,-914.91 2873,-881 3031.57,-863.54 3226,-975.53 3226,-816 3226,-816 3226,-816 3226,-517.5 3226,-466.42 3077.78,-421.74 2990.41,-399.83"/>
<polygon fill="midnightblue" stroke="midnightblue" points="2991.14,-396.41 2980.59,-397.4 2989.46,-403.2 2991.14,-396.41"/>
</g>
<!-- Node99 -->
<g id="node34" class="node">
<title>Node99</title>
<g id="a_node34"><a xlink:href="../../da/da4/master__slave__constraint_8h.html" target="_top" xlink:title=" ">
<polygon fill="none" stroke="red" points="1685,-738.5 1685,-768.5 1811,-768.5 1811,-738.5 1685,-738.5"/>
<text text-anchor="start" x="1693" y="-756.5" font-family="Helvetica,sans-Serif" font-size="10.00">includes/master_slave</text>
<text text-anchor="middle" x="1748" y="-745.5" font-family="Helvetica,sans-Serif" font-size="10.00">_constraint.h</text>
</a>
</g>
</g>
<!-- Node18&#45;&gt;Node99 -->
<g id="edge179" class="edge">
<title>Node18&#45;&gt;Node99</title>
<path fill="none" stroke="midnightblue" d="M1923.44,-919.56C1891.42,-913.69 1853.34,-902.47 1825,-881 1789.95,-854.45 1767.37,-806.93 1756.24,-778.3"/>
<polygon fill="midnightblue" stroke="midnightblue" points="1759.43,-776.82 1752.65,-768.68 1752.87,-779.27 1759.43,-776.82"/>
</g>
<!-- Node109 -->
<g id="node43" class="node">
<title>Node109</title>
<g id="a_node43"><a xlink:href="../../d0/dac/kratos__flags_8h.html" target="_top" xlink:title=" ">
<polygon fill="none" stroke="red" points="1365,-442 1365,-461 1493,-461 1493,-442 1365,-442"/>
<text text-anchor="middle" x="1429" y="-449" font-family="Helvetica,sans-Serif" font-size="10.00">includes/kratos_flags.h</text>
</a>
</g>
</g>
<!-- Node18&#45;&gt;Node109 -->
<g id="edge178" class="edge">
<title>Node18&#45;&gt;Node109</title>
<path fill="none" stroke="midnightblue" d="M1953.38,-917.39C1910.07,-903.75 1839,-872.74 1839,-816 1839,-816 1839,-816 1839,-691 1839,-537.37 1621.25,-480.99 1503.13,-461.71"/>
<polygon fill="midnightblue" stroke="midnightblue" points="1503.49,-458.23 1493.06,-460.12 1502.39,-465.14 1503.49,-458.23"/>
</g>
<!-- Node110 -->
<g id="node44" class="node">
<title>Node110</title>
<g id="a_node44"><a xlink:href="../../d3/dad/geometry__container_8h.html" target="_top" xlink:title=" ">
<polygon fill="none" stroke="black" points="1625,-436.5 1625,-466.5 1743,-466.5 1743,-436.5 1625,-436.5"/>
<text text-anchor="start" x="1633" y="-454.5" font-family="Helvetica,sans-Serif" font-size="10.00">containers/geometry</text>
<text text-anchor="middle" x="1684" y="-443.5" font-family="Helvetica,sans-Serif" font-size="10.00">_container.h</text>
</a>
</g>
</g>
<!-- Node18&#45;&gt;Node110 -->
<g id="edge148" class="edge">
<title>Node18&#45;&gt;Node110</title>
<path fill="none" stroke="midnightblue" d="M1975.22,-917.26C1955.35,-900.11 1915,-859.87 1915,-816 1915,-816 1915,-816 1915,-691 1915,-582.76 1790.73,-505 1724.48,-471.23"/>
<polygon fill="midnightblue" stroke="midnightblue" points="1725.66,-467.91 1715.15,-466.57 1722.54,-474.17 1725.66,-467.91"/>
</g>
<!-- Node111 -->
<g id="node45" class="node">
<title>Node111</title>
<g id="a_node45"><a xlink:href="../../da/d92/pointer__hash__map__set_8h.html" target="_top" xlink:title=" ">
<polygon fill="none" stroke="red" points="1081.5,-369.5 1081.5,-399.5 1186.5,-399.5 1186.5,-369.5 1081.5,-369.5"/>
<text text-anchor="start" x="1089.5" y="-387.5" font-family="Helvetica,sans-Serif" font-size="10.00">containers/pointer</text>
<text text-anchor="middle" x="1134" y="-376.5" font-family="Helvetica,sans-Serif" font-size="10.00">_hash_map_set.h</text>
</a>
</g>
</g>
<!-- Node18&#45;&gt;Node111 -->
<g id="edge176" class="edge">
<title>Node18&#45;&gt;Node111</title>
<path fill="none" stroke="midnightblue" d="M1923.3,-926.35C1774.59,-923.82 1396.32,-897.34 1174,-702 1088.83,-627.16 1114.29,-469.63 1127.92,-409.51"/>
<polygon fill="midnightblue" stroke="midnightblue" points="1131.32,-410.31 1130.22,-399.78 1124.51,-408.7 1131.32,-410.31"/>
</g>
<!-- Node112 -->
<g id="node46" class="node">
<title>Node112</title>
<g id="a_node46"><a xlink:href="../../d4/dfe/element_8h.html" target="_top" xlink:title=" ">
<polygon fill="none" stroke="red" points="2634,-744 2634,-763 2744,-763 2744,-744 2634,-744"/>
<text text-anchor="middle" x="2689" y="-751" font-family="Helvetica,sans-Serif" font-size="10.00">includes/element.h</text>
</a>
</g>
</g>
<!-- Node18&#45;&gt;Node112 -->
<g id="edge154" class="edge">
<title>Node18&#45;&gt;Node112</title>
<path fill="none" stroke="midnightblue" d="M2048.54,-924.94C2199.09,-921.91 2572.71,-911.39 2620,-881 2658.65,-856.17 2677.35,-801.87 2684.84,-773.16"/>
<polygon fill="midnightblue" stroke="midnightblue" points="2688.3,-773.75 2687.25,-763.21 2681.49,-772.1 2688.3,-773.75"/>
</g>
<!-- Node130 -->
<g id="node47" class="node">
<title>Node130</title>
<g id="a_node47"><a xlink:href="../../d7/d6c/condition_8h.html" target="_top" xlink:title=" ">
<polygon fill="none" stroke="red" points="2829,-682.5 2829,-701.5 2943,-701.5 2943,-682.5 2829,-682.5"/>
<text text-anchor="middle" x="2886" y="-689.5" font-family="Helvetica,sans-Serif" font-size="10.00">includes/condition.h</text>
</a>
</g>
</g>
<!-- Node18&#45;&gt;Node130 -->
<g id="edge157" class="edge">
<title>Node18&#45;&gt;Node130</title>
<path fill="none" stroke="midnightblue" d="M2048.81,-924.84C2242.74,-920.99 2820.88,-907.35 2851,-881 2899.91,-838.21 2894.49,-750.94 2889.22,-712.23"/>
<polygon fill="midnightblue" stroke="midnightblue" points="2892.61,-711.24 2887.66,-701.88 2885.69,-712.29 2892.61,-711.24"/>
</g>
<!-- Node131 -->
<g id="node48" class="node">
<title>Node131</title>
<g id="a_node48"><a xlink:href="../../d8/d75/communicator_8h.html" target="_top" xlink:title=" ">
<polygon fill="none" stroke="black" points="2702.5,-861.5 2702.5,-880.5 2841.5,-880.5 2841.5,-861.5 2702.5,-861.5"/>
<text text-anchor="middle" x="2772" y="-868.5" font-family="Helvetica,sans-Serif" font-size="10.00">includes/communicator.h</text>
</a>
</g>
</g>
<!-- Node18&#45;&gt;Node131 -->
<g id="edge160" class="edge">
<title>Node18&#45;&gt;Node131</title>
<path fill="none" stroke="midnightblue" d="M2048.56,-922.43C2169.33,-915.43 2443.02,-898.98 2673,-881 2679.21,-880.51 2685.64,-879.99 2692.1,-879.44"/>
<polygon fill="midnightblue" stroke="midnightblue" points="2692.58,-882.91 2702.25,-878.56 2691.98,-875.94 2692.58,-882.91"/>
</g>
<!-- Node115 -->
<g id="node49" class="node">
<title>Node115</title>
<g id="a_node49"><a xlink:href="../../dd/d98/table_8h.html" target="_top" xlink:title=" ">
<polygon fill="none" stroke="black" points="332,-509 332,-528 426,-528 426,-509 332,-509"/>
<text text-anchor="middle" x="379" y="-516" font-family="Helvetica,sans-Serif" font-size="10.00">includes/table.h</text>
</a>
</g>
</g>
<!-- Node18&#45;&gt;Node115 -->
<g id="edge169" class="edge">
<title>Node18&#45;&gt;Node115</title>
<path fill="none" stroke="midnightblue" d="M1923.37,-926.09C1647.9,-926.21 555.12,-924 497,-881 383.07,-796.71 377.24,-599.6 378.32,-538.14"/>
<polygon fill="midnightblue" stroke="midnightblue" points="381.83,-538.1 378.59,-528.01 374.83,-537.92 381.83,-538.1"/>
</g>
<!-- Node20&#45;&gt;Node2 -->
<g id="edge34" class="edge">
<title>Node20&#45;&gt;Node2</title>
<path fill="none" stroke="midnightblue" d="M1175.87,-307.98C1112.44,-295.44 995.89,-272.4 944.05,-262.15"/>
<polygon fill="midnightblue" stroke="midnightblue" points="944.5,-258.67 934.01,-260.17 943.15,-265.54 944.5,-258.67"/>
</g>
<!-- Node20&#45;&gt;Node4 -->
<g id="edge39" class="edge">
<title>Node20&#45;&gt;Node4</title>
<path fill="none" stroke="midnightblue" d="M1237.03,-308C1275.17,-290.08 1361.66,-249.78 1376,-246 1415.88,-235.49 1677.95,-214.65 1798.06,-205.49"/>
<polygon fill="midnightblue" stroke="midnightblue" points="1798.48,-208.97 1808.19,-204.72 1797.95,-201.99 1798.48,-208.97"/>
</g>
<!-- Node20&#45;&gt;Node6 -->
<g id="edge37" class="edge">
<title>Node20&#45;&gt;Node6</title>
<path fill="none" stroke="midnightblue" d="M1232.02,-307.85C1259.79,-289.45 1322.73,-247.9 1328,-246 1678.39,-119.64 1795.02,-223.24 2161,-154 2193.21,-147.91 2200.19,-141.92 2232,-134 2300.33,-116.99 2380.75,-100.28 2427.01,-90.99"/>
<polygon fill="midnightblue" stroke="midnightblue" points="2427.78,-94.41 2436.9,-89.01 2426.4,-87.54 2427.78,-94.41"/>
</g>
<!-- Node20&#45;&gt;Node9 -->
<g id="edge38" class="edge">
<title>Node20&#45;&gt;Node9</title>
<path fill="none" stroke="midnightblue" d="M1218.89,-307.79C1219.2,-292.97 1222.03,-262.85 1239,-246 1305.42,-180.06 1350.28,-208.65 1442,-190 1561.07,-165.79 1605.57,-210.75 1713,-154 1758.92,-129.74 1746.97,-94.54 1791,-67 1833.35,-40.51 1889.97,-27.55 1927.64,-21.46"/>
<polygon fill="midnightblue" stroke="midnightblue" points="1928.38,-24.89 1937.74,-19.92 1927.33,-17.97 1928.38,-24.89"/>
</g>
<!-- Node20&#45;&gt;Node14 -->
<g id="edge35" class="edge">
<title>Node20&#45;&gt;Node14</title>
<path fill="none" stroke="midnightblue" d="M1201.27,-307.94C1181.3,-298.19 1147.98,-281.59 1120,-266 1105.02,-257.65 1103.34,-251.21 1087,-246 981.28,-212.31 675.59,-279.37 589,-210 537.2,-168.51 590.92,-115.85 546,-67 520.94,-39.75 479.32,-26.99 450.36,-21.16"/>
<polygon fill="midnightblue" stroke="midnightblue" points="450.79,-17.68 440.32,-19.31 449.53,-24.56 450.79,-17.68"/>
</g>
<!-- Node21 -->
<g id="node21" class="node">
<title>Node21</title>
<g id="a_node21"><a xlink:title=" ">
<polygon fill="none" stroke="#bfbfbf" points="1248,-246.5 1248,-265.5 1286,-265.5 1286,-246.5 1248,-246.5"/>
<text text-anchor="middle" x="1267" y="-253.5" font-family="Helvetica,sans-Serif" font-size="10.00">map</text>
</a>
</g>
</g>
<!-- Node20&#45;&gt;Node21 -->
<g id="edge33" class="edge">
<title>Node20&#45;&gt;Node21</title>
<path fill="none" stroke="midnightblue" d="M1225.88,-307.98C1233.15,-298.96 1244.8,-284.52 1253.84,-273.31"/>
<polygon fill="midnightblue" stroke="midnightblue" points="1256.58,-275.49 1260.14,-265.51 1251.13,-271.09 1256.58,-275.49"/>
</g>
<!-- Node22 -->
<g id="node22" class="node">
<title>Node22</title>
<g id="a_node22"><a xlink:title=" ">
<polygon fill="none" stroke="#bfbfbf" points="1028,-246.5 1028,-265.5 1078,-265.5 1078,-246.5 1028,-246.5"/>
<text text-anchor="middle" x="1053" y="-253.5" font-family="Helvetica,sans-Serif" font-size="10.00">cstring</text>
</a>
</g>
</g>
<!-- Node20&#45;&gt;Node22 -->
<g id="edge36" class="edge">
<title>Node20&#45;&gt;Node22</title>
<path fill="none" stroke="midnightblue" d="M1195.22,-307.98C1166.62,-297.72 1118.45,-280.46 1086.2,-268.9"/>
<polygon fill="midnightblue" stroke="midnightblue" points="1087.33,-265.59 1076.74,-265.51 1084.97,-272.18 1087.33,-265.59"/>
</g>
<!-- Node20&#45;&gt;Node26 -->
<g id="edge40" class="edge">
<title>Node20&#45;&gt;Node26</title>
<path fill="none" stroke="midnightblue" d="M1210.39,-307.9C1194.28,-292.41 1157.75,-260.12 1120,-246 1050.1,-219.85 839.51,-207.98 728.4,-203.42"/>
<polygon fill="midnightblue" stroke="midnightblue" points="728.42,-199.92 718.29,-203.02 728.14,-206.91 728.42,-199.92"/>
</g>
<!-- Node30 -->
<g id="node24" class="node">
<title>Node30</title>
<g id="a_node24"><a xlink:href="../../d9/da0/flags_8h.html" target="_top" xlink:title=" ">
<polygon fill="none" stroke="black" points="1418.5,-246.5 1418.5,-265.5 1521.5,-265.5 1521.5,-246.5 1418.5,-246.5"/>
<text text-anchor="middle" x="1470" y="-253.5" font-family="Helvetica,sans-Serif" font-size="10.00">containers/flags.h</text>
</a>
</g>
</g>
<!-- Node20&#45;&gt;Node30 -->
<g id="edge44" class="edge">
<title>Node20&#45;&gt;Node30</title>
<path fill="none" stroke="midnightblue" d="M1254.96,-307.98C1299.51,-297.42 1375.46,-279.41 1424.15,-267.87"/>
<polygon fill="midnightblue" stroke="midnightblue" points="1425.18,-271.22 1434.1,-265.51 1423.57,-264.41 1425.18,-271.22"/>
</g>
<!-- Node26&#45;&gt;Node9 -->
<g id="edge42" class="edge">
<title>Node26&#45;&gt;Node9</title>
<path fill="none" stroke="midnightblue" d="M655.45,-190.29C649.06,-166.5 635.29,-99.96 670,-67 716.69,-22.67 1713.22,-17.24 1927.6,-16.59"/>
<polygon fill="midnightblue" stroke="midnightblue" points="1927.79,-20.09 1937.78,-16.56 1927.77,-13.09 1927.79,-20.09"/>
</g>
<!-- Node26&#45;&gt;Node13 -->
<g id="edge43" class="edge">
<title>Node26&#45;&gt;Node13</title>
<path fill="none" stroke="midnightblue" d="M718.29,-196.73C949.43,-188.03 1778.33,-156.84 2023.95,-147.6"/>
<polygon fill="midnightblue" stroke="midnightblue" points="2024.3,-151.09 2034.16,-147.21 2024.04,-144.09 2024.3,-151.09"/>
</g>
<!-- Node26&#45;&gt;Node14 -->
<g id="edge41" class="edge">
<title>Node26&#45;&gt;Node14</title>
<path fill="none" stroke="midnightblue" d="M652.96,-190.4C647.69,-181.37 639.19,-166.73 632,-154 610.29,-115.55 618.31,-94.8 584,-67 544.91,-35.33 486.17,-23.49 450.06,-19.08"/>
<polygon fill="midnightblue" stroke="midnightblue" points="450.39,-15.6 440.07,-17.98 449.62,-22.56 450.39,-15.6"/>
</g>
<!-- Node30&#45;&gt;Node4 -->
<g id="edge47" class="edge">
<title>Node30&#45;&gt;Node4</title>
<path fill="none" stroke="midnightblue" d="M1521.63,-247.86C1585.57,-239 1697.82,-223.44 1794,-210 1795.46,-209.8 1796.94,-209.59 1798.43,-209.38"/>
<polygon fill="midnightblue" stroke="midnightblue" points="1798.97,-212.84 1808.39,-207.99 1798,-205.91 1798.97,-212.84"/>
</g>
<!-- Node30&#45;&gt;Node9 -->
<g id="edge46" class="edge">
<title>Node30&#45;&gt;Node9</title>
<path fill="none" stroke="midnightblue" d="M1510.61,-246.4C1566.94,-233.13 1670.39,-203.85 1746,-154 1790.36,-124.75 1783.57,-96.14 1828,-67 1858.73,-46.84 1898.53,-33.49 1927.83,-25.61"/>
<polygon fill="midnightblue" stroke="midnightblue" points="1928.92,-28.95 1937.73,-23.05 1927.17,-22.17 1928.92,-28.95"/>
</g>
<!-- Node30&#45;&gt;Node14 -->
<g id="edge45" class="edge">
<title>Node30&#45;&gt;Node14</title>
<path fill="none" stroke="midnightblue" d="M1446.83,-246.42C1365.48,-216.64 1084.9,-116.87 845,-67 699.71,-36.8 522.58,-23.05 450.67,-18.41"/>
<polygon fill="midnightblue" stroke="midnightblue" points="450.65,-14.91 440.45,-17.77 450.21,-21.89 450.65,-14.91"/>
</g>
<!-- Node57&#45;&gt;Node4 -->
<g id="edge53" class="edge">
<title>Node57&#45;&gt;Node4</title>
<path fill="none" stroke="midnightblue" d="M2187.11,-570.27C2187.07,-532.31 2181.73,-380.05 2101,-302 2064.32,-266.54 2039.28,-285.18 1992,-266 1952.95,-250.16 1909.31,-228.14 1882.75,-214.23"/>
<polygon fill="midnightblue" stroke="midnightblue" points="1884.26,-211.07 1873.78,-209.5 1880.99,-217.26 1884.26,-211.07"/>
</g>
<!-- Node57&#45;&gt;Node6 -->
<g id="edge51" class="edge">
<title>Node57&#45;&gt;Node6</title>
<path fill="none" stroke="midnightblue" d="M2215.71,-570.49C2235.53,-563.41 2261.39,-551.6 2279,-534 2313.3,-499.71 2293.47,-471.04 2327,-436 2350.1,-411.86 2375.94,-428.73 2393,-400 2400.03,-388.15 2394.39,-382.71 2393,-369 2387.86,-318.44 2370,-307.82 2370,-257 2370,-257 2370,-257 2370,-199 2370,-154.02 2413.51,-117.02 2441.64,-97.8"/>
<polygon fill="midnightblue" stroke="midnightblue" points="2443.72,-100.62 2450.16,-92.2 2439.88,-94.77 2443.72,-100.62"/>
</g>
<!-- Node57&#45;&gt;Node9 -->
<g id="edge50" class="edge">
<title>Node57&#45;&gt;Node9</title>
<path fill="none" stroke="midnightblue" d="M2190.8,-570.23C2213.53,-516.37 2326.1,-227.29 2197,-67 2173.75,-38.14 2067.74,-24.78 2008.45,-19.48"/>
<polygon fill="midnightblue" stroke="midnightblue" points="2008.57,-15.98 1998.3,-18.61 2007.97,-22.95 2008.57,-15.98"/>
</g>
<!-- Node57&#45;&gt;Node14 -->
<g id="edge49" class="edge">
<title>Node57&#45;&gt;Node14</title>
<path fill="none" stroke="midnightblue" d="M2121.43,-577.82C1793.17,-571.88 343.13,-545.04 323,-534 224.32,-479.87 190,-431.05 190,-318.5 190,-318.5 190,-318.5 190,-143 190,-54.63 322.57,-27.48 385.53,-19.56"/>
<polygon fill="midnightblue" stroke="midnightblue" points="386.2,-23.01 395.72,-18.37 385.39,-16.06 386.2,-23.01"/>
</g>
<!-- Node57&#45;&gt;Node19 -->
<g id="edge52" class="edge">
<title>Node57&#45;&gt;Node19</title>
<path fill="none" stroke="midnightblue" d="M2184.02,-570.36C2176.08,-547.69 2153.18,-484.89 2127,-436 2106.88,-398.44 2078.07,-357.65 2061.68,-335.37"/>
<polygon fill="midnightblue" stroke="midnightblue" points="2064.44,-333.22 2055.67,-327.28 2058.83,-337.39 2064.44,-333.22"/>
</g>
<!-- Node57&#45;&gt;Node30 -->
<g id="edge72" class="edge">
<title>Node57&#45;&gt;Node30</title>
<path fill="none" stroke="midnightblue" d="M2177.68,-570.48C2160.3,-554.99 2121.22,-522.06 2083,-503 1941.7,-432.53 1889.14,-459.79 1743,-400 1646.4,-360.48 1538.51,-298.16 1492.62,-270.73"/>
<polygon fill="midnightblue" stroke="midnightblue" points="1494.42,-267.73 1484.04,-265.58 1490.81,-273.73 1494.42,-267.73"/>
</g>
<!-- Node57&#45;&gt;Node58 -->
<g id="edge54" class="edge">
<title>Node57&#45;&gt;Node58</title>
<path fill="none" stroke="midnightblue" d="M2161.78,-570.48C2135.94,-561.74 2095.03,-547.91 2062.34,-536.86"/>
<polygon fill="midnightblue" stroke="midnightblue" points="2063.07,-533.41 2052.48,-533.52 2060.83,-540.04 2063.07,-533.41"/>
</g>
<!-- Node58&#45;&gt;Node4 -->
<g id="edge59" class="edge">
<title>Node58&#45;&gt;Node4</title>
<path fill="none" stroke="midnightblue" d="M2019.14,-503.48C2043.32,-460.99 2111.38,-334.59 2085,-302 2036.68,-242.31 1982.41,-304.56 1916,-266 1895.85,-254.3 1878.95,-233.15 1868.69,-218.15"/>
<polygon fill="midnightblue" stroke="midnightblue" points="1871.59,-216.2 1863.18,-209.75 1865.73,-220.04 1871.59,-216.2"/>
</g>
<!-- Node58&#45;&gt;Node9 -->
<g id="edge56" class="edge">
<title>Node58&#45;&gt;Node9</title>
<path fill="none" stroke="midnightblue" d="M2011.14,-503.37C2011.5,-447.52 2010.72,-237.01 1982,-67 1980.17,-56.18 1976.96,-44.35 1974.07,-34.86"/>
<polygon fill="midnightblue" stroke="midnightblue" points="1977.4,-33.79 1971.04,-25.31 1970.73,-35.9 1977.4,-33.79"/>
</g>
<!-- Node58&#45;&gt;Node13 -->
<g id="edge71" class="edge">
<title>Node58&#45;&gt;Node13</title>
<path fill="none" stroke="midnightblue" d="M2027.52,-503.26C2037.82,-493.75 2050.82,-480.55 2060,-467 2078.31,-439.99 2080.61,-431.25 2090,-400 2115.56,-314.94 2102.9,-206.6 2096.23,-163.7"/>
<polygon fill="midnightblue" stroke="midnightblue" points="2099.65,-162.92 2094.58,-153.62 2092.74,-164.06 2099.65,-162.92"/>
</g>
<!-- Node58&#45;&gt;Node14 -->
<g id="edge55" class="edge">
<title>Node58&#45;&gt;Node14</title>
<path fill="none" stroke="midnightblue" d="M1948.49,-514.4C1729.48,-503.1 997.93,-461.54 772,-400 597.86,-352.57 418,-381.49 418,-201 418,-201 418,-201 418,-143 418,-104.7 418,-59.88 418,-35.2"/>
<polygon fill="midnightblue" stroke="midnightblue" points="421.5,-35.09 418,-25.09 414.5,-35.09 421.5,-35.09"/>
</g>
<!-- Node58&#45;&gt;Node15 -->
<g id="edge58" class="edge">
<title>Node58&#45;&gt;Node15</title>
<path fill="none" stroke="midnightblue" d="M2073.77,-514.62C2291.11,-504.17 3010.26,-465.34 3231,-400 3363.09,-360.9 3506,-394.76 3506,-257 3506,-257 3506,-257 3506,-143 3506,-107.58 3507.83,-91.24 3482,-67 3457.55,-44.05 3363.02,-28.02 3311.66,-20.8"/>
<polygon fill="midnightblue" stroke="midnightblue" points="3312.08,-17.33 3301.7,-19.44 3311.13,-24.26 3312.08,-17.33"/>
</g>
<!-- Node58&#45;&gt;Node19 -->
<g id="edge57" class="edge">
<title>Node58&#45;&gt;Node19</title>
<path fill="none" stroke="midnightblue" d="M2012.78,-503.31C2014.89,-487.02 2018.68,-459.49 2023,-436 2029.5,-400.68 2038.99,-359.82 2044.53,-336.79"/>
<polygon fill="midnightblue" stroke="midnightblue" points="2047.94,-337.55 2046.9,-327.01 2041.14,-335.9 2047.94,-337.55"/>
</g>
<!-- Node58&#45;&gt;Node59 -->
<g id="edge60" class="edge">
<title>Node58&#45;&gt;Node59</title>
<path fill="none" stroke="midnightblue" d="M1948.44,-514.07C1745.55,-502.96 1106.71,-467.98 893.81,-456.32"/>
<polygon fill="midnightblue" stroke="midnightblue" points="893.87,-452.82 883.7,-455.77 893.49,-459.81 893.87,-452.82"/>
</g>
<!-- Node59&#45;&gt;Node4 -->
<g id="edge63" class="edge">
<title>Node59&#45;&gt;Node4</title>
<path fill="none" stroke="midnightblue" d="M837.01,-441.78C849.85,-432.64 869.35,-417.21 882,-400 910.17,-361.68 897.33,-340.69 925,-302 946.41,-272.06 952.06,-260.23 986,-246 1060.39,-214.8 1613.9,-204.37 1798.37,-201.75"/>
<polygon fill="midnightblue" stroke="midnightblue" points="1798.48,-205.24 1808.43,-201.6 1798.39,-198.24 1798.48,-205.24"/>
</g>
<!-- Node59&#45;&gt;Node9 -->
<g id="edge62" class="edge">
<title>Node59&#45;&gt;Node9</title>
<path fill="none" stroke="midnightblue" d="M809.89,-441.68C797.28,-432.88 779.65,-418.08 772,-400 752.46,-353.78 779.07,-284.05 808,-246 826.36,-221.85 842.76,-229.5 866,-210 931.34,-155.17 917.06,-103.81 994,-67 1079.14,-26.27 1754.77,-18.18 1927.76,-16.77"/>
<polygon fill="midnightblue" stroke="midnightblue" points="1927.99,-20.27 1937.96,-16.69 1927.93,-13.27 1927.99,-20.27"/>
</g>
<!-- Node59&#45;&gt;Node14 -->
<g id="edge61" class="edge">
<title>Node59&#45;&gt;Node14</title>
<path fill="none" stroke="midnightblue" d="M773.19,-441.92C732.17,-433.99 673.49,-420.32 625,-400 495.62,-345.79 380,-341.28 380,-201 380,-201 380,-201 380,-143 380,-102.85 397.78,-58.45 409.01,-34.39"/>
<polygon fill="midnightblue" stroke="midnightblue" points="412.29,-35.65 413.49,-25.13 405.99,-32.6 412.29,-35.65"/>
</g>
<!-- Node59&#45;&gt;Node17 -->
<g id="edge70" class="edge">
<title>Node59&#45;&gt;Node17</title>
<path fill="none" stroke="midnightblue" d="M883.83,-448.72C982.29,-445.82 1184.65,-440 1356,-436 1407.41,-434.8 3170.18,-435.9 3207,-400 3294.9,-314.3 3168.58,-151.26 3124.33,-99.61"/>
<polygon fill="midnightblue" stroke="midnightblue" points="3126.96,-97.3 3117.75,-92.05 3121.68,-101.9 3126.96,-97.3"/>
</g>
<!-- Node59&#45;&gt;Node74 -->
<g id="edge64" class="edge">
<title>Node59&#45;&gt;Node74</title>
<path fill="none" stroke="midnightblue" d="M824.4,-441.73C824.85,-432.18 825.56,-416.62 826.13,-404.28"/>
<polygon fill="midnightblue" stroke="midnightblue" points="829.64,-404.28 826.6,-394.13 822.64,-403.96 829.64,-404.28"/>
</g>
<!-- Node74&#45;&gt;Node4 -->
<g id="edge68" class="edge">
<title>Node74&#45;&gt;Node4</title>
<path fill="none" stroke="midnightblue" d="M828.14,-374.75C831.93,-349.56 846.64,-276.7 893,-246 930.8,-220.97 1593.27,-206.12 1798.13,-202.11"/>
<polygon fill="midnightblue" stroke="midnightblue" points="1798.47,-205.6 1808.4,-201.91 1798.33,-198.6 1798.47,-205.6"/>
</g>
<!-- Node74&#45;&gt;Node9 -->
<g id="edge66" class="edge">
<title>Node74&#45;&gt;Node9</title>
<path fill="none" stroke="midnightblue" d="M823.46,-374.8C814.6,-351.54 794.13,-286.84 822,-246 846.75,-209.73 878.03,-235.18 914,-210 983.39,-161.42 963.78,-103.95 1040,-67 1120.62,-27.91 1759.91,-18.64 1927.76,-16.87"/>
<polygon fill="midnightblue" stroke="midnightblue" points="1927.93,-20.36 1937.9,-16.76 1927.86,-13.36 1927.93,-20.36"/>
</g>
<!-- Node74&#45;&gt;Node14 -->
<g id="edge65" class="edge">
<title>Node74&#45;&gt;Node14</title>
<path fill="none" stroke="midnightblue" d="M804.07,-374.9C723.19,-344.23 456,-239.99 456,-201 456,-201 456,-201 456,-143 456,-102.85 438.22,-58.45 426.99,-34.39"/>
<polygon fill="midnightblue" stroke="midnightblue" points="430.01,-32.6 422.51,-25.13 423.71,-35.65 430.01,-32.6"/>
</g>
<!-- Node74&#45;&gt;Node19 -->
<g id="edge67" class="edge">
<title>Node74&#45;&gt;Node19</title>
<path fill="none" stroke="midnightblue" d="M873.24,-380.68C922.68,-377.68 1003.37,-372.85 1073,-369 1439.22,-348.73 1882.89,-326.68 2012.07,-320.31"/>
<polygon fill="midnightblue" stroke="midnightblue" points="2012.4,-323.8 2022.21,-319.82 2012.05,-316.81 2012.4,-323.8"/>
</g>
<!-- Node74&#45;&gt;Node20 -->
<g id="edge69" class="edge">
<title>Node74&#45;&gt;Node20</title>
<path fill="none" stroke="midnightblue" d="M873.12,-375.85C943.62,-364.16 1078.31,-341.83 1157.2,-328.75"/>
<polygon fill="midnightblue" stroke="midnightblue" points="1158.18,-332.13 1167.47,-327.04 1157.03,-325.23 1158.18,-332.13"/>
</g>
<!-- Node83&#45;&gt;Node4 -->
<g id="edge79" class="edge">
<title>Node83&#45;&gt;Node4</title>
<path fill="none" stroke="midnightblue" d="M2281.83,-805.36C2286.48,-796.54 2293.21,-782.28 2296,-769 2302.13,-739.86 2296.78,-731.78 2297,-702 2298.12,-551.93 2327.12,-491.91 2241,-369 2165.55,-261.32 2005.21,-221.92 1917.82,-208.08"/>
<polygon fill="midnightblue" stroke="midnightblue" points="1918.21,-204.6 1907.8,-206.55 1917.16,-211.52 1918.21,-204.6"/>
</g>
<!-- Node83&#45;&gt;Node6 -->
<g id="edge77" class="edge">
<title>Node83&#45;&gt;Node6</title>
<path fill="none" stroke="midnightblue" d="M2318.84,-805.49C2371.07,-794.65 2455.14,-776.45 2468,-769 2484.19,-759.62 2576.13,-663.4 2583,-646 2663.83,-441.21 2517.66,-171.57 2475.75,-101"/>
<polygon fill="midnightblue" stroke="midnightblue" points="2478.53,-98.82 2470.37,-92.07 2472.53,-102.44 2478.53,-98.82"/>
</g>
<!-- Node83&#45;&gt;Node9 -->
<g id="edge76" class="edge">
<title>Node83&#45;&gt;Node9</title>
<path fill="none" stroke="midnightblue" d="M2286.98,-805.43C2344.96,-754.59 2636,-485.28 2636,-201 2636,-201 2636,-201 2636,-143 2636,-74.53 2567.31,-87.57 2502,-67 2455.27,-52.28 2124.55,-27.64 2008.3,-19.33"/>
<polygon fill="midnightblue" stroke="midnightblue" points="2008.27,-15.82 1998.05,-18.6 2007.78,-22.8 2008.27,-15.82"/>
</g>
<!-- Node83&#45;&gt;Node14 -->
<g id="edge75" class="edge">
<title>Node83&#45;&gt;Node14</title>
<path fill="none" stroke="midnightblue" d="M2228.86,-813.69C2087.57,-812.36 1661.9,-805.38 1311,-769 888.85,-725.23 785.37,-690.39 373,-590 217.28,-552.09 76,-545.76 76,-385.5 76,-385.5 76,-385.5 76,-143 76,-103.28 90.07,-89.2 123,-67 165.63,-38.25 318.66,-23.77 385.91,-18.68"/>
<polygon fill="midnightblue" stroke="midnightblue" points="386.22,-22.17 395.94,-17.94 385.71,-15.19 386.22,-22.17"/>
</g>
<!-- Node83&#45;&gt;Node19 -->
<g id="edge78" class="edge">
<title>Node83&#45;&gt;Node19</title>
<path fill="none" stroke="midnightblue" d="M2278.24,-805.2C2282.45,-772.68 2294.25,-656.72 2262,-570 2221.9,-462.15 2113.37,-368.55 2068.66,-333.36"/>
<polygon fill="midnightblue" stroke="midnightblue" points="2070.65,-330.48 2060.61,-327.12 2066.36,-336.01 2070.65,-330.48"/>
</g>
<!-- Node83&#45;&gt;Node30 -->
<g id="edge98" class="edge">
<title>Node83&#45;&gt;Node30</title>
<path fill="none" stroke="midnightblue" d="M2228.73,-813.66C2044.76,-811.66 1388.87,-797.81 1208,-702 1075.97,-632.06 1142.59,-468.55 1254,-369 1278.92,-346.74 1292.52,-352.01 1320,-333 1337.37,-320.99 1337.93,-312.92 1356,-302 1379.48,-287.82 1408.22,-276.51 1430.97,-268.77"/>
<polygon fill="midnightblue" stroke="midnightblue" points="1432.25,-272.04 1440.64,-265.58 1430.05,-265.39 1432.25,-272.04"/>
</g>
<!-- Node83&#45;&gt;Node58 -->
<g id="edge99" class="edge">
<title>Node83&#45;&gt;Node58</title>
<path fill="none" stroke="midnightblue" d="M2270.25,-805.17C2245.17,-772.55 2154.36,-656.25 2069,-570 2058.85,-559.74 2046.93,-549.14 2036.54,-540.32"/>
<polygon fill="midnightblue" stroke="midnightblue" points="2038.52,-537.41 2028.61,-533.66 2034.02,-542.77 2038.52,-537.41"/>
</g>
<!-- Node84 -->
<g id="node30" class="node">
<title>Node84</title>
<g id="a_node30"><a xlink:href="../../d4/d35/pointer__vector__set_8h.html" target="_top" xlink:title=" ">
<polygon fill="none" stroke="red" points="1751.5,-369.5 1751.5,-399.5 1856.5,-399.5 1856.5,-369.5 1751.5,-369.5"/>
<text text-anchor="start" x="1759.5" y="-387.5" font-family="Helvetica,sans-Serif" font-size="10.00">containers/pointer</text>
<text text-anchor="middle" x="1804" y="-376.5" font-family="Helvetica,sans-Serif" font-size="10.00">_vector_set.h</text>
</a>
</g>
</g>
<!-- Node83&#45;&gt;Node84 -->
<g id="edge80" class="edge">
<title>Node83&#45;&gt;Node84</title>
<path fill="none" stroke="midnightblue" d="M2264.23,-805.33C2251.34,-796.48 2230.98,-782.2 2214,-769 2087.33,-670.54 2053.83,-647.05 1940,-534 1896.47,-490.77 1848.71,-437.02 1822.97,-407.49"/>
<polygon fill="midnightblue" stroke="midnightblue" points="1825.52,-405.09 1816.32,-399.83 1820.24,-409.68 1825.52,-405.09"/>
</g>
<!-- Node83&#45;&gt;Node87 -->
<g id="edge90" class="edge">
<title>Node83&#45;&gt;Node87</title>
<path fill="none" stroke="midnightblue" d="M2325.02,-812.05C2373.11,-808.42 2448.08,-798.12 2506,-769 2693.07,-674.95 2859.08,-474.53 2911.14,-407.71"/>
<polygon fill="midnightblue" stroke="midnightblue" points="2914.11,-409.59 2917.45,-399.53 2908.57,-405.31 2914.11,-409.59"/>
</g>
<!-- Node83&#45;&gt;Node99 -->
<g id="edge100" class="edge">
<title>Node83&#45;&gt;Node99</title>
<path fill="none" stroke="midnightblue" d="M2228.65,-808.56C2135.65,-798.1 1931.35,-775.12 1821.44,-762.76"/>
<polygon fill="midnightblue" stroke="midnightblue" points="1821.75,-759.27 1811.42,-761.63 1820.97,-766.23 1821.75,-759.27"/>
</g>
<!-- Node84&#45;&gt;Node4 -->
<g id="edge88" class="edge">
<title>Node84&#45;&gt;Node4</title>
<path fill="none" stroke="midnightblue" d="M1808.15,-369.48C1817.77,-336.96 1841.62,-256.34 1852.47,-219.68"/>
<polygon fill="midnightblue" stroke="midnightblue" points="1855.91,-220.4 1855.39,-209.82 1849.2,-218.41 1855.91,-220.4"/>
</g>
<!-- Node84&#45;&gt;Node6 -->
<g id="edge84" class="edge">
<title>Node84&#45;&gt;Node6</title>
<path fill="none" stroke="midnightblue" d="M1830.24,-369.34C1848.33,-359.44 1872.82,-345.76 1894,-333 1915.75,-319.89 1919.53,-313.83 1942,-302 2034.81,-253.14 2335.72,-134.14 2433.79,-95.69"/>
<polygon fill="midnightblue" stroke="midnightblue" points="2435.12,-98.93 2443.16,-92.02 2432.57,-92.41 2435.12,-98.93"/>
</g>
<!-- Node84&#45;&gt;Node9 -->
<g id="edge83" class="edge">
<title>Node84&#45;&gt;Node9</title>
<path fill="none" stroke="midnightblue" d="M1818.84,-369.28C1859.21,-330.3 1968,-223.2 1968,-201 1968,-201 1968,-201 1968,-143 1968,-104.7 1968,-59.88 1968,-35.2"/>
<polygon fill="midnightblue" stroke="midnightblue" points="1971.5,-35.09 1968,-25.09 1964.5,-35.09 1971.5,-35.09"/>
</g>
<!-- Node84&#45;&gt;Node10 -->
<g id="edge86" class="edge">
<title>Node84&#45;&gt;Node10</title>
<path fill="none" stroke="midnightblue" d="M1778.75,-369.38C1725.96,-338.32 1604.46,-258.43 1552,-154 1543.9,-137.88 1542.79,-117.1 1543.31,-102.29"/>
<polygon fill="midnightblue" stroke="midnightblue" points="1546.8,-102.49 1543.94,-92.29 1539.82,-102.05 1546.8,-102.49"/>
</g>
<!-- Node84&#45;&gt;Node14 -->
<g id="edge82" class="edge">
<title>Node84&#45;&gt;Node14</title>
<path fill="none" stroke="midnightblue" d="M1751.24,-381.82C1541.58,-374.28 769.01,-338.13 567,-210 499.74,-167.34 508.11,-129.7 459,-67 449.95,-55.45 439.53,-42.61 431.45,-32.77"/>
<polygon fill="midnightblue" stroke="midnightblue" points="434.11,-30.5 425.06,-25 428.71,-34.95 434.11,-30.5"/>
</g>
<!-- Node84&#45;&gt;Node15 -->
<g id="edge81" class="edge">
<title>Node84&#45;&gt;Node15</title>
<path fill="none" stroke="midnightblue" d="M1839.62,-369.46C1897.2,-346.81 2005.19,-304.45 2014,-302 2522.09,-160.57 2706.03,-323.08 3183,-98 3216.38,-82.25 3247.29,-51.52 3264.31,-32.62"/>
<polygon fill="midnightblue" stroke="midnightblue" points="3266.95,-34.92 3270.92,-25.1 3261.69,-30.3 3266.95,-34.92"/>
</g>
<!-- Node84&#45;&gt;Node19 -->
<g id="edge85" class="edge">
<title>Node84&#45;&gt;Node19</title>
<path fill="none" stroke="midnightblue" d="M1856.56,-369.56C1903.48,-357.11 1970.99,-339.2 2012.32,-328.23"/>
<polygon fill="midnightblue" stroke="midnightblue" points="2013.46,-331.55 2022.23,-325.6 2011.67,-324.78 2013.46,-331.55"/>
</g>
<!-- Node84&#45;&gt;Node20 -->
<g id="edge89" class="edge">
<title>Node84&#45;&gt;Node20</title>
<path fill="none" stroke="midnightblue" d="M1751.31,-377.65C1644.61,-365.79 1403.16,-338.96 1285.69,-325.91"/>
<polygon fill="midnightblue" stroke="midnightblue" points="1286.06,-322.43 1275.74,-324.8 1285.29,-329.39 1286.06,-322.43"/>
</g>
<!-- Node85 -->
<g id="node31" class="node">
<title>Node85</title>
<g id="a_node31"><a xlink:title=" ">
<polygon fill="none" stroke="#bfbfbf" points="2664,-302.5 2664,-332.5 2786,-332.5 2786,-302.5 2664,-302.5"/>
<text text-anchor="start" x="2672" y="-320.5" font-family="Helvetica,sans-Serif" font-size="10.00">boost/iterator/indirect</text>
<text text-anchor="middle" x="2725" y="-309.5" font-family="Helvetica,sans-Serif" font-size="10.00">_iterator.hpp</text>
</a>
</g>
</g>
<!-- Node84&#45;&gt;Node85 -->
<g id="edge87" class="edge">
<title>Node84&#45;&gt;Node85</title>
<path fill="none" stroke="midnightblue" d="M1856.82,-379.77C2013.46,-368.72 2475.52,-336.11 2653.75,-323.53"/>
<polygon fill="midnightblue" stroke="midnightblue" points="2654.08,-327.01 2663.81,-322.82 2653.58,-320.03 2654.08,-327.01"/>
</g>
<!-- Node87&#45;&gt;Node4 -->
<g id="edge97" class="edge">
<title>Node87&#45;&gt;Node4</title>
<path fill="none" stroke="midnightblue" d="M2910.77,-369.45C2886.56,-350.56 2840.34,-317.56 2795,-302 2712.04,-273.54 2110.75,-221.9 1917.58,-205.88"/>
<polygon fill="midnightblue" stroke="midnightblue" points="1917.86,-202.39 1907.61,-205.05 1917.28,-209.36 1917.86,-202.39"/>
</g>
<!-- Node87&#45;&gt;Node6 -->
<g id="edge95" class="edge">
<title>Node87&#45;&gt;Node6</title>
<path fill="none" stroke="midnightblue" d="M2927.18,-369.24C2925.47,-351.6 2920.21,-321.52 2904,-302 2795.12,-170.92 2588.14,-111.25 2503.02,-91.44"/>
<polygon fill="midnightblue" stroke="midnightblue" points="2503.55,-87.98 2493.02,-89.17 2501.99,-94.8 2503.55,-87.98"/>
</g>
<!-- Node87&#45;&gt;Node9 -->
<g id="edge94" class="edge">
<title>Node87&#45;&gt;Node9</title>
<path fill="none" stroke="midnightblue" d="M2935.01,-369.23C2949.21,-338.99 2980,-265.9 2980,-201 2980,-201 2980,-201 2980,-143 2980,0.15 2808.43,-89.12 2667,-67 2601.98,-56.83 2147.56,-27.78 2008.41,-19.03"/>
<polygon fill="midnightblue" stroke="midnightblue" points="2008.38,-15.52 1998.18,-18.38 2007.94,-22.5 2008.38,-15.52"/>
</g>
<!-- Node87&#45;&gt;Node14 -->
<g id="edge93" class="edge">
<title>Node87&#45;&gt;Node14</title>
<path fill="none" stroke="midnightblue" d="M2917.26,-369.26C2902.23,-350.46 2873.02,-317.9 2840,-302 2690.55,-230.02 2635.57,-266.79 2471,-246 2225.47,-214.98 2163.25,-214.59 1917,-190 1754.8,-173.8 1713.88,-173.14 1552,-154 1270.86,-120.77 1202.11,-100.48 921,-67 743.71,-45.89 530.56,-26.44 450.49,-19.34"/>
<polygon fill="midnightblue" stroke="midnightblue" points="450.36,-15.82 440.1,-18.42 449.75,-22.79 450.36,-15.82"/>
</g>
<!-- Node87&#45;&gt;Node15 -->
<g id="edge91" class="edge">
<title>Node87&#45;&gt;Node15</title>
<path fill="none" stroke="midnightblue" d="M2941.4,-369.31C2958.91,-351.47 2991.24,-320.9 3024,-302 3065.28,-278.19 3082.44,-287.44 3125,-266 3204.82,-225.8 3249.94,-232.85 3292,-154 3312.54,-115.5 3296.83,-62.31 3286.01,-34.73"/>
<polygon fill="midnightblue" stroke="midnightblue" points="3289.12,-33.09 3282.06,-25.2 3282.65,-35.77 3289.12,-33.09"/>
</g>
<!-- Node87&#45;&gt;Node19 -->
<g id="edge96" class="edge">
<title>Node87&#45;&gt;Node19</title>
<path fill="none" stroke="midnightblue" d="M2875.35,-370.55C2872.2,-369.97 2869.06,-369.45 2866,-369 2567.06,-325.12 2201.14,-319.29 2085.69,-318.58"/>
<polygon fill="midnightblue" stroke="midnightblue" points="2085.64,-315.08 2075.62,-318.53 2085.6,-322.08 2085.64,-315.08"/>
</g>
<!-- Node54 -->
<g id="node33" class="node">
<title>Node54</title>
<g id="a_node33"><a xlink:title=" ">
<polygon fill="none" stroke="#bfbfbf" points="3032.5,-308 3032.5,-327 3097.5,-327 3097.5,-308 3032.5,-308"/>
<text text-anchor="middle" x="3065" y="-315" font-family="Helvetica,sans-Serif" font-size="10.00">functional</text>
</a>
</g>
</g>
<!-- Node87&#45;&gt;Node54 -->
<g id="edge92" class="edge">
<title>Node87&#45;&gt;Node54</title>
<path fill="none" stroke="midnightblue" d="M2957.73,-369.4C2981.55,-358.09 3014.71,-342.36 3037.83,-331.39"/>
<polygon fill="midnightblue" stroke="midnightblue" points="3039.54,-334.46 3047.07,-327.01 3036.53,-328.13 3039.54,-334.46"/>
</g>
<!-- Node99&#45;&gt;Node4 -->
<g id="edge101" class="edge">
<title>Node99&#45;&gt;Node4</title>
<path fill="none" stroke="midnightblue" d="M1811.47,-743.2C1942.69,-722.55 2236.5,-668.41 2295,-590 2331.2,-541.49 2585.11,-674.82 2127,-302 2091.33,-272.97 2072.72,-283.01 2030,-266 2008.91,-257.6 2004.13,-254.29 1983,-246 1952.67,-234.1 1917.76,-221.63 1892.55,-212.85"/>
<polygon fill="midnightblue" stroke="midnightblue" points="1893.65,-209.52 1883.06,-209.55 1891.36,-216.14 1893.65,-209.52"/>
</g>
<!-- Node99&#45;&gt;Node30 -->
<g id="edge145" class="edge">
<title>Node99&#45;&gt;Node30</title>
<path fill="none" stroke="midnightblue" d="M1684.94,-751.7C1546.13,-748.36 1221.82,-731.39 1164,-646 1159.02,-638.64 1162.05,-634.67 1164,-626 1191.79,-502.65 1198.03,-459.82 1286,-369 1310.34,-343.87 1326.73,-352.16 1356,-333 1374.24,-321.06 1376.13,-314.48 1394,-302 1410.45,-290.52 1429.94,-279.02 1445.06,-270.52"/>
<polygon fill="midnightblue" stroke="midnightblue" points="1446.8,-273.55 1453.85,-265.64 1443.41,-267.43 1446.8,-273.55"/>
</g>
<!-- Node99&#45;&gt;Node57 -->
<g id="edge147" class="edge">
<title>Node99&#45;&gt;Node57</title>
<path fill="none" stroke="midnightblue" d="M1783.93,-738.47C1867.98,-705.63 2076.3,-624.25 2155.64,-593.25"/>
<polygon fill="midnightblue" stroke="midnightblue" points="2157.05,-596.46 2165.09,-589.56 2154.5,-589.94 2157.05,-596.46"/>
</g>
<!-- Node99&#45;&gt;Node59 -->
<g id="edge146" class="edge">
<title>Node99&#45;&gt;Node59</title>
<path fill="none" stroke="midnightblue" d="M1684.65,-751.28C1475.61,-746.41 821,-724.22 821,-637 821,-637 821,-637 821,-579 821,-540.69 822.39,-495.88 823.28,-471.19"/>
<polygon fill="midnightblue" stroke="midnightblue" points="826.78,-471.21 823.66,-461.09 819.79,-470.95 826.78,-471.21"/>
</g>
<!-- Node99&#45;&gt;Node100 -->
<g id="edge102" class="edge">
<title>Node99&#45;&gt;Node100</title>
<path fill="none" stroke="midnightblue" d="M1684.63,-742.81C1610.05,-731.4 1487.3,-712.62 1415.72,-701.68"/>
<polygon fill="midnightblue" stroke="midnightblue" points="1415.95,-698.17 1405.54,-700.12 1414.9,-705.09 1415.95,-698.17"/>
</g>
<!-- Node100&#45;&gt;Node4 -->
<g id="edge108" class="edge">
<title>Node100&#45;&gt;Node4</title>
<path fill="none" stroke="midnightblue" d="M1376.4,-682.46C1391.34,-674.51 1412.82,-661.56 1428,-646 1529.03,-542.43 1511,-483.84 1599,-369 1623.86,-336.56 1631.87,-329.62 1662,-302 1691.62,-274.84 1697.86,-265.5 1733,-246 1759.14,-231.49 1790.86,-220.14 1815.81,-212.46"/>
<polygon fill="midnightblue" stroke="midnightblue" points="1817.13,-215.72 1825.7,-209.5 1815.12,-209.02 1817.13,-215.72"/>
</g>
<!-- Node100&#45;&gt;Node6 -->
<g id="edge105" class="edge">
<title>Node100&#45;&gt;Node6</title>
<path fill="none" stroke="midnightblue" d="M1405.68,-687.28C1582.87,-672.99 2208.14,-620.84 2292,-590 2313.06,-582.26 2359.72,-549.44 2376,-534 2471.88,-443.08 2484,-389.14 2484,-257 2484,-257 2484,-257 2484,-199 2484,-164.4 2475.6,-124.74 2469.97,-102.05"/>
<polygon fill="midnightblue" stroke="midnightblue" points="2473.29,-100.92 2467.41,-92.11 2466.51,-102.67 2473.29,-100.92"/>
</g>
<!-- Node100&#45;&gt;Node9 -->
<g id="edge104" class="edge">
<title>Node100&#45;&gt;Node9</title>
<path fill="none" stroke="midnightblue" d="M1312.36,-687.13C1222.65,-678.47 1021.07,-653.12 864,-590 814.93,-570.28 796.88,-570.91 759,-534 649.02,-426.84 746.54,-342.3 727,-190 719.91,-134.76 664.41,-107.16 703,-67 746.43,-21.8 1717.17,-17.06 1927.88,-16.56"/>
<polygon fill="midnightblue" stroke="midnightblue" points="1927.9,-20.06 1937.89,-16.54 1927.89,-13.06 1927.9,-20.06"/>
</g>
<!-- Node100&#45;&gt;Node12 -->
<g id="edge133" class="edge">
<title>Node100&#45;&gt;Node12</title>
<path fill="none" stroke="midnightblue" d="M1312.45,-689.4C1191.09,-684.93 867.19,-670.95 763,-646 740.52,-640.62 736.99,-633.11 715,-626 672.43,-612.24 350.79,-569.06 323,-534 176.35,-348.95 587.37,-159.45 728.4,-101.44"/>
<polygon fill="midnightblue" stroke="midnightblue" points="729.75,-104.67 737.69,-97.65 727.1,-98.19 729.75,-104.67"/>
</g>
<!-- Node100&#45;&gt;Node14 -->
<g id="edge103" class="edge">
<title>Node100&#45;&gt;Node14</title>
<path fill="none" stroke="midnightblue" d="M1312.32,-690.23C1183.89,-687.71 827.38,-677.97 715,-646 696.64,-640.78 695.16,-631.87 677,-626 568.51,-590.93 533.17,-619.38 423,-590 399.87,-583.83 395.84,-577.16 373,-570 305.1,-548.72 276.77,-572.61 217,-534 149.53,-490.42 114,-465.82 114,-385.5 114,-385.5 114,-385.5 114,-143 114,-26.44 306.87,-15.31 385.36,-15.6"/>
<polygon fill="midnightblue" stroke="midnightblue" points="385.61,-19.11 395.65,-15.71 385.68,-12.11 385.61,-19.11"/>
</g>
<!-- Node100&#45;&gt;Node19 -->
<g id="edge106" class="edge">
<title>Node100&#45;&gt;Node19</title>
<path fill="none" stroke="midnightblue" d="M1405.63,-687.26C1455.18,-682.16 1535.15,-670.65 1600,-646 1686.6,-613.08 1867.51,-485.27 1969,-400 1993.79,-379.17 2019.5,-351.76 2034.87,-334.63"/>
<polygon fill="midnightblue" stroke="midnightblue" points="2037.52,-336.93 2041.54,-327.13 2032.28,-332.28 2037.52,-336.93"/>
</g>
<!-- Node100&#45;&gt;Node30 -->
<g id="edge132" class="edge">
<title>Node100&#45;&gt;Node30</title>
<path fill="none" stroke="midnightblue" d="M1341.32,-682.48C1327.87,-674.95 1310.31,-662.57 1302,-646 1246.8,-535.88 1238.89,-468.86 1311,-369 1334.54,-336.4 1360.75,-355.61 1394,-333 1418.96,-316.02 1442.73,-290.15 1456.84,-273.4"/>
<polygon fill="midnightblue" stroke="midnightblue" points="1459.63,-275.52 1463.3,-265.57 1454.23,-271.06 1459.63,-275.52"/>
</g>
<!-- Node100&#45;&gt;Node58 -->
<g id="edge140" class="edge">
<title>Node100&#45;&gt;Node58</title>
<path fill="none" stroke="midnightblue" d="M1405.64,-691.79C1484.14,-691.84 1646.84,-686.47 1777,-646 1856.67,-621.23 1940.42,-568.43 1982.82,-539.49"/>
<polygon fill="midnightblue" stroke="midnightblue" points="1984.98,-542.25 1991.23,-533.69 1981.01,-536.49 1984.98,-542.25"/>
</g>
<!-- Node100&#45;&gt;Node84 -->
<g id="edge130" class="edge">
<title>Node100&#45;&gt;Node84</title>
<path fill="none" stroke="midnightblue" d="M1405.75,-685.7C1470.59,-676.3 1588.76,-651.52 1668,-590 1732.09,-540.24 1776.05,-451.45 1794.39,-409.16"/>
<polygon fill="midnightblue" stroke="midnightblue" points="1797.72,-410.26 1798.4,-399.69 1791.28,-407.53 1797.72,-410.26"/>
</g>
<!-- Node101 -->
<g id="node36" class="node">
<title>Node101</title>
<g id="a_node36"><a xlink:title=" ">
<polygon fill="none" stroke="#bfbfbf" points="1173,-626.5 1173,-645.5 1223,-645.5 1223,-626.5 1173,-626.5"/>
<text text-anchor="middle" x="1198" y="-633.5" font-family="Helvetica,sans-Serif" font-size="10.00">atomic</text>
</a>
</g>
</g>
<!-- Node100&#45;&gt;Node101 -->
<g id="edge107" class="edge">
<title>Node100&#45;&gt;Node101</title>
<path fill="none" stroke="midnightblue" d="M1333.49,-682.44C1306.32,-673.33 1263.16,-658.85 1232.86,-648.69"/>
<polygon fill="midnightblue" stroke="midnightblue" points="1233.72,-645.29 1223.13,-645.43 1231.49,-651.93 1233.72,-645.29"/>
</g>
<!-- Node72 -->
<g id="node37" class="node">
<title>Node72</title>
<g id="a_node37"><a xlink:href="../../da/d55/lock__object_8h.html" target="_top" xlink:title=" ">
<polygon fill="none" stroke="red" points="1533.5,-570.5 1533.5,-589.5 1658.5,-589.5 1658.5,-570.5 1533.5,-570.5"/>
<text text-anchor="middle" x="1596" y="-577.5" font-family="Helvetica,sans-Serif" font-size="10.00">includes/lock_object.h</text>
</a>
</g>
</g>
<!-- Node100&#45;&gt;Node72 -->
<g id="edge109" class="edge">
<title>Node100&#45;&gt;Node72</title>
<path fill="none" stroke="midnightblue" d="M1386.16,-682.38C1411.22,-674.1 1449.25,-660.71 1481,-646 1514.47,-630.49 1551.28,-608.81 1574.02,-594.84"/>
<polygon fill="midnightblue" stroke="midnightblue" points="1575.91,-597.78 1582.57,-589.54 1572.23,-591.83 1575.91,-597.78"/>
</g>
<!-- Node93 -->
<g id="node38" class="node">
<title>Node93</title>
<g id="a_node38"><a xlink:href="../../d2/d91/point_8h.html" target="_top" xlink:title=" ">
<polygon fill="none" stroke="red" points="1319.5,-375 1319.5,-394 1428.5,-394 1428.5,-375 1319.5,-375"/>
<text text-anchor="middle" x="1374" y="-382" font-family="Helvetica,sans-Serif" font-size="10.00">geometries/point.h</text>
</a>
</g>
</g>
<!-- Node100&#45;&gt;Node93 -->
<g id="edge111" class="edge">
<title>Node100&#45;&gt;Node93</title>
<path fill="none" stroke="midnightblue" d="M1343.27,-682.24C1331.11,-674.48 1315.19,-661.93 1308,-646 1304.34,-637.9 1307.65,-634.88 1308,-626 1311.34,-541.36 1287.34,-512.83 1323,-436 1329.6,-421.77 1342.05,-409.32 1352.99,-400.34"/>
<polygon fill="midnightblue" stroke="midnightblue" points="1355.18,-403.08 1360.94,-394.18 1350.9,-397.54 1355.18,-403.08"/>
</g>
<!-- Node102 -->
<g id="node39" class="node">
<title>Node102</title>
<g id="a_node39"><a xlink:href="../../d1/d4e/dof_8h.html" target="_top" xlink:title=" ">
<polygon fill="none" stroke="black" points="1317,-626.5 1317,-645.5 1401,-645.5 1401,-626.5 1317,-626.5"/>
<text text-anchor="middle" x="1359" y="-633.5" font-family="Helvetica,sans-Serif" font-size="10.00">includes/dof.h</text>
</a>
</g>
</g>
<!-- Node100&#45;&gt;Node102 -->
<g id="edge114" class="edge">
<title>Node100&#45;&gt;Node102</title>
<path fill="none" stroke="midnightblue" d="M1359,-682.08C1359,-675.01 1359,-664.86 1359,-655.99"/>
<polygon fill="midnightblue" stroke="midnightblue" points="1362.5,-655.75 1359,-645.75 1355.5,-655.75 1362.5,-655.75"/>
</g>
<!-- Node103 -->
<g id="node40" class="node">
<title>Node103</title>
<g id="a_node40"><a xlink:href="../../db/d22/nodal__data_8h.html" target="_top" xlink:title=" ">
<polygon fill="none" stroke="black" points="873,-570.5 873,-589.5 1007,-589.5 1007,-570.5 873,-570.5"/>
<text text-anchor="middle" x="940" y="-577.5" font-family="Helvetica,sans-Serif" font-size="10.00">containers/nodal_data.h</text>
</a>
</g>
</g>
<!-- Node100&#45;&gt;Node103 -->
<g id="edge141" class="edge">
<title>Node100&#45;&gt;Node103</title>
<path fill="none" stroke="midnightblue" d="M1312.3,-683.66C1265.92,-675.92 1192.97,-662.58 1131,-646 1073.85,-630.71 1008.97,-607.3 971.43,-593.14"/>
<polygon fill="midnightblue" stroke="midnightblue" points="972.64,-589.86 962.05,-589.58 970.16,-596.4 972.64,-589.86"/>
</g>
<!-- Node104 -->
<g id="node41" class="node">
<title>Node104</title>
<g id="a_node41"><a xlink:href="../../d4/d52/variables__list__data__value__container_8h.html" target="_top" xlink:title=" ">
<polygon fill="none" stroke="red" points="849.5,-503.5 849.5,-533.5 1004.5,-533.5 1004.5,-503.5 849.5,-503.5"/>
<text text-anchor="start" x="857.5" y="-521.5" font-family="Helvetica,sans-Serif" font-size="10.00">containers/variables</text>
<text text-anchor="middle" x="927" y="-510.5" font-family="Helvetica,sans-Serif" font-size="10.00">_list_data_value_container.h</text>
</a>
</g>
</g>
<!-- Node100&#45;&gt;Node104 -->
<g id="edge131" class="edge">
<title>Node100&#45;&gt;Node104</title>
<path fill="none" stroke="midnightblue" d="M1312.29,-683.79C1272.14,-676.76 1213.13,-664.41 1164,-646 1143.18,-638.2 1021.85,-571.82 961.32,-538.46"/>
<polygon fill="midnightblue" stroke="midnightblue" points="962.95,-535.37 952.5,-533.6 959.57,-541.5 962.95,-535.37"/>
</g>
<!-- Node106 -->
<g id="node42" class="node">
<title>Node106</title>
<g id="a_node42"><a xlink:href="../../de/d44/global__pointers__vector_8h.html" target="_top" xlink:title=" ">
<polygon fill="none" stroke="red" points="2711,-369.5 2711,-399.5 2857,-399.5 2857,-369.5 2711,-369.5"/>
<text text-anchor="start" x="2719" y="-387.5" font-family="Helvetica,sans-Serif" font-size="10.00">containers/global_pointers</text>
<text text-anchor="middle" x="2784" y="-376.5" font-family="Helvetica,sans-Serif" font-size="10.00">_vector.h</text>
</a>
</g>
</g>
<!-- Node100&#45;&gt;Node106 -->
<g id="edge134" class="edge">
<title>Node100&#45;&gt;Node106</title>
<path fill="none" stroke="midnightblue" d="M1405.7,-691.78C1547.91,-692.99 1987.04,-687.94 2333,-590 2497.61,-543.4 2678.81,-445.69 2751.35,-404.48"/>
<polygon fill="midnightblue" stroke="midnightblue" points="2753.11,-407.51 2760.05,-399.51 2749.63,-401.43 2753.11,-407.51"/>
</g>
<!-- Node100&#45;&gt;Node109 -->
<g id="edge142" class="edge">
<title>Node100&#45;&gt;Node109</title>
<path fill="none" stroke="midnightblue" d="M1373.84,-682.35C1385.81,-674.51 1401.93,-661.77 1410,-646 1439.69,-587.97 1435.4,-507.39 1431.5,-471.29"/>
<polygon fill="midnightblue" stroke="midnightblue" points="1434.96,-470.73 1430.29,-461.22 1428.01,-471.57 1434.96,-470.73"/>
</g>
<!-- Node72&#45;&gt;Node4 -->
<g id="edge110" class="edge">
<title>Node72&#45;&gt;Node4</title>
<path fill="none" stroke="midnightblue" d="M1592.85,-570.34C1585.1,-547.63 1566.82,-484.74 1583,-436 1594.71,-400.74 1608.25,-396.71 1633,-369 1686.2,-309.43 1698.09,-291.11 1764,-246 1783.33,-232.77 1807.14,-221.42 1825.96,-213.42"/>
<polygon fill="midnightblue" stroke="midnightblue" points="1827.4,-216.62 1835.3,-209.56 1824.72,-210.15 1827.4,-216.62"/>
</g>
<!-- Node93&#45;&gt;Node4 -->
<g id="edge112" class="edge">
<title>Node93&#45;&gt;Node4</title>
<path fill="none" stroke="midnightblue" d="M1383.09,-374.95C1409.88,-350.31 1491.82,-278.8 1574,-246 1584.34,-241.87 1718.15,-221.65 1798.35,-209.77"/>
<polygon fill="midnightblue" stroke="midnightblue" points="1798.95,-213.22 1808.33,-208.29 1797.92,-206.29 1798.95,-213.22"/>
</g>
<!-- Node93&#45;&gt;Node20 -->
<g id="edge113" class="edge">
<title>Node93&#45;&gt;Node20</title>
<path fill="none" stroke="midnightblue" d="M1353.42,-374.87C1326.67,-363.65 1279.75,-343.98 1249.03,-331.09"/>
<polygon fill="midnightblue" stroke="midnightblue" points="1250.24,-327.81 1239.67,-327.17 1247.54,-334.26 1250.24,-327.81"/>
</g>
<!-- Node102&#45;&gt;Node4 -->
<g id="edge119" class="edge">
<title>Node102&#45;&gt;Node4</title>
<path fill="none" stroke="midnightblue" d="M1355.67,-626.11C1345.1,-596.28 1315.38,-498.2 1356,-436 1377.76,-402.68 1404.12,-420.89 1438,-400 1529.35,-343.66 1526.93,-291.79 1624,-246 1679.54,-219.8 1749.35,-208.85 1798.2,-204.28"/>
<polygon fill="midnightblue" stroke="midnightblue" points="1798.64,-207.76 1808.3,-203.4 1798.03,-200.78 1798.64,-207.76"/>
</g>
<!-- Node102&#45;&gt;Node6 -->
<g id="edge117" class="edge">
<title>Node102&#45;&gt;Node6</title>
<path fill="none" stroke="midnightblue" d="M1401.1,-633.88C1574.15,-629.17 2223.46,-610.2 2262,-590 2411.77,-511.51 2446,-426.09 2446,-257 2446,-257 2446,-257 2446,-199 2446,-164.4 2454.4,-124.74 2460.03,-102.05"/>
<polygon fill="midnightblue" stroke="midnightblue" points="2463.49,-102.67 2462.59,-92.11 2456.71,-100.92 2463.49,-102.67"/>
</g>
<!-- Node102&#45;&gt;Node9 -->
<g id="edge116" class="edge">
<title>Node102&#45;&gt;Node9</title>
<path fill="none" stroke="midnightblue" d="M1342.72,-626.46C1252.46,-578.64 820.29,-342.63 893,-246 936.18,-188.62 1443.56,-80.96 1514,-67 1665.13,-37.04 1848.35,-23.47 1927.91,-18.67"/>
<polygon fill="midnightblue" stroke="midnightblue" points="1928.21,-22.15 1937.99,-18.07 1927.8,-15.17 1928.21,-22.15"/>
</g>
<!-- Node102&#45;&gt;Node14 -->
<g id="edge115" class="edge">
<title>Node102&#45;&gt;Node14</title>
<path fill="none" stroke="midnightblue" d="M1316.74,-631.94C1121.9,-617.73 317.75,-557.84 270,-534 172.31,-485.22 152,-427.7 152,-318.5 152,-318.5 152,-318.5 152,-143 152,-40.61 314.71,-21 385.62,-17.32"/>
<polygon fill="midnightblue" stroke="midnightblue" points="385.94,-20.81 395.78,-16.87 385.63,-13.81 385.94,-20.81"/>
</g>
<!-- Node102&#45;&gt;Node19 -->
<g id="edge118" class="edge">
<title>Node102&#45;&gt;Node19</title>
<path fill="none" stroke="midnightblue" d="M1369.91,-626.49C1387.81,-612.88 1424.95,-586.12 1460,-570 1605.39,-503.15 1656.76,-527.27 1805,-467 1864.48,-442.82 1878.17,-433.42 1933,-400 1968.25,-378.52 2007.11,-350.2 2029.71,-333.22"/>
<polygon fill="midnightblue" stroke="midnightblue" points="2031.94,-335.93 2037.81,-327.11 2027.72,-330.34 2031.94,-335.93"/>
</g>
<!-- Node102&#45;&gt;Node58 -->
<g id="edge120" class="edge">
<title>Node102&#45;&gt;Node58</title>
<path fill="none" stroke="midnightblue" d="M1376.42,-626.36C1406.11,-612.05 1468.76,-583.67 1525,-570 1668.76,-535.07 1842.19,-524.29 1938.15,-520.97"/>
<polygon fill="midnightblue" stroke="midnightblue" points="1938.45,-524.47 1948.33,-520.64 1938.22,-517.47 1938.45,-524.47"/>
</g>
<!-- Node102&#45;&gt;Node103 -->
<g id="edge121" class="edge">
<title>Node102&#45;&gt;Node103</title>
<path fill="none" stroke="midnightblue" d="M1316.91,-629.58C1246.57,-620.51 1104.19,-602.16 1015.97,-590.79"/>
<polygon fill="midnightblue" stroke="midnightblue" points="1016.38,-587.32 1006.02,-589.51 1015.49,-594.26 1016.38,-587.32"/>
</g>
<!-- Node103&#45;&gt;Node9 -->
<g id="edge122" class="edge">
<title>Node103&#45;&gt;Node9</title>
<path fill="none" stroke="midnightblue" d="M898.54,-570.41C848.78,-557.59 767.82,-528.08 734,-467 687.38,-382.81 814.8,-111.76 900,-67 992.24,-18.55 1744.15,-16.24 1927.7,-16.4"/>
<polygon fill="midnightblue" stroke="midnightblue" points="1927.73,-19.9 1937.74,-16.42 1927.74,-12.9 1927.73,-19.9"/>
</g>
<!-- Node103&#45;&gt;Node104 -->
<g id="edge123" class="edge">
<title>Node103&#45;&gt;Node104</title>
<path fill="none" stroke="midnightblue" d="M938.14,-570.48C936.59,-563.4 934.31,-552.97 932.22,-543.39"/>
<polygon fill="midnightblue" stroke="midnightblue" points="935.62,-542.55 930.06,-533.52 928.78,-544.04 935.62,-542.55"/>
</g>
<!-- Node104&#45;&gt;Node4 -->
<g id="edge128" class="edge">
<title>Node104&#45;&gt;Node4</title>
<path fill="none" stroke="midnightblue" d="M926.74,-503.47C926.75,-457.42 933.7,-310.18 1019,-246 1080.85,-199.46 1616.9,-199.16 1798.29,-200.42"/>
<polygon fill="midnightblue" stroke="midnightblue" points="1798.43,-203.92 1808.45,-200.49 1798.48,-196.92 1798.43,-203.92"/>
</g>
<!-- Node104&#45;&gt;Node9 -->
<g id="edge125" class="edge">
<title>Node104&#45;&gt;Node9</title>
<path fill="none" stroke="midnightblue" d="M849.46,-503.95C809.94,-495.3 767.77,-482.74 756,-467 743.12,-449.77 719.71,-472.29 764,-302 780.63,-238.07 886.62,-95.92 946,-67 1035.35,-23.48 1749.5,-17.46 1927.78,-16.63"/>
<polygon fill="midnightblue" stroke="midnightblue" points="1927.81,-20.13 1937.79,-16.59 1927.77,-13.13 1927.81,-20.13"/>
</g>
<!-- Node104&#45;&gt;Node14 -->
<g id="edge124" class="edge">
<title>Node104&#45;&gt;Node14</title>
<path fill="none" stroke="midnightblue" d="M849.11,-511.76C735.95,-499.17 526.87,-459.22 410,-333 348.46,-266.53 354.77,-223.88 366,-134 369.81,-103.52 370.27,-94.96 383,-67 388.49,-54.93 396.9,-42.68 404.1,-33.27"/>
<polygon fill="midnightblue" stroke="midnightblue" points="407.02,-35.22 410.5,-25.21 401.54,-30.87 407.02,-35.22"/>
</g>
<!-- Node104&#45;&gt;Node19 -->
<g id="edge126" class="edge">
<title>Node104&#45;&gt;Node19</title>
<path fill="none" stroke="midnightblue" d="M1004.6,-516.72C1181.98,-514.3 1612.5,-504.62 1752,-467 1845.65,-441.74 1860.2,-412.3 1947,-369 1972.64,-356.21 2001.97,-341.7 2022.57,-331.53"/>
<polygon fill="midnightblue" stroke="midnightblue" points="2024.24,-334.61 2031.66,-327.05 2021.14,-328.33 2024.24,-334.61"/>
</g>
<!-- Node104&#45;&gt;Node22 -->
<g id="edge127" class="edge">
<title>Node104&#45;&gt;Node22</title>
<path fill="none" stroke="midnightblue" d="M934.4,-503.41C939.67,-493.31 946.87,-479.37 953,-467 987.91,-396.52 1027.59,-311.73 1044.57,-275.2"/>
<polygon fill="midnightblue" stroke="midnightblue" points="1047.87,-276.39 1048.91,-265.85 1041.52,-273.45 1047.87,-276.39"/>
</g>
<!-- Node104&#45;&gt;Node59 -->
<g id="edge129" class="edge">
<title>Node104&#45;&gt;Node59</title>
<path fill="none" stroke="midnightblue" d="M904.65,-503.4C887.38,-492.5 863.58,-477.48 846.32,-466.58"/>
<polygon fill="midnightblue" stroke="midnightblue" points="847.81,-463.38 837.48,-461.01 844.07,-469.3 847.81,-463.38"/>
</g>
<!-- Node106&#45;&gt;Node4 -->
<g id="edge138" class="edge">
<title>Node106&#45;&gt;Node4</title>
<path fill="none" stroke="midnightblue" d="M2736.08,-369.42C2640.84,-341.91 2420.68,-280.71 2232,-246 2121.89,-225.74 1991.79,-212.45 1917.68,-205.87"/>
<polygon fill="midnightblue" stroke="midnightblue" points="1917.87,-202.38 1907.6,-204.99 1917.26,-209.35 1917.87,-202.38"/>
</g>
<!-- Node106&#45;&gt;Node9 -->
<g id="edge136" class="edge">
<title>Node106&#45;&gt;Node9</title>
<path fill="none" stroke="midnightblue" d="M2710.94,-371.07C2689.41,-363.66 2668.12,-351.85 2655,-333 2638.11,-308.74 2670.32,-88.47 2650,-67 2644.45,-61.13 2154.69,-28.7 2008.65,-19.15"/>
<polygon fill="midnightblue" stroke="midnightblue" points="2008.56,-15.63 1998.35,-18.47 2008.1,-22.62 2008.56,-15.63"/>
</g>
<!-- Node106&#45;&gt;Node15 -->
<g id="edge135" class="edge">
<title>Node106&#45;&gt;Node15</title>
<path fill="none" stroke="midnightblue" d="M2815.03,-369.42C2902.63,-329.29 3149.8,-213.42 3216,-154 3251.96,-121.73 3268.29,-64.55 3274.61,-35.13"/>
<polygon fill="midnightblue" stroke="midnightblue" points="3278.1,-35.5 3276.62,-25.01 3271.24,-34.13 3278.1,-35.5"/>
</g>
<!-- Node106&#45;&gt;Node20 -->
<g id="edge139" class="edge">
<title>Node106&#45;&gt;Node20</title>
<path fill="none" stroke="midnightblue" d="M2710.88,-380.46C2446.13,-369.47 1539.91,-331.83 1285.75,-321.27"/>
<polygon fill="midnightblue" stroke="midnightblue" points="1285.7,-317.77 1275.56,-320.85 1285.41,-324.76 1285.7,-317.77"/>
</g>
<!-- Node106&#45;&gt;Node85 -->
<g id="edge137" class="edge">
<title>Node106&#45;&gt;Node85</title>
<path fill="none" stroke="midnightblue" d="M2771.2,-369.4C2763.47,-360.88 2753.45,-349.85 2744.73,-340.23"/>
<polygon fill="midnightblue" stroke="midnightblue" points="2747.09,-337.63 2737.78,-332.58 2741.91,-342.33 2747.09,-337.63"/>
</g>
<!-- Node109&#45;&gt;Node4 -->
<g id="edge143" class="edge">
<title>Node109&#45;&gt;Node4</title>
<path fill="none" stroke="midnightblue" d="M1443.09,-441.97C1471.94,-424.08 1539.01,-380.38 1586,-333 1619.8,-298.92 1609.71,-272.1 1650,-246 1662.58,-237.85 1742.77,-221.95 1799.81,-211.41"/>
<polygon fill="midnightblue" stroke="midnightblue" points="1800.62,-214.82 1809.82,-209.57 1799.35,-207.93 1800.62,-214.82"/>
</g>
<!-- Node109&#45;&gt;Node30 -->
<g id="edge144" class="edge">
<title>Node109&#45;&gt;Node30</title>
<path fill="none" stroke="midnightblue" d="M1430.81,-441.94C1436.99,-412.79 1457.29,-316.97 1465.99,-275.93"/>
<polygon fill="midnightblue" stroke="midnightblue" points="1469.46,-276.42 1468.11,-265.91 1462.62,-274.96 1469.46,-276.42"/>
</g>
<!-- Node110&#45;&gt;Node4 -->
<g id="edge149" class="edge">
<title>Node110&#45;&gt;Node4</title>
<path fill="none" stroke="midnightblue" d="M1693.49,-436.24C1704.72,-419.64 1724.28,-391.6 1743,-369 1757.04,-352.05 1763.62,-350.47 1777,-333 1806.44,-294.56 1834.55,-244.88 1848.62,-218.79"/>
<polygon fill="midnightblue" stroke="midnightblue" points="1851.84,-220.21 1853.46,-209.74 1845.66,-216.91 1851.84,-220.21"/>
</g>
<!-- Node110&#45;&gt;Node111 -->
<g id="edge150" class="edge">
<title>Node110&#45;&gt;Node111</title>
<path fill="none" stroke="midnightblue" d="M1624.88,-443.51C1520.33,-431.16 1303.76,-405.56 1196.7,-392.91"/>
<polygon fill="midnightblue" stroke="midnightblue" points="1197.03,-389.43 1186.69,-391.73 1196.21,-396.38 1197.03,-389.43"/>
</g>
<!-- Node111&#45;&gt;Node4 -->
<g id="edge152" class="edge">
<title>Node111&#45;&gt;Node4</title>
<path fill="none" stroke="midnightblue" d="M1186.59,-370.15C1216.35,-361.57 1253.76,-349.01 1285,-333 1305.97,-322.25 1308.72,-315.53 1328,-302 1364.12,-276.65 1368.54,-261.12 1410,-246 1445.61,-233.02 1684.4,-213.88 1798.07,-205.36"/>
<polygon fill="midnightblue" stroke="midnightblue" points="1798.63,-208.83 1808.34,-204.6 1798.11,-201.85 1798.63,-208.83"/>
</g>
<!-- Node111&#45;&gt;Node10 -->
<g id="edge151" class="edge">
<title>Node111&#45;&gt;Node10</title>
<path fill="none" stroke="midnightblue" d="M1135.28,-369.47C1137.28,-352.59 1142.25,-323.8 1154,-302 1170.12,-272.1 1178.65,-266.14 1206,-246 1307.81,-171.03 1449.65,-116.47 1512.64,-94.36"/>
<polygon fill="midnightblue" stroke="midnightblue" points="1514.11,-97.56 1522.41,-90.97 1511.82,-90.95 1514.11,-97.56"/>
</g>
<!-- Node111&#45;&gt;Node20 -->
<g id="edge153" class="edge">
<title>Node111&#45;&gt;Node20</title>
<path fill="none" stroke="midnightblue" d="M1152.44,-369.4C1166.35,-358.76 1185.39,-344.2 1199.54,-333.38"/>
<polygon fill="midnightblue" stroke="midnightblue" points="1201.81,-336.05 1207.63,-327.19 1197.56,-330.49 1201.81,-336.05"/>
</g>
<!-- Node112&#45;&gt;Node57 -->
<g id="edge155" class="edge">
<title>Node112&#45;&gt;Node57</title>
<path fill="none" stroke="midnightblue" d="M2664.11,-744C2581.64,-715.82 2317.25,-625.5 2221.79,-592.89"/>
<polygon fill="midnightblue" stroke="midnightblue" points="2222.64,-589.48 2212.04,-589.56 2220.38,-596.1 2222.64,-589.48"/>
</g>
<!-- Node112&#45;&gt;Node106 -->
<g id="edge156" class="edge">
<title>Node112&#45;&gt;Node106</title>
<path fill="none" stroke="midnightblue" d="M2693.51,-743.64C2708.06,-714.53 2753.98,-618.87 2773,-534 2782.63,-491.05 2784.31,-439.55 2784.36,-409.87"/>
<polygon fill="midnightblue" stroke="midnightblue" points="2787.86,-409.61 2784.32,-399.62 2780.86,-409.64 2787.86,-409.61"/>
</g>
<!-- Node130&#45;&gt;Node57 -->
<g id="edge158" class="edge">
<title>Node130&#45;&gt;Node57</title>
<path fill="none" stroke="midnightblue" d="M2831.73,-682.46C2704.52,-662.44 2387.57,-612.56 2251.13,-591.09"/>
<polygon fill="midnightblue" stroke="midnightblue" points="2251.66,-587.63 2241.23,-589.53 2250.57,-594.55 2251.66,-587.63"/>
</g>
<!-- Node130&#45;&gt;Node106 -->
<g id="edge159" class="edge">
<title>Node130&#45;&gt;Node106</title>
<path fill="none" stroke="midnightblue" d="M2884.3,-682.48C2880.78,-664.06 2873,-619.08 2873,-581 2873,-581 2873,-581 2873,-517.5 2873,-479.74 2870.27,-467.2 2849,-436 2840.85,-424.05 2828.99,-413.66 2817.62,-405.46"/>
<polygon fill="midnightblue" stroke="midnightblue" points="2819.32,-402.38 2809.09,-399.62 2815.37,-408.16 2819.32,-402.38"/>
</g>
<!-- Node131&#45;&gt;Node4 -->
<g id="edge165" class="edge">
<title>Node131&#45;&gt;Node4</title>
<path fill="none" stroke="midnightblue" d="M2774.23,-861.45C2776.46,-852.45 2779.73,-837.84 2781,-825 2781.88,-816.15 2781.43,-813.88 2781,-805 2776.11,-705.09 2759,-681.03 2759,-581 2759,-581 2759,-581 2759,-517.5 2759,-406.42 2408.3,-349.72 2308,-302 2274.25,-285.94 2265.43,-282.71 2232,-266 2214.93,-257.47 2212.2,-251.75 2194,-246 2077.1,-209.08 2039.57,-227.15 1917.83,-210.64"/>
<polygon fill="midnightblue" stroke="midnightblue" points="1918.14,-207.15 1907.75,-209.22 1917.17,-214.08 1918.14,-207.15"/>
</g>
<!-- Node131&#45;&gt;Node6 -->
<g id="edge163" class="edge">
<title>Node131&#45;&gt;Node6</title>
<path fill="none" stroke="midnightblue" d="M2821.77,-861.44C2932.19,-841.76 3188,-792.12 3188,-754.5 3188,-754.5 3188,-754.5 3188,-635 3188,-486.98 3290.36,-414.36 3194,-302 3100.43,-192.89 2639.3,-111.41 2503,-89.41"/>
<polygon fill="midnightblue" stroke="midnightblue" points="2503.45,-85.94 2493.03,-87.82 2502.35,-92.85 2503.45,-85.94"/>
</g>
<!-- Node131&#45;&gt;Node9 -->
<g id="edge162" class="edge">
<title>Node131&#45;&gt;Node9</title>
<path fill="none" stroke="midnightblue" d="M2841.79,-870.59C3011.14,-868 3430,-835.84 3430,-581 3430,-581 3430,-581 3430,-383.5 3430,-205.07 3341.89,-148.19 3183,-67 3085.97,-17.42 2311.83,-36.36 2203,-31 2134.49,-27.63 2054.82,-22.45 2008.06,-19.28"/>
<polygon fill="midnightblue" stroke="midnightblue" points="2008.25,-15.78 1998.03,-18.59 2007.77,-22.77 2008.25,-15.78"/>
</g>
<!-- Node131&#45;&gt;Node14 -->
<g id="edge161" class="edge">
<title>Node131&#45;&gt;Node14</title>
<path fill="none" stroke="midnightblue" d="M2702.34,-869.3C2468.1,-866.21 1687.74,-850.09 1049,-769 639.66,-717.03 465.24,-841.36 138,-590 57.76,-528.37 38,-486.67 38,-385.5 38,-385.5 38,-385.5 38,-143 38,-103.28 51.86,-88.89 85,-67 134.18,-34.52 312.39,-21.88 385.93,-17.97"/>
<polygon fill="midnightblue" stroke="midnightblue" points="386.18,-21.46 395.99,-17.46 385.82,-14.47 386.18,-21.46"/>
</g>
<!-- Node131&#45;&gt;Node19 -->
<g id="edge164" class="edge">
<title>Node131&#45;&gt;Node19</title>
<path fill="none" stroke="midnightblue" d="M2771.71,-861.45C2770.8,-840.13 2767.11,-783.08 2753,-738 2717.22,-623.67 2712.98,-579.75 2621,-503 2455.19,-364.65 2183.63,-329.41 2085.68,-320.99"/>
<polygon fill="midnightblue" stroke="midnightblue" points="2085.93,-317.5 2075.67,-320.17 2085.36,-324.47 2085.93,-317.5"/>
</g>
<!-- Node131&#45;&gt;Node83 -->
<g id="edge168" class="edge">
<title>Node131&#45;&gt;Node83</title>
<path fill="none" stroke="midnightblue" d="M2702.39,-862.41C2604.31,-851.71 2427.22,-832.39 2335.54,-822.39"/>
<polygon fill="midnightblue" stroke="midnightblue" points="2335.65,-818.88 2325.33,-821.27 2334.89,-825.84 2335.65,-818.88"/>
</g>
<!-- Node131&#45;&gt;Node112 -->
<g id="edge167" class="edge">
<title>Node131&#45;&gt;Node112</title>
<path fill="none" stroke="midnightblue" d="M2765.76,-861.32C2752.06,-842.26 2719.14,-796.45 2701.19,-771.46"/>
<polygon fill="midnightblue" stroke="midnightblue" points="2703.99,-769.36 2695.31,-763.28 2698.3,-773.45 2703.99,-769.36"/>
</g>
<!-- Node131&#45;&gt;Node130 -->
<g id="edge166" class="edge">
<title>Node131&#45;&gt;Node130</title>
<path fill="none" stroke="midnightblue" d="M2784.9,-861.24C2796.34,-852.96 2812.9,-839.66 2824,-825 2851.54,-788.64 2871.03,-738.07 2880.15,-711.31"/>
<polygon fill="midnightblue" stroke="midnightblue" points="2883.51,-712.3 2883.33,-701.7 2876.87,-710.1 2883.51,-712.3"/>
</g>
<!-- Node115&#45;&gt;Node4 -->
<g id="edge173" class="edge">
<title>Node115&#45;&gt;Node4</title>
<path fill="none" stroke="midnightblue" d="M389.82,-508.84C440.11,-469.18 657.34,-304.47 867,-246 956.38,-221.08 1597.54,-206.23 1798.16,-202.15"/>
<polygon fill="midnightblue" stroke="midnightblue" points="1798.29,-205.65 1808.22,-201.95 1798.15,-198.65 1798.29,-205.65"/>
</g>
<!-- Node115&#45;&gt;Node9 -->
<g id="edge171" class="edge">
<title>Node115&#45;&gt;Node9</title>
<path fill="none" stroke="midnightblue" d="M376.82,-508.62C368.7,-473.59 342.5,-342.29 381,-246 434.04,-113.34 508.24,-96.62 648,-67 901.22,-13.33 1734.19,-15.04 1927.63,-16.2"/>
<polygon fill="midnightblue" stroke="midnightblue" points="1927.88,-19.7 1937.9,-16.26 1927.92,-12.7 1927.88,-19.7"/>
</g>
<!-- Node115&#45;&gt;Node14 -->
<g id="edge170" class="edge">
<title>Node115&#45;&gt;Node14</title>
<path fill="none" stroke="midnightblue" d="M365.33,-508.83C328.16,-484.06 228,-408.92 228,-318.5 228,-318.5 228,-318.5 228,-143 228,-67.98 331.89,-34.74 386.03,-22.51"/>
<polygon fill="midnightblue" stroke="midnightblue" points="386.79,-25.93 395.83,-20.4 385.32,-19.08 386.79,-25.93"/>
</g>
<!-- Node115&#45;&gt;Node26 -->
<g id="edge172" class="edge">
<title>Node115&#45;&gt;Node26</title>
<path fill="none" stroke="midnightblue" d="M378.19,-508.93C376.33,-485.28 373.56,-417.67 397,-369 430.28,-299.91 452.72,-286.23 518,-246 544.13,-229.9 576.6,-218.99 603.69,-211.96"/>
<polygon fill="midnightblue" stroke="midnightblue" points="604.54,-215.35 613.4,-209.54 602.85,-208.56 604.54,-215.35"/>
</g>
<!-- Node115&#45;&gt;Node59 -->
<g id="edge174" class="edge">
<title>Node115&#45;&gt;Node59</title>
<path fill="none" stroke="midnightblue" d="M426.2,-510.61C505.22,-499.06 664.57,-475.79 755.78,-462.46"/>
<polygon fill="midnightblue" stroke="midnightblue" points="756.36,-465.92 765.74,-461.01 755.34,-458.99 756.36,-465.92"/>
</g>
<!-- Node96&#45;&gt;Node4 -->
<g id="edge189" class="edge">
<title>Node96&#45;&gt;Node4</title>
<path fill="none" stroke="midnightblue" d="M3142.78,-369.22C3139.03,-350.38 3129.5,-317.77 3107,-302 3057.71,-267.46 2160.12,-217.15 1917.84,-204.16"/>
<polygon fill="midnightblue" stroke="midnightblue" points="1917.98,-200.66 1907.81,-203.62 1917.61,-207.65 1917.98,-200.66"/>
</g>
<!-- Node96&#45;&gt;Node6 -->
<g id="edge186" class="edge">
<title>Node96&#45;&gt;Node6</title>
<path fill="none" stroke="midnightblue" d="M3158.76,-369.36C3173.84,-352.11 3193.9,-322.7 3178,-302 3140.17,-252.76 3102.22,-284.68 3043,-266 2880.08,-214.61 2845.72,-182.78 2682,-134 2620.06,-115.54 2546.52,-99.66 2502.92,-90.86"/>
<polygon fill="midnightblue" stroke="midnightblue" points="2503.52,-87.41 2493.03,-88.88 2502.15,-94.28 2503.52,-87.41"/>
</g>
<!-- Node96&#45;&gt;Node9 -->
<g id="edge185" class="edge">
<title>Node96&#45;&gt;Node9</title>
<path fill="none" stroke="midnightblue" d="M3164.84,-369.33C3175.68,-360.31 3188.08,-347.6 3194,-333 3199.18,-320.23 3199.82,-314.49 3194,-302 3169.48,-249.39 3043.62,-164.11 2994,-134 2927.39,-93.58 2907.96,-84.36 2832,-67 2559.02,-4.62 2482.52,-47.62 2203,-31 2134.53,-26.93 2054.85,-21.96 2008.07,-19.03"/>
<polygon fill="midnightblue" stroke="midnightblue" points="2008.25,-15.53 1998.05,-18.4 2007.81,-22.52 2008.25,-15.53"/>
</g>
<!-- Node96&#45;&gt;Node14 -->
<g id="edge184" class="edge">
<title>Node96&#45;&gt;Node14</title>
<path fill="none" stroke="midnightblue" d="M3147.48,-369.49C3149.83,-351.26 3150.74,-319.65 3133,-302 3101.66,-270.81 2782.82,-251.94 2739,-246 2422.38,-203.07 2340.12,-212.46 2026,-154 1865.87,-124.2 1831.28,-89.73 1670,-67 1424.32,-32.38 622.42,-19.36 450.6,-16.93"/>
<polygon fill="midnightblue" stroke="midnightblue" points="450.47,-13.43 440.43,-16.79 450.38,-20.43 450.47,-13.43"/>
</g>
<!-- Node96&#45;&gt;Node15 -->
<g id="edge187" class="edge">
<title>Node96&#45;&gt;Node15</title>
<path fill="none" stroke="midnightblue" d="M3197.74,-375.14C3259.65,-361.98 3354,-329.95 3354,-257 3354,-257 3354,-257 3354,-143 3354,-107.58 3348.6,-97.14 3330,-67 3321.57,-53.35 3308.64,-40.77 3297.78,-31.58"/>
<polygon fill="midnightblue" stroke="midnightblue" points="3299.96,-28.84 3289.99,-25.25 3295.55,-34.27 3299.96,-28.84"/>
</g>
<!-- Node96&#45;&gt;Node20 -->
<g id="edge190" class="edge">
<title>Node96&#45;&gt;Node20</title>
<path fill="none" stroke="midnightblue" d="M3092.34,-377.72C3062.37,-374.65 3024.13,-371.08 2990,-369 2649.01,-348.21 1566.39,-325.48 1285.89,-319.83"/>
<polygon fill="midnightblue" stroke="midnightblue" points="1285.93,-316.33 1275.86,-319.62 1285.79,-323.33 1285.93,-316.33"/>
</g>
<!-- Node96&#45;&gt;Node85 -->
<g id="edge188" class="edge">
<title>Node96&#45;&gt;Node85</title>
<path fill="none" stroke="midnightblue" d="M3092.23,-375.33C3017.29,-363.73 2879.82,-342.46 2796,-329.49"/>
<polygon fill="midnightblue" stroke="midnightblue" points="2796.47,-326.02 2786.05,-327.95 2795.4,-332.94 2796.47,-326.02"/>
</g>
<!-- Node96&#45;&gt;Node54 -->
<g id="edge183" class="edge">
<title>Node96&#45;&gt;Node54</title>
<path fill="none" stroke="midnightblue" d="M3127.64,-369.4C3114.67,-358.86 3096.97,-344.48 3083.69,-333.69"/>
<polygon fill="midnightblue" stroke="midnightblue" points="3085.67,-330.78 3075.7,-327.19 3081.26,-336.22 3085.67,-330.78"/>
</g>
</g>
</svg>
