<?xml version="1.0" encoding="UTF-8" standalone="no"?>
<!DOCTYPE svg PUBLIC "-//W3C//DTD SVG 1.1//EN"
 "http://www.w3.org/Graphics/SVG/1.1/DTD/svg11.dtd">
<!-- Generated by graphviz version 2.43.0 (0)
 -->
<!-- Title: /home/runner/work/Documentation/Documentation/master/applications/PfemFluidDynamicsApplication/custom_processes/select_mesh_elements_for_fluids_process.hpp Pages: 1 -->
<svg width="304pt" height="261pt"
 viewBox="0.00 0.00 304.00 261.00" xmlns="http://www.w3.org/2000/svg" xmlns:xlink="http://www.w3.org/1999/xlink">
<g id="graph0" class="graph" transform="scale(1 1) rotate(0) translate(4 257)">
<title>/home/runner/work/Documentation/Documentation/master/applications/PfemFluidDynamicsApplication/custom_processes/select_mesh_elements_for_fluids_process.hpp</title>
<!-- Node1 -->
<g id="node1" class="node">
<title>Node1</title>
<g id="a_node1"><a xlink:title=" ">
<polygon fill="#bfbfbf" stroke="black" points="67,-189.5 67,-252.5 279,-252.5 279,-189.5 67,-189.5"/>
<text text-anchor="start" x="75" y="-240.5" font-family="Helvetica,sans-Serif" font-size="10.00">/home/runner/work/Documentation</text>
<text text-anchor="start" x="75" y="-229.5" font-family="Helvetica,sans-Serif" font-size="10.00">/Documentation/master/applications</text>
<text text-anchor="start" x="75" y="-218.5" font-family="Helvetica,sans-Serif" font-size="10.00">/PfemFluidDynamicsApplication/custom</text>
<text text-anchor="start" x="75" y="-207.5" font-family="Helvetica,sans-Serif" font-size="10.00">_processes/select_mesh_elements_for</text>
<text text-anchor="middle" x="173" y="-196.5" font-family="Helvetica,sans-Serif" font-size="10.00">_fluids_process.hpp</text>
</a>
</g>
</g>
<!-- Node2 -->
<g id="node2" class="node">
<title>Node2</title>
<g id="a_node2"><a xlink:href="../../d2/dbc/select__mesh__elements__for__fluids__cut__pfem__process_8hpp.html" target="_top" xlink:title=" ">
<polygon fill="none" stroke="black" points="0,-89.5 0,-152.5 212,-152.5 212,-89.5 0,-89.5"/>
<text text-anchor="start" x="8" y="-140.5" font-family="Helvetica,sans-Serif" font-size="10.00">/home/runner/work/Documentation</text>
<text text-anchor="start" x="8" y="-129.5" font-family="Helvetica,sans-Serif" font-size="10.00">/Documentation/master/applications</text>
<text text-anchor="start" x="8" y="-118.5" font-family="Helvetica,sans-Serif" font-size="10.00">/PfemFluidDynamicsApplication/custom</text>
<text text-anchor="start" x="8" y="-107.5" font-family="Helvetica,sans-Serif" font-size="10.00">_processes/select_mesh_elements_for</text>
<text text-anchor="middle" x="106" y="-96.5" font-family="Helvetica,sans-Serif" font-size="10.00">_fluids_cut_pfem_process.hpp</text>
</a>
</g>
</g>
<!-- Node1&#45;&gt;Node2 -->
<g id="edge1" class="edge">
<title>Node1&#45;&gt;Node2</title>
<path fill="none" stroke="midnightblue" d="M146.22,-180.83C139.8,-171.44 133.05,-161.56 126.94,-152.63"/>
<polygon fill="midnightblue" stroke="midnightblue" points="143.45,-182.98 151.98,-189.26 149.23,-179.03 143.45,-182.98"/>
</g>
<!-- Node3 -->
<g id="node3" class="node">
<title>Node3</title>
<g id="a_node3"><a xlink:href="../../d5/d44/_pfem_fluid_dynamics_application_2custom__python_2add__custom__processes__to__python_8cpp.html" target="_top" xlink:title=" ">
<polygon fill="none" stroke="black" points="50,-0.5 50,-52.5 296,-52.5 296,-0.5 50,-0.5"/>
<text text-anchor="start" x="58" y="-40.5" font-family="Helvetica,sans-Serif" font-size="10.00">/home/runner/work/Documentation</text>
<text text-anchor="start" x="58" y="-29.5" font-family="Helvetica,sans-Serif" font-size="10.00">/Documentation/master/applications</text>
<text text-anchor="start" x="58" y="-18.5" font-family="Helvetica,sans-Serif" font-size="10.00">/PfemFluidDynamicsApplication/custom</text>
<text text-anchor="middle" x="173" y="-7.5" font-family="Helvetica,sans-Serif" font-size="10.00">_python/add_custom_processes_to_python.cpp</text>
</a>
</g>
</g>
<!-- Node1&#45;&gt;Node3 -->
<g id="edge3" class="edge">
<title>Node1&#45;&gt;Node3</title>
<path fill="none" stroke="midnightblue" d="M207.04,-180.85C212.78,-172.2 217.88,-162.71 221,-153 229.7,-125.92 230.25,-115.9 221,-89 216.42,-75.68 207.64,-63.03 198.82,-52.71"/>
<polygon fill="midnightblue" stroke="midnightblue" points="204.06,-179 201.14,-189.19 209.77,-183.05 204.06,-179"/>
</g>
<!-- Node2&#45;&gt;Node3 -->
<g id="edge2" class="edge">
<title>Node2&#45;&gt;Node3</title>
<path fill="none" stroke="midnightblue" d="M134.12,-81.17C141.08,-71.57 148.35,-61.53 154.7,-52.77"/>
<polygon fill="midnightblue" stroke="midnightblue" points="131.16,-79.3 128.12,-89.46 136.82,-83.41 131.16,-79.3"/>
</g>
</g>
</svg>
