<?xml version="1.0" encoding="UTF-8" standalone="no"?>
<!DOCTYPE svg PUBLIC "-//W3C//DTD SVG 1.1//EN"
 "http://www.w3.org/Graphics/SVG/1.1/DTD/svg11.dtd">
<!-- Generated by graphviz version 2.43.0 (0)
 -->
<!-- Title: /home/runner/work/Documentation/Documentation/master/kratos/modeler/connectivity_preserve_modeler.h Pages: 1 -->
<!--zoomable 517 -->
<svg id="main" version="1.1" xmlns="http://www.w3.org/2000/svg" xmlns:xlink="http://www.w3.org/1999/xlink" xml:space="preserve" onload="init(evt)">
<style type="text/css"><![CDATA[
.edge:hover path { stroke: red; }
.edge:hover polygon { stroke: red; fill: red; }
]]></style>
<script type="text/javascript"><![CDATA[
var edges = document.getElementsByTagName('g');
if (edges && edges.length) {
  for (var i=0;i<edges.length;i++) {
    if (edges[i].id.substr(0,4)=='edge') {
      edges[i].setAttribute('class','edge');
    }
  }
}
]]></script>
        <defs>
                <circle id="rim" cx="0" cy="0" r="7"/>
                <circle id="rim2" cx="0" cy="0" r="3.5"/>
                <g id="zoomPlus">
                        <use xlink:href="#rim" fill="#404040">
                                <set attributeName="fill" to="#808080" begin="zoomplus.mouseover" end="zoomplus.mouseout"/>
                        </use>
                        <path d="M-4,0h8M0,-4v8" fill="none" stroke="white" stroke-width="1.5" pointer-events="none"/>
                </g>
                <g id="zoomMin">
                        <use xlink:href="#rim" fill="#404040">
                                <set attributeName="fill" to="#808080" begin="zoomminus.mouseover" end="zoomminus.mouseout"/>
                        </use>
                        <path d="M-4,0h8" fill="none" stroke="white" stroke-width="1.5" pointer-events="none"/>
                </g>
                <g id="dirArrow">
                        <path fill="none" stroke="white" stroke-width="1.5" d="M0,-3.0v7 M-2.5,-0.5L0,-3.0L2.5,-0.5"/>
                </g>
               <g id="resetDef">
                       <use xlink:href="#rim2" fill="#404040">
                               <set attributeName="fill" to="#808080" begin="reset.mouseover" end="reset.mouseout"/>
                       </use>
               </g>
        </defs>

<script type="text/javascript">
var viewWidth = 1257;
var viewHeight = 517;
var sectionId = 'dynsection-1';
</script>
<script xlink:href="../../svgpan.js"/>
<svg id="graph" class="graph">
<g id="viewport">
<title>/home/runner/work/Documentation/Documentation/master/kratos/modeler/connectivity_preserve_modeler.h</title>
<!-- Node1 -->
<g id="node1" class="node">
<title>Node1</title>
<g id="a_node1"><a xlink:title=" ">
<polygon fill="#bfbfbf" stroke="black" points="417,-456.5 417,-508.5 604,-508.5 604,-456.5 417,-456.5"/>
<text text-anchor="start" x="425" y="-496.5" font-family="Helvetica,sans-Serif" font-size="10.00">/home/runner/work/Documentation</text>
<text text-anchor="start" x="425" y="-485.5" font-family="Helvetica,sans-Serif" font-size="10.00">/Documentation/master/kratos</text>
<text text-anchor="start" x="425" y="-474.5" font-family="Helvetica,sans-Serif" font-size="10.00">/modeler/connectivity_preserve</text>
<text text-anchor="middle" x="510.5" y="-463.5" font-family="Helvetica,sans-Serif" font-size="10.00">_modeler.h</text>
</a>
</g>
</g>
<!-- Node2 -->
<g id="node2" class="node">
<title>Node2</title>
<g id="a_node2"><a xlink:href="../../d1/d9a/connectivity__preserve__modeler_8cpp.html" target="_top" xlink:title=" ">
<polygon fill="none" stroke="black" points="108,-367.5 108,-419.5 295,-419.5 295,-367.5 108,-367.5"/>
<text text-anchor="start" x="116" y="-407.5" font-family="Helvetica,sans-Serif" font-size="10.00">/home/runner/work/Documentation</text>
<text text-anchor="start" x="116" y="-396.5" font-family="Helvetica,sans-Serif" font-size="10.00">/Documentation/master/kratos</text>
<text text-anchor="start" x="116" y="-385.5" font-family="Helvetica,sans-Serif" font-size="10.00">/modeler/connectivity_preserve</text>
<text text-anchor="middle" x="201.5" y="-374.5" font-family="Helvetica,sans-Serif" font-size="10.00">_modeler.cpp</text>
</a>
</g>
</g>
<!-- Node1&#45;&gt;Node2 -->
<g id="edge1" class="edge">
<title>Node1&#45;&gt;Node2</title>
<path fill="none" stroke="midnightblue" d="M411.75,-453.7C372.77,-442.72 328.32,-430.21 290.37,-419.52"/>
<polygon fill="midnightblue" stroke="midnightblue" points="410.96,-457.11 421.54,-456.45 412.86,-450.37 410.96,-457.11"/>
</g>
<!-- Node3 -->
<g id="node3" class="node">
<title>Node3</title>
<g id="a_node3"><a xlink:href="../../d5/d55/variational__distance__calculation__process_8h.html" target="_top" xlink:title=" ">
<polygon fill="none" stroke="black" points="313,-367.5 313,-419.5 500,-419.5 500,-367.5 313,-367.5"/>
<text text-anchor="start" x="321" y="-407.5" font-family="Helvetica,sans-Serif" font-size="10.00">/home/runner/work/Documentation</text>
<text text-anchor="start" x="321" y="-396.5" font-family="Helvetica,sans-Serif" font-size="10.00">/Documentation/master/kratos</text>
<text text-anchor="start" x="321" y="-385.5" font-family="Helvetica,sans-Serif" font-size="10.00">/processes/variational_distance</text>
<text text-anchor="middle" x="406.5" y="-374.5" font-family="Helvetica,sans-Serif" font-size="10.00">_calculation_process.h</text>
</a>
</g>
</g>
<!-- Node1&#45;&gt;Node3 -->
<g id="edge2" class="edge">
<title>Node1&#45;&gt;Node3</title>
<path fill="none" stroke="midnightblue" d="M472.43,-449.65C460.59,-439.75 447.72,-428.98 436.51,-419.61"/>
<polygon fill="midnightblue" stroke="midnightblue" points="470.5,-452.6 480.42,-456.34 474.99,-447.24 470.5,-452.6"/>
</g>
<!-- Node13 -->
<g id="node13" class="node">
<title>Node13</title>
<g id="a_node13"><a xlink:href="../../dc/dac/add__modeler__to__python_8cpp.html" target="_top" xlink:title=" ">
<polygon fill="none" stroke="black" points="517.5,-373 517.5,-414 711.5,-414 711.5,-373 517.5,-373"/>
<text text-anchor="start" x="525.5" y="-402" font-family="Helvetica,sans-Serif" font-size="10.00">/home/runner/work/Documentation</text>
<text text-anchor="start" x="525.5" y="-391" font-family="Helvetica,sans-Serif" font-size="10.00">/Documentation/master/kratos</text>
<text text-anchor="middle" x="614.5" y="-380" font-family="Helvetica,sans-Serif" font-size="10.00">/python/add_modeler_to_python.cpp</text>
</a>
</g>
</g>
<!-- Node1&#45;&gt;Node13 -->
<g id="edge14" class="edge">
<title>Node1&#45;&gt;Node13</title>
<path fill="none" stroke="midnightblue" d="M548.34,-449.85C562.64,-437.88 578.49,-424.62 591.09,-414.08"/>
<polygon fill="midnightblue" stroke="midnightblue" points="546.01,-447.24 540.58,-456.34 550.5,-452.6 546.01,-447.24"/>
</g>
<!-- Node14 -->
<g id="node14" class="node">
<title>Node14</title>
<g id="a_node14"><a xlink:href="../../d0/d04/distance__smoothing__process_8h.html" target="_top" xlink:title=" ">
<polygon fill="none" stroke="black" points="758.5,-367.5 758.5,-419.5 982.5,-419.5 982.5,-367.5 758.5,-367.5"/>
<text text-anchor="start" x="766.5" y="-407.5" font-family="Helvetica,sans-Serif" font-size="10.00">/home/runner/work/Documentation</text>
<text text-anchor="start" x="766.5" y="-396.5" font-family="Helvetica,sans-Serif" font-size="10.00">/Documentation/master/applications</text>
<text text-anchor="start" x="766.5" y="-385.5" font-family="Helvetica,sans-Serif" font-size="10.00">/FluidDynamicsApplication/custom</text>
<text text-anchor="middle" x="870.5" y="-374.5" font-family="Helvetica,sans-Serif" font-size="10.00">_processes/distance_smoothing_process.h</text>
</a>
</g>
</g>
<!-- Node1&#45;&gt;Node14 -->
<g id="edge15" class="edge">
<title>Node1&#45;&gt;Node14</title>
<path fill="none" stroke="midnightblue" d="M613.93,-456.5C661.93,-444.91 718.85,-431.15 766.87,-419.54"/>
<polygon fill="midnightblue" stroke="midnightblue" points="613.04,-453.12 604.15,-458.87 614.69,-459.92 613.04,-453.12"/>
</g>
<!-- Node4 -->
<g id="node4" class="node">
<title>Node4</title>
<g id="a_node4"><a xlink:href="../../d5/d1a/kratos_2python_2add__processes__to__python_8cpp.html" target="_top" xlink:title=" ">
<polygon fill="none" stroke="black" points="87,-278.5 87,-319.5 290,-319.5 290,-278.5 87,-278.5"/>
<text text-anchor="start" x="95" y="-307.5" font-family="Helvetica,sans-Serif" font-size="10.00">/home/runner/work/Documentation</text>
<text text-anchor="start" x="95" y="-296.5" font-family="Helvetica,sans-Serif" font-size="10.00">/Documentation/master/kratos</text>
<text text-anchor="middle" x="188.5" y="-285.5" font-family="Helvetica,sans-Serif" font-size="10.00">/python/add_processes_to_python.cpp</text>
</a>
</g>
</g>
<!-- Node3&#45;&gt;Node4 -->
<g id="edge3" class="edge">
<title>Node3&#45;&gt;Node4</title>
<path fill="none" stroke="midnightblue" d="M338.18,-363.51C304.52,-349.23 264.81,-332.38 234.76,-319.63"/>
<polygon fill="midnightblue" stroke="midnightblue" points="336.93,-366.78 347.51,-367.47 339.67,-360.34 336.93,-366.78"/>
</g>
<!-- Node5 -->
<g id="node5" class="node">
<title>Node5</title>
<g id="a_node5"><a xlink:href="../../de/d67/distance__calcuation__utility_8h.html" target="_top" xlink:title=" ">
<polygon fill="none" stroke="black" points="308,-273 308,-325 505,-325 505,-273 308,-273"/>
<text text-anchor="start" x="316" y="-313" font-family="Helvetica,sans-Serif" font-size="10.00">/home/runner/work/Documentation</text>
<text text-anchor="start" x="316" y="-302" font-family="Helvetica,sans-Serif" font-size="10.00">/Documentation/master/applications</text>
<text text-anchor="start" x="316" y="-291" font-family="Helvetica,sans-Serif" font-size="10.00">/ChimeraApplication/custom_utilities</text>
<text text-anchor="middle" x="406.5" y="-280" font-family="Helvetica,sans-Serif" font-size="10.00">/distance_calcuation_utility.h</text>
</a>
</g>
</g>
<!-- Node3&#45;&gt;Node5 -->
<g id="edge4" class="edge">
<title>Node3&#45;&gt;Node5</title>
<path fill="none" stroke="midnightblue" d="M406.5,-356.99C406.5,-346.41 406.5,-335.03 406.5,-325.25"/>
<polygon fill="midnightblue" stroke="midnightblue" points="403,-357.22 406.5,-367.22 410,-357.22 403,-357.22"/>
</g>
<!-- Node6 -->
<g id="node6" class="node">
<title>Node6</title>
<g id="a_node6"><a xlink:href="../../d1/dab/apply__chimera__process_8h.html" target="_top" xlink:title=" ">
<polygon fill="none" stroke="black" points="302,-178.5 302,-230.5 511,-230.5 511,-178.5 302,-178.5"/>
<text text-anchor="start" x="310" y="-218.5" font-family="Helvetica,sans-Serif" font-size="10.00">/home/runner/work/Documentation</text>
<text text-anchor="start" x="310" y="-207.5" font-family="Helvetica,sans-Serif" font-size="10.00">/Documentation/master/applications</text>
<text text-anchor="start" x="310" y="-196.5" font-family="Helvetica,sans-Serif" font-size="10.00">/ChimeraApplication/custom_processes</text>
<text text-anchor="middle" x="406.5" y="-185.5" font-family="Helvetica,sans-Serif" font-size="10.00">/apply_chimera_process.h</text>
</a>
</g>
</g>
<!-- Node5&#45;&gt;Node6 -->
<g id="edge5" class="edge">
<title>Node5&#45;&gt;Node6</title>
<path fill="none" stroke="midnightblue" d="M406.5,-262.49C406.5,-251.91 406.5,-240.53 406.5,-230.75"/>
<polygon fill="midnightblue" stroke="midnightblue" points="403,-262.72 406.5,-272.72 410,-262.72 403,-262.72"/>
</g>
<!-- Node7 -->
<g id="node7" class="node">
<title>Node7</title>
<g id="a_node7"><a xlink:href="../../d2/d28/apply__chimera__process_8cpp.html" target="_top" xlink:title=" ">
<polygon fill="none" stroke="black" points="0,-89.5 0,-141.5 209,-141.5 209,-89.5 0,-89.5"/>
<text text-anchor="start" x="8" y="-129.5" font-family="Helvetica,sans-Serif" font-size="10.00">/home/runner/work/Documentation</text>
<text text-anchor="start" x="8" y="-118.5" font-family="Helvetica,sans-Serif" font-size="10.00">/Documentation/master/applications</text>
<text text-anchor="start" x="8" y="-107.5" font-family="Helvetica,sans-Serif" font-size="10.00">/ChimeraApplication/custom_processes</text>
<text text-anchor="middle" x="104.5" y="-96.5" font-family="Helvetica,sans-Serif" font-size="10.00">/apply_chimera_process.cpp</text>
</a>
</g>
</g>
<!-- Node6&#45;&gt;Node7 -->
<g id="edge6" class="edge">
<title>Node6&#45;&gt;Node7</title>
<path fill="none" stroke="midnightblue" d="M309.51,-175.56C271.53,-164.62 228.29,-152.16 191.35,-141.52"/>
<polygon fill="midnightblue" stroke="midnightblue" points="308.98,-179.05 319.55,-178.45 310.91,-172.32 308.98,-179.05"/>
</g>
<!-- Node8 -->
<g id="node8" class="node">
<title>Node8</title>
<g id="a_node8"><a xlink:href="../../dc/dc5/apply__chimera__process__fractional__step_8h.html" target="_top" xlink:title=" ">
<polygon fill="none" stroke="black" points="227,-89.5 227,-141.5 448,-141.5 448,-89.5 227,-89.5"/>
<text text-anchor="start" x="235" y="-129.5" font-family="Helvetica,sans-Serif" font-size="10.00">/home/runner/work/Documentation</text>
<text text-anchor="start" x="235" y="-118.5" font-family="Helvetica,sans-Serif" font-size="10.00">/Documentation/master/applications</text>
<text text-anchor="start" x="235" y="-107.5" font-family="Helvetica,sans-Serif" font-size="10.00">/ChimeraApplication/custom_processes</text>
<text text-anchor="middle" x="337.5" y="-96.5" font-family="Helvetica,sans-Serif" font-size="10.00">/apply_chimera_process_fractional_step.h</text>
</a>
</g>
</g>
<!-- Node6&#45;&gt;Node8 -->
<g id="edge7" class="edge">
<title>Node6&#45;&gt;Node8</title>
<path fill="none" stroke="midnightblue" d="M380.1,-170.22C372.57,-160.72 364.49,-150.53 357.41,-141.61"/>
<polygon fill="midnightblue" stroke="midnightblue" points="377.59,-172.68 386.54,-178.34 383.07,-168.33 377.59,-172.68"/>
</g>
<!-- Node10 -->
<g id="node10" class="node">
<title>Node10</title>
<g id="a_node10"><a xlink:href="../../da/ddd/_chimera_application_2custom__python_2add__custom__processes__to__python_8cpp.html" target="_top" xlink:title=" ">
<polygon fill="none" stroke="black" points="373,-0.5 373,-52.5 580,-52.5 580,-0.5 373,-0.5"/>
<text text-anchor="start" x="381" y="-40.5" font-family="Helvetica,sans-Serif" font-size="10.00">/home/runner/work/Documentation</text>
<text text-anchor="start" x="381" y="-29.5" font-family="Helvetica,sans-Serif" font-size="10.00">/Documentation/master/applications</text>
<text text-anchor="start" x="381" y="-18.5" font-family="Helvetica,sans-Serif" font-size="10.00">/ChimeraApplication/custom_python</text>
<text text-anchor="middle" x="476.5" y="-7.5" font-family="Helvetica,sans-Serif" font-size="10.00">/add_custom_processes_to_python.cpp</text>
</a>
</g>
</g>
<!-- Node6&#45;&gt;Node10 -->
<g id="edge13" class="edge">
<title>Node6&#45;&gt;Node10</title>
<path fill="none" stroke="midnightblue" d="M438.33,-170.59C445.27,-161.87 451.91,-152.07 456.5,-142 469.64,-113.17 474.19,-76.64 475.74,-52.69"/>
<polygon fill="midnightblue" stroke="midnightblue" points="435.64,-168.36 431.91,-178.27 441.01,-172.84 435.64,-168.36"/>
</g>
<!-- Node11 -->
<g id="node11" class="node">
<title>Node11</title>
<g id="a_node11"><a xlink:href="../../d8/d4b/apply__chimera__process__monolithic_8h.html" target="_top" xlink:title=" ">
<polygon fill="none" stroke="black" points="505,-89.5 505,-141.5 714,-141.5 714,-89.5 505,-89.5"/>
<text text-anchor="start" x="513" y="-129.5" font-family="Helvetica,sans-Serif" font-size="10.00">/home/runner/work/Documentation</text>
<text text-anchor="start" x="513" y="-118.5" font-family="Helvetica,sans-Serif" font-size="10.00">/Documentation/master/applications</text>
<text text-anchor="start" x="513" y="-107.5" font-family="Helvetica,sans-Serif" font-size="10.00">/ChimeraApplication/custom_processes</text>
<text text-anchor="middle" x="609.5" y="-96.5" font-family="Helvetica,sans-Serif" font-size="10.00">/apply_chimera_process_monolithic.h</text>
</a>
</g>
</g>
<!-- Node6&#45;&gt;Node11 -->
<g id="edge10" class="edge">
<title>Node6&#45;&gt;Node11</title>
<path fill="none" stroke="midnightblue" d="M474.32,-174.44C499.2,-163.77 527.13,-151.8 551.12,-141.52"/>
<polygon fill="midnightblue" stroke="midnightblue" points="472.76,-171.3 464.94,-178.45 475.51,-177.73 472.76,-171.3"/>
</g>
<!-- Node9 -->
<g id="node9" class="node">
<title>Node9</title>
<g id="a_node9"><a xlink:href="../../d5/dce/apply__chimera__process__fractional__step_8cpp.html" target="_top" xlink:title=" ">
<polygon fill="none" stroke="black" points="122,-0.5 122,-52.5 355,-52.5 355,-0.5 122,-0.5"/>
<text text-anchor="start" x="130" y="-40.5" font-family="Helvetica,sans-Serif" font-size="10.00">/home/runner/work/Documentation</text>
<text text-anchor="start" x="130" y="-29.5" font-family="Helvetica,sans-Serif" font-size="10.00">/Documentation/master/applications</text>
<text text-anchor="start" x="130" y="-18.5" font-family="Helvetica,sans-Serif" font-size="10.00">/ChimeraApplication/custom_processes</text>
<text text-anchor="middle" x="238.5" y="-7.5" font-family="Helvetica,sans-Serif" font-size="10.00">/apply_chimera_process_fractional_step.cpp</text>
</a>
</g>
</g>
<!-- Node8&#45;&gt;Node9 -->
<g id="edge8" class="edge">
<title>Node8&#45;&gt;Node9</title>
<path fill="none" stroke="midnightblue" d="M301.26,-82.65C289.99,-72.75 277.74,-61.98 267.07,-52.61"/>
<polygon fill="midnightblue" stroke="midnightblue" points="299.04,-85.36 308.87,-89.34 303.66,-80.11 299.04,-85.36"/>
</g>
<!-- Node8&#45;&gt;Node10 -->
<g id="edge9" class="edge">
<title>Node8&#45;&gt;Node10</title>
<path fill="none" stroke="midnightblue" d="M386.57,-83.79C402.88,-73.58 420.84,-62.34 436.39,-52.61"/>
<polygon fill="midnightblue" stroke="midnightblue" points="384.32,-81.06 377.7,-89.34 388.04,-87 384.32,-81.06"/>
</g>
<!-- Node11&#45;&gt;Node10 -->
<g id="edge12" class="edge">
<title>Node11&#45;&gt;Node10</title>
<path fill="none" stroke="midnightblue" d="M562.55,-83.79C546.94,-73.58 529.76,-62.34 514.88,-52.61"/>
<polygon fill="midnightblue" stroke="midnightblue" points="560.75,-86.79 571.03,-89.34 564.58,-80.93 560.75,-86.79"/>
</g>
<!-- Node12 -->
<g id="node12" class="node">
<title>Node12</title>
<g id="a_node12"><a xlink:href="../../d6/d70/apply__chimera__process__monolithic_8cpp.html" target="_top" xlink:title=" ">
<polygon fill="none" stroke="black" points="598.5,-0.5 598.5,-52.5 810.5,-52.5 810.5,-0.5 598.5,-0.5"/>
<text text-anchor="start" x="606.5" y="-40.5" font-family="Helvetica,sans-Serif" font-size="10.00">/home/runner/work/Documentation</text>
<text text-anchor="start" x="606.5" y="-29.5" font-family="Helvetica,sans-Serif" font-size="10.00">/Documentation/master/applications</text>
<text text-anchor="start" x="606.5" y="-18.5" font-family="Helvetica,sans-Serif" font-size="10.00">/ChimeraApplication/custom_processes</text>
<text text-anchor="middle" x="704.5" y="-7.5" font-family="Helvetica,sans-Serif" font-size="10.00">/apply_chimera_process_monolithic.cpp</text>
</a>
</g>
</g>
<!-- Node11&#45;&gt;Node12 -->
<g id="edge11" class="edge">
<title>Node11&#45;&gt;Node12</title>
<path fill="none" stroke="midnightblue" d="M644.59,-82.36C655.32,-72.54 666.95,-61.89 677.08,-52.61"/>
<polygon fill="midnightblue" stroke="midnightblue" points="641.99,-80 636.98,-89.34 646.72,-85.16 641.99,-80"/>
</g>
<!-- Node15 -->
<g id="node15" class="node">
<title>Node15</title>
<g id="a_node15"><a xlink:href="../../d5/df7/distance__smoothing__process_8cpp.html" target="_top" xlink:title=" ">
<polygon fill="none" stroke="black" points="523,-273 523,-325 758,-325 758,-273 523,-273"/>
<text text-anchor="start" x="531" y="-313" font-family="Helvetica,sans-Serif" font-size="10.00">/home/runner/work/Documentation</text>
<text text-anchor="start" x="531" y="-302" font-family="Helvetica,sans-Serif" font-size="10.00">/Documentation/master/applications</text>
<text text-anchor="start" x="531" y="-291" font-family="Helvetica,sans-Serif" font-size="10.00">/FluidDynamicsApplication/custom</text>
<text text-anchor="middle" x="640.5" y="-280" font-family="Helvetica,sans-Serif" font-size="10.00">_processes/distance_smoothing_process.cpp</text>
</a>
</g>
</g>
<!-- Node14&#45;&gt;Node15 -->
<g id="edge16" class="edge">
<title>Node14&#45;&gt;Node15</title>
<path fill="none" stroke="midnightblue" d="M798.87,-363.69C768.09,-351.32 732.46,-336.98 702.79,-325.05"/>
<polygon fill="midnightblue" stroke="midnightblue" points="797.67,-366.98 808.26,-367.47 800.29,-360.49 797.67,-366.98"/>
</g>
<!-- Node16 -->
<g id="node16" class="node">
<title>Node16</title>
<g id="a_node16"><a xlink:href="../../d0/d71/_fluid_dynamics_application_2custom__python_2add__custom__processes__to__python_8cpp.html" target="_top" xlink:title=" ">
<polygon fill="none" stroke="black" points="776.5,-273 776.5,-325 1022.5,-325 1022.5,-273 776.5,-273"/>
<text text-anchor="start" x="784.5" y="-313" font-family="Helvetica,sans-Serif" font-size="10.00">/home/runner/work/Documentation</text>
<text text-anchor="start" x="784.5" y="-302" font-family="Helvetica,sans-Serif" font-size="10.00">/Documentation/master/applications</text>
<text text-anchor="start" x="784.5" y="-291" font-family="Helvetica,sans-Serif" font-size="10.00">/FluidDynamicsApplication/custom</text>
<text text-anchor="middle" x="899.5" y="-280" font-family="Helvetica,sans-Serif" font-size="10.00">_python/add_custom_processes_to_python.cpp</text>
</a>
</g>
</g>
<!-- Node14&#45;&gt;Node16 -->
<g id="edge17" class="edge">
<title>Node14&#45;&gt;Node16</title>
<path fill="none" stroke="midnightblue" d="M881.42,-357.65C884.8,-346.88 888.45,-335.23 891.59,-325.25"/>
<polygon fill="midnightblue" stroke="midnightblue" points="878.08,-356.63 878.42,-367.22 884.76,-358.73 878.08,-356.63"/>
</g>
<!-- Node17 -->
<g id="node17" class="node">
<title>Node17</title>
<g id="a_node17"><a xlink:href="../../d2/da3/_fluid_dynamics_application_2trilinos__extension_2custom__python_2add__trilinos__processes__to__python_8cpp.html" target="_top" xlink:title=" ">
<polygon fill="none" stroke="black" points="1040.5,-267.5 1040.5,-330.5 1248.5,-330.5 1248.5,-267.5 1040.5,-267.5"/>
<text text-anchor="start" x="1048.5" y="-318.5" font-family="Helvetica,sans-Serif" font-size="10.00">/home/runner/work/Documentation</text>
<text text-anchor="start" x="1048.5" y="-307.5" font-family="Helvetica,sans-Serif" font-size="10.00">/Documentation/master/applications</text>
<text text-anchor="start" x="1048.5" y="-296.5" font-family="Helvetica,sans-Serif" font-size="10.00">/FluidDynamicsApplication/trilinos</text>
<text text-anchor="start" x="1048.5" y="-285.5" font-family="Helvetica,sans-Serif" font-size="10.00">_extension/custom_python/add_trilinos</text>
<text text-anchor="middle" x="1144.5" y="-274.5" font-family="Helvetica,sans-Serif" font-size="10.00">_processes_to_python.cpp</text>
</a>
</g>
</g>
<!-- Node14&#45;&gt;Node17 -->
<g id="edge18" class="edge">
<title>Node14&#45;&gt;Node17</title>
<path fill="none" stroke="midnightblue" d="M954.26,-364.22C985.71,-353.6 1021.6,-341.49 1053.67,-330.66"/>
<polygon fill="midnightblue" stroke="midnightblue" points="953,-360.95 944.65,-367.47 955.24,-367.59 953,-360.95"/>
</g>
</g>
</svg>
        <g id="navigator" transform="translate(0 0)" fill="#404254">
                <rect fill="#f2f5e9" fill-opacity="0.5" stroke="#606060" stroke-width=".5" x="0" y="0" width="60" height="60"/>
                <use id="zoomplus" xlink:href="#zoomPlus" x="17" y="9" onmousedown="handleZoom(evt,'in')"/>
                <use id="zoomminus" xlink:href="#zoomMin" x="42" y="9" onmousedown="handleZoom(evt,'out')"/>
                <use id="reset" xlink:href="#resetDef" x="30" y="36" onmousedown="handleReset()"/>
                <g id="arrowUp" xlink:href="#dirArrow" transform="translate(30 24)" onmousedown="handlePan(0,-1)">
                  <use xlink:href="#rim" fill="#404040">
                        <set attributeName="fill" to="#808080" begin="arrowUp.mouseover" end="arrowUp.mouseout"/>
                  </use>
                  <path fill="none" stroke="white" stroke-width="1.5" d="M0,-3.0v7 M-2.5,-0.5L0,-3.0L2.5,-0.5"/>
                </g>
                <g id="arrowRight" xlink:href="#dirArrow" transform="rotate(90) translate(36 -43)" onmousedown="handlePan(1,0)">
                  <use xlink:href="#rim" fill="#404040">
                        <set attributeName="fill" to="#808080" begin="arrowRight.mouseover" end="arrowRight.mouseout"/>
                  </use>
                  <path fill="none" stroke="white" stroke-width="1.5" d="M0,-3.0v7 M-2.5,-0.5L0,-3.0L2.5,-0.5"/>
                </g>
                <g id="arrowDown" xlink:href="#dirArrow" transform="rotate(180) translate(-30 -48)" onmousedown="handlePan(0,1)">
                  <use xlink:href="#rim" fill="#404040">
                        <set attributeName="fill" to="#808080" begin="arrowDown.mouseover" end="arrowDown.mouseout"/>
                  </use>
                  <path fill="none" stroke="white" stroke-width="1.5" d="M0,-3.0v7 M-2.5,-0.5L0,-3.0L2.5,-0.5"/>
                </g>
                <g id="arrowLeft" xlink:href="#dirArrow" transform="rotate(270) translate(-36 17)" onmousedown="handlePan(-1,0)">
                  <use xlink:href="#rim" fill="#404040">
                        <set attributeName="fill" to="#808080" begin="arrowLeft.mouseover" end="arrowLeft.mouseout"/>
                  </use>
                  <path fill="none" stroke="white" stroke-width="1.5" d="M0,-3.0v7 M-2.5,-0.5L0,-3.0L2.5,-0.5"/>
                </g>
        </g>
        <svg viewBox="0 0 15 15" width="100%" height="30px" preserveAspectRatio="xMaxYMin meet">
         <g id="arrow_out" transform="scale(0.3 0.3)">
          <a xlink:href="connectivity__preserve__modeler_8h__dep__incl_org.svg" target="_base">
           <rect id="button" ry="5" rx="5" y="6" x="6" height="38" width="38"
                fill="#f2f5e9" fill-opacity="0.5" stroke="#606060" stroke-width="1.0"/>
           <path id="arrow"
             d="M 11.500037,31.436501 C 11.940474,20.09759 22.043105,11.32322 32.158766,21.979434 L 37.068811,17.246167 C 37.068811,17.246167 37.088388,32 37.088388,32 L 22.160133,31.978069 C 22.160133,31.978069 26.997745,27.140456 26.997745,27.140456 C 18.528582,18.264221 13.291696,25.230495 11.500037,31.436501 z"
             style="fill:#404040;"/>
          </a>
         </g>
        </svg>
</svg>
