<?xml version="1.0" encoding="UTF-8" standalone="no"?>
<!DOCTYPE svg PUBLIC "-//W3C//DTD SVG 1.1//EN"
 "http://www.w3.org/Graphics/SVG/1.1/DTD/svg11.dtd">
<!-- Generated by graphviz version 2.43.0 (0)
 -->
<!-- Title: /home/runner/work/Documentation/Documentation/master/applications/HDF5Application/custom_python/add_custom_io_to_python.cpp Pages: 1 -->
<svg width="3730pt" height="933pt"
 viewBox="0.00 0.00 3729.50 933.00" xmlns="http://www.w3.org/2000/svg" xmlns:xlink="http://www.w3.org/1999/xlink">
<g id="graph0" class="graph" transform="scale(1 1) rotate(0) translate(4 929)">
<title>/home/runner/work/Documentation/Documentation/master/applications/HDF5Application/custom_python/add_custom_io_to_python.cpp</title>
<!-- Node1 -->
<g id="node1" class="node">
<title>Node1</title>
<g id="a_node1"><a xlink:title=" ">
<polygon fill="#bfbfbf" stroke="black" points="2317.5,-872.5 2317.5,-924.5 2511.5,-924.5 2511.5,-872.5 2317.5,-872.5"/>
<text text-anchor="start" x="2325.5" y="-912.5" font-family="Helvetica,sans-Serif" font-size="10.00">/home/runner/work/Documentation</text>
<text text-anchor="start" x="2325.5" y="-901.5" font-family="Helvetica,sans-Serif" font-size="10.00">/Documentation/master/applications</text>
<text text-anchor="start" x="2325.5" y="-890.5" font-family="Helvetica,sans-Serif" font-size="10.00">/HDF5Application/custom_python</text>
<text text-anchor="middle" x="2414.5" y="-879.5" font-family="Helvetica,sans-Serif" font-size="10.00">/add_custom_io_to_python.cpp</text>
</a>
</g>
</g>
<!-- Node2 -->
<g id="node2" class="node">
<title>Node2</title>
<g id="a_node2"><a xlink:title=" ">
<polygon fill="none" stroke="#bfbfbf" points="0,-811 0,-830 119,-830 119,-811 0,-811"/>
<text text-anchor="middle" x="59.5" y="-818" font-family="Helvetica,sans-Serif" font-size="10.00">pybind11/pybind11.h</text>
</a>
</g>
</g>
<!-- Node1&#45;&gt;Node2 -->
<g id="edge1" class="edge">
<title>Node1&#45;&gt;Node2</title>
<path fill="none" stroke="midnightblue" d="M2317.24,-897.04C1939.11,-894.89 566.5,-883.92 133.5,-836 124.71,-835.03 115.4,-833.56 106.46,-831.92"/>
<polygon fill="midnightblue" stroke="midnightblue" points="107.06,-828.47 96.58,-830.02 105.74,-835.35 107.06,-828.47"/>
</g>
<!-- Node3 -->
<g id="node3" class="node">
<title>Node3</title>
<g id="a_node3"><a xlink:href="../../df/d67/define_8h.html" target="_top" xlink:title=" ">
<polygon fill="none" stroke="black" points="1719,-123.5 1719,-142.5 1818,-142.5 1818,-123.5 1719,-123.5"/>
<text text-anchor="middle" x="1768.5" y="-130.5" font-family="Helvetica,sans-Serif" font-size="10.00">includes/define.h</text>
</a>
</g>
</g>
<!-- Node1&#45;&gt;Node3 -->
<g id="edge2" class="edge">
<title>Node1&#45;&gt;Node3</title>
<path fill="none" stroke="midnightblue" d="M2317.44,-888.42C2181.67,-872.99 1951.5,-835.68 1951.5,-760 1951.5,-760 1951.5,-760 1951.5,-696.5 1951.5,-618.65 1935.12,-600.47 1927.5,-523 1917.86,-425.08 1920.32,-400.22 1914.5,-302 1911.24,-246.97 1935.03,-220.29 1898.5,-179 1880.62,-158.79 1853.19,-147.65 1828.13,-141.52"/>
<polygon fill="midnightblue" stroke="midnightblue" points="1828.83,-138.09 1818.31,-139.33 1827.31,-144.92 1828.83,-138.09"/>
</g>
<!-- Node17 -->
<g id="node11" class="node">
<title>Node17</title>
<g id="a_node11"><a xlink:href="../../dd/dfe/model__part_8h.html" target="_top" xlink:title=" ">
<polygon fill="none" stroke="black" points="1163,-688 1163,-707 1288,-707 1288,-688 1163,-688"/>
<text text-anchor="middle" x="1225.5" y="-695" font-family="Helvetica,sans-Serif" font-size="10.00">includes/model_part.h</text>
</a>
</g>
</g>
<!-- Node1&#45;&gt;Node17 -->
<g id="edge14" class="edge">
<title>Node1&#45;&gt;Node17</title>
<path fill="none" stroke="midnightblue" d="M2317.14,-889.41C2207.8,-879.66 2025.27,-861.36 1869.5,-836 1642.08,-798.98 1373.6,-735.03 1269.66,-709.5"/>
<polygon fill="midnightblue" stroke="midnightblue" points="1270.38,-706.07 1259.83,-707.07 1268.7,-712.86 1270.38,-706.07"/>
</g>
<!-- Node127 -->
<g id="node27" class="node">
<title>Node127</title>
<g id="a_node27"><a xlink:href="../../db/d71/kratos__parameters_8h.html" target="_top" xlink:title=" ">
<polygon fill="none" stroke="black" points="835,-375 835,-394 996,-394 996,-375 835,-375"/>
<text text-anchor="middle" x="915.5" y="-382" font-family="Helvetica,sans-Serif" font-size="10.00">includes/kratos_parameters.h</text>
</a>
</g>
</g>
<!-- Node1&#45;&gt;Node127 -->
<g id="edge118" class="edge">
<title>Node1&#45;&gt;Node127</title>
<path fill="none" stroke="midnightblue" d="M2317.28,-895.33C2144.31,-890.56 1772.02,-876.16 1460.5,-836 1021.77,-779.43 764.86,-987.35 483.5,-646 369.4,-507.57 714.46,-423.89 856.95,-395.97"/>
<polygon fill="midnightblue" stroke="midnightblue" points="857.7,-399.39 866.85,-394.06 856.37,-392.52 857.7,-399.39"/>
</g>
<!-- Node132 -->
<g id="node32" class="node">
<title>Node132</title>
<g id="a_node32"><a xlink:href="../../d8/d75/communicator_8h.html" target="_top" xlink:title=" ">
<polygon fill="none" stroke="black" points="1784,-626.5 1784,-645.5 1923,-645.5 1923,-626.5 1784,-626.5"/>
<text text-anchor="middle" x="1853.5" y="-633.5" font-family="Helvetica,sans-Serif" font-size="10.00">includes/communicator.h</text>
</a>
</g>
</g>
<!-- Node1&#45;&gt;Node132 -->
<g id="edge119" class="edge">
<title>Node1&#45;&gt;Node132</title>
<path fill="none" stroke="midnightblue" d="M2317.36,-896.16C2195.49,-892.6 1995.42,-880.01 1937.5,-836 1878.13,-790.89 1860.31,-695.8 1855.31,-655.59"/>
<polygon fill="midnightblue" stroke="midnightblue" points="1858.79,-655.13 1854.2,-645.58 1851.83,-655.91 1858.79,-655.13"/>
</g>
<!-- Node133 -->
<g id="node35" class="node">
<title>Node133</title>
<g id="a_node35"><a xlink:href="../../dc/dac/io_8h.html" target="_top" xlink:title=" ">
<polygon fill="none" stroke="black" points="1325.5,-749.5 1325.5,-768.5 1403.5,-768.5 1403.5,-749.5 1325.5,-749.5"/>
<text text-anchor="middle" x="1364.5" y="-756.5" font-family="Helvetica,sans-Serif" font-size="10.00">includes/io.h</text>
</a>
</g>
</g>
<!-- Node1&#45;&gt;Node133 -->
<g id="edge113" class="edge">
<title>Node1&#45;&gt;Node133</title>
<path fill="none" stroke="midnightblue" d="M2317.49,-894.3C2124.34,-887.31 1698.05,-868.64 1555.5,-836 1493.97,-821.91 1426.29,-791.01 1390.33,-773.26"/>
<polygon fill="midnightblue" stroke="midnightblue" points="1391.57,-769.96 1381.06,-768.62 1388.44,-776.22 1391.57,-769.96"/>
</g>
<!-- Node134 -->
<g id="node36" class="node">
<title>Node134</title>
<g id="a_node36"><a xlink:href="../../de/db2/parallel__environment_8h.html" target="_top" xlink:title=" ">
<polygon fill="none" stroke="red" points="516,-179.5 516,-198.5 689,-198.5 689,-179.5 516,-179.5"/>
<text text-anchor="middle" x="602.5" y="-186.5" font-family="Helvetica,sans-Serif" font-size="10.00">includes/parallel_environment.h</text>
</a>
</g>
</g>
<!-- Node1&#45;&gt;Node134 -->
<g id="edge120" class="edge">
<title>Node1&#45;&gt;Node134</title>
<path fill="none" stroke="midnightblue" d="M2317.45,-896.77C1884.14,-892.89 147.5,-870.43 147.5,-760 147.5,-760 147.5,-760 147.5,-383.5 147.5,-229.15 371.98,-196.16 505.6,-190.2"/>
<polygon fill="midnightblue" stroke="midnightblue" points="506,-193.69 515.85,-189.79 505.71,-186.69 506,-193.69"/>
</g>
<!-- Node136 -->
<g id="node37" class="node">
<title>Node136</title>
<g id="a_node37"><a xlink:href="../../d1/d50/hdf5__file_8h.html" target="_top" xlink:title=" ">
<polygon fill="none" stroke="red" points="2615,-436.5 2615,-455.5 2736,-455.5 2736,-436.5 2615,-436.5"/>
<text text-anchor="middle" x="2675.5" y="-443.5" font-family="Helvetica,sans-Serif" font-size="10.00">custom_io/hdf5_file.h</text>
</a>
</g>
</g>
<!-- Node1&#45;&gt;Node136 -->
<g id="edge125" class="edge">
<title>Node1&#45;&gt;Node136</title>
<path fill="none" stroke="midnightblue" d="M2511.51,-873.52C2590.86,-848.18 2697.78,-799.53 2747.5,-713 2797.08,-626.71 2758.86,-579.52 2711.5,-492 2705.92,-481.68 2697.89,-471.37 2690.84,-463.23"/>
<polygon fill="midnightblue" stroke="midnightblue" points="2693.28,-460.71 2683.98,-455.62 2688.08,-465.39 2693.28,-460.71"/>
</g>
<!-- Node139 -->
<g id="node38" class="node">
<title>Node139</title>
<g id="a_node38"><a xlink:href="../../dd/d63/hdf5__model__part__io_8h.html" target="_top" xlink:title=" ">
<polygon fill="none" stroke="red" points="2350.5,-805.5 2350.5,-835.5 2478.5,-835.5 2478.5,-805.5 2350.5,-805.5"/>
<text text-anchor="start" x="2358.5" y="-823.5" font-family="Helvetica,sans-Serif" font-size="10.00">custom_io/hdf5_model</text>
<text text-anchor="middle" x="2414.5" y="-812.5" font-family="Helvetica,sans-Serif" font-size="10.00">_part_io.h</text>
</a>
</g>
</g>
<!-- Node1&#45;&gt;Node139 -->
<g id="edge129" class="edge">
<title>Node1&#45;&gt;Node139</title>
<path fill="none" stroke="midnightblue" d="M2414.5,-872.19C2414.5,-863.79 2414.5,-854.44 2414.5,-846.09"/>
<polygon fill="midnightblue" stroke="midnightblue" points="2418,-845.85 2414.5,-835.85 2411,-845.85 2418,-845.85"/>
</g>
<!-- Node140 -->
<g id="node39" class="node">
<title>Node140</title>
<g id="a_node39"><a xlink:href="../../d1/d87/hdf5__nodal__solution__step__data__io_8h.html" target="_top" xlink:title=" ">
<polygon fill="none" stroke="red" points="3002,-492.5 3002,-522.5 3139,-522.5 3139,-492.5 3002,-492.5"/>
<text text-anchor="start" x="3010" y="-510.5" font-family="Helvetica,sans-Serif" font-size="10.00">custom_io/hdf5_nodal</text>
<text text-anchor="middle" x="3070.5" y="-499.5" font-family="Helvetica,sans-Serif" font-size="10.00">_solution_step_data_io.h</text>
</a>
</g>
</g>
<!-- Node1&#45;&gt;Node140 -->
<g id="edge134" class="edge">
<title>Node1&#45;&gt;Node140</title>
<path fill="none" stroke="midnightblue" d="M2511.62,-892.23C2633.57,-884.42 2835.03,-867.22 2902.5,-836 2947.89,-815 2985.5,-810.02 2985.5,-760 2985.5,-760 2985.5,-760 2985.5,-635 2985.5,-592.02 3019.72,-552.66 3044.73,-529.62"/>
<polygon fill="midnightblue" stroke="midnightblue" points="3047.33,-532 3052.47,-522.73 3042.68,-526.77 3047.33,-532"/>
</g>
<!-- Node141 -->
<g id="node40" class="node">
<title>Node141</title>
<g id="a_node40"><a xlink:href="../../db/d9c/hdf5__element__data__value__io_8h.html" target="_top" xlink:title=" ">
<polygon fill="none" stroke="red" points="2269,-682.5 2269,-712.5 2406,-712.5 2406,-682.5 2269,-682.5"/>
<text text-anchor="start" x="2277" y="-700.5" font-family="Helvetica,sans-Serif" font-size="10.00">custom_io/hdf5_element</text>
<text text-anchor="middle" x="2337.5" y="-689.5" font-family="Helvetica,sans-Serif" font-size="10.00">_data_value_io.h</text>
</a>
</g>
</g>
<!-- Node1&#45;&gt;Node141 -->
<g id="edge138" class="edge">
<title>Node1&#45;&gt;Node141</title>
<path fill="none" stroke="midnightblue" d="M2372.7,-872.25C2360.41,-862.56 2348.42,-850.33 2341.5,-836 2323.91,-799.58 2327.84,-751.17 2332.52,-722.57"/>
<polygon fill="midnightblue" stroke="midnightblue" points="2335.98,-723.11 2334.31,-712.65 2329.09,-721.87 2335.98,-723.11"/>
</g>
<!-- Node143 -->
<g id="node41" class="node">
<title>Node143</title>
<g id="a_node41"><a xlink:href="../../d4/d66/hdf5__element__flag__value__io_8h.html" target="_top" xlink:title=" ">
<polygon fill="none" stroke="red" points="2424,-682.5 2424,-712.5 2561,-712.5 2561,-682.5 2424,-682.5"/>
<text text-anchor="start" x="2432" y="-700.5" font-family="Helvetica,sans-Serif" font-size="10.00">custom_io/hdf5_element</text>
<text text-anchor="middle" x="2492.5" y="-689.5" font-family="Helvetica,sans-Serif" font-size="10.00">_flag_value_io.h</text>
</a>
</g>
</g>
<!-- Node1&#45;&gt;Node143 -->
<g id="edge143" class="edge">
<title>Node1&#45;&gt;Node143</title>
<path fill="none" stroke="midnightblue" d="M2456.23,-872.22C2468.52,-862.52 2480.53,-850.3 2487.5,-836 2505.23,-799.63 2501.69,-751.2 2497.26,-722.59"/>
<polygon fill="midnightblue" stroke="midnightblue" points="2500.7,-721.93 2495.56,-712.66 2493.8,-723.11 2500.7,-721.93"/>
</g>
<!-- Node144 -->
<g id="node42" class="node">
<title>Node144</title>
<g id="a_node42"><a xlink:href="../../df/da8/hdf5__condition__data__value__io_8h.html" target="_top" xlink:title=" ">
<polygon fill="none" stroke="red" points="2579.5,-682.5 2579.5,-712.5 2721.5,-712.5 2721.5,-682.5 2579.5,-682.5"/>
<text text-anchor="start" x="2587.5" y="-700.5" font-family="Helvetica,sans-Serif" font-size="10.00">custom_io/hdf5_condition</text>
<text text-anchor="middle" x="2650.5" y="-689.5" font-family="Helvetica,sans-Serif" font-size="10.00">_data_value_io.h</text>
</a>
</g>
</g>
<!-- Node1&#45;&gt;Node144 -->
<g id="edge148" class="edge">
<title>Node1&#45;&gt;Node144</title>
<path fill="none" stroke="midnightblue" d="M2454.93,-872.23C2471.08,-861.61 2489.59,-848.78 2505.5,-836 2552.73,-798.08 2602.98,-747.93 2630.16,-719.87"/>
<polygon fill="midnightblue" stroke="midnightblue" points="2632.78,-722.2 2637.2,-712.57 2627.74,-717.34 2632.78,-722.2"/>
</g>
<!-- Node145 -->
<g id="node43" class="node">
<title>Node145</title>
<g id="a_node43"><a xlink:href="../../dc/d11/hdf5__condition__flag__value__io_8h.html" target="_top" xlink:title=" ">
<polygon fill="none" stroke="red" points="3013.5,-682.5 3013.5,-712.5 3155.5,-712.5 3155.5,-682.5 3013.5,-682.5"/>
<text text-anchor="start" x="3021.5" y="-700.5" font-family="Helvetica,sans-Serif" font-size="10.00">custom_io/hdf5_condition</text>
<text text-anchor="middle" x="3084.5" y="-689.5" font-family="Helvetica,sans-Serif" font-size="10.00">_flag_value_io.h</text>
</a>
</g>
</g>
<!-- Node1&#45;&gt;Node145 -->
<g id="edge153" class="edge">
<title>Node1&#45;&gt;Node145</title>
<path fill="none" stroke="midnightblue" d="M2511.67,-897.47C2656.52,-895.73 2920.54,-885.61 2999.5,-836 3041.35,-809.71 3065.84,-754.53 3077.06,-722.64"/>
<polygon fill="midnightblue" stroke="midnightblue" points="3080.5,-723.39 3080.36,-712.8 3073.86,-721.17 3080.5,-723.39"/>
</g>
<!-- Node146 -->
<g id="node44" class="node">
<title>Node146</title>
<g id="a_node44"><a xlink:href="../../da/dae/hdf5__nodal__solution__step__bossak__io_8h.html" target="_top" xlink:title=" ">
<polygon fill="none" stroke="red" points="3349.5,-559.5 3349.5,-589.5 3499.5,-589.5 3499.5,-559.5 3349.5,-559.5"/>
<text text-anchor="start" x="3357.5" y="-577.5" font-family="Helvetica,sans-Serif" font-size="10.00">custom_io/hdf5_nodal</text>
<text text-anchor="middle" x="3424.5" y="-566.5" font-family="Helvetica,sans-Serif" font-size="10.00">_solution_step_bossak_io.h</text>
</a>
</g>
</g>
<!-- Node1&#45;&gt;Node146 -->
<g id="edge158" class="edge">
<title>Node1&#45;&gt;Node146</title>
<path fill="none" stroke="midnightblue" d="M2511.92,-897.59C2747.1,-896.93 3331.63,-889.85 3400.5,-836 3428.4,-814.18 3424.5,-795.42 3424.5,-760 3424.5,-760 3424.5,-760 3424.5,-696.5 3424.5,-662.98 3424.5,-624.24 3424.5,-599.81"/>
<polygon fill="midnightblue" stroke="midnightblue" points="3428,-599.66 3424.5,-589.66 3421,-599.66 3428,-599.66"/>
</g>
<!-- Node147 -->
<g id="node45" class="node">
<title>Node147</title>
<g id="a_node45"><a xlink:href="../../d4/d0c/hdf5__nodal__data__value__io_8h.html" target="_top" xlink:title=" ">
<polygon fill="none" stroke="red" points="3375.5,-492.5 3375.5,-522.5 3499.5,-522.5 3499.5,-492.5 3375.5,-492.5"/>
<text text-anchor="start" x="3383.5" y="-510.5" font-family="Helvetica,sans-Serif" font-size="10.00">custom_io/hdf5_nodal</text>
<text text-anchor="middle" x="3437.5" y="-499.5" font-family="Helvetica,sans-Serif" font-size="10.00">_data_value_io.h</text>
</a>
</g>
</g>
<!-- Node1&#45;&gt;Node147 -->
<g id="edge162" class="edge">
<title>Node1&#45;&gt;Node147</title>
<path fill="none" stroke="midnightblue" d="M2511.63,-896.89C2730.21,-894.68 3254.92,-884.32 3424.5,-836 3492.96,-816.49 3565.5,-831.19 3565.5,-760 3565.5,-760 3565.5,-760 3565.5,-635 3565.5,-585.03 3515.53,-548.12 3478.04,-527.46"/>
<polygon fill="midnightblue" stroke="midnightblue" points="3479.29,-524.16 3468.81,-522.56 3476,-530.34 3479.29,-524.16"/>
</g>
<!-- Node148 -->
<g id="node46" class="node">
<title>Node148</title>
<g id="a_node46"><a xlink:href="../../dd/d52/hdf5__nodal__flag__value__io_8h.html" target="_top" xlink:title=" ">
<polygon fill="none" stroke="red" points="3195.5,-492.5 3195.5,-522.5 3319.5,-522.5 3319.5,-492.5 3195.5,-492.5"/>
<text text-anchor="start" x="3203.5" y="-510.5" font-family="Helvetica,sans-Serif" font-size="10.00">custom_io/hdf5_nodal</text>
<text text-anchor="middle" x="3257.5" y="-499.5" font-family="Helvetica,sans-Serif" font-size="10.00">_flag_value_io.h</text>
</a>
</g>
</g>
<!-- Node1&#45;&gt;Node148 -->
<g id="edge166" class="edge">
<title>Node1&#45;&gt;Node148</title>
<path fill="none" stroke="midnightblue" d="M2511.68,-895.18C2661.07,-890.38 2939.33,-876.19 3029.5,-836 3161.07,-777.36 3229.32,-597.93 3250.32,-532.61"/>
<polygon fill="midnightblue" stroke="midnightblue" points="3253.74,-533.39 3253.39,-522.8 3247.06,-531.3 3253.74,-533.39"/>
</g>
<!-- Node149 -->
<g id="node47" class="node">
<title>Node149</title>
<g id="a_node47"><a xlink:href="../../d0/d1d/hdf5__data__value__container__io_8h.html" target="_top" xlink:title="Methods for storing and retrieving a data value container in an HDF5 file.">
<polygon fill="none" stroke="black" points="2822,-492.5 2822,-522.5 2945,-522.5 2945,-492.5 2822,-492.5"/>
<text text-anchor="start" x="2830" y="-510.5" font-family="Helvetica,sans-Serif" font-size="10.00">custom_io/hdf5_data</text>
<text text-anchor="middle" x="2883.5" y="-499.5" font-family="Helvetica,sans-Serif" font-size="10.00">_value_container_io.h</text>
</a>
</g>
</g>
<!-- Node1&#45;&gt;Node149 -->
<g id="edge170" class="edge">
<title>Node1&#45;&gt;Node149</title>
<path fill="none" stroke="midnightblue" d="M2511.64,-892.26C2665.38,-881.28 2947.5,-848.99 2947.5,-760 2947.5,-760 2947.5,-760 2947.5,-635 2947.5,-594.71 2921.33,-554.22 2902.46,-530.26"/>
<polygon fill="midnightblue" stroke="midnightblue" points="2905.17,-528.05 2896.14,-522.5 2899.74,-532.47 2905.17,-528.05"/>
</g>
<!-- Node150 -->
<g id="node48" class="node">
<title>Node150</title>
<g id="a_node48"><a xlink:href="../../d8/dd5/hdf5__element__gauss__point__output_8h.html" target="_top" xlink:title=" ">
<polygon fill="none" stroke="red" points="1936,-492.5 1936,-522.5 2073,-522.5 2073,-492.5 1936,-492.5"/>
<text text-anchor="start" x="1944" y="-510.5" font-family="Helvetica,sans-Serif" font-size="10.00">custom_io/hdf5_element</text>
<text text-anchor="middle" x="2004.5" y="-499.5" font-family="Helvetica,sans-Serif" font-size="10.00">_gauss_point_output.h</text>
</a>
</g>
</g>
<!-- Node1&#45;&gt;Node150 -->
<g id="edge174" class="edge">
<title>Node1&#45;&gt;Node150</title>
<path fill="none" stroke="midnightblue" d="M2317.49,-883.63C2247.21,-867.46 2164.5,-832.94 2164.5,-760 2164.5,-760 2164.5,-760 2164.5,-635 2164.5,-580.01 2105.62,-545.18 2059.29,-526.29"/>
<polygon fill="midnightblue" stroke="midnightblue" points="2060.51,-523.01 2049.92,-522.62 2057.95,-529.53 2060.51,-523.01"/>
</g>
<!-- Node152 -->
<g id="node49" class="node">
<title>Node152</title>
<g id="a_node49"><a xlink:href="../../da/d2a/hdf5__condition__gauss__point__output_8h.html" target="_top" xlink:title=" ">
<polygon fill="none" stroke="red" points="2091.5,-492.5 2091.5,-522.5 2233.5,-522.5 2233.5,-492.5 2091.5,-492.5"/>
<text text-anchor="start" x="2099.5" y="-510.5" font-family="Helvetica,sans-Serif" font-size="10.00">custom_io/hdf5_condition</text>
<text text-anchor="middle" x="2162.5" y="-499.5" font-family="Helvetica,sans-Serif" font-size="10.00">_gauss_point_output.h</text>
</a>
</g>
</g>
<!-- Node1&#45;&gt;Node152 -->
<g id="edge179" class="edge">
<title>Node1&#45;&gt;Node152</title>
<path fill="none" stroke="midnightblue" d="M2317.5,-874.19C2261.67,-854.35 2202.5,-819.33 2202.5,-760 2202.5,-760 2202.5,-760 2202.5,-635 2202.5,-597.58 2186.4,-556.72 2174.62,-531.85"/>
<polygon fill="midnightblue" stroke="midnightblue" points="2177.75,-530.28 2170.21,-522.83 2171.46,-533.35 2177.75,-530.28"/>
</g>
<!-- Node153 -->
<g id="node50" class="node">
<title>Node153</title>
<g id="a_node50"><a xlink:href="../../d2/d71/hdf5__vertex__container__io_8h.html" target="_top" xlink:title=" ">
<polygon fill="none" stroke="red" points="3593.5,-805.5 3593.5,-835.5 3721.5,-835.5 3721.5,-805.5 3593.5,-805.5"/>
<text text-anchor="start" x="3601.5" y="-823.5" font-family="Helvetica,sans-Serif" font-size="10.00">custom_io/hdf5_vertex</text>
<text text-anchor="middle" x="3657.5" y="-812.5" font-family="Helvetica,sans-Serif" font-size="10.00">_container_io.h</text>
</a>
</g>
</g>
<!-- Node1&#45;&gt;Node153 -->
<g id="edge184" class="edge">
<title>Node1&#45;&gt;Node153</title>
<path fill="none" stroke="midnightblue" d="M2511.53,-896.67C2711.82,-894.01 3185.3,-882.84 3579.5,-836 3580.77,-835.85 3582.05,-835.69 3583.34,-835.52"/>
<polygon fill="midnightblue" stroke="midnightblue" points="3583.91,-838.98 3593.33,-834.12 3582.94,-832.05 3583.91,-838.98"/>
</g>
<!-- Node4 -->
<g id="node4" class="node">
<title>Node4</title>
<g id="a_node4"><a xlink:title=" ">
<polygon fill="none" stroke="#bfbfbf" points="1113,-6 1113,-25 1178,-25 1178,-6 1113,-6"/>
<text text-anchor="middle" x="1145.5" y="-13" font-family="Helvetica,sans-Serif" font-size="10.00">stdexcept</text>
</a>
</g>
</g>
<!-- Node3&#45;&gt;Node4 -->
<g id="edge3" class="edge">
<title>Node3&#45;&gt;Node4</title>
<path fill="none" stroke="midnightblue" d="M1719.3,-123.48C1668.1,-114.58 1585.63,-100.1 1514.5,-87 1396.14,-65.21 1256.69,-38.2 1188.05,-24.82"/>
<polygon fill="midnightblue" stroke="midnightblue" points="1188.54,-21.35 1178.05,-22.87 1187.2,-28.22 1188.54,-21.35"/>
</g>
<!-- Node5 -->
<g id="node5" class="node">
<title>Node5</title>
<g id="a_node5"><a xlink:title=" ">
<polygon fill="none" stroke="#bfbfbf" points="723.5,-6 723.5,-25 779.5,-25 779.5,-6 723.5,-6"/>
<text text-anchor="middle" x="751.5" y="-13" font-family="Helvetica,sans-Serif" font-size="10.00">sstream</text>
</a>
</g>
</g>
<!-- Node3&#45;&gt;Node5 -->
<g id="edge4" class="edge">
<title>Node3&#45;&gt;Node5</title>
<path fill="none" stroke="midnightblue" d="M1718.82,-131.3C1577.31,-128.93 1174.16,-119.43 1046.5,-87 1026.07,-81.81 1023.53,-73.56 1003.5,-67 929.67,-42.81 839.7,-28.17 789.69,-21.27"/>
<polygon fill="midnightblue" stroke="midnightblue" points="790.03,-17.79 779.65,-19.92 789.09,-24.72 790.03,-17.79"/>
</g>
<!-- Node6 -->
<g id="node6" class="node">
<title>Node6</title>
<g id="a_node6"><a xlink:href="../../dc/d25/kratos__export__api_8h.html" target="_top" xlink:title=" ">
<polygon fill="none" stroke="black" points="1258.5,-0.5 1258.5,-30.5 1386.5,-30.5 1386.5,-0.5 1258.5,-0.5"/>
<text text-anchor="start" x="1266.5" y="-18.5" font-family="Helvetica,sans-Serif" font-size="10.00">includes/kratos_export</text>
<text text-anchor="middle" x="1322.5" y="-7.5" font-family="Helvetica,sans-Serif" font-size="10.00">_api.h</text>
</a>
</g>
</g>
<!-- Node3&#45;&gt;Node6 -->
<g id="edge5" class="edge">
<title>Node3&#45;&gt;Node6</title>
<path fill="none" stroke="midnightblue" d="M1735.34,-123.41C1661.64,-104.33 1483.14,-58.1 1386.77,-33.14"/>
<polygon fill="midnightblue" stroke="midnightblue" points="1387.41,-29.69 1376.85,-30.58 1385.66,-36.47 1387.41,-29.69"/>
</g>
<!-- Node7 -->
<g id="node7" class="node">
<title>Node7</title>
<g id="a_node7"><a xlink:href="../../d9/dc0/smart__pointers_8h.html" target="_top" xlink:title=" ">
<polygon fill="none" stroke="red" points="818,-67.5 818,-86.5 961,-86.5 961,-67.5 818,-67.5"/>
<text text-anchor="middle" x="889.5" y="-74.5" font-family="Helvetica,sans-Serif" font-size="10.00">includes/smart_pointers.h</text>
</a>
</g>
</g>
<!-- Node3&#45;&gt;Node7 -->
<g id="edge6" class="edge">
<title>Node3&#45;&gt;Node7</title>
<path fill="none" stroke="midnightblue" d="M1718.57,-129.25C1597.59,-122.53 1279.15,-104.56 1013.5,-87 999.9,-86.1 985.45,-85.1 971.42,-84.1"/>
<polygon fill="midnightblue" stroke="midnightblue" points="971.51,-80.59 961.29,-83.37 971.01,-87.58 971.51,-80.59"/>
</g>
<!-- Node12 -->
<g id="node9" class="node">
<title>Node12</title>
<g id="a_node9"><a xlink:href="../../dd/d2d/exception_8h.html" target="_top" xlink:title=" ">
<polygon fill="none" stroke="red" points="1056,-67.5 1056,-86.5 1173,-86.5 1173,-67.5 1056,-67.5"/>
<text text-anchor="middle" x="1114.5" y="-74.5" font-family="Helvetica,sans-Serif" font-size="10.00">includes/exception.h</text>
</a>
</g>
</g>
<!-- Node3&#45;&gt;Node12 -->
<g id="edge8" class="edge">
<title>Node3&#45;&gt;Node12</title>
<path fill="none" stroke="midnightblue" d="M1718.69,-128.91C1618.15,-122.49 1383.8,-106.69 1187.5,-87 1186.03,-86.85 1184.55,-86.7 1183.05,-86.54"/>
<polygon fill="midnightblue" stroke="midnightblue" points="1183.36,-83.06 1173.04,-85.45 1182.61,-90.02 1183.36,-83.06"/>
</g>
<!-- Node8 -->
<g id="node8" class="node">
<title>Node8</title>
<g id="a_node8"><a xlink:title=" ">
<polygon fill="none" stroke="#bfbfbf" points="380.5,-6 380.5,-25 440.5,-25 440.5,-6 380.5,-6"/>
<text text-anchor="middle" x="410.5" y="-13" font-family="Helvetica,sans-Serif" font-size="10.00">iostream</text>
</a>
</g>
</g>
<!-- Node7&#45;&gt;Node8 -->
<g id="edge7" class="edge">
<title>Node7&#45;&gt;Node8</title>
<path fill="none" stroke="midnightblue" d="M820.87,-67.48C719.39,-54.87 532.5,-31.65 450.66,-21.49"/>
<polygon fill="midnightblue" stroke="midnightblue" points="450.87,-17.99 440.52,-20.23 450.01,-24.93 450.87,-17.99"/>
</g>
<!-- Node12&#45;&gt;Node4 -->
<g id="edge9" class="edge">
<title>Node12&#45;&gt;Node4</title>
<path fill="none" stroke="midnightblue" d="M1118.94,-67.48C1123.45,-58.82 1130.57,-45.15 1136.31,-34.15"/>
<polygon fill="midnightblue" stroke="midnightblue" points="1139.55,-35.49 1141.07,-25.01 1133.34,-32.26 1139.55,-35.49"/>
</g>
<!-- Node12&#45;&gt;Node5 -->
<g id="edge12" class="edge">
<title>Node12&#45;&gt;Node5</title>
<path fill="none" stroke="midnightblue" d="M1062.49,-67.48C988.62,-55.37 855.02,-33.47 789.63,-22.75"/>
<polygon fill="midnightblue" stroke="midnightblue" points="790.18,-19.29 779.74,-21.13 789.04,-26.2 790.18,-19.29"/>
</g>
<!-- Node12&#45;&gt;Node6 -->
<g id="edge13" class="edge">
<title>Node12&#45;&gt;Node6</title>
<path fill="none" stroke="midnightblue" d="M1144.3,-67.48C1175.37,-58.59 1224.87,-44.43 1263.82,-33.29"/>
<polygon fill="midnightblue" stroke="midnightblue" points="1264.83,-36.64 1273.48,-30.52 1262.9,-29.91 1264.83,-36.64"/>
</g>
<!-- Node12&#45;&gt;Node8 -->
<g id="edge11" class="edge">
<title>Node12&#45;&gt;Node8</title>
<path fill="none" stroke="midnightblue" d="M1055.99,-71.05C916.83,-59.29 568.91,-29.89 450.61,-19.89"/>
<polygon fill="midnightblue" stroke="midnightblue" points="450.8,-16.39 440.54,-19.04 450.21,-23.37 450.8,-16.39"/>
</g>
<!-- Node13 -->
<g id="node10" class="node">
<title>Node13</title>
<g id="a_node10"><a xlink:title=" ">
<polygon fill="none" stroke="#bfbfbf" points="2505.5,-6 2505.5,-25 2549.5,-25 2549.5,-6 2505.5,-6"/>
<text text-anchor="middle" x="2527.5" y="-13" font-family="Helvetica,sans-Serif" font-size="10.00">string</text>
</a>
</g>
</g>
<!-- Node12&#45;&gt;Node13 -->
<g id="edge10" class="edge">
<title>Node12&#45;&gt;Node13</title>
<path fill="none" stroke="midnightblue" d="M1173.23,-70.77C1190.09,-69.4 1208.52,-68.02 1225.5,-67 1731.07,-36.71 2348.23,-20.78 2495.06,-17.25"/>
<polygon fill="midnightblue" stroke="midnightblue" points="2495.28,-20.75 2505.19,-17.01 2495.11,-13.75 2495.28,-20.75"/>
</g>
<!-- Node17&#45;&gt;Node3 -->
<g id="edge19" class="edge">
<title>Node17&#45;&gt;Node3</title>
<path fill="none" stroke="midnightblue" d="M1162.88,-691.08C1102.45,-684.45 1017.03,-670.89 995.5,-646 950.73,-594.22 979.25,-558.95 993.5,-492 999.1,-465.68 1004.59,-460.13 1016.5,-436 1031.75,-405.1 1036.99,-398.06 1055.5,-369 1065.96,-352.57 1070.23,-349.55 1080.5,-333 1106.72,-290.74 1093.76,-263.52 1134.5,-235 1219.61,-175.4 1263.72,-219.93 1365.5,-199 1400.55,-191.79 1408.39,-185.91 1443.5,-179 1535.41,-160.91 1643.35,-147.49 1708.8,-140.21"/>
<polygon fill="midnightblue" stroke="midnightblue" points="1709.38,-143.67 1718.93,-139.09 1708.61,-136.71 1709.38,-143.67"/>
</g>
<!-- Node17&#45;&gt;Node5 -->
<g id="edge17" class="edge">
<title>Node17&#45;&gt;Node5</title>
<path fill="none" stroke="midnightblue" d="M1162.74,-695.82C982.69,-693.43 473.16,-683.4 408.5,-646 382.68,-631.07 382.18,-617.85 371.5,-590 296.39,-394.03 335.15,-303.93 441.5,-123 458.71,-93.72 463.82,-83.52 493.5,-67 564.02,-27.75 660.2,-18.63 712.96,-16.74"/>
<polygon fill="midnightblue" stroke="midnightblue" points="713.33,-20.23 723.22,-16.45 713.13,-13.24 713.33,-20.23"/>
</g>
<!-- Node17&#45;&gt;Node8 -->
<g id="edge16" class="edge">
<title>Node17&#45;&gt;Node8</title>
<path fill="none" stroke="midnightblue" d="M1162.78,-695.85C978.95,-693.52 450.1,-683.57 382.5,-646 275.07,-586.29 69.5,-312.91 69.5,-190 69.5,-190 69.5,-190 69.5,-132 69.5,-94.44 91.02,-85.85 123.5,-67 164.81,-43.03 301.3,-26.95 370.1,-20.16"/>
<polygon fill="midnightblue" stroke="midnightblue" points="370.52,-23.63 380.14,-19.18 369.85,-16.66 370.52,-23.63"/>
</g>
<!-- Node17&#45;&gt;Node13 -->
<g id="edge15" class="edge">
<title>Node17&#45;&gt;Node13</title>
<path fill="none" stroke="midnightblue" d="M1288.09,-695.2C1503.52,-689.51 2210.52,-660.53 2381.5,-523 2501.5,-426.48 2516.57,-200.15 2532.5,-87 2534.96,-69.55 2533.08,-49.49 2530.97,-35.24"/>
<polygon fill="midnightblue" stroke="midnightblue" points="2534.39,-34.51 2529.29,-25.22 2527.49,-35.66 2534.39,-34.51"/>
</g>
<!-- Node18 -->
<g id="node12" class="node">
<title>Node18</title>
<g id="a_node12"><a xlink:title=" ">
<polygon fill="none" stroke="#bfbfbf" points="1762,-179.5 1762,-198.5 1815,-198.5 1815,-179.5 1762,-179.5"/>
<text text-anchor="middle" x="1788.5" y="-186.5" font-family="Helvetica,sans-Serif" font-size="10.00">cstddef</text>
</a>
</g>
</g>
<!-- Node17&#45;&gt;Node18 -->
<g id="edge18" class="edge">
<title>Node17&#45;&gt;Node18</title>
<path fill="none" stroke="midnightblue" d="M1288.28,-692.42C1384.83,-685.51 1564.86,-669.85 1624.5,-646 1663.46,-630.42 1675.56,-623.74 1700.5,-590 1791.03,-467.53 1791.67,-269.97 1789.47,-208.72"/>
<polygon fill="midnightblue" stroke="midnightblue" points="1792.96,-208.47 1789.03,-198.63 1785.97,-208.77 1792.96,-208.47"/>
</g>
<!-- Node19 -->
<g id="node13" class="node">
<title>Node19</title>
<g id="a_node13"><a xlink:href="../../dd/d5f/serializer_8h.html" target="_top" xlink:title=" ">
<polygon fill="none" stroke="red" points="784,-179.5 784,-198.5 897,-198.5 897,-179.5 784,-179.5"/>
<text text-anchor="middle" x="840.5" y="-186.5" font-family="Helvetica,sans-Serif" font-size="10.00">includes/serializer.h</text>
</a>
</g>
</g>
<!-- Node17&#45;&gt;Node19 -->
<g id="edge20" class="edge">
<title>Node17&#45;&gt;Node19</title>
<path fill="none" stroke="midnightblue" d="M1162.98,-696.28C1007.85,-695.1 608.77,-687.95 483.5,-646 429.15,-627.8 375.5,-632.82 375.5,-575.5 375.5,-575.5 375.5,-575.5 375.5,-383.5 375.5,-260.33 495.06,-280.57 609.5,-235 638.77,-223.34 716.63,-209.4 773.89,-200.15"/>
<polygon fill="midnightblue" stroke="midnightblue" points="774.65,-203.58 783.97,-198.54 773.54,-196.66 774.65,-203.58"/>
</g>
<!-- Node26 -->
<g id="node16" class="node">
<title>Node26</title>
<g id="a_node16"><a xlink:href="../../d1/d8c/logger_8h.html" target="_top" xlink:title=" ">
<polygon fill="none" stroke="red" points="883.5,-123.5 883.5,-142.5 1003.5,-142.5 1003.5,-123.5 883.5,-123.5"/>
<text text-anchor="middle" x="943.5" y="-130.5" font-family="Helvetica,sans-Serif" font-size="10.00">input_output/logger.h</text>
</a>
</g>
</g>
<!-- Node17&#45;&gt;Node26 -->
<g id="edge107" class="edge">
<title>Node17&#45;&gt;Node26</title>
<path fill="none" stroke="midnightblue" d="M1162.72,-697.43C1004.79,-698.08 603.5,-688.6 603.5,-575.5 603.5,-575.5 603.5,-575.5 603.5,-383.5 603.5,-339.3 626.11,-329.77 660.5,-302 706.45,-264.9 861.09,-237.94 905.5,-199 920.05,-186.24 930.48,-166.5 936.69,-152.12"/>
<polygon fill="midnightblue" stroke="midnightblue" points="939.97,-153.35 940.46,-142.77 933.48,-150.73 939.97,-153.35"/>
</g>
<!-- Node57 -->
<g id="node17" class="node">
<title>Node57</title>
<g id="a_node17"><a xlink:href="../../de/db8/process__info_8h.html" target="_top" xlink:title=" ">
<polygon fill="none" stroke="red" points="1607,-436.5 1607,-455.5 1738,-455.5 1738,-436.5 1607,-436.5"/>
<text text-anchor="middle" x="1672.5" y="-443.5" font-family="Helvetica,sans-Serif" font-size="10.00">includes/process_info.h</text>
</a>
</g>
</g>
<!-- Node17&#45;&gt;Node57 -->
<g id="edge31" class="edge">
<title>Node17&#45;&gt;Node57</title>
<path fill="none" stroke="midnightblue" d="M1288.06,-695.57C1361.57,-692.72 1486.25,-682.34 1586.5,-646 1630.79,-629.94 1647.4,-627.05 1676.5,-590 1704.07,-554.89 1710.06,-535.12 1698.5,-492 1695.85,-482.1 1690.43,-472.13 1685.23,-464.1"/>
<polygon fill="midnightblue" stroke="midnightblue" points="1687.96,-461.91 1679.39,-455.68 1682.21,-465.89 1687.96,-461.91"/>
</g>
<!-- Node58 -->
<g id="node18" class="node">
<title>Node58</title>
<g id="a_node18"><a xlink:href="../../d1/d82/data__value__container_8h.html" target="_top" xlink:title=" ">
<polygon fill="none" stroke="red" points="1502,-369.5 1502,-399.5 1627,-399.5 1627,-369.5 1502,-369.5"/>
<text text-anchor="start" x="1510" y="-387.5" font-family="Helvetica,sans-Serif" font-size="10.00">containers/data_value</text>
<text text-anchor="middle" x="1564.5" y="-376.5" font-family="Helvetica,sans-Serif" font-size="10.00">_container.h</text>
</a>
</g>
</g>
<!-- Node17&#45;&gt;Node58 -->
<g id="edge53" class="edge">
<title>Node17&#45;&gt;Node58</title>
<path fill="none" stroke="midnightblue" d="M1227.45,-687.8C1233.05,-664.52 1251.05,-599.81 1286.5,-559 1352.19,-483.37 1459.03,-429.7 1519.34,-403.56"/>
<polygon fill="midnightblue" stroke="midnightblue" points="1520.79,-406.75 1528.61,-399.6 1518.04,-400.31 1520.79,-406.75"/>
</g>
<!-- Node59 -->
<g id="node19" class="node">
<title>Node59</title>
<g id="a_node19"><a xlink:href="../../da/d89/variable_8h.html" target="_top" xlink:title=" ">
<polygon fill="none" stroke="red" points="1280,-308 1280,-327 1399,-327 1399,-308 1280,-308"/>
<text text-anchor="middle" x="1339.5" y="-315" font-family="Helvetica,sans-Serif" font-size="10.00">containers/variable.h</text>
</a>
</g>
</g>
<!-- Node17&#45;&gt;Node59 -->
<g id="edge111" class="edge">
<title>Node17&#45;&gt;Node59</title>
<path fill="none" stroke="midnightblue" d="M1162.59,-694.7C1126.5,-690.03 1083.84,-677.55 1060.5,-646 1055.21,-638.85 1059.13,-634.78 1060.5,-626 1070.17,-564.21 1066.97,-542.77 1103.5,-492 1159.88,-413.63 1262.43,-356.08 1311.66,-331.57"/>
<polygon fill="midnightblue" stroke="midnightblue" points="1313.32,-334.65 1320.77,-327.11 1310.25,-328.37 1313.32,-334.65"/>
</g>
<!-- Node74 -->
<g id="node20" class="node">
<title>Node74</title>
<g id="a_node20"><a xlink:href="../../d3/dc3/variable__data_8h.html" target="_top" xlink:title=" ">
<polygon fill="none" stroke="red" points="1143.5,-241 1143.5,-260 1235.5,-260 1235.5,-241 1143.5,-241"/>
<text text-anchor="middle" x="1189.5" y="-248" font-family="Helvetica,sans-Serif" font-size="10.00">variable_data.h</text>
</a>
</g>
</g>
<!-- Node17&#45;&gt;Node74 -->
<g id="edge112" class="edge">
<title>Node17&#45;&gt;Node74</title>
<path fill="none" stroke="midnightblue" d="M1162.91,-689.17C1107.32,-681.39 1031.69,-667.24 1010.5,-646 992.46,-627.91 1000.41,-615.38 997.5,-590 985.54,-485.6 1019.56,-453.88 1081.5,-369 1085.47,-363.56 1145.82,-298.49 1174.53,-267.59"/>
<polygon fill="midnightblue" stroke="midnightblue" points="1177.16,-269.9 1181.41,-260.19 1172.04,-265.13 1177.16,-269.9"/>
</g>
<!-- Node83 -->
<g id="node21" class="node">
<title>Node83</title>
<g id="a_node21"><a xlink:href="../../d8/d3b/mesh_8h.html" target="_top" xlink:title=" ">
<polygon fill="none" stroke="red" points="1555.5,-565 1555.5,-584 1651.5,-584 1651.5,-565 1555.5,-565"/>
<text text-anchor="middle" x="1603.5" y="-572" font-family="Helvetica,sans-Serif" font-size="10.00">includes/mesh.h</text>
</a>
</g>
</g>
<!-- Node17&#45;&gt;Node83 -->
<g id="edge54" class="edge">
<title>Node17&#45;&gt;Node83</title>
<path fill="none" stroke="midnightblue" d="M1252.08,-687.99C1318.42,-666.76 1491.38,-611.39 1567.1,-587.15"/>
<polygon fill="midnightblue" stroke="midnightblue" points="1568.24,-590.46 1576.7,-584.08 1566.11,-583.8 1568.24,-590.46"/>
</g>
<!-- Node87 -->
<g id="node22" class="node">
<title>Node87</title>
<g id="a_node22"><a xlink:href="../../d2/d58/pointer__vector__map_8h.html" target="_top" xlink:title=" ">
<polygon fill="none" stroke="red" points="1444,-235.5 1444,-265.5 1549,-265.5 1549,-235.5 1444,-235.5"/>
<text text-anchor="start" x="1452" y="-253.5" font-family="Helvetica,sans-Serif" font-size="10.00">containers/pointer</text>
<text text-anchor="middle" x="1496.5" y="-242.5" font-family="Helvetica,sans-Serif" font-size="10.00">_vector_map.h</text>
</a>
</g>
</g>
<!-- Node17&#45;&gt;Node87 -->
<g id="edge105" class="edge">
<title>Node17&#45;&gt;Node87</title>
<path fill="none" stroke="midnightblue" d="M1226.25,-687.94C1228.52,-665.53 1236.64,-603.78 1260.5,-559 1321.01,-445.43 1365.22,-436.64 1441.5,-333 1455.84,-313.51 1471.16,-290.62 1481.98,-274.06"/>
<polygon fill="midnightblue" stroke="midnightblue" points="1484.98,-275.87 1487.5,-265.58 1479.11,-272.06 1484.98,-275.87"/>
</g>
<!-- Node99 -->
<g id="node23" class="node">
<title>Node99</title>
<g id="a_node23"><a xlink:href="../../da/da4/master__slave__constraint_8h.html" target="_top" xlink:title=" ">
<polygon fill="none" stroke="red" points="1563.5,-492.5 1563.5,-522.5 1689.5,-522.5 1689.5,-492.5 1563.5,-492.5"/>
<text text-anchor="start" x="1571.5" y="-510.5" font-family="Helvetica,sans-Serif" font-size="10.00">includes/master_slave</text>
<text text-anchor="middle" x="1626.5" y="-499.5" font-family="Helvetica,sans-Serif" font-size="10.00">_constraint.h</text>
</a>
</g>
</g>
<!-- Node17&#45;&gt;Node99 -->
<g id="edge110" class="edge">
<title>Node17&#45;&gt;Node99</title>
<path fill="none" stroke="midnightblue" d="M1288.24,-690.5C1397.37,-678.63 1614.9,-648.11 1660.5,-590 1674.41,-572.28 1661.15,-548.04 1647.32,-530.62"/>
<polygon fill="midnightblue" stroke="midnightblue" points="1649.73,-528.05 1640.61,-522.67 1644.39,-532.57 1649.73,-528.05"/>
</g>
<!-- Node110 -->
<g id="node24" class="node">
<title>Node110</title>
<g id="a_node24"><a xlink:href="../../d3/dad/geometry__container_8h.html" target="_top" xlink:title=" ">
<polygon fill="none" stroke="black" points="669.5,-302.5 669.5,-332.5 787.5,-332.5 787.5,-302.5 669.5,-302.5"/>
<text text-anchor="start" x="677.5" y="-320.5" font-family="Helvetica,sans-Serif" font-size="10.00">containers/geometry</text>
<text text-anchor="middle" x="728.5" y="-309.5" font-family="Helvetica,sans-Serif" font-size="10.00">_container.h</text>
</a>
</g>
</g>
<!-- Node17&#45;&gt;Node110 -->
<g id="edge71" class="edge">
<title>Node17&#45;&gt;Node110</title>
<path fill="none" stroke="midnightblue" d="M1162.94,-694.59C1074.73,-690.72 919.62,-679.27 875.5,-646 773.17,-568.83 740.38,-404.3 731.45,-342.57"/>
<polygon fill="midnightblue" stroke="midnightblue" points="734.91,-342.03 730.08,-332.6 727.97,-342.98 734.91,-342.03"/>
</g>
<!-- Node111 -->
<g id="node25" class="node">
<title>Node111</title>
<g id="a_node25"><a xlink:href="../../da/d92/pointer__hash__map__set_8h.html" target="_top" xlink:title=" ">
<polygon fill="none" stroke="red" points="619,-235.5 619,-265.5 724,-265.5 724,-235.5 619,-235.5"/>
<text text-anchor="start" x="627" y="-253.5" font-family="Helvetica,sans-Serif" font-size="10.00">containers/pointer</text>
<text text-anchor="middle" x="671.5" y="-242.5" font-family="Helvetica,sans-Serif" font-size="10.00">_hash_map_set.h</text>
</a>
</g>
</g>
<!-- Node17&#45;&gt;Node111 -->
<g id="edge106" class="edge">
<title>Node17&#45;&gt;Node111</title>
<path fill="none" stroke="midnightblue" d="M1162.81,-694.64C1024.31,-690.02 696.08,-676.16 589.5,-646 523.23,-627.25 451.5,-644.37 451.5,-575.5 451.5,-575.5 451.5,-575.5 451.5,-506.5 451.5,-394.76 574.09,-307.75 636.25,-270.81"/>
<polygon fill="midnightblue" stroke="midnightblue" points="638.09,-273.79 644.96,-265.73 634.56,-267.75 638.09,-273.79"/>
</g>
<!-- Node113 -->
<g id="node26" class="node">
<title>Node113</title>
<g id="a_node26"><a xlink:href="../../d4/dfe/element_8h.html" target="_top" xlink:title=" ">
<polygon fill="none" stroke="red" points="1427.5,-565 1427.5,-584 1537.5,-584 1537.5,-565 1427.5,-565"/>
<text text-anchor="middle" x="1482.5" y="-572" font-family="Helvetica,sans-Serif" font-size="10.00">includes/element.h</text>
</a>
</g>
</g>
<!-- Node17&#45;&gt;Node113 -->
<g id="edge77" class="edge">
<title>Node17&#45;&gt;Node113</title>
<path fill="none" stroke="midnightblue" d="M1243.57,-687.99C1287.89,-667.13 1402.17,-613.32 1454.99,-588.45"/>
<polygon fill="midnightblue" stroke="midnightblue" points="1456.55,-591.59 1464.1,-584.16 1453.57,-585.25 1456.55,-591.59"/>
</g>
<!-- Node131 -->
<g id="node31" class="node">
<title>Node131</title>
<g id="a_node31"><a xlink:href="../../d7/d6c/condition_8h.html" target="_top" xlink:title=" ">
<polygon fill="none" stroke="red" points="1295.5,-565 1295.5,-584 1409.5,-584 1409.5,-565 1295.5,-565"/>
<text text-anchor="middle" x="1352.5" y="-572" font-family="Helvetica,sans-Serif" font-size="10.00">includes/condition.h</text>
</a>
</g>
</g>
<!-- Node17&#45;&gt;Node131 -->
<g id="edge87" class="edge">
<title>Node17&#45;&gt;Node131</title>
<path fill="none" stroke="midnightblue" d="M1235.54,-687.7C1246.86,-677.74 1265.72,-660.94 1281.5,-646 1300.87,-627.66 1322.55,-605.96 1336.8,-591.52"/>
<polygon fill="midnightblue" stroke="midnightblue" points="1339.37,-593.9 1343.89,-584.32 1334.38,-588.99 1339.37,-593.9"/>
</g>
<!-- Node17&#45;&gt;Node132 -->
<g id="edge90" class="edge">
<title>Node17&#45;&gt;Node132</title>
<path fill="none" stroke="midnightblue" d="M1288.35,-690.96C1389.67,-681.96 1595.37,-663.41 1769.5,-646 1770.81,-645.87 1772.14,-645.74 1773.47,-645.6"/>
<polygon fill="midnightblue" stroke="midnightblue" points="1774.24,-649.04 1783.84,-644.54 1773.53,-642.08 1774.24,-649.04"/>
</g>
<!-- Node116 -->
<g id="node33" class="node">
<title>Node116</title>
<g id="a_node33"><a xlink:href="../../dd/d98/table_8h.html" target="_top" xlink:title=" ">
<polygon fill="none" stroke="black" points="1090.5,-375 1090.5,-394 1184.5,-394 1184.5,-375 1090.5,-375"/>
<text text-anchor="middle" x="1137.5" y="-382" font-family="Helvetica,sans-Serif" font-size="10.00">includes/table.h</text>
</a>
</g>
</g>
<!-- Node17&#45;&gt;Node116 -->
<g id="edge99" class="edge">
<title>Node17&#45;&gt;Node116</title>
<path fill="none" stroke="midnightblue" d="M1162.97,-688.92C1111.4,-681.24 1044.12,-667.4 1027.5,-646 985.51,-591.95 1000.8,-555.02 1027.5,-492 1027.66,-491.63 1090.55,-430.85 1121.15,-401.29"/>
<polygon fill="midnightblue" stroke="midnightblue" points="1123.75,-403.64 1128.51,-394.18 1118.89,-398.61 1123.75,-403.64"/>
</g>
<!-- Node109 -->
<g id="node34" class="node">
<title>Node109</title>
<g id="a_node34"><a xlink:href="../../d0/dac/kratos__flags_8h.html" target="_top" xlink:title=" ">
<polygon fill="none" stroke="red" points="1069.5,-626.5 1069.5,-645.5 1197.5,-645.5 1197.5,-626.5 1069.5,-626.5"/>
<text text-anchor="middle" x="1133.5" y="-633.5" font-family="Helvetica,sans-Serif" font-size="10.00">includes/kratos_flags.h</text>
</a>
</g>
</g>
<!-- Node17&#45;&gt;Node109 -->
<g id="edge108" class="edge">
<title>Node17&#45;&gt;Node109</title>
<path fill="none" stroke="midnightblue" d="M1212.32,-687.98C1197.43,-678.34 1172.96,-662.52 1155.23,-651.05"/>
<polygon fill="midnightblue" stroke="midnightblue" points="1156.95,-648 1146.66,-645.51 1153.15,-653.88 1156.95,-648"/>
</g>
<!-- Node19&#45;&gt;Node3 -->
<g id="edge26" class="edge">
<title>Node19&#45;&gt;Node3</title>
<path fill="none" stroke="midnightblue" d="M897.15,-184.7C1061.93,-175.11 1539.99,-147.3 1708.7,-137.48"/>
<polygon fill="midnightblue" stroke="midnightblue" points="1709.1,-140.96 1718.88,-136.89 1708.69,-133.97 1709.1,-140.96"/>
</g>
<!-- Node19&#45;&gt;Node5 -->
<g id="edge22" class="edge">
<title>Node19&#45;&gt;Node5</title>
<path fill="none" stroke="midnightblue" d="M840.66,-179.23C840.59,-166.39 839.31,-141.96 831.5,-123 827.37,-112.97 786.29,-60.4 764.67,-33.06"/>
<polygon fill="midnightblue" stroke="midnightblue" points="767.35,-30.82 758.4,-25.16 761.87,-35.17 767.35,-30.82"/>
</g>
<!-- Node19&#45;&gt;Node8 -->
<g id="edge23" class="edge">
<title>Node19&#45;&gt;Node8</title>
<path fill="none" stroke="midnightblue" d="M837.52,-179.09C832.2,-164.65 819.58,-136.42 798.5,-123 699.73,-60.1 648.58,-124.05 537.5,-87 497.2,-73.56 454.94,-47.27 430.75,-30.87"/>
<polygon fill="midnightblue" stroke="midnightblue" points="432.63,-27.92 422.41,-25.12 428.65,-33.68 432.63,-27.92"/>
</g>
<!-- Node19&#45;&gt;Node13 -->
<g id="edge21" class="edge">
<title>Node19&#45;&gt;Node13</title>
<path fill="none" stroke="midnightblue" d="M890.9,-179.44C974.99,-164.56 1148.75,-131.22 1291.5,-87 1314.36,-79.92 1318.1,-72.03 1341.5,-67 1570.71,-17.78 2329.19,-16.16 2495.21,-16.41"/>
<polygon fill="midnightblue" stroke="midnightblue" points="2495.27,-19.91 2505.27,-16.43 2495.28,-12.91 2495.27,-19.91"/>
</g>
<!-- Node24 -->
<g id="node14" class="node">
<title>Node24</title>
<g id="a_node14"><a xlink:title=" ">
<polygon fill="none" stroke="#bfbfbf" points="592,-123.5 592,-142.5 685,-142.5 685,-123.5 592,-123.5"/>
<text text-anchor="middle" x="638.5" y="-130.5" font-family="Helvetica,sans-Serif" font-size="10.00">unordered_map</text>
</a>
</g>
</g>
<!-- Node19&#45;&gt;Node24 -->
<g id="edge24" class="edge">
<title>Node19&#45;&gt;Node24</title>
<path fill="none" stroke="midnightblue" d="M808.49,-179.44C773.77,-170.16 718.21,-155.31 680.12,-145.13"/>
<polygon fill="midnightblue" stroke="midnightblue" points="680.92,-141.72 670.36,-142.52 679.11,-148.48 680.92,-141.72"/>
</g>
<!-- Node25 -->
<g id="node15" class="node">
<title>Node25</title>
<g id="a_node15"><a xlink:title=" ">
<polygon fill="none" stroke="#bfbfbf" points="703.5,-123.5 703.5,-142.5 789.5,-142.5 789.5,-123.5 703.5,-123.5"/>
<text text-anchor="middle" x="746.5" y="-130.5" font-family="Helvetica,sans-Serif" font-size="10.00">unordered_set</text>
</a>
</g>
</g>
<!-- Node19&#45;&gt;Node25 -->
<g id="edge25" class="edge">
<title>Node19&#45;&gt;Node25</title>
<path fill="none" stroke="midnightblue" d="M825.4,-179.32C810.6,-170.82 787.81,-157.73 770.52,-147.8"/>
<polygon fill="midnightblue" stroke="midnightblue" points="771.98,-144.6 761.57,-142.65 768.49,-150.67 771.98,-144.6"/>
</g>
<!-- Node19&#45;&gt;Node26 -->
<g id="edge27" class="edge">
<title>Node19&#45;&gt;Node26</title>
<path fill="none" stroke="midnightblue" d="M857.05,-179.32C873.49,-170.7 898.93,-157.36 917.97,-147.39"/>
<polygon fill="midnightblue" stroke="midnightblue" points="919.76,-150.4 926.99,-142.65 916.51,-144.2 919.76,-150.4"/>
</g>
<!-- Node26&#45;&gt;Node8 -->
<g id="edge29" class="edge">
<title>Node26&#45;&gt;Node8</title>
<path fill="none" stroke="midnightblue" d="M883.43,-126.43C796.56,-118.03 640.29,-101.57 585.5,-87 563.17,-81.06 558.91,-75.71 537.5,-67 505.1,-53.81 467.9,-39.06 442.17,-28.93"/>
<polygon fill="midnightblue" stroke="midnightblue" points="443.16,-25.55 432.57,-25.15 440.59,-32.07 443.16,-25.55"/>
</g>
<!-- Node26&#45;&gt;Node12 -->
<g id="edge30" class="edge">
<title>Node26&#45;&gt;Node12</title>
<path fill="none" stroke="midnightblue" d="M970.6,-123.44C999.49,-114.32 1045.42,-99.81 1077.61,-89.65"/>
<polygon fill="midnightblue" stroke="midnightblue" points="1079.05,-92.87 1087.53,-86.52 1076.94,-86.19 1079.05,-92.87"/>
</g>
<!-- Node26&#45;&gt;Node13 -->
<g id="edge28" class="edge">
<title>Node26&#45;&gt;Node13</title>
<path fill="none" stroke="midnightblue" d="M1003.7,-124.09C1087.03,-113.01 1229.98,-93.5 1253.5,-87 1275.78,-80.85 1278.94,-72 1301.5,-67 1538.6,-14.48 2325.81,-15.45 2495.21,-16.3"/>
<polygon fill="midnightblue" stroke="midnightblue" points="2495.44,-19.8 2505.46,-16.35 2495.48,-12.8 2495.44,-19.8"/>
</g>
<!-- Node57&#45;&gt;Node3 -->
<g id="edge36" class="edge">
<title>Node57&#45;&gt;Node3</title>
<path fill="none" stroke="midnightblue" d="M1680.74,-436.1C1708.1,-405.84 1795.8,-303.05 1824.5,-199 1826.86,-190.43 1828.34,-187.02 1824.5,-179 1818.25,-165.95 1806.16,-155.49 1794.82,-147.95"/>
<polygon fill="midnightblue" stroke="midnightblue" points="1796.35,-144.79 1786,-142.54 1792.69,-150.75 1796.35,-144.79"/>
</g>
<!-- Node57&#45;&gt;Node5 -->
<g id="edge34" class="edge">
<title>Node57&#45;&gt;Node5</title>
<path fill="none" stroke="midnightblue" d="M1606.93,-442.77C1421.33,-436.28 900.87,-416.81 825.5,-400 786.87,-391.39 694.22,-353.72 660.5,-333 554.01,-267.58 394.37,-219.73 473.5,-123 524.6,-60.53 577.37,-118.94 651.5,-87 683.47,-73.22 715.5,-48.19 734.4,-31.96"/>
<polygon fill="midnightblue" stroke="midnightblue" points="736.9,-34.42 742.11,-25.2 732.29,-29.16 736.9,-34.42"/>
</g>
<!-- Node57&#45;&gt;Node8 -->
<g id="edge33" class="edge">
<title>Node57&#45;&gt;Node8</title>
<path fill="none" stroke="midnightblue" d="M1606.72,-444.13C1406.75,-441.18 814.74,-429.99 733.5,-400 712.4,-392.21 713.92,-378.42 693.5,-369 622.19,-336.1 596.37,-353.28 520.5,-333 428.31,-308.35 393.43,-322.47 316.5,-266 243.16,-212.16 207.92,-134.88 268.5,-67 294.44,-37.93 338.24,-25.6 370.35,-20.36"/>
<polygon fill="midnightblue" stroke="midnightblue" points="370.94,-23.81 380.32,-18.9 369.92,-16.88 370.94,-23.81"/>
</g>
<!-- Node57&#45;&gt;Node13 -->
<g id="edge32" class="edge">
<title>Node57&#45;&gt;Node13</title>
<path fill="none" stroke="midnightblue" d="M1686.17,-436.34C1767.01,-385.26 2183.72,-123.54 2323.5,-67 2382,-43.34 2454.56,-28.6 2495.49,-21.53"/>
<polygon fill="midnightblue" stroke="midnightblue" points="2496.15,-24.96 2505.43,-19.85 2494.98,-18.06 2496.15,-24.96"/>
</g>
<!-- Node57&#45;&gt;Node18 -->
<g id="edge35" class="edge">
<title>Node57&#45;&gt;Node18</title>
<path fill="none" stroke="midnightblue" d="M1674.89,-436.19C1683.12,-406.55 1712.15,-308.13 1753.5,-235 1759.21,-224.9 1767.04,-214.61 1773.84,-206.42"/>
<polygon fill="midnightblue" stroke="midnightblue" points="1776.56,-208.62 1780.42,-198.75 1771.25,-204.06 1776.56,-208.62"/>
</g>
<!-- Node57&#45;&gt;Node58 -->
<g id="edge37" class="edge">
<title>Node57&#45;&gt;Node58</title>
<path fill="none" stroke="midnightblue" d="M1657.03,-436.48C1641.92,-428.15 1618.42,-415.21 1598.89,-404.45"/>
<polygon fill="midnightblue" stroke="midnightblue" points="1600.4,-401.28 1589.95,-399.52 1597.02,-407.41 1600.4,-401.28"/>
</g>
<!-- Node58&#45;&gt;Node3 -->
<g id="edge41" class="edge">
<title>Node58&#45;&gt;Node3</title>
<path fill="none" stroke="midnightblue" d="M1568.33,-369.42C1573.17,-352.74 1582.35,-324.4 1594.5,-302 1612.21,-269.34 1617.23,-260.23 1644.5,-235 1666.49,-214.65 1677.95,-217.53 1701.5,-199 1720.69,-183.89 1740.51,-164.04 1753.56,-150.27"/>
<polygon fill="midnightblue" stroke="midnightblue" points="1756.48,-152.28 1760.75,-142.58 1751.37,-147.5 1756.48,-152.28"/>
</g>
<!-- Node58&#45;&gt;Node8 -->
<g id="edge39" class="edge">
<title>Node58&#45;&gt;Node8</title>
<path fill="none" stroke="midnightblue" d="M1501.74,-380.66C1303.46,-371.62 701.16,-343.43 660.5,-333 652.15,-330.86 527.4,-271.17 520.5,-266 465.67,-224.88 454.53,-205.98 427.5,-143 417.29,-119.21 415.27,-112.61 411.5,-87 408.94,-69.61 408.94,-49.54 409.43,-35.28"/>
<polygon fill="midnightblue" stroke="midnightblue" points="412.93,-35.39 409.89,-25.24 405.93,-35.07 412.93,-35.39"/>
</g>
<!-- Node58&#45;&gt;Node12 -->
<g id="edge52" class="edge">
<title>Node58&#45;&gt;Node12</title>
<path fill="none" stroke="midnightblue" d="M1565.88,-369.26C1568.76,-336.31 1573.97,-255.97 1558.5,-235 1470.51,-115.74 1284.5,-86.65 1183.41,-79.84"/>
<polygon fill="midnightblue" stroke="midnightblue" points="1183.5,-76.34 1173.31,-79.21 1183.07,-83.32 1183.5,-76.34"/>
</g>
<!-- Node58&#45;&gt;Node13 -->
<g id="edge38" class="edge">
<title>Node58&#45;&gt;Node13</title>
<path fill="none" stroke="midnightblue" d="M1627.13,-374.05C1719.51,-356.17 1881.5,-307.99 1881.5,-190 1881.5,-190 1881.5,-190 1881.5,-132 1881.5,-68.97 2364.15,-28.61 2495.07,-18.82"/>
<polygon fill="midnightblue" stroke="midnightblue" points="2495.55,-22.29 2505.26,-18.07 2495.03,-15.31 2495.55,-22.29"/>
</g>
<!-- Node58&#45;&gt;Node18 -->
<g id="edge40" class="edge">
<title>Node58&#45;&gt;Node18</title>
<path fill="none" stroke="midnightblue" d="M1573.99,-369.12C1596.18,-335.84 1651.51,-254.87 1677.5,-235 1699.66,-218.06 1729.08,-206.51 1752.06,-199.36"/>
<polygon fill="midnightblue" stroke="midnightblue" points="1753.2,-202.68 1761.79,-196.48 1751.21,-195.97 1753.2,-202.68"/>
</g>
<!-- Node58&#45;&gt;Node59 -->
<g id="edge42" class="edge">
<title>Node58&#45;&gt;Node59</title>
<path fill="none" stroke="midnightblue" d="M1515.96,-369.48C1474.92,-357.62 1416.89,-340.86 1378.75,-329.84"/>
<polygon fill="midnightblue" stroke="midnightblue" points="1379.6,-326.44 1369.02,-327.03 1377.66,-333.17 1379.6,-326.44"/>
</g>
<!-- Node59&#45;&gt;Node3 -->
<g id="edge45" class="edge">
<title>Node59&#45;&gt;Node3</title>
<path fill="none" stroke="midnightblue" d="M1343.55,-307.77C1351.86,-290.87 1372.53,-253.72 1401.5,-235 1461.27,-196.39 1488.79,-217.49 1557.5,-199 1619.91,-182.21 1691.63,-159.34 1733.33,-145.69"/>
<polygon fill="midnightblue" stroke="midnightblue" points="1734.61,-148.95 1743.01,-142.5 1732.42,-142.3 1734.61,-148.95"/>
</g>
<!-- Node59&#45;&gt;Node8 -->
<g id="edge44" class="edge">
<title>Node59&#45;&gt;Node8</title>
<path fill="none" stroke="midnightblue" d="M1279.77,-313.03C1111.15,-303.14 641.58,-274.96 609.5,-266 520.37,-241.1 484.66,-224.86 441.5,-143 429.03,-119.35 426.13,-112.91 419.5,-87 415.1,-69.83 412.81,-49.74 411.64,-35.41"/>
<polygon fill="midnightblue" stroke="midnightblue" points="415.12,-35.04 410.93,-25.31 408.14,-35.54 415.12,-35.04"/>
</g>
<!-- Node59&#45;&gt;Node13 -->
<g id="edge43" class="edge">
<title>Node59&#45;&gt;Node13</title>
<path fill="none" stroke="midnightblue" d="M1339.91,-307.67C1341.15,-291.27 1346.05,-255.85 1365.5,-235 1434.5,-161.05 1689.87,-89.38 1788.5,-67 1926.06,-35.78 2370.55,-20.98 2494.9,-17.39"/>
<polygon fill="midnightblue" stroke="midnightblue" points="2495.37,-20.88 2505.27,-17.09 2495.18,-13.88 2495.37,-20.88"/>
</g>
<!-- Node59&#45;&gt;Node74 -->
<g id="edge46" class="edge">
<title>Node59&#45;&gt;Node74</title>
<path fill="none" stroke="midnightblue" d="M1319.58,-307.87C1293.81,-296.7 1248.68,-277.15 1218.95,-264.26"/>
<polygon fill="midnightblue" stroke="midnightblue" points="1220.07,-260.93 1209.5,-260.17 1217.29,-267.35 1220.07,-260.93"/>
</g>
<!-- Node74&#45;&gt;Node3 -->
<g id="edge50" class="edge">
<title>Node74&#45;&gt;Node3</title>
<path fill="none" stroke="midnightblue" d="M1234.56,-241C1285.4,-231.3 1370.54,-214.73 1443.5,-199 1481.86,-190.73 1491.1,-187.08 1529.5,-179 1590.83,-166.1 1661.4,-153.03 1709.86,-144.32"/>
<polygon fill="midnightblue" stroke="midnightblue" points="1710.63,-147.74 1719.86,-142.53 1709.4,-140.85 1710.63,-147.74"/>
</g>
<!-- Node74&#45;&gt;Node8 -->
<g id="edge48" class="edge">
<title>Node74&#45;&gt;Node8</title>
<path fill="none" stroke="midnightblue" d="M1143.41,-248.66C998.66,-245.66 559.55,-233.77 506.5,-199 447.64,-160.42 422.57,-73.47 414.1,-35.19"/>
<polygon fill="midnightblue" stroke="midnightblue" points="417.52,-34.45 412.06,-25.37 410.67,-35.87 417.52,-34.45"/>
</g>
<!-- Node74&#45;&gt;Node13 -->
<g id="edge47" class="edge">
<title>Node74&#45;&gt;Node13</title>
<path fill="none" stroke="midnightblue" d="M1198.04,-240.78C1228.91,-209.93 1338.96,-105.71 1453.5,-67 1554.19,-32.97 2325.76,-19.52 2494.83,-16.97"/>
<polygon fill="midnightblue" stroke="midnightblue" points="2495.13,-20.46 2505.08,-16.81 2495.03,-13.46 2495.13,-20.46"/>
</g>
<!-- Node74&#45;&gt;Node18 -->
<g id="edge49" class="edge">
<title>Node74&#45;&gt;Node18</title>
<path fill="none" stroke="midnightblue" d="M1235.51,-244.93C1350.32,-233.53 1647.7,-203.99 1751.83,-193.64"/>
<polygon fill="midnightblue" stroke="midnightblue" points="1752.26,-197.12 1761.86,-192.65 1751.57,-190.15 1752.26,-197.12"/>
</g>
<!-- Node74&#45;&gt;Node19 -->
<g id="edge51" class="edge">
<title>Node74&#45;&gt;Node19</title>
<path fill="none" stroke="midnightblue" d="M1143.16,-241.6C1080.72,-230.95 969.51,-211.99 900.68,-200.26"/>
<polygon fill="midnightblue" stroke="midnightblue" points="900.87,-196.74 890.42,-198.51 899.69,-203.64 900.87,-196.74"/>
</g>
<!-- Node83&#45;&gt;Node3 -->
<g id="edge59" class="edge">
<title>Node83&#45;&gt;Node3</title>
<path fill="none" stroke="midnightblue" d="M1622.89,-564.97C1642.7,-555.86 1673.95,-540.36 1698.5,-523 1788.17,-459.58 1819.78,-436.51 1856.5,-333 1879.39,-268.48 1902.45,-232.31 1859.5,-179 1847.09,-163.6 1828.07,-153.05 1810.63,-146.07"/>
<polygon fill="midnightblue" stroke="midnightblue" points="1811.74,-142.75 1801.15,-142.54 1809.3,-149.31 1811.74,-142.75"/>
</g>
<!-- Node83&#45;&gt;Node5 -->
<g id="edge57" class="edge">
<title>Node83&#45;&gt;Node5</title>
<path fill="none" stroke="midnightblue" d="M1570.37,-564.97C1562.55,-562.99 1554.24,-560.9 1546.5,-559 1315.86,-502.39 1259.03,-484.29 1026.5,-436 937.64,-417.55 912.68,-425.21 825.5,-400 749.47,-378.01 727.94,-374.43 660.5,-333 578.03,-282.33 465.51,-266.69 506.5,-179 544.21,-98.33 609.16,-134.47 684.5,-87 706.95,-72.85 727.09,-49.51 739.29,-33.59"/>
<polygon fill="midnightblue" stroke="midnightblue" points="742.37,-35.31 745.51,-25.2 736.74,-31.14 742.37,-35.31"/>
</g>
<!-- Node83&#45;&gt;Node8 -->
<g id="edge56" class="edge">
<title>Node83&#45;&gt;Node8</title>
<path fill="none" stroke="midnightblue" d="M1572.59,-564.93C1564.17,-562.79 1555.02,-560.64 1546.5,-559 1426.32,-535.87 1394.12,-543.71 1273.5,-523 1173.2,-505.78 471.98,-370.81 377.5,-333 265.05,-288 145.5,-311.12 145.5,-190 145.5,-190 145.5,-190 145.5,-132 145.5,-35.25 295.76,-18.72 369.99,-16.45"/>
<polygon fill="midnightblue" stroke="midnightblue" points="370.44,-19.94 380.36,-16.21 370.28,-12.94 370.44,-19.94"/>
</g>
<!-- Node83&#45;&gt;Node13 -->
<g id="edge55" class="edge">
<title>Node83&#45;&gt;Node13</title>
<path fill="none" stroke="midnightblue" d="M1651.7,-572.28C1791.97,-568.39 2193.09,-554.57 2242.5,-523 2338.01,-461.98 2485.37,-118 2520.02,-34.68"/>
<polygon fill="midnightblue" stroke="midnightblue" points="2523.33,-35.85 2523.92,-25.27 2516.86,-33.17 2523.33,-35.85"/>
</g>
<!-- Node83&#45;&gt;Node18 -->
<g id="edge58" class="edge">
<title>Node83&#45;&gt;Node18</title>
<path fill="none" stroke="midnightblue" d="M1590.64,-564.83C1578.72,-555.93 1561.75,-540.89 1554.5,-523 1549.32,-510.23 1550,-505.02 1554.5,-492 1564.85,-462.09 1577.18,-459.39 1598.5,-436 1614.17,-418.81 1622.02,-418.21 1636.5,-400 1689.45,-333.43 1678.16,-299.61 1733.5,-235 1743.38,-223.47 1756.47,-212.62 1767.41,-204.47"/>
<polygon fill="midnightblue" stroke="midnightblue" points="1769.55,-207.24 1775.61,-198.54 1765.45,-201.56 1769.55,-207.24"/>
</g>
<!-- Node83&#45;&gt;Node58 -->
<g id="edge66" class="edge">
<title>Node83&#45;&gt;Node58</title>
<path fill="none" stroke="midnightblue" d="M1576.49,-564.87C1557.38,-557.18 1533.16,-543.87 1521.5,-523 1500.48,-485.37 1527.25,-436.08 1546.99,-407.9"/>
<polygon fill="midnightblue" stroke="midnightblue" points="1550.03,-409.67 1553.09,-399.53 1544.37,-405.55 1550.03,-409.67"/>
</g>
<!-- Node83&#45;&gt;Node87 -->
<g id="edge60" class="edge">
<title>Node83&#45;&gt;Node87</title>
<path fill="none" stroke="midnightblue" d="M1572.16,-564.94C1550.95,-557.45 1524.22,-544.35 1509.5,-523 1482.2,-483.4 1490.14,-334.7 1494.5,-275.77"/>
<polygon fill="midnightblue" stroke="midnightblue" points="1498.01,-275.79 1495.29,-265.55 1491.03,-275.25 1498.01,-275.79"/>
</g>
<!-- Node83&#45;&gt;Node99 -->
<g id="edge67" class="edge">
<title>Node83&#45;&gt;Node99</title>
<path fill="none" stroke="midnightblue" d="M1606.6,-564.73C1609.56,-556.37 1614.15,-543.4 1618.18,-532.02"/>
<polygon fill="midnightblue" stroke="midnightblue" points="1621.48,-533.18 1621.51,-522.59 1614.88,-530.85 1621.48,-533.18"/>
</g>
<!-- Node87&#45;&gt;Node3 -->
<g id="edge65" class="edge">
<title>Node87&#45;&gt;Node3</title>
<path fill="none" stroke="midnightblue" d="M1549.33,-238.76C1584.87,-230.46 1632.22,-217.28 1671.5,-199 1700.85,-185.34 1731.33,-163.42 1750.11,-148.87"/>
<polygon fill="midnightblue" stroke="midnightblue" points="1752.41,-151.51 1758.1,-142.57 1748.08,-146.02 1752.41,-151.51"/>
</g>
<!-- Node87&#45;&gt;Node5 -->
<g id="edge63" class="edge">
<title>Node87&#45;&gt;Node5</title>
<path fill="none" stroke="midnightblue" d="M1443.89,-237.61C1404.38,-228.26 1349.11,-214.29 1301.5,-199 1212.15,-170.3 1192.48,-155.65 1104.5,-123 1059.82,-106.42 1046.68,-107.17 1003.5,-87 987.62,-79.58 985.78,-73.5 969.5,-67 908.87,-42.81 833.91,-28.62 789.56,-21.72"/>
<polygon fill="midnightblue" stroke="midnightblue" points="789.91,-18.23 779.5,-20.2 788.87,-25.16 789.91,-18.23"/>
</g>
<!-- Node87&#45;&gt;Node8 -->
<g id="edge62" class="edge">
<title>Node87&#45;&gt;Node8</title>
<path fill="none" stroke="midnightblue" d="M1443.88,-245.69C1323.12,-236.7 1035.33,-213.84 1020.5,-199 996.49,-174.97 1036.45,-147.08 1012.5,-123 961.26,-71.48 758.99,-99.99 687.5,-87 600.81,-71.25 501.12,-43.43 448.17,-27.86"/>
<polygon fill="midnightblue" stroke="midnightblue" points="449.11,-24.49 438.53,-25.01 447.12,-31.21 449.11,-24.49"/>
</g>
<!-- Node87&#45;&gt;Node13 -->
<g id="edge61" class="edge">
<title>Node87&#45;&gt;Node13</title>
<path fill="none" stroke="midnightblue" d="M1517.33,-235.35C1554.76,-210.35 1636.44,-157.71 1710.5,-123 1777.58,-91.56 1795.04,-82.41 1867.5,-67 2104.5,-16.61 2398.81,-14.97 2495.26,-15.96"/>
<polygon fill="midnightblue" stroke="midnightblue" points="2495.22,-19.46 2505.26,-16.08 2495.31,-12.46 2495.22,-19.46"/>
</g>
<!-- Node87&#45;&gt;Node18 -->
<g id="edge64" class="edge">
<title>Node87&#45;&gt;Node18</title>
<path fill="none" stroke="midnightblue" d="M1549.04,-238.79C1607.57,-226.87 1700.66,-207.9 1751.83,-197.47"/>
<polygon fill="midnightblue" stroke="midnightblue" points="1752.68,-200.87 1761.78,-195.44 1751.28,-194.01 1752.68,-200.87"/>
</g>
<!-- Node99&#45;&gt;Node3 -->
<g id="edge68" class="edge">
<title>Node99&#45;&gt;Node3</title>
<path fill="none" stroke="midnightblue" d="M1680.41,-492.4C1703.02,-484.49 1728.43,-472.75 1747.5,-456 1820.81,-391.61 1832.19,-360.24 1857.5,-266 1867.74,-227.87 1863.66,-210.23 1839.5,-179 1828.88,-165.27 1812.8,-154.58 1798.63,-147.08"/>
<polygon fill="midnightblue" stroke="midnightblue" points="1800.18,-143.94 1789.67,-142.6 1797.05,-150.2 1800.18,-143.94"/>
</g>
<!-- Node99&#45;&gt;Node57 -->
<g id="edge70" class="edge">
<title>Node99&#45;&gt;Node57</title>
<path fill="none" stroke="midnightblue" d="M1637.4,-492.4C1644.09,-483.75 1652.68,-472.64 1659.68,-463.58"/>
<polygon fill="midnightblue" stroke="midnightblue" points="1662.46,-465.71 1665.81,-455.66 1656.92,-461.43 1662.46,-465.71"/>
</g>
<!-- Node99&#45;&gt;Node59 -->
<g id="edge69" class="edge">
<title>Node99&#45;&gt;Node59</title>
<path fill="none" stroke="midnightblue" d="M1604.93,-492.37C1551.69,-457.5 1414.52,-367.64 1361.17,-332.7"/>
<polygon fill="midnightblue" stroke="midnightblue" points="1363.07,-329.76 1352.79,-327.21 1359.24,-335.61 1363.07,-329.76"/>
</g>
<!-- Node110&#45;&gt;Node3 -->
<g id="edge72" class="edge">
<title>Node110&#45;&gt;Node3</title>
<path fill="none" stroke="midnightblue" d="M787.43,-302.44C859.43,-285.46 985.07,-256.52 1093.5,-235 1235.98,-206.72 1271.86,-200.63 1415.5,-179 1518.27,-163.52 1638.41,-148.95 1708.71,-140.78"/>
<polygon fill="midnightblue" stroke="midnightblue" points="1709.18,-144.25 1718.71,-139.63 1708.37,-137.3 1709.18,-144.25"/>
</g>
<!-- Node110&#45;&gt;Node111 -->
<g id="edge73" class="edge">
<title>Node110&#45;&gt;Node111</title>
<path fill="none" stroke="midnightblue" d="M716.13,-302.4C708.66,-293.88 698.99,-282.85 690.56,-273.23"/>
<polygon fill="midnightblue" stroke="midnightblue" points="693.07,-270.79 683.84,-265.58 687.81,-275.4 693.07,-270.79"/>
</g>
<!-- Node111&#45;&gt;Node3 -->
<g id="edge75" class="edge">
<title>Node111&#45;&gt;Node3</title>
<path fill="none" stroke="midnightblue" d="M724.05,-241.73C740.79,-239.39 759.4,-236.94 776.5,-235 956.5,-214.6 1007.52,-245.9 1182.5,-199 1202.86,-193.54 1205.13,-184.4 1225.5,-179 1315.35,-155.19 1587.24,-141.42 1708.74,-136.3"/>
<polygon fill="midnightblue" stroke="midnightblue" points="1709.12,-139.79 1718.97,-135.88 1708.83,-132.8 1709.12,-139.79"/>
</g>
<!-- Node111&#45;&gt;Node19 -->
<g id="edge76" class="edge">
<title>Node111&#45;&gt;Node19</title>
<path fill="none" stroke="midnightblue" d="M711.55,-235.4C740.41,-225.24 778.95,-211.67 806.35,-202.02"/>
<polygon fill="midnightblue" stroke="midnightblue" points="807.64,-205.28 815.91,-198.66 805.31,-198.68 807.64,-205.28"/>
</g>
<!-- Node111&#45;&gt;Node24 -->
<g id="edge74" class="edge">
<title>Node111&#45;&gt;Node24</title>
<path fill="none" stroke="midnightblue" d="M683.43,-235.36C694.13,-220.85 706.82,-197.82 697.5,-179 690.9,-165.66 678.24,-155.19 666.33,-147.73"/>
<polygon fill="midnightblue" stroke="midnightblue" points="667.89,-144.59 657.48,-142.6 664.38,-150.64 667.89,-144.59"/>
</g>
<!-- Node113&#45;&gt;Node57 -->
<g id="edge78" class="edge">
<title>Node113&#45;&gt;Node57</title>
<path fill="none" stroke="midnightblue" d="M1488.16,-564.64C1499.1,-548.16 1524.7,-512.64 1554.5,-492 1576.66,-476.65 1604.75,-465.67 1627.96,-458.39"/>
<polygon fill="midnightblue" stroke="midnightblue" points="1629.01,-461.73 1637.58,-455.5 1627,-455.03 1629.01,-461.73"/>
</g>
<!-- Node113&#45;&gt;Node127 -->
<g id="edge79" class="edge">
<title>Node113&#45;&gt;Node127</title>
<path fill="none" stroke="midnightblue" d="M1456.97,-564.91C1392.33,-543.17 1216.95,-484.29 1070.5,-436 1029.75,-422.56 982.91,-407.33 951.48,-397.14"/>
<polygon fill="midnightblue" stroke="midnightblue" points="952.44,-393.77 941.85,-394.02 950.28,-400.43 952.44,-393.77"/>
</g>
<!-- Node127&#45;&gt;Node19 -->
<g id="edge82" class="edge">
<title>Node127&#45;&gt;Node19</title>
<path fill="none" stroke="midnightblue" d="M891.88,-374.99C873.93,-367.13 850.5,-353.52 839.5,-333 818.06,-293.02 827.74,-237.25 835.03,-208.61"/>
<polygon fill="midnightblue" stroke="midnightblue" points="838.47,-209.3 837.74,-198.73 831.72,-207.46 838.47,-209.3"/>
</g>
<!-- Node128 -->
<g id="node28" class="node">
<title>Node128</title>
<g id="a_node28"><a xlink:title=" ">
<polygon fill="none" stroke="#bfbfbf" points="881.5,-308 881.5,-327 949.5,-327 949.5,-308 881.5,-308"/>
<text text-anchor="middle" x="915.5" y="-315" font-family="Helvetica,sans-Serif" font-size="10.00">filesystem</text>
</a>
</g>
</g>
<!-- Node127&#45;&gt;Node128 -->
<g id="edge80" class="edge">
<title>Node127&#45;&gt;Node128</title>
<path fill="none" stroke="midnightblue" d="M915.5,-374.73C915.5,-365.18 915.5,-349.62 915.5,-337.28"/>
<polygon fill="midnightblue" stroke="midnightblue" points="919,-337.13 915.5,-327.13 912,-337.13 919,-337.13"/>
</g>
<!-- Node129 -->
<g id="node29" class="node">
<title>Node129</title>
<g id="a_node29"><a xlink:title=" ">
<polygon fill="none" stroke="#bfbfbf" points="967.5,-308 967.5,-327 1071.5,-327 1071.5,-308 967.5,-308"/>
<text text-anchor="middle" x="1019.5" y="-315" font-family="Helvetica,sans-Serif" font-size="10.00">json/json_fwd.hpp</text>
</a>
</g>
</g>
<!-- Node127&#45;&gt;Node129 -->
<g id="edge81" class="edge">
<title>Node127&#45;&gt;Node129</title>
<path fill="none" stroke="midnightblue" d="M929.53,-374.73C946.83,-363.92 976.49,-345.38 996.99,-332.57"/>
<polygon fill="midnightblue" stroke="midnightblue" points="999.07,-335.4 1005.7,-327.13 995.36,-329.46 999.07,-335.4"/>
</g>
<!-- Node35 -->
<g id="node30" class="node">
<title>Node35</title>
<g id="a_node30"><a xlink:href="../../d9/d3e/ublas__interface_8h.html" target="_top" xlink:title=" ">
<polygon fill="none" stroke="red" points="1029.5,-179.5 1029.5,-198.5 1173.5,-198.5 1173.5,-179.5 1029.5,-179.5"/>
<text text-anchor="middle" x="1101.5" y="-186.5" font-family="Helvetica,sans-Serif" font-size="10.00">includes/ublas_interface.h</text>
</a>
</g>
</g>
<!-- Node127&#45;&gt;Node35 -->
<g id="edge83" class="edge">
<title>Node127&#45;&gt;Node35</title>
<path fill="none" stroke="midnightblue" d="M904.92,-374.95C887.56,-359.85 856.49,-327.65 872.5,-302 909.23,-243.15 986.83,-214.38 1041.48,-200.91"/>
<polygon fill="midnightblue" stroke="midnightblue" points="1042.48,-204.28 1051.41,-198.57 1040.87,-197.46 1042.48,-204.28"/>
</g>
<!-- Node35&#45;&gt;Node3 -->
<g id="edge86" class="edge">
<title>Node35&#45;&gt;Node3</title>
<path fill="none" stroke="midnightblue" d="M1173.75,-180.3C1178.4,-179.84 1183.01,-179.41 1187.5,-179 1377.64,-161.69 1603.18,-145.45 1708.6,-138.1"/>
<polygon fill="midnightblue" stroke="midnightblue" points="1708.99,-141.59 1718.72,-137.4 1708.5,-134.6 1708.99,-141.59"/>
</g>
<!-- Node35&#45;&gt;Node8 -->
<g id="edge85" class="edge">
<title>Node35&#45;&gt;Node8</title>
<path fill="none" stroke="midnightblue" d="M1101.89,-179.28C1101.99,-165.13 1099.94,-137.29 1083.5,-123 1036.98,-82.57 869.41,-96.38 808.5,-87 677.12,-66.77 522.24,-37.88 450.59,-24.22"/>
<polygon fill="midnightblue" stroke="midnightblue" points="451.11,-20.76 440.63,-22.32 449.8,-27.63 451.11,-20.76"/>
</g>
<!-- Node35&#45;&gt;Node13 -->
<g id="edge84" class="edge">
<title>Node35&#45;&gt;Node13</title>
<path fill="none" stroke="midnightblue" d="M1117.93,-179.46C1163.61,-156.23 1296.57,-91.93 1415.5,-67 1629.75,-22.1 2335.63,-17.12 2495.23,-16.57"/>
<polygon fill="midnightblue" stroke="midnightblue" points="2495.37,-20.07 2505.36,-16.54 2495.35,-13.07 2495.37,-20.07"/>
</g>
<!-- Node131&#45;&gt;Node57 -->
<g id="edge88" class="edge">
<title>Node131&#45;&gt;Node57</title>
<path fill="none" stroke="midnightblue" d="M1367.46,-564.92C1395.8,-548.91 1459.61,-514.13 1516.5,-492 1552.53,-477.98 1594.73,-466.07 1626.15,-458.03"/>
<polygon fill="midnightblue" stroke="midnightblue" points="1627.11,-461.39 1635.95,-455.55 1625.4,-454.61 1627.11,-461.39"/>
</g>
<!-- Node131&#45;&gt;Node127 -->
<g id="edge89" class="edge">
<title>Node131&#45;&gt;Node127</title>
<path fill="none" stroke="midnightblue" d="M1332.59,-564.93C1262.63,-534.84 1027.88,-433.85 944.88,-398.14"/>
<polygon fill="midnightblue" stroke="midnightblue" points="946.1,-394.85 935.53,-394.12 943.33,-401.28 946.1,-394.85"/>
</g>
<!-- Node132&#45;&gt;Node3 -->
<g id="edge95" class="edge">
<title>Node132&#45;&gt;Node3</title>
<path fill="none" stroke="midnightblue" d="M1856,-626.25C1867.9,-583.37 1917.39,-391.28 1895.5,-235 1891.91,-209.37 1896.8,-198.25 1879.5,-179 1864.93,-162.78 1843.68,-152.3 1823.66,-145.58"/>
<polygon fill="midnightblue" stroke="midnightblue" points="1824.55,-142.19 1813.96,-142.57 1822.48,-148.88 1824.55,-142.19"/>
</g>
<!-- Node132&#45;&gt;Node5 -->
<g id="edge93" class="edge">
<title>Node132&#45;&gt;Node5</title>
<path fill="none" stroke="midnightblue" d="M1783.85,-634.58C1676.2,-632.78 1463.34,-624.68 1286.5,-590 910.87,-516.33 750.81,-544.78 488.5,-266 443.94,-218.64 416.48,-173.46 457.5,-123 521.57,-44.19 649.01,-23.69 712.98,-18.37"/>
<polygon fill="midnightblue" stroke="midnightblue" points="713.34,-21.85 723.05,-17.61 712.82,-14.87 713.34,-21.85"/>
</g>
<!-- Node132&#45;&gt;Node8 -->
<g id="edge92" class="edge">
<title>Node132&#45;&gt;Node8</title>
<path fill="none" stroke="midnightblue" d="M1783.97,-634.45C1651.64,-632.59 1354.7,-624.57 1107.5,-590 870.47,-556.85 107.5,-429.34 107.5,-190 107.5,-190 107.5,-190 107.5,-132 107.5,-95.82 125.86,-86.23 156.5,-67 223.08,-25.21 317.2,-16.95 370.18,-15.91"/>
<polygon fill="midnightblue" stroke="midnightblue" points="370.25,-19.41 380.21,-15.79 370.16,-12.41 370.25,-19.41"/>
</g>
<!-- Node132&#45;&gt;Node13 -->
<g id="edge91" class="edge">
<title>Node132&#45;&gt;Node13</title>
<path fill="none" stroke="midnightblue" d="M1923.01,-626.56C2072.98,-606.4 2413.5,-549.36 2413.5,-447 2413.5,-447 2413.5,-447 2413.5,-383.5 2413.5,-313.75 2499.61,-154.68 2516.5,-87 2520.81,-69.74 2523.74,-49.66 2525.49,-35.35"/>
<polygon fill="midnightblue" stroke="midnightblue" points="2528.98,-35.62 2526.64,-25.28 2522.03,-34.82 2528.98,-35.62"/>
</g>
<!-- Node132&#45;&gt;Node18 -->
<g id="edge94" class="edge">
<title>Node132&#45;&gt;Node18</title>
<path fill="none" stroke="midnightblue" d="M1852.2,-626.11C1844.27,-571.81 1802.33,-284.68 1791.21,-208.54"/>
<polygon fill="midnightblue" stroke="midnightblue" points="1794.66,-207.93 1789.75,-198.55 1787.73,-208.95 1794.66,-207.93"/>
</g>
<!-- Node132&#45;&gt;Node83 -->
<g id="edge98" class="edge">
<title>Node132&#45;&gt;Node83</title>
<path fill="none" stroke="midnightblue" d="M1817.68,-626.48C1773.31,-615.92 1697.66,-597.91 1649.17,-586.37"/>
<polygon fill="midnightblue" stroke="midnightblue" points="1649.79,-582.92 1639.25,-584.01 1648.17,-589.73 1649.79,-582.92"/>
</g>
<!-- Node132&#45;&gt;Node113 -->
<g id="edge97" class="edge">
<title>Node132&#45;&gt;Node113</title>
<path fill="none" stroke="midnightblue" d="M1784.97,-626.5C1722.58,-618.39 1628.05,-605.19 1546.5,-590 1540.54,-588.89 1534.3,-587.62 1528.15,-586.29"/>
<polygon fill="midnightblue" stroke="midnightblue" points="1528.46,-582.78 1517.94,-584.04 1526.96,-589.61 1528.46,-582.78"/>
</g>
<!-- Node132&#45;&gt;Node131 -->
<g id="edge96" class="edge">
<title>Node132&#45;&gt;Node131</title>
<path fill="none" stroke="midnightblue" d="M1783.87,-630.24C1697.71,-623.79 1546.68,-610.64 1418.5,-590 1411.81,-588.92 1404.77,-587.59 1397.89,-586.18"/>
<polygon fill="midnightblue" stroke="midnightblue" points="1398.49,-582.73 1387.98,-584.07 1397.03,-589.57 1398.49,-582.73"/>
</g>
<!-- Node116&#45;&gt;Node3 -->
<g id="edge103" class="edge">
<title>Node116&#45;&gt;Node3</title>
<path fill="none" stroke="midnightblue" d="M1154.06,-374.89C1172.35,-365.22 1202.52,-348.81 1227.5,-333 1291.06,-292.76 1297.41,-266.98 1365.5,-235 1421.71,-208.6 1441.16,-217.29 1500.5,-199 1526.16,-191.09 1531.65,-186.26 1557.5,-179 1608.41,-164.7 1667.34,-152.49 1709.96,-144.41"/>
<polygon fill="midnightblue" stroke="midnightblue" points="1710.7,-147.83 1719.89,-142.55 1709.41,-140.95 1710.7,-147.83"/>
</g>
<!-- Node116&#45;&gt;Node8 -->
<g id="edge101" class="edge">
<title>Node116&#45;&gt;Node8</title>
<path fill="none" stroke="midnightblue" d="M1090.43,-378.21C1064.99,-375.4 1033.04,-371.92 1004.5,-369 837.06,-351.88 791.93,-368.99 627.5,-333 539.21,-313.68 519.58,-299.14 435.5,-266 366.82,-238.93 323.82,-260.84 283.5,-199 251.46,-149.86 250.56,-115.55 283.5,-67 302.81,-38.55 340.95,-26.12 370.42,-20.7"/>
<polygon fill="midnightblue" stroke="midnightblue" points="371.13,-24.13 380.44,-19.06 370,-17.22 371.13,-24.13"/>
</g>
<!-- Node116&#45;&gt;Node13 -->
<g id="edge100" class="edge">
<title>Node116&#45;&gt;Node13</title>
<path fill="none" stroke="midnightblue" d="M1146.82,-374.77C1163,-359.68 1197.46,-327.85 1227.5,-302 1263.18,-271.31 1270.49,-261.32 1309.5,-235 1401.77,-172.74 1429.73,-163.25 1533.5,-123 1609.64,-93.47 1628.24,-82.07 1708.5,-67 1863.41,-37.91 2362.43,-21.38 2494.94,-17.43"/>
<polygon fill="midnightblue" stroke="midnightblue" points="2495.34,-20.92 2505.23,-17.13 2495.13,-13.92 2495.34,-20.92"/>
</g>
<!-- Node116&#45;&gt;Node26 -->
<g id="edge102" class="edge">
<title>Node116&#45;&gt;Node26</title>
<path fill="none" stroke="midnightblue" d="M1131.85,-374.68C1121.98,-359.44 1100.72,-327.4 1080.5,-302 1042.09,-253.75 1025.55,-247.54 987.5,-199 975.32,-183.46 962.84,-164.7 954.3,-151.34"/>
<polygon fill="midnightblue" stroke="midnightblue" points="957.13,-149.27 948.83,-142.68 951.21,-153 957.13,-149.27"/>
</g>
<!-- Node116&#45;&gt;Node59 -->
<g id="edge104" class="edge">
<title>Node116&#45;&gt;Node59</title>
<path fill="none" stroke="midnightblue" d="M1164.32,-374.87C1200.04,-363.38 1263.34,-343.01 1303.27,-330.16"/>
<polygon fill="midnightblue" stroke="midnightblue" points="1304.44,-333.46 1312.89,-327.06 1302.3,-326.8 1304.44,-333.46"/>
</g>
<!-- Node109&#45;&gt;Node3 -->
<g id="edge109" class="edge">
<title>Node109&#45;&gt;Node3</title>
<path fill="none" stroke="midnightblue" d="M1141.95,-626.22C1186.1,-580.29 1388.99,-368.4 1408.5,-333 1430.31,-293.43 1402.63,-265.99 1435.5,-235 1491.38,-182.32 1530.99,-221.23 1604.5,-199 1653.38,-184.22 1708.17,-161.12 1740.42,-146.8"/>
<polygon fill="midnightblue" stroke="midnightblue" points="1741.98,-149.94 1749.68,-142.66 1739.12,-143.55 1741.98,-149.94"/>
</g>
<!-- Node133&#45;&gt;Node8 -->
<g id="edge115" class="edge">
<title>Node133&#45;&gt;Node8</title>
<path fill="none" stroke="midnightblue" d="M1325.36,-757.27C1157.57,-753.98 503.48,-739.57 415.5,-713 139.44,-629.64 31.5,-478.37 31.5,-190 31.5,-190 31.5,-190 31.5,-132 31.5,-93.58 54.84,-85.53 88.5,-67 136.32,-40.68 294.94,-25.35 370.2,-19.39"/>
<polygon fill="midnightblue" stroke="midnightblue" points="370.55,-22.88 380.25,-18.61 370.01,-15.9 370.55,-22.88"/>
</g>
<!-- Node133&#45;&gt;Node13 -->
<g id="edge114" class="edge">
<title>Node133&#45;&gt;Node13</title>
<path fill="none" stroke="midnightblue" d="M1403.86,-757.57C1651.1,-754.82 2984.95,-738.84 3164.5,-713 3377.55,-682.34 3603.5,-723.74 3603.5,-508.5 3603.5,-508.5 3603.5,-508.5 3603.5,-132 3603.5,-77.87 3552.09,-83.38 3500.5,-67 3409.19,-38.01 2717.51,-20.78 2559.55,-17.2"/>
<polygon fill="midnightblue" stroke="midnightblue" points="2559.6,-13.7 2549.52,-16.98 2559.44,-20.7 2559.6,-13.7"/>
</g>
<!-- Node133&#45;&gt;Node17 -->
<g id="edge117" class="edge">
<title>Node133&#45;&gt;Node17</title>
<path fill="none" stroke="midnightblue" d="M1344.58,-749.48C1321.05,-739.4 1281.69,-722.55 1254.71,-711"/>
<polygon fill="midnightblue" stroke="midnightblue" points="1255.95,-707.73 1245.38,-707.01 1253.19,-714.16 1255.95,-707.73"/>
</g>
<!-- Node133&#45;&gt;Node25 -->
<g id="edge116" class="edge">
<title>Node133&#45;&gt;Node25</title>
<path fill="none" stroke="midnightblue" d="M1325.41,-756.82C1144.19,-750.94 391.82,-722.07 323.5,-646 219.9,-530.65 284.73,-423.14 381.5,-302 419.38,-254.58 443.42,-255.63 500.5,-235 584.21,-204.75 621.75,-245.73 697.5,-199 715.68,-187.79 729.47,-167.16 737.72,-152.14"/>
<polygon fill="midnightblue" stroke="midnightblue" points="741.05,-153.32 742.53,-142.83 734.83,-150.1 741.05,-153.32"/>
</g>
<!-- Node134&#45;&gt;Node3 -->
<g id="edge124" class="edge">
<title>Node134&#45;&gt;Node3</title>
<path fill="none" stroke="midnightblue" d="M689.11,-183.35C716.43,-181.91 746.72,-180.36 774.5,-179 1128.7,-161.72 1554.01,-143.22 1708.62,-136.56"/>
<polygon fill="midnightblue" stroke="midnightblue" points="1709.01,-140.05 1718.85,-136.12 1708.71,-133.06 1709.01,-140.05"/>
</g>
<!-- Node134&#45;&gt;Node8 -->
<g id="edge122" class="edge">
<title>Node134&#45;&gt;Node8</title>
<path fill="none" stroke="midnightblue" d="M592.25,-179.48C581.51,-170.5 564.19,-155.91 549.5,-143 504.83,-103.73 453.31,-56.25 427.33,-32.16"/>
<polygon fill="midnightblue" stroke="midnightblue" points="429.55,-29.44 419.84,-25.2 424.78,-34.57 429.55,-29.44"/>
</g>
<!-- Node134&#45;&gt;Node13 -->
<g id="edge121" class="edge">
<title>Node134&#45;&gt;Node13</title>
<path fill="none" stroke="midnightblue" d="M595.11,-179.22C584.45,-165.47 567.61,-138.81 582.5,-123 628.29,-74.38 1116.65,-98.12 1182.5,-87 1214.83,-81.54 1221.12,-72.13 1253.5,-67 1503.25,-27.44 2321.91,-18.27 2495.13,-16.75"/>
<polygon fill="midnightblue" stroke="midnightblue" points="2495.18,-20.25 2505.15,-16.67 2495.12,-13.25 2495.18,-20.25"/>
</g>
<!-- Node134&#45;&gt;Node24 -->
<g id="edge123" class="edge">
<title>Node134&#45;&gt;Node24</title>
<path fill="none" stroke="midnightblue" d="M608.44,-179.08C613.48,-171.53 620.84,-160.49 627.01,-151.23"/>
<polygon fill="midnightblue" stroke="midnightblue" points="630.03,-153.01 632.67,-142.75 624.21,-149.13 630.03,-153.01"/>
</g>
<!-- Node136&#45;&gt;Node3 -->
<g id="edge127" class="edge">
<title>Node136&#45;&gt;Node3</title>
<path fill="none" stroke="midnightblue" d="M2667.61,-436.44C2631.56,-397.96 2477.12,-240.22 2313.5,-179 2226.02,-146.27 1951.05,-137.27 1828.48,-134.86"/>
<polygon fill="midnightblue" stroke="midnightblue" points="1828.23,-131.35 1818.16,-134.66 1828.1,-138.35 1828.23,-131.35"/>
</g>
<!-- Node136&#45;&gt;Node13 -->
<g id="edge126" class="edge">
<title>Node136&#45;&gt;Node13</title>
<path fill="none" stroke="midnightblue" d="M2693.17,-436.45C2726.08,-419.15 2793.5,-376.61 2793.5,-318.5 2793.5,-318.5 2793.5,-318.5 2793.5,-132 2793.5,-101.2 2792.83,-87.11 2769.5,-67 2738.36,-40.16 2618.3,-25.21 2559.85,-19.39"/>
<polygon fill="midnightblue" stroke="midnightblue" points="2559.98,-15.88 2549.69,-18.4 2559.3,-22.85 2559.98,-15.88"/>
</g>
<!-- Node136&#45;&gt;Node127 -->
<g id="edge128" class="edge">
<title>Node136&#45;&gt;Node127</title>
<path fill="none" stroke="midnightblue" d="M2614.64,-444.57C2402.85,-442.81 1678.49,-434.47 1081.5,-400 1057,-398.59 1030.52,-396.52 1006.05,-394.38"/>
<polygon fill="midnightblue" stroke="midnightblue" points="1006.33,-390.89 996.06,-393.5 1005.72,-397.87 1006.33,-390.89"/>
</g>
<!-- Node139&#45;&gt;Node3 -->
<g id="edge131" class="edge">
<title>Node139&#45;&gt;Node3</title>
<path fill="none" stroke="midnightblue" d="M2376.31,-805.39C2339.11,-789.34 2284.73,-759.21 2260.5,-713 2254.1,-700.8 2260.47,-695.78 2260.5,-682 2260.72,-577.55 2261.5,-551.45 2261.5,-447 2261.5,-447 2261.5,-447 2261.5,-316.5 2261.5,-219.32 2180.65,-217.67 2091.5,-179 2045.52,-159.06 1908.64,-145.17 1828.59,-138.51"/>
<polygon fill="midnightblue" stroke="midnightblue" points="1828.42,-134.98 1818.17,-137.66 1827.85,-141.96 1828.42,-134.98"/>
</g>
<!-- Node139&#45;&gt;Node13 -->
<g id="edge130" class="edge">
<title>Node139&#45;&gt;Node13</title>
<path fill="none" stroke="midnightblue" d="M2478.51,-817.21C2693.84,-808.41 3388.57,-770.73 3567.5,-646 3624.43,-606.31 3641.5,-577.9 3641.5,-508.5 3641.5,-508.5 3641.5,-508.5 3641.5,-132 3641.5,-82.3 3597.44,-83.33 3550.5,-67 3455.18,-33.84 2724.34,-19.78 2560.17,-17.02"/>
<polygon fill="midnightblue" stroke="midnightblue" points="2559.82,-13.51 2549.76,-16.85 2559.7,-20.51 2559.82,-13.51"/>
</g>
<!-- Node139&#45;&gt;Node133 -->
<g id="edge132" class="edge">
<title>Node139&#45;&gt;Node133</title>
<path fill="none" stroke="midnightblue" d="M2350.4,-815.87C2157.54,-804.94 1585.37,-772.52 1413.72,-762.79"/>
<polygon fill="midnightblue" stroke="midnightblue" points="1413.89,-759.29 1403.71,-762.22 1413.5,-766.28 1413.89,-759.29"/>
</g>
<!-- Node139&#45;&gt;Node136 -->
<g id="edge133" class="edge">
<title>Node139&#45;&gt;Node136</title>
<path fill="none" stroke="midnightblue" d="M2478.75,-818.54C2553.28,-813.55 2673.26,-792.7 2730.5,-713 2759.52,-672.6 2703.36,-518.14 2682.7,-465.05"/>
<polygon fill="midnightblue" stroke="midnightblue" points="2685.9,-463.61 2678.98,-455.59 2679.38,-466.18 2685.9,-463.61"/>
</g>
<!-- Node140&#45;&gt;Node3 -->
<g id="edge136" class="edge">
<title>Node140&#45;&gt;Node3</title>
<path fill="none" stroke="midnightblue" d="M3011.19,-492.49C2942.4,-475.19 2826.45,-442.73 2732.5,-400 2553.61,-318.63 2538.98,-231.17 2349.5,-179 2252.63,-152.33 1956.34,-139.95 1828.38,-135.75"/>
<polygon fill="midnightblue" stroke="midnightblue" points="1828.47,-132.25 1818.36,-135.42 1828.24,-139.25 1828.47,-132.25"/>
</g>
<!-- Node140&#45;&gt;Node13 -->
<g id="edge135" class="edge">
<title>Node140&#45;&gt;Node13</title>
<path fill="none" stroke="midnightblue" d="M3070.41,-492.4C3070.16,-453.84 3069.5,-343.36 3069.5,-251.5 3069.5,-251.5 3069.5,-251.5 3069.5,-132 3069.5,-27.16 2676.66,-17.12 2559.87,-16.45"/>
<polygon fill="midnightblue" stroke="midnightblue" points="2559.77,-12.95 2549.76,-16.41 2559.74,-19.95 2559.77,-12.95"/>
</g>
<!-- Node140&#45;&gt;Node136 -->
<g id="edge137" class="edge">
<title>Node140&#45;&gt;Node136</title>
<path fill="none" stroke="midnightblue" d="M3001.7,-496.14C2928.8,-485.16 2814.48,-467.94 2742.34,-457.07"/>
<polygon fill="midnightblue" stroke="midnightblue" points="2742.42,-453.54 2732.02,-455.51 2741.38,-460.46 2742.42,-453.54"/>
</g>
<!-- Node141&#45;&gt;Node3 -->
<g id="edge140" class="edge">
<title>Node141&#45;&gt;Node3</title>
<path fill="none" stroke="midnightblue" d="M2334.52,-682.32C2325.56,-638.42 2299.5,-500.82 2299.5,-385.5 2299.5,-385.5 2299.5,-385.5 2299.5,-316.5 2299.5,-278.74 2299.83,-263.87 2275.5,-235 2266.41,-224.21 2175.04,-182.97 2161.5,-179 2046.88,-145.38 1906.58,-136.67 1828.42,-134.54"/>
<polygon fill="midnightblue" stroke="midnightblue" points="1828.36,-131.04 1818.28,-134.3 1828.19,-138.04 1828.36,-131.04"/>
</g>
<!-- Node141&#45;&gt;Node13 -->
<g id="edge139" class="edge">
<title>Node141&#45;&gt;Node13</title>
<path fill="none" stroke="midnightblue" d="M2350.92,-682.38C2369.35,-662.61 2403,-625.15 2427.5,-590 2537.99,-431.5 2577.46,-388.01 2617.5,-199 2629.66,-141.61 2647.14,-117.63 2617.5,-67 2605.05,-45.74 2580.01,-32.75 2559.5,-25.28"/>
<polygon fill="midnightblue" stroke="midnightblue" points="2560.46,-21.91 2549.87,-22.04 2558.23,-28.55 2560.46,-21.91"/>
</g>
<!-- Node141&#45;&gt;Node132 -->
<g id="edge142" class="edge">
<title>Node141&#45;&gt;Node132</title>
<path fill="none" stroke="midnightblue" d="M2268.93,-688.07C2180.36,-677.18 2026.5,-658.27 1932.94,-646.77"/>
<polygon fill="midnightblue" stroke="midnightblue" points="1933.31,-643.29 1922.96,-645.54 1932.46,-650.23 1933.31,-643.29"/>
</g>
<!-- Node141&#45;&gt;Node136 -->
<g id="edge141" class="edge">
<title>Node141&#45;&gt;Node136</title>
<path fill="none" stroke="midnightblue" d="M2381.14,-682.46C2406.49,-673.53 2438.64,-660.86 2465.5,-646 2553.79,-597.15 2632.83,-502.42 2662.77,-463.9"/>
<polygon fill="midnightblue" stroke="midnightblue" points="2665.7,-465.84 2669,-455.77 2660.14,-461.58 2665.7,-465.84"/>
</g>
<!-- Node143&#45;&gt;Node3 -->
<g id="edge145" class="edge">
<title>Node143&#45;&gt;Node3</title>
<path fill="none" stroke="midnightblue" d="M2487.98,-682.45C2465.51,-613.15 2364.23,-308.27 2298.5,-235 2264.22,-196.79 2246.45,-194.43 2197.5,-179 2130.17,-157.78 1929.35,-143.41 1828.17,-137.31"/>
<polygon fill="midnightblue" stroke="midnightblue" points="1828.29,-133.81 1818.1,-136.71 1827.88,-140.8 1828.29,-133.81"/>
</g>
<!-- Node143&#45;&gt;Node13 -->
<g id="edge144" class="edge">
<title>Node143&#45;&gt;Node13</title>
<path fill="none" stroke="midnightblue" d="M2499.14,-682.44C2508.7,-662.12 2526.8,-623.33 2541.5,-590 2571.47,-522.02 2574.7,-503.14 2606.5,-436 2657.48,-328.38 2702.88,-314.6 2731.5,-199 2745.6,-142.05 2767.66,-113.2 2731.5,-67 2710.52,-40.19 2611.69,-25.63 2559.69,-19.71"/>
<polygon fill="midnightblue" stroke="midnightblue" points="2559.97,-16.22 2549.65,-18.61 2559.21,-23.18 2559.97,-16.22"/>
</g>
<!-- Node143&#45;&gt;Node132 -->
<g id="edge147" class="edge">
<title>Node143&#45;&gt;Node132</title>
<path fill="none" stroke="midnightblue" d="M2423.71,-683.17C2420.94,-682.75 2418.2,-682.36 2415.5,-682 2244.68,-659.14 2042.99,-646.44 1933.69,-640.74"/>
<polygon fill="midnightblue" stroke="midnightblue" points="1933.57,-637.23 1923.41,-640.21 1933.21,-644.22 1933.57,-637.23"/>
</g>
<!-- Node143&#45;&gt;Node136 -->
<g id="edge146" class="edge">
<title>Node143&#45;&gt;Node136</title>
<path fill="none" stroke="midnightblue" d="M2524.15,-682.47C2541.74,-673.67 2563.28,-661.12 2579.5,-646 2601.5,-625.49 2603.32,-616.53 2617.5,-590 2640.46,-547.03 2660.07,-492.94 2669.5,-465.22"/>
<polygon fill="midnightblue" stroke="midnightblue" points="2672.85,-466.26 2672.7,-455.66 2666.21,-464.03 2672.85,-466.26"/>
</g>
<!-- Node144&#45;&gt;Node3 -->
<g id="edge150" class="edge">
<title>Node144&#45;&gt;Node3</title>
<path fill="none" stroke="midnightblue" d="M2624.99,-682.38C2579.59,-655.17 2489.5,-590.79 2489.5,-508.5 2489.5,-508.5 2489.5,-508.5 2489.5,-445 2489.5,-282.76 2392.37,-233.35 2239.5,-179 2165.27,-152.61 1937.86,-140.5 1828.48,-136.09"/>
<polygon fill="midnightblue" stroke="midnightblue" points="1828.41,-132.58 1818.28,-135.69 1828.13,-139.58 1828.41,-132.58"/>
</g>
<!-- Node144&#45;&gt;Node13 -->
<g id="edge149" class="edge">
<title>Node144&#45;&gt;Node13</title>
<path fill="none" stroke="midnightblue" d="M2707.96,-682.5C2780.18,-661.47 2901.15,-614.11 2954.5,-523 2985.38,-470.26 2955.5,-446.61 2955.5,-385.5 2955.5,-385.5 2955.5,-385.5 2955.5,-132 2955.5,-50.04 2659.24,-24.51 2559.68,-18.24"/>
<polygon fill="midnightblue" stroke="midnightblue" points="2559.8,-14.75 2549.61,-17.63 2559.38,-21.73 2559.8,-14.75"/>
</g>
<!-- Node144&#45;&gt;Node132 -->
<g id="edge152" class="edge">
<title>Node144&#45;&gt;Node132</title>
<path fill="none" stroke="midnightblue" d="M2579.47,-683.18C2576.44,-682.75 2573.44,-682.36 2570.5,-682 2340.17,-654 2065.98,-642.93 1933.29,-638.97"/>
<polygon fill="midnightblue" stroke="midnightblue" points="1933.31,-635.47 1923.21,-638.68 1933.11,-642.47 1933.31,-635.47"/>
</g>
<!-- Node144&#45;&gt;Node136 -->
<g id="edge151" class="edge">
<title>Node144&#45;&gt;Node136</title>
<path fill="none" stroke="midnightblue" d="M2651.92,-682.37C2656.16,-640 2668.79,-513.96 2673.61,-465.9"/>
<polygon fill="midnightblue" stroke="midnightblue" points="2677.09,-466.23 2674.61,-455.93 2670.13,-465.53 2677.09,-466.23"/>
</g>
<!-- Node145&#45;&gt;Node3 -->
<g id="edge155" class="edge">
<title>Node145&#45;&gt;Node3</title>
<path fill="none" stroke="midnightblue" d="M3096.57,-682.43C3124.99,-647.49 3190.67,-555.1 3148.5,-492 3123.24,-454.21 2436.74,-189.46 2392.5,-179 2286.4,-153.9 1962.92,-140.49 1828.28,-135.88"/>
<polygon fill="midnightblue" stroke="midnightblue" points="1828.27,-132.37 1818.15,-135.53 1828.03,-139.37 1828.27,-132.37"/>
</g>
<!-- Node145&#45;&gt;Node13 -->
<g id="edge154" class="edge">
<title>Node145&#45;&gt;Node13</title>
<path fill="none" stroke="midnightblue" d="M3155.52,-686.61C3262.03,-670.5 3456.23,-635.73 3508.5,-590 3559.99,-544.95 3565.5,-515.42 3565.5,-447 3565.5,-447 3565.5,-447 3565.5,-132 3565.5,-67 3497.34,-83.59 3434.5,-67 3264.34,-22.08 2701.5,-17.1 2560,-16.56"/>
<polygon fill="midnightblue" stroke="midnightblue" points="2559.82,-13.06 2549.81,-16.53 2559.8,-20.06 2559.82,-13.06"/>
</g>
<!-- Node145&#45;&gt;Node132 -->
<g id="edge157" class="edge">
<title>Node145&#45;&gt;Node132</title>
<path fill="none" stroke="midnightblue" d="M3013.45,-693.07C2799.01,-682.7 2159.25,-651.78 1933.48,-640.87"/>
<polygon fill="midnightblue" stroke="midnightblue" points="1933.52,-637.36 1923.36,-640.38 1933.18,-644.36 1933.52,-637.36"/>
</g>
<!-- Node145&#45;&gt;Node136 -->
<g id="edge156" class="edge">
<title>Node145&#45;&gt;Node136</title>
<path fill="none" stroke="midnightblue" d="M3061.8,-682.44C3014.96,-653.33 2904.39,-584.07 2813.5,-523 2793.64,-509.66 2790.14,-504.1 2769.5,-492 2748.63,-479.77 2723.92,-468.04 2705.08,-459.62"/>
<polygon fill="midnightblue" stroke="midnightblue" points="2706.37,-456.37 2695.81,-455.54 2703.55,-462.77 2706.37,-456.37"/>
</g>
<!-- Node146&#45;&gt;Node3 -->
<g id="edge160" class="edge">
<title>Node146&#45;&gt;Node3</title>
<path fill="none" stroke="midnightblue" d="M3408.41,-559.42C3383.37,-537.57 3337.03,-497.43 3328.5,-492 3178.35,-396.52 2766.49,-211.23 2591.5,-179 2445.02,-152.02 1992.53,-139.16 1828.59,-135.3"/>
<polygon fill="midnightblue" stroke="midnightblue" points="1828.29,-131.79 1818.22,-135.06 1828.13,-138.79 1828.29,-131.79"/>
</g>
<!-- Node146&#45;&gt;Node13 -->
<g id="edge159" class="edge">
<title>Node146&#45;&gt;Node13</title>
<path fill="none" stroke="midnightblue" d="M3461,-559.37C3477.77,-551.13 3496.55,-539.14 3508.5,-523 3529.22,-495.02 3527.5,-481.82 3527.5,-447 3527.5,-447 3527.5,-447 3527.5,-132 3527.5,-32.23 2731.83,-18.55 2559.97,-16.76"/>
<polygon fill="midnightblue" stroke="midnightblue" points="2559.82,-13.26 2549.79,-16.66 2559.75,-20.26 2559.82,-13.26"/>
</g>
<!-- Node146&#45;&gt;Node140 -->
<g id="edge161" class="edge">
<title>Node146&#45;&gt;Node140</title>
<path fill="none" stroke="midnightblue" d="M3349.43,-559.72C3290.62,-548.92 3209.05,-533.94 3149.31,-522.97"/>
<polygon fill="midnightblue" stroke="midnightblue" points="3149.64,-519.47 3139.17,-521.11 3148.37,-526.36 3149.64,-519.47"/>
</g>
<!-- Node147&#45;&gt;Node3 -->
<g id="edge164" class="edge">
<title>Node147&#45;&gt;Node3</title>
<path fill="none" stroke="midnightblue" d="M3406.03,-492.48C3384.34,-482.65 3354.94,-468.99 3329.5,-456 3149.31,-363.98 3120.21,-307.97 2931.5,-235 2830.15,-195.81 2801.11,-194.15 2693.5,-179 2525.4,-155.34 2005.23,-140.09 1828.2,-135.48"/>
<polygon fill="midnightblue" stroke="midnightblue" points="1828.12,-131.98 1818.04,-135.22 1827.94,-138.97 1828.12,-131.98"/>
</g>
<!-- Node147&#45;&gt;Node13 -->
<g id="edge163" class="edge">
<title>Node147&#45;&gt;Node13</title>
<path fill="none" stroke="midnightblue" d="M3416.17,-492.49C3388.44,-472.4 3343.5,-432.58 3343.5,-385.5 3343.5,-385.5 3343.5,-385.5 3343.5,-132 3343.5,-51.4 2711.24,-23.2 2559.81,-17.6"/>
<polygon fill="midnightblue" stroke="midnightblue" points="2559.87,-14.1 2549.75,-17.24 2559.62,-21.1 2559.87,-14.1"/>
</g>
<!-- Node147&#45;&gt;Node136 -->
<g id="edge165" class="edge">
<title>Node147&#45;&gt;Node136</title>
<path fill="none" stroke="midnightblue" d="M3375.33,-497.54C3360.04,-495.52 3343.7,-493.53 3328.5,-492 3117.29,-470.7 2866.62,-456.52 2746.54,-450.42"/>
<polygon fill="midnightblue" stroke="midnightblue" points="2746.54,-446.91 2736.38,-449.9 2746.19,-453.9 2746.54,-446.91"/>
</g>
<!-- Node148&#45;&gt;Node3 -->
<g id="edge168" class="edge">
<title>Node148&#45;&gt;Node3</title>
<path fill="none" stroke="midnightblue" d="M3220.54,-492.49C3195.28,-482.72 3161.13,-469.13 3131.5,-456 2866.65,-338.64 2823.92,-243.45 2541.5,-179 2406.1,-148.1 1985.68,-137.76 1828.56,-134.93"/>
<polygon fill="midnightblue" stroke="midnightblue" points="1828.21,-131.42 1818.15,-134.74 1828.09,-138.42 1828.21,-131.42"/>
</g>
<!-- Node148&#45;&gt;Node13 -->
<g id="edge167" class="edge">
<title>Node148&#45;&gt;Node13</title>
<path fill="none" stroke="midnightblue" d="M3230.1,-492.37C3196.94,-473.09 3145.5,-435.16 3145.5,-385.5 3145.5,-385.5 3145.5,-385.5 3145.5,-132 3145.5,-73.29 3086.46,-84.76 3030.5,-67 2942.01,-38.92 2656.23,-22.76 2559.7,-18"/>
<polygon fill="midnightblue" stroke="midnightblue" points="2559.82,-14.5 2549.66,-17.51 2559.48,-21.49 2559.82,-14.5"/>
</g>
<!-- Node148&#45;&gt;Node136 -->
<g id="edge169" class="edge">
<title>Node148&#45;&gt;Node136</title>
<path fill="none" stroke="midnightblue" d="M3195.3,-497.82C3180.01,-495.8 3163.67,-493.73 3148.5,-492 3005.91,-475.74 2838.67,-460.8 2746.14,-452.89"/>
<polygon fill="midnightblue" stroke="midnightblue" points="2746.32,-449.39 2736.06,-452.03 2745.72,-456.37 2746.32,-449.39"/>
</g>
<!-- Node149&#45;&gt;Node13 -->
<g id="edge171" class="edge">
<title>Node149&#45;&gt;Node13</title>
<path fill="none" stroke="midnightblue" d="M2882.73,-492.35C2881.57,-469.76 2879.5,-424.17 2879.5,-385.5 2879.5,-385.5 2879.5,-385.5 2879.5,-132 2879.5,-65.01 2646.43,-30.57 2559.59,-20.06"/>
<polygon fill="midnightblue" stroke="midnightblue" points="2559.86,-16.56 2549.52,-18.87 2559.04,-23.52 2559.86,-16.56"/>
</g>
<!-- Node149&#45;&gt;Node58 -->
<g id="edge172" class="edge">
<title>Node149&#45;&gt;Node58</title>
<path fill="none" stroke="midnightblue" d="M2857.33,-492.36C2820.68,-472.68 2757.21,-439.08 2745.5,-436 2638.81,-407.9 1878.07,-391.38 1637.34,-386.81"/>
<polygon fill="midnightblue" stroke="midnightblue" points="1637.36,-383.31 1627.3,-386.62 1637.23,-390.31 1637.36,-383.31"/>
</g>
<!-- Node149&#45;&gt;Node136 -->
<g id="edge173" class="edge">
<title>Node149&#45;&gt;Node136</title>
<path fill="none" stroke="midnightblue" d="M2834.47,-492.47C2798.12,-482.08 2749.19,-468.08 2715.25,-458.37"/>
<polygon fill="midnightblue" stroke="midnightblue" points="2715.81,-454.89 2705.24,-455.51 2713.89,-461.62 2715.81,-454.89"/>
</g>
<!-- Node150&#45;&gt;Node3 -->
<g id="edge176" class="edge">
<title>Node150&#45;&gt;Node3</title>
<path fill="none" stroke="midnightblue" d="M2013,-492.27C2041.59,-442.4 2128,-273.52 2047.5,-179 2019.89,-146.58 1901.45,-137.44 1828.04,-134.91"/>
<polygon fill="midnightblue" stroke="midnightblue" points="1828.11,-131.41 1818,-134.59 1827.89,-138.41 1828.11,-131.41"/>
</g>
<!-- Node150&#45;&gt;Node13 -->
<g id="edge175" class="edge">
<title>Node150&#45;&gt;Node13</title>
<path fill="none" stroke="midnightblue" d="M2066.03,-492.45C2118.5,-476.4 2185.5,-444.37 2185.5,-385.5 2185.5,-385.5 2185.5,-385.5 2185.5,-316.5 2185.5,-152.37 2410.85,-57.03 2495.7,-26.94"/>
<polygon fill="midnightblue" stroke="midnightblue" points="2497.03,-30.19 2505.32,-23.6 2494.73,-23.58 2497.03,-30.19"/>
</g>
<!-- Node150&#45;&gt;Node57 -->
<g id="edge177" class="edge">
<title>Node150&#45;&gt;Node57</title>
<path fill="none" stroke="midnightblue" d="M1935.71,-494.17C1874.88,-483.27 1787.16,-467.55 1730,-457.3"/>
<polygon fill="midnightblue" stroke="midnightblue" points="1730.5,-453.84 1720.04,-455.52 1729.27,-460.73 1730.5,-453.84"/>
</g>
<!-- Node150&#45;&gt;Node136 -->
<g id="edge178" class="edge">
<title>Node150&#45;&gt;Node136</title>
<path fill="none" stroke="midnightblue" d="M2073.34,-493.29C2076.43,-492.82 2079.5,-492.39 2082.5,-492 2270.14,-467.51 2493.05,-455.02 2604.55,-449.9"/>
<polygon fill="midnightblue" stroke="midnightblue" points="2604.84,-453.39 2614.67,-449.44 2604.52,-446.4 2604.84,-453.39"/>
</g>
<!-- Node152&#45;&gt;Node3 -->
<g id="edge181" class="edge">
<title>Node152&#45;&gt;Node3</title>
<path fill="none" stroke="midnightblue" d="M2163.59,-492.21C2166.71,-439.91 2169.64,-257.89 2067.5,-179 2031.19,-150.96 1905.09,-140.23 1828.73,-136.25"/>
<polygon fill="midnightblue" stroke="midnightblue" points="1828.46,-132.73 1818.3,-135.73 1828.11,-139.72 1828.46,-132.73"/>
</g>
<!-- Node152&#45;&gt;Node13 -->
<g id="edge180" class="edge">
<title>Node152&#45;&gt;Node13</title>
<path fill="none" stroke="midnightblue" d="M2175.14,-492.39C2193.01,-470.94 2223.5,-428.08 2223.5,-385.5 2223.5,-385.5 2223.5,-385.5 2223.5,-316.5 2223.5,-239.28 2296.58,-253.29 2351.5,-199 2408.74,-142.41 2419.06,-124.39 2475.5,-67 2487.06,-55.25 2500.4,-42.3 2510.68,-32.46"/>
<polygon fill="midnightblue" stroke="midnightblue" points="2513.35,-34.75 2518.17,-25.31 2508.52,-29.68 2513.35,-34.75"/>
</g>
<!-- Node152&#45;&gt;Node57 -->
<g id="edge182" class="edge">
<title>Node152&#45;&gt;Node57</title>
<path fill="none" stroke="midnightblue" d="M2091.44,-493.35C2088.42,-492.88 2085.43,-492.43 2082.5,-492 1966.17,-475.1 1830.45,-461.37 1748.04,-453.69"/>
<polygon fill="midnightblue" stroke="midnightblue" points="1748.29,-450.2 1738.01,-452.76 1747.64,-457.17 1748.29,-450.2"/>
</g>
<!-- Node152&#45;&gt;Node136 -->
<g id="edge183" class="edge">
<title>Node152&#45;&gt;Node136</title>
<path fill="none" stroke="midnightblue" d="M2233.56,-498.26C2331.47,-486.9 2506.8,-466.57 2604.61,-455.22"/>
<polygon fill="midnightblue" stroke="midnightblue" points="2605.17,-458.68 2614.7,-454.05 2604.36,-451.73 2605.17,-458.68"/>
</g>
</g>
</svg>
