<?xml version="1.0" encoding="UTF-8" standalone="no"?>
<!DOCTYPE svg PUBLIC "-//W3C//DTD SVG 1.1//EN"
 "http://www.w3.org/Graphics/SVG/1.1/DTD/svg11.dtd">
<!-- Generated by graphviz version 2.43.0 (0)
 -->
<!-- Title: compute_wss_statistics_process.ComputeWssStatisticsProcess Pages: 1 -->
<svg width="180pt" height="215pt"
 viewBox="0.00 0.00 180.00 215.00" xmlns="http://www.w3.org/2000/svg" xmlns:xlink="http://www.w3.org/1999/xlink">
<g id="graph0" class="graph" transform="scale(1 1) rotate(0) translate(4 211)">
<title>compute_wss_statistics_process.ComputeWssStatisticsProcess</title>
<!-- Node1 -->
<g id="node1" class="node">
<title>Node1</title>
<g id="a_node1"><a xlink:title="Auxiliary base class to output total WSS forces A derived class needs to be implemented to be able to...">
<polygon fill="#bfbfbf" stroke="black" points="0,-0.5 0,-112.5 172,-112.5 172,-0.5 0,-0.5"/>
<text text-anchor="start" x="8" y="-100.5" font-family="Helvetica,sans-Serif" font-size="10.00">compute_wss_statistics</text>
<text text-anchor="start" x="8" y="-89.5" font-family="Helvetica,sans-Serif" font-size="10.00">_process.ComputeWssStatistics</text>
<text text-anchor="middle" x="86" y="-78.5" font-family="Helvetica,sans-Serif" font-size="10.00">Process</text>
<polyline fill="none" stroke="black" points="0,-71.5 172,-71.5 "/>
<text text-anchor="start" x="8" y="-59.5" font-family="Helvetica,sans-Serif" font-size="10.00">+ model</text>
<text text-anchor="start" x="8" y="-48.5" font-family="Helvetica,sans-Serif" font-size="10.00">+ settings</text>
<polyline fill="none" stroke="black" points="0,-41.5 172,-41.5 "/>
<text text-anchor="start" x="8" y="-29.5" font-family="Helvetica,sans-Serif" font-size="10.00">+ __init__()</text>
<text text-anchor="start" x="8" y="-18.5" font-family="Helvetica,sans-Serif" font-size="10.00">+ ExecuteInitialize()</text>
<text text-anchor="start" x="8" y="-7.5" font-family="Helvetica,sans-Serif" font-size="10.00">+ ExecuteBeforeOutputStep()</text>
</a>
</g>
</g>
<!-- Node2 -->
<g id="node2" class="node">
<title>Node2</title>
<g id="a_node2"><a xlink:title=" ">
<polygon fill="none" stroke="#bfbfbf" points="11,-149.5 11,-206.5 161,-206.5 161,-149.5 11,-149.5"/>
<text text-anchor="middle" x="86" y="-194.5" font-family="Helvetica,sans-Serif" font-size="10.00">KratosMultiphysics.Process</text>
<polyline fill="none" stroke="#bfbfbf" points="11,-187.5 161,-187.5 "/>
<text text-anchor="middle" x="86" y="-175.5" font-family="Helvetica,sans-Serif" font-size="10.00"> </text>
<polyline fill="none" stroke="#bfbfbf" points="11,-168.5 161,-168.5 "/>
<text text-anchor="middle" x="86" y="-156.5" font-family="Helvetica,sans-Serif" font-size="10.00"> </text>
</a>
</g>
</g>
<!-- Node2&#45;&gt;Node1 -->
<g id="edge1" class="edge">
<title>Node2&#45;&gt;Node1</title>
<path fill="none" stroke="midnightblue" d="M86,-139.11C86,-130.75 86,-121.73 86,-112.83"/>
<polygon fill="none" stroke="midnightblue" points="82.5,-139.28 86,-149.28 89.5,-139.28 82.5,-139.28"/>
</g>
</g>
</svg>
