<?xml version="1.0" encoding="UTF-8" standalone="no"?>
<!DOCTYPE svg PUBLIC "-//W3C//DTD SVG 1.1//EN"
 "http://www.w3.org/Graphics/SVG/1.1/DTD/svg11.dtd">
<!-- Generated by graphviz version 2.43.0 (0)
 -->
<!-- Title: /home/runner/work/Documentation/Documentation/master/applications/PfemFluidDynamicsApplication/custom_elements/two_step_updated_lagrangian_V_P_implicit_element.h Pages: 1 -->
<!--zoomable 572 -->
<svg id="main" version="1.1" xmlns="http://www.w3.org/2000/svg" xmlns:xlink="http://www.w3.org/1999/xlink" xml:space="preserve" onload="init(evt)">
<style type="text/css"><![CDATA[
.edge:hover path { stroke: red; }
.edge:hover polygon { stroke: red; fill: red; }
]]></style>
<script type="text/javascript"><![CDATA[
var edges = document.getElementsByTagName('g');
if (edges && edges.length) {
  for (var i=0;i<edges.length;i++) {
    if (edges[i].id.substr(0,4)=='edge') {
      edges[i].setAttribute('class','edge');
    }
  }
}
]]></script>
        <defs>
                <circle id="rim" cx="0" cy="0" r="7"/>
                <circle id="rim2" cx="0" cy="0" r="3.5"/>
                <g id="zoomPlus">
                        <use xlink:href="#rim" fill="#404040">
                                <set attributeName="fill" to="#808080" begin="zoomplus.mouseover" end="zoomplus.mouseout"/>
                        </use>
                        <path d="M-4,0h8M0,-4v8" fill="none" stroke="white" stroke-width="1.5" pointer-events="none"/>
                </g>
                <g id="zoomMin">
                        <use xlink:href="#rim" fill="#404040">
                                <set attributeName="fill" to="#808080" begin="zoomminus.mouseover" end="zoomminus.mouseout"/>
                        </use>
                        <path d="M-4,0h8" fill="none" stroke="white" stroke-width="1.5" pointer-events="none"/>
                </g>
                <g id="dirArrow">
                        <path fill="none" stroke="white" stroke-width="1.5" d="M0,-3.0v7 M-2.5,-0.5L0,-3.0L2.5,-0.5"/>
                </g>
               <g id="resetDef">
                       <use xlink:href="#rim2" fill="#404040">
                               <set attributeName="fill" to="#808080" begin="reset.mouseover" end="reset.mouseout"/>
                       </use>
               </g>
        </defs>

<script type="text/javascript">
var viewWidth = 2248;
var viewHeight = 572;
var sectionId = 'dynsection-1';
</script>
<script xlink:href="../../svgpan.js"/>
<svg id="graph" class="graph">
<g id="viewport">
<title>/home/runner/work/Documentation/Documentation/master/applications/PfemFluidDynamicsApplication/custom_elements/two_step_updated_lagrangian_V_P_implicit_element.h</title>
<!-- Node1 -->
<g id="node1" class="node">
<title>Node1</title>
<g id="a_node1"><a xlink:title=" ">
<polygon fill="#bfbfbf" stroke="black" points="945.5,-500.5 945.5,-563.5 1162.5,-563.5 1162.5,-500.5 945.5,-500.5"/>
<text text-anchor="start" x="953.5" y="-551.5" font-family="Helvetica,sans-Serif" font-size="10.00">/home/runner/work/Documentation</text>
<text text-anchor="start" x="953.5" y="-540.5" font-family="Helvetica,sans-Serif" font-size="10.00">/Documentation/master/applications</text>
<text text-anchor="start" x="953.5" y="-529.5" font-family="Helvetica,sans-Serif" font-size="10.00">/PfemFluidDynamicsApplication/custom</text>
<text text-anchor="start" x="953.5" y="-518.5" font-family="Helvetica,sans-Serif" font-size="10.00">_elements/two_step_updated_lagrangian</text>
<text text-anchor="middle" x="1054" y="-507.5" font-family="Helvetica,sans-Serif" font-size="10.00">_V_P_implicit_element.h</text>
</a>
</g>
</g>
<!-- Node2 -->
<g id="node2" class="node">
<title>Node2</title>
<g id="a_node2"><a xlink:href="../../d9/d07/two__step__updated__lagrangian___v___p__implicit__element_8cpp.html" target="_top" xlink:title=" ">
<polygon fill="none" stroke="black" points="456.5,-400.5 456.5,-463.5 673.5,-463.5 673.5,-400.5 456.5,-400.5"/>
<text text-anchor="start" x="464.5" y="-451.5" font-family="Helvetica,sans-Serif" font-size="10.00">/home/runner/work/Documentation</text>
<text text-anchor="start" x="464.5" y="-440.5" font-family="Helvetica,sans-Serif" font-size="10.00">/Documentation/master/applications</text>
<text text-anchor="start" x="464.5" y="-429.5" font-family="Helvetica,sans-Serif" font-size="10.00">/PfemFluidDynamicsApplication/custom</text>
<text text-anchor="start" x="464.5" y="-418.5" font-family="Helvetica,sans-Serif" font-size="10.00">_elements/two_step_updated_lagrangian</text>
<text text-anchor="middle" x="565" y="-407.5" font-family="Helvetica,sans-Serif" font-size="10.00">_V_P_implicit_element.cpp</text>
</a>
</g>
</g>
<!-- Node1&#45;&gt;Node2 -->
<g id="edge1" class="edge">
<title>Node1&#45;&gt;Node2</title>
<path fill="none" stroke="midnightblue" d="M935.1,-512.1C861.83,-499.83 766.13,-482.69 682,-464 679.23,-463.38 676.43,-462.75 673.6,-462.09"/>
<polygon fill="midnightblue" stroke="midnightblue" points="934.85,-515.61 945.29,-513.8 936,-508.7 934.85,-515.61"/>
</g>
<!-- Node3 -->
<g id="node3" class="node">
<title>Node3</title>
<g id="a_node3"><a xlink:href="../../dc/df0/two__step__updated__lagrangian___v___p__implicit__fluid__element_8h.html" target="_top" xlink:title=" ">
<polygon fill="none" stroke="black" points="691.5,-400.5 691.5,-463.5 908.5,-463.5 908.5,-400.5 691.5,-400.5"/>
<text text-anchor="start" x="699.5" y="-451.5" font-family="Helvetica,sans-Serif" font-size="10.00">/home/runner/work/Documentation</text>
<text text-anchor="start" x="699.5" y="-440.5" font-family="Helvetica,sans-Serif" font-size="10.00">/Documentation/master/applications</text>
<text text-anchor="start" x="699.5" y="-429.5" font-family="Helvetica,sans-Serif" font-size="10.00">/PfemFluidDynamicsApplication/custom</text>
<text text-anchor="start" x="699.5" y="-418.5" font-family="Helvetica,sans-Serif" font-size="10.00">_elements/two_step_updated_lagrangian</text>
<text text-anchor="middle" x="800" y="-407.5" font-family="Helvetica,sans-Serif" font-size="10.00">_V_P_implicit_fluid_element.h</text>
</a>
</g>
</g>
<!-- Node1&#45;&gt;Node3 -->
<g id="edge2" class="edge">
<title>Node1&#45;&gt;Node3</title>
<path fill="none" stroke="midnightblue" d="M965.29,-496.77C937.25,-485.96 906.48,-474.08 879.16,-463.54"/>
<polygon fill="midnightblue" stroke="midnightblue" points="964.09,-500.06 974.68,-500.4 966.61,-493.53 964.09,-500.06"/>
</g>
<!-- Node8 -->
<g id="node8" class="node">
<title>Node8</title>
<g id="a_node8"><a xlink:href="../../d8/ddc/pfem__fluid__dynamics__application_8h.html" target="_top" xlink:title=" ">
<polygon fill="none" stroke="black" points="756.5,-100.5 756.5,-152.5 957.5,-152.5 957.5,-100.5 756.5,-100.5"/>
<text text-anchor="start" x="764.5" y="-140.5" font-family="Helvetica,sans-Serif" font-size="10.00">/home/runner/work/Documentation</text>
<text text-anchor="start" x="764.5" y="-129.5" font-family="Helvetica,sans-Serif" font-size="10.00">/Documentation/master/applications</text>
<text text-anchor="start" x="764.5" y="-118.5" font-family="Helvetica,sans-Serif" font-size="10.00">/PfemFluidDynamicsApplication/pfem</text>
<text text-anchor="middle" x="857" y="-107.5" font-family="Helvetica,sans-Serif" font-size="10.00">_fluid_dynamics_application.h</text>
</a>
</g>
</g>
<!-- Node1&#45;&gt;Node8 -->
<g id="edge30" class="edge">
<title>Node1&#45;&gt;Node8</title>
<path fill="none" stroke="midnightblue" d="M1063.52,-490.48C1072.9,-439.52 1079.93,-352.38 1034,-300 985.09,-244.22 920.35,-319.39 871,-264 843.9,-233.59 846.76,-182.9 851.64,-152.59"/>
<polygon fill="midnightblue" stroke="midnightblue" points="1060.05,-489.99 1061.57,-500.47 1066.92,-491.33 1060.05,-489.99"/>
</g>
<!-- Node13 -->
<g id="node13" class="node">
<title>Node13</title>
<g id="a_node13"><a xlink:href="../../de/d30/two__step__updated__lagrangian___v___p__implicit__nodally__integrated__element_8h.html" target="_top" xlink:title=" ">
<polygon fill="none" stroke="black" points="1082.5,-300.5 1082.5,-363.5 1315.5,-363.5 1315.5,-300.5 1082.5,-300.5"/>
<text text-anchor="start" x="1090.5" y="-351.5" font-family="Helvetica,sans-Serif" font-size="10.00">/home/runner/work/Documentation</text>
<text text-anchor="start" x="1090.5" y="-340.5" font-family="Helvetica,sans-Serif" font-size="10.00">/Documentation/master/applications</text>
<text text-anchor="start" x="1090.5" y="-329.5" font-family="Helvetica,sans-Serif" font-size="10.00">/PfemFluidDynamicsApplication/custom</text>
<text text-anchor="start" x="1090.5" y="-318.5" font-family="Helvetica,sans-Serif" font-size="10.00">_elements/two_step_updated_lagrangian</text>
<text text-anchor="middle" x="1199" y="-307.5" font-family="Helvetica,sans-Serif" font-size="10.00">_V_P_implicit_nodally_integrated_element.h</text>
</a>
</g>
</g>
<!-- Node1&#45;&gt;Node13 -->
<g id="edge15" class="edge">
<title>Node1&#45;&gt;Node13</title>
<path fill="none" stroke="midnightblue" d="M1082.35,-492.29C1109.93,-454.62 1151.29,-398.14 1176.64,-363.54"/>
<polygon fill="midnightblue" stroke="midnightblue" points="1079.42,-490.36 1076.34,-500.5 1085.07,-494.5 1079.42,-490.36"/>
</g>
<!-- Node19 -->
<g id="node19" class="node">
<title>Node19</title>
<g id="a_node19"><a xlink:href="../../dc/d80/two__step__updated__lagrangian___v___p__implicit__solid__element_8h.html" target="_top" xlink:title=" ">
<polygon fill="none" stroke="black" points="1715.5,-300.5 1715.5,-363.5 1932.5,-363.5 1932.5,-300.5 1715.5,-300.5"/>
<text text-anchor="start" x="1723.5" y="-351.5" font-family="Helvetica,sans-Serif" font-size="10.00">/home/runner/work/Documentation</text>
<text text-anchor="start" x="1723.5" y="-340.5" font-family="Helvetica,sans-Serif" font-size="10.00">/Documentation/master/applications</text>
<text text-anchor="start" x="1723.5" y="-329.5" font-family="Helvetica,sans-Serif" font-size="10.00">/PfemFluidDynamicsApplication/custom</text>
<text text-anchor="start" x="1723.5" y="-318.5" font-family="Helvetica,sans-Serif" font-size="10.00">_elements/two_step_updated_lagrangian</text>
<text text-anchor="middle" x="1824" y="-307.5" font-family="Helvetica,sans-Serif" font-size="10.00">_V_P_implicit_solid_element.h</text>
</a>
</g>
</g>
<!-- Node1&#45;&gt;Node19 -->
<g id="edge24" class="edge">
<title>Node1&#45;&gt;Node19</title>
<path fill="none" stroke="midnightblue" d="M1172.73,-500.47C1320.83,-462.39 1571.96,-397.81 1715.24,-360.97"/>
<polygon fill="midnightblue" stroke="midnightblue" points="1171.5,-497.17 1162.69,-503.05 1173.25,-503.95 1171.5,-497.17"/>
</g>
<!-- Node4 -->
<g id="node4" class="node">
<title>Node4</title>
<g id="a_node4"><a xlink:href="../../dc/da0/two__step__updated__lagrangian___v___p__implicit__fluid__element_8cpp.html" target="_top" xlink:title=" ">
<polygon fill="none" stroke="black" points="808.5,-300.5 808.5,-363.5 1025.5,-363.5 1025.5,-300.5 808.5,-300.5"/>
<text text-anchor="start" x="816.5" y="-351.5" font-family="Helvetica,sans-Serif" font-size="10.00">/home/runner/work/Documentation</text>
<text text-anchor="start" x="816.5" y="-340.5" font-family="Helvetica,sans-Serif" font-size="10.00">/Documentation/master/applications</text>
<text text-anchor="start" x="816.5" y="-329.5" font-family="Helvetica,sans-Serif" font-size="10.00">/PfemFluidDynamicsApplication/custom</text>
<text text-anchor="start" x="816.5" y="-318.5" font-family="Helvetica,sans-Serif" font-size="10.00">_elements/two_step_updated_lagrangian</text>
<text text-anchor="middle" x="917" y="-307.5" font-family="Helvetica,sans-Serif" font-size="10.00">_V_P_implicit_fluid_element.cpp</text>
</a>
</g>
</g>
<!-- Node3&#45;&gt;Node4 -->
<g id="edge3" class="edge">
<title>Node3&#45;&gt;Node4</title>
<path fill="none" stroke="midnightblue" d="M844.38,-393.83C856.28,-383.86 869.01,-373.2 880.43,-363.63"/>
<polygon fill="midnightblue" stroke="midnightblue" points="842.12,-391.16 836.7,-400.26 846.61,-396.52 842.12,-391.16"/>
</g>
<!-- Node5 -->
<g id="node5" class="node">
<title>Node5</title>
<g id="a_node5"><a xlink:href="../../d3/d84/two__step__updated__lagrangian___v___p__implicit__fluid___f_i_c__element_8h.html" target="_top" xlink:title=" ">
<polygon fill="none" stroke="black" points="231.5,-300.5 231.5,-363.5 448.5,-363.5 448.5,-300.5 231.5,-300.5"/>
<text text-anchor="start" x="239.5" y="-351.5" font-family="Helvetica,sans-Serif" font-size="10.00">/home/runner/work/Documentation</text>
<text text-anchor="start" x="239.5" y="-340.5" font-family="Helvetica,sans-Serif" font-size="10.00">/Documentation/master/applications</text>
<text text-anchor="start" x="239.5" y="-329.5" font-family="Helvetica,sans-Serif" font-size="10.00">/PfemFluidDynamicsApplication/custom</text>
<text text-anchor="start" x="239.5" y="-318.5" font-family="Helvetica,sans-Serif" font-size="10.00">_elements/two_step_updated_lagrangian</text>
<text text-anchor="middle" x="340" y="-307.5" font-family="Helvetica,sans-Serif" font-size="10.00">_V_P_implicit_fluid_FIC_element.h</text>
</a>
</g>
</g>
<!-- Node3&#45;&gt;Node5 -->
<g id="edge4" class="edge">
<title>Node3&#45;&gt;Node5</title>
<path fill="none" stroke="midnightblue" d="M681.45,-399.92C597.6,-380.9 513.42,-364.5 448.58,-352.45"/>
<polygon fill="midnightblue" stroke="midnightblue" points="680.87,-403.38 691.4,-402.19 682.43,-396.56 680.87,-403.38"/>
</g>
<!-- Node3&#45;&gt;Node8 -->
<g id="edge14" class="edge">
<title>Node3&#45;&gt;Node8</title>
<path fill="none" stroke="midnightblue" d="M681.75,-399.05C623.86,-383.13 566.03,-366.69 564,-364 520.06,-305.85 519.07,-257.4 564,-200 587.78,-169.62 681.14,-150.2 756.17,-139.19"/>
<polygon fill="midnightblue" stroke="midnightblue" points="680.84,-402.43 691.41,-401.7 682.7,-395.68 680.84,-402.43"/>
</g>
<!-- Node11 -->
<g id="node11" class="node">
<title>Node11</title>
<g id="a_node11"><a xlink:href="../../d9/d70/two__step__updated__lagrangian___v___p__implicit__fluid___p_s_p_g__element_8h.html" target="_top" xlink:title=" ">
<polygon fill="none" stroke="black" points="573.5,-300.5 573.5,-363.5 790.5,-363.5 790.5,-300.5 573.5,-300.5"/>
<text text-anchor="start" x="581.5" y="-351.5" font-family="Helvetica,sans-Serif" font-size="10.00">/home/runner/work/Documentation</text>
<text text-anchor="start" x="581.5" y="-340.5" font-family="Helvetica,sans-Serif" font-size="10.00">/Documentation/master/applications</text>
<text text-anchor="start" x="581.5" y="-329.5" font-family="Helvetica,sans-Serif" font-size="10.00">/PfemFluidDynamicsApplication/custom</text>
<text text-anchor="start" x="581.5" y="-318.5" font-family="Helvetica,sans-Serif" font-size="10.00">_elements/two_step_updated_lagrangian</text>
<text text-anchor="middle" x="682" y="-307.5" font-family="Helvetica,sans-Serif" font-size="10.00">_V_P_implicit_fluid_PSPG_element.h</text>
</a>
</g>
</g>
<!-- Node3&#45;&gt;Node11 -->
<g id="edge11" class="edge">
<title>Node3&#45;&gt;Node11</title>
<path fill="none" stroke="midnightblue" d="M755.24,-393.83C743.24,-383.86 730.4,-373.2 718.88,-363.63"/>
<polygon fill="midnightblue" stroke="midnightblue" points="753.06,-396.56 762.99,-400.26 757.53,-391.18 753.06,-396.56"/>
</g>
<!-- Node6 -->
<g id="node6" class="node">
<title>Node6</title>
<g id="a_node6"><a xlink:href="../../d7/d29/two__step__updated__lagrangian___v___p__implicit__fluid___d_e_m__coupling__element_8h.html" target="_top" xlink:title=" ">
<polygon fill="none" stroke="black" points="5.5,-200.5 5.5,-263.5 242.5,-263.5 242.5,-200.5 5.5,-200.5"/>
<text text-anchor="start" x="13.5" y="-251.5" font-family="Helvetica,sans-Serif" font-size="10.00">/home/runner/work/Documentation</text>
<text text-anchor="start" x="13.5" y="-240.5" font-family="Helvetica,sans-Serif" font-size="10.00">/Documentation/master/applications</text>
<text text-anchor="start" x="13.5" y="-229.5" font-family="Helvetica,sans-Serif" font-size="10.00">/PfemFluidDynamicsApplication/custom</text>
<text text-anchor="start" x="13.5" y="-218.5" font-family="Helvetica,sans-Serif" font-size="10.00">_elements/two_step_updated_lagrangian</text>
<text text-anchor="middle" x="124" y="-207.5" font-family="Helvetica,sans-Serif" font-size="10.00">_V_P_implicit_fluid_DEM_coupling_element.h</text>
</a>
</g>
</g>
<!-- Node5&#45;&gt;Node6 -->
<g id="edge5" class="edge">
<title>Node5&#45;&gt;Node6</title>
<path fill="none" stroke="midnightblue" d="M263.31,-296.21C239.81,-285.54 214.14,-273.9 191.31,-263.54"/>
<polygon fill="midnightblue" stroke="midnightblue" points="261.99,-299.45 272.54,-300.4 264.88,-293.08 261.99,-299.45"/>
</g>
<!-- Node5&#45;&gt;Node8 -->
<g id="edge10" class="edge">
<title>Node5&#45;&gt;Node8</title>
<path fill="none" stroke="midnightblue" d="M305.88,-292.17C285.27,-263.89 267.02,-226.11 290,-200 320.27,-165.62 601.78,-143.12 756.41,-133.25"/>
<polygon fill="midnightblue" stroke="midnightblue" points="303.18,-294.4 312.02,-300.25 308.76,-290.17 303.18,-294.4"/>
</g>
<!-- Node10 -->
<g id="node10" class="node">
<title>Node10</title>
<g id="a_node10"><a xlink:href="../../d1/d18/two__step__updated__lagrangian___v___p__implicit__fluid___f_i_c__element_8cpp.html" target="_top" xlink:title=" ">
<polygon fill="none" stroke="black" points="299.5,-200.5 299.5,-263.5 516.5,-263.5 516.5,-200.5 299.5,-200.5"/>
<text text-anchor="start" x="307.5" y="-251.5" font-family="Helvetica,sans-Serif" font-size="10.00">/home/runner/work/Documentation</text>
<text text-anchor="start" x="307.5" y="-240.5" font-family="Helvetica,sans-Serif" font-size="10.00">/Documentation/master/applications</text>
<text text-anchor="start" x="307.5" y="-229.5" font-family="Helvetica,sans-Serif" font-size="10.00">/PfemFluidDynamicsApplication/custom</text>
<text text-anchor="start" x="307.5" y="-218.5" font-family="Helvetica,sans-Serif" font-size="10.00">_elements/two_step_updated_lagrangian</text>
<text text-anchor="middle" x="408" y="-207.5" font-family="Helvetica,sans-Serif" font-size="10.00">_V_P_implicit_fluid_FIC_element.cpp</text>
</a>
</g>
</g>
<!-- Node5&#45;&gt;Node10 -->
<g id="edge9" class="edge">
<title>Node5&#45;&gt;Node10</title>
<path fill="none" stroke="midnightblue" d="M367.18,-291.83C373.69,-282.44 380.55,-272.56 386.75,-263.63"/>
<polygon fill="midnightblue" stroke="midnightblue" points="364.15,-290.05 361.33,-300.26 369.91,-294.04 364.15,-290.05"/>
</g>
<!-- Node7 -->
<g id="node7" class="node">
<title>Node7</title>
<g id="a_node7"><a xlink:href="../../db/dd7/two__step__updated__lagrangian___v___p__implicit__fluid___d_e_m__coupling__element_8cpp.html" target="_top" xlink:title=" ">
<polygon fill="none" stroke="black" points="0,-95 0,-158 248,-158 248,-95 0,-95"/>
<text text-anchor="start" x="8" y="-146" font-family="Helvetica,sans-Serif" font-size="10.00">/home/runner/work/Documentation</text>
<text text-anchor="start" x="8" y="-135" font-family="Helvetica,sans-Serif" font-size="10.00">/Documentation/master/applications</text>
<text text-anchor="start" x="8" y="-124" font-family="Helvetica,sans-Serif" font-size="10.00">/PfemFluidDynamicsApplication/custom</text>
<text text-anchor="start" x="8" y="-113" font-family="Helvetica,sans-Serif" font-size="10.00">_elements/two_step_updated_lagrangian</text>
<text text-anchor="middle" x="124" y="-102" font-family="Helvetica,sans-Serif" font-size="10.00">_V_P_implicit_fluid_DEM_coupling_element.cpp</text>
</a>
</g>
</g>
<!-- Node6&#45;&gt;Node7 -->
<g id="edge6" class="edge">
<title>Node6&#45;&gt;Node7</title>
<path fill="none" stroke="midnightblue" d="M124,-189.96C124,-179.42 124,-168.26 124,-158.33"/>
<polygon fill="midnightblue" stroke="midnightblue" points="120.5,-190.23 124,-200.23 127.5,-190.23 120.5,-190.23"/>
</g>
<!-- Node6&#45;&gt;Node8 -->
<g id="edge7" class="edge">
<title>Node6&#45;&gt;Node8</title>
<path fill="none" stroke="midnightblue" d="M253.04,-200.71C254.37,-200.47 255.69,-200.23 257,-200 431.5,-169.22 636.87,-147.5 756.45,-136.28"/>
<polygon fill="midnightblue" stroke="midnightblue" points="251.97,-197.35 242.79,-202.64 253.26,-204.23 251.97,-197.35"/>
</g>
<!-- Node9 -->
<g id="node9" class="node">
<title>Node9</title>
<g id="a_node9"><a xlink:href="../../da/de5/pfem__fluid__dynamics__application_8cpp.html" target="_top" xlink:title=" ">
<polygon fill="none" stroke="black" points="756.5,-0.5 756.5,-52.5 957.5,-52.5 957.5,-0.5 756.5,-0.5"/>
<text text-anchor="start" x="764.5" y="-40.5" font-family="Helvetica,sans-Serif" font-size="10.00">/home/runner/work/Documentation</text>
<text text-anchor="start" x="764.5" y="-29.5" font-family="Helvetica,sans-Serif" font-size="10.00">/Documentation/master/applications</text>
<text text-anchor="start" x="764.5" y="-18.5" font-family="Helvetica,sans-Serif" font-size="10.00">/PfemFluidDynamicsApplication/pfem</text>
<text text-anchor="middle" x="857" y="-7.5" font-family="Helvetica,sans-Serif" font-size="10.00">_fluid_dynamics_application.cpp</text>
</a>
</g>
</g>
<!-- Node8&#45;&gt;Node9 -->
<g id="edge8" class="edge">
<title>Node8&#45;&gt;Node9</title>
<path fill="none" stroke="midnightblue" d="M857,-90.2C857,-77.78 857,-64.07 857,-52.65"/>
<polygon fill="midnightblue" stroke="midnightblue" points="853.5,-90.26 857,-100.26 860.5,-90.26 853.5,-90.26"/>
</g>
<!-- Node11&#45;&gt;Node8 -->
<g id="edge13" class="edge">
<title>Node11&#45;&gt;Node8</title>
<path fill="none" stroke="midnightblue" d="M761.07,-295.21C774.93,-286.43 788.32,-276.03 799,-264 827.98,-231.37 844.01,-182.11 851.54,-152.54"/>
<polygon fill="midnightblue" stroke="midnightblue" points="759.14,-292.29 752.4,-300.46 762.77,-298.27 759.14,-292.29"/>
</g>
<!-- Node12 -->
<g id="node12" class="node">
<title>Node12</title>
<g id="a_node12"><a xlink:href="../../d3/dc9/two__step__updated__lagrangian___v___p__implicit__fluid___p_s_p_g__element_8cpp.html" target="_top" xlink:title=" ">
<polygon fill="none" stroke="black" points="573.5,-200.5 573.5,-263.5 790.5,-263.5 790.5,-200.5 573.5,-200.5"/>
<text text-anchor="start" x="581.5" y="-251.5" font-family="Helvetica,sans-Serif" font-size="10.00">/home/runner/work/Documentation</text>
<text text-anchor="start" x="581.5" y="-240.5" font-family="Helvetica,sans-Serif" font-size="10.00">/Documentation/master/applications</text>
<text text-anchor="start" x="581.5" y="-229.5" font-family="Helvetica,sans-Serif" font-size="10.00">/PfemFluidDynamicsApplication/custom</text>
<text text-anchor="start" x="581.5" y="-218.5" font-family="Helvetica,sans-Serif" font-size="10.00">_elements/two_step_updated_lagrangian</text>
<text text-anchor="middle" x="682" y="-207.5" font-family="Helvetica,sans-Serif" font-size="10.00">_V_P_implicit_fluid_PSPG_element.cpp</text>
</a>
</g>
</g>
<!-- Node11&#45;&gt;Node12 -->
<g id="edge12" class="edge">
<title>Node11&#45;&gt;Node12</title>
<path fill="none" stroke="midnightblue" d="M682,-290.1C682,-281.24 682,-272.01 682,-263.63"/>
<polygon fill="midnightblue" stroke="midnightblue" points="678.5,-290.26 682,-300.26 685.5,-290.26 678.5,-290.26"/>
</g>
<!-- Node13&#45;&gt;Node8 -->
<g id="edge23" class="edge">
<title>Node13&#45;&gt;Node8</title>
<path fill="none" stroke="midnightblue" d="M1072.4,-301.03C1070.92,-300.69 1069.46,-300.34 1068,-300 999.58,-283.91 967.65,-309.41 914,-264 880.29,-235.46 866.14,-183.65 860.49,-152.73"/>
<polygon fill="midnightblue" stroke="midnightblue" points="1071.69,-304.46 1082.23,-303.35 1073.29,-297.65 1071.69,-304.46"/>
</g>
<!-- Node14 -->
<g id="node14" class="node">
<title>Node14</title>
<g id="a_node14"><a xlink:href="../../d1/dae/two__step__updated__lagrangian___v___p__implicit__nodally__integrated__element_8cpp.html" target="_top" xlink:title=" ">
<polygon fill="none" stroke="black" points="1481.5,-200.5 1481.5,-263.5 1726.5,-263.5 1726.5,-200.5 1481.5,-200.5"/>
<text text-anchor="start" x="1489.5" y="-251.5" font-family="Helvetica,sans-Serif" font-size="10.00">/home/runner/work/Documentation</text>
<text text-anchor="start" x="1489.5" y="-240.5" font-family="Helvetica,sans-Serif" font-size="10.00">/Documentation/master/applications</text>
<text text-anchor="start" x="1489.5" y="-229.5" font-family="Helvetica,sans-Serif" font-size="10.00">/PfemFluidDynamicsApplication/custom</text>
<text text-anchor="start" x="1489.5" y="-218.5" font-family="Helvetica,sans-Serif" font-size="10.00">_elements/two_step_updated_lagrangian</text>
<text text-anchor="middle" x="1604" y="-207.5" font-family="Helvetica,sans-Serif" font-size="10.00">_V_P_implicit_nodally_integrated_element.cpp</text>
</a>
</g>
</g>
<!-- Node13&#45;&gt;Node14 -->
<g id="edge16" class="edge">
<title>Node13&#45;&gt;Node14</title>
<path fill="none" stroke="midnightblue" d="M1325.43,-300.41C1375.08,-288.39 1431.87,-274.65 1481.17,-262.72"/>
<polygon fill="midnightblue" stroke="midnightblue" points="1324.5,-297.03 1315.6,-302.79 1326.14,-303.84 1324.5,-297.03"/>
</g>
<!-- Node15 -->
<g id="node15" class="node">
<title>Node15</title>
<g id="a_node15"><a xlink:href="../../d4/ddd/two__step__updated__lagrangian___v___p__implicit__nodally__integrated__fluid__element_8h.html" target="_top" xlink:title=" ">
<polygon fill="none" stroke="black" points="923,-200.5 923,-263.5 1183,-263.5 1183,-200.5 923,-200.5"/>
<text text-anchor="start" x="931" y="-251.5" font-family="Helvetica,sans-Serif" font-size="10.00">/home/runner/work/Documentation</text>
<text text-anchor="start" x="931" y="-240.5" font-family="Helvetica,sans-Serif" font-size="10.00">/Documentation/master/applications</text>
<text text-anchor="start" x="931" y="-229.5" font-family="Helvetica,sans-Serif" font-size="10.00">/PfemFluidDynamicsApplication/custom</text>
<text text-anchor="start" x="931" y="-218.5" font-family="Helvetica,sans-Serif" font-size="10.00">_elements/two_step_updated_lagrangian</text>
<text text-anchor="middle" x="1053" y="-207.5" font-family="Helvetica,sans-Serif" font-size="10.00">_V_P_implicit_nodally_integrated_fluid_element.h</text>
</a>
</g>
</g>
<!-- Node13&#45;&gt;Node15 -->
<g id="edge17" class="edge">
<title>Node13&#45;&gt;Node15</title>
<path fill="none" stroke="midnightblue" d="M1144.89,-294.68C1129.68,-284.47 1113.3,-273.47 1098.63,-263.63"/>
<polygon fill="midnightblue" stroke="midnightblue" points="1142.95,-297.59 1153.21,-300.26 1146.85,-291.78 1142.95,-297.59"/>
</g>
<!-- Node17 -->
<g id="node17" class="node">
<title>Node17</title>
<g id="a_node17"><a xlink:href="../../d0/dc2/two__step__updated__lagrangian___v___p__implicit__nodally__integrated__solid__element_8h.html" target="_top" xlink:title=" ">
<polygon fill="none" stroke="black" points="1201,-200.5 1201,-263.5 1463,-263.5 1463,-200.5 1201,-200.5"/>
<text text-anchor="start" x="1209" y="-251.5" font-family="Helvetica,sans-Serif" font-size="10.00">/home/runner/work/Documentation</text>
<text text-anchor="start" x="1209" y="-240.5" font-family="Helvetica,sans-Serif" font-size="10.00">/Documentation/master/applications</text>
<text text-anchor="start" x="1209" y="-229.5" font-family="Helvetica,sans-Serif" font-size="10.00">/PfemFluidDynamicsApplication/custom</text>
<text text-anchor="start" x="1209" y="-218.5" font-family="Helvetica,sans-Serif" font-size="10.00">_elements/two_step_updated_lagrangian</text>
<text text-anchor="middle" x="1332" y="-207.5" font-family="Helvetica,sans-Serif" font-size="10.00">_V_P_implicit_nodally_integrated_solid_element.h</text>
</a>
</g>
</g>
<!-- Node13&#45;&gt;Node17 -->
<g id="edge20" class="edge">
<title>Node13&#45;&gt;Node17</title>
<path fill="none" stroke="midnightblue" d="M1249.06,-294.11C1262.7,-284.06 1277.32,-273.29 1290.43,-263.63"/>
<polygon fill="midnightblue" stroke="midnightblue" points="1246.69,-291.51 1240.72,-300.26 1250.84,-297.15 1246.69,-291.51"/>
</g>
<!-- Node15&#45;&gt;Node8 -->
<g id="edge19" class="edge">
<title>Node15&#45;&gt;Node8</title>
<path fill="none" stroke="midnightblue" d="M986.06,-195.65C959.3,-181.52 929.1,-165.57 904.64,-152.66"/>
<polygon fill="midnightblue" stroke="midnightblue" points="984.51,-198.79 994.99,-200.37 987.78,-192.6 984.51,-198.79"/>
</g>
<!-- Node16 -->
<g id="node16" class="node">
<title>Node16</title>
<g id="a_node16"><a xlink:href="../../df/d73/two__step__updated__lagrangian___v___p__implicit__nodally__integrated__fluid__element_8cpp.html" target="_top" xlink:title=" ">
<polygon fill="none" stroke="black" points="975.5,-89.5 975.5,-163.5 1192.5,-163.5 1192.5,-89.5 975.5,-89.5"/>
<text text-anchor="start" x="983.5" y="-151.5" font-family="Helvetica,sans-Serif" font-size="10.00">/home/runner/work/Documentation</text>
<text text-anchor="start" x="983.5" y="-140.5" font-family="Helvetica,sans-Serif" font-size="10.00">/Documentation/master/applications</text>
<text text-anchor="start" x="983.5" y="-129.5" font-family="Helvetica,sans-Serif" font-size="10.00">/PfemFluidDynamicsApplication/custom</text>
<text text-anchor="start" x="983.5" y="-118.5" font-family="Helvetica,sans-Serif" font-size="10.00">_elements/two_step_updated_lagrangian</text>
<text text-anchor="start" x="983.5" y="-107.5" font-family="Helvetica,sans-Serif" font-size="10.00">_V_P_implicit_nodally_integrated_fluid</text>
<text text-anchor="middle" x="1084" y="-96.5" font-family="Helvetica,sans-Serif" font-size="10.00">_element.cpp</text>
</a>
</g>
</g>
<!-- Node15&#45;&gt;Node16 -->
<g id="edge18" class="edge">
<title>Node15&#45;&gt;Node16</title>
<path fill="none" stroke="midnightblue" d="M1065.12,-190.53C1067.76,-181.72 1070.54,-172.45 1073.13,-163.81"/>
<polygon fill="midnightblue" stroke="midnightblue" points="1061.73,-189.64 1062.22,-200.23 1068.44,-191.65 1061.73,-189.64"/>
</g>
<!-- Node17&#45;&gt;Node8 -->
<g id="edge22" class="edge">
<title>Node17&#45;&gt;Node8</title>
<path fill="none" stroke="midnightblue" d="M1190.93,-199.86C1090.3,-181.42 1061.7,-187.47 966,-164 952.92,-160.79 939.16,-156.74 925.98,-152.51"/>
<polygon fill="midnightblue" stroke="midnightblue" points="1190.42,-203.32 1200.89,-201.72 1191.71,-196.44 1190.42,-203.32"/>
</g>
<!-- Node18 -->
<g id="node18" class="node">
<title>Node18</title>
<g id="a_node18"><a xlink:href="../../d5/d1c/two__step__updated__lagrangian___v___p__implicit__nodally__integrated__solid__element_8cpp.html" target="_top" xlink:title=" ">
<polygon fill="none" stroke="black" points="1223.5,-89.5 1223.5,-163.5 1440.5,-163.5 1440.5,-89.5 1223.5,-89.5"/>
<text text-anchor="start" x="1231.5" y="-151.5" font-family="Helvetica,sans-Serif" font-size="10.00">/home/runner/work/Documentation</text>
<text text-anchor="start" x="1231.5" y="-140.5" font-family="Helvetica,sans-Serif" font-size="10.00">/Documentation/master/applications</text>
<text text-anchor="start" x="1231.5" y="-129.5" font-family="Helvetica,sans-Serif" font-size="10.00">/PfemFluidDynamicsApplication/custom</text>
<text text-anchor="start" x="1231.5" y="-118.5" font-family="Helvetica,sans-Serif" font-size="10.00">_elements/two_step_updated_lagrangian</text>
<text text-anchor="start" x="1231.5" y="-107.5" font-family="Helvetica,sans-Serif" font-size="10.00">_V_P_implicit_nodally_integrated_solid</text>
<text text-anchor="middle" x="1332" y="-96.5" font-family="Helvetica,sans-Serif" font-size="10.00">_element.cpp</text>
</a>
</g>
</g>
<!-- Node17&#45;&gt;Node18 -->
<g id="edge21" class="edge">
<title>Node17&#45;&gt;Node18</title>
<path fill="none" stroke="midnightblue" d="M1332,-189.96C1332,-181.32 1332,-172.26 1332,-163.81"/>
<polygon fill="midnightblue" stroke="midnightblue" points="1328.5,-190.23 1332,-200.23 1335.5,-190.23 1328.5,-190.23"/>
</g>
<!-- Node19&#45;&gt;Node8 -->
<g id="edge29" class="edge">
<title>Node19&#45;&gt;Node8</title>
<path fill="none" stroke="midnightblue" d="M1794.11,-292.24C1787.33,-283.09 1780.28,-273.3 1774,-264 1755.35,-236.4 1763.65,-216.99 1735,-200 1661.42,-156.38 1050.08,-179.73 966,-164 951.58,-161.3 936.46,-157.15 922.22,-152.59"/>
<polygon fill="midnightblue" stroke="midnightblue" points="1791.44,-294.51 1800.23,-300.42 1797.04,-290.31 1791.44,-294.51"/>
</g>
<!-- Node20 -->
<g id="node20" class="node">
<title>Node20</title>
<g id="a_node20"><a xlink:href="../../de/d33/two__step__updated__lagrangian___v___p__implicit__solid__element_8cpp.html" target="_top" xlink:title=" ">
<polygon fill="none" stroke="black" points="2022.5,-200.5 2022.5,-263.5 2239.5,-263.5 2239.5,-200.5 2022.5,-200.5"/>
<text text-anchor="start" x="2030.5" y="-251.5" font-family="Helvetica,sans-Serif" font-size="10.00">/home/runner/work/Documentation</text>
<text text-anchor="start" x="2030.5" y="-240.5" font-family="Helvetica,sans-Serif" font-size="10.00">/Documentation/master/applications</text>
<text text-anchor="start" x="2030.5" y="-229.5" font-family="Helvetica,sans-Serif" font-size="10.00">/PfemFluidDynamicsApplication/custom</text>
<text text-anchor="start" x="2030.5" y="-218.5" font-family="Helvetica,sans-Serif" font-size="10.00">_elements/two_step_updated_lagrangian</text>
<text text-anchor="middle" x="2131" y="-207.5" font-family="Helvetica,sans-Serif" font-size="10.00">_V_P_implicit_solid_element.cpp</text>
</a>
</g>
</g>
<!-- Node19&#45;&gt;Node20 -->
<g id="edge25" class="edge">
<title>Node19&#45;&gt;Node20</title>
<path fill="none" stroke="midnightblue" d="M1929.46,-297.33C1963.81,-286.37 2001.73,-274.26 2035.33,-263.54"/>
<polygon fill="midnightblue" stroke="midnightblue" points="1928.34,-294.02 1919.87,-300.4 1930.46,-300.69 1928.34,-294.02"/>
</g>
<!-- Node21 -->
<g id="node21" class="node">
<title>Node21</title>
<g id="a_node21"><a xlink:href="../../de/dbe/updated__lagrangian___v__implicit__solid__element_8h.html" target="_top" xlink:title=" ">
<polygon fill="none" stroke="black" points="1783.5,-200.5 1783.5,-263.5 2004.5,-263.5 2004.5,-200.5 1783.5,-200.5"/>
<text text-anchor="start" x="1791.5" y="-251.5" font-family="Helvetica,sans-Serif" font-size="10.00">/home/runner/work/Documentation</text>
<text text-anchor="start" x="1791.5" y="-240.5" font-family="Helvetica,sans-Serif" font-size="10.00">/Documentation/master/applications</text>
<text text-anchor="start" x="1791.5" y="-229.5" font-family="Helvetica,sans-Serif" font-size="10.00">/PfemFluidDynamicsApplication/custom</text>
<text text-anchor="start" x="1791.5" y="-218.5" font-family="Helvetica,sans-Serif" font-size="10.00">_elements/updated_lagrangian_V_implicit</text>
<text text-anchor="middle" x="1894" y="-207.5" font-family="Helvetica,sans-Serif" font-size="10.00">_solid_element.h</text>
</a>
</g>
</g>
<!-- Node19&#45;&gt;Node21 -->
<g id="edge26" class="edge">
<title>Node19&#45;&gt;Node21</title>
<path fill="none" stroke="midnightblue" d="M1851.78,-292.11C1858.54,-282.65 1865.68,-272.65 1872.12,-263.63"/>
<polygon fill="midnightblue" stroke="midnightblue" points="1848.92,-290.09 1845.96,-300.26 1854.62,-294.16 1848.92,-290.09"/>
</g>
<!-- Node21&#45;&gt;Node8 -->
<g id="edge28" class="edge">
<title>Node21&#45;&gt;Node8</title>
<path fill="none" stroke="midnightblue" d="M1773.48,-200.68C1771.98,-200.44 1770.49,-200.22 1769,-200 1415.45,-148.75 1317.22,-229.35 966,-164 951.48,-161.3 936.25,-157.11 921.93,-152.52"/>
<polygon fill="midnightblue" stroke="midnightblue" points="1773.03,-204.15 1783.47,-202.36 1774.19,-197.25 1773.03,-204.15"/>
</g>
<!-- Node22 -->
<g id="node22" class="node">
<title>Node22</title>
<g id="a_node22"><a xlink:href="../../db/d88/updated__lagrangian___v__implicit__solid__element_8cpp.html" target="_top" xlink:title=" ">
<polygon fill="none" stroke="black" points="1783.5,-95 1783.5,-158 2004.5,-158 2004.5,-95 1783.5,-95"/>
<text text-anchor="start" x="1791.5" y="-146" font-family="Helvetica,sans-Serif" font-size="10.00">/home/runner/work/Documentation</text>
<text text-anchor="start" x="1791.5" y="-135" font-family="Helvetica,sans-Serif" font-size="10.00">/Documentation/master/applications</text>
<text text-anchor="start" x="1791.5" y="-124" font-family="Helvetica,sans-Serif" font-size="10.00">/PfemFluidDynamicsApplication/custom</text>
<text text-anchor="start" x="1791.5" y="-113" font-family="Helvetica,sans-Serif" font-size="10.00">_elements/updated_lagrangian_V_implicit</text>
<text text-anchor="middle" x="1894" y="-102" font-family="Helvetica,sans-Serif" font-size="10.00">_solid_element.cpp</text>
</a>
</g>
</g>
<!-- Node21&#45;&gt;Node22 -->
<g id="edge27" class="edge">
<title>Node21&#45;&gt;Node22</title>
<path fill="none" stroke="midnightblue" d="M1894,-189.96C1894,-179.42 1894,-168.26 1894,-158.33"/>
<polygon fill="midnightblue" stroke="midnightblue" points="1890.5,-190.23 1894,-200.23 1897.5,-190.23 1890.5,-190.23"/>
</g>
</g>
</svg>
        <g id="navigator" transform="translate(0 0)" fill="#404254">
                <rect fill="#f2f5e9" fill-opacity="0.5" stroke="#606060" stroke-width=".5" x="0" y="0" width="60" height="60"/>
                <use id="zoomplus" xlink:href="#zoomPlus" x="17" y="9" onmousedown="handleZoom(evt,'in')"/>
                <use id="zoomminus" xlink:href="#zoomMin" x="42" y="9" onmousedown="handleZoom(evt,'out')"/>
                <use id="reset" xlink:href="#resetDef" x="30" y="36" onmousedown="handleReset()"/>
                <g id="arrowUp" xlink:href="#dirArrow" transform="translate(30 24)" onmousedown="handlePan(0,-1)">
                  <use xlink:href="#rim" fill="#404040">
                        <set attributeName="fill" to="#808080" begin="arrowUp.mouseover" end="arrowUp.mouseout"/>
                  </use>
                  <path fill="none" stroke="white" stroke-width="1.5" d="M0,-3.0v7 M-2.5,-0.5L0,-3.0L2.5,-0.5"/>
                </g>
                <g id="arrowRight" xlink:href="#dirArrow" transform="rotate(90) translate(36 -43)" onmousedown="handlePan(1,0)">
                  <use xlink:href="#rim" fill="#404040">
                        <set attributeName="fill" to="#808080" begin="arrowRight.mouseover" end="arrowRight.mouseout"/>
                  </use>
                  <path fill="none" stroke="white" stroke-width="1.5" d="M0,-3.0v7 M-2.5,-0.5L0,-3.0L2.5,-0.5"/>
                </g>
                <g id="arrowDown" xlink:href="#dirArrow" transform="rotate(180) translate(-30 -48)" onmousedown="handlePan(0,1)">
                  <use xlink:href="#rim" fill="#404040">
                        <set attributeName="fill" to="#808080" begin="arrowDown.mouseover" end="arrowDown.mouseout"/>
                  </use>
                  <path fill="none" stroke="white" stroke-width="1.5" d="M0,-3.0v7 M-2.5,-0.5L0,-3.0L2.5,-0.5"/>
                </g>
                <g id="arrowLeft" xlink:href="#dirArrow" transform="rotate(270) translate(-36 17)" onmousedown="handlePan(-1,0)">
                  <use xlink:href="#rim" fill="#404040">
                        <set attributeName="fill" to="#808080" begin="arrowLeft.mouseover" end="arrowLeft.mouseout"/>
                  </use>
                  <path fill="none" stroke="white" stroke-width="1.5" d="M0,-3.0v7 M-2.5,-0.5L0,-3.0L2.5,-0.5"/>
                </g>
        </g>
        <svg viewBox="0 0 15 15" width="100%" height="30px" preserveAspectRatio="xMaxYMin meet">
         <g id="arrow_out" transform="scale(0.3 0.3)">
          <a xlink:href="two__step__updated__lagrangian___v___p__implicit__element_8h__dep__incl_org.svg" target="_base">
           <rect id="button" ry="5" rx="5" y="6" x="6" height="38" width="38"
                fill="#f2f5e9" fill-opacity="0.5" stroke="#606060" stroke-width="1.0"/>
           <path id="arrow"
             d="M 11.500037,31.436501 C 11.940474,20.09759 22.043105,11.32322 32.158766,21.979434 L 37.068811,17.246167 C 37.068811,17.246167 37.088388,32 37.088388,32 L 22.160133,31.978069 C 22.160133,31.978069 26.997745,27.140456 26.997745,27.140456 C 18.528582,18.264221 13.291696,25.230495 11.500037,31.436501 z"
             style="fill:#404040;"/>
          </a>
         </g>
        </svg>
</svg>
