<?xml version="1.0" encoding="UTF-8" standalone="no"?>
<!DOCTYPE svg PUBLIC "-//W3C//DTD SVG 1.1//EN"
 "http://www.w3.org/Graphics/SVG/1.1/DTD/svg11.dtd">
<!-- Generated by graphviz version 2.43.0 (0)
 -->
<!-- Title: Sampling_Methods.Sampling_DCT Pages: 1 -->
<svg width="192pt" height="331pt"
 viewBox="0.00 0.00 192.00 331.00" xmlns="http://www.w3.org/2000/svg" xmlns:xlink="http://www.w3.org/1999/xlink">
<g id="graph0" class="graph" transform="scale(1 1) rotate(0) translate(4 327)">
<title>Sampling_Methods.Sampling_DCT</title>
<!-- Node1 -->
<g id="node1" class="node">
<title>Node1</title>
<g id="a_node1"><a xlink:title=" ">
<polygon fill="#bfbfbf" stroke="black" points="0,-0.5 0,-68.5 184,-68.5 184,-0.5 0,-0.5"/>
<text text-anchor="middle" x="92" y="-56.5" font-family="Helvetica,sans-Serif" font-size="10.00">Sampling_Methods.Sampling_DCT</text>
<polyline fill="none" stroke="black" points="0,-49.5 184,-49.5 "/>
<text text-anchor="middle" x="92" y="-37.5" font-family="Helvetica,sans-Serif" font-size="10.00"> </text>
<polyline fill="none" stroke="black" points="0,-30.5 184,-30.5 "/>
<text text-anchor="start" x="8" y="-18.5" font-family="Helvetica,sans-Serif" font-size="10.00">+ __init__()</text>
<text text-anchor="start" x="8" y="-7.5" font-family="Helvetica,sans-Serif" font-size="10.00">+ __call__()</text>
</a>
</g>
</g>
<!-- Node2 -->
<g id="node2" class="node">
<title>Node2</title>
<g id="a_node2"><a xlink:href="../../d9/d14/class_sampling___methods_1_1_sampling__method__freq.html" target="_top" xlink:title=" ">
<polygon fill="none" stroke="black" points="13,-105.5 13,-195.5 171,-195.5 171,-105.5 13,-105.5"/>
<text text-anchor="start" x="21" y="-183.5" font-family="Helvetica,sans-Serif" font-size="10.00">Sampling_Methods.Sampling</text>
<text text-anchor="middle" x="92" y="-172.5" font-family="Helvetica,sans-Serif" font-size="10.00">_method_freq</text>
<polyline fill="none" stroke="black" points="13,-165.5 171,-165.5 "/>
<text text-anchor="start" x="21" y="-153.5" font-family="Helvetica,sans-Serif" font-size="10.00">+ Frequences</text>
<text text-anchor="start" x="21" y="-142.5" font-family="Helvetica,sans-Serif" font-size="10.00">+ TransformNorm</text>
<text text-anchor="start" x="21" y="-131.5" font-family="Helvetica,sans-Serif" font-size="10.00">+ Spectrum</text>
<polyline fill="none" stroke="black" points="13,-124.5 171,-124.5 "/>
<text text-anchor="start" x="21" y="-112.5" font-family="Helvetica,sans-Serif" font-size="10.00">+ __init__()</text>
</a>
</g>
</g>
<!-- Node2&#45;&gt;Node1 -->
<g id="edge1" class="edge">
<title>Node2&#45;&gt;Node1</title>
<path fill="none" stroke="midnightblue" d="M92,-95.32C92,-86.28 92,-77.16 92,-68.85"/>
<polygon fill="none" stroke="midnightblue" points="88.5,-95.42 92,-105.42 95.5,-95.42 88.5,-95.42"/>
</g>
<!-- Node3 -->
<g id="node3" class="node">
<title>Node3</title>
<g id="a_node3"><a xlink:href="../../d3/da6/class_sampling___methods_1_1_sampling__method__base.html" target="_top" xlink:title=" ">
<polygon fill="none" stroke="black" points="13,-232.5 13,-322.5 171,-322.5 171,-232.5 13,-232.5"/>
<text text-anchor="start" x="21" y="-310.5" font-family="Helvetica,sans-Serif" font-size="10.00">Sampling_Methods.Sampling</text>
<text text-anchor="middle" x="92" y="-299.5" font-family="Helvetica,sans-Serif" font-size="10.00">_method_base</text>
<polyline fill="none" stroke="black" points="13,-292.5 171,-292.5 "/>
<text text-anchor="start" x="21" y="-280.5" font-family="Helvetica,sans-Serif" font-size="10.00">+ verbose</text>
<text text-anchor="start" x="21" y="-269.5" font-family="Helvetica,sans-Serif" font-size="10.00">+ ndim</text>
<text text-anchor="start" x="21" y="-258.5" font-family="Helvetica,sans-Serif" font-size="10.00">+ DomainSlice</text>
<polyline fill="none" stroke="black" points="13,-251.5 171,-251.5 "/>
<text text-anchor="start" x="21" y="-239.5" font-family="Helvetica,sans-Serif" font-size="10.00">+ __init__()</text>
</a>
</g>
</g>
<!-- Node3&#45;&gt;Node2 -->
<g id="edge2" class="edge">
<title>Node3&#45;&gt;Node2</title>
<path fill="none" stroke="midnightblue" d="M92,-222.16C92,-213.28 92,-204.18 92,-195.59"/>
<polygon fill="none" stroke="midnightblue" points="88.5,-222.43 92,-232.43 95.5,-222.43 88.5,-222.43"/>
</g>
</g>
</svg>
