<?xml version="1.0" encoding="UTF-8" standalone="no"?>
<!DOCTYPE svg PUBLIC "-//W3C//DTD SVG 1.1//EN"
 "http://www.w3.org/Graphics/SVG/1.1/DTD/svg11.dtd">
<!-- Generated by graphviz version 2.43.0 (0)
 -->
<!-- Title: /home/runner/work/Documentation/Documentation/master/kratos/expression/literal_expression.h Pages: 1 -->
<svg width="1238pt" height="139pt"
 viewBox="0.00 0.00 1238.00 139.00" xmlns="http://www.w3.org/2000/svg" xmlns:xlink="http://www.w3.org/1999/xlink">
<g id="graph0" class="graph" transform="scale(1 1) rotate(0) translate(4 135)">
<title>/home/runner/work/Documentation/Documentation/master/kratos/expression/literal_expression.h</title>
<!-- Node1 -->
<g id="node1" class="node">
<title>Node1</title>
<g id="a_node1"><a xlink:title=" ">
<polygon fill="#bfbfbf" stroke="black" points="523.5,-89.5 523.5,-130.5 710.5,-130.5 710.5,-89.5 523.5,-89.5"/>
<text text-anchor="start" x="531.5" y="-118.5" font-family="Helvetica,sans-Serif" font-size="10.00">/home/runner/work/Documentation</text>
<text text-anchor="start" x="531.5" y="-107.5" font-family="Helvetica,sans-Serif" font-size="10.00">/Documentation/master/kratos</text>
<text text-anchor="middle" x="617" y="-96.5" font-family="Helvetica,sans-Serif" font-size="10.00">/expression/literal_expression.h</text>
</a>
</g>
</g>
<!-- Node2 -->
<g id="node2" class="node">
<title>Node2</title>
<g id="a_node2"><a xlink:href="../../d5/d23/arithmetic__operators_8cpp.html" target="_top" xlink:title=" ">
<polygon fill="none" stroke="black" points="0,-6 0,-47 198,-47 198,-6 0,-6"/>
<text text-anchor="start" x="8" y="-35" font-family="Helvetica,sans-Serif" font-size="10.00">/home/runner/work/Documentation</text>
<text text-anchor="start" x="8" y="-24" font-family="Helvetica,sans-Serif" font-size="10.00">/Documentation/master/kratos</text>
<text text-anchor="middle" x="99" y="-13" font-family="Helvetica,sans-Serif" font-size="10.00">/expression/arithmetic_operators.cpp</text>
</a>
</g>
</g>
<!-- Node1&#45;&gt;Node2 -->
<g id="edge1" class="edge">
<title>Node1&#45;&gt;Node2</title>
<path fill="none" stroke="midnightblue" d="M513.41,-97.64C430.25,-87.86 310.67,-72.27 207,-53 197.53,-51.24 187.64,-49.19 177.85,-47.04"/>
<polygon fill="midnightblue" stroke="midnightblue" points="513.03,-101.12 523.37,-98.81 513.84,-94.17 513.03,-101.12"/>
</g>
<!-- Node3 -->
<g id="node3" class="node">
<title>Node3</title>
<g id="a_node3"><a xlink:href="../../da/d1f/expression__utils_8cpp.html" target="_top" xlink:title=" ">
<polygon fill="none" stroke="black" points="216.5,-6 216.5,-47 403.5,-47 403.5,-6 216.5,-6"/>
<text text-anchor="start" x="224.5" y="-35" font-family="Helvetica,sans-Serif" font-size="10.00">/home/runner/work/Documentation</text>
<text text-anchor="start" x="224.5" y="-24" font-family="Helvetica,sans-Serif" font-size="10.00">/Documentation/master/kratos</text>
<text text-anchor="middle" x="310" y="-13" font-family="Helvetica,sans-Serif" font-size="10.00">/expression/expression_utils.cpp</text>
</a>
</g>
</g>
<!-- Node1&#45;&gt;Node3 -->
<g id="edge2" class="edge">
<title>Node1&#45;&gt;Node3</title>
<path fill="none" stroke="midnightblue" d="M533.63,-86.87C486.72,-74.41 428.66,-59 383.47,-47"/>
<polygon fill="midnightblue" stroke="midnightblue" points="532.9,-90.3 543.47,-89.48 534.7,-83.53 532.9,-90.3"/>
</g>
<!-- Node4 -->
<g id="node4" class="node">
<title>Node4</title>
<g id="a_node4"><a xlink:href="../../dc/d81/literal__expression_8cpp.html" target="_top" xlink:title=" ">
<polygon fill="none" stroke="black" points="421.5,-6 421.5,-47 608.5,-47 608.5,-6 421.5,-6"/>
<text text-anchor="start" x="429.5" y="-35" font-family="Helvetica,sans-Serif" font-size="10.00">/home/runner/work/Documentation</text>
<text text-anchor="start" x="429.5" y="-24" font-family="Helvetica,sans-Serif" font-size="10.00">/Documentation/master/kratos</text>
<text text-anchor="middle" x="515" y="-13" font-family="Helvetica,sans-Serif" font-size="10.00">/expression/literal_expression.cpp</text>
</a>
</g>
</g>
<!-- Node1&#45;&gt;Node4 -->
<g id="edge3" class="edge">
<title>Node1&#45;&gt;Node4</title>
<path fill="none" stroke="midnightblue" d="M584.74,-83.22C570.13,-71.55 553.14,-57.97 539.59,-47.14"/>
<polygon fill="midnightblue" stroke="midnightblue" points="582.57,-85.97 592.57,-89.48 586.94,-80.5 582.57,-85.97"/>
</g>
<!-- Node5 -->
<g id="node5" class="node">
<title>Node5</title>
<g id="a_node5"><a xlink:href="../../db/d76/literal__expression__input_8cpp.html" target="_top" xlink:title=" ">
<polygon fill="none" stroke="black" points="626.5,-0.5 626.5,-52.5 813.5,-52.5 813.5,-0.5 626.5,-0.5"/>
<text text-anchor="start" x="634.5" y="-40.5" font-family="Helvetica,sans-Serif" font-size="10.00">/home/runner/work/Documentation</text>
<text text-anchor="start" x="634.5" y="-29.5" font-family="Helvetica,sans-Serif" font-size="10.00">/Documentation/master/kratos</text>
<text text-anchor="start" x="634.5" y="-18.5" font-family="Helvetica,sans-Serif" font-size="10.00">/expression/literal_expression</text>
<text text-anchor="middle" x="720" y="-7.5" font-family="Helvetica,sans-Serif" font-size="10.00">_input.cpp</text>
</a>
</g>
</g>
<!-- Node1&#45;&gt;Node5 -->
<g id="edge4" class="edge">
<title>Node1&#45;&gt;Node5</title>
<path fill="none" stroke="midnightblue" d="M649.85,-83.01C662.09,-73.32 675.96,-62.35 688.12,-52.73"/>
<polygon fill="midnightblue" stroke="midnightblue" points="647.34,-80.53 641.67,-89.48 651.68,-86.02 647.34,-80.53"/>
</g>
<!-- Node6 -->
<g id="node6" class="node">
<title>Node6</title>
<g id="a_node6"><a xlink:href="../../da/dae/add__expression__io__to__python_8cpp.html" target="_top" xlink:title=" ">
<polygon fill="none" stroke="black" points="831.5,-0.5 831.5,-52.5 1018.5,-52.5 1018.5,-0.5 831.5,-0.5"/>
<text text-anchor="start" x="839.5" y="-40.5" font-family="Helvetica,sans-Serif" font-size="10.00">/home/runner/work/Documentation</text>
<text text-anchor="start" x="839.5" y="-29.5" font-family="Helvetica,sans-Serif" font-size="10.00">/Documentation/master/kratos</text>
<text text-anchor="start" x="839.5" y="-18.5" font-family="Helvetica,sans-Serif" font-size="10.00">/python/add_expression_io_to</text>
<text text-anchor="middle" x="925" y="-7.5" font-family="Helvetica,sans-Serif" font-size="10.00">_python.cpp</text>
</a>
</g>
</g>
<!-- Node1&#45;&gt;Node6 -->
<g id="edge5" class="edge">
<title>Node1&#45;&gt;Node6</title>
<path fill="none" stroke="midnightblue" d="M700.6,-86.88C741.03,-76.18 789.71,-63.3 831.38,-52.27"/>
<polygon fill="midnightblue" stroke="midnightblue" points="699.55,-83.54 690.77,-89.48 701.34,-90.3 699.55,-83.54"/>
</g>
<!-- Node7 -->
<g id="node7" class="node">
<title>Node7</title>
<g id="a_node7"><a xlink:href="../../d0/d9d/mask__utils_8cpp.html" target="_top" xlink:title=" ">
<polygon fill="none" stroke="black" points="1036,-0.5 1036,-52.5 1230,-52.5 1230,-0.5 1036,-0.5"/>
<text text-anchor="start" x="1044" y="-40.5" font-family="Helvetica,sans-Serif" font-size="10.00">/home/runner/work/Documentation</text>
<text text-anchor="start" x="1044" y="-29.5" font-family="Helvetica,sans-Serif" font-size="10.00">/Documentation/master/applications</text>
<text text-anchor="start" x="1044" y="-18.5" font-family="Helvetica,sans-Serif" font-size="10.00">/SystemIdentificationApplication</text>
<text text-anchor="middle" x="1133" y="-7.5" font-family="Helvetica,sans-Serif" font-size="10.00">/custom_utilities/mask_utils.cpp</text>
</a>
</g>
</g>
<!-- Node1&#45;&gt;Node7 -->
<g id="edge6" class="edge">
<title>Node1&#45;&gt;Node7</title>
<path fill="none" stroke="midnightblue" d="M720.88,-97.84C804.26,-88.16 924.14,-72.63 1028,-53 1030.58,-52.51 1033.19,-52 1035.83,-51.47"/>
<polygon fill="midnightblue" stroke="midnightblue" points="720.43,-94.37 710.89,-98.99 721.23,-101.32 720.43,-94.37"/>
</g>
</g>
</svg>
