<?xml version="1.0" encoding="UTF-8" standalone="no"?>
<!DOCTYPE svg PUBLIC "-//W3C//DTD SVG 1.1//EN"
 "http://www.w3.org/Graphics/SVG/1.1/DTD/svg11.dtd">
<!-- Generated by graphviz version 2.43.0 (0)
 -->
<!-- Title: /home/runner/work/Documentation/Documentation/master/applications/FSIApplication/custom_utilities/FSI_utils.h Pages: 1 -->
<svg width="3516pt" height="967pt"
 viewBox="0.00 0.00 3516.00 967.00" xmlns="http://www.w3.org/2000/svg" xmlns:xlink="http://www.w3.org/1999/xlink">
<g id="graph0" class="graph" transform="scale(1 1) rotate(0) translate(4 963)">
<title>/home/runner/work/Documentation/Documentation/master/applications/FSIApplication/custom_utilities/FSI_utils.h</title>
<!-- Node1 -->
<g id="node1" class="node">
<title>Node1</title>
<g id="a_node1"><a xlink:title=" ">
<polygon fill="#bfbfbf" stroke="black" points="2375,-906.5 2375,-958.5 2569,-958.5 2569,-906.5 2375,-906.5"/>
<text text-anchor="start" x="2383" y="-946.5" font-family="Helvetica,sans-Serif" font-size="10.00">/home/runner/work/Documentation</text>
<text text-anchor="start" x="2383" y="-935.5" font-family="Helvetica,sans-Serif" font-size="10.00">/Documentation/master/applications</text>
<text text-anchor="start" x="2383" y="-924.5" font-family="Helvetica,sans-Serif" font-size="10.00">/FSIApplication/custom_utilities</text>
<text text-anchor="middle" x="2472" y="-913.5" font-family="Helvetica,sans-Serif" font-size="10.00">/FSI_utils.h</text>
</a>
</g>
</g>
<!-- Node2 -->
<g id="node2" class="node">
<title>Node2</title>
<g id="a_node2"><a xlink:href="../../dd/dfe/model__part_8h.html" target="_top" xlink:title=" ">
<polygon fill="none" stroke="black" points="1136.5,-850.5 1136.5,-869.5 1261.5,-869.5 1261.5,-850.5 1136.5,-850.5"/>
<text text-anchor="middle" x="1199" y="-857.5" font-family="Helvetica,sans-Serif" font-size="10.00">includes/model_part.h</text>
</a>
</g>
</g>
<!-- Node1&#45;&gt;Node2 -->
<g id="edge1" class="edge">
<title>Node1&#45;&gt;Node2</title>
<path fill="none" stroke="midnightblue" d="M2374.75,-926.11C2129.16,-912.51 1488.14,-877.01 1271.64,-865.02"/>
<polygon fill="midnightblue" stroke="midnightblue" points="1271.84,-861.53 1261.66,-864.47 1271.45,-868.52 1271.84,-861.53"/>
</g>
<!-- Node132 -->
<g id="node43" class="node">
<title>Node132</title>
<g id="a_node43"><a xlink:href="../../d0/d8e/cfd__variables_8h.html" target="_top" xlink:title=" ">
<polygon fill="none" stroke="black" points="1824,-554 1824,-573 1958,-573 1958,-554 1824,-554"/>
<text text-anchor="middle" x="1891" y="-561" font-family="Helvetica,sans-Serif" font-size="10.00">includes/cfd_variables.h</text>
</a>
</g>
</g>
<!-- Node1&#45;&gt;Node132 -->
<g id="edge153" class="edge">
<title>Node1&#45;&gt;Node132</title>
<path fill="none" stroke="midnightblue" d="M2431.4,-906.35C2377.18,-872.71 2278.19,-811.15 2194,-758 2088.39,-691.32 1962.75,-610.66 1912.92,-578.61"/>
<polygon fill="midnightblue" stroke="midnightblue" points="1914.56,-575.5 1904.26,-573.04 1910.78,-581.39 1914.56,-575.5"/>
</g>
<!-- Node96 -->
<g id="node44" class="node">
<title>Node96</title>
<g id="a_node44"><a xlink:href="../../d8/d88/math__utils_8h.html" target="_top" xlink:title=" ">
<polygon fill="none" stroke="black" points="2813.5,-364 2813.5,-383 2930.5,-383 2930.5,-364 2813.5,-364"/>
<text text-anchor="middle" x="2872" y="-371" font-family="Helvetica,sans-Serif" font-size="10.00">utilities/math_utils.h</text>
</a>
</g>
</g>
<!-- Node1&#45;&gt;Node96 -->
<g id="edge158" class="edge">
<title>Node1&#45;&gt;Node96</title>
<path fill="none" stroke="midnightblue" d="M2569.05,-927C2791.26,-915.4 3318,-880 3318,-805 3318,-805 3318,-805 3318,-747 3318,-535.93 3020.11,-421.06 2911.24,-386.13"/>
<polygon fill="midnightblue" stroke="midnightblue" points="2912.2,-382.76 2901.61,-383.09 2910.09,-389.43 2912.2,-382.76"/>
</g>
<!-- Node133 -->
<g id="node47" class="node">
<title>Node133</title>
<g id="a_node47"><a xlink:href="../../d4/dd0/fsi__application_8h.html" target="_top" xlink:title=" ">
<polygon fill="none" stroke="black" points="2628.5,-794.5 2628.5,-813.5 2725.5,-813.5 2725.5,-794.5 2628.5,-794.5"/>
<text text-anchor="middle" x="2677" y="-801.5" font-family="Helvetica,sans-Serif" font-size="10.00">fsi_application.h</text>
</a>
</g>
</g>
<!-- Node1&#45;&gt;Node133 -->
<g id="edge164" class="edge">
<title>Node1&#45;&gt;Node133</title>
<path fill="none" stroke="midnightblue" d="M2512.99,-906.2C2555.5,-879.97 2620.4,-839.92 2654.41,-818.94"/>
<polygon fill="midnightblue" stroke="midnightblue" points="2656.47,-821.78 2663.14,-813.55 2652.8,-815.82 2656.47,-821.78"/>
</g>
<!-- Node3 -->
<g id="node3" class="node">
<title>Node3</title>
<g id="a_node3"><a xlink:title=" ">
<polygon fill="none" stroke="#bfbfbf" points="2992,-6 2992,-25 3036,-25 3036,-6 2992,-6"/>
<text text-anchor="middle" x="3014" y="-13" font-family="Helvetica,sans-Serif" font-size="10.00">string</text>
</a>
</g>
</g>
<!-- Node2&#45;&gt;Node3 -->
<g id="edge2" class="edge">
<title>Node2&#45;&gt;Node3</title>
<path fill="none" stroke="midnightblue" d="M1261.85,-859.38C1542.54,-860.8 2683.13,-863.33 3037,-814 3285.45,-779.36 3508,-753.85 3508,-503 3508,-503 3508,-503 3508,-132 3508,-98.08 3496.65,-85.16 3468,-67 3397.77,-22.48 3137.97,-17.01 3046.29,-16.49"/>
<polygon fill="midnightblue" stroke="midnightblue" points="3046.23,-12.99 3036.21,-16.45 3046.2,-19.99 3046.23,-12.99"/>
</g>
<!-- Node4 -->
<g id="node4" class="node">
<title>Node4</title>
<g id="a_node4"><a xlink:title=" ">
<polygon fill="none" stroke="#bfbfbf" points="2224,-6 2224,-25 2284,-25 2284,-6 2224,-6"/>
<text text-anchor="middle" x="2254" y="-13" font-family="Helvetica,sans-Serif" font-size="10.00">iostream</text>
</a>
</g>
</g>
<!-- Node2&#45;&gt;Node4 -->
<g id="edge3" class="edge">
<title>Node2&#45;&gt;Node4</title>
<path fill="none" stroke="midnightblue" d="M1261.54,-858.98C1604.54,-858.48 3242,-850.76 3242,-749 3242,-749 3242,-749 3242,-501 3242,-309.88 3119.51,-279.58 2957,-179 2835.16,-103.59 2780.7,-141.07 2648,-87 2630.33,-79.8 2628.16,-72.87 2610,-67 2499.49,-31.27 2361.58,-20.8 2294.46,-17.75"/>
<polygon fill="midnightblue" stroke="midnightblue" points="2294.45,-14.24 2284.32,-17.32 2294.16,-21.24 2294.45,-14.24"/>
</g>
<!-- Node5 -->
<g id="node5" class="node">
<title>Node5</title>
<g id="a_node5"><a xlink:title=" ">
<polygon fill="none" stroke="#bfbfbf" points="291,-6 291,-25 347,-25 347,-6 291,-6"/>
<text text-anchor="middle" x="319" y="-13" font-family="Helvetica,sans-Serif" font-size="10.00">sstream</text>
</a>
</g>
</g>
<!-- Node2&#45;&gt;Node5 -->
<g id="edge4" class="edge">
<title>Node2&#45;&gt;Node5</title>
<path fill="none" stroke="midnightblue" d="M1136.25,-858.93C914.04,-858.34 172.58,-853.41 74,-814 33.35,-797.75 0,-792.77 0,-749 0,-749 0,-749 0,-132 0,-95.82 18.25,-86.06 49,-67 87.2,-43.32 215.54,-27.13 280.56,-20.24"/>
<polygon fill="midnightblue" stroke="midnightblue" points="281.22,-23.69 290.8,-19.18 280.49,-16.73 281.22,-23.69"/>
</g>
<!-- Node6 -->
<g id="node6" class="node">
<title>Node6</title>
<g id="a_node6"><a xlink:title=" ">
<polygon fill="none" stroke="#bfbfbf" points="218.5,-302.5 218.5,-321.5 271.5,-321.5 271.5,-302.5 218.5,-302.5"/>
<text text-anchor="middle" x="245" y="-309.5" font-family="Helvetica,sans-Serif" font-size="10.00">cstddef</text>
</a>
</g>
</g>
<!-- Node2&#45;&gt;Node6 -->
<g id="edge5" class="edge">
<title>Node2&#45;&gt;Node6</title>
<path fill="none" stroke="midnightblue" d="M1136.23,-858.34C923.37,-855.8 236.96,-845.28 143,-814 94.46,-797.84 48,-800.16 48,-749 48,-749 48,-749 48,-562.5 48,-451.34 169.94,-360.66 221.94,-327.03"/>
<polygon fill="midnightblue" stroke="midnightblue" points="223.94,-329.91 230.51,-321.6 220.19,-324 223.94,-329.91"/>
</g>
<!-- Node7 -->
<g id="node7" class="node">
<title>Node7</title>
<g id="a_node7"><a xlink:href="../../df/d67/define_8h.html" target="_top" xlink:title=" ">
<polygon fill="none" stroke="black" points="858.5,-123.5 858.5,-142.5 957.5,-142.5 957.5,-123.5 858.5,-123.5"/>
<text text-anchor="middle" x="908" y="-130.5" font-family="Helvetica,sans-Serif" font-size="10.00">includes/define.h</text>
</a>
</g>
</g>
<!-- Node2&#45;&gt;Node7 -->
<g id="edge6" class="edge">
<title>Node2&#45;&gt;Node7</title>
<path fill="none" stroke="midnightblue" d="M1136.31,-858.16C964.4,-855.45 494.17,-845.23 432,-814 402.97,-799.41 399.27,-787.19 385,-758 291.9,-567.53 397.04,-471.03 525,-302 569.45,-243.29 570.76,-213.15 636,-179 671.95,-160.18 779.59,-146.55 848.19,-139.49"/>
<polygon fill="midnightblue" stroke="midnightblue" points="848.83,-142.94 858.43,-138.46 848.13,-135.98 848.83,-142.94"/>
</g>
<!-- Node18 -->
<g id="node13" class="node">
<title>Node18</title>
<g id="a_node13"><a xlink:href="../../dd/d5f/serializer_8h.html" target="_top" xlink:title=" ">
<polygon fill="none" stroke="black" points="1488.5,-302.5 1488.5,-321.5 1601.5,-321.5 1601.5,-302.5 1488.5,-302.5"/>
<text text-anchor="middle" x="1545" y="-309.5" font-family="Helvetica,sans-Serif" font-size="10.00">includes/serializer.h</text>
</a>
</g>
</g>
<!-- Node2&#45;&gt;Node18 -->
<g id="edge19" class="edge">
<title>Node2&#45;&gt;Node18</title>
<path fill="none" stroke="midnightblue" d="M1261.6,-851.56C1359.06,-838.2 1536,-806.08 1536,-749 1536,-749 1536,-749 1536,-624 1536,-513.22 1541.78,-380.33 1544.07,-331.86"/>
<polygon fill="midnightblue" stroke="midnightblue" points="1547.58,-331.81 1544.57,-321.65 1540.59,-331.47 1547.58,-331.81"/>
</g>
<!-- Node25 -->
<g id="node20" class="node">
<title>Node25</title>
<g id="a_node20"><a xlink:href="../../d1/d8c/logger_8h.html" target="_top" xlink:title=" ">
<polygon fill="none" stroke="red" points="2586,-246.5 2586,-265.5 2706,-265.5 2706,-246.5 2586,-246.5"/>
<text text-anchor="middle" x="2646" y="-253.5" font-family="Helvetica,sans-Serif" font-size="10.00">input_output/logger.h</text>
</a>
</g>
</g>
<!-- Node2&#45;&gt;Node25 -->
<g id="edge145" class="edge">
<title>Node2&#45;&gt;Node25</title>
<path fill="none" stroke="midnightblue" d="M1261.76,-858.62C1483.29,-856.57 2227.12,-843.33 2447,-758 2568.54,-710.83 2592,-633.37 2592,-503 2592,-503 2592,-503 2592,-372.5 2592,-334.34 2616.48,-295.21 2632.48,-273.71"/>
<polygon fill="midnightblue" stroke="midnightblue" points="2635.38,-275.68 2638.72,-265.63 2629.83,-271.4 2635.38,-275.68"/>
</g>
<!-- Node56 -->
<g id="node25" class="node">
<title>Node56</title>
<g id="a_node25"><a xlink:href="../../de/db8/process__info_8h.html" target="_top" xlink:title=" ">
<polygon fill="none" stroke="black" points="577.5,-615.5 577.5,-634.5 708.5,-634.5 708.5,-615.5 577.5,-615.5"/>
<text text-anchor="middle" x="643" y="-622.5" font-family="Helvetica,sans-Serif" font-size="10.00">includes/process_info.h</text>
</a>
</g>
</g>
<!-- Node2&#45;&gt;Node56 -->
<g id="edge52" class="edge">
<title>Node2&#45;&gt;Node56</title>
<path fill="none" stroke="midnightblue" d="M1136.28,-857.08C981.24,-852 588.58,-837.02 534,-814 456.22,-781.2 355.24,-736.08 409,-671 428.86,-646.95 506.5,-635.62 566.97,-630.37"/>
<polygon fill="midnightblue" stroke="midnightblue" points="567.6,-633.83 577.27,-629.52 567.02,-626.85 567.6,-633.83"/>
</g>
<!-- Node57 -->
<g id="node26" class="node">
<title>Node57</title>
<g id="a_node26"><a xlink:href="../../d1/d82/data__value__container_8h.html" target="_top" xlink:title=" ">
<polygon fill="none" stroke="black" points="722.5,-548.5 722.5,-578.5 847.5,-578.5 847.5,-548.5 722.5,-548.5"/>
<text text-anchor="start" x="730.5" y="-566.5" font-family="Helvetica,sans-Serif" font-size="10.00">containers/data_value</text>
<text text-anchor="middle" x="785" y="-555.5" font-family="Helvetica,sans-Serif" font-size="10.00">_container.h</text>
</a>
</g>
</g>
<!-- Node2&#45;&gt;Node57 -->
<g id="edge83" class="edge">
<title>Node2&#45;&gt;Node57</title>
<path fill="none" stroke="midnightblue" d="M1136.22,-859.29C984.9,-859.31 603.68,-855.13 484,-814 442.26,-799.66 426.6,-794.64 402,-758 380.24,-725.6 366.88,-702.45 390,-671 427.96,-619.35 608.74,-587.59 712.08,-573.35"/>
<polygon fill="midnightblue" stroke="midnightblue" points="712.7,-576.8 722.14,-571.99 711.76,-569.86 712.7,-576.8"/>
</g>
<!-- Node58 -->
<g id="node27" class="node">
<title>Node58</title>
<g id="a_node27"><a xlink:href="../../da/d89/variable_8h.html" target="_top" xlink:title=" ">
<polygon fill="none" stroke="red" points="1791.5,-431 1791.5,-450 1910.5,-450 1910.5,-431 1791.5,-431"/>
<text text-anchor="middle" x="1851" y="-438" font-family="Helvetica,sans-Serif" font-size="10.00">containers/variable.h</text>
</a>
</g>
</g>
<!-- Node2&#45;&gt;Node58 -->
<g id="edge151" class="edge">
<title>Node2&#45;&gt;Node58</title>
<path fill="none" stroke="midnightblue" d="M1261.86,-858.46C1382.27,-856.65 1640.69,-848.69 1722,-814 1762.26,-796.82 1796,-792.77 1796,-749 1796,-749 1796,-749 1796,-562.5 1796,-522.34 1821.42,-480.87 1837.69,-458.42"/>
<polygon fill="midnightblue" stroke="midnightblue" points="1840.6,-460.38 1843.81,-450.28 1835,-456.17 1840.6,-460.38"/>
</g>
<!-- Node73 -->
<g id="node28" class="node">
<title>Node73</title>
<g id="a_node28"><a xlink:href="../../d3/dc3/variable__data_8h.html" target="_top" xlink:title=" ">
<polygon fill="none" stroke="red" points="1626,-364 1626,-383 1718,-383 1718,-364 1626,-364"/>
<text text-anchor="middle" x="1672" y="-371" font-family="Helvetica,sans-Serif" font-size="10.00">variable_data.h</text>
</a>
</g>
</g>
<!-- Node2&#45;&gt;Node73 -->
<g id="edge152" class="edge">
<title>Node2&#45;&gt;Node73</title>
<path fill="none" stroke="midnightblue" d="M1261.84,-855.97C1348.88,-850.93 1500.93,-838.82 1550,-814 1585.63,-795.98 1612,-788.92 1612,-749 1612,-749 1612,-749 1612,-624 1612,-535.26 1648.33,-433.55 1664.45,-392.79"/>
<polygon fill="midnightblue" stroke="midnightblue" points="1667.75,-393.96 1668.25,-383.38 1661.26,-391.34 1667.75,-393.96"/>
</g>
<!-- Node82 -->
<g id="node30" class="node">
<title>Node82</title>
<g id="a_node30"><a xlink:href="../../d8/d3b/mesh_8h.html" target="_top" xlink:title=" ">
<polygon fill="none" stroke="red" points="828,-738.5 828,-757.5 924,-757.5 924,-738.5 828,-738.5"/>
<text text-anchor="middle" x="876" y="-745.5" font-family="Helvetica,sans-Serif" font-size="10.00">includes/mesh.h</text>
</a>
</g>
</g>
<!-- Node2&#45;&gt;Node82 -->
<g id="edge84" class="edge">
<title>Node2&#45;&gt;Node82</title>
<path fill="none" stroke="midnightblue" d="M1173.92,-850.46C1116.68,-830.97 976.3,-783.16 910.76,-760.84"/>
<polygon fill="midnightblue" stroke="midnightblue" points="911.88,-757.52 901.28,-757.61 909.62,-764.15 911.88,-757.52"/>
</g>
<!-- Node86 -->
<g id="node32" class="node">
<title>Node86</title>
<g id="a_node32"><a xlink:href="../../d2/d58/pointer__vector__map_8h.html" target="_top" xlink:title=" ">
<polygon fill="none" stroke="red" points="332.5,-358.5 332.5,-388.5 437.5,-388.5 437.5,-358.5 332.5,-358.5"/>
<text text-anchor="start" x="340.5" y="-376.5" font-family="Helvetica,sans-Serif" font-size="10.00">containers/pointer</text>
<text text-anchor="middle" x="385" y="-365.5" font-family="Helvetica,sans-Serif" font-size="10.00">_vector_map.h</text>
</a>
</g>
</g>
<!-- Node2&#45;&gt;Node86 -->
<g id="edge143" class="edge">
<title>Node2&#45;&gt;Node86</title>
<path fill="none" stroke="midnightblue" d="M1136.36,-858.92C928.86,-858.29 272.19,-853.18 186,-814 149.66,-797.48 124,-788.92 124,-749 124,-749 124,-749 124,-501 124,-413.17 245.16,-386.3 322.38,-378.09"/>
<polygon fill="midnightblue" stroke="midnightblue" points="322.89,-381.56 332.5,-377.1 322.2,-374.59 322.89,-381.56"/>
</g>
<!-- Node98 -->
<g id="node34" class="node">
<title>Node98</title>
<g id="a_node34"><a xlink:href="../../da/da4/master__slave__constraint_8h.html" target="_top" xlink:title=" ">
<polygon fill="none" stroke="red" points="1344,-671.5 1344,-701.5 1470,-701.5 1470,-671.5 1344,-671.5"/>
<text text-anchor="start" x="1352" y="-689.5" font-family="Helvetica,sans-Serif" font-size="10.00">includes/master_slave</text>
<text text-anchor="middle" x="1407" y="-678.5" font-family="Helvetica,sans-Serif" font-size="10.00">_constraint.h</text>
</a>
</g>
</g>
<!-- Node2&#45;&gt;Node98 -->
<g id="edge150" class="edge">
<title>Node2&#45;&gt;Node98</title>
<path fill="none" stroke="midnightblue" d="M1210.83,-850.41C1234.11,-833.37 1287.36,-793.85 1330,-758 1349.02,-742.01 1369.75,-722.93 1384.91,-708.65"/>
<polygon fill="midnightblue" stroke="midnightblue" points="1387.43,-711.08 1392.29,-701.66 1382.62,-706 1387.43,-711.08"/>
</g>
<!-- Node109 -->
<g id="node35" class="node">
<title>Node109</title>
<g id="a_node35"><a xlink:href="../../d3/dad/geometry__container_8h.html" target="_top" xlink:title=" ">
<polygon fill="none" stroke="black" points="931,-425.5 931,-455.5 1049,-455.5 1049,-425.5 931,-425.5"/>
<text text-anchor="start" x="939" y="-443.5" font-family="Helvetica,sans-Serif" font-size="10.00">containers/geometry</text>
<text text-anchor="middle" x="990" y="-432.5" font-family="Helvetica,sans-Serif" font-size="10.00">_container.h</text>
</a>
</g>
</g>
<!-- Node2&#45;&gt;Node109 -->
<g id="edge117" class="edge">
<title>Node2&#45;&gt;Node109</title>
<path fill="none" stroke="midnightblue" d="M1196.44,-850.25C1191.25,-831.74 1180,-787.18 1180,-749 1180,-749 1180,-749 1180,-685.5 1180,-583.28 1074.9,-498.14 1021.03,-461.22"/>
<polygon fill="midnightblue" stroke="midnightblue" points="1022.79,-458.18 1012.54,-455.5 1018.89,-463.99 1022.79,-458.18"/>
</g>
<!-- Node110 -->
<g id="node36" class="node">
<title>Node110</title>
<g id="a_node36"><a xlink:href="../../da/d92/pointer__hash__map__set_8h.html" target="_top" xlink:title=" ">
<polygon fill="none" stroke="red" points="1059.5,-358.5 1059.5,-388.5 1164.5,-388.5 1164.5,-358.5 1059.5,-358.5"/>
<text text-anchor="start" x="1067.5" y="-376.5" font-family="Helvetica,sans-Serif" font-size="10.00">containers/pointer</text>
<text text-anchor="middle" x="1112" y="-365.5" font-family="Helvetica,sans-Serif" font-size="10.00">_hash_map_set.h</text>
</a>
</g>
</g>
<!-- Node2&#45;&gt;Node110 -->
<g id="edge144" class="edge">
<title>Node2&#45;&gt;Node110</title>
<path fill="none" stroke="midnightblue" d="M1201.56,-850.25C1206.75,-831.74 1218,-787.18 1218,-749 1218,-749 1218,-749 1218,-685.5 1218,-572.43 1154.45,-448 1125.76,-397.59"/>
<polygon fill="midnightblue" stroke="midnightblue" points="1128.71,-395.7 1120.67,-388.79 1122.65,-399.2 1128.71,-395.7"/>
</g>
<!-- Node112 -->
<g id="node38" class="node">
<title>Node112</title>
<g id="a_node38"><a xlink:href="../../d4/dfe/element_8h.html" target="_top" xlink:title=" ">
<polygon fill="none" stroke="red" points="588,-677 588,-696 698,-696 698,-677 588,-677"/>
<text text-anchor="middle" x="643" y="-684" font-family="Helvetica,sans-Serif" font-size="10.00">includes/element.h</text>
</a>
</g>
</g>
<!-- Node2&#45;&gt;Node112 -->
<g id="edge124" class="edge">
<title>Node2&#45;&gt;Node112</title>
<path fill="none" stroke="midnightblue" d="M1158.47,-850.48C1118.89,-841.96 1057.05,-828.13 1004,-814 920.99,-791.88 900.06,-786.44 819,-758 766.7,-739.65 707.06,-714.94 672.36,-700.17"/>
<polygon fill="midnightblue" stroke="midnightblue" points="673.42,-696.82 662.84,-696.11 670.67,-703.26 673.42,-696.82"/>
</g>
<!-- Node130 -->
<g id="node39" class="node">
<title>Node130</title>
<g id="a_node39"><a xlink:href="../../d7/d6c/condition_8h.html" target="_top" xlink:title=" ">
<polygon fill="none" stroke="red" points="418,-677 418,-696 532,-696 532,-677 418,-677"/>
<text text-anchor="middle" x="475" y="-684" font-family="Helvetica,sans-Serif" font-size="10.00">includes/condition.h</text>
</a>
</g>
</g>
<!-- Node2&#45;&gt;Node130 -->
<g id="edge126" class="edge">
<title>Node2&#45;&gt;Node130</title>
<path fill="none" stroke="midnightblue" d="M1136.4,-857.57C986.16,-853.72 613.98,-841.5 565,-814 521.65,-789.66 494.05,-734.73 482.01,-705.92"/>
<polygon fill="midnightblue" stroke="midnightblue" points="485.11,-704.27 478.15,-696.28 478.61,-706.86 485.11,-704.27"/>
</g>
<!-- Node131 -->
<g id="node40" class="node">
<title>Node131</title>
<g id="a_node40"><a xlink:href="../../d8/d75/communicator_8h.html" target="_top" xlink:title=" ">
<polygon fill="none" stroke="black" points="573.5,-794.5 573.5,-813.5 712.5,-813.5 712.5,-794.5 573.5,-794.5"/>
<text text-anchor="middle" x="643" y="-801.5" font-family="Helvetica,sans-Serif" font-size="10.00">includes/communicator.h</text>
</a>
</g>
</g>
<!-- Node2&#45;&gt;Node131 -->
<g id="edge128" class="edge">
<title>Node2&#45;&gt;Node131</title>
<path fill="none" stroke="midnightblue" d="M1136.3,-852.91C1034.81,-843.05 834.7,-823.62 723.06,-812.78"/>
<polygon fill="midnightblue" stroke="midnightblue" points="723.16,-809.27 712.87,-811.79 722.48,-816.24 723.16,-809.27"/>
</g>
<!-- Node115 -->
<g id="node41" class="node">
<title>Node115</title>
<g id="a_node41"><a xlink:href="../../dd/d98/table_8h.html" target="_top" xlink:title=" ">
<polygon fill="none" stroke="black" points="2213,-492.5 2213,-511.5 2307,-511.5 2307,-492.5 2213,-492.5"/>
<text text-anchor="middle" x="2260" y="-499.5" font-family="Helvetica,sans-Serif" font-size="10.00">includes/table.h</text>
</a>
</g>
</g>
<!-- Node2&#45;&gt;Node115 -->
<g id="edge137" class="edge">
<title>Node2&#45;&gt;Node115</title>
<path fill="none" stroke="midnightblue" d="M1261.57,-857.58C1524.21,-850.78 2524,-816.45 2524,-687.5 2524,-687.5 2524,-687.5 2524,-624 2524,-533.77 2394.98,-510.56 2317.33,-504.76"/>
<polygon fill="midnightblue" stroke="midnightblue" points="2317.41,-501.26 2307.2,-504.08 2316.94,-508.25 2317.41,-501.26"/>
</g>
<!-- Node108 -->
<g id="node42" class="node">
<title>Node108</title>
<g id="a_node42"><a xlink:href="../../d0/dac/kratos__flags_8h.html" target="_top" xlink:title=" ">
<polygon fill="none" stroke="black" points="1640,-554 1640,-573 1768,-573 1768,-554 1640,-554"/>
<text text-anchor="middle" x="1704" y="-561" font-family="Helvetica,sans-Serif" font-size="10.00">includes/kratos_flags.h</text>
</a>
</g>
</g>
<!-- Node2&#45;&gt;Node108 -->
<g id="edge146" class="edge">
<title>Node2&#45;&gt;Node108</title>
<path fill="none" stroke="midnightblue" d="M1261.77,-859.72C1407.8,-859.7 1758,-849.21 1758,-749 1758,-749 1758,-749 1758,-685.5 1758,-645.27 1732.79,-603.53 1716.82,-581.12"/>
<polygon fill="midnightblue" stroke="midnightblue" points="1719.59,-578.98 1710.84,-573.02 1713.96,-583.14 1719.59,-578.98"/>
</g>
<!-- Node7&#45;&gt;Node5 -->
<g id="edge8" class="edge">
<title>Node7&#45;&gt;Node5</title>
<path fill="none" stroke="midnightblue" d="M858.44,-129.99C754.12,-125.32 515.15,-112.15 438,-87 399.5,-74.45 360.09,-47.85 337.67,-31.15"/>
<polygon fill="midnightblue" stroke="midnightblue" points="339.77,-28.34 329.69,-25.08 335.53,-33.91 339.77,-28.34"/>
</g>
<!-- Node8 -->
<g id="node8" class="node">
<title>Node8</title>
<g id="a_node8"><a xlink:title=" ">
<polygon fill="none" stroke="#bfbfbf" points="812.5,-6 812.5,-25 877.5,-25 877.5,-6 812.5,-6"/>
<text text-anchor="middle" x="845" y="-13" font-family="Helvetica,sans-Serif" font-size="10.00">stdexcept</text>
</a>
</g>
</g>
<!-- Node7&#45;&gt;Node8 -->
<g id="edge7" class="edge">
<title>Node7&#45;&gt;Node8</title>
<path fill="none" stroke="midnightblue" d="M885.21,-123.47C869.67,-116.32 850.29,-104.44 841,-87 832.46,-70.98 835.14,-49.91 838.91,-34.99"/>
<polygon fill="midnightblue" stroke="midnightblue" points="842.28,-35.95 841.71,-25.37 835.56,-33.99 842.28,-35.95"/>
</g>
<!-- Node9 -->
<g id="node9" class="node">
<title>Node9</title>
<g id="a_node9"><a xlink:href="../../dc/d25/kratos__export__api_8h.html" target="_top" xlink:title=" ">
<polygon fill="none" stroke="black" points="944,-0.5 944,-30.5 1072,-30.5 1072,-0.5 944,-0.5"/>
<text text-anchor="start" x="952" y="-18.5" font-family="Helvetica,sans-Serif" font-size="10.00">includes/kratos_export</text>
<text text-anchor="middle" x="1008" y="-7.5" font-family="Helvetica,sans-Serif" font-size="10.00">_api.h</text>
</a>
</g>
</g>
<!-- Node7&#45;&gt;Node9 -->
<g id="edge9" class="edge">
<title>Node7&#45;&gt;Node9</title>
<path fill="none" stroke="midnightblue" d="M926.53,-123.4C941.52,-115.66 962.31,-103.05 976,-87 987.51,-73.5 995.66,-55.19 1000.85,-40.61"/>
<polygon fill="midnightblue" stroke="midnightblue" points="1004.29,-41.37 1004.11,-30.77 997.64,-39.16 1004.29,-41.37"/>
</g>
<!-- Node10 -->
<g id="node10" class="node">
<title>Node10</title>
<g id="a_node10"><a xlink:href="../../d9/dc0/smart__pointers_8h.html" target="_top" xlink:title=" ">
<polygon fill="none" stroke="red" points="1298.5,-67.5 1298.5,-86.5 1441.5,-86.5 1441.5,-67.5 1298.5,-67.5"/>
<text text-anchor="middle" x="1370" y="-74.5" font-family="Helvetica,sans-Serif" font-size="10.00">includes/smart_pointers.h</text>
</a>
</g>
</g>
<!-- Node7&#45;&gt;Node10 -->
<g id="edge10" class="edge">
<title>Node7&#45;&gt;Node10</title>
<path fill="none" stroke="midnightblue" d="M957.88,-126.17C1037.12,-116.91 1192.57,-98.74 1288.26,-87.55"/>
<polygon fill="midnightblue" stroke="midnightblue" points="1288.95,-91 1298.48,-86.36 1288.14,-84.04 1288.95,-91"/>
</g>
<!-- Node14 -->
<g id="node11" class="node">
<title>Node14</title>
<g id="a_node11"><a xlink:href="../../dd/d2d/exception_8h.html" target="_top" xlink:title=" ">
<polygon fill="none" stroke="red" points="849.5,-67.5 849.5,-86.5 966.5,-86.5 966.5,-67.5 849.5,-67.5"/>
<text text-anchor="middle" x="908" y="-74.5" font-family="Helvetica,sans-Serif" font-size="10.00">includes/exception.h</text>
</a>
</g>
</g>
<!-- Node7&#45;&gt;Node14 -->
<g id="edge12" class="edge">
<title>Node7&#45;&gt;Node14</title>
<path fill="none" stroke="midnightblue" d="M908,-123.08C908,-116.01 908,-105.86 908,-96.99"/>
<polygon fill="midnightblue" stroke="midnightblue" points="911.5,-96.75 908,-86.75 904.5,-96.75 911.5,-96.75"/>
</g>
<!-- Node10&#45;&gt;Node4 -->
<g id="edge11" class="edge">
<title>Node10&#45;&gt;Node4</title>
<path fill="none" stroke="midnightblue" d="M1441.59,-71.18C1619.06,-59.24 2074.92,-28.55 2213.46,-19.23"/>
<polygon fill="midnightblue" stroke="midnightblue" points="2213.89,-22.71 2223.63,-18.54 2213.42,-15.72 2213.89,-22.71"/>
</g>
<!-- Node14&#45;&gt;Node3 -->
<g id="edge14" class="edge">
<title>Node14&#45;&gt;Node3</title>
<path fill="none" stroke="midnightblue" d="M966.52,-74.35C1278.95,-65.52 2744.87,-24.1 2981.66,-17.41"/>
<polygon fill="midnightblue" stroke="midnightblue" points="2982.1,-20.9 2992,-17.12 2981.91,-13.91 2982.1,-20.9"/>
</g>
<!-- Node14&#45;&gt;Node4 -->
<g id="edge15" class="edge">
<title>Node14&#45;&gt;Node4</title>
<path fill="none" stroke="midnightblue" d="M966.53,-68.35C971.42,-67.84 976.29,-67.38 981,-67 1465.34,-27.61 2055.95,-18.63 2213.69,-16.88"/>
<polygon fill="midnightblue" stroke="midnightblue" points="2213.91,-20.38 2223.87,-16.77 2213.84,-13.38 2213.91,-20.38"/>
</g>
<!-- Node14&#45;&gt;Node5 -->
<g id="edge16" class="edge">
<title>Node14&#45;&gt;Node5</title>
<path fill="none" stroke="midnightblue" d="M849.37,-70.08C729.09,-57.93 457.31,-30.47 357.07,-20.35"/>
<polygon fill="midnightblue" stroke="midnightblue" points="357.39,-16.86 347.09,-19.34 356.68,-23.82 357.39,-16.86"/>
</g>
<!-- Node14&#45;&gt;Node8 -->
<g id="edge13" class="edge">
<title>Node14&#45;&gt;Node8</title>
<path fill="none" stroke="midnightblue" d="M898.97,-67.48C889.24,-58.28 873.54,-43.46 861.58,-32.16"/>
<polygon fill="midnightblue" stroke="midnightblue" points="863.68,-29.33 854.01,-25.01 858.88,-34.42 863.68,-29.33"/>
</g>
<!-- Node14&#45;&gt;Node9 -->
<g id="edge18" class="edge">
<title>Node14&#45;&gt;Node9</title>
<path fill="none" stroke="midnightblue" d="M922.33,-67.48C936.12,-59.27 957.48,-46.56 975.42,-35.88"/>
<polygon fill="midnightblue" stroke="midnightblue" points="977.63,-38.64 984.43,-30.52 974.05,-32.63 977.63,-38.64"/>
</g>
<!-- Node15 -->
<g id="node12" class="node">
<title>Node15</title>
<g id="a_node12"><a xlink:title=" ">
<polygon fill="none" stroke="#bfbfbf" points="542.5,-6 542.5,-25 589.5,-25 589.5,-6 542.5,-6"/>
<text text-anchor="middle" x="566" y="-13" font-family="Helvetica,sans-Serif" font-size="10.00">vector</text>
</a>
</g>
</g>
<!-- Node14&#45;&gt;Node15 -->
<g id="edge17" class="edge">
<title>Node14&#45;&gt;Node15</title>
<path fill="none" stroke="midnightblue" d="M859,-67.48C788.61,-55.23 660.66,-32.97 599.85,-22.39"/>
<polygon fill="midnightblue" stroke="midnightblue" points="600.1,-18.88 589.65,-20.61 598.9,-25.78 600.1,-18.88"/>
</g>
<!-- Node18&#45;&gt;Node3 -->
<g id="edge22" class="edge">
<title>Node18&#45;&gt;Node3</title>
<path fill="none" stroke="midnightblue" d="M1601.69,-305.16C1669.9,-297.77 1787.77,-283.82 1888,-266 2284.5,-195.51 2378.43,-152.36 2772,-67 2847.1,-50.71 2935.53,-32.5 2981.91,-23.03"/>
<polygon fill="midnightblue" stroke="midnightblue" points="2982.85,-26.41 2991.95,-20.98 2981.46,-19.55 2982.85,-26.41"/>
</g>
<!-- Node18&#45;&gt;Node4 -->
<g id="edge26" class="edge">
<title>Node18&#45;&gt;Node4</title>
<path fill="none" stroke="midnightblue" d="M1601.66,-303.48C1693.4,-291.25 1864.52,-268.19 1867,-266 1891.33,-244.52 1886,-227.95 1886,-195.5 1886,-195.5 1886,-195.5 1886,-132 1886,-92.08 1912.7,-85.66 1948,-67 1993.48,-42.96 2141.58,-26.67 2213.74,-19.96"/>
<polygon fill="midnightblue" stroke="midnightblue" points="2214.18,-23.43 2223.82,-19.03 2213.54,-16.46 2214.18,-23.43"/>
</g>
<!-- Node18&#45;&gt;Node5 -->
<g id="edge24" class="edge">
<title>Node18&#45;&gt;Node5</title>
<path fill="none" stroke="midnightblue" d="M1543.57,-302.3C1539.07,-277.92 1522.69,-208.8 1478,-179 1389.38,-119.9 1101.44,-175.5 1000,-143 983.67,-137.77 983.26,-128.46 967,-123 819.17,-73.38 771.76,-112.95 618,-87 523.19,-71 413.63,-42.57 357.12,-27.16"/>
<polygon fill="midnightblue" stroke="midnightblue" points="357.77,-23.7 347.2,-24.43 355.92,-30.46 357.77,-23.7"/>
</g>
<!-- Node18&#45;&gt;Node7 -->
<g id="edge29" class="edge">
<title>Node18&#45;&gt;Node7</title>
<path fill="none" stroke="midnightblue" d="M1534.88,-302.4C1525.17,-293.82 1510.49,-279.95 1500,-266 1473.46,-230.7 1489.16,-202.86 1452,-179 1361.99,-121.21 1078.35,-154.45 972,-143 970.54,-142.84 969.05,-142.68 967.56,-142.51"/>
<polygon fill="midnightblue" stroke="midnightblue" points="967.92,-139.02 957.57,-141.29 967.08,-145.97 967.92,-139.02"/>
</g>
<!-- Node19 -->
<g id="node14" class="node">
<title>Node19</title>
<g id="a_node14"><a xlink:title=" ">
<polygon fill="none" stroke="#bfbfbf" points="2104,-246.5 2104,-265.5 2142,-265.5 2142,-246.5 2104,-246.5"/>
<text text-anchor="middle" x="2123" y="-253.5" font-family="Helvetica,sans-Serif" font-size="10.00">map</text>
</a>
</g>
</g>
<!-- Node18&#45;&gt;Node19 -->
<g id="edge20" class="edge">
<title>Node18&#45;&gt;Node19</title>
<path fill="none" stroke="midnightblue" d="M1601.74,-305.7C1722.68,-294.4 2002.27,-268.28 2093.57,-259.75"/>
<polygon fill="midnightblue" stroke="midnightblue" points="2094.12,-263.21 2103.75,-258.8 2093.47,-256.24 2094.12,-263.21"/>
</g>
<!-- Node20 -->
<g id="node15" class="node">
<title>Node20</title>
<g id="a_node15"><a xlink:title=" ">
<polygon fill="none" stroke="#bfbfbf" points="1580,-246.5 1580,-265.5 1612,-265.5 1612,-246.5 1580,-246.5"/>
<text text-anchor="middle" x="1596" y="-253.5" font-family="Helvetica,sans-Serif" font-size="10.00">set</text>
</a>
</g>
</g>
<!-- Node18&#45;&gt;Node20 -->
<g id="edge21" class="edge">
<title>Node18&#45;&gt;Node20</title>
<path fill="none" stroke="midnightblue" d="M1553.42,-302.08C1560.85,-294.22 1571.85,-282.57 1580.81,-273.08"/>
<polygon fill="midnightblue" stroke="midnightblue" points="1583.41,-275.42 1587.74,-265.75 1578.32,-270.62 1583.41,-275.42"/>
</g>
<!-- Node21 -->
<g id="node16" class="node">
<title>Node21</title>
<g id="a_node16"><a xlink:title=" ">
<polygon fill="none" stroke="#bfbfbf" points="1630,-246.5 1630,-265.5 1680,-265.5 1680,-246.5 1630,-246.5"/>
<text text-anchor="middle" x="1655" y="-253.5" font-family="Helvetica,sans-Serif" font-size="10.00">cstring</text>
</a>
</g>
</g>
<!-- Node18&#45;&gt;Node21 -->
<g id="edge23" class="edge">
<title>Node18&#45;&gt;Node21</title>
<path fill="none" stroke="midnightblue" d="M1562.67,-302.32C1580.39,-293.62 1607.9,-280.12 1628.29,-270.11"/>
<polygon fill="midnightblue" stroke="midnightblue" points="1629.94,-273.2 1637.37,-265.65 1626.85,-266.92 1629.94,-273.2"/>
</g>
<!-- Node22 -->
<g id="node17" class="node">
<title>Node22</title>
<g id="a_node17"><a xlink:title=" ">
<polygon fill="none" stroke="#bfbfbf" points="1698.5,-246.5 1698.5,-265.5 1753.5,-265.5 1753.5,-246.5 1698.5,-246.5"/>
<text text-anchor="middle" x="1726" y="-253.5" font-family="Helvetica,sans-Serif" font-size="10.00">fstream</text>
</a>
</g>
</g>
<!-- Node18&#45;&gt;Node22 -->
<g id="edge25" class="edge">
<title>Node18&#45;&gt;Node22</title>
<path fill="none" stroke="midnightblue" d="M1573.68,-302.44C1604.8,-293.16 1654.6,-278.3 1688.73,-268.12"/>
<polygon fill="midnightblue" stroke="midnightblue" points="1689.76,-271.46 1698.34,-265.25 1687.76,-264.76 1689.76,-271.46"/>
</g>
<!-- Node23 -->
<g id="node18" class="node">
<title>Node23</title>
<g id="a_node18"><a xlink:title=" ">
<polygon fill="none" stroke="#bfbfbf" points="1202.5,-246.5 1202.5,-265.5 1295.5,-265.5 1295.5,-246.5 1202.5,-246.5"/>
<text text-anchor="middle" x="1249" y="-253.5" font-family="Helvetica,sans-Serif" font-size="10.00">unordered_map</text>
</a>
</g>
</g>
<!-- Node18&#45;&gt;Node23 -->
<g id="edge27" class="edge">
<title>Node18&#45;&gt;Node23</title>
<path fill="none" stroke="midnightblue" d="M1498.1,-302.44C1445.92,-292.92 1361.63,-277.55 1305.77,-267.36"/>
<polygon fill="midnightblue" stroke="midnightblue" points="1306.15,-263.87 1295.68,-265.52 1304.89,-270.75 1306.15,-263.87"/>
</g>
<!-- Node24 -->
<g id="node19" class="node">
<title>Node24</title>
<g id="a_node19"><a xlink:title=" ">
<polygon fill="none" stroke="#bfbfbf" points="1772,-246.5 1772,-265.5 1858,-265.5 1858,-246.5 1772,-246.5"/>
<text text-anchor="middle" x="1815" y="-253.5" font-family="Helvetica,sans-Serif" font-size="10.00">unordered_set</text>
</a>
</g>
</g>
<!-- Node18&#45;&gt;Node24 -->
<g id="edge28" class="edge">
<title>Node18&#45;&gt;Node24</title>
<path fill="none" stroke="midnightblue" d="M1587.78,-302.44C1635.18,-292.96 1711.63,-277.67 1762.58,-267.48"/>
<polygon fill="midnightblue" stroke="midnightblue" points="1763.3,-270.91 1772.42,-265.52 1761.93,-264.05 1763.3,-270.91"/>
</g>
<!-- Node18&#45;&gt;Node25 -->
<g id="edge30" class="edge">
<title>Node18&#45;&gt;Node25</title>
<path fill="none" stroke="midnightblue" d="M1601.67,-308.23C1745.59,-301.18 2136.88,-282.01 2463,-266 2500.14,-264.18 2541.52,-262.14 2575.53,-260.47"/>
<polygon fill="midnightblue" stroke="midnightblue" points="2576.02,-263.95 2585.83,-259.96 2575.67,-256.96 2576.02,-263.95"/>
</g>
<!-- Node29 -->
<g id="node21" class="node">
<title>Node29</title>
<g id="a_node21"><a xlink:href="../../d9/da0/flags_8h.html" target="_top" xlink:title=" ">
<polygon fill="none" stroke="black" points="2350.5,-246.5 2350.5,-265.5 2453.5,-265.5 2453.5,-246.5 2350.5,-246.5"/>
<text text-anchor="middle" x="2402" y="-253.5" font-family="Helvetica,sans-Serif" font-size="10.00">containers/flags.h</text>
</a>
</g>
</g>
<!-- Node18&#45;&gt;Node29 -->
<g id="edge34" class="edge">
<title>Node18&#45;&gt;Node29</title>
<path fill="none" stroke="midnightblue" d="M1601.56,-307.44C1755.36,-297.75 2180.32,-270.97 2340.15,-260.9"/>
<polygon fill="midnightblue" stroke="midnightblue" points="2340.53,-264.38 2350.29,-260.26 2340.09,-257.39 2340.53,-264.38"/>
</g>
<!-- Node30 -->
<g id="node22" class="node">
<title>Node30</title>
<g id="a_node22"><a xlink:href="../../d9/d36/array__1d_8h.html" target="_top" xlink:title=" ">
<polygon fill="none" stroke="red" points="2724,-246.5 2724,-265.5 2846,-265.5 2846,-246.5 2724,-246.5"/>
<text text-anchor="middle" x="2785" y="-253.5" font-family="Helvetica,sans-Serif" font-size="10.00">containers/array_1d.h</text>
</a>
</g>
</g>
<!-- Node18&#45;&gt;Node30 -->
<g id="edge38" class="edge">
<title>Node18&#45;&gt;Node30</title>
<path fill="none" stroke="midnightblue" d="M1601.73,-310.61C1769.81,-309.09 2280.02,-301.7 2713.72,-266.02"/>
<polygon fill="midnightblue" stroke="midnightblue" points="2714.27,-269.49 2723.95,-265.18 2713.7,-262.51 2714.27,-269.49"/>
</g>
<!-- Node52 -->
<g id="node24" class="node">
<title>Node52</title>
<g id="a_node24"><a xlink:href="../../d5/d10/weak__pointer__vector_8h.html" target="_top" xlink:title=" ">
<polygon fill="none" stroke="red" points="1618.5,-179.5 1618.5,-209.5 1755.5,-209.5 1755.5,-179.5 1618.5,-179.5"/>
<text text-anchor="start" x="1626.5" y="-197.5" font-family="Helvetica,sans-Serif" font-size="10.00">containers/weak_pointer</text>
<text text-anchor="middle" x="1687" y="-186.5" font-family="Helvetica,sans-Serif" font-size="10.00">_vector.h</text>
</a>
</g>
</g>
<!-- Node18&#45;&gt;Node52 -->
<g id="edge46" class="edge">
<title>Node18&#45;&gt;Node52</title>
<path fill="none" stroke="midnightblue" d="M1546.32,-302.28C1548.81,-288.61 1555.43,-262.05 1571,-246 1585.13,-231.44 1604.17,-220.81 1622.74,-213.17"/>
<polygon fill="midnightblue" stroke="midnightblue" points="1624.02,-216.43 1632.08,-209.55 1621.49,-209.9 1624.02,-216.43"/>
</g>
<!-- Node25&#45;&gt;Node3 -->
<g id="edge31" class="edge">
<title>Node25&#45;&gt;Node3</title>
<path fill="none" stroke="midnightblue" d="M2658.21,-246.5C2697.09,-219.49 2821.78,-133.52 2928,-67 2948.68,-54.05 2972.65,-40.06 2990.02,-30.09"/>
<polygon fill="midnightblue" stroke="midnightblue" points="2991.98,-33 2998.93,-25 2988.51,-26.92 2991.98,-33"/>
</g>
<!-- Node25&#45;&gt;Node4 -->
<g id="edge32" class="edge">
<title>Node25&#45;&gt;Node4</title>
<path fill="none" stroke="midnightblue" d="M2638.52,-246.36C2609.31,-212.81 2502.32,-91.77 2458,-67 2405.92,-37.9 2337.14,-25.37 2294.24,-20.11"/>
<polygon fill="midnightblue" stroke="midnightblue" points="2294.52,-16.62 2284.19,-18.96 2293.72,-23.58 2294.52,-16.62"/>
</g>
<!-- Node25&#45;&gt;Node14 -->
<g id="edge33" class="edge">
<title>Node25&#45;&gt;Node14</title>
<path fill="none" stroke="midnightblue" d="M2585.92,-248.88C2321.05,-221.91 1258.27,-113.67 976.73,-85"/>
<polygon fill="midnightblue" stroke="midnightblue" points="976.96,-81.5 966.65,-83.97 976.25,-88.47 976.96,-81.5"/>
</g>
<!-- Node29&#45;&gt;Node3 -->
<g id="edge35" class="edge">
<title>Node29&#45;&gt;Node3</title>
<path fill="none" stroke="midnightblue" d="M2424.74,-246.36C2489.46,-221.74 2680.2,-149 2838,-87 2889.03,-66.95 2948.16,-43.15 2983.25,-28.96"/>
<polygon fill="midnightblue" stroke="midnightblue" points="2984.95,-32.05 2992.9,-25.05 2982.32,-25.56 2984.95,-32.05"/>
</g>
<!-- Node29&#45;&gt;Node4 -->
<g id="edge36" class="edge">
<title>Node29&#45;&gt;Node4</title>
<path fill="none" stroke="midnightblue" d="M2373.57,-246.47C2354.79,-239.48 2330.97,-227.79 2316,-210 2304.36,-196.16 2271.58,-80.3 2259,-34.77"/>
<polygon fill="midnightblue" stroke="midnightblue" points="2262.35,-33.75 2256.32,-25.04 2255.6,-35.61 2262.35,-33.75"/>
</g>
<!-- Node29&#45;&gt;Node7 -->
<g id="edge37" class="edge">
<title>Node29&#45;&gt;Node7</title>
<path fill="none" stroke="midnightblue" d="M2350.34,-253.05C2169.93,-246.13 1576.74,-222.53 1538,-210 1513.84,-202.19 1514.07,-187.09 1490,-179 1388.6,-144.93 1116.61,-151.7 1010,-143 996.24,-141.88 981.44,-140.61 967.51,-139.38"/>
<polygon fill="midnightblue" stroke="midnightblue" points="967.8,-135.9 957.53,-138.5 967.19,-142.87 967.8,-135.9"/>
</g>
<!-- Node30&#45;&gt;Node3 -->
<g id="edge39" class="edge">
<title>Node30&#45;&gt;Node3</title>
<path fill="none" stroke="midnightblue" d="M2783.81,-246.17C2782.24,-231.05 2781.13,-199.82 2795,-179 2812.67,-152.48 2830.74,-161.05 2857,-143 2910.33,-106.35 2968.51,-56.66 2996.73,-31.88"/>
<polygon fill="midnightblue" stroke="midnightblue" points="2999.3,-34.27 3004.48,-25.03 2994.67,-29.03 2999.3,-34.27"/>
</g>
<!-- Node30&#45;&gt;Node4 -->
<g id="edge40" class="edge">
<title>Node30&#45;&gt;Node4</title>
<path fill="none" stroke="midnightblue" d="M2767.34,-246.46C2731.41,-228.84 2647.63,-186.41 2582,-143 2536.32,-112.79 2534.55,-90.32 2485,-67 2422.33,-37.5 2341.91,-24.95 2294.38,-19.82"/>
<polygon fill="midnightblue" stroke="midnightblue" points="2294.48,-16.31 2284.18,-18.78 2293.77,-23.28 2294.48,-16.31"/>
</g>
<!-- Node30&#45;&gt;Node7 -->
<g id="edge41" class="edge">
<title>Node30&#45;&gt;Node7</title>
<path fill="none" stroke="midnightblue" d="M2723.95,-246.8C2720.93,-246.51 2717.93,-246.24 2715,-246 2470.1,-226.31 1850.93,-258.09 1610,-210 1571.79,-202.37 1566.06,-187.33 1528,-179 1302.56,-129.67 1240.06,-161.14 1010,-143 996.24,-141.91 981.44,-140.66 967.5,-139.44"/>
<polygon fill="midnightblue" stroke="midnightblue" points="967.8,-135.95 957.53,-138.56 967.18,-142.92 967.8,-135.95"/>
</g>
<!-- Node34 -->
<g id="node23" class="node">
<title>Node34</title>
<g id="a_node23"><a xlink:href="../../d9/d3e/ublas__interface_8h.html" target="_top" xlink:title=" ">
<polygon fill="none" stroke="red" points="2804,-185 2804,-204 2948,-204 2948,-185 2804,-185"/>
<text text-anchor="middle" x="2876" y="-192" font-family="Helvetica,sans-Serif" font-size="10.00">includes/ublas_interface.h</text>
</a>
</g>
</g>
<!-- Node30&#45;&gt;Node34 -->
<g id="edge42" class="edge">
<title>Node30&#45;&gt;Node34</title>
<path fill="none" stroke="midnightblue" d="M2798.04,-246.48C2812.77,-236.84 2836.97,-221.02 2854.51,-209.55"/>
<polygon fill="midnightblue" stroke="midnightblue" points="2856.53,-212.41 2862.99,-204.01 2852.7,-206.55 2856.53,-212.41"/>
</g>
<!-- Node34&#45;&gt;Node3 -->
<g id="edge43" class="edge">
<title>Node34&#45;&gt;Node3</title>
<path fill="none" stroke="midnightblue" d="M2892.32,-184.87C2907.89,-176 2931.24,-160.97 2947,-143 2976.39,-109.48 2997.49,-60.83 3007.48,-34.71"/>
<polygon fill="midnightblue" stroke="midnightblue" points="3010.89,-35.59 3011.08,-25 3004.32,-33.16 3010.89,-35.59"/>
</g>
<!-- Node34&#45;&gt;Node4 -->
<g id="edge44" class="edge">
<title>Node34&#45;&gt;Node4</title>
<path fill="none" stroke="midnightblue" d="M2855.42,-184.94C2811.95,-166.87 2707.55,-123.45 2620,-87 2598.66,-78.12 2594.24,-73.3 2572,-67 2474.39,-39.34 2355.34,-25.52 2294.32,-19.81"/>
<polygon fill="midnightblue" stroke="midnightblue" points="2294.6,-16.32 2284.33,-18.9 2293.97,-23.3 2294.6,-16.32"/>
</g>
<!-- Node34&#45;&gt;Node7 -->
<g id="edge45" class="edge">
<title>Node34&#45;&gt;Node7</title>
<path fill="none" stroke="midnightblue" d="M2803.92,-191.32C2491.19,-181.87 1254.79,-144.48 967.74,-135.81"/>
<polygon fill="midnightblue" stroke="midnightblue" points="967.64,-132.3 957.54,-135.5 967.43,-139.3 967.64,-132.3"/>
</g>
<!-- Node52&#45;&gt;Node3 -->
<g id="edge47" class="edge">
<title>Node52&#45;&gt;Node3</title>
<path fill="none" stroke="midnightblue" d="M1753.25,-179.4C1877.78,-153.4 2155.55,-97.74 2392,-67 2616.78,-37.78 2889.59,-22.59 2981.79,-18.02"/>
<polygon fill="midnightblue" stroke="midnightblue" points="2982.07,-21.51 2991.88,-17.52 2981.72,-14.51 2982.07,-21.51"/>
</g>
<!-- Node52&#45;&gt;Node4 -->
<g id="edge48" class="edge">
<title>Node52&#45;&gt;Node4</title>
<path fill="none" stroke="midnightblue" d="M1691.55,-179.44C1701.15,-152.32 1726.27,-93.17 1770,-67 1844.48,-22.43 2111.21,-16.87 2213.59,-16.42"/>
<polygon fill="midnightblue" stroke="midnightblue" points="2213.84,-19.92 2223.83,-16.39 2213.82,-12.92 2213.84,-19.92"/>
</g>
<!-- Node52&#45;&gt;Node5 -->
<g id="edge49" class="edge">
<title>Node52&#45;&gt;Node5</title>
<path fill="none" stroke="midnightblue" d="M1618.24,-180.91C1613.43,-180.21 1608.65,-179.56 1604,-179 1370.05,-150.68 1307.48,-181.54 1075,-143 1040.97,-137.36 1033.8,-129.91 1000,-123 889.58,-100.44 860.39,-104.12 749,-87 604.03,-64.72 432.01,-35.75 357.06,-23"/>
<polygon fill="midnightblue" stroke="midnightblue" points="357.59,-19.54 347.14,-21.31 356.41,-26.44 357.59,-19.54"/>
</g>
<!-- Node52&#45;&gt;Node7 -->
<g id="edge51" class="edge">
<title>Node52&#45;&gt;Node7</title>
<path fill="none" stroke="midnightblue" d="M1618.28,-184.6C1601.22,-182.58 1582.96,-180.56 1566,-179 1319.42,-156.26 1256.91,-161.88 1010,-143 996.24,-141.95 981.44,-140.71 967.5,-139.49"/>
<polygon fill="midnightblue" stroke="midnightblue" points="967.8,-136 957.53,-138.6 967.18,-142.97 967.8,-136"/>
</g>
<!-- Node52&#45;&gt;Node15 -->
<g id="edge50" class="edge">
<title>Node52&#45;&gt;Node15</title>
<path fill="none" stroke="midnightblue" d="M1618.2,-181.19C1613.4,-180.42 1608.63,-179.68 1604,-179 1266.09,-129.15 1176.71,-149.99 841,-87 752.85,-70.46 651.08,-41.81 599.58,-26.63"/>
<polygon fill="midnightblue" stroke="midnightblue" points="600.26,-23.18 589.67,-23.69 598.27,-29.89 600.26,-23.18"/>
</g>
<!-- Node56&#45;&gt;Node3 -->
<g id="edge53" class="edge">
<title>Node56&#45;&gt;Node3</title>
<path fill="none" stroke="midnightblue" d="M708.74,-623.44C1042.05,-620.48 2537.57,-605.81 2743,-579 3018.94,-542.98 3280,-535.29 3280,-257 3280,-257 3280,-257 3280,-132 3280,-31.2 3117.29,-17.42 3046.38,-16.2"/>
<polygon fill="midnightblue" stroke="midnightblue" points="3046.25,-12.7 3036.22,-16.11 3046.19,-19.7 3046.25,-12.7"/>
</g>
<!-- Node56&#45;&gt;Node4 -->
<g id="edge54" class="edge">
<title>Node56&#45;&gt;Node4</title>
<path fill="none" stroke="midnightblue" d="M691.4,-615.47C735.02,-607.39 800.75,-594.25 857,-579 1065.49,-522.46 1111.05,-486.93 1318,-425 1343.55,-417.35 1755.94,-307.65 1782,-302 1902.43,-275.87 2038,-318.73 2038,-195.5 2038,-195.5 2038,-195.5 2038,-132 2038,-53.21 2151.15,-27.97 2213.66,-20.03"/>
<polygon fill="midnightblue" stroke="midnightblue" points="2214.44,-23.47 2223.97,-18.82 2213.63,-16.51 2214.44,-23.47"/>
</g>
<!-- Node56&#45;&gt;Node5 -->
<g id="edge55" class="edge">
<title>Node56&#45;&gt;Node5</title>
<path fill="none" stroke="midnightblue" d="M610.31,-615.46C583,-607.72 543.43,-595.07 511,-579 467.1,-557.24 366.17,-486.72 328,-456 294.45,-429 286.22,-421.53 258,-389 214.76,-339.15 190,-322.99 190,-257 190,-257 190,-257 190,-132 190,-80.32 248.19,-45.96 286.4,-28.97"/>
<polygon fill="midnightblue" stroke="midnightblue" points="287.82,-32.17 295.64,-25.02 285.07,-25.73 287.82,-32.17"/>
</g>
<!-- Node56&#45;&gt;Node6 -->
<g id="edge56" class="edge">
<title>Node56&#45;&gt;Node6</title>
<path fill="none" stroke="midnightblue" d="M627.93,-615.33C596.12,-596.93 519.98,-552.36 458,-512 438.01,-498.98 297.5,-407.14 282,-389 267.3,-371.79 256.88,-347.74 250.92,-331.33"/>
<polygon fill="midnightblue" stroke="midnightblue" points="254.21,-330.12 247.65,-321.8 247.59,-332.39 254.21,-330.12"/>
</g>
<!-- Node56&#45;&gt;Node7 -->
<g id="edge57" class="edge">
<title>Node56&#45;&gt;Node7</title>
<path fill="none" stroke="midnightblue" d="M639.93,-615.32C633.26,-595.62 618,-545.9 618,-503 618,-503 618,-503 618,-439.5 618,-315.64 621.73,-258.15 717,-179 753.6,-148.59 807.11,-137.97 848.19,-134.59"/>
<polygon fill="midnightblue" stroke="midnightblue" points="848.62,-138.07 858.35,-133.89 848.13,-131.09 848.62,-138.07"/>
</g>
<!-- Node56&#45;&gt;Node29 -->
<g id="edge82" class="edge">
<title>Node56&#45;&gt;Node29</title>
<path fill="none" stroke="midnightblue" d="M708.82,-619.9C788.33,-614.18 925.89,-601.85 1042,-579 1288.13,-530.56 1338.82,-473.2 1585,-425 1727.62,-397.08 1774.04,-440.34 1910,-389 1972.98,-365.22 1971.15,-326.14 2034,-302 2061.89,-291.29 2242.92,-272.44 2340.27,-262.9"/>
<polygon fill="midnightblue" stroke="midnightblue" points="2340.66,-266.37 2350.28,-261.92 2339.98,-259.41 2340.66,-266.37"/>
</g>
<!-- Node56&#45;&gt;Node57 -->
<g id="edge58" class="edge">
<title>Node56&#45;&gt;Node57</title>
<path fill="none" stroke="midnightblue" d="M663.35,-615.48C683.84,-606.89 716.07,-593.38 742.21,-582.43"/>
<polygon fill="midnightblue" stroke="midnightblue" points="743.66,-585.62 751.53,-578.52 740.96,-579.16 743.66,-585.62"/>
</g>
<!-- Node57&#45;&gt;Node3 -->
<g id="edge59" class="edge">
<title>Node57&#45;&gt;Node3</title>
<path fill="none" stroke="midnightblue" d="M847.52,-561.68C1116.82,-557.97 2170.73,-541.66 2316,-512 2544.85,-465.27 2597.3,-426.9 2806,-322 2816.31,-316.82 2973.55,-218.82 2981,-210 3023.65,-159.48 3027.19,-132.91 3022,-67 3021.16,-56.31 3019.33,-44.47 3017.64,-34.95"/>
<polygon fill="midnightblue" stroke="midnightblue" points="3021.06,-34.21 3015.77,-25.03 3014.18,-35.5 3021.06,-34.21"/>
</g>
<!-- Node57&#45;&gt;Node4 -->
<g id="edge60" class="edge">
<title>Node57&#45;&gt;Node4</title>
<path fill="none" stroke="midnightblue" d="M832.77,-548.48C928.6,-520.13 1150.88,-453.21 1335,-389 1371.4,-376.31 1378.75,-367.92 1416,-358 1515.98,-331.36 1544.48,-342 1646,-322 1683.65,-314.58 1692.46,-309.97 1730,-302 1856.19,-275.23 2000,-324.5 2000,-195.5 2000,-195.5 2000,-195.5 2000,-132 2000,-101.2 2000.78,-87.23 2024,-67 2051.92,-42.68 2155.46,-27.5 2213.65,-20.69"/>
<polygon fill="midnightblue" stroke="midnightblue" points="2214.07,-24.17 2223.61,-19.56 2213.28,-17.21 2214.07,-24.17"/>
</g>
<!-- Node57&#45;&gt;Node6 -->
<g id="edge61" class="edge">
<title>Node57&#45;&gt;Node6</title>
<path fill="none" stroke="midnightblue" d="M722.47,-562.72C660.23,-560.51 563.61,-550.36 490,-512 441.78,-486.88 448.66,-456.01 404,-425 371.98,-402.76 356.3,-410.84 324,-389 298.49,-371.75 273.67,-345.95 258.86,-329.29"/>
<polygon fill="midnightblue" stroke="midnightblue" points="261.28,-326.75 252.07,-321.51 256,-331.35 261.28,-326.75"/>
</g>
<!-- Node57&#45;&gt;Node7 -->
<g id="edge63" class="edge">
<title>Node57&#45;&gt;Node7</title>
<path fill="none" stroke="midnightblue" d="M782.7,-548.46C772.89,-486.72 736.99,-239.72 780,-179 795.63,-156.94 822.97,-145.62 848.38,-139.83"/>
<polygon fill="midnightblue" stroke="midnightblue" points="849.26,-143.23 858.36,-137.81 847.87,-136.37 849.26,-143.23"/>
</g>
<!-- Node57&#45;&gt;Node14 -->
<g id="edge81" class="edge">
<title>Node57&#45;&gt;Node14</title>
<path fill="none" stroke="midnightblue" d="M766.62,-548.27C696.81,-493.87 452,-300.05 452,-257 452,-257 452,-257 452,-193.5 452,-114.58 711.89,-88.99 839.27,-81.19"/>
<polygon fill="midnightblue" stroke="midnightblue" points="839.54,-84.68 849.32,-80.6 839.13,-77.69 839.54,-84.68"/>
</g>
<!-- Node57&#45;&gt;Node15 -->
<g id="edge62" class="edge">
<title>Node57&#45;&gt;Node15</title>
<path fill="none" stroke="midnightblue" d="M753.64,-548.42C680.49,-513.43 500.73,-414.53 448,-266 434.98,-229.32 425.26,-215.78 438,-179 459.93,-115.73 517.82,-58.41 547.65,-31.95"/>
<polygon fill="midnightblue" stroke="midnightblue" points="550.02,-34.53 555.27,-25.32 545.43,-29.24 550.02,-34.53"/>
</g>
<!-- Node57&#45;&gt;Node58 -->
<g id="edge64" class="edge">
<title>Node57&#45;&gt;Node58</title>
<path fill="none" stroke="midnightblue" d="M847.7,-555.38C1034.37,-534.19 1585.62,-471.62 1781.2,-449.42"/>
<polygon fill="midnightblue" stroke="midnightblue" points="1781.81,-452.88 1791.35,-448.27 1781.02,-445.92 1781.81,-452.88"/>
</g>
<!-- Node75 -->
<g id="node29" class="node">
<title>Node75</title>
<g id="a_node29"><a xlink:href="../../dc/d8e/kratos__components_8h.html" target="_top" xlink:title=" ">
<polygon fill="none" stroke="red" points="1941.5,-492.5 1941.5,-511.5 2106.5,-511.5 2106.5,-492.5 1941.5,-492.5"/>
<text text-anchor="middle" x="2024" y="-499.5" font-family="Helvetica,sans-Serif" font-size="10.00">includes/kratos_components.h</text>
</a>
</g>
</g>
<!-- Node57&#45;&gt;Node75 -->
<g id="edge74" class="edge">
<title>Node57&#45;&gt;Node75</title>
<path fill="none" stroke="midnightblue" d="M847.72,-559.49C1050.67,-549.74 1690.33,-519.02 1931.11,-507.46"/>
<polygon fill="midnightblue" stroke="midnightblue" points="1931.42,-510.95 1941.24,-506.97 1931.08,-503.96 1931.42,-510.95"/>
</g>
<!-- Node58&#45;&gt;Node3 -->
<g id="edge65" class="edge">
<title>Node58&#45;&gt;Node3</title>
<path fill="none" stroke="midnightblue" d="M1910.73,-438.2C2123.99,-433.35 2840.49,-415.26 2940,-389 3038.72,-362.95 3128,-359.09 3128,-257 3128,-257 3128,-257 3128,-132 3128,-83.2 3075.81,-47.56 3042.05,-29.61"/>
<polygon fill="midnightblue" stroke="midnightblue" points="3043.58,-26.46 3033.08,-25.02 3040.39,-32.69 3043.58,-26.46"/>
</g>
<!-- Node58&#45;&gt;Node4 -->
<g id="edge66" class="edge">
<title>Node58&#45;&gt;Node4</title>
<path fill="none" stroke="midnightblue" d="M1910.65,-432.57C1959.2,-425.55 2028.81,-412.31 2086,-389 2153.14,-361.63 2156.04,-327.27 2224,-302 2274.34,-283.28 2427.96,-306.71 2463,-266 2498.19,-225.12 2429.46,-242.21 2392,-210 2360.07,-182.54 2291.34,-75.87 2264.78,-33.75"/>
<polygon fill="midnightblue" stroke="midnightblue" points="2267.66,-31.75 2259.38,-25.15 2261.73,-35.48 2267.66,-31.75"/>
</g>
<!-- Node58&#45;&gt;Node7 -->
<g id="edge67" class="edge">
<title>Node58&#45;&gt;Node7</title>
<path fill="none" stroke="midnightblue" d="M1807.97,-431C1797.82,-429.01 1787.03,-426.92 1777,-425 1691.3,-408.61 1668.76,-409.72 1584,-389 1537.97,-377.75 1527.55,-371.04 1482,-358 1422.71,-341.03 1396.75,-359.77 1348,-322 1317.32,-298.23 1332.37,-273.51 1305,-246 1262.74,-203.52 1244.5,-198.97 1188,-179 1167.62,-171.8 1043.44,-153.3 967.46,-142.39"/>
<polygon fill="midnightblue" stroke="midnightblue" points="967.92,-138.92 957.53,-140.97 966.93,-145.85 967.92,-138.92"/>
</g>
<!-- Node58&#45;&gt;Node73 -->
<g id="edge68" class="edge">
<title>Node58&#45;&gt;Node73</title>
<path fill="none" stroke="midnightblue" d="M1827.23,-430.87C1795.85,-419.47 1740.44,-399.35 1705.01,-386.49"/>
<polygon fill="midnightblue" stroke="midnightblue" points="1706.18,-383.19 1695.58,-383.06 1703.79,-389.77 1706.18,-383.19"/>
</g>
<!-- Node73&#45;&gt;Node3 -->
<g id="edge69" class="edge">
<title>Node73&#45;&gt;Node3</title>
<path fill="none" stroke="midnightblue" d="M1708.31,-363.9C1768.08,-349.9 1891.06,-321.76 1996,-302 2095.95,-283.18 2122.23,-285.76 2222,-266 2327.75,-245.06 2357.18,-248.17 2458,-210 2485.34,-199.65 2488.84,-189.8 2516,-179 2572.5,-156.53 2590.64,-163.18 2648,-143 2669.03,-135.6 2673.21,-131.04 2694,-123 2740.41,-105.07 2754.29,-106.65 2800,-87 2817.53,-79.46 2820.29,-74.11 2838,-67 2886.86,-47.37 2946.18,-32 2981.96,-23.6"/>
<polygon fill="midnightblue" stroke="midnightblue" points="2982.89,-26.98 2991.84,-21.31 2981.31,-20.16 2982.89,-26.98"/>
</g>
<!-- Node73&#45;&gt;Node4 -->
<g id="edge70" class="edge">
<title>Node73&#45;&gt;Node4</title>
<path fill="none" stroke="midnightblue" d="M1689.62,-363.77C1720.26,-348.93 1785.69,-318.78 1844,-302 1934.16,-276.06 1971.93,-314.89 2052,-266 2146.53,-208.29 2128.72,-150.05 2202,-67 2212.91,-54.64 2226.26,-41.71 2236.71,-32.02"/>
<polygon fill="midnightblue" stroke="midnightblue" points="2239.34,-34.36 2244.36,-25.03 2234.62,-29.19 2239.34,-34.36"/>
</g>
<!-- Node73&#45;&gt;Node6 -->
<g id="edge71" class="edge">
<title>Node73&#45;&gt;Node6</title>
<path fill="none" stroke="midnightblue" d="M1625.94,-370.49C1561.05,-367.67 1439,-362.38 1335,-358 921.43,-340.57 419.56,-320.1 281.59,-314.49"/>
<polygon fill="midnightblue" stroke="midnightblue" points="281.69,-310.99 271.56,-314.08 281.41,-317.98 281.69,-310.99"/>
</g>
<!-- Node73&#45;&gt;Node7 -->
<g id="edge72" class="edge">
<title>Node73&#45;&gt;Node7</title>
<path fill="none" stroke="midnightblue" d="M1637.47,-363.93C1629.14,-361.92 1620.26,-359.84 1612,-358 1533.64,-340.57 1496.91,-373.1 1435,-322 1381.98,-278.23 1431.38,-219.74 1376,-179 1303.39,-125.59 1061.55,-153.28 972,-143 970.54,-142.83 969.06,-142.66 967.56,-142.48"/>
<polygon fill="midnightblue" stroke="midnightblue" points="967.94,-139 957.58,-141.23 967.07,-145.94 967.94,-139"/>
</g>
<!-- Node73&#45;&gt;Node18 -->
<g id="edge73" class="edge">
<title>Node73&#45;&gt;Node18</title>
<path fill="none" stroke="midnightblue" d="M1653.8,-363.98C1632.49,-353.99 1596.97,-337.35 1572.34,-325.81"/>
<polygon fill="midnightblue" stroke="midnightblue" points="1573.7,-322.58 1563.16,-321.51 1570.73,-328.92 1573.7,-322.58"/>
</g>
<!-- Node75&#45;&gt;Node3 -->
<g id="edge75" class="edge">
<title>Node75&#45;&gt;Node3</title>
<path fill="none" stroke="midnightblue" d="M2106.66,-495.94C2312.45,-482.65 2843.22,-443.95 3011,-389 3126.43,-351.19 3204,-316.97 3204,-195.5 3204,-195.5 3204,-195.5 3204,-132 3204,-59.08 3100.54,-30.88 3046.31,-21.12"/>
<polygon fill="midnightblue" stroke="midnightblue" points="3046.61,-17.62 3036.17,-19.4 3045.44,-24.52 3046.61,-17.62"/>
</g>
<!-- Node75&#45;&gt;Node4 -->
<g id="edge76" class="edge">
<title>Node75&#45;&gt;Node4</title>
<path fill="none" stroke="midnightblue" d="M2034.5,-492.31C2076.88,-457.37 2235.9,-327.85 2295,-302 2372.15,-268.26 2427.42,-330.95 2481,-266 2520.69,-217.89 2337.15,-77.08 2274.4,-31.17"/>
<polygon fill="midnightblue" stroke="midnightblue" points="2276.21,-28.15 2266.06,-25.1 2272.09,-33.81 2276.21,-28.15"/>
</g>
<!-- Node75&#45;&gt;Node7 -->
<g id="edge78" class="edge">
<title>Node75&#45;&gt;Node7</title>
<path fill="none" stroke="midnightblue" d="M1961.9,-492.5C1912.81,-485.04 1842.84,-472.76 1783,-456 1745.48,-445.49 1738.63,-435.1 1701,-425 1605.73,-399.43 1576.71,-416.57 1482,-389 1415.18,-369.55 1244.77,-313.59 1194,-266 1162.39,-236.37 1184.67,-204.99 1150,-179 1146.31,-176.23 1037.4,-156.71 966.96,-144.3"/>
<polygon fill="midnightblue" stroke="midnightblue" points="967.31,-140.81 956.86,-142.53 966.1,-147.71 967.31,-140.81"/>
</g>
<!-- Node75&#45;&gt;Node19 -->
<g id="edge77" class="edge">
<title>Node75&#45;&gt;Node19</title>
<path fill="none" stroke="midnightblue" d="M2026.2,-492.44C2029.93,-478.25 2037.98,-449 2047,-425 2068.05,-368.97 2098.89,-305.18 2113.99,-274.84"/>
<polygon fill="midnightblue" stroke="midnightblue" points="2117.28,-276.08 2118.63,-265.58 2111.03,-272.95 2117.28,-276.08"/>
</g>
<!-- Node75&#45;&gt;Node29 -->
<g id="edge79" class="edge">
<title>Node75&#45;&gt;Node29</title>
<path fill="none" stroke="midnightblue" d="M2029.9,-492.29C2053.77,-457.3 2143.94,-327.58 2186,-302 2199.32,-293.9 2283.08,-277.9 2342.29,-267.32"/>
<polygon fill="midnightblue" stroke="midnightblue" points="2343.06,-270.74 2352.3,-265.55 2341.84,-263.85 2343.06,-270.74"/>
</g>
<!-- Node75&#45;&gt;Node58 -->
<g id="edge80" class="edge">
<title>Node75&#45;&gt;Node58</title>
<path fill="none" stroke="midnightblue" d="M1999.21,-492.48C1969.41,-482.22 1919.21,-464.96 1885.6,-453.4"/>
<polygon fill="midnightblue" stroke="midnightblue" points="1886.34,-449.95 1875.74,-450.01 1884.06,-456.57 1886.34,-449.95"/>
</g>
<!-- Node82&#45;&gt;Node3 -->
<g id="edge85" class="edge">
<title>Node82&#45;&gt;Node3</title>
<path fill="none" stroke="midnightblue" d="M924.09,-743.64C1026.28,-736.44 1272.61,-718.83 1479,-702 1788.29,-676.79 2562.54,-620.99 2870,-579 3053.62,-553.92 3280,-688.33 3280,-503 3280,-503 3280,-503 3280,-439.5 3280,-273.92 3399.4,-173.96 3273,-67 3239.1,-38.32 3108.02,-24.12 3046.38,-18.91"/>
<polygon fill="midnightblue" stroke="midnightblue" points="3046.32,-15.39 3036.06,-18.07 3045.75,-22.37 3046.32,-15.39"/>
</g>
<!-- Node82&#45;&gt;Node4 -->
<g id="edge86" class="edge">
<title>Node82&#45;&gt;Node4</title>
<path fill="none" stroke="midnightblue" d="M890.4,-738.42C905.52,-729.39 929.97,-714.76 951,-702 1103.48,-609.45 1132.88,-570.59 1293,-492 1368.51,-454.94 1388.51,-445.85 1470,-425 1581.74,-396.41 1615.24,-417.5 1727,-389 1833.3,-361.89 1852.34,-331.51 1958,-302 2042.04,-278.53 2083.25,-320.99 2151,-266 2189.13,-235.05 2233.88,-87.5 2248.84,-35.05"/>
<polygon fill="midnightblue" stroke="midnightblue" points="2252.29,-35.7 2251.64,-25.13 2245.55,-33.8 2252.29,-35.7"/>
</g>
<!-- Node82&#45;&gt;Node5 -->
<g id="edge87" class="edge">
<title>Node82&#45;&gt;Node5</title>
<path fill="none" stroke="midnightblue" d="M827.97,-747.51C723.34,-747.81 478.62,-743.88 409,-702 320.22,-648.6 152,-416.61 152,-313 152,-313 152,-313 152,-132 152,-69.67 231.67,-38.34 280.95,-24.92"/>
<polygon fill="midnightblue" stroke="midnightblue" points="281.87,-28.3 290.67,-22.4 280.11,-21.53 281.87,-28.3"/>
</g>
<!-- Node82&#45;&gt;Node6 -->
<g id="edge88" class="edge">
<title>Node82&#45;&gt;Node6</title>
<path fill="none" stroke="midnightblue" d="M827.74,-743.29C755.13,-737.12 621.72,-723.25 579,-702 556.7,-690.91 269.58,-411.05 258,-389 248.58,-371.07 245.76,-347.79 245.02,-331.75"/>
<polygon fill="midnightblue" stroke="midnightblue" points="248.51,-331.44 244.79,-321.52 241.51,-331.6 248.51,-331.44"/>
</g>
<!-- Node82&#45;&gt;Node7 -->
<g id="edge89" class="edge">
<title>Node82&#45;&gt;Node7</title>
<path fill="none" stroke="midnightblue" d="M875.21,-738.41C870.02,-681.98 840.95,-363.53 837,-266 836.64,-257.12 836.8,-254.89 837,-246 837.67,-216.2 825.31,-204.93 840,-179 847.99,-164.89 862.45,-154.4 875.99,-147.11"/>
<polygon fill="midnightblue" stroke="midnightblue" points="877.72,-150.15 885.12,-142.57 874.61,-143.89 877.72,-150.15"/>
</g>
<!-- Node82&#45;&gt;Node29 -->
<g id="edge109" class="edge">
<title>Node82&#45;&gt;Node29</title>
<path fill="none" stroke="midnightblue" d="M924.08,-741.39C973.49,-734.86 1052.26,-722.29 1118,-702 1409.88,-611.92 1454.82,-514.11 1747,-425 1833.81,-398.52 1863.28,-421.53 1948,-389 2016.39,-362.74 2019.16,-327.06 2088,-302 2133.07,-285.59 2262.17,-270.68 2340.09,-262.82"/>
<polygon fill="midnightblue" stroke="midnightblue" points="2340.66,-266.28 2350.26,-261.81 2339.96,-259.32 2340.66,-266.28"/>
</g>
<!-- Node82&#45;&gt;Node57 -->
<g id="edge110" class="edge">
<title>Node82&#45;&gt;Node57</title>
<path fill="none" stroke="midnightblue" d="M871.61,-738.2C858.13,-711.16 817.01,-628.7 796.66,-587.89"/>
<polygon fill="midnightblue" stroke="midnightblue" points="799.67,-586.08 792.08,-578.69 793.41,-589.21 799.67,-586.08"/>
</g>
<!-- Node83 -->
<g id="node31" class="node">
<title>Node83</title>
<g id="a_node31"><a xlink:href="../../d4/d35/pointer__vector__set_8h.html" target="_top" xlink:title=" ">
<polygon fill="none" stroke="red" points="646.5,-358.5 646.5,-388.5 751.5,-388.5 751.5,-358.5 646.5,-358.5"/>
<text text-anchor="start" x="654.5" y="-376.5" font-family="Helvetica,sans-Serif" font-size="10.00">containers/pointer</text>
<text text-anchor="middle" x="699" y="-365.5" font-family="Helvetica,sans-Serif" font-size="10.00">_vector_set.h</text>
</a>
</g>
</g>
<!-- Node82&#45;&gt;Node83 -->
<g id="edge90" class="edge">
<title>Node82&#45;&gt;Node83</title>
<path fill="none" stroke="midnightblue" d="M862.84,-738.36C830.57,-716.34 747.72,-654.47 714,-579 687.05,-518.69 691.29,-438.37 695.66,-398.73"/>
<polygon fill="midnightblue" stroke="midnightblue" points="699.15,-399.03 696.87,-388.68 692.2,-398.19 699.15,-399.03"/>
</g>
<!-- Node82&#45;&gt;Node86 -->
<g id="edge98" class="edge">
<title>Node82&#45;&gt;Node86</title>
<path fill="none" stroke="midnightblue" d="M857.46,-738.45C816.79,-719.73 722.17,-676.35 707,-671 647.22,-649.93 624.27,-666.03 569,-635 472.13,-580.62 414.09,-451.48 393.51,-398.16"/>
<polygon fill="midnightblue" stroke="midnightblue" points="396.69,-396.68 389.89,-388.55 390.14,-399.14 396.69,-396.68"/>
</g>
<!-- Node88 -->
<g id="node33" class="node">
<title>Node88</title>
<g id="a_node33"><a xlink:href="../../d9/d4c/includes_2indexed__object_8h.html" target="_top" xlink:title=" ">
<polygon fill="none" stroke="black" points="1182.5,-364 1182.5,-383 1325.5,-383 1325.5,-364 1182.5,-364"/>
<text text-anchor="middle" x="1254" y="-371" font-family="Helvetica,sans-Serif" font-size="10.00">includes/indexed_object.h</text>
</a>
</g>
</g>
<!-- Node82&#45;&gt;Node88 -->
<g id="edge105" class="edge">
<title>Node82&#45;&gt;Node88</title>
<path fill="none" stroke="midnightblue" d="M884.97,-738.16C934.4,-689.45 1173.6,-453.73 1238,-390.26"/>
<polygon fill="midnightblue" stroke="midnightblue" points="1240.61,-392.61 1245.28,-383.09 1235.7,-387.62 1240.61,-392.61"/>
</g>
<!-- Node82&#45;&gt;Node98 -->
<g id="edge111" class="edge">
<title>Node82&#45;&gt;Node98</title>
<path fill="none" stroke="midnightblue" d="M924.06,-741.61C1017.27,-731.17 1223.12,-708.1 1333.57,-695.73"/>
<polygon fill="midnightblue" stroke="midnightblue" points="1334.08,-699.19 1343.63,-694.6 1333.3,-692.24 1334.08,-699.19"/>
</g>
<!-- Node83&#45;&gt;Node3 -->
<g id="edge92" class="edge">
<title>Node83&#45;&gt;Node3</title>
<path fill="none" stroke="midnightblue" d="M751.69,-370.39C932.76,-363.05 1528.91,-338.24 1720,-322 1726.47,-321.45 2177.8,-267.93 2184,-266 2202.22,-260.32 2204.35,-253.25 2222,-246 2446.72,-153.68 2514.53,-163.87 2745,-87 2769.67,-78.77 2775.08,-74.44 2800,-67 2863.73,-47.96 2939.84,-31.45 2981.96,-22.84"/>
<polygon fill="midnightblue" stroke="midnightblue" points="2982.8,-26.24 2991.9,-20.82 2981.41,-19.38 2982.8,-26.24"/>
</g>
<!-- Node83&#45;&gt;Node4 -->
<g id="edge93" class="edge">
<title>Node83&#45;&gt;Node4</title>
<path fill="none" stroke="midnightblue" d="M742.46,-358.45C827.91,-331.49 1024.25,-272.8 1194,-246 1319.59,-226.17 1649.31,-262.74 1765,-210 1846.21,-172.98 1826.35,-107.28 1906,-67 1959.24,-40.07 2134.07,-24.82 2213.77,-19.12"/>
<polygon fill="midnightblue" stroke="midnightblue" points="2214.18,-22.6 2223.91,-18.41 2213.69,-15.61 2214.18,-22.6"/>
</g>
<!-- Node83&#45;&gt;Node5 -->
<g id="edge94" class="edge">
<title>Node83&#45;&gt;Node5</title>
<path fill="none" stroke="midnightblue" d="M683.29,-358.48C637.37,-317.42 499.67,-193.59 389,-87 369.92,-68.63 348.54,-46.93 334.49,-32.5"/>
<polygon fill="midnightblue" stroke="midnightblue" points="336.98,-30.04 327.5,-25.31 331.96,-34.92 336.98,-30.04"/>
</g>
<!-- Node83&#45;&gt;Node6 -->
<g id="edge95" class="edge">
<title>Node83&#45;&gt;Node6</title>
<path fill="none" stroke="midnightblue" d="M646.48,-365.62C553.44,-353.42 361.93,-328.32 281.67,-317.81"/>
<polygon fill="midnightblue" stroke="midnightblue" points="281.92,-314.31 271.55,-316.48 281.01,-321.25 281.92,-314.31"/>
</g>
<!-- Node83&#45;&gt;Node7 -->
<g id="edge96" class="edge">
<title>Node83&#45;&gt;Node7</title>
<path fill="none" stroke="midnightblue" d="M697.62,-358.34C695.01,-322.95 693.4,-229.9 742,-179 769.22,-150.5 812.49,-139.43 848.03,-135.38"/>
<polygon fill="midnightblue" stroke="midnightblue" points="848.69,-138.84 858.3,-134.38 848.01,-131.87 848.69,-138.84"/>
</g>
<!-- Node83&#45;&gt;Node15 -->
<g id="edge91" class="edge">
<title>Node83&#45;&gt;Node15</title>
<path fill="none" stroke="midnightblue" d="M692.24,-358.35C678.99,-330.39 649.1,-265.88 628,-210 604.05,-146.57 581.12,-69.31 571.17,-34.75"/>
<polygon fill="midnightblue" stroke="midnightblue" points="574.53,-33.75 568.41,-25.09 567.8,-35.67 574.53,-33.75"/>
</g>
<!-- Node83&#45;&gt;Node18 -->
<g id="edge97" class="edge">
<title>Node83&#45;&gt;Node18</title>
<path fill="none" stroke="midnightblue" d="M751.6,-368.8C898.81,-358.45 1314.84,-329.19 1478.08,-317.71"/>
<polygon fill="midnightblue" stroke="midnightblue" points="1478.73,-321.17 1488.46,-316.98 1478.24,-314.19 1478.73,-321.17"/>
</g>
<!-- Node86&#45;&gt;Node3 -->
<g id="edge100" class="edge">
<title>Node86&#45;&gt;Node3</title>
<path fill="none" stroke="midnightblue" d="M437.8,-369.16C488.97,-366 568.78,-361.26 638,-358 1070.26,-337.62 1180.84,-369.17 1611,-322 1659.96,-316.63 1671.18,-308.5 1720,-302 1910.54,-276.62 1968.18,-325.39 2151,-266 2167.31,-260.7 2169.08,-254.45 2184,-246 2239.54,-214.56 2251.92,-203.14 2311,-179 2472.02,-113.22 2516.31,-105.21 2686,-67 2793.15,-42.87 2922.6,-26.67 2981.73,-19.98"/>
<polygon fill="midnightblue" stroke="midnightblue" points="2982.38,-23.43 2991.93,-18.84 2981.6,-16.47 2982.38,-23.43"/>
</g>
<!-- Node86&#45;&gt;Node4 -->
<g id="edge101" class="edge">
<title>Node86&#45;&gt;Node4</title>
<path fill="none" stroke="midnightblue" d="M403.57,-358.35C463.86,-313.39 661.1,-173.77 850,-123 1117.73,-51.05 2013.18,-22.99 2213.86,-17.53"/>
<polygon fill="midnightblue" stroke="midnightblue" points="2214.06,-21.03 2223.96,-17.26 2213.87,-14.03 2214.06,-21.03"/>
</g>
<!-- Node86&#45;&gt;Node5 -->
<g id="edge102" class="edge">
<title>Node86&#45;&gt;Node5</title>
<path fill="none" stroke="midnightblue" d="M362.72,-358.44C349.9,-349.38 334.33,-336.58 324,-322 306.19,-296.87 300,-287.8 300,-257 300,-257 300,-257 300,-132 300,-97.4 308.4,-57.74 314.03,-35.05"/>
<polygon fill="midnightblue" stroke="midnightblue" points="317.49,-35.67 316.59,-25.11 310.71,-33.92 317.49,-35.67"/>
</g>
<!-- Node86&#45;&gt;Node6 -->
<g id="edge103" class="edge">
<title>Node86&#45;&gt;Node6</title>
<path fill="none" stroke="midnightblue" d="M351.82,-358.4C328.44,-348.46 297.39,-335.26 274.79,-325.66"/>
<polygon fill="midnightblue" stroke="midnightblue" points="275.94,-322.35 265.37,-321.66 273.21,-328.79 275.94,-322.35"/>
</g>
<!-- Node86&#45;&gt;Node7 -->
<g id="edge104" class="edge">
<title>Node86&#45;&gt;Node7</title>
<path fill="none" stroke="midnightblue" d="M391.67,-358.38C410.49,-320.48 468.08,-216.89 552,-179 603.54,-155.73 761.04,-142.83 848.28,-137.3"/>
<polygon fill="midnightblue" stroke="midnightblue" points="848.54,-140.79 858.3,-136.68 848.1,-133.8 848.54,-140.79"/>
</g>
<!-- Node86&#45;&gt;Node15 -->
<g id="edge99" class="edge">
<title>Node86&#45;&gt;Node15</title>
<path fill="none" stroke="midnightblue" d="M375.03,-358.31C361.24,-337.24 338,-295.97 338,-257 338,-257 338,-257 338,-193.5 338,-96.19 469.19,-44.66 532.54,-25.45"/>
<polygon fill="midnightblue" stroke="midnightblue" points="533.85,-28.72 542.46,-22.54 531.88,-22 533.85,-28.72"/>
</g>
<!-- Node88&#45;&gt;Node4 -->
<g id="edge106" class="edge">
<title>Node88&#45;&gt;Node4</title>
<path fill="none" stroke="midnightblue" d="M1322.17,-363.96C1418.01,-351.78 1583.95,-330.01 1611,-322 1631.21,-316.01 1633.83,-308.11 1654,-302 1754.71,-271.51 1793.57,-312.42 1888,-266 1928.77,-245.96 1962,-240.93 1962,-195.5 1962,-195.5 1962,-195.5 1962,-132 1962,-101.2 1962.48,-86.88 1986,-67 2019.81,-38.43 2147.22,-24.65 2213.45,-19.3"/>
<polygon fill="midnightblue" stroke="midnightblue" points="2213.84,-22.78 2223.53,-18.51 2213.29,-15.8 2213.84,-22.78"/>
</g>
<!-- Node88&#45;&gt;Node7 -->
<g id="edge107" class="edge">
<title>Node88&#45;&gt;Node7</title>
<path fill="none" stroke="midnightblue" d="M1211.03,-363.96C1184.11,-356.71 1150.23,-343.88 1127,-322 1075.91,-273.87 1113.22,-224.76 1060,-179 1044.87,-165.99 998.09,-153.27 960.39,-144.7"/>
<polygon fill="midnightblue" stroke="midnightblue" points="961.05,-141.26 950.52,-142.5 959.52,-148.09 961.05,-141.26"/>
</g>
<!-- Node88&#45;&gt;Node18 -->
<g id="edge108" class="edge">
<title>Node88&#45;&gt;Node18</title>
<path fill="none" stroke="midnightblue" d="M1295.69,-363.98C1347.77,-353.33 1436.87,-335.11 1493.25,-323.58"/>
<polygon fill="midnightblue" stroke="midnightblue" points="1494.29,-326.94 1503.38,-321.51 1492.89,-320.08 1494.29,-326.94"/>
</g>
<!-- Node98&#45;&gt;Node7 -->
<g id="edge112" class="edge">
<title>Node98&#45;&gt;Node7</title>
<path fill="none" stroke="midnightblue" d="M1392.36,-671.34C1346.77,-628 1201.79,-495.83 1058,-425 1004.99,-398.89 976.1,-425.97 930,-389 856.13,-329.75 879.77,-272.62 894,-179 895.37,-170 898.19,-160.33 900.95,-152.26"/>
<polygon fill="midnightblue" stroke="midnightblue" points="904.27,-153.37 904.4,-142.78 897.69,-150.98 904.27,-153.37"/>
</g>
<!-- Node98&#45;&gt;Node29 -->
<g id="edge113" class="edge">
<title>Node98&#45;&gt;Node29</title>
<path fill="none" stroke="midnightblue" d="M1470.41,-673.34C1475.01,-672.53 1479.57,-671.74 1484,-671 1624.21,-647.62 2005.87,-667.63 2117,-579 2220.18,-496.71 2125.21,-389.51 2224,-302 2255.62,-273.99 2302.22,-262.92 2339.8,-258.76"/>
<polygon fill="midnightblue" stroke="midnightblue" points="2340.52,-262.2 2350.14,-257.76 2339.85,-255.24 2340.52,-262.2"/>
</g>
<!-- Node98&#45;&gt;Node56 -->
<g id="edge115" class="edge">
<title>Node98&#45;&gt;Node56</title>
<path fill="none" stroke="midnightblue" d="M1343.83,-680.58C1204.12,-669.7 869.43,-643.63 718.77,-631.9"/>
<polygon fill="midnightblue" stroke="midnightblue" points="718.92,-628.4 708.68,-631.12 718.38,-635.38 718.92,-628.4"/>
</g>
<!-- Node98&#45;&gt;Node58 -->
<g id="edge114" class="edge">
<title>Node98&#45;&gt;Node58</title>
<path fill="none" stroke="midnightblue" d="M1428.2,-671.5C1467.48,-645.79 1554.54,-589.84 1631,-548 1698.17,-511.24 1779.95,-473.39 1822.37,-454.25"/>
<polygon fill="midnightblue" stroke="midnightblue" points="1823.86,-457.42 1831.55,-450.13 1820.99,-451.03 1823.86,-457.42"/>
</g>
<!-- Node98&#45;&gt;Node88 -->
<g id="edge116" class="edge">
<title>Node98&#45;&gt;Node88</title>
<path fill="none" stroke="midnightblue" d="M1400.03,-671.33C1375.1,-620.65 1290.39,-448.47 1262.78,-392.34"/>
<polygon fill="midnightblue" stroke="midnightblue" points="1265.87,-390.7 1258.32,-383.27 1259.59,-393.79 1265.87,-390.7"/>
</g>
<!-- Node109&#45;&gt;Node7 -->
<g id="edge118" class="edge">
<title>Node109&#45;&gt;Node7</title>
<path fill="none" stroke="midnightblue" d="M943.67,-425.47C923.55,-417.46 900.98,-405.63 885,-389 862.52,-365.6 862.58,-353.77 856,-322 843.11,-259.77 829.58,-236.8 856,-179 861.78,-166.36 873.05,-155.91 883.63,-148.27"/>
<polygon fill="midnightblue" stroke="midnightblue" points="885.85,-151 892.22,-142.53 881.96,-145.18 885.85,-151"/>
</g>
<!-- Node109&#45;&gt;Node110 -->
<g id="edge119" class="edge">
<title>Node109&#45;&gt;Node110</title>
<path fill="none" stroke="midnightblue" d="M1016.47,-425.4C1034.06,-416.03 1057.35,-403.62 1076.54,-393.39"/>
<polygon fill="midnightblue" stroke="midnightblue" points="1078.4,-396.37 1085.58,-388.58 1075.11,-390.19 1078.4,-396.37"/>
</g>
<!-- Node110&#45;&gt;Node7 -->
<g id="edge122" class="edge">
<title>Node110&#45;&gt;Node7</title>
<path fill="none" stroke="midnightblue" d="M1103.19,-358.27C1097.28,-348.35 1089.58,-334.66 1084,-322 1056.97,-260.65 1083.07,-226.74 1036,-179 1017.76,-160.5 991.47,-149.59 967.46,-143.16"/>
<polygon fill="midnightblue" stroke="midnightblue" points="968.24,-139.74 957.69,-140.75 966.57,-146.54 968.24,-139.74"/>
</g>
<!-- Node110&#45;&gt;Node18 -->
<g id="edge123" class="edge">
<title>Node110&#45;&gt;Node18</title>
<path fill="none" stroke="midnightblue" d="M1164.68,-359.77C1167.83,-359.13 1170.95,-358.54 1174,-358 1279.71,-339.28 1403.77,-325.96 1478.28,-318.88"/>
<polygon fill="midnightblue" stroke="midnightblue" points="1478.84,-322.34 1488.46,-317.92 1478.18,-315.38 1478.84,-322.34"/>
</g>
<!-- Node110&#45;&gt;Node23 -->
<g id="edge121" class="edge">
<title>Node110&#45;&gt;Node23</title>
<path fill="none" stroke="midnightblue" d="M1128.8,-358.34C1154.72,-336.49 1204.24,-294.73 1230.92,-272.24"/>
<polygon fill="midnightblue" stroke="midnightblue" points="1233.33,-274.79 1238.72,-265.67 1228.82,-269.44 1233.33,-274.79"/>
</g>
<!-- Node78 -->
<g id="node37" class="node">
<title>Node78</title>
<g id="a_node37"><a xlink:title=" ">
<polygon fill="none" stroke="#bfbfbf" points="2418.5,-302.5 2418.5,-321.5 2487.5,-321.5 2487.5,-302.5 2418.5,-302.5"/>
<text text-anchor="middle" x="2453" y="-309.5" font-family="Helvetica,sans-Serif" font-size="10.00">type_traits</text>
</a>
</g>
</g>
<!-- Node110&#45;&gt;Node78 -->
<g id="edge120" class="edge">
<title>Node110&#45;&gt;Node78</title>
<path fill="none" stroke="midnightblue" d="M1164.64,-359.46C1167.79,-358.9 1170.93,-358.41 1174,-358 1420,-325.22 2210.58,-315.38 2408,-313.41"/>
<polygon fill="midnightblue" stroke="midnightblue" points="2408.32,-316.91 2418.29,-313.31 2408.25,-309.91 2408.32,-316.91"/>
</g>
<!-- Node112&#45;&gt;Node56 -->
<g id="edge125" class="edge">
<title>Node112&#45;&gt;Node56</title>
<path fill="none" stroke="midnightblue" d="M643,-676.98C643,-668.58 643,-655.48 643,-644.66"/>
<polygon fill="midnightblue" stroke="midnightblue" points="646.5,-644.51 643,-634.51 639.5,-644.51 646.5,-644.51"/>
</g>
<!-- Node130&#45;&gt;Node56 -->
<g id="edge127" class="edge">
<title>Node130&#45;&gt;Node56</title>
<path fill="none" stroke="midnightblue" d="M499.07,-676.98C528.01,-666.72 576.76,-649.46 609.4,-637.9"/>
<polygon fill="midnightblue" stroke="midnightblue" points="610.72,-641.15 618.97,-634.51 608.38,-634.55 610.72,-641.15"/>
</g>
<!-- Node131&#45;&gt;Node3 -->
<g id="edge129" class="edge">
<title>Node131&#45;&gt;Node3</title>
<path fill="none" stroke="midnightblue" d="M712.9,-802.73C997.11,-801.38 2066.79,-793.97 2403,-758 2637.25,-732.94 3432,-738.58 3432,-503 3432,-503 3432,-503 3432,-132 3432,-98.08 3420.45,-85.48 3392,-67 3335.14,-30.07 3127.33,-19.91 3046.48,-17.32"/>
<polygon fill="midnightblue" stroke="midnightblue" points="3046.49,-13.82 3036.39,-17.02 3046.28,-20.82 3046.49,-13.82"/>
</g>
<!-- Node131&#45;&gt;Node4 -->
<g id="edge130" class="edge">
<title>Node131&#45;&gt;Node4</title>
<path fill="none" stroke="midnightblue" d="M712.92,-796.65C816.52,-785.71 1015.77,-758.8 1176,-702 1271.36,-668.2 1898.18,-334.46 1994,-302 2070.86,-275.96 2106.27,-312.18 2173,-266 2250.14,-212.62 2255.58,-83.61 2254.77,-35.24"/>
<polygon fill="midnightblue" stroke="midnightblue" points="2258.26,-35.13 2254.48,-25.24 2251.27,-35.33 2258.26,-35.13"/>
</g>
<!-- Node131&#45;&gt;Node5 -->
<g id="edge131" class="edge">
<title>Node131&#45;&gt;Node5</title>
<path fill="none" stroke="midnightblue" d="M573.38,-798.52C518.37,-793.28 440.42,-782.02 376,-758 163.12,-678.63 38,-601.7 38,-374.5 38,-374.5 38,-374.5 38,-132 38,-28.35 203.57,-15.77 280.53,-15.52"/>
<polygon fill="midnightblue" stroke="midnightblue" points="280.76,-19.02 290.77,-15.56 280.78,-12.02 280.76,-19.02"/>
</g>
<!-- Node131&#45;&gt;Node6 -->
<g id="edge132" class="edge">
<title>Node131&#45;&gt;Node6</title>
<path fill="none" stroke="midnightblue" d="M573.49,-797.36C526.82,-791.67 464.81,-780.36 414,-758 361.68,-734.98 197.14,-602.35 186,-579 144.33,-491.68 206.91,-374.1 233.75,-330.34"/>
<polygon fill="midnightblue" stroke="midnightblue" points="236.81,-332.06 239.17,-321.73 230.88,-328.33 236.81,-332.06"/>
</g>
<!-- Node131&#45;&gt;Node7 -->
<g id="edge133" class="edge">
<title>Node131&#45;&gt;Node7</title>
<path fill="none" stroke="midnightblue" d="M575.6,-794.46C499.76,-781.05 389.48,-748.09 409,-671 470.28,-429 475.13,-321.66 680,-179 706.67,-160.43 790.04,-147.41 848.21,-140.31"/>
<polygon fill="midnightblue" stroke="midnightblue" points="848.88,-143.76 858.39,-139.1 848.05,-136.81 848.88,-143.76"/>
</g>
<!-- Node131&#45;&gt;Node82 -->
<g id="edge136" class="edge">
<title>Node131&#45;&gt;Node82</title>
<path fill="none" stroke="midnightblue" d="M679.92,-794.44C720.4,-785.06 785.42,-769.99 829.38,-759.8"/>
<polygon fill="midnightblue" stroke="midnightblue" points="830.3,-763.18 839.25,-757.52 828.72,-756.36 830.3,-763.18"/>
</g>
<!-- Node131&#45;&gt;Node112 -->
<g id="edge135" class="edge">
<title>Node131&#45;&gt;Node112</title>
<path fill="none" stroke="midnightblue" d="M643,-794.32C643,-775.76 643,-731.84 643,-706.47"/>
<polygon fill="midnightblue" stroke="midnightblue" points="646.5,-706.28 643,-696.28 639.5,-706.28 646.5,-706.28"/>
</g>
<!-- Node131&#45;&gt;Node130 -->
<g id="edge134" class="edge">
<title>Node131&#45;&gt;Node130</title>
<path fill="none" stroke="midnightblue" d="M630.37,-794.32C601.79,-774.67 531.89,-726.61 496.41,-702.22"/>
<polygon fill="midnightblue" stroke="midnightblue" points="498,-699.06 487.77,-696.28 494.03,-704.83 498,-699.06"/>
</g>
<!-- Node115&#45;&gt;Node3 -->
<g id="edge138" class="edge">
<title>Node115&#45;&gt;Node3</title>
<path fill="none" stroke="midnightblue" d="M2284.11,-492.42C2401.45,-450.45 2909.08,-266.61 2957,-210 3001.09,-157.92 3011.08,-73.03 3013.34,-35.44"/>
<polygon fill="midnightblue" stroke="midnightblue" points="3016.84,-35.53 3013.83,-25.38 3009.85,-35.2 3016.84,-35.53"/>
</g>
<!-- Node115&#45;&gt;Node4 -->
<g id="edge139" class="edge">
<title>Node115&#45;&gt;Node4</title>
<path fill="none" stroke="midnightblue" d="M2259.32,-492.2C2257.36,-460.04 2255.5,-348.25 2319,-302 2398.82,-243.87 2568.04,-338.69 2534,-246 2498.02,-148.03 2466.87,-127.75 2382,-67 2355.39,-47.95 2320.6,-34.83 2294.01,-26.74"/>
<polygon fill="midnightblue" stroke="midnightblue" points="2294.84,-23.34 2284.26,-23.89 2292.87,-30.06 2294.84,-23.34"/>
</g>
<!-- Node115&#45;&gt;Node7 -->
<g id="edge141" class="edge">
<title>Node115&#45;&gt;Node7</title>
<path fill="none" stroke="midnightblue" d="M2226.92,-492.43C2166.39,-477.01 2033.58,-444.39 1920,-425 1786.32,-402.18 1747.79,-424.86 1617,-389 1584.19,-380 1579.08,-369.34 1547,-358 1488.86,-337.45 1467.49,-350.88 1413,-322 1324.25,-274.96 1330.78,-217.49 1238,-179 1127.26,-133.06 1087.15,-159.42 967.99,-143.65"/>
<polygon fill="midnightblue" stroke="midnightblue" points="968.14,-140.13 957.75,-142.21 967.17,-147.07 968.14,-140.13"/>
</g>
<!-- Node115&#45;&gt;Node25 -->
<g id="edge140" class="edge">
<title>Node115&#45;&gt;Node25</title>
<path fill="none" stroke="midnightblue" d="M2262.17,-492.29C2271.09,-457.28 2305.89,-327.5 2338,-302 2342.65,-298.3 2486.44,-278.43 2575.88,-266.36"/>
<polygon fill="midnightblue" stroke="midnightblue" points="2576.52,-269.81 2585.97,-265 2575.59,-262.87 2576.52,-269.81"/>
</g>
<!-- Node115&#45;&gt;Node58 -->
<g id="edge142" class="edge">
<title>Node115&#45;&gt;Node58</title>
<path fill="none" stroke="midnightblue" d="M2212.68,-494.12C2140.62,-483.63 2002.98,-463.61 1919.84,-451.52"/>
<polygon fill="midnightblue" stroke="midnightblue" points="1920.13,-448.02 1909.73,-450.04 1919.13,-454.95 1920.13,-448.02"/>
</g>
<!-- Node108&#45;&gt;Node7 -->
<g id="edge147" class="edge">
<title>Node108&#45;&gt;Node7</title>
<path fill="none" stroke="midnightblue" d="M1680.17,-553.87C1622.71,-532.94 1477.93,-479.52 1432,-456 1409.4,-444.42 1407.99,-433.35 1384,-425 1305.35,-397.64 1077.72,-438.84 1011,-389 990.69,-373.83 933.21,-208.38 914.19,-152.39"/>
<polygon fill="midnightblue" stroke="midnightblue" points="917.44,-151.08 910.93,-142.73 910.81,-153.33 917.44,-151.08"/>
</g>
<!-- Node108&#45;&gt;Node29 -->
<g id="edge148" class="edge">
<title>Node108&#45;&gt;Node29</title>
<path fill="none" stroke="midnightblue" d="M1706.08,-553.89C1712.56,-529.06 1734.92,-457.11 1783,-425 1886.97,-355.56 1958.63,-459.34 2062,-389 2098.51,-364.16 2073.8,-327.29 2110,-302 2114.71,-298.71 2255.93,-277.97 2340.22,-265.83"/>
<polygon fill="midnightblue" stroke="midnightblue" points="2340.81,-269.28 2350.2,-264.39 2339.81,-262.35 2340.81,-269.28"/>
</g>
<!-- Node108&#45;&gt;Node75 -->
<g id="edge149" class="edge">
<title>Node108&#45;&gt;Node75</title>
<path fill="none" stroke="midnightblue" d="M1749.85,-553.98C1807.47,-543.26 1906.31,-524.88 1968.25,-513.37"/>
<polygon fill="midnightblue" stroke="midnightblue" points="1969.05,-516.78 1978.24,-511.51 1967.77,-509.9 1969.05,-516.78"/>
</g>
<!-- Node132&#45;&gt;Node7 -->
<g id="edge154" class="edge">
<title>Node132&#45;&gt;Node7</title>
<path fill="none" stroke="midnightblue" d="M1867.47,-553.88C1799.5,-529.34 1596.53,-458.74 1422,-425 1340.67,-409.28 1119.63,-435.39 1051,-389 963.88,-330.11 998.12,-267.93 942,-179 935.79,-169.17 928.03,-158.77 921.49,-150.46"/>
<polygon fill="midnightblue" stroke="midnightblue" points="924.22,-148.26 915.23,-142.65 918.75,-152.64 924.22,-148.26"/>
</g>
<!-- Node132&#45;&gt;Node30 -->
<g id="edge157" class="edge">
<title>Node132&#45;&gt;Node30</title>
<path fill="none" stroke="midnightblue" d="M1932.86,-553.96C1944.23,-551.82 1956.56,-549.67 1968,-548 2044.93,-536.8 2253.02,-557.58 2316,-512 2398.84,-452.05 2327.6,-362.55 2410,-302 2462.74,-263.25 2632.53,-273.39 2713.97,-265.95"/>
<polygon fill="midnightblue" stroke="midnightblue" points="2714.35,-269.43 2723.92,-264.89 2713.61,-262.47 2714.35,-269.43"/>
</g>
<!-- Node132&#45;&gt;Node58 -->
<g id="edge155" class="edge">
<title>Node132&#45;&gt;Node58</title>
<path fill="none" stroke="midnightblue" d="M1888.12,-553.8C1881.64,-534.18 1865.76,-486.14 1857.01,-459.69"/>
<polygon fill="midnightblue" stroke="midnightblue" points="1860.31,-458.52 1853.85,-450.12 1853.67,-460.72 1860.31,-458.52"/>
</g>
<!-- Node132&#45;&gt;Node75 -->
<g id="edge156" class="edge">
<title>Node132&#45;&gt;Node75</title>
<path fill="none" stroke="midnightblue" d="M1910.06,-553.98C1932.47,-543.95 1969.91,-527.2 1995.71,-515.65"/>
<polygon fill="midnightblue" stroke="midnightblue" points="1997.28,-518.79 2004.98,-511.51 1994.42,-512.4 1997.28,-518.79"/>
</g>
<!-- Node96&#45;&gt;Node25 -->
<g id="edge161" class="edge">
<title>Node96&#45;&gt;Node25</title>
<path fill="none" stroke="midnightblue" d="M2853.86,-363.95C2833.03,-354.06 2797.87,-337.2 2768,-322 2734.01,-304.7 2695.21,-283.83 2670.67,-270.49"/>
<polygon fill="midnightblue" stroke="midnightblue" points="2672.15,-267.31 2661.69,-265.6 2668.8,-273.46 2672.15,-267.31"/>
</g>
<!-- Node96&#45;&gt;Node34 -->
<g id="edge162" class="edge">
<title>Node96&#45;&gt;Node34</title>
<path fill="none" stroke="midnightblue" d="M2862.58,-363.79C2848.82,-350 2826.3,-322.59 2840,-302 2862.96,-267.5 2903.04,-300.5 2926,-266 2939.12,-246.28 2917.06,-224.08 2898.21,-209.95"/>
<polygon fill="midnightblue" stroke="midnightblue" points="2900.09,-207 2889.91,-204.07 2896.04,-212.71 2900.09,-207"/>
</g>
<!-- Node96&#45;&gt;Node78 -->
<g id="edge160" class="edge">
<title>Node96&#45;&gt;Node78</title>
<path fill="none" stroke="midnightblue" d="M2813.3,-364.16C2728.65,-352.14 2574.14,-330.2 2497.94,-319.38"/>
<polygon fill="midnightblue" stroke="midnightblue" points="2498.12,-315.87 2487.72,-317.93 2497.13,-322.8 2498.12,-315.87"/>
</g>
<!-- Node65 -->
<g id="node45" class="node">
<title>Node65</title>
<g id="a_node45"><a xlink:title=" ">
<polygon fill="none" stroke="#bfbfbf" points="2848.5,-302.5 2848.5,-321.5 2895.5,-321.5 2895.5,-302.5 2848.5,-302.5"/>
<text text-anchor="middle" x="2872" y="-309.5" font-family="Helvetica,sans-Serif" font-size="10.00">cmath</text>
</a>
</g>
</g>
<!-- Node96&#45;&gt;Node65 -->
<g id="edge159" class="edge">
<title>Node96&#45;&gt;Node65</title>
<path fill="none" stroke="midnightblue" d="M2872,-363.98C2872,-355.58 2872,-342.48 2872,-331.66"/>
<polygon fill="midnightblue" stroke="midnightblue" points="2875.5,-331.51 2872,-321.51 2868.5,-331.51 2875.5,-331.51"/>
</g>
<!-- Node70 -->
<g id="node46" class="node">
<title>Node70</title>
<g id="a_node46"><a xlink:href="../../d5/dfb/global__variables_8h.html" target="_top" xlink:title=" ">
<polygon fill="none" stroke="black" points="2913.5,-302.5 2913.5,-321.5 3062.5,-321.5 3062.5,-302.5 2913.5,-302.5"/>
<text text-anchor="middle" x="2988" y="-309.5" font-family="Helvetica,sans-Serif" font-size="10.00">includes/global_variables.h</text>
</a>
</g>
</g>
<!-- Node96&#45;&gt;Node70 -->
<g id="edge163" class="edge">
<title>Node96&#45;&gt;Node70</title>
<path fill="none" stroke="midnightblue" d="M2888.62,-363.98C2907.92,-354.08 2939.96,-337.64 2962.43,-326.12"/>
<polygon fill="midnightblue" stroke="midnightblue" points="2964.11,-329.19 2971.41,-321.51 2960.92,-322.96 2964.11,-329.19"/>
</g>
<!-- Node133&#45;&gt;Node3 -->
<g id="edge165" class="edge">
<title>Node133&#45;&gt;Node3</title>
<path fill="none" stroke="midnightblue" d="M2725.58,-801.73C2834.88,-798.37 3097.06,-787.41 3180,-758 3341.76,-700.64 3470,-674.63 3470,-503 3470,-503 3470,-503 3470,-132 3470,-101.2 3470.2,-86.04 3446,-67 3384.06,-18.26 3135.86,-15.43 3046.37,-16.04"/>
<polygon fill="midnightblue" stroke="midnightblue" points="3046.24,-12.55 3036.27,-16.13 3046.3,-19.55 3046.24,-12.55"/>
</g>
<!-- Node133&#45;&gt;Node4 -->
<g id="edge166" class="edge">
<title>Node133&#45;&gt;Node4</title>
<path fill="none" stroke="midnightblue" d="M2721.58,-794.48C2878.23,-763.3 3394,-649.49 3394,-503 3394,-503 3394,-503 3394,-372.5 3394,-29.79 3024.19,-122.51 2686,-67 2542.78,-43.49 2371.09,-26.82 2294.42,-19.96"/>
<polygon fill="midnightblue" stroke="midnightblue" points="2294.52,-16.46 2284.25,-19.06 2293.9,-23.43 2294.52,-16.46"/>
</g>
<!-- Node133&#45;&gt;Node7 -->
<g id="edge167" class="edge">
<title>Node133&#45;&gt;Node7</title>
<path fill="none" stroke="midnightblue" d="M2628.2,-801.74C2540.5,-798.74 2350.78,-788.95 2194,-758 2185.41,-756.3 994.36,-395.02 988,-389 918.99,-323.77 909.19,-199.86 908.04,-152.79"/>
<polygon fill="midnightblue" stroke="midnightblue" points="911.53,-152.51 907.9,-142.55 904.53,-152.6 911.53,-152.51"/>
</g>
<!-- Node134 -->
<g id="node48" class="node">
<title>Node134</title>
<g id="a_node48"><a xlink:href="../../d3/dec/kratos__application_8h.html" target="_top" xlink:title=" ">
<polygon fill="none" stroke="red" points="2234.5,-738.5 2234.5,-757.5 2393.5,-757.5 2393.5,-738.5 2234.5,-738.5"/>
<text text-anchor="middle" x="2314" y="-745.5" font-family="Helvetica,sans-Serif" font-size="10.00">includes/kratos_application.h</text>
</a>
</g>
</g>
<!-- Node133&#45;&gt;Node134 -->
<g id="edge168" class="edge">
<title>Node133&#45;&gt;Node134</title>
<path fill="none" stroke="midnightblue" d="M2628.42,-795.77C2564.89,-786.32 2453.28,-769.72 2381.54,-759.05"/>
<polygon fill="midnightblue" stroke="midnightblue" points="2381.66,-755.53 2371.26,-757.52 2380.63,-762.45 2381.66,-755.53"/>
</g>
<!-- Node118 -->
<g id="node49" class="node">
<title>Node118</title>
<g id="a_node49"><a xlink:href="../../de/dca/variables_8h.html" target="_top" xlink:title=" ">
<polygon fill="none" stroke="red" points="2620,-554 2620,-573 2734,-573 2734,-554 2620,-554"/>
<text text-anchor="middle" x="2677" y="-561" font-family="Helvetica,sans-Serif" font-size="10.00">includes/variables.h</text>
</a>
</g>
</g>
<!-- Node133&#45;&gt;Node118 -->
<g id="edge176" class="edge">
<title>Node133&#45;&gt;Node118</title>
<path fill="none" stroke="midnightblue" d="M2677,-794.23C2677,-759.6 2677,-631.93 2677,-583.4"/>
<polygon fill="midnightblue" stroke="midnightblue" points="2680.5,-583.1 2677,-573.1 2673.5,-583.1 2680.5,-583.1"/>
</g>
<!-- Node224 -->
<g id="node50" class="node">
<title>Node224</title>
<g id="a_node50"><a xlink:href="../../d5/d73/fsi__variables_8h.html" target="_top" xlink:title=" ">
<polygon fill="none" stroke="black" points="1976.5,-554 1976.5,-573 2107.5,-573 2107.5,-554 1976.5,-554"/>
<text text-anchor="middle" x="2042" y="-561" font-family="Helvetica,sans-Serif" font-size="10.00">includes/fsi_variables.h</text>
</a>
</g>
</g>
<!-- Node133&#45;&gt;Node224 -->
<g id="edge184" class="edge">
<title>Node133&#45;&gt;Node224</title>
<path fill="none" stroke="midnightblue" d="M2628.43,-802.38C2526.91,-800.41 2295.89,-792.19 2226,-758 2183.04,-736.98 2089.81,-624.15 2055.24,-581.16"/>
<polygon fill="midnightblue" stroke="midnightblue" points="2057.78,-578.72 2048.8,-573.1 2052.31,-583.09 2057.78,-578.72"/>
</g>
<!-- Node134&#45;&gt;Node3 -->
<g id="edge169" class="edge">
<title>Node134&#45;&gt;Node3</title>
<path fill="none" stroke="midnightblue" d="M2336.25,-738.47C2377.45,-722.96 2468.66,-690.02 2548,-671 2703.33,-633.77 2744.45,-634.36 2903,-615 2994.89,-603.78 3241.44,-631.03 3318,-579 3349.24,-557.78 3356,-540.76 3356,-503 3356,-503 3356,-503 3356,-372.5 3356,-292.04 3394,-275.96 3394,-195.5 3394,-195.5 3394,-195.5 3394,-132 3394,-101.2 3393.96,-86.34 3370,-67 3320.59,-27.12 3124.9,-18.73 3046.62,-16.97"/>
<polygon fill="midnightblue" stroke="midnightblue" points="3046.45,-13.47 3036.38,-16.76 3046.31,-20.46 3046.45,-13.47"/>
</g>
<!-- Node134&#45;&gt;Node4 -->
<g id="edge170" class="edge">
<title>Node134&#45;&gt;Node4</title>
<path fill="none" stroke="midnightblue" d="M2328.32,-738.35C2370.94,-713.15 2501.47,-640.04 2621,-615 2694.29,-599.65 3234.8,-624.86 3294,-579 3322,-557.31 3318,-538.42 3318,-503 3318,-503 3318,-503 3318,-439.5 3318,-207.89 3125.42,-190.96 2904,-123 2814.31,-95.47 2786.08,-113.21 2696,-87 2673.81,-80.54 2670.33,-72.97 2648,-67 2521.63,-33.23 2366.23,-21.78 2294.19,-18.11"/>
<polygon fill="midnightblue" stroke="midnightblue" points="2294.34,-14.62 2284.18,-17.63 2294,-21.61 2294.34,-14.62"/>
</g>
<!-- Node134&#45;&gt;Node25 -->
<g id="edge175" class="edge">
<title>Node134&#45;&gt;Node25</title>
<path fill="none" stroke="midnightblue" d="M2314.59,-738.43C2318.64,-682.19 2344.11,-366.32 2410,-302 2421.9,-290.38 2510.55,-275.78 2575.71,-266.41"/>
<polygon fill="midnightblue" stroke="midnightblue" points="2576.55,-269.83 2585.96,-264.96 2575.56,-262.9 2576.55,-269.83"/>
</g>
<!-- Node134&#45;&gt;Node75 -->
<g id="edge173" class="edge">
<title>Node134&#45;&gt;Node75</title>
<path fill="none" stroke="midnightblue" d="M2307.33,-738.42C2283.94,-708.75 2202.43,-609.06 2117,-548 2098.24,-534.59 2074.86,-523.3 2056.24,-515.38"/>
<polygon fill="midnightblue" stroke="midnightblue" points="2057.56,-512.14 2046.98,-511.55 2054.89,-518.61 2057.56,-512.14"/>
</g>
<!-- Node134&#45;&gt;Node98 -->
<g id="edge174" class="edge">
<title>Node134&#45;&gt;Node98</title>
<path fill="none" stroke="midnightblue" d="M2234.3,-741.77C2060.2,-730.35 1648.05,-703.31 1480.12,-692.3"/>
<polygon fill="midnightblue" stroke="midnightblue" points="1480.35,-688.8 1470.14,-691.64 1479.89,-695.79 1480.35,-688.8"/>
</g>
<!-- Node134&#45;&gt;Node112 -->
<g id="edge171" class="edge">
<title>Node134&#45;&gt;Node112</title>
<path fill="none" stroke="midnightblue" d="M2234.25,-744.16C1947.3,-733.94 970.55,-699.16 708.27,-689.82"/>
<polygon fill="midnightblue" stroke="midnightblue" points="708.27,-686.32 698.15,-689.46 708.02,-693.32 708.27,-686.32"/>
</g>
<!-- Node134&#45;&gt;Node130 -->
<g id="edge172" class="edge">
<title>Node134&#45;&gt;Node130</title>
<path fill="none" stroke="midnightblue" d="M2234.34,-746.13C1939.04,-742.7 907.08,-729.04 579,-702 565.68,-700.9 551.46,-699.24 537.95,-697.44"/>
<polygon fill="midnightblue" stroke="midnightblue" points="538.16,-693.93 527.78,-696.03 537.21,-700.87 538.16,-693.93"/>
</g>
<!-- Node118&#45;&gt;Node3 -->
<g id="edge177" class="edge">
<title>Node118&#45;&gt;Node3</title>
<path fill="none" stroke="midnightblue" d="M2734.02,-558.3C2877.48,-544.34 3242,-486.29 3242,-257 3242,-257 3242,-257 3242,-132 3242,-45.38 3109.43,-23.7 3046.47,-18.29"/>
<polygon fill="midnightblue" stroke="midnightblue" points="3046.52,-14.79 3036.28,-17.51 3045.98,-21.77 3046.52,-14.79"/>
</g>
<!-- Node118&#45;&gt;Node4 -->
<g id="edge178" class="edge">
<title>Node118&#45;&gt;Node4</title>
<path fill="none" stroke="midnightblue" d="M2678.69,-553.7C2681.37,-540.25 2687.01,-513.82 2694,-492 2703.79,-461.42 2706.89,-453.84 2721,-425 2750.66,-364.39 2761.01,-348.4 2810,-302 2833.18,-280.04 2871.5,-273.33 2855,-246 2849.48,-236.86 2525.07,-70.54 2515,-67 2439.43,-40.45 2346.38,-26.69 2294.27,-20.58"/>
<polygon fill="midnightblue" stroke="midnightblue" points="2294.43,-17.08 2284.1,-19.42 2293.64,-24.03 2294.43,-17.08"/>
</g>
<!-- Node118&#45;&gt;Node7 -->
<g id="edge179" class="edge">
<title>Node118&#45;&gt;Node7</title>
<path fill="none" stroke="midnightblue" d="M2641.37,-553.92C2516.38,-524.03 2086.04,-422.73 1727,-358 1617.82,-338.32 1571.22,-385.13 1480,-322 1420.3,-280.68 1461.97,-218.43 1401,-179 1321.56,-127.62 1075.95,-153.17 967.77,-143.38"/>
<polygon fill="midnightblue" stroke="midnightblue" points="968.05,-139.89 957.74,-142.32 967.32,-146.86 968.05,-139.89"/>
</g>
<!-- Node118&#45;&gt;Node30 -->
<g id="edge183" class="edge">
<title>Node118&#45;&gt;Node30</title>
<path fill="none" stroke="midnightblue" d="M2671.05,-553.85C2658.4,-534.59 2630,-486.35 2630,-441.5 2630,-441.5 2630,-441.5 2630,-372.5 2630,-316.22 2696.51,-284.11 2742.4,-268.66"/>
<polygon fill="midnightblue" stroke="midnightblue" points="2743.68,-271.92 2752.13,-265.52 2741.54,-265.26 2743.68,-271.92"/>
</g>
<!-- Node118&#45;&gt;Node34 -->
<g id="edge182" class="edge">
<title>Node118&#45;&gt;Node34</title>
<path fill="none" stroke="midnightblue" d="M2680.31,-553.89C2694.11,-518.92 2750.12,-385.3 2831,-302 2851.87,-280.5 2873.54,-292.24 2888,-266 2896.96,-249.74 2891.36,-228.43 2885.15,-213.51"/>
<polygon fill="midnightblue" stroke="midnightblue" points="2888.29,-211.96 2880.93,-204.35 2881.94,-214.89 2888.29,-211.96"/>
</g>
<!-- Node118&#45;&gt;Node58 -->
<g id="edge180" class="edge">
<title>Node118&#45;&gt;Node58</title>
<path fill="none" stroke="midnightblue" d="M2619.92,-558.58C2530.73,-551.96 2353.08,-536.81 2204,-512 2164.44,-505.42 2155.26,-500.2 2116,-492 2044.72,-477.11 1962.27,-461.68 1908.52,-451.86"/>
<polygon fill="midnightblue" stroke="midnightblue" points="1908.96,-448.38 1898.49,-450.03 1907.7,-455.27 1908.96,-448.38"/>
</g>
<!-- Node118&#45;&gt;Node75 -->
<g id="edge181" class="edge">
<title>Node118&#45;&gt;Node75</title>
<path fill="none" stroke="midnightblue" d="M2619.87,-557.32C2519.26,-548.19 2303.86,-528.62 2122,-512 2120.27,-511.84 2118.53,-511.68 2116.78,-511.52"/>
<polygon fill="midnightblue" stroke="midnightblue" points="2116.89,-508.02 2106.61,-510.59 2116.25,-514.99 2116.89,-508.02"/>
</g>
<!-- Node224&#45;&gt;Node7 -->
<g id="edge185" class="edge">
<title>Node224&#45;&gt;Node7</title>
<path fill="none" stroke="midnightblue" d="M2008.34,-553.95C1878.06,-520.83 1412.77,-402.13 1383,-389 1359.76,-378.75 1357.49,-369.79 1335,-358 1297.94,-338.57 1284.25,-342.91 1248,-322 1212.58,-301.56 1205.9,-292.78 1175,-266 1133.2,-229.77 1134.25,-206.04 1086,-179 1065.04,-167.25 1007.04,-153.74 962.89,-144.61"/>
<polygon fill="midnightblue" stroke="midnightblue" points="963.35,-141.13 952.85,-142.56 961.95,-147.99 963.35,-141.13"/>
</g>
<!-- Node224&#45;&gt;Node30 -->
<g id="edge188" class="edge">
<title>Node224&#45;&gt;Node30</title>
<path fill="none" stroke="midnightblue" d="M2107.78,-560.41C2175.14,-556.43 2281.88,-544.95 2368,-512 2410.6,-495.7 2416.99,-482.65 2454,-456 2543.34,-391.67 2551.08,-354.21 2648,-302 2676.17,-286.82 2710.36,-275.59 2737.53,-268.14"/>
<polygon fill="midnightblue" stroke="midnightblue" points="2738.44,-271.52 2747.21,-265.56 2736.64,-264.75 2738.44,-271.52"/>
</g>
<!-- Node224&#45;&gt;Node58 -->
<g id="edge186" class="edge">
<title>Node224&#45;&gt;Node58</title>
<path fill="none" stroke="midnightblue" d="M2018.92,-553.97C1996.18,-545.08 1960.88,-529.95 1933,-512 1908,-495.9 1882.54,-472.74 1866.77,-457.41"/>
<polygon fill="midnightblue" stroke="midnightblue" points="1869.03,-454.73 1859.45,-450.19 1864.11,-459.71 1869.03,-454.73"/>
</g>
<!-- Node224&#45;&gt;Node75 -->
<g id="edge187" class="edge">
<title>Node224&#45;&gt;Node75</title>
<path fill="none" stroke="midnightblue" d="M2039.42,-553.98C2036.85,-545.49 2032.83,-532.2 2029.54,-521.32"/>
<polygon fill="midnightblue" stroke="midnightblue" points="2032.82,-520.07 2026.57,-511.51 2026.12,-522.09 2032.82,-520.07"/>
</g>
</g>
</svg>
