<?xml version="1.0" encoding="UTF-8" standalone="no"?>
<!DOCTYPE svg PUBLIC "-//W3C//DTD SVG 1.1//EN"
 "http://www.w3.org/Graphics/SVG/1.1/DTD/svg11.dtd">
<!-- Generated by graphviz version 2.43.0 (0)
 -->
<!-- Title: /home/runner/work/Documentation/Documentation/master/applications/SolidMechanicsApplication/custom_constitutive/custom_hardening_laws/linear_isotropic_kinematic_hardening_law.cpp Pages: 1 -->
<svg width="3495pt" height="977pt"
 viewBox="0.00 0.00 3494.50 977.00" xmlns="http://www.w3.org/2000/svg" xmlns:xlink="http://www.w3.org/1999/xlink">
<g id="graph0" class="graph" transform="scale(1 1) rotate(0) translate(4 973)">
<title>/home/runner/work/Documentation/Documentation/master/applications/SolidMechanicsApplication/custom_constitutive/custom_hardening_laws/linear_isotropic_kinematic_hardening_law.cpp</title>
<!-- Node1 -->
<g id="node1" class="node">
<title>Node1</title>
<g id="a_node1"><a xlink:title=" ">
<polygon fill="#bfbfbf" stroke="black" points="2499.5,-905.5 2499.5,-968.5 2744.5,-968.5 2744.5,-905.5 2499.5,-905.5"/>
<text text-anchor="start" x="2507.5" y="-956.5" font-family="Helvetica,sans-Serif" font-size="10.00">/home/runner/work/Documentation</text>
<text text-anchor="start" x="2507.5" y="-945.5" font-family="Helvetica,sans-Serif" font-size="10.00">/Documentation/master/applications</text>
<text text-anchor="start" x="2507.5" y="-934.5" font-family="Helvetica,sans-Serif" font-size="10.00">/SolidMechanicsApplication/custom</text>
<text text-anchor="start" x="2507.5" y="-923.5" font-family="Helvetica,sans-Serif" font-size="10.00">_constitutive/custom_hardening_laws</text>
<text text-anchor="middle" x="2622" y="-912.5" font-family="Helvetica,sans-Serif" font-size="10.00">/linear_isotropic_kinematic_hardening_law.cpp</text>
</a>
</g>
</g>
<!-- Node2 -->
<g id="node2" class="node">
<title>Node2</title>
<g id="a_node2"><a xlink:title=" ">
<polygon fill="none" stroke="#bfbfbf" points="425,-6 425,-25 469,-25 469,-6 425,-6"/>
<text text-anchor="middle" x="447" y="-13" font-family="Helvetica,sans-Serif" font-size="10.00">string</text>
</a>
</g>
</g>
<!-- Node1&#45;&gt;Node2 -->
<g id="edge1" class="edge">
<title>Node1&#45;&gt;Node2</title>
<path fill="none" stroke="midnightblue" d="M2499.49,-934.02C1981.79,-924.84 0,-881.44 0,-754.5 0,-754.5 0,-754.5 0,-143 0,-103.52 12.89,-88.5 46,-67 106.75,-27.56 330.31,-18.89 414.58,-17.01"/>
<polygon fill="midnightblue" stroke="midnightblue" points="414.9,-20.5 424.83,-16.8 414.76,-13.51 414.9,-20.5"/>
</g>
<!-- Node3 -->
<g id="node3" class="node">
<title>Node3</title>
<g id="a_node3"><a xlink:title=" ">
<polygon fill="none" stroke="#bfbfbf" points="2166,-6 2166,-25 2226,-25 2226,-6 2166,-6"/>
<text text-anchor="middle" x="2196" y="-13" font-family="Helvetica,sans-Serif" font-size="10.00">iostream</text>
</a>
</g>
</g>
<!-- Node1&#45;&gt;Node3 -->
<g id="edge2" class="edge">
<title>Node1&#45;&gt;Node3</title>
<path fill="none" stroke="midnightblue" d="M2744.89,-927.85C2938.31,-911.6 3292,-866.58 3292,-754.5 3292,-754.5 3292,-754.5 3292,-143 3292,-93.31 3255.92,-85.99 3210,-67 3109.82,-25.57 2341.32,-52.16 2235,-31 2231.74,-30.35 2228.39,-29.47 2225.1,-28.45"/>
<polygon fill="midnightblue" stroke="midnightblue" points="2226.08,-25.09 2215.48,-25.13 2223.79,-31.71 2226.08,-25.09"/>
</g>
<!-- Node4 -->
<g id="node4" class="node">
<title>Node4</title>
<g id="a_node4"><a xlink:href="../../df/d67/define_8h.html" target="_top" xlink:title=" ">
<polygon fill="none" stroke="black" points="1778.5,-190.5 1778.5,-209.5 1877.5,-209.5 1877.5,-190.5 1778.5,-190.5"/>
<text text-anchor="middle" x="1828" y="-197.5" font-family="Helvetica,sans-Serif" font-size="10.00">includes/define.h</text>
</a>
</g>
</g>
<!-- Node1&#45;&gt;Node4 -->
<g id="edge3" class="edge">
<title>Node1&#45;&gt;Node4</title>
<path fill="none" stroke="midnightblue" d="M2704.38,-905.32C2806.35,-862.36 2975.53,-773.64 3049,-635 3090.82,-556.08 3080.19,-502.88 3021,-436 2931.95,-335.38 2876.12,-348.34 2750,-302 2678.89,-275.87 2663.3,-260.82 2589,-246 2455.15,-219.3 2042.97,-206.41 1887.86,-202.41"/>
<polygon fill="midnightblue" stroke="midnightblue" points="1887.67,-198.91 1877.58,-202.15 1887.49,-205.9 1887.67,-198.91"/>
</g>
<!-- Node16 -->
<g id="node16" class="node">
<title>Node16</title>
<g id="a_node16"><a xlink:href="../../d8/dbb/properties_8h.html" target="_top" xlink:title=" ">
<polygon fill="none" stroke="black" points="2173.5,-615.5 2173.5,-634.5 2292.5,-634.5 2292.5,-615.5 2173.5,-615.5"/>
<text text-anchor="middle" x="2233" y="-622.5" font-family="Helvetica,sans-Serif" font-size="10.00">includes/properties.h</text>
</a>
</g>
</g>
<!-- Node1&#45;&gt;Node16 -->
<g id="edge26" class="edge">
<title>Node1&#45;&gt;Node16</title>
<path fill="none" stroke="midnightblue" d="M2583.64,-905.43C2501.61,-840.06 2311.74,-688.75 2251.61,-640.83"/>
<polygon fill="midnightblue" stroke="midnightblue" points="2253.71,-638.03 2243.71,-634.54 2249.35,-643.51 2253.71,-638.03"/>
</g>
<!-- Node107 -->
<g id="node41" class="node">
<title>Node107</title>
<g id="a_node41"><a xlink:href="../../d7/d87/solid__mechanics__application__variables_8h.html" target="_top" xlink:title=" ">
<polygon fill="none" stroke="black" points="807.5,-827.5 807.5,-857.5 964.5,-857.5 964.5,-827.5 807.5,-827.5"/>
<text text-anchor="start" x="815.5" y="-845.5" font-family="Helvetica,sans-Serif" font-size="10.00">solid_mechanics_application</text>
<text text-anchor="middle" x="886" y="-834.5" font-family="Helvetica,sans-Serif" font-size="10.00">_variables.h</text>
</a>
</g>
</g>
<!-- Node1&#45;&gt;Node107 -->
<g id="edge142" class="edge">
<title>Node1&#45;&gt;Node107</title>
<path fill="none" stroke="midnightblue" d="M2499.24,-929.46C2168.15,-911.82 1262.45,-863.56 974.88,-848.24"/>
<polygon fill="midnightblue" stroke="midnightblue" points="974.67,-844.72 964.5,-847.68 974.3,-851.71 974.67,-844.72"/>
</g>
<!-- Node234 -->
<g id="node49" class="node">
<title>Node234</title>
<g id="a_node49"><a xlink:href="../../d5/d81/linear__isotropic__kinematic__hardening__law_8hpp.html" target="_top" xlink:title=" ">
<polygon fill="none" stroke="black" points="3323.5,-816.5 3323.5,-868.5 3472.5,-868.5 3472.5,-816.5 3323.5,-816.5"/>
<text text-anchor="start" x="3331.5" y="-856.5" font-family="Helvetica,sans-Serif" font-size="10.00">custom_constitutive</text>
<text text-anchor="start" x="3331.5" y="-845.5" font-family="Helvetica,sans-Serif" font-size="10.00">/custom_hardening_laws</text>
<text text-anchor="start" x="3331.5" y="-834.5" font-family="Helvetica,sans-Serif" font-size="10.00">/linear_isotropic_kinematic</text>
<text text-anchor="middle" x="3398" y="-823.5" font-family="Helvetica,sans-Serif" font-size="10.00">_hardening_law.hpp</text>
</a>
</g>
</g>
<!-- Node1&#45;&gt;Node234 -->
<g id="edge180" class="edge">
<title>Node1&#45;&gt;Node234</title>
<path fill="none" stroke="midnightblue" d="M2744.6,-930.38C2882.17,-922.6 3111.57,-905.19 3306,-869 3308.5,-868.54 3311.02,-868.04 3313.56,-867.51"/>
<polygon fill="midnightblue" stroke="midnightblue" points="3314.43,-870.9 3323.44,-865.33 3312.92,-864.06 3314.43,-870.9"/>
</g>
<!-- Node5 -->
<g id="node5" class="node">
<title>Node5</title>
<g id="a_node5"><a xlink:title=" ">
<polygon fill="none" stroke="#bfbfbf" points="1813.5,-73 1813.5,-92 1878.5,-92 1878.5,-73 1813.5,-73"/>
<text text-anchor="middle" x="1846" y="-80" font-family="Helvetica,sans-Serif" font-size="10.00">stdexcept</text>
</a>
</g>
</g>
<!-- Node4&#45;&gt;Node5 -->
<g id="edge4" class="edge">
<title>Node4&#45;&gt;Node5</title>
<path fill="none" stroke="midnightblue" d="M1829.35,-190.32C1832.25,-171.76 1839.09,-127.84 1843.04,-102.47"/>
<polygon fill="midnightblue" stroke="midnightblue" points="1846.55,-102.7 1844.63,-92.28 1839.63,-101.62 1846.55,-102.7"/>
</g>
<!-- Node6 -->
<g id="node6" class="node">
<title>Node6</title>
<g id="a_node6"><a xlink:title=" ">
<polygon fill="none" stroke="#bfbfbf" points="2589,-73 2589,-92 2645,-92 2645,-73 2589,-73"/>
<text text-anchor="middle" x="2617" y="-80" font-family="Helvetica,sans-Serif" font-size="10.00">sstream</text>
</a>
</g>
</g>
<!-- Node4&#45;&gt;Node6 -->
<g id="edge5" class="edge">
<title>Node4&#45;&gt;Node6</title>
<path fill="none" stroke="midnightblue" d="M1874.02,-190.49C1957.94,-175.03 2132.8,-143.08 2194,-134 2335.38,-113.02 2504.35,-94.94 2578.69,-87.33"/>
<polygon fill="midnightblue" stroke="midnightblue" points="2579.37,-90.78 2588.96,-86.29 2578.66,-83.82 2579.37,-90.78"/>
</g>
<!-- Node7 -->
<g id="node7" class="node">
<title>Node7</title>
<g id="a_node7"><a xlink:href="../../dc/d25/kratos__export__api_8h.html" target="_top" xlink:title=" ">
<polygon fill="none" stroke="black" points="2244,-0.5 2244,-30.5 2372,-30.5 2372,-0.5 2244,-0.5"/>
<text text-anchor="start" x="2252" y="-18.5" font-family="Helvetica,sans-Serif" font-size="10.00">includes/kratos_export</text>
<text text-anchor="middle" x="2308" y="-7.5" font-family="Helvetica,sans-Serif" font-size="10.00">_api.h</text>
</a>
</g>
</g>
<!-- Node4&#45;&gt;Node7 -->
<g id="edge6" class="edge">
<title>Node4&#45;&gt;Node7</title>
<path fill="none" stroke="midnightblue" d="M1877.52,-196.7C2047.88,-188.27 2602.2,-156.52 2654,-98 2663.13,-87.68 2663.01,-77.42 2654,-67 2619.64,-27.26 2473.58,-18.17 2382.57,-16.45"/>
<polygon fill="midnightblue" stroke="midnightblue" points="2382.36,-12.95 2372.3,-16.29 2382.25,-19.95 2382.36,-12.95"/>
</g>
<!-- Node8 -->
<g id="node8" class="node">
<title>Node8</title>
<g id="a_node8"><a xlink:href="../../d9/dc0/smart__pointers_8h.html" target="_top" xlink:title=" ">
<polygon fill="none" stroke="black" points="1237.5,-134.5 1237.5,-153.5 1380.5,-153.5 1380.5,-134.5 1237.5,-134.5"/>
<text text-anchor="middle" x="1309" y="-141.5" font-family="Helvetica,sans-Serif" font-size="10.00">includes/smart_pointers.h</text>
</a>
</g>
</g>
<!-- Node4&#45;&gt;Node8 -->
<g id="edge7" class="edge">
<title>Node4&#45;&gt;Node8</title>
<path fill="none" stroke="midnightblue" d="M1778.24,-193.82C1688.68,-184.5 1499.58,-164.83 1390.76,-153.51"/>
<polygon fill="midnightblue" stroke="midnightblue" points="1391.12,-150.03 1380.81,-152.47 1390.39,-156.99 1391.12,-150.03"/>
</g>
<!-- Node12 -->
<g id="node12" class="node">
<title>Node12</title>
<g id="a_node12"><a xlink:href="../../dd/d2d/exception_8h.html" target="_top" xlink:title=" ">
<polygon fill="none" stroke="black" points="1945.5,-134.5 1945.5,-153.5 2062.5,-153.5 2062.5,-134.5 1945.5,-134.5"/>
<text text-anchor="middle" x="2004" y="-141.5" font-family="Helvetica,sans-Serif" font-size="10.00">includes/exception.h</text>
</a>
</g>
</g>
<!-- Node4&#45;&gt;Node12 -->
<g id="edge12" class="edge">
<title>Node4&#45;&gt;Node12</title>
<path fill="none" stroke="midnightblue" d="M1855.89,-190.44C1885.75,-181.28 1933.31,-166.69 1966.46,-156.52"/>
<polygon fill="midnightblue" stroke="midnightblue" points="1967.71,-159.8 1976.24,-153.52 1965.66,-153.1 1967.71,-159.8"/>
</g>
<!-- Node8&#45;&gt;Node3 -->
<g id="edge8" class="edge">
<title>Node8&#45;&gt;Node3</title>
<path fill="none" stroke="midnightblue" d="M1308.2,-134.25C1307.26,-118.08 1307.89,-83.66 1328,-67 1392.26,-13.75 1993.23,-14.82 2155.68,-16.09"/>
<polygon fill="midnightblue" stroke="midnightblue" points="2155.71,-19.59 2165.74,-16.18 2155.77,-12.59 2155.71,-19.59"/>
</g>
<!-- Node9 -->
<g id="node9" class="node">
<title>Node9</title>
<g id="a_node9"><a xlink:title=" ">
<polygon fill="none" stroke="#bfbfbf" points="1337.5,-73 1337.5,-92 1382.5,-92 1382.5,-73 1337.5,-73"/>
<text text-anchor="middle" x="1360" y="-80" font-family="Helvetica,sans-Serif" font-size="10.00">utility</text>
</a>
</g>
</g>
<!-- Node8&#45;&gt;Node9 -->
<g id="edge9" class="edge">
<title>Node8&#45;&gt;Node9</title>
<path fill="none" stroke="midnightblue" d="M1316.31,-134.48C1324.03,-125.46 1336.41,-111.02 1346.02,-99.81"/>
<polygon fill="midnightblue" stroke="midnightblue" points="1348.86,-101.88 1352.71,-92.01 1343.54,-97.32 1348.86,-101.88"/>
</g>
<!-- Node10 -->
<g id="node10" class="node">
<title>Node10</title>
<g id="a_node10"><a xlink:title=" ">
<polygon fill="none" stroke="#bfbfbf" points="1223,-73 1223,-92 1281,-92 1281,-73 1223,-73"/>
<text text-anchor="middle" x="1252" y="-80" font-family="Helvetica,sans-Serif" font-size="10.00">memory</text>
</a>
</g>
</g>
<!-- Node8&#45;&gt;Node10 -->
<g id="edge10" class="edge">
<title>Node8&#45;&gt;Node10</title>
<path fill="none" stroke="midnightblue" d="M1300.83,-134.48C1292.11,-125.37 1278.1,-110.74 1267.31,-99.48"/>
<polygon fill="midnightblue" stroke="midnightblue" points="1269.6,-96.81 1260.15,-92.01 1264.54,-101.65 1269.6,-96.81"/>
</g>
<!-- Node11 -->
<g id="node11" class="node">
<title>Node11</title>
<g id="a_node11"><a xlink:title=" ">
<polygon fill="none" stroke="#bfbfbf" points="570,-67.5 570,-97.5 694,-97.5 694,-67.5 570,-67.5"/>
<text text-anchor="start" x="578" y="-85.5" font-family="Helvetica,sans-Serif" font-size="10.00">intrusive_ptr/intrusive</text>
<text text-anchor="middle" x="632" y="-74.5" font-family="Helvetica,sans-Serif" font-size="10.00">_ptr.hpp</text>
</a>
</g>
</g>
<!-- Node8&#45;&gt;Node11 -->
<g id="edge11" class="edge">
<title>Node8&#45;&gt;Node11</title>
<path fill="none" stroke="midnightblue" d="M1237.19,-136.69C1107.31,-125.27 834.77,-101.32 704.44,-89.87"/>
<polygon fill="midnightblue" stroke="midnightblue" points="704.43,-86.35 694.17,-88.96 703.82,-93.33 704.43,-86.35"/>
</g>
<!-- Node12&#45;&gt;Node2 -->
<g id="edge14" class="edge">
<title>Node12&#45;&gt;Node2</title>
<path fill="none" stroke="midnightblue" d="M1945.14,-138.62C1845.88,-130.91 1649.43,-114.21 1582,-98 1544.52,-88.99 1538.73,-74.91 1501,-67 1298.77,-24.59 634.51,-17.71 479.53,-16.67"/>
<polygon fill="midnightblue" stroke="midnightblue" points="479.29,-13.17 469.27,-16.61 479.24,-20.17 479.29,-13.17"/>
</g>
<!-- Node12&#45;&gt;Node3 -->
<g id="edge15" class="edge">
<title>Node12&#45;&gt;Node3</title>
<path fill="none" stroke="midnightblue" d="M2019.58,-134.43C2035.31,-125.65 2060.18,-111.43 2081,-98 2085.77,-94.92 2144.04,-53.49 2175.75,-30.92"/>
<polygon fill="midnightblue" stroke="midnightblue" points="2177.81,-33.75 2183.92,-25.1 2173.75,-28.05 2177.81,-33.75"/>
</g>
<!-- Node12&#45;&gt;Node5 -->
<g id="edge13" class="edge">
<title>Node12&#45;&gt;Node5</title>
<path fill="none" stroke="midnightblue" d="M1981.36,-134.48C1954.26,-124.27 1908.69,-107.11 1878,-95.55"/>
<polygon fill="midnightblue" stroke="midnightblue" points="1879.19,-92.26 1868.6,-92.01 1876.72,-98.81 1879.19,-92.26"/>
</g>
<!-- Node12&#45;&gt;Node6 -->
<g id="edge16" class="edge">
<title>Node12&#45;&gt;Node6</title>
<path fill="none" stroke="midnightblue" d="M2062.53,-135.83C2068.1,-135.19 2073.65,-134.57 2079,-134 2266.34,-113.97 2490.86,-94.29 2578.92,-86.73"/>
<polygon fill="midnightblue" stroke="midnightblue" points="2579.31,-90.21 2588.97,-85.87 2578.71,-83.24 2579.31,-90.21"/>
</g>
<!-- Node12&#45;&gt;Node7 -->
<g id="edge18" class="edge">
<title>Node12&#45;&gt;Node7</title>
<path fill="none" stroke="midnightblue" d="M2026.15,-134.36C2048.98,-125.42 2085.57,-110.96 2117,-98 2168.62,-76.71 2227.69,-51.35 2266.3,-34.64"/>
<polygon fill="midnightblue" stroke="midnightblue" points="2267.87,-37.77 2275.66,-30.58 2265.09,-31.35 2267.87,-37.77"/>
</g>
<!-- Node13 -->
<g id="node13" class="node">
<title>Node13</title>
<g id="a_node13"><a xlink:title=" ">
<polygon fill="none" stroke="#bfbfbf" points="1194.5,-6 1194.5,-25 1241.5,-25 1241.5,-6 1194.5,-6"/>
<text text-anchor="middle" x="1218" y="-13" font-family="Helvetica,sans-Serif" font-size="10.00">vector</text>
</a>
</g>
</g>
<!-- Node12&#45;&gt;Node13 -->
<g id="edge17" class="edge">
<title>Node12&#45;&gt;Node13</title>
<path fill="none" stroke="midnightblue" d="M1987.44,-134.37C1971.35,-125.78 1946.42,-111.9 1926,-98 1907.69,-85.54 1907.62,-75.08 1887,-67 1769.48,-20.95 1371.44,-16.68 1252.09,-16.45"/>
<polygon fill="midnightblue" stroke="midnightblue" points="1251.75,-12.95 1241.75,-16.44 1251.75,-19.95 1251.75,-12.95"/>
</g>
<!-- Node14 -->
<g id="node14" class="node">
<title>Node14</title>
<g id="a_node14"><a xlink:href="../../da/da6/code__location_8h.html" target="_top" xlink:title=" ">
<polygon fill="none" stroke="black" points="1935.5,-73 1935.5,-92 2072.5,-92 2072.5,-73 1935.5,-73"/>
<text text-anchor="middle" x="2004" y="-80" font-family="Helvetica,sans-Serif" font-size="10.00">includes/code_location.h</text>
</a>
</g>
</g>
<!-- Node12&#45;&gt;Node14 -->
<g id="edge19" class="edge">
<title>Node12&#45;&gt;Node14</title>
<path fill="none" stroke="midnightblue" d="M2004,-134.48C2004,-126.08 2004,-112.98 2004,-102.16"/>
<polygon fill="midnightblue" stroke="midnightblue" points="2007.5,-102.01 2004,-92.01 2000.5,-102.01 2007.5,-102.01"/>
</g>
<!-- Node15 -->
<g id="node15" class="node">
<title>Node15</title>
<g id="a_node15"><a xlink:href="../../d9/d06/stl__vector__io_8h.html" target="_top" xlink:title=" ">
<polygon fill="none" stroke="black" points="1591,-73 1591,-92 1719,-92 1719,-73 1591,-73"/>
<text text-anchor="middle" x="1655" y="-80" font-family="Helvetica,sans-Serif" font-size="10.00">utilities/stl_vector_io.h</text>
</a>
</g>
</g>
<!-- Node12&#45;&gt;Node15 -->
<g id="edge23" class="edge">
<title>Node12&#45;&gt;Node15</title>
<path fill="none" stroke="midnightblue" d="M1954,-134.48C1890.89,-123.72 1782.46,-105.23 1714.97,-93.72"/>
<polygon fill="midnightblue" stroke="midnightblue" points="1715.36,-90.24 1704.91,-92.01 1714.18,-97.14 1715.36,-90.24"/>
</g>
<!-- Node14&#45;&gt;Node2 -->
<g id="edge20" class="edge">
<title>Node14&#45;&gt;Node2</title>
<path fill="none" stroke="midnightblue" d="M1943.68,-72.99C1925.5,-70.71 1905.47,-68.47 1887,-67 1600.02,-44.23 665.05,-21.58 479.27,-17.24"/>
<polygon fill="midnightblue" stroke="midnightblue" points="479.15,-13.74 469.07,-17.01 478.98,-20.74 479.15,-13.74"/>
</g>
<!-- Node14&#45;&gt;Node3 -->
<g id="edge21" class="edge">
<title>Node14&#45;&gt;Node3</title>
<path fill="none" stroke="midnightblue" d="M2029.5,-72.87C2063.3,-61.42 2123.1,-41.18 2161.08,-28.32"/>
<polygon fill="midnightblue" stroke="midnightblue" points="2162.35,-31.59 2170.7,-25.06 2160.11,-24.96 2162.35,-31.59"/>
</g>
<!-- Node14&#45;&gt;Node7 -->
<g id="edge22" class="edge">
<title>Node14&#45;&gt;Node7</title>
<path fill="none" stroke="midnightblue" d="M2044.06,-72.94C2092.22,-62.64 2174.03,-45.15 2233.83,-32.36"/>
<polygon fill="midnightblue" stroke="midnightblue" points="2234.93,-35.7 2243.97,-30.19 2233.46,-28.86 2234.93,-35.7"/>
</g>
<!-- Node15&#45;&gt;Node3 -->
<g id="edge24" class="edge">
<title>Node15&#45;&gt;Node3</title>
<path fill="none" stroke="midnightblue" d="M1697.82,-72.94C1709.22,-70.83 1721.55,-68.69 1733,-67 1888.61,-44.08 2075.05,-26.84 2155.64,-19.87"/>
<polygon fill="midnightblue" stroke="midnightblue" points="2156.17,-23.34 2165.84,-19 2155.57,-16.37 2156.17,-23.34"/>
</g>
<!-- Node15&#45;&gt;Node13 -->
<g id="edge25" class="edge">
<title>Node15&#45;&gt;Node13</title>
<path fill="none" stroke="midnightblue" d="M1610.92,-72.96C1599.86,-70.91 1588.01,-68.8 1577,-67 1457.8,-47.55 1315.58,-28.88 1251.83,-20.75"/>
<polygon fill="midnightblue" stroke="midnightblue" points="1251.94,-17.24 1241.58,-19.45 1251.06,-24.18 1251.94,-17.24"/>
</g>
<!-- Node16&#45;&gt;Node2 -->
<g id="edge27" class="edge">
<title>Node16&#45;&gt;Node2</title>
<path fill="none" stroke="midnightblue" d="M2173.12,-623.94C1882.87,-623.46 629.39,-619.06 460,-579 428.46,-571.54 424.3,-559.51 394,-548 274.31,-502.53 220.65,-536.4 121,-456 92.07,-432.66 76,-422.67 76,-385.5 76,-385.5 76,-385.5 76,-143 76,-103.05 90.61,-88.94 124,-67 171.49,-35.8 342.27,-22.51 414.44,-18.2"/>
<polygon fill="midnightblue" stroke="midnightblue" points="414.97,-21.68 424.75,-17.61 414.56,-14.69 414.97,-21.68"/>
</g>
<!-- Node16&#45;&gt;Node3 -->
<g id="edge28" class="edge">
<title>Node16&#45;&gt;Node3</title>
<path fill="none" stroke="midnightblue" d="M2292.86,-623.27C2424.27,-621.07 2734.16,-612.39 2833,-579 2946.14,-540.78 3216,-399.51 3216,-318.5 3216,-318.5 3216,-318.5 3216,-143 3216,-78.36 3153.83,-85.85 3092,-67 2909.67,-11.41 2421.85,-68.68 2235,-31 2231.74,-30.34 2228.4,-29.45 2225.1,-28.44"/>
<polygon fill="midnightblue" stroke="midnightblue" points="2226.08,-25.07 2215.49,-25.11 2223.79,-31.69 2226.08,-25.07"/>
</g>
<!-- Node16&#45;&gt;Node4 -->
<g id="edge31" class="edge">
<title>Node16&#45;&gt;Node4</title>
<path fill="none" stroke="midnightblue" d="M2292.61,-621.07C2386.23,-615.81 2563.04,-603 2621,-579 2671.28,-558.18 2717,-557.42 2717,-503 2717,-503 2717,-503 2717,-445 2717,-342.35 2610.42,-370.84 2515,-333 2484.5,-320.9 2477.78,-315.76 2448,-302 2413.34,-285.98 2404.14,-283.09 2370,-266 2353.28,-257.63 2350.9,-251.38 2333,-246 2251.18,-221.39 2003.03,-208.22 1887.88,-203.3"/>
<polygon fill="midnightblue" stroke="midnightblue" points="1887.96,-199.8 1877.82,-202.88 1887.67,-206.8 1887.96,-199.8"/>
</g>
<!-- Node17 -->
<g id="node17" class="node">
<title>Node17</title>
<g id="a_node17"><a xlink:title=" ">
<polygon fill="none" stroke="#bfbfbf" points="2236.5,-246.5 2236.5,-265.5 2289.5,-265.5 2289.5,-246.5 2236.5,-246.5"/>
<text text-anchor="middle" x="2263" y="-253.5" font-family="Helvetica,sans-Serif" font-size="10.00">cstddef</text>
</a>
</g>
</g>
<!-- Node16&#45;&gt;Node17 -->
<g id="edge29" class="edge">
<title>Node16&#45;&gt;Node17</title>
<path fill="none" stroke="midnightblue" d="M2292.69,-620.31C2414.22,-611.15 2679,-582.13 2679,-503 2679,-503 2679,-503 2679,-445 2679,-383.36 2617.87,-397.07 2563,-369 2488.85,-331.07 2466.07,-331 2388,-302 2357.27,-290.59 2322.13,-277.98 2296.95,-269.01"/>
<polygon fill="midnightblue" stroke="midnightblue" points="2298.08,-265.7 2287.48,-265.65 2295.73,-272.3 2298.08,-265.7"/>
</g>
<!-- Node18 -->
<g id="node18" class="node">
<title>Node18</title>
<g id="a_node18"><a xlink:title=" ">
<polygon fill="none" stroke="#bfbfbf" points="1592.5,-246.5 1592.5,-265.5 1685.5,-265.5 1685.5,-246.5 1592.5,-246.5"/>
<text text-anchor="middle" x="1639" y="-253.5" font-family="Helvetica,sans-Serif" font-size="10.00">unordered_map</text>
</a>
</g>
</g>
<!-- Node16&#45;&gt;Node18 -->
<g id="edge30" class="edge">
<title>Node16&#45;&gt;Node18</title>
<path fill="none" stroke="midnightblue" d="M2173.24,-620.88C2073.62,-615.13 1878.11,-601.37 1813,-579 1631.12,-516.5 1541.43,-505.8 1457,-333 1431.48,-280.76 1519.88,-264.38 1582.31,-259.28"/>
<polygon fill="midnightblue" stroke="midnightblue" points="1582.75,-262.76 1592.47,-258.53 1582.24,-255.77 1582.75,-262.76"/>
</g>
<!-- Node19 -->
<g id="node19" class="node">
<title>Node19</title>
<g id="a_node19"><a xlink:href="../../dc/dee/accessor_8h.html" target="_top" xlink:title=" ">
<polygon fill="none" stroke="black" points="2103.5,-554 2103.5,-573 2214.5,-573 2214.5,-554 2103.5,-554"/>
<text text-anchor="middle" x="2159" y="-561" font-family="Helvetica,sans-Serif" font-size="10.00">includes/accessor.h</text>
</a>
</g>
</g>
<!-- Node16&#45;&gt;Node19 -->
<g id="edge32" class="edge">
<title>Node16&#45;&gt;Node19</title>
<path fill="none" stroke="midnightblue" d="M2222.4,-615.48C2210.75,-606.11 2191.81,-590.88 2177.67,-579.51"/>
<polygon fill="midnightblue" stroke="midnightblue" points="2179.57,-576.55 2169.58,-573.01 2175.18,-582 2179.57,-576.55"/>
</g>
<!-- Node66 -->
<g id="node25" class="node">
<title>Node66</title>
<g id="a_node25"><a xlink:href="../../d1/d82/data__value__container_8h.html" target="_top" xlink:title=" ">
<polygon fill="none" stroke="black" points="1707.5,-369.5 1707.5,-399.5 1832.5,-399.5 1832.5,-369.5 1707.5,-369.5"/>
<text text-anchor="start" x="1715.5" y="-387.5" font-family="Helvetica,sans-Serif" font-size="10.00">containers/data_value</text>
<text text-anchor="middle" x="1770" y="-376.5" font-family="Helvetica,sans-Serif" font-size="10.00">_container.h</text>
</a>
</g>
</g>
<!-- Node16&#45;&gt;Node66 -->
<g id="edge130" class="edge">
<title>Node16&#45;&gt;Node66</title>
<path fill="none" stroke="midnightblue" d="M2173.19,-621.92C2076.22,-616.14 1881.5,-594.3 1742,-512 1705.4,-490.41 1662.89,-472.88 1684,-436 1691.83,-422.32 1704.97,-411.98 1718.65,-404.34"/>
<polygon fill="midnightblue" stroke="midnightblue" points="1720.38,-407.39 1727.67,-399.7 1717.18,-401.16 1720.38,-407.39"/>
</g>
<!-- Node92 -->
<g id="node28" class="node">
<title>Node92</title>
<g id="a_node28"><a xlink:href="../../de/db8/process__info_8h.html" target="_top" xlink:title=" ">
<polygon fill="none" stroke="black" points="2414.5,-436.5 2414.5,-455.5 2545.5,-455.5 2545.5,-436.5 2414.5,-436.5"/>
<text text-anchor="middle" x="2480" y="-443.5" font-family="Helvetica,sans-Serif" font-size="10.00">includes/process_info.h</text>
</a>
</g>
</g>
<!-- Node16&#45;&gt;Node92 -->
<g id="edge131" class="edge">
<title>Node16&#45;&gt;Node92</title>
<path fill="none" stroke="midnightblue" d="M2238.22,-615.19C2252.56,-591.7 2295,-526.99 2347,-492 2370.83,-475.96 2400.91,-465.15 2426.43,-458.16"/>
<polygon fill="midnightblue" stroke="midnightblue" points="2427.54,-461.49 2436.33,-455.57 2425.77,-454.71 2427.54,-461.49"/>
</g>
<!-- Node93 -->
<g id="node29" class="node">
<title>Node93</title>
<g id="a_node29"><a xlink:href="../../d1/d77/node_8h.html" target="_top" xlink:title=" ">
<polygon fill="none" stroke="black" points="1751.5,-492.5 1751.5,-511.5 1844.5,-511.5 1844.5,-492.5 1751.5,-492.5"/>
<text text-anchor="middle" x="1798" y="-499.5" font-family="Helvetica,sans-Serif" font-size="10.00">includes/node.h</text>
</a>
</g>
</g>
<!-- Node16&#45;&gt;Node93 -->
<g id="edge125" class="edge">
<title>Node16&#45;&gt;Node93</title>
<path fill="none" stroke="midnightblue" d="M2202.41,-615.49C2125.68,-594.15 1924.99,-538.32 1838.56,-514.28"/>
<polygon fill="midnightblue" stroke="midnightblue" points="1839.42,-510.89 1828.85,-511.58 1837.54,-517.63 1839.42,-510.89"/>
</g>
<!-- Node105 -->
<g id="node38" class="node">
<title>Node105</title>
<g id="a_node38"><a xlink:href="../../de/d69/indexed__object_8h.html" target="_top" xlink:title=" ">
<polygon fill="none" stroke="black" points="2127.5,-375 2127.5,-394 2270.5,-394 2270.5,-375 2127.5,-375"/>
<text text-anchor="middle" x="2199" y="-382" font-family="Helvetica,sans-Serif" font-size="10.00">includes/indexed_object.h</text>
</a>
</g>
</g>
<!-- Node16&#45;&gt;Node105 -->
<g id="edge126" class="edge">
<title>Node16&#45;&gt;Node105</title>
<path fill="none" stroke="midnightblue" d="M2234.16,-615.16C2237.44,-587.87 2245.4,-502.74 2227,-436 2223.72,-424.11 2217.13,-411.99 2211.17,-402.6"/>
<polygon fill="midnightblue" stroke="midnightblue" points="2214.03,-400.59 2205.56,-394.24 2208.22,-404.49 2214.03,-400.59"/>
</g>
<!-- Node106 -->
<g id="node39" class="node">
<title>Node106</title>
<g id="a_node39"><a xlink:href="../../dd/d98/table_8h.html" target="_top" xlink:title=" ">
<polygon fill="none" stroke="black" points="2524,-308 2524,-327 2618,-327 2618,-308 2524,-308"/>
<text text-anchor="middle" x="2571" y="-315" font-family="Helvetica,sans-Serif" font-size="10.00">includes/table.h</text>
</a>
</g>
</g>
<!-- Node16&#45;&gt;Node106 -->
<g id="edge132" class="edge">
<title>Node16&#45;&gt;Node106</title>
<path fill="none" stroke="midnightblue" d="M2292.54,-624.12C2386.85,-623.1 2575.85,-616.05 2731,-579 2819.86,-557.78 2922,-594.36 2922,-503 2922,-503 2922,-503 2922,-445 2922,-383.32 2727.72,-343.4 2628.24,-327"/>
<polygon fill="midnightblue" stroke="midnightblue" points="2628.77,-323.54 2618.34,-325.39 2627.65,-330.45 2628.77,-323.54"/>
</g>
<!-- Node81 -->
<g id="node40" class="node">
<title>Node81</title>
<g id="a_node40"><a xlink:href="../../d9/d9f/string__utilities_8h.html" target="_top" xlink:title=" ">
<polygon fill="none" stroke="black" points="608.5,-246.5 608.5,-265.5 743.5,-265.5 743.5,-246.5 608.5,-246.5"/>
<text text-anchor="middle" x="676" y="-253.5" font-family="Helvetica,sans-Serif" font-size="10.00">utilities/string_utilities.h</text>
</a>
</g>
</g>
<!-- Node16&#45;&gt;Node81 -->
<g id="edge138" class="edge">
<title>Node16&#45;&gt;Node81</title>
<path fill="none" stroke="midnightblue" d="M2173.3,-622.91C1853.4,-616.75 354.19,-584.14 290,-512 224.02,-437.85 275.92,-343.68 366,-302 406.09,-283.45 520.14,-270.32 598.13,-263.2"/>
<polygon fill="midnightblue" stroke="midnightblue" points="598.76,-266.66 608.41,-262.28 598.14,-259.69 598.76,-266.66"/>
</g>
<!-- Node20 -->
<g id="node20" class="node">
<title>Node20</title>
<g id="a_node20"><a xlink:href="../../d4/d67/geometry_8h.html" target="_top" xlink:title=" ">
<polygon fill="none" stroke="red" points="2088,-436.5 2088,-455.5 2218,-455.5 2218,-436.5 2088,-436.5"/>
<text text-anchor="middle" x="2153" y="-443.5" font-family="Helvetica,sans-Serif" font-size="10.00">geometries/geometry.h</text>
</a>
</g>
</g>
<!-- Node19&#45;&gt;Node20 -->
<g id="edge33" class="edge">
<title>Node19&#45;&gt;Node20</title>
<path fill="none" stroke="midnightblue" d="M2158.55,-553.82C2157.58,-535.26 2155.3,-491.34 2153.99,-465.97"/>
<polygon fill="midnightblue" stroke="midnightblue" points="2157.47,-465.59 2153.46,-455.78 2150.48,-465.95 2157.47,-465.59"/>
</g>
<!-- Node19&#45;&gt;Node92 -->
<g id="edge69" class="edge">
<title>Node19&#45;&gt;Node92</title>
<path fill="none" stroke="midnightblue" d="M2171.41,-553.79C2193.07,-538.98 2239.61,-508.87 2283,-492 2324.72,-475.78 2373.79,-464.55 2412.52,-457.36"/>
<polygon fill="midnightblue" stroke="midnightblue" points="2413.43,-460.76 2422.65,-455.53 2412.18,-453.87 2413.43,-460.76"/>
</g>
<!-- Node19&#45;&gt;Node93 -->
<g id="edge77" class="edge">
<title>Node19&#45;&gt;Node93</title>
<path fill="none" stroke="midnightblue" d="M2107.28,-553.98C2040.29,-542.93 1923.92,-523.75 1854.62,-512.33"/>
<polygon fill="midnightblue" stroke="midnightblue" points="1855.19,-508.88 1844.75,-510.71 1854.05,-515.79 1855.19,-508.88"/>
</g>
<!-- Node40 -->
<g id="node21" class="node">
<title>Node40</title>
<g id="a_node21"><a xlink:href="../../d2/d91/point_8h.html" target="_top" xlink:title=" ">
<polygon fill="none" stroke="red" points="1580.5,-375 1580.5,-394 1689.5,-394 1689.5,-375 1580.5,-375"/>
<text text-anchor="middle" x="1635" y="-382" font-family="Helvetica,sans-Serif" font-size="10.00">geometries/point.h</text>
</a>
</g>
</g>
<!-- Node20&#45;&gt;Node40 -->
<g id="edge34" class="edge">
<title>Node20&#45;&gt;Node40</title>
<path fill="none" stroke="midnightblue" d="M2087.86,-441.18C1999.23,-435.39 1835.87,-422.59 1698,-400 1691.68,-398.96 1685.04,-397.67 1678.54,-396.28"/>
<polygon fill="midnightblue" stroke="midnightblue" points="1679.04,-392.81 1668.52,-394.05 1677.52,-399.64 1679.04,-392.81"/>
</g>
<!-- Node53 -->
<g id="node23" class="node">
<title>Node53</title>
<g id="a_node23"><a xlink:href="../../d1/d8c/logger_8h.html" target="_top" xlink:title=" ">
<polygon fill="none" stroke="red" points="2460,-246.5 2460,-265.5 2580,-265.5 2580,-246.5 2460,-246.5"/>
<text text-anchor="middle" x="2520" y="-253.5" font-family="Helvetica,sans-Serif" font-size="10.00">input_output/logger.h</text>
</a>
</g>
</g>
<!-- Node20&#45;&gt;Node53 -->
<g id="edge68" class="edge">
<title>Node20&#45;&gt;Node53</title>
<path fill="none" stroke="midnightblue" d="M2177.67,-436.34C2203.11,-427.37 2243.9,-412.9 2279,-400 2315.57,-386.56 2323.23,-378.56 2361,-369 2418.83,-354.36 2587.75,-377.92 2627,-333 2636.07,-322.62 2634.62,-313.48 2627,-302 2616.22,-285.78 2598.34,-275.39 2580.24,-268.75"/>
<polygon fill="midnightblue" stroke="midnightblue" points="2581.1,-265.34 2570.51,-265.51 2578.9,-271.99 2581.1,-265.34"/>
</g>
<!-- Node20&#45;&gt;Node66 -->
<g id="edge50" class="edge">
<title>Node20&#45;&gt;Node66</title>
<path fill="none" stroke="midnightblue" d="M2089.88,-436.47C2027.93,-427.92 1930.81,-414.05 1847,-400 1845.53,-399.75 1844.05,-399.5 1842.56,-399.25"/>
<polygon fill="midnightblue" stroke="midnightblue" points="1843.03,-395.78 1832.58,-397.5 1841.82,-402.67 1843.03,-395.78"/>
</g>
<!-- Node40&#45;&gt;Node4 -->
<g id="edge35" class="edge">
<title>Node40&#45;&gt;Node4</title>
<path fill="none" stroke="midnightblue" d="M1637.84,-374.8C1643.36,-358.91 1656.8,-324.73 1677,-302 1712.47,-262.09 1767.06,-230.8 1799.97,-214.18"/>
<polygon fill="midnightblue" stroke="midnightblue" points="1801.63,-217.26 1809.05,-209.69 1798.53,-210.99 1801.63,-217.26"/>
</g>
<!-- Node47 -->
<g id="node22" class="node">
<title>Node47</title>
<g id="a_node22"><a xlink:href="../../dd/d5f/serializer_8h.html" target="_top" xlink:title=" ">
<polygon fill="none" stroke="red" points="1686.5,-308 1686.5,-327 1799.5,-327 1799.5,-308 1686.5,-308"/>
<text text-anchor="middle" x="1743" y="-315" font-family="Helvetica,sans-Serif" font-size="10.00">includes/serializer.h</text>
</a>
</g>
</g>
<!-- Node40&#45;&gt;Node47 -->
<g id="edge36" class="edge">
<title>Node40&#45;&gt;Node47</title>
<path fill="none" stroke="midnightblue" d="M1649.57,-374.73C1667.62,-363.87 1698.61,-345.22 1719.92,-332.39"/>
<polygon fill="midnightblue" stroke="midnightblue" points="1721.9,-335.28 1728.67,-327.13 1718.29,-329.29 1721.9,-335.28"/>
</g>
<!-- Node47&#45;&gt;Node2 -->
<g id="edge37" class="edge">
<title>Node47&#45;&gt;Node2</title>
<path fill="none" stroke="midnightblue" d="M1686.36,-309.9C1660.12,-307.06 1628.5,-303.96 1600,-302 1544.48,-298.19 644.61,-297.88 599,-266 520.74,-211.29 577.26,-141.87 518,-67 505.87,-51.68 487.9,-38.96 473.08,-30.12"/>
<polygon fill="midnightblue" stroke="midnightblue" points="474.75,-27.05 464.33,-25.13 471.28,-33.12 474.75,-27.05"/>
</g>
<!-- Node47&#45;&gt;Node3 -->
<g id="edge39" class="edge">
<title>Node47&#45;&gt;Node3</title>
<path fill="none" stroke="midnightblue" d="M1767.8,-307.88C1824.99,-287.24 1969.04,-230.95 2071,-154 2118.89,-117.86 2163.17,-61.66 2183.81,-33.62"/>
<polygon fill="midnightblue" stroke="midnightblue" points="2186.83,-35.41 2189.87,-25.26 2181.17,-31.3 2186.83,-35.41"/>
</g>
<!-- Node47&#45;&gt;Node4 -->
<g id="edge41" class="edge">
<title>Node47&#45;&gt;Node4</title>
<path fill="none" stroke="midnightblue" d="M1745.8,-307.61C1750.51,-293.58 1761,-265.83 1776,-246 1784.67,-234.54 1796.67,-223.92 1806.96,-215.87"/>
<polygon fill="midnightblue" stroke="midnightblue" points="1809.21,-218.56 1815.1,-209.76 1805,-212.97 1809.21,-218.56"/>
</g>
<!-- Node47&#45;&gt;Node6 -->
<g id="edge38" class="edge">
<title>Node47&#45;&gt;Node6</title>
<path fill="none" stroke="midnightblue" d="M1775.14,-307.93C1910.33,-271.89 2432.52,-132.68 2578.75,-93.7"/>
<polygon fill="midnightblue" stroke="midnightblue" points="2579.86,-97.02 2588.62,-91.07 2578.05,-90.26 2579.86,-97.02"/>
</g>
<!-- Node47&#45;&gt;Node18 -->
<g id="edge40" class="edge">
<title>Node47&#45;&gt;Node18</title>
<path fill="none" stroke="midnightblue" d="M1728.1,-307.98C1711.03,-298.21 1682.84,-282.08 1662.74,-270.58"/>
<polygon fill="midnightblue" stroke="midnightblue" points="1664.29,-267.44 1653.87,-265.51 1660.81,-273.51 1664.29,-267.44"/>
</g>
<!-- Node47&#45;&gt;Node53 -->
<g id="edge42" class="edge">
<title>Node47&#45;&gt;Node53</title>
<path fill="none" stroke="midnightblue" d="M1799.51,-312.17C1938.62,-301.52 2297.39,-274.05 2449.82,-262.37"/>
<polygon fill="midnightblue" stroke="midnightblue" points="2450.29,-265.85 2459.99,-261.6 2449.76,-258.87 2450.29,-265.85"/>
</g>
<!-- Node57 -->
<g id="node24" class="node">
<title>Node57</title>
<g id="a_node24"><a xlink:href="../../d9/da0/flags_8h.html" target="_top" xlink:title=" ">
<polygon fill="none" stroke="black" points="1318.5,-246.5 1318.5,-265.5 1421.5,-265.5 1421.5,-246.5 1318.5,-246.5"/>
<text text-anchor="middle" x="1370" y="-253.5" font-family="Helvetica,sans-Serif" font-size="10.00">containers/flags.h</text>
</a>
</g>
</g>
<!-- Node47&#45;&gt;Node57 -->
<g id="edge46" class="edge">
<title>Node47&#45;&gt;Node57</title>
<path fill="none" stroke="midnightblue" d="M1703.27,-307.99C1693.09,-305.93 1682.16,-303.79 1672,-302 1589.22,-287.39 1493.11,-273.61 1431.96,-265.24"/>
<polygon fill="midnightblue" stroke="midnightblue" points="1432.08,-261.73 1421.7,-263.85 1431.14,-268.66 1432.08,-261.73"/>
</g>
<!-- Node53&#45;&gt;Node2 -->
<g id="edge43" class="edge">
<title>Node53&#45;&gt;Node2</title>
<path fill="none" stroke="midnightblue" d="M2459.75,-247.72C2399.34,-240 2303.78,-226.62 2222,-210 2186.93,-202.87 2178.99,-197.5 2144,-190 2052.27,-170.33 2028.16,-171.57 1936,-154 1893.19,-145.84 1883.06,-140.75 1840,-134 1690.32,-110.52 1647.93,-134.98 1501,-98 1465.62,-89.1 1460.6,-74.94 1425,-67 1238.83,-25.48 627.66,-17.95 479.55,-16.72"/>
<polygon fill="midnightblue" stroke="midnightblue" points="479.34,-13.22 469.31,-16.64 479.28,-20.22 479.34,-13.22"/>
</g>
<!-- Node53&#45;&gt;Node3 -->
<g id="edge44" class="edge">
<title>Node53&#45;&gt;Node3</title>
<path fill="none" stroke="midnightblue" d="M2508.08,-246.23C2459.65,-210.58 2277.23,-76.29 2216.1,-31.3"/>
<polygon fill="midnightblue" stroke="midnightblue" points="2217.81,-28.21 2207.68,-25.1 2213.66,-33.85 2217.81,-28.21"/>
</g>
<!-- Node53&#45;&gt;Node12 -->
<g id="edge45" class="edge">
<title>Node53&#45;&gt;Node12</title>
<path fill="none" stroke="midnightblue" d="M2481.45,-246.45C2424.69,-233.89 2315.24,-209.79 2222,-190 2165.36,-177.98 2100.35,-164.61 2056.16,-155.6"/>
<polygon fill="midnightblue" stroke="midnightblue" points="2056.73,-152.14 2046.23,-153.57 2055.33,-159 2056.73,-152.14"/>
</g>
<!-- Node57&#45;&gt;Node2 -->
<g id="edge47" class="edge">
<title>Node57&#45;&gt;Node2</title>
<path fill="none" stroke="midnightblue" d="M1347.34,-246.47C1269,-217.27 1001.95,-120.23 774,-67 667.36,-42.1 538.21,-26.28 479.21,-19.83"/>
<polygon fill="midnightblue" stroke="midnightblue" points="479.35,-16.32 469.03,-18.73 478.6,-23.28 479.35,-16.32"/>
</g>
<!-- Node57&#45;&gt;Node3 -->
<g id="edge48" class="edge">
<title>Node57&#45;&gt;Node3</title>
<path fill="none" stroke="midnightblue" d="M1421.56,-246.63C1423.05,-246.42 1424.54,-246.21 1426,-246 1492.49,-236.67 1670.41,-247.66 1726,-210 1785.94,-169.4 1744.24,-107.86 1804,-67 1860.54,-28.34 2067.28,-19.26 2155.58,-17.14"/>
<polygon fill="midnightblue" stroke="midnightblue" points="2155.82,-20.64 2165.74,-16.92 2155.67,-13.64 2155.82,-20.64"/>
</g>
<!-- Node57&#45;&gt;Node4 -->
<g id="edge49" class="edge">
<title>Node57&#45;&gt;Node4</title>
<path fill="none" stroke="midnightblue" d="M1421.51,-247.84C1426.4,-247.2 1431.29,-246.58 1436,-246 1581.56,-228.09 1618.48,-228.21 1764,-210 1765.46,-209.82 1766.94,-209.63 1768.43,-209.44"/>
<polygon fill="midnightblue" stroke="midnightblue" points="1768.95,-212.9 1778.41,-208.13 1768.03,-205.96 1768.95,-212.9"/>
</g>
<!-- Node66&#45;&gt;Node2 -->
<g id="edge51" class="edge">
<title>Node66&#45;&gt;Node2</title>
<path fill="none" stroke="midnightblue" d="M1707.26,-370.33C1704.13,-369.84 1701.03,-369.39 1698,-369 1426.02,-333.84 1354.66,-362.46 1082,-333 994.32,-323.53 973.52,-312.89 886,-302 798.31,-291.09 560.14,-319.75 490,-266 465.56,-247.27 466,-231.8 466,-201 466,-201 466,-201 466,-143 466,-104.27 457.18,-59.61 451.56,-35.07"/>
<polygon fill="midnightblue" stroke="midnightblue" points="454.89,-33.94 449.18,-25.02 448.08,-35.56 454.89,-33.94"/>
</g>
<!-- Node66&#45;&gt;Node3 -->
<g id="edge52" class="edge">
<title>Node66&#45;&gt;Node3</title>
<path fill="none" stroke="midnightblue" d="M1832.59,-376.69C1858.94,-374 1889.93,-371.06 1918,-369 1999.43,-363.02 2578.05,-367.61 2652,-333 2693.59,-313.53 2722,-302.92 2722,-257 2722,-257 2722,-257 2722,-143 2722,-103.75 2710.29,-87.81 2677,-67 2593.44,-14.76 2331.2,-52.37 2235,-31 2231.93,-30.32 2228.77,-29.45 2225.64,-28.47"/>
<polygon fill="midnightblue" stroke="midnightblue" points="2226.52,-25.07 2215.92,-25.11 2224.23,-31.68 2226.52,-25.07"/>
</g>
<!-- Node66&#45;&gt;Node4 -->
<g id="edge55" class="edge">
<title>Node66&#45;&gt;Node4</title>
<path fill="none" stroke="midnightblue" d="M1783.79,-369.26C1792.16,-359.76 1802.31,-346.56 1808,-333 1823.95,-295.03 1827.4,-246.17 1828.01,-219.83"/>
<polygon fill="midnightblue" stroke="midnightblue" points="1831.51,-219.77 1828.13,-209.73 1824.51,-219.69 1831.51,-219.77"/>
</g>
<!-- Node66&#45;&gt;Node12 -->
<g id="edge67" class="edge">
<title>Node66&#45;&gt;Node12</title>
<path fill="none" stroke="midnightblue" d="M1832.6,-376.71C1858.94,-374.02 1889.94,-371.09 1918,-369 1957.33,-366.08 2599.83,-361.59 2627,-333 2790.54,-160.94 2265.94,-144.68 2072.63,-144.37"/>
<polygon fill="midnightblue" stroke="midnightblue" points="2072.58,-140.87 2062.58,-144.37 2072.58,-147.87 2072.58,-140.87"/>
</g>
<!-- Node66&#45;&gt;Node13 -->
<g id="edge54" class="edge">
<title>Node66&#45;&gt;Node13</title>
<path fill="none" stroke="midnightblue" d="M1707.24,-370.43C1704.12,-369.92 1701.03,-369.44 1698,-369 1516.07,-342.82 1467.7,-360.78 1286,-333 1251.7,-327.76 1006.09,-289.97 981,-266 915.44,-203.36 877.81,-136.54 936,-67 967.28,-29.62 1115.99,-19.87 1183.96,-17.36"/>
<polygon fill="midnightblue" stroke="midnightblue" points="1184.27,-20.85 1194.14,-17.02 1184.03,-13.86 1184.27,-20.85"/>
</g>
<!-- Node66&#45;&gt;Node17 -->
<g id="edge53" class="edge">
<title>Node66&#45;&gt;Node17</title>
<path fill="none" stroke="midnightblue" d="M1820.89,-369.46C1881.36,-352.89 1985.34,-324.71 2075,-302 2127.49,-288.71 2188.48,-274.3 2226.42,-265.46"/>
<polygon fill="midnightblue" stroke="midnightblue" points="2227.54,-268.79 2236.48,-263.12 2225.95,-261.97 2227.54,-268.79"/>
</g>
<!-- Node67 -->
<g id="node26" class="node">
<title>Node67</title>
<g id="a_node26"><a xlink:href="../../da/d89/variable_8h.html" target="_top" xlink:title=" ">
<polygon fill="none" stroke="red" points="990.5,-246.5 990.5,-265.5 1109.5,-265.5 1109.5,-246.5 990.5,-246.5"/>
<text text-anchor="middle" x="1050" y="-253.5" font-family="Helvetica,sans-Serif" font-size="10.00">containers/variable.h</text>
</a>
</g>
</g>
<!-- Node66&#45;&gt;Node67 -->
<g id="edge56" class="edge">
<title>Node66&#45;&gt;Node67</title>
<path fill="none" stroke="midnightblue" d="M1707.21,-370.66C1704.1,-370.09 1701.01,-369.53 1698,-369 1591.33,-350.3 1563.8,-350.94 1457,-333 1329.63,-311.6 1180.55,-282.8 1102.99,-267.53"/>
<polygon fill="midnightblue" stroke="midnightblue" points="1103.47,-264.06 1092.98,-265.56 1102.11,-270.93 1103.47,-264.06"/>
</g>
<!-- Node84 -->
<g id="node27" class="node">
<title>Node84</title>
<g id="a_node27"><a xlink:href="../../dc/d8e/kratos__components_8h.html" target="_top" xlink:title=" ">
<polygon fill="none" stroke="red" points="712.5,-308 712.5,-327 877.5,-327 877.5,-308 712.5,-308"/>
<text text-anchor="middle" x="795" y="-315" font-family="Helvetica,sans-Serif" font-size="10.00">includes/kratos_components.h</text>
</a>
</g>
</g>
<!-- Node66&#45;&gt;Node84 -->
<g id="edge61" class="edge">
<title>Node66&#45;&gt;Node84</title>
<path fill="none" stroke="midnightblue" d="M1707.26,-370.31C1704.13,-369.83 1701.04,-369.39 1698,-369 1409.23,-332.17 1334.64,-349.46 1044,-333 992.34,-330.07 934.67,-326.72 887.84,-323.98"/>
<polygon fill="midnightblue" stroke="midnightblue" points="887.9,-320.47 877.71,-323.38 887.49,-327.46 887.9,-320.47"/>
</g>
<!-- Node67&#45;&gt;Node2 -->
<g id="edge57" class="edge">
<title>Node67&#45;&gt;Node2</title>
<path fill="none" stroke="midnightblue" d="M1038.64,-246.43C998.32,-216.48 857.47,-115.66 725,-67 639.71,-35.67 532.29,-23.24 479.43,-18.76"/>
<polygon fill="midnightblue" stroke="midnightblue" points="479.55,-15.26 469.3,-17.94 478.99,-22.24 479.55,-15.26"/>
</g>
<!-- Node67&#45;&gt;Node3 -->
<g id="edge58" class="edge">
<title>Node67&#45;&gt;Node3</title>
<path fill="none" stroke="midnightblue" d="M1105.76,-246.49C1157.39,-238.28 1236.21,-224.93 1304,-210 1494.35,-168.07 1550.9,-179.38 1728,-98 1750.07,-87.86 1750.28,-75.58 1773,-67 1842.62,-40.71 2064.18,-24.55 2155.78,-18.83"/>
<polygon fill="midnightblue" stroke="midnightblue" points="2156.01,-22.33 2165.77,-18.22 2155.58,-15.34 2156.01,-22.33"/>
</g>
<!-- Node67&#45;&gt;Node4 -->
<g id="edge59" class="edge">
<title>Node67&#45;&gt;Node4</title>
<path fill="none" stroke="midnightblue" d="M1109.74,-247.42C1114.56,-246.9 1119.36,-246.42 1124,-246 1390.94,-221.81 1458.7,-229.78 1726,-210 1739.77,-208.98 1754.57,-207.75 1768.51,-206.53"/>
<polygon fill="midnightblue" stroke="midnightblue" points="1768.82,-210.02 1778.48,-205.65 1768.21,-203.05 1768.82,-210.02"/>
</g>
<!-- Node67&#45;&gt;Node15 -->
<g id="edge60" class="edge">
<title>Node67&#45;&gt;Node15</title>
<path fill="none" stroke="midnightblue" d="M1091.34,-246.44C1166.03,-230.63 1328.13,-194.72 1462,-154 1520.27,-136.27 1586.67,-110.83 1624.43,-95.85"/>
<polygon fill="midnightblue" stroke="midnightblue" points="1625.85,-99.05 1633.84,-92.1 1623.25,-92.55 1625.85,-99.05"/>
</g>
<!-- Node84&#45;&gt;Node2 -->
<g id="edge62" class="edge">
<title>Node84&#45;&gt;Node2</title>
<path fill="none" stroke="midnightblue" d="M712.41,-313.86C623.9,-309.4 490.85,-297.52 452,-266 428.09,-246.6 428,-231.8 428,-201 428,-201 428,-201 428,-143 428,-104.27 436.82,-59.61 442.44,-35.07"/>
<polygon fill="midnightblue" stroke="midnightblue" points="445.92,-35.56 444.82,-25.02 439.11,-33.94 445.92,-35.56"/>
</g>
<!-- Node84&#45;&gt;Node3 -->
<g id="edge63" class="edge">
<title>Node84&#45;&gt;Node3</title>
<path fill="none" stroke="midnightblue" d="M814.7,-307.86C836.06,-298.29 870.99,-282.1 900,-266 1044.47,-185.84 1056.56,-117.11 1214,-67 1304.67,-38.14 1982.26,-21.25 2155.67,-17.36"/>
<polygon fill="midnightblue" stroke="midnightblue" points="2155.97,-20.86 2165.89,-17.14 2155.82,-13.86 2155.97,-20.86"/>
</g>
<!-- Node84&#45;&gt;Node4 -->
<g id="edge64" class="edge">
<title>Node84&#45;&gt;Node4</title>
<path fill="none" stroke="midnightblue" d="M851.41,-307.96C864.71,-305.98 878.85,-303.89 892,-302 1007.47,-285.38 1039.45,-296.69 1152,-266 1174.3,-259.92 1177.51,-251.3 1200,-246 1428.07,-192.22 1492.39,-228.3 1726,-210 1739.76,-208.92 1754.56,-207.67 1768.5,-206.45"/>
<polygon fill="midnightblue" stroke="midnightblue" points="1768.82,-209.93 1778.47,-205.57 1768.2,-202.96 1768.82,-209.93"/>
</g>
<!-- Node84&#45;&gt;Node57 -->
<g id="edge65" class="edge">
<title>Node84&#45;&gt;Node57</title>
<path fill="none" stroke="midnightblue" d="M877.38,-307.98C993.84,-295.92 1203.98,-274.18 1308.09,-263.41"/>
<polygon fill="midnightblue" stroke="midnightblue" points="1308.54,-266.88 1318.13,-262.37 1307.82,-259.92 1308.54,-266.88"/>
</g>
<!-- Node84&#45;&gt;Node67 -->
<g id="edge66" class="edge">
<title>Node84&#45;&gt;Node67</title>
<path fill="none" stroke="midnightblue" d="M831.54,-307.98C876.89,-297.39 954.28,-279.34 1003.73,-267.8"/>
<polygon fill="midnightblue" stroke="midnightblue" points="1004.59,-271.19 1013.53,-265.51 1003,-264.37 1004.59,-271.19"/>
</g>
<!-- Node92&#45;&gt;Node2 -->
<g id="edge70" class="edge">
<title>Node92&#45;&gt;Node2</title>
<path fill="none" stroke="midnightblue" d="M2414.31,-439.1C2398.81,-437.9 2382.33,-436.76 2367,-436 2165.99,-426.01 753.09,-440.75 556,-400 419.63,-371.81 314,-340.25 314,-201 314,-201 314,-201 314,-143 314,-104.62 327.96,-94.24 355,-67 372.02,-49.85 396.09,-36.92 415.34,-28.44"/>
<polygon fill="midnightblue" stroke="midnightblue" points="416.78,-31.63 424.63,-24.52 414.06,-25.18 416.78,-31.63"/>
</g>
<!-- Node92&#45;&gt;Node3 -->
<g id="edge71" class="edge">
<title>Node92&#45;&gt;Node3</title>
<path fill="none" stroke="midnightblue" d="M2545.8,-437.92C2714.65,-418.12 3147.31,-356.26 3106,-246 3068.98,-147.18 3044.92,-113.1 2950,-67 2806.9,2.5 2390.82,-63.09 2235,-31 2231.75,-30.33 2228.4,-29.43 2225.1,-28.41"/>
<polygon fill="midnightblue" stroke="midnightblue" points="2226.09,-25.05 2215.5,-25.08 2223.8,-31.66 2226.09,-25.05"/>
</g>
<!-- Node92&#45;&gt;Node4 -->
<g id="edge74" class="edge">
<title>Node92&#45;&gt;Node4</title>
<path fill="none" stroke="midnightblue" d="M2512.18,-436.49C2530.54,-429.8 2552.02,-418.45 2563,-400 2570.05,-388.16 2570.51,-380.55 2563,-369 2541.53,-335.97 2517.81,-349.42 2482,-333 2476.86,-330.64 2303.45,-247.5 2298,-246 2154.55,-206.52 1978.25,-200.4 1887.79,-200.18"/>
<polygon fill="midnightblue" stroke="midnightblue" points="1887.72,-196.69 1877.72,-200.18 1887.72,-203.69 1887.72,-196.69"/>
</g>
<!-- Node92&#45;&gt;Node6 -->
<g id="edge72" class="edge">
<title>Node92&#45;&gt;Node6</title>
<path fill="none" stroke="midnightblue" d="M2523.32,-436.46C2647.17,-411.93 2994.34,-342.47 3002,-333 3108.55,-201.16 2771.85,-116.09 2655.25,-91.15"/>
<polygon fill="midnightblue" stroke="midnightblue" points="2655.82,-87.69 2645.31,-89.05 2654.37,-94.54 2655.82,-87.69"/>
</g>
<!-- Node92&#45;&gt;Node17 -->
<g id="edge73" class="edge">
<title>Node92&#45;&gt;Node17</title>
<path fill="none" stroke="midnightblue" d="M2502.46,-436.38C2517.77,-429.18 2536.86,-417.29 2546,-400 2552.44,-387.82 2554.44,-379.89 2546,-369 2506.63,-318.23 2465.9,-356.24 2406,-333 2361.45,-315.72 2313.02,-287.88 2285.5,-271.13"/>
<polygon fill="midnightblue" stroke="midnightblue" points="2287.03,-267.96 2276.68,-265.7 2283.36,-273.92 2287.03,-267.96"/>
</g>
<!-- Node92&#45;&gt;Node57 -->
<g id="edge76" class="edge">
<title>Node92&#45;&gt;Node57</title>
<path fill="none" stroke="midnightblue" d="M2414.26,-439.75C2266.07,-427.92 1918.75,-400.18 1918,-400 1882.09,-391.54 1876.25,-379.88 1841,-369 1769.7,-346.99 1748.3,-355.01 1677,-333 1641.75,-322.12 1635.37,-312.48 1600,-302 1544.03,-285.42 1478.55,-273.29 1431.81,-265.83"/>
<polygon fill="midnightblue" stroke="midnightblue" points="1432.25,-262.36 1421.83,-264.26 1431.17,-269.27 1432.25,-262.36"/>
</g>
<!-- Node92&#45;&gt;Node66 -->
<g id="edge75" class="edge">
<title>Node92&#45;&gt;Node66</title>
<path fill="none" stroke="midnightblue" d="M2414.28,-439.71C2398.77,-438.48 2382.31,-437.18 2367,-436 2152.82,-419.47 2098.75,-421.44 1885,-400 1871.3,-398.63 1856.72,-396.95 1842.69,-395.23"/>
<polygon fill="midnightblue" stroke="midnightblue" points="1842.96,-391.74 1832.6,-393.98 1842.1,-398.69 1842.96,-391.74"/>
</g>
<!-- Node93&#45;&gt;Node2 -->
<g id="edge78" class="edge">
<title>Node93&#45;&gt;Node2</title>
<path fill="none" stroke="midnightblue" d="M1751.44,-500.91C1541.55,-500.29 682.12,-495.34 416,-456 295.86,-438.24 152,-506.95 152,-385.5 152,-385.5 152,-385.5 152,-143 152,-29.64 338.29,-16.56 414.79,-15.97"/>
<polygon fill="midnightblue" stroke="midnightblue" points="414.83,-19.47 424.83,-15.96 414.82,-12.47 414.83,-19.47"/>
</g>
<!-- Node93&#45;&gt;Node3 -->
<g id="edge79" class="edge">
<title>Node93&#45;&gt;Node3</title>
<path fill="none" stroke="midnightblue" d="M1844.56,-499.82C2000.31,-495.68 2502.24,-480.7 2662,-456 2759.58,-440.91 2781.57,-425.35 2877,-400 3010.95,-364.42 3178,-457.09 3178,-318.5 3178,-318.5 3178,-318.5 3178,-143 3178,-53.7 3079.19,-86.29 2992,-67 2663.13,5.75 2564.99,-98.49 2235,-31 2231.74,-30.33 2228.4,-29.44 2225.1,-28.42"/>
<polygon fill="midnightblue" stroke="midnightblue" points="2226.09,-25.06 2215.49,-25.09 2223.8,-31.67 2226.09,-25.06"/>
</g>
<!-- Node93&#45;&gt;Node4 -->
<g id="edge83" class="edge">
<title>Node93&#45;&gt;Node4</title>
<path fill="none" stroke="midnightblue" d="M1751.12,-494.36C1642.18,-476.78 1386.38,-421.9 1457,-302 1470.02,-279.89 1533.77,-254.45 1558,-246 1595.82,-232.8 1700.93,-217.47 1768.3,-208.54"/>
<polygon fill="midnightblue" stroke="midnightblue" points="1768.9,-211.99 1778.36,-207.22 1767.99,-205.05 1768.9,-211.99"/>
</g>
<!-- Node93&#45;&gt;Node6 -->
<g id="edge80" class="edge">
<title>Node93&#45;&gt;Node6</title>
<path fill="none" stroke="midnightblue" d="M1844.73,-500.95C1963.72,-500.24 2287.57,-494.6 2554,-456 2662.83,-440.23 2713.12,-473.4 2795,-400 2848.28,-352.23 2872.89,-310.55 2842,-246 2803.71,-165.97 2704.1,-116.99 2651.19,-95.81"/>
<polygon fill="midnightblue" stroke="midnightblue" points="2652.16,-92.43 2641.57,-92.06 2649.61,-98.95 2652.16,-92.43"/>
</g>
<!-- Node93&#45;&gt;Node11 -->
<g id="edge113" class="edge">
<title>Node93&#45;&gt;Node11</title>
<path fill="none" stroke="midnightblue" d="M1751.33,-500.67C1530.55,-498.93 596.52,-489.65 471,-456 419.92,-442.3 409.46,-430.14 366,-400 329,-374.34 308.53,-374.04 290,-333 273.98,-297.53 276.56,-277.07 300,-246 363.61,-161.66 482.68,-118.6 559.59,-98.6"/>
<polygon fill="midnightblue" stroke="midnightblue" points="560.85,-101.89 569.69,-96.04 559.14,-95.1 560.85,-101.89"/>
</g>
<!-- Node93&#45;&gt;Node17 -->
<g id="edge81" class="edge">
<title>Node93&#45;&gt;Node17</title>
<path fill="none" stroke="midnightblue" d="M1835.92,-492.47C1869.13,-484.52 1918.45,-471.58 1960,-456 2013.98,-435.76 2027.76,-429.98 2077,-400 2096.51,-388.12 2097.33,-378.73 2118,-369 2180.81,-339.43 2226.94,-387.45 2270,-333 2282.93,-316.65 2277.32,-291.69 2271.08,-274.88"/>
<polygon fill="midnightblue" stroke="midnightblue" points="2274.31,-273.53 2267.27,-265.61 2267.84,-276.19 2274.31,-273.53"/>
</g>
<!-- Node93&#45;&gt;Node40 -->
<g id="edge86" class="edge">
<title>Node93&#45;&gt;Node40</title>
<path fill="none" stroke="midnightblue" d="M1800.1,-492.34C1802.85,-478.77 1805.92,-452.33 1793,-436 1785.63,-426.68 1722.11,-408.39 1677.89,-396.57"/>
<polygon fill="midnightblue" stroke="midnightblue" points="1678.79,-393.19 1668.22,-394.01 1676.99,-399.95 1678.79,-393.19"/>
</g>
<!-- Node93&#45;&gt;Node57 -->
<g id="edge112" class="edge">
<title>Node93&#45;&gt;Node57</title>
<path fill="none" stroke="midnightblue" d="M1751.41,-498.77C1674.31,-494.37 1524.19,-482.59 1479,-456 1419.93,-421.25 1414.41,-395.37 1386,-333 1377.63,-314.63 1373.58,-291.77 1371.66,-275.94"/>
<polygon fill="midnightblue" stroke="midnightblue" points="1375.12,-275.4 1370.6,-265.82 1368.16,-276.13 1375.12,-275.4"/>
</g>
<!-- Node93&#45;&gt;Node66 -->
<g id="edge119" class="edge">
<title>Node93&#45;&gt;Node66</title>
<path fill="none" stroke="midnightblue" d="M1751.25,-493.33C1729.36,-487.14 1705.24,-476.01 1692,-456 1678.41,-435.46 1700.81,-416.99 1725.04,-404.11"/>
<polygon fill="midnightblue" stroke="midnightblue" points="1726.62,-407.23 1733.99,-399.62 1723.48,-400.98 1726.62,-407.23"/>
</g>
<!-- Node94 -->
<g id="node30" class="node">
<title>Node94</title>
<g id="a_node30"><a xlink:title=" ">
<polygon fill="none" stroke="#bfbfbf" points="1701,-436.5 1701,-455.5 1751,-455.5 1751,-436.5 1701,-436.5"/>
<text text-anchor="middle" x="1726" y="-443.5" font-family="Helvetica,sans-Serif" font-size="10.00">atomic</text>
</a>
</g>
</g>
<!-- Node93&#45;&gt;Node94 -->
<g id="edge82" class="edge">
<title>Node93&#45;&gt;Node94</title>
<path fill="none" stroke="midnightblue" d="M1786.43,-492.32C1775.58,-484.18 1759.12,-471.84 1746.12,-462.09"/>
<polygon fill="midnightblue" stroke="midnightblue" points="1747.88,-459.03 1737.78,-455.83 1743.68,-464.63 1747.88,-459.03"/>
</g>
<!-- Node80 -->
<g id="node31" class="node">
<title>Node80</title>
<g id="a_node31"><a xlink:href="../../da/d55/lock__object_8h.html" target="_top" xlink:title=" ">
<polygon fill="none" stroke="red" points="1466.5,-308 1466.5,-327 1591.5,-327 1591.5,-308 1466.5,-308"/>
<text text-anchor="middle" x="1529" y="-315" font-family="Helvetica,sans-Serif" font-size="10.00">includes/lock_object.h</text>
</a>
</g>
</g>
<!-- Node93&#45;&gt;Node80 -->
<g id="edge84" class="edge">
<title>Node93&#45;&gt;Node80</title>
<path fill="none" stroke="midnightblue" d="M1795.48,-492.22C1790.92,-477.98 1779.86,-450.03 1760,-436 1690.16,-386.66 1639.51,-451.18 1571,-400 1550.21,-384.47 1538.87,-355.67 1533.37,-336.8"/>
<polygon fill="midnightblue" stroke="midnightblue" points="1536.72,-335.79 1530.78,-327.01 1529.96,-337.58 1536.72,-335.79"/>
</g>
<!-- Node95 -->
<g id="node32" class="node">
<title>Node95</title>
<g id="a_node32"><a xlink:href="../../d1/d4e/dof_8h.html" target="_top" xlink:title=" ">
<polygon fill="none" stroke="black" points="2274,-436.5 2274,-455.5 2358,-455.5 2358,-436.5 2274,-436.5"/>
<text text-anchor="middle" x="2316" y="-443.5" font-family="Helvetica,sans-Serif" font-size="10.00">includes/dof.h</text>
</a>
</g>
</g>
<!-- Node93&#45;&gt;Node95 -->
<g id="edge87" class="edge">
<title>Node93&#45;&gt;Node95</title>
<path fill="none" stroke="midnightblue" d="M1844.88,-496.11C1941.67,-486.02 2162.98,-462.95 2264,-452.42"/>
<polygon fill="midnightblue" stroke="midnightblue" points="2264.39,-455.9 2273.97,-451.38 2263.66,-448.94 2264.39,-455.9"/>
</g>
<!-- Node96 -->
<g id="node33" class="node">
<title>Node96</title>
<g id="a_node33"><a xlink:href="../../db/d22/nodal__data_8h.html" target="_top" xlink:title=" ">
<polygon fill="none" stroke="black" points="2403,-375 2403,-394 2537,-394 2537,-375 2403,-375"/>
<text text-anchor="middle" x="2470" y="-382" font-family="Helvetica,sans-Serif" font-size="10.00">containers/nodal_data.h</text>
</a>
</g>
</g>
<!-- Node93&#45;&gt;Node96 -->
<g id="edge120" class="edge">
<title>Node93&#45;&gt;Node96</title>
<path fill="none" stroke="midnightblue" d="M1844.91,-500.39C1963.22,-498.36 2271.11,-489.87 2367,-456 2384.83,-449.7 2426.24,-419.21 2450.78,-400.45"/>
<polygon fill="midnightblue" stroke="midnightblue" points="2453.19,-403.01 2458.98,-394.14 2448.92,-397.46 2453.19,-403.01"/>
</g>
<!-- Node97 -->
<g id="node34" class="node">
<title>Node97</title>
<g id="a_node34"><a xlink:href="../../d4/d52/variables__list__data__value__container_8h.html" target="_top" xlink:title=" ">
<polygon fill="none" stroke="red" points="2084.5,-302.5 2084.5,-332.5 2239.5,-332.5 2239.5,-302.5 2084.5,-302.5"/>
<text text-anchor="start" x="2092.5" y="-320.5" font-family="Helvetica,sans-Serif" font-size="10.00">containers/variables</text>
<text text-anchor="middle" x="2162" y="-309.5" font-family="Helvetica,sans-Serif" font-size="10.00">_list_data_value_container.h</text>
</a>
</g>
</g>
<!-- Node93&#45;&gt;Node97 -->
<g id="edge111" class="edge">
<title>Node93&#45;&gt;Node97</title>
<path fill="none" stroke="midnightblue" d="M1823.68,-492.43C1868.97,-476.87 1965.38,-441.69 2041,-400 2061.95,-388.45 2065.22,-382.45 2085,-369 2100.22,-358.65 2117.32,-347.4 2131.53,-338.15"/>
<polygon fill="midnightblue" stroke="midnightblue" points="2133.48,-341.05 2139.97,-332.67 2129.67,-335.18 2133.48,-341.05"/>
</g>
<!-- Node99 -->
<g id="node35" class="node">
<title>Node99</title>
<g id="a_node35"><a xlink:href="../../d4/d35/pointer__vector__set_8h.html" target="_top" xlink:title=" ">
<polygon fill="none" stroke="red" points="1927.5,-369.5 1927.5,-399.5 2032.5,-399.5 2032.5,-369.5 1927.5,-369.5"/>
<text text-anchor="start" x="1935.5" y="-387.5" font-family="Helvetica,sans-Serif" font-size="10.00">containers/pointer</text>
<text text-anchor="middle" x="1980" y="-376.5" font-family="Helvetica,sans-Serif" font-size="10.00">_vector_set.h</text>
</a>
</g>
</g>
<!-- Node93&#45;&gt;Node99 -->
<g id="edge102" class="edge">
<title>Node93&#45;&gt;Node99</title>
<path fill="none" stroke="midnightblue" d="M1811.68,-492.32C1840.73,-473.88 1909.2,-430.43 1949.29,-404.99"/>
<polygon fill="midnightblue" stroke="midnightblue" points="1951.3,-407.86 1957.87,-399.55 1947.55,-401.95 1951.3,-407.86"/>
</g>
<!-- Node101 -->
<g id="node36" class="node">
<title>Node101</title>
<g id="a_node36"><a xlink:href="../../de/d44/global__pointers__vector_8h.html" target="_top" xlink:title=" ">
<polygon fill="none" stroke="red" points="1015,-369.5 1015,-399.5 1161,-399.5 1161,-369.5 1015,-369.5"/>
<text text-anchor="start" x="1023" y="-387.5" font-family="Helvetica,sans-Serif" font-size="10.00">containers/global_pointers</text>
<text text-anchor="middle" x="1088" y="-376.5" font-family="Helvetica,sans-Serif" font-size="10.00">_vector.h</text>
</a>
</g>
</g>
<!-- Node93&#45;&gt;Node101 -->
<g id="edge114" class="edge">
<title>Node93&#45;&gt;Node101</title>
<path fill="none" stroke="midnightblue" d="M1751.33,-498.96C1668.79,-494.78 1491.87,-483.24 1345,-456 1272.99,-442.65 1191.77,-418.85 1140.26,-402.63"/>
<polygon fill="midnightblue" stroke="midnightblue" points="1141.27,-399.28 1130.68,-399.6 1139.16,-405.95 1141.27,-399.28"/>
</g>
<!-- Node104 -->
<g id="node37" class="node">
<title>Node104</title>
<g id="a_node37"><a xlink:href="../../d0/dac/kratos__flags_8h.html" target="_top" xlink:title=" ">
<polygon fill="none" stroke="black" points="1179,-375 1179,-394 1307,-394 1307,-375 1179,-375"/>
<text text-anchor="middle" x="1243" y="-382" font-family="Helvetica,sans-Serif" font-size="10.00">includes/kratos_flags.h</text>
</a>
</g>
</g>
<!-- Node93&#45;&gt;Node104 -->
<g id="edge121" class="edge">
<title>Node93&#45;&gt;Node104</title>
<path fill="none" stroke="midnightblue" d="M1751.24,-500.2C1676.42,-497.93 1525.76,-489.21 1403,-456 1352.76,-442.41 1298.05,-415.4 1267.39,-399.04"/>
<polygon fill="midnightblue" stroke="midnightblue" points="1268.78,-395.82 1258.32,-394.14 1265.45,-401.97 1268.78,-395.82"/>
</g>
<!-- Node80&#45;&gt;Node4 -->
<g id="edge85" class="edge">
<title>Node80&#45;&gt;Node4</title>
<path fill="none" stroke="midnightblue" d="M1532.94,-307.91C1540.37,-292.72 1558.02,-261.3 1583,-246 1598.63,-236.43 1701.02,-219.8 1768.4,-209.66"/>
<polygon fill="midnightblue" stroke="midnightblue" points="1769.11,-213.09 1778.48,-208.15 1768.07,-206.16 1769.11,-213.09"/>
</g>
<!-- Node95&#45;&gt;Node2 -->
<g id="edge88" class="edge">
<title>Node95&#45;&gt;Node2</title>
<path fill="none" stroke="midnightblue" d="M2273.95,-440.04C2259.13,-438.48 2242.35,-436.93 2227,-436 2125.89,-429.9 498.4,-436.74 404,-400 383.02,-391.83 341.12,-351.3 328,-333 258.73,-236.39 230.93,-163.75 300,-67 326,-30.58 380.01,-20.15 414.82,-17.33"/>
<polygon fill="midnightblue" stroke="midnightblue" points="415.2,-20.81 424.96,-16.67 414.75,-13.82 415.2,-20.81"/>
</g>
<!-- Node95&#45;&gt;Node3 -->
<g id="edge89" class="edge">
<title>Node95&#45;&gt;Node3</title>
<path fill="none" stroke="midnightblue" d="M2358.39,-436.71C2404.54,-427.69 2480.52,-412.83 2546,-400 2616.23,-386.24 2633.46,-381.05 2704,-369 2758.68,-359.66 2910.59,-371 2951,-333 3015.56,-272.28 2990.21,-218.67 2964,-134 2953.39,-99.73 2950.2,-84.7 2919,-67 2852.8,-29.45 2309.52,-46.44 2235,-31 2231.75,-30.33 2228.4,-29.43 2225.11,-28.4"/>
<polygon fill="midnightblue" stroke="midnightblue" points="2226.09,-25.04 2215.5,-25.07 2223.8,-31.65 2226.09,-25.04"/>
</g>
<!-- Node95&#45;&gt;Node4 -->
<g id="edge92" class="edge">
<title>Node95&#45;&gt;Node4</title>
<path fill="none" stroke="midnightblue" d="M2273.85,-440.51C2172.19,-429.64 1921.58,-402.61 1918,-400 1886.71,-377.22 1848.08,-264.2 1833.73,-219.37"/>
<polygon fill="midnightblue" stroke="midnightblue" points="1837.04,-218.24 1830.69,-209.76 1830.37,-220.35 1837.04,-218.24"/>
</g>
<!-- Node95&#45;&gt;Node6 -->
<g id="edge90" class="edge">
<title>Node95&#45;&gt;Node6</title>
<path fill="none" stroke="midnightblue" d="M2322.02,-436C2333.67,-419.42 2361.1,-384.34 2394,-369 2466.67,-335.13 2699.21,-392.46 2753,-333 2821.83,-256.92 2689.07,-139.79 2636.84,-98.52"/>
<polygon fill="midnightblue" stroke="midnightblue" points="2638.67,-95.52 2628.63,-92.14 2634.38,-101.04 2638.67,-95.52"/>
</g>
<!-- Node95&#45;&gt;Node17 -->
<g id="edge91" class="edge">
<title>Node95&#45;&gt;Node17</title>
<path fill="none" stroke="midnightblue" d="M2318.85,-436.37C2325.97,-413.21 2342.42,-348.26 2320,-302 2313.6,-288.8 2301.25,-278.3 2289.67,-270.78"/>
<polygon fill="midnightblue" stroke="midnightblue" points="2291.45,-267.77 2281.08,-265.61 2287.84,-273.77 2291.45,-267.77"/>
</g>
<!-- Node95&#45;&gt;Node66 -->
<g id="edge93" class="edge">
<title>Node95&#45;&gt;Node66</title>
<path fill="none" stroke="midnightblue" d="M2273.9,-440.69C2259.08,-439.18 2242.3,-437.5 2227,-436 2058.16,-419.47 2014.98,-423.72 1847,-400 1845.53,-399.79 1844.04,-399.58 1842.54,-399.35"/>
<polygon fill="midnightblue" stroke="midnightblue" points="1842.96,-395.87 1832.54,-397.77 1841.87,-402.79 1842.96,-395.87"/>
</g>
<!-- Node95&#45;&gt;Node96 -->
<g id="edge94" class="edge">
<title>Node95&#45;&gt;Node96</title>
<path fill="none" stroke="midnightblue" d="M2338.06,-436.48C2364.37,-426.31 2408.51,-409.26 2438.42,-397.7"/>
<polygon fill="midnightblue" stroke="midnightblue" points="2439.91,-400.88 2447.98,-394.01 2437.39,-394.35 2439.91,-400.88"/>
</g>
<!-- Node96&#45;&gt;Node3 -->
<g id="edge95" class="edge">
<title>Node96&#45;&gt;Node3</title>
<path fill="none" stroke="midnightblue" d="M2537.01,-375.16C2553.96,-373.1 2572.15,-370.93 2589,-369 2663.83,-360.44 2867.71,-380.69 2926,-333 2953.42,-310.57 2950,-292.42 2950,-257 2950,-257 2950,-257 2950,-143 2950,-95.86 2918.9,-86.54 2876,-67 2746.17,-7.86 2374.65,-60.19 2235,-31 2231.75,-30.32 2228.4,-29.42 2225.11,-28.39"/>
<polygon fill="midnightblue" stroke="midnightblue" points="2226.1,-25.03 2215.5,-25.05 2223.8,-31.64 2226.1,-25.03"/>
</g>
<!-- Node96&#45;&gt;Node97 -->
<g id="edge96" class="edge">
<title>Node96&#45;&gt;Node97</title>
<path fill="none" stroke="midnightblue" d="M2429.42,-374.94C2380.99,-364.71 2298.97,-347.41 2238.51,-334.65"/>
<polygon fill="midnightblue" stroke="midnightblue" points="2239.13,-331.2 2228.62,-332.56 2237.68,-338.05 2239.13,-331.2"/>
</g>
<!-- Node97&#45;&gt;Node2 -->
<g id="edge97" class="edge">
<title>Node97&#45;&gt;Node2</title>
<path fill="none" stroke="midnightblue" d="M2139.1,-302.36C2093.14,-274.84 1985.53,-214.59 1886,-190 1601.67,-119.75 1518.02,-194.83 1228,-154 1056.43,-129.85 1018.61,-97.2 848,-67 711.91,-42.91 547.86,-26 479.43,-19.48"/>
<polygon fill="midnightblue" stroke="midnightblue" points="479.57,-15.97 469.29,-18.52 478.91,-22.94 479.57,-15.97"/>
</g>
<!-- Node97&#45;&gt;Node3 -->
<g id="edge98" class="edge">
<title>Node97&#45;&gt;Node3</title>
<path fill="none" stroke="midnightblue" d="M2164.21,-302.48C2169.59,-267.86 2183.49,-175.51 2191,-98 2193.07,-76.65 2194.44,-52.08 2195.21,-35.54"/>
<polygon fill="midnightblue" stroke="midnightblue" points="2198.73,-35.23 2195.67,-25.08 2191.74,-34.92 2198.73,-35.23"/>
</g>
<!-- Node97&#45;&gt;Node4 -->
<g id="edge100" class="edge">
<title>Node97&#45;&gt;Node4</title>
<path fill="none" stroke="midnightblue" d="M2121.38,-302.45C2055.01,-279.5 1924.52,-234.38 1862.42,-212.9"/>
<polygon fill="midnightblue" stroke="midnightblue" points="1863.3,-209.5 1852.7,-209.54 1861.01,-216.12 1863.3,-209.5"/>
</g>
<!-- Node97&#45;&gt;Node17 -->
<g id="edge99" class="edge">
<title>Node97&#45;&gt;Node17</title>
<path fill="none" stroke="midnightblue" d="M2185.94,-302.4C2202.13,-292.86 2223.41,-280.32 2239.5,-270.84"/>
<polygon fill="midnightblue" stroke="midnightblue" points="2241.46,-273.75 2248.3,-265.66 2237.91,-267.72 2241.46,-273.75"/>
</g>
<!-- Node97&#45;&gt;Node67 -->
<g id="edge101" class="edge">
<title>Node97&#45;&gt;Node67</title>
<path fill="none" stroke="midnightblue" d="M2084.25,-312.34C1877.61,-301.28 1317.14,-271.29 1119.85,-260.74"/>
<polygon fill="midnightblue" stroke="midnightblue" points="1119.79,-257.23 1109.61,-260.19 1119.41,-264.22 1119.79,-257.23"/>
</g>
<!-- Node99&#45;&gt;Node2 -->
<g id="edge104" class="edge">
<title>Node99&#45;&gt;Node2</title>
<path fill="none" stroke="midnightblue" d="M1927.22,-377.71C1901.27,-374.93 1869.51,-371.64 1841,-369 1832.2,-368.18 581.07,-269.59 573,-266 534.5,-248.89 504,-243.13 504,-201 504,-201 504,-201 504,-143 504,-100.47 476.89,-56.43 460.06,-33.2"/>
<polygon fill="midnightblue" stroke="midnightblue" points="462.79,-31 453.99,-25.1 457.18,-35.2 462.79,-31"/>
</g>
<!-- Node99&#45;&gt;Node3 -->
<g id="edge105" class="edge">
<title>Node99&#45;&gt;Node3</title>
<path fill="none" stroke="midnightblue" d="M2032.7,-377.36C2058.4,-374.52 2089.79,-371.28 2118,-369 2188.44,-363.31 2692.14,-368.91 2753,-333 2812.69,-297.78 2836,-270.3 2836,-201 2836,-201 2836,-201 2836,-143 2836,-87.18 2788.23,-86.71 2736,-67 2527.13,11.81 2453.16,-78.38 2235,-31 2231.92,-30.33 2228.76,-29.47 2225.64,-28.5"/>
<polygon fill="midnightblue" stroke="midnightblue" points="2226.51,-25.1 2215.91,-25.14 2224.22,-31.72 2226.51,-25.1"/>
</g>
<!-- Node99&#45;&gt;Node4 -->
<g id="edge109" class="edge">
<title>Node99&#45;&gt;Node4</title>
<path fill="none" stroke="midnightblue" d="M1971.31,-369.44C1955.04,-343.62 1918.14,-287.51 1880,-246 1870.03,-235.15 1857.58,-224.3 1847.37,-215.97"/>
<polygon fill="midnightblue" stroke="midnightblue" points="1849.42,-213.13 1839.42,-209.63 1845.05,-218.6 1849.42,-213.13"/>
</g>
<!-- Node99&#45;&gt;Node6 -->
<g id="edge106" class="edge">
<title>Node99&#45;&gt;Node6</title>
<path fill="none" stroke="midnightblue" d="M2032.7,-377.38C2058.4,-374.55 2089.79,-371.3 2118,-369 2186.56,-363.4 2688.8,-383.03 2736,-333 2745.45,-322.98 2740.15,-315.14 2736,-302 2711.76,-225.35 2664.13,-227.7 2632,-154 2624.74,-137.35 2620.89,-116.91 2618.92,-102.33"/>
<polygon fill="midnightblue" stroke="midnightblue" points="2622.36,-101.61 2617.71,-92.08 2615.4,-102.43 2622.36,-101.61"/>
</g>
<!-- Node99&#45;&gt;Node9 -->
<g id="edge108" class="edge">
<title>Node99&#45;&gt;Node9</title>
<path fill="none" stroke="midnightblue" d="M1977.83,-369.32C1971.41,-332.65 1948.82,-234.42 1886,-190 1840.86,-158.08 1450.14,-113.26 1397,-98 1394.42,-97.26 1391.76,-96.41 1389.12,-95.49"/>
<polygon fill="midnightblue" stroke="midnightblue" points="1390.33,-92.21 1379.73,-92.02 1387.9,-98.77 1390.33,-92.21"/>
</g>
<!-- Node99&#45;&gt;Node13 -->
<g id="edge103" class="edge">
<title>Node99&#45;&gt;Node13</title>
<path fill="none" stroke="midnightblue" d="M1981.76,-369.47C1983.41,-353.08 1984.95,-325.25 1980,-302 1967.82,-244.82 1959.95,-221.98 1911,-190 1882.29,-171.24 1385.63,-55.33 1251.28,-24.19"/>
<polygon fill="midnightblue" stroke="midnightblue" points="1252.06,-20.78 1241.53,-21.93 1250.48,-27.6 1252.06,-20.78"/>
</g>
<!-- Node99&#45;&gt;Node17 -->
<g id="edge107" class="edge">
<title>Node99&#45;&gt;Node17</title>
<path fill="none" stroke="midnightblue" d="M2032.63,-375.13C2108.49,-362.85 2240.36,-340.57 2248,-333 2262.96,-318.16 2265.23,-293.02 2264.74,-275.74"/>
<polygon fill="midnightblue" stroke="midnightblue" points="2268.23,-275.48 2264.12,-265.71 2261.24,-275.91 2268.23,-275.48"/>
</g>
<!-- Node99&#45;&gt;Node47 -->
<g id="edge110" class="edge">
<title>Node99&#45;&gt;Node47</title>
<path fill="none" stroke="midnightblue" d="M1928.87,-369.48C1885.46,-357.57 1824,-340.72 1783.83,-329.7"/>
<polygon fill="midnightblue" stroke="midnightblue" points="1784.67,-326.3 1774.1,-327.03 1782.81,-333.05 1784.67,-326.3"/>
</g>
<!-- Node101&#45;&gt;Node3 -->
<g id="edge116" class="edge">
<title>Node101&#45;&gt;Node3</title>
<path fill="none" stroke="midnightblue" d="M1062.51,-369.35C1020.63,-344.32 945.3,-290.65 981,-246 1097.09,-100.82 1212.71,-212.94 1389,-154 1478.24,-124.17 1490.9,-90.53 1582,-67 1691.19,-38.79 2037.15,-22.79 2155.69,-18.02"/>
<polygon fill="midnightblue" stroke="midnightblue" points="2155.93,-21.52 2165.79,-17.62 2155.66,-14.52 2155.93,-21.52"/>
</g>
<!-- Node101&#45;&gt;Node4 -->
<g id="edge117" class="edge">
<title>Node101&#45;&gt;Node4</title>
<path fill="none" stroke="midnightblue" d="M1107.91,-369.41C1153.69,-337.31 1265.8,-260.38 1309,-246 1485.5,-187.25 1540.68,-226.18 1726,-210 1739.75,-208.8 1754.55,-207.5 1768.48,-206.27"/>
<polygon fill="midnightblue" stroke="midnightblue" points="1768.8,-209.76 1778.46,-205.39 1768.19,-202.78 1768.8,-209.76"/>
</g>
<!-- Node101&#45;&gt;Node13 -->
<g id="edge115" class="edge">
<title>Node101&#45;&gt;Node13</title>
<path fill="none" stroke="midnightblue" d="M1014.71,-370.47C1011.43,-369.96 1008.18,-369.47 1005,-369 818.46,-341.61 512.82,-413.7 599,-246 661.46,-124.45 722.03,-117.52 849,-67 965.38,-20.69 1116.92,-15.55 1183.77,-15.79"/>
<polygon fill="midnightblue" stroke="midnightblue" points="1184.1,-19.29 1194.12,-15.87 1184.15,-12.29 1184.1,-19.29"/>
</g>
<!-- Node101&#45;&gt;Node47 -->
<g id="edge118" class="edge">
<title>Node101&#45;&gt;Node47</title>
<path fill="none" stroke="midnightblue" d="M1161.27,-370.2C1164.21,-369.78 1167.13,-369.37 1170,-369 1360.18,-344.28 1409.04,-350.67 1600,-333 1624.89,-330.7 1652.21,-327.97 1676.23,-325.52"/>
<polygon fill="midnightblue" stroke="midnightblue" points="1676.72,-328.98 1686.31,-324.48 1676,-322.02 1676.72,-328.98"/>
</g>
<!-- Node104&#45;&gt;Node4 -->
<g id="edge122" class="edge">
<title>Node104&#45;&gt;Node4</title>
<path fill="none" stroke="midnightblue" d="M1247.68,-374.94C1257.19,-358.34 1280.42,-321.68 1310,-302 1356.36,-271.16 1377.87,-285.57 1430,-266 1450.11,-258.45 1453.33,-251.83 1474,-246 1599,-210.72 1635.24,-227.04 1764,-210 1765.46,-209.81 1766.94,-209.61 1768.43,-209.41"/>
<polygon fill="midnightblue" stroke="midnightblue" points="1768.96,-212.87 1778.4,-208.06 1768.02,-205.93 1768.96,-212.87"/>
</g>
<!-- Node104&#45;&gt;Node57 -->
<g id="edge123" class="edge">
<title>Node104&#45;&gt;Node57</title>
<path fill="none" stroke="midnightblue" d="M1243.88,-374.75C1245.95,-358.48 1252.53,-323.27 1272,-302 1286.21,-286.47 1306.83,-275.91 1325.5,-268.94"/>
<polygon fill="midnightblue" stroke="midnightblue" points="1326.75,-272.21 1335.04,-265.61 1324.44,-265.6 1326.75,-272.21"/>
</g>
<!-- Node104&#45;&gt;Node84 -->
<g id="edge124" class="edge">
<title>Node104&#45;&gt;Node84</title>
<path fill="none" stroke="midnightblue" d="M1202.54,-375C1191.97,-372.9 1180.58,-370.76 1170,-369 1070.15,-352.38 954.65,-337.47 878.51,-328.24"/>
<polygon fill="midnightblue" stroke="midnightblue" points="878.84,-324.75 868.5,-327.03 878,-331.7 878.84,-324.75"/>
</g>
<!-- Node105&#45;&gt;Node3 -->
<g id="edge127" class="edge">
<title>Node105&#45;&gt;Node3</title>
<path fill="none" stroke="midnightblue" d="M2270.64,-378.03C2431.21,-365.72 2806.34,-336.61 2812,-333 2912.64,-268.7 2931.94,-153.88 2850,-67 2803.03,-17.2 2301.99,-45.08 2235,-31 2231.75,-30.32 2228.41,-29.41 2225.11,-28.38"/>
<polygon fill="midnightblue" stroke="midnightblue" points="2226.1,-25.02 2215.5,-25.04 2223.8,-31.63 2226.1,-25.02"/>
</g>
<!-- Node105&#45;&gt;Node4 -->
<g id="edge128" class="edge">
<title>Node105&#45;&gt;Node4</title>
<path fill="none" stroke="midnightblue" d="M2175.84,-374.9C2150.69,-365.37 2109.51,-349.19 2075,-333 1990.94,-293.55 1894.83,-239.49 1851.43,-214.58"/>
<polygon fill="midnightblue" stroke="midnightblue" points="1853.17,-211.54 1842.76,-209.59 1849.68,-217.61 1853.17,-211.54"/>
</g>
<!-- Node105&#45;&gt;Node47 -->
<g id="edge129" class="edge">
<title>Node105&#45;&gt;Node47</title>
<path fill="none" stroke="midnightblue" d="M2138.92,-374.94C2053.69,-362.79 1898.21,-340.62 1809.57,-327.99"/>
<polygon fill="midnightblue" stroke="midnightblue" points="1810.02,-324.52 1799.63,-326.57 1809.03,-331.45 1810.02,-324.52"/>
</g>
<!-- Node106&#45;&gt;Node2 -->
<g id="edge133" class="edge">
<title>Node106&#45;&gt;Node2</title>
<path fill="none" stroke="midnightblue" d="M2550.09,-307.97C2526.06,-298.12 2485.51,-281.28 2451,-266 2431.73,-257.47 2428.22,-251.93 2408,-246 2294.37,-212.66 2261.06,-227.86 2144,-210 1943.49,-179.4 1894.55,-164.35 1694,-134 1574.74,-115.95 1534.33,-148.96 1425,-98 1406.47,-89.36 1409.86,-74.89 1391,-67 1305.52,-31.23 636.25,-19.27 479.68,-16.95"/>
<polygon fill="midnightblue" stroke="midnightblue" points="479.36,-13.44 469.31,-16.8 479.26,-20.44 479.36,-13.44"/>
</g>
<!-- Node106&#45;&gt;Node3 -->
<g id="edge134" class="edge">
<title>Node106&#45;&gt;Node3</title>
<path fill="none" stroke="midnightblue" d="M2579.06,-307.95C2610.8,-273.27 2722.22,-141.33 2654,-67 2622.4,-32.57 2280.59,-41.24 2235,-31 2231.93,-30.31 2228.77,-29.43 2225.65,-28.46"/>
<polygon fill="midnightblue" stroke="midnightblue" points="2226.52,-25.06 2215.93,-25.09 2224.23,-31.67 2226.52,-25.06"/>
</g>
<!-- Node106&#45;&gt;Node4 -->
<g id="edge136" class="edge">
<title>Node106&#45;&gt;Node4</title>
<path fill="none" stroke="midnightblue" d="M2542.86,-307.92C2512,-298.34 2461.12,-282.07 2418,-266 2396.34,-257.93 2392.46,-251.47 2370,-246 2279.97,-224.08 2009.38,-209.32 1888.03,-203.63"/>
<polygon fill="midnightblue" stroke="midnightblue" points="1887.96,-200.12 1877.81,-203.15 1887.63,-207.11 1887.96,-200.12"/>
</g>
<!-- Node106&#45;&gt;Node53 -->
<g id="edge135" class="edge">
<title>Node106&#45;&gt;Node53</title>
<path fill="none" stroke="midnightblue" d="M2563.69,-307.98C2555.97,-298.96 2543.59,-284.52 2533.98,-273.31"/>
<polygon fill="midnightblue" stroke="midnightblue" points="2536.46,-270.82 2527.29,-265.51 2531.14,-275.38 2536.46,-270.82"/>
</g>
<!-- Node106&#45;&gt;Node67 -->
<g id="edge137" class="edge">
<title>Node106&#45;&gt;Node67</title>
<path fill="none" stroke="midnightblue" d="M2523.93,-314.28C2461.05,-311.34 2346.15,-306.05 2248,-302 1819.14,-284.32 1303.8,-265.92 1119.62,-259.44"/>
<polygon fill="midnightblue" stroke="midnightblue" points="1119.64,-255.94 1109.53,-259.08 1119.4,-262.93 1119.64,-255.94"/>
</g>
<!-- Node81&#45;&gt;Node2 -->
<g id="edge139" class="edge">
<title>Node81&#45;&gt;Node2</title>
<path fill="none" stroke="midnightblue" d="M681.32,-246.29C698.38,-217.15 748.02,-121.77 703,-67 674.99,-32.93 541.46,-21.47 479.16,-17.94"/>
<polygon fill="midnightblue" stroke="midnightblue" points="479.26,-14.44 469.09,-17.4 478.89,-21.43 479.26,-14.44"/>
</g>
<!-- Node81&#45;&gt;Node4 -->
<g id="edge141" class="edge">
<title>Node81&#45;&gt;Node4</title>
<path fill="none" stroke="midnightblue" d="M743.76,-251.82C950.7,-242.12 1572.26,-212.99 1768.17,-203.8"/>
<polygon fill="midnightblue" stroke="midnightblue" points="1768.45,-207.3 1778.27,-203.33 1768.12,-200.3 1768.45,-207.3"/>
</g>
<!-- Node81&#45;&gt;Node13 -->
<g id="edge140" class="edge">
<title>Node81&#45;&gt;Node13</title>
<path fill="none" stroke="midnightblue" d="M684.94,-246.27C719.84,-212.35 847.49,-90.14 898,-67 994.96,-22.58 1123.84,-16.26 1184.16,-15.97"/>
<polygon fill="midnightblue" stroke="midnightblue" points="1184.27,-19.47 1194.27,-15.97 1184.27,-12.47 1184.27,-19.47"/>
</g>
<!-- Node107&#45;&gt;Node104 -->
<g id="edge165" class="edge">
<title>Node107&#45;&gt;Node104</title>
<path fill="none" stroke="midnightblue" d="M898.16,-827.48C908.81,-815.11 924.64,-796.53 938,-780 1054.3,-636.19 1188.9,-457.66 1230.26,-402.52"/>
<polygon fill="midnightblue" stroke="midnightblue" points="1233.29,-404.32 1236.48,-394.22 1227.69,-400.12 1233.29,-404.32"/>
</g>
<!-- Node108 -->
<g id="node42" class="node">
<title>Node108</title>
<g id="a_node42"><a xlink:href="../../d3/dec/kratos__application_8h.html" target="_top" xlink:title=" ">
<polygon fill="none" stroke="red" points="1261.5,-744 1261.5,-763 1420.5,-763 1420.5,-744 1261.5,-744"/>
<text text-anchor="middle" x="1341" y="-751" font-family="Helvetica,sans-Serif" font-size="10.00">includes/kratos_application.h</text>
</a>
</g>
</g>
<!-- Node107&#45;&gt;Node108 -->
<g id="edge143" class="edge">
<title>Node107&#45;&gt;Node108</title>
<path fill="none" stroke="midnightblue" d="M959.36,-827.47C1050.71,-810.01 1204.69,-780.56 1286.34,-764.95"/>
<polygon fill="midnightblue" stroke="midnightblue" points="1287.24,-768.34 1296.41,-763.03 1285.93,-761.47 1287.24,-768.34"/>
</g>
<!-- Node112 -->
<g id="node44" class="node">
<title>Node112</title>
<g id="a_node44"><a xlink:href="../../de/dca/variables_8h.html" target="_top" xlink:title=" ">
<polygon fill="none" stroke="red" points="480,-436.5 480,-455.5 594,-455.5 594,-436.5 480,-436.5"/>
<text text-anchor="middle" x="537" y="-443.5" font-family="Helvetica,sans-Serif" font-size="10.00">includes/variables.h</text>
</a>
</g>
</g>
<!-- Node107&#45;&gt;Node112 -->
<g id="edge153" class="edge">
<title>Node107&#45;&gt;Node112</title>
<path fill="none" stroke="midnightblue" d="M807.48,-834.94C656.83,-820.17 342,-777.84 342,-682 342,-682 342,-682 342,-562.5 342,-500.79 415.19,-471.34 471.89,-457.79"/>
<polygon fill="midnightblue" stroke="midnightblue" points="472.93,-461.14 481.9,-455.51 471.38,-454.31 472.93,-461.14"/>
</g>
<!-- Node225 -->
<g id="node45" class="node">
<title>Node225</title>
<g id="a_node45"><a xlink:href="../../de/d89/mat__variables_8h.html" target="_top" xlink:title=" ">
<polygon fill="none" stroke="red" points="565.5,-375 565.5,-394 704.5,-394 704.5,-375 565.5,-375"/>
<text text-anchor="middle" x="635" y="-382" font-family="Helvetica,sans-Serif" font-size="10.00">includes/mat_variables.h</text>
</a>
</g>
</g>
<!-- Node107&#45;&gt;Node225 -->
<g id="edge160" class="edge">
<title>Node107&#45;&gt;Node225</title>
<path fill="none" stroke="midnightblue" d="M807.31,-838.26C682.12,-832.09 443.98,-815.94 368,-780 311.17,-753.12 266,-744.87 266,-682 266,-682 266,-682 266,-501 266,-440.87 446.72,-408.33 555.22,-394.22"/>
<polygon fill="midnightblue" stroke="midnightblue" points="555.68,-397.69 565.16,-392.95 554.8,-390.74 555.68,-397.69"/>
</g>
<!-- Node226 -->
<g id="node46" class="node">
<title>Node226</title>
<g id="a_node46"><a xlink:href="../../de/db5/time__integration__methods__container_8hpp.html" target="_top" xlink:title=" ">
<polygon fill="none" stroke="red" points="760.5,-727.5 760.5,-779.5 909.5,-779.5 909.5,-727.5 760.5,-727.5"/>
<text text-anchor="start" x="768.5" y="-767.5" font-family="Helvetica,sans-Serif" font-size="10.00">custom_solvers/time</text>
<text text-anchor="start" x="768.5" y="-756.5" font-family="Helvetica,sans-Serif" font-size="10.00">_integration_methods</text>
<text text-anchor="start" x="768.5" y="-745.5" font-family="Helvetica,sans-Serif" font-size="10.00">/time_integration_methods</text>
<text text-anchor="middle" x="835" y="-734.5" font-family="Helvetica,sans-Serif" font-size="10.00">_container.hpp</text>
</a>
</g>
</g>
<!-- Node107&#45;&gt;Node226 -->
<g id="edge166" class="edge">
<title>Node107&#45;&gt;Node226</title>
<path fill="none" stroke="midnightblue" d="M877.58,-827.13C871.46,-816.7 862.92,-802.14 855.1,-788.78"/>
<polygon fill="midnightblue" stroke="midnightblue" points="857.91,-786.66 849.83,-779.8 851.87,-790.2 857.91,-786.66"/>
</g>
<!-- Node230 -->
<g id="node47" class="node">
<title>Node230</title>
<g id="a_node47"><a xlink:href="../../dc/d78/_solid_mechanics_application_2custom__utilities_2shell__cross__section_8hpp.html" target="_top" xlink:title=" ">
<polygon fill="none" stroke="red" points="875.5,-369.5 875.5,-399.5 996.5,-399.5 996.5,-369.5 875.5,-369.5"/>
<text text-anchor="start" x="883.5" y="-387.5" font-family="Helvetica,sans-Serif" font-size="10.00">custom_utilities/shell</text>
<text text-anchor="middle" x="936" y="-376.5" font-family="Helvetica,sans-Serif" font-size="10.00">_cross_section.hpp</text>
</a>
</g>
</g>
<!-- Node107&#45;&gt;Node230 -->
<g id="edge167" class="edge">
<title>Node107&#45;&gt;Node230</title>
<path fill="none" stroke="midnightblue" d="M825.18,-827.45C798.56,-818.26 769.3,-803.45 751,-780 723.76,-745.08 733,-726.28 733,-682 733,-682 733,-682 733,-562.5 733,-481.28 826.47,-428.79 886.56,-403.43"/>
<polygon fill="midnightblue" stroke="midnightblue" points="887.97,-406.63 895.89,-399.6 885.31,-400.16 887.97,-406.63"/>
</g>
<!-- Node233 -->
<g id="node48" class="node">
<title>Node233</title>
<g id="a_node48"><a xlink:href="../../d2/da6/global__pointer__variables_8h.html" target="_top" xlink:title=" ">
<polygon fill="none" stroke="black" points="872,-548.5 872,-578.5 1002,-578.5 1002,-548.5 872,-548.5"/>
<text text-anchor="start" x="880" y="-566.5" font-family="Helvetica,sans-Serif" font-size="10.00">includes/global_pointer</text>
<text text-anchor="middle" x="937" y="-555.5" font-family="Helvetica,sans-Serif" font-size="10.00">_variables.h</text>
</a>
</g>
</g>
<!-- Node107&#45;&gt;Node233 -->
<g id="edge173" class="edge">
<title>Node107&#45;&gt;Node233</title>
<path fill="none" stroke="midnightblue" d="M895.62,-827.03C903.1,-814.98 913.01,-797.1 918,-780 937.61,-712.79 938.73,-629.2 937.9,-588.72"/>
<polygon fill="midnightblue" stroke="midnightblue" points="941.4,-588.62 937.63,-578.72 934.4,-588.8 941.4,-588.62"/>
</g>
<!-- Node108&#45;&gt;Node2 -->
<g id="edge144" class="edge">
<title>Node108&#45;&gt;Node2</title>
<path fill="none" stroke="midnightblue" d="M1261.45,-747.44C978.55,-727.29 38,-641.08 38,-385.5 38,-385.5 38,-385.5 38,-143 38,-103.28 51.73,-88.69 85,-67 139.07,-31.75 335.8,-20.63 414.32,-17.55"/>
<polygon fill="midnightblue" stroke="midnightblue" points="414.72,-21.04 424.58,-17.17 414.46,-14.05 414.72,-21.04"/>
</g>
<!-- Node108&#45;&gt;Node3 -->
<g id="edge145" class="edge">
<title>Node108&#45;&gt;Node3</title>
<path fill="none" stroke="midnightblue" d="M1420.76,-753.17C1782.81,-755.17 3254,-751.8 3254,-564.5 3254,-564.5 3254,-564.5 3254,-143 3254,-88.58 3209.04,-85.88 3158,-67 2965.48,4.22 2436.28,-71.27 2235,-31 2231.74,-30.35 2228.4,-29.46 2225.1,-28.45"/>
<polygon fill="midnightblue" stroke="midnightblue" points="2226.08,-25.08 2215.49,-25.12 2223.79,-31.7 2226.08,-25.08"/>
</g>
<!-- Node108&#45;&gt;Node40 -->
<g id="edge152" class="edge">
<title>Node108&#45;&gt;Node40</title>
<path fill="none" stroke="midnightblue" d="M1347.98,-743.79C1386.18,-696.1 1570.16,-466.45 1621.61,-402.22"/>
<polygon fill="midnightblue" stroke="midnightblue" points="1624.44,-404.28 1627.96,-394.29 1618.97,-399.91 1624.44,-404.28"/>
</g>
<!-- Node108&#45;&gt;Node53 -->
<g id="edge151" class="edge">
<title>Node108&#45;&gt;Node53</title>
<path fill="none" stroke="midnightblue" d="M1420.76,-750.78C1756.31,-743.02 3036,-708.05 3036,-626 3036,-626 3036,-626 3036,-501 3036,-397.28 2690.99,-300.04 2565.19,-268.03"/>
<polygon fill="midnightblue" stroke="midnightblue" points="2566.02,-264.63 2555.47,-265.57 2564.31,-271.42 2566.02,-264.63"/>
</g>
<!-- Node108&#45;&gt;Node84 -->
<g id="edge150" class="edge">
<title>Node108&#45;&gt;Node84</title>
<path fill="none" stroke="midnightblue" d="M1300.46,-743.99C1170.24,-715.5 771,-618.72 771,-503 771,-503 771,-503 771,-445 771,-406.04 782.13,-361.49 789.23,-337.02"/>
<polygon fill="midnightblue" stroke="midnightblue" points="792.63,-337.87 792.15,-327.29 785.92,-335.86 792.63,-337.87"/>
</g>
<!-- Node109 -->
<g id="node43" class="node">
<title>Node109</title>
<g id="a_node43"><a xlink:href="../../d4/dfe/element_8h.html" target="_top" xlink:title=" ">
<polygon fill="none" stroke="red" points="1769,-671.5 1769,-690.5 1879,-690.5 1879,-671.5 1769,-671.5"/>
<text text-anchor="middle" x="1824" y="-678.5" font-family="Helvetica,sans-Serif" font-size="10.00">includes/element.h</text>
</a>
</g>
</g>
<!-- Node108&#45;&gt;Node109 -->
<g id="edge146" class="edge">
<title>Node108&#45;&gt;Node109</title>
<path fill="none" stroke="midnightblue" d="M1399.26,-744C1489.92,-730.76 1664.16,-705.33 1758.86,-691.51"/>
<polygon fill="midnightblue" stroke="midnightblue" points="1759.5,-694.95 1768.89,-690.04 1758.48,-688.03 1759.5,-694.95"/>
</g>
<!-- Node109&#45;&gt;Node16 -->
<g id="edge147" class="edge">
<title>Node109&#45;&gt;Node16</title>
<path fill="none" stroke="midnightblue" d="M1879.16,-672.72C1952.76,-663 2083.12,-645.79 2163.4,-635.19"/>
<polygon fill="midnightblue" stroke="midnightblue" points="2163.96,-638.65 2173.42,-633.87 2163.05,-631.71 2163.96,-638.65"/>
</g>
<!-- Node109&#45;&gt;Node92 -->
<g id="edge148" class="edge">
<title>Node109&#45;&gt;Node92</title>
<path fill="none" stroke="midnightblue" d="M1879.08,-679.6C1988.24,-678.03 2227.86,-670.51 2301,-635 2382.1,-595.62 2445.76,-502.99 2469.71,-464.37"/>
<polygon fill="midnightblue" stroke="midnightblue" points="2472.72,-466.15 2474.93,-455.79 2466.74,-462.51 2472.72,-466.15"/>
</g>
<!-- Node109&#45;&gt;Node101 -->
<g id="edge149" class="edge">
<title>Node109&#45;&gt;Node101</title>
<path fill="none" stroke="midnightblue" d="M1768.85,-674.91C1680.43,-665.22 1502.87,-639.44 1365,-579 1261.1,-533.45 1156.1,-446.3 1110.96,-406.39"/>
<polygon fill="midnightblue" stroke="midnightblue" points="1113.28,-403.77 1103.49,-399.73 1108.62,-409 1113.28,-403.77"/>
</g>
<!-- Node112&#45;&gt;Node2 -->
<g id="edge154" class="edge">
<title>Node112&#45;&gt;Node2</title>
<path fill="none" stroke="midnightblue" d="M479.7,-439.91C381.14,-427.68 190,-387.18 190,-257 190,-257 190,-257 190,-143 190,-106 195.38,-90.45 224,-67 252.93,-43.3 360.1,-27.13 414.65,-20.24"/>
<polygon fill="midnightblue" stroke="midnightblue" points="415.32,-23.69 424.82,-18.99 414.46,-16.74 415.32,-23.69"/>
</g>
<!-- Node112&#45;&gt;Node3 -->
<g id="edge155" class="edge">
<title>Node112&#45;&gt;Node3</title>
<path fill="none" stroke="midnightblue" d="M534.79,-436.15C531.56,-420.99 527.29,-389.71 541,-369 598.59,-281.98 661.24,-317.5 752,-266 892.77,-186.12 902.92,-116.56 1057,-67 1163.22,-32.83 1965.98,-19.68 2155.84,-17.03"/>
<polygon fill="midnightblue" stroke="midnightblue" points="2155.99,-20.52 2165.94,-16.89 2155.9,-13.52 2155.99,-20.52"/>
</g>
<!-- Node112&#45;&gt;Node4 -->
<g id="edge156" class="edge">
<title>Node112&#45;&gt;Node4</title>
<path fill="none" stroke="midnightblue" d="M584.49,-436.42C627.3,-428.31 691.81,-415.15 747,-400 878.6,-363.87 906.8,-339.54 1038,-302 1104.75,-282.9 1124.99,-290.36 1190,-266 1207.87,-259.3 1209.66,-251.27 1228,-246 1328.2,-217.22 1636.88,-205.96 1768.04,-202.4"/>
<polygon fill="midnightblue" stroke="midnightblue" points="1768.4,-205.89 1778.3,-202.13 1768.21,-198.89 1768.4,-205.89"/>
</g>
<!-- Node112&#45;&gt;Node67 -->
<g id="edge157" class="edge">
<title>Node112&#45;&gt;Node67</title>
<path fill="none" stroke="midnightblue" d="M537.79,-436.05C539.39,-421.29 543.96,-391.25 556,-369 575.3,-333.31 581.72,-320.16 618,-302 679.75,-271.1 874.26,-261.38 979.96,-258.35"/>
<polygon fill="midnightblue" stroke="midnightblue" points="980.32,-261.84 990.22,-258.07 980.13,-254.85 980.32,-261.84"/>
</g>
<!-- Node112&#45;&gt;Node84 -->
<g id="edge158" class="edge">
<title>Node112&#45;&gt;Node84</title>
<path fill="none" stroke="midnightblue" d="M594.18,-438.23C630.1,-432.13 676.38,-420.79 713,-400 742.1,-383.48 768.08,-353.91 782.65,-335.3"/>
<polygon fill="midnightblue" stroke="midnightblue" points="785.59,-337.22 788.86,-327.14 780.02,-332.98 785.59,-337.22"/>
</g>
<!-- Node112&#45;&gt;Node101 -->
<g id="edge159" class="edge">
<title>Node112&#45;&gt;Node101</title>
<path fill="none" stroke="midnightblue" d="M594.08,-440.94C680.49,-434.47 849.9,-420.58 1004.56,-399.98"/>
<polygon fill="midnightblue" stroke="midnightblue" points="1005.28,-403.42 1014.73,-398.62 1004.35,-396.48 1005.28,-403.42"/>
</g>
<!-- Node225&#45;&gt;Node2 -->
<g id="edge161" class="edge">
<title>Node225&#45;&gt;Node2</title>
<path fill="none" stroke="midnightblue" d="M567.73,-374.98C529,-367.92 480.53,-355.28 442,-333 380.54,-297.45 352,-272.01 352,-201 352,-201 352,-201 352,-143 352,-107.58 355.15,-95.64 376,-67 387.43,-51.3 405.24,-38.65 420.17,-29.94"/>
<polygon fill="midnightblue" stroke="midnightblue" points="421.97,-32.94 429.01,-25.03 418.57,-26.82 421.97,-32.94"/>
</g>
<!-- Node225&#45;&gt;Node4 -->
<g id="edge162" class="edge">
<title>Node225&#45;&gt;Node4</title>
<path fill="none" stroke="midnightblue" d="M639.18,-374.92C648.13,-357.61 670.98,-318.71 703,-302 867.13,-216.34 941.64,-322.32 1118,-266 1134.7,-260.67 1135.24,-251.13 1152,-246 1274.2,-208.58 1598.56,-219.62 1726,-210 1739.77,-208.96 1754.56,-207.72 1768.5,-206.51"/>
<polygon fill="midnightblue" stroke="midnightblue" points="1768.82,-209.99 1778.48,-205.62 1768.21,-203.02 1768.82,-209.99"/>
</g>
<!-- Node225&#45;&gt;Node67 -->
<g id="edge163" class="edge">
<title>Node225&#45;&gt;Node67</title>
<path fill="none" stroke="midnightblue" d="M631.13,-374.56C624.61,-357.96 613.84,-322.23 632,-302 654.79,-276.63 867.14,-264.31 980.08,-259.52"/>
<polygon fill="midnightblue" stroke="midnightblue" points="980.52,-263 990.36,-259.09 980.23,-256.01 980.52,-263"/>
</g>
<!-- Node225&#45;&gt;Node84 -->
<g id="edge164" class="edge">
<title>Node225&#45;&gt;Node84</title>
<path fill="none" stroke="midnightblue" d="M656.25,-374.87C683.94,-363.62 732.56,-343.87 764.27,-330.99"/>
<polygon fill="midnightblue" stroke="midnightblue" points="765.97,-334.07 773.92,-327.06 763.34,-327.58 765.97,-334.07"/>
</g>
<!-- Node230&#45;&gt;Node2 -->
<g id="edge168" class="edge">
<title>Node230&#45;&gt;Node2</title>
<path fill="none" stroke="midnightblue" d="M875.46,-380.14C775.66,-373.93 581.34,-358.91 518,-333 442.36,-302.06 390,-282.72 390,-201 390,-201 390,-201 390,-143 390,-100.47 417.11,-56.43 433.94,-33.2"/>
<polygon fill="midnightblue" stroke="midnightblue" points="436.82,-35.2 440.01,-25.1 431.21,-31 436.82,-35.2"/>
</g>
<!-- Node230&#45;&gt;Node3 -->
<g id="edge169" class="edge">
<title>Node230&#45;&gt;Node3</title>
<path fill="none" stroke="midnightblue" d="M875.4,-383.27C793.06,-380.58 660.68,-366.49 703,-302 725.06,-268.38 749.5,-282.87 786,-266 837.24,-242.32 850.53,-237.19 900,-210 1006.81,-151.29 1017.49,-102.79 1134,-67 1232.93,-36.61 1973.66,-20.71 2155.69,-17.23"/>
<polygon fill="midnightblue" stroke="midnightblue" points="2155.96,-20.73 2165.89,-17.04 2155.83,-13.73 2155.96,-20.73"/>
</g>
<!-- Node230&#45;&gt;Node4 -->
<g id="edge170" class="edge">
<title>Node230&#45;&gt;Node4</title>
<path fill="none" stroke="midnightblue" d="M963.08,-369.47C997.05,-352.2 1057.35,-322.63 1111,-302 1161.78,-282.47 1177.71,-286.76 1228,-266 1245.64,-258.72 1247.66,-251.3 1266,-246 1463.01,-189.07 1521.64,-227.01 1726,-210 1739.76,-208.85 1754.55,-207.58 1768.49,-206.35"/>
<polygon fill="midnightblue" stroke="midnightblue" points="1768.81,-209.84 1778.46,-205.47 1768.19,-202.86 1768.81,-209.84"/>
</g>
<!-- Node230&#45;&gt;Node47 -->
<g id="edge171" class="edge">
<title>Node230&#45;&gt;Node47</title>
<path fill="none" stroke="midnightblue" d="M996.62,-370.39C999.78,-369.88 1002.92,-369.41 1006,-369 1268.17,-334.09 1336.38,-354.35 1600,-333 1624.92,-330.98 1652.24,-328.32 1676.26,-325.83"/>
<polygon fill="midnightblue" stroke="midnightblue" points="1676.75,-329.3 1686.33,-324.78 1676.02,-322.34 1676.75,-329.3"/>
</g>
<!-- Node230&#45;&gt;Node57 -->
<g id="edge172" class="edge">
<title>Node230&#45;&gt;Node57</title>
<path fill="none" stroke="midnightblue" d="M984.1,-369.48C1070.77,-344.22 1251.51,-291.54 1331.03,-268.36"/>
<polygon fill="midnightblue" stroke="midnightblue" points="1332.04,-271.71 1340.66,-265.55 1330.08,-264.99 1332.04,-271.71"/>
</g>
<!-- Node233&#45;&gt;Node2 -->
<g id="edge174" class="edge">
<title>Node233&#45;&gt;Node2</title>
<path fill="none" stroke="midnightblue" d="M871.75,-560.22C730.18,-554.81 398.81,-539.56 290,-512 196.62,-488.35 114,-481.83 114,-385.5 114,-385.5 114,-385.5 114,-143 114,-102.57 130.24,-89.25 164,-67 204.86,-40.07 349.16,-24.77 414.46,-19.08"/>
<polygon fill="midnightblue" stroke="midnightblue" points="414.94,-22.55 424.61,-18.22 414.34,-15.58 414.94,-22.55"/>
</g>
<!-- Node233&#45;&gt;Node3 -->
<g id="edge175" class="edge">
<title>Node233&#45;&gt;Node3</title>
<path fill="none" stroke="midnightblue" d="M871.68,-557.37C755.49,-546.75 520.41,-517.97 471,-456 422.89,-395.66 310.2,-466.47 574,-302 642.49,-259.3 674.97,-290.09 752,-266 965.38,-199.26 996.27,-117.76 1214,-67 1397.44,-24.23 1994.34,-17.67 2155.55,-16.68"/>
<polygon fill="midnightblue" stroke="midnightblue" points="2155.99,-20.17 2165.97,-16.62 2155.95,-13.17 2155.99,-20.17"/>
</g>
<!-- Node233&#45;&gt;Node4 -->
<g id="edge176" class="edge">
<title>Node233&#45;&gt;Node4</title>
<path fill="none" stroke="midnightblue" d="M979.76,-548.49C1051.94,-523.92 1201.3,-469.04 1316,-400 1409.43,-343.77 1406.95,-289.36 1507,-246 1518.85,-240.86 1678.94,-219.93 1768.45,-208.52"/>
<polygon fill="midnightblue" stroke="midnightblue" points="1768.99,-211.98 1778.47,-207.24 1768.11,-205.03 1768.99,-211.98"/>
</g>
<!-- Node233&#45;&gt;Node84 -->
<g id="edge177" class="edge">
<title>Node233&#45;&gt;Node84</title>
<path fill="none" stroke="midnightblue" d="M928.75,-548.33C904.27,-506.25 832.04,-382.15 805.2,-336.03"/>
<polygon fill="midnightblue" stroke="midnightblue" points="808.12,-334.08 800.06,-327.2 802.07,-337.6 808.12,-334.08"/>
</g>
<!-- Node233&#45;&gt;Node93 -->
<g id="edge179" class="edge">
<title>Node233&#45;&gt;Node93</title>
<path fill="none" stroke="midnightblue" d="M1002.07,-558C1164.83,-546.76 1587.51,-517.55 1741.13,-506.93"/>
<polygon fill="midnightblue" stroke="midnightblue" points="1741.55,-510.41 1751.29,-506.23 1741.07,-503.43 1741.55,-510.41"/>
</g>
<!-- Node233&#45;&gt;Node101 -->
<g id="edge178" class="edge">
<title>Node233&#45;&gt;Node101</title>
<path fill="none" stroke="midnightblue" d="M949.1,-548.31C975.39,-517.5 1037.85,-444.28 1069.27,-407.45"/>
<polygon fill="midnightblue" stroke="midnightblue" points="1072.01,-409.63 1075.84,-399.75 1066.69,-405.09 1072.01,-409.63"/>
</g>
<!-- Node235 -->
<g id="node50" class="node">
<title>Node235</title>
<g id="a_node50"><a xlink:href="../../db/d09/non__linear__isotropic__kinematic__hardening__law_8hpp.html" target="_top" xlink:title=" ">
<polygon fill="none" stroke="red" points="3319.5,-727.5 3319.5,-779.5 3486.5,-779.5 3486.5,-727.5 3319.5,-727.5"/>
<text text-anchor="start" x="3327.5" y="-767.5" font-family="Helvetica,sans-Serif" font-size="10.00">custom_constitutive</text>
<text text-anchor="start" x="3327.5" y="-756.5" font-family="Helvetica,sans-Serif" font-size="10.00">/custom_hardening_laws</text>
<text text-anchor="start" x="3327.5" y="-745.5" font-family="Helvetica,sans-Serif" font-size="10.00">/non_linear_isotropic</text>
<text text-anchor="middle" x="3403" y="-734.5" font-family="Helvetica,sans-Serif" font-size="10.00">_kinematic_hardening_law.hpp</text>
</a>
</g>
</g>
<!-- Node234&#45;&gt;Node235 -->
<g id="edge181" class="edge">
<title>Node234&#45;&gt;Node235</title>
<path fill="none" stroke="midnightblue" d="M3399.45,-816.34C3399.92,-808.04 3400.46,-798.65 3400.97,-789.75"/>
<polygon fill="midnightblue" stroke="midnightblue" points="3404.48,-789.79 3401.56,-779.61 3397.49,-789.39 3404.48,-789.79"/>
</g>
</g>
</svg>
