<?xml version="1.0" encoding="UTF-8" standalone="no"?>
<!DOCTYPE svg PUBLIC "-//W3C//DTD SVG 1.1//EN"
 "http://www.w3.org/Graphics/SVG/1.1/DTD/svg11.dtd">
<!-- Generated by graphviz version 2.43.0 (0)
 -->
<!-- Title: optimization_problem_vtu_output_process.ExpressionData Pages: 1 -->
<svg width="362pt" height="386pt"
 viewBox="0.00 0.00 362.00 386.00" xmlns="http://www.w3.org/2000/svg" xmlns:xlink="http://www.w3.org/1999/xlink">
<g id="graph0" class="graph" transform="scale(1 1) rotate(0) translate(4 382)">
<title>optimization_problem_vtu_output_process.ExpressionData</title>
<!-- Node1 -->
<g id="node1" class="node">
<title>Node1</title>
<g id="a_node1"><a xlink:title=" ">
<polygon fill="#bfbfbf" stroke="black" points="79,-138.5 79,-283.5 276,-283.5 276,-138.5 79,-138.5"/>
<text text-anchor="start" x="87" y="-271.5" font-family="Helvetica,sans-Serif" font-size="10.00">optimization_problem</text>
<text text-anchor="middle" x="177.5" y="-260.5" font-family="Helvetica,sans-Serif" font-size="10.00">_vtu_output_process.ExpressionData</text>
<polyline fill="none" stroke="black" points="79,-253.5 276,-253.5 "/>
<text text-anchor="start" x="87" y="-241.5" font-family="Helvetica,sans-Serif" font-size="10.00">+ expression_path</text>
<text text-anchor="start" x="87" y="-230.5" font-family="Helvetica,sans-Serif" font-size="10.00">+ container_expression_type</text>
<text text-anchor="start" x="87" y="-219.5" font-family="Helvetica,sans-Serif" font-size="10.00">+ model_part</text>
<polyline fill="none" stroke="black" points="79,-212.5 276,-212.5 "/>
<text text-anchor="start" x="87" y="-200.5" font-family="Helvetica,sans-Serif" font-size="10.00">+ __init__()</text>
<text text-anchor="start" x="87" y="-189.5" font-family="Helvetica,sans-Serif" font-size="10.00">+ GetContainerExpressionType()</text>
<text text-anchor="start" x="87" y="-178.5" font-family="Helvetica,sans-Serif" font-size="10.00">+ GetContainerExpressionName()</text>
<text text-anchor="start" x="87" y="-167.5" font-family="Helvetica,sans-Serif" font-size="10.00">+ GetExpressionPath()</text>
<text text-anchor="start" x="87" y="-156.5" font-family="Helvetica,sans-Serif" font-size="10.00">+ GetModelPart()</text>
<text text-anchor="start" x="87" y="-145.5" font-family="Helvetica,sans-Serif" font-size="10.00">+ GetContainerExpression()</text>
</a>
</g>
</g>
<!-- Node3 -->
<g id="node3" class="node">
<title>Node3</title>
<g id="a_node3"><a xlink:href="../../d8/de1/classoptimization__problem__vtu__output__process_1_1_collective_expression_data.html" target="_top" xlink:title=" ">
<polygon fill="none" stroke="black" points="0,-0.5 0,-101.5 169,-101.5 169,-0.5 0,-0.5"/>
<text text-anchor="start" x="8" y="-89.5" font-family="Helvetica,sans-Serif" font-size="10.00">optimization_problem</text>
<text text-anchor="start" x="8" y="-78.5" font-family="Helvetica,sans-Serif" font-size="10.00">_vtu_output_process.Collective</text>
<text text-anchor="middle" x="84.5" y="-67.5" font-family="Helvetica,sans-Serif" font-size="10.00">ExpressionData</text>
<polyline fill="none" stroke="black" points="0,-60.5 169,-60.5 "/>
<text text-anchor="start" x="8" y="-48.5" font-family="Helvetica,sans-Serif" font-size="10.00">+ container_expression</text>
<text text-anchor="start" x="8" y="-37.5" font-family="Helvetica,sans-Serif" font-size="10.00">_index</text>
<polyline fill="none" stroke="black" points="0,-30.5 169,-30.5 "/>
<text text-anchor="start" x="8" y="-18.5" font-family="Helvetica,sans-Serif" font-size="10.00">+ __init__()</text>
<text text-anchor="start" x="8" y="-7.5" font-family="Helvetica,sans-Serif" font-size="10.00">+ GetContainerExpression()</text>
</a>
</g>
</g>
<!-- Node1&#45;&gt;Node3 -->
<g id="edge2" class="edge">
<title>Node1&#45;&gt;Node3</title>
<path fill="none" stroke="midnightblue" d="M130.2,-129.65C124.59,-120.11 118.99,-110.6 113.73,-101.67"/>
<polygon fill="none" stroke="midnightblue" points="127.26,-131.55 135.35,-138.4 133.3,-128 127.26,-131.55"/>
</g>
<!-- Node4 -->
<g id="node4" class="node">
<title>Node4</title>
<g id="a_node4"><a xlink:href="../../d9/db1/classoptimization__problem__vtu__output__process_1_1_container_expression_data.html" target="_top" xlink:title=" ">
<polygon fill="none" stroke="black" points="187,-6 187,-96 354,-96 354,-6 187,-6"/>
<text text-anchor="start" x="195" y="-84" font-family="Helvetica,sans-Serif" font-size="10.00">optimization_problem</text>
<text text-anchor="start" x="195" y="-73" font-family="Helvetica,sans-Serif" font-size="10.00">_vtu_output_process.Container</text>
<text text-anchor="middle" x="270.5" y="-62" font-family="Helvetica,sans-Serif" font-size="10.00">ExpressionData</text>
<polyline fill="none" stroke="black" points="187,-55 354,-55 "/>
<text text-anchor="middle" x="270.5" y="-43" font-family="Helvetica,sans-Serif" font-size="10.00"> </text>
<polyline fill="none" stroke="black" points="187,-36 354,-36 "/>
<text text-anchor="start" x="195" y="-24" font-family="Helvetica,sans-Serif" font-size="10.00">+ __inif__()</text>
<text text-anchor="start" x="195" y="-13" font-family="Helvetica,sans-Serif" font-size="10.00">+ GetContainerExpression()</text>
</a>
</g>
</g>
<!-- Node1&#45;&gt;Node4 -->
<g id="edge3" class="edge">
<title>Node1&#45;&gt;Node4</title>
<path fill="none" stroke="midnightblue" d="M224.82,-129.62C231.58,-118.12 238.32,-106.66 244.47,-96.22"/>
<polygon fill="none" stroke="midnightblue" points="221.7,-128 219.65,-138.4 227.74,-131.55 221.7,-128"/>
</g>
<!-- Node2 -->
<g id="node2" class="node">
<title>Node2</title>
<g id="a_node2"><a xlink:title=" ">
<polygon fill="none" stroke="#bfbfbf" points="159,-320.5 159,-377.5 196,-377.5 196,-320.5 159,-320.5"/>
<text text-anchor="middle" x="177.5" y="-365.5" font-family="Helvetica,sans-Serif" font-size="10.00">ABC</text>
<polyline fill="none" stroke="#bfbfbf" points="159,-358.5 196,-358.5 "/>
<text text-anchor="middle" x="177.5" y="-346.5" font-family="Helvetica,sans-Serif" font-size="10.00"> </text>
<polyline fill="none" stroke="#bfbfbf" points="159,-339.5 196,-339.5 "/>
<text text-anchor="middle" x="177.5" y="-327.5" font-family="Helvetica,sans-Serif" font-size="10.00"> </text>
</a>
</g>
</g>
<!-- Node2&#45;&gt;Node1 -->
<g id="edge1" class="edge">
<title>Node2&#45;&gt;Node1</title>
<path fill="none" stroke="midnightblue" d="M177.5,-310.36C177.5,-302 177.5,-292.87 177.5,-283.66"/>
<polygon fill="none" stroke="midnightblue" points="174,-310.48 177.5,-320.48 181,-310.48 174,-310.48"/>
</g>
</g>
</svg>
