<?xml version="1.0" encoding="UTF-8" standalone="no"?>
<!DOCTYPE svg PUBLIC "-//W3C//DTD SVG 1.1//EN"
 "http://www.w3.org/Graphics/SVG/1.1/DTD/svg11.dtd">
<!-- Generated by graphviz version 2.43.0 (0)
 -->
<!-- Title: /home/runner/work/Documentation/Documentation/master/applications/GeoMechanicsApplication/geo_aliases.h Pages: 1 -->
<svg width="3809pt" height="595pt"
 viewBox="0.00 0.00 3808.50 595.00" xmlns="http://www.w3.org/2000/svg" xmlns:xlink="http://www.w3.org/1999/xlink">
<g id="graph0" class="graph" transform="scale(1 1) rotate(0) translate(4 591)">
<title>/home/runner/work/Documentation/Documentation/master/applications/GeoMechanicsApplication/geo_aliases.h</title>
<!-- Node1 -->
<g id="node1" class="node">
<title>Node1</title>
<g id="a_node1"><a xlink:title=" ">
<polygon fill="#bfbfbf" stroke="black" points="1897,-545.5 1897,-586.5 2112,-586.5 2112,-545.5 1897,-545.5"/>
<text text-anchor="start" x="1905" y="-574.5" font-family="Helvetica,sans-Serif" font-size="10.00">/home/runner/work/Documentation</text>
<text text-anchor="start" x="1905" y="-563.5" font-family="Helvetica,sans-Serif" font-size="10.00">/Documentation/master/applications</text>
<text text-anchor="middle" x="2004.5" y="-552.5" font-family="Helvetica,sans-Serif" font-size="10.00">/GeoMechanicsApplication/geo_aliases.h</text>
</a>
</g>
</g>
<!-- Node2 -->
<g id="node2" class="node">
<title>Node2</title>
<g id="a_node2"><a xlink:href="../../dc/da3/integration__scheme_8h.html" target="_top" xlink:title=" ">
<polygon fill="none" stroke="black" points="244.5,-456.5 244.5,-508.5 438.5,-508.5 438.5,-456.5 244.5,-456.5"/>
<text text-anchor="start" x="252.5" y="-496.5" font-family="Helvetica,sans-Serif" font-size="10.00">/home/runner/work/Documentation</text>
<text text-anchor="start" x="252.5" y="-485.5" font-family="Helvetica,sans-Serif" font-size="10.00">/Documentation/master/applications</text>
<text text-anchor="start" x="252.5" y="-474.5" font-family="Helvetica,sans-Serif" font-size="10.00">/GeoMechanicsApplication/custom</text>
<text text-anchor="middle" x="341.5" y="-463.5" font-family="Helvetica,sans-Serif" font-size="10.00">_elements/integration_scheme.h</text>
</a>
</g>
</g>
<!-- Node1&#45;&gt;Node2 -->
<g id="edge1" class="edge">
<title>Node1&#45;&gt;Node2</title>
<path fill="none" stroke="midnightblue" d="M1886.99,-559.24C1574.35,-543.92 726.41,-502.36 438.59,-488.26"/>
<polygon fill="midnightblue" stroke="midnightblue" points="1886.83,-562.74 1896.99,-559.73 1887.17,-555.75 1886.83,-562.74"/>
</g>
<!-- Node16 -->
<g id="node16" class="node">
<title>Node16</title>
<g id="a_node16"><a xlink:href="../../dc/dc3/apply__k0__procedure__process_8cpp.html" target="_top" xlink:title=" ">
<polygon fill="none" stroke="black" points="2004,-456.5 2004,-508.5 2239,-508.5 2239,-456.5 2004,-456.5"/>
<text text-anchor="start" x="2012" y="-496.5" font-family="Helvetica,sans-Serif" font-size="10.00">/home/runner/work/Documentation</text>
<text text-anchor="start" x="2012" y="-485.5" font-family="Helvetica,sans-Serif" font-size="10.00">/Documentation/master/applications</text>
<text text-anchor="start" x="2012" y="-474.5" font-family="Helvetica,sans-Serif" font-size="10.00">/GeoMechanicsApplication/custom</text>
<text text-anchor="middle" x="2121.5" y="-463.5" font-family="Helvetica,sans-Serif" font-size="10.00">_processes/apply_k0_procedure_process.cpp</text>
</a>
</g>
</g>
<!-- Node1&#45;&gt;Node16 -->
<g id="edge17" class="edge">
<title>Node1&#45;&gt;Node16</title>
<path fill="none" stroke="midnightblue" d="M2041.01,-539.57C2055.11,-529.74 2071.21,-518.53 2085.28,-508.73"/>
<polygon fill="midnightblue" stroke="midnightblue" points="2038.73,-536.89 2032.52,-545.48 2042.73,-542.63 2038.73,-536.89"/>
</g>
<!-- Node17 -->
<g id="node17" class="node">
<title>Node17</title>
<g id="a_node17"><a xlink:href="../../d6/d08/dof__utilities_8h.html" target="_top" xlink:title=" ">
<polygon fill="none" stroke="black" points="1791.5,-456.5 1791.5,-508.5 1985.5,-508.5 1985.5,-456.5 1791.5,-456.5"/>
<text text-anchor="start" x="1799.5" y="-496.5" font-family="Helvetica,sans-Serif" font-size="10.00">/home/runner/work/Documentation</text>
<text text-anchor="start" x="1799.5" y="-485.5" font-family="Helvetica,sans-Serif" font-size="10.00">/Documentation/master/applications</text>
<text text-anchor="start" x="1799.5" y="-474.5" font-family="Helvetica,sans-Serif" font-size="10.00">/GeoMechanicsApplication/custom</text>
<text text-anchor="middle" x="1888.5" y="-463.5" font-family="Helvetica,sans-Serif" font-size="10.00">_utilities/dof_utilities.h</text>
</a>
</g>
</g>
<!-- Node1&#45;&gt;Node17 -->
<g id="edge18" class="edge">
<title>Node1&#45;&gt;Node17</title>
<path fill="none" stroke="midnightblue" d="M1968.3,-539.57C1954.32,-529.74 1938.36,-518.53 1924.41,-508.73"/>
<polygon fill="midnightblue" stroke="midnightblue" points="1966.52,-542.59 1976.72,-545.48 1970.54,-536.87 1966.52,-542.59"/>
</g>
<!-- Node34 -->
<g id="node34" class="node">
<title>Node34</title>
<g id="a_node34"><a xlink:href="../../dd/df2/_geo_mechanics_application_2custom__utilities_2element__utilities_8hpp.html" target="_top" xlink:title=" ">
<polygon fill="none" stroke="black" points="2931.5,-456.5 2931.5,-508.5 3125.5,-508.5 3125.5,-456.5 2931.5,-456.5"/>
<text text-anchor="start" x="2939.5" y="-496.5" font-family="Helvetica,sans-Serif" font-size="10.00">/home/runner/work/Documentation</text>
<text text-anchor="start" x="2939.5" y="-485.5" font-family="Helvetica,sans-Serif" font-size="10.00">/Documentation/master/applications</text>
<text text-anchor="start" x="2939.5" y="-474.5" font-family="Helvetica,sans-Serif" font-size="10.00">/GeoMechanicsApplication/custom</text>
<text text-anchor="middle" x="3028.5" y="-463.5" font-family="Helvetica,sans-Serif" font-size="10.00">_utilities/element_utilities.hpp</text>
</a>
</g>
</g>
<!-- Node1&#45;&gt;Node34 -->
<g id="edge38" class="edge">
<title>Node1&#45;&gt;Node34</title>
<path fill="none" stroke="midnightblue" d="M2122.31,-555.62C2326.52,-539.37 2742.46,-506.27 2931.32,-491.23"/>
<polygon fill="midnightblue" stroke="midnightblue" points="2121.84,-552.15 2112.15,-556.43 2122.4,-559.13 2121.84,-552.15"/>
</g>
<!-- Node3 -->
<g id="node3" class="node">
<title>Node3</title>
<g id="a_node3"><a xlink:href="../../d4/d87/line__interface__element_8h.html" target="_top" xlink:title=" ">
<polygon fill="none" stroke="black" points="244.5,-362 244.5,-414 438.5,-414 438.5,-362 244.5,-362"/>
<text text-anchor="start" x="252.5" y="-402" font-family="Helvetica,sans-Serif" font-size="10.00">/home/runner/work/Documentation</text>
<text text-anchor="start" x="252.5" y="-391" font-family="Helvetica,sans-Serif" font-size="10.00">/Documentation/master/applications</text>
<text text-anchor="start" x="252.5" y="-380" font-family="Helvetica,sans-Serif" font-size="10.00">/GeoMechanicsApplication/custom</text>
<text text-anchor="middle" x="341.5" y="-369" font-family="Helvetica,sans-Serif" font-size="10.00">_elements/line_interface_element.h</text>
</a>
</g>
</g>
<!-- Node2&#45;&gt;Node3 -->
<g id="edge2" class="edge">
<title>Node2&#45;&gt;Node3</title>
<path fill="none" stroke="midnightblue" d="M341.5,-445.99C341.5,-435.41 341.5,-424.03 341.5,-414.25"/>
<polygon fill="midnightblue" stroke="midnightblue" points="338,-446.22 341.5,-456.22 345,-446.22 338,-446.22"/>
</g>
<!-- Node14 -->
<g id="node14" class="node">
<title>Node14</title>
<g id="a_node14"><a xlink:href="../../d2/db6/lobatto__integration__scheme_8h.html" target="_top" xlink:title=" ">
<polygon fill="none" stroke="black" points="10.5,-362 10.5,-414 226.5,-414 226.5,-362 10.5,-362"/>
<text text-anchor="start" x="18.5" y="-402" font-family="Helvetica,sans-Serif" font-size="10.00">/home/runner/work/Documentation</text>
<text text-anchor="start" x="18.5" y="-391" font-family="Helvetica,sans-Serif" font-size="10.00">/Documentation/master/applications</text>
<text text-anchor="start" x="18.5" y="-380" font-family="Helvetica,sans-Serif" font-size="10.00">/GeoMechanicsApplication/custom</text>
<text text-anchor="middle" x="118.5" y="-369" font-family="Helvetica,sans-Serif" font-size="10.00">_elements/lobatto_integration_scheme.h</text>
</a>
</g>
</g>
<!-- Node2&#45;&gt;Node14 -->
<g id="edge14" class="edge">
<title>Node2&#45;&gt;Node14</title>
<path fill="none" stroke="midnightblue" d="M271.67,-452.53C241.91,-440.19 207.53,-425.93 178.9,-414.05"/>
<polygon fill="midnightblue" stroke="midnightblue" points="270.58,-455.87 281.15,-456.47 273.26,-449.4 270.58,-455.87"/>
</g>
<!-- Node4 -->
<g id="node4" class="node">
<title>Node4</title>
<g id="a_node4"><a xlink:href="../../d0/d94/line__interface__element_8cpp.html" target="_top" xlink:title=" ">
<polygon fill="none" stroke="black" points="245,-267.5 245,-319.5 448,-319.5 448,-267.5 245,-267.5"/>
<text text-anchor="start" x="253" y="-307.5" font-family="Helvetica,sans-Serif" font-size="10.00">/home/runner/work/Documentation</text>
<text text-anchor="start" x="253" y="-296.5" font-family="Helvetica,sans-Serif" font-size="10.00">/Documentation/master/applications</text>
<text text-anchor="start" x="253" y="-285.5" font-family="Helvetica,sans-Serif" font-size="10.00">/GeoMechanicsApplication/custom</text>
<text text-anchor="middle" x="346.5" y="-274.5" font-family="Helvetica,sans-Serif" font-size="10.00">_elements/line_interface_element.cpp</text>
</a>
</g>
</g>
<!-- Node3&#45;&gt;Node4 -->
<g id="edge3" class="edge">
<title>Node3&#45;&gt;Node4</title>
<path fill="none" stroke="midnightblue" d="M343.42,-351.49C343.99,-340.91 344.61,-329.53 345.14,-319.75"/>
<polygon fill="midnightblue" stroke="midnightblue" points="339.91,-351.55 342.87,-361.72 346.9,-351.93 339.91,-351.55"/>
</g>
<!-- Node5 -->
<g id="node5" class="node">
<title>Node5</title>
<g id="a_node5"><a xlink:href="../../d5/d83/geo__mechanics__application_8h.html" target="_top" xlink:title=" ">
<polygon fill="none" stroke="black" points="2331.5,-267.5 2331.5,-319.5 2555.5,-319.5 2555.5,-267.5 2331.5,-267.5"/>
<text text-anchor="start" x="2339.5" y="-307.5" font-family="Helvetica,sans-Serif" font-size="10.00">/home/runner/work/Documentation</text>
<text text-anchor="start" x="2339.5" y="-296.5" font-family="Helvetica,sans-Serif" font-size="10.00">/Documentation/master/applications</text>
<text text-anchor="start" x="2339.5" y="-285.5" font-family="Helvetica,sans-Serif" font-size="10.00">/GeoMechanicsApplication/geo_mechanics</text>
<text text-anchor="middle" x="2443.5" y="-274.5" font-family="Helvetica,sans-Serif" font-size="10.00">_application.h</text>
</a>
</g>
</g>
<!-- Node3&#45;&gt;Node5 -->
<g id="edge4" class="edge">
<title>Node3&#45;&gt;Node5</title>
<path fill="none" stroke="midnightblue" d="M448.58,-361.58C460.97,-359.34 473.47,-357.4 485.5,-356 1296.63,-261.63 1511.17,-412.61 2322.5,-320 2325.38,-319.67 2328.29,-319.31 2331.23,-318.91"/>
<polygon fill="midnightblue" stroke="midnightblue" points="447.86,-358.15 438.68,-363.43 449.15,-365.03 447.86,-358.15"/>
</g>
<!-- Node6 -->
<g id="node6" class="node">
<title>Node6</title>
<g id="a_node6"><a xlink:href="../../da/d42/dgeoflow_8h.html" target="_top" xlink:title=" ">
<polygon fill="none" stroke="black" points="2127.5,-178.5 2127.5,-230.5 2321.5,-230.5 2321.5,-178.5 2127.5,-178.5"/>
<text text-anchor="start" x="2135.5" y="-218.5" font-family="Helvetica,sans-Serif" font-size="10.00">/home/runner/work/Documentation</text>
<text text-anchor="start" x="2135.5" y="-207.5" font-family="Helvetica,sans-Serif" font-size="10.00">/Documentation/master/applications</text>
<text text-anchor="start" x="2135.5" y="-196.5" font-family="Helvetica,sans-Serif" font-size="10.00">/GeoMechanicsApplication/custom</text>
<text text-anchor="middle" x="2224.5" y="-185.5" font-family="Helvetica,sans-Serif" font-size="10.00">_workflows/dgeoflow.h</text>
</a>
</g>
</g>
<!-- Node5&#45;&gt;Node6 -->
<g id="edge5" class="edge">
<title>Node5&#45;&gt;Node6</title>
<path fill="none" stroke="midnightblue" d="M2371.05,-263.72C2344.02,-252.98 2313.59,-240.89 2287.48,-230.52"/>
<polygon fill="midnightblue" stroke="midnightblue" points="2369.86,-267.01 2380.45,-267.45 2372.45,-260.51 2369.86,-267.01"/>
</g>
<!-- Node10 -->
<g id="node10" class="node">
<title>Node10</title>
<g id="a_node10"><a xlink:href="../../d4/d4c/dgeosettlement_8h.html" target="_top" xlink:title=" ">
<polygon fill="none" stroke="black" points="2346.5,-178.5 2346.5,-230.5 2540.5,-230.5 2540.5,-178.5 2346.5,-178.5"/>
<text text-anchor="start" x="2354.5" y="-218.5" font-family="Helvetica,sans-Serif" font-size="10.00">/home/runner/work/Documentation</text>
<text text-anchor="start" x="2354.5" y="-207.5" font-family="Helvetica,sans-Serif" font-size="10.00">/Documentation/master/applications</text>
<text text-anchor="start" x="2354.5" y="-196.5" font-family="Helvetica,sans-Serif" font-size="10.00">/GeoMechanicsApplication/custom</text>
<text text-anchor="middle" x="2443.5" y="-185.5" font-family="Helvetica,sans-Serif" font-size="10.00">_workflows/dgeosettlement.h</text>
</a>
</g>
</g>
<!-- Node5&#45;&gt;Node10 -->
<g id="edge9" class="edge">
<title>Node5&#45;&gt;Node10</title>
<path fill="none" stroke="midnightblue" d="M2443.5,-257.19C2443.5,-248.28 2443.5,-238.9 2443.5,-230.61"/>
<polygon fill="midnightblue" stroke="midnightblue" points="2440,-257.34 2443.5,-267.34 2447,-257.34 2440,-257.34"/>
</g>
<!-- Node13 -->
<g id="node13" class="node">
<title>Node13</title>
<g id="a_node13"><a xlink:href="../../df/dc4/geo__mechanics__application_8cpp.html" target="_top" xlink:title=" ">
<polygon fill="none" stroke="black" points="2558.5,-178.5 2558.5,-230.5 2782.5,-230.5 2782.5,-178.5 2558.5,-178.5"/>
<text text-anchor="start" x="2566.5" y="-218.5" font-family="Helvetica,sans-Serif" font-size="10.00">/home/runner/work/Documentation</text>
<text text-anchor="start" x="2566.5" y="-207.5" font-family="Helvetica,sans-Serif" font-size="10.00">/Documentation/master/applications</text>
<text text-anchor="start" x="2566.5" y="-196.5" font-family="Helvetica,sans-Serif" font-size="10.00">/GeoMechanicsApplication/geo_mechanics</text>
<text text-anchor="middle" x="2670.5" y="-185.5" font-family="Helvetica,sans-Serif" font-size="10.00">_application.cpp</text>
</a>
</g>
</g>
<!-- Node5&#45;&gt;Node13 -->
<g id="edge13" class="edge">
<title>Node5&#45;&gt;Node13</title>
<path fill="none" stroke="midnightblue" d="M2518.23,-263.86C2546.33,-253.09 2578.04,-240.94 2605.22,-230.52"/>
<polygon fill="midnightblue" stroke="midnightblue" points="2516.94,-260.61 2508.85,-267.45 2519.44,-267.14 2516.94,-260.61"/>
</g>
<!-- Node7 -->
<g id="node7" class="node">
<title>Node7</title>
<g id="a_node7"><a xlink:href="../../d7/d88/dgeoflow_8cpp.html" target="_top" xlink:title=" ">
<polygon fill="none" stroke="black" points="1913.5,-89.5 1913.5,-141.5 2107.5,-141.5 2107.5,-89.5 1913.5,-89.5"/>
<text text-anchor="start" x="1921.5" y="-129.5" font-family="Helvetica,sans-Serif" font-size="10.00">/home/runner/work/Documentation</text>
<text text-anchor="start" x="1921.5" y="-118.5" font-family="Helvetica,sans-Serif" font-size="10.00">/Documentation/master/applications</text>
<text text-anchor="start" x="1921.5" y="-107.5" font-family="Helvetica,sans-Serif" font-size="10.00">/GeoMechanicsApplication/custom</text>
<text text-anchor="middle" x="2010.5" y="-96.5" font-family="Helvetica,sans-Serif" font-size="10.00">_workflows/dgeoflow.cpp</text>
</a>
</g>
</g>
<!-- Node6&#45;&gt;Node7 -->
<g id="edge6" class="edge">
<title>Node6&#45;&gt;Node7</title>
<path fill="none" stroke="midnightblue" d="M2153.35,-174.58C2127.03,-163.88 2097.44,-151.85 2072.05,-141.52"/>
<polygon fill="midnightblue" stroke="midnightblue" points="2152.31,-177.93 2162.89,-178.45 2154.94,-171.44 2152.31,-177.93"/>
</g>
<!-- Node8 -->
<g id="node8" class="node">
<title>Node8</title>
<g id="a_node8"><a xlink:href="../../d4/d24/kratos__external__bindings_8h.html" target="_top" xlink:title=" ">
<polygon fill="none" stroke="black" points="2125.5,-89.5 2125.5,-141.5 2323.5,-141.5 2323.5,-89.5 2125.5,-89.5"/>
<text text-anchor="start" x="2133.5" y="-129.5" font-family="Helvetica,sans-Serif" font-size="10.00">/home/runner/work/Documentation</text>
<text text-anchor="start" x="2133.5" y="-118.5" font-family="Helvetica,sans-Serif" font-size="10.00">/Documentation/master/applications</text>
<text text-anchor="start" x="2133.5" y="-107.5" font-family="Helvetica,sans-Serif" font-size="10.00">/GeoMechanicsApplication/external</text>
<text text-anchor="middle" x="2224.5" y="-96.5" font-family="Helvetica,sans-Serif" font-size="10.00">_bindings/kratos_external_bindings.h</text>
</a>
</g>
</g>
<!-- Node6&#45;&gt;Node8 -->
<g id="edge7" class="edge">
<title>Node6&#45;&gt;Node8</title>
<path fill="none" stroke="midnightblue" d="M2224.5,-168.19C2224.5,-159.28 2224.5,-149.9 2224.5,-141.61"/>
<polygon fill="midnightblue" stroke="midnightblue" points="2221,-168.34 2224.5,-178.34 2228,-168.34 2221,-168.34"/>
</g>
<!-- Node9 -->
<g id="node9" class="node">
<title>Node9</title>
<g id="a_node9"><a xlink:href="../../dd/d6d/_geo_mechanics_application_2external__bindings_2kratos__external__bindings_8cpp.html" target="_top" xlink:title=" ">
<polygon fill="none" stroke="black" points="2120,-0.5 2120,-52.5 2329,-52.5 2329,-0.5 2120,-0.5"/>
<text text-anchor="start" x="2128" y="-40.5" font-family="Helvetica,sans-Serif" font-size="10.00">/home/runner/work/Documentation</text>
<text text-anchor="start" x="2128" y="-29.5" font-family="Helvetica,sans-Serif" font-size="10.00">/Documentation/master/applications</text>
<text text-anchor="start" x="2128" y="-18.5" font-family="Helvetica,sans-Serif" font-size="10.00">/GeoMechanicsApplication/external</text>
<text text-anchor="middle" x="2224.5" y="-7.5" font-family="Helvetica,sans-Serif" font-size="10.00">_bindings/kratos_external_bindings.cpp</text>
</a>
</g>
</g>
<!-- Node8&#45;&gt;Node9 -->
<g id="edge8" class="edge">
<title>Node8&#45;&gt;Node9</title>
<path fill="none" stroke="midnightblue" d="M2224.5,-79.19C2224.5,-70.28 2224.5,-60.9 2224.5,-52.61"/>
<polygon fill="midnightblue" stroke="midnightblue" points="2221,-79.34 2224.5,-89.34 2228,-79.34 2221,-79.34"/>
</g>
<!-- Node10&#45;&gt;Node8 -->
<g id="edge12" class="edge">
<title>Node10&#45;&gt;Node8</title>
<path fill="none" stroke="midnightblue" d="M2371.05,-174.72C2344.02,-163.98 2313.59,-151.89 2287.48,-141.52"/>
<polygon fill="midnightblue" stroke="midnightblue" points="2369.86,-178.01 2380.45,-178.45 2372.45,-171.51 2369.86,-178.01"/>
</g>
<!-- Node11 -->
<g id="node11" class="node">
<title>Node11</title>
<g id="a_node11"><a xlink:href="../../dc/d5d/custom__workflow__factory_8cpp.html" target="_top" xlink:title=" ">
<polygon fill="none" stroke="black" points="2341.5,-89.5 2341.5,-141.5 2559.5,-141.5 2559.5,-89.5 2341.5,-89.5"/>
<text text-anchor="start" x="2349.5" y="-129.5" font-family="Helvetica,sans-Serif" font-size="10.00">/home/runner/work/Documentation</text>
<text text-anchor="start" x="2349.5" y="-118.5" font-family="Helvetica,sans-Serif" font-size="10.00">/Documentation/master/applications</text>
<text text-anchor="start" x="2349.5" y="-107.5" font-family="Helvetica,sans-Serif" font-size="10.00">/GeoMechanicsApplication/custom</text>
<text text-anchor="middle" x="2450.5" y="-96.5" font-family="Helvetica,sans-Serif" font-size="10.00">_workflows/custom_workflow_factory.cpp</text>
</a>
</g>
</g>
<!-- Node10&#45;&gt;Node11 -->
<g id="edge10" class="edge">
<title>Node10&#45;&gt;Node11</title>
<path fill="none" stroke="midnightblue" d="M2446.34,-168.19C2447.06,-159.28 2447.81,-149.9 2448.48,-141.61"/>
<polygon fill="midnightblue" stroke="midnightblue" points="2442.84,-168.09 2445.52,-178.34 2449.82,-168.65 2442.84,-168.09"/>
</g>
<!-- Node12 -->
<g id="node12" class="node">
<title>Node12</title>
<g id="a_node12"><a xlink:href="../../d3/d51/dgeosettlement_8cpp.html" target="_top" xlink:title=" ">
<polygon fill="none" stroke="black" points="2577.5,-89.5 2577.5,-141.5 2771.5,-141.5 2771.5,-89.5 2577.5,-89.5"/>
<text text-anchor="start" x="2585.5" y="-129.5" font-family="Helvetica,sans-Serif" font-size="10.00">/home/runner/work/Documentation</text>
<text text-anchor="start" x="2585.5" y="-118.5" font-family="Helvetica,sans-Serif" font-size="10.00">/Documentation/master/applications</text>
<text text-anchor="start" x="2585.5" y="-107.5" font-family="Helvetica,sans-Serif" font-size="10.00">/GeoMechanicsApplication/custom</text>
<text text-anchor="middle" x="2674.5" y="-96.5" font-family="Helvetica,sans-Serif" font-size="10.00">_workflows/dgeosettlement.cpp</text>
</a>
</g>
</g>
<!-- Node10&#45;&gt;Node12 -->
<g id="edge11" class="edge">
<title>Node10&#45;&gt;Node12</title>
<path fill="none" stroke="midnightblue" d="M2519.55,-174.86C2548.15,-164.09 2580.41,-151.94 2608.06,-141.52"/>
<polygon fill="midnightblue" stroke="midnightblue" points="2518.13,-171.65 2510,-178.45 2520.6,-178.2 2518.13,-171.65"/>
</g>
<!-- Node14&#45;&gt;Node4 -->
<g id="edge15" class="edge">
<title>Node14&#45;&gt;Node4</title>
<path fill="none" stroke="midnightblue" d="M189.5,-358.19C220.02,-345.82 255.34,-331.48 284.75,-319.55"/>
<polygon fill="midnightblue" stroke="midnightblue" points="188.15,-354.97 180.2,-361.97 190.78,-361.45 188.15,-354.97"/>
</g>
<!-- Node15 -->
<g id="node15" class="node">
<title>Node15</title>
<g id="a_node15"><a xlink:href="../../db/d94/lobatto__integration__scheme_8cpp.html" target="_top" xlink:title=" ">
<polygon fill="none" stroke="black" points="0,-267.5 0,-319.5 227,-319.5 227,-267.5 0,-267.5"/>
<text text-anchor="start" x="8" y="-307.5" font-family="Helvetica,sans-Serif" font-size="10.00">/home/runner/work/Documentation</text>
<text text-anchor="start" x="8" y="-296.5" font-family="Helvetica,sans-Serif" font-size="10.00">/Documentation/master/applications</text>
<text text-anchor="start" x="8" y="-285.5" font-family="Helvetica,sans-Serif" font-size="10.00">/GeoMechanicsApplication/custom</text>
<text text-anchor="middle" x="113.5" y="-274.5" font-family="Helvetica,sans-Serif" font-size="10.00">_elements/lobatto_integration_scheme.cpp</text>
</a>
</g>
</g>
<!-- Node14&#45;&gt;Node15 -->
<g id="edge16" class="edge">
<title>Node14&#45;&gt;Node15</title>
<path fill="none" stroke="midnightblue" d="M116.58,-351.49C116.01,-340.91 115.39,-329.53 114.86,-319.75"/>
<polygon fill="midnightblue" stroke="midnightblue" points="113.1,-351.93 117.13,-361.72 120.09,-351.55 113.1,-351.93"/>
</g>
<!-- Node17&#45;&gt;Node4 -->
<g id="edge26" class="edge">
<title>Node17&#45;&gt;Node4</title>
<path fill="none" stroke="midnightblue" d="M1781.14,-479.57C1462.5,-473.49 540.81,-453.11 485.5,-420 457.12,-403.01 470.76,-379.52 447.5,-356 433.35,-341.69 415.24,-329.33 398.26,-319.52"/>
<polygon fill="midnightblue" stroke="midnightblue" points="1781.24,-483.08 1791.31,-479.77 1781.38,-476.08 1781.24,-483.08"/>
</g>
<!-- Node18 -->
<g id="node18" class="node">
<title>Node18</title>
<g id="a_node18"><a xlink:href="../../d5/d37/general___u___pw__diff__order__condition_8cpp.html" target="_top" xlink:title=" ">
<polygon fill="none" stroke="black" points="1790.5,-356.5 1790.5,-419.5 1986.5,-419.5 1986.5,-356.5 1790.5,-356.5"/>
<text text-anchor="start" x="1798.5" y="-407.5" font-family="Helvetica,sans-Serif" font-size="10.00">/home/runner/work/Documentation</text>
<text text-anchor="start" x="1798.5" y="-396.5" font-family="Helvetica,sans-Serif" font-size="10.00">/Documentation/master/applications</text>
<text text-anchor="start" x="1798.5" y="-385.5" font-family="Helvetica,sans-Serif" font-size="10.00">/GeoMechanicsApplication/custom</text>
<text text-anchor="start" x="1798.5" y="-374.5" font-family="Helvetica,sans-Serif" font-size="10.00">_conditions/general_U_Pw_diff_order</text>
<text text-anchor="middle" x="1888.5" y="-363.5" font-family="Helvetica,sans-Serif" font-size="10.00">_condition.cpp</text>
</a>
</g>
</g>
<!-- Node17&#45;&gt;Node18 -->
<g id="edge19" class="edge">
<title>Node17&#45;&gt;Node18</title>
<path fill="none" stroke="midnightblue" d="M1888.5,-445.94C1888.5,-437.23 1888.5,-427.97 1888.5,-419.51"/>
<polygon fill="midnightblue" stroke="midnightblue" points="1885,-446.22 1888.5,-456.22 1892,-446.22 1885,-446.22"/>
</g>
<!-- Node19 -->
<g id="node19" class="node">
<title>Node19</title>
<g id="a_node19"><a xlink:href="../../df/d15/_pw__condition_8cpp.html" target="_top" xlink:title=" ">
<polygon fill="none" stroke="black" points="2004.5,-362 2004.5,-414 2198.5,-414 2198.5,-362 2004.5,-362"/>
<text text-anchor="start" x="2012.5" y="-402" font-family="Helvetica,sans-Serif" font-size="10.00">/home/runner/work/Documentation</text>
<text text-anchor="start" x="2012.5" y="-391" font-family="Helvetica,sans-Serif" font-size="10.00">/Documentation/master/applications</text>
<text text-anchor="start" x="2012.5" y="-380" font-family="Helvetica,sans-Serif" font-size="10.00">/GeoMechanicsApplication/custom</text>
<text text-anchor="middle" x="2101.5" y="-369" font-family="Helvetica,sans-Serif" font-size="10.00">_conditions/Pw_condition.cpp</text>
</a>
</g>
</g>
<!-- Node17&#45;&gt;Node19 -->
<g id="edge20" class="edge">
<title>Node17&#45;&gt;Node19</title>
<path fill="none" stroke="midnightblue" d="M1955.57,-452.37C1983.91,-440.07 2016.58,-425.88 2043.81,-414.05"/>
<polygon fill="midnightblue" stroke="midnightblue" points="1953.92,-449.27 1946.14,-456.47 1956.71,-455.7 1953.92,-449.27"/>
</g>
<!-- Node20 -->
<g id="node20" class="node">
<title>Node20</title>
<g id="a_node20"><a xlink:href="../../dd/dc5/_t__condition_8cpp.html" target="_top" xlink:title=" ">
<polygon fill="none" stroke="black" points="2446.5,-362 2446.5,-414 2640.5,-414 2640.5,-362 2446.5,-362"/>
<text text-anchor="start" x="2454.5" y="-402" font-family="Helvetica,sans-Serif" font-size="10.00">/home/runner/work/Documentation</text>
<text text-anchor="start" x="2454.5" y="-391" font-family="Helvetica,sans-Serif" font-size="10.00">/Documentation/master/applications</text>
<text text-anchor="start" x="2454.5" y="-380" font-family="Helvetica,sans-Serif" font-size="10.00">/GeoMechanicsApplication/custom</text>
<text text-anchor="middle" x="2543.5" y="-369" font-family="Helvetica,sans-Serif" font-size="10.00">_conditions/T_condition.cpp</text>
</a>
</g>
</g>
<!-- Node17&#45;&gt;Node20 -->
<g id="edge21" class="edge">
<title>Node17&#45;&gt;Node20</title>
<path fill="none" stroke="midnightblue" d="M1995.74,-455.92C2191.38,-425.82 2246.48,-455.31 2437.5,-420 2446.27,-418.38 2455.35,-416.32 2464.34,-414.05"/>
<polygon fill="midnightblue" stroke="midnightblue" points="1995.05,-452.49 1985.71,-457.5 1996.13,-459.4 1995.05,-452.49"/>
</g>
<!-- Node21 -->
<g id="node21" class="node">
<title>Node21</title>
<g id="a_node21"><a xlink:href="../../d9/dcd/_u___pw__condition_8cpp.html" target="_top" xlink:title=" ">
<polygon fill="none" stroke="black" points="2658.5,-362 2658.5,-414 2852.5,-414 2852.5,-362 2658.5,-362"/>
<text text-anchor="start" x="2666.5" y="-402" font-family="Helvetica,sans-Serif" font-size="10.00">/home/runner/work/Documentation</text>
<text text-anchor="start" x="2666.5" y="-391" font-family="Helvetica,sans-Serif" font-size="10.00">/Documentation/master/applications</text>
<text text-anchor="start" x="2666.5" y="-380" font-family="Helvetica,sans-Serif" font-size="10.00">/GeoMechanicsApplication/custom</text>
<text text-anchor="middle" x="2755.5" y="-369" font-family="Helvetica,sans-Serif" font-size="10.00">_conditions/U_Pw_condition.cpp</text>
</a>
</g>
</g>
<!-- Node17&#45;&gt;Node21 -->
<g id="edge22" class="edge">
<title>Node17&#45;&gt;Node21</title>
<path fill="none" stroke="midnightblue" d="M1995.63,-455.96C2284.77,-414.96 2365.37,-468.69 2649.5,-420 2658.57,-418.45 2667.97,-416.38 2677.25,-414.06"/>
<polygon fill="midnightblue" stroke="midnightblue" points="1995.09,-452.5 1985.7,-457.4 1996.09,-459.43 1995.09,-452.5"/>
</g>
<!-- Node22 -->
<g id="node22" class="node">
<title>Node22</title>
<g id="a_node22"><a xlink:href="../../d3/d03/_u___pw__normal__lysmer__absorbing__condition_8cpp.html" target="_top" xlink:title=" ">
<polygon fill="none" stroke="black" points="3100.5,-356.5 3100.5,-419.5 3334.5,-419.5 3334.5,-356.5 3100.5,-356.5"/>
<text text-anchor="start" x="3108.5" y="-407.5" font-family="Helvetica,sans-Serif" font-size="10.00">/home/runner/work/Documentation</text>
<text text-anchor="start" x="3108.5" y="-396.5" font-family="Helvetica,sans-Serif" font-size="10.00">/Documentation/master/applications</text>
<text text-anchor="start" x="3108.5" y="-385.5" font-family="Helvetica,sans-Serif" font-size="10.00">/GeoMechanicsApplication/custom</text>
<text text-anchor="start" x="3108.5" y="-374.5" font-family="Helvetica,sans-Serif" font-size="10.00">_conditions/U_Pw_normal_lysmer_absorbing</text>
<text text-anchor="middle" x="3217.5" y="-363.5" font-family="Helvetica,sans-Serif" font-size="10.00">_condition.cpp</text>
</a>
</g>
</g>
<!-- Node17&#45;&gt;Node22 -->
<g id="edge23" class="edge">
<title>Node17&#45;&gt;Node22</title>
<path fill="none" stroke="midnightblue" d="M1995.73,-455.97C2479.71,-391.92 2611.56,-486.18 3091.5,-420 3094.4,-419.6 3097.33,-419.16 3100.28,-418.69"/>
<polygon fill="midnightblue" stroke="midnightblue" points="1995.13,-452.51 1985.68,-457.31 1996.06,-459.45 1995.13,-452.51"/>
</g>
<!-- Node23 -->
<g id="node23" class="node">
<title>Node23</title>
<g id="a_node23"><a xlink:href="../../d8/d61/geo__structural__base__element_8cpp.html" target="_top" xlink:title=" ">
<polygon fill="none" stroke="black" points="3353,-362 3353,-414 3588,-414 3588,-362 3353,-362"/>
<text text-anchor="start" x="3361" y="-402" font-family="Helvetica,sans-Serif" font-size="10.00">/home/runner/work/Documentation</text>
<text text-anchor="start" x="3361" y="-391" font-family="Helvetica,sans-Serif" font-size="10.00">/Documentation/master/applications</text>
<text text-anchor="start" x="3361" y="-380" font-family="Helvetica,sans-Serif" font-size="10.00">/GeoMechanicsApplication/custom</text>
<text text-anchor="middle" x="3470.5" y="-369" font-family="Helvetica,sans-Serif" font-size="10.00">_elements/geo_structural_base_element.cpp</text>
</a>
</g>
</g>
<!-- Node17&#45;&gt;Node23 -->
<g id="edge24" class="edge">
<title>Node17&#45;&gt;Node23</title>
<path fill="none" stroke="midnightblue" d="M1995.8,-455.96C2590.91,-378.79 2752.37,-499.12 3343.5,-420 3354.64,-418.51 3366.21,-416.44 3377.64,-414.06"/>
<polygon fill="midnightblue" stroke="midnightblue" points="1995.14,-452.52 1985.68,-457.29 1996.05,-459.46 1995.14,-452.52"/>
</g>
<!-- Node24 -->
<g id="node24" class="node">
<title>Node24</title>
<g id="a_node24"><a xlink:href="../../d1/dea/geo__truss__element__base_8cpp.html" target="_top" xlink:title=" ">
<polygon fill="none" stroke="black" points="494.5,-362 494.5,-414 706.5,-414 706.5,-362 494.5,-362"/>
<text text-anchor="start" x="502.5" y="-402" font-family="Helvetica,sans-Serif" font-size="10.00">/home/runner/work/Documentation</text>
<text text-anchor="start" x="502.5" y="-391" font-family="Helvetica,sans-Serif" font-size="10.00">/Documentation/master/applications</text>
<text text-anchor="start" x="502.5" y="-380" font-family="Helvetica,sans-Serif" font-size="10.00">/GeoMechanicsApplication/custom</text>
<text text-anchor="middle" x="600.5" y="-369" font-family="Helvetica,sans-Serif" font-size="10.00">_elements/geo_truss_element_base.cpp</text>
</a>
</g>
</g>
<!-- Node17&#45;&gt;Node24 -->
<g id="edge25" class="edge">
<title>Node17&#45;&gt;Node24</title>
<path fill="none" stroke="midnightblue" d="M1780.91,-478.76C1531.34,-471.94 918.85,-452.37 715.5,-420 705.7,-418.44 695.53,-416.37 685.47,-414.05"/>
<polygon fill="midnightblue" stroke="midnightblue" points="1780.99,-482.27 1791.08,-479.04 1781.18,-475.27 1780.99,-482.27"/>
</g>
<!-- Node25 -->
<g id="node25" class="node">
<title>Node25</title>
<g id="a_node25"><a xlink:href="../../d5/d8f/small__strain___u___pw__diff__order__element_8cpp.html" target="_top" xlink:title=" ">
<polygon fill="none" stroke="black" points="724.5,-356.5 724.5,-419.5 918.5,-419.5 918.5,-356.5 724.5,-356.5"/>
<text text-anchor="start" x="732.5" y="-407.5" font-family="Helvetica,sans-Serif" font-size="10.00">/home/runner/work/Documentation</text>
<text text-anchor="start" x="732.5" y="-396.5" font-family="Helvetica,sans-Serif" font-size="10.00">/Documentation/master/applications</text>
<text text-anchor="start" x="732.5" y="-385.5" font-family="Helvetica,sans-Serif" font-size="10.00">/GeoMechanicsApplication/custom</text>
<text text-anchor="start" x="732.5" y="-374.5" font-family="Helvetica,sans-Serif" font-size="10.00">_elements/small_strain_U_Pw_diff</text>
<text text-anchor="middle" x="821.5" y="-363.5" font-family="Helvetica,sans-Serif" font-size="10.00">_order_element.cpp</text>
</a>
</g>
</g>
<!-- Node17&#45;&gt;Node25 -->
<g id="edge27" class="edge">
<title>Node17&#45;&gt;Node25</title>
<path fill="none" stroke="midnightblue" d="M1780.97,-482.31C1602.34,-481.94 1233.77,-473.9 927.5,-420 924.57,-419.48 921.61,-418.92 918.63,-418.31"/>
<polygon fill="midnightblue" stroke="midnightblue" points="1781.15,-485.81 1791.16,-482.32 1781.16,-478.81 1781.15,-485.81"/>
</g>
<!-- Node26 -->
<g id="node26" class="node">
<title>Node26</title>
<g id="a_node26"><a xlink:href="../../d7/dcd/transient___pw__element_8cpp.html" target="_top" xlink:title=" ">
<polygon fill="none" stroke="black" points="936.5,-362 936.5,-414 1136.5,-414 1136.5,-362 936.5,-362"/>
<text text-anchor="start" x="944.5" y="-402" font-family="Helvetica,sans-Serif" font-size="10.00">/home/runner/work/Documentation</text>
<text text-anchor="start" x="944.5" y="-391" font-family="Helvetica,sans-Serif" font-size="10.00">/Documentation/master/applications</text>
<text text-anchor="start" x="944.5" y="-380" font-family="Helvetica,sans-Serif" font-size="10.00">/GeoMechanicsApplication/custom</text>
<text text-anchor="middle" x="1036.5" y="-369" font-family="Helvetica,sans-Serif" font-size="10.00">_elements/transient_Pw_element.cpp</text>
</a>
</g>
</g>
<!-- Node17&#45;&gt;Node26 -->
<g id="edge28" class="edge">
<title>Node17&#45;&gt;Node26</title>
<path fill="none" stroke="midnightblue" d="M1780.99,-479.15C1635.73,-474.48 1369.2,-460.67 1145.5,-420 1136.5,-418.36 1127.17,-416.3 1117.93,-414.02"/>
<polygon fill="midnightblue" stroke="midnightblue" points="1781.13,-482.65 1791.24,-479.47 1781.35,-475.66 1781.13,-482.65"/>
</g>
<!-- Node27 -->
<g id="node27" class="node">
<title>Node27</title>
<g id="a_node27"><a xlink:href="../../d4/dd0/transient___pw__interface__element_8cpp.html" target="_top" xlink:title=" ">
<polygon fill="none" stroke="black" points="1154.5,-356.5 1154.5,-419.5 1348.5,-419.5 1348.5,-356.5 1154.5,-356.5"/>
<text text-anchor="start" x="1162.5" y="-407.5" font-family="Helvetica,sans-Serif" font-size="10.00">/home/runner/work/Documentation</text>
<text text-anchor="start" x="1162.5" y="-396.5" font-family="Helvetica,sans-Serif" font-size="10.00">/Documentation/master/applications</text>
<text text-anchor="start" x="1162.5" y="-385.5" font-family="Helvetica,sans-Serif" font-size="10.00">/GeoMechanicsApplication/custom</text>
<text text-anchor="start" x="1162.5" y="-374.5" font-family="Helvetica,sans-Serif" font-size="10.00">_elements/transient_Pw_interface</text>
<text text-anchor="middle" x="1251.5" y="-363.5" font-family="Helvetica,sans-Serif" font-size="10.00">_element.cpp</text>
</a>
</g>
</g>
<!-- Node17&#45;&gt;Node27 -->
<g id="edge29" class="edge">
<title>Node17&#45;&gt;Node27</title>
<path fill="none" stroke="midnightblue" d="M1781.08,-474.42C1673.22,-466.06 1502.67,-449.41 1357.5,-420 1354.59,-419.41 1351.64,-418.78 1348.67,-418.11"/>
<polygon fill="midnightblue" stroke="midnightblue" points="1781.08,-477.93 1791.32,-475.2 1781.61,-470.95 1781.08,-477.93"/>
</g>
<!-- Node28 -->
<g id="node28" class="node">
<title>Node28</title>
<g id="a_node28"><a xlink:href="../../d5/d96/transient___pw__line__element_8h.html" target="_top" xlink:title=" ">
<polygon fill="none" stroke="black" points="2870.5,-362 2870.5,-414 3082.5,-414 3082.5,-362 2870.5,-362"/>
<text text-anchor="start" x="2878.5" y="-402" font-family="Helvetica,sans-Serif" font-size="10.00">/home/runner/work/Documentation</text>
<text text-anchor="start" x="2878.5" y="-391" font-family="Helvetica,sans-Serif" font-size="10.00">/Documentation/master/applications</text>
<text text-anchor="start" x="2878.5" y="-380" font-family="Helvetica,sans-Serif" font-size="10.00">/GeoMechanicsApplication/custom</text>
<text text-anchor="middle" x="2976.5" y="-369" font-family="Helvetica,sans-Serif" font-size="10.00">_elements/transient_Pw_line_element.h</text>
</a>
</g>
</g>
<!-- Node17&#45;&gt;Node28 -->
<g id="edge30" class="edge">
<title>Node17&#45;&gt;Node28</title>
<path fill="none" stroke="midnightblue" d="M1995.64,-455.97C2378.25,-403.93 2483.56,-478.05 2861.5,-420 2871.51,-418.46 2881.91,-416.38 2892.17,-414.01"/>
<polygon fill="midnightblue" stroke="midnightblue" points="1995.12,-452.51 1985.69,-457.34 1996.07,-459.44 1995.12,-452.51"/>
</g>
<!-- Node30 -->
<g id="node30" class="node">
<title>Node30</title>
<g id="a_node30"><a xlink:href="../../d8/dde/transient__thermal__element_8h.html" target="_top" xlink:title=" ">
<polygon fill="none" stroke="black" points="2216.5,-362 2216.5,-414 2428.5,-414 2428.5,-362 2216.5,-362"/>
<text text-anchor="start" x="2224.5" y="-402" font-family="Helvetica,sans-Serif" font-size="10.00">/home/runner/work/Documentation</text>
<text text-anchor="start" x="2224.5" y="-391" font-family="Helvetica,sans-Serif" font-size="10.00">/Documentation/master/applications</text>
<text text-anchor="start" x="2224.5" y="-380" font-family="Helvetica,sans-Serif" font-size="10.00">/GeoMechanicsApplication/custom</text>
<text text-anchor="middle" x="2322.5" y="-369" font-family="Helvetica,sans-Serif" font-size="10.00">_elements/transient_thermal_element.h</text>
</a>
</g>
</g>
<!-- Node17&#45;&gt;Node30 -->
<g id="edge33" class="edge">
<title>Node17&#45;&gt;Node30</title>
<path fill="none" stroke="midnightblue" d="M1995.76,-455.81C2090.31,-436.98 2116.82,-439.84 2207.5,-420 2215.78,-418.19 2224.36,-416.16 2232.93,-414.04"/>
<polygon fill="midnightblue" stroke="midnightblue" points="1994.88,-452.41 1985.77,-457.83 1996.27,-459.28 1994.88,-452.41"/>
</g>
<!-- Node32 -->
<g id="node32" class="node">
<title>Node32</title>
<g id="a_node32"><a xlink:href="../../db/dc1/_u___pw__base__element_8cpp.html" target="_top" xlink:title=" ">
<polygon fill="none" stroke="black" points="1366.5,-362 1366.5,-414 1560.5,-414 1560.5,-362 1366.5,-362"/>
<text text-anchor="start" x="1374.5" y="-402" font-family="Helvetica,sans-Serif" font-size="10.00">/home/runner/work/Documentation</text>
<text text-anchor="start" x="1374.5" y="-391" font-family="Helvetica,sans-Serif" font-size="10.00">/Documentation/master/applications</text>
<text text-anchor="start" x="1374.5" y="-380" font-family="Helvetica,sans-Serif" font-size="10.00">/GeoMechanicsApplication/custom</text>
<text text-anchor="middle" x="1463.5" y="-369" font-family="Helvetica,sans-Serif" font-size="10.00">_elements/U_Pw_base_element.cpp</text>
</a>
</g>
</g>
<!-- Node17&#45;&gt;Node32 -->
<g id="edge36" class="edge">
<title>Node17&#45;&gt;Node32</title>
<path fill="none" stroke="midnightblue" d="M1781.11,-463.4C1718.97,-452.27 1639.47,-436.94 1569.5,-420 1561.95,-418.17 1554.14,-416.15 1546.34,-414.03"/>
<polygon fill="midnightblue" stroke="midnightblue" points="1780.86,-466.91 1791.32,-465.21 1782.09,-460.01 1780.86,-466.91"/>
</g>
<!-- Node33 -->
<g id="node33" class="node">
<title>Node33</title>
<g id="a_node33"><a xlink:href="../../db/db4/dof__utilities_8cpp.html" target="_top" xlink:title=" ">
<polygon fill="none" stroke="black" points="1578.5,-362 1578.5,-414 1772.5,-414 1772.5,-362 1578.5,-362"/>
<text text-anchor="start" x="1586.5" y="-402" font-family="Helvetica,sans-Serif" font-size="10.00">/home/runner/work/Documentation</text>
<text text-anchor="start" x="1586.5" y="-391" font-family="Helvetica,sans-Serif" font-size="10.00">/Documentation/master/applications</text>
<text text-anchor="start" x="1586.5" y="-380" font-family="Helvetica,sans-Serif" font-size="10.00">/GeoMechanicsApplication/custom</text>
<text text-anchor="middle" x="1675.5" y="-369" font-family="Helvetica,sans-Serif" font-size="10.00">_utilities/dof_utilities.cpp</text>
</a>
</g>
</g>
<!-- Node17&#45;&gt;Node33 -->
<g id="edge37" class="edge">
<title>Node17&#45;&gt;Node33</title>
<path fill="none" stroke="midnightblue" d="M1821.43,-452.37C1793.09,-440.07 1760.42,-425.88 1733.19,-414.05"/>
<polygon fill="midnightblue" stroke="midnightblue" points="1820.29,-455.7 1830.86,-456.47 1823.08,-449.27 1820.29,-455.7"/>
</g>
<!-- Node28&#45;&gt;Node5 -->
<g id="edge32" class="edge">
<title>Node28&#45;&gt;Node5</title>
<path fill="none" stroke="midnightblue" d="M2877.72,-359.58C2872.25,-358.31 2866.81,-357.1 2861.5,-356 2758.8,-334.68 2640.41,-317.99 2555.9,-307.41"/>
<polygon fill="midnightblue" stroke="midnightblue" points="2877.06,-363.02 2887.6,-361.93 2878.68,-356.21 2877.06,-363.02"/>
</g>
<!-- Node29 -->
<g id="node29" class="node">
<title>Node29</title>
<g id="a_node29"><a xlink:href="../../d0/d7b/transient___pw__line__element_8cpp.html" target="_top" xlink:title=" ">
<polygon fill="none" stroke="black" points="2865,-267.5 2865,-319.5 3088,-319.5 3088,-267.5 2865,-267.5"/>
<text text-anchor="start" x="2873" y="-307.5" font-family="Helvetica,sans-Serif" font-size="10.00">/home/runner/work/Documentation</text>
<text text-anchor="start" x="2873" y="-296.5" font-family="Helvetica,sans-Serif" font-size="10.00">/Documentation/master/applications</text>
<text text-anchor="start" x="2873" y="-285.5" font-family="Helvetica,sans-Serif" font-size="10.00">/GeoMechanicsApplication/custom</text>
<text text-anchor="middle" x="2976.5" y="-274.5" font-family="Helvetica,sans-Serif" font-size="10.00">_elements/transient_Pw_line_element.cpp</text>
</a>
</g>
</g>
<!-- Node28&#45;&gt;Node29 -->
<g id="edge31" class="edge">
<title>Node28&#45;&gt;Node29</title>
<path fill="none" stroke="midnightblue" d="M2976.5,-351.49C2976.5,-340.91 2976.5,-329.53 2976.5,-319.75"/>
<polygon fill="midnightblue" stroke="midnightblue" points="2973,-351.72 2976.5,-361.72 2980,-351.72 2973,-351.72"/>
</g>
<!-- Node30&#45;&gt;Node5 -->
<g id="edge35" class="edge">
<title>Node30&#45;&gt;Node5</title>
<path fill="none" stroke="midnightblue" d="M2363.57,-355.61C2378.95,-343.85 2396.2,-330.66 2410.73,-319.55"/>
<polygon fill="midnightblue" stroke="midnightblue" points="2361.06,-353.11 2355.24,-361.97 2365.31,-358.68 2361.06,-353.11"/>
</g>
<!-- Node31 -->
<g id="node31" class="node">
<title>Node31</title>
<g id="a_node31"><a xlink:href="../../d4/d3f/transient__thermal__element_8cpp.html" target="_top" xlink:title=" ">
<polygon fill="none" stroke="black" points="2089.5,-267.5 2089.5,-319.5 2313.5,-319.5 2313.5,-267.5 2089.5,-267.5"/>
<text text-anchor="start" x="2097.5" y="-307.5" font-family="Helvetica,sans-Serif" font-size="10.00">/home/runner/work/Documentation</text>
<text text-anchor="start" x="2097.5" y="-296.5" font-family="Helvetica,sans-Serif" font-size="10.00">/Documentation/master/applications</text>
<text text-anchor="start" x="2097.5" y="-285.5" font-family="Helvetica,sans-Serif" font-size="10.00">/GeoMechanicsApplication/custom</text>
<text text-anchor="middle" x="2201.5" y="-274.5" font-family="Helvetica,sans-Serif" font-size="10.00">_elements/transient_thermal_element.cpp</text>
</a>
</g>
</g>
<!-- Node30&#45;&gt;Node31 -->
<g id="edge34" class="edge">
<title>Node30&#45;&gt;Node31</title>
<path fill="none" stroke="midnightblue" d="M2281.43,-355.61C2266.05,-343.85 2248.8,-330.66 2234.27,-319.55"/>
<polygon fill="midnightblue" stroke="midnightblue" points="2279.69,-358.68 2289.76,-361.97 2283.94,-353.11 2279.69,-358.68"/>
</g>
<!-- Node35 -->
<g id="node35" class="node">
<title>Node35</title>
<g id="a_node35"><a xlink:href="../../db/def/element__utilities_8cpp.html" target="_top" xlink:title=" ">
<polygon fill="none" stroke="black" points="3606.5,-362 3606.5,-414 3800.5,-414 3800.5,-362 3606.5,-362"/>
<text text-anchor="start" x="3614.5" y="-402" font-family="Helvetica,sans-Serif" font-size="10.00">/home/runner/work/Documentation</text>
<text text-anchor="start" x="3614.5" y="-391" font-family="Helvetica,sans-Serif" font-size="10.00">/Documentation/master/applications</text>
<text text-anchor="start" x="3614.5" y="-380" font-family="Helvetica,sans-Serif" font-size="10.00">/GeoMechanicsApplication/custom</text>
<text text-anchor="middle" x="3703.5" y="-369" font-family="Helvetica,sans-Serif" font-size="10.00">_utilities/element_utilities.cpp</text>
</a>
</g>
</g>
<!-- Node34&#45;&gt;Node35 -->
<g id="edge39" class="edge">
<title>Node34&#45;&gt;Node35</title>
<path fill="none" stroke="midnightblue" d="M3135.9,-475.57C3250.95,-467.9 3438.45,-451.59 3597.5,-420 3605.96,-418.32 3614.73,-416.27 3623.42,-414.04"/>
<polygon fill="midnightblue" stroke="midnightblue" points="3135.44,-472.09 3125.69,-476.24 3135.9,-479.08 3135.44,-472.09"/>
</g>
</g>
</svg>
