<?xml version="1.0" encoding="UTF-8" standalone="no"?>
<!DOCTYPE svg PUBLIC "-//W3C//DTD SVG 1.1//EN"
 "http://www.w3.org/Graphics/SVG/1.1/DTD/svg11.dtd">
<!-- Generated by graphviz version 2.43.0 (0)
 -->
<!-- Title: /home/runner/work/Documentation/Documentation/master/applications/DamApplication/custom_constitutive/thermal_modified_mises_nonlocal_damage_plane_strain_2D_law.hpp Pages: 1 -->
<svg width="698pt" height="250pt"
 viewBox="0.00 0.00 698.00 250.00" xmlns="http://www.w3.org/2000/svg" xmlns:xlink="http://www.w3.org/1999/xlink">
<g id="graph0" class="graph" transform="scale(1 1) rotate(0) translate(4 246)">
<title>/home/runner/work/Documentation/Documentation/master/applications/DamApplication/custom_constitutive/thermal_modified_mises_nonlocal_damage_plane_strain_2D_law.hpp</title>
<!-- Node1 -->
<g id="node1" class="node">
<title>Node1</title>
<g id="a_node1"><a xlink:title=" ">
<polygon fill="#bfbfbf" stroke="black" points="246,-178.5 246,-241.5 478,-241.5 478,-178.5 246,-178.5"/>
<text text-anchor="start" x="254" y="-229.5" font-family="Helvetica,sans-Serif" font-size="10.00">/home/runner/work/Documentation</text>
<text text-anchor="start" x="254" y="-218.5" font-family="Helvetica,sans-Serif" font-size="10.00">/Documentation/master/applications</text>
<text text-anchor="start" x="254" y="-207.5" font-family="Helvetica,sans-Serif" font-size="10.00">/DamApplication/custom_constitutive</text>
<text text-anchor="start" x="254" y="-196.5" font-family="Helvetica,sans-Serif" font-size="10.00">/thermal_modified_mises_nonlocal_damage</text>
<text text-anchor="middle" x="362" y="-185.5" font-family="Helvetica,sans-Serif" font-size="10.00">_plane_strain_2D_law.hpp</text>
</a>
</g>
</g>
<!-- Node2 -->
<g id="node2" class="node">
<title>Node2</title>
<g id="a_node2"><a xlink:href="../../d8/dea/thermal__modified__mises__nonlocal__damage__plane__strain__2_d__law_8cpp.html" target="_top" xlink:title=" ">
<polygon fill="none" stroke="black" points="0,-78.5 0,-141.5 232,-141.5 232,-78.5 0,-78.5"/>
<text text-anchor="start" x="8" y="-129.5" font-family="Helvetica,sans-Serif" font-size="10.00">/home/runner/work/Documentation</text>
<text text-anchor="start" x="8" y="-118.5" font-family="Helvetica,sans-Serif" font-size="10.00">/Documentation/master/applications</text>
<text text-anchor="start" x="8" y="-107.5" font-family="Helvetica,sans-Serif" font-size="10.00">/DamApplication/custom_constitutive</text>
<text text-anchor="start" x="8" y="-96.5" font-family="Helvetica,sans-Serif" font-size="10.00">/thermal_modified_mises_nonlocal_damage</text>
<text text-anchor="middle" x="116" y="-85.5" font-family="Helvetica,sans-Serif" font-size="10.00">_plane_strain_2D_law.cpp</text>
</a>
</g>
</g>
<!-- Node1&#45;&gt;Node2 -->
<g id="edge1" class="edge">
<title>Node1&#45;&gt;Node2</title>
<path fill="none" stroke="midnightblue" d="M275.73,-174.63C248.67,-163.85 219.01,-152.04 192.66,-141.54"/>
<polygon fill="midnightblue" stroke="midnightblue" points="274.59,-177.95 285.18,-178.4 277.18,-171.44 274.59,-177.95"/>
</g>
<!-- Node3 -->
<g id="node3" class="node">
<title>Node3</title>
<g id="a_node3"><a xlink:href="../../df/d67/_dam_application_2custom__python_2add__custom__constitutive__laws__to__python_8cpp.html" target="_top" xlink:title=" ">
<polygon fill="none" stroke="black" points="250.5,-84 250.5,-136 473.5,-136 473.5,-84 250.5,-84"/>
<text text-anchor="start" x="258.5" y="-124" font-family="Helvetica,sans-Serif" font-size="10.00">/home/runner/work/Documentation</text>
<text text-anchor="start" x="258.5" y="-113" font-family="Helvetica,sans-Serif" font-size="10.00">/Documentation/master/applications</text>
<text text-anchor="start" x="258.5" y="-102" font-family="Helvetica,sans-Serif" font-size="10.00">/DamApplication/custom_python/add</text>
<text text-anchor="middle" x="362" y="-91" font-family="Helvetica,sans-Serif" font-size="10.00">_custom_constitutive_laws_to_python.cpp</text>
</a>
</g>
</g>
<!-- Node1&#45;&gt;Node3 -->
<g id="edge2" class="edge">
<title>Node1&#45;&gt;Node3</title>
<path fill="none" stroke="midnightblue" d="M362,-168.08C362,-157.21 362,-145.79 362,-136.05"/>
<polygon fill="midnightblue" stroke="midnightblue" points="358.5,-168.26 362,-178.26 365.5,-168.26 358.5,-168.26"/>
</g>
<!-- Node4 -->
<g id="node4" class="node">
<title>Node4</title>
<g id="a_node4"><a xlink:href="../../d8/dec/dam__application_8h.html" target="_top" xlink:title=" ">
<polygon fill="none" stroke="black" points="492,-89.5 492,-130.5 686,-130.5 686,-89.5 492,-89.5"/>
<text text-anchor="start" x="500" y="-118.5" font-family="Helvetica,sans-Serif" font-size="10.00">/home/runner/work/Documentation</text>
<text text-anchor="start" x="500" y="-107.5" font-family="Helvetica,sans-Serif" font-size="10.00">/Documentation/master/applications</text>
<text text-anchor="middle" x="589" y="-96.5" font-family="Helvetica,sans-Serif" font-size="10.00">/DamApplication/dam_application.h</text>
</a>
</g>
</g>
<!-- Node1&#45;&gt;Node4 -->
<g id="edge3" class="edge">
<title>Node1&#45;&gt;Node4</title>
<path fill="none" stroke="midnightblue" d="M442.35,-174.31C476.35,-159.63 514.69,-143.08 543.64,-130.58"/>
<polygon fill="midnightblue" stroke="midnightblue" points="440.68,-171.22 432.89,-178.4 443.46,-177.64 440.68,-171.22"/>
</g>
<!-- Node5 -->
<g id="node5" class="node">
<title>Node5</title>
<g id="a_node5"><a xlink:href="../../d3/d06/dam__application_8cpp.html" target="_top" xlink:title=" ">
<polygon fill="none" stroke="black" points="488,-0.5 488,-41.5 690,-41.5 690,-0.5 488,-0.5"/>
<text text-anchor="start" x="496" y="-29.5" font-family="Helvetica,sans-Serif" font-size="10.00">/home/runner/work/Documentation</text>
<text text-anchor="start" x="496" y="-18.5" font-family="Helvetica,sans-Serif" font-size="10.00">/Documentation/master/applications</text>
<text text-anchor="middle" x="589" y="-7.5" font-family="Helvetica,sans-Serif" font-size="10.00">/DamApplication/dam_application.cpp</text>
</a>
</g>
</g>
<!-- Node4&#45;&gt;Node5 -->
<g id="edge4" class="edge">
<title>Node4&#45;&gt;Node5</title>
<path fill="none" stroke="midnightblue" d="M589,-78.94C589,-66.6 589,-52.66 589,-41.66"/>
<polygon fill="midnightblue" stroke="midnightblue" points="585.5,-79.26 589,-89.26 592.5,-79.26 585.5,-79.26"/>
</g>
</g>
</svg>
