<?xml version="1.0" encoding="UTF-8" standalone="no"?>
<!DOCTYPE svg PUBLIC "-//W3C//DTD SVG 1.1//EN"
 "http://www.w3.org/Graphics/SVG/1.1/DTD/svg11.dtd">
<!-- Generated by graphviz version 2.43.0 (0)
 -->
<!-- Title: /home/runner/work/Documentation/Documentation/master/applications/ConstitutiveLawsApplication/custom_constitutive/finite_strains/hyperelasticity/hyper_elastic_simo_taylor_neo_hookean_3d.h Pages: 1 -->
<svg width="626pt" height="372pt"
 viewBox="0.00 0.00 626.00 372.00" xmlns="http://www.w3.org/2000/svg" xmlns:xlink="http://www.w3.org/1999/xlink">
<g id="graph0" class="graph" transform="scale(1 1) rotate(0) translate(4 368)">
<title>/home/runner/work/Documentation/Documentation/master/applications/ConstitutiveLawsApplication/custom_constitutive/finite_strains/hyperelasticity/hyper_elastic_simo_taylor_neo_hookean_3d.h</title>
<!-- Node1 -->
<g id="node1" class="node">
<title>Node1</title>
<g id="a_node1"><a xlink:title=" ">
<polygon fill="#bfbfbf" stroke="black" points="41.5,-300.5 41.5,-363.5 285.5,-363.5 285.5,-300.5 41.5,-300.5"/>
<text text-anchor="start" x="49.5" y="-351.5" font-family="Helvetica,sans-Serif" font-size="10.00">/home/runner/work/Documentation</text>
<text text-anchor="start" x="49.5" y="-340.5" font-family="Helvetica,sans-Serif" font-size="10.00">/Documentation/master/applications</text>
<text text-anchor="start" x="49.5" y="-329.5" font-family="Helvetica,sans-Serif" font-size="10.00">/ConstitutiveLawsApplication/custom</text>
<text text-anchor="start" x="49.5" y="-318.5" font-family="Helvetica,sans-Serif" font-size="10.00">_constitutive/finite_strains/hyperelasticity</text>
<text text-anchor="middle" x="163.5" y="-307.5" font-family="Helvetica,sans-Serif" font-size="10.00">/hyper_elastic_simo_taylor_neo_hookean_3d.h</text>
</a>
</g>
</g>
<!-- Node2 -->
<g id="node2" class="node">
<title>Node2</title>
<g id="a_node2"><a xlink:href="../../dc/d99/constitutive__laws__application_8h.html" target="_top" xlink:title=" ">
<polygon fill="none" stroke="black" points="0,-100.5 0,-152.5 219,-152.5 219,-100.5 0,-100.5"/>
<text text-anchor="start" x="8" y="-140.5" font-family="Helvetica,sans-Serif" font-size="10.00">/home/runner/work/Documentation</text>
<text text-anchor="start" x="8" y="-129.5" font-family="Helvetica,sans-Serif" font-size="10.00">/Documentation/master/applications</text>
<text text-anchor="start" x="8" y="-118.5" font-family="Helvetica,sans-Serif" font-size="10.00">/ConstitutiveLawsApplication/constitutive</text>
<text text-anchor="middle" x="109.5" y="-107.5" font-family="Helvetica,sans-Serif" font-size="10.00">_laws_application.h</text>
</a>
</g>
</g>
<!-- Node1&#45;&gt;Node2 -->
<g id="edge1" class="edge">
<title>Node1&#45;&gt;Node2</title>
<path fill="none" stroke="midnightblue" d="M57.18,-294.91C45.03,-286.58 34.25,-276.41 26.5,-264 11.44,-239.87 14.74,-225.9 26.5,-200 35.2,-180.84 51.75,-164.76 67.8,-152.65"/>
<polygon fill="midnightblue" stroke="midnightblue" points="55.47,-297.97 65.79,-300.38 59.23,-292.06 55.47,-297.97"/>
</g>
<!-- Node4 -->
<g id="node4" class="node">
<title>Node4</title>
<g id="a_node4"><a xlink:href="../../dc/de9/hyper__elastic__simo__taylor__neo__hookean__3d_8cpp.html" target="_top" xlink:title=" ">
<polygon fill="none" stroke="black" points="36,-200.5 36,-263.5 291,-263.5 291,-200.5 36,-200.5"/>
<text text-anchor="start" x="44" y="-251.5" font-family="Helvetica,sans-Serif" font-size="10.00">/home/runner/work/Documentation</text>
<text text-anchor="start" x="44" y="-240.5" font-family="Helvetica,sans-Serif" font-size="10.00">/Documentation/master/applications</text>
<text text-anchor="start" x="44" y="-229.5" font-family="Helvetica,sans-Serif" font-size="10.00">/ConstitutiveLawsApplication/custom</text>
<text text-anchor="start" x="44" y="-218.5" font-family="Helvetica,sans-Serif" font-size="10.00">_constitutive/finite_strains/hyperelasticity</text>
<text text-anchor="middle" x="163.5" y="-207.5" font-family="Helvetica,sans-Serif" font-size="10.00">/hyper_elastic_simo_taylor_neo_hookean_3d.cpp</text>
</a>
</g>
</g>
<!-- Node1&#45;&gt;Node4 -->
<g id="edge3" class="edge">
<title>Node1&#45;&gt;Node4</title>
<path fill="none" stroke="midnightblue" d="M163.5,-290.1C163.5,-281.24 163.5,-272.01 163.5,-263.63"/>
<polygon fill="midnightblue" stroke="midnightblue" points="160,-290.26 163.5,-300.26 167,-290.26 160,-290.26"/>
</g>
<!-- Node5 -->
<g id="node5" class="node">
<title>Node5</title>
<g id="a_node5"><a xlink:href="../../da/dba/hyper__elastic__simo__taylor__neo__hookean__plane__strain__2d_8h.html" target="_top" xlink:title=" ">
<polygon fill="none" stroke="black" points="309,-200.5 309,-263.5 618,-263.5 618,-200.5 309,-200.5"/>
<text text-anchor="start" x="317" y="-251.5" font-family="Helvetica,sans-Serif" font-size="10.00">/home/runner/work/Documentation</text>
<text text-anchor="start" x="317" y="-240.5" font-family="Helvetica,sans-Serif" font-size="10.00">/Documentation/master/applications</text>
<text text-anchor="start" x="317" y="-229.5" font-family="Helvetica,sans-Serif" font-size="10.00">/ConstitutiveLawsApplication/custom</text>
<text text-anchor="start" x="317" y="-218.5" font-family="Helvetica,sans-Serif" font-size="10.00">_constitutive/finite_strains/hyperelasticity</text>
<text text-anchor="middle" x="463.5" y="-207.5" font-family="Helvetica,sans-Serif" font-size="10.00">/hyper_elastic_simo_taylor_neo_hookean_plane_strain_2d.h</text>
</a>
</g>
</g>
<!-- Node1&#45;&gt;Node5 -->
<g id="edge4" class="edge">
<title>Node1&#45;&gt;Node5</title>
<path fill="none" stroke="midnightblue" d="M266.99,-297.19C300.44,-286.27 337.32,-274.22 370.01,-263.54"/>
<polygon fill="midnightblue" stroke="midnightblue" points="265.61,-293.96 257.19,-300.4 267.78,-300.62 265.61,-293.96"/>
</g>
<!-- Node3 -->
<g id="node3" class="node">
<title>Node3</title>
<g id="a_node3"><a xlink:href="../../d3/d03/constitutive__laws__application_8cpp.html" target="_top" xlink:title=" ">
<polygon fill="none" stroke="black" points="0,-0.5 0,-52.5 219,-52.5 219,-0.5 0,-0.5"/>
<text text-anchor="start" x="8" y="-40.5" font-family="Helvetica,sans-Serif" font-size="10.00">/home/runner/work/Documentation</text>
<text text-anchor="start" x="8" y="-29.5" font-family="Helvetica,sans-Serif" font-size="10.00">/Documentation/master/applications</text>
<text text-anchor="start" x="8" y="-18.5" font-family="Helvetica,sans-Serif" font-size="10.00">/ConstitutiveLawsApplication/constitutive</text>
<text text-anchor="middle" x="109.5" y="-7.5" font-family="Helvetica,sans-Serif" font-size="10.00">_laws_application.cpp</text>
</a>
</g>
</g>
<!-- Node2&#45;&gt;Node3 -->
<g id="edge2" class="edge">
<title>Node2&#45;&gt;Node3</title>
<path fill="none" stroke="midnightblue" d="M109.5,-90.2C109.5,-77.78 109.5,-64.07 109.5,-52.65"/>
<polygon fill="midnightblue" stroke="midnightblue" points="106,-90.26 109.5,-100.26 113,-90.26 106,-90.26"/>
</g>
<!-- Node5&#45;&gt;Node2 -->
<g id="edge5" class="edge">
<title>Node5&#45;&gt;Node2</title>
<path fill="none" stroke="midnightblue" d="M348.85,-197.48C298.91,-182.88 241.39,-166.06 195.26,-152.57"/>
<polygon fill="midnightblue" stroke="midnightblue" points="348.14,-200.92 358.73,-200.37 350.11,-194.2 348.14,-200.92"/>
</g>
<!-- Node6 -->
<g id="node6" class="node">
<title>Node6</title>
<g id="a_node6"><a xlink:href="../../d8/d61/hyper__elastic__simo__taylor__neo__hookean__plane__strain__2d_8cpp.html" target="_top" xlink:title=" ">
<polygon fill="none" stroke="black" points="338.5,-89.5 338.5,-163.5 588.5,-163.5 588.5,-89.5 338.5,-89.5"/>
<text text-anchor="start" x="346.5" y="-151.5" font-family="Helvetica,sans-Serif" font-size="10.00">/home/runner/work/Documentation</text>
<text text-anchor="start" x="346.5" y="-140.5" font-family="Helvetica,sans-Serif" font-size="10.00">/Documentation/master/applications</text>
<text text-anchor="start" x="346.5" y="-129.5" font-family="Helvetica,sans-Serif" font-size="10.00">/ConstitutiveLawsApplication/custom</text>
<text text-anchor="start" x="346.5" y="-118.5" font-family="Helvetica,sans-Serif" font-size="10.00">_constitutive/finite_strains/hyperelasticity</text>
<text text-anchor="start" x="346.5" y="-107.5" font-family="Helvetica,sans-Serif" font-size="10.00">/hyper_elastic_simo_taylor_neo_hookean_plane</text>
<text text-anchor="middle" x="463.5" y="-96.5" font-family="Helvetica,sans-Serif" font-size="10.00">_strain_2d.cpp</text>
</a>
</g>
</g>
<!-- Node5&#45;&gt;Node6 -->
<g id="edge6" class="edge">
<title>Node5&#45;&gt;Node6</title>
<path fill="none" stroke="midnightblue" d="M463.5,-189.96C463.5,-181.32 463.5,-172.26 463.5,-163.81"/>
<polygon fill="midnightblue" stroke="midnightblue" points="460,-190.23 463.5,-200.23 467,-190.23 460,-190.23"/>
</g>
</g>
</svg>
