<?xml version="1.0" encoding="UTF-8" standalone="no"?>
<!DOCTYPE svg PUBLIC "-//W3C//DTD SVG 1.1//EN"
 "http://www.w3.org/Graphics/SVG/1.1/DTD/svg11.dtd">
<!-- Generated by graphviz version 2.43.0 (0)
 -->
<!-- Title: /home/runner/work/Documentation/Documentation/master/applications/PoromechanicsApplication/custom_conditions/one&#45;phase_flow/U_Pl_normal_liquid_flux_condition.hpp Pages: 1 -->
<!--zoomable 361 -->
<svg id="main" version="1.1" xmlns="http://www.w3.org/2000/svg" xmlns:xlink="http://www.w3.org/1999/xlink" xml:space="preserve" onload="init(evt)">
<style type="text/css"><![CDATA[
.edge:hover path { stroke: red; }
.edge:hover polygon { stroke: red; fill: red; }
]]></style>
<script type="text/javascript"><![CDATA[
var edges = document.getElementsByTagName('g');
if (edges && edges.length) {
  for (var i=0;i<edges.length;i++) {
    if (edges[i].id.substr(0,4)=='edge') {
      edges[i].setAttribute('class','edge');
    }
  }
}
]]></script>
        <defs>
                <circle id="rim" cx="0" cy="0" r="7"/>
                <circle id="rim2" cx="0" cy="0" r="3.5"/>
                <g id="zoomPlus">
                        <use xlink:href="#rim" fill="#404040">
                                <set attributeName="fill" to="#808080" begin="zoomplus.mouseover" end="zoomplus.mouseout"/>
                        </use>
                        <path d="M-4,0h8M0,-4v8" fill="none" stroke="white" stroke-width="1.5" pointer-events="none"/>
                </g>
                <g id="zoomMin">
                        <use xlink:href="#rim" fill="#404040">
                                <set attributeName="fill" to="#808080" begin="zoomminus.mouseover" end="zoomminus.mouseout"/>
                        </use>
                        <path d="M-4,0h8" fill="none" stroke="white" stroke-width="1.5" pointer-events="none"/>
                </g>
                <g id="dirArrow">
                        <path fill="none" stroke="white" stroke-width="1.5" d="M0,-3.0v7 M-2.5,-0.5L0,-3.0L2.5,-0.5"/>
                </g>
               <g id="resetDef">
                       <use xlink:href="#rim2" fill="#404040">
                               <set attributeName="fill" to="#808080" begin="reset.mouseover" end="reset.mouseout"/>
                       </use>
               </g>
        </defs>

<script type="text/javascript">
var viewWidth = 599;
var viewHeight = 361;
var sectionId = 'dynsection-1';
</script>
<script xlink:href="../../svgpan.js"/>
<svg id="graph" class="graph">
<g id="viewport">
<title>/home/runner/work/Documentation/Documentation/master/applications/PoromechanicsApplication/custom_conditions/one&#45;phase_flow/U_Pl_normal_liquid_flux_condition.hpp</title>
<!-- Node1 -->
<g id="node1" class="node">
<title>Node1</title>
<g id="a_node1"><a xlink:title=" ">
<polygon fill="#bfbfbf" stroke="black" points="234,-289.5 234,-352.5 450,-352.5 450,-289.5 234,-289.5"/>
<text text-anchor="start" x="242" y="-340.5" font-family="Helvetica,sans-Serif" font-size="10.00">/home/runner/work/Documentation</text>
<text text-anchor="start" x="242" y="-329.5" font-family="Helvetica,sans-Serif" font-size="10.00">/Documentation/master/applications</text>
<text text-anchor="start" x="242" y="-318.5" font-family="Helvetica,sans-Serif" font-size="10.00">/PoromechanicsApplication/custom</text>
<text text-anchor="start" x="242" y="-307.5" font-family="Helvetica,sans-Serif" font-size="10.00">_conditions/one&#45;phase_flow/U_Pl_normal</text>
<text text-anchor="middle" x="342" y="-296.5" font-family="Helvetica,sans-Serif" font-size="10.00">_liquid_flux_condition.hpp</text>
</a>
</g>
</g>
<!-- Node2 -->
<g id="node2" class="node">
<title>Node2</title>
<g id="a_node2"><a xlink:href="../../d0/d09/_u___pl__normal__liquid__flux__condition_8cpp.html" target="_top" xlink:title=" ">
<polygon fill="none" stroke="black" points="0,-189.5 0,-252.5 216,-252.5 216,-189.5 0,-189.5"/>
<text text-anchor="start" x="8" y="-240.5" font-family="Helvetica,sans-Serif" font-size="10.00">/home/runner/work/Documentation</text>
<text text-anchor="start" x="8" y="-229.5" font-family="Helvetica,sans-Serif" font-size="10.00">/Documentation/master/applications</text>
<text text-anchor="start" x="8" y="-218.5" font-family="Helvetica,sans-Serif" font-size="10.00">/PoromechanicsApplication/custom</text>
<text text-anchor="start" x="8" y="-207.5" font-family="Helvetica,sans-Serif" font-size="10.00">_conditions/one&#45;phase_flow/U_Pl_normal</text>
<text text-anchor="middle" x="108" y="-196.5" font-family="Helvetica,sans-Serif" font-size="10.00">_liquid_flux_condition.cpp</text>
</a>
</g>
</g>
<!-- Node1&#45;&gt;Node2 -->
<g id="edge1" class="edge">
<title>Node1&#45;&gt;Node2</title>
<path fill="none" stroke="midnightblue" d="M259.6,-285.49C233.95,-274.75 205.87,-262.99 180.92,-252.54"/>
<polygon fill="midnightblue" stroke="midnightblue" points="258.35,-288.76 268.92,-289.4 261.05,-282.3 258.35,-288.76"/>
</g>
<!-- Node3 -->
<g id="node3" class="node">
<title>Node3</title>
<g id="a_node3"><a xlink:href="../../dc/d24/_u___pl__normal__liquid__flux___f_i_c__condition_8hpp.html" target="_top" xlink:title=" ">
<polygon fill="none" stroke="black" points="234,-189.5 234,-252.5 450,-252.5 450,-189.5 234,-189.5"/>
<text text-anchor="start" x="242" y="-240.5" font-family="Helvetica,sans-Serif" font-size="10.00">/home/runner/work/Documentation</text>
<text text-anchor="start" x="242" y="-229.5" font-family="Helvetica,sans-Serif" font-size="10.00">/Documentation/master/applications</text>
<text text-anchor="start" x="242" y="-218.5" font-family="Helvetica,sans-Serif" font-size="10.00">/PoromechanicsApplication/custom</text>
<text text-anchor="start" x="242" y="-207.5" font-family="Helvetica,sans-Serif" font-size="10.00">_conditions/one&#45;phase_flow/U_Pl_normal</text>
<text text-anchor="middle" x="342" y="-196.5" font-family="Helvetica,sans-Serif" font-size="10.00">_liquid_flux_FIC_condition.hpp</text>
</a>
</g>
</g>
<!-- Node1&#45;&gt;Node3 -->
<g id="edge2" class="edge">
<title>Node1&#45;&gt;Node3</title>
<path fill="none" stroke="midnightblue" d="M342,-279.1C342,-270.24 342,-261.01 342,-252.63"/>
<polygon fill="midnightblue" stroke="midnightblue" points="338.5,-279.26 342,-289.26 345.5,-279.26 338.5,-279.26"/>
</g>
<!-- Node5 -->
<g id="node5" class="node">
<title>Node5</title>
<g id="a_node5"><a xlink:href="../../d4/d5f/poromechanics__application_8h.html" target="_top" xlink:title=" ">
<polygon fill="none" stroke="black" points="365,-95 365,-147 591,-147 591,-95 365,-95"/>
<text text-anchor="start" x="373" y="-135" font-family="Helvetica,sans-Serif" font-size="10.00">/home/runner/work/Documentation</text>
<text text-anchor="start" x="373" y="-124" font-family="Helvetica,sans-Serif" font-size="10.00">/Documentation/master/applications</text>
<text text-anchor="start" x="373" y="-113" font-family="Helvetica,sans-Serif" font-size="10.00">/PoromechanicsApplication/poromechanics</text>
<text text-anchor="middle" x="478" y="-102" font-family="Helvetica,sans-Serif" font-size="10.00">_application.h</text>
</a>
</g>
</g>
<!-- Node1&#45;&gt;Node5 -->
<g id="edge6" class="edge">
<title>Node1&#45;&gt;Node5</title>
<path fill="none" stroke="midnightblue" d="M427.34,-283.79C439.56,-275.3 450.76,-265.11 459,-253 480.52,-221.36 482.09,-175.47 480.55,-147.24"/>
<polygon fill="midnightblue" stroke="midnightblue" points="425.21,-281 418.74,-289.4 429.03,-286.87 425.21,-281"/>
</g>
<!-- Node4 -->
<g id="node4" class="node">
<title>Node4</title>
<g id="a_node4"><a xlink:href="../../d3/ddf/_u___pl__normal__liquid__flux___f_i_c__condition_8cpp.html" target="_top" xlink:title=" ">
<polygon fill="none" stroke="black" points="131,-89.5 131,-152.5 347,-152.5 347,-89.5 131,-89.5"/>
<text text-anchor="start" x="139" y="-140.5" font-family="Helvetica,sans-Serif" font-size="10.00">/home/runner/work/Documentation</text>
<text text-anchor="start" x="139" y="-129.5" font-family="Helvetica,sans-Serif" font-size="10.00">/Documentation/master/applications</text>
<text text-anchor="start" x="139" y="-118.5" font-family="Helvetica,sans-Serif" font-size="10.00">/PoromechanicsApplication/custom</text>
<text text-anchor="start" x="139" y="-107.5" font-family="Helvetica,sans-Serif" font-size="10.00">_conditions/one&#45;phase_flow/U_Pl_normal</text>
<text text-anchor="middle" x="239" y="-96.5" font-family="Helvetica,sans-Serif" font-size="10.00">_liquid_flux_FIC_condition.cpp</text>
</a>
</g>
</g>
<!-- Node3&#45;&gt;Node4 -->
<g id="edge3" class="edge">
<title>Node3&#45;&gt;Node4</title>
<path fill="none" stroke="midnightblue" d="M302.33,-182.26C292.03,-172.46 281.06,-162.02 271.19,-152.63"/>
<polygon fill="midnightblue" stroke="midnightblue" points="300.04,-184.9 309.69,-189.26 304.86,-179.83 300.04,-184.9"/>
</g>
<!-- Node3&#45;&gt;Node5 -->
<g id="edge4" class="edge">
<title>Node3&#45;&gt;Node5</title>
<path fill="none" stroke="midnightblue" d="M392.77,-183.41C409.58,-171.3 427.9,-158.1 443.23,-147.05"/>
<polygon fill="midnightblue" stroke="midnightblue" points="390.73,-180.58 384.66,-189.26 394.82,-186.25 390.73,-180.58"/>
</g>
<!-- Node6 -->
<g id="node6" class="node">
<title>Node6</title>
<g id="a_node6"><a xlink:href="../../d4/de2/poromechanics__application_8cpp.html" target="_top" xlink:title=" ">
<polygon fill="none" stroke="black" points="365,-0.5 365,-52.5 591,-52.5 591,-0.5 365,-0.5"/>
<text text-anchor="start" x="373" y="-40.5" font-family="Helvetica,sans-Serif" font-size="10.00">/home/runner/work/Documentation</text>
<text text-anchor="start" x="373" y="-29.5" font-family="Helvetica,sans-Serif" font-size="10.00">/Documentation/master/applications</text>
<text text-anchor="start" x="373" y="-18.5" font-family="Helvetica,sans-Serif" font-size="10.00">/PoromechanicsApplication/poromechanics</text>
<text text-anchor="middle" x="478" y="-7.5" font-family="Helvetica,sans-Serif" font-size="10.00">_application.cpp</text>
</a>
</g>
</g>
<!-- Node5&#45;&gt;Node6 -->
<g id="edge5" class="edge">
<title>Node5&#45;&gt;Node6</title>
<path fill="none" stroke="midnightblue" d="M478,-84.49C478,-73.91 478,-62.53 478,-52.75"/>
<polygon fill="midnightblue" stroke="midnightblue" points="474.5,-84.72 478,-94.72 481.5,-84.72 474.5,-84.72"/>
</g>
</g>
</svg>
        <g id="navigator" transform="translate(0 0)" fill="#404254">
                <rect fill="#f2f5e9" fill-opacity="0.5" stroke="#606060" stroke-width=".5" x="0" y="0" width="60" height="60"/>
                <use id="zoomplus" xlink:href="#zoomPlus" x="17" y="9" onmousedown="handleZoom(evt,'in')"/>
                <use id="zoomminus" xlink:href="#zoomMin" x="42" y="9" onmousedown="handleZoom(evt,'out')"/>
                <use id="reset" xlink:href="#resetDef" x="30" y="36" onmousedown="handleReset()"/>
                <g id="arrowUp" xlink:href="#dirArrow" transform="translate(30 24)" onmousedown="handlePan(0,-1)">
                  <use xlink:href="#rim" fill="#404040">
                        <set attributeName="fill" to="#808080" begin="arrowUp.mouseover" end="arrowUp.mouseout"/>
                  </use>
                  <path fill="none" stroke="white" stroke-width="1.5" d="M0,-3.0v7 M-2.5,-0.5L0,-3.0L2.5,-0.5"/>
                </g>
                <g id="arrowRight" xlink:href="#dirArrow" transform="rotate(90) translate(36 -43)" onmousedown="handlePan(1,0)">
                  <use xlink:href="#rim" fill="#404040">
                        <set attributeName="fill" to="#808080" begin="arrowRight.mouseover" end="arrowRight.mouseout"/>
                  </use>
                  <path fill="none" stroke="white" stroke-width="1.5" d="M0,-3.0v7 M-2.5,-0.5L0,-3.0L2.5,-0.5"/>
                </g>
                <g id="arrowDown" xlink:href="#dirArrow" transform="rotate(180) translate(-30 -48)" onmousedown="handlePan(0,1)">
                  <use xlink:href="#rim" fill="#404040">
                        <set attributeName="fill" to="#808080" begin="arrowDown.mouseover" end="arrowDown.mouseout"/>
                  </use>
                  <path fill="none" stroke="white" stroke-width="1.5" d="M0,-3.0v7 M-2.5,-0.5L0,-3.0L2.5,-0.5"/>
                </g>
                <g id="arrowLeft" xlink:href="#dirArrow" transform="rotate(270) translate(-36 17)" onmousedown="handlePan(-1,0)">
                  <use xlink:href="#rim" fill="#404040">
                        <set attributeName="fill" to="#808080" begin="arrowLeft.mouseover" end="arrowLeft.mouseout"/>
                  </use>
                  <path fill="none" stroke="white" stroke-width="1.5" d="M0,-3.0v7 M-2.5,-0.5L0,-3.0L2.5,-0.5"/>
                </g>
        </g>
        <svg viewBox="0 0 15 15" width="100%" height="30px" preserveAspectRatio="xMaxYMin meet">
         <g id="arrow_out" transform="scale(0.3 0.3)">
          <a xlink:href="_u___pl__normal__liquid__flux__condition_8hpp__dep__incl_org.svg" target="_base">
           <rect id="button" ry="5" rx="5" y="6" x="6" height="38" width="38"
                fill="#f2f5e9" fill-opacity="0.5" stroke="#606060" stroke-width="1.0"/>
           <path id="arrow"
             d="M 11.500037,31.436501 C 11.940474,20.09759 22.043105,11.32322 32.158766,21.979434 L 37.068811,17.246167 C 37.068811,17.246167 37.088388,32 37.088388,32 L 22.160133,31.978069 C 22.160133,31.978069 26.997745,27.140456 26.997745,27.140456 C 18.528582,18.264221 13.291696,25.230495 11.500037,31.436501 z"
             style="fill:#404040;"/>
          </a>
         </g>
        </svg>
</svg>
