<?xml version="1.0" encoding="UTF-8" standalone="no"?>
<!DOCTYPE svg PUBLIC "-//W3C//DTD SVG 1.1//EN"
 "http://www.w3.org/Graphics/SVG/1.1/DTD/svg11.dtd">
<!-- Generated by graphviz version 2.43.0 (0)
 -->
<!-- Title: /home/runner/work/Documentation/Documentation/master/applications/PoromechanicsApplication/custom_constitutive/elastoplastic_mod_mohr_coulomb_cohesive_3D_law.hpp Pages: 1 -->
<!--zoomable 361 -->
<svg id="main" version="1.1" xmlns="http://www.w3.org/2000/svg" xmlns:xlink="http://www.w3.org/1999/xlink" xml:space="preserve" onload="init(evt)">
<style type="text/css"><![CDATA[
.edge:hover path { stroke: red; }
.edge:hover polygon { stroke: red; fill: red; }
]]></style>
<script type="text/javascript"><![CDATA[
var edges = document.getElementsByTagName('g');
if (edges && edges.length) {
  for (var i=0;i<edges.length;i++) {
    if (edges[i].id.substr(0,4)=='edge') {
      edges[i].setAttribute('class','edge');
    }
  }
}
]]></script>
        <defs>
                <circle id="rim" cx="0" cy="0" r="7"/>
                <circle id="rim2" cx="0" cy="0" r="3.5"/>
                <g id="zoomPlus">
                        <use xlink:href="#rim" fill="#404040">
                                <set attributeName="fill" to="#808080" begin="zoomplus.mouseover" end="zoomplus.mouseout"/>
                        </use>
                        <path d="M-4,0h8M0,-4v8" fill="none" stroke="white" stroke-width="1.5" pointer-events="none"/>
                </g>
                <g id="zoomMin">
                        <use xlink:href="#rim" fill="#404040">
                                <set attributeName="fill" to="#808080" begin="zoomminus.mouseover" end="zoomminus.mouseout"/>
                        </use>
                        <path d="M-4,0h8" fill="none" stroke="white" stroke-width="1.5" pointer-events="none"/>
                </g>
                <g id="dirArrow">
                        <path fill="none" stroke="white" stroke-width="1.5" d="M0,-3.0v7 M-2.5,-0.5L0,-3.0L2.5,-0.5"/>
                </g>
               <g id="resetDef">
                       <use xlink:href="#rim2" fill="#404040">
                               <set attributeName="fill" to="#808080" begin="reset.mouseover" end="reset.mouseout"/>
                       </use>
               </g>
        </defs>

<script type="text/javascript">
var viewWidth = 698;
var viewHeight = 361;
var sectionId = 'dynsection-1';
</script>
<script xlink:href="../../svgpan.js"/>
<svg id="graph" class="graph">
<g id="viewport">
<title>/home/runner/work/Documentation/Documentation/master/applications/PoromechanicsApplication/custom_constitutive/elastoplastic_mod_mohr_coulomb_cohesive_3D_law.hpp</title>
<!-- Node1 -->
<g id="node1" class="node">
<title>Node1</title>
<g id="a_node1"><a xlink:title=" ">
<polygon fill="#bfbfbf" stroke="black" points="292,-289.5 292,-352.5 495,-352.5 495,-289.5 292,-289.5"/>
<text text-anchor="start" x="300" y="-340.5" font-family="Helvetica,sans-Serif" font-size="10.00">/home/runner/work/Documentation</text>
<text text-anchor="start" x="300" y="-329.5" font-family="Helvetica,sans-Serif" font-size="10.00">/Documentation/master/applications</text>
<text text-anchor="start" x="300" y="-318.5" font-family="Helvetica,sans-Serif" font-size="10.00">/PoromechanicsApplication/custom</text>
<text text-anchor="start" x="300" y="-307.5" font-family="Helvetica,sans-Serif" font-size="10.00">_constitutive/elastoplastic_mod_mohr</text>
<text text-anchor="middle" x="393.5" y="-296.5" font-family="Helvetica,sans-Serif" font-size="10.00">_coulomb_cohesive_3D_law.hpp</text>
</a>
</g>
</g>
<!-- Node2 -->
<g id="node2" class="node">
<title>Node2</title>
<g id="a_node2"><a xlink:href="../../d5/d7c/elastoplastic__mod__mohr__coulomb__cohesive__2_d__law_8hpp.html" target="_top" xlink:title=" ">
<polygon fill="none" stroke="black" points="227,-189.5 227,-252.5 430,-252.5 430,-189.5 227,-189.5"/>
<text text-anchor="start" x="235" y="-240.5" font-family="Helvetica,sans-Serif" font-size="10.00">/home/runner/work/Documentation</text>
<text text-anchor="start" x="235" y="-229.5" font-family="Helvetica,sans-Serif" font-size="10.00">/Documentation/master/applications</text>
<text text-anchor="start" x="235" y="-218.5" font-family="Helvetica,sans-Serif" font-size="10.00">/PoromechanicsApplication/custom</text>
<text text-anchor="start" x="235" y="-207.5" font-family="Helvetica,sans-Serif" font-size="10.00">_constitutive/elastoplastic_mod_mohr</text>
<text text-anchor="middle" x="328.5" y="-196.5" font-family="Helvetica,sans-Serif" font-size="10.00">_coulomb_cohesive_2D_law.hpp</text>
</a>
</g>
</g>
<!-- Node1&#45;&gt;Node2 -->
<g id="edge1" class="edge">
<title>Node1&#45;&gt;Node2</title>
<path fill="none" stroke="midnightblue" d="M367.52,-280.83C361.3,-271.44 354.74,-261.56 348.82,-252.63"/>
<polygon fill="midnightblue" stroke="midnightblue" points="364.67,-282.86 373.11,-289.26 370.5,-278.99 364.67,-282.86"/>
</g>
<!-- Node4 -->
<g id="node4" class="node">
<title>Node4</title>
<g id="a_node4"><a xlink:href="../../d1/da9/_poromechanics_application_2custom__python_2add__custom__constitutive__laws__to__python_8cpp.html" target="_top" xlink:title=" ">
<polygon fill="none" stroke="black" points="0,-89.5 0,-152.5 209,-152.5 209,-89.5 0,-89.5"/>
<text text-anchor="start" x="8" y="-140.5" font-family="Helvetica,sans-Serif" font-size="10.00">/home/runner/work/Documentation</text>
<text text-anchor="start" x="8" y="-129.5" font-family="Helvetica,sans-Serif" font-size="10.00">/Documentation/master/applications</text>
<text text-anchor="start" x="8" y="-118.5" font-family="Helvetica,sans-Serif" font-size="10.00">/PoromechanicsApplication/custom</text>
<text text-anchor="start" x="8" y="-107.5" font-family="Helvetica,sans-Serif" font-size="10.00">_python/add_custom_constitutive_laws</text>
<text text-anchor="middle" x="104.5" y="-96.5" font-family="Helvetica,sans-Serif" font-size="10.00">_to_python.cpp</text>
</a>
</g>
</g>
<!-- Node1&#45;&gt;Node4 -->
<g id="edge7" class="edge">
<title>Node1&#45;&gt;Node4</title>
<path fill="none" stroke="midnightblue" d="M282.59,-287.39C259.99,-278.16 237.15,-266.77 217.5,-253 178.52,-225.67 144.49,-181.97 124.22,-152.64"/>
<polygon fill="midnightblue" stroke="midnightblue" points="281.32,-290.65 291.91,-291.08 283.9,-284.14 281.32,-290.65"/>
</g>
<!-- Node5 -->
<g id="node5" class="node">
<title>Node5</title>
<g id="a_node5"><a xlink:href="../../d4/d5f/poromechanics__application_8h.html" target="_top" xlink:title=" ">
<polygon fill="none" stroke="black" points="448.5,-95 448.5,-147 674.5,-147 674.5,-95 448.5,-95"/>
<text text-anchor="start" x="456.5" y="-135" font-family="Helvetica,sans-Serif" font-size="10.00">/home/runner/work/Documentation</text>
<text text-anchor="start" x="456.5" y="-124" font-family="Helvetica,sans-Serif" font-size="10.00">/Documentation/master/applications</text>
<text text-anchor="start" x="456.5" y="-113" font-family="Helvetica,sans-Serif" font-size="10.00">/PoromechanicsApplication/poromechanics</text>
<text text-anchor="middle" x="561.5" y="-102" font-family="Helvetica,sans-Serif" font-size="10.00">_application.h</text>
</a>
</g>
</g>
<!-- Node1&#45;&gt;Node5 -->
<g id="edge8" class="edge">
<title>Node1&#45;&gt;Node5</title>
<path fill="none" stroke="midnightblue" d="M420.31,-280.7C426.37,-271.65 432.72,-262.03 438.5,-253 456.46,-224.95 455.48,-213.99 477.5,-189 491.19,-173.47 508.8,-158.81 524.36,-147.18"/>
<polygon fill="midnightblue" stroke="midnightblue" points="417.3,-278.92 414.62,-289.17 423.11,-282.82 417.3,-278.92"/>
</g>
<!-- Node7 -->
<g id="node7" class="node">
<title>Node7</title>
<g id="a_node7"><a xlink:href="../../da/dc1/elastoplastic__mod__mohr__coulomb__cohesive__3_d__law_8cpp.html" target="_top" xlink:title=" ">
<polygon fill="none" stroke="black" points="487,-189.5 487,-252.5 690,-252.5 690,-189.5 487,-189.5"/>
<text text-anchor="start" x="495" y="-240.5" font-family="Helvetica,sans-Serif" font-size="10.00">/home/runner/work/Documentation</text>
<text text-anchor="start" x="495" y="-229.5" font-family="Helvetica,sans-Serif" font-size="10.00">/Documentation/master/applications</text>
<text text-anchor="start" x="495" y="-218.5" font-family="Helvetica,sans-Serif" font-size="10.00">/PoromechanicsApplication/custom</text>
<text text-anchor="start" x="495" y="-207.5" font-family="Helvetica,sans-Serif" font-size="10.00">_constitutive/elastoplastic_mod_mohr</text>
<text text-anchor="middle" x="588.5" y="-196.5" font-family="Helvetica,sans-Serif" font-size="10.00">_coulomb_cohesive_3D_law.cpp</text>
</a>
</g>
</g>
<!-- Node1&#45;&gt;Node7 -->
<g id="edge6" class="edge">
<title>Node1&#45;&gt;Node7</title>
<path fill="none" stroke="midnightblue" d="M463.58,-284.78C484.56,-274.23 507.4,-262.76 527.73,-252.54"/>
<polygon fill="midnightblue" stroke="midnightblue" points="461.76,-281.78 454.4,-289.4 464.9,-288.03 461.76,-281.78"/>
</g>
<!-- Node3 -->
<g id="node3" class="node">
<title>Node3</title>
<g id="a_node3"><a xlink:href="../../dc/d01/elastoplastic__mod__mohr__coulomb__cohesive__2_d__law_8cpp.html" target="_top" xlink:title=" ">
<polygon fill="none" stroke="black" points="227,-89.5 227,-152.5 430,-152.5 430,-89.5 227,-89.5"/>
<text text-anchor="start" x="235" y="-140.5" font-family="Helvetica,sans-Serif" font-size="10.00">/home/runner/work/Documentation</text>
<text text-anchor="start" x="235" y="-129.5" font-family="Helvetica,sans-Serif" font-size="10.00">/Documentation/master/applications</text>
<text text-anchor="start" x="235" y="-118.5" font-family="Helvetica,sans-Serif" font-size="10.00">/PoromechanicsApplication/custom</text>
<text text-anchor="start" x="235" y="-107.5" font-family="Helvetica,sans-Serif" font-size="10.00">_constitutive/elastoplastic_mod_mohr</text>
<text text-anchor="middle" x="328.5" y="-96.5" font-family="Helvetica,sans-Serif" font-size="10.00">_coulomb_cohesive_2D_law.cpp</text>
</a>
</g>
</g>
<!-- Node2&#45;&gt;Node3 -->
<g id="edge2" class="edge">
<title>Node2&#45;&gt;Node3</title>
<path fill="none" stroke="midnightblue" d="M328.5,-179.1C328.5,-170.24 328.5,-161.01 328.5,-152.63"/>
<polygon fill="midnightblue" stroke="midnightblue" points="325,-179.26 328.5,-189.26 332,-179.26 325,-179.26"/>
</g>
<!-- Node2&#45;&gt;Node4 -->
<g id="edge3" class="edge">
<title>Node2&#45;&gt;Node4</title>
<path fill="none" stroke="midnightblue" d="M249.29,-185.35C224.83,-174.65 198.09,-162.94 174.31,-152.54"/>
<polygon fill="midnightblue" stroke="midnightblue" points="247.98,-188.59 258.55,-189.4 250.79,-182.18 247.98,-188.59"/>
</g>
<!-- Node2&#45;&gt;Node5 -->
<g id="edge4" class="edge">
<title>Node2&#45;&gt;Node5</title>
<path fill="none" stroke="midnightblue" d="M410.87,-185.36C440.85,-172.75 474.13,-158.75 501.77,-147.12"/>
<polygon fill="midnightblue" stroke="midnightblue" points="409.13,-182.29 401.26,-189.4 411.84,-188.74 409.13,-182.29"/>
</g>
<!-- Node6 -->
<g id="node6" class="node">
<title>Node6</title>
<g id="a_node6"><a xlink:href="../../d4/de2/poromechanics__application_8cpp.html" target="_top" xlink:title=" ">
<polygon fill="none" stroke="black" points="448.5,-0.5 448.5,-52.5 674.5,-52.5 674.5,-0.5 448.5,-0.5"/>
<text text-anchor="start" x="456.5" y="-40.5" font-family="Helvetica,sans-Serif" font-size="10.00">/home/runner/work/Documentation</text>
<text text-anchor="start" x="456.5" y="-29.5" font-family="Helvetica,sans-Serif" font-size="10.00">/Documentation/master/applications</text>
<text text-anchor="start" x="456.5" y="-18.5" font-family="Helvetica,sans-Serif" font-size="10.00">/PoromechanicsApplication/poromechanics</text>
<text text-anchor="middle" x="561.5" y="-7.5" font-family="Helvetica,sans-Serif" font-size="10.00">_application.cpp</text>
</a>
</g>
</g>
<!-- Node5&#45;&gt;Node6 -->
<g id="edge5" class="edge">
<title>Node5&#45;&gt;Node6</title>
<path fill="none" stroke="midnightblue" d="M561.5,-84.49C561.5,-73.91 561.5,-62.53 561.5,-52.75"/>
<polygon fill="midnightblue" stroke="midnightblue" points="558,-84.72 561.5,-94.72 565,-84.72 558,-84.72"/>
</g>
</g>
</svg>
        <g id="navigator" transform="translate(0 0)" fill="#404254">
                <rect fill="#f2f5e9" fill-opacity="0.5" stroke="#606060" stroke-width=".5" x="0" y="0" width="60" height="60"/>
                <use id="zoomplus" xlink:href="#zoomPlus" x="17" y="9" onmousedown="handleZoom(evt,'in')"/>
                <use id="zoomminus" xlink:href="#zoomMin" x="42" y="9" onmousedown="handleZoom(evt,'out')"/>
                <use id="reset" xlink:href="#resetDef" x="30" y="36" onmousedown="handleReset()"/>
                <g id="arrowUp" xlink:href="#dirArrow" transform="translate(30 24)" onmousedown="handlePan(0,-1)">
                  <use xlink:href="#rim" fill="#404040">
                        <set attributeName="fill" to="#808080" begin="arrowUp.mouseover" end="arrowUp.mouseout"/>
                  </use>
                  <path fill="none" stroke="white" stroke-width="1.5" d="M0,-3.0v7 M-2.5,-0.5L0,-3.0L2.5,-0.5"/>
                </g>
                <g id="arrowRight" xlink:href="#dirArrow" transform="rotate(90) translate(36 -43)" onmousedown="handlePan(1,0)">
                  <use xlink:href="#rim" fill="#404040">
                        <set attributeName="fill" to="#808080" begin="arrowRight.mouseover" end="arrowRight.mouseout"/>
                  </use>
                  <path fill="none" stroke="white" stroke-width="1.5" d="M0,-3.0v7 M-2.5,-0.5L0,-3.0L2.5,-0.5"/>
                </g>
                <g id="arrowDown" xlink:href="#dirArrow" transform="rotate(180) translate(-30 -48)" onmousedown="handlePan(0,1)">
                  <use xlink:href="#rim" fill="#404040">
                        <set attributeName="fill" to="#808080" begin="arrowDown.mouseover" end="arrowDown.mouseout"/>
                  </use>
                  <path fill="none" stroke="white" stroke-width="1.5" d="M0,-3.0v7 M-2.5,-0.5L0,-3.0L2.5,-0.5"/>
                </g>
                <g id="arrowLeft" xlink:href="#dirArrow" transform="rotate(270) translate(-36 17)" onmousedown="handlePan(-1,0)">
                  <use xlink:href="#rim" fill="#404040">
                        <set attributeName="fill" to="#808080" begin="arrowLeft.mouseover" end="arrowLeft.mouseout"/>
                  </use>
                  <path fill="none" stroke="white" stroke-width="1.5" d="M0,-3.0v7 M-2.5,-0.5L0,-3.0L2.5,-0.5"/>
                </g>
        </g>
        <svg viewBox="0 0 15 15" width="100%" height="30px" preserveAspectRatio="xMaxYMin meet">
         <g id="arrow_out" transform="scale(0.3 0.3)">
          <a xlink:href="elastoplastic__mod__mohr__coulomb__cohesive__3_d__law_8hpp__dep__incl_org.svg" target="_base">
           <rect id="button" ry="5" rx="5" y="6" x="6" height="38" width="38"
                fill="#f2f5e9" fill-opacity="0.5" stroke="#606060" stroke-width="1.0"/>
           <path id="arrow"
             d="M 11.500037,31.436501 C 11.940474,20.09759 22.043105,11.32322 32.158766,21.979434 L 37.068811,17.246167 C 37.068811,17.246167 37.088388,32 37.088388,32 L 22.160133,31.978069 C 22.160133,31.978069 26.997745,27.140456 26.997745,27.140456 C 18.528582,18.264221 13.291696,25.230495 11.500037,31.436501 z"
             style="fill:#404040;"/>
          </a>
         </g>
        </svg>
</svg>
