<?xml version="1.0" encoding="UTF-8" standalone="no"?>
<!DOCTYPE svg PUBLIC "-//W3C//DTD SVG 1.1//EN"
 "http://www.w3.org/Graphics/SVG/1.1/DTD/svg11.dtd">
<!-- Generated by graphviz version 2.43.0 (0)
 -->
<!-- Title: /home/runner/work/Documentation/Documentation/master/applications/SolidMechanicsApplication/custom_constitutive/hyperelastic_U_P_3D_law.hpp Pages: 1 -->
<!--zoomable 361 -->
<svg id="main" version="1.1" xmlns="http://www.w3.org/2000/svg" xmlns:xlink="http://www.w3.org/1999/xlink" xml:space="preserve" onload="init(evt)">
<style type="text/css"><![CDATA[
.edge:hover path { stroke: red; }
.edge:hover polygon { stroke: red; fill: red; }
]]></style>
<script type="text/javascript"><![CDATA[
var edges = document.getElementsByTagName('g');
if (edges && edges.length) {
  for (var i=0;i<edges.length;i++) {
    if (edges[i].id.substr(0,4)=='edge') {
      edges[i].setAttribute('class','edge');
    }
  }
}
]]></script>
        <defs>
                <circle id="rim" cx="0" cy="0" r="7"/>
                <circle id="rim2" cx="0" cy="0" r="3.5"/>
                <g id="zoomPlus">
                        <use xlink:href="#rim" fill="#404040">
                                <set attributeName="fill" to="#808080" begin="zoomplus.mouseover" end="zoomplus.mouseout"/>
                        </use>
                        <path d="M-4,0h8M0,-4v8" fill="none" stroke="white" stroke-width="1.5" pointer-events="none"/>
                </g>
                <g id="zoomMin">
                        <use xlink:href="#rim" fill="#404040">
                                <set attributeName="fill" to="#808080" begin="zoomminus.mouseover" end="zoomminus.mouseout"/>
                        </use>
                        <path d="M-4,0h8" fill="none" stroke="white" stroke-width="1.5" pointer-events="none"/>
                </g>
                <g id="dirArrow">
                        <path fill="none" stroke="white" stroke-width="1.5" d="M0,-3.0v7 M-2.5,-0.5L0,-3.0L2.5,-0.5"/>
                </g>
               <g id="resetDef">
                       <use xlink:href="#rim2" fill="#404040">
                               <set attributeName="fill" to="#808080" begin="reset.mouseover" end="reset.mouseout"/>
                       </use>
               </g>
        </defs>

<script type="text/javascript">
var viewWidth = 1079;
var viewHeight = 361;
var sectionId = 'dynsection-1';
</script>
<script xlink:href="../../svgpan.js"/>
<svg id="graph" class="graph">
<g id="viewport">
<title>/home/runner/work/Documentation/Documentation/master/applications/SolidMechanicsApplication/custom_constitutive/hyperelastic_U_P_3D_law.hpp</title>
<!-- Node1 -->
<g id="node1" class="node">
<title>Node1</title>
<g id="a_node1"><a xlink:title=" ">
<polygon fill="#bfbfbf" stroke="black" points="273.5,-300.5 273.5,-352.5 501.5,-352.5 501.5,-300.5 273.5,-300.5"/>
<text text-anchor="start" x="281.5" y="-340.5" font-family="Helvetica,sans-Serif" font-size="10.00">/home/runner/work/Documentation</text>
<text text-anchor="start" x="281.5" y="-329.5" font-family="Helvetica,sans-Serif" font-size="10.00">/Documentation/master/applications</text>
<text text-anchor="start" x="281.5" y="-318.5" font-family="Helvetica,sans-Serif" font-size="10.00">/SolidMechanicsApplication/custom</text>
<text text-anchor="middle" x="387.5" y="-307.5" font-family="Helvetica,sans-Serif" font-size="10.00">_constitutive/hyperelastic_U_P_3D_law.hpp</text>
</a>
</g>
</g>
<!-- Node2 -->
<g id="node2" class="node">
<title>Node2</title>
<g id="a_node2"><a xlink:href="../../dc/dd8/hyperelastic___u___p__3_d__law_8cpp.html" target="_top" xlink:title=" ">
<polygon fill="none" stroke="black" points="0,-206 0,-258 227,-258 227,-206 0,-206"/>
<text text-anchor="start" x="8" y="-246" font-family="Helvetica,sans-Serif" font-size="10.00">/home/runner/work/Documentation</text>
<text text-anchor="start" x="8" y="-235" font-family="Helvetica,sans-Serif" font-size="10.00">/Documentation/master/applications</text>
<text text-anchor="start" x="8" y="-224" font-family="Helvetica,sans-Serif" font-size="10.00">/SolidMechanicsApplication/custom</text>
<text text-anchor="middle" x="113.5" y="-213" font-family="Helvetica,sans-Serif" font-size="10.00">_constitutive/hyperelastic_U_P_3D_law.cpp</text>
</a>
</g>
</g>
<!-- Node1&#45;&gt;Node2 -->
<g id="edge1" class="edge">
<title>Node1&#45;&gt;Node2</title>
<path fill="none" stroke="midnightblue" d="M303.59,-297.17C266.6,-284.69 223.51,-270.14 187.71,-258.05"/>
<polygon fill="midnightblue" stroke="midnightblue" points="302.76,-300.59 313.35,-300.47 305,-293.95 302.76,-300.59"/>
</g>
<!-- Node3 -->
<g id="node3" class="node">
<title>Node3</title>
<g id="a_node3"><a xlink:href="../../d2/de0/hyperelastic___u___p__axisym__2_d__law_8hpp.html" target="_top" xlink:title=" ">
<polygon fill="none" stroke="black" points="283.5,-200.5 283.5,-263.5 491.5,-263.5 491.5,-200.5 283.5,-200.5"/>
<text text-anchor="start" x="291.5" y="-251.5" font-family="Helvetica,sans-Serif" font-size="10.00">/home/runner/work/Documentation</text>
<text text-anchor="start" x="291.5" y="-240.5" font-family="Helvetica,sans-Serif" font-size="10.00">/Documentation/master/applications</text>
<text text-anchor="start" x="291.5" y="-229.5" font-family="Helvetica,sans-Serif" font-size="10.00">/SolidMechanicsApplication/custom</text>
<text text-anchor="start" x="291.5" y="-218.5" font-family="Helvetica,sans-Serif" font-size="10.00">_constitutive/hyperelastic_U_P_axisym</text>
<text text-anchor="middle" x="387.5" y="-207.5" font-family="Helvetica,sans-Serif" font-size="10.00">_2D_law.hpp</text>
</a>
</g>
</g>
<!-- Node1&#45;&gt;Node3 -->
<g id="edge2" class="edge">
<title>Node1&#45;&gt;Node3</title>
<path fill="none" stroke="midnightblue" d="M387.5,-289.94C387.5,-281.23 387.5,-271.97 387.5,-263.51"/>
<polygon fill="midnightblue" stroke="midnightblue" points="384,-290.22 387.5,-300.22 391,-290.22 384,-290.22"/>
</g>
<!-- Node5 -->
<g id="node5" class="node">
<title>Node5</title>
<g id="a_node5"><a xlink:href="../../db/d9e/_solid_mechanics_application_2custom__python_2add__custom__constitutive__laws__to__python_8cpp.html" target="_top" xlink:title=" ">
<polygon fill="none" stroke="black" points="105,-100.5 105,-163.5 314,-163.5 314,-100.5 105,-100.5"/>
<text text-anchor="start" x="113" y="-151.5" font-family="Helvetica,sans-Serif" font-size="10.00">/home/runner/work/Documentation</text>
<text text-anchor="start" x="113" y="-140.5" font-family="Helvetica,sans-Serif" font-size="10.00">/Documentation/master/applications</text>
<text text-anchor="start" x="113" y="-129.5" font-family="Helvetica,sans-Serif" font-size="10.00">/SolidMechanicsApplication/custom</text>
<text text-anchor="start" x="113" y="-118.5" font-family="Helvetica,sans-Serif" font-size="10.00">_python/add_custom_constitutive_laws</text>
<text text-anchor="middle" x="209.5" y="-107.5" font-family="Helvetica,sans-Serif" font-size="10.00">_to_python.cpp</text>
</a>
</g>
</g>
<!-- Node1&#45;&gt;Node5 -->
<g id="edge14" class="edge">
<title>Node1&#45;&gt;Node5</title>
<path fill="none" stroke="midnightblue" d="M316.71,-295.62C301.53,-286.98 286.48,-276.44 274.5,-264 259.75,-248.68 236.48,-197.33 222.15,-163.65"/>
<polygon fill="midnightblue" stroke="midnightblue" points="315.18,-298.78 325.63,-300.5 318.53,-292.63 315.18,-298.78"/>
</g>
<!-- Node6 -->
<g id="node6" class="node">
<title>Node6</title>
<g id="a_node6"><a xlink:href="../../d4/d0a/solid__mechanics__application_8h.html" target="_top" xlink:title=" ">
<polygon fill="none" stroke="black" points="558.5,-106 558.5,-158 752.5,-158 752.5,-106 558.5,-106"/>
<text text-anchor="start" x="566.5" y="-146" font-family="Helvetica,sans-Serif" font-size="10.00">/home/runner/work/Documentation</text>
<text text-anchor="start" x="566.5" y="-135" font-family="Helvetica,sans-Serif" font-size="10.00">/Documentation/master/applications</text>
<text text-anchor="start" x="566.5" y="-124" font-family="Helvetica,sans-Serif" font-size="10.00">/SolidMechanicsApplication/solid</text>
<text text-anchor="middle" x="655.5" y="-113" font-family="Helvetica,sans-Serif" font-size="10.00">_mechanics_application.h</text>
</a>
</g>
</g>
<!-- Node1&#45;&gt;Node6 -->
<g id="edge15" class="edge">
<title>Node1&#45;&gt;Node6</title>
<path fill="none" stroke="midnightblue" d="M511.9,-318.6C594.4,-311.13 692.15,-295.69 718.5,-264 736.68,-242.13 728.98,-226.44 718.5,-200 712.15,-183.97 699.94,-169.54 687.95,-158.21"/>
<polygon fill="midnightblue" stroke="midnightblue" points="511.57,-315.12 501.92,-319.48 512.18,-322.09 511.57,-315.12"/>
</g>
<!-- Node11 -->
<g id="node11" class="node">
<title>Node11</title>
<g id="a_node11"><a xlink:href="../../de/d4c/hyperelastic___u___p__plane__strain__2_d__law_8hpp.html" target="_top" xlink:title=" ">
<polygon fill="none" stroke="black" points="510,-200.5 510,-263.5 709,-263.5 709,-200.5 510,-200.5"/>
<text text-anchor="start" x="518" y="-251.5" font-family="Helvetica,sans-Serif" font-size="10.00">/home/runner/work/Documentation</text>
<text text-anchor="start" x="518" y="-240.5" font-family="Helvetica,sans-Serif" font-size="10.00">/Documentation/master/applications</text>
<text text-anchor="start" x="518" y="-229.5" font-family="Helvetica,sans-Serif" font-size="10.00">/SolidMechanicsApplication/custom</text>
<text text-anchor="start" x="518" y="-218.5" font-family="Helvetica,sans-Serif" font-size="10.00">_constitutive/hyperelastic_U_P_plane</text>
<text text-anchor="middle" x="609.5" y="-207.5" font-family="Helvetica,sans-Serif" font-size="10.00">_strain_2D_law.hpp</text>
</a>
</g>
</g>
<!-- Node1&#45;&gt;Node11 -->
<g id="edge10" class="edge">
<title>Node1&#45;&gt;Node11</title>
<path fill="none" stroke="midnightblue" d="M457.02,-296.54C482.1,-286.08 510.49,-274.26 535.91,-263.66"/>
<polygon fill="midnightblue" stroke="midnightblue" points="455.46,-293.39 447.58,-300.47 458.15,-299.85 455.46,-293.39"/>
</g>
<!-- Node4 -->
<g id="node4" class="node">
<title>Node4</title>
<g id="a_node4"><a xlink:href="../../de/dea/hyperelastic___u___p__axisym__2_d__law_8cpp.html" target="_top" xlink:title=" ">
<polygon fill="none" stroke="black" points="332.5,-100.5 332.5,-163.5 540.5,-163.5 540.5,-100.5 332.5,-100.5"/>
<text text-anchor="start" x="340.5" y="-151.5" font-family="Helvetica,sans-Serif" font-size="10.00">/home/runner/work/Documentation</text>
<text text-anchor="start" x="340.5" y="-140.5" font-family="Helvetica,sans-Serif" font-size="10.00">/Documentation/master/applications</text>
<text text-anchor="start" x="340.5" y="-129.5" font-family="Helvetica,sans-Serif" font-size="10.00">/SolidMechanicsApplication/custom</text>
<text text-anchor="start" x="340.5" y="-118.5" font-family="Helvetica,sans-Serif" font-size="10.00">_constitutive/hyperelastic_U_P_axisym</text>
<text text-anchor="middle" x="436.5" y="-107.5" font-family="Helvetica,sans-Serif" font-size="10.00">_2D_law.cpp</text>
</a>
</g>
</g>
<!-- Node3&#45;&gt;Node4 -->
<g id="edge3" class="edge">
<title>Node3&#45;&gt;Node4</title>
<path fill="none" stroke="midnightblue" d="M407.37,-191.25C411.98,-182.04 416.81,-172.38 421.19,-163.63"/>
<polygon fill="midnightblue" stroke="midnightblue" points="404.21,-189.75 402.87,-200.26 410.47,-192.88 404.21,-189.75"/>
</g>
<!-- Node3&#45;&gt;Node5 -->
<g id="edge4" class="edge">
<title>Node3&#45;&gt;Node5</title>
<path fill="none" stroke="midnightblue" d="M322.82,-195.39C303.92,-184.98 283.43,-173.7 265.13,-163.63"/>
<polygon fill="midnightblue" stroke="midnightblue" points="321.22,-198.5 331.67,-200.26 324.6,-192.37 321.22,-198.5"/>
</g>
<!-- Node3&#45;&gt;Node6 -->
<g id="edge5" class="edge">
<title>Node3&#45;&gt;Node6</title>
<path fill="none" stroke="midnightblue" d="M480.9,-196.85C515.73,-184.11 554.6,-169.9 586.8,-158.12"/>
<polygon fill="midnightblue" stroke="midnightblue" points="479.38,-193.67 471.19,-200.4 481.79,-200.25 479.38,-193.67"/>
</g>
<!-- Node7 -->
<g id="node7" class="node">
<title>Node7</title>
<g id="a_node7"><a xlink:href="../../dc/d5a/_solid_mechanics_application_2custom__elements_2shell__elements_2shell__thick__element__3_d4_n_8cpp.html" target="_top" xlink:title=" ">
<polygon fill="none" stroke="black" points="233.5,-0.5 233.5,-63.5 433.5,-63.5 433.5,-0.5 233.5,-0.5"/>
<text text-anchor="start" x="241.5" y="-51.5" font-family="Helvetica,sans-Serif" font-size="10.00">/home/runner/work/Documentation</text>
<text text-anchor="start" x="241.5" y="-40.5" font-family="Helvetica,sans-Serif" font-size="10.00">/Documentation/master/applications</text>
<text text-anchor="start" x="241.5" y="-29.5" font-family="Helvetica,sans-Serif" font-size="10.00">/SolidMechanicsApplication/custom</text>
<text text-anchor="start" x="241.5" y="-18.5" font-family="Helvetica,sans-Serif" font-size="10.00">_elements/shell_elements/shell_thick</text>
<text text-anchor="middle" x="333.5" y="-7.5" font-family="Helvetica,sans-Serif" font-size="10.00">_element_3D4N.cpp</text>
</a>
</g>
</g>
<!-- Node6&#45;&gt;Node7 -->
<g id="edge6" class="edge">
<title>Node6&#45;&gt;Node7</title>
<path fill="none" stroke="midnightblue" d="M563.38,-102.96C522.81,-90.62 475.05,-76.08 433.6,-63.47"/>
<polygon fill="midnightblue" stroke="midnightblue" points="562.41,-106.33 573,-105.89 564.45,-99.63 562.41,-106.33"/>
</g>
<!-- Node8 -->
<g id="node8" class="node">
<title>Node8</title>
<g id="a_node8"><a xlink:href="../../da/d5c/_solid_mechanics_application_2custom__elements_2shell__elements_2shell__thin__element__3_d3_n_8cpp.html" target="_top" xlink:title=" ">
<polygon fill="none" stroke="black" points="452,-0.5 452,-63.5 647,-63.5 647,-0.5 452,-0.5"/>
<text text-anchor="start" x="460" y="-51.5" font-family="Helvetica,sans-Serif" font-size="10.00">/home/runner/work/Documentation</text>
<text text-anchor="start" x="460" y="-40.5" font-family="Helvetica,sans-Serif" font-size="10.00">/Documentation/master/applications</text>
<text text-anchor="start" x="460" y="-29.5" font-family="Helvetica,sans-Serif" font-size="10.00">/SolidMechanicsApplication/custom</text>
<text text-anchor="start" x="460" y="-18.5" font-family="Helvetica,sans-Serif" font-size="10.00">_elements/shell_elements/shell_thin</text>
<text text-anchor="middle" x="549.5" y="-7.5" font-family="Helvetica,sans-Serif" font-size="10.00">_element_3D3N.cpp</text>
</a>
</g>
</g>
<!-- Node6&#45;&gt;Node8 -->
<g id="edge7" class="edge">
<title>Node6&#45;&gt;Node8</title>
<path fill="none" stroke="midnightblue" d="M620.81,-98.93C608.58,-87.62 594.87,-74.94 582.76,-63.75"/>
<polygon fill="midnightblue" stroke="midnightblue" points="618.48,-101.54 628.2,-105.76 623.24,-96.4 618.48,-101.54"/>
</g>
<!-- Node9 -->
<g id="node9" class="node">
<title>Node9</title>
<g id="a_node9"><a xlink:href="../../da/d03/_solid_mechanics_application_2custom__utilities_2shell__cross__section_8cpp.html" target="_top" xlink:title=" ">
<polygon fill="none" stroke="black" points="664.5,-6 664.5,-58 858.5,-58 858.5,-6 664.5,-6"/>
<text text-anchor="start" x="672.5" y="-46" font-family="Helvetica,sans-Serif" font-size="10.00">/home/runner/work/Documentation</text>
<text text-anchor="start" x="672.5" y="-35" font-family="Helvetica,sans-Serif" font-size="10.00">/Documentation/master/applications</text>
<text text-anchor="start" x="672.5" y="-24" font-family="Helvetica,sans-Serif" font-size="10.00">/SolidMechanicsApplication/custom</text>
<text text-anchor="middle" x="761.5" y="-13" font-family="Helvetica,sans-Serif" font-size="10.00">_utilities/shell_cross_section.cpp</text>
</a>
</g>
</g>
<!-- Node6&#45;&gt;Node9 -->
<g id="edge8" class="edge">
<title>Node6&#45;&gt;Node9</title>
<path fill="none" stroke="midnightblue" d="M690.48,-98.66C704.73,-85.48 720.95,-70.49 734.29,-58.15"/>
<polygon fill="midnightblue" stroke="midnightblue" points="687.76,-96.4 682.8,-105.76 692.52,-101.54 687.76,-96.4"/>
</g>
<!-- Node10 -->
<g id="node10" class="node">
<title>Node10</title>
<g id="a_node10"><a xlink:href="../../d2/d54/solid__mechanics__application_8cpp.html" target="_top" xlink:title=" ">
<polygon fill="none" stroke="black" points="876.5,-6 876.5,-58 1070.5,-58 1070.5,-6 876.5,-6"/>
<text text-anchor="start" x="884.5" y="-46" font-family="Helvetica,sans-Serif" font-size="10.00">/home/runner/work/Documentation</text>
<text text-anchor="start" x="884.5" y="-35" font-family="Helvetica,sans-Serif" font-size="10.00">/Documentation/master/applications</text>
<text text-anchor="start" x="884.5" y="-24" font-family="Helvetica,sans-Serif" font-size="10.00">/SolidMechanicsApplication/solid</text>
<text text-anchor="middle" x="973.5" y="-13" font-family="Helvetica,sans-Serif" font-size="10.00">_mechanics_application.cpp</text>
</a>
</g>
</g>
<!-- Node6&#45;&gt;Node10 -->
<g id="edge9" class="edge">
<title>Node6&#45;&gt;Node10</title>
<path fill="none" stroke="midnightblue" d="M746.63,-102.92C792.55,-88.76 847.77,-71.75 892.23,-58.04"/>
<polygon fill="midnightblue" stroke="midnightblue" points="745.51,-99.6 736.98,-105.89 747.57,-106.29 745.51,-99.6"/>
</g>
<!-- Node11&#45;&gt;Node5 -->
<g id="edge12" class="edge">
<title>Node11&#45;&gt;Node5</title>
<path fill="none" stroke="midnightblue" d="M499.86,-199.92C420.78,-181.1 398.56,-181.82 323.5,-164 320.41,-163.27 317.27,-162.51 314.11,-161.73"/>
<polygon fill="midnightblue" stroke="midnightblue" points="499.25,-203.37 509.79,-202.31 500.89,-196.57 499.25,-203.37"/>
</g>
<!-- Node11&#45;&gt;Node6 -->
<g id="edge13" class="edge">
<title>Node11&#45;&gt;Node6</title>
<path fill="none" stroke="midnightblue" d="M628.24,-191.09C633.48,-179.92 639.03,-168.1 643.74,-158.05"/>
<polygon fill="midnightblue" stroke="midnightblue" points="625.01,-189.72 623.93,-200.26 631.35,-192.7 625.01,-189.72"/>
</g>
<!-- Node12 -->
<g id="node12" class="node">
<title>Node12</title>
<g id="a_node12"><a xlink:href="../../db/d11/hyperelastic___u___p__plane__strain__2_d__law_8cpp.html" target="_top" xlink:title=" ">
<polygon fill="none" stroke="black" points="771,-100.5 771,-163.5 970,-163.5 970,-100.5 771,-100.5"/>
<text text-anchor="start" x="779" y="-151.5" font-family="Helvetica,sans-Serif" font-size="10.00">/home/runner/work/Documentation</text>
<text text-anchor="start" x="779" y="-140.5" font-family="Helvetica,sans-Serif" font-size="10.00">/Documentation/master/applications</text>
<text text-anchor="start" x="779" y="-129.5" font-family="Helvetica,sans-Serif" font-size="10.00">/SolidMechanicsApplication/custom</text>
<text text-anchor="start" x="779" y="-118.5" font-family="Helvetica,sans-Serif" font-size="10.00">_constitutive/hyperelastic_U_P_plane</text>
<text text-anchor="middle" x="870.5" y="-107.5" font-family="Helvetica,sans-Serif" font-size="10.00">_strain_2D_law.cpp</text>
</a>
</g>
</g>
<!-- Node11&#45;&gt;Node12 -->
<g id="edge11" class="edge">
<title>Node11&#45;&gt;Node12</title>
<path fill="none" stroke="midnightblue" d="M700.66,-196.77C729.46,-185.96 761.09,-174.08 789.16,-163.54"/>
<polygon fill="midnightblue" stroke="midnightblue" points="699.14,-193.6 691.01,-200.4 701.6,-200.16 699.14,-193.6"/>
</g>
</g>
</svg>
        <g id="navigator" transform="translate(0 0)" fill="#404254">
                <rect fill="#f2f5e9" fill-opacity="0.5" stroke="#606060" stroke-width=".5" x="0" y="0" width="60" height="60"/>
                <use id="zoomplus" xlink:href="#zoomPlus" x="17" y="9" onmousedown="handleZoom(evt,'in')"/>
                <use id="zoomminus" xlink:href="#zoomMin" x="42" y="9" onmousedown="handleZoom(evt,'out')"/>
                <use id="reset" xlink:href="#resetDef" x="30" y="36" onmousedown="handleReset()"/>
                <g id="arrowUp" xlink:href="#dirArrow" transform="translate(30 24)" onmousedown="handlePan(0,-1)">
                  <use xlink:href="#rim" fill="#404040">
                        <set attributeName="fill" to="#808080" begin="arrowUp.mouseover" end="arrowUp.mouseout"/>
                  </use>
                  <path fill="none" stroke="white" stroke-width="1.5" d="M0,-3.0v7 M-2.5,-0.5L0,-3.0L2.5,-0.5"/>
                </g>
                <g id="arrowRight" xlink:href="#dirArrow" transform="rotate(90) translate(36 -43)" onmousedown="handlePan(1,0)">
                  <use xlink:href="#rim" fill="#404040">
                        <set attributeName="fill" to="#808080" begin="arrowRight.mouseover" end="arrowRight.mouseout"/>
                  </use>
                  <path fill="none" stroke="white" stroke-width="1.5" d="M0,-3.0v7 M-2.5,-0.5L0,-3.0L2.5,-0.5"/>
                </g>
                <g id="arrowDown" xlink:href="#dirArrow" transform="rotate(180) translate(-30 -48)" onmousedown="handlePan(0,1)">
                  <use xlink:href="#rim" fill="#404040">
                        <set attributeName="fill" to="#808080" begin="arrowDown.mouseover" end="arrowDown.mouseout"/>
                  </use>
                  <path fill="none" stroke="white" stroke-width="1.5" d="M0,-3.0v7 M-2.5,-0.5L0,-3.0L2.5,-0.5"/>
                </g>
                <g id="arrowLeft" xlink:href="#dirArrow" transform="rotate(270) translate(-36 17)" onmousedown="handlePan(-1,0)">
                  <use xlink:href="#rim" fill="#404040">
                        <set attributeName="fill" to="#808080" begin="arrowLeft.mouseover" end="arrowLeft.mouseout"/>
                  </use>
                  <path fill="none" stroke="white" stroke-width="1.5" d="M0,-3.0v7 M-2.5,-0.5L0,-3.0L2.5,-0.5"/>
                </g>
        </g>
        <svg viewBox="0 0 15 15" width="100%" height="30px" preserveAspectRatio="xMaxYMin meet">
         <g id="arrow_out" transform="scale(0.3 0.3)">
          <a xlink:href="hyperelastic___u___p__3_d__law_8hpp__dep__incl_org.svg" target="_base">
           <rect id="button" ry="5" rx="5" y="6" x="6" height="38" width="38"
                fill="#f2f5e9" fill-opacity="0.5" stroke="#606060" stroke-width="1.0"/>
           <path id="arrow"
             d="M 11.500037,31.436501 C 11.940474,20.09759 22.043105,11.32322 32.158766,21.979434 L 37.068811,17.246167 C 37.068811,17.246167 37.088388,32 37.088388,32 L 22.160133,31.978069 C 22.160133,31.978069 26.997745,27.140456 26.997745,27.140456 C 18.528582,18.264221 13.291696,25.230495 11.500037,31.436501 z"
             style="fill:#404040;"/>
          </a>
         </g>
        </svg>
</svg>
