<?xml version="1.0" encoding="UTF-8" standalone="no"?>
<!DOCTYPE svg PUBLIC "-//W3C//DTD SVG 1.1//EN"
 "http://www.w3.org/Graphics/SVG/1.1/DTD/svg11.dtd">
<!-- Generated by graphviz version 2.43.0 (0)
 -->
<!-- Title: /home/runner/work/Documentation/Documentation/master/applications/ConstitutiveModelsApplication/custom_models/elasticity_models/hypo_elastic_model.hpp Pages: 1 -->
<svg width="540pt" height="461pt"
 viewBox="0.00 0.00 540.00 461.00" xmlns="http://www.w3.org/2000/svg" xmlns:xlink="http://www.w3.org/1999/xlink">
<g id="graph0" class="graph" transform="scale(1 1) rotate(0) translate(4 457)">
<title>/home/runner/work/Documentation/Documentation/master/applications/ConstitutiveModelsApplication/custom_models/elasticity_models/hypo_elastic_model.hpp</title>
<!-- Node1 -->
<g id="node1" class="node">
<title>Node1</title>
<g id="a_node1"><a xlink:title=" ">
<polygon fill="#bfbfbf" stroke="black" points="106,-389.5 106,-452.5 300,-452.5 300,-389.5 106,-389.5"/>
<text text-anchor="start" x="114" y="-440.5" font-family="Helvetica,sans-Serif" font-size="10.00">/home/runner/work/Documentation</text>
<text text-anchor="start" x="114" y="-429.5" font-family="Helvetica,sans-Serif" font-size="10.00">/Documentation/master/applications</text>
<text text-anchor="start" x="114" y="-418.5" font-family="Helvetica,sans-Serif" font-size="10.00">/ConstitutiveModelsApplication</text>
<text text-anchor="start" x="114" y="-407.5" font-family="Helvetica,sans-Serif" font-size="10.00">/custom_models/elasticity_models</text>
<text text-anchor="middle" x="203" y="-396.5" font-family="Helvetica,sans-Serif" font-size="10.00">/hypo_elastic_model.hpp</text>
</a>
</g>
</g>
<!-- Node2 -->
<g id="node2" class="node">
<title>Node2</title>
<g id="a_node2"><a xlink:href="../../d6/d70/hypo__elastic__model_8cpp.html" target="_top" xlink:title=" ">
<polygon fill="none" stroke="black" points="0,-289.5 0,-352.5 194,-352.5 194,-289.5 0,-289.5"/>
<text text-anchor="start" x="8" y="-340.5" font-family="Helvetica,sans-Serif" font-size="10.00">/home/runner/work/Documentation</text>
<text text-anchor="start" x="8" y="-329.5" font-family="Helvetica,sans-Serif" font-size="10.00">/Documentation/master/applications</text>
<text text-anchor="start" x="8" y="-318.5" font-family="Helvetica,sans-Serif" font-size="10.00">/ConstitutiveModelsApplication</text>
<text text-anchor="start" x="8" y="-307.5" font-family="Helvetica,sans-Serif" font-size="10.00">/custom_models/elasticity_models</text>
<text text-anchor="middle" x="97" y="-296.5" font-family="Helvetica,sans-Serif" font-size="10.00">/hypo_elastic_model.cpp</text>
</a>
</g>
</g>
<!-- Node1&#45;&gt;Node2 -->
<g id="edge1" class="edge">
<title>Node1&#45;&gt;Node2</title>
<path fill="none" stroke="midnightblue" d="M162.18,-382.26C151.57,-372.46 140.28,-362.02 130.13,-352.63"/>
<polygon fill="midnightblue" stroke="midnightblue" points="160.03,-385.04 169.75,-389.26 164.79,-379.9 160.03,-385.04"/>
</g>
<!-- Node3 -->
<g id="node3" class="node">
<title>Node3</title>
<g id="a_node3"><a xlink:href="../../d2/d45/isochoric__hypo__elastic__model_8hpp.html" target="_top" xlink:title=" ">
<polygon fill="none" stroke="black" points="212,-289.5 212,-352.5 406,-352.5 406,-289.5 212,-289.5"/>
<text text-anchor="start" x="220" y="-340.5" font-family="Helvetica,sans-Serif" font-size="10.00">/home/runner/work/Documentation</text>
<text text-anchor="start" x="220" y="-329.5" font-family="Helvetica,sans-Serif" font-size="10.00">/Documentation/master/applications</text>
<text text-anchor="start" x="220" y="-318.5" font-family="Helvetica,sans-Serif" font-size="10.00">/ConstitutiveModelsApplication</text>
<text text-anchor="start" x="220" y="-307.5" font-family="Helvetica,sans-Serif" font-size="10.00">/custom_models/elasticity_models</text>
<text text-anchor="middle" x="309" y="-296.5" font-family="Helvetica,sans-Serif" font-size="10.00">/isochoric_hypo_elastic_model.hpp</text>
</a>
</g>
</g>
<!-- Node1&#45;&gt;Node3 -->
<g id="edge2" class="edge">
<title>Node1&#45;&gt;Node3</title>
<path fill="none" stroke="midnightblue" d="M243.82,-382.26C254.43,-372.46 265.72,-362.02 275.87,-352.63"/>
<polygon fill="midnightblue" stroke="midnightblue" points="241.21,-379.9 236.25,-389.26 245.97,-385.04 241.21,-379.9"/>
</g>
<!-- Node4 -->
<g id="node4" class="node">
<title>Node4</title>
<g id="a_node4"><a xlink:href="../../d5/db4/incompressible__hypo__elastic__model_8hpp.html" target="_top" xlink:title=" ">
<polygon fill="none" stroke="black" points="200,-189.5 200,-252.5 418,-252.5 418,-189.5 200,-189.5"/>
<text text-anchor="start" x="208" y="-240.5" font-family="Helvetica,sans-Serif" font-size="10.00">/home/runner/work/Documentation</text>
<text text-anchor="start" x="208" y="-229.5" font-family="Helvetica,sans-Serif" font-size="10.00">/Documentation/master/applications</text>
<text text-anchor="start" x="208" y="-218.5" font-family="Helvetica,sans-Serif" font-size="10.00">/ConstitutiveModelsApplication</text>
<text text-anchor="start" x="208" y="-207.5" font-family="Helvetica,sans-Serif" font-size="10.00">/custom_models/elasticity_models</text>
<text text-anchor="middle" x="309" y="-196.5" font-family="Helvetica,sans-Serif" font-size="10.00">/incompressible_hypo_elastic_model.hpp</text>
</a>
</g>
</g>
<!-- Node3&#45;&gt;Node4 -->
<g id="edge3" class="edge">
<title>Node3&#45;&gt;Node4</title>
<path fill="none" stroke="midnightblue" d="M309,-279.1C309,-270.24 309,-261.01 309,-252.63"/>
<polygon fill="midnightblue" stroke="midnightblue" points="305.5,-279.26 309,-289.26 312.5,-279.26 305.5,-279.26"/>
</g>
<!-- Node5 -->
<g id="node5" class="node">
<title>Node5</title>
<g id="a_node5"><a xlink:href="../../d4/d36/constitutive__models__application_8h.html" target="_top" xlink:title=" ">
<polygon fill="none" stroke="black" points="100,-95 100,-147 294,-147 294,-95 100,-95"/>
<text text-anchor="start" x="108" y="-135" font-family="Helvetica,sans-Serif" font-size="10.00">/home/runner/work/Documentation</text>
<text text-anchor="start" x="108" y="-124" font-family="Helvetica,sans-Serif" font-size="10.00">/Documentation/master/applications</text>
<text text-anchor="start" x="108" y="-113" font-family="Helvetica,sans-Serif" font-size="10.00">/ConstitutiveModelsApplication</text>
<text text-anchor="middle" x="197" y="-102" font-family="Helvetica,sans-Serif" font-size="10.00">/constitutive_models_application.h</text>
</a>
</g>
</g>
<!-- Node4&#45;&gt;Node5 -->
<g id="edge4" class="edge">
<title>Node4&#45;&gt;Node5</title>
<path fill="none" stroke="midnightblue" d="M266.05,-182.42C252.52,-170.58 237.91,-157.8 225.63,-147.05"/>
<polygon fill="midnightblue" stroke="midnightblue" points="264.04,-185.31 273.87,-189.26 268.65,-180.04 264.04,-185.31"/>
</g>
<!-- Node7 -->
<g id="node7" class="node">
<title>Node7</title>
<g id="a_node7"><a xlink:href="../../df/dfa/_constitutive_models_application_2custom__python_2add__custom__constitutive__laws__to__python_8cpp.html" target="_top" xlink:title=" ">
<polygon fill="none" stroke="black" points="312,-89.5 312,-152.5 532,-152.5 532,-89.5 312,-89.5"/>
<text text-anchor="start" x="320" y="-140.5" font-family="Helvetica,sans-Serif" font-size="10.00">/home/runner/work/Documentation</text>
<text text-anchor="start" x="320" y="-129.5" font-family="Helvetica,sans-Serif" font-size="10.00">/Documentation/master/applications</text>
<text text-anchor="start" x="320" y="-118.5" font-family="Helvetica,sans-Serif" font-size="10.00">/ConstitutiveModelsApplication</text>
<text text-anchor="start" x="320" y="-107.5" font-family="Helvetica,sans-Serif" font-size="10.00">/custom_python/add_custom_constitutive</text>
<text text-anchor="middle" x="422" y="-96.5" font-family="Helvetica,sans-Serif" font-size="10.00">_laws_to_python.cpp</text>
</a>
</g>
</g>
<!-- Node4&#45;&gt;Node7 -->
<g id="edge6" class="edge">
<title>Node4&#45;&gt;Node7</title>
<path fill="none" stroke="midnightblue" d="M352.19,-182.54C363.59,-172.66 375.75,-162.11 386.68,-152.63"/>
<polygon fill="midnightblue" stroke="midnightblue" points="349.71,-180.07 344.44,-189.26 354.29,-185.35 349.71,-180.07"/>
</g>
<!-- Node6 -->
<g id="node6" class="node">
<title>Node6</title>
<g id="a_node6"><a xlink:href="../../d0/dce/constitutive__models__application_8cpp.html" target="_top" xlink:title=" ">
<polygon fill="none" stroke="black" points="98,-0.5 98,-52.5 296,-52.5 296,-0.5 98,-0.5"/>
<text text-anchor="start" x="106" y="-40.5" font-family="Helvetica,sans-Serif" font-size="10.00">/home/runner/work/Documentation</text>
<text text-anchor="start" x="106" y="-29.5" font-family="Helvetica,sans-Serif" font-size="10.00">/Documentation/master/applications</text>
<text text-anchor="start" x="106" y="-18.5" font-family="Helvetica,sans-Serif" font-size="10.00">/ConstitutiveModelsApplication</text>
<text text-anchor="middle" x="197" y="-7.5" font-family="Helvetica,sans-Serif" font-size="10.00">/constitutive_models_application.cpp</text>
</a>
</g>
</g>
<!-- Node5&#45;&gt;Node6 -->
<g id="edge5" class="edge">
<title>Node5&#45;&gt;Node6</title>
<path fill="none" stroke="midnightblue" d="M197,-84.49C197,-73.91 197,-62.53 197,-52.75"/>
<polygon fill="midnightblue" stroke="midnightblue" points="193.5,-84.72 197,-94.72 200.5,-84.72 193.5,-84.72"/>
</g>
</g>
</svg>
