<?xml version="1.0" encoding="UTF-8" standalone="no"?>
<!DOCTYPE svg PUBLIC "-//W3C//DTD SVG 1.1//EN"
 "http://www.w3.org/Graphics/SVG/1.1/DTD/svg11.dtd">
<!-- Generated by graphviz version 2.43.0 (0)
 -->
<!-- Title: /home/runner/work/Documentation/Documentation/master/applications/PfemSolidMechanicsApplication/custom_elements/updated_lagrangian_U_W_wP_element.hpp Pages: 1 -->
<!--zoomable 361 -->
<svg id="main" version="1.1" xmlns="http://www.w3.org/2000/svg" xmlns:xlink="http://www.w3.org/1999/xlink" xml:space="preserve" onload="init(evt)">
<style type="text/css"><![CDATA[
.edge:hover path { stroke: red; }
.edge:hover polygon { stroke: red; fill: red; }
]]></style>
<script type="text/javascript"><![CDATA[
var edges = document.getElementsByTagName('g');
if (edges && edges.length) {
  for (var i=0;i<edges.length;i++) {
    if (edges[i].id.substr(0,4)=='edge') {
      edges[i].setAttribute('class','edge');
    }
  }
}
]]></script>
        <defs>
                <circle id="rim" cx="0" cy="0" r="7"/>
                <circle id="rim2" cx="0" cy="0" r="3.5"/>
                <g id="zoomPlus">
                        <use xlink:href="#rim" fill="#404040">
                                <set attributeName="fill" to="#808080" begin="zoomplus.mouseover" end="zoomplus.mouseout"/>
                        </use>
                        <path d="M-4,0h8M0,-4v8" fill="none" stroke="white" stroke-width="1.5" pointer-events="none"/>
                </g>
                <g id="zoomMin">
                        <use xlink:href="#rim" fill="#404040">
                                <set attributeName="fill" to="#808080" begin="zoomminus.mouseover" end="zoomminus.mouseout"/>
                        </use>
                        <path d="M-4,0h8" fill="none" stroke="white" stroke-width="1.5" pointer-events="none"/>
                </g>
                <g id="dirArrow">
                        <path fill="none" stroke="white" stroke-width="1.5" d="M0,-3.0v7 M-2.5,-0.5L0,-3.0L2.5,-0.5"/>
                </g>
               <g id="resetDef">
                       <use xlink:href="#rim2" fill="#404040">
                               <set attributeName="fill" to="#808080" begin="reset.mouseover" end="reset.mouseout"/>
                       </use>
               </g>
        </defs>

<script type="text/javascript">
var viewWidth = 566;
var viewHeight = 361;
var sectionId = 'dynsection-1';
</script>
<script xlink:href="../../svgpan.js"/>
<svg id="graph" class="graph">
<g id="viewport">
<title>/home/runner/work/Documentation/Documentation/master/applications/PfemSolidMechanicsApplication/custom_elements/updated_lagrangian_U_W_wP_element.hpp</title>
<!-- Node1 -->
<g id="node1" class="node">
<title>Node1</title>
<g id="a_node1"><a xlink:title=" ">
<polygon fill="#bfbfbf" stroke="black" points="221,-289.5 221,-352.5 427,-352.5 427,-289.5 221,-289.5"/>
<text text-anchor="start" x="229" y="-340.5" font-family="Helvetica,sans-Serif" font-size="10.00">/home/runner/work/Documentation</text>
<text text-anchor="start" x="229" y="-329.5" font-family="Helvetica,sans-Serif" font-size="10.00">/Documentation/master/applications</text>
<text text-anchor="start" x="229" y="-318.5" font-family="Helvetica,sans-Serif" font-size="10.00">/PfemSolidMechanicsApplication</text>
<text text-anchor="start" x="229" y="-307.5" font-family="Helvetica,sans-Serif" font-size="10.00">/custom_elements/updated_lagrangian</text>
<text text-anchor="middle" x="324" y="-296.5" font-family="Helvetica,sans-Serif" font-size="10.00">_U_W_wP_element.hpp</text>
</a>
</g>
</g>
<!-- Node2 -->
<g id="node2" class="node">
<title>Node2</title>
<g id="a_node2"><a xlink:href="../../d6/de9/updated__lagrangian___u___w__w_p___d_m_e__element_8hpp.html" target="_top" xlink:title=" ">
<polygon fill="none" stroke="black" points="90,-189.5 90,-252.5 296,-252.5 296,-189.5 90,-189.5"/>
<text text-anchor="start" x="98" y="-240.5" font-family="Helvetica,sans-Serif" font-size="10.00">/home/runner/work/Documentation</text>
<text text-anchor="start" x="98" y="-229.5" font-family="Helvetica,sans-Serif" font-size="10.00">/Documentation/master/applications</text>
<text text-anchor="start" x="98" y="-218.5" font-family="Helvetica,sans-Serif" font-size="10.00">/PfemSolidMechanicsApplication</text>
<text text-anchor="start" x="98" y="-207.5" font-family="Helvetica,sans-Serif" font-size="10.00">/custom_elements/updated_lagrangian</text>
<text text-anchor="middle" x="193" y="-196.5" font-family="Helvetica,sans-Serif" font-size="10.00">_U_W_wP_DME_element.hpp</text>
</a>
</g>
</g>
<!-- Node1&#45;&gt;Node2 -->
<g id="edge1" class="edge">
<title>Node1&#45;&gt;Node2</title>
<path fill="none" stroke="midnightblue" d="M274.69,-283.11C261.26,-273.06 246.86,-262.29 233.94,-252.63"/>
<polygon fill="midnightblue" stroke="midnightblue" points="272.81,-286.07 282.91,-289.26 277,-280.47 272.81,-286.07"/>
</g>
<!-- Node4 -->
<g id="node4" class="node">
<title>Node4</title>
<g id="a_node4"><a xlink:href="../../d3/d81/pfem__solid__mechanics__application_8h.html" target="_top" xlink:title=" ">
<polygon fill="none" stroke="black" points="224,-95 224,-147 424,-147 424,-95 224,-95"/>
<text text-anchor="start" x="232" y="-135" font-family="Helvetica,sans-Serif" font-size="10.00">/home/runner/work/Documentation</text>
<text text-anchor="start" x="232" y="-124" font-family="Helvetica,sans-Serif" font-size="10.00">/Documentation/master/applications</text>
<text text-anchor="start" x="232" y="-113" font-family="Helvetica,sans-Serif" font-size="10.00">/PfemSolidMechanicsApplication</text>
<text text-anchor="middle" x="324" y="-102" font-family="Helvetica,sans-Serif" font-size="10.00">/pfem_solid_mechanics_application.h</text>
</a>
</g>
</g>
<!-- Node1&#45;&gt;Node4 -->
<g id="edge6" class="edge">
<title>Node1&#45;&gt;Node4</title>
<path fill="none" stroke="midnightblue" d="M324,-279.36C324,-239.67 324,-180.52 324,-147.2"/>
<polygon fill="midnightblue" stroke="midnightblue" points="320.5,-279.5 324,-289.5 327.5,-279.5 320.5,-279.5"/>
</g>
<!-- Node6 -->
<g id="node6" class="node">
<title>Node6</title>
<g id="a_node6"><a xlink:href="../../de/dce/updated__lagrangian___u___w__w_p__element_8cpp.html" target="_top" xlink:title=" ">
<polygon fill="none" stroke="black" points="352,-189.5 352,-252.5 558,-252.5 558,-189.5 352,-189.5"/>
<text text-anchor="start" x="360" y="-240.5" font-family="Helvetica,sans-Serif" font-size="10.00">/home/runner/work/Documentation</text>
<text text-anchor="start" x="360" y="-229.5" font-family="Helvetica,sans-Serif" font-size="10.00">/Documentation/master/applications</text>
<text text-anchor="start" x="360" y="-218.5" font-family="Helvetica,sans-Serif" font-size="10.00">/PfemSolidMechanicsApplication</text>
<text text-anchor="start" x="360" y="-207.5" font-family="Helvetica,sans-Serif" font-size="10.00">/custom_elements/updated_lagrangian</text>
<text text-anchor="middle" x="455" y="-196.5" font-family="Helvetica,sans-Serif" font-size="10.00">_U_W_wP_element.cpp</text>
</a>
</g>
</g>
<!-- Node1&#45;&gt;Node6 -->
<g id="edge5" class="edge">
<title>Node1&#45;&gt;Node6</title>
<path fill="none" stroke="midnightblue" d="M373.31,-283.11C386.74,-273.06 401.14,-262.29 414.06,-252.63"/>
<polygon fill="midnightblue" stroke="midnightblue" points="371,-280.47 365.09,-289.26 375.19,-286.07 371,-280.47"/>
</g>
<!-- Node3 -->
<g id="node3" class="node">
<title>Node3</title>
<g id="a_node3"><a xlink:href="../../dd/d49/updated__lagrangian___u___w__w_p___d_m_e__element_8cpp.html" target="_top" xlink:title=" ">
<polygon fill="none" stroke="black" points="0,-89.5 0,-152.5 206,-152.5 206,-89.5 0,-89.5"/>
<text text-anchor="start" x="8" y="-140.5" font-family="Helvetica,sans-Serif" font-size="10.00">/home/runner/work/Documentation</text>
<text text-anchor="start" x="8" y="-129.5" font-family="Helvetica,sans-Serif" font-size="10.00">/Documentation/master/applications</text>
<text text-anchor="start" x="8" y="-118.5" font-family="Helvetica,sans-Serif" font-size="10.00">/PfemSolidMechanicsApplication</text>
<text text-anchor="start" x="8" y="-107.5" font-family="Helvetica,sans-Serif" font-size="10.00">/custom_elements/updated_lagrangian</text>
<text text-anchor="middle" x="103" y="-96.5" font-family="Helvetica,sans-Serif" font-size="10.00">_U_W_wP_DME_element.cpp</text>
</a>
</g>
</g>
<!-- Node2&#45;&gt;Node3 -->
<g id="edge2" class="edge">
<title>Node2&#45;&gt;Node3</title>
<path fill="none" stroke="midnightblue" d="M157.82,-181.69C148.97,-172.05 139.58,-161.83 131.13,-152.63"/>
<polygon fill="midnightblue" stroke="midnightblue" points="155.43,-184.26 164.77,-189.26 160.58,-179.53 155.43,-184.26"/>
</g>
<!-- Node2&#45;&gt;Node4 -->
<g id="edge3" class="edge">
<title>Node2&#45;&gt;Node4</title>
<path fill="none" stroke="midnightblue" d="M242.35,-183.08C258.42,-171.06 275.88,-158 290.51,-147.05"/>
<polygon fill="midnightblue" stroke="midnightblue" points="240,-180.47 234.09,-189.26 244.19,-186.07 240,-180.47"/>
</g>
<!-- Node5 -->
<g id="node5" class="node">
<title>Node5</title>
<g id="a_node5"><a xlink:href="../../d4/d5f/pfem__solid__mechanics__application_8cpp.html" target="_top" xlink:title=" ">
<polygon fill="none" stroke="black" points="218.5,-0.5 218.5,-52.5 429.5,-52.5 429.5,-0.5 218.5,-0.5"/>
<text text-anchor="start" x="226.5" y="-40.5" font-family="Helvetica,sans-Serif" font-size="10.00">/home/runner/work/Documentation</text>
<text text-anchor="start" x="226.5" y="-29.5" font-family="Helvetica,sans-Serif" font-size="10.00">/Documentation/master/applications</text>
<text text-anchor="start" x="226.5" y="-18.5" font-family="Helvetica,sans-Serif" font-size="10.00">/PfemSolidMechanicsApplication</text>
<text text-anchor="middle" x="324" y="-7.5" font-family="Helvetica,sans-Serif" font-size="10.00">/pfem_solid_mechanics_application.cpp</text>
</a>
</g>
</g>
<!-- Node4&#45;&gt;Node5 -->
<g id="edge4" class="edge">
<title>Node4&#45;&gt;Node5</title>
<path fill="none" stroke="midnightblue" d="M324,-84.49C324,-73.91 324,-62.53 324,-52.75"/>
<polygon fill="midnightblue" stroke="midnightblue" points="320.5,-84.72 324,-94.72 327.5,-84.72 320.5,-84.72"/>
</g>
</g>
</svg>
        <g id="navigator" transform="translate(0 0)" fill="#404254">
                <rect fill="#f2f5e9" fill-opacity="0.5" stroke="#606060" stroke-width=".5" x="0" y="0" width="60" height="60"/>
                <use id="zoomplus" xlink:href="#zoomPlus" x="17" y="9" onmousedown="handleZoom(evt,'in')"/>
                <use id="zoomminus" xlink:href="#zoomMin" x="42" y="9" onmousedown="handleZoom(evt,'out')"/>
                <use id="reset" xlink:href="#resetDef" x="30" y="36" onmousedown="handleReset()"/>
                <g id="arrowUp" xlink:href="#dirArrow" transform="translate(30 24)" onmousedown="handlePan(0,-1)">
                  <use xlink:href="#rim" fill="#404040">
                        <set attributeName="fill" to="#808080" begin="arrowUp.mouseover" end="arrowUp.mouseout"/>
                  </use>
                  <path fill="none" stroke="white" stroke-width="1.5" d="M0,-3.0v7 M-2.5,-0.5L0,-3.0L2.5,-0.5"/>
                </g>
                <g id="arrowRight" xlink:href="#dirArrow" transform="rotate(90) translate(36 -43)" onmousedown="handlePan(1,0)">
                  <use xlink:href="#rim" fill="#404040">
                        <set attributeName="fill" to="#808080" begin="arrowRight.mouseover" end="arrowRight.mouseout"/>
                  </use>
                  <path fill="none" stroke="white" stroke-width="1.5" d="M0,-3.0v7 M-2.5,-0.5L0,-3.0L2.5,-0.5"/>
                </g>
                <g id="arrowDown" xlink:href="#dirArrow" transform="rotate(180) translate(-30 -48)" onmousedown="handlePan(0,1)">
                  <use xlink:href="#rim" fill="#404040">
                        <set attributeName="fill" to="#808080" begin="arrowDown.mouseover" end="arrowDown.mouseout"/>
                  </use>
                  <path fill="none" stroke="white" stroke-width="1.5" d="M0,-3.0v7 M-2.5,-0.5L0,-3.0L2.5,-0.5"/>
                </g>
                <g id="arrowLeft" xlink:href="#dirArrow" transform="rotate(270) translate(-36 17)" onmousedown="handlePan(-1,0)">
                  <use xlink:href="#rim" fill="#404040">
                        <set attributeName="fill" to="#808080" begin="arrowLeft.mouseover" end="arrowLeft.mouseout"/>
                  </use>
                  <path fill="none" stroke="white" stroke-width="1.5" d="M0,-3.0v7 M-2.5,-0.5L0,-3.0L2.5,-0.5"/>
                </g>
        </g>
        <svg viewBox="0 0 15 15" width="100%" height="30px" preserveAspectRatio="xMaxYMin meet">
         <g id="arrow_out" transform="scale(0.3 0.3)">
          <a xlink:href="updated__lagrangian___u___w__w_p__element_8hpp__dep__incl_org.svg" target="_base">
           <rect id="button" ry="5" rx="5" y="6" x="6" height="38" width="38"
                fill="#f2f5e9" fill-opacity="0.5" stroke="#606060" stroke-width="1.0"/>
           <path id="arrow"
             d="M 11.500037,31.436501 C 11.940474,20.09759 22.043105,11.32322 32.158766,21.979434 L 37.068811,17.246167 C 37.068811,17.246167 37.088388,32 37.088388,32 L 22.160133,31.978069 C 22.160133,31.978069 26.997745,27.140456 26.997745,27.140456 C 18.528582,18.264221 13.291696,25.230495 11.500037,31.436501 z"
             style="fill:#404040;"/>
          </a>
         </g>
        </svg>
</svg>
