<?xml version="1.0" encoding="UTF-8" standalone="no"?>
<!DOCTYPE svg PUBLIC "-//W3C//DTD SVG 1.1//EN"
 "http://www.w3.org/Graphics/SVG/1.1/DTD/svg11.dtd">
<!-- Generated by graphviz version 2.43.0 (0)
 -->
<!-- Title: /home/runner/work/Documentation/Documentation/master/applications/MPMApplication/custom_constitutive/yield_criteria/mc_yield_criterion.hpp Pages: 1 -->
<svg width="2263pt" height="339pt"
 viewBox="0.00 0.00 2263.00 339.00" xmlns="http://www.w3.org/2000/svg" xmlns:xlink="http://www.w3.org/1999/xlink">
<g id="graph0" class="graph" transform="scale(1 1) rotate(0) translate(4 335)">
<title>/home/runner/work/Documentation/Documentation/master/applications/MPMApplication/custom_constitutive/yield_criteria/mc_yield_criterion.hpp</title>
<!-- Node1 -->
<g id="node1" class="node">
<title>Node1</title>
<g id="a_node1"><a xlink:title=" ">
<polygon fill="#bfbfbf" stroke="black" points="1145,-278.5 1145,-330.5 1345,-330.5 1345,-278.5 1145,-278.5"/>
<text text-anchor="start" x="1153" y="-318.5" font-family="Helvetica,sans-Serif" font-size="10.00">/home/runner/work/Documentation</text>
<text text-anchor="start" x="1153" y="-307.5" font-family="Helvetica,sans-Serif" font-size="10.00">/Documentation/master/applications</text>
<text text-anchor="start" x="1153" y="-296.5" font-family="Helvetica,sans-Serif" font-size="10.00">/MPMApplication/custom_constitutive</text>
<text text-anchor="middle" x="1245" y="-285.5" font-family="Helvetica,sans-Serif" font-size="10.00">/yield_criteria/mc_yield_criterion.hpp</text>
</a>
</g>
</g>
<!-- Node2 -->
<g id="node2" class="node">
<title>Node2</title>
<g id="a_node2"><a xlink:href="../../dc/d3d/hencky__mc__3_d__law_8hpp.html" target="_top" xlink:title=" ">
<polygon fill="none" stroke="black" points="194,-184 194,-236 394,-236 394,-184 194,-184"/>
<text text-anchor="start" x="202" y="-224" font-family="Helvetica,sans-Serif" font-size="10.00">/home/runner/work/Documentation</text>
<text text-anchor="start" x="202" y="-213" font-family="Helvetica,sans-Serif" font-size="10.00">/Documentation/master/applications</text>
<text text-anchor="start" x="202" y="-202" font-family="Helvetica,sans-Serif" font-size="10.00">/MPMApplication/custom_constitutive</text>
<text text-anchor="middle" x="294" y="-191" font-family="Helvetica,sans-Serif" font-size="10.00">/hencky_mc_3D_law.hpp</text>
</a>
</g>
</g>
<!-- Node1&#45;&gt;Node2 -->
<g id="edge1" class="edge">
<title>Node1&#45;&gt;Node2</title>
<path fill="none" stroke="midnightblue" d="M1134.33,-302.12C973.35,-298.58 665.7,-286.08 408,-242 398.6,-240.39 388.85,-238.35 379.2,-236.07"/>
<polygon fill="midnightblue" stroke="midnightblue" points="1134.65,-305.62 1144.72,-302.34 1134.8,-298.63 1134.65,-305.62"/>
</g>
<!-- Node4 -->
<g id="node4" class="node">
<title>Node4</title>
<g id="a_node4"><a xlink:href="../../d4/dc9/_m_p_m_application_2custom__python_2add__custom__constitutive__laws__to__python_8cpp.html" target="_top" xlink:title=" ">
<polygon fill="none" stroke="black" points="910.5,-84 910.5,-136 1133.5,-136 1133.5,-84 910.5,-84"/>
<text text-anchor="start" x="918.5" y="-124" font-family="Helvetica,sans-Serif" font-size="10.00">/home/runner/work/Documentation</text>
<text text-anchor="start" x="918.5" y="-113" font-family="Helvetica,sans-Serif" font-size="10.00">/Documentation/master/applications</text>
<text text-anchor="start" x="918.5" y="-102" font-family="Helvetica,sans-Serif" font-size="10.00">/MPMApplication/custom_python/add</text>
<text text-anchor="middle" x="1022" y="-91" font-family="Helvetica,sans-Serif" font-size="10.00">_custom_constitutive_laws_to_python.cpp</text>
</a>
</g>
</g>
<!-- Node1&#45;&gt;Node4 -->
<g id="edge35" class="edge">
<title>Node1&#45;&gt;Node4</title>
<path fill="none" stroke="midnightblue" d="M1134.72,-303.19C925.39,-301.45 487.16,-291.83 441,-242 421.67,-221.13 421.69,-198.88 441,-178 475.81,-140.36 850.42,-150.39 901,-142 910.84,-140.37 921.05,-138.32 931.18,-136.06"/>
<polygon fill="midnightblue" stroke="midnightblue" points="1134.79,-306.69 1144.82,-303.27 1134.84,-299.69 1134.79,-306.69"/>
</g>
<!-- Node5 -->
<g id="node5" class="node">
<title>Node5</title>
<g id="a_node5"><a xlink:href="../../da/d70/mpm__application_8h.html" target="_top" xlink:title=" ">
<polygon fill="none" stroke="black" points="1151.5,-89.5 1151.5,-130.5 1346.5,-130.5 1346.5,-89.5 1151.5,-89.5"/>
<text text-anchor="start" x="1159.5" y="-118.5" font-family="Helvetica,sans-Serif" font-size="10.00">/home/runner/work/Documentation</text>
<text text-anchor="start" x="1159.5" y="-107.5" font-family="Helvetica,sans-Serif" font-size="10.00">/Documentation/master/applications</text>
<text text-anchor="middle" x="1249" y="-96.5" font-family="Helvetica,sans-Serif" font-size="10.00">/MPMApplication/mpm_application.h</text>
</a>
</g>
</g>
<!-- Node1&#45;&gt;Node5 -->
<g id="edge36" class="edge">
<title>Node1&#45;&gt;Node5</title>
<path fill="none" stroke="midnightblue" d="M1355.61,-302.69C1556.51,-300.05 1964.71,-288.92 2008,-242 2027.29,-221.09 2027.55,-198.66 2008,-178 1958.13,-125.3 1427.53,-154.17 1356,-142 1340.08,-139.29 1323.16,-135.05 1307.59,-130.57"/>
<polygon fill="midnightblue" stroke="midnightblue" points="1355.28,-299.19 1345.32,-302.82 1355.36,-306.19 1355.28,-299.19"/>
</g>
<!-- Node7 -->
<g id="node7" class="node">
<title>Node7</title>
<g id="a_node7"><a xlink:href="../../df/dd3/hencky__mc__axisym__2_d__law_8hpp.html" target="_top" xlink:title=" ">
<polygon fill="none" stroke="black" points="1145,-184 1145,-236 1345,-236 1345,-184 1145,-184"/>
<text text-anchor="start" x="1153" y="-224" font-family="Helvetica,sans-Serif" font-size="10.00">/home/runner/work/Documentation</text>
<text text-anchor="start" x="1153" y="-213" font-family="Helvetica,sans-Serif" font-size="10.00">/Documentation/master/applications</text>
<text text-anchor="start" x="1153" y="-202" font-family="Helvetica,sans-Serif" font-size="10.00">/MPMApplication/custom_constitutive</text>
<text text-anchor="middle" x="1245" y="-191" font-family="Helvetica,sans-Serif" font-size="10.00">/hencky_mc_axisym_2D_law.hpp</text>
</a>
</g>
</g>
<!-- Node1&#45;&gt;Node7 -->
<g id="edge6" class="edge">
<title>Node1&#45;&gt;Node7</title>
<path fill="none" stroke="midnightblue" d="M1245,-267.99C1245,-257.41 1245,-246.03 1245,-236.25"/>
<polygon fill="midnightblue" stroke="midnightblue" points="1241.5,-268.22 1245,-278.22 1248.5,-268.22 1241.5,-268.22"/>
</g>
<!-- Node9 -->
<g id="node9" class="node">
<title>Node9</title>
<g id="a_node9"><a xlink:href="../../df/df8/hencky__mc__plane__strain__2_d__law_8hpp.html" target="_top" xlink:title=" ">
<polygon fill="none" stroke="black" points="925.5,-184 925.5,-236 1126.5,-236 1126.5,-184 925.5,-184"/>
<text text-anchor="start" x="933.5" y="-224" font-family="Helvetica,sans-Serif" font-size="10.00">/home/runner/work/Documentation</text>
<text text-anchor="start" x="933.5" y="-213" font-family="Helvetica,sans-Serif" font-size="10.00">/Documentation/master/applications</text>
<text text-anchor="start" x="933.5" y="-202" font-family="Helvetica,sans-Serif" font-size="10.00">/MPMApplication/custom_constitutive</text>
<text text-anchor="middle" x="1026" y="-191" font-family="Helvetica,sans-Serif" font-size="10.00">/hencky_mc_plane_strain_2D_law.hpp</text>
</a>
</g>
</g>
<!-- Node1&#45;&gt;Node9 -->
<g id="edge10" class="edge">
<title>Node1&#45;&gt;Node9</title>
<path fill="none" stroke="midnightblue" d="M1176.42,-274.53C1147.2,-262.19 1113.44,-247.93 1085.31,-236.05"/>
<polygon fill="midnightblue" stroke="midnightblue" points="1175.16,-277.8 1185.74,-278.47 1177.89,-271.35 1175.16,-277.8"/>
</g>
<!-- Node11 -->
<g id="node11" class="node">
<title>Node11</title>
<g id="a_node11"><a xlink:href="../../dd/db3/hencky__mc__plane__strain___u_p__2_d__law_8hpp.html" target="_top" xlink:title=" ">
<polygon fill="none" stroke="black" points="450,-184 450,-236 670,-236 670,-184 450,-184"/>
<text text-anchor="start" x="458" y="-224" font-family="Helvetica,sans-Serif" font-size="10.00">/home/runner/work/Documentation</text>
<text text-anchor="start" x="458" y="-213" font-family="Helvetica,sans-Serif" font-size="10.00">/Documentation/master/applications</text>
<text text-anchor="start" x="458" y="-202" font-family="Helvetica,sans-Serif" font-size="10.00">/MPMApplication/custom_constitutive</text>
<text text-anchor="middle" x="560" y="-191" font-family="Helvetica,sans-Serif" font-size="10.00">/hencky_mc_plane_strain_UP_2D_law.hpp</text>
</a>
</g>
</g>
<!-- Node1&#45;&gt;Node11 -->
<g id="edge14" class="edge">
<title>Node1&#45;&gt;Node11</title>
<path fill="none" stroke="midnightblue" d="M1134.75,-296.33C1020.18,-287.75 836.01,-270.82 679,-242 669.66,-240.28 659.96,-238.23 650.33,-236"/>
<polygon fill="midnightblue" stroke="midnightblue" points="1134.7,-299.83 1144.93,-297.08 1135.21,-292.85 1134.7,-299.83"/>
</g>
<!-- Node13 -->
<g id="node13" class="node">
<title>Node13</title>
<g id="a_node13"><a xlink:href="../../dc/dd5/hencky__mc__strain__softening__3_d__law_8hpp.html" target="_top" xlink:title=" ">
<polygon fill="none" stroke="black" points="688.5,-184 688.5,-236 907.5,-236 907.5,-184 688.5,-184"/>
<text text-anchor="start" x="696.5" y="-224" font-family="Helvetica,sans-Serif" font-size="10.00">/home/runner/work/Documentation</text>
<text text-anchor="start" x="696.5" y="-213" font-family="Helvetica,sans-Serif" font-size="10.00">/Documentation/master/applications</text>
<text text-anchor="start" x="696.5" y="-202" font-family="Helvetica,sans-Serif" font-size="10.00">/MPMApplication/custom_constitutive</text>
<text text-anchor="middle" x="798" y="-191" font-family="Helvetica,sans-Serif" font-size="10.00">/hencky_mc_strain_softening_3D_law.hpp</text>
</a>
</g>
</g>
<!-- Node1&#45;&gt;Node13 -->
<g id="edge18" class="edge">
<title>Node1&#45;&gt;Node13</title>
<path fill="none" stroke="midnightblue" d="M1134.79,-284.95C1070.7,-273.65 988.52,-258.28 916,-242 907.73,-240.14 899.17,-238.11 890.6,-236"/>
<polygon fill="midnightblue" stroke="midnightblue" points="1134.46,-288.44 1144.91,-286.72 1135.67,-281.55 1134.46,-288.44"/>
</g>
<!-- Node15 -->
<g id="node15" class="node">
<title>Node15</title>
<g id="a_node15"><a xlink:href="../../de/d14/hencky__mc__strain__softening__axisym__2_d__law_8hpp.html" target="_top" xlink:title=" ">
<polygon fill="none" stroke="black" points="1799,-178.5 1799,-241.5 1999,-241.5 1999,-178.5 1799,-178.5"/>
<text text-anchor="start" x="1807" y="-229.5" font-family="Helvetica,sans-Serif" font-size="10.00">/home/runner/work/Documentation</text>
<text text-anchor="start" x="1807" y="-218.5" font-family="Helvetica,sans-Serif" font-size="10.00">/Documentation/master/applications</text>
<text text-anchor="start" x="1807" y="-207.5" font-family="Helvetica,sans-Serif" font-size="10.00">/MPMApplication/custom_constitutive</text>
<text text-anchor="start" x="1807" y="-196.5" font-family="Helvetica,sans-Serif" font-size="10.00">/hencky_mc_strain_softening_axisym</text>
<text text-anchor="middle" x="1899" y="-185.5" font-family="Helvetica,sans-Serif" font-size="10.00">_2D_law.hpp</text>
</a>
</g>
</g>
<!-- Node1&#45;&gt;Node15 -->
<g id="edge22" class="edge">
<title>Node1&#45;&gt;Node15</title>
<path fill="none" stroke="midnightblue" d="M1355.38,-296.4C1466.06,-288.03 1640.98,-271.39 1790,-242 1792.9,-241.43 1795.83,-240.82 1798.78,-240.17"/>
<polygon fill="midnightblue" stroke="midnightblue" points="1354.92,-292.93 1345.21,-297.16 1355.44,-299.91 1354.92,-292.93"/>
</g>
<!-- Node17 -->
<g id="node17" class="node">
<title>Node17</title>
<g id="a_node17"><a xlink:href="../../d6/dcd/hencky__mc__strain__softening__plane__strain__2_d__law_8hpp.html" target="_top" xlink:title=" ">
<polygon fill="none" stroke="black" points="1363,-178.5 1363,-241.5 1563,-241.5 1563,-178.5 1363,-178.5"/>
<text text-anchor="start" x="1371" y="-229.5" font-family="Helvetica,sans-Serif" font-size="10.00">/home/runner/work/Documentation</text>
<text text-anchor="start" x="1371" y="-218.5" font-family="Helvetica,sans-Serif" font-size="10.00">/Documentation/master/applications</text>
<text text-anchor="start" x="1371" y="-207.5" font-family="Helvetica,sans-Serif" font-size="10.00">/MPMApplication/custom_constitutive</text>
<text text-anchor="start" x="1371" y="-196.5" font-family="Helvetica,sans-Serif" font-size="10.00">/hencky_mc_strain_softening_plane</text>
<text text-anchor="middle" x="1463" y="-185.5" font-family="Helvetica,sans-Serif" font-size="10.00">_strain_2D_law.hpp</text>
</a>
</g>
</g>
<!-- Node1&#45;&gt;Node17 -->
<g id="edge26" class="edge">
<title>Node1&#45;&gt;Node17</title>
<path fill="none" stroke="midnightblue" d="M1313.26,-274.54C1337.9,-264.08 1365.77,-252.26 1390.74,-241.66"/>
<polygon fill="midnightblue" stroke="midnightblue" points="1311.83,-271.34 1303.99,-278.47 1314.57,-277.78 1311.83,-271.34"/>
</g>
<!-- Node19 -->
<g id="node19" class="node">
<title>Node19</title>
<g id="a_node19"><a xlink:href="../../db/d61/hencky__mc___u_p__3_d__law_8hpp.html" target="_top" xlink:title=" ">
<polygon fill="none" stroke="black" points="1581,-184 1581,-236 1781,-236 1781,-184 1581,-184"/>
<text text-anchor="start" x="1589" y="-224" font-family="Helvetica,sans-Serif" font-size="10.00">/home/runner/work/Documentation</text>
<text text-anchor="start" x="1589" y="-213" font-family="Helvetica,sans-Serif" font-size="10.00">/Documentation/master/applications</text>
<text text-anchor="start" x="1589" y="-202" font-family="Helvetica,sans-Serif" font-size="10.00">/MPMApplication/custom_constitutive</text>
<text text-anchor="middle" x="1681" y="-191" font-family="Helvetica,sans-Serif" font-size="10.00">/hencky_mc_UP_3D_law.hpp</text>
</a>
</g>
</g>
<!-- Node1&#45;&gt;Node19 -->
<g id="edge30" class="edge">
<title>Node1&#45;&gt;Node19</title>
<path fill="none" stroke="midnightblue" d="M1355.37,-285.32C1419.01,-274.2 1500.35,-258.89 1572,-242 1579.76,-240.17 1587.79,-238.15 1595.81,-236.03"/>
<polygon fill="midnightblue" stroke="midnightblue" points="1354.57,-281.91 1345.32,-287.07 1355.77,-288.81 1354.57,-281.91"/>
</g>
<!-- Node21 -->
<g id="node21" class="node">
<title>Node21</title>
<g id="a_node21"><a xlink:href="../../dd/d08/mc__yield__criterion_8cpp.html" target="_top" xlink:title=" ">
<polygon fill="none" stroke="black" points="2055,-184 2055,-236 2255,-236 2255,-184 2055,-184"/>
<text text-anchor="start" x="2063" y="-224" font-family="Helvetica,sans-Serif" font-size="10.00">/home/runner/work/Documentation</text>
<text text-anchor="start" x="2063" y="-213" font-family="Helvetica,sans-Serif" font-size="10.00">/Documentation/master/applications</text>
<text text-anchor="start" x="2063" y="-202" font-family="Helvetica,sans-Serif" font-size="10.00">/MPMApplication/custom_constitutive</text>
<text text-anchor="middle" x="2155" y="-191" font-family="Helvetica,sans-Serif" font-size="10.00">/yield_criteria/mc_yield_criterion.cpp</text>
</a>
</g>
</g>
<!-- Node1&#45;&gt;Node21 -->
<g id="edge34" class="edge">
<title>Node1&#45;&gt;Node21</title>
<path fill="none" stroke="midnightblue" d="M1355.45,-301.52C1509.9,-297.28 1798.68,-283.92 2041,-242 2050.4,-240.37 2060.14,-238.32 2069.8,-236.04"/>
<polygon fill="midnightblue" stroke="midnightblue" points="1354.93,-298.04 1345.02,-301.8 1355.11,-305.03 1354.93,-298.04"/>
</g>
<!-- Node3 -->
<g id="node3" class="node">
<title>Node3</title>
<g id="a_node3"><a xlink:href="../../d8/d2e/hencky__mc__3_d__law_8cpp.html" target="_top" xlink:title=" ">
<polygon fill="none" stroke="black" points="0,-84 0,-136 200,-136 200,-84 0,-84"/>
<text text-anchor="start" x="8" y="-124" font-family="Helvetica,sans-Serif" font-size="10.00">/home/runner/work/Documentation</text>
<text text-anchor="start" x="8" y="-113" font-family="Helvetica,sans-Serif" font-size="10.00">/Documentation/master/applications</text>
<text text-anchor="start" x="8" y="-102" font-family="Helvetica,sans-Serif" font-size="10.00">/MPMApplication/custom_constitutive</text>
<text text-anchor="middle" x="100" y="-91" font-family="Helvetica,sans-Serif" font-size="10.00">/hencky_mc_3D_law.cpp</text>
</a>
</g>
</g>
<!-- Node2&#45;&gt;Node3 -->
<g id="edge2" class="edge">
<title>Node2&#45;&gt;Node3</title>
<path fill="none" stroke="midnightblue" d="M235.22,-179.31C207.86,-165.49 175.68,-149.23 149.58,-136.04"/>
<polygon fill="midnightblue" stroke="midnightblue" points="233.79,-182.5 244.29,-183.89 236.94,-176.26 233.79,-182.5"/>
</g>
<!-- Node2&#45;&gt;Node4 -->
<g id="edge3" class="edge">
<title>Node2&#45;&gt;Node4</title>
<path fill="none" stroke="midnightblue" d="M388.96,-181.71C395.38,-180.32 401.76,-179.07 408,-178 624.56,-141 684.18,-177.4 901,-142 910.95,-140.38 921.28,-138.32 931.52,-136.04"/>
<polygon fill="midnightblue" stroke="midnightblue" points="387.86,-178.37 378.88,-184 389.41,-185.2 387.86,-178.37"/>
</g>
<!-- Node2&#45;&gt;Node5 -->
<g id="edge4" class="edge">
<title>Node2&#45;&gt;Node5</title>
<path fill="none" stroke="midnightblue" d="M404.01,-183.85C416.44,-181.59 428.96,-179.57 441,-178 750.35,-137.69 834.36,-193.75 1142,-142 1158.02,-139.31 1175.05,-135.04 1190.7,-130.53"/>
<polygon fill="midnightblue" stroke="midnightblue" points="403.25,-180.43 394.07,-185.71 404.54,-187.31 403.25,-180.43"/>
</g>
<!-- Node6 -->
<g id="node6" class="node">
<title>Node6</title>
<g id="a_node6"><a xlink:href="../../d8/d2f/mpm__application_8cpp.html" target="_top" xlink:title=" ">
<polygon fill="none" stroke="black" points="1146,-0.5 1146,-41.5 1352,-41.5 1352,-0.5 1146,-0.5"/>
<text text-anchor="start" x="1154" y="-29.5" font-family="Helvetica,sans-Serif" font-size="10.00">/home/runner/work/Documentation</text>
<text text-anchor="start" x="1154" y="-18.5" font-family="Helvetica,sans-Serif" font-size="10.00">/Documentation/master/applications</text>
<text text-anchor="middle" x="1249" y="-7.5" font-family="Helvetica,sans-Serif" font-size="10.00">/MPMApplication/mpm_application.cpp</text>
</a>
</g>
</g>
<!-- Node5&#45;&gt;Node6 -->
<g id="edge5" class="edge">
<title>Node5&#45;&gt;Node6</title>
<path fill="none" stroke="midnightblue" d="M1249,-78.94C1249,-66.6 1249,-52.66 1249,-41.66"/>
<polygon fill="midnightblue" stroke="midnightblue" points="1245.5,-79.26 1249,-89.26 1252.5,-79.26 1245.5,-79.26"/>
</g>
<!-- Node7&#45;&gt;Node4 -->
<g id="edge8" class="edge">
<title>Node7&#45;&gt;Node4</title>
<path fill="none" stroke="midnightblue" d="M1178.66,-179.84C1146.95,-165.91 1109.39,-149.4 1078.99,-136.04"/>
<polygon fill="midnightblue" stroke="midnightblue" points="1177.3,-183.07 1187.86,-183.89 1180.11,-176.66 1177.3,-183.07"/>
</g>
<!-- Node7&#45;&gt;Node5 -->
<g id="edge9" class="edge">
<title>Node7&#45;&gt;Node5</title>
<path fill="none" stroke="midnightblue" d="M1246.45,-173.59C1247.04,-159.1 1247.7,-142.88 1248.2,-130.59"/>
<polygon fill="midnightblue" stroke="midnightblue" points="1242.94,-173.63 1246.03,-183.76 1249.94,-173.91 1242.94,-173.63"/>
</g>
<!-- Node8 -->
<g id="node8" class="node">
<title>Node8</title>
<g id="a_node8"><a xlink:href="../../d7/d96/hencky__mc__axisym__2_d__law_8cpp.html" target="_top" xlink:title=" ">
<polygon fill="none" stroke="black" points="1365,-84 1365,-136 1565,-136 1565,-84 1365,-84"/>
<text text-anchor="start" x="1373" y="-124" font-family="Helvetica,sans-Serif" font-size="10.00">/home/runner/work/Documentation</text>
<text text-anchor="start" x="1373" y="-113" font-family="Helvetica,sans-Serif" font-size="10.00">/Documentation/master/applications</text>
<text text-anchor="start" x="1373" y="-102" font-family="Helvetica,sans-Serif" font-size="10.00">/MPMApplication/custom_constitutive</text>
<text text-anchor="middle" x="1465" y="-91" font-family="Helvetica,sans-Serif" font-size="10.00">/hencky_mc_axisym_2D_law.cpp</text>
</a>
</g>
</g>
<!-- Node7&#45;&gt;Node8 -->
<g id="edge7" class="edge">
<title>Node7&#45;&gt;Node8</title>
<path fill="none" stroke="midnightblue" d="M1310.85,-179.67C1342.05,-165.77 1378.92,-149.35 1408.78,-136.04"/>
<polygon fill="midnightblue" stroke="midnightblue" points="1309.08,-176.62 1301.37,-183.89 1311.93,-183.02 1309.08,-176.62"/>
</g>
<!-- Node9&#45;&gt;Node4 -->
<g id="edge12" class="edge">
<title>Node9&#45;&gt;Node4</title>
<path fill="none" stroke="midnightblue" d="M1024.56,-173.7C1024.05,-161.28 1023.49,-147.57 1023.03,-136.15"/>
<polygon fill="midnightblue" stroke="midnightblue" points="1021.06,-173.91 1024.97,-183.76 1028.06,-173.63 1021.06,-173.91"/>
</g>
<!-- Node9&#45;&gt;Node5 -->
<g id="edge13" class="edge">
<title>Node9&#45;&gt;Node5</title>
<path fill="none" stroke="midnightblue" d="M1092.62,-179.72C1128.71,-163.86 1172.33,-144.69 1204.32,-130.64"/>
<polygon fill="midnightblue" stroke="midnightblue" points="1090.89,-176.66 1083.14,-183.89 1093.7,-183.07 1090.89,-176.66"/>
</g>
<!-- Node10 -->
<g id="node10" class="node">
<title>Node10</title>
<g id="a_node10"><a xlink:href="../../d2/de2/hencky__mc__plane__strain__2_d__law_8cpp.html" target="_top" xlink:title=" ">
<polygon fill="none" stroke="black" points="692,-84 692,-136 892,-136 892,-84 692,-84"/>
<text text-anchor="start" x="700" y="-124" font-family="Helvetica,sans-Serif" font-size="10.00">/home/runner/work/Documentation</text>
<text text-anchor="start" x="700" y="-113" font-family="Helvetica,sans-Serif" font-size="10.00">/Documentation/master/applications</text>
<text text-anchor="start" x="700" y="-102" font-family="Helvetica,sans-Serif" font-size="10.00">/MPMApplication/custom_constitutive</text>
<text text-anchor="middle" x="792" y="-91" font-family="Helvetica,sans-Serif" font-size="10.00">/hencky_mc_plane_strain_2D_law.cpp</text>
</a>
</g>
</g>
<!-- Node9&#45;&gt;Node10 -->
<g id="edge11" class="edge">
<title>Node9&#45;&gt;Node10</title>
<path fill="none" stroke="midnightblue" d="M956.81,-180.02C923.45,-166.05 883.83,-149.46 851.8,-136.04"/>
<polygon fill="midnightblue" stroke="midnightblue" points="955.47,-183.26 966.04,-183.89 958.17,-176.8 955.47,-183.26"/>
</g>
<!-- Node11&#45;&gt;Node4 -->
<g id="edge16" class="edge">
<title>Node11&#45;&gt;Node4</title>
<path fill="none" stroke="midnightblue" d="M662.66,-181.61C668.17,-180.34 673.65,-179.13 679,-178 776.81,-157.38 803.15,-162.42 901,-142 909.7,-140.18 918.72,-138.15 927.73,-136.03"/>
<polygon fill="midnightblue" stroke="midnightblue" points="661.63,-178.26 652.7,-183.95 663.23,-185.07 661.63,-178.26"/>
</g>
<!-- Node11&#45;&gt;Node5 -->
<g id="edge17" class="edge">
<title>Node11&#45;&gt;Node5</title>
<path fill="none" stroke="midnightblue" d="M658.9,-181.82C665.68,-180.4 672.42,-179.1 679,-178 882.55,-143.85 938.93,-178.91 1142,-142 1157.6,-139.16 1174.19,-134.96 1189.53,-130.57"/>
<polygon fill="midnightblue" stroke="midnightblue" points="658,-178.44 648.98,-184 659.49,-185.28 658,-178.44"/>
</g>
<!-- Node12 -->
<g id="node12" class="node">
<title>Node12</title>
<g id="a_node12"><a xlink:href="../../da/d78/hencky__mc__plane__strain___u_p__2_d__law_8cpp.html" target="_top" xlink:title=" ">
<polygon fill="none" stroke="black" points="218.5,-84 218.5,-136 437.5,-136 437.5,-84 218.5,-84"/>
<text text-anchor="start" x="226.5" y="-124" font-family="Helvetica,sans-Serif" font-size="10.00">/home/runner/work/Documentation</text>
<text text-anchor="start" x="226.5" y="-113" font-family="Helvetica,sans-Serif" font-size="10.00">/Documentation/master/applications</text>
<text text-anchor="start" x="226.5" y="-102" font-family="Helvetica,sans-Serif" font-size="10.00">/MPMApplication/custom_constitutive</text>
<text text-anchor="middle" x="328" y="-91" font-family="Helvetica,sans-Serif" font-size="10.00">/hencky_mc_plane_strain_UP_2D_law.cpp</text>
</a>
</g>
</g>
<!-- Node11&#45;&gt;Node12 -->
<g id="edge15" class="edge">
<title>Node11&#45;&gt;Node12</title>
<path fill="none" stroke="midnightblue" d="M490.98,-179.84C458,-165.91 418.91,-149.4 387.29,-136.04"/>
<polygon fill="midnightblue" stroke="midnightblue" points="489.98,-183.22 500.56,-183.89 492.71,-176.77 489.98,-183.22"/>
</g>
<!-- Node13&#45;&gt;Node4 -->
<g id="edge20" class="edge">
<title>Node13&#45;&gt;Node4</title>
<path fill="none" stroke="midnightblue" d="M864.64,-179.84C896.49,-165.91 934.22,-149.4 964.75,-136.04"/>
<polygon fill="midnightblue" stroke="midnightblue" points="863.15,-176.68 855.39,-183.89 865.96,-183.09 863.15,-176.68"/>
</g>
<!-- Node13&#45;&gt;Node5 -->
<g id="edge21" class="edge">
<title>Node13&#45;&gt;Node5</title>
<path fill="none" stroke="midnightblue" d="M899.59,-181.63C905.13,-180.35 910.62,-179.13 916,-178 1015.53,-157.05 1042.74,-164.19 1142,-142 1156.53,-138.75 1172,-134.65 1186.53,-130.51"/>
<polygon fill="midnightblue" stroke="midnightblue" points="898.51,-178.29 889.59,-183.99 900.12,-185.1 898.51,-178.29"/>
</g>
<!-- Node14 -->
<g id="node14" class="node">
<title>Node14</title>
<g id="a_node14"><a xlink:href="../../da/d38/hencky__mc__strain__softening__3_d__law_8cpp.html" target="_top" xlink:title=" ">
<polygon fill="none" stroke="black" points="456,-84 456,-136 674,-136 674,-84 456,-84"/>
<text text-anchor="start" x="464" y="-124" font-family="Helvetica,sans-Serif" font-size="10.00">/home/runner/work/Documentation</text>
<text text-anchor="start" x="464" y="-113" font-family="Helvetica,sans-Serif" font-size="10.00">/Documentation/master/applications</text>
<text text-anchor="start" x="464" y="-102" font-family="Helvetica,sans-Serif" font-size="10.00">/MPMApplication/custom_constitutive</text>
<text text-anchor="middle" x="565" y="-91" font-family="Helvetica,sans-Serif" font-size="10.00">/hencky_mc_strain_softening_3D_law.cpp</text>
</a>
</g>
</g>
<!-- Node13&#45;&gt;Node14 -->
<g id="edge19" class="edge">
<title>Node13&#45;&gt;Node14</title>
<path fill="none" stroke="midnightblue" d="M728.68,-179.84C695.56,-165.91 656.31,-149.4 624.55,-136.04"/>
<polygon fill="midnightblue" stroke="midnightblue" points="727.72,-183.24 738.3,-183.89 730.44,-176.79 727.72,-183.24"/>
</g>
<!-- Node15&#45;&gt;Node4 -->
<g id="edge24" class="edge">
<title>Node15&#45;&gt;Node4</title>
<path fill="none" stroke="midnightblue" d="M1788.59,-177.91C1503.67,-131.55 1423.68,-185.77 1142,-142 1131.9,-140.43 1121.42,-138.38 1111.04,-136.07"/>
<polygon fill="midnightblue" stroke="midnightblue" points="1788.38,-181.43 1798.82,-179.61 1789.52,-174.52 1788.38,-181.43"/>
</g>
<!-- Node15&#45;&gt;Node5 -->
<g id="edge25" class="edge">
<title>Node15&#45;&gt;Node5</title>
<path fill="none" stroke="midnightblue" d="M1788.71,-177.91C1597.71,-144.5 1543.09,-176.5 1356,-142 1340.4,-139.12 1323.82,-134.91 1308.48,-130.51"/>
<polygon fill="midnightblue" stroke="midnightblue" points="1788.34,-181.4 1798.8,-179.71 1789.57,-174.51 1788.34,-181.4"/>
</g>
<!-- Node16 -->
<g id="node16" class="node">
<title>Node16</title>
<g id="a_node16"><a xlink:href="../../d3/d70/hencky__mc__strain__softening__axisym__2_d__law_8cpp.html" target="_top" xlink:title=" ">
<polygon fill="none" stroke="black" points="2019,-78.5 2019,-141.5 2219,-141.5 2219,-78.5 2019,-78.5"/>
<text text-anchor="start" x="2027" y="-129.5" font-family="Helvetica,sans-Serif" font-size="10.00">/home/runner/work/Documentation</text>
<text text-anchor="start" x="2027" y="-118.5" font-family="Helvetica,sans-Serif" font-size="10.00">/Documentation/master/applications</text>
<text text-anchor="start" x="2027" y="-107.5" font-family="Helvetica,sans-Serif" font-size="10.00">/MPMApplication/custom_constitutive</text>
<text text-anchor="start" x="2027" y="-96.5" font-family="Helvetica,sans-Serif" font-size="10.00">/hencky_mc_strain_softening_axisym</text>
<text text-anchor="middle" x="2119" y="-85.5" font-family="Helvetica,sans-Serif" font-size="10.00">_2D_law.cpp</text>
</a>
</g>
</g>
<!-- Node15&#45;&gt;Node16 -->
<g id="edge23" class="edge">
<title>Node15&#45;&gt;Node16</title>
<path fill="none" stroke="midnightblue" d="M1977.11,-174.21C2001.05,-163.54 2027.19,-151.9 2050.44,-141.54"/>
<polygon fill="midnightblue" stroke="midnightblue" points="1975.41,-171.13 1967.7,-178.4 1978.26,-177.52 1975.41,-171.13"/>
</g>
<!-- Node17&#45;&gt;Node4 -->
<g id="edge28" class="edge">
<title>Node17&#45;&gt;Node4</title>
<path fill="none" stroke="midnightblue" d="M1352.82,-177.83C1259.03,-157.21 1232.36,-161.31 1142,-142 1133.48,-140.18 1124.65,-138.16 1115.82,-136.05"/>
<polygon fill="midnightblue" stroke="midnightblue" points="1352.21,-181.27 1362.73,-180.04 1353.74,-174.44 1352.21,-181.27"/>
</g>
<!-- Node17&#45;&gt;Node5 -->
<g id="edge29" class="edge">
<title>Node17&#45;&gt;Node5</title>
<path fill="none" stroke="midnightblue" d="M1386.84,-174.12C1354.89,-159.49 1318.94,-143.03 1291.76,-130.58"/>
<polygon fill="midnightblue" stroke="midnightblue" points="1385.62,-177.41 1396.17,-178.4 1388.53,-171.05 1385.62,-177.41"/>
</g>
<!-- Node18 -->
<g id="node18" class="node">
<title>Node18</title>
<g id="a_node18"><a xlink:href="../../da/d86/hencky__mc__strain__softening__plane__strain__2_d__law_8cpp.html" target="_top" xlink:title=" ">
<polygon fill="none" stroke="black" points="1583,-78.5 1583,-141.5 1783,-141.5 1783,-78.5 1583,-78.5"/>
<text text-anchor="start" x="1591" y="-129.5" font-family="Helvetica,sans-Serif" font-size="10.00">/home/runner/work/Documentation</text>
<text text-anchor="start" x="1591" y="-118.5" font-family="Helvetica,sans-Serif" font-size="10.00">/Documentation/master/applications</text>
<text text-anchor="start" x="1591" y="-107.5" font-family="Helvetica,sans-Serif" font-size="10.00">/MPMApplication/custom_constitutive</text>
<text text-anchor="start" x="1591" y="-96.5" font-family="Helvetica,sans-Serif" font-size="10.00">/hencky_mc_strain_softening_plane</text>
<text text-anchor="middle" x="1683" y="-85.5" font-family="Helvetica,sans-Serif" font-size="10.00">_strain_2D_law.cpp</text>
</a>
</g>
</g>
<!-- Node17&#45;&gt;Node18 -->
<g id="edge27" class="edge">
<title>Node17&#45;&gt;Node18</title>
<path fill="none" stroke="midnightblue" d="M1541.11,-174.21C1565.05,-163.54 1591.19,-151.9 1614.44,-141.54"/>
<polygon fill="midnightblue" stroke="midnightblue" points="1539.41,-171.13 1531.7,-178.4 1542.26,-177.52 1539.41,-171.13"/>
</g>
<!-- Node19&#45;&gt;Node4 -->
<g id="edge32" class="edge">
<title>Node19&#45;&gt;Node4</title>
<path fill="none" stroke="midnightblue" d="M1589.59,-181.62C1583.67,-180.28 1577.77,-179.05 1572,-178 1383.33,-143.61 1331.07,-174.1 1142,-142 1132.24,-140.34 1122.12,-138.28 1112.07,-136.01"/>
<polygon fill="midnightblue" stroke="midnightblue" points="1589.03,-185.09 1599.56,-183.99 1590.64,-178.28 1589.03,-185.09"/>
</g>
<!-- Node19&#45;&gt;Node5 -->
<g id="edge33" class="edge">
<title>Node19&#45;&gt;Node5</title>
<path fill="none" stroke="midnightblue" d="M1586.42,-181.41C1581.56,-180.21 1576.73,-179.06 1572,-178 1477.05,-156.65 1450.9,-163.58 1356,-142 1341.57,-138.72 1326.21,-134.63 1311.77,-130.51"/>
<polygon fill="midnightblue" stroke="midnightblue" points="1585.89,-184.89 1596.44,-183.95 1587.61,-178.1 1585.89,-184.89"/>
</g>
<!-- Node20 -->
<g id="node20" class="node">
<title>Node20</title>
<g id="a_node20"><a xlink:href="../../db/d84/hencky__mc___u_p__3_d__law_8cpp.html" target="_top" xlink:title=" ">
<polygon fill="none" stroke="black" points="1801,-84 1801,-136 2001,-136 2001,-84 1801,-84"/>
<text text-anchor="start" x="1809" y="-124" font-family="Helvetica,sans-Serif" font-size="10.00">/home/runner/work/Documentation</text>
<text text-anchor="start" x="1809" y="-113" font-family="Helvetica,sans-Serif" font-size="10.00">/Documentation/master/applications</text>
<text text-anchor="start" x="1809" y="-102" font-family="Helvetica,sans-Serif" font-size="10.00">/MPMApplication/custom_constitutive</text>
<text text-anchor="middle" x="1901" y="-91" font-family="Helvetica,sans-Serif" font-size="10.00">/hencky_mc_UP_3D_law.cpp</text>
</a>
</g>
</g>
<!-- Node19&#45;&gt;Node20 -->
<g id="edge31" class="edge">
<title>Node19&#45;&gt;Node20</title>
<path fill="none" stroke="midnightblue" d="M1746.85,-179.67C1778.05,-165.77 1814.92,-149.35 1844.78,-136.04"/>
<polygon fill="midnightblue" stroke="midnightblue" points="1745.08,-176.62 1737.37,-183.89 1747.93,-183.02 1745.08,-176.62"/>
</g>
</g>
</svg>
