<?xml version="1.0" encoding="UTF-8" standalone="no"?>
<!DOCTYPE svg PUBLIC "-//W3C//DTD SVG 1.1//EN"
 "http://www.w3.org/Graphics/SVG/1.1/DTD/svg11.dtd">
<!-- Generated by graphviz version 2.43.0 (0)
 -->
<!-- Title: empire_mortar_mapper.EmpireMortarMapper Pages: 1 -->
<svg width="177pt" height="248pt"
 viewBox="0.00 0.00 177.00 248.00" xmlns="http://www.w3.org/2000/svg" xmlns:xlink="http://www.w3.org/1999/xlink">
<g id="graph0" class="graph" transform="scale(1 1) rotate(0) translate(4 244)">
<title>empire_mortar_mapper.EmpireMortarMapper</title>
<!-- Node1 -->
<g id="node1" class="node">
<title>Node1</title>
<g id="a_node1"><a xlink:title="Wrapper for the Mortar mapper of EMPIRE.">
<polygon fill="#bfbfbf" stroke="black" points="0,-0.5 0,-145.5 169,-145.5 169,-0.5 0,-0.5"/>
<text text-anchor="start" x="8" y="-133.5" font-family="Helvetica,sans-Serif" font-size="10.00">empire_mortar_mapper.Empire</text>
<text text-anchor="middle" x="84.5" y="-122.5" font-family="Helvetica,sans-Serif" font-size="10.00">MortarMapper</text>
<polyline fill="none" stroke="black" points="0,-115.5 169,-115.5 "/>
<text text-anchor="start" x="8" y="-103.5" font-family="Helvetica,sans-Serif" font-size="10.00">+ mapper_name</text>
<text text-anchor="start" x="8" y="-92.5" font-family="Helvetica,sans-Serif" font-size="10.00">+ mesh_name_origin</text>
<text text-anchor="start" x="8" y="-81.5" font-family="Helvetica,sans-Serif" font-size="10.00">+ mesh_name_destination</text>
<text text-anchor="start" x="8" y="-70.5" font-family="Helvetica,sans-Serif" font-size="10.00">+ mapper_count</text>
<text text-anchor="start" x="8" y="-59.5" font-family="Helvetica,sans-Serif" font-size="10.00">+ instances</text>
<text text-anchor="start" x="8" y="-48.5" font-family="Helvetica,sans-Serif" font-size="10.00">+ mapper_lib</text>
<polyline fill="none" stroke="black" points="0,-41.5 169,-41.5 "/>
<text text-anchor="start" x="8" y="-29.5" font-family="Helvetica,sans-Serif" font-size="10.00">+ __init__()</text>
<text text-anchor="start" x="8" y="-18.5" font-family="Helvetica,sans-Serif" font-size="10.00">+ __del__()</text>
<text text-anchor="start" x="8" y="-7.5" font-family="Helvetica,sans-Serif" font-size="10.00">+ UpdateInterface()</text>
</a>
</g>
</g>
<!-- Node2 -->
<g id="node2" class="node">
<title>Node2</title>
<g id="a_node2"><a xlink:title=" ">
<polygon fill="none" stroke="#bfbfbf" points="41,-182.5 41,-239.5 128,-239.5 128,-182.5 41,-182.5"/>
<text text-anchor="middle" x="84.5" y="-227.5" font-family="Helvetica,sans-Serif" font-size="10.00">PythonMapper</text>
<polyline fill="none" stroke="#bfbfbf" points="41,-220.5 128,-220.5 "/>
<text text-anchor="middle" x="84.5" y="-208.5" font-family="Helvetica,sans-Serif" font-size="10.00"> </text>
<polyline fill="none" stroke="#bfbfbf" points="41,-201.5 128,-201.5 "/>
<text text-anchor="middle" x="84.5" y="-189.5" font-family="Helvetica,sans-Serif" font-size="10.00"> </text>
</a>
</g>
</g>
<!-- Node2&#45;&gt;Node1 -->
<g id="edge1" class="edge">
<title>Node2&#45;&gt;Node1</title>
<path fill="none" stroke="midnightblue" d="M84.5,-172.36C84.5,-164 84.5,-154.87 84.5,-145.66"/>
<polygon fill="none" stroke="midnightblue" points="81,-172.48 84.5,-182.48 88,-172.48 81,-172.48"/>
</g>
</g>
</svg>
