<?xml version="1.0" encoding="UTF-8" standalone="no"?>
<!DOCTYPE svg PUBLIC "-//W3C//DTD SVG 1.1//EN"
 "http://www.w3.org/Graphics/SVG/1.1/DTD/svg11.dtd">
<!-- Generated by graphviz version 2.43.0 (0)
 -->
<!-- Title: /home/runner/work/Documentation/Documentation/master/applications/ContactMechanicsApplication/custom_conditions/rigid_contact/EP_point_rigid_contact_penalty_2D_condition.hpp Pages: 1 -->
<!--zoomable 461 -->
<svg id="main" version="1.1" xmlns="http://www.w3.org/2000/svg" xmlns:xlink="http://www.w3.org/1999/xlink" xml:space="preserve" onload="init(evt)">
<style type="text/css"><![CDATA[
.edge:hover path { stroke: red; }
.edge:hover polygon { stroke: red; fill: red; }
]]></style>
<script type="text/javascript"><![CDATA[
var edges = document.getElementsByTagName('g');
if (edges && edges.length) {
  for (var i=0;i<edges.length;i++) {
    if (edges[i].id.substr(0,4)=='edge') {
      edges[i].setAttribute('class','edge');
    }
  }
}
]]></script>
        <defs>
                <circle id="rim" cx="0" cy="0" r="7"/>
                <circle id="rim2" cx="0" cy="0" r="3.5"/>
                <g id="zoomPlus">
                        <use xlink:href="#rim" fill="#404040">
                                <set attributeName="fill" to="#808080" begin="zoomplus.mouseover" end="zoomplus.mouseout"/>
                        </use>
                        <path d="M-4,0h8M0,-4v8" fill="none" stroke="white" stroke-width="1.5" pointer-events="none"/>
                </g>
                <g id="zoomMin">
                        <use xlink:href="#rim" fill="#404040">
                                <set attributeName="fill" to="#808080" begin="zoomminus.mouseover" end="zoomminus.mouseout"/>
                        </use>
                        <path d="M-4,0h8" fill="none" stroke="white" stroke-width="1.5" pointer-events="none"/>
                </g>
                <g id="dirArrow">
                        <path fill="none" stroke="white" stroke-width="1.5" d="M0,-3.0v7 M-2.5,-0.5L0,-3.0L2.5,-0.5"/>
                </g>
               <g id="resetDef">
                       <use xlink:href="#rim2" fill="#404040">
                               <set attributeName="fill" to="#808080" begin="reset.mouseover" end="reset.mouseout"/>
                       </use>
               </g>
        </defs>

<script type="text/javascript">
var viewWidth = 749;
var viewHeight = 461;
var sectionId = 'dynsection-1';
</script>
<script xlink:href="../../svgpan.js"/>
<svg id="graph" class="graph">
<g id="viewport">
<title>/home/runner/work/Documentation/Documentation/master/applications/ContactMechanicsApplication/custom_conditions/rigid_contact/EP_point_rigid_contact_penalty_2D_condition.hpp</title>
<!-- Node1 -->
<g id="node1" class="node">
<title>Node1</title>
<g id="a_node1"><a xlink:title=" ">
<polygon fill="#bfbfbf" stroke="black" points="312,-389.5 312,-452.5 529,-452.5 529,-389.5 312,-389.5"/>
<text text-anchor="start" x="320" y="-440.5" font-family="Helvetica,sans-Serif" font-size="10.00">/home/runner/work/Documentation</text>
<text text-anchor="start" x="320" y="-429.5" font-family="Helvetica,sans-Serif" font-size="10.00">/Documentation/master/applications</text>
<text text-anchor="start" x="320" y="-418.5" font-family="Helvetica,sans-Serif" font-size="10.00">/ContactMechanicsApplication/custom</text>
<text text-anchor="start" x="320" y="-407.5" font-family="Helvetica,sans-Serif" font-size="10.00">_conditions/rigid_contact/EP_point</text>
<text text-anchor="middle" x="420.5" y="-396.5" font-family="Helvetica,sans-Serif" font-size="10.00">_rigid_contact_penalty_2D_condition.hpp</text>
</a>
</g>
</g>
<!-- Node2 -->
<g id="node2" class="node">
<title>Node2</title>
<g id="a_node2"><a xlink:href="../../de/d7a/contact__mechanics__application_8h.html" target="_top" xlink:title=" ">
<polygon fill="none" stroke="black" points="0,-195 0,-247 203,-247 203,-195 0,-195"/>
<text text-anchor="start" x="8" y="-235" font-family="Helvetica,sans-Serif" font-size="10.00">/home/runner/work/Documentation</text>
<text text-anchor="start" x="8" y="-224" font-family="Helvetica,sans-Serif" font-size="10.00">/Documentation/master/applications</text>
<text text-anchor="start" x="8" y="-213" font-family="Helvetica,sans-Serif" font-size="10.00">/ContactMechanicsApplication/contact</text>
<text text-anchor="middle" x="101.5" y="-202" font-family="Helvetica,sans-Serif" font-size="10.00">_mechanics_application.h</text>
</a>
</g>
</g>
<!-- Node1&#45;&gt;Node2 -->
<g id="edge1" class="edge">
<title>Node1&#45;&gt;Node2</title>
<path fill="none" stroke="midnightblue" d="M302.26,-394.72C271.12,-384.78 238.66,-371.24 211.5,-353 169.71,-324.94 135.04,-276.61 116.38,-247.15"/>
<polygon fill="midnightblue" stroke="midnightblue" points="301.29,-398.08 311.87,-397.69 303.35,-391.4 301.29,-398.08"/>
</g>
<!-- Node4 -->
<g id="node4" class="node">
<title>Node4</title>
<g id="a_node4"><a xlink:href="../../db/d5f/_e_p__axisym__point__rigid__contact__penalty__2_d__condition_8hpp.html" target="_top" xlink:title=" ">
<polygon fill="none" stroke="black" points="221,-289.5 221,-352.5 468,-352.5 468,-289.5 221,-289.5"/>
<text text-anchor="start" x="229" y="-340.5" font-family="Helvetica,sans-Serif" font-size="10.00">/home/runner/work/Documentation</text>
<text text-anchor="start" x="229" y="-329.5" font-family="Helvetica,sans-Serif" font-size="10.00">/Documentation/master/applications</text>
<text text-anchor="start" x="229" y="-318.5" font-family="Helvetica,sans-Serif" font-size="10.00">/ContactMechanicsApplication/custom</text>
<text text-anchor="start" x="229" y="-307.5" font-family="Helvetica,sans-Serif" font-size="10.00">_conditions/rigid_contact/EP_axisym</text>
<text text-anchor="middle" x="344.5" y="-296.5" font-family="Helvetica,sans-Serif" font-size="10.00">_point_rigid_contact_penalty_2D_condition.hpp</text>
</a>
</g>
</g>
<!-- Node1&#45;&gt;Node4 -->
<g id="edge3" class="edge">
<title>Node1&#45;&gt;Node4</title>
<path fill="none" stroke="midnightblue" d="M390.34,-381.11C383,-371.65 375.25,-361.65 368.25,-352.63"/>
<polygon fill="midnightblue" stroke="midnightblue" points="387.77,-383.5 396.66,-389.26 393.3,-379.21 387.77,-383.5"/>
</g>
<!-- Node6 -->
<g id="node6" class="node">
<title>Node6</title>
<g id="a_node6"><a xlink:href="../../da/d1b/parametric__wall__contact__search__process_8hpp.html" target="_top" xlink:title=" ">
<polygon fill="none" stroke="black" points="486,-189.5 486,-252.5 689,-252.5 689,-189.5 486,-189.5"/>
<text text-anchor="start" x="494" y="-240.5" font-family="Helvetica,sans-Serif" font-size="10.00">/home/runner/work/Documentation</text>
<text text-anchor="start" x="494" y="-229.5" font-family="Helvetica,sans-Serif" font-size="10.00">/Documentation/master/applications</text>
<text text-anchor="start" x="494" y="-218.5" font-family="Helvetica,sans-Serif" font-size="10.00">/ContactMechanicsApplication/custom</text>
<text text-anchor="start" x="494" y="-207.5" font-family="Helvetica,sans-Serif" font-size="10.00">_processes/parametric_wall_contact</text>
<text text-anchor="middle" x="587.5" y="-196.5" font-family="Helvetica,sans-Serif" font-size="10.00">_search_process.hpp</text>
</a>
</g>
</g>
<!-- Node1&#45;&gt;Node6 -->
<g id="edge11" class="edge">
<title>Node1&#45;&gt;Node6</title>
<path fill="none" stroke="midnightblue" d="M455.23,-381.42C462.87,-372.33 470.7,-362.51 477.5,-353 496.73,-326.08 494.74,-314.75 515.5,-289 525.9,-276.11 538.75,-263.36 550.71,-252.51"/>
<polygon fill="midnightblue" stroke="midnightblue" points="452.43,-379.31 448.6,-389.19 457.76,-383.86 452.43,-379.31"/>
</g>
<!-- Node9 -->
<g id="node9" class="node">
<title>Node9</title>
<g id="a_node9"><a xlink:href="../../dd/d17/_e_p__point__rigid__contact__penalty__2_d__condition_8cpp.html" target="_top" xlink:title=" ">
<polygon fill="none" stroke="black" points="524.5,-289.5 524.5,-352.5 740.5,-352.5 740.5,-289.5 524.5,-289.5"/>
<text text-anchor="start" x="532.5" y="-340.5" font-family="Helvetica,sans-Serif" font-size="10.00">/home/runner/work/Documentation</text>
<text text-anchor="start" x="532.5" y="-329.5" font-family="Helvetica,sans-Serif" font-size="10.00">/Documentation/master/applications</text>
<text text-anchor="start" x="532.5" y="-318.5" font-family="Helvetica,sans-Serif" font-size="10.00">/ContactMechanicsApplication/custom</text>
<text text-anchor="start" x="532.5" y="-307.5" font-family="Helvetica,sans-Serif" font-size="10.00">_conditions/rigid_contact/EP_point</text>
<text text-anchor="middle" x="632.5" y="-296.5" font-family="Helvetica,sans-Serif" font-size="10.00">_rigid_contact_penalty_2D_condition.cpp</text>
</a>
</g>
</g>
<!-- Node1&#45;&gt;Node9 -->
<g id="edge10" class="edge">
<title>Node1&#45;&gt;Node9</title>
<path fill="none" stroke="midnightblue" d="M496.07,-385.06C519.06,-374.44 544.13,-362.85 566.43,-352.54"/>
<polygon fill="midnightblue" stroke="midnightblue" points="494.31,-382.02 486.71,-389.4 497.25,-388.38 494.31,-382.02"/>
</g>
<!-- Node3 -->
<g id="node3" class="node">
<title>Node3</title>
<g id="a_node3"><a xlink:href="../../dd/dd1/contact__mechanics__application_8cpp.html" target="_top" xlink:title=" ">
<polygon fill="none" stroke="black" points="0,-95 0,-147 203,-147 203,-95 0,-95"/>
<text text-anchor="start" x="8" y="-135" font-family="Helvetica,sans-Serif" font-size="10.00">/home/runner/work/Documentation</text>
<text text-anchor="start" x="8" y="-124" font-family="Helvetica,sans-Serif" font-size="10.00">/Documentation/master/applications</text>
<text text-anchor="start" x="8" y="-113" font-family="Helvetica,sans-Serif" font-size="10.00">/ContactMechanicsApplication/contact</text>
<text text-anchor="middle" x="101.5" y="-102" font-family="Helvetica,sans-Serif" font-size="10.00">_mechanics_application.cpp</text>
</a>
</g>
</g>
<!-- Node2&#45;&gt;Node3 -->
<g id="edge2" class="edge">
<title>Node2&#45;&gt;Node3</title>
<path fill="none" stroke="midnightblue" d="M101.5,-184.7C101.5,-172.28 101.5,-158.57 101.5,-147.15"/>
<polygon fill="midnightblue" stroke="midnightblue" points="98,-184.76 101.5,-194.76 105,-184.76 98,-184.76"/>
</g>
<!-- Node4&#45;&gt;Node2 -->
<g id="edge4" class="edge">
<title>Node4&#45;&gt;Node2</title>
<path fill="none" stroke="midnightblue" d="M259,-285.52C227.63,-272.87 192.74,-258.8 163.79,-247.12"/>
<polygon fill="midnightblue" stroke="midnightblue" points="258.03,-288.9 268.61,-289.4 260.65,-282.41 258.03,-288.9"/>
</g>
<!-- Node5 -->
<g id="node5" class="node">
<title>Node5</title>
<g id="a_node5"><a xlink:href="../../dc/d3f/_e_p__axisym__point__rigid__contact__penalty__2_d__condition_8cpp.html" target="_top" xlink:title=" ">
<polygon fill="none" stroke="black" points="221.5,-189.5 221.5,-252.5 467.5,-252.5 467.5,-189.5 221.5,-189.5"/>
<text text-anchor="start" x="229.5" y="-240.5" font-family="Helvetica,sans-Serif" font-size="10.00">/home/runner/work/Documentation</text>
<text text-anchor="start" x="229.5" y="-229.5" font-family="Helvetica,sans-Serif" font-size="10.00">/Documentation/master/applications</text>
<text text-anchor="start" x="229.5" y="-218.5" font-family="Helvetica,sans-Serif" font-size="10.00">/ContactMechanicsApplication/custom</text>
<text text-anchor="start" x="229.5" y="-207.5" font-family="Helvetica,sans-Serif" font-size="10.00">_conditions/rigid_contact/EP_axisym</text>
<text text-anchor="middle" x="344.5" y="-196.5" font-family="Helvetica,sans-Serif" font-size="10.00">_point_rigid_contact_penalty_2D_condition.cpp</text>
</a>
</g>
</g>
<!-- Node4&#45;&gt;Node5 -->
<g id="edge5" class="edge">
<title>Node4&#45;&gt;Node5</title>
<path fill="none" stroke="midnightblue" d="M344.5,-279.1C344.5,-270.24 344.5,-261.01 344.5,-252.63"/>
<polygon fill="midnightblue" stroke="midnightblue" points="341,-279.26 344.5,-289.26 348,-279.26 341,-279.26"/>
</g>
<!-- Node4&#45;&gt;Node6 -->
<g id="edge6" class="edge">
<title>Node4&#45;&gt;Node6</title>
<path fill="none" stroke="midnightblue" d="M429.72,-285.63C456.45,-274.85 485.75,-263.04 511.77,-252.54"/>
<polygon fill="midnightblue" stroke="midnightblue" points="428.35,-282.41 420.39,-289.4 430.97,-288.9 428.35,-282.41"/>
</g>
<!-- Node7 -->
<g id="node7" class="node">
<title>Node7</title>
<g id="a_node7"><a xlink:href="../../de/d85/hm__parametric__wall__contact__search__process_8hpp.html" target="_top" xlink:title=" ">
<polygon fill="none" stroke="black" points="412,-89.5 412,-152.5 627,-152.5 627,-89.5 412,-89.5"/>
<text text-anchor="start" x="420" y="-140.5" font-family="Helvetica,sans-Serif" font-size="10.00">/home/runner/work/Documentation</text>
<text text-anchor="start" x="420" y="-129.5" font-family="Helvetica,sans-Serif" font-size="10.00">/Documentation/master/applications</text>
<text text-anchor="start" x="420" y="-118.5" font-family="Helvetica,sans-Serif" font-size="10.00">/ContactMechanicsApplication/custom</text>
<text text-anchor="start" x="420" y="-107.5" font-family="Helvetica,sans-Serif" font-size="10.00">_processes/hm_parametric_wall_contact</text>
<text text-anchor="middle" x="519.5" y="-96.5" font-family="Helvetica,sans-Serif" font-size="10.00">_search_process.hpp</text>
</a>
</g>
</g>
<!-- Node6&#45;&gt;Node7 -->
<g id="edge7" class="edge">
<title>Node6&#45;&gt;Node7</title>
<path fill="none" stroke="midnightblue" d="M560.32,-180.83C553.81,-171.44 546.95,-161.56 540.75,-152.63"/>
<polygon fill="midnightblue" stroke="midnightblue" points="557.59,-183.04 566.17,-189.26 563.35,-179.05 557.59,-183.04"/>
</g>
<!-- Node8 -->
<g id="node8" class="node">
<title>Node8</title>
<g id="a_node8"><a xlink:href="../../da/d3b/_contact_mechanics_application_2custom__python_2add__custom__processes__to__python_8cpp.html" target="_top" xlink:title=" ">
<polygon fill="none" stroke="black" points="464.5,-0.5 464.5,-52.5 710.5,-52.5 710.5,-0.5 464.5,-0.5"/>
<text text-anchor="start" x="472.5" y="-40.5" font-family="Helvetica,sans-Serif" font-size="10.00">/home/runner/work/Documentation</text>
<text text-anchor="start" x="472.5" y="-29.5" font-family="Helvetica,sans-Serif" font-size="10.00">/Documentation/master/applications</text>
<text text-anchor="start" x="472.5" y="-18.5" font-family="Helvetica,sans-Serif" font-size="10.00">/ContactMechanicsApplication/custom</text>
<text text-anchor="middle" x="587.5" y="-7.5" font-family="Helvetica,sans-Serif" font-size="10.00">_python/add_custom_processes_to_python.cpp</text>
</a>
</g>
</g>
<!-- Node6&#45;&gt;Node8 -->
<g id="edge9" class="edge">
<title>Node6&#45;&gt;Node8</title>
<path fill="none" stroke="midnightblue" d="M622.24,-180.93C628.1,-172.28 633.31,-162.76 636.5,-153 645.33,-125.96 645.89,-115.85 636.5,-89 631.81,-75.6 622.85,-62.94 613.85,-52.62"/>
<polygon fill="midnightblue" stroke="midnightblue" points="619.24,-179.12 616.22,-189.27 624.91,-183.21 619.24,-179.12"/>
</g>
<!-- Node7&#45;&gt;Node8 -->
<g id="edge8" class="edge">
<title>Node7&#45;&gt;Node8</title>
<path fill="none" stroke="midnightblue" d="M548.04,-81.17C555.1,-71.57 562.48,-61.53 568.93,-52.77"/>
<polygon fill="midnightblue" stroke="midnightblue" points="545.06,-79.33 541.95,-89.46 550.7,-83.47 545.06,-79.33"/>
</g>
</g>
</svg>
        <g id="navigator" transform="translate(0 0)" fill="#404254">
                <rect fill="#f2f5e9" fill-opacity="0.5" stroke="#606060" stroke-width=".5" x="0" y="0" width="60" height="60"/>
                <use id="zoomplus" xlink:href="#zoomPlus" x="17" y="9" onmousedown="handleZoom(evt,'in')"/>
                <use id="zoomminus" xlink:href="#zoomMin" x="42" y="9" onmousedown="handleZoom(evt,'out')"/>
                <use id="reset" xlink:href="#resetDef" x="30" y="36" onmousedown="handleReset()"/>
                <g id="arrowUp" xlink:href="#dirArrow" transform="translate(30 24)" onmousedown="handlePan(0,-1)">
                  <use xlink:href="#rim" fill="#404040">
                        <set attributeName="fill" to="#808080" begin="arrowUp.mouseover" end="arrowUp.mouseout"/>
                  </use>
                  <path fill="none" stroke="white" stroke-width="1.5" d="M0,-3.0v7 M-2.5,-0.5L0,-3.0L2.5,-0.5"/>
                </g>
                <g id="arrowRight" xlink:href="#dirArrow" transform="rotate(90) translate(36 -43)" onmousedown="handlePan(1,0)">
                  <use xlink:href="#rim" fill="#404040">
                        <set attributeName="fill" to="#808080" begin="arrowRight.mouseover" end="arrowRight.mouseout"/>
                  </use>
                  <path fill="none" stroke="white" stroke-width="1.5" d="M0,-3.0v7 M-2.5,-0.5L0,-3.0L2.5,-0.5"/>
                </g>
                <g id="arrowDown" xlink:href="#dirArrow" transform="rotate(180) translate(-30 -48)" onmousedown="handlePan(0,1)">
                  <use xlink:href="#rim" fill="#404040">
                        <set attributeName="fill" to="#808080" begin="arrowDown.mouseover" end="arrowDown.mouseout"/>
                  </use>
                  <path fill="none" stroke="white" stroke-width="1.5" d="M0,-3.0v7 M-2.5,-0.5L0,-3.0L2.5,-0.5"/>
                </g>
                <g id="arrowLeft" xlink:href="#dirArrow" transform="rotate(270) translate(-36 17)" onmousedown="handlePan(-1,0)">
                  <use xlink:href="#rim" fill="#404040">
                        <set attributeName="fill" to="#808080" begin="arrowLeft.mouseover" end="arrowLeft.mouseout"/>
                  </use>
                  <path fill="none" stroke="white" stroke-width="1.5" d="M0,-3.0v7 M-2.5,-0.5L0,-3.0L2.5,-0.5"/>
                </g>
        </g>
        <svg viewBox="0 0 15 15" width="100%" height="30px" preserveAspectRatio="xMaxYMin meet">
         <g id="arrow_out" transform="scale(0.3 0.3)">
          <a xlink:href="_e_p__point__rigid__contact__penalty__2_d__condition_8hpp__dep__incl_org.svg" target="_base">
           <rect id="button" ry="5" rx="5" y="6" x="6" height="38" width="38"
                fill="#f2f5e9" fill-opacity="0.5" stroke="#606060" stroke-width="1.0"/>
           <path id="arrow"
             d="M 11.500037,31.436501 C 11.940474,20.09759 22.043105,11.32322 32.158766,21.979434 L 37.068811,17.246167 C 37.068811,17.246167 37.088388,32 37.088388,32 L 22.160133,31.978069 C 22.160133,31.978069 26.997745,27.140456 26.997745,27.140456 C 18.528582,18.264221 13.291696,25.230495 11.500037,31.436501 z"
             style="fill:#404040;"/>
          </a>
         </g>
        </svg>
</svg>
