<?xml version="1.0" encoding="UTF-8" standalone="no"?>
<!DOCTYPE svg PUBLIC "-//W3C//DTD SVG 1.1//EN"
 "http://www.w3.org/Graphics/SVG/1.1/DTD/svg11.dtd">
<!-- Generated by graphviz version 2.43.0 (0)
 -->
<!-- Title: /home/runner/work/Documentation/Documentation/master/kratos/input_output/vtk_output.h Pages: 1 -->
<svg width="3033pt" height="439pt"
 viewBox="0.00 0.00 3033.00 439.00" xmlns="http://www.w3.org/2000/svg" xmlns:xlink="http://www.w3.org/1999/xlink">
<g id="graph0" class="graph" transform="scale(1 1) rotate(0) translate(4 435)">
<title>/home/runner/work/Documentation/Documentation/master/kratos/input_output/vtk_output.h</title>
<!-- Node1 -->
<g id="node1" class="node">
<title>Node1</title>
<g id="a_node1"><a xlink:title=" ">
<polygon fill="#bfbfbf" stroke="black" points="1056,-389.5 1056,-430.5 1243,-430.5 1243,-389.5 1056,-389.5"/>
<text text-anchor="start" x="1064" y="-418.5" font-family="Helvetica,sans-Serif" font-size="10.00">/home/runner/work/Documentation</text>
<text text-anchor="start" x="1064" y="-407.5" font-family="Helvetica,sans-Serif" font-size="10.00">/Documentation/master/kratos</text>
<text text-anchor="middle" x="1149.5" y="-396.5" font-family="Helvetica,sans-Serif" font-size="10.00">/input_output/vtk_output.h</text>
</a>
</g>
</g>
<!-- Node2 -->
<g id="node2" class="node">
<title>Node2</title>
<g id="a_node2"><a xlink:href="../../d5/d4d/vtk__output_8cpp.html" target="_top" xlink:title=" ">
<polygon fill="none" stroke="black" points="0,-300.5 0,-341.5 187,-341.5 187,-300.5 0,-300.5"/>
<text text-anchor="start" x="8" y="-329.5" font-family="Helvetica,sans-Serif" font-size="10.00">/home/runner/work/Documentation</text>
<text text-anchor="start" x="8" y="-318.5" font-family="Helvetica,sans-Serif" font-size="10.00">/Documentation/master/kratos</text>
<text text-anchor="middle" x="93.5" y="-307.5" font-family="Helvetica,sans-Serif" font-size="10.00">/input_output/vtk_output.cpp</text>
</a>
</g>
</g>
<!-- Node1&#45;&gt;Node2 -->
<g id="edge1" class="edge">
<title>Node1&#45;&gt;Node2</title>
<path fill="none" stroke="midnightblue" d="M1045.75,-406.01C833.51,-399.37 356.19,-381.72 195.5,-353 180.29,-350.28 164.15,-346.04 149.3,-341.55"/>
<polygon fill="midnightblue" stroke="midnightblue" points="1045.86,-409.51 1055.97,-406.32 1046.08,-402.51 1045.86,-409.51"/>
</g>
<!-- Node3 -->
<g id="node3" class="node">
<title>Node3</title>
<g id="a_node3"><a xlink:href="../../d8/df1/add__io__to__python_8cpp.html" target="_top" xlink:title=" ">
<polygon fill="none" stroke="black" points="205,-300.5 205,-341.5 392,-341.5 392,-300.5 205,-300.5"/>
<text text-anchor="start" x="213" y="-329.5" font-family="Helvetica,sans-Serif" font-size="10.00">/home/runner/work/Documentation</text>
<text text-anchor="start" x="213" y="-318.5" font-family="Helvetica,sans-Serif" font-size="10.00">/Documentation/master/kratos</text>
<text text-anchor="middle" x="298.5" y="-307.5" font-family="Helvetica,sans-Serif" font-size="10.00">/python/add_io_to_python.cpp</text>
</a>
</g>
</g>
<!-- Node1&#45;&gt;Node3 -->
<g id="edge2" class="edge">
<title>Node1&#45;&gt;Node3</title>
<path fill="none" stroke="midnightblue" d="M1045.56,-408.43C900.08,-406.01 628,-395.54 400.5,-353 385.49,-350.19 369.56,-345.98 354.87,-341.55"/>
<polygon fill="midnightblue" stroke="midnightblue" points="1045.76,-411.94 1055.82,-408.59 1045.87,-404.94 1045.76,-411.94"/>
</g>
<!-- Node4 -->
<g id="node4" class="node">
<title>Node4</title>
<g id="a_node4"><a xlink:href="../../d6/df4/exact__mortar__segmentation__utility_8cpp.html" target="_top" xlink:title=" ">
<polygon fill="none" stroke="black" points="410,-295 410,-347 607,-347 607,-295 410,-295"/>
<text text-anchor="start" x="418" y="-335" font-family="Helvetica,sans-Serif" font-size="10.00">/home/runner/work/Documentation</text>
<text text-anchor="start" x="418" y="-324" font-family="Helvetica,sans-Serif" font-size="10.00">/Documentation/master/kratos</text>
<text text-anchor="start" x="418" y="-313" font-family="Helvetica,sans-Serif" font-size="10.00">/utilities/exact_mortar_segmentation</text>
<text text-anchor="middle" x="508.5" y="-302" font-family="Helvetica,sans-Serif" font-size="10.00">_utility.cpp</text>
</a>
</g>
</g>
<!-- Node1&#45;&gt;Node4 -->
<g id="edge3" class="edge">
<title>Node1&#45;&gt;Node4</title>
<path fill="none" stroke="midnightblue" d="M1045.4,-403.56C937.18,-396.64 763.28,-381.92 615.5,-353 606.96,-351.33 598.11,-349.29 589.34,-347.06"/>
<polygon fill="midnightblue" stroke="midnightblue" points="1045.46,-407.08 1055.66,-404.21 1045.9,-400.09 1045.46,-407.08"/>
</g>
<!-- Node5 -->
<g id="node5" class="node">
<title>Node5</title>
<g id="a_node5"><a xlink:href="../../d2/db6/interpolative__mapper__base_8h.html" target="_top" xlink:title=" ">
<polygon fill="none" stroke="black" points="625,-295 625,-347 828,-347 828,-295 625,-295"/>
<text text-anchor="start" x="633" y="-335" font-family="Helvetica,sans-Serif" font-size="10.00">/home/runner/work/Documentation</text>
<text text-anchor="start" x="633" y="-324" font-family="Helvetica,sans-Serif" font-size="10.00">/Documentation/master/applications</text>
<text text-anchor="start" x="633" y="-313" font-family="Helvetica,sans-Serif" font-size="10.00">/MappingApplication/custom_mappers</text>
<text text-anchor="middle" x="726.5" y="-302" font-family="Helvetica,sans-Serif" font-size="10.00">/interpolative_mapper_base.h</text>
</a>
</g>
</g>
<!-- Node1&#45;&gt;Node5 -->
<g id="edge4" class="edge">
<title>Node1&#45;&gt;Node5</title>
<path fill="none" stroke="midnightblue" d="M1045.83,-393.06C984.63,-383.01 905.81,-368.93 836.5,-353 828.57,-351.18 820.36,-349.14 812.16,-347.01"/>
<polygon fill="midnightblue" stroke="midnightblue" points="1045.45,-396.55 1055.88,-394.7 1046.58,-389.64 1045.45,-396.55"/>
</g>
<!-- Node14 -->
<g id="node14" class="node">
<title>Node14</title>
<g id="a_node14"><a xlink:href="../../db/d8e/interface__communicator__mpi_8cpp.html" target="_top" xlink:title=" ">
<polygon fill="none" stroke="black" points="846,-295 846,-347 1121,-347 1121,-295 846,-295"/>
<text text-anchor="start" x="854" y="-335" font-family="Helvetica,sans-Serif" font-size="10.00">/home/runner/work/Documentation</text>
<text text-anchor="start" x="854" y="-324" font-family="Helvetica,sans-Serif" font-size="10.00">/Documentation/master/applications</text>
<text text-anchor="start" x="854" y="-313" font-family="Helvetica,sans-Serif" font-size="10.00">/MappingApplication/mpi_extension</text>
<text text-anchor="middle" x="983.5" y="-302" font-family="Helvetica,sans-Serif" font-size="10.00">/custom_searching/interface_communicator_mpi.cpp</text>
</a>
</g>
</g>
<!-- Node1&#45;&gt;Node14 -->
<g id="edge19" class="edge">
<title>Node1&#45;&gt;Node14</title>
<path fill="none" stroke="midnightblue" d="M1103.26,-384.77C1080.86,-373.03 1053.98,-358.94 1031.36,-347.08"/>
<polygon fill="midnightblue" stroke="midnightblue" points="1101.76,-387.93 1112.25,-389.48 1105.01,-381.73 1101.76,-387.93"/>
</g>
<!-- Node15 -->
<g id="node15" class="node">
<title>Node15</title>
<g id="a_node15"><a xlink:href="../../d9/d02/control_8h.html" target="_top" xlink:title=" ">
<polygon fill="none" stroke="black" points="1268.5,-295 1268.5,-347 1462.5,-347 1462.5,-295 1268.5,-295"/>
<text text-anchor="start" x="1276.5" y="-335" font-family="Helvetica,sans-Serif" font-size="10.00">/home/runner/work/Documentation</text>
<text text-anchor="start" x="1276.5" y="-324" font-family="Helvetica,sans-Serif" font-size="10.00">/Documentation/master/applications</text>
<text text-anchor="start" x="1276.5" y="-313" font-family="Helvetica,sans-Serif" font-size="10.00">/OptimizationApplication/custom</text>
<text text-anchor="middle" x="1365.5" y="-302" font-family="Helvetica,sans-Serif" font-size="10.00">_controls/control.h</text>
</a>
</g>
</g>
<!-- Node1&#45;&gt;Node15 -->
<g id="edge20" class="edge">
<title>Node1&#45;&gt;Node15</title>
<path fill="none" stroke="midnightblue" d="M1207.34,-385.7C1236.95,-373.78 1273.01,-359.25 1303.22,-347.08"/>
<polygon fill="midnightblue" stroke="midnightblue" points="1205.94,-382.49 1197.97,-389.48 1208.56,-388.99 1205.94,-382.49"/>
</g>
<!-- Node21 -->
<g id="node21" class="node">
<title>Node21</title>
<g id="a_node21"><a xlink:href="../../d1/d90/implicit__vertex__morphing_8h.html" target="_top" xlink:title=" ">
<polygon fill="none" stroke="black" points="1105.5,-89.5 1105.5,-152.5 1311.5,-152.5 1311.5,-89.5 1105.5,-89.5"/>
<text text-anchor="start" x="1113.5" y="-140.5" font-family="Helvetica,sans-Serif" font-size="10.00">/home/runner/work/Documentation</text>
<text text-anchor="start" x="1113.5" y="-129.5" font-family="Helvetica,sans-Serif" font-size="10.00">/Documentation/master/applications</text>
<text text-anchor="start" x="1113.5" y="-118.5" font-family="Helvetica,sans-Serif" font-size="10.00">/OptimizationApplication/custom</text>
<text text-anchor="start" x="1113.5" y="-107.5" font-family="Helvetica,sans-Serif" font-size="10.00">_controls/shape_controls/vertex</text>
<text text-anchor="middle" x="1208.5" y="-96.5" font-family="Helvetica,sans-Serif" font-size="10.00">_morphing/implicit_vertex_morphing.h</text>
</a>
</g>
</g>
<!-- Node1&#45;&gt;Node21 -->
<g id="edge32" class="edge">
<title>Node1&#45;&gt;Node21</title>
<path fill="none" stroke="midnightblue" d="M1149.82,-379.35C1148.91,-353.95 1144.69,-317.13 1129.5,-289 1118.29,-268.25 1099.96,-274.61 1090.5,-253 1079.09,-226.94 1076.19,-213.58 1090.5,-189 1099.27,-173.93 1112.83,-161.98 1127.68,-152.6"/>
<polygon fill="midnightblue" stroke="midnightblue" points="1146.33,-379.55 1150.03,-389.48 1153.32,-379.4 1146.33,-379.55"/>
</g>
<!-- Node23 -->
<g id="node23" class="node">
<title>Node23</title>
<g id="a_node23"><a xlink:href="../../d6/d41/helmholtz__thickness_8h.html" target="_top" xlink:title=" ">
<polygon fill="none" stroke="black" points="1768.5,-89.5 1768.5,-152.5 1974.5,-152.5 1974.5,-89.5 1768.5,-89.5"/>
<text text-anchor="start" x="1776.5" y="-140.5" font-family="Helvetica,sans-Serif" font-size="10.00">/home/runner/work/Documentation</text>
<text text-anchor="start" x="1776.5" y="-129.5" font-family="Helvetica,sans-Serif" font-size="10.00">/Documentation/master/applications</text>
<text text-anchor="start" x="1776.5" y="-118.5" font-family="Helvetica,sans-Serif" font-size="10.00">/OptimizationApplication/custom</text>
<text text-anchor="start" x="1776.5" y="-107.5" font-family="Helvetica,sans-Serif" font-size="10.00">_controls/thickness_controls/helmholtz</text>
<text text-anchor="middle" x="1871.5" y="-96.5" font-family="Helvetica,sans-Serif" font-size="10.00">_thickness.h</text>
</a>
</g>
</g>
<!-- Node1&#45;&gt;Node23 -->
<g id="edge33" class="edge">
<title>Node1&#45;&gt;Node23</title>
<path fill="none" stroke="midnightblue" d="M1253.2,-400.98C1430.07,-385 1778.56,-342.7 1856.5,-253 1880.3,-225.61 1880.38,-181.92 1876.99,-152.61"/>
<polygon fill="midnightblue" stroke="midnightblue" points="1252.75,-397.51 1243.1,-401.88 1253.37,-404.48 1252.75,-397.51"/>
</g>
<!-- Node24 -->
<g id="node24" class="node">
<title>Node24</title>
<g id="a_node24"><a xlink:href="../../d6/d4b/particle__vtk__output_8h.html" target="_top" xlink:title=" ">
<polygon fill="none" stroke="black" points="1904,-295 1904,-347 2105,-347 2105,-295 1904,-295"/>
<text text-anchor="start" x="1912" y="-335" font-family="Helvetica,sans-Serif" font-size="10.00">/home/runner/work/Documentation</text>
<text text-anchor="start" x="1912" y="-324" font-family="Helvetica,sans-Serif" font-size="10.00">/Documentation/master/applications</text>
<text text-anchor="start" x="1912" y="-313" font-family="Helvetica,sans-Serif" font-size="10.00">/ParticleMechanicsApplication/custom</text>
<text text-anchor="middle" x="2004.5" y="-302" font-family="Helvetica,sans-Serif" font-size="10.00">_io/particle_vtk_output.h</text>
</a>
</g>
</g>
<!-- Node1&#45;&gt;Node24 -->
<g id="edge34" class="edge">
<title>Node1&#45;&gt;Node24</title>
<path fill="none" stroke="midnightblue" d="M1253.19,-407.28C1397.01,-403.5 1664.72,-391.45 1889.5,-353 1898.98,-351.38 1908.81,-349.32 1918.55,-347.05"/>
<polygon fill="midnightblue" stroke="midnightblue" points="1252.96,-403.78 1243.06,-407.54 1253.14,-410.78 1252.96,-403.78"/>
</g>
<!-- Node27 -->
<g id="node27" class="node">
<title>Node27</title>
<g id="a_node27"><a xlink:href="../../d6/d68/vtk__eigen__output_8h.html" target="_top" xlink:title=" ">
<polygon fill="none" stroke="black" points="2347.5,-295 2347.5,-347 2541.5,-347 2541.5,-295 2347.5,-295"/>
<text text-anchor="start" x="2355.5" y="-335" font-family="Helvetica,sans-Serif" font-size="10.00">/home/runner/work/Documentation</text>
<text text-anchor="start" x="2355.5" y="-324" font-family="Helvetica,sans-Serif" font-size="10.00">/Documentation/master/applications</text>
<text text-anchor="start" x="2355.5" y="-313" font-family="Helvetica,sans-Serif" font-size="10.00">/StructuralMechanicsApplication</text>
<text text-anchor="middle" x="2444.5" y="-302" font-family="Helvetica,sans-Serif" font-size="10.00">/custom_io/vtk_eigen_output.h</text>
</a>
</g>
</g>
<!-- Node1&#45;&gt;Node27 -->
<g id="edge37" class="edge">
<title>Node1&#45;&gt;Node27</title>
<path fill="none" stroke="midnightblue" d="M1253.38,-404.17C1430.15,-395.69 1800.71,-376.73 2113.5,-353 2192.2,-347.03 2281.27,-338.59 2347.18,-332.03"/>
<polygon fill="midnightblue" stroke="midnightblue" points="1253.13,-400.68 1243.31,-404.65 1253.47,-407.67 1253.13,-400.68"/>
</g>
<!-- Node30 -->
<g id="node30" class="node">
<title>Node30</title>
<g id="a_node30"><a xlink:href="../../d2/da6/formfinding__strategy_8hpp.html" target="_top" xlink:title=" ">
<polygon fill="none" stroke="black" points="2689,-289.5 2689,-352.5 2892,-352.5 2892,-289.5 2689,-289.5"/>
<text text-anchor="start" x="2697" y="-340.5" font-family="Helvetica,sans-Serif" font-size="10.00">/home/runner/work/Documentation</text>
<text text-anchor="start" x="2697" y="-329.5" font-family="Helvetica,sans-Serif" font-size="10.00">/Documentation/master/applications</text>
<text text-anchor="start" x="2697" y="-318.5" font-family="Helvetica,sans-Serif" font-size="10.00">/StructuralMechanicsApplication</text>
<text text-anchor="start" x="2697" y="-307.5" font-family="Helvetica,sans-Serif" font-size="10.00">/custom_strategies/custom_strategies</text>
<text text-anchor="middle" x="2790.5" y="-296.5" font-family="Helvetica,sans-Serif" font-size="10.00">/formfinding_strategy.hpp</text>
</a>
</g>
</g>
<!-- Node1&#45;&gt;Node30 -->
<g id="edge40" class="edge">
<title>Node1&#45;&gt;Node30</title>
<path fill="none" stroke="midnightblue" d="M1253.27,-407.99C1485.87,-405.04 2066.51,-393.85 2550.5,-353 2596.03,-349.16 2646.18,-342.99 2688.82,-337.16"/>
<polygon fill="midnightblue" stroke="midnightblue" points="1253.09,-404.49 1243.13,-408.12 1253.18,-411.49 1253.09,-404.49"/>
</g>
<!-- Node6 -->
<g id="node6" class="node">
<title>Node6</title>
<g id="a_node6"><a xlink:href="../../d6/d70/barycentric__mapper_8h.html" target="_top" xlink:title=" ">
<polygon fill="none" stroke="black" points="797,-195 797,-247 1000,-247 1000,-195 797,-195"/>
<text text-anchor="start" x="805" y="-235" font-family="Helvetica,sans-Serif" font-size="10.00">/home/runner/work/Documentation</text>
<text text-anchor="start" x="805" y="-224" font-family="Helvetica,sans-Serif" font-size="10.00">/Documentation/master/applications</text>
<text text-anchor="start" x="805" y="-213" font-family="Helvetica,sans-Serif" font-size="10.00">/MappingApplication/custom_mappers</text>
<text text-anchor="middle" x="898.5" y="-202" font-family="Helvetica,sans-Serif" font-size="10.00">/barycentric_mapper.h</text>
</a>
</g>
</g>
<!-- Node5&#45;&gt;Node6 -->
<g id="edge5" class="edge">
<title>Node5&#45;&gt;Node6</title>
<path fill="none" stroke="midnightblue" d="M779.75,-289.66C803.69,-276.02 831.61,-260.11 854.36,-247.15"/>
<polygon fill="midnightblue" stroke="midnightblue" points="777.75,-286.77 770.79,-294.76 781.22,-292.85 777.75,-286.77"/>
</g>
<!-- Node8 -->
<g id="node8" class="node">
<title>Node8</title>
<g id="a_node8"><a xlink:href="../../dc/df5/projection__3_d__2_d__mapper_8h.html" target="_top" xlink:title=" ">
<polygon fill="none" stroke="black" points="625,-95 625,-147 828,-147 828,-95 625,-95"/>
<text text-anchor="start" x="633" y="-135" font-family="Helvetica,sans-Serif" font-size="10.00">/home/runner/work/Documentation</text>
<text text-anchor="start" x="633" y="-124" font-family="Helvetica,sans-Serif" font-size="10.00">/Documentation/master/applications</text>
<text text-anchor="start" x="633" y="-113" font-family="Helvetica,sans-Serif" font-size="10.00">/MappingApplication/custom_mappers</text>
<text text-anchor="middle" x="726.5" y="-102" font-family="Helvetica,sans-Serif" font-size="10.00">/projection_3D_2D_mapper.h</text>
</a>
</g>
</g>
<!-- Node5&#45;&gt;Node8 -->
<g id="edge18" class="edge">
<title>Node5&#45;&gt;Node8</title>
<path fill="none" stroke="midnightblue" d="M726.5,-284.68C726.5,-245.13 726.5,-182.04 726.5,-147.19"/>
<polygon fill="midnightblue" stroke="midnightblue" points="723,-284.92 726.5,-294.92 730,-284.92 723,-284.92"/>
</g>
<!-- Node10 -->
<g id="node10" class="node">
<title>Node10</title>
<g id="a_node10"><a xlink:href="../../d7/dba/nearest__element__mapper_8h.html" target="_top" xlink:title=" ">
<polygon fill="none" stroke="black" points="246,-195 246,-247 449,-247 449,-195 246,-195"/>
<text text-anchor="start" x="254" y="-235" font-family="Helvetica,sans-Serif" font-size="10.00">/home/runner/work/Documentation</text>
<text text-anchor="start" x="254" y="-224" font-family="Helvetica,sans-Serif" font-size="10.00">/Documentation/master/applications</text>
<text text-anchor="start" x="254" y="-213" font-family="Helvetica,sans-Serif" font-size="10.00">/MappingApplication/custom_mappers</text>
<text text-anchor="middle" x="347.5" y="-202" font-family="Helvetica,sans-Serif" font-size="10.00">/nearest_element_mapper.h</text>
</a>
</g>
</g>
<!-- Node5&#45;&gt;Node10 -->
<g id="edge10" class="edge">
<title>Node5&#45;&gt;Node10</title>
<path fill="none" stroke="midnightblue" d="M627.94,-292.32C623.74,-291.19 619.58,-290.08 615.5,-289 560.67,-274.49 499.32,-259.09 449.16,-246.72"/>
<polygon fill="midnightblue" stroke="midnightblue" points="627.23,-295.76 637.8,-294.99 629.06,-289 627.23,-295.76"/>
</g>
<!-- Node12 -->
<g id="node12" class="node">
<title>Node12</title>
<g id="a_node12"><a xlink:href="../../d6/d2b/nearest__neighbor__mapper_8h.html" target="_top" xlink:title=" ">
<polygon fill="none" stroke="black" points="486,-195 486,-247 689,-247 689,-195 486,-195"/>
<text text-anchor="start" x="494" y="-235" font-family="Helvetica,sans-Serif" font-size="10.00">/home/runner/work/Documentation</text>
<text text-anchor="start" x="494" y="-224" font-family="Helvetica,sans-Serif" font-size="10.00">/Documentation/master/applications</text>
<text text-anchor="start" x="494" y="-213" font-family="Helvetica,sans-Serif" font-size="10.00">/MappingApplication/custom_mappers</text>
<text text-anchor="middle" x="587.5" y="-202" font-family="Helvetica,sans-Serif" font-size="10.00">/nearest_neighbor_mapper.h</text>
</a>
</g>
</g>
<!-- Node5&#45;&gt;Node12 -->
<g id="edge14" class="edge">
<title>Node5&#45;&gt;Node12</title>
<path fill="none" stroke="midnightblue" d="M682.44,-288.93C663.32,-275.46 641.23,-259.88 623.17,-247.15"/>
<polygon fill="midnightblue" stroke="midnightblue" points="680.51,-291.86 690.7,-294.76 684.55,-286.14 680.51,-291.86"/>
</g>
<!-- Node7 -->
<g id="node7" class="node">
<title>Node7</title>
<g id="a_node7"><a xlink:href="../../db/dbe/barycentric__mapper_8cpp.html" target="_top" xlink:title=" ">
<polygon fill="none" stroke="black" points="846,-95 846,-147 1049,-147 1049,-95 846,-95"/>
<text text-anchor="start" x="854" y="-135" font-family="Helvetica,sans-Serif" font-size="10.00">/home/runner/work/Documentation</text>
<text text-anchor="start" x="854" y="-124" font-family="Helvetica,sans-Serif" font-size="10.00">/Documentation/master/applications</text>
<text text-anchor="start" x="854" y="-113" font-family="Helvetica,sans-Serif" font-size="10.00">/MappingApplication/custom_mappers</text>
<text text-anchor="middle" x="947.5" y="-102" font-family="Helvetica,sans-Serif" font-size="10.00">/barycentric_mapper.cpp</text>
</a>
</g>
</g>
<!-- Node6&#45;&gt;Node7 -->
<g id="edge6" class="edge">
<title>Node6&#45;&gt;Node7</title>
<path fill="none" stroke="midnightblue" d="M915.59,-185.82C921.95,-173.1 929.04,-158.91 934.92,-147.15"/>
<polygon fill="midnightblue" stroke="midnightblue" points="912.46,-184.25 911.12,-194.76 918.72,-187.38 912.46,-184.25"/>
</g>
<!-- Node6&#45;&gt;Node8 -->
<g id="edge7" class="edge">
<title>Node6&#45;&gt;Node8</title>
<path fill="none" stroke="midnightblue" d="M845.25,-189.66C821.31,-176.02 793.39,-160.11 770.64,-147.15"/>
<polygon fill="midnightblue" stroke="midnightblue" points="843.78,-192.85 854.21,-194.76 847.25,-186.77 843.78,-192.85"/>
</g>
<!-- Node9 -->
<g id="node9" class="node">
<title>Node9</title>
<g id="a_node9"><a xlink:href="../../da/d85/mapping__application_8cpp.html" target="_top" xlink:title=" ">
<polygon fill="none" stroke="black" points="430.5,-6 430.5,-47 672.5,-47 672.5,-6 430.5,-6"/>
<text text-anchor="start" x="438.5" y="-35" font-family="Helvetica,sans-Serif" font-size="10.00">/home/runner/work/Documentation</text>
<text text-anchor="start" x="438.5" y="-24" font-family="Helvetica,sans-Serif" font-size="10.00">/Documentation/master/applications</text>
<text text-anchor="middle" x="551.5" y="-13" font-family="Helvetica,sans-Serif" font-size="10.00">/MappingApplication/mapping_application.cpp</text>
</a>
</g>
</g>
<!-- Node6&#45;&gt;Node9 -->
<g id="edge9" class="edge">
<title>Node6&#45;&gt;Node9</title>
<path fill="none" stroke="midnightblue" d="M1009.34,-193.28C1028.37,-183.69 1045.77,-170.67 1057.5,-153 1073.23,-129.3 1076.36,-110.29 1057.5,-89 1032.36,-60.62 814.12,-42.68 672.58,-33.91"/>
<polygon fill="midnightblue" stroke="midnightblue" points="1007.74,-190.16 1000.18,-197.58 1010.72,-196.49 1007.74,-190.16"/>
</g>
<!-- Node8&#45;&gt;Node9 -->
<g id="edge8" class="edge">
<title>Node8&#45;&gt;Node9</title>
<path fill="none" stroke="midnightblue" d="M670.27,-90.28C643.55,-76.15 612.35,-59.66 588.63,-47.13"/>
<polygon fill="midnightblue" stroke="midnightblue" points="668.67,-93.39 679.14,-94.97 671.94,-87.2 668.67,-93.39"/>
</g>
<!-- Node10&#45;&gt;Node8 -->
<g id="edge12" class="edge">
<title>Node10&#45;&gt;Node8</title>
<path fill="none" stroke="midnightblue" d="M458.99,-192.85C507.2,-180.93 564.21,-166.57 615.5,-153 622.75,-151.08 630.26,-149.06 637.8,-147.01"/>
<polygon fill="midnightblue" stroke="midnightblue" points="458.03,-189.48 449.16,-195.28 459.71,-196.28 458.03,-189.48"/>
</g>
<!-- Node10&#45;&gt;Node9 -->
<g id="edge13" class="edge">
<title>Node10&#45;&gt;Node9</title>
<path fill="none" stroke="midnightblue" d="M347.01,-184.69C348.47,-155.63 355.09,-115.12 378.5,-89 395.95,-69.54 419.97,-56.23 444.56,-47.14"/>
<polygon fill="midnightblue" stroke="midnightblue" points="343.5,-184.72 346.68,-194.83 350.5,-184.95 343.5,-184.72"/>
</g>
<!-- Node11 -->
<g id="node11" class="node">
<title>Node11</title>
<g id="a_node11"><a xlink:href="../../d4/d8d/nearest__element__mapper_8cpp.html" target="_top" xlink:title=" ">
<polygon fill="none" stroke="black" points="106,-95 106,-147 309,-147 309,-95 106,-95"/>
<text text-anchor="start" x="114" y="-135" font-family="Helvetica,sans-Serif" font-size="10.00">/home/runner/work/Documentation</text>
<text text-anchor="start" x="114" y="-124" font-family="Helvetica,sans-Serif" font-size="10.00">/Documentation/master/applications</text>
<text text-anchor="start" x="114" y="-113" font-family="Helvetica,sans-Serif" font-size="10.00">/MappingApplication/custom_mappers</text>
<text text-anchor="middle" x="207.5" y="-102" font-family="Helvetica,sans-Serif" font-size="10.00">/nearest_element_mapper.cpp</text>
</a>
</g>
</g>
<!-- Node10&#45;&gt;Node11 -->
<g id="edge11" class="edge">
<title>Node10&#45;&gt;Node11</title>
<path fill="none" stroke="midnightblue" d="M303.12,-188.93C283.87,-175.46 261.62,-159.88 243.43,-147.15"/>
<polygon fill="midnightblue" stroke="midnightblue" points="301.25,-191.9 311.45,-194.76 305.26,-186.16 301.25,-191.9"/>
</g>
<!-- Node12&#45;&gt;Node8 -->
<g id="edge16" class="edge">
<title>Node12&#45;&gt;Node8</title>
<path fill="none" stroke="midnightblue" d="M631.56,-188.93C650.68,-175.46 672.77,-159.88 690.83,-147.15"/>
<polygon fill="midnightblue" stroke="midnightblue" points="629.45,-186.14 623.3,-194.76 633.49,-191.86 629.45,-186.14"/>
</g>
<!-- Node12&#45;&gt;Node9 -->
<g id="edge17" class="edge">
<title>Node12&#45;&gt;Node9</title>
<path fill="none" stroke="midnightblue" d="M475.93,-193.22C439.32,-182.02 405.23,-168.09 394.5,-153 378.01,-129.82 378.47,-112.5 394.5,-89 407.78,-69.53 428.23,-56.23 450.03,-47.14"/>
<polygon fill="midnightblue" stroke="midnightblue" points="475.2,-196.65 485.78,-196.15 477.2,-189.95 475.2,-196.65"/>
</g>
<!-- Node13 -->
<g id="node13" class="node">
<title>Node13</title>
<g id="a_node13"><a xlink:href="../../dd/d78/nearest__neighbor__mapper_8cpp.html" target="_top" xlink:title=" ">
<polygon fill="none" stroke="black" points="404,-95 404,-147 607,-147 607,-95 404,-95"/>
<text text-anchor="start" x="412" y="-135" font-family="Helvetica,sans-Serif" font-size="10.00">/home/runner/work/Documentation</text>
<text text-anchor="start" x="412" y="-124" font-family="Helvetica,sans-Serif" font-size="10.00">/Documentation/master/applications</text>
<text text-anchor="start" x="412" y="-113" font-family="Helvetica,sans-Serif" font-size="10.00">/MappingApplication/custom_mappers</text>
<text text-anchor="middle" x="505.5" y="-102" font-family="Helvetica,sans-Serif" font-size="10.00">/nearest_neighbor_mapper.cpp</text>
</a>
</g>
</g>
<!-- Node12&#45;&gt;Node13 -->
<g id="edge15" class="edge">
<title>Node12&#45;&gt;Node13</title>
<path fill="none" stroke="midnightblue" d="M559.83,-186.93C548.95,-173.93 536.67,-159.26 526.55,-147.15"/>
<polygon fill="midnightblue" stroke="midnightblue" points="557.28,-189.34 566.38,-194.76 562.65,-184.85 557.28,-189.34"/>
</g>
<!-- Node16 -->
<g id="node16" class="node">
<title>Node16</title>
<g id="a_node16"><a xlink:href="../../d6/d8f/material__control_8h.html" target="_top" xlink:title=" ">
<polygon fill="none" stroke="black" points="1335.5,-195 1335.5,-247 1577.5,-247 1577.5,-195 1335.5,-195"/>
<text text-anchor="start" x="1343.5" y="-235" font-family="Helvetica,sans-Serif" font-size="10.00">/home/runner/work/Documentation</text>
<text text-anchor="start" x="1343.5" y="-224" font-family="Helvetica,sans-Serif" font-size="10.00">/Documentation/master/applications</text>
<text text-anchor="start" x="1343.5" y="-213" font-family="Helvetica,sans-Serif" font-size="10.00">/OptimizationApplication/custom</text>
<text text-anchor="middle" x="1456.5" y="-202" font-family="Helvetica,sans-Serif" font-size="10.00">_controls/material_controls/material_control.h</text>
</a>
</g>
</g>
<!-- Node15&#45;&gt;Node16 -->
<g id="edge21" class="edge">
<title>Node15&#45;&gt;Node16</title>
<path fill="none" stroke="midnightblue" d="M1395.87,-287.29C1408.02,-274.21 1421.8,-259.37 1433.14,-247.15"/>
<polygon fill="midnightblue" stroke="midnightblue" points="1393.17,-285.05 1388.93,-294.76 1398.3,-289.82 1393.17,-285.05"/>
</g>
<!-- Node20 -->
<g id="node20" class="node">
<title>Node20</title>
<g id="a_node20"><a xlink:href="../../d2/dd5/shape__control_8h.html" target="_top" xlink:title=" ">
<polygon fill="none" stroke="black" points="1099.5,-195 1099.5,-247 1317.5,-247 1317.5,-195 1099.5,-195"/>
<text text-anchor="start" x="1107.5" y="-235" font-family="Helvetica,sans-Serif" font-size="10.00">/home/runner/work/Documentation</text>
<text text-anchor="start" x="1107.5" y="-224" font-family="Helvetica,sans-Serif" font-size="10.00">/Documentation/master/applications</text>
<text text-anchor="start" x="1107.5" y="-213" font-family="Helvetica,sans-Serif" font-size="10.00">/OptimizationApplication/custom</text>
<text text-anchor="middle" x="1208.5" y="-202" font-family="Helvetica,sans-Serif" font-size="10.00">_controls/shape_controls/shape_control.h</text>
</a>
</g>
</g>
<!-- Node15&#45;&gt;Node20 -->
<g id="edge26" class="edge">
<title>Node15&#45;&gt;Node20</title>
<path fill="none" stroke="midnightblue" d="M1316.31,-289.3C1294.59,-275.74 1269.38,-260 1248.79,-247.15"/>
<polygon fill="midnightblue" stroke="midnightblue" points="1314.73,-292.44 1325.07,-294.76 1318.44,-286.5 1314.73,-292.44"/>
</g>
<!-- Node22 -->
<g id="node22" class="node">
<title>Node22</title>
<g id="a_node22"><a xlink:href="../../de/d2b/thickness__control_8h.html" target="_top" xlink:title=" ">
<polygon fill="none" stroke="black" points="1595.5,-195 1595.5,-247 1847.5,-247 1847.5,-195 1595.5,-195"/>
<text text-anchor="start" x="1603.5" y="-235" font-family="Helvetica,sans-Serif" font-size="10.00">/home/runner/work/Documentation</text>
<text text-anchor="start" x="1603.5" y="-224" font-family="Helvetica,sans-Serif" font-size="10.00">/Documentation/master/applications</text>
<text text-anchor="start" x="1603.5" y="-213" font-family="Helvetica,sans-Serif" font-size="10.00">/OptimizationApplication/custom</text>
<text text-anchor="middle" x="1721.5" y="-202" font-family="Helvetica,sans-Serif" font-size="10.00">_controls/thickness_controls/thickness_control.h</text>
</a>
</g>
</g>
<!-- Node15&#45;&gt;Node22 -->
<g id="edge29" class="edge">
<title>Node15&#45;&gt;Node22</title>
<path fill="none" stroke="midnightblue" d="M1466.55,-292.18C1518.15,-277.98 1580.43,-260.83 1630.52,-247.04"/>
<polygon fill="midnightblue" stroke="midnightblue" points="1465.43,-288.86 1456.72,-294.89 1467.29,-295.61 1465.43,-288.86"/>
</g>
<!-- Node17 -->
<g id="node17" class="node">
<title>Node17</title>
<g id="a_node17"><a xlink:href="../../d8/dcc/helmholtz__material_8h.html" target="_top" xlink:title=" ">
<polygon fill="none" stroke="black" points="1549,-89.5 1549,-152.5 1750,-152.5 1750,-89.5 1549,-89.5"/>
<text text-anchor="start" x="1557" y="-140.5" font-family="Helvetica,sans-Serif" font-size="10.00">/home/runner/work/Documentation</text>
<text text-anchor="start" x="1557" y="-129.5" font-family="Helvetica,sans-Serif" font-size="10.00">/Documentation/master/applications</text>
<text text-anchor="start" x="1557" y="-118.5" font-family="Helvetica,sans-Serif" font-size="10.00">/OptimizationApplication/custom</text>
<text text-anchor="start" x="1557" y="-107.5" font-family="Helvetica,sans-Serif" font-size="10.00">_controls/material_controls/helmholtz</text>
<text text-anchor="middle" x="1649.5" y="-96.5" font-family="Helvetica,sans-Serif" font-size="10.00">_material.h</text>
</a>
</g>
</g>
<!-- Node16&#45;&gt;Node17 -->
<g id="edge22" class="edge">
<title>Node16&#45;&gt;Node17</title>
<path fill="none" stroke="midnightblue" d="M1515.08,-190.25C1538.53,-178.35 1565.53,-164.64 1589.15,-152.64"/>
<polygon fill="midnightblue" stroke="midnightblue" points="1513.28,-187.24 1505.95,-194.89 1516.45,-193.48 1513.28,-187.24"/>
</g>
<!-- Node19 -->
<g id="node19" class="node">
<title>Node19</title>
<g id="a_node19"><a xlink:href="../../de/db3/helmholtz__partition_8h.html" target="_top" xlink:title=" ">
<polygon fill="none" stroke="black" points="1330,-89.5 1330,-152.5 1531,-152.5 1531,-89.5 1330,-89.5"/>
<text text-anchor="start" x="1338" y="-140.5" font-family="Helvetica,sans-Serif" font-size="10.00">/home/runner/work/Documentation</text>
<text text-anchor="start" x="1338" y="-129.5" font-family="Helvetica,sans-Serif" font-size="10.00">/Documentation/master/applications</text>
<text text-anchor="start" x="1338" y="-118.5" font-family="Helvetica,sans-Serif" font-size="10.00">/OptimizationApplication/custom</text>
<text text-anchor="start" x="1338" y="-107.5" font-family="Helvetica,sans-Serif" font-size="10.00">_controls/material_controls/helmholtz</text>
<text text-anchor="middle" x="1430.5" y="-96.5" font-family="Helvetica,sans-Serif" font-size="10.00">_partition.h</text>
</a>
</g>
</g>
<!-- Node16&#45;&gt;Node19 -->
<g id="edge24" class="edge">
<title>Node16&#45;&gt;Node19</title>
<path fill="none" stroke="midnightblue" d="M1447.22,-185.02C1444.42,-174.48 1441.38,-162.99 1438.66,-152.75"/>
<polygon fill="midnightblue" stroke="midnightblue" points="1443.86,-185.99 1449.8,-194.76 1450.62,-184.2 1443.86,-185.99"/>
</g>
<!-- Node18 -->
<g id="node18" class="node">
<title>Node18</title>
<g id="a_node18"><a xlink:href="../../df/d8a/add__custom__controls__to__python_8cpp.html" target="_top" xlink:title=" ">
<polygon fill="none" stroke="black" points="1421.5,-0.5 1421.5,-52.5 1657.5,-52.5 1657.5,-0.5 1421.5,-0.5"/>
<text text-anchor="start" x="1429.5" y="-40.5" font-family="Helvetica,sans-Serif" font-size="10.00">/home/runner/work/Documentation</text>
<text text-anchor="start" x="1429.5" y="-29.5" font-family="Helvetica,sans-Serif" font-size="10.00">/Documentation/master/applications</text>
<text text-anchor="start" x="1429.5" y="-18.5" font-family="Helvetica,sans-Serif" font-size="10.00">/OptimizationApplication/custom</text>
<text text-anchor="middle" x="1539.5" y="-7.5" font-family="Helvetica,sans-Serif" font-size="10.00">_python/add_custom_controls_to_python.cpp</text>
</a>
</g>
</g>
<!-- Node17&#45;&gt;Node18 -->
<g id="edge23" class="edge">
<title>Node17&#45;&gt;Node18</title>
<path fill="none" stroke="midnightblue" d="M1605.4,-82.91C1593.36,-72.79 1580.6,-62.06 1569.55,-52.77"/>
<polygon fill="midnightblue" stroke="midnightblue" points="1603.27,-85.7 1613.18,-89.46 1607.78,-80.34 1603.27,-85.7"/>
</g>
<!-- Node19&#45;&gt;Node18 -->
<g id="edge25" class="edge">
<title>Node19&#45;&gt;Node18</title>
<path fill="none" stroke="midnightblue" d="M1474.2,-82.91C1486.13,-72.79 1498.77,-62.06 1509.73,-52.77"/>
<polygon fill="midnightblue" stroke="midnightblue" points="1471.85,-80.32 1466.49,-89.46 1476.38,-85.65 1471.85,-80.32"/>
</g>
<!-- Node20&#45;&gt;Node21 -->
<g id="edge27" class="edge">
<title>Node20&#45;&gt;Node21</title>
<path fill="none" stroke="midnightblue" d="M1208.5,-184.69C1208.5,-174.24 1208.5,-162.89 1208.5,-152.75"/>
<polygon fill="midnightblue" stroke="midnightblue" points="1205,-184.76 1208.5,-194.76 1212,-184.76 1205,-184.76"/>
</g>
<!-- Node21&#45;&gt;Node18 -->
<g id="edge28" class="edge">
<title>Node21&#45;&gt;Node18</title>
<path fill="none" stroke="midnightblue" d="M1321.57,-88.4C1363.52,-76.68 1410.48,-63.56 1450.03,-52.5"/>
<polygon fill="midnightblue" stroke="midnightblue" points="1320.56,-85.05 1311.87,-91.11 1322.44,-91.79 1320.56,-85.05"/>
</g>
<!-- Node22&#45;&gt;Node23 -->
<g id="edge30" class="edge">
<title>Node22&#45;&gt;Node23</title>
<path fill="none" stroke="midnightblue" d="M1768.68,-189.17C1786.55,-177.5 1806.88,-164.22 1824.71,-152.57"/>
<polygon fill="midnightblue" stroke="midnightblue" points="1766.59,-186.36 1760.13,-194.76 1770.41,-192.22 1766.59,-186.36"/>
</g>
<!-- Node23&#45;&gt;Node18 -->
<g id="edge31" class="edge">
<title>Node23&#45;&gt;Node18</title>
<path fill="none" stroke="midnightblue" d="M1758.53,-88.53C1716.43,-76.8 1669.24,-63.65 1629.48,-52.57"/>
<polygon fill="midnightblue" stroke="midnightblue" points="1757.7,-91.93 1768.27,-91.24 1759.58,-85.18 1757.7,-91.93"/>
</g>
<!-- Node25 -->
<g id="node25" class="node">
<title>Node25</title>
<g id="a_node25"><a xlink:href="../../d0/d9e/particle__vtk__output_8cpp.html" target="_top" xlink:title=" ">
<polygon fill="none" stroke="black" points="1904,-195 1904,-247 2105,-247 2105,-195 1904,-195"/>
<text text-anchor="start" x="1912" y="-235" font-family="Helvetica,sans-Serif" font-size="10.00">/home/runner/work/Documentation</text>
<text text-anchor="start" x="1912" y="-224" font-family="Helvetica,sans-Serif" font-size="10.00">/Documentation/master/applications</text>
<text text-anchor="start" x="1912" y="-213" font-family="Helvetica,sans-Serif" font-size="10.00">/ParticleMechanicsApplication/custom</text>
<text text-anchor="middle" x="2004.5" y="-202" font-family="Helvetica,sans-Serif" font-size="10.00">_io/particle_vtk_output.cpp</text>
</a>
</g>
</g>
<!-- Node24&#45;&gt;Node25 -->
<g id="edge35" class="edge">
<title>Node24&#45;&gt;Node25</title>
<path fill="none" stroke="midnightblue" d="M2004.5,-284.7C2004.5,-272.28 2004.5,-258.57 2004.5,-247.15"/>
<polygon fill="midnightblue" stroke="midnightblue" points="2001,-284.76 2004.5,-294.76 2008,-284.76 2001,-284.76"/>
</g>
<!-- Node26 -->
<g id="node26" class="node">
<title>Node26</title>
<g id="a_node26"><a xlink:href="../../d3/d69/_particle_mechanics_application_2custom__python_2add__custom__io__to__python_8cpp.html" target="_top" xlink:title=" ">
<polygon fill="none" stroke="black" points="2123.5,-195 2123.5,-247 2329.5,-247 2329.5,-195 2123.5,-195"/>
<text text-anchor="start" x="2131.5" y="-235" font-family="Helvetica,sans-Serif" font-size="10.00">/home/runner/work/Documentation</text>
<text text-anchor="start" x="2131.5" y="-224" font-family="Helvetica,sans-Serif" font-size="10.00">/Documentation/master/applications</text>
<text text-anchor="start" x="2131.5" y="-213" font-family="Helvetica,sans-Serif" font-size="10.00">/ParticleMechanicsApplication/custom</text>
<text text-anchor="middle" x="2226.5" y="-202" font-family="Helvetica,sans-Serif" font-size="10.00">_python/add_custom_io_to_python.cpp</text>
</a>
</g>
</g>
<!-- Node24&#45;&gt;Node26 -->
<g id="edge36" class="edge">
<title>Node24&#45;&gt;Node26</title>
<path fill="none" stroke="midnightblue" d="M2070.55,-290.84C2102.11,-276.91 2139.51,-260.4 2169.77,-247.04"/>
<polygon fill="midnightblue" stroke="midnightblue" points="2069.12,-287.65 2061.38,-294.89 2071.94,-294.05 2069.12,-287.65"/>
</g>
<!-- Node28 -->
<g id="node28" class="node">
<title>Node28</title>
<g id="a_node28"><a xlink:href="../../db/d2c/vtk__eigen__output_8cpp.html" target="_top" xlink:title=" ">
<polygon fill="none" stroke="black" points="2347.5,-195 2347.5,-247 2541.5,-247 2541.5,-195 2347.5,-195"/>
<text text-anchor="start" x="2355.5" y="-235" font-family="Helvetica,sans-Serif" font-size="10.00">/home/runner/work/Documentation</text>
<text text-anchor="start" x="2355.5" y="-224" font-family="Helvetica,sans-Serif" font-size="10.00">/Documentation/master/applications</text>
<text text-anchor="start" x="2355.5" y="-213" font-family="Helvetica,sans-Serif" font-size="10.00">/StructuralMechanicsApplication</text>
<text text-anchor="middle" x="2444.5" y="-202" font-family="Helvetica,sans-Serif" font-size="10.00">/custom_io/vtk_eigen_output.cpp</text>
</a>
</g>
</g>
<!-- Node27&#45;&gt;Node28 -->
<g id="edge38" class="edge">
<title>Node27&#45;&gt;Node28</title>
<path fill="none" stroke="midnightblue" d="M2444.5,-284.7C2444.5,-272.28 2444.5,-258.57 2444.5,-247.15"/>
<polygon fill="midnightblue" stroke="midnightblue" points="2441,-284.76 2444.5,-294.76 2448,-284.76 2441,-284.76"/>
</g>
<!-- Node29 -->
<g id="node29" class="node">
<title>Node29</title>
<g id="a_node29"><a xlink:href="../../d2/d96/postprocess__eigenvalues__process_8cpp.html" target="_top" xlink:title=" ">
<polygon fill="none" stroke="black" points="2559.5,-189.5 2559.5,-252.5 2795.5,-252.5 2795.5,-189.5 2559.5,-189.5"/>
<text text-anchor="start" x="2567.5" y="-240.5" font-family="Helvetica,sans-Serif" font-size="10.00">/home/runner/work/Documentation</text>
<text text-anchor="start" x="2567.5" y="-229.5" font-family="Helvetica,sans-Serif" font-size="10.00">/Documentation/master/applications</text>
<text text-anchor="start" x="2567.5" y="-218.5" font-family="Helvetica,sans-Serif" font-size="10.00">/StructuralMechanicsApplication</text>
<text text-anchor="start" x="2567.5" y="-207.5" font-family="Helvetica,sans-Serif" font-size="10.00">/custom_processes/postprocess_eigenvalues</text>
<text text-anchor="middle" x="2677.5" y="-196.5" font-family="Helvetica,sans-Serif" font-size="10.00">_process.cpp</text>
</a>
</g>
</g>
<!-- Node27&#45;&gt;Node29 -->
<g id="edge39" class="edge">
<title>Node27&#45;&gt;Node29</title>
<path fill="none" stroke="midnightblue" d="M2513.73,-290.88C2542.38,-278.83 2575.62,-264.85 2604.64,-252.64"/>
<polygon fill="midnightblue" stroke="midnightblue" points="2512.06,-287.79 2504.2,-294.89 2514.78,-294.24 2512.06,-287.79"/>
</g>
<!-- Node31 -->
<g id="node31" class="node">
<title>Node31</title>
<g id="a_node31"><a xlink:href="../../d7/d8b/_structural_mechanics_application_2custom__python_2add__custom__strategies__to__python_8cpp.html" target="_top" xlink:title=" ">
<polygon fill="none" stroke="black" points="2814,-189.5 2814,-252.5 3025,-252.5 3025,-189.5 2814,-189.5"/>
<text text-anchor="start" x="2822" y="-240.5" font-family="Helvetica,sans-Serif" font-size="10.00">/home/runner/work/Documentation</text>
<text text-anchor="start" x="2822" y="-229.5" font-family="Helvetica,sans-Serif" font-size="10.00">/Documentation/master/applications</text>
<text text-anchor="start" x="2822" y="-218.5" font-family="Helvetica,sans-Serif" font-size="10.00">/StructuralMechanicsApplication</text>
<text text-anchor="start" x="2822" y="-207.5" font-family="Helvetica,sans-Serif" font-size="10.00">/custom_python/add_custom_strategies</text>
<text text-anchor="middle" x="2919.5" y="-196.5" font-family="Helvetica,sans-Serif" font-size="10.00">_to_python.cpp</text>
</a>
</g>
</g>
<!-- Node30&#45;&gt;Node31 -->
<g id="edge41" class="edge">
<title>Node30&#45;&gt;Node31</title>
<path fill="none" stroke="midnightblue" d="M2839.05,-283.11C2852.28,-273.06 2866.46,-262.29 2879.18,-252.63"/>
<polygon fill="midnightblue" stroke="midnightblue" points="2836.81,-280.42 2830.96,-289.26 2841.04,-286 2836.81,-280.42"/>
</g>
</g>
</svg>
