<?xml version="1.0" encoding="UTF-8" standalone="no"?>
<!DOCTYPE svg PUBLIC "-//W3C//DTD SVG 1.1//EN"
 "http://www.w3.org/Graphics/SVG/1.1/DTD/svg11.dtd">
<!-- Generated by graphviz version 2.43.0 (0)
 -->
<!-- Title: /home/runner/work/Documentation/Documentation/master/kratos/solving_strategies/builder_and_solvers/explicit_builder.h Pages: 1 -->
<!--zoomable 450 -->
<svg id="main" version="1.1" xmlns="http://www.w3.org/2000/svg" xmlns:xlink="http://www.w3.org/1999/xlink" xml:space="preserve" onload="init(evt)">
<style type="text/css"><![CDATA[
.edge:hover path { stroke: red; }
.edge:hover polygon { stroke: red; fill: red; }
]]></style>
<script type="text/javascript"><![CDATA[
var edges = document.getElementsByTagName('g');
if (edges && edges.length) {
  for (var i=0;i<edges.length;i++) {
    if (edges[i].id.substr(0,4)=='edge') {
      edges[i].setAttribute('class','edge');
    }
  }
}
]]></script>
        <defs>
                <circle id="rim" cx="0" cy="0" r="7"/>
                <circle id="rim2" cx="0" cy="0" r="3.5"/>
                <g id="zoomPlus">
                        <use xlink:href="#rim" fill="#404040">
                                <set attributeName="fill" to="#808080" begin="zoomplus.mouseover" end="zoomplus.mouseout"/>
                        </use>
                        <path d="M-4,0h8M0,-4v8" fill="none" stroke="white" stroke-width="1.5" pointer-events="none"/>
                </g>
                <g id="zoomMin">
                        <use xlink:href="#rim" fill="#404040">
                                <set attributeName="fill" to="#808080" begin="zoomminus.mouseover" end="zoomminus.mouseout"/>
                        </use>
                        <path d="M-4,0h8" fill="none" stroke="white" stroke-width="1.5" pointer-events="none"/>
                </g>
                <g id="dirArrow">
                        <path fill="none" stroke="white" stroke-width="1.5" d="M0,-3.0v7 M-2.5,-0.5L0,-3.0L2.5,-0.5"/>
                </g>
               <g id="resetDef">
                       <use xlink:href="#rim2" fill="#404040">
                               <set attributeName="fill" to="#808080" begin="reset.mouseover" end="reset.mouseout"/>
                       </use>
               </g>
        </defs>

<script type="text/javascript">
var viewWidth = 1494;
var viewHeight = 450;
var sectionId = 'dynsection-1';
</script>
<script xlink:href="../../svgpan.js"/>
<svg id="graph" class="graph">
<g id="viewport">
<title>/home/runner/work/Documentation/Documentation/master/kratos/solving_strategies/builder_and_solvers/explicit_builder.h</title>
<!-- Node1 -->
<g id="node1" class="node">
<title>Node1</title>
<g id="a_node1"><a xlink:title=" ">
<polygon fill="#bfbfbf" stroke="black" points="894,-389.5 894,-441.5 1081,-441.5 1081,-389.5 894,-389.5"/>
<text text-anchor="start" x="902" y="-429.5" font-family="Helvetica,sans-Serif" font-size="10.00">/home/runner/work/Documentation</text>
<text text-anchor="start" x="902" y="-418.5" font-family="Helvetica,sans-Serif" font-size="10.00">/Documentation/master/kratos</text>
<text text-anchor="start" x="902" y="-407.5" font-family="Helvetica,sans-Serif" font-size="10.00">/solving_strategies/builder</text>
<text text-anchor="middle" x="987.5" y="-396.5" font-family="Helvetica,sans-Serif" font-size="10.00">_and_solvers/explicit_builder.h</text>
</a>
</g>
</g>
<!-- Node2 -->
<g id="node2" class="node">
<title>Node2</title>
<g id="a_node2"><a xlink:href="../../dd/dc1/register__factories_8h.html" target="_top" xlink:title=" ">
<polygon fill="none" stroke="black" points="315,-306 315,-347 502,-347 502,-306 315,-306"/>
<text text-anchor="start" x="323" y="-335" font-family="Helvetica,sans-Serif" font-size="10.00">/home/runner/work/Documentation</text>
<text text-anchor="start" x="323" y="-324" font-family="Helvetica,sans-Serif" font-size="10.00">/Documentation/master/kratos</text>
<text text-anchor="middle" x="408.5" y="-313" font-family="Helvetica,sans-Serif" font-size="10.00">/factories/register_factories.h</text>
</a>
</g>
</g>
<!-- Node1&#45;&gt;Node2 -->
<g id="edge1" class="edge">
<title>Node1&#45;&gt;Node2</title>
<path fill="none" stroke="midnightblue" d="M883.85,-398.93C775.37,-382.63 606.57,-357.26 502.04,-341.55"/>
<polygon fill="midnightblue" stroke="midnightblue" points="883.42,-402.4 893.83,-400.43 884.46,-395.48 883.42,-402.4"/>
</g>
<!-- Node6 -->
<g id="node6" class="node">
<title>Node6</title>
<g id="a_node6"><a xlink:href="../../d8/dd7/add__strategies__to__python_8cpp.html" target="_top" xlink:title=" ">
<polygon fill="none" stroke="black" points="765,-117 765,-158 968,-158 968,-117 765,-117"/>
<text text-anchor="start" x="773" y="-146" font-family="Helvetica,sans-Serif" font-size="10.00">/home/runner/work/Documentation</text>
<text text-anchor="start" x="773" y="-135" font-family="Helvetica,sans-Serif" font-size="10.00">/Documentation/master/kratos</text>
<text text-anchor="middle" x="866.5" y="-124" font-family="Helvetica,sans-Serif" font-size="10.00">/python/add_strategies_to_python.cpp</text>
</a>
</g>
</g>
<!-- Node1&#45;&gt;Node6 -->
<g id="edge5" class="edge">
<title>Node1&#45;&gt;Node6</title>
<path fill="none" stroke="midnightblue" d="M916.71,-383.97C904.49,-375.64 893.24,-365.4 885.5,-353 846.68,-290.85 856.17,-198.13 862.75,-158.08"/>
<polygon fill="midnightblue" stroke="midnightblue" points="914.98,-387.01 925.29,-389.43 918.74,-381.11 914.98,-387.01"/>
</g>
<!-- Node7 -->
<g id="node7" class="node">
<title>Node7</title>
<g id="a_node7"><a xlink:href="../../dd/d90/explicit__builder_8cpp.html" target="_top" xlink:title=" ">
<polygon fill="none" stroke="black" points="1299,-300.5 1299,-352.5 1486,-352.5 1486,-300.5 1299,-300.5"/>
<text text-anchor="start" x="1307" y="-340.5" font-family="Helvetica,sans-Serif" font-size="10.00">/home/runner/work/Documentation</text>
<text text-anchor="start" x="1307" y="-329.5" font-family="Helvetica,sans-Serif" font-size="10.00">/Documentation/master/kratos</text>
<text text-anchor="start" x="1307" y="-318.5" font-family="Helvetica,sans-Serif" font-size="10.00">/solving_strategies/builder</text>
<text text-anchor="middle" x="1392.5" y="-307.5" font-family="Helvetica,sans-Serif" font-size="10.00">_and_solvers/explicit_builder.cpp</text>
</a>
</g>
</g>
<!-- Node1&#45;&gt;Node7 -->
<g id="edge6" class="edge">
<title>Node1&#45;&gt;Node7</title>
<path fill="none" stroke="midnightblue" d="M1091.43,-393.86C1148.76,-382.27 1221.16,-367.3 1285.5,-353 1289.88,-352.03 1294.36,-351.02 1298.88,-349.99"/>
<polygon fill="midnightblue" stroke="midnightblue" points="1090.38,-390.5 1081.27,-395.91 1091.77,-397.36 1090.38,-390.5"/>
</g>
<!-- Node8 -->
<g id="node8" class="node">
<title>Node8</title>
<g id="a_node8"><a xlink:href="../../d4/de7/explicit__solving__strategy_8h.html" target="_top" xlink:title=" ">
<polygon fill="none" stroke="black" points="894,-300.5 894,-352.5 1081,-352.5 1081,-300.5 894,-300.5"/>
<text text-anchor="start" x="902" y="-340.5" font-family="Helvetica,sans-Serif" font-size="10.00">/home/runner/work/Documentation</text>
<text text-anchor="start" x="902" y="-329.5" font-family="Helvetica,sans-Serif" font-size="10.00">/Documentation/master/kratos</text>
<text text-anchor="start" x="902" y="-318.5" font-family="Helvetica,sans-Serif" font-size="10.00">/solving_strategies/strategies</text>
<text text-anchor="middle" x="987.5" y="-307.5" font-family="Helvetica,sans-Serif" font-size="10.00">/explicit_solving_strategy.h</text>
</a>
</g>
</g>
<!-- Node1&#45;&gt;Node8 -->
<g id="edge7" class="edge">
<title>Node1&#45;&gt;Node8</title>
<path fill="none" stroke="midnightblue" d="M987.5,-379.19C987.5,-370.28 987.5,-360.9 987.5,-352.61"/>
<polygon fill="midnightblue" stroke="midnightblue" points="984,-379.34 987.5,-389.34 991,-379.34 984,-379.34"/>
</g>
<!-- Node11 -->
<g id="node11" class="node">
<title>Node11</title>
<g id="a_node11"><a xlink:href="../../da/d89/_fluid_dynamics_application_2custom__python_2add__custom__strategies__to__python_8cpp.html" target="_top" xlink:title=" ">
<polygon fill="none" stroke="black" points="1017.5,-0.5 1017.5,-63.5 1211.5,-63.5 1211.5,-0.5 1017.5,-0.5"/>
<text text-anchor="start" x="1025.5" y="-51.5" font-family="Helvetica,sans-Serif" font-size="10.00">/home/runner/work/Documentation</text>
<text text-anchor="start" x="1025.5" y="-40.5" font-family="Helvetica,sans-Serif" font-size="10.00">/Documentation/master/applications</text>
<text text-anchor="start" x="1025.5" y="-29.5" font-family="Helvetica,sans-Serif" font-size="10.00">/FluidDynamicsApplication/custom</text>
<text text-anchor="start" x="1025.5" y="-18.5" font-family="Helvetica,sans-Serif" font-size="10.00">_python/add_custom_strategies_to</text>
<text text-anchor="middle" x="1114.5" y="-7.5" font-family="Helvetica,sans-Serif" font-size="10.00">_python.cpp</text>
</a>
</g>
</g>
<!-- Node1&#45;&gt;Node11 -->
<g id="edge19" class="edge">
<title>Node1&#45;&gt;Node11</title>
<path fill="none" stroke="midnightblue" d="M1045.35,-384.22C1111.25,-345.85 1214.67,-272.77 1252.5,-175 1264.53,-143.91 1270.19,-128.25 1252.5,-100 1242.61,-84.2 1227.81,-72.03 1211.52,-62.69"/>
<polygon fill="midnightblue" stroke="midnightblue" points="1043.25,-381.39 1036.32,-389.4 1046.73,-387.46 1043.25,-381.39"/>
</g>
<!-- Node3 -->
<g id="node3" class="node">
<title>Node3</title>
<g id="a_node3"><a xlink:href="../../dd/d64/register__factories_8cpp.html" target="_top" xlink:title=" ">
<polygon fill="none" stroke="black" points="0,-217 0,-258 187,-258 187,-217 0,-217"/>
<text text-anchor="start" x="8" y="-246" font-family="Helvetica,sans-Serif" font-size="10.00">/home/runner/work/Documentation</text>
<text text-anchor="start" x="8" y="-235" font-family="Helvetica,sans-Serif" font-size="10.00">/Documentation/master/kratos</text>
<text text-anchor="middle" x="93.5" y="-224" font-family="Helvetica,sans-Serif" font-size="10.00">/factories/register_factories.cpp</text>
</a>
</g>
</g>
<!-- Node2&#45;&gt;Node3 -->
<g id="edge2" class="edge">
<title>Node2&#45;&gt;Node3</title>
<path fill="none" stroke="midnightblue" d="M327.89,-303.24C277.34,-289.28 212.79,-271.45 164.23,-258.03"/>
<polygon fill="midnightblue" stroke="midnightblue" points="327.24,-306.69 337.81,-305.98 329.1,-299.94 327.24,-306.69"/>
</g>
<!-- Node4 -->
<g id="node4" class="node">
<title>Node4</title>
<g id="a_node4"><a xlink:href="../../df/d65/add__factories__to__python_8cpp.html" target="_top" xlink:title=" ">
<polygon fill="none" stroke="black" points="205,-217 205,-258 402,-258 402,-217 205,-217"/>
<text text-anchor="start" x="213" y="-246" font-family="Helvetica,sans-Serif" font-size="10.00">/home/runner/work/Documentation</text>
<text text-anchor="start" x="213" y="-235" font-family="Helvetica,sans-Serif" font-size="10.00">/Documentation/master/kratos</text>
<text text-anchor="middle" x="303.5" y="-224" font-family="Helvetica,sans-Serif" font-size="10.00">/python/add_factories_to_python.cpp</text>
</a>
</g>
</g>
<!-- Node2&#45;&gt;Node4 -->
<g id="edge3" class="edge">
<title>Node2&#45;&gt;Node4</title>
<path fill="none" stroke="midnightblue" d="M376.93,-299.34C361.01,-286.15 342.03,-270.42 327.35,-258.26"/>
<polygon fill="midnightblue" stroke="midnightblue" points="375,-302.29 384.94,-305.98 379.47,-296.9 375,-302.29"/>
</g>
<!-- Node5 -->
<g id="node5" class="node">
<title>Node5</title>
<g id="a_node5"><a xlink:href="../../d4/de6/kratos__components_8cpp.html" target="_top" xlink:title=" ">
<polygon fill="none" stroke="black" points="420,-217 420,-258 607,-258 607,-217 420,-217"/>
<text text-anchor="start" x="428" y="-246" font-family="Helvetica,sans-Serif" font-size="10.00">/home/runner/work/Documentation</text>
<text text-anchor="start" x="428" y="-235" font-family="Helvetica,sans-Serif" font-size="10.00">/Documentation/master/kratos</text>
<text text-anchor="middle" x="513.5" y="-224" font-family="Helvetica,sans-Serif" font-size="10.00">/sources/kratos_components.cpp</text>
</a>
</g>
</g>
<!-- Node2&#45;&gt;Node5 -->
<g id="edge4" class="edge">
<title>Node2&#45;&gt;Node5</title>
<path fill="none" stroke="midnightblue" d="M440.07,-299.34C455.99,-286.15 474.97,-270.42 489.65,-258.26"/>
<polygon fill="midnightblue" stroke="midnightblue" points="437.53,-296.9 432.06,-305.98 442,-302.29 437.53,-296.9"/>
</g>
<!-- Node8&#45;&gt;Node6 -->
<g id="edge8" class="edge">
<title>Node8&#45;&gt;Node6</title>
<path fill="none" stroke="midnightblue" d="M949.39,-293.46C940.18,-284.54 930.87,-274.42 923.5,-264 899.45,-230.01 881.76,-184.25 872.9,-158.42"/>
<polygon fill="midnightblue" stroke="midnightblue" points="947.04,-296.05 956.72,-300.34 951.83,-290.94 947.04,-296.05"/>
</g>
<!-- Node9 -->
<g id="node9" class="node">
<title>Node9</title>
<g id="a_node9"><a xlink:href="../../db/dcb/explicit__solving__strategy__bfecc_8h.html" target="_top" xlink:title=" ">
<polygon fill="none" stroke="black" points="932,-211.5 932,-263.5 1119,-263.5 1119,-211.5 932,-211.5"/>
<text text-anchor="start" x="940" y="-251.5" font-family="Helvetica,sans-Serif" font-size="10.00">/home/runner/work/Documentation</text>
<text text-anchor="start" x="940" y="-240.5" font-family="Helvetica,sans-Serif" font-size="10.00">/Documentation/master/kratos</text>
<text text-anchor="start" x="940" y="-229.5" font-family="Helvetica,sans-Serif" font-size="10.00">/solving_strategies/strategies</text>
<text text-anchor="middle" x="1025.5" y="-218.5" font-family="Helvetica,sans-Serif" font-size="10.00">/explicit_solving_strategy_bfecc.h</text>
</a>
</g>
</g>
<!-- Node8&#45;&gt;Node9 -->
<g id="edge9" class="edge">
<title>Node8&#45;&gt;Node9</title>
<path fill="none" stroke="midnightblue" d="M1002.54,-291.06C1006.55,-281.9 1010.79,-272.17 1014.53,-263.61"/>
<polygon fill="midnightblue" stroke="midnightblue" points="999.29,-289.77 998.49,-300.34 1005.7,-292.57 999.29,-289.77"/>
</g>
<!-- Node12 -->
<g id="node12" class="node">
<title>Node12</title>
<g id="a_node12"><a xlink:href="../../dc/d85/explicit__solving__strategy__runge__kutta_8h.html" target="_top" xlink:title=" ">
<polygon fill="none" stroke="black" points="624.5,-211.5 624.5,-263.5 838.5,-263.5 838.5,-211.5 624.5,-211.5"/>
<text text-anchor="start" x="632.5" y="-251.5" font-family="Helvetica,sans-Serif" font-size="10.00">/home/runner/work/Documentation</text>
<text text-anchor="start" x="632.5" y="-240.5" font-family="Helvetica,sans-Serif" font-size="10.00">/Documentation/master/kratos</text>
<text text-anchor="start" x="632.5" y="-229.5" font-family="Helvetica,sans-Serif" font-size="10.00">/solving_strategies/strategies</text>
<text text-anchor="middle" x="731.5" y="-218.5" font-family="Helvetica,sans-Serif" font-size="10.00">/explicit_solving_strategy_runge_kutta.h</text>
</a>
</g>
</g>
<!-- Node8&#45;&gt;Node12 -->
<g id="edge13" class="edge">
<title>Node8&#45;&gt;Node12</title>
<path fill="none" stroke="midnightblue" d="M904.04,-297.14C872.15,-286.3 836.04,-274.03 805.13,-263.52"/>
<polygon fill="midnightblue" stroke="midnightblue" points="903.2,-300.55 913.8,-300.45 905.46,-293.92 903.2,-300.55"/>
</g>
<!-- Node9&#45;&gt;Node6 -->
<g id="edge10" class="edge">
<title>Node9&#45;&gt;Node6</title>
<path fill="none" stroke="midnightblue" d="M975.81,-205.88C950.49,-190.27 920.45,-171.75 898.28,-158.09"/>
<polygon fill="midnightblue" stroke="midnightblue" points="974.2,-209 984.55,-211.26 977.88,-203.04 974.2,-209"/>
</g>
<!-- Node10 -->
<g id="node10" class="node">
<title>Node10</title>
<g id="a_node10"><a xlink:href="../../d9/daf/compressible__navier__stokes__explicit__solving__strategy__bfecc_8h.html" target="_top" xlink:title=" ">
<polygon fill="none" stroke="black" points="986,-106 986,-169 1243,-169 1243,-106 986,-106"/>
<text text-anchor="start" x="994" y="-157" font-family="Helvetica,sans-Serif" font-size="10.00">/home/runner/work/Documentation</text>
<text text-anchor="start" x="994" y="-146" font-family="Helvetica,sans-Serif" font-size="10.00">/Documentation/master/applications</text>
<text text-anchor="start" x="994" y="-135" font-family="Helvetica,sans-Serif" font-size="10.00">/FluidDynamicsApplication/custom</text>
<text text-anchor="start" x="994" y="-124" font-family="Helvetica,sans-Serif" font-size="10.00">_strategies/strategies/compressible</text>
<text text-anchor="middle" x="1114.5" y="-113" font-family="Helvetica,sans-Serif" font-size="10.00">_navier_stokes_explicit_solving_strategy_bfecc.h</text>
</a>
</g>
</g>
<!-- Node9&#45;&gt;Node10 -->
<g id="edge11" class="edge">
<title>Node9&#45;&gt;Node10</title>
<path fill="none" stroke="midnightblue" d="M1055.21,-203.78C1065.33,-192.64 1076.6,-180.23 1086.57,-169.25"/>
<polygon fill="midnightblue" stroke="midnightblue" points="1052.55,-201.51 1048.42,-211.26 1057.73,-206.21 1052.55,-201.51"/>
</g>
<!-- Node10&#45;&gt;Node11 -->
<g id="edge12" class="edge">
<title>Node10&#45;&gt;Node11</title>
<path fill="none" stroke="midnightblue" d="M1114.5,-95.46C1114.5,-84.92 1114.5,-73.76 1114.5,-63.83"/>
<polygon fill="midnightblue" stroke="midnightblue" points="1111,-95.73 1114.5,-105.73 1118,-95.73 1111,-95.73"/>
</g>
<!-- Node12&#45;&gt;Node6 -->
<g id="edge14" class="edge">
<title>Node12&#45;&gt;Node6</title>
<path fill="none" stroke="midnightblue" d="M774.53,-205.26C795.85,-189.78 820.94,-171.57 839.52,-158.09"/>
<polygon fill="midnightblue" stroke="midnightblue" points="772.3,-202.56 766.27,-211.26 776.41,-208.22 772.3,-202.56"/>
</g>
<!-- Node13 -->
<g id="node13" class="node">
<title>Node13</title>
<g id="a_node13"><a xlink:href="../../d4/dc2/explicit__runge__kutta__4__eulerian__convdiff__strategy_8h.html" target="_top" xlink:title=" ">
<polygon fill="none" stroke="black" points="279,-106 279,-169 512,-169 512,-106 279,-106"/>
<text text-anchor="start" x="287" y="-157" font-family="Helvetica,sans-Serif" font-size="10.00">/home/runner/work/Documentation</text>
<text text-anchor="start" x="287" y="-146" font-family="Helvetica,sans-Serif" font-size="10.00">/Documentation/master/applications</text>
<text text-anchor="start" x="287" y="-135" font-family="Helvetica,sans-Serif" font-size="10.00">/ConvectionDiffusionApplication</text>
<text text-anchor="start" x="287" y="-124" font-family="Helvetica,sans-Serif" font-size="10.00">/custom_strategies/strategies/explicit</text>
<text text-anchor="middle" x="395.5" y="-113" font-family="Helvetica,sans-Serif" font-size="10.00">_runge_kutta_4_eulerian_convdiff_strategy.h</text>
</a>
</g>
</g>
<!-- Node12&#45;&gt;Node13 -->
<g id="edge15" class="edge">
<title>Node12&#45;&gt;Node13</title>
<path fill="none" stroke="midnightblue" d="M635.5,-208.53C599.43,-198.02 558.08,-185.96 520.5,-175 513.88,-173.07 507.06,-171.08 500.19,-169.07"/>
<polygon fill="midnightblue" stroke="midnightblue" points="634.94,-212.01 645.52,-211.45 636.9,-205.29 634.94,-212.01"/>
</g>
<!-- Node15 -->
<g id="node15" class="node">
<title>Node15</title>
<g id="a_node15"><a xlink:href="../../d3/d96/compressible__navier__stokes__explicit__solving__strategy__runge__kutta_8h.html" target="_top" xlink:title=" ">
<polygon fill="none" stroke="black" points="530,-100.5 530,-174.5 747,-174.5 747,-100.5 530,-100.5"/>
<text text-anchor="start" x="538" y="-162.5" font-family="Helvetica,sans-Serif" font-size="10.00">/home/runner/work/Documentation</text>
<text text-anchor="start" x="538" y="-151.5" font-family="Helvetica,sans-Serif" font-size="10.00">/Documentation/master/applications</text>
<text text-anchor="start" x="538" y="-140.5" font-family="Helvetica,sans-Serif" font-size="10.00">/FluidDynamicsApplication/custom</text>
<text text-anchor="start" x="538" y="-129.5" font-family="Helvetica,sans-Serif" font-size="10.00">_strategies/strategies/compressible</text>
<text text-anchor="start" x="538" y="-118.5" font-family="Helvetica,sans-Serif" font-size="10.00">_navier_stokes_explicit_solving_strategy</text>
<text text-anchor="middle" x="638.5" y="-107.5" font-family="Helvetica,sans-Serif" font-size="10.00">_runge_kutta.h</text>
</a>
</g>
</g>
<!-- Node12&#45;&gt;Node15 -->
<g id="edge17" class="edge">
<title>Node12&#45;&gt;Node15</title>
<path fill="none" stroke="midnightblue" d="M700.63,-203.97C691.74,-194.6 681.98,-184.32 672.89,-174.73"/>
<polygon fill="midnightblue" stroke="midnightblue" points="698.13,-206.42 707.55,-211.26 703.21,-201.6 698.13,-206.42"/>
</g>
<!-- Node14 -->
<g id="node14" class="node">
<title>Node14</title>
<g id="a_node14"><a xlink:href="../../da/dd9/_convection_diffusion_application_2custom__python_2add__custom__strategies__to__python_8cpp.html" target="_top" xlink:title=" ">
<polygon fill="none" stroke="black" points="290,-0.5 290,-63.5 501,-63.5 501,-0.5 290,-0.5"/>
<text text-anchor="start" x="298" y="-51.5" font-family="Helvetica,sans-Serif" font-size="10.00">/home/runner/work/Documentation</text>
<text text-anchor="start" x="298" y="-40.5" font-family="Helvetica,sans-Serif" font-size="10.00">/Documentation/master/applications</text>
<text text-anchor="start" x="298" y="-29.5" font-family="Helvetica,sans-Serif" font-size="10.00">/ConvectionDiffusionApplication</text>
<text text-anchor="start" x="298" y="-18.5" font-family="Helvetica,sans-Serif" font-size="10.00">/custom_python/add_custom_strategies</text>
<text text-anchor="middle" x="395.5" y="-7.5" font-family="Helvetica,sans-Serif" font-size="10.00">_to_python.cpp</text>
</a>
</g>
</g>
<!-- Node13&#45;&gt;Node14 -->
<g id="edge16" class="edge">
<title>Node13&#45;&gt;Node14</title>
<path fill="none" stroke="midnightblue" d="M395.5,-95.46C395.5,-84.92 395.5,-73.76 395.5,-63.83"/>
<polygon fill="midnightblue" stroke="midnightblue" points="392,-95.73 395.5,-105.73 399,-95.73 392,-95.73"/>
</g>
<!-- Node15&#45;&gt;Node11 -->
<g id="edge18" class="edge">
<title>Node15&#45;&gt;Node11</title>
<path fill="none" stroke="midnightblue" d="M756.98,-99.97C850.84,-77.12 947.46,-59.64 1017.37,-48.07"/>
<polygon fill="midnightblue" stroke="midnightblue" points="755.91,-96.63 747.03,-102.41 757.58,-103.43 755.91,-96.63"/>
</g>
</g>
</svg>
        <g id="navigator" transform="translate(0 0)" fill="#404254">
                <rect fill="#f2f5e9" fill-opacity="0.5" stroke="#606060" stroke-width=".5" x="0" y="0" width="60" height="60"/>
                <use id="zoomplus" xlink:href="#zoomPlus" x="17" y="9" onmousedown="handleZoom(evt,'in')"/>
                <use id="zoomminus" xlink:href="#zoomMin" x="42" y="9" onmousedown="handleZoom(evt,'out')"/>
                <use id="reset" xlink:href="#resetDef" x="30" y="36" onmousedown="handleReset()"/>
                <g id="arrowUp" xlink:href="#dirArrow" transform="translate(30 24)" onmousedown="handlePan(0,-1)">
                  <use xlink:href="#rim" fill="#404040">
                        <set attributeName="fill" to="#808080" begin="arrowUp.mouseover" end="arrowUp.mouseout"/>
                  </use>
                  <path fill="none" stroke="white" stroke-width="1.5" d="M0,-3.0v7 M-2.5,-0.5L0,-3.0L2.5,-0.5"/>
                </g>
                <g id="arrowRight" xlink:href="#dirArrow" transform="rotate(90) translate(36 -43)" onmousedown="handlePan(1,0)">
                  <use xlink:href="#rim" fill="#404040">
                        <set attributeName="fill" to="#808080" begin="arrowRight.mouseover" end="arrowRight.mouseout"/>
                  </use>
                  <path fill="none" stroke="white" stroke-width="1.5" d="M0,-3.0v7 M-2.5,-0.5L0,-3.0L2.5,-0.5"/>
                </g>
                <g id="arrowDown" xlink:href="#dirArrow" transform="rotate(180) translate(-30 -48)" onmousedown="handlePan(0,1)">
                  <use xlink:href="#rim" fill="#404040">
                        <set attributeName="fill" to="#808080" begin="arrowDown.mouseover" end="arrowDown.mouseout"/>
                  </use>
                  <path fill="none" stroke="white" stroke-width="1.5" d="M0,-3.0v7 M-2.5,-0.5L0,-3.0L2.5,-0.5"/>
                </g>
                <g id="arrowLeft" xlink:href="#dirArrow" transform="rotate(270) translate(-36 17)" onmousedown="handlePan(-1,0)">
                  <use xlink:href="#rim" fill="#404040">
                        <set attributeName="fill" to="#808080" begin="arrowLeft.mouseover" end="arrowLeft.mouseout"/>
                  </use>
                  <path fill="none" stroke="white" stroke-width="1.5" d="M0,-3.0v7 M-2.5,-0.5L0,-3.0L2.5,-0.5"/>
                </g>
        </g>
        <svg viewBox="0 0 15 15" width="100%" height="30px" preserveAspectRatio="xMaxYMin meet">
         <g id="arrow_out" transform="scale(0.3 0.3)">
          <a xlink:href="explicit__builder_8h__dep__incl_org.svg" target="_base">
           <rect id="button" ry="5" rx="5" y="6" x="6" height="38" width="38"
                fill="#f2f5e9" fill-opacity="0.5" stroke="#606060" stroke-width="1.0"/>
           <path id="arrow"
             d="M 11.500037,31.436501 C 11.940474,20.09759 22.043105,11.32322 32.158766,21.979434 L 37.068811,17.246167 C 37.068811,17.246167 37.088388,32 37.088388,32 L 22.160133,31.978069 C 22.160133,31.978069 26.997745,27.140456 26.997745,27.140456 C 18.528582,18.264221 13.291696,25.230495 11.500037,31.436501 z"
             style="fill:#404040;"/>
          </a>
         </g>
        </svg>
</svg>
