<?xml version="1.0" encoding="UTF-8" standalone="no"?>
<!DOCTYPE svg PUBLIC "-//W3C//DTD SVG 1.1//EN"
 "http://www.w3.org/Graphics/SVG/1.1/DTD/svg11.dtd">
<!-- Generated by graphviz version 2.43.0 (0)
 -->
<!-- Title: /home/runner/work/Documentation/Documentation/master/applications/MappingApplication/custom_utilities/mapper_utilities.h Pages: 1 -->
<!--zoomable 517 -->
<svg id="main" version="1.1" xmlns="http://www.w3.org/2000/svg" xmlns:xlink="http://www.w3.org/1999/xlink" xml:space="preserve" onload="init(evt)">
<style type="text/css"><![CDATA[
.edge:hover path { stroke: red; }
.edge:hover polygon { stroke: red; fill: red; }
]]></style>
<script type="text/javascript"><![CDATA[
var edges = document.getElementsByTagName('g');
if (edges && edges.length) {
  for (var i=0;i<edges.length;i++) {
    if (edges[i].id.substr(0,4)=='edge') {
      edges[i].setAttribute('class','edge');
    }
  }
}
]]></script>
        <defs>
                <circle id="rim" cx="0" cy="0" r="7"/>
                <circle id="rim2" cx="0" cy="0" r="3.5"/>
                <g id="zoomPlus">
                        <use xlink:href="#rim" fill="#404040">
                                <set attributeName="fill" to="#808080" begin="zoomplus.mouseover" end="zoomplus.mouseout"/>
                        </use>
                        <path d="M-4,0h8M0,-4v8" fill="none" stroke="white" stroke-width="1.5" pointer-events="none"/>
                </g>
                <g id="zoomMin">
                        <use xlink:href="#rim" fill="#404040">
                                <set attributeName="fill" to="#808080" begin="zoomminus.mouseover" end="zoomminus.mouseout"/>
                        </use>
                        <path d="M-4,0h8" fill="none" stroke="white" stroke-width="1.5" pointer-events="none"/>
                </g>
                <g id="dirArrow">
                        <path fill="none" stroke="white" stroke-width="1.5" d="M0,-3.0v7 M-2.5,-0.5L0,-3.0L2.5,-0.5"/>
                </g>
               <g id="resetDef">
                       <use xlink:href="#rim2" fill="#404040">
                               <set attributeName="fill" to="#808080" begin="reset.mouseover" end="reset.mouseout"/>
                       </use>
               </g>
        </defs>

<script type="text/javascript">
var viewWidth = 2097;
var viewHeight = 517;
var sectionId = 'dynsection-1';
</script>
<script xlink:href="../../svgpan.js"/>
<svg id="graph" class="graph">
<g id="viewport">
<title>/home/runner/work/Documentation/Documentation/master/applications/MappingApplication/custom_utilities/mapper_utilities.h</title>
<!-- Node1 -->
<g id="node1" class="node">
<title>Node1</title>
<g id="a_node1"><a xlink:title=" ">
<polygon fill="#bfbfbf" stroke="black" points="770,-456.5 770,-508.5 967,-508.5 967,-456.5 770,-456.5"/>
<text text-anchor="start" x="778" y="-496.5" font-family="Helvetica,sans-Serif" font-size="10.00">/home/runner/work/Documentation</text>
<text text-anchor="start" x="778" y="-485.5" font-family="Helvetica,sans-Serif" font-size="10.00">/Documentation/master/applications</text>
<text text-anchor="start" x="778" y="-474.5" font-family="Helvetica,sans-Serif" font-size="10.00">/MappingApplication/custom_utilities</text>
<text text-anchor="middle" x="868.5" y="-463.5" font-family="Helvetica,sans-Serif" font-size="10.00">/mapper_utilities.h</text>
</a>
</g>
</g>
<!-- Node2 -->
<g id="node2" class="node">
<title>Node2</title>
<g id="a_node2"><a xlink:href="../../d5/d7d/coupling__geometry__mapper_8cpp.html" target="_top" xlink:title=" ">
<polygon fill="none" stroke="black" points="0,-167.5 0,-219.5 203,-219.5 203,-167.5 0,-167.5"/>
<text text-anchor="start" x="8" y="-207.5" font-family="Helvetica,sans-Serif" font-size="10.00">/home/runner/work/Documentation</text>
<text text-anchor="start" x="8" y="-196.5" font-family="Helvetica,sans-Serif" font-size="10.00">/Documentation/master/applications</text>
<text text-anchor="start" x="8" y="-185.5" font-family="Helvetica,sans-Serif" font-size="10.00">/MappingApplication/custom_mappers</text>
<text text-anchor="middle" x="101.5" y="-174.5" font-family="Helvetica,sans-Serif" font-size="10.00">/coupling_geometry_mapper.cpp</text>
</a>
</g>
</g>
<!-- Node1&#45;&gt;Node2 -->
<g id="edge1" class="edge">
<title>Node1&#45;&gt;Node2</title>
<path fill="none" stroke="midnightblue" d="M759.65,-477.16C569.04,-468.84 189.91,-448.91 136.5,-420 86.93,-393.17 76.83,-373.3 58.5,-320 49.25,-293.1 49.96,-283.13 58.5,-256 62.65,-242.83 70.73,-230.02 78.78,-219.53"/>
<polygon fill="midnightblue" stroke="midnightblue" points="759.56,-480.65 769.7,-477.59 759.86,-473.66 759.56,-480.65"/>
</g>
<!-- Node3 -->
<g id="node3" class="node">
<title>Node3</title>
<g id="a_node3"><a xlink:href="../../d2/db6/interpolative__mapper__base_8h.html" target="_top" xlink:title=" ">
<polygon fill="none" stroke="black" points="778,-262 778,-314 981,-314 981,-262 778,-262"/>
<text text-anchor="start" x="786" y="-302" font-family="Helvetica,sans-Serif" font-size="10.00">/home/runner/work/Documentation</text>
<text text-anchor="start" x="786" y="-291" font-family="Helvetica,sans-Serif" font-size="10.00">/Documentation/master/applications</text>
<text text-anchor="start" x="786" y="-280" font-family="Helvetica,sans-Serif" font-size="10.00">/MappingApplication/custom_mappers</text>
<text text-anchor="middle" x="879.5" y="-269" font-family="Helvetica,sans-Serif" font-size="10.00">/interpolative_mapper_base.h</text>
</a>
</g>
</g>
<!-- Node1&#45;&gt;Node3 -->
<g id="edge2" class="edge">
<title>Node1&#45;&gt;Node3</title>
<path fill="none" stroke="midnightblue" d="M859.12,-446.54C857.2,-437.93 855.48,-428.68 854.5,-420 851.32,-391.73 849.45,-383.99 854.5,-356 857.08,-341.71 862.52,-326.48 867.67,-314.16"/>
<polygon fill="midnightblue" stroke="midnightblue" points="855.72,-447.36 861.42,-456.29 862.53,-445.75 855.72,-447.36"/>
</g>
<!-- Node12 -->
<g id="node12" class="node">
<title>Node12</title>
<g id="a_node12"><a xlink:href="../../d5/db3/_mapping_application_2custom__python_2add__custom__utilities__to__python_8cpp.html" target="_top" xlink:title=" ">
<polygon fill="none" stroke="black" points="165,-362 165,-414 360,-414 360,-362 165,-362"/>
<text text-anchor="start" x="173" y="-402" font-family="Helvetica,sans-Serif" font-size="10.00">/home/runner/work/Documentation</text>
<text text-anchor="start" x="173" y="-391" font-family="Helvetica,sans-Serif" font-size="10.00">/Documentation/master/applications</text>
<text text-anchor="start" x="173" y="-380" font-family="Helvetica,sans-Serif" font-size="10.00">/MappingApplication/custom_python</text>
<text text-anchor="middle" x="262.5" y="-369" font-family="Helvetica,sans-Serif" font-size="10.00">/add_custom_utilities_to_python.cpp</text>
</a>
</g>
</g>
<!-- Node1&#45;&gt;Node12 -->
<g id="edge17" class="edge">
<title>Node1&#45;&gt;Node12</title>
<path fill="none" stroke="midnightblue" d="M759.78,-473.13C658.15,-464.12 502.52,-447.29 369.5,-420 361.16,-418.29 352.53,-416.25 343.95,-414.05"/>
<polygon fill="midnightblue" stroke="midnightblue" points="759.48,-476.62 769.75,-474 760.1,-469.64 759.48,-476.62"/>
</g>
<!-- Node13 -->
<g id="node13" class="node">
<title>Node13</title>
<g id="a_node13"><a xlink:href="../../d6/d7f/interface__communicator_8cpp.html" target="_top" xlink:title=" ">
<polygon fill="none" stroke="black" points="378.5,-362 378.5,-414 586.5,-414 586.5,-362 378.5,-362"/>
<text text-anchor="start" x="386.5" y="-402" font-family="Helvetica,sans-Serif" font-size="10.00">/home/runner/work/Documentation</text>
<text text-anchor="start" x="386.5" y="-391" font-family="Helvetica,sans-Serif" font-size="10.00">/Documentation/master/applications</text>
<text text-anchor="start" x="386.5" y="-380" font-family="Helvetica,sans-Serif" font-size="10.00">/MappingApplication/custom_searching</text>
<text text-anchor="middle" x="482.5" y="-369" font-family="Helvetica,sans-Serif" font-size="10.00">/interface_communicator.cpp</text>
</a>
</g>
</g>
<!-- Node1&#45;&gt;Node13 -->
<g id="edge18" class="edge">
<title>Node1&#45;&gt;Node13</title>
<path fill="none" stroke="midnightblue" d="M759.9,-458.07C710,-447.02 650.12,-433.35 596.5,-420 588.94,-418.12 581.11,-416.11 573.26,-414.06"/>
<polygon fill="midnightblue" stroke="midnightblue" points="759.22,-461.5 769.74,-460.25 760.73,-454.67 759.22,-461.5"/>
</g>
<!-- Node14 -->
<g id="node14" class="node">
<title>Node14</title>
<g id="a_node14"><a xlink:href="../../d0/d3c/interface__vector__container_8cpp.html" target="_top" xlink:title=" ">
<polygon fill="none" stroke="black" points="68,-262 68,-314 265,-314 265,-262 68,-262"/>
<text text-anchor="start" x="76" y="-302" font-family="Helvetica,sans-Serif" font-size="10.00">/home/runner/work/Documentation</text>
<text text-anchor="start" x="76" y="-291" font-family="Helvetica,sans-Serif" font-size="10.00">/Documentation/master/applications</text>
<text text-anchor="start" x="76" y="-280" font-family="Helvetica,sans-Serif" font-size="10.00">/MappingApplication/custom_utilities</text>
<text text-anchor="middle" x="166.5" y="-269" font-family="Helvetica,sans-Serif" font-size="10.00">/interface_vector_container.cpp</text>
</a>
</g>
</g>
<!-- Node1&#45;&gt;Node14 -->
<g id="edge19" class="edge">
<title>Node1&#45;&gt;Node14</title>
<path fill="none" stroke="midnightblue" d="M759.62,-480.02C570.22,-476.3 196.39,-463.49 156.5,-420 130.36,-391.51 143.22,-343.32 154.89,-314"/>
<polygon fill="midnightblue" stroke="midnightblue" points="759.82,-483.52 769.88,-480.21 759.95,-476.52 759.82,-483.52"/>
</g>
<!-- Node15 -->
<g id="node15" class="node">
<title>Node15</title>
<g id="a_node15"><a xlink:href="../../d6/da0/interface__vector__container_8h.html" target="_top" xlink:title=" ">
<polygon fill="none" stroke="black" points="605,-362 605,-414 802,-414 802,-362 605,-362"/>
<text text-anchor="start" x="613" y="-402" font-family="Helvetica,sans-Serif" font-size="10.00">/home/runner/work/Documentation</text>
<text text-anchor="start" x="613" y="-391" font-family="Helvetica,sans-Serif" font-size="10.00">/Documentation/master/applications</text>
<text text-anchor="start" x="613" y="-380" font-family="Helvetica,sans-Serif" font-size="10.00">/MappingApplication/custom_utilities</text>
<text text-anchor="middle" x="703.5" y="-369" font-family="Helvetica,sans-Serif" font-size="10.00">/interface_vector_container.h</text>
</a>
</g>
</g>
<!-- Node1&#45;&gt;Node15 -->
<g id="edge20" class="edge">
<title>Node1&#45;&gt;Node15</title>
<path fill="none" stroke="midnightblue" d="M815.11,-451.57C793.5,-439.45 768.83,-425.62 748.19,-414.05"/>
<polygon fill="midnightblue" stroke="midnightblue" points="813.41,-454.63 823.85,-456.47 816.84,-448.53 813.41,-454.63"/>
</g>
<!-- Node18 -->
<g id="node18" class="node">
<title>Node18</title>
<g id="a_node18"><a xlink:href="../../d8/d67/interface__vector__container__mpi_8cpp.html" target="_top" xlink:title=" ">
<polygon fill="none" stroke="black" points="998.5,-256.5 998.5,-319.5 1192.5,-319.5 1192.5,-256.5 998.5,-256.5"/>
<text text-anchor="start" x="1006.5" y="-307.5" font-family="Helvetica,sans-Serif" font-size="10.00">/home/runner/work/Documentation</text>
<text text-anchor="start" x="1006.5" y="-296.5" font-family="Helvetica,sans-Serif" font-size="10.00">/Documentation/master/applications</text>
<text text-anchor="start" x="1006.5" y="-285.5" font-family="Helvetica,sans-Serif" font-size="10.00">/MappingApplication/mpi_extension</text>
<text text-anchor="start" x="1006.5" y="-274.5" font-family="Helvetica,sans-Serif" font-size="10.00">/custom_utilities/interface_vector</text>
<text text-anchor="middle" x="1095.5" y="-263.5" font-family="Helvetica,sans-Serif" font-size="10.00">_container_mpi.cpp</text>
</a>
</g>
</g>
<!-- Node1&#45;&gt;Node18 -->
<g id="edge38" class="edge">
<title>Node1&#45;&gt;Node18</title>
<path fill="none" stroke="midnightblue" d="M864.83,-446.38C863.92,-418.69 867.32,-380.75 888.5,-356 892.51,-351.31 946.43,-333.93 998.22,-318.05"/>
<polygon fill="midnightblue" stroke="midnightblue" points="861.34,-446.64 865.37,-456.44 868.33,-446.27 861.34,-446.64"/>
</g>
<!-- Node20 -->
<g id="node20" class="node">
<title>Node20</title>
<g id="a_node20"><a xlink:href="../../d6/def/mapper__utilities_8cpp.html" target="_top" xlink:title=" ">
<polygon fill="none" stroke="black" points="897,-362 897,-414 1094,-414 1094,-362 897,-362"/>
<text text-anchor="start" x="905" y="-402" font-family="Helvetica,sans-Serif" font-size="10.00">/home/runner/work/Documentation</text>
<text text-anchor="start" x="905" y="-391" font-family="Helvetica,sans-Serif" font-size="10.00">/Documentation/master/applications</text>
<text text-anchor="start" x="905" y="-380" font-family="Helvetica,sans-Serif" font-size="10.00">/MappingApplication/custom_utilities</text>
<text text-anchor="middle" x="995.5" y="-369" font-family="Helvetica,sans-Serif" font-size="10.00">/mapper_utilities.cpp</text>
</a>
</g>
</g>
<!-- Node1&#45;&gt;Node20 -->
<g id="edge30" class="edge">
<title>Node1&#45;&gt;Node20</title>
<path fill="none" stroke="midnightblue" d="M911.15,-450.43C927.41,-438.59 945.71,-425.26 961.1,-414.05"/>
<polygon fill="midnightblue" stroke="midnightblue" points="908.89,-447.75 902.87,-456.47 913.01,-453.41 908.89,-447.75"/>
</g>
<!-- Node21 -->
<g id="node21" class="node">
<title>Node21</title>
<g id="a_node21"><a xlink:href="../../d3/d0e/mapping__matrix__utilities_8cpp.html" target="_top" xlink:title=" ">
<polygon fill="none" stroke="black" points="1112,-362 1112,-414 1309,-414 1309,-362 1112,-362"/>
<text text-anchor="start" x="1120" y="-402" font-family="Helvetica,sans-Serif" font-size="10.00">/home/runner/work/Documentation</text>
<text text-anchor="start" x="1120" y="-391" font-family="Helvetica,sans-Serif" font-size="10.00">/Documentation/master/applications</text>
<text text-anchor="start" x="1120" y="-380" font-family="Helvetica,sans-Serif" font-size="10.00">/MappingApplication/custom_utilities</text>
<text text-anchor="middle" x="1210.5" y="-369" font-family="Helvetica,sans-Serif" font-size="10.00">/mapping_matrix_utilities.cpp</text>
</a>
</g>
</g>
<!-- Node1&#45;&gt;Node21 -->
<g id="edge31" class="edge">
<title>Node1&#45;&gt;Node21</title>
<path fill="none" stroke="midnightblue" d="M976.19,-453.95C1016.23,-443.54 1062,-431.44 1103.5,-420 1110.4,-418.1 1117.54,-416.1 1124.71,-414.07"/>
<polygon fill="midnightblue" stroke="midnightblue" points="975.21,-450.58 966.41,-456.48 976.97,-457.36 975.21,-450.58"/>
</g>
<!-- Node22 -->
<g id="node22" class="node">
<title>Node22</title>
<g id="a_node22"><a xlink:href="../../df/dee/projection__utilities_8h.html" target="_top" xlink:title=" ">
<polygon fill="none" stroke="black" points="1239,-262 1239,-314 1436,-314 1436,-262 1239,-262"/>
<text text-anchor="start" x="1247" y="-302" font-family="Helvetica,sans-Serif" font-size="10.00">/home/runner/work/Documentation</text>
<text text-anchor="start" x="1247" y="-291" font-family="Helvetica,sans-Serif" font-size="10.00">/Documentation/master/applications</text>
<text text-anchor="start" x="1247" y="-280" font-family="Helvetica,sans-Serif" font-size="10.00">/MappingApplication/custom_utilities</text>
<text text-anchor="middle" x="1337.5" y="-269" font-family="Helvetica,sans-Serif" font-size="10.00">/projection_utilities.h</text>
</a>
</g>
</g>
<!-- Node1&#45;&gt;Node22 -->
<g id="edge32" class="edge">
<title>Node1&#45;&gt;Node22</title>
<path fill="none" stroke="midnightblue" d="M977.14,-481.17C1094.74,-478.39 1271.78,-466.33 1318.5,-420 1346.24,-392.49 1345.52,-343.75 1341.9,-314.1"/>
<polygon fill="midnightblue" stroke="midnightblue" points="976.94,-477.68 967.01,-481.4 977.09,-484.68 976.94,-477.68"/>
</g>
<!-- Node24 -->
<g id="node24" class="node">
<title>Node24</title>
<g id="a_node24"><a xlink:href="../../de/de7/test__mapper__utilities__mpi_8cpp.html" target="_top" xlink:title=" ">
<polygon fill="none" stroke="black" points="1366,-362 1366,-414 1583,-414 1583,-362 1366,-362"/>
<text text-anchor="start" x="1374" y="-402" font-family="Helvetica,sans-Serif" font-size="10.00">/home/runner/work/Documentation</text>
<text text-anchor="start" x="1374" y="-391" font-family="Helvetica,sans-Serif" font-size="10.00">/Documentation/master/applications</text>
<text text-anchor="start" x="1374" y="-380" font-family="Helvetica,sans-Serif" font-size="10.00">/MappingApplication/mpi_extension</text>
<text text-anchor="middle" x="1474.5" y="-369" font-family="Helvetica,sans-Serif" font-size="10.00">/cpp_tests/test_mapper_utilities_mpi.cpp</text>
</a>
</g>
</g>
<!-- Node1&#45;&gt;Node24 -->
<g id="edge36" class="edge">
<title>Node1&#45;&gt;Node24</title>
<path fill="none" stroke="midnightblue" d="M977.34,-471.42C1075.62,-461.42 1223.95,-444.1 1351.5,-420 1360.8,-418.24 1370.45,-416.2 1380.07,-414.02"/>
<polygon fill="midnightblue" stroke="midnightblue" points="976.7,-467.96 967.1,-472.45 977.4,-474.93 976.7,-467.96"/>
</g>
<!-- Node25 -->
<g id="node25" class="node">
<title>Node25</title>
<g id="a_node25"><a xlink:href="../../db/d8e/interface__communicator__mpi_8cpp.html" target="_top" xlink:title=" ">
<polygon fill="none" stroke="black" points="1601,-362 1601,-414 1876,-414 1876,-362 1601,-362"/>
<text text-anchor="start" x="1609" y="-402" font-family="Helvetica,sans-Serif" font-size="10.00">/home/runner/work/Documentation</text>
<text text-anchor="start" x="1609" y="-391" font-family="Helvetica,sans-Serif" font-size="10.00">/Documentation/master/applications</text>
<text text-anchor="start" x="1609" y="-380" font-family="Helvetica,sans-Serif" font-size="10.00">/MappingApplication/mpi_extension</text>
<text text-anchor="middle" x="1738.5" y="-369" font-family="Helvetica,sans-Serif" font-size="10.00">/custom_searching/interface_communicator_mpi.cpp</text>
</a>
</g>
</g>
<!-- Node1&#45;&gt;Node25 -->
<g id="edge37" class="edge">
<title>Node1&#45;&gt;Node25</title>
<path fill="none" stroke="midnightblue" d="M977.05,-476.5C1119.08,-469 1375.43,-452.14 1592.5,-420 1603.91,-418.31 1615.76,-416.27 1627.56,-414.06"/>
<polygon fill="midnightblue" stroke="midnightblue" points="976.83,-473.01 967.02,-477.02 977.19,-480 976.83,-473.01"/>
</g>
<!-- Node26 -->
<g id="node26" class="node">
<title>Node26</title>
<g id="a_node26"><a xlink:href="../../d8/d26/mapping__matrix__utilities__mpi_8cpp.html" target="_top" xlink:title=" ">
<polygon fill="none" stroke="black" points="1894.5,-356.5 1894.5,-419.5 2088.5,-419.5 2088.5,-356.5 1894.5,-356.5"/>
<text text-anchor="start" x="1902.5" y="-407.5" font-family="Helvetica,sans-Serif" font-size="10.00">/home/runner/work/Documentation</text>
<text text-anchor="start" x="1902.5" y="-396.5" font-family="Helvetica,sans-Serif" font-size="10.00">/Documentation/master/applications</text>
<text text-anchor="start" x="1902.5" y="-385.5" font-family="Helvetica,sans-Serif" font-size="10.00">/MappingApplication/mpi_extension</text>
<text text-anchor="start" x="1902.5" y="-374.5" font-family="Helvetica,sans-Serif" font-size="10.00">/custom_utilities/mapping_matrix</text>
<text text-anchor="middle" x="1991.5" y="-363.5" font-family="Helvetica,sans-Serif" font-size="10.00">_utilities_mpi.cpp</text>
</a>
</g>
</g>
<!-- Node1&#45;&gt;Node26 -->
<g id="edge39" class="edge">
<title>Node1&#45;&gt;Node26</title>
<path fill="none" stroke="midnightblue" d="M977.55,-478C1203,-470.25 1713.66,-449.93 1885.5,-420 1888.43,-419.49 1891.39,-418.93 1894.37,-418.32"/>
<polygon fill="midnightblue" stroke="midnightblue" points="977.24,-474.5 967.36,-478.34 977.48,-481.5 977.24,-474.5"/>
</g>
<!-- Node4 -->
<g id="node4" class="node">
<title>Node4</title>
<g id="a_node4"><a xlink:href="../../d6/d70/barycentric__mapper_8h.html" target="_top" xlink:title=" ">
<polygon fill="none" stroke="black" points="1015,-167.5 1015,-219.5 1218,-219.5 1218,-167.5 1015,-167.5"/>
<text text-anchor="start" x="1023" y="-207.5" font-family="Helvetica,sans-Serif" font-size="10.00">/home/runner/work/Documentation</text>
<text text-anchor="start" x="1023" y="-196.5" font-family="Helvetica,sans-Serif" font-size="10.00">/Documentation/master/applications</text>
<text text-anchor="start" x="1023" y="-185.5" font-family="Helvetica,sans-Serif" font-size="10.00">/MappingApplication/custom_mappers</text>
<text text-anchor="middle" x="1116.5" y="-174.5" font-family="Helvetica,sans-Serif" font-size="10.00">/barycentric_mapper.h</text>
</a>
</g>
</g>
<!-- Node3&#45;&gt;Node4 -->
<g id="edge3" class="edge">
<title>Node3&#45;&gt;Node4</title>
<path fill="none" stroke="midnightblue" d="M953.31,-258.19C985.02,-245.82 1021.74,-231.48 1052.31,-219.55"/>
<polygon fill="midnightblue" stroke="midnightblue" points="951.68,-255.07 943.64,-261.97 954.22,-261.59 951.68,-255.07"/>
</g>
<!-- Node6 -->
<g id="node6" class="node">
<title>Node6</title>
<g id="a_node6"><a xlink:href="../../dc/df5/projection__3_d__2_d__mapper_8h.html" target="_top" xlink:title=" ">
<polygon fill="none" stroke="black" points="833,-78.5 833,-130.5 1036,-130.5 1036,-78.5 833,-78.5"/>
<text text-anchor="start" x="841" y="-118.5" font-family="Helvetica,sans-Serif" font-size="10.00">/home/runner/work/Documentation</text>
<text text-anchor="start" x="841" y="-107.5" font-family="Helvetica,sans-Serif" font-size="10.00">/Documentation/master/applications</text>
<text text-anchor="start" x="841" y="-96.5" font-family="Helvetica,sans-Serif" font-size="10.00">/MappingApplication/custom_mappers</text>
<text text-anchor="middle" x="934.5" y="-85.5" font-family="Helvetica,sans-Serif" font-size="10.00">/projection_3D_2D_mapper.h</text>
</a>
</g>
</g>
<!-- Node3&#45;&gt;Node6 -->
<g id="edge16" class="edge">
<title>Node3&#45;&gt;Node6</title>
<path fill="none" stroke="midnightblue" d="M890.17,-251.79C900.96,-216.17 917.38,-161.98 926.92,-130.52"/>
<polygon fill="midnightblue" stroke="midnightblue" points="886.7,-251.18 887.15,-261.76 893.4,-253.21 886.7,-251.18"/>
</g>
<!-- Node8 -->
<g id="node8" class="node">
<title>Node8</title>
<g id="a_node8"><a xlink:href="../../d7/dba/nearest__element__mapper_8h.html" target="_top" xlink:title=" ">
<polygon fill="none" stroke="black" points="1236,-167.5 1236,-219.5 1439,-219.5 1439,-167.5 1236,-167.5"/>
<text text-anchor="start" x="1244" y="-207.5" font-family="Helvetica,sans-Serif" font-size="10.00">/home/runner/work/Documentation</text>
<text text-anchor="start" x="1244" y="-196.5" font-family="Helvetica,sans-Serif" font-size="10.00">/Documentation/master/applications</text>
<text text-anchor="start" x="1244" y="-185.5" font-family="Helvetica,sans-Serif" font-size="10.00">/MappingApplication/custom_mappers</text>
<text text-anchor="middle" x="1337.5" y="-174.5" font-family="Helvetica,sans-Serif" font-size="10.00">/nearest_element_mapper.h</text>
</a>
</g>
</g>
<!-- Node3&#45;&gt;Node8 -->
<g id="edge8" class="edge">
<title>Node3&#45;&gt;Node8</title>
<path fill="none" stroke="midnightblue" d="M974.18,-259.51C979.34,-258.26 984.48,-257.08 989.5,-256 1094.08,-233.45 1122.42,-240.09 1227.5,-220 1230.29,-219.47 1233.12,-218.91 1235.97,-218.34"/>
<polygon fill="midnightblue" stroke="midnightblue" points="973.07,-256.18 964.21,-261.99 974.76,-262.97 973.07,-256.18"/>
</g>
<!-- Node10 -->
<g id="node10" class="node">
<title>Node10</title>
<g id="a_node10"><a xlink:href="../../d6/d2b/nearest__neighbor__mapper_8h.html" target="_top" xlink:title=" ">
<polygon fill="none" stroke="black" points="639,-167.5 639,-219.5 842,-219.5 842,-167.5 639,-167.5"/>
<text text-anchor="start" x="647" y="-207.5" font-family="Helvetica,sans-Serif" font-size="10.00">/home/runner/work/Documentation</text>
<text text-anchor="start" x="647" y="-196.5" font-family="Helvetica,sans-Serif" font-size="10.00">/Documentation/master/applications</text>
<text text-anchor="start" x="647" y="-185.5" font-family="Helvetica,sans-Serif" font-size="10.00">/MappingApplication/custom_mappers</text>
<text text-anchor="middle" x="740.5" y="-174.5" font-family="Helvetica,sans-Serif" font-size="10.00">/nearest_neighbor_mapper.h</text>
</a>
</g>
</g>
<!-- Node3&#45;&gt;Node10 -->
<g id="edge12" class="edge">
<title>Node3&#45;&gt;Node10</title>
<path fill="none" stroke="midnightblue" d="M833.3,-256.26C815.39,-244.34 795.15,-230.87 778.15,-219.55"/>
<polygon fill="midnightblue" stroke="midnightblue" points="831.62,-259.34 841.88,-261.97 835.5,-253.51 831.62,-259.34"/>
</g>
<!-- Node5 -->
<g id="node5" class="node">
<title>Node5</title>
<g id="a_node5"><a xlink:href="../../db/dbe/barycentric__mapper_8cpp.html" target="_top" xlink:title=" ">
<polygon fill="none" stroke="black" points="1054,-78.5 1054,-130.5 1257,-130.5 1257,-78.5 1054,-78.5"/>
<text text-anchor="start" x="1062" y="-118.5" font-family="Helvetica,sans-Serif" font-size="10.00">/home/runner/work/Documentation</text>
<text text-anchor="start" x="1062" y="-107.5" font-family="Helvetica,sans-Serif" font-size="10.00">/Documentation/master/applications</text>
<text text-anchor="start" x="1062" y="-96.5" font-family="Helvetica,sans-Serif" font-size="10.00">/MappingApplication/custom_mappers</text>
<text text-anchor="middle" x="1155.5" y="-85.5" font-family="Helvetica,sans-Serif" font-size="10.00">/barycentric_mapper.cpp</text>
</a>
</g>
</g>
<!-- Node4&#45;&gt;Node5 -->
<g id="edge4" class="edge">
<title>Node4&#45;&gt;Node5</title>
<path fill="none" stroke="midnightblue" d="M1131.94,-158.06C1136.05,-148.9 1140.41,-139.17 1144.24,-130.61"/>
<polygon fill="midnightblue" stroke="midnightblue" points="1128.68,-156.78 1127.78,-167.34 1135.06,-159.64 1128.68,-156.78"/>
</g>
<!-- Node4&#45;&gt;Node6 -->
<g id="edge5" class="edge">
<title>Node4&#45;&gt;Node6</title>
<path fill="none" stroke="midnightblue" d="M1054.61,-162.92C1032.64,-152.41 1008.14,-140.7 987.02,-130.61"/>
<polygon fill="midnightblue" stroke="midnightblue" points="1053.33,-166.18 1063.86,-167.34 1056.35,-159.87 1053.33,-166.18"/>
</g>
<!-- Node7 -->
<g id="node7" class="node">
<title>Node7</title>
<g id="a_node7"><a xlink:href="../../da/d85/mapping__application_8cpp.html" target="_top" xlink:title=" ">
<polygon fill="none" stroke="black" points="637.5,-0.5 637.5,-41.5 879.5,-41.5 879.5,-0.5 637.5,-0.5"/>
<text text-anchor="start" x="645.5" y="-29.5" font-family="Helvetica,sans-Serif" font-size="10.00">/home/runner/work/Documentation</text>
<text text-anchor="start" x="645.5" y="-18.5" font-family="Helvetica,sans-Serif" font-size="10.00">/Documentation/master/applications</text>
<text text-anchor="middle" x="758.5" y="-7.5" font-family="Helvetica,sans-Serif" font-size="10.00">/MappingApplication/mapping_application.cpp</text>
</a>
</g>
</g>
<!-- Node4&#45;&gt;Node7 -->
<g id="edge7" class="edge">
<title>Node4&#45;&gt;Node7</title>
<path fill="none" stroke="midnightblue" d="M1227.41,-165.16C1242.84,-156.67 1256.74,-145.56 1266.5,-131 1279.62,-111.44 1282.22,-95.55 1266.5,-78 1241.12,-49.66 1021.75,-34.16 879.71,-27.01"/>
<polygon fill="midnightblue" stroke="midnightblue" points="1225.5,-162.2 1218.17,-169.85 1228.67,-168.44 1225.5,-162.2"/>
</g>
<!-- Node6&#45;&gt;Node7 -->
<g id="edge6" class="edge">
<title>Node6&#45;&gt;Node7</title>
<path fill="none" stroke="midnightblue" d="M871.11,-74.14C847.75,-63.33 821.88,-51.35 800.83,-41.6"/>
<polygon fill="midnightblue" stroke="midnightblue" points="869.71,-77.36 880.26,-78.38 872.65,-71 869.71,-77.36"/>
</g>
<!-- Node8&#45;&gt;Node6 -->
<g id="edge10" class="edge">
<title>Node8&#45;&gt;Node6</title>
<path fill="none" stroke="midnightblue" d="M1225.81,-166.67C1145.17,-149.55 1122.99,-147.56 1045.5,-131 1042.41,-130.34 1039.27,-129.66 1036.1,-128.97"/>
<polygon fill="midnightblue" stroke="midnightblue" points="1225.43,-170.16 1235.94,-168.83 1226.89,-163.32 1225.43,-170.16"/>
</g>
<!-- Node8&#45;&gt;Node7 -->
<g id="edge11" class="edge">
<title>Node8&#45;&gt;Node7</title>
<path fill="none" stroke="midnightblue" d="M1440.26,-164.62C1481.44,-152.42 1520.63,-139.08 1526.5,-131 1540.34,-111.94 1542.54,-95.25 1526.5,-78 1483.46,-31.71 1084.85,-23.25 879.53,-21.99"/>
<polygon fill="midnightblue" stroke="midnightblue" points="1439.22,-161.27 1430.61,-167.45 1441.19,-167.99 1439.22,-161.27"/>
</g>
<!-- Node9 -->
<g id="node9" class="node">
<title>Node9</title>
<g id="a_node9"><a xlink:href="../../d4/d8d/nearest__element__mapper_8cpp.html" target="_top" xlink:title=" ">
<polygon fill="none" stroke="black" points="1314,-78.5 1314,-130.5 1517,-130.5 1517,-78.5 1314,-78.5"/>
<text text-anchor="start" x="1322" y="-118.5" font-family="Helvetica,sans-Serif" font-size="10.00">/home/runner/work/Documentation</text>
<text text-anchor="start" x="1322" y="-107.5" font-family="Helvetica,sans-Serif" font-size="10.00">/Documentation/master/applications</text>
<text text-anchor="start" x="1322" y="-96.5" font-family="Helvetica,sans-Serif" font-size="10.00">/MappingApplication/custom_mappers</text>
<text text-anchor="middle" x="1415.5" y="-85.5" font-family="Helvetica,sans-Serif" font-size="10.00">/nearest_element_mapper.cpp</text>
</a>
</g>
</g>
<!-- Node8&#45;&gt;Node9 -->
<g id="edge9" class="edge">
<title>Node8&#45;&gt;Node9</title>
<path fill="none" stroke="midnightblue" d="M1366.83,-159.79C1375.49,-150.13 1384.83,-139.71 1392.99,-130.61"/>
<polygon fill="midnightblue" stroke="midnightblue" points="1364.13,-157.55 1360.06,-167.34 1369.34,-162.23 1364.13,-157.55"/>
</g>
<!-- Node10&#45;&gt;Node6 -->
<g id="edge14" class="edge">
<title>Node10&#45;&gt;Node6</title>
<path fill="none" stroke="midnightblue" d="M805.62,-163.29C829.33,-152.67 855.89,-140.76 878.71,-130.52"/>
<polygon fill="midnightblue" stroke="midnightblue" points="804.04,-160.17 796.35,-167.45 806.91,-166.55 804.04,-160.17"/>
</g>
<!-- Node10&#45;&gt;Node7 -->
<g id="edge15" class="edge">
<title>Node10&#45;&gt;Node7</title>
<path fill="none" stroke="midnightblue" d="M637.14,-162.43C623.83,-154.3 611.92,-144.02 603.5,-131 590.7,-111.23 589.97,-97.28 603.5,-78 615.09,-61.49 632.05,-49.83 650.55,-41.59"/>
<polygon fill="midnightblue" stroke="midnightblue" points="635.64,-165.6 646.07,-167.46 639.08,-159.5 635.64,-165.6"/>
</g>
<!-- Node11 -->
<g id="node11" class="node">
<title>Node11</title>
<g id="a_node11"><a xlink:href="../../dd/d78/nearest__neighbor__mapper_8cpp.html" target="_top" xlink:title=" ">
<polygon fill="none" stroke="black" points="612,-78.5 612,-130.5 815,-130.5 815,-78.5 612,-78.5"/>
<text text-anchor="start" x="620" y="-118.5" font-family="Helvetica,sans-Serif" font-size="10.00">/home/runner/work/Documentation</text>
<text text-anchor="start" x="620" y="-107.5" font-family="Helvetica,sans-Serif" font-size="10.00">/Documentation/master/applications</text>
<text text-anchor="start" x="620" y="-96.5" font-family="Helvetica,sans-Serif" font-size="10.00">/MappingApplication/custom_mappers</text>
<text text-anchor="middle" x="713.5" y="-85.5" font-family="Helvetica,sans-Serif" font-size="10.00">/nearest_neighbor_mapper.cpp</text>
</a>
</g>
</g>
<!-- Node10&#45;&gt;Node11 -->
<g id="edge13" class="edge">
<title>Node10&#45;&gt;Node11</title>
<path fill="none" stroke="midnightblue" d="M729.72,-157.77C726.9,-148.69 723.92,-139.08 721.29,-130.61"/>
<polygon fill="midnightblue" stroke="midnightblue" points="726.38,-158.82 732.69,-167.34 733.07,-156.75 726.38,-158.82"/>
</g>
<!-- Node15&#45;&gt;Node3 -->
<g id="edge24" class="edge">
<title>Node15&#45;&gt;Node3</title>
<path fill="none" stroke="midnightblue" d="M757.67,-356.84C782.23,-343.16 810.95,-327.17 834.33,-314.15"/>
<polygon fill="midnightblue" stroke="midnightblue" points="755.86,-353.84 748.82,-361.76 759.26,-359.96 755.86,-353.84"/>
</g>
<!-- Node15&#45;&gt;Node14 -->
<g id="edge25" class="edge">
<title>Node15&#45;&gt;Node14</title>
<path fill="none" stroke="midnightblue" d="M611.73,-359.53C606.26,-358.25 600.82,-357.05 595.5,-356 454.68,-328.1 415.32,-347.9 274.5,-320 265.98,-318.31 257.17,-316.28 248.41,-314.06"/>
<polygon fill="midnightblue" stroke="midnightblue" points="611.05,-362.97 621.59,-361.94 612.71,-356.17 611.05,-362.97"/>
</g>
<!-- Node16 -->
<g id="node16" class="node">
<title>Node16</title>
<g id="a_node16"><a xlink:href="../../d5/d8e/coupling__geometry__mapper_8h.html" target="_top" xlink:title=" ">
<polygon fill="none" stroke="black" points="283,-262 283,-314 486,-314 486,-262 283,-262"/>
<text text-anchor="start" x="291" y="-302" font-family="Helvetica,sans-Serif" font-size="10.00">/home/runner/work/Documentation</text>
<text text-anchor="start" x="291" y="-291" font-family="Helvetica,sans-Serif" font-size="10.00">/Documentation/master/applications</text>
<text text-anchor="start" x="291" y="-280" font-family="Helvetica,sans-Serif" font-size="10.00">/MappingApplication/custom_mappers</text>
<text text-anchor="middle" x="384.5" y="-269" font-family="Helvetica,sans-Serif" font-size="10.00">/coupling_geometry_mapper.h</text>
</a>
</g>
</g>
<!-- Node15&#45;&gt;Node16 -->
<g id="edge21" class="edge">
<title>Node15&#45;&gt;Node16</title>
<path fill="none" stroke="midnightblue" d="M612.08,-358.92C566.02,-344.76 510.63,-327.75 466.02,-314.04"/>
<polygon fill="midnightblue" stroke="midnightblue" points="611.18,-362.3 621.76,-361.89 613.23,-355.61 611.18,-362.3"/>
</g>
<!-- Node17 -->
<g id="node17" class="node">
<title>Node17</title>
<g id="a_node17"><a xlink:href="../../d1/df7/mapper__backend_8h.html" target="_top" xlink:title=" ">
<polygon fill="none" stroke="black" points="358,-78.5 358,-130.5 555,-130.5 555,-78.5 358,-78.5"/>
<text text-anchor="start" x="366" y="-118.5" font-family="Helvetica,sans-Serif" font-size="10.00">/home/runner/work/Documentation</text>
<text text-anchor="start" x="366" y="-107.5" font-family="Helvetica,sans-Serif" font-size="10.00">/Documentation/master/applications</text>
<text text-anchor="start" x="366" y="-96.5" font-family="Helvetica,sans-Serif" font-size="10.00">/MappingApplication/custom_utilities</text>
<text text-anchor="middle" x="456.5" y="-85.5" font-family="Helvetica,sans-Serif" font-size="10.00">/mapper_backend.h</text>
</a>
</g>
</g>
<!-- Node15&#45;&gt;Node17 -->
<g id="edge26" class="edge">
<title>Node15&#45;&gt;Node17</title>
<path fill="none" stroke="midnightblue" d="M612.81,-358.53C579.31,-346.49 546.56,-332.41 534.5,-320 507.44,-292.15 476.09,-181.21 462.89,-130.74"/>
<polygon fill="midnightblue" stroke="midnightblue" points="611.67,-361.83 622.26,-361.86 614,-355.23 611.67,-361.83"/>
</g>
<!-- Node15&#45;&gt;Node18 -->
<g id="edge28" class="edge">
<title>Node15&#45;&gt;Node18</title>
<path fill="none" stroke="midnightblue" d="M812.05,-363.21C865.9,-351.02 931.82,-335.5 990.5,-320 993.07,-319.32 995.68,-318.62 998.3,-317.91"/>
<polygon fill="midnightblue" stroke="midnightblue" points="811.13,-359.83 802.14,-365.45 812.67,-366.66 811.13,-359.83"/>
</g>
<!-- Node19 -->
<g id="node19" class="node">
<title>Node19</title>
<g id="a_node19"><a xlink:href="../../dc/d9b/mapper__mpi__backend_8h.html" target="_top" xlink:title=" ">
<polygon fill="none" stroke="black" points="543,-262 543,-314 760,-314 760,-262 543,-262"/>
<text text-anchor="start" x="551" y="-302" font-family="Helvetica,sans-Serif" font-size="10.00">/home/runner/work/Documentation</text>
<text text-anchor="start" x="551" y="-291" font-family="Helvetica,sans-Serif" font-size="10.00">/Documentation/master/applications</text>
<text text-anchor="start" x="551" y="-280" font-family="Helvetica,sans-Serif" font-size="10.00">/MappingApplication/mpi_extension</text>
<text text-anchor="middle" x="651.5" y="-269" font-family="Helvetica,sans-Serif" font-size="10.00">/custom_utilities/mapper_mpi_backend.h</text>
</a>
</g>
</g>
<!-- Node15&#45;&gt;Node19 -->
<g id="edge29" class="edge">
<title>Node15&#45;&gt;Node19</title>
<path fill="none" stroke="midnightblue" d="M685.36,-352.82C678.61,-340.1 671.09,-325.91 664.85,-314.15"/>
<polygon fill="midnightblue" stroke="midnightblue" points="682.33,-354.57 690.11,-361.76 688.51,-351.29 682.33,-354.57"/>
</g>
<!-- Node16&#45;&gt;Node2 -->
<g id="edge22" class="edge">
<title>Node16&#45;&gt;Node2</title>
<path fill="none" stroke="midnightblue" d="M298.32,-258.83C260.01,-246.31 215.28,-231.69 178.15,-219.55"/>
<polygon fill="midnightblue" stroke="midnightblue" points="297.32,-262.19 307.92,-261.97 299.5,-255.53 297.32,-262.19"/>
</g>
<!-- Node16&#45;&gt;Node7 -->
<g id="edge23" class="edge">
<title>Node16&#45;&gt;Node7</title>
<path fill="none" stroke="midnightblue" d="M364.06,-253.09C339.57,-207.6 306.85,-126.89 349.5,-78 386.31,-35.81 530.55,-24.26 637.37,-21.66"/>
<polygon fill="midnightblue" stroke="midnightblue" points="361.07,-254.92 368.97,-261.97 367.19,-251.53 361.07,-254.92"/>
</g>
<!-- Node17&#45;&gt;Node7 -->
<g id="edge27" class="edge">
<title>Node17&#45;&gt;Node7</title>
<path fill="none" stroke="midnightblue" d="M558.83,-75.89C600.64,-64.6 648.04,-51.81 686.15,-41.52"/>
<polygon fill="midnightblue" stroke="midnightblue" points="557.91,-72.51 549.16,-78.49 559.73,-79.27 557.91,-72.51"/>
</g>
<!-- Node22&#45;&gt;Node4 -->
<g id="edge33" class="edge">
<title>Node22&#45;&gt;Node4</title>
<path fill="none" stroke="midnightblue" d="M1268.29,-258.03C1238.81,-245.69 1204.74,-231.43 1176.35,-219.55"/>
<polygon fill="midnightblue" stroke="midnightblue" points="1267.12,-261.34 1277.69,-261.97 1269.82,-254.88 1267.12,-261.34"/>
</g>
<!-- Node22&#45;&gt;Node8 -->
<g id="edge34" class="edge">
<title>Node22&#45;&gt;Node8</title>
<path fill="none" stroke="midnightblue" d="M1337.5,-251.49C1337.5,-240.91 1337.5,-229.53 1337.5,-219.75"/>
<polygon fill="midnightblue" stroke="midnightblue" points="1334,-251.72 1337.5,-261.72 1341,-251.72 1334,-251.72"/>
</g>
<!-- Node23 -->
<g id="node23" class="node">
<title>Node23</title>
<g id="a_node23"><a xlink:href="../../d9/d6a/projection__utilities_8cpp.html" target="_top" xlink:title=" ">
<polygon fill="none" stroke="black" points="1457,-167.5 1457,-219.5 1654,-219.5 1654,-167.5 1457,-167.5"/>
<text text-anchor="start" x="1465" y="-207.5" font-family="Helvetica,sans-Serif" font-size="10.00">/home/runner/work/Documentation</text>
<text text-anchor="start" x="1465" y="-196.5" font-family="Helvetica,sans-Serif" font-size="10.00">/Documentation/master/applications</text>
<text text-anchor="start" x="1465" y="-185.5" font-family="Helvetica,sans-Serif" font-size="10.00">/MappingApplication/custom_utilities</text>
<text text-anchor="middle" x="1555.5" y="-174.5" font-family="Helvetica,sans-Serif" font-size="10.00">/projection_utilities.cpp</text>
</a>
</g>
</g>
<!-- Node22&#45;&gt;Node23 -->
<g id="edge35" class="edge">
<title>Node22&#45;&gt;Node23</title>
<path fill="none" stroke="midnightblue" d="M1405.77,-258.03C1434.85,-245.69 1468.46,-231.43 1496.46,-219.55"/>
<polygon fill="midnightblue" stroke="midnightblue" points="1404.33,-254.84 1396.49,-261.97 1407.07,-261.28 1404.33,-254.84"/>
</g>
</g>
</svg>
        <g id="navigator" transform="translate(0 0)" fill="#404254">
                <rect fill="#f2f5e9" fill-opacity="0.5" stroke="#606060" stroke-width=".5" x="0" y="0" width="60" height="60"/>
                <use id="zoomplus" xlink:href="#zoomPlus" x="17" y="9" onmousedown="handleZoom(evt,'in')"/>
                <use id="zoomminus" xlink:href="#zoomMin" x="42" y="9" onmousedown="handleZoom(evt,'out')"/>
                <use id="reset" xlink:href="#resetDef" x="30" y="36" onmousedown="handleReset()"/>
                <g id="arrowUp" xlink:href="#dirArrow" transform="translate(30 24)" onmousedown="handlePan(0,-1)">
                  <use xlink:href="#rim" fill="#404040">
                        <set attributeName="fill" to="#808080" begin="arrowUp.mouseover" end="arrowUp.mouseout"/>
                  </use>
                  <path fill="none" stroke="white" stroke-width="1.5" d="M0,-3.0v7 M-2.5,-0.5L0,-3.0L2.5,-0.5"/>
                </g>
                <g id="arrowRight" xlink:href="#dirArrow" transform="rotate(90) translate(36 -43)" onmousedown="handlePan(1,0)">
                  <use xlink:href="#rim" fill="#404040">
                        <set attributeName="fill" to="#808080" begin="arrowRight.mouseover" end="arrowRight.mouseout"/>
                  </use>
                  <path fill="none" stroke="white" stroke-width="1.5" d="M0,-3.0v7 M-2.5,-0.5L0,-3.0L2.5,-0.5"/>
                </g>
                <g id="arrowDown" xlink:href="#dirArrow" transform="rotate(180) translate(-30 -48)" onmousedown="handlePan(0,1)">
                  <use xlink:href="#rim" fill="#404040">
                        <set attributeName="fill" to="#808080" begin="arrowDown.mouseover" end="arrowDown.mouseout"/>
                  </use>
                  <path fill="none" stroke="white" stroke-width="1.5" d="M0,-3.0v7 M-2.5,-0.5L0,-3.0L2.5,-0.5"/>
                </g>
                <g id="arrowLeft" xlink:href="#dirArrow" transform="rotate(270) translate(-36 17)" onmousedown="handlePan(-1,0)">
                  <use xlink:href="#rim" fill="#404040">
                        <set attributeName="fill" to="#808080" begin="arrowLeft.mouseover" end="arrowLeft.mouseout"/>
                  </use>
                  <path fill="none" stroke="white" stroke-width="1.5" d="M0,-3.0v7 M-2.5,-0.5L0,-3.0L2.5,-0.5"/>
                </g>
        </g>
        <svg viewBox="0 0 15 15" width="100%" height="30px" preserveAspectRatio="xMaxYMin meet">
         <g id="arrow_out" transform="scale(0.3 0.3)">
          <a xlink:href="mapper__utilities_8h__dep__incl_org.svg" target="_base">
           <rect id="button" ry="5" rx="5" y="6" x="6" height="38" width="38"
                fill="#f2f5e9" fill-opacity="0.5" stroke="#606060" stroke-width="1.0"/>
           <path id="arrow"
             d="M 11.500037,31.436501 C 11.940474,20.09759 22.043105,11.32322 32.158766,21.979434 L 37.068811,17.246167 C 37.068811,17.246167 37.088388,32 37.088388,32 L 22.160133,31.978069 C 22.160133,31.978069 26.997745,27.140456 26.997745,27.140456 C 18.528582,18.264221 13.291696,25.230495 11.500037,31.436501 z"
             style="fill:#404040;"/>
          </a>
         </g>
        </svg>
</svg>
