<?xml version="1.0" encoding="UTF-8" standalone="no"?>
<!DOCTYPE svg PUBLIC "-//W3C//DTD SVG 1.1//EN"
 "http://www.w3.org/Graphics/SVG/1.1/DTD/svg11.dtd">
<!-- Generated by graphviz version 2.43.0 (0)
 -->
<!-- Title: /home/runner/work/Documentation/Documentation/master/applications/ThermalDEMApplication/custom_utilities/tesselation_utilities_2d.h Pages: 1 -->
<svg width="3460pt" height="1067pt"
 viewBox="0.00 0.00 3460.00 1067.00" xmlns="http://www.w3.org/2000/svg" xmlns:xlink="http://www.w3.org/1999/xlink">
<g id="graph0" class="graph" transform="scale(1 1) rotate(0) translate(4 1063)">
<title>/home/runner/work/Documentation/Documentation/master/applications/ThermalDEMApplication/custom_utilities/tesselation_utilities_2d.h</title>
<!-- Node1 -->
<g id="node1" class="node">
<title>Node1</title>
<g id="a_node1"><a xlink:title=" ">
<polygon fill="#bfbfbf" stroke="black" points="963,-1006.5 963,-1058.5 1181,-1058.5 1181,-1006.5 963,-1006.5"/>
<text text-anchor="start" x="971" y="-1046.5" font-family="Helvetica,sans-Serif" font-size="10.00">/home/runner/work/Documentation</text>
<text text-anchor="start" x="971" y="-1035.5" font-family="Helvetica,sans-Serif" font-size="10.00">/Documentation/master/applications</text>
<text text-anchor="start" x="971" y="-1024.5" font-family="Helvetica,sans-Serif" font-size="10.00">/ThermalDEMApplication/custom_utilities</text>
<text text-anchor="middle" x="1072" y="-1013.5" font-family="Helvetica,sans-Serif" font-size="10.00">/tesselation_utilities_2d.h</text>
</a>
</g>
</g>
<!-- Node2 -->
<g id="node2" class="node">
<title>Node2</title>
<g id="a_node2"><a xlink:title=" ">
<polygon fill="none" stroke="#bfbfbf" points="904.5,-945 904.5,-964 961.5,-964 961.5,-945 904.5,-945"/>
<text text-anchor="middle" x="933" y="-952" font-family="Helvetica,sans-Serif" font-size="10.00">tetgen.h</text>
</a>
</g>
</g>
<!-- Node1&#45;&gt;Node2 -->
<g id="edge1" class="edge">
<title>Node1&#45;&gt;Node2</title>
<path fill="none" stroke="midnightblue" d="M1026.1,-1006.4C1003.24,-993.9 976.5,-979.29 957.56,-968.93"/>
<polygon fill="midnightblue" stroke="midnightblue" points="959.14,-965.8 948.69,-964.08 955.78,-971.95 959.14,-965.8"/>
</g>
<!-- Node3 -->
<g id="node3" class="node">
<title>Node3</title>
<g id="a_node3"><a xlink:title=" ">
<polygon fill="none" stroke="#bfbfbf" points="979.5,-945 979.5,-964 1042.5,-964 1042.5,-945 979.5,-945"/>
<text text-anchor="middle" x="1011" y="-952" font-family="Helvetica,sans-Serif" font-size="10.00">triangle.h</text>
</a>
</g>
</g>
<!-- Node1&#45;&gt;Node3 -->
<g id="edge2" class="edge">
<title>Node1&#45;&gt;Node3</title>
<path fill="none" stroke="midnightblue" d="M1051.69,-1006.19C1042.68,-994.97 1032.34,-982.08 1024.33,-972.11"/>
<polygon fill="midnightblue" stroke="midnightblue" points="1026.98,-969.82 1017.99,-964.21 1021.52,-974.2 1026.98,-969.82"/>
</g>
<!-- Node4 -->
<g id="node4" class="node">
<title>Node4</title>
<g id="a_node4"><a xlink:href="../../dd/dfe/model__part_8h.html" target="_top" xlink:title=" ">
<polygon fill="none" stroke="black" points="1630.5,-816.5 1630.5,-835.5 1755.5,-835.5 1755.5,-816.5 1630.5,-816.5"/>
<text text-anchor="middle" x="1693" y="-823.5" font-family="Helvetica,sans-Serif" font-size="10.00">includes/model_part.h</text>
</a>
</g>
</g>
<!-- Node1&#45;&gt;Node4 -->
<g id="edge3" class="edge">
<title>Node1&#45;&gt;Node4</title>
<path fill="none" stroke="midnightblue" d="M1181.17,-1015.49C1287.04,-997.35 1450.48,-962.3 1582,-903 1617.74,-886.88 1654.34,-859.22 1675.3,-842.09"/>
<polygon fill="midnightblue" stroke="midnightblue" points="1677.58,-844.75 1683.03,-835.66 1673.1,-839.36 1677.58,-844.75"/>
</g>
<!-- Node134 -->
<g id="node44" class="node">
<title>Node134</title>
<g id="a_node44"><a xlink:href="../../d2/d06/thermal__spheric__particle_8h.html" target="_top" xlink:title=" ">
<polygon fill="none" stroke="black" points="1060.5,-939.5 1060.5,-969.5 1205.5,-969.5 1205.5,-939.5 1060.5,-939.5"/>
<text text-anchor="start" x="1068.5" y="-957.5" font-family="Helvetica,sans-Serif" font-size="10.00">custom_elements/thermal</text>
<text text-anchor="middle" x="1133" y="-946.5" font-family="Helvetica,sans-Serif" font-size="10.00">_spheric_particle.h</text>
</a>
</g>
</g>
<!-- Node1&#45;&gt;Node134 -->
<g id="edge153" class="edge">
<title>Node1&#45;&gt;Node134</title>
<path fill="none" stroke="midnightblue" d="M1092.31,-1006.19C1099.67,-997.03 1107.91,-986.76 1115.05,-977.86"/>
<polygon fill="midnightblue" stroke="midnightblue" points="1117.96,-979.83 1121.49,-969.85 1112.5,-975.45 1117.96,-979.83"/>
</g>
<!-- Node5 -->
<g id="node5" class="node">
<title>Node5</title>
<g id="a_node5"><a xlink:title=" ">
<polygon fill="none" stroke="#bfbfbf" points="396,-6 396,-25 440,-25 440,-6 396,-6"/>
<text text-anchor="middle" x="418" y="-13" font-family="Helvetica,sans-Serif" font-size="10.00">string</text>
</a>
</g>
</g>
<!-- Node4&#45;&gt;Node5 -->
<g id="edge4" class="edge">
<title>Node4&#45;&gt;Node5</title>
<path fill="none" stroke="midnightblue" d="M1630.15,-824.71C1398.35,-823.35 599.21,-816.08 491,-780 237.73,-695.55 38,-652.48 38,-385.5 38,-385.5 38,-385.5 38,-132 38,-94.16 60,-85.52 93,-67 142.85,-39.03 313.53,-23.92 385.54,-18.66"/>
<polygon fill="midnightblue" stroke="midnightblue" points="386.09,-22.13 395.82,-17.93 385.59,-15.15 386.09,-22.13"/>
</g>
<!-- Node6 -->
<g id="node6" class="node">
<title>Node6</title>
<g id="a_node6"><a xlink:title=" ">
<polygon fill="none" stroke="#bfbfbf" points="2491,-6 2491,-25 2551,-25 2551,-6 2491,-6"/>
<text text-anchor="middle" x="2521" y="-13" font-family="Helvetica,sans-Serif" font-size="10.00">iostream</text>
</a>
</g>
</g>
<!-- Node4&#45;&gt;Node6 -->
<g id="edge5" class="edge">
<title>Node4&#45;&gt;Node6</title>
<path fill="none" stroke="midnightblue" d="M1755.62,-824.14C1955.79,-821.13 2578.69,-809.55 2778,-780 2911.5,-760.2 3072,-838.96 3072,-704 3072,-704 3072,-704 3072,-255 3072,-114.2 2949.45,-114.79 2817,-67 2729.29,-35.35 2619.64,-23.28 2561.53,-18.87"/>
<polygon fill="midnightblue" stroke="midnightblue" points="2561.53,-15.36 2551.3,-18.14 2561.02,-22.34 2561.53,-15.36"/>
</g>
<!-- Node7 -->
<g id="node7" class="node">
<title>Node7</title>
<g id="a_node7"><a xlink:title=" ">
<polygon fill="none" stroke="#bfbfbf" points="3063,-6 3063,-25 3119,-25 3119,-6 3063,-6"/>
<text text-anchor="middle" x="3091" y="-13" font-family="Helvetica,sans-Serif" font-size="10.00">sstream</text>
</a>
</g>
</g>
<!-- Node4&#45;&gt;Node7 -->
<g id="edge6" class="edge">
<title>Node4&#45;&gt;Node7</title>
<path fill="none" stroke="midnightblue" d="M1755.59,-824C1991.25,-820.05 2817.58,-804.58 2933,-780 3075.96,-749.56 3156.23,-778.15 3238,-657 3371.19,-459.68 3268.64,-349.71 3196,-123 3187.79,-97.38 3190.42,-87.51 3173,-67 3159.12,-50.66 3138.56,-38.02 3121.51,-29.47"/>
<polygon fill="midnightblue" stroke="midnightblue" points="3122.99,-26.3 3112.46,-25.14 3119.97,-32.61 3122.99,-26.3"/>
</g>
<!-- Node8 -->
<g id="node8" class="node">
<title>Node8</title>
<g id="a_node8"><a xlink:title=" ">
<polygon fill="none" stroke="#bfbfbf" points="2169.5,-246.5 2169.5,-265.5 2222.5,-265.5 2222.5,-246.5 2169.5,-246.5"/>
<text text-anchor="middle" x="2196" y="-253.5" font-family="Helvetica,sans-Serif" font-size="10.00">cstddef</text>
</a>
</g>
</g>
<!-- Node4&#45;&gt;Node8 -->
<g id="edge7" class="edge">
<title>Node4&#45;&gt;Node8</title>
<path fill="none" stroke="midnightblue" d="M1755.51,-823.09C1890.32,-818.53 2204.57,-805.46 2308,-780 2390.34,-759.73 2483,-788.8 2483,-704 2483,-704 2483,-704 2483,-506.5 2483,-375.07 2309.47,-297.18 2232.28,-269.03"/>
<polygon fill="midnightblue" stroke="midnightblue" points="2233.08,-265.6 2222.49,-265.54 2230.73,-272.2 2233.08,-265.6"/>
</g>
<!-- Node9 -->
<g id="node9" class="node">
<title>Node9</title>
<g id="a_node9"><a xlink:href="../../df/d67/define_8h.html" target="_top" xlink:title=" ">
<polygon fill="none" stroke="black" points="1216.5,-123.5 1216.5,-142.5 1315.5,-142.5 1315.5,-123.5 1216.5,-123.5"/>
<text text-anchor="middle" x="1266" y="-130.5" font-family="Helvetica,sans-Serif" font-size="10.00">includes/define.h</text>
</a>
</g>
</g>
<!-- Node4&#45;&gt;Node9 -->
<g id="edge8" class="edge">
<title>Node4&#45;&gt;Node9</title>
<path fill="none" stroke="midnightblue" d="M1630.26,-825.57C1433.19,-826.87 835.37,-826.88 763,-780 728.16,-757.43 636.9,-620.02 584,-333 569.38,-253.68 608.93,-217.13 680,-179 691.5,-172.83 1058.89,-147.78 1205.98,-137.97"/>
<polygon fill="midnightblue" stroke="midnightblue" points="1206.44,-141.45 1216.19,-137.29 1205.98,-134.46 1206.44,-141.45"/>
</g>
<!-- Node20 -->
<g id="node15" class="node">
<title>Node20</title>
<g id="a_node15"><a xlink:href="../../dd/d5f/serializer_8h.html" target="_top" xlink:title=" ">
<polygon fill="none" stroke="black" points="1809.5,-246.5 1809.5,-265.5 1922.5,-265.5 1922.5,-246.5 1809.5,-246.5"/>
<text text-anchor="middle" x="1866" y="-253.5" font-family="Helvetica,sans-Serif" font-size="10.00">includes/serializer.h</text>
</a>
</g>
</g>
<!-- Node4&#45;&gt;Node20 -->
<g id="edge21" class="edge">
<title>Node4&#45;&gt;Node20</title>
<path fill="none" stroke="midnightblue" d="M1755.5,-821.51C1935.95,-810.59 2445,-773.63 2445,-704 2445,-704 2445,-704 2445,-640.5 2445,-394.02 2075.79,-296.64 1927.03,-267.41"/>
<polygon fill="midnightblue" stroke="midnightblue" points="1927.61,-263.96 1917.13,-265.5 1926.29,-270.83 1927.61,-263.96"/>
</g>
<!-- Node27 -->
<g id="node22" class="node">
<title>Node27</title>
<g id="a_node22"><a xlink:href="../../d1/d8c/logger_8h.html" target="_top" xlink:title=" ">
<polygon fill="none" stroke="red" points="408,-185 408,-204 528,-204 528,-185 408,-185"/>
<text text-anchor="middle" x="468" y="-192" font-family="Helvetica,sans-Serif" font-size="10.00">input_output/logger.h</text>
</a>
</g>
</g>
<!-- Node4&#45;&gt;Node27 -->
<g id="edge145" class="edge">
<title>Node4&#45;&gt;Node27</title>
<path fill="none" stroke="midnightblue" d="M1630.4,-824.26C1425.36,-821.54 782.03,-810.63 694,-780 671.75,-772.26 671.7,-760.25 651,-749 479.63,-655.89 378.05,-729.74 242,-590 121.63,-466.36 371.65,-266.2 447.25,-210.37"/>
<polygon fill="midnightblue" stroke="midnightblue" points="449.55,-213.02 455.56,-204.3 445.42,-207.37 449.55,-213.02"/>
</g>
<!-- Node58 -->
<g id="node26" class="node">
<title>Node58</title>
<g id="a_node26"><a xlink:href="../../de/db8/process__info_8h.html" target="_top" xlink:title=" ">
<polygon fill="none" stroke="black" points="1684.5,-565 1684.5,-584 1815.5,-584 1815.5,-565 1684.5,-565"/>
<text text-anchor="middle" x="1750" y="-572" font-family="Helvetica,sans-Serif" font-size="10.00">includes/process_info.h</text>
</a>
</g>
</g>
<!-- Node4&#45;&gt;Node58 -->
<g id="edge50" class="edge">
<title>Node4&#45;&gt;Node58</title>
<path fill="none" stroke="midnightblue" d="M1683.32,-816.49C1660.91,-795.72 1608.87,-740.62 1629,-693 1648.76,-646.27 1697.19,-608.98 1726.44,-589.75"/>
<polygon fill="midnightblue" stroke="midnightblue" points="1728.66,-592.48 1735.2,-584.15 1724.89,-586.58 1728.66,-592.48"/>
</g>
<!-- Node59 -->
<g id="node27" class="node">
<title>Node59</title>
<g id="a_node27"><a xlink:href="../../d1/d82/data__value__container_8h.html" target="_top" xlink:title=" ">
<polygon fill="none" stroke="black" points="1633.5,-492.5 1633.5,-522.5 1758.5,-522.5 1758.5,-492.5 1633.5,-492.5"/>
<text text-anchor="start" x="1641.5" y="-510.5" font-family="Helvetica,sans-Serif" font-size="10.00">containers/data_value</text>
<text text-anchor="middle" x="1696" y="-499.5" font-family="Helvetica,sans-Serif" font-size="10.00">_container.h</text>
</a>
</g>
</g>
<!-- Node4&#45;&gt;Node59 -->
<g id="edge81" class="edge">
<title>Node4&#45;&gt;Node59</title>
<path fill="none" stroke="midnightblue" d="M1728.72,-816.39C1775.19,-803.06 1854.5,-772.51 1889,-713 1918.64,-661.87 1955.9,-680.74 1825,-559 1809.04,-544.15 1788.2,-533.49 1767.95,-525.91"/>
<polygon fill="midnightblue" stroke="midnightblue" points="1768.99,-522.56 1758.4,-522.53 1766.66,-529.16 1768.99,-522.56"/>
</g>
<!-- Node60 -->
<g id="node28" class="node">
<title>Node60</title>
<g id="a_node28"><a xlink:href="../../da/d89/variable_8h.html" target="_top" xlink:title=" ">
<polygon fill="none" stroke="red" points="1342.5,-375 1342.5,-394 1461.5,-394 1461.5,-375 1342.5,-375"/>
<text text-anchor="middle" x="1402" y="-382" font-family="Helvetica,sans-Serif" font-size="10.00">containers/variable.h</text>
</a>
</g>
</g>
<!-- Node4&#45;&gt;Node60 -->
<g id="edge151" class="edge">
<title>Node4&#45;&gt;Node60</title>
<path fill="none" stroke="midnightblue" d="M1630.04,-820.55C1509.95,-810.32 1260,-779.91 1260,-704 1260,-704 1260,-704 1260,-640.5 1260,-602.74 1267.85,-593.13 1284,-559 1313.49,-496.66 1363.89,-431.64 1388.15,-402"/>
<polygon fill="midnightblue" stroke="midnightblue" points="1390.85,-404.22 1394.53,-394.29 1385.46,-399.76 1390.85,-404.22"/>
</g>
<!-- Node75 -->
<g id="node29" class="node">
<title>Node75</title>
<g id="a_node29"><a xlink:href="../../d3/dc3/variable__data_8h.html" target="_top" xlink:title=" ">
<polygon fill="none" stroke="red" points="1707,-308 1707,-327 1799,-327 1799,-308 1707,-308"/>
<text text-anchor="middle" x="1753" y="-315" font-family="Helvetica,sans-Serif" font-size="10.00">variable_data.h</text>
</a>
</g>
</g>
<!-- Node4&#45;&gt;Node75 -->
<g id="edge152" class="edge">
<title>Node4&#45;&gt;Node75</title>
<path fill="none" stroke="midnightblue" d="M1755.55,-823.97C1855.8,-821.36 2047.15,-812.19 2106,-780 2139.55,-761.65 2147.28,-749.07 2160,-713 2193.29,-618.64 2185.54,-564.91 2117,-492 2028.55,-397.91 1878.57,-349.33 1801.66,-329.53"/>
<polygon fill="midnightblue" stroke="midnightblue" points="1802.31,-326.08 1791.75,-327.04 1800.6,-332.87 1802.31,-326.08"/>
</g>
<!-- Node84 -->
<g id="node31" class="node">
<title>Node84</title>
<g id="a_node31"><a xlink:href="../../d8/d3b/mesh_8h.html" target="_top" xlink:title=" ">
<polygon fill="none" stroke="black" points="2055,-693.5 2055,-712.5 2151,-712.5 2151,-693.5 2055,-693.5"/>
<text text-anchor="middle" x="2103" y="-700.5" font-family="Helvetica,sans-Serif" font-size="10.00">includes/mesh.h</text>
</a>
</g>
</g>
<!-- Node4&#45;&gt;Node84 -->
<g id="edge82" class="edge">
<title>Node4&#45;&gt;Node84</title>
<path fill="none" stroke="midnightblue" d="M1755.58,-821.67C1859.78,-815.56 2059.83,-801.21 2084,-780 2100.1,-765.87 2103.58,-740.36 2103.88,-722.82"/>
<polygon fill="midnightblue" stroke="midnightblue" points="2107.37,-722.59 2103.71,-712.65 2100.37,-722.7 2107.37,-722.59"/>
</g>
<!-- Node88 -->
<g id="node33" class="node">
<title>Node88</title>
<g id="a_node33"><a xlink:href="../../d2/d58/pointer__vector__map_8h.html" target="_top" xlink:title=" ">
<polygon fill="none" stroke="red" points="2710.5,-302.5 2710.5,-332.5 2815.5,-332.5 2815.5,-302.5 2710.5,-302.5"/>
<text text-anchor="start" x="2718.5" y="-320.5" font-family="Helvetica,sans-Serif" font-size="10.00">containers/pointer</text>
<text text-anchor="middle" x="2763" y="-309.5" font-family="Helvetica,sans-Serif" font-size="10.00">_vector_map.h</text>
</a>
</g>
</g>
<!-- Node4&#45;&gt;Node88 -->
<g id="edge143" class="edge">
<title>Node4&#45;&gt;Node88</title>
<path fill="none" stroke="midnightblue" d="M1755.67,-825.26C2000.9,-825.48 2882,-818.31 2882,-704 2882,-704 2882,-704 2882,-445 2882,-396.56 2835.14,-359.1 2800.23,-337.92"/>
<polygon fill="midnightblue" stroke="midnightblue" points="2801.6,-334.66 2791.2,-332.63 2798.06,-340.7 2801.6,-334.66"/>
</g>
<!-- Node100 -->
<g id="node36" class="node">
<title>Node100</title>
<g id="a_node36"><a xlink:href="../../da/da4/master__slave__constraint_8h.html" target="_top" xlink:title=" ">
<polygon fill="none" stroke="red" points="1512,-626.5 1512,-656.5 1638,-656.5 1638,-626.5 1512,-626.5"/>
<text text-anchor="start" x="1520" y="-644.5" font-family="Helvetica,sans-Serif" font-size="10.00">includes/master_slave</text>
<text text-anchor="middle" x="1575" y="-633.5" font-family="Helvetica,sans-Serif" font-size="10.00">_constraint.h</text>
</a>
</g>
</g>
<!-- Node4&#45;&gt;Node100 -->
<g id="edge150" class="edge">
<title>Node4&#45;&gt;Node100</title>
<path fill="none" stroke="midnightblue" d="M1654.23,-816.44C1633.76,-809.9 1610.04,-798.71 1596,-780 1571.19,-746.95 1570.16,-696.64 1572.21,-666.92"/>
<polygon fill="midnightblue" stroke="midnightblue" points="1575.73,-666.88 1573.11,-656.61 1568.76,-666.27 1575.73,-666.88"/>
</g>
<!-- Node111 -->
<g id="node37" class="node">
<title>Node111</title>
<g id="a_node37"><a xlink:href="../../d3/dad/geometry__container_8h.html" target="_top" xlink:title=" ">
<polygon fill="none" stroke="black" points="902,-369.5 902,-399.5 1020,-399.5 1020,-369.5 902,-369.5"/>
<text text-anchor="start" x="910" y="-387.5" font-family="Helvetica,sans-Serif" font-size="10.00">containers/geometry</text>
<text text-anchor="middle" x="961" y="-376.5" font-family="Helvetica,sans-Serif" font-size="10.00">_container.h</text>
</a>
</g>
</g>
<!-- Node4&#45;&gt;Node111 -->
<g id="edge118" class="edge">
<title>Node4&#45;&gt;Node111</title>
<path fill="none" stroke="midnightblue" d="M1630.41,-821.88C1445.08,-811.81 912,-776.55 912,-704 912,-704 912,-704 912,-506.5 912,-470.09 931.3,-431.72 945.68,-408.19"/>
<polygon fill="midnightblue" stroke="midnightblue" points="948.69,-409.97 951.08,-399.65 942.78,-406.22 948.69,-409.97"/>
</g>
<!-- Node112 -->
<g id="node38" class="node">
<title>Node112</title>
<g id="a_node38"><a xlink:href="../../da/d92/pointer__hash__map__set_8h.html" target="_top" xlink:title=" ">
<polygon fill="none" stroke="red" points="1261.5,-302.5 1261.5,-332.5 1366.5,-332.5 1366.5,-302.5 1261.5,-302.5"/>
<text text-anchor="start" x="1269.5" y="-320.5" font-family="Helvetica,sans-Serif" font-size="10.00">containers/pointer</text>
<text text-anchor="middle" x="1314" y="-309.5" font-family="Helvetica,sans-Serif" font-size="10.00">_hash_map_set.h</text>
</a>
</g>
</g>
<!-- Node4&#45;&gt;Node112 -->
<g id="edge144" class="edge">
<title>Node4&#45;&gt;Node112</title>
<path fill="none" stroke="midnightblue" d="M1630.3,-823.2C1532.94,-819.54 1350.6,-808.95 1293,-780 1251.7,-759.24 1222,-750.22 1222,-704 1222,-704 1222,-704 1222,-573.5 1222,-510.82 1278.88,-515.01 1300,-456 1313.56,-418.11 1315.36,-370.84 1314.99,-342.75"/>
<polygon fill="midnightblue" stroke="midnightblue" points="1318.49,-342.56 1314.75,-332.65 1311.49,-342.73 1318.49,-342.56"/>
</g>
<!-- Node114 -->
<g id="node39" class="node">
<title>Node114</title>
<g id="a_node39"><a xlink:href="../../d4/dfe/element_8h.html" target="_top" xlink:title=" ">
<polygon fill="none" stroke="red" points="1638,-693.5 1638,-712.5 1748,-712.5 1748,-693.5 1638,-693.5"/>
<text text-anchor="middle" x="1693" y="-700.5" font-family="Helvetica,sans-Serif" font-size="10.00">includes/element.h</text>
</a>
</g>
</g>
<!-- Node4&#45;&gt;Node114 -->
<g id="edge124" class="edge">
<title>Node4&#45;&gt;Node114</title>
<path fill="none" stroke="midnightblue" d="M1693,-816.3C1693,-796.85 1693,-749.49 1693,-722.9"/>
<polygon fill="midnightblue" stroke="midnightblue" points="1696.5,-722.62 1693,-712.62 1689.5,-722.62 1696.5,-722.62"/>
</g>
<!-- Node132 -->
<g id="node40" class="node">
<title>Node132</title>
<g id="a_node40"><a xlink:href="../../d7/d6c/condition_8h.html" target="_top" xlink:title=" ">
<polygon fill="none" stroke="red" points="1766,-693.5 1766,-712.5 1880,-712.5 1880,-693.5 1766,-693.5"/>
<text text-anchor="middle" x="1823" y="-700.5" font-family="Helvetica,sans-Serif" font-size="10.00">includes/condition.h</text>
</a>
</g>
</g>
<!-- Node4&#45;&gt;Node132 -->
<g id="edge126" class="edge">
<title>Node4&#45;&gt;Node132</title>
<path fill="none" stroke="midnightblue" d="M1702.35,-816.3C1724.18,-795.98 1778.75,-745.19 1806.39,-719.46"/>
<polygon fill="midnightblue" stroke="midnightblue" points="1808.8,-722 1813.74,-712.62 1804.03,-716.87 1808.8,-722"/>
</g>
<!-- Node133 -->
<g id="node41" class="node">
<title>Node133</title>
<g id="a_node41"><a xlink:href="../../d8/d75/communicator_8h.html" target="_top" xlink:title=" ">
<polygon fill="none" stroke="black" points="1935.5,-755 1935.5,-774 2074.5,-774 2074.5,-755 1935.5,-755"/>
<text text-anchor="middle" x="2005" y="-762" font-family="Helvetica,sans-Serif" font-size="10.00">includes/communicator.h</text>
</a>
</g>
</g>
<!-- Node4&#45;&gt;Node133 -->
<g id="edge128" class="edge">
<title>Node4&#45;&gt;Node133</title>
<path fill="none" stroke="midnightblue" d="M1737.7,-816.48C1793.77,-805.78 1889.86,-787.46 1950.27,-775.94"/>
<polygon fill="midnightblue" stroke="midnightblue" points="1951.21,-779.32 1960.38,-774.01 1949.9,-772.44 1951.21,-779.32"/>
</g>
<!-- Node117 -->
<g id="node42" class="node">
<title>Node117</title>
<g id="a_node42"><a xlink:href="../../dd/d98/table_8h.html" target="_top" xlink:title=" ">
<polygon fill="none" stroke="black" points="675,-436.5 675,-455.5 769,-455.5 769,-436.5 675,-436.5"/>
<text text-anchor="middle" x="722" y="-443.5" font-family="Helvetica,sans-Serif" font-size="10.00">includes/table.h</text>
</a>
</g>
</g>
<!-- Node4&#45;&gt;Node117 -->
<g id="edge137" class="edge">
<title>Node4&#45;&gt;Node117</title>
<path fill="none" stroke="midnightblue" d="M1630.5,-823.75C1433.12,-819.55 834.16,-804.8 801,-780 704.09,-707.51 731.29,-642.31 711,-523 707.69,-503.54 711.89,-481.17 716.02,-465.76"/>
<polygon fill="midnightblue" stroke="midnightblue" points="719.45,-466.5 718.9,-455.91 712.73,-464.53 719.45,-466.5"/>
</g>
<!-- Node110 -->
<g id="node43" class="node">
<title>Node110</title>
<g id="a_node43"><a xlink:href="../../d0/dac/kratos__flags_8h.html" target="_top" xlink:title=" ">
<polygon fill="none" stroke="black" points="720,-498 720,-517 848,-517 848,-498 720,-498"/>
<text text-anchor="middle" x="784" y="-505" font-family="Helvetica,sans-Serif" font-size="10.00">includes/kratos_flags.h</text>
</a>
</g>
</g>
<!-- Node4&#45;&gt;Node110 -->
<g id="edge146" class="edge">
<title>Node4&#45;&gt;Node110</title>
<path fill="none" stroke="midnightblue" d="M1630.21,-825.68C1467.11,-826.76 1033.3,-825.18 898,-780 840.24,-760.71 784,-764.89 784,-704 784,-704 784,-704 784,-640.5 784,-600.16 784,-552.88 784,-527.28"/>
<polygon fill="midnightblue" stroke="midnightblue" points="787.5,-527.15 784,-517.15 780.5,-527.15 787.5,-527.15"/>
</g>
<!-- Node9&#45;&gt;Node7 -->
<g id="edge10" class="edge">
<title>Node9&#45;&gt;Node7</title>
<path fill="none" stroke="midnightblue" d="M1315.76,-128.85C1580.34,-112.11 2818.8,-33.73 3052.8,-18.92"/>
<polygon fill="midnightblue" stroke="midnightblue" points="3053.11,-22.4 3062.87,-18.28 3052.67,-15.42 3053.11,-22.4"/>
</g>
<!-- Node10 -->
<g id="node10" class="node">
<title>Node10</title>
<g id="a_node10"><a xlink:title=" ">
<polygon fill="none" stroke="#bfbfbf" points="1441.5,-6 1441.5,-25 1506.5,-25 1506.5,-6 1441.5,-6"/>
<text text-anchor="middle" x="1474" y="-13" font-family="Helvetica,sans-Serif" font-size="10.00">stdexcept</text>
</a>
</g>
</g>
<!-- Node9&#45;&gt;Node10 -->
<g id="edge9" class="edge">
<title>Node9&#45;&gt;Node10</title>
<path fill="none" stroke="midnightblue" d="M1281.63,-123.32C1317.56,-103.37 1406.22,-54.14 1449.48,-30.12"/>
<polygon fill="midnightblue" stroke="midnightblue" points="1451.43,-33.04 1458.47,-25.12 1448.03,-26.92 1451.43,-33.04"/>
</g>
<!-- Node11 -->
<g id="node11" class="node">
<title>Node11</title>
<g id="a_node11"><a xlink:href="../../dc/d25/kratos__export__api_8h.html" target="_top" xlink:title=" ">
<polygon fill="none" stroke="black" points="1271,-0.5 1271,-30.5 1399,-30.5 1399,-0.5 1271,-0.5"/>
<text text-anchor="start" x="1279" y="-18.5" font-family="Helvetica,sans-Serif" font-size="10.00">includes/kratos_export</text>
<text text-anchor="middle" x="1335" y="-7.5" font-family="Helvetica,sans-Serif" font-size="10.00">_api.h</text>
</a>
</g>
</g>
<!-- Node9&#45;&gt;Node11 -->
<g id="edge11" class="edge">
<title>Node9&#45;&gt;Node11</title>
<path fill="none" stroke="midnightblue" d="M1271.19,-123.32C1281.74,-105.66 1306,-65.04 1321.39,-39.29"/>
<polygon fill="midnightblue" stroke="midnightblue" points="1324.49,-40.93 1326.61,-30.55 1318.48,-37.34 1324.49,-40.93"/>
</g>
<!-- Node12 -->
<g id="node12" class="node">
<title>Node12</title>
<g id="a_node12"><a xlink:href="../../d9/dc0/smart__pointers_8h.html" target="_top" xlink:title=" ">
<polygon fill="none" stroke="red" points="1574.5,-67.5 1574.5,-86.5 1717.5,-86.5 1717.5,-67.5 1574.5,-67.5"/>
<text text-anchor="middle" x="1646" y="-74.5" font-family="Helvetica,sans-Serif" font-size="10.00">includes/smart_pointers.h</text>
</a>
</g>
</g>
<!-- Node9&#45;&gt;Node12 -->
<g id="edge12" class="edge">
<title>Node9&#45;&gt;Node12</title>
<path fill="none" stroke="midnightblue" d="M1315.68,-124.94C1382.2,-115.49 1500.57,-98.67 1576.07,-87.94"/>
<polygon fill="midnightblue" stroke="midnightblue" points="1576.57,-91.4 1585.97,-86.53 1575.58,-84.47 1576.57,-91.4"/>
</g>
<!-- Node16 -->
<g id="node13" class="node">
<title>Node16</title>
<g id="a_node13"><a xlink:href="../../dd/d2d/exception_8h.html" target="_top" xlink:title=" ">
<polygon fill="none" stroke="red" points="1439.5,-67.5 1439.5,-86.5 1556.5,-86.5 1556.5,-67.5 1439.5,-67.5"/>
<text text-anchor="middle" x="1498" y="-74.5" font-family="Helvetica,sans-Serif" font-size="10.00">includes/exception.h</text>
</a>
</g>
</g>
<!-- Node9&#45;&gt;Node16 -->
<g id="edge14" class="edge">
<title>Node9&#45;&gt;Node16</title>
<path fill="none" stroke="midnightblue" d="M1302.76,-123.44C1343.06,-114.06 1407.81,-98.99 1451.58,-88.8"/>
<polygon fill="midnightblue" stroke="midnightblue" points="1452.46,-92.19 1461.41,-86.52 1450.88,-85.37 1452.46,-92.19"/>
</g>
<!-- Node12&#45;&gt;Node6 -->
<g id="edge13" class="edge">
<title>Node12&#45;&gt;Node6</title>
<path fill="none" stroke="midnightblue" d="M1717.78,-68.27C1722.59,-67.82 1727.36,-67.39 1732,-67 2018.49,-42.85 2364.37,-24.41 2480.66,-18.51"/>
<polygon fill="midnightblue" stroke="midnightblue" points="2481.06,-21.99 2490.87,-17.99 2480.71,-15 2481.06,-21.99"/>
</g>
<!-- Node16&#45;&gt;Node5 -->
<g id="edge16" class="edge">
<title>Node16&#45;&gt;Node5</title>
<path fill="none" stroke="midnightblue" d="M1439.17,-72.76C1241,-61.84 601.81,-26.63 450.38,-18.28"/>
<polygon fill="midnightblue" stroke="midnightblue" points="450.51,-14.79 440.34,-17.73 450.13,-21.78 450.51,-14.79"/>
</g>
<!-- Node16&#45;&gt;Node6 -->
<g id="edge17" class="edge">
<title>Node16&#45;&gt;Node6</title>
<path fill="none" stroke="midnightblue" d="M1556.57,-67.95C1559.76,-67.61 1562.92,-67.29 1566,-67 1919.72,-34.29 2349.26,-20.98 2480.81,-17.49"/>
<polygon fill="midnightblue" stroke="midnightblue" points="2480.93,-20.99 2490.83,-17.23 2480.74,-13.99 2480.93,-20.99"/>
</g>
<!-- Node16&#45;&gt;Node7 -->
<g id="edge18" class="edge">
<title>Node16&#45;&gt;Node7</title>
<path fill="none" stroke="midnightblue" d="M1556.57,-67.88C1559.75,-67.55 1562.91,-67.25 1566,-67 1718.04,-54.45 2831.2,-23.6 3052.73,-17.54"/>
<polygon fill="midnightblue" stroke="midnightblue" points="3052.98,-21.04 3062.88,-17.26 3052.79,-14.04 3052.98,-21.04"/>
</g>
<!-- Node16&#45;&gt;Node10 -->
<g id="edge15" class="edge">
<title>Node16&#45;&gt;Node10</title>
<path fill="none" stroke="midnightblue" d="M1494.56,-67.48C1491.1,-58.9 1485.67,-45.43 1481.25,-34.48"/>
<polygon fill="midnightblue" stroke="midnightblue" points="1484.42,-32.97 1477.43,-25.01 1477.93,-35.59 1484.42,-32.97"/>
</g>
<!-- Node16&#45;&gt;Node11 -->
<g id="edge20" class="edge">
<title>Node16&#45;&gt;Node11</title>
<path fill="none" stroke="midnightblue" d="M1474.65,-67.48C1450.82,-58.78 1413.15,-45.03 1382.94,-34"/>
<polygon fill="midnightblue" stroke="midnightblue" points="1384.01,-30.66 1373.42,-30.52 1381.61,-37.24 1384.01,-30.66"/>
</g>
<!-- Node17 -->
<g id="node14" class="node">
<title>Node17</title>
<g id="a_node14"><a xlink:title=" ">
<polygon fill="none" stroke="#bfbfbf" points="3257.5,-6 3257.5,-25 3304.5,-25 3304.5,-6 3257.5,-6"/>
<text text-anchor="middle" x="3281" y="-13" font-family="Helvetica,sans-Serif" font-size="10.00">vector</text>
</a>
</g>
</g>
<!-- Node16&#45;&gt;Node17 -->
<g id="edge19" class="edge">
<title>Node16&#45;&gt;Node17</title>
<path fill="none" stroke="midnightblue" d="M1556.56,-67.84C1559.75,-67.52 1562.91,-67.24 1566,-67 2258.33,-13.36 2434.79,-71.78 3128,-31 3169.1,-28.58 3216.24,-23.81 3247.21,-20.4"/>
<polygon fill="midnightblue" stroke="midnightblue" points="3247.9,-23.85 3257.45,-19.26 3247.12,-16.89 3247.9,-23.85"/>
</g>
<!-- Node20&#45;&gt;Node5 -->
<g id="edge24" class="edge">
<title>Node20&#45;&gt;Node5</title>
<path fill="none" stroke="midnightblue" d="M1809.32,-246.49C1767.98,-239.31 1711.03,-227.4 1663,-210 1634.78,-199.78 1631.45,-188.57 1603,-179 1514.49,-149.22 1487.06,-163.69 1396,-143 1364.03,-135.74 1356.96,-130.31 1325,-123 1290.24,-115.04 1044.36,-71.63 1009,-67 796.58,-39.16 539.1,-23.22 450.09,-18.22"/>
<polygon fill="midnightblue" stroke="midnightblue" points="450.26,-14.73 440.08,-17.67 449.87,-21.72 450.26,-14.73"/>
</g>
<!-- Node20&#45;&gt;Node6 -->
<g id="edge28" class="edge">
<title>Node20&#45;&gt;Node6</title>
<path fill="none" stroke="midnightblue" d="M1922.55,-247.55C1927.43,-246.99 1932.3,-246.46 1937,-246 1993.31,-240.44 2405.71,-250.72 2445,-210 2456.04,-198.56 2442.47,-81 2450,-67 2458.91,-50.45 2475.88,-38.08 2491.01,-29.72"/>
<polygon fill="midnightblue" stroke="midnightblue" points="2492.81,-32.72 2500.09,-25.03 2489.6,-26.5 2492.81,-32.72"/>
</g>
<!-- Node20&#45;&gt;Node7 -->
<g id="edge26" class="edge">
<title>Node20&#45;&gt;Node7</title>
<path fill="none" stroke="midnightblue" d="M1922.9,-252.31C2051.01,-246.01 2358.83,-229.31 2461,-210 2696.97,-165.42 2969.48,-63.87 3060,-28.74"/>
<polygon fill="midnightblue" stroke="midnightblue" points="3061.36,-31.96 3069.41,-25.07 3058.82,-25.44 3061.36,-31.96"/>
</g>
<!-- Node20&#45;&gt;Node9 -->
<g id="edge31" class="edge">
<title>Node20&#45;&gt;Node9</title>
<path fill="none" stroke="midnightblue" d="M1809.08,-247.04C1760.86,-239.62 1690.18,-227.11 1630,-210 1592.92,-199.46 1586.23,-188.97 1549,-179 1473.29,-158.73 1383.59,-146.37 1325.79,-139.85"/>
<polygon fill="midnightblue" stroke="midnightblue" points="1326.06,-136.36 1315.73,-138.74 1325.29,-143.32 1326.06,-136.36"/>
</g>
<!-- Node21 -->
<g id="node16" class="node">
<title>Node21</title>
<g id="a_node16"><a xlink:title=" ">
<polygon fill="none" stroke="#bfbfbf" points="774,-185 774,-204 812,-204 812,-185 774,-185"/>
<text text-anchor="middle" x="793" y="-192" font-family="Helvetica,sans-Serif" font-size="10.00">map</text>
</a>
</g>
</g>
<!-- Node20&#45;&gt;Node21 -->
<g id="edge22" class="edge">
<title>Node20&#45;&gt;Node21</title>
<path fill="none" stroke="midnightblue" d="M1809.28,-253.72C1625.21,-249.37 1045.73,-234.08 860,-210 847.53,-208.38 833.94,-205.63 822.28,-202.96"/>
<polygon fill="midnightblue" stroke="midnightblue" points="822.74,-199.47 812.2,-200.56 821.12,-206.28 822.74,-199.47"/>
</g>
<!-- Node22 -->
<g id="node17" class="node">
<title>Node22</title>
<g id="a_node17"><a xlink:title=" ">
<polygon fill="none" stroke="#bfbfbf" points="1850,-185 1850,-204 1882,-204 1882,-185 1850,-185"/>
<text text-anchor="middle" x="1866" y="-192" font-family="Helvetica,sans-Serif" font-size="10.00">set</text>
</a>
</g>
</g>
<!-- Node20&#45;&gt;Node22 -->
<g id="edge23" class="edge">
<title>Node20&#45;&gt;Node22</title>
<path fill="none" stroke="midnightblue" d="M1866,-246.48C1866,-238.08 1866,-224.98 1866,-214.16"/>
<polygon fill="midnightblue" stroke="midnightblue" points="1869.5,-214.01 1866,-204.01 1862.5,-214.01 1869.5,-214.01"/>
</g>
<!-- Node23 -->
<g id="node18" class="node">
<title>Node23</title>
<g id="a_node18"><a xlink:title=" ">
<polygon fill="none" stroke="#bfbfbf" points="1900,-185 1900,-204 1950,-204 1950,-185 1900,-185"/>
<text text-anchor="middle" x="1925" y="-192" font-family="Helvetica,sans-Serif" font-size="10.00">cstring</text>
</a>
</g>
</g>
<!-- Node20&#45;&gt;Node23 -->
<g id="edge25" class="edge">
<title>Node20&#45;&gt;Node23</title>
<path fill="none" stroke="midnightblue" d="M1874.45,-246.48C1883.57,-237.28 1898.27,-222.46 1909.48,-211.16"/>
<polygon fill="midnightblue" stroke="midnightblue" points="1912.01,-213.57 1916.56,-204.01 1907.04,-208.65 1912.01,-213.57"/>
</g>
<!-- Node24 -->
<g id="node19" class="node">
<title>Node24</title>
<g id="a_node19"><a xlink:title=" ">
<polygon fill="none" stroke="#bfbfbf" points="1968.5,-185 1968.5,-204 2023.5,-204 2023.5,-185 1968.5,-185"/>
<text text-anchor="middle" x="1996" y="-192" font-family="Helvetica,sans-Serif" font-size="10.00">fstream</text>
</a>
</g>
</g>
<!-- Node20&#45;&gt;Node24 -->
<g id="edge27" class="edge">
<title>Node20&#45;&gt;Node24</title>
<path fill="none" stroke="midnightblue" d="M1884.63,-246.48C1906.44,-236.49 1942.8,-219.85 1968.02,-208.31"/>
<polygon fill="midnightblue" stroke="midnightblue" points="1969.77,-211.35 1977.41,-204.01 1966.86,-204.99 1969.77,-211.35"/>
</g>
<!-- Node25 -->
<g id="node20" class="node">
<title>Node25</title>
<g id="a_node20"><a xlink:title=" ">
<polygon fill="none" stroke="#bfbfbf" points="1446.5,-185 1446.5,-204 1539.5,-204 1539.5,-185 1446.5,-185"/>
<text text-anchor="middle" x="1493" y="-192" font-family="Helvetica,sans-Serif" font-size="10.00">unordered_map</text>
</a>
</g>
</g>
<!-- Node20&#45;&gt;Node25 -->
<g id="edge29" class="edge">
<title>Node20&#45;&gt;Node25</title>
<path fill="none" stroke="midnightblue" d="M1812.56,-246.48C1742.77,-235.34 1621.1,-215.93 1549.73,-204.55"/>
<polygon fill="midnightblue" stroke="midnightblue" points="1550,-201.05 1539.57,-202.93 1548.9,-207.96 1550,-201.05"/>
</g>
<!-- Node26 -->
<g id="node21" class="node">
<title>Node26</title>
<g id="a_node21"><a xlink:title=" ">
<polygon fill="none" stroke="#bfbfbf" points="2042,-185 2042,-204 2128,-204 2128,-185 2042,-185"/>
<text text-anchor="middle" x="2085" y="-192" font-family="Helvetica,sans-Serif" font-size="10.00">unordered_set</text>
</a>
</g>
</g>
<!-- Node20&#45;&gt;Node26 -->
<g id="edge30" class="edge">
<title>Node20&#45;&gt;Node26</title>
<path fill="none" stroke="midnightblue" d="M1898.04,-246.46C1931.67,-237.47 1986.09,-222.86 2033,-210 2036.81,-208.96 2040.77,-207.86 2044.73,-206.77"/>
<polygon fill="midnightblue" stroke="midnightblue" points="2045.79,-210.1 2054.49,-204.06 2043.92,-203.36 2045.79,-210.1"/>
</g>
<!-- Node20&#45;&gt;Node27 -->
<g id="edge32" class="edge">
<title>Node20&#45;&gt;Node27</title>
<path fill="none" stroke="midnightblue" d="M1809.27,-252.84C1646.65,-246.62 1164.9,-227.93 765,-210 687.36,-206.52 598.33,-202.12 538.15,-199.08"/>
<polygon fill="midnightblue" stroke="midnightblue" points="538.17,-195.58 528.01,-198.57 537.82,-202.57 538.17,-195.58"/>
</g>
<!-- Node31 -->
<g id="node23" class="node">
<title>Node31</title>
<g id="a_node23"><a xlink:href="../../d9/da0/flags_8h.html" target="_top" xlink:title=" ">
<polygon fill="none" stroke="black" points="868.5,-185 868.5,-204 971.5,-204 971.5,-185 868.5,-185"/>
<text text-anchor="middle" x="920" y="-192" font-family="Helvetica,sans-Serif" font-size="10.00">containers/flags.h</text>
</a>
</g>
</g>
<!-- Node20&#45;&gt;Node31 -->
<g id="edge36" class="edge">
<title>Node20&#45;&gt;Node31</title>
<path fill="none" stroke="midnightblue" d="M1809.31,-251.43C1642.6,-240.95 1154.9,-210.27 981.81,-199.39"/>
<polygon fill="midnightblue" stroke="midnightblue" points="981.81,-195.88 971.61,-198.75 981.37,-202.87 981.81,-195.88"/>
</g>
<!-- Node32 -->
<g id="node24" class="node">
<title>Node32</title>
<g id="a_node24"><a xlink:href="../../d9/d36/array__1d_8h.html" target="_top" xlink:title=" ">
<polygon fill="none" stroke="red" points="1672,-185 1672,-204 1794,-204 1794,-185 1672,-185"/>
<text text-anchor="middle" x="1733" y="-192" font-family="Helvetica,sans-Serif" font-size="10.00">containers/array_1d.h</text>
</a>
</g>
</g>
<!-- Node20&#45;&gt;Node32 -->
<g id="edge40" class="edge">
<title>Node20&#45;&gt;Node32</title>
<path fill="none" stroke="midnightblue" d="M1846.94,-246.48C1824.53,-236.45 1787.09,-219.7 1761.29,-208.15"/>
<polygon fill="midnightblue" stroke="midnightblue" points="1762.58,-204.9 1752.02,-204.01 1759.72,-211.29 1762.58,-204.9"/>
</g>
<!-- Node54 -->
<g id="node25" class="node">
<title>Node54</title>
<g id="a_node25"><a xlink:href="../../d5/d10/weak__pointer__vector_8h.html" target="_top" xlink:title=" ">
<polygon fill="none" stroke="red" points="2298.5,-179.5 2298.5,-209.5 2435.5,-209.5 2435.5,-179.5 2298.5,-179.5"/>
<text text-anchor="start" x="2306.5" y="-197.5" font-family="Helvetica,sans-Serif" font-size="10.00">containers/weak_pointer</text>
<text text-anchor="middle" x="2367" y="-186.5" font-family="Helvetica,sans-Serif" font-size="10.00">_vector.h</text>
</a>
</g>
</g>
<!-- Node20&#45;&gt;Node54 -->
<g id="edge44" class="edge">
<title>Node20&#45;&gt;Node54</title>
<path fill="none" stroke="midnightblue" d="M1922.58,-247.78C1927.45,-247.17 1932.31,-246.57 1937,-246 2059.73,-231.02 2202.27,-214.44 2288.49,-204.5"/>
<polygon fill="midnightblue" stroke="midnightblue" points="2288.93,-207.97 2298.46,-203.35 2288.13,-201.02 2288.93,-207.97"/>
</g>
<!-- Node27&#45;&gt;Node5 -->
<g id="edge33" class="edge">
<title>Node27&#45;&gt;Node5</title>
<path fill="none" stroke="midnightblue" d="M465.59,-184.96C457.92,-157.81 433.96,-73.01 423.26,-35.12"/>
<polygon fill="midnightblue" stroke="midnightblue" points="426.59,-34.04 420.51,-25.37 419.86,-35.94 426.59,-34.04"/>
</g>
<!-- Node27&#45;&gt;Node6 -->
<g id="edge34" class="edge">
<title>Node27&#45;&gt;Node6</title>
<path fill="none" stroke="midnightblue" d="M509.81,-184.93C520.3,-182.89 531.55,-180.78 542,-179 884.22,-120.72 969.35,-99.19 1315,-67 1770.92,-24.54 2327.16,-17.77 2480.31,-16.7"/>
<polygon fill="midnightblue" stroke="midnightblue" points="2480.66,-20.2 2490.63,-16.63 2480.61,-13.2 2480.66,-20.2"/>
</g>
<!-- Node27&#45;&gt;Node16 -->
<g id="edge35" class="edge">
<title>Node27&#45;&gt;Node16</title>
<path fill="none" stroke="midnightblue" d="M507.03,-184.96C518.27,-182.75 530.58,-180.55 542,-179 750.48,-150.72 804.77,-165.01 1014,-143 1163.94,-127.23 1339.12,-102 1432.12,-88.07"/>
<polygon fill="midnightblue" stroke="midnightblue" points="1432.86,-91.5 1442.23,-86.55 1431.82,-84.57 1432.86,-91.5"/>
</g>
<!-- Node31&#45;&gt;Node5 -->
<g id="edge37" class="edge">
<title>Node31&#45;&gt;Node5</title>
<path fill="none" stroke="midnightblue" d="M895.79,-184.96C813.21,-155.85 542.62,-60.44 449.68,-27.67"/>
<polygon fill="midnightblue" stroke="midnightblue" points="450.84,-24.37 440.24,-24.34 448.51,-30.97 450.84,-24.37"/>
</g>
<!-- Node31&#45;&gt;Node6 -->
<g id="edge38" class="edge">
<title>Node31&#45;&gt;Node6</title>
<path fill="none" stroke="midnightblue" d="M946.5,-184.97C1021.53,-161.25 1242.2,-94.47 1431,-67 1639.64,-36.64 2309.51,-20.9 2480.81,-17.3"/>
<polygon fill="midnightblue" stroke="midnightblue" points="2480.98,-20.8 2490.91,-17.1 2480.83,-13.8 2480.98,-20.8"/>
</g>
<!-- Node31&#45;&gt;Node9 -->
<g id="edge39" class="edge">
<title>Node31&#45;&gt;Node9</title>
<path fill="none" stroke="midnightblue" d="M956.93,-185C966.38,-182.93 976.55,-180.8 986,-179 1061.59,-164.63 1149.23,-151.04 1206.04,-142.63"/>
<polygon fill="midnightblue" stroke="midnightblue" points="1206.9,-146.04 1216.28,-141.12 1205.88,-139.11 1206.9,-146.04"/>
</g>
<!-- Node32&#45;&gt;Node5 -->
<g id="edge41" class="edge">
<title>Node32&#45;&gt;Node5</title>
<path fill="none" stroke="midnightblue" d="M1689.85,-184.98C1629,-172.94 1521.04,-151.47 1482,-143 1443.65,-134.68 1434.34,-131.36 1396,-123 1274.13,-96.43 1244.57,-83.95 1121,-67 863.97,-31.75 550.47,-20.25 450.35,-17.34"/>
<polygon fill="midnightblue" stroke="midnightblue" points="450.37,-13.84 440.27,-17.05 450.17,-20.83 450.37,-13.84"/>
</g>
<!-- Node32&#45;&gt;Node6 -->
<g id="edge42" class="edge">
<title>Node32&#45;&gt;Node6</title>
<path fill="none" stroke="midnightblue" d="M1735.16,-184.77C1741.54,-160.97 1762.81,-94.9 1808,-67 1865.3,-31.62 2338.05,-19.93 2480.52,-17.19"/>
<polygon fill="midnightblue" stroke="midnightblue" points="2480.65,-20.69 2490.58,-17 2480.52,-13.69 2480.65,-20.69"/>
</g>
<!-- Node32&#45;&gt;Node9 -->
<g id="edge43" class="edge">
<title>Node32&#45;&gt;Node9</title>
<path fill="none" stroke="midnightblue" d="M1671.72,-185.62C1654.95,-183.47 1636.77,-181.14 1620,-179 1516.47,-165.78 1395.9,-150.47 1325.55,-141.55"/>
<polygon fill="midnightblue" stroke="midnightblue" points="1325.9,-138.07 1315.54,-140.28 1325.02,-145.01 1325.9,-138.07"/>
</g>
<!-- Node54&#45;&gt;Node5 -->
<g id="edge45" class="edge">
<title>Node54&#45;&gt;Node5</title>
<path fill="none" stroke="midnightblue" d="M2298.21,-181.13C2293.41,-180.37 2288.64,-179.65 2284,-179 1906.43,-125.72 1809.72,-131.39 1431,-87 1360.7,-78.76 1343.48,-73.53 1273,-67 952.78,-37.31 563.39,-21.74 450.24,-17.63"/>
<polygon fill="midnightblue" stroke="midnightblue" points="450.29,-14.13 440.17,-17.26 450.04,-21.12 450.29,-14.13"/>
</g>
<!-- Node54&#45;&gt;Node6 -->
<g id="edge46" class="edge">
<title>Node54&#45;&gt;Node6</title>
<path fill="none" stroke="midnightblue" d="M2368.48,-179.14C2371.82,-153.56 2382.16,-99.73 2412,-67 2430.24,-47 2458,-34.3 2480.94,-26.64"/>
<polygon fill="midnightblue" stroke="midnightblue" points="2482.27,-29.89 2490.77,-23.56 2480.18,-23.21 2482.27,-29.89"/>
</g>
<!-- Node54&#45;&gt;Node7 -->
<g id="edge47" class="edge">
<title>Node54&#45;&gt;Node7</title>
<path fill="none" stroke="midnightblue" d="M2424.42,-179.46C2566.92,-144.62 2933.88,-54.91 3053.03,-25.78"/>
<polygon fill="midnightblue" stroke="midnightblue" points="3053.92,-29.17 3062.8,-23.39 3052.26,-22.37 3053.92,-29.17"/>
</g>
<!-- Node54&#45;&gt;Node9 -->
<g id="edge49" class="edge">
<title>Node54&#45;&gt;Node9</title>
<path fill="none" stroke="midnightblue" d="M2298.3,-184.38C2281.24,-182.36 2262.97,-180.4 2246,-179 2065.67,-164.07 1509.55,-142.92 1325.69,-136.17"/>
<polygon fill="midnightblue" stroke="midnightblue" points="1325.79,-132.67 1315.67,-135.8 1325.54,-139.66 1325.79,-132.67"/>
</g>
<!-- Node54&#45;&gt;Node17 -->
<g id="edge48" class="edge">
<title>Node54&#45;&gt;Node17</title>
<path fill="none" stroke="midnightblue" d="M2435.68,-180.29C2488.54,-170.11 2563.39,-155.69 2629,-143 2865.78,-97.21 3150.88,-41.8 3247.29,-23.06"/>
<polygon fill="midnightblue" stroke="midnightblue" points="3248.17,-26.45 3257.32,-21.11 3246.83,-19.58 3248.17,-26.45"/>
</g>
<!-- Node58&#45;&gt;Node5 -->
<g id="edge51" class="edge">
<title>Node58&#45;&gt;Node5</title>
<path fill="none" stroke="midnightblue" d="M1684.35,-570.1C1626.59,-567.13 1540.21,-562.71 1465,-559 1297.46,-550.74 873.98,-562.71 711,-523 583.67,-491.98 555,-468.06 443,-400 383.56,-363.88 190,-204.2 190,-195.5 190,-195.5 190,-195.5 190,-132 190,-45.38 322.57,-23.7 385.53,-18.29"/>
<polygon fill="midnightblue" stroke="midnightblue" points="386.02,-21.77 395.72,-17.51 385.48,-14.79 386.02,-21.77"/>
</g>
<!-- Node58&#45;&gt;Node6 -->
<g id="edge52" class="edge">
<title>Node58&#45;&gt;Node6</title>
<path fill="none" stroke="midnightblue" d="M1784.01,-564.95C1879.14,-540.07 2141,-464.4 2141,-385.5 2141,-385.5 2141,-385.5 2141,-316.5 2141,-283.93 2135.78,-266.61 2161,-246 2242.98,-179.03 2560.64,-284.34 2636,-210 2682.17,-164.46 2653.48,-112.22 2607,-67 2590.77,-51.21 2568.68,-38.37 2550.95,-29.59"/>
<polygon fill="midnightblue" stroke="midnightblue" points="2552.15,-26.29 2541.61,-25.14 2549.13,-32.61 2552.15,-26.29"/>
</g>
<!-- Node58&#45;&gt;Node7 -->
<g id="edge53" class="edge">
<title>Node58&#45;&gt;Node7</title>
<path fill="none" stroke="midnightblue" d="M1815.6,-572C1991.12,-565.33 2481.39,-529.12 2825,-333 2939.91,-267.41 2929.48,-201.48 3036,-123 3063.53,-102.72 3086.36,-116.3 3104,-87 3113.6,-71.06 3107.55,-49.69 3100.86,-34.68"/>
<polygon fill="midnightblue" stroke="midnightblue" points="3103.87,-32.86 3096.31,-25.44 3097.59,-35.95 3103.87,-32.86"/>
</g>
<!-- Node58&#45;&gt;Node8 -->
<g id="edge54" class="edge">
<title>Node58&#45;&gt;Node8</title>
<path fill="none" stroke="midnightblue" d="M1815.59,-568.87C1875.74,-563.07 1966.5,-550.33 2041,-523 2096.17,-502.76 2120.79,-503.79 2155,-456 2195.19,-399.86 2197.89,-313.22 2196.94,-275.55"/>
<polygon fill="midnightblue" stroke="midnightblue" points="2200.43,-275.38 2196.56,-265.52 2193.44,-275.64 2200.43,-275.38"/>
</g>
<!-- Node58&#45;&gt;Node9 -->
<g id="edge55" class="edge">
<title>Node58&#45;&gt;Node9</title>
<path fill="none" stroke="midnightblue" d="M1684.44,-565.29C1559.37,-549.04 1278.43,-509.62 1046,-456 960.63,-436.31 925.28,-454.89 857,-400 830.49,-378.69 835.18,-363.44 820,-333 787.57,-267.96 715.96,-232.64 765,-179 779.7,-162.92 1076.03,-144.56 1205.89,-137.25"/>
<polygon fill="midnightblue" stroke="midnightblue" points="1206.28,-140.73 1216.07,-136.68 1205.89,-133.74 1206.28,-140.73"/>
</g>
<!-- Node58&#45;&gt;Node31 -->
<g id="edge80" class="edge">
<title>Node58&#45;&gt;Node31</title>
<path fill="none" stroke="midnightblue" d="M1719.56,-564.99C1693.17,-556.76 1654.67,-542.64 1625,-523 1544.28,-469.58 1557.1,-413.23 1471,-369 1383.65,-324.13 1347.44,-359.91 1253,-333 1221.99,-324.16 1024.82,-240.32 949.34,-208.06"/>
<polygon fill="midnightblue" stroke="midnightblue" points="950.5,-204.76 939.93,-204.04 947.75,-211.19 950.5,-204.76"/>
</g>
<!-- Node58&#45;&gt;Node59 -->
<g id="edge56" class="edge">
<title>Node58&#45;&gt;Node59</title>
<path fill="none" stroke="midnightblue" d="M1742.72,-564.73C1735.42,-555.95 1723.9,-542.08 1714.12,-530.31"/>
<polygon fill="midnightblue" stroke="midnightblue" points="1716.79,-528.04 1707.7,-522.59 1711.4,-532.52 1716.79,-528.04"/>
</g>
<!-- Node59&#45;&gt;Node5 -->
<g id="edge57" class="edge">
<title>Node59&#45;&gt;Node5</title>
<path fill="none" stroke="midnightblue" d="M1633.4,-505.78C1439.84,-503.2 852.81,-492.48 666,-456 592.06,-441.56 573.55,-433.38 506,-400 397.23,-346.26 353.98,-323.07 310,-210 286.95,-150.74 274.35,-116.7 314,-67 331.99,-44.45 362.56,-31.3 385.92,-24.11"/>
<polygon fill="midnightblue" stroke="midnightblue" points="387.1,-27.41 395.75,-21.29 385.17,-20.68 387.1,-27.41"/>
</g>
<!-- Node59&#45;&gt;Node6 -->
<g id="edge58" class="edge">
<title>Node59&#45;&gt;Node6</title>
<path fill="none" stroke="midnightblue" d="M1735.33,-492.41C1802.94,-467.06 1943.78,-409.21 2046,-333 2088.35,-301.42 2079.37,-268.86 2127,-246 2224.63,-199.14 2537.55,-287.69 2613,-210 2658.12,-163.54 2626.93,-116.36 2585,-67 2573.01,-52.89 2556.57,-40.01 2543.35,-30.79"/>
<polygon fill="midnightblue" stroke="midnightblue" points="2545.05,-27.72 2534.8,-25.03 2541.13,-33.52 2545.05,-27.72"/>
</g>
<!-- Node59&#45;&gt;Node8 -->
<g id="edge59" class="edge">
<title>Node59&#45;&gt;Node8</title>
<path fill="none" stroke="midnightblue" d="M1758.55,-500.06C1806.35,-493.45 1872.98,-480.52 1927,-456 2034.17,-407.36 2140.18,-311.08 2179.75,-273.02"/>
<polygon fill="midnightblue" stroke="midnightblue" points="2182.43,-275.3 2187.17,-265.82 2177.55,-270.28 2182.43,-275.3"/>
</g>
<!-- Node59&#45;&gt;Node9 -->
<g id="edge61" class="edge">
<title>Node59&#45;&gt;Node9</title>
<path fill="none" stroke="midnightblue" d="M1671.94,-492.3C1657.92,-483.19 1640.58,-470.4 1628,-456 1598.94,-422.74 1610.3,-401.13 1580,-369 1489.15,-272.65 1427.15,-297.79 1328,-210 1307.96,-192.26 1289.16,-167.66 1277.63,-151.31"/>
<polygon fill="midnightblue" stroke="midnightblue" points="1280.28,-148.99 1271.73,-142.75 1274.52,-152.97 1280.28,-148.99"/>
</g>
<!-- Node59&#45;&gt;Node16 -->
<g id="edge79" class="edge">
<title>Node59&#45;&gt;Node16</title>
<path fill="none" stroke="midnightblue" d="M1689.92,-492.35C1670.25,-446.67 1606.25,-299.11 1549,-179 1534.9,-149.42 1517.52,-115.5 1507.12,-95.46"/>
<polygon fill="midnightblue" stroke="midnightblue" points="1510.22,-93.84 1502.5,-86.58 1504.01,-97.07 1510.22,-93.84"/>
</g>
<!-- Node59&#45;&gt;Node17 -->
<g id="edge60" class="edge">
<title>Node59&#45;&gt;Node17</title>
<path fill="none" stroke="midnightblue" d="M1758.6,-506.17C1959.41,-502.94 2601.98,-475.79 3077,-266 3191.05,-215.63 3247.99,-203.27 3293,-87 3299.64,-69.86 3294.58,-48.96 3289.14,-34.39"/>
<polygon fill="midnightblue" stroke="midnightblue" points="3292.33,-32.94 3285.27,-25.04 3285.86,-35.62 3292.33,-32.94"/>
</g>
<!-- Node59&#45;&gt;Node60 -->
<g id="edge62" class="edge">
<title>Node59&#45;&gt;Node60</title>
<path fill="none" stroke="midnightblue" d="M1661.7,-492.38C1603.8,-468.56 1487.62,-420.74 1432.44,-398.03"/>
<polygon fill="midnightblue" stroke="midnightblue" points="1433.46,-394.66 1422.88,-394.09 1430.79,-401.13 1433.46,-394.66"/>
</g>
<!-- Node77 -->
<g id="node30" class="node">
<title>Node77</title>
<g id="a_node30"><a xlink:href="../../dc/d8e/kratos__components_8h.html" target="_top" xlink:title=" ">
<polygon fill="none" stroke="red" points="1054.5,-436.5 1054.5,-455.5 1219.5,-455.5 1219.5,-436.5 1054.5,-436.5"/>
<text text-anchor="middle" x="1137" y="-443.5" font-family="Helvetica,sans-Serif" font-size="10.00">includes/kratos_components.h</text>
</a>
</g>
</g>
<!-- Node59&#45;&gt;Node77 -->
<g id="edge72" class="edge">
<title>Node59&#45;&gt;Node77</title>
<path fill="none" stroke="midnightblue" d="M1633.23,-499.82C1534.12,-489.27 1340.94,-468.71 1227.05,-456.59"/>
<polygon fill="midnightblue" stroke="midnightblue" points="1227.28,-453.09 1216.96,-455.51 1226.54,-460.05 1227.28,-453.09"/>
</g>
<!-- Node60&#45;&gt;Node5 -->
<g id="edge63" class="edge">
<title>Node60&#45;&gt;Node5</title>
<path fill="none" stroke="midnightblue" d="M1342.14,-375.3C1130.69,-346.06 429.91,-246.71 399,-210 356.08,-159.02 390.66,-71.58 408.73,-34.24"/>
<polygon fill="midnightblue" stroke="midnightblue" points="411.96,-35.62 413.31,-25.11 405.7,-32.48 411.96,-35.62"/>
</g>
<!-- Node60&#45;&gt;Node6 -->
<g id="edge64" class="edge">
<title>Node60&#45;&gt;Node6</title>
<path fill="none" stroke="midnightblue" d="M1442.22,-374.97C1453.14,-372.83 1465,-370.67 1476,-369 1622.74,-346.71 1669.43,-386.16 1808,-333 1830,-324.56 1829.92,-312.52 1851,-302 1899.3,-277.9 1916.39,-284.79 1967,-266 1987.9,-258.24 1991.36,-251.37 2013,-246 2115.1,-220.68 2406.72,-280.27 2485,-210 2510.68,-186.95 2518.25,-79.85 2520.3,-35.65"/>
<polygon fill="midnightblue" stroke="midnightblue" points="2523.8,-35.55 2520.72,-25.41 2516.81,-35.26 2523.8,-35.55"/>
</g>
<!-- Node60&#45;&gt;Node9 -->
<g id="edge65" class="edge">
<title>Node60&#45;&gt;Node9</title>
<path fill="none" stroke="midnightblue" d="M1401.26,-374.96C1399.47,-359.02 1393.7,-324.36 1376,-302 1356.7,-277.62 1341.14,-284.31 1316,-266 1285.45,-243.74 1267.62,-244.42 1252,-210 1243.54,-191.36 1250.14,-167.94 1256.85,-152.06"/>
<polygon fill="midnightblue" stroke="midnightblue" points="1260.09,-153.39 1261.12,-142.84 1253.74,-150.45 1260.09,-153.39"/>
</g>
<!-- Node60&#45;&gt;Node75 -->
<g id="edge66" class="edge">
<title>Node60&#45;&gt;Node75</title>
<path fill="none" stroke="midnightblue" d="M1445.02,-374.97C1455.18,-372.98 1465.97,-370.9 1476,-369 1552.42,-354.55 1640.84,-338.55 1696.83,-328.52"/>
<polygon fill="midnightblue" stroke="midnightblue" points="1697.67,-331.92 1706.89,-326.71 1696.43,-325.03 1697.67,-331.92"/>
</g>
<!-- Node75&#45;&gt;Node5 -->
<g id="edge67" class="edge">
<title>Node75&#45;&gt;Node5</title>
<path fill="none" stroke="midnightblue" d="M1714.84,-307.93C1519.2,-263.96 630.76,-64.31 450.11,-23.72"/>
<polygon fill="midnightblue" stroke="midnightblue" points="450.7,-20.26 440.17,-21.48 449.16,-27.09 450.7,-20.26"/>
</g>
<!-- Node75&#45;&gt;Node6 -->
<g id="edge68" class="edge">
<title>Node75&#45;&gt;Node6</title>
<path fill="none" stroke="midnightblue" d="M1785.59,-307.98C1829.47,-296.39 1905.13,-275.97 1932,-266 1951.76,-258.67 1954.6,-251.31 1975,-246 2079.8,-218.72 2380.23,-282.14 2461,-210 2509.24,-166.91 2463.85,-127 2488,-67 2492.86,-54.93 2500.78,-42.67 2507.64,-33.26"/>
<polygon fill="midnightblue" stroke="midnightblue" points="2510.5,-35.28 2513.76,-25.21 2504.93,-31.05 2510.5,-35.28"/>
</g>
<!-- Node75&#45;&gt;Node8 -->
<g id="edge69" class="edge">
<title>Node75&#45;&gt;Node8</title>
<path fill="none" stroke="midnightblue" d="M1799.16,-310.3C1887.49,-298.44 2078.81,-272.74 2159.22,-261.94"/>
<polygon fill="midnightblue" stroke="midnightblue" points="2159.92,-265.38 2169.36,-260.58 2158.99,-258.44 2159.92,-265.38"/>
</g>
<!-- Node75&#45;&gt;Node9 -->
<g id="edge70" class="edge">
<title>Node75&#45;&gt;Node9</title>
<path fill="none" stroke="midnightblue" d="M1740.05,-307.79C1716.98,-292.71 1666.79,-261.83 1620,-246 1527.81,-214.81 1494.76,-245.13 1404,-210 1380.32,-200.83 1378.06,-191.59 1356,-179 1335.64,-167.38 1311.91,-155.59 1293.92,-146.98"/>
<polygon fill="midnightblue" stroke="midnightblue" points="1295.12,-143.68 1284.58,-142.56 1292.12,-150 1295.12,-143.68"/>
</g>
<!-- Node75&#45;&gt;Node20 -->
<g id="edge71" class="edge">
<title>Node75&#45;&gt;Node20</title>
<path fill="none" stroke="midnightblue" d="M1769.19,-307.98C1787.9,-298.12 1818.92,-281.79 1840.8,-270.27"/>
<polygon fill="midnightblue" stroke="midnightblue" points="1842.62,-273.27 1849.84,-265.51 1839.36,-267.07 1842.62,-273.27"/>
</g>
<!-- Node77&#45;&gt;Node5 -->
<g id="edge73" class="edge">
<title>Node77&#45;&gt;Node5</title>
<path fill="none" stroke="midnightblue" d="M1054.2,-436.52C997.92,-429.59 922.15,-417.95 857,-400 636.6,-339.28 512.95,-395.26 379,-210 341.73,-158.45 361.54,-126.13 385,-67 389.8,-54.9 397.72,-42.65 404.59,-33.24"/>
<polygon fill="midnightblue" stroke="midnightblue" points="407.45,-35.27 410.73,-25.19 401.88,-31.02 407.45,-35.27"/>
</g>
<!-- Node77&#45;&gt;Node6 -->
<g id="edge74" class="edge">
<title>Node77&#45;&gt;Node6</title>
<path fill="none" stroke="midnightblue" d="M1158.46,-436.39C1194.54,-421.98 1269.72,-392.28 1334,-369 1540.94,-294.04 1610.44,-316.6 1803,-210 1822.07,-199.44 1821.46,-188.67 1841,-179 2066.31,-67.53 2372.12,-30.06 2480.71,-19.82"/>
<polygon fill="midnightblue" stroke="midnightblue" points="2481.26,-23.28 2490.9,-18.89 2480.62,-16.31 2481.26,-23.28"/>
</g>
<!-- Node77&#45;&gt;Node9 -->
<g id="edge76" class="edge">
<title>Node77&#45;&gt;Node9</title>
<path fill="none" stroke="midnightblue" d="M1136.45,-436.28C1135.32,-421.85 1132.01,-392.27 1123,-369 1088.61,-280.21 963.13,-252.23 1024,-179 1046.75,-151.63 1142.37,-140.82 1206.39,-136.62"/>
<polygon fill="midnightblue" stroke="midnightblue" points="1206.61,-140.11 1216.37,-136 1206.17,-133.12 1206.61,-140.11"/>
</g>
<!-- Node77&#45;&gt;Node21 -->
<g id="edge75" class="edge">
<title>Node77&#45;&gt;Node21</title>
<path fill="none" stroke="midnightblue" d="M1054.44,-437.74C993.89,-430.97 918.05,-419.01 893,-400 830.27,-352.39 804.61,-255 796.31,-214.17"/>
<polygon fill="midnightblue" stroke="midnightblue" points="799.73,-213.4 794.42,-204.24 792.86,-214.72 799.73,-213.4"/>
</g>
<!-- Node77&#45;&gt;Node31 -->
<g id="edge77" class="edge">
<title>Node77&#45;&gt;Node31</title>
<path fill="none" stroke="midnightblue" d="M1133.99,-436.49C1128.57,-421.84 1116.22,-391.32 1100,-369 1093.41,-359.93 980.14,-252.42 936.73,-211.33"/>
<polygon fill="midnightblue" stroke="midnightblue" points="938.93,-208.59 929.26,-204.26 934.12,-213.67 938.93,-208.59"/>
</g>
<!-- Node77&#45;&gt;Node60 -->
<g id="edge78" class="edge">
<title>Node77&#45;&gt;Node60</title>
<path fill="none" stroke="midnightblue" d="M1174.97,-436.48C1222.2,-425.87 1302.86,-407.76 1354.24,-396.22"/>
<polygon fill="midnightblue" stroke="midnightblue" points="1355.11,-399.61 1364.1,-394.01 1353.58,-392.78 1355.11,-399.61"/>
</g>
<!-- Node84&#45;&gt;Node5 -->
<g id="edge83" class="edge">
<title>Node84&#45;&gt;Node5</title>
<path fill="none" stroke="midnightblue" d="M2054.72,-699.43C1764.3,-683.93 261.37,-603.11 242,-590 186.77,-552.6 114,-385.2 114,-318.5 114,-318.5 114,-318.5 114,-132 114,-97.61 127.49,-86.24 156,-67 193.13,-41.94 323.67,-25.92 385.31,-19.59"/>
<polygon fill="midnightblue" stroke="midnightblue" points="386.03,-23.03 395.63,-18.55 385.33,-16.07 386.03,-23.03"/>
</g>
<!-- Node84&#45;&gt;Node6 -->
<g id="edge84" class="edge">
<title>Node84&#45;&gt;Node6</title>
<path fill="none" stroke="midnightblue" d="M2151.01,-695.42C2288.02,-673.7 2680.27,-590.36 2825,-333 2884.92,-226.45 2854.58,-137.92 2755,-67 2696.85,-25.59 2611.37,-17.01 2561.43,-15.85"/>
<polygon fill="midnightblue" stroke="midnightblue" points="2561.38,-12.35 2551.34,-15.71 2561.29,-19.35 2561.38,-12.35"/>
</g>
<!-- Node84&#45;&gt;Node7 -->
<g id="edge85" class="edge">
<title>Node84&#45;&gt;Node7</title>
<path fill="none" stroke="midnightblue" d="M2151.23,-696.68C2330.23,-675.96 2952.97,-594.87 3086,-456 3138.51,-401.19 3184,-195.65 3162,-123 3151.13,-87.08 3123.7,-52.21 3106.29,-32.63"/>
<polygon fill="midnightblue" stroke="midnightblue" points="3108.85,-30.24 3099.53,-25.22 3103.68,-34.96 3108.85,-30.24"/>
</g>
<!-- Node84&#45;&gt;Node8 -->
<g id="edge86" class="edge">
<title>Node84&#45;&gt;Node8</title>
<path fill="none" stroke="midnightblue" d="M2117.3,-693.34C2155.14,-669.21 2255,-597.14 2255,-508.5 2255,-508.5 2255,-508.5 2255,-383.5 2255,-340.71 2226.93,-296.77 2209.52,-273.62"/>
<polygon fill="midnightblue" stroke="midnightblue" points="2212.14,-271.29 2203.23,-265.55 2206.62,-275.59 2212.14,-271.29"/>
</g>
<!-- Node84&#45;&gt;Node9 -->
<g id="edge87" class="edge">
<title>Node84&#45;&gt;Node9</title>
<path fill="none" stroke="midnightblue" d="M2098.77,-693.29C2091.22,-678.36 2074.32,-647.4 2054,-626 2018.92,-589.06 2003.31,-587.37 1961,-559 1828.36,-470.05 1794.36,-448.76 1656,-369 1601.05,-337.32 1586.03,-331.71 1530,-302 1452.71,-261.02 1425.5,-263.12 1356,-210 1341.01,-198.54 1341.09,-191.54 1327,-179 1314.62,-167.99 1299.66,-156.92 1287.66,-148.52"/>
<polygon fill="midnightblue" stroke="midnightblue" points="1289.37,-145.45 1279.14,-142.66 1285.4,-151.21 1289.37,-145.45"/>
</g>
<!-- Node84&#45;&gt;Node31 -->
<g id="edge110" class="edge">
<title>Node84&#45;&gt;Node31</title>
<path fill="none" stroke="midnightblue" d="M2054.92,-698.73C1913.51,-689.08 1508.54,-661.11 1503,-657 1465.47,-629.18 1502.28,-587.15 1465,-559 1396.08,-506.95 1150.8,-569.48 1078,-523 1048.96,-504.46 1049.86,-488.7 1039,-456 1026.73,-419.06 1044.89,-404.53 1029,-369 1020.26,-349.46 1010.2,-349.86 997,-333 974.74,-304.56 968.57,-297.56 951,-266 941.48,-248.89 932.7,-228.28 926.94,-213.78"/>
<polygon fill="midnightblue" stroke="midnightblue" points="930.19,-212.49 923.31,-204.44 923.67,-215.03 930.19,-212.49"/>
</g>
<!-- Node84&#45;&gt;Node59 -->
<g id="edge111" class="edge">
<title>Node84&#45;&gt;Node59</title>
<path fill="none" stroke="midnightblue" d="M2094.92,-693.31C2071.09,-668.22 1997.94,-595.14 1922,-559 1873.74,-536.03 1814.65,-523.3 1769,-516.36"/>
<polygon fill="midnightblue" stroke="midnightblue" points="1769.29,-512.87 1758.88,-514.89 1768.27,-519.8 1769.29,-512.87"/>
</g>
<!-- Node85 -->
<g id="node32" class="node">
<title>Node85</title>
<g id="a_node32"><a xlink:href="../../d4/d35/pointer__vector__set_8h.html" target="_top" xlink:title=" ">
<polygon fill="none" stroke="red" points="2435.5,-302.5 2435.5,-332.5 2540.5,-332.5 2540.5,-302.5 2435.5,-302.5"/>
<text text-anchor="start" x="2443.5" y="-320.5" font-family="Helvetica,sans-Serif" font-size="10.00">containers/pointer</text>
<text text-anchor="middle" x="2488" y="-309.5" font-family="Helvetica,sans-Serif" font-size="10.00">_vector_set.h</text>
</a>
</g>
</g>
<!-- Node84&#45;&gt;Node85 -->
<g id="edge88" class="edge">
<title>Node84&#45;&gt;Node85</title>
<path fill="none" stroke="midnightblue" d="M2151.2,-693.63C2177.12,-687.15 2208.32,-675.96 2231,-657 2257.26,-635.04 2253.02,-620.27 2269,-590 2291.64,-547.11 2289.56,-531.99 2317,-492 2359.17,-430.54 2377.71,-421.11 2431,-369 2441.29,-358.94 2453.14,-348.3 2463.36,-339.39"/>
<polygon fill="midnightblue" stroke="midnightblue" points="2465.87,-341.85 2471.15,-332.67 2461.29,-336.55 2465.87,-341.85"/>
</g>
<!-- Node84&#45;&gt;Node88 -->
<g id="edge96" class="edge">
<title>Node84&#45;&gt;Node88</title>
<path fill="none" stroke="midnightblue" d="M2151.16,-693.89C2182.5,-687.19 2223.46,-675.67 2256,-657 2348.71,-603.79 2343.92,-554 2431,-492 2527.19,-423.51 2653.94,-364.89 2719.52,-336.6"/>
<polygon fill="midnightblue" stroke="midnightblue" points="2720.93,-339.81 2728.74,-332.65 2718.17,-333.37 2720.93,-339.81"/>
</g>
<!-- Node90 -->
<g id="node34" class="node">
<title>Node90</title>
<g id="a_node34"><a xlink:href="../../de/d69/indexed__object_8h.html" target="_top" xlink:title=" ">
<polygon fill="none" stroke="black" points="1893.5,-308 1893.5,-327 2036.5,-327 2036.5,-308 1893.5,-308"/>
<text text-anchor="middle" x="1965" y="-315" font-family="Helvetica,sans-Serif" font-size="10.00">includes/indexed_object.h</text>
</a>
</g>
</g>
<!-- Node84&#45;&gt;Node90 -->
<g id="edge103" class="edge">
<title>Node84&#45;&gt;Node90</title>
<path fill="none" stroke="midnightblue" d="M2106.6,-693.22C2110.06,-684.28 2115.03,-669.94 2117,-657 2128.02,-584.5 2142.81,-560.64 2117,-492 2090.36,-421.16 2020.22,-360.36 1985.32,-333.38"/>
<polygon fill="midnightblue" stroke="midnightblue" points="1987.34,-330.52 1977.25,-327.27 1983.11,-336.1 1987.34,-330.52"/>
</g>
<!-- Node91 -->
<g id="node35" class="node">
<title>Node91</title>
<g id="a_node35"><a xlink:href="../../d4/d67/geometry_8h.html" target="_top" xlink:title=" ">
<polygon fill="none" stroke="red" points="1326,-565 1326,-584 1456,-584 1456,-565 1326,-565"/>
<text text-anchor="middle" x="1391" y="-572" font-family="Helvetica,sans-Serif" font-size="10.00">geometries/geometry.h</text>
</a>
</g>
</g>
<!-- Node84&#45;&gt;Node91 -->
<g id="edge107" class="edge">
<title>Node84&#45;&gt;Node91</title>
<path fill="none" stroke="midnightblue" d="M2054.96,-698.81C1908.41,-689.06 1476.63,-660.09 1470,-657 1439.91,-642.98 1415.22,-612.13 1401.84,-592.66"/>
<polygon fill="midnightblue" stroke="midnightblue" points="1404.65,-590.56 1396.22,-584.14 1398.81,-594.42 1404.65,-590.56"/>
</g>
<!-- Node84&#45;&gt;Node100 -->
<g id="edge112" class="edge">
<title>Node84&#45;&gt;Node100</title>
<path fill="none" stroke="midnightblue" d="M2054.74,-696.56C1961.92,-686.1 1758,-663.12 1648.3,-650.76"/>
<polygon fill="midnightblue" stroke="midnightblue" points="1648.63,-647.28 1638.3,-649.63 1647.85,-654.23 1648.63,-647.28"/>
</g>
<!-- Node85&#45;&gt;Node5 -->
<g id="edge90" class="edge">
<title>Node85&#45;&gt;Node5</title>
<path fill="none" stroke="midnightblue" d="M2435.39,-305.28C2399.94,-296.77 2352.61,-283.54 2313,-266 2245.67,-236.18 2241.84,-202.33 2172,-179 2006.9,-123.84 1955.19,-160.52 1782,-143 1555.57,-120.1 1497.08,-126.81 1273,-87 1236.49,-80.51 1228.64,-72.67 1192,-67 906.7,-22.83 556.43,-17.22 450.09,-16.57"/>
<polygon fill="midnightblue" stroke="midnightblue" points="450.03,-13.07 440.01,-16.52 449.99,-20.07 450.03,-13.07"/>
</g>
<!-- Node85&#45;&gt;Node6 -->
<g id="edge91" class="edge">
<title>Node85&#45;&gt;Node6</title>
<path fill="none" stroke="midnightblue" d="M2540.69,-311.45C2601.46,-302.49 2698.79,-277.78 2744,-210 2780.49,-155.29 2759.5,-105.24 2706,-67 2662.74,-36.08 2601.44,-24.08 2561.46,-19.43"/>
<polygon fill="midnightblue" stroke="midnightblue" points="2561.59,-15.93 2551.28,-18.36 2560.85,-22.89 2561.59,-15.93"/>
</g>
<!-- Node85&#45;&gt;Node7 -->
<g id="edge92" class="edge">
<title>Node85&#45;&gt;Node7</title>
<path fill="none" stroke="midnightblue" d="M2540.77,-309.9C2586.81,-302.89 2654.7,-289.49 2710,-266 2788.19,-232.78 3003.58,-79.53 3070.73,-31.16"/>
<polygon fill="midnightblue" stroke="midnightblue" points="3073.13,-33.75 3079.19,-25.06 3069.04,-28.07 3073.13,-33.75"/>
</g>
<!-- Node85&#45;&gt;Node8 -->
<g id="edge93" class="edge">
<title>Node85&#45;&gt;Node8</title>
<path fill="none" stroke="midnightblue" d="M2435.35,-305C2430.5,-303.97 2425.66,-302.96 2421,-302 2339.39,-285.19 2318.59,-282.93 2237,-266 2235.72,-265.73 2234.41,-265.46 2233.09,-265.18"/>
<polygon fill="midnightblue" stroke="midnightblue" points="2233.4,-261.67 2222.89,-262.99 2231.93,-268.51 2233.4,-261.67"/>
</g>
<!-- Node85&#45;&gt;Node9 -->
<g id="edge94" class="edge">
<title>Node85&#45;&gt;Node9</title>
<path fill="none" stroke="midnightblue" d="M2435.31,-304.87C2377.17,-291.91 2289.83,-271.97 2275,-266 2229.53,-247.7 2221.03,-236.8 2180,-210 2160.28,-197.12 2159.23,-186.82 2137,-179 2117.86,-172.27 1519.69,-145.24 1325.93,-136.64"/>
<polygon fill="midnightblue" stroke="midnightblue" points="1325.79,-133.13 1315.65,-136.19 1325.48,-140.13 1325.79,-133.13"/>
</g>
<!-- Node85&#45;&gt;Node17 -->
<g id="edge89" class="edge">
<title>Node85&#45;&gt;Node17</title>
<path fill="none" stroke="midnightblue" d="M2540.98,-309.71C2593.02,-302.17 2674.24,-288.07 2742,-266 2949.84,-198.3 3183.05,-71.64 3257.11,-30.09"/>
<polygon fill="midnightblue" stroke="midnightblue" points="3259.11,-32.98 3266.1,-25.02 3255.67,-26.88 3259.11,-32.98"/>
</g>
<!-- Node85&#45;&gt;Node20 -->
<g id="edge95" class="edge">
<title>Node85&#45;&gt;Node20</title>
<path fill="none" stroke="midnightblue" d="M2435.24,-311.45C2322.25,-300.64 2057.11,-275.28 1932.68,-263.38"/>
<polygon fill="midnightblue" stroke="midnightblue" points="1932.82,-259.88 1922.53,-262.41 1932.15,-266.84 1932.82,-259.88"/>
</g>
<!-- Node88&#45;&gt;Node5 -->
<g id="edge98" class="edge">
<title>Node88&#45;&gt;Node5</title>
<path fill="none" stroke="midnightblue" d="M2710.36,-305.29C2622.88,-286.51 2442.11,-247.09 2290,-210 2237.32,-197.15 2225.4,-188.41 2172,-179 2000.57,-148.78 1955.2,-160.38 1782,-143 1743.02,-139.09 1120.01,-70.6 1081,-67 838.88,-44.66 546.35,-24.89 450.27,-18.59"/>
<polygon fill="midnightblue" stroke="midnightblue" points="450.26,-15.08 440.06,-17.92 449.81,-22.07 450.26,-15.08"/>
</g>
<!-- Node88&#45;&gt;Node6 -->
<g id="edge99" class="edge">
<title>Node88&#45;&gt;Node6</title>
<path fill="none" stroke="midnightblue" d="M2767.06,-302.43C2779.03,-257.69 2808.61,-118.67 2731,-67 2679.13,-32.47 2606.11,-21.49 2561.26,-18.03"/>
<polygon fill="midnightblue" stroke="midnightblue" points="2561.26,-14.53 2551.04,-17.34 2560.78,-21.51 2561.26,-14.53"/>
</g>
<!-- Node88&#45;&gt;Node7 -->
<g id="edge100" class="edge">
<title>Node88&#45;&gt;Node7</title>
<path fill="none" stroke="midnightblue" d="M2775.37,-302.25C2806.62,-267.07 2892.62,-175.18 2982,-123 3024.24,-98.34 3056.24,-125.81 3086,-87 3097.18,-72.43 3096.99,-50.8 3094.91,-35.34"/>
<polygon fill="midnightblue" stroke="midnightblue" points="3098.34,-34.63 3093.2,-25.37 3091.44,-35.82 3098.34,-34.63"/>
</g>
<!-- Node88&#45;&gt;Node8 -->
<g id="edge101" class="edge">
<title>Node88&#45;&gt;Node8</title>
<path fill="none" stroke="midnightblue" d="M2710.42,-310.98C2596.65,-299.04 2330.06,-271.07 2232.55,-260.84"/>
<polygon fill="midnightblue" stroke="midnightblue" points="2232.89,-257.35 2222.58,-259.79 2232.16,-264.31 2232.89,-257.35"/>
</g>
<!-- Node88&#45;&gt;Node9 -->
<g id="edge102" class="edge">
<title>Node88&#45;&gt;Node9</title>
<path fill="none" stroke="midnightblue" d="M2710.36,-305.29C2622.88,-286.51 2442.11,-247.09 2290,-210 2237.32,-197.15 2225.59,-187.28 2172,-179 2088.9,-166.16 1513.89,-143.43 1325.56,-136.24"/>
<polygon fill="midnightblue" stroke="midnightblue" points="1325.69,-132.74 1315.57,-135.86 1325.43,-139.74 1325.69,-132.74"/>
</g>
<!-- Node88&#45;&gt;Node17 -->
<g id="edge97" class="edge">
<title>Node88&#45;&gt;Node17</title>
<path fill="none" stroke="midnightblue" d="M2815.67,-314.79C2874.62,-311.17 2971.85,-300.05 3048,-266 3077.4,-252.85 3260.9,-115.45 3276,-87 3284.44,-71.11 3284.85,-50.29 3283.66,-35.41"/>
<polygon fill="midnightblue" stroke="midnightblue" points="3287.13,-34.91 3282.55,-25.36 3280.17,-35.69 3287.13,-34.91"/>
</g>
<!-- Node90&#45;&gt;Node6 -->
<g id="edge104" class="edge">
<title>Node90&#45;&gt;Node6</title>
<path fill="none" stroke="midnightblue" d="M1976.17,-307.83C1996.99,-292.21 2043.73,-259.72 2089,-246 2142.62,-229.75 2553.82,-251.01 2592,-210 2640.76,-157.63 2570.02,-69.01 2536.72,-32.72"/>
<polygon fill="midnightblue" stroke="midnightblue" points="2538.91,-29.95 2529.52,-25.05 2533.81,-34.74 2538.91,-29.95"/>
</g>
<!-- Node90&#45;&gt;Node9 -->
<g id="edge105" class="edge">
<title>Node90&#45;&gt;Node9</title>
<path fill="none" stroke="midnightblue" d="M1930.96,-307.98C1874.34,-293.97 1757.12,-265.67 1657,-246 1560.21,-226.99 1529.29,-247.35 1438,-210 1415.86,-200.94 1415.26,-189.96 1394,-179 1366.37,-164.76 1333.2,-153.24 1307.56,-145.42"/>
<polygon fill="midnightblue" stroke="midnightblue" points="1308.36,-142.01 1297.77,-142.51 1306.36,-148.72 1308.36,-142.01"/>
</g>
<!-- Node90&#45;&gt;Node20 -->
<g id="edge106" class="edge">
<title>Node90&#45;&gt;Node20</title>
<path fill="none" stroke="midnightblue" d="M1950.82,-307.98C1934.64,-298.25 1907.97,-282.23 1888.86,-270.74"/>
<polygon fill="midnightblue" stroke="midnightblue" points="1890.53,-267.66 1880.16,-265.51 1886.93,-273.66 1890.53,-267.66"/>
</g>
<!-- Node91&#45;&gt;Node27 -->
<g id="edge109" class="edge">
<title>Node91&#45;&gt;Node27</title>
<path fill="none" stroke="midnightblue" d="M1325.83,-571.4C1166.33,-565.87 765.38,-549.48 711,-523 574.67,-456.61 496.37,-272.09 474.42,-213.56"/>
<polygon fill="midnightblue" stroke="midnightblue" points="477.71,-212.34 470.98,-204.15 471.13,-214.74 477.71,-212.34"/>
</g>
<!-- Node91&#45;&gt;Node59 -->
<g id="edge108" class="edge">
<title>Node91&#45;&gt;Node59</title>
<path fill="none" stroke="midnightblue" d="M1431.19,-564.94C1480.07,-554.52 1563.49,-536.74 1623.66,-523.92"/>
<polygon fill="midnightblue" stroke="midnightblue" points="1624.43,-527.33 1633.48,-521.82 1622.97,-520.49 1624.43,-527.33"/>
</g>
<!-- Node100&#45;&gt;Node9 -->
<g id="edge113" class="edge">
<title>Node100&#45;&gt;Node9</title>
<path fill="none" stroke="midnightblue" d="M1569.64,-626.2C1562.59,-608.79 1548.85,-579.22 1530,-559 1514.25,-542.1 1195.28,-351.16 1181,-333 1137.08,-277.13 1096.92,-236.99 1138,-179 1153.63,-156.94 1180.97,-145.62 1206.38,-139.83"/>
<polygon fill="midnightblue" stroke="midnightblue" points="1207.26,-143.23 1216.36,-137.81 1205.87,-136.37 1207.26,-143.23"/>
</g>
<!-- Node100&#45;&gt;Node31 -->
<g id="edge114" class="edge">
<title>Node100&#45;&gt;Node31</title>
<path fill="none" stroke="midnightblue" d="M1565.64,-626.26C1552.7,-607.78 1527.58,-575.89 1498,-559 1319.08,-456.82 1174.49,-617.07 1046,-456 1040.46,-449.05 1044.15,-444.7 1046,-436 1049.63,-418.87 1058.37,-417.13 1062,-400 1064.86,-386.52 1066.99,-381.84 1062,-369 1054.13,-348.77 1043.44,-349.21 1029,-333 1002.8,-303.59 995.45,-296.87 971,-266 957,-248.32 941.98,-227.28 931.9,-212.82"/>
<polygon fill="midnightblue" stroke="midnightblue" points="934.61,-210.59 926.04,-204.36 928.86,-214.58 934.61,-210.59"/>
</g>
<!-- Node100&#45;&gt;Node58 -->
<g id="edge116" class="edge">
<title>Node100&#45;&gt;Node58</title>
<path fill="none" stroke="midnightblue" d="M1612.97,-626.4C1644.22,-614.79 1688.04,-598.51 1717.64,-587.52"/>
<polygon fill="midnightblue" stroke="midnightblue" points="1718.94,-590.77 1727.1,-584.01 1716.5,-584.21 1718.94,-590.77"/>
</g>
<!-- Node100&#45;&gt;Node60 -->
<g id="edge115" class="edge">
<title>Node100&#45;&gt;Node60</title>
<path fill="none" stroke="midnightblue" d="M1578.73,-626.45C1582.45,-609.3 1586.05,-579.98 1574,-559 1558.51,-532.03 1537.51,-543.36 1514,-523 1470.91,-485.67 1431.56,-430.41 1413.08,-402.68"/>
<polygon fill="midnightblue" stroke="midnightblue" points="1415.86,-400.54 1407.44,-394.1 1410.01,-404.38 1415.86,-400.54"/>
</g>
<!-- Node100&#45;&gt;Node90 -->
<g id="edge117" class="edge">
<title>Node100&#45;&gt;Node90</title>
<path fill="none" stroke="midnightblue" d="M1589.66,-626.22C1608.41,-608.56 1642.48,-578.46 1676,-559 1713.97,-536.96 1731.48,-547.38 1768,-523 1850.03,-468.25 1924.15,-374.19 1952.64,-335.69"/>
<polygon fill="midnightblue" stroke="midnightblue" points="1955.8,-337.3 1958.87,-327.16 1950.15,-333.17 1955.8,-337.3"/>
</g>
<!-- Node111&#45;&gt;Node9 -->
<g id="edge119" class="edge">
<title>Node111&#45;&gt;Node9</title>
<path fill="none" stroke="midnightblue" d="M937.07,-369.38C923.84,-360.46 908.09,-347.84 898,-333 858.35,-274.71 812.98,-231.52 860,-179 871.4,-166.27 1095.87,-147.19 1206.04,-138.55"/>
<polygon fill="midnightblue" stroke="midnightblue" points="1206.63,-142.01 1216.33,-137.74 1206.09,-135.03 1206.63,-142.01"/>
</g>
<!-- Node111&#45;&gt;Node112 -->
<g id="edge120" class="edge">
<title>Node111&#45;&gt;Node112</title>
<path fill="none" stroke="midnightblue" d="M1020.08,-372.62C1084.08,-360.84 1185.76,-342.11 1251.18,-330.07"/>
<polygon fill="midnightblue" stroke="midnightblue" points="1252.16,-333.45 1261.36,-328.19 1250.89,-326.56 1252.16,-333.45"/>
</g>
<!-- Node112&#45;&gt;Node9 -->
<g id="edge122" class="edge">
<title>Node112&#45;&gt;Node9</title>
<path fill="none" stroke="midnightblue" d="M1293.53,-302.41C1269.22,-284.3 1229.96,-250.33 1214,-210 1208.93,-197.19 1208.27,-191.53 1214,-179 1219.78,-166.36 1231.05,-155.91 1241.63,-148.27"/>
<polygon fill="midnightblue" stroke="midnightblue" points="1243.85,-151 1250.22,-142.53 1239.96,-145.18 1243.85,-151"/>
</g>
<!-- Node112&#45;&gt;Node20 -->
<g id="edge123" class="edge">
<title>Node112&#45;&gt;Node20</title>
<path fill="none" stroke="midnightblue" d="M1366.93,-310.79C1467.94,-299.91 1688,-276.19 1799.05,-264.22"/>
<polygon fill="midnightblue" stroke="midnightblue" points="1799.56,-267.68 1809.13,-263.13 1798.81,-260.72 1799.56,-267.68"/>
</g>
<!-- Node112&#45;&gt;Node25 -->
<g id="edge121" class="edge">
<title>Node112&#45;&gt;Node25</title>
<path fill="none" stroke="midnightblue" d="M1334.88,-302.38C1369.26,-279.15 1437.37,-233.11 1471.89,-209.77"/>
<polygon fill="midnightblue" stroke="midnightblue" points="1473.96,-212.59 1480.29,-204.09 1470.04,-206.79 1473.96,-212.59"/>
</g>
<!-- Node114&#45;&gt;Node58 -->
<g id="edge125" class="edge">
<title>Node114&#45;&gt;Node58</title>
<path fill="none" stroke="midnightblue" d="M1696.92,-693.31C1706.15,-672.81 1729.43,-621.15 1741.87,-593.54"/>
<polygon fill="midnightblue" stroke="midnightblue" points="1745.14,-594.81 1746.05,-584.26 1738.76,-591.94 1745.14,-594.81"/>
</g>
<!-- Node132&#45;&gt;Node58 -->
<g id="edge127" class="edge">
<title>Node132&#45;&gt;Node58</title>
<path fill="none" stroke="midnightblue" d="M1817.98,-693.31C1806.11,-672.72 1776.08,-620.69 1760.2,-593.18"/>
<polygon fill="midnightblue" stroke="midnightblue" points="1763.08,-591.17 1755.05,-584.26 1757.02,-594.67 1763.08,-591.17"/>
</g>
<!-- Node133&#45;&gt;Node5 -->
<g id="edge129" class="edge">
<title>Node133&#45;&gt;Node5</title>
<path fill="none" stroke="midnightblue" d="M1935.28,-760.45C1622.39,-746.26 356.68,-683.47 208,-590 116.41,-532.43 76,-493.68 76,-385.5 76,-385.5 76,-385.5 76,-132 76,-95.28 95.48,-85.84 127,-67 170.36,-41.09 319.35,-25.15 385.69,-19.18"/>
<polygon fill="midnightblue" stroke="midnightblue" points="386.32,-22.64 395.97,-18.28 385.7,-15.66 386.32,-22.64"/>
</g>
<!-- Node133&#45;&gt;Node6 -->
<g id="edge130" class="edge">
<title>Node133&#45;&gt;Node6</title>
<path fill="none" stroke="midnightblue" d="M2074.69,-763.02C2294.38,-757.51 2958,-708.58 2958,-318.5 2958,-318.5 2958,-318.5 2958,-255 2958,-75.16 2669.31,-30.11 2561.22,-19.54"/>
<polygon fill="midnightblue" stroke="midnightblue" points="2561.32,-16.03 2551.04,-18.59 2560.67,-23 2561.32,-16.03"/>
</g>
<!-- Node133&#45;&gt;Node7 -->
<g id="edge131" class="edge">
<title>Node133&#45;&gt;Node7</title>
<path fill="none" stroke="midnightblue" d="M2074.59,-761.9C2178.45,-758.42 2379.69,-747.43 2547,-713 2769.3,-667.25 2826.37,-639.76 3021,-523 3062.55,-498.07 3075.27,-492.62 3107,-456 3181.69,-369.81 3172.91,-323.83 3180,-210 3184.02,-145.45 3191.94,-118.64 3153,-67 3142.2,-52.68 3126.51,-39.95 3113.62,-30.86"/>
<polygon fill="midnightblue" stroke="midnightblue" points="3115.47,-27.89 3105.23,-25.17 3111.54,-33.68 3115.47,-27.89"/>
</g>
<!-- Node133&#45;&gt;Node8 -->
<g id="edge132" class="edge">
<title>Node133&#45;&gt;Node8</title>
<path fill="none" stroke="midnightblue" d="M2074.72,-759.86C2143.43,-752.08 2244.77,-728.35 2292,-657 2379.7,-524.52 2336.56,-435.23 2250,-302 2242.03,-289.73 2229.67,-279.08 2218.79,-271.22"/>
<polygon fill="midnightblue" stroke="midnightblue" points="2220.72,-268.3 2210.49,-265.54 2216.77,-274.08 2220.72,-268.3"/>
</g>
<!-- Node133&#45;&gt;Node9 -->
<g id="edge133" class="edge">
<title>Node133&#45;&gt;Node9</title>
<path fill="none" stroke="midnightblue" d="M1994.65,-754.84C1975.33,-739.26 1931.84,-706.81 1889,-693 1692.56,-629.67 1622.28,-720.82 1426,-657 1371.92,-639.42 1344.75,-639.63 1317,-590 1258.57,-485.51 1519.17,-478.6 1471,-369 1428.45,-272.19 1353.69,-297.29 1294,-210 1281.88,-192.27 1274.25,-168.64 1270.07,-152.46"/>
<polygon fill="midnightblue" stroke="midnightblue" points="1273.45,-151.53 1267.72,-142.62 1266.64,-153.16 1273.45,-151.53"/>
</g>
<!-- Node133&#45;&gt;Node84 -->
<g id="edge136" class="edge">
<title>Node133&#45;&gt;Node84</title>
<path fill="none" stroke="midnightblue" d="M2019.04,-754.98C2035.05,-745.25 2061.45,-729.23 2080.37,-717.74"/>
<polygon fill="midnightblue" stroke="midnightblue" points="2082.25,-720.69 2088.99,-712.51 2078.62,-714.71 2082.25,-720.69"/>
</g>
<!-- Node133&#45;&gt;Node114 -->
<g id="edge135" class="edge">
<title>Node133&#45;&gt;Node114</title>
<path fill="none" stroke="midnightblue" d="M1960.3,-754.98C1904.23,-744.28 1808.14,-725.96 1747.73,-714.44"/>
<polygon fill="midnightblue" stroke="midnightblue" points="1748.1,-710.94 1737.62,-712.51 1746.79,-717.82 1748.1,-710.94"/>
</g>
<!-- Node133&#45;&gt;Node132 -->
<g id="edge134" class="edge">
<title>Node133&#45;&gt;Node132</title>
<path fill="none" stroke="midnightblue" d="M1978.92,-754.98C1947.43,-744.68 1894.3,-727.31 1858.94,-715.75"/>
<polygon fill="midnightblue" stroke="midnightblue" points="1859.62,-712.29 1849.03,-712.51 1857.45,-718.94 1859.62,-712.29"/>
</g>
<!-- Node117&#45;&gt;Node5 -->
<g id="edge138" class="edge">
<title>Node117&#45;&gt;Node5</title>
<path fill="none" stroke="midnightblue" d="M686.03,-436.49C604.32,-414.99 405.81,-349.91 328,-210 297.11,-154.46 295.89,-121.84 328,-67 340.45,-45.74 365.49,-32.75 386,-25.28"/>
<polygon fill="midnightblue" stroke="midnightblue" points="387.27,-28.55 395.63,-22.04 385.04,-21.91 387.27,-28.55"/>
</g>
<!-- Node117&#45;&gt;Node6 -->
<g id="edge139" class="edge">
<title>Node117&#45;&gt;Node6</title>
<path fill="none" stroke="midnightblue" d="M740.01,-436.4C770.96,-421.77 836.36,-391.42 893,-369 1131.52,-274.61 1194.65,-260.14 1438,-179 1565.88,-136.36 1599.68,-131.26 1727,-87 1750.78,-78.73 1755.4,-72.36 1780,-67 1915.4,-37.51 2345.76,-21.94 2480.36,-17.71"/>
<polygon fill="midnightblue" stroke="midnightblue" points="2480.74,-21.2 2490.63,-17.39 2480.53,-14.2 2480.74,-21.2"/>
</g>
<!-- Node117&#45;&gt;Node9 -->
<g id="edge141" class="edge">
<title>Node117&#45;&gt;Node9</title>
<path fill="none" stroke="midnightblue" d="M720.89,-436.45C715.76,-395.16 695.94,-216.77 732,-179 740.11,-170.5 1067.86,-147.4 1205.8,-138.03"/>
<polygon fill="midnightblue" stroke="midnightblue" points="1206.45,-141.49 1216.19,-137.33 1205.97,-134.51 1206.45,-141.49"/>
</g>
<!-- Node117&#45;&gt;Node27 -->
<g id="edge140" class="edge">
<title>Node117&#45;&gt;Node27</title>
<path fill="none" stroke="midnightblue" d="M711.43,-436.27C700.77,-427.37 683.94,-413.06 670,-400 597.83,-332.43 516.38,-246.97 483.24,-211.77"/>
<polygon fill="midnightblue" stroke="midnightblue" points="485.63,-209.2 476.23,-204.31 480.53,-214 485.63,-209.2"/>
</g>
<!-- Node117&#45;&gt;Node60 -->
<g id="edge142" class="edge">
<title>Node117&#45;&gt;Node60</title>
<path fill="none" stroke="midnightblue" d="M769.01,-440.89C886.47,-430.61 1193.29,-403.76 1332.05,-391.62"/>
<polygon fill="midnightblue" stroke="midnightblue" points="1332.49,-395.1 1342.15,-390.74 1331.88,-388.12 1332.49,-395.1"/>
</g>
<!-- Node110&#45;&gt;Node9 -->
<g id="edge147" class="edge">
<title>Node110&#45;&gt;Node9</title>
<path fill="none" stroke="midnightblue" d="M732.55,-497.96C708.02,-491.02 680.85,-478.51 666,-456 653.54,-437.11 567.49,-311.1 714,-179 723.06,-170.83 1064.59,-147.34 1205.82,-137.95"/>
<polygon fill="midnightblue" stroke="midnightblue" points="1206.29,-141.42 1216.04,-137.27 1205.83,-134.44 1206.29,-141.42"/>
</g>
<!-- Node110&#45;&gt;Node31 -->
<g id="edge148" class="edge">
<title>Node110&#45;&gt;Node31</title>
<path fill="none" stroke="midnightblue" d="M796.89,-497.86C821.78,-480.04 874,-436.55 874,-385.5 874,-385.5 874,-385.5 874,-316.5 874,-277.37 895.28,-235.49 908.89,-212.71"/>
<polygon fill="midnightblue" stroke="midnightblue" points="911.89,-214.52 914.17,-204.17 905.94,-210.83 911.89,-214.52"/>
</g>
<!-- Node110&#45;&gt;Node77 -->
<g id="edge149" class="edge">
<title>Node110&#45;&gt;Node77</title>
<path fill="none" stroke="midnightblue" d="M834.58,-497.98C898.4,-487.22 1008.08,-468.73 1076.34,-457.22"/>
<polygon fill="midnightblue" stroke="midnightblue" points="1077.24,-460.62 1086.52,-455.51 1076.07,-453.72 1077.24,-460.62"/>
</g>
<!-- Node134&#45;&gt;Node5 -->
<g id="edge154" class="edge">
<title>Node134&#45;&gt;Node5</title>
<path fill="none" stroke="midnightblue" d="M1060.21,-939.97C1057.44,-939.61 1054.7,-939.29 1052,-939 940.45,-927.09 138.88,-961.23 43,-903 9.83,-882.85 0,-865.81 0,-827 0,-827 0,-827 0,-132 0,-93.87 22.52,-85.25 56,-67 112.67,-36.11 307.87,-22.42 385.64,-18.11"/>
<polygon fill="midnightblue" stroke="midnightblue" points="386.02,-21.59 395.81,-17.56 385.64,-14.6 386.02,-21.59"/>
</g>
<!-- Node134&#45;&gt;Node6 -->
<g id="edge155" class="edge">
<title>Node134&#45;&gt;Node6</title>
<path fill="none" stroke="midnightblue" d="M1205.58,-952.99C1574.47,-949.91 3224,-930.37 3224,-827 3224,-827 3224,-827 3224,-383.5 3224,-82.33 2710.7,-27.89 2561.32,-18.42"/>
<polygon fill="midnightblue" stroke="midnightblue" points="2561.4,-14.92 2551.21,-17.81 2560.98,-21.91 2561.4,-14.92"/>
</g>
<!-- Node134&#45;&gt;Node9 -->
<g id="edge157" class="edge">
<title>Node134&#45;&gt;Node9</title>
<path fill="none" stroke="midnightblue" d="M1060.5,-939.81C1013.15,-930.45 950.12,-917.21 895,-903 708.93,-855.03 473.64,-940.37 491,-749 501.26,-635.83 540.75,-351.48 583,-246 596.25,-212.93 596.26,-197.01 627,-179 639.41,-171.73 1049.52,-146.79 1206.08,-137.52"/>
<polygon fill="midnightblue" stroke="midnightblue" points="1206.69,-140.99 1216.46,-136.9 1206.27,-134 1206.69,-140.99"/>
</g>
<!-- Node68 -->
<g id="node45" class="node">
<title>Node68</title>
<g id="a_node45"><a xlink:title=" ">
<polygon fill="none" stroke="#bfbfbf" points="1529,-878 1529,-897 1573,-897 1573,-878 1529,-878"/>
<text text-anchor="middle" x="1551" y="-885" font-family="Helvetica,sans-Serif" font-size="10.00">limits</text>
</a>
</g>
</g>
<!-- Node134&#45;&gt;Node68 -->
<g id="edge156" class="edge">
<title>Node134&#45;&gt;Node68</title>
<path fill="none" stroke="midnightblue" d="M1205.69,-950.67C1284.5,-946.08 1413.32,-934.1 1520,-903 1521.88,-902.45 1523.79,-901.8 1525.7,-901.09"/>
<polygon fill="midnightblue" stroke="midnightblue" points="1527.13,-904.29 1534.96,-897.15 1524.38,-897.85 1527.13,-904.29"/>
</g>
<!-- Node135 -->
<g id="node46" class="node">
<title>Node135</title>
<g id="a_node46"><a xlink:href="../../d1/db8/openmp__utils_8h.html" target="_top" xlink:title=" ">
<polygon fill="none" stroke="red" points="3305.5,-632 3305.5,-651 3436.5,-651 3436.5,-632 3305.5,-632"/>
<text text-anchor="middle" x="3371" y="-639" font-family="Helvetica,sans-Serif" font-size="10.00">utilities/openmp_utils.h</text>
</a>
</g>
</g>
<!-- Node134&#45;&gt;Node135 -->
<g id="edge158" class="edge">
<title>Node134&#45;&gt;Node135</title>
<path fill="none" stroke="midnightblue" d="M1205.6,-952.93C1564.91,-949.98 3139.56,-935.23 3238,-903 3294.13,-884.62 3347,-886.06 3347,-827 3347,-827 3347,-827 3347,-763.5 3347,-726.52 3357.92,-684.38 3365.03,-660.87"/>
<polygon fill="midnightblue" stroke="midnightblue" points="3368.41,-661.78 3368.06,-651.19 3361.73,-659.68 3368.41,-661.78"/>
</g>
<!-- Node138 -->
<g id="node47" class="node">
<title>Node138</title>
<g id="a_node47"><a xlink:title=" ">
<polygon fill="none" stroke="#bfbfbf" points="363.5,-492.5 363.5,-522.5 504.5,-522.5 504.5,-492.5 363.5,-492.5"/>
<text text-anchor="start" x="371.5" y="-510.5" font-family="Helvetica,sans-Serif" font-size="10.00">custom_utilities/Auxiliary</text>
<text text-anchor="middle" x="434" y="-499.5" font-family="Helvetica,sans-Serif" font-size="10.00">Functions.h</text>
</a>
</g>
</g>
<!-- Node134&#45;&gt;Node138 -->
<g id="edge161" class="edge">
<title>Node134&#45;&gt;Node138</title>
<path fill="none" stroke="midnightblue" d="M1060.2,-940.06C1057.44,-939.68 1054.7,-939.32 1052,-939 986.35,-931.16 510.12,-943.68 458,-903 430.08,-881.21 434,-862.42 434,-827 434,-827 434,-827 434,-640.5 434,-603 434,-559.51 434,-533.01"/>
<polygon fill="midnightblue" stroke="midnightblue" points="437.5,-532.76 434,-522.76 430.5,-532.76 437.5,-532.76"/>
</g>
<!-- Node139 -->
<g id="node48" class="node">
<title>Node139</title>
<g id="a_node48"><a xlink:href="../../d5/d44/_geometry_functions_8h.html" target="_top" xlink:title=" ">
<polygon fill="none" stroke="red" points="1365,-872.5 1365,-902.5 1511,-902.5 1511,-872.5 1365,-872.5"/>
<text text-anchor="start" x="1373" y="-890.5" font-family="Helvetica,sans-Serif" font-size="10.00">custom_utilities/Geometry</text>
<text text-anchor="middle" x="1438" y="-879.5" font-family="Helvetica,sans-Serif" font-size="10.00">Functions.h</text>
</a>
</g>
</g>
<!-- Node134&#45;&gt;Node139 -->
<g id="edge162" class="edge">
<title>Node134&#45;&gt;Node139</title>
<path fill="none" stroke="midnightblue" d="M1198.8,-939.48C1246.83,-929.24 1312.02,-915.35 1362.22,-904.65"/>
<polygon fill="midnightblue" stroke="midnightblue" points="1363,-908.06 1372.05,-902.55 1361.54,-901.22 1363,-908.06"/>
</g>
<!-- Node146 -->
<g id="node49" class="node">
<title>Node146</title>
<g id="a_node49"><a xlink:href="../../d2/dfc/spheric__particle_8h.html" target="_top" xlink:title=" ">
<polygon fill="none" stroke="red" points="251,-559.5 251,-589.5 393,-589.5 393,-559.5 251,-559.5"/>
<text text-anchor="start" x="259" y="-577.5" font-family="Helvetica,sans-Serif" font-size="10.00">custom_elements/spheric</text>
<text text-anchor="middle" x="322" y="-566.5" font-family="Helvetica,sans-Serif" font-size="10.00">_particle.h</text>
</a>
</g>
</g>
<!-- Node134&#45;&gt;Node146 -->
<g id="edge165" class="edge">
<title>Node134&#45;&gt;Node146</title>
<path fill="none" stroke="midnightblue" d="M1060.2,-940.04C1057.44,-939.67 1054.7,-939.32 1052,-939 772.58,-906.15 699.09,-938.54 420,-903 248.28,-881.14 38,-1000.11 38,-827 38,-827 38,-827 38,-702 38,-612.66 156.73,-585.96 240.65,-578.26"/>
<polygon fill="midnightblue" stroke="midnightblue" points="241.03,-581.74 250.7,-577.41 240.44,-574.76 241.03,-581.74"/>
</g>
<!-- Node155 -->
<g id="node50" class="node">
<title>Node155</title>
<g id="a_node50"><a xlink:href="../../d7/dbe/thermal__dem__application__variables_8h.html" target="_top" xlink:title=" ">
<polygon fill="none" stroke="red" points="500.5,-749.5 500.5,-779.5 641.5,-779.5 641.5,-749.5 500.5,-749.5"/>
<text text-anchor="start" x="508.5" y="-767.5" font-family="Helvetica,sans-Serif" font-size="10.00">thermal_dem_application</text>
<text text-anchor="middle" x="571" y="-756.5" font-family="Helvetica,sans-Serif" font-size="10.00">_variables.h</text>
</a>
</g>
</g>
<!-- Node134&#45;&gt;Node155 -->
<g id="edge173" class="edge">
<title>Node134&#45;&gt;Node155</title>
<path fill="none" stroke="midnightblue" d="M1090.76,-939.37C989.41,-905.47 732.72,-819.6 622.53,-782.74"/>
<polygon fill="midnightblue" stroke="midnightblue" points="623.56,-779.39 612.96,-779.54 621.34,-786.03 623.56,-779.39"/>
</g>
<!-- Node135&#45;&gt;Node6 -->
<g id="edge160" class="edge">
<title>Node135&#45;&gt;Node6</title>
<path fill="none" stroke="midnightblue" d="M3371.55,-631.86C3372.86,-610.78 3376,-555.05 3376,-508.5 3376,-508.5 3376,-508.5 3376,-255 3376,-83.68 2731.03,-30.04 2561.45,-18.9"/>
<polygon fill="midnightblue" stroke="midnightblue" points="2561.63,-15.4 2551.43,-18.25 2561.18,-22.39 2561.63,-15.4"/>
</g>
<!-- Node135&#45;&gt;Node17 -->
<g id="edge159" class="edge">
<title>Node135&#45;&gt;Node17</title>
<path fill="none" stroke="midnightblue" d="M3381.26,-631.74C3403.05,-612.09 3452,-562.01 3452,-508.5 3452,-508.5 3452,-508.5 3452,-132 3452,-101.2 3450.02,-88.53 3428,-67 3397.18,-36.87 3347.6,-24.68 3314.66,-19.77"/>
<polygon fill="midnightblue" stroke="midnightblue" points="3314.98,-16.28 3304.6,-18.42 3314.04,-23.22 3314.98,-16.28"/>
</g>
<!-- Node139&#45;&gt;Node4 -->
<g id="edge164" class="edge">
<title>Node139&#45;&gt;Node4</title>
<path fill="none" stroke="midnightblue" d="M1498.11,-872.47C1543.54,-861.87 1605,-847.53 1646.66,-837.81"/>
<polygon fill="midnightblue" stroke="midnightblue" points="1647.6,-841.19 1656.54,-835.51 1646.01,-834.37 1647.6,-841.19"/>
</g>
<!-- Node139&#45;&gt;Node135 -->
<g id="edge163" class="edge">
<title>Node139&#45;&gt;Node135</title>
<path fill="none" stroke="midnightblue" d="M1511.25,-873.09C1514.2,-872.69 1517.13,-872.33 1520,-872 1714.12,-849.84 3106.6,-877.35 3276,-780 3316.08,-756.97 3306.42,-730.82 3333,-693 3341.02,-681.59 3350.44,-669.06 3357.9,-659.34"/>
<polygon fill="midnightblue" stroke="midnightblue" points="3360.75,-661.36 3364.1,-651.31 3355.21,-657.09 3360.75,-661.36"/>
</g>
<!-- Node146&#45;&gt;Node5 -->
<g id="edge166" class="edge">
<title>Node146&#45;&gt;Node5</title>
<path fill="none" stroke="midnightblue" d="M291.51,-559.47C275.75,-550.88 257.3,-538.55 245,-523 167.29,-424.78 152,-382.24 152,-257 152,-257 152,-257 152,-132 152,-101.2 152.67,-87.11 176,-67 207.14,-40.16 327.2,-25.21 385.65,-19.39"/>
<polygon fill="midnightblue" stroke="midnightblue" points="386.2,-22.85 395.81,-18.4 385.52,-15.88 386.2,-22.85"/>
</g>
<!-- Node146&#45;&gt;Node6 -->
<g id="edge167" class="edge">
<title>Node146&#45;&gt;Node6</title>
<path fill="none" stroke="midnightblue" d="M393.18,-568.69C495.91,-561.33 691.55,-545.67 857,-523 1299.15,-462.42 1434.92,-513.66 1843,-333 1864.21,-323.61 1864.26,-312.4 1885,-302 1934.39,-277.23 1952.99,-287.25 2004,-266 2021.26,-258.81 2023.07,-251.28 2041,-246 2140.42,-216.72 2425.79,-275.64 2506,-210 2557.72,-167.67 2538.3,-74.77 2526.93,-35.08"/>
<polygon fill="midnightblue" stroke="midnightblue" points="2530.24,-33.94 2524,-25.38 2523.54,-35.96 2530.24,-33.94"/>
</g>
<!-- Node146&#45;&gt;Node9 -->
<g id="edge169" class="edge">
<title>Node146&#45;&gt;Node9</title>
<path fill="none" stroke="midnightblue" d="M322.22,-559.26C322.87,-542.68 325.15,-514.67 333,-492 342.45,-464.7 349.6,-459.78 366,-436 408.19,-374.81 512.91,-210.98 580,-179 587.04,-175.64 1040.87,-147.71 1206.41,-137.62"/>
<polygon fill="midnightblue" stroke="midnightblue" points="1206.66,-141.11 1216.43,-137.01 1206.23,-134.12 1206.66,-141.11"/>
</g>
<!-- Node146&#45;&gt;Node11 -->
<g id="edge171" class="edge">
<title>Node146&#45;&gt;Node11</title>
<path fill="none" stroke="midnightblue" d="M319.6,-559.29C310.78,-501.77 286.24,-284.2 399,-179 524.2,-62.19 1062.07,-27.96 1260.82,-19.2"/>
<polygon fill="midnightblue" stroke="midnightblue" points="1261.03,-22.69 1270.87,-18.77 1260.73,-15.7 1261.03,-22.69"/>
</g>
<!-- Node146&#45;&gt;Node21 -->
<g id="edge168" class="edge">
<title>Node146&#45;&gt;Node21</title>
<path fill="none" stroke="midnightblue" d="M324.87,-559.22C328.93,-541.83 337.75,-512.29 354,-492 361.96,-482.07 684.6,-267.49 771.58,-209.72"/>
<polygon fill="midnightblue" stroke="midnightblue" points="773.73,-212.49 780.13,-204.04 769.86,-206.66 773.73,-212.49"/>
</g>
<!-- Node146&#45;&gt;Node110 -->
<g id="edge172" class="edge">
<title>Node146&#45;&gt;Node110</title>
<path fill="none" stroke="midnightblue" d="M393.18,-563.49C480.22,-551.24 626.64,-530.64 713.41,-518.43"/>
<polygon fill="midnightblue" stroke="midnightblue" points="714.02,-521.88 723.43,-517.02 713.04,-514.95 714.02,-521.88"/>
</g>
<!-- Node146&#45;&gt;Node138 -->
<g id="edge170" class="edge">
<title>Node146&#45;&gt;Node138</title>
<path fill="none" stroke="midnightblue" d="M346.3,-559.4C362.3,-550.11 383.44,-537.84 400.96,-527.67"/>
<polygon fill="midnightblue" stroke="midnightblue" points="402.85,-530.62 409.75,-522.58 399.34,-524.57 402.85,-530.62"/>
</g>
<!-- Node155&#45;&gt;Node9 -->
<g id="edge174" class="edge">
<title>Node155&#45;&gt;Node9</title>
<path fill="none" stroke="midnightblue" d="M641.7,-754.94C782.69,-733.63 1096.63,-663.96 1229,-456 1295.35,-351.75 1149.3,-289.31 1205,-179 1211.81,-165.52 1224.77,-155.08 1237,-147.67"/>
<polygon fill="midnightblue" stroke="midnightblue" points="1239.07,-150.52 1246.09,-142.59 1235.66,-144.41 1239.07,-150.52"/>
</g>
</g>
</svg>
