<?xml version="1.0" encoding="UTF-8" standalone="no"?>
<!DOCTYPE svg PUBLIC "-//W3C//DTD SVG 1.1//EN"
 "http://www.w3.org/Graphics/SVG/1.1/DTD/svg11.dtd">
<!-- Generated by graphviz version 2.43.0 (0)
 -->
<!-- Title: line_graph_output_process.TimeOutputControl Pages: 1 -->
<svg width="158pt" height="237pt"
 viewBox="0.00 0.00 158.00 237.00" xmlns="http://www.w3.org/2000/svg" xmlns:xlink="http://www.w3.org/1999/xlink">
<g id="graph0" class="graph" transform="scale(1 1) rotate(0) translate(4 233)">
<title>line_graph_output_process.TimeOutputControl</title>
<!-- Node1 -->
<g id="node1" class="node">
<title>Node1</title>
<g id="a_node1"><a xlink:title=" ">
<polygon fill="#bfbfbf" stroke="black" points="0,-0.5 0,-112.5 150,-112.5 150,-0.5 0,-0.5"/>
<text text-anchor="start" x="8" y="-100.5" font-family="Helvetica,sans-Serif" font-size="10.00">line_graph_output_process.</text>
<text text-anchor="middle" x="75" y="-89.5" font-family="Helvetica,sans-Serif" font-size="10.00">TimeOutputControl</text>
<polyline fill="none" stroke="black" points="0,-82.5 150,-82.5 "/>
<text text-anchor="start" x="8" y="-70.5" font-family="Helvetica,sans-Serif" font-size="10.00">+ time_frequency</text>
<text text-anchor="start" x="8" y="-59.5" font-family="Helvetica,sans-Serif" font-size="10.00">+ model_part</text>
<text text-anchor="start" x="8" y="-48.5" font-family="Helvetica,sans-Serif" font-size="10.00">+ next_output</text>
<polyline fill="none" stroke="black" points="0,-41.5 150,-41.5 "/>
<text text-anchor="start" x="8" y="-29.5" font-family="Helvetica,sans-Serif" font-size="10.00">+ __init__()</text>
<text text-anchor="start" x="8" y="-18.5" font-family="Helvetica,sans-Serif" font-size="10.00">+ IsOutputStep()</text>
<text text-anchor="start" x="8" y="-7.5" font-family="Helvetica,sans-Serif" font-size="10.00">+ GetDefaultParameters()</text>
</a>
</g>
</g>
<!-- Node2 -->
<g id="node2" class="node">
<title>Node2</title>
<g id="a_node2"><a xlink:href="../../d7/d05/classline__graph__output__process_1_1_output_control.html" target="_top" xlink:title=" ">
<polygon fill="none" stroke="black" points="0,-149.5 0,-228.5 150,-228.5 150,-149.5 0,-149.5"/>
<text text-anchor="start" x="8" y="-216.5" font-family="Helvetica,sans-Serif" font-size="10.00">line_graph_output_process.</text>
<text text-anchor="middle" x="75" y="-205.5" font-family="Helvetica,sans-Serif" font-size="10.00">OutputControl</text>
<polyline fill="none" stroke="black" points="0,-198.5 150,-198.5 "/>
<text text-anchor="middle" x="75" y="-186.5" font-family="Helvetica,sans-Serif" font-size="10.00"> </text>
<polyline fill="none" stroke="black" points="0,-179.5 150,-179.5 "/>
<text text-anchor="start" x="8" y="-167.5" font-family="Helvetica,sans-Serif" font-size="10.00">+ IsOutputStep()</text>
<text text-anchor="start" x="8" y="-156.5" font-family="Helvetica,sans-Serif" font-size="10.00">+ GetDefaultParameters()</text>
</a>
</g>
</g>
<!-- Node2&#45;&gt;Node1 -->
<g id="edge1" class="edge">
<title>Node2&#45;&gt;Node1</title>
<path fill="none" stroke="midnightblue" d="M75,-139.01C75,-130.46 75,-121.52 75,-112.81"/>
<polygon fill="none" stroke="midnightblue" points="71.5,-139.2 75,-149.2 78.5,-139.2 71.5,-139.2"/>
</g>
</g>
</svg>
