<?xml version="1.0" encoding="UTF-8" standalone="no"?>
<!DOCTYPE svg PUBLIC "-//W3C//DTD SVG 1.1//EN"
 "http://www.w3.org/Graphics/SVG/1.1/DTD/svg11.dtd">
<!-- Generated by graphviz version 2.43.0 (0)
 -->
<!-- Title: opt_line_search.BBStep Pages: 1 -->
<svg width="154pt" height="259pt"
 viewBox="0.00 0.00 154.00 259.00" xmlns="http://www.w3.org/2000/svg" xmlns:xlink="http://www.w3.org/1999/xlink">
<g id="graph0" class="graph" transform="scale(1 1) rotate(0) translate(4 255)">
<title>opt_line_search.BBStep</title>
<!-- Node1 -->
<g id="node1" class="node">
<title>Node1</title>
<g id="a_node1"><a xlink:title=" ">
<polygon fill="#bfbfbf" stroke="black" points="1,-0.5 1,-101.5 145,-101.5 145,-0.5 1,-0.5"/>
<text text-anchor="middle" x="73" y="-89.5" font-family="Helvetica,sans-Serif" font-size="10.00">opt_line_search.BBStep</text>
<polyline fill="none" stroke="black" points="1,-82.5 145,-82.5 "/>
<text text-anchor="start" x="9" y="-70.5" font-family="Helvetica,sans-Serif" font-size="10.00">+ unscaled_step</text>
<text text-anchor="start" x="9" y="-59.5" font-family="Helvetica,sans-Serif" font-size="10.00">+ step</text>
<polyline fill="none" stroke="black" points="1,-52.5 145,-52.5 "/>
<text text-anchor="start" x="9" y="-40.5" font-family="Helvetica,sans-Serif" font-size="10.00">+ GetDefaultParameters()</text>
<text text-anchor="start" x="9" y="-29.5" font-family="Helvetica,sans-Serif" font-size="10.00">+ __init__()</text>
<text text-anchor="start" x="9" y="-18.5" font-family="Helvetica,sans-Serif" font-size="10.00">+ ComputeStep()</text>
<text text-anchor="start" x="9" y="-7.5" font-family="Helvetica,sans-Serif" font-size="10.00">+ GetInfo()</text>
</a>
</g>
</g>
<!-- Node2 -->
<g id="node2" class="node">
<title>Node2</title>
<g id="a_node2"><a xlink:href="../../d3/d4b/classopt__line__search_1_1_const_step.html" target="_top" xlink:title=" ">
<polygon fill="none" stroke="black" points="0,-138.5 0,-250.5 146,-250.5 146,-138.5 0,-138.5"/>
<text text-anchor="middle" x="73" y="-238.5" font-family="Helvetica,sans-Serif" font-size="10.00">opt_line_search.ConstStep</text>
<polyline fill="none" stroke="black" points="0,-231.5 146,-231.5 "/>
<text text-anchor="start" x="8" y="-219.5" font-family="Helvetica,sans-Serif" font-size="10.00">+ unscaled_step</text>
<text text-anchor="start" x="8" y="-208.5" font-family="Helvetica,sans-Serif" font-size="10.00">+ step</text>
<polyline fill="none" stroke="black" points="0,-201.5 146,-201.5 "/>
<text text-anchor="start" x="8" y="-189.5" font-family="Helvetica,sans-Serif" font-size="10.00">+ GetDefaultParameters()</text>
<text text-anchor="start" x="8" y="-178.5" font-family="Helvetica,sans-Serif" font-size="10.00">+ __init__()</text>
<text text-anchor="start" x="8" y="-167.5" font-family="Helvetica,sans-Serif" font-size="10.00">+ ComputeScaleFactor()</text>
<text text-anchor="start" x="8" y="-156.5" font-family="Helvetica,sans-Serif" font-size="10.00">+ ComputeStep()</text>
<text text-anchor="start" x="8" y="-145.5" font-family="Helvetica,sans-Serif" font-size="10.00">+ GetInfo()</text>
</a>
</g>
</g>
<!-- Node2&#45;&gt;Node1 -->
<g id="edge1" class="edge">
<title>Node2&#45;&gt;Node1</title>
<path fill="none" stroke="midnightblue" d="M73,-128.34C73,-119.38 73,-110.29 73,-101.66"/>
<polygon fill="none" stroke="midnightblue" points="69.5,-128.39 73,-138.39 76.5,-128.39 69.5,-128.39"/>
</g>
</g>
</svg>
