<?xml version="1.0" encoding="UTF-8" standalone="no"?>
<!DOCTYPE svg PUBLIC "-//W3C//DTD SVG 1.1//EN"
 "http://www.w3.org/Graphics/SVG/1.1/DTD/svg11.dtd">
<!-- Generated by graphviz version 2.43.0 (0)
 -->
<!-- Title: /home/runner/work/Documentation/Documentation/master/applications/GeoMechanicsApplication/custom_workflows/adaptive_time_incrementor.cpp Pages: 1 -->
<svg width="818pt" height="296pt"
 viewBox="0.00 0.00 817.51 296.00" xmlns="http://www.w3.org/2000/svg" xmlns:xlink="http://www.w3.org/1999/xlink">
<g id="graph0" class="graph" transform="scale(1 1) rotate(0) translate(4 292)">
<title>/home/runner/work/Documentation/Documentation/master/applications/GeoMechanicsApplication/custom_workflows/adaptive_time_incrementor.cpp</title>
<!-- Node1 -->
<g id="node1" class="node">
<title>Node1</title>
<g id="a_node1"><a xlink:title=" ">
<polygon fill="#bfbfbf" stroke="black" points="63.5,-235.5 63.5,-287.5 292.5,-287.5 292.5,-235.5 63.5,-235.5"/>
<text text-anchor="start" x="71.5" y="-275.5" font-family="Helvetica,sans-Serif" font-size="10.00">/home/runner/work/Documentation</text>
<text text-anchor="start" x="71.5" y="-264.5" font-family="Helvetica,sans-Serif" font-size="10.00">/Documentation/master/applications</text>
<text text-anchor="start" x="71.5" y="-253.5" font-family="Helvetica,sans-Serif" font-size="10.00">/GeoMechanicsApplication/custom</text>
<text text-anchor="middle" x="178" y="-242.5" font-family="Helvetica,sans-Serif" font-size="10.00">_workflows/adaptive_time_incrementor.cpp</text>
</a>
</g>
</g>
<!-- Node2 -->
<g id="node2" class="node">
<title>Node2</title>
<g id="a_node2"><a xlink:href="../../d2/d8a/adaptive__time__incrementor_8h.html" target="_top" xlink:title=" ">
<polygon fill="none" stroke="black" points="98,-179.5 98,-198.5 258,-198.5 258,-179.5 98,-179.5"/>
<text text-anchor="middle" x="178" y="-186.5" font-family="Helvetica,sans-Serif" font-size="10.00">adaptive_time_incrementor.h</text>
</a>
</g>
</g>
<!-- Node1&#45;&gt;Node2 -->
<g id="edge1" class="edge">
<title>Node1&#45;&gt;Node2</title>
<path fill="none" stroke="midnightblue" d="M178,-235.45C178,-226.73 178,-217.1 178,-208.96"/>
<polygon fill="midnightblue" stroke="midnightblue" points="181.5,-208.7 178,-198.7 174.5,-208.7 181.5,-208.7"/>
</g>
<!-- Node4 -->
<g id="node4" class="node">
<title>Node4</title>
<g id="a_node4"><a xlink:href="../../d1/d19/time__step__end__state_8hpp.html" target="_top" xlink:title=" ">
<polygon fill="none" stroke="black" points="0,-62 0,-81 140,-81 140,-62 0,-62"/>
<text text-anchor="middle" x="70" y="-69" font-family="Helvetica,sans-Serif" font-size="10.00">time_step_end_state.hpp</text>
</a>
</g>
</g>
<!-- Node1&#45;&gt;Node4 -->
<g id="edge6" class="edge">
<title>Node1&#45;&gt;Node4</title>
<path fill="none" stroke="midnightblue" d="M126.94,-235.48C112.52,-225.99 98.24,-213.82 89,-199 68.12,-165.51 67.07,-117.56 68.38,-91.36"/>
<polygon fill="midnightblue" stroke="midnightblue" points="71.88,-91.49 69.07,-81.28 64.9,-91.02 71.88,-91.49"/>
</g>
<!-- Node7 -->
<g id="node7" class="node">
<title>Node7</title>
<g id="a_node7"><a xlink:href="../../dd/d2d/exception_8h.html" target="_top" xlink:title=" ">
<polygon fill="none" stroke="black" points="445.5,-179.5 445.5,-198.5 562.5,-198.5 562.5,-179.5 445.5,-179.5"/>
<text text-anchor="middle" x="504" y="-186.5" font-family="Helvetica,sans-Serif" font-size="10.00">includes/exception.h</text>
</a>
</g>
</g>
<!-- Node1&#45;&gt;Node7 -->
<g id="edge7" class="edge">
<title>Node1&#45;&gt;Node7</title>
<path fill="none" stroke="midnightblue" d="M292.94,-235.64C348.26,-223.68 411.7,-209.96 454.46,-200.71"/>
<polygon fill="midnightblue" stroke="midnightblue" points="455.3,-204.11 464.33,-198.58 453.82,-197.27 455.3,-204.11"/>
</g>
<!-- Node3 -->
<g id="node3" class="node">
<title>Node3</title>
<g id="a_node3"><a xlink:href="../../dd/d33/time__incrementor_8h.html" target="_top" xlink:title=" ">
<polygon fill="none" stroke="black" points="110,-123.5 110,-142.5 222,-142.5 222,-123.5 110,-123.5"/>
<text text-anchor="middle" x="166" y="-130.5" font-family="Helvetica,sans-Serif" font-size="10.00">time_incrementor.h</text>
</a>
</g>
</g>
<!-- Node2&#45;&gt;Node3 -->
<g id="edge2" class="edge">
<title>Node2&#45;&gt;Node3</title>
<path fill="none" stroke="midnightblue" d="M176.02,-179.08C174.43,-171.93 172.14,-161.64 170.15,-152.69"/>
<polygon fill="midnightblue" stroke="midnightblue" points="173.53,-151.75 167.94,-142.75 166.7,-153.27 173.53,-151.75"/>
</g>
<!-- Node3&#45;&gt;Node4 -->
<g id="edge3" class="edge">
<title>Node3&#45;&gt;Node4</title>
<path fill="none" stroke="midnightblue" d="M152.25,-123.48C136.63,-113.8 110.94,-97.87 92.42,-86.39"/>
<polygon fill="midnightblue" stroke="midnightblue" points="94.07,-83.3 83.73,-81.01 90.38,-89.25 94.07,-83.3"/>
</g>
<!-- Node6 -->
<g id="node6" class="node">
<title>Node6</title>
<g id="a_node6"><a xlink:title=" ">
<polygon fill="none" stroke="#bfbfbf" points="158,-62 158,-81 214,-81 214,-62 158,-62"/>
<text text-anchor="middle" x="186" y="-69" font-family="Helvetica,sans-Serif" font-size="10.00">optional</text>
</a>
</g>
</g>
<!-- Node3&#45;&gt;Node6 -->
<g id="edge5" class="edge">
<title>Node3&#45;&gt;Node6</title>
<path fill="none" stroke="midnightblue" d="M168.87,-123.48C171.72,-114.99 176.18,-101.7 179.84,-90.82"/>
<polygon fill="midnightblue" stroke="midnightblue" points="183.27,-91.6 183.14,-81.01 176.64,-89.37 183.27,-91.6"/>
</g>
<!-- Node5 -->
<g id="node5" class="node">
<title>Node5</title>
<g id="a_node5"><a xlink:title=" ">
<polygon fill="none" stroke="#bfbfbf" points="43.5,-0.5 43.5,-19.5 96.5,-19.5 96.5,-0.5 43.5,-0.5"/>
<text text-anchor="middle" x="70" y="-7.5" font-family="Helvetica,sans-Serif" font-size="10.00">cstddef</text>
</a>
</g>
</g>
<!-- Node4&#45;&gt;Node5 -->
<g id="edge4" class="edge">
<title>Node4&#45;&gt;Node5</title>
<path fill="none" stroke="midnightblue" d="M70,-61.98C70,-53.58 70,-40.48 70,-29.66"/>
<polygon fill="midnightblue" stroke="midnightblue" points="73.5,-29.51 70,-19.51 66.5,-29.51 73.5,-29.51"/>
</g>
<!-- Node8 -->
<g id="node8" class="node">
<title>Node8</title>
<g id="a_node8"><a xlink:title=" ">
<polygon fill="none" stroke="#bfbfbf" points="352.5,-123.5 352.5,-142.5 417.5,-142.5 417.5,-123.5 352.5,-123.5"/>
<text text-anchor="middle" x="385" y="-130.5" font-family="Helvetica,sans-Serif" font-size="10.00">stdexcept</text>
</a>
</g>
</g>
<!-- Node7&#45;&gt;Node8 -->
<g id="edge8" class="edge">
<title>Node7&#45;&gt;Node8</title>
<path fill="none" stroke="midnightblue" d="M485.14,-179.44C465.73,-170.64 435.27,-156.81 413.04,-146.72"/>
<polygon fill="midnightblue" stroke="midnightblue" points="414.32,-143.46 403.77,-142.52 411.43,-149.84 414.32,-143.46"/>
</g>
<!-- Node9 -->
<g id="node9" class="node">
<title>Node9</title>
<g id="a_node9"><a xlink:title=" ">
<polygon fill="none" stroke="#bfbfbf" points="517,-62 517,-81 561,-81 561,-62 517,-62"/>
<text text-anchor="middle" x="539" y="-69" font-family="Helvetica,sans-Serif" font-size="10.00">string</text>
</a>
</g>
</g>
<!-- Node7&#45;&gt;Node9 -->
<g id="edge9" class="edge">
<title>Node7&#45;&gt;Node9</title>
<path fill="none" stroke="midnightblue" d="M533.12,-179.44C550.64,-172.62 571.52,-161.14 582,-143 593.11,-123.76 575.01,-101.98 558.99,-87.78"/>
<polygon fill="midnightblue" stroke="midnightblue" points="560.9,-84.81 550.97,-81.1 556.42,-90.19 560.9,-84.81"/>
</g>
<!-- Node10 -->
<g id="node10" class="node">
<title>Node10</title>
<g id="a_node10"><a xlink:title=" ">
<polygon fill="none" stroke="#bfbfbf" points="701,-62 701,-81 761,-81 761,-62 701,-62"/>
<text text-anchor="middle" x="731" y="-69" font-family="Helvetica,sans-Serif" font-size="10.00">iostream</text>
</a>
</g>
</g>
<!-- Node7&#45;&gt;Node10 -->
<g id="edge10" class="edge">
<title>Node7&#45;&gt;Node10</title>
<path fill="none" stroke="midnightblue" d="M562.72,-187.89C641.07,-186.35 773.5,-178.42 804,-143 822.51,-121.5 788.86,-99.16 761.34,-85.54"/>
<polygon fill="midnightblue" stroke="midnightblue" points="762.49,-82.21 751.95,-81.1 759.5,-88.54 762.49,-82.21"/>
</g>
<!-- Node11 -->
<g id="node11" class="node">
<title>Node11</title>
<g id="a_node11"><a xlink:title=" ">
<polygon fill="none" stroke="#bfbfbf" points="278,-123.5 278,-142.5 334,-142.5 334,-123.5 278,-123.5"/>
<text text-anchor="middle" x="306" y="-130.5" font-family="Helvetica,sans-Serif" font-size="10.00">sstream</text>
</a>
</g>
</g>
<!-- Node7&#45;&gt;Node11 -->
<g id="edge11" class="edge">
<title>Node7&#45;&gt;Node11</title>
<path fill="none" stroke="midnightblue" d="M472.63,-179.44C437.74,-169.93 381.39,-154.56 344.03,-144.37"/>
<polygon fill="midnightblue" stroke="midnightblue" points="344.59,-140.9 334.03,-141.64 342.75,-147.65 344.59,-140.9"/>
</g>
<!-- Node12 -->
<g id="node12" class="node">
<title>Node12</title>
<g id="a_node12"><a xlink:title=" ">
<polygon fill="none" stroke="#bfbfbf" points="625.5,-62 625.5,-81 672.5,-81 672.5,-62 625.5,-62"/>
<text text-anchor="middle" x="649" y="-69" font-family="Helvetica,sans-Serif" font-size="10.00">vector</text>
</a>
</g>
</g>
<!-- Node7&#45;&gt;Node12 -->
<g id="edge12" class="edge">
<title>Node7&#45;&gt;Node12</title>
<path fill="none" stroke="midnightblue" d="M529.6,-179.48C549.44,-172.01 576.85,-159.73 597,-143 614.85,-128.18 629.9,-105.98 639.14,-90.46"/>
<polygon fill="midnightblue" stroke="midnightblue" points="642.41,-91.79 644.34,-81.38 636.34,-88.31 642.41,-91.79"/>
</g>
<!-- Node13 -->
<g id="node13" class="node">
<title>Node13</title>
<g id="a_node13"><a xlink:href="../../dc/d25/kratos__export__api_8h.html" target="_top" xlink:title=" ">
<polygon fill="none" stroke="black" points="325,-56.5 325,-86.5 453,-86.5 453,-56.5 325,-56.5"/>
<text text-anchor="start" x="333" y="-74.5" font-family="Helvetica,sans-Serif" font-size="10.00">includes/kratos_export</text>
<text text-anchor="middle" x="389" y="-63.5" font-family="Helvetica,sans-Serif" font-size="10.00">_api.h</text>
</a>
</g>
</g>
<!-- Node7&#45;&gt;Node13 -->
<g id="edge13" class="edge">
<title>Node7&#45;&gt;Node13</title>
<path fill="none" stroke="midnightblue" d="M445.43,-185.08C383.26,-180.61 290.97,-169.57 269,-143 249.07,-118.9 279.97,-101.14 315.4,-89.48"/>
<polygon fill="midnightblue" stroke="midnightblue" points="316.46,-92.82 324.97,-86.5 314.38,-86.13 316.46,-92.82"/>
</g>
<!-- Node14 -->
<g id="node14" class="node">
<title>Node14</title>
<g id="a_node14"><a xlink:href="../../da/da6/code__location_8h.html" target="_top" xlink:title=" ">
<polygon fill="none" stroke="black" points="435.5,-123.5 435.5,-142.5 572.5,-142.5 572.5,-123.5 435.5,-123.5"/>
<text text-anchor="middle" x="504" y="-130.5" font-family="Helvetica,sans-Serif" font-size="10.00">includes/code_location.h</text>
</a>
</g>
</g>
<!-- Node7&#45;&gt;Node14 -->
<g id="edge14" class="edge">
<title>Node7&#45;&gt;Node14</title>
<path fill="none" stroke="midnightblue" d="M504,-179.08C504,-172.01 504,-161.86 504,-152.99"/>
<polygon fill="midnightblue" stroke="midnightblue" points="507.5,-152.75 504,-142.75 500.5,-152.75 507.5,-152.75"/>
</g>
<!-- Node15 -->
<g id="node15" class="node">
<title>Node15</title>
<g id="a_node15"><a xlink:href="../../d9/d06/stl__vector__io_8h.html" target="_top" xlink:title=" ">
<polygon fill="none" stroke="black" points="667,-123.5 667,-142.5 795,-142.5 795,-123.5 667,-123.5"/>
<text text-anchor="middle" x="731" y="-130.5" font-family="Helvetica,sans-Serif" font-size="10.00">utilities/stl_vector_io.h</text>
</a>
</g>
</g>
<!-- Node7&#45;&gt;Node15 -->
<g id="edge18" class="edge">
<title>Node7&#45;&gt;Node15</title>
<path fill="none" stroke="midnightblue" d="M539.97,-179.44C579.32,-170.08 642.49,-155.06 685.31,-144.87"/>
<polygon fill="midnightblue" stroke="midnightblue" points="686.28,-148.24 695.2,-142.52 684.66,-141.43 686.28,-148.24"/>
</g>
<!-- Node14&#45;&gt;Node9 -->
<g id="edge15" class="edge">
<title>Node14&#45;&gt;Node9</title>
<path fill="none" stroke="midnightblue" d="M509.01,-123.48C514.16,-114.73 522.31,-100.87 528.82,-89.81"/>
<polygon fill="midnightblue" stroke="midnightblue" points="531.94,-91.4 533.99,-81.01 525.91,-87.85 531.94,-91.4"/>
</g>
<!-- Node14&#45;&gt;Node10 -->
<g id="edge16" class="edge">
<title>Node14&#45;&gt;Node10</title>
<path fill="none" stroke="midnightblue" d="M539.57,-123.45C575.58,-114.69 632.82,-100.49 682,-87 685.59,-86.02 689.32,-84.96 693.05,-83.89"/>
<polygon fill="midnightblue" stroke="midnightblue" points="694.19,-87.21 702.81,-81.05 692.23,-80.49 694.19,-87.21"/>
</g>
<!-- Node14&#45;&gt;Node13 -->
<g id="edge17" class="edge">
<title>Node14&#45;&gt;Node13</title>
<path fill="none" stroke="midnightblue" d="M487.52,-123.48C471.29,-115.08 445.96,-101.97 425.05,-91.15"/>
<polygon fill="midnightblue" stroke="midnightblue" points="426.59,-88.01 416.1,-86.52 423.38,-94.23 426.59,-88.01"/>
</g>
<!-- Node15&#45;&gt;Node10 -->
<g id="edge19" class="edge">
<title>Node15&#45;&gt;Node10</title>
<path fill="none" stroke="midnightblue" d="M731,-123.48C731,-115.08 731,-101.98 731,-91.16"/>
<polygon fill="midnightblue" stroke="midnightblue" points="734.5,-91.01 731,-81.01 727.5,-91.01 734.5,-91.01"/>
</g>
<!-- Node15&#45;&gt;Node12 -->
<g id="edge20" class="edge">
<title>Node15&#45;&gt;Node12</title>
<path fill="none" stroke="midnightblue" d="M719.25,-123.48C706.22,-114.02 684.96,-98.6 669.24,-87.19"/>
<polygon fill="midnightblue" stroke="midnightblue" points="670.88,-84.05 660.73,-81.01 666.77,-89.71 670.88,-84.05"/>
</g>
</g>
</svg>
