<?xml version="1.0" encoding="UTF-8" standalone="no"?>
<!DOCTYPE svg PUBLIC "-//W3C//DTD SVG 1.1//EN"
 "http://www.w3.org/Graphics/SVG/1.1/DTD/svg11.dtd">
<!-- Generated by graphviz version 2.43.0 (0)
 -->
<!-- Title: /home/runner/work/Documentation/Documentation/master/applications/SwimmingDEMApplication/custom_strategies/strategies/residualbased_predictorcorrector_velocity_bossak_scheme_turbulentDEMCoupled.h Pages: 1 -->
<svg width="3570pt" height="1167pt"
 viewBox="0.00 0.00 3570.11 1167.00" xmlns="http://www.w3.org/2000/svg" xmlns:xlink="http://www.w3.org/1999/xlink">
<g id="graph0" class="graph" transform="scale(1 1) rotate(0) translate(4 1163)">
<title>/home/runner/work/Documentation/Documentation/master/applications/SwimmingDEMApplication/custom_strategies/strategies/residualbased_predictorcorrector_velocity_bossak_scheme_turbulentDEMCoupled.h</title>
<!-- Node1 -->
<g id="node1" class="node">
<title>Node1</title>
<g id="a_node1"><a xlink:title=" ">
<polygon fill="#bfbfbf" stroke="black" points="1427,-1084.5 1427,-1158.5 1621,-1158.5 1621,-1084.5 1427,-1084.5"/>
<text text-anchor="start" x="1435" y="-1146.5" font-family="Helvetica,sans-Serif" font-size="10.00">/home/runner/work/Documentation</text>
<text text-anchor="start" x="1435" y="-1135.5" font-family="Helvetica,sans-Serif" font-size="10.00">/Documentation/master/applications</text>
<text text-anchor="start" x="1435" y="-1124.5" font-family="Helvetica,sans-Serif" font-size="10.00">/SwimmingDEMApplication/custom</text>
<text text-anchor="start" x="1435" y="-1113.5" font-family="Helvetica,sans-Serif" font-size="10.00">_strategies/strategies/residualbased</text>
<text text-anchor="start" x="1435" y="-1102.5" font-family="Helvetica,sans-Serif" font-size="10.00">_predictorcorrector_velocity_bossak</text>
<text text-anchor="middle" x="1524" y="-1091.5" font-family="Helvetica,sans-Serif" font-size="10.00">_scheme_turbulentDEMCoupled.h</text>
</a>
</g>
</g>
<!-- Node2 -->
<g id="node2" class="node">
<title>Node2</title>
<g id="a_node2"><a xlink:title=" ">
<polygon fill="none" stroke="#bfbfbf" points="1048,-945 1048,-964 1162,-964 1162,-945 1048,-945"/>
<text text-anchor="middle" x="1105" y="-952" font-family="Helvetica,sans-Serif" font-size="10.00">boost/smart_ptr.hpp</text>
</a>
</g>
</g>
<!-- Node1&#45;&gt;Node2 -->
<g id="edge1" class="edge">
<title>Node1&#45;&gt;Node2</title>
<path fill="none" stroke="midnightblue" d="M1427,-1085.72C1395.04,-1074.02 1359.4,-1060.71 1327,-1048 1257.37,-1020.69 1176.48,-986.31 1134.19,-968.12"/>
<polygon fill="midnightblue" stroke="midnightblue" points="1135.35,-964.82 1124.79,-964.07 1132.59,-971.24 1135.35,-964.82"/>
</g>
<!-- Node3 -->
<g id="node3" class="node">
<title>Node3</title>
<g id="a_node3"><a xlink:href="../../df/d67/define_8h.html" target="_top" xlink:title=" ">
<polygon fill="none" stroke="black" points="989.5,-129 989.5,-148 1088.5,-148 1088.5,-129 989.5,-129"/>
<text text-anchor="middle" x="1039" y="-136" font-family="Helvetica,sans-Serif" font-size="10.00">includes/define.h</text>
</a>
</g>
</g>
<!-- Node1&#45;&gt;Node3 -->
<g id="edge2" class="edge">
<title>Node1&#45;&gt;Node3</title>
<path fill="none" stroke="midnightblue" d="M1426.93,-1120.22C1091.24,-1117.98 0,-1099.63 0,-955.5 0,-955.5 0,-955.5 0,-461.5 0,-314.73 49.72,-239.19 188,-190 261.95,-163.69 797.68,-146.31 979.11,-141.12"/>
<polygon fill="midnightblue" stroke="midnightblue" points="979.38,-144.62 989.27,-140.83 979.18,-137.62 979.38,-144.62"/>
</g>
<!-- Node17 -->
<g id="node11" class="node">
<title>Node17</title>
<g id="a_node11"><a xlink:href="../../dd/dfe/model__part_8h.html" target="_top" xlink:title=" ">
<polygon fill="none" stroke="black" points="1243.5,-883.5 1243.5,-902.5 1368.5,-902.5 1368.5,-883.5 1243.5,-883.5"/>
<text text-anchor="middle" x="1306" y="-890.5" font-family="Helvetica,sans-Serif" font-size="10.00">includes/model_part.h</text>
</a>
</g>
</g>
<!-- Node1&#45;&gt;Node17 -->
<g id="edge14" class="edge">
<title>Node1&#45;&gt;Node17</title>
<path fill="none" stroke="midnightblue" d="M1426.83,-1105.01C1298.13,-1082.18 1082.27,-1035.06 1039,-970 1031.37,-958.53 1030.1,-949.52 1039,-939 1063.45,-910.09 1162.84,-899.75 1233.18,-896.05"/>
<polygon fill="midnightblue" stroke="midnightblue" points="1233.52,-899.54 1243.34,-895.55 1233.18,-892.54 1233.52,-899.54"/>
</g>
<!-- Node31 -->
<g id="node15" class="node">
<title>Node31</title>
<g id="a_node15"><a xlink:href="../../d9/d36/array__1d_8h.html" target="_top" xlink:title=" ">
<polygon fill="none" stroke="black" points="2441,-263 2441,-282 2563,-282 2563,-263 2441,-263"/>
<text text-anchor="middle" x="2502" y="-270" font-family="Helvetica,sans-Serif" font-size="10.00">containers/array_1d.h</text>
</a>
</g>
</g>
<!-- Node1&#45;&gt;Node31 -->
<g id="edge156" class="edge">
<title>Node1&#45;&gt;Node31</title>
<path fill="none" stroke="midnightblue" d="M1621.19,-1119.65C1945.62,-1115.52 2971,-1091.72 2971,-955.5 2971,-955.5 2971,-955.5 2971,-461.5 2971,-373.83 2685.09,-308.45 2559.73,-284"/>
<polygon fill="midnightblue" stroke="midnightblue" points="2560.03,-280.5 2549.55,-282.04 2558.71,-287.37 2560.03,-280.5"/>
</g>
<!-- Node133 -->
<g id="node39" class="node">
<title>Node133</title>
<g id="a_node39"><a xlink:href="../../d1/d1a/deprecated__variables_8h.html" target="_top" xlink:title=" ">
<polygon fill="none" stroke="black" points="1761.5,-581.5 1761.5,-611.5 1876.5,-611.5 1876.5,-581.5 1761.5,-581.5"/>
<text text-anchor="start" x="1769.5" y="-599.5" font-family="Helvetica,sans-Serif" font-size="10.00">includes/deprecated</text>
<text text-anchor="middle" x="1819" y="-588.5" font-family="Helvetica,sans-Serif" font-size="10.00">_variables.h</text>
</a>
</g>
</g>
<!-- Node1&#45;&gt;Node133 -->
<g id="edge127" class="edge">
<title>Node1&#45;&gt;Node133</title>
<path fill="none" stroke="midnightblue" d="M1621.16,-1118.59C1763.62,-1114.08 2036.78,-1098.93 2263,-1048 2374.93,-1022.8 2504,-1070.23 2504,-955.5 2504,-955.5 2504,-955.5 2504,-718.5 2504,-702.93 2059.3,-633.9 1886.51,-607.66"/>
<polygon fill="midnightblue" stroke="midnightblue" points="1886.93,-604.19 1876.52,-606.15 1885.88,-611.11 1886.93,-604.19"/>
</g>
<!-- Node119 -->
<g id="node40" class="node">
<title>Node119</title>
<g id="a_node40"><a xlink:href="../../de/dca/variables_8h.html" target="_top" xlink:title=" ">
<polygon fill="none" stroke="black" points="1942,-587 1942,-606 2056,-606 2056,-587 1942,-587"/>
<text text-anchor="middle" x="1999" y="-594" font-family="Helvetica,sans-Serif" font-size="10.00">includes/variables.h</text>
</a>
</g>
</g>
<!-- Node1&#45;&gt;Node119 -->
<g id="edge132" class="edge">
<title>Node1&#45;&gt;Node119</title>
<path fill="none" stroke="midnightblue" d="M1621.24,-1116.97C1902,-1105.48 2694,-1063.52 2694,-955.5 2694,-955.5 2694,-955.5 2694,-718.5 2694,-655.19 2240.66,-615.22 2066.25,-602.18"/>
<polygon fill="midnightblue" stroke="midnightblue" points="2066.4,-598.68 2056.17,-601.43 2065.88,-605.66 2066.4,-598.68"/>
</g>
<!-- Node134 -->
<g id="node44" class="node">
<title>Node134</title>
<g id="a_node44"><a xlink:href="../../d0/d8e/cfd__variables_8h.html" target="_top" xlink:title=" ">
<polygon fill="none" stroke="black" points="1524,-587 1524,-606 1658,-606 1658,-587 1524,-587"/>
<text text-anchor="middle" x="1591" y="-594" font-family="Helvetica,sans-Serif" font-size="10.00">includes/cfd_variables.h</text>
</a>
</g>
</g>
<!-- Node1&#45;&gt;Node134 -->
<g id="edge151" class="edge">
<title>Node1&#45;&gt;Node134</title>
<path fill="none" stroke="midnightblue" d="M1621.27,-1120.38C1832.42,-1117.48 2314,-1095.52 2314,-955.5 2314,-955.5 2314,-955.5 2314,-892 2314,-748.47 1819.12,-640.85 1648.22,-607.97"/>
<polygon fill="midnightblue" stroke="midnightblue" points="1648.64,-604.49 1638.16,-606.05 1647.33,-611.36 1648.64,-604.49"/>
</g>
<!-- Node63 -->
<g id="node45" class="node">
<title>Node63</title>
<g id="a_node45"><a xlink:href="../../de/d07/parallel__utilities_8h.html" target="_top" xlink:title=" ">
<polygon fill="none" stroke="red" points="3189.5,-257.5 3189.5,-287.5 3282.5,-287.5 3282.5,-257.5 3189.5,-257.5"/>
<text text-anchor="start" x="3197.5" y="-275.5" font-family="Helvetica,sans-Serif" font-size="10.00">utilities/parallel</text>
<text text-anchor="middle" x="3236" y="-264.5" font-family="Helvetica,sans-Serif" font-size="10.00">_utilities.h</text>
</a>
</g>
</g>
<!-- Node1&#45;&gt;Node63 -->
<g id="edge157" class="edge">
<title>Node1&#45;&gt;Node63</title>
<path fill="none" stroke="midnightblue" d="M1621.18,-1121.25C1841.33,-1121.64 2394.46,-1115.17 2851,-1048 3023.82,-1022.57 3233,-1130.18 3233,-955.5 3233,-955.5 3233,-955.5 3233,-394.5 3233,-360.97 3234.17,-322.23 3235.04,-297.8"/>
<polygon fill="midnightblue" stroke="midnightblue" points="3238.55,-297.78 3235.42,-287.65 3231.55,-297.52 3238.55,-297.78"/>
</g>
<!-- Node135 -->
<g id="node47" class="node">
<title>Node135</title>
<g id="a_node47"><a xlink:href="../../de/d6c/dof__updater_8h.html" target="_top" xlink:title=" ">
<polygon fill="none" stroke="black" points="1458.5,-945 1458.5,-964 1581.5,-964 1581.5,-945 1458.5,-945"/>
<text text-anchor="middle" x="1520" y="-952" font-family="Helvetica,sans-Serif" font-size="10.00">utilities/dof_updater.h</text>
</a>
</g>
</g>
<!-- Node1&#45;&gt;Node135 -->
<g id="edge162" class="edge">
<title>Node1&#45;&gt;Node135</title>
<path fill="none" stroke="midnightblue" d="M1553.49,-1084.34C1568.19,-1061.78 1580.76,-1032.15 1570,-1006 1564.09,-991.63 1551.9,-979.18 1541.04,-970.24"/>
<polygon fill="midnightblue" stroke="midnightblue" points="1543.16,-967.46 1533.11,-964.11 1538.88,-973 1543.16,-967.46"/>
</g>
<!-- Node136 -->
<g id="node48" class="node">
<title>Node136</title>
<g id="a_node48"><a xlink:href="../../d9/d1b/coordinate__transformation__utilities_8h.html" target="_top" xlink:title=" ">
<polygon fill="none" stroke="red" points="1256,-939.5 1256,-969.5 1402,-969.5 1402,-939.5 1256,-939.5"/>
<text text-anchor="start" x="1264" y="-957.5" font-family="Helvetica,sans-Serif" font-size="10.00">utilities/coordinate</text>
<text text-anchor="middle" x="1329" y="-946.5" font-family="Helvetica,sans-Serif" font-size="10.00">_transformation_utilities.h</text>
</a>
</g>
</g>
<!-- Node1&#45;&gt;Node136 -->
<g id="edge166" class="edge">
<title>Node1&#45;&gt;Node136</title>
<path fill="none" stroke="midnightblue" d="M1426.71,-1098.83C1397.97,-1087.98 1368.91,-1071.86 1349,-1048 1333.12,-1028.97 1329.01,-1000.24 1328.31,-979.85"/>
<polygon fill="midnightblue" stroke="midnightblue" points="1331.81,-979.74 1328.22,-969.78 1324.81,-979.81 1331.81,-979.74"/>
</g>
<!-- Node137 -->
<g id="node49" class="node">
<title>Node137</title>
<g id="a_node49"><a xlink:href="../../da/d42/process_8h.html" target="_top" xlink:title=" ">
<polygon fill="none" stroke="red" points="46.5,-883.5 46.5,-902.5 161.5,-902.5 161.5,-883.5 46.5,-883.5"/>
<text text-anchor="middle" x="104" y="-890.5" font-family="Helvetica,sans-Serif" font-size="10.00">processes/process.h</text>
</a>
</g>
</g>
<!-- Node1&#45;&gt;Node137 -->
<g id="edge170" class="edge">
<title>Node1&#45;&gt;Node137</title>
<path fill="none" stroke="midnightblue" d="M1426.96,-1105.02C1155.32,-1061.69 392.54,-940.02 167.35,-904.11"/>
<polygon fill="midnightblue" stroke="midnightblue" points="167.78,-900.63 157.35,-902.51 166.68,-907.54 167.78,-900.63"/>
</g>
<!-- Node139 -->
<g id="node50" class="node">
<title>Node139</title>
<g id="a_node50"><a xlink:href="../../d7/d57/residualbased__predictorcorrector__velocity__bossak__scheme__turbulent_8h.html" target="_top" xlink:title=" ">
<polygon fill="none" stroke="red" points="1357.5,-1006.5 1357.5,-1047.5 1560.5,-1047.5 1560.5,-1006.5 1357.5,-1006.5"/>
<text text-anchor="start" x="1365.5" y="-1035.5" font-family="Helvetica,sans-Serif" font-size="10.00">custom_strategies/schemes</text>
<text text-anchor="start" x="1365.5" y="-1024.5" font-family="Helvetica,sans-Serif" font-size="10.00">/residualbased_predictorcorrector</text>
<text text-anchor="middle" x="1459" y="-1013.5" font-family="Helvetica,sans-Serif" font-size="10.00">_velocity_bossak_scheme_turbulent.h</text>
</a>
</g>
</g>
<!-- Node1&#45;&gt;Node139 -->
<g id="edge173" class="edge">
<title>Node1&#45;&gt;Node139</title>
<path fill="none" stroke="midnightblue" d="M1498.68,-1084.47C1491.98,-1074.94 1484.86,-1064.8 1478.52,-1055.77"/>
<polygon fill="midnightblue" stroke="midnightblue" points="1481.33,-1053.69 1472.72,-1047.53 1475.61,-1057.72 1481.33,-1053.69"/>
</g>
<!-- Node4 -->
<g id="node4" class="node">
<title>Node4</title>
<g id="a_node4"><a xlink:title=" ">
<polygon fill="none" stroke="#bfbfbf" points="1107.5,-6 1107.5,-25 1172.5,-25 1172.5,-6 1107.5,-6"/>
<text text-anchor="middle" x="1140" y="-13" font-family="Helvetica,sans-Serif" font-size="10.00">stdexcept</text>
</a>
</g>
</g>
<!-- Node3&#45;&gt;Node4 -->
<g id="edge3" class="edge">
<title>Node3&#45;&gt;Node4</title>
<path fill="none" stroke="midnightblue" d="M1042.6,-128.59C1048.57,-114.53 1061.49,-86.75 1078,-67 1089.58,-53.15 1105.38,-40.35 1118.14,-31.1"/>
<polygon fill="midnightblue" stroke="midnightblue" points="1120.23,-33.91 1126.39,-25.29 1116.2,-28.18 1120.23,-33.91"/>
</g>
<!-- Node5 -->
<g id="node5" class="node">
<title>Node5</title>
<g id="a_node5"><a xlink:title=" ">
<polygon fill="none" stroke="#bfbfbf" points="200,-6 200,-25 256,-25 256,-6 200,-6"/>
<text text-anchor="middle" x="228" y="-13" font-family="Helvetica,sans-Serif" font-size="10.00">sstream</text>
</a>
</g>
</g>
<!-- Node3&#45;&gt;Node5 -->
<g id="edge4" class="edge">
<title>Node3&#45;&gt;Node5</title>
<path fill="none" stroke="midnightblue" d="M989.49,-130.11C840.65,-107.91 399.36,-42.07 266.36,-22.22"/>
<polygon fill="midnightblue" stroke="midnightblue" points="266.65,-18.73 256.25,-20.71 265.62,-25.65 266.65,-18.73"/>
</g>
<!-- Node6 -->
<g id="node6" class="node">
<title>Node6</title>
<g id="a_node6"><a xlink:href="../../dc/d25/kratos__export__api_8h.html" target="_top" xlink:title=" ">
<polygon fill="none" stroke="black" points="958,-0.5 958,-30.5 1086,-30.5 1086,-0.5 958,-0.5"/>
<text text-anchor="start" x="966" y="-18.5" font-family="Helvetica,sans-Serif" font-size="10.00">includes/kratos_export</text>
<text text-anchor="middle" x="1022" y="-7.5" font-family="Helvetica,sans-Serif" font-size="10.00">_api.h</text>
</a>
</g>
</g>
<!-- Node3&#45;&gt;Node6 -->
<g id="edge5" class="edge">
<title>Node3&#45;&gt;Node6</title>
<path fill="none" stroke="midnightblue" d="M1037.78,-128.8C1035.22,-110.6 1029.23,-67.98 1025.41,-40.79"/>
<polygon fill="midnightblue" stroke="midnightblue" points="1028.83,-39.95 1023.97,-30.54 1021.9,-40.93 1028.83,-39.95"/>
</g>
<!-- Node7 -->
<g id="node7" class="node">
<title>Node7</title>
<g id="a_node7"><a xlink:href="../../d9/dc0/smart__pointers_8h.html" target="_top" xlink:title=" ">
<polygon fill="none" stroke="red" points="2550.5,-67.5 2550.5,-86.5 2693.5,-86.5 2693.5,-67.5 2550.5,-67.5"/>
<text text-anchor="middle" x="2622" y="-74.5" font-family="Helvetica,sans-Serif" font-size="10.00">includes/smart_pointers.h</text>
</a>
</g>
</g>
<!-- Node3&#45;&gt;Node7 -->
<g id="edge6" class="edge">
<title>Node3&#45;&gt;Node7</title>
<path fill="none" stroke="midnightblue" d="M1088.55,-135.64C1315.39,-127.11 2255.91,-91.76 2540.23,-81.07"/>
<polygon fill="midnightblue" stroke="midnightblue" points="2540.61,-84.56 2550.47,-80.69 2540.34,-77.57 2540.61,-84.56"/>
</g>
<!-- Node12 -->
<g id="node9" class="node">
<title>Node12</title>
<g id="a_node9"><a xlink:href="../../dd/d2d/exception_8h.html" target="_top" xlink:title=" ">
<polygon fill="none" stroke="red" points="1086.5,-67.5 1086.5,-86.5 1203.5,-86.5 1203.5,-67.5 1086.5,-67.5"/>
<text text-anchor="middle" x="1145" y="-74.5" font-family="Helvetica,sans-Serif" font-size="10.00">includes/exception.h</text>
</a>
</g>
</g>
<!-- Node3&#45;&gt;Node12 -->
<g id="edge8" class="edge">
<title>Node3&#45;&gt;Node12</title>
<path fill="none" stroke="midnightblue" d="M1054.19,-128.98C1071.66,-119.17 1100.58,-102.93 1121.08,-91.42"/>
<polygon fill="midnightblue" stroke="midnightblue" points="1122.83,-94.46 1129.84,-86.51 1119.41,-88.35 1122.83,-94.46"/>
</g>
<!-- Node8 -->
<g id="node8" class="node">
<title>Node8</title>
<g id="a_node8"><a xlink:title=" ">
<polygon fill="none" stroke="#bfbfbf" points="3075,-6 3075,-25 3135,-25 3135,-6 3075,-6"/>
<text text-anchor="middle" x="3105" y="-13" font-family="Helvetica,sans-Serif" font-size="10.00">iostream</text>
</a>
</g>
</g>
<!-- Node7&#45;&gt;Node8 -->
<g id="edge7" class="edge">
<title>Node7&#45;&gt;Node8</title>
<path fill="none" stroke="midnightblue" d="M2691.2,-67.48C2793.64,-54.86 2982.37,-31.61 3064.76,-21.46"/>
<polygon fill="midnightblue" stroke="midnightblue" points="3065.23,-24.93 3074.73,-20.23 3064.38,-17.98 3065.23,-24.93"/>
</g>
<!-- Node12&#45;&gt;Node4 -->
<g id="edge9" class="edge">
<title>Node12&#45;&gt;Node4</title>
<path fill="none" stroke="midnightblue" d="M1144.28,-67.48C1143.58,-59.08 1142.48,-45.98 1141.57,-35.16"/>
<polygon fill="midnightblue" stroke="midnightblue" points="1145.04,-34.68 1140.72,-25.01 1138.06,-35.27 1145.04,-34.68"/>
</g>
<!-- Node12&#45;&gt;Node5 -->
<g id="edge12" class="edge">
<title>Node12&#45;&gt;Node5</title>
<path fill="none" stroke="midnightblue" d="M1086.24,-72.19C913.28,-60.96 409.15,-28.25 266.19,-18.98"/>
<polygon fill="midnightblue" stroke="midnightblue" points="266.35,-15.48 256.15,-18.33 265.9,-22.47 266.35,-15.48"/>
</g>
<!-- Node12&#45;&gt;Node6 -->
<g id="edge13" class="edge">
<title>Node12&#45;&gt;Node6</title>
<path fill="none" stroke="midnightblue" d="M1127.38,-67.48C1109.94,-59.04 1082.68,-45.86 1060.26,-35.01"/>
<polygon fill="midnightblue" stroke="midnightblue" points="1061.51,-31.73 1050.99,-30.52 1058.47,-38.03 1061.51,-31.73"/>
</g>
<!-- Node12&#45;&gt;Node8 -->
<g id="edge11" class="edge">
<title>Node12&#45;&gt;Node8</title>
<path fill="none" stroke="midnightblue" d="M1203.66,-74.22C1498.79,-65.26 2816.89,-25.25 3064.75,-17.72"/>
<polygon fill="midnightblue" stroke="midnightblue" points="3064.87,-21.22 3074.76,-17.42 3064.66,-14.22 3064.87,-21.22"/>
</g>
<!-- Node13 -->
<g id="node10" class="node">
<title>Node13</title>
<g id="a_node10"><a xlink:title=" ">
<polygon fill="none" stroke="#bfbfbf" points="1644,-6 1644,-25 1688,-25 1688,-6 1644,-6"/>
<text text-anchor="middle" x="1666" y="-13" font-family="Helvetica,sans-Serif" font-size="10.00">string</text>
</a>
</g>
</g>
<!-- Node12&#45;&gt;Node13 -->
<g id="edge10" class="edge">
<title>Node12&#45;&gt;Node13</title>
<path fill="none" stroke="midnightblue" d="M1203.56,-68.73C1208.45,-68.14 1213.31,-67.55 1218,-67 1373.58,-48.64 1559.74,-28.12 1633.56,-20.04"/>
<polygon fill="midnightblue" stroke="midnightblue" points="1634.06,-23.51 1643.62,-18.94 1633.29,-16.55 1634.06,-23.51"/>
</g>
<!-- Node17&#45;&gt;Node3 -->
<g id="edge19" class="edge">
<title>Node17&#45;&gt;Node3</title>
<path fill="none" stroke="midnightblue" d="M1243.49,-892.19C1065.45,-892.21 558.23,-888.52 398,-847 334.7,-830.6 266,-847.39 266,-782 266,-782 266,-782 266,-528.5 266,-360.35 288.76,-273.01 435,-190 481.54,-163.58 835.45,-147.26 978.89,-141.67"/>
<polygon fill="midnightblue" stroke="midnightblue" points="979.4,-145.16 989.26,-141.27 979.13,-138.16 979.4,-145.16"/>
</g>
<!-- Node17&#45;&gt;Node5 -->
<g id="edge17" class="edge">
<title>Node17&#45;&gt;Node5</title>
<path fill="none" stroke="midnightblue" d="M1243.47,-891.67C1035.52,-890.23 375.28,-882.87 287,-847 170.64,-799.72 76,-784.6 76,-659 76,-659 76,-659 76,-461.5 76,-371.38 0,-363.62 0,-273.5 0,-273.5 0,-273.5 0,-137.5 0,-52.81 124.25,-27.22 189.3,-19.62"/>
<polygon fill="midnightblue" stroke="midnightblue" points="190.02,-23.07 199.58,-18.52 189.27,-16.11 190.02,-23.07"/>
</g>
<!-- Node17&#45;&gt;Node8 -->
<g id="edge16" class="edge">
<title>Node17&#45;&gt;Node8</title>
<path fill="none" stroke="midnightblue" d="M1368.55,-892.28C1551.76,-892.59 2084.89,-889.68 2253,-847 2622.99,-753.07 2689.75,-642.86 2993,-411 2998.36,-406.9 3174.86,-259.8 3181,-257 3267.57,-217.55 3319.93,-283.1 3392,-221 3443.98,-176.21 3437.26,-106.29 3381,-67 3343.56,-40.86 3212.95,-25.92 3145.7,-19.8"/>
<polygon fill="midnightblue" stroke="midnightblue" points="3145.74,-16.29 3135.47,-18.89 3145.12,-23.26 3145.74,-16.29"/>
</g>
<!-- Node17&#45;&gt;Node13 -->
<g id="edge15" class="edge">
<title>Node17&#45;&gt;Node13</title>
<path fill="none" stroke="midnightblue" d="M1368.8,-890.69C1561.14,-886.44 2133.91,-871.83 2214,-847 2419.57,-783.28 2872.84,-420.74 2953,-221 3009.79,-79.5 2867.72,-109.58 2703,-67 2506.38,-16.18 1852.41,-15.7 1698.6,-16.31"/>
<polygon fill="midnightblue" stroke="midnightblue" points="1698.38,-12.81 1688.4,-16.36 1698.41,-19.81 1698.38,-12.81"/>
</g>
<!-- Node18 -->
<g id="node12" class="node">
<title>Node18</title>
<g id="a_node12"><a xlink:title=" ">
<polygon fill="none" stroke="#bfbfbf" points="647.5,-324.5 647.5,-343.5 700.5,-343.5 700.5,-324.5 647.5,-324.5"/>
<text text-anchor="middle" x="674" y="-331.5" font-family="Helvetica,sans-Serif" font-size="10.00">cstddef</text>
</a>
</g>
</g>
<!-- Node17&#45;&gt;Node18 -->
<g id="edge18" class="edge">
<title>Node17&#45;&gt;Node18</title>
<path fill="none" stroke="midnightblue" d="M1243.23,-891.56C1097.08,-889.95 737.76,-882.4 623,-847 485.86,-804.69 418,-741.02 418,-597.5 418,-597.5 418,-597.5 418,-528.5 418,-419.91 566.4,-364.5 637.23,-344.25"/>
<polygon fill="midnightblue" stroke="midnightblue" points="638.39,-347.56 647.09,-341.51 636.52,-340.81 638.39,-347.56"/>
</g>
<!-- Node19 -->
<g id="node13" class="node">
<title>Node19</title>
<g id="a_node13"><a xlink:href="../../dd/d5f/serializer_8h.html" target="_top" xlink:title=" ">
<polygon fill="none" stroke="red" points="1873.5,-324.5 1873.5,-343.5 1986.5,-343.5 1986.5,-324.5 1873.5,-324.5"/>
<text text-anchor="middle" x="1930" y="-331.5" font-family="Helvetica,sans-Serif" font-size="10.00">includes/serializer.h</text>
</a>
</g>
</g>
<!-- Node17&#45;&gt;Node19 -->
<g id="edge20" class="edge">
<title>Node17&#45;&gt;Node19</title>
<path fill="none" stroke="midnightblue" d="M1368.83,-885.88C1577.75,-863.83 2236,-779.88 2236,-597.5 2236,-597.5 2236,-597.5 2236,-461.5 2236,-407.52 2071.3,-364.66 1983.56,-345.65"/>
<polygon fill="midnightblue" stroke="midnightblue" points="1984.03,-342.17 1973.52,-343.51 1982.57,-349.02 1984.03,-342.17"/>
</g>
<!-- Node26 -->
<g id="node14" class="node">
<title>Node26</title>
<g id="a_node14"><a xlink:href="../../d1/d8c/logger_8h.html" target="_top" xlink:title=" ">
<polygon fill="none" stroke="red" points="1898,-129 1898,-148 2018,-148 2018,-129 1898,-129"/>
<text text-anchor="middle" x="1958" y="-136" font-family="Helvetica,sans-Serif" font-size="10.00">input_output/logger.h</text>
</a>
</g>
</g>
<!-- Node17&#45;&gt;Node26 -->
<g id="edge120" class="edge">
<title>Node17&#45;&gt;Node26</title>
<path fill="none" stroke="midnightblue" d="M1368.66,-887.38C1450.34,-880.87 1597.45,-867.46 1722,-847 1990.78,-802.85 2151.9,-847.93 2288,-612 2320.26,-556.08 2364.47,-375.84 2326,-324 2293.07,-279.63 2259.84,-304.15 2207,-288 2110.47,-258.5 2063.99,-289.66 1990,-221 1972.19,-204.47 1964.15,-176.82 1960.62,-158.37"/>
<polygon fill="midnightblue" stroke="midnightblue" points="1964.03,-157.55 1958.95,-148.25 1957.12,-158.69 1964.03,-157.55"/>
</g>
<!-- Node57 -->
<g id="node23" class="node">
<title>Node57</title>
<g id="a_node23"><a xlink:href="../../de/db8/process__info_8h.html" target="_top" xlink:title=" ">
<polygon fill="none" stroke="red" points="766.5,-648.5 766.5,-667.5 897.5,-667.5 897.5,-648.5 766.5,-648.5"/>
<text text-anchor="middle" x="832" y="-655.5" font-family="Helvetica,sans-Serif" font-size="10.00">includes/process_info.h</text>
</a>
</g>
</g>
<!-- Node17&#45;&gt;Node57 -->
<g id="edge44" class="edge">
<title>Node17&#45;&gt;Node57</title>
<path fill="none" stroke="midnightblue" d="M1243.12,-888.53C1146.9,-882.61 967.98,-869.01 908,-847 824.1,-816.22 783.06,-813.85 741,-735 734.52,-722.84 733.73,-715.7 741,-704 750.72,-688.36 767.66,-677.98 784.32,-671.19"/>
<polygon fill="midnightblue" stroke="midnightblue" points="785.87,-674.35 794.03,-667.59 783.44,-667.78 785.87,-674.35"/>
</g>
<!-- Node58 -->
<g id="node24" class="node">
<title>Node58</title>
<g id="a_node24"><a xlink:href="../../d1/d82/data__value__container_8h.html" target="_top" xlink:title=" ">
<polygon fill="none" stroke="red" points="1036.5,-581.5 1036.5,-611.5 1161.5,-611.5 1161.5,-581.5 1036.5,-581.5"/>
<text text-anchor="start" x="1044.5" y="-599.5" font-family="Helvetica,sans-Serif" font-size="10.00">containers/data_value</text>
<text text-anchor="middle" x="1099" y="-588.5" font-family="Helvetica,sans-Serif" font-size="10.00">_container.h</text>
</a>
</g>
</g>
<!-- Node17&#45;&gt;Node58 -->
<g id="edge71" class="edge">
<title>Node17&#45;&gt;Node58</title>
<path fill="none" stroke="midnightblue" d="M1306.25,-883.44C1306.41,-870.87 1305.95,-846.76 1301,-827 1286.51,-769.08 1284.56,-750.41 1247,-704 1216.24,-665.99 1168.71,-635.07 1135.85,-616.53"/>
<polygon fill="midnightblue" stroke="midnightblue" points="1137.45,-613.41 1127,-611.63 1134.06,-619.53 1137.45,-613.41"/>
</g>
<!-- Node59 -->
<g id="node25" class="node">
<title>Node59</title>
<g id="a_node25"><a xlink:href="../../da/d89/variable_8h.html" target="_top" xlink:title=" ">
<polygon fill="none" stroke="red" points="1404.5,-453 1404.5,-472 1523.5,-472 1523.5,-453 1404.5,-453"/>
<text text-anchor="middle" x="1464" y="-460" font-family="Helvetica,sans-Serif" font-size="10.00">containers/variable.h</text>
</a>
</g>
</g>
<!-- Node17&#45;&gt;Node59 -->
<g id="edge125" class="edge">
<title>Node17&#45;&gt;Node59</title>
<path fill="none" stroke="midnightblue" d="M1342.3,-883.4C1361.64,-876.81 1383.89,-865.59 1396,-847 1476.9,-722.86 1351.04,-649.05 1412,-514 1418.52,-499.56 1431.2,-487.11 1442.41,-478.18"/>
<polygon fill="midnightblue" stroke="midnightblue" points="1444.67,-480.87 1450.57,-472.07 1440.47,-475.26 1444.67,-480.87"/>
</g>
<!-- Node74 -->
<g id="node26" class="node">
<title>Node74</title>
<g id="a_node26"><a xlink:href="../../d3/dc3/variable__data_8h.html" target="_top" xlink:title=" ">
<polygon fill="none" stroke="red" points="1656,-386 1656,-405 1748,-405 1748,-386 1656,-386"/>
<text text-anchor="middle" x="1702" y="-393" font-family="Helvetica,sans-Serif" font-size="10.00">variable_data.h</text>
</a>
</g>
</g>
<!-- Node17&#45;&gt;Node74 -->
<g id="edge126" class="edge">
<title>Node17&#45;&gt;Node74</title>
<path fill="none" stroke="midnightblue" d="M1329.2,-883.49C1411.7,-852.5 1686,-743.16 1686,-659 1686,-659 1686,-659 1686,-595.5 1686,-529.17 1694.94,-450.81 1699.46,-415.47"/>
<polygon fill="midnightblue" stroke="midnightblue" points="1702.97,-415.58 1700.8,-405.21 1696.03,-414.67 1702.97,-415.58"/>
</g>
<!-- Node83 -->
<g id="node28" class="node">
<title>Node83</title>
<g id="a_node28"><a xlink:href="../../d8/d3b/mesh_8h.html" target="_top" xlink:title=" ">
<polygon fill="none" stroke="red" points="868,-771.5 868,-790.5 964,-790.5 964,-771.5 868,-771.5"/>
<text text-anchor="middle" x="916" y="-778.5" font-family="Helvetica,sans-Serif" font-size="10.00">includes/mesh.h</text>
</a>
</g>
</g>
<!-- Node17&#45;&gt;Node83 -->
<g id="edge72" class="edge">
<title>Node17&#45;&gt;Node83</title>
<path fill="none" stroke="midnightblue" d="M1243.42,-890.37C1182.45,-886.97 1088.08,-876.82 1012,-847 981.88,-835.2 951.75,-812.6 933.49,-797.41"/>
<polygon fill="midnightblue" stroke="midnightblue" points="935.41,-794.45 925.53,-790.63 930.87,-799.78 935.41,-794.45"/>
</g>
<!-- Node87 -->
<g id="node29" class="node">
<title>Node87</title>
<g id="a_node29"><a xlink:href="../../d2/d58/pointer__vector__map_8h.html" target="_top" xlink:title=" ">
<polygon fill="none" stroke="red" points="788.5,-380.5 788.5,-410.5 893.5,-410.5 893.5,-380.5 788.5,-380.5"/>
<text text-anchor="start" x="796.5" y="-398.5" font-family="Helvetica,sans-Serif" font-size="10.00">containers/pointer</text>
<text text-anchor="middle" x="841" y="-387.5" font-family="Helvetica,sans-Serif" font-size="10.00">_vector_map.h</text>
</a>
</g>
</g>
<!-- Node17&#45;&gt;Node87 -->
<g id="edge118" class="edge">
<title>Node17&#45;&gt;Node87</title>
<path fill="none" stroke="midnightblue" d="M1243.35,-887.84C1176.48,-882.26 1076.09,-870.24 1046,-847 972.14,-789.96 876.03,-505.39 848.61,-420.47"/>
<polygon fill="midnightblue" stroke="midnightblue" points="851.86,-419.15 845.47,-410.7 845.19,-421.29 851.86,-419.15"/>
</g>
<!-- Node99 -->
<g id="node30" class="node">
<title>Node99</title>
<g id="a_node30"><a xlink:href="../../da/da4/master__slave__constraint_8h.html" target="_top" xlink:title=" ">
<polygon fill="none" stroke="red" points="750,-704.5 750,-734.5 876,-734.5 876,-704.5 750,-704.5"/>
<text text-anchor="start" x="758" y="-722.5" font-family="Helvetica,sans-Serif" font-size="10.00">includes/master_slave</text>
<text text-anchor="middle" x="813" y="-711.5" font-family="Helvetica,sans-Serif" font-size="10.00">_constraint.h</text>
</a>
</g>
</g>
<!-- Node17&#45;&gt;Node99 -->
<g id="edge124" class="edge">
<title>Node17&#45;&gt;Node99</title>
<path fill="none" stroke="midnightblue" d="M1243.25,-889.73C1174.94,-885.85 1063.12,-875.35 971,-847 917.81,-830.63 900.54,-828.04 859,-791 844.15,-777.76 832.08,-758.65 824.04,-743.67"/>
<polygon fill="midnightblue" stroke="midnightblue" points="827.02,-741.83 819.34,-734.53 820.8,-745.02 827.02,-741.83"/>
</g>
<!-- Node110 -->
<g id="node31" class="node">
<title>Node110</title>
<g id="a_node31"><a xlink:href="../../d3/dad/geometry__container_8h.html" target="_top" xlink:title=" ">
<polygon fill="none" stroke="black" points="522,-447.5 522,-477.5 640,-477.5 640,-447.5 522,-447.5"/>
<text text-anchor="start" x="530" y="-465.5" font-family="Helvetica,sans-Serif" font-size="10.00">containers/geometry</text>
<text text-anchor="middle" x="581" y="-454.5" font-family="Helvetica,sans-Serif" font-size="10.00">_container.h</text>
</a>
</g>
</g>
<!-- Node17&#45;&gt;Node110 -->
<g id="edge89" class="edge">
<title>Node17&#45;&gt;Node110</title>
<path fill="none" stroke="midnightblue" d="M1243.32,-889.66C1059.05,-881.96 532,-853.68 532,-782 532,-782 532,-782 532,-595.5 532,-555.18 552.34,-512.03 566.81,-486.42"/>
<polygon fill="midnightblue" stroke="midnightblue" points="569.99,-487.91 572.01,-477.51 563.95,-484.38 569.99,-487.91"/>
</g>
<!-- Node111 -->
<g id="node32" class="node">
<title>Node111</title>
<g id="a_node32"><a xlink:href="../../da/d92/pointer__hash__map__set_8h.html" target="_top" xlink:title=" ">
<polygon fill="none" stroke="red" points="1026.5,-380.5 1026.5,-410.5 1131.5,-410.5 1131.5,-380.5 1026.5,-380.5"/>
<text text-anchor="start" x="1034.5" y="-398.5" font-family="Helvetica,sans-Serif" font-size="10.00">containers/pointer</text>
<text text-anchor="middle" x="1079" y="-387.5" font-family="Helvetica,sans-Serif" font-size="10.00">_hash_map_set.h</text>
</a>
</g>
</g>
<!-- Node17&#45;&gt;Node111 -->
<g id="edge119" class="edge">
<title>Node17&#45;&gt;Node111</title>
<path fill="none" stroke="midnightblue" d="M1308.48,-883.47C1310.96,-874.48 1314.59,-859.89 1316,-847 1319.74,-812.94 1314.33,-803.34 1303,-771 1252.02,-625.42 1140.44,-474.51 1096.9,-418.84"/>
<polygon fill="midnightblue" stroke="midnightblue" points="1099.46,-416.43 1090.52,-410.74 1093.96,-420.76 1099.46,-416.43"/>
</g>
<!-- Node113 -->
<g id="node33" class="node">
<title>Node113</title>
<g id="a_node33"><a xlink:href="../../d4/dfe/element_8h.html" target="_top" xlink:title=" ">
<polygon fill="none" stroke="red" points="1130,-771.5 1130,-790.5 1240,-790.5 1240,-771.5 1130,-771.5"/>
<text text-anchor="middle" x="1185" y="-778.5" font-family="Helvetica,sans-Serif" font-size="10.00">includes/element.h</text>
</a>
</g>
</g>
<!-- Node17&#45;&gt;Node113 -->
<g id="edge94" class="edge">
<title>Node17&#45;&gt;Node113</title>
<path fill="none" stroke="midnightblue" d="M1296.51,-883.37C1276.1,-864.81 1227.8,-820.91 1201.98,-797.44"/>
<polygon fill="midnightblue" stroke="midnightblue" points="1204.2,-794.73 1194.45,-790.59 1199.5,-799.91 1204.2,-794.73"/>
</g>
<!-- Node131 -->
<g id="node35" class="node">
<title>Node131</title>
<g id="a_node35"><a xlink:href="../../d7/d6c/condition_8h.html" target="_top" xlink:title=" ">
<polygon fill="none" stroke="red" points="1124,-710 1124,-729 1238,-729 1238,-710 1124,-710"/>
<text text-anchor="middle" x="1181" y="-717" font-family="Helvetica,sans-Serif" font-size="10.00">includes/condition.h</text>
</a>
</g>
</g>
<!-- Node17&#45;&gt;Node131 -->
<g id="edge100" class="edge">
<title>Node17&#45;&gt;Node131</title>
<path fill="none" stroke="midnightblue" d="M1303.52,-883.28C1297.21,-862.19 1278.86,-807.47 1249,-771 1236.93,-756.25 1219.65,-743.49 1205.53,-734.49"/>
<polygon fill="midnightblue" stroke="midnightblue" points="1207.15,-731.38 1196.79,-729.13 1203.49,-737.34 1207.15,-731.38"/>
</g>
<!-- Node132 -->
<g id="node36" class="node">
<title>Node132</title>
<g id="a_node36"><a xlink:href="../../d8/d75/communicator_8h.html" target="_top" xlink:title=" ">
<polygon fill="none" stroke="black" points="1054.5,-827.5 1054.5,-846.5 1193.5,-846.5 1193.5,-827.5 1054.5,-827.5"/>
<text text-anchor="middle" x="1124" y="-834.5" font-family="Helvetica,sans-Serif" font-size="10.00">includes/communicator.h</text>
</a>
</g>
</g>
<!-- Node17&#45;&gt;Node132 -->
<g id="edge103" class="edge">
<title>Node17&#45;&gt;Node132</title>
<path fill="none" stroke="midnightblue" d="M1277.16,-883.44C1246.14,-874.24 1196.67,-859.56 1162.38,-849.39"/>
<polygon fill="midnightblue" stroke="midnightblue" points="1163.29,-846.01 1152.7,-846.52 1161.29,-852.72 1163.29,-846.01"/>
</g>
<!-- Node116 -->
<g id="node37" class="node">
<title>Node116</title>
<g id="a_node37"><a xlink:href="../../dd/d98/table_8h.html" target="_top" xlink:title=" ">
<polygon fill="none" stroke="black" points="2343,-520 2343,-539 2437,-539 2437,-520 2343,-520"/>
<text text-anchor="middle" x="2390" y="-527" font-family="Helvetica,sans-Serif" font-size="10.00">includes/table.h</text>
</a>
</g>
</g>
<!-- Node17&#45;&gt;Node116 -->
<g id="edge112" class="edge">
<title>Node17&#45;&gt;Node116</title>
<path fill="none" stroke="midnightblue" d="M1368.57,-890.84C1555.35,-887.09 2100.65,-873.94 2176,-847 2255.02,-818.75 2279.58,-803.54 2328,-735 2369.9,-675.69 2383.97,-587.51 2388.28,-549.29"/>
<polygon fill="midnightblue" stroke="midnightblue" points="2391.78,-549.43 2389.32,-539.12 2384.82,-548.72 2391.78,-549.43"/>
</g>
<!-- Node109 -->
<g id="node38" class="node">
<title>Node109</title>
<g id="a_node38"><a xlink:href="../../d0/dac/kratos__flags_8h.html" target="_top" xlink:title=" ">
<polygon fill="none" stroke="red" points="294,-771.5 294,-790.5 422,-790.5 422,-771.5 294,-771.5"/>
<text text-anchor="middle" x="358" y="-778.5" font-family="Helvetica,sans-Serif" font-size="10.00">includes/kratos_flags.h</text>
</a>
</g>
</g>
<!-- Node17&#45;&gt;Node109 -->
<g id="edge121" class="edge">
<title>Node17&#45;&gt;Node109</title>
<path fill="none" stroke="midnightblue" d="M1243.36,-891.04C1056.36,-887.87 510.51,-876.17 436,-847 409.96,-836.81 386.25,-814.29 371.97,-798.63"/>
<polygon fill="midnightblue" stroke="midnightblue" points="374.28,-795.97 365.05,-790.76 369.03,-800.59 374.28,-795.97"/>
</g>
<!-- Node19&#45;&gt;Node3 -->
<g id="edge24" class="edge">
<title>Node19&#45;&gt;Node3</title>
<path fill="none" stroke="midnightblue" d="M1900.19,-324.49C1874.15,-316.55 1835.66,-303.62 1804,-288 1781.22,-276.77 1779.09,-267.58 1756,-257 1529.57,-153.26 1225.9,-139.65 1098.83,-138.85"/>
<polygon fill="midnightblue" stroke="midnightblue" points="1098.55,-135.35 1088.54,-138.81 1098.52,-142.35 1098.55,-135.35"/>
</g>
<!-- Node19&#45;&gt;Node5 -->
<g id="edge22" class="edge">
<title>Node19&#45;&gt;Node5</title>
<path fill="none" stroke="midnightblue" d="M1916.32,-324.33C1874.43,-298.31 1743.48,-220.79 1623,-190 1096.62,-55.49 430.84,-23.72 266.14,-17.72"/>
<polygon fill="midnightblue" stroke="midnightblue" points="266.14,-14.22 256.02,-17.36 265.89,-21.21 266.14,-14.22"/>
</g>
<!-- Node19&#45;&gt;Node8 -->
<g id="edge23" class="edge">
<title>Node19&#45;&gt;Node8</title>
<path fill="none" stroke="midnightblue" d="M1986.67,-330C2143.89,-321.57 2575.86,-297.66 2605,-288 2629.11,-280.01 2629.11,-265.62 2653,-257 2716.16,-234.2 2902.03,-264.71 2953,-221 3006.94,-174.73 2949.97,-121.14 2996,-67 3013.73,-46.15 3041.93,-33.4 3065.21,-25.93"/>
<polygon fill="midnightblue" stroke="midnightblue" points="3066.26,-29.27 3074.83,-23.05 3064.25,-22.56 3066.26,-29.27"/>
</g>
<!-- Node19&#45;&gt;Node13 -->
<g id="edge21" class="edge">
<title>Node19&#45;&gt;Node13</title>
<path fill="none" stroke="midnightblue" d="M1926.17,-324.07C1910.23,-287.8 1845.82,-149.5 1756,-67 1738.58,-51 1715.2,-38.08 1696.64,-29.31"/>
<polygon fill="midnightblue" stroke="midnightblue" points="1697.97,-26.07 1687.42,-25.11 1695.07,-32.44 1697.97,-26.07"/>
</g>
<!-- Node19&#45;&gt;Node26 -->
<g id="edge25" class="edge">
<title>Node19&#45;&gt;Node26</title>
<path fill="none" stroke="midnightblue" d="M1931.24,-324.44C1935.46,-295.29 1949.32,-199.47 1955.26,-158.43"/>
<polygon fill="midnightblue" stroke="midnightblue" points="1958.74,-158.81 1956.71,-148.41 1951.82,-157.8 1958.74,-158.81"/>
</g>
<!-- Node19&#45;&gt;Node31 -->
<g id="edge29" class="edge">
<title>Node19&#45;&gt;Node31</title>
<path fill="none" stroke="midnightblue" d="M1986.67,-327.1C2091.6,-316.19 2315.86,-292.86 2430.82,-280.9"/>
<polygon fill="midnightblue" stroke="midnightblue" points="2431.35,-284.37 2440.93,-279.85 2430.62,-277.41 2431.35,-284.37"/>
</g>
<!-- Node26&#45;&gt;Node8 -->
<g id="edge27" class="edge">
<title>Node26&#45;&gt;Node8</title>
<path fill="none" stroke="midnightblue" d="M2018.17,-134.78C2171.01,-127.65 2571.39,-107.55 2703,-87 2739.64,-81.28 2747.65,-74.33 2784,-67 2884.37,-46.75 3003.77,-29.83 3064.77,-21.7"/>
<polygon fill="midnightblue" stroke="midnightblue" points="3065.3,-25.16 3074.75,-20.37 3064.38,-18.22 3065.3,-25.16"/>
</g>
<!-- Node26&#45;&gt;Node12 -->
<g id="edge28" class="edge">
<title>Node26&#45;&gt;Node12</title>
<path fill="none" stroke="midnightblue" d="M1897.66,-131.89C1866.68,-129.08 1828.34,-125.71 1794,-123 1582.57,-106.33 1332.13,-89.9 1213.66,-82.33"/>
<polygon fill="midnightblue" stroke="midnightblue" points="1213.85,-78.84 1203.64,-81.69 1213.4,-85.82 1213.85,-78.84"/>
</g>
<!-- Node26&#45;&gt;Node13 -->
<g id="edge26" class="edge">
<title>Node26&#45;&gt;Node13</title>
<path fill="none" stroke="midnightblue" d="M1951.33,-128.57C1939.51,-113.43 1913.36,-82.83 1884,-67 1823.5,-34.39 1742.51,-22.73 1698.24,-18.64"/>
<polygon fill="midnightblue" stroke="midnightblue" points="1698.33,-15.14 1688.07,-17.78 1697.74,-22.11 1698.33,-15.14"/>
</g>
<!-- Node31&#45;&gt;Node3 -->
<g id="edge35" class="edge">
<title>Node31&#45;&gt;Node3</title>
<path fill="none" stroke="midnightblue" d="M2440.82,-264.52C2308.88,-249.61 1987.71,-214.04 1718,-190 1489.7,-169.65 1217.71,-151.16 1099.18,-143.38"/>
<polygon fill="midnightblue" stroke="midnightblue" points="1099.08,-139.87 1088.88,-142.71 1098.63,-146.85 1099.08,-139.87"/>
</g>
<!-- Node31&#45;&gt;Node8 -->
<g id="edge31" class="edge">
<title>Node31&#45;&gt;Node8</title>
<path fill="none" stroke="midnightblue" d="M2544.38,-262.98C2555.02,-260.94 2566.41,-258.82 2577,-257 2630.15,-247.88 2776.59,-256.71 2817,-221 2870.25,-173.95 2808.05,-115.49 2860,-67 2889.19,-39.76 3002.83,-25.6 3064.56,-19.78"/>
<polygon fill="midnightblue" stroke="midnightblue" points="3065.08,-23.25 3074.72,-18.85 3064.44,-16.28 3065.08,-23.25"/>
</g>
<!-- Node31&#45;&gt;Node13 -->
<g id="edge30" class="edge">
<title>Node31&#45;&gt;Node13</title>
<path fill="none" stroke="midnightblue" d="M2440.76,-265.54C2332.08,-254.7 2115.63,-231.91 2103,-221 2049.21,-174.56 2113.75,-113.48 2060,-67 2006.1,-20.39 1782.46,-16.12 1698.26,-16.21"/>
<polygon fill="midnightblue" stroke="midnightblue" points="1698.23,-12.71 1688.24,-16.24 1698.25,-19.71 1698.23,-12.71"/>
</g>
<!-- Node32 -->
<g id="node16" class="node">
<title>Node32</title>
<g id="a_node16"><a xlink:title=" ">
<polygon fill="none" stroke="#bfbfbf" points="2902,-196 2902,-215 2944,-215 2944,-196 2902,-196"/>
<text text-anchor="middle" x="2923" y="-203" font-family="Helvetica,sans-Serif" font-size="10.00">array</text>
</a>
</g>
</g>
<!-- Node31&#45;&gt;Node32 -->
<g id="edge32" class="edge">
<title>Node31&#45;&gt;Node32</title>
<path fill="none" stroke="midnightblue" d="M2563.13,-263.61C2632.75,-254.39 2749.82,-238.21 2850,-221 2863.87,-218.62 2879.14,-215.64 2892.12,-213"/>
<polygon fill="midnightblue" stroke="midnightblue" points="2892.88,-216.42 2901.97,-210.98 2891.47,-209.56 2892.88,-216.42"/>
</g>
<!-- Node33 -->
<g id="node17" class="node">
<title>Node33</title>
<g id="a_node17"><a xlink:title=" ">
<polygon fill="none" stroke="#bfbfbf" points="2112,-196 2112,-215 2176,-215 2176,-196 2112,-196"/>
<text text-anchor="middle" x="2144" y="-203" font-family="Helvetica,sans-Serif" font-size="10.00">algorithm</text>
</a>
</g>
</g>
<!-- Node31&#45;&gt;Node33 -->
<g id="edge33" class="edge">
<title>Node31&#45;&gt;Node33</title>
<path fill="none" stroke="midnightblue" d="M2440.79,-264.92C2376.66,-257.28 2273.31,-242.87 2186,-221 2182.78,-220.19 2179.46,-219.25 2176.16,-218.24"/>
<polygon fill="midnightblue" stroke="midnightblue" points="2177.04,-214.84 2166.45,-215.06 2174.87,-221.5 2177.04,-214.84"/>
</g>
<!-- Node34 -->
<g id="node18" class="node">
<title>Node34</title>
<g id="a_node18"><a xlink:title=" ">
<polygon fill="none" stroke="#bfbfbf" points="2194.5,-196 2194.5,-215 2277.5,-215 2277.5,-196 2194.5,-196"/>
<text text-anchor="middle" x="2236" y="-203" font-family="Helvetica,sans-Serif" font-size="10.00">initializer_list</text>
</a>
</g>
</g>
<!-- Node31&#45;&gt;Node34 -->
<g id="edge34" class="edge">
<title>Node31&#45;&gt;Node34</title>
<path fill="none" stroke="midnightblue" d="M2463.03,-262.92C2419.85,-253.27 2348.24,-236.89 2287,-221 2283.1,-219.99 2279.05,-218.9 2275,-217.79"/>
<polygon fill="midnightblue" stroke="midnightblue" points="2275.64,-214.33 2265.06,-215.01 2273.75,-221.07 2275.64,-214.33"/>
</g>
<!-- Node35 -->
<g id="node19" class="node">
<title>Node35</title>
<g id="a_node19"><a xlink:href="../../d9/d3e/ublas__interface_8h.html" target="_top" xlink:title=" ">
<polygon fill="none" stroke="red" points="2664,-196 2664,-215 2808,-215 2808,-196 2664,-196"/>
<text text-anchor="middle" x="2736" y="-203" font-family="Helvetica,sans-Serif" font-size="10.00">includes/ublas_interface.h</text>
</a>
</g>
</g>
<!-- Node31&#45;&gt;Node35 -->
<g id="edge36" class="edge">
<title>Node31&#45;&gt;Node35</title>
<path fill="none" stroke="midnightblue" d="M2533.07,-262.87C2574.89,-251.25 2649.33,-230.58 2695.49,-217.75"/>
<polygon fill="midnightblue" stroke="midnightblue" points="2696.47,-221.11 2705.17,-215.06 2694.6,-214.37 2696.47,-221.11"/>
</g>
<!-- Node40 -->
<g id="node20" class="node">
<title>Node40</title>
<g id="a_node20"><a xlink:title=" ">
<polygon fill="none" stroke="#bfbfbf" points="2364,-123.5 2364,-153.5 2494,-153.5 2494,-123.5 2364,-123.5"/>
<text text-anchor="start" x="2372" y="-141.5" font-family="Helvetica,sans-Serif" font-size="10.00">boost/numeric/ublas</text>
<text text-anchor="middle" x="2429" y="-130.5" font-family="Helvetica,sans-Serif" font-size="10.00">/vector_expression.hpp</text>
</a>
</g>
</g>
<!-- Node31&#45;&gt;Node40 -->
<g id="edge41" class="edge">
<title>Node31&#45;&gt;Node40</title>
<path fill="none" stroke="midnightblue" d="M2526.29,-262.92C2544.42,-255.07 2567.91,-241.54 2579,-221 2585.55,-208.88 2587.04,-201.19 2579,-190 2569.52,-176.8 2536.78,-165.02 2504.31,-156.17"/>
<polygon fill="midnightblue" stroke="midnightblue" points="2504.82,-152.68 2494.26,-153.51 2503.03,-159.45 2504.82,-152.68"/>
</g>
<!-- Node51 -->
<g id="node21" class="node">
<title>Node51</title>
<g id="a_node21"><a xlink:title=" ">
<polygon fill="none" stroke="#bfbfbf" points="2296,-190.5 2296,-220.5 2412,-220.5 2412,-190.5 2296,-190.5"/>
<text text-anchor="start" x="2304" y="-208.5" font-family="Helvetica,sans-Serif" font-size="10.00">boost/numeric/ublas</text>
<text text-anchor="middle" x="2354" y="-197.5" font-family="Helvetica,sans-Serif" font-size="10.00">/storage.hpp</text>
</a>
</g>
</g>
<!-- Node31&#45;&gt;Node51 -->
<g id="edge42" class="edge">
<title>Node31&#45;&gt;Node51</title>
<path fill="none" stroke="midnightblue" d="M2482.35,-262.87C2460.23,-253.16 2423.69,-237.11 2395.25,-224.61"/>
<polygon fill="midnightblue" stroke="midnightblue" points="2396.5,-221.34 2385.94,-220.53 2393.69,-227.75 2396.5,-221.34"/>
</g>
<!-- Node52 -->
<g id="node22" class="node">
<title>Node52</title>
<g id="a_node22"><a xlink:title=" ">
<polygon fill="none" stroke="#bfbfbf" points="2430.5,-190.5 2430.5,-220.5 2569.5,-220.5 2569.5,-190.5 2430.5,-190.5"/>
<text text-anchor="start" x="2438.5" y="-208.5" font-family="Helvetica,sans-Serif" font-size="10.00">boost/numeric/ublas</text>
<text text-anchor="middle" x="2500" y="-197.5" font-family="Helvetica,sans-Serif" font-size="10.00">/detail/vector_assign.hpp</text>
</a>
</g>
</g>
<!-- Node31&#45;&gt;Node52 -->
<g id="edge43" class="edge">
<title>Node31&#45;&gt;Node52</title>
<path fill="none" stroke="midnightblue" d="M2501.73,-262.73C2501.48,-254.54 2501.09,-241.92 2500.75,-230.71"/>
<polygon fill="midnightblue" stroke="midnightblue" points="2504.24,-230.48 2500.43,-220.59 2497.24,-230.69 2504.24,-230.48"/>
</g>
<!-- Node35&#45;&gt;Node3 -->
<g id="edge40" class="edge">
<title>Node35&#45;&gt;Node3</title>
<path fill="none" stroke="midnightblue" d="M2672.06,-195.98C2652.79,-193.69 2631.56,-191.46 2612,-190 2309.63,-167.51 1349.29,-146.06 1099.08,-140.75"/>
<polygon fill="midnightblue" stroke="midnightblue" points="1098.81,-137.24 1088.74,-140.53 1098.66,-144.24 1098.81,-137.24"/>
</g>
<!-- Node35&#45;&gt;Node8 -->
<g id="edge38" class="edge">
<title>Node35&#45;&gt;Node8</title>
<path fill="none" stroke="midnightblue" d="M2738.59,-195.98C2746.52,-171.42 2773.01,-100.1 2822,-67 2861.04,-40.62 2996.43,-25.68 3064.81,-19.66"/>
<polygon fill="midnightblue" stroke="midnightblue" points="3065.13,-23.14 3074.79,-18.8 3064.53,-16.17 3065.13,-23.14"/>
</g>
<!-- Node35&#45;&gt;Node13 -->
<g id="edge37" class="edge">
<title>Node35&#45;&gt;Node13</title>
<path fill="none" stroke="midnightblue" d="M2715.84,-195.91C2675.95,-179.26 2583.82,-142.52 2503,-123 2195.39,-48.72 1810.9,-23.96 1698.34,-18.05"/>
<polygon fill="midnightblue" stroke="midnightblue" points="1698.48,-14.55 1688.31,-17.53 1698.12,-21.54 1698.48,-14.55"/>
</g>
<!-- Node35&#45;&gt;Node40 -->
<g id="edge39" class="edge">
<title>Node35&#45;&gt;Node40</title>
<path fill="none" stroke="midnightblue" d="M2695.55,-195.94C2646.97,-185.65 2564.48,-168.18 2504.11,-155.4"/>
<polygon fill="midnightblue" stroke="midnightblue" points="2504.75,-151.96 2494.24,-153.31 2503.3,-158.81 2504.75,-151.96"/>
</g>
<!-- Node57&#45;&gt;Node3 -->
<g id="edge49" class="edge">
<title>Node57&#45;&gt;Node3</title>
<path fill="none" stroke="midnightblue" d="M823.44,-648.18C787.83,-611.29 652.45,-468.57 632,-411 625.75,-393.4 638.66,-324.53 639,-324 714.12,-205.14 887.66,-161.84 979.5,-146.88"/>
<polygon fill="midnightblue" stroke="midnightblue" points="980.14,-150.32 989.48,-145.31 979.06,-143.41 980.14,-150.32"/>
</g>
<!-- Node57&#45;&gt;Node5 -->
<g id="edge47" class="edge">
<title>Node57&#45;&gt;Node5</title>
<path fill="none" stroke="midnightblue" d="M803.85,-648.49C739.91,-628.02 581.45,-570.75 480,-478 332.89,-343.5 253.41,-102.71 233.2,-34.79"/>
<polygon fill="midnightblue" stroke="midnightblue" points="236.54,-33.72 230.38,-25.1 229.82,-35.68 236.54,-33.72"/>
</g>
<!-- Node57&#45;&gt;Node8 -->
<g id="edge46" class="edge">
<title>Node57&#45;&gt;Node8</title>
<path fill="none" stroke="midnightblue" d="M897.67,-656.49C1119.01,-654.49 1836.64,-645.5 2065,-612 2119.08,-604.07 2130.1,-590.06 2184,-581 2385.79,-547.08 2450.18,-613.5 2643,-545 2703.64,-523.45 2823.1,-408.09 2881,-380 2930.33,-356.06 2953.37,-374.4 2999,-344 3040.77,-316.17 3027.28,-281.65 3071,-257 3166.11,-203.39 3231.48,-292.49 3314,-221 3365.75,-176.17 3362.2,-111.3 3310,-67 3263.33,-27.39 3190.32,-17.97 3145.19,-16.21"/>
<polygon fill="midnightblue" stroke="midnightblue" points="3145.27,-12.71 3135.17,-15.92 3145.07,-19.7 3145.27,-12.71"/>
</g>
<!-- Node57&#45;&gt;Node13 -->
<g id="edge45" class="edge">
<title>Node57&#45;&gt;Node13</title>
<path fill="none" stroke="midnightblue" d="M834.63,-648.08C844.07,-616.06 877.02,-503.89 903,-411 938.72,-283.29 882.19,-211.45 981,-123 1019.87,-88.2 1161.8,-97.05 1213,-87 1250.66,-79.61 1259.28,-74.05 1297,-67 1420.47,-43.91 1569.03,-26.78 1633.51,-19.87"/>
<polygon fill="midnightblue" stroke="midnightblue" points="1634.26,-23.31 1643.84,-18.77 1633.52,-16.35 1634.26,-23.31"/>
</g>
<!-- Node57&#45;&gt;Node18 -->
<g id="edge48" class="edge">
<title>Node57&#45;&gt;Node18</title>
<path fill="none" stroke="midnightblue" d="M829.93,-648.21C822.75,-618.6 797.2,-520.29 758,-447 738.25,-410.08 707.05,-372.13 688.74,-351.26"/>
<polygon fill="midnightblue" stroke="midnightblue" points="691.24,-348.8 681.98,-343.65 686.01,-353.45 691.24,-348.8"/>
</g>
<!-- Node57&#45;&gt;Node58 -->
<g id="edge50" class="edge">
<title>Node57&#45;&gt;Node58</title>
<path fill="none" stroke="midnightblue" d="M870.25,-648.48C910.88,-639.42 976.05,-624.9 1026.46,-613.67"/>
<polygon fill="midnightblue" stroke="midnightblue" points="1027.33,-617.06 1036.33,-611.47 1025.81,-610.22 1027.33,-617.06"/>
</g>
<!-- Node58&#45;&gt;Node3 -->
<g id="edge54" class="edge">
<title>Node58&#45;&gt;Node3</title>
<path fill="none" stroke="midnightblue" d="M1090.03,-581.23C1083.97,-571.28 1076.01,-557.59 1070,-545 1018.81,-437.86 1008.22,-406.21 997,-288 992.89,-244.63 979.72,-230.8 995,-190 1000.1,-176.39 1010.71,-164.03 1020.23,-154.94"/>
<polygon fill="midnightblue" stroke="midnightblue" points="1022.72,-157.41 1027.83,-148.13 1018.05,-152.2 1022.72,-157.41"/>
</g>
<!-- Node58&#45;&gt;Node8 -->
<g id="edge52" class="edge">
<title>Node58&#45;&gt;Node8</title>
<path fill="none" stroke="midnightblue" d="M1161.8,-593.33C1425.48,-584.19 2430.27,-549.14 2446,-545 2513.38,-527.27 2936.75,-278.56 3003,-257 3103.48,-224.3 3159.27,-291.48 3238,-221 3289.02,-175.32 3281.76,-115.08 3233,-67 3209.06,-43.4 3172.77,-30.48 3144.93,-23.64"/>
<polygon fill="midnightblue" stroke="midnightblue" points="3145.63,-20.21 3135.1,-21.38 3144.06,-27.03 3145.63,-20.21"/>
</g>
<!-- Node58&#45;&gt;Node12 -->
<g id="edge70" class="edge">
<title>Node58&#45;&gt;Node12</title>
<path fill="none" stroke="midnightblue" d="M1036.38,-591.28C901.09,-580.87 587.67,-549.49 513,-478 419.93,-388.9 396.81,-288.38 480,-190 555.89,-100.26 921.73,-82.39 1076.08,-78.86"/>
<polygon fill="midnightblue" stroke="midnightblue" points="1076.45,-82.35 1086.38,-78.64 1076.3,-75.35 1076.45,-82.35"/>
</g>
<!-- Node58&#45;&gt;Node13 -->
<g id="edge51" class="edge">
<title>Node58&#45;&gt;Node13</title>
<path fill="none" stroke="midnightblue" d="M1103.14,-581.19C1124.03,-511.7 1224.83,-206.97 1424,-67 1457.55,-43.42 1575.87,-26.9 1633.7,-20.04"/>
<polygon fill="midnightblue" stroke="midnightblue" points="1634.23,-23.51 1643.76,-18.88 1633.42,-16.55 1634.23,-23.51"/>
</g>
<!-- Node58&#45;&gt;Node18 -->
<g id="edge53" class="edge">
<title>Node58&#45;&gt;Node18</title>
<path fill="none" stroke="midnightblue" d="M1072.43,-581.28C1017.05,-551.4 885.62,-479.18 780,-411 771.46,-405.49 722.75,-370.32 694.42,-349.8"/>
<polygon fill="midnightblue" stroke="midnightblue" points="696.17,-346.75 686.02,-343.72 692.06,-352.42 696.17,-346.75"/>
</g>
<!-- Node58&#45;&gt;Node59 -->
<g id="edge55" class="edge">
<title>Node58&#45;&gt;Node59</title>
<path fill="none" stroke="midnightblue" d="M1130.7,-581.44C1169.67,-564.41 1238.03,-535.35 1298,-514 1340.05,-499.03 1389.03,-484.47 1422.84,-474.86"/>
<polygon fill="midnightblue" stroke="midnightblue" points="1424.14,-478.13 1432.82,-472.05 1422.24,-471.39 1424.14,-478.13"/>
</g>
<!-- Node76 -->
<g id="node27" class="node">
<title>Node76</title>
<g id="a_node27"><a xlink:href="../../dc/d8e/kratos__components_8h.html" target="_top" xlink:title=" ">
<polygon fill="none" stroke="red" points="1492.5,-520 1492.5,-539 1657.5,-539 1657.5,-520 1492.5,-520"/>
<text text-anchor="middle" x="1575" y="-527" font-family="Helvetica,sans-Serif" font-size="10.00">includes/kratos_components.h</text>
</a>
</g>
</g>
<!-- Node58&#45;&gt;Node76 -->
<g id="edge65" class="edge">
<title>Node58&#45;&gt;Node76</title>
<path fill="none" stroke="midnightblue" d="M1161.72,-586.94C1249.68,-574.92 1409.33,-553.12 1502.35,-540.42"/>
<polygon fill="midnightblue" stroke="midnightblue" points="1503.09,-543.85 1512.52,-539.03 1502.14,-536.92 1503.09,-543.85"/>
</g>
<!-- Node59&#45;&gt;Node3 -->
<g id="edge58" class="edge">
<title>Node59&#45;&gt;Node3</title>
<path fill="none" stroke="midnightblue" d="M1455.48,-452.58C1439.2,-436.01 1401.89,-400.33 1364,-380 1316.43,-354.48 1291.04,-376.58 1248,-344 1182.93,-294.75 1209.66,-243.47 1148,-190 1127.69,-172.38 1100.19,-159.7 1077.89,-151.46"/>
<polygon fill="midnightblue" stroke="midnightblue" points="1078.97,-148.12 1068.38,-148.08 1076.64,-154.72 1078.97,-148.12"/>
</g>
<!-- Node59&#45;&gt;Node8 -->
<g id="edge57" class="edge">
<title>Node59&#45;&gt;Node8</title>
<path fill="none" stroke="midnightblue" d="M1514.85,-452.96C1573.32,-443.09 1672.16,-426.25 1757,-411 1963.94,-373.81 2013.66,-352.33 2222,-324 2408.08,-298.7 2457.76,-318.87 2643,-288 2699.03,-278.66 2711.41,-268.7 2767,-257 2859.67,-237.5 2900.52,-276.84 2977,-221 2992.57,-209.63 3045.8,-82.7 3057,-67 3066,-54.38 3078.01,-41.75 3087.77,-32.27"/>
<polygon fill="midnightblue" stroke="midnightblue" points="3090.47,-34.54 3095.32,-25.12 3085.65,-29.45 3090.47,-34.54"/>
</g>
<!-- Node59&#45;&gt;Node13 -->
<g id="edge56" class="edge">
<title>Node59&#45;&gt;Node13</title>
<path fill="none" stroke="midnightblue" d="M1470.04,-452.83C1482.86,-433.97 1512.87,-387.43 1528,-344 1569.1,-226.01 1503.86,-169.01 1576,-67 1589.98,-47.23 1614.29,-34.26 1634.12,-26.42"/>
<polygon fill="midnightblue" stroke="midnightblue" points="1635.55,-29.62 1643.72,-22.87 1633.12,-23.05 1635.55,-29.62"/>
</g>
<!-- Node59&#45;&gt;Node74 -->
<g id="edge59" class="edge">
<title>Node59&#45;&gt;Node74</title>
<path fill="none" stroke="midnightblue" d="M1495.6,-452.87C1538.13,-441.25 1613.85,-420.58 1660.8,-407.75"/>
<polygon fill="midnightblue" stroke="midnightblue" points="1661.92,-411.07 1670.64,-405.06 1660.07,-404.32 1661.92,-411.07"/>
</g>
<!-- Node74&#45;&gt;Node3 -->
<g id="edge63" class="edge">
<title>Node74&#45;&gt;Node3</title>
<path fill="none" stroke="midnightblue" d="M1688.73,-385.99C1639.44,-354.76 1461.44,-245.45 1300,-190 1232.95,-166.97 1152.4,-153.4 1098.69,-146.22"/>
<polygon fill="midnightblue" stroke="midnightblue" points="1099.02,-142.74 1088.65,-144.91 1098.11,-149.68 1099.02,-142.74"/>
</g>
<!-- Node74&#45;&gt;Node8 -->
<g id="edge61" class="edge">
<title>Node74&#45;&gt;Node8</title>
<path fill="none" stroke="midnightblue" d="M1748.17,-387.46C1838.82,-373.81 2046.55,-343.38 2222,-324 2408.66,-303.38 2457.76,-318.87 2643,-288 2699.03,-278.66 2711.41,-268.7 2767,-257 2859.67,-237.5 2896.99,-271.66 2977,-221 3044.95,-177.98 3030.55,-135.92 3072,-67 3078.79,-55.71 3086.88,-43.32 3093.34,-33.64"/>
<polygon fill="midnightblue" stroke="midnightblue" points="3096.27,-35.56 3098.95,-25.31 3090.46,-31.65 3096.27,-35.56"/>
</g>
<!-- Node74&#45;&gt;Node13 -->
<g id="edge60" class="edge">
<title>Node74&#45;&gt;Node13</title>
<path fill="none" stroke="midnightblue" d="M1702.06,-385.82C1702.2,-347.81 1701.34,-192.27 1680,-67 1678.16,-56.18 1674.94,-44.35 1672.06,-34.86"/>
<polygon fill="midnightblue" stroke="midnightblue" points="1675.39,-33.79 1669.03,-25.32 1668.72,-35.91 1675.39,-33.79"/>
</g>
<!-- Node74&#45;&gt;Node18 -->
<g id="edge62" class="edge">
<title>Node74&#45;&gt;Node18</title>
<path fill="none" stroke="midnightblue" d="M1655.83,-391.83C1481.87,-381.76 867.91,-346.22 710.82,-337.13"/>
<polygon fill="midnightblue" stroke="midnightblue" points="710.91,-333.63 700.73,-336.55 710.51,-340.62 710.91,-333.63"/>
</g>
<!-- Node74&#45;&gt;Node19 -->
<g id="edge64" class="edge">
<title>Node74&#45;&gt;Node19</title>
<path fill="none" stroke="midnightblue" d="M1734.67,-385.98C1774.88,-375.48 1843.26,-357.64 1887.52,-346.09"/>
<polygon fill="midnightblue" stroke="midnightblue" points="1888.6,-349.42 1897.39,-343.51 1886.83,-342.65 1888.6,-349.42"/>
</g>
<!-- Node76&#45;&gt;Node3 -->
<g id="edge68" class="edge">
<title>Node76&#45;&gt;Node3</title>
<path fill="none" stroke="midnightblue" d="M1520.81,-519.97C1483.95,-512.58 1434.98,-499.59 1396,-478 1339.3,-446.59 1340.7,-417.73 1288,-380 1261.15,-360.78 1247.79,-365.82 1223,-344 1159.28,-287.91 1170.47,-249.58 1110,-190 1095.77,-175.98 1077.33,-162.98 1062.8,-153.69"/>
<polygon fill="midnightblue" stroke="midnightblue" points="1064.25,-150.46 1053.91,-148.14 1060.54,-156.4 1064.25,-150.46"/>
</g>
<!-- Node76&#45;&gt;Node8 -->
<g id="edge67" class="edge">
<title>Node76&#45;&gt;Node8</title>
<path fill="none" stroke="midnightblue" d="M1608.07,-519.94C1668.57,-504.41 1801.21,-471 1914,-447 2292.9,-366.36 2394.65,-379.8 2771,-288 2817.03,-276.77 2827.14,-268.92 2873,-257 2946.06,-238.01 2969.46,-250.37 3039,-221 3088.62,-200.04 3114.53,-201.46 3140,-154 3146.26,-142.33 3138.47,-77.73 3135,-67 3131.14,-55.06 3124.07,-42.94 3117.76,-33.56"/>
<polygon fill="midnightblue" stroke="midnightblue" points="3120.48,-31.35 3111.85,-25.21 3114.77,-35.4 3120.48,-31.35"/>
</g>
<!-- Node76&#45;&gt;Node13 -->
<g id="edge66" class="edge">
<title>Node76&#45;&gt;Node13</title>
<path fill="none" stroke="midnightblue" d="M1578.16,-519.83C1589.57,-487.68 1628,-372.07 1628,-273.5 1628,-273.5 1628,-273.5 1628,-137.5 1628,-99.31 1645.44,-57.33 1656.69,-34.22"/>
<polygon fill="midnightblue" stroke="midnightblue" points="1659.96,-35.52 1661.34,-25.02 1653.71,-32.36 1659.96,-35.52"/>
</g>
<!-- Node76&#45;&gt;Node59 -->
<g id="edge69" class="edge">
<title>Node76&#45;&gt;Node59</title>
<path fill="none" stroke="midnightblue" d="M1560.03,-519.73C1541.39,-508.82 1509.34,-490.05 1487.43,-477.22"/>
<polygon fill="midnightblue" stroke="midnightblue" points="1489.13,-474.16 1478.73,-472.13 1485.59,-480.2 1489.13,-474.16"/>
</g>
<!-- Node83&#45;&gt;Node3 -->
<g id="edge77" class="edge">
<title>Node83&#45;&gt;Node3</title>
<path fill="none" stroke="midnightblue" d="M867.66,-773.44C823.85,-766.64 757.92,-754.27 703,-735 640.54,-713.09 625.57,-703.95 570,-668 451.78,-591.52 414.94,-518.9 438,-380 452.9,-290.28 438.86,-241.24 514,-190 551.75,-164.26 849.77,-147.96 979.27,-142.03"/>
<polygon fill="midnightblue" stroke="midnightblue" points="979.58,-145.51 989.41,-141.57 979.26,-138.52 979.58,-145.51"/>
</g>
<!-- Node83&#45;&gt;Node5 -->
<g id="edge75" class="edge">
<title>Node83&#45;&gt;Node5</title>
<path fill="none" stroke="midnightblue" d="M867.92,-774.9C700.32,-755.81 152,-681.81 152,-530.5 152,-530.5 152,-530.5 152,-461.5 152,-337.36 38,-330.64 38,-206.5 38,-206.5 38,-206.5 38,-137.5 38,-104.4 38.21,-90.02 62,-67 96.53,-33.59 152.47,-22.21 189.74,-18.37"/>
<polygon fill="midnightblue" stroke="midnightblue" points="190.08,-21.86 199.72,-17.48 189.45,-14.89 190.08,-21.86"/>
</g>
<!-- Node83&#45;&gt;Node8 -->
<g id="edge74" class="edge">
<title>Node83&#45;&gt;Node8</title>
<path fill="none" stroke="midnightblue" d="M964.03,-775C1230.23,-747.09 2518.59,-609.56 2684,-545 2743.44,-521.8 2862.19,-409.05 2919,-380 2962.55,-357.73 2981.62,-370.07 3023,-344 3069,-315.02 3060.6,-281.76 3109,-257 3201.5,-209.67 3260.35,-287.73 3340,-221 3392.52,-177 3387.61,-108.38 3333,-67 3277.76,-25.14 3194.62,-16.67 3145.48,-15.66"/>
<polygon fill="midnightblue" stroke="midnightblue" points="3145.27,-12.15 3135.24,-15.55 3145.2,-19.15 3145.27,-12.15"/>
</g>
<!-- Node83&#45;&gt;Node13 -->
<g id="edge73" class="edge">
<title>Node83&#45;&gt;Node13</title>
<path fill="none" stroke="midnightblue" d="M930.98,-771.36C971.29,-747.86 1084.83,-679.95 1171,-612 1179.55,-605.26 1451.01,-353.09 1457,-344 1529.18,-234.45 1469.37,-162.81 1559,-67 1579.17,-45.44 1610.42,-32.17 1633.95,-24.68"/>
<polygon fill="midnightblue" stroke="midnightblue" points="1635.25,-27.94 1643.83,-21.72 1633.24,-21.24 1635.25,-27.94"/>
</g>
<!-- Node83&#45;&gt;Node18 -->
<g id="edge76" class="edge">
<title>Node83&#45;&gt;Node18</title>
<path fill="none" stroke="midnightblue" d="M867.97,-775.18C817.96,-769.07 744.51,-756.63 727,-735 646.42,-635.5 746.32,-572.3 720,-447 716.07,-428.29 694.51,-379.64 682.35,-353.03"/>
<polygon fill="midnightblue" stroke="midnightblue" points="685.43,-351.35 678.07,-343.72 679.07,-354.27 685.43,-351.35"/>
</g>
<!-- Node83&#45;&gt;Node58 -->
<g id="edge84" class="edge">
<title>Node83&#45;&gt;Node58</title>
<path fill="none" stroke="midnightblue" d="M920.68,-771.35C933.2,-748.8 969.5,-687.24 1013,-648 1026.76,-635.59 1044.04,-624.73 1059.49,-616.3"/>
<polygon fill="midnightblue" stroke="midnightblue" points="1061.14,-619.39 1068.34,-611.62 1057.87,-613.2 1061.14,-619.39"/>
</g>
<!-- Node83&#45;&gt;Node87 -->
<g id="edge78" class="edge">
<title>Node83&#45;&gt;Node87</title>
<path fill="none" stroke="midnightblue" d="M867.98,-774.25C821.7,-767.61 756.47,-754.96 741,-735 701.45,-684 794.69,-487.75 828.97,-419.81"/>
<polygon fill="midnightblue" stroke="midnightblue" points="832.16,-421.25 833.58,-410.75 825.92,-418.08 832.16,-421.25"/>
</g>
<!-- Node83&#45;&gt;Node99 -->
<g id="edge85" class="edge">
<title>Node83&#45;&gt;Node99</title>
<path fill="none" stroke="midnightblue" d="M901.24,-771.48C886.9,-763.19 864.63,-750.32 846.05,-739.59"/>
<polygon fill="midnightblue" stroke="midnightblue" points="847.68,-736.49 837.28,-734.52 844.18,-742.56 847.68,-736.49"/>
</g>
<!-- Node87&#45;&gt;Node3 -->
<g id="edge83" class="edge">
<title>Node87&#45;&gt;Node3</title>
<path fill="none" stroke="midnightblue" d="M836.29,-380.2C828.64,-354.47 816.01,-299.13 833,-257 847.84,-220.2 859.03,-212.07 892,-190 920.51,-170.92 956.95,-158.33 986.42,-150.5"/>
<polygon fill="midnightblue" stroke="midnightblue" points="987.3,-153.89 996.13,-148.02 985.57,-147.11 987.3,-153.89"/>
</g>
<!-- Node87&#45;&gt;Node5 -->
<g id="edge81" class="edge">
<title>Node87&#45;&gt;Node5</title>
<path fill="none" stroke="midnightblue" d="M818.09,-380.37C721.33,-320.71 346.72,-89.71 250.59,-30.43"/>
<polygon fill="midnightblue" stroke="midnightblue" points="252.28,-27.36 241.93,-25.09 248.6,-33.32 252.28,-27.36"/>
</g>
<!-- Node87&#45;&gt;Node8 -->
<g id="edge80" class="edge">
<title>Node87&#45;&gt;Node8</title>
<path fill="none" stroke="midnightblue" d="M893.65,-389.97C928.84,-386.99 976.18,-383.1 1018,-380 1394.24,-352.15 1488.38,-346.04 1865,-324 1943.52,-319.41 2499.63,-318.81 2572,-288 2590.51,-280.12 2586.91,-265.81 2605,-257 2700,-210.75 2746.98,-271.13 2840,-221 2921.17,-177.26 2903.37,-119.73 2979,-67 3005.2,-48.73 3038.96,-35.66 3064.95,-27.39"/>
<polygon fill="midnightblue" stroke="midnightblue" points="3066.32,-30.63 3074.85,-24.35 3064.26,-23.94 3066.32,-30.63"/>
</g>
<!-- Node87&#45;&gt;Node13 -->
<g id="edge79" class="edge">
<title>Node87&#45;&gt;Node13</title>
<path fill="none" stroke="midnightblue" d="M857.09,-380.39C917.01,-328.73 1134.65,-148.65 1348,-67 1447.53,-28.91 1575.16,-19.55 1633.86,-17.25"/>
<polygon fill="midnightblue" stroke="midnightblue" points="1634.12,-20.74 1643.99,-16.89 1633.88,-13.74 1634.12,-20.74"/>
</g>
<!-- Node87&#45;&gt;Node18 -->
<g id="edge82" class="edge">
<title>Node87&#45;&gt;Node18</title>
<path fill="none" stroke="midnightblue" d="M801.42,-380.4C772.9,-370.24 734.83,-356.67 707.74,-347.02"/>
<polygon fill="midnightblue" stroke="midnightblue" points="708.89,-343.72 698.3,-343.66 706.55,-350.31 708.89,-343.72"/>
</g>
<!-- Node99&#45;&gt;Node3 -->
<g id="edge86" class="edge">
<title>Node99&#45;&gt;Node3</title>
<path fill="none" stroke="midnightblue" d="M749.98,-710.05C657.01,-693.66 494,-648.14 494,-530.5 494,-530.5 494,-530.5 494,-271.5 494,-217.87 534.16,-212.16 583,-190 652.3,-158.56 872.21,-145.92 979.28,-141.53"/>
<polygon fill="midnightblue" stroke="midnightblue" points="979.43,-145.03 989.28,-141.13 979.15,-138.03 979.43,-145.03"/>
</g>
<!-- Node99&#45;&gt;Node57 -->
<g id="edge88" class="edge">
<title>Node99&#45;&gt;Node57</title>
<path fill="none" stroke="midnightblue" d="M817.5,-704.4C820.09,-696.29 823.38,-686.01 826.16,-677.28"/>
<polygon fill="midnightblue" stroke="midnightblue" points="829.53,-678.25 829.24,-667.66 822.86,-676.12 829.53,-678.25"/>
</g>
<!-- Node99&#45;&gt;Node59 -->
<g id="edge87" class="edge">
<title>Node99&#45;&gt;Node59</title>
<path fill="none" stroke="midnightblue" d="M876.1,-704.73C948.94,-687.7 1071.5,-655.55 1171,-612 1249.14,-577.8 1259.42,-551.55 1336,-514 1366.81,-498.89 1403.35,-484.84 1429.48,-475.41"/>
<polygon fill="midnightblue" stroke="midnightblue" points="1430.71,-478.69 1438.96,-472.03 1428.36,-472.1 1430.71,-478.69"/>
</g>
<!-- Node110&#45;&gt;Node3 -->
<g id="edge90" class="edge">
<title>Node110&#45;&gt;Node3</title>
<path fill="none" stroke="midnightblue" d="M578.98,-447.5C575.81,-424.2 570,-376 570,-335 570,-335 570,-335 570,-271.5 570,-225.99 592.55,-212.69 632,-190 689.82,-156.74 881.03,-145.12 979.4,-141.27"/>
<polygon fill="midnightblue" stroke="midnightblue" points="979.62,-144.77 989.48,-140.89 979.36,-137.77 979.62,-144.77"/>
</g>
<!-- Node110&#45;&gt;Node111 -->
<g id="edge91" class="edge">
<title>Node110&#45;&gt;Node111</title>
<path fill="none" stroke="midnightblue" d="M640.08,-453.79C734.77,-441.43 919.65,-417.3 1016.47,-404.66"/>
<polygon fill="midnightblue" stroke="midnightblue" points="1016.95,-408.13 1026.41,-403.36 1016.04,-401.19 1016.95,-408.13"/>
</g>
<!-- Node111&#45;&gt;Node3 -->
<g id="edge92" class="edge">
<title>Node111&#45;&gt;Node3</title>
<path fill="none" stroke="midnightblue" d="M1056.6,-380.47C1044.06,-371.5 1029.15,-358.79 1020,-344 1006.5,-322.18 1009.13,-313.46 1006,-288 1000.68,-244.77 993.57,-231.74 1006,-190 1009.71,-177.52 1017.6,-165.26 1024.73,-155.94"/>
<polygon fill="midnightblue" stroke="midnightblue" points="1027.59,-157.97 1031.18,-148 1022.16,-153.56 1027.59,-157.97"/>
</g>
<!-- Node111&#45;&gt;Node19 -->
<g id="edge93" class="edge">
<title>Node111&#45;&gt;Node19</title>
<path fill="none" stroke="midnightblue" d="M1131.59,-390.82C1279.46,-380.48 1698.74,-351.17 1862.91,-339.69"/>
<polygon fill="midnightblue" stroke="midnightblue" points="1863.61,-343.15 1873.35,-338.96 1863.13,-336.17 1863.61,-343.15"/>
</g>
<!-- Node113&#45;&gt;Node57 -->
<g id="edge95" class="edge">
<title>Node113&#45;&gt;Node57</title>
<path fill="none" stroke="midnightblue" d="M1160.18,-771.49C1098.55,-750.37 938.41,-695.47 867.12,-671.04"/>
<polygon fill="midnightblue" stroke="midnightblue" points="867.86,-667.59 857.27,-667.66 865.59,-674.21 867.86,-667.59"/>
</g>
<!-- Node106 -->
<g id="node34" class="node">
<title>Node106</title>
<g id="a_node34"><a xlink:href="../../de/d44/global__pointers__vector_8h.html" target="_top" xlink:title=" ">
<polygon fill="none" stroke="red" points="2062,-447.5 2062,-477.5 2208,-477.5 2208,-447.5 2062,-447.5"/>
<text text-anchor="start" x="2070" y="-465.5" font-family="Helvetica,sans-Serif" font-size="10.00">containers/global_pointers</text>
<text text-anchor="middle" x="2135" y="-454.5" font-family="Helvetica,sans-Serif" font-size="10.00">_vector.h</text>
</a>
</g>
</g>
<!-- Node113&#45;&gt;Node106 -->
<g id="edge96" class="edge">
<title>Node113&#45;&gt;Node106</title>
<path fill="none" stroke="midnightblue" d="M1234.01,-771.49C1420.32,-739.09 2074.95,-624.56 2093,-612 2121.47,-592.2 2123.37,-578.32 2133,-545 2138.36,-526.44 2138.58,-504.5 2137.61,-488.06"/>
<polygon fill="midnightblue" stroke="midnightblue" points="2141.06,-487.37 2136.79,-477.67 2134.08,-487.91 2141.06,-487.37"/>
</g>
<!-- Node106&#45;&gt;Node3 -->
<g id="edge98" class="edge">
<title>Node106&#45;&gt;Node3</title>
<path fill="none" stroke="midnightblue" d="M2101.3,-447.43C1993.88,-403.11 1649.17,-264.89 1352,-190 1265.16,-168.12 1162.28,-153.65 1098.82,-146.01"/>
<polygon fill="midnightblue" stroke="midnightblue" points="1098.94,-142.5 1088.6,-144.8 1098.12,-149.46 1098.94,-142.5"/>
</g>
<!-- Node106&#45;&gt;Node8 -->
<g id="edge97" class="edge">
<title>Node106&#45;&gt;Node8</title>
<path fill="none" stroke="midnightblue" d="M2188.04,-447.47C2352.31,-404.05 2846.04,-273.76 2919,-257 2998.94,-238.64 3047.2,-283.76 3100,-221 3145.35,-167.1 3123.43,-73.96 3111.25,-34.74"/>
<polygon fill="midnightblue" stroke="midnightblue" points="3114.57,-33.61 3108.14,-25.19 3107.91,-35.78 3114.57,-33.61"/>
</g>
<!-- Node106&#45;&gt;Node19 -->
<g id="edge99" class="edge">
<title>Node106&#45;&gt;Node19</title>
<path fill="none" stroke="midnightblue" d="M2125.64,-447.4C2112.98,-429.37 2088.78,-398.29 2061,-380 2036.89,-364.12 2006.58,-353.24 1981.19,-346.16"/>
<polygon fill="midnightblue" stroke="midnightblue" points="1981.93,-342.74 1971.36,-343.54 1980.12,-349.5 1981.93,-342.74"/>
</g>
<!-- Node131&#45;&gt;Node57 -->
<g id="edge101" class="edge">
<title>Node131&#45;&gt;Node57</title>
<path fill="none" stroke="midnightblue" d="M1131,-709.98C1067.89,-699.22 959.46,-680.73 891.97,-669.22"/>
<polygon fill="midnightblue" stroke="midnightblue" points="892.36,-665.74 881.91,-667.51 891.18,-672.64 892.36,-665.74"/>
</g>
<!-- Node131&#45;&gt;Node106 -->
<g id="edge102" class="edge">
<title>Node131&#45;&gt;Node106</title>
<path fill="none" stroke="midnightblue" d="M1220.67,-710C1231.45,-707.86 1243.15,-705.69 1254,-704 1298.8,-697.02 2028.14,-638.41 2065,-612 2106.4,-582.34 2124.11,-521.75 2131.03,-487.85"/>
<polygon fill="midnightblue" stroke="midnightblue" points="2134.5,-488.33 2132.91,-477.85 2127.62,-487.03 2134.5,-488.33"/>
</g>
<!-- Node132&#45;&gt;Node3 -->
<g id="edge108" class="edge">
<title>Node132&#45;&gt;Node3</title>
<path fill="none" stroke="midnightblue" d="M1119.23,-827.36C1103.31,-798.12 1051.73,-699.82 1028,-612 982.38,-443.13 989.51,-395.8 983,-221 982.49,-207.23 977.4,-202.59 983,-190 989.68,-174.98 1003.27,-162.55 1015.39,-153.78"/>
<polygon fill="midnightblue" stroke="midnightblue" points="1017.53,-156.56 1023.84,-148.05 1013.6,-150.77 1017.53,-156.56"/>
</g>
<!-- Node132&#45;&gt;Node5 -->
<g id="edge106" class="edge">
<title>Node132&#45;&gt;Node5</title>
<path fill="none" stroke="midnightblue" d="M1054.42,-835.12C980.09,-832.41 859.64,-822.9 761,-791 496.45,-705.46 228,-741.53 228,-463.5 228,-463.5 228,-463.5 228,-394.5 228,-256.63 228,-90.48 228,-35.31"/>
<polygon fill="midnightblue" stroke="midnightblue" points="231.5,-35.02 228,-25.02 224.5,-35.02 231.5,-35.02"/>
</g>
<!-- Node132&#45;&gt;Node8 -->
<g id="edge105" class="edge">
<title>Node132&#45;&gt;Node8</title>
<path fill="none" stroke="midnightblue" d="M1193.54,-833.63C1421.69,-823.76 2164.83,-774.79 2724,-545 2880.74,-480.59 2911.89,-444.94 3048,-344 3071.52,-326.55 3120.53,-269.53 3147,-257 3236.16,-214.81 3290.65,-284.66 3366,-221 3418.37,-176.75 3412.61,-107.1 3357,-67 3323.64,-42.95 3207.66,-27.35 3145.35,-20.5"/>
<polygon fill="midnightblue" stroke="midnightblue" points="3145.41,-16.99 3135.09,-19.4 3144.66,-23.95 3145.41,-16.99"/>
</g>
<!-- Node132&#45;&gt;Node13 -->
<g id="edge104" class="edge">
<title>Node132&#45;&gt;Node13</title>
<path fill="none" stroke="midnightblue" d="M1193.65,-834.14C1363.46,-826.8 1807.77,-790.61 2121,-612 2192.81,-571.05 2219.09,-554.67 2250,-478 2271.45,-424.79 2211.66,-414.72 2166,-380 2110.52,-337.81 2093.82,-331.05 2039,-288 1979.36,-241.17 1843.15,-107.43 1779,-67 1753.07,-50.66 1720.96,-36.85 1697.6,-27.83"/>
<polygon fill="midnightblue" stroke="midnightblue" points="1698.76,-24.52 1688.17,-24.26 1696.29,-31.07 1698.76,-24.52"/>
</g>
<!-- Node132&#45;&gt;Node18 -->
<g id="edge107" class="edge">
<title>Node132&#45;&gt;Node18</title>
<path fill="none" stroke="midnightblue" d="M1054.39,-829.08C946.89,-816.86 748.14,-787.63 703,-735 653.3,-677.05 667.47,-424.87 672.55,-353.74"/>
<polygon fill="midnightblue" stroke="midnightblue" points="676.05,-353.84 673.3,-343.61 669.07,-353.32 676.05,-353.84"/>
</g>
<!-- Node132&#45;&gt;Node83 -->
<g id="edge111" class="edge">
<title>Node132&#45;&gt;Node83</title>
<path fill="none" stroke="midnightblue" d="M1091.04,-827.44C1055.21,-818.14 997.84,-803.25 958.61,-793.06"/>
<polygon fill="midnightblue" stroke="midnightblue" points="959.36,-789.64 948.8,-790.52 957.6,-796.42 959.36,-789.64"/>
</g>
<!-- Node132&#45;&gt;Node113 -->
<g id="edge110" class="edge">
<title>Node132&#45;&gt;Node113</title>
<path fill="none" stroke="midnightblue" d="M1133.8,-827.32C1142.82,-819.34 1156.41,-807.31 1167.32,-797.65"/>
<polygon fill="midnightblue" stroke="midnightblue" points="1169.85,-800.08 1175.02,-790.83 1165.21,-794.84 1169.85,-800.08"/>
</g>
<!-- Node132&#45;&gt;Node131 -->
<g id="edge109" class="edge">
<title>Node132&#45;&gt;Node131</title>
<path fill="none" stroke="midnightblue" d="M1121.1,-827.09C1117.39,-814.08 1112.42,-789.44 1121,-771 1128.19,-755.55 1142.68,-743.14 1155.63,-734.49"/>
<polygon fill="midnightblue" stroke="midnightblue" points="1157.61,-737.38 1164.23,-729.11 1153.89,-731.44 1157.61,-737.38"/>
</g>
<!-- Node116&#45;&gt;Node3 -->
<g id="edge116" class="edge">
<title>Node116&#45;&gt;Node3</title>
<path fill="none" stroke="midnightblue" d="M2384.43,-520C2367.45,-494.72 2313.56,-419.37 2250,-380 2219.06,-360.83 1658.74,-196.88 1623,-190 1433.93,-153.59 1205.34,-143.41 1098.92,-140.58"/>
<polygon fill="midnightblue" stroke="midnightblue" points="1098.79,-137.08 1088.7,-140.32 1098.61,-144.08 1098.79,-137.08"/>
</g>
<!-- Node116&#45;&gt;Node8 -->
<g id="edge114" class="edge">
<title>Node116&#45;&gt;Node8</title>
<path fill="none" stroke="midnightblue" d="M2406.14,-519.94C2485.87,-477.76 2838.66,-292.68 2957,-257 3012.21,-240.35 3176.16,-264.51 3214,-221 3258.92,-169.35 3250.85,-124.68 3214,-67 3198.85,-43.29 3169.4,-30.54 3144.92,-23.79"/>
<polygon fill="midnightblue" stroke="midnightblue" points="3145.69,-20.38 3135.14,-21.33 3143.98,-27.16 3145.69,-20.38"/>
</g>
<!-- Node116&#45;&gt;Node13 -->
<g id="edge113" class="edge">
<title>Node116&#45;&gt;Node13</title>
<path fill="none" stroke="midnightblue" d="M2394.82,-519.9C2400,-510.1 2407.91,-493.46 2411,-478 2424.6,-409.86 2429.33,-376.67 2384,-324 2345.16,-278.88 2323.8,-277.75 2268,-257 2187.85,-227.2 2147.81,-271.76 2079,-221 2039.32,-191.73 2062.52,-157.2 2027,-123 1985.76,-83.3 1965.22,-85.36 1911,-67 1836.81,-41.88 1745.55,-27.09 1698.1,-20.54"/>
<polygon fill="midnightblue" stroke="midnightblue" points="1698.49,-17.06 1688.11,-19.2 1697.55,-24 1698.49,-17.06"/>
</g>
<!-- Node116&#45;&gt;Node26 -->
<g id="edge115" class="edge">
<title>Node116&#45;&gt;Node26</title>
<path fill="none" stroke="midnightblue" d="M2391.71,-519.6C2397.07,-488.86 2410.6,-385.68 2364,-324 2341.14,-293.73 2243.2,-268.32 2207,-257 2131.21,-233.3 2100.98,-260.33 2032,-221 2004.3,-205.21 1981.28,-175.39 1968.6,-156.53"/>
<polygon fill="midnightblue" stroke="midnightblue" points="1971.47,-154.52 1963.09,-148.03 1965.59,-158.33 1971.47,-154.52"/>
</g>
<!-- Node116&#45;&gt;Node59 -->
<g id="edge117" class="edge">
<title>Node116&#45;&gt;Node59</title>
<path fill="none" stroke="midnightblue" d="M2342.81,-525.19C2190.87,-514.52 1713.87,-481.04 1533.77,-468.4"/>
<polygon fill="midnightblue" stroke="midnightblue" points="1533.85,-464.89 1523.63,-467.69 1533.36,-471.88 1533.85,-464.89"/>
</g>
<!-- Node109&#45;&gt;Node3 -->
<g id="edge122" class="edge">
<title>Node109&#45;&gt;Node3</title>
<path fill="none" stroke="midnightblue" d="M356.12,-771.25C343.34,-709.14 275.58,-333.37 474,-190 514.26,-160.91 841.95,-146.31 979.05,-141.42"/>
<polygon fill="midnightblue" stroke="midnightblue" points="979.49,-144.91 989.37,-141.06 979.25,-137.91 979.49,-144.91"/>
</g>
<!-- Node109&#45;&gt;Node76 -->
<g id="edge123" class="edge">
<title>Node109&#45;&gt;Node76</title>
<path fill="none" stroke="midnightblue" d="M422.25,-778.7C522.07,-775.75 720.1,-766.14 885,-735 1144.38,-686.01 1445.59,-578.6 1542.93,-542.56"/>
<polygon fill="midnightblue" stroke="midnightblue" points="1544.33,-545.77 1552.48,-539.01 1541.89,-539.21 1544.33,-545.77"/>
</g>
<!-- Node133&#45;&gt;Node3 -->
<g id="edge128" class="edge">
<title>Node133&#45;&gt;Node3</title>
<path fill="none" stroke="midnightblue" d="M1761.3,-589.02C1679.58,-579.45 1534.47,-560.98 1484,-545 1335.88,-498.1 1304.42,-457.19 1198,-344 1137.2,-279.33 1075.65,-192.83 1050.63,-156.59"/>
<polygon fill="midnightblue" stroke="midnightblue" points="1053.38,-154.4 1044.83,-148.14 1047.6,-158.36 1053.38,-154.4"/>
</g>
<!-- Node133&#45;&gt;Node31 -->
<g id="edge131" class="edge">
<title>Node133&#45;&gt;Node31</title>
<path fill="none" stroke="midnightblue" d="M1876.62,-587.46C1894.65,-585.14 1914.63,-582.76 1933,-581 1994.85,-575.08 2441.13,-582.06 2491,-545 2570.02,-486.28 2527.52,-342.88 2509.11,-291.88"/>
<polygon fill="midnightblue" stroke="midnightblue" points="2512.28,-290.36 2505.5,-282.21 2505.72,-292.8 2512.28,-290.36"/>
</g>
<!-- Node133&#45;&gt;Node59 -->
<g id="edge129" class="edge">
<title>Node133&#45;&gt;Node59</title>
<path fill="none" stroke="midnightblue" d="M1796.67,-581.23C1767.76,-563.3 1715.33,-532.64 1667,-514 1619.73,-495.77 1563.7,-482.42 1522.49,-474.03"/>
<polygon fill="midnightblue" stroke="midnightblue" points="1523.11,-470.59 1512.61,-472.06 1521.73,-477.45 1523.11,-470.59"/>
</g>
<!-- Node133&#45;&gt;Node76 -->
<g id="edge130" class="edge">
<title>Node133&#45;&gt;Node76</title>
<path fill="none" stroke="midnightblue" d="M1766.36,-581.48C1721.58,-569.55 1658.13,-552.64 1616.77,-541.63"/>
<polygon fill="midnightblue" stroke="midnightblue" points="1617.58,-538.22 1607.02,-539.03 1615.78,-544.98 1617.58,-538.22"/>
</g>
<!-- Node119&#45;&gt;Node3 -->
<g id="edge135" class="edge">
<title>Node119&#45;&gt;Node3</title>
<path fill="none" stroke="midnightblue" d="M1954.09,-586.93C1915.87,-578.78 1860.03,-564.8 1814,-545 1789.63,-534.52 1787.54,-524.07 1763,-514 1698.77,-487.65 1676.65,-500.59 1611,-478 1543.49,-454.77 1529.67,-441.26 1465,-411 1436.01,-397.44 1429.85,-391.56 1400,-380 1348.47,-360.05 1325.62,-376.59 1281,-344 1213.9,-294.99 1240.55,-241.06 1175,-190 1150.4,-170.84 1117.79,-158.4 1090.67,-150.66"/>
<polygon fill="midnightblue" stroke="midnightblue" points="1091.52,-147.27 1080.95,-148.02 1089.68,-154.02 1091.52,-147.27"/>
</g>
<!-- Node119&#45;&gt;Node8 -->
<g id="edge134" class="edge">
<title>Node119&#45;&gt;Node8</title>
<path fill="none" stroke="midnightblue" d="M2036.06,-586.96C2046.94,-584.72 2058.9,-582.51 2070,-581 2186.32,-565.22 2485.93,-582.98 2597,-545 2721.57,-502.4 2723.2,-434.59 2843,-380 2898.73,-354.61 2926.43,-379.96 2976,-344 3013.42,-316.86 2993.96,-281.75 3033,-257 3130.41,-195.25 3214.31,-308.03 3290,-221 3334.92,-169.35 3331.54,-121.4 3290,-67 3272.5,-44.09 3194.02,-29.06 3145.06,-21.74"/>
<polygon fill="midnightblue" stroke="midnightblue" points="3145.5,-18.27 3135.1,-20.3 3144.49,-25.2 3145.5,-18.27"/>
</g>
<!-- Node119&#45;&gt;Node13 -->
<g id="edge133" class="edge">
<title>Node119&#45;&gt;Node13</title>
<path fill="none" stroke="midnightblue" d="M2002.23,-586.75C2007.52,-570.78 2016.02,-536.47 2001,-514 1977.75,-479.21 1948.26,-502.02 1914,-478 1847.09,-431.09 1666,-288.22 1666,-206.5 1666,-206.5 1666,-206.5 1666,-137.5 1666,-101.21 1666,-58.81 1666,-35.06"/>
<polygon fill="midnightblue" stroke="midnightblue" points="1669.5,-35.01 1666,-25.01 1662.5,-35.01 1669.5,-35.01"/>
</g>
<!-- Node119&#45;&gt;Node31 -->
<g id="edge139" class="edge">
<title>Node119&#45;&gt;Node31</title>
<path fill="none" stroke="midnightblue" d="M2036.43,-586.96C2047.22,-584.74 2059.04,-582.54 2070,-581 2171.31,-566.74 2439.18,-593.99 2529,-545 2568.95,-523.21 2591,-509.01 2591,-463.5 2591,-463.5 2591,-463.5 2591,-394.5 2591,-348.81 2549.32,-308.99 2523,-288.4"/>
<polygon fill="midnightblue" stroke="midnightblue" points="2524.84,-285.4 2514.75,-282.17 2520.63,-290.99 2524.84,-285.4"/>
</g>
<!-- Node119&#45;&gt;Node35 -->
<g id="edge138" class="edge">
<title>Node119&#45;&gt;Node35</title>
<path fill="none" stroke="midnightblue" d="M2036.06,-586.99C2046.95,-584.75 2058.91,-582.53 2070,-581 2179.26,-565.93 2471.45,-603.41 2565,-545 2684.12,-470.63 2723.45,-285.23 2733.25,-225.42"/>
<polygon fill="midnightblue" stroke="midnightblue" points="2736.77,-225.62 2734.84,-215.2 2729.85,-224.55 2736.77,-225.62"/>
</g>
<!-- Node119&#45;&gt;Node59 -->
<g id="edge136" class="edge">
<title>Node119&#45;&gt;Node59</title>
<path fill="none" stroke="midnightblue" d="M1953.09,-586.95C1909.53,-578.29 1842.51,-563.55 1786,-545 1752.51,-534.01 1746.67,-524.44 1713,-514 1653.39,-495.51 1583.6,-482.03 1533.1,-473.67"/>
<polygon fill="midnightblue" stroke="midnightblue" points="1533.38,-470.17 1522.95,-472.02 1532.25,-477.08 1533.38,-470.17"/>
</g>
<!-- Node119&#45;&gt;Node76 -->
<g id="edge137" class="edge">
<title>Node119&#45;&gt;Node76</title>
<path fill="none" stroke="midnightblue" d="M1943.13,-586.94C1865.1,-574.97 1723.73,-553.3 1640.73,-540.58"/>
<polygon fill="midnightblue" stroke="midnightblue" points="1641.07,-537.09 1630.65,-539.03 1640.01,-544.01 1641.07,-537.09"/>
</g>
<!-- Node119&#45;&gt;Node106 -->
<g id="edge140" class="edge">
<title>Node119&#45;&gt;Node106</title>
<path fill="none" stroke="midnightblue" d="M2007.92,-586.84C2029.06,-566.32 2082.68,-514.28 2113.09,-484.77"/>
<polygon fill="midnightblue" stroke="midnightblue" points="2115.55,-487.26 2120.28,-477.78 2110.67,-482.24 2115.55,-487.26"/>
</g>
<!-- Node120 -->
<g id="node41" class="node">
<title>Node120</title>
<g id="a_node41"><a xlink:href="../../d9/da6/periodic__variables__container_8h.html" target="_top" xlink:title=" ">
<polygon fill="none" stroke="red" points="1866,-514.5 1866,-544.5 1992,-544.5 1992,-514.5 1866,-514.5"/>
<text text-anchor="start" x="1874" y="-532.5" font-family="Helvetica,sans-Serif" font-size="10.00">containers/periodic</text>
<text text-anchor="middle" x="1929" y="-521.5" font-family="Helvetica,sans-Serif" font-size="10.00">_variables_container.h</text>
</a>
</g>
</g>
<!-- Node119&#45;&gt;Node120 -->
<g id="edge141" class="edge">
<title>Node119&#45;&gt;Node120</title>
<path fill="none" stroke="midnightblue" d="M1989.56,-586.73C1979.92,-577.78 1964.58,-563.54 1951.76,-551.63"/>
<polygon fill="midnightblue" stroke="midnightblue" points="1953.88,-548.83 1944.17,-544.59 1949.12,-553.96 1953.88,-548.83"/>
</g>
<!-- Node121 -->
<g id="node42" class="node">
<title>Node121</title>
<g id="a_node42"><a xlink:href="../../d0/d9c/table__stream__utility_8h.html" target="_top" xlink:title=" ">
<polygon fill="none" stroke="red" points="1922.5,-447.5 1922.5,-477.5 2043.5,-477.5 2043.5,-447.5 1922.5,-447.5"/>
<text text-anchor="start" x="1930.5" y="-465.5" font-family="Helvetica,sans-Serif" font-size="10.00">utilities/table_stream</text>
<text text-anchor="middle" x="1983" y="-454.5" font-family="Helvetica,sans-Serif" font-size="10.00">_utility.h</text>
</a>
</g>
</g>
<!-- Node119&#45;&gt;Node121 -->
<g id="edge147" class="edge">
<title>Node119&#45;&gt;Node121</title>
<path fill="none" stroke="midnightblue" d="M2007.46,-586.96C2021.04,-572.15 2045.14,-540.72 2034,-514 2029.21,-502.53 2020.41,-492.32 2011.45,-484.15"/>
<polygon fill="midnightblue" stroke="midnightblue" points="2013.52,-481.31 2003.63,-477.5 2008.98,-486.64 2013.52,-481.31"/>
</g>
<!-- Node124 -->
<g id="node43" class="node">
<title>Node124</title>
<g id="a_node43"><a xlink:href="../../d8/da9/adjoint__extensions_8h.html" target="_top" xlink:title=" ">
<polygon fill="none" stroke="red" points="1290,-324.5 1290,-343.5 1448,-343.5 1448,-324.5 1290,-324.5"/>
<text text-anchor="middle" x="1369" y="-331.5" font-family="Helvetica,sans-Serif" font-size="10.00">utilities/adjoint_extensions.h</text>
</a>
</g>
</g>
<!-- Node119&#45;&gt;Node124 -->
<g id="edge149" class="edge">
<title>Node119&#45;&gt;Node124</title>
<path fill="none" stroke="midnightblue" d="M1966.9,-586.92C1937.39,-578.38 1892.91,-563.84 1857,-545 1836.14,-534.05 1835.18,-524.32 1814,-514 1762.42,-488.85 1743.89,-497.72 1690,-478 1631.71,-456.67 1463.26,-378.89 1396.62,-347.89"/>
<polygon fill="midnightblue" stroke="midnightblue" points="1398.09,-344.71 1387.55,-343.66 1395.13,-351.06 1398.09,-344.71"/>
</g>
<!-- Node120&#45;&gt;Node3 -->
<g id="edge144" class="edge">
<title>Node120&#45;&gt;Node3</title>
<path fill="none" stroke="midnightblue" d="M1865.99,-514.79C1816.79,-503.7 1752.76,-488.28 1728,-478 1676.77,-456.73 1345.97,-252.05 1300,-221 1281.07,-208.21 1279.7,-199.66 1259,-190 1207.66,-166.05 1144.15,-153.04 1098.58,-146.26"/>
<polygon fill="midnightblue" stroke="midnightblue" points="1098.96,-142.78 1088.56,-144.83 1097.97,-149.71 1098.96,-142.78"/>
</g>
<!-- Node120&#45;&gt;Node8 -->
<g id="edge143" class="edge">
<title>Node120&#45;&gt;Node8</title>
<path fill="none" stroke="midnightblue" d="M1920.31,-514.42C1910.6,-496.69 1898.2,-466.23 1914,-447 2029.77,-306.12 2544.33,-340.34 2719,-288 2753.94,-277.53 2759.91,-266.98 2795,-257 2887.77,-230.63 2927.96,-273.29 3009,-221 3075.11,-178.34 3096.56,-76.96 3102.75,-35.09"/>
<polygon fill="midnightblue" stroke="midnightblue" points="3106.22,-35.54 3104.09,-25.16 3099.28,-34.6 3106.22,-35.54"/>
</g>
<!-- Node120&#45;&gt;Node13 -->
<g id="edge142" class="edge">
<title>Node120&#45;&gt;Node13</title>
<path fill="none" stroke="midnightblue" d="M1865.8,-517.78C1839.69,-510.48 1810.94,-498.28 1791,-478 1758.68,-445.13 1782.75,-418.24 1757,-380 1697.22,-291.22 1590,-313.53 1590,-206.5 1590,-206.5 1590,-206.5 1590,-137.5 1590,-93.98 1625.7,-53.27 1648.16,-31.97"/>
<polygon fill="midnightblue" stroke="midnightblue" points="1650.73,-34.36 1655.75,-25.03 1646.01,-29.2 1650.73,-34.36"/>
</g>
<!-- Node120&#45;&gt;Node19 -->
<g id="edge145" class="edge">
<title>Node120&#45;&gt;Node19</title>
<path fill="none" stroke="midnightblue" d="M1865.82,-518.29C1842.37,-511.1 1818.07,-498.86 1804,-478 1768.77,-425.77 1855.63,-372.14 1902.47,-348.07"/>
<polygon fill="midnightblue" stroke="midnightblue" points="1904.16,-351.14 1911.53,-343.53 1901.02,-344.89 1904.16,-351.14"/>
</g>
<!-- Node120&#45;&gt;Node59 -->
<g id="edge146" class="edge">
<title>Node120&#45;&gt;Node59</title>
<path fill="none" stroke="midnightblue" d="M1865.8,-519.67C1779.13,-507.55 1623.89,-485.85 1533.85,-473.26"/>
<polygon fill="midnightblue" stroke="midnightblue" points="1534.13,-469.77 1523.74,-471.85 1533.16,-476.7 1534.13,-469.77"/>
</g>
<!-- Node121&#45;&gt;Node19 -->
<g id="edge148" class="edge">
<title>Node121&#45;&gt;Node19</title>
<path fill="none" stroke="midnightblue" d="M1977.13,-447.48C1967.46,-424.41 1948.22,-378.48 1937.55,-353.03"/>
<polygon fill="midnightblue" stroke="midnightblue" points="1940.77,-351.66 1933.68,-343.79 1934.32,-354.36 1940.77,-351.66"/>
</g>
<!-- Node124&#45;&gt;Node3 -->
<g id="edge150" class="edge">
<title>Node124&#45;&gt;Node3</title>
<path fill="none" stroke="midnightblue" d="M1362.87,-324.4C1344.7,-299.54 1288.34,-227.05 1224,-190 1185.33,-167.73 1136.45,-154.94 1098.64,-147.8"/>
<polygon fill="midnightblue" stroke="midnightblue" points="1099.25,-144.36 1088.79,-146.02 1098,-151.25 1099.25,-144.36"/>
</g>
<!-- Node134&#45;&gt;Node3 -->
<g id="edge152" class="edge">
<title>Node134&#45;&gt;Node3</title>
<path fill="none" stroke="midnightblue" d="M1533.36,-586.98C1488.79,-579.24 1426.09,-565.8 1374,-545 1319.42,-523.2 1308.17,-511.67 1260,-478 1203.85,-438.74 1199.44,-415.76 1141,-380 1106.7,-359.01 1084,-374.67 1058,-344 1012.36,-290.17 1025.94,-197.33 1034.44,-157.99"/>
<polygon fill="midnightblue" stroke="midnightblue" points="1037.87,-158.71 1036.7,-148.18 1031.05,-157.14 1037.87,-158.71"/>
</g>
<!-- Node134&#45;&gt;Node31 -->
<g id="edge155" class="edge">
<title>Node134&#45;&gt;Node31</title>
<path fill="none" stroke="midnightblue" d="M1658.35,-588.91C1687.44,-586.2 1721.88,-583.2 1753,-581 1829.91,-575.56 2387.51,-595.24 2446,-545 2521.7,-479.98 2511.51,-342.17 2504.9,-292.15"/>
<polygon fill="midnightblue" stroke="midnightblue" points="2508.35,-291.53 2503.47,-282.13 2501.42,-292.52 2508.35,-291.53"/>
</g>
<!-- Node134&#45;&gt;Node59 -->
<g id="edge153" class="edge">
<title>Node134&#45;&gt;Node59</title>
<path fill="none" stroke="midnightblue" d="M1554.42,-586.95C1530.99,-579.63 1501.74,-566.71 1484,-545 1469.41,-527.15 1465.21,-500.22 1464.14,-482.27"/>
<polygon fill="midnightblue" stroke="midnightblue" points="1467.63,-482.05 1463.81,-472.17 1460.64,-482.28 1467.63,-482.05"/>
</g>
<!-- Node134&#45;&gt;Node76 -->
<g id="edge154" class="edge">
<title>Node134&#45;&gt;Node76</title>
<path fill="none" stroke="midnightblue" d="M1588.84,-586.73C1586.47,-577.09 1582.58,-561.3 1579.53,-548.91"/>
<polygon fill="midnightblue" stroke="midnightblue" points="1582.91,-548 1577.12,-539.13 1576.12,-549.67 1582.91,-548"/>
</g>
<!-- Node63&#45;&gt;Node3 -->
<g id="edge161" class="edge">
<title>Node63&#45;&gt;Node3</title>
<path fill="none" stroke="midnightblue" d="M3189.3,-272.15C3089.64,-272.51 2849.38,-267.95 2655,-221 2619.54,-212.44 2614.68,-197.61 2579,-190 2432.57,-158.78 1364.42,-143.54 1098.72,-140.21"/>
<polygon fill="midnightblue" stroke="midnightblue" points="1098.54,-136.71 1088.5,-140.08 1098.46,-143.71 1098.54,-136.71"/>
</g>
<!-- Node63&#45;&gt;Node8 -->
<g id="edge158" class="edge">
<title>Node63&#45;&gt;Node8</title>
<path fill="none" stroke="midnightblue" d="M3282.7,-271.27C3363.06,-269.78 3522.26,-261.63 3557,-221 3565.95,-210.53 3560.8,-203.24 3557,-190 3539.2,-128.01 3534.21,-101.95 3480,-67 3425.28,-31.72 3230.45,-20.8 3145.31,-17.66"/>
<polygon fill="midnightblue" stroke="midnightblue" points="3145.36,-14.16 3135.25,-17.31 3145.12,-21.16 3145.36,-14.16"/>
</g>
<!-- Node63&#45;&gt;Node32 -->
<g id="edge159" class="edge">
<title>Node63&#45;&gt;Node32</title>
<path fill="none" stroke="midnightblue" d="M3189.48,-261.84C3124.68,-248.38 3009.03,-224.37 2953.89,-212.92"/>
<polygon fill="midnightblue" stroke="midnightblue" points="2954.52,-209.47 2944.01,-210.86 2953.09,-216.32 2954.52,-209.47"/>
</g>
<!-- Node64 -->
<g id="node46" class="node">
<title>Node64</title>
<g id="a_node46"><a xlink:title=" ">
<polygon fill="none" stroke="#bfbfbf" points="3494.5,-196 3494.5,-215 3547.5,-215 3547.5,-196 3494.5,-196"/>
<text text-anchor="middle" x="3521" y="-203" font-family="Helvetica,sans-Serif" font-size="10.00">iterator</text>
</a>
</g>
</g>
<!-- Node63&#45;&gt;Node64 -->
<g id="edge160" class="edge">
<title>Node63&#45;&gt;Node64</title>
<path fill="none" stroke="midnightblue" d="M3282.77,-263.77C3332.22,-255.14 3412.29,-239.89 3480,-221 3482.96,-220.17 3486.01,-219.25 3489.06,-218.27"/>
<polygon fill="midnightblue" stroke="midnightblue" points="3490.27,-221.55 3498.62,-215.03 3488.02,-214.92 3490.27,-221.55"/>
</g>
<!-- Node135&#45;&gt;Node3 -->
<g id="edge163" class="edge">
<title>Node135&#45;&gt;Node3</title>
<path fill="none" stroke="midnightblue" d="M1527.01,-944.83C1541.21,-926.37 1572,-881.32 1572,-838 1572,-838 1572,-838 1572,-718.5 1572,-636.81 1353.39,-534.09 1294,-478 1263.84,-449.51 1257.21,-441.42 1229,-411 1179.33,-357.44 1165.55,-345.1 1120,-288 1097.16,-259.37 1089.66,-253.09 1072,-221 1060.65,-200.38 1051,-175.02 1045.12,-158.12"/>
<polygon fill="midnightblue" stroke="midnightblue" points="1048.34,-156.73 1041.82,-148.37 1041.71,-158.97 1048.34,-156.73"/>
</g>
<!-- Node135&#45;&gt;Node17 -->
<g id="edge164" class="edge">
<title>Node135&#45;&gt;Node17</title>
<path fill="none" stroke="midnightblue" d="M1489.34,-944.98C1451.76,-934.53 1387.96,-916.79 1346.4,-905.23"/>
<polygon fill="midnightblue" stroke="midnightblue" points="1347.18,-901.82 1336.6,-902.51 1345.3,-908.56 1347.18,-901.82"/>
</g>
<!-- Node135&#45;&gt;Node63 -->
<g id="edge165" class="edge">
<title>Node135&#45;&gt;Node63</title>
<path fill="none" stroke="midnightblue" d="M1581.83,-953.29C1788.51,-949.68 2466.97,-914.17 2905,-612 3044.65,-515.67 3174.28,-354.63 3219.27,-295.84"/>
<polygon fill="midnightblue" stroke="midnightblue" points="3222.25,-297.7 3225.52,-287.62 3216.68,-293.47 3222.25,-297.7"/>
</g>
<!-- Node136&#45;&gt;Node3 -->
<g id="edge167" class="edge">
<title>Node136&#45;&gt;Node3</title>
<path fill="none" stroke="midnightblue" d="M1255.95,-940.95C1251.24,-940.26 1246.55,-939.6 1242,-939 1030.61,-911.24 463.54,-966.55 287,-847 209.15,-794.28 190,-753.02 190,-659 190,-659 190,-659 190,-394.5 190,-332.17 325.27,-215.84 382,-190 487.5,-141.95 837.76,-138.33 979.1,-138.91"/>
<polygon fill="midnightblue" stroke="midnightblue" points="979.29,-142.41 989.31,-138.96 979.32,-135.41 979.29,-142.41"/>
</g>
<!-- Node136&#45;&gt;Node17 -->
<g id="edge168" class="edge">
<title>Node136&#45;&gt;Node17</title>
<path fill="none" stroke="midnightblue" d="M1323.55,-939.4C1320.38,-931.2 1316.35,-920.78 1312.96,-911.99"/>
<polygon fill="midnightblue" stroke="midnightblue" points="1316.22,-910.72 1309.35,-902.66 1309.69,-913.25 1316.22,-910.72"/>
</g>
<!-- Node136&#45;&gt;Node59 -->
<g id="edge169" class="edge">
<title>Node136&#45;&gt;Node59</title>
<path fill="none" stroke="midnightblue" d="M1344.34,-939.15C1354.41,-929.39 1367.59,-915.95 1378,-903 1396.69,-879.75 1401.45,-873.58 1415,-847 1427.07,-823.32 1430.15,-816.93 1436,-791 1462,-675.84 1464.26,-532.92 1464.17,-482.32"/>
<polygon fill="midnightblue" stroke="midnightblue" points="1467.67,-482.22 1464.12,-472.24 1460.67,-482.25 1467.67,-482.22"/>
</g>
<!-- Node137&#45;&gt;Node3 -->
<g id="edge171" class="edge">
<title>Node137&#45;&gt;Node3</title>
<path fill="none" stroke="midnightblue" d="M94.26,-883.37C75.9,-866.1 38,-825.21 38,-782 38,-782 38,-782 38,-461.5 38,-307.86 114.67,-258.89 252,-190 316.39,-157.7 806.77,-144.38 979.24,-140.66"/>
<polygon fill="midnightblue" stroke="midnightblue" points="979.48,-144.16 989.4,-140.44 979.33,-137.16 979.48,-144.16"/>
</g>
<!-- Node137&#45;&gt;Node109 -->
<g id="edge172" class="edge">
<title>Node137&#45;&gt;Node109</title>
<path fill="none" stroke="midnightblue" d="M123.93,-883.37C168.54,-864.05 276.58,-817.26 328.79,-794.65"/>
<polygon fill="midnightblue" stroke="midnightblue" points="330.38,-797.78 338.16,-790.59 327.59,-791.35 330.38,-797.78"/>
</g>
<!-- Node139&#45;&gt;Node2 -->
<g id="edge174" class="edge">
<title>Node139&#45;&gt;Node2</title>
<path fill="none" stroke="midnightblue" d="M1359.43,-1006.45C1305.19,-995.76 1236.89,-982.24 1176,-970 1169.77,-968.75 1163.23,-967.42 1156.75,-966.11"/>
<polygon fill="midnightblue" stroke="midnightblue" points="1157.16,-962.62 1146.66,-964.05 1155.76,-969.48 1157.16,-962.62"/>
</g>
<!-- Node139&#45;&gt;Node3 -->
<g id="edge175" class="edge">
<title>Node139&#45;&gt;Node3</title>
<path fill="none" stroke="midnightblue" d="M1357.44,-1007.64C1321.47,-998.96 1281.4,-986.74 1247,-970 1226.46,-960.01 1227.5,-946.73 1206,-939 975.3,-856.06 114,-1027.16 114,-782 114,-782 114,-782 114,-461.5 114,-307.3 187.41,-248.68 330,-190 446.81,-141.93 830.17,-138.45 979.09,-138.98"/>
<polygon fill="midnightblue" stroke="midnightblue" points="979.39,-142.48 989.4,-139.03 979.42,-135.48 979.39,-142.48"/>
</g>
<!-- Node139&#45;&gt;Node17 -->
<g id="edge176" class="edge">
<title>Node139&#45;&gt;Node17</title>
<path fill="none" stroke="midnightblue" d="M1452.44,-1006.29C1445.1,-986.88 1431.46,-957.52 1411,-939 1393.94,-923.56 1370.78,-912.87 1350.55,-905.8"/>
<polygon fill="midnightblue" stroke="midnightblue" points="1351.49,-902.42 1340.9,-902.61 1349.3,-909.07 1351.49,-902.42"/>
</g>
<!-- Node139&#45;&gt;Node31 -->
<g id="edge180" class="edge">
<title>Node139&#45;&gt;Node31</title>
<path fill="none" stroke="midnightblue" d="M1560.61,-1024.74C1755.95,-1021.44 2176.86,-1009.81 2316,-970 2376.6,-952.66 2399.32,-950.28 2441,-903 2574.78,-751.24 2565.68,-676.64 2604,-478 2617.1,-410.11 2626.47,-376.94 2582,-324 2568.49,-307.92 2548.51,-295.3 2531.9,-286.7"/>
<polygon fill="midnightblue" stroke="midnightblue" points="2533.1,-283.39 2522.58,-282.1 2530,-289.66 2533.1,-283.39"/>
</g>
<!-- Node139&#45;&gt;Node133 -->
<g id="edge177" class="edge">
<title>Node139&#45;&gt;Node133</title>
<path fill="none" stroke="midnightblue" d="M1545.93,-1006.46C1569.55,-998.1 1593.86,-986.36 1613,-970 1729.81,-870.17 1792.77,-686.77 1812.29,-621.41"/>
<polygon fill="midnightblue" stroke="midnightblue" points="1815.71,-622.21 1815.15,-611.63 1808.99,-620.25 1815.71,-622.21"/>
</g>
<!-- Node139&#45;&gt;Node119 -->
<g id="edge178" class="edge">
<title>Node139&#45;&gt;Node119</title>
<path fill="none" stroke="midnightblue" d="M1560.87,-1022.66C1809.66,-1013.16 2428,-980.8 2428,-894 2428,-894 2428,-894 2428,-836 2428,-672.67 2187.53,-620.22 2066.67,-604.17"/>
<polygon fill="midnightblue" stroke="midnightblue" points="2066.78,-600.66 2056.41,-602.86 2065.89,-607.6 2066.78,-600.66"/>
</g>
<!-- Node139&#45;&gt;Node134 -->
<g id="edge179" class="edge">
<title>Node139&#45;&gt;Node134</title>
<path fill="none" stroke="midnightblue" d="M1537.57,-1006.39C1557.4,-998.07 1577.01,-986.37 1591,-970 1613.62,-943.53 1610,-928.82 1610,-894 1610,-894 1610,-894 1610,-718.5 1610,-681.79 1601.36,-639.56 1595.73,-615.95"/>
<polygon fill="midnightblue" stroke="midnightblue" points="1599.13,-615.1 1593.33,-606.23 1592.33,-616.78 1599.13,-615.1"/>
</g>
<!-- Node139&#45;&gt;Node135 -->
<g id="edge181" class="edge">
<title>Node139&#45;&gt;Node135</title>
<path fill="none" stroke="midnightblue" d="M1475.99,-1006.36C1485.36,-995.54 1496.85,-982.26 1505.74,-971.98"/>
<polygon fill="midnightblue" stroke="midnightblue" points="1508.6,-974.03 1512.5,-964.17 1503.31,-969.45 1508.6,-974.03"/>
</g>
<!-- Node139&#45;&gt;Node136 -->
<g id="edge182" class="edge">
<title>Node139&#45;&gt;Node136</title>
<path fill="none" stroke="midnightblue" d="M1422.79,-1006.36C1404.49,-996.44 1382.38,-984.45 1364.22,-974.6"/>
<polygon fill="midnightblue" stroke="midnightblue" points="1365.59,-971.36 1355.13,-969.67 1362.25,-977.51 1365.59,-971.36"/>
</g>
<!-- Node139&#45;&gt;Node137 -->
<g id="edge183" class="edge">
<title>Node139&#45;&gt;Node137</title>
<path fill="none" stroke="midnightblue" d="M1357.42,-1012.17C1312.16,-1003.66 1259.02,-990.36 1214,-970 1192.53,-960.29 1193.29,-946.64 1171,-939 1066.36,-903.11 286.27,-911.87 176,-903 174.69,-902.89 173.37,-902.78 172.04,-902.67"/>
<polygon fill="midnightblue" stroke="midnightblue" points="172.01,-899.15 161.72,-901.67 171.34,-906.11 172.01,-899.15"/>
</g>
</g>
</svg>
