<?xml version="1.0" encoding="UTF-8" standalone="no"?>
<!DOCTYPE svg PUBLIC "-//W3C//DTD SVG 1.1//EN"
 "http://www.w3.org/Graphics/SVG/1.1/DTD/svg11.dtd">
<!-- Generated by graphviz version 2.43.0 (0)
 -->
<!-- Title: /home/runner/work/Documentation/Documentation/master/applications/GeoMechanicsApplication/custom_utilities/math_utilities.h Pages: 1 -->
<svg width="2434pt" height="374pt"
 viewBox="0.00 0.00 2433.50 374.00" xmlns="http://www.w3.org/2000/svg" xmlns:xlink="http://www.w3.org/1999/xlink">
<g id="graph0" class="graph" transform="scale(1 1) rotate(0) translate(4 370)">
<title>/home/runner/work/Documentation/Documentation/master/applications/GeoMechanicsApplication/custom_utilities/math_utilities.h</title>
<!-- Node1 -->
<g id="node1" class="node">
<title>Node1</title>
<g id="a_node1"><a xlink:title=" ">
<polygon fill="#bfbfbf" stroke="black" points="2169,-313.5 2169,-365.5 2363,-365.5 2363,-313.5 2169,-313.5"/>
<text text-anchor="start" x="2177" y="-353.5" font-family="Helvetica,sans-Serif" font-size="10.00">/home/runner/work/Documentation</text>
<text text-anchor="start" x="2177" y="-342.5" font-family="Helvetica,sans-Serif" font-size="10.00">/Documentation/master/applications</text>
<text text-anchor="start" x="2177" y="-331.5" font-family="Helvetica,sans-Serif" font-size="10.00">/GeoMechanicsApplication/custom</text>
<text text-anchor="middle" x="2266" y="-320.5" font-family="Helvetica,sans-Serif" font-size="10.00">_utilities/math_utilities.h</text>
</a>
</g>
</g>
<!-- Node2 -->
<g id="node2" class="node">
<title>Node2</title>
<g id="a_node2"><a xlink:href="../../dc/d25/kratos__export__api_8h.html" target="_top" xlink:title=" ">
<polygon fill="none" stroke="black" points="1975,-0.5 1975,-30.5 2103,-30.5 2103,-0.5 1975,-0.5"/>
<text text-anchor="start" x="1983" y="-18.5" font-family="Helvetica,sans-Serif" font-size="10.00">includes/kratos_export</text>
<text text-anchor="middle" x="2039" y="-7.5" font-family="Helvetica,sans-Serif" font-size="10.00">_api.h</text>
</a>
</g>
</g>
<!-- Node1&#45;&gt;Node2 -->
<g id="edge1" class="edge">
<title>Node1&#45;&gt;Node2</title>
<path fill="none" stroke="midnightblue" d="M2266,-313.19C2266,-286.62 2266,-243.62 2266,-206.5 2266,-206.5 2266,-206.5 2266,-143 2266,-71.66 2179.39,-40.18 2113.16,-26.55"/>
<polygon fill="midnightblue" stroke="midnightblue" points="2113.63,-23.07 2103.14,-24.59 2112.28,-29.94 2113.63,-23.07"/>
</g>
<!-- Node3 -->
<g id="node3" class="node">
<title>Node3</title>
<g id="a_node3"><a xlink:href="../../d9/d3e/ublas__interface_8h.html" target="_top" xlink:title=" ">
<polygon fill="none" stroke="black" points="1234,-257.5 1234,-276.5 1378,-276.5 1378,-257.5 1234,-257.5"/>
<text text-anchor="middle" x="1306" y="-264.5" font-family="Helvetica,sans-Serif" font-size="10.00">includes/ublas_interface.h</text>
</a>
</g>
</g>
<!-- Node1&#45;&gt;Node3 -->
<g id="edge2" class="edge">
<title>Node1&#45;&gt;Node3</title>
<path fill="none" stroke="midnightblue" d="M2168.67,-331.35C1979.41,-317.45 1564.91,-287.01 1388.31,-274.04"/>
<polygon fill="midnightblue" stroke="midnightblue" points="1388.53,-270.55 1378.3,-273.31 1388.02,-277.53 1388.53,-270.55"/>
</g>
<!-- Node29 -->
<g id="node29" class="node">
<title>Node29</title>
<g id="a_node29"><a xlink:title=" ">
<polygon fill="none" stroke="#bfbfbf" points="1491.5,-6 1491.5,-25 1538.5,-25 1538.5,-6 1491.5,-6"/>
<text text-anchor="middle" x="1515" y="-13" font-family="Helvetica,sans-Serif" font-size="10.00">vector</text>
</a>
</g>
</g>
<!-- Node1&#45;&gt;Node29 -->
<g id="edge45" class="edge">
<title>Node1&#45;&gt;Node29</title>
<path fill="none" stroke="midnightblue" d="M2169,-338C1735.87,-335.16 0,-316.87 0,-206.5 0,-206.5 0,-206.5 0,-143 0,-66.07 1256.95,-24.33 1481.03,-17.5"/>
<polygon fill="midnightblue" stroke="midnightblue" points="1481.31,-21 1491.2,-17.19 1481.1,-14 1481.31,-21"/>
</g>
<!-- Node32 -->
<g id="node32" class="node">
<title>Node32</title>
<g id="a_node32"><a xlink:title=" ">
<polygon fill="none" stroke="#bfbfbf" points="2294,-257.5 2294,-276.5 2358,-276.5 2358,-257.5 2294,-257.5"/>
<text text-anchor="middle" x="2326" y="-264.5" font-family="Helvetica,sans-Serif" font-size="10.00">algorithm</text>
</a>
</g>
</g>
<!-- Node1&#45;&gt;Node32 -->
<g id="edge43" class="edge">
<title>Node1&#45;&gt;Node32</title>
<path fill="none" stroke="midnightblue" d="M2287.32,-313.45C2295.51,-303.83 2304.64,-293.1 2311.97,-284.49"/>
<polygon fill="midnightblue" stroke="midnightblue" points="2314.78,-286.58 2318.6,-276.7 2309.45,-282.04 2314.78,-286.58"/>
</g>
<!-- Node33 -->
<g id="node33" class="node">
<title>Node33</title>
<g id="a_node33"><a xlink:title=" ">
<polygon fill="none" stroke="#bfbfbf" points="2376.5,-257.5 2376.5,-276.5 2425.5,-276.5 2425.5,-257.5 2376.5,-257.5"/>
<text text-anchor="middle" x="2401" y="-264.5" font-family="Helvetica,sans-Serif" font-size="10.00">cstdlib</text>
</a>
</g>
</g>
<!-- Node1&#45;&gt;Node33 -->
<g id="edge44" class="edge">
<title>Node1&#45;&gt;Node33</title>
<path fill="none" stroke="midnightblue" d="M2313.98,-313.45C2334.82,-302.56 2358.39,-290.25 2375.73,-281.2"/>
<polygon fill="midnightblue" stroke="midnightblue" points="2377.43,-284.26 2384.67,-276.53 2374.19,-278.05 2377.43,-284.26"/>
</g>
<!-- Node4 -->
<g id="node4" class="node">
<title>Node4</title>
<g id="a_node4"><a xlink:title=" ">
<polygon fill="none" stroke="#bfbfbf" points="1871,-6 1871,-25 1915,-25 1915,-6 1871,-6"/>
<text text-anchor="middle" x="1893" y="-13" font-family="Helvetica,sans-Serif" font-size="10.00">string</text>
</a>
</g>
</g>
<!-- Node3&#45;&gt;Node4 -->
<g id="edge3" class="edge">
<title>Node3&#45;&gt;Node4</title>
<path fill="none" stroke="midnightblue" d="M1378.17,-264.42C1534.3,-260.5 1893.27,-248.58 1941,-221 1974.66,-201.55 2046,-99.05 2024,-67 2012.45,-50.17 1959.95,-33.75 1925.02,-24.4"/>
<polygon fill="midnightblue" stroke="midnightblue" points="1925.81,-20.99 1915.25,-21.85 1924.04,-27.76 1925.81,-20.99"/>
</g>
<!-- Node5 -->
<g id="node5" class="node">
<title>Node5</title>
<g id="a_node5"><a xlink:title=" ">
<polygon fill="none" stroke="#bfbfbf" points="1577,-6 1577,-25 1637,-25 1637,-6 1577,-6"/>
<text text-anchor="middle" x="1607" y="-13" font-family="Helvetica,sans-Serif" font-size="10.00">iostream</text>
</a>
</g>
</g>
<!-- Node3&#45;&gt;Node5 -->
<g id="edge4" class="edge">
<title>Node3&#45;&gt;Node5</title>
<path fill="none" stroke="midnightblue" d="M1378.03,-261.61C1473.85,-255.03 1633.29,-241.17 1651,-221 1660.09,-210.65 1660.33,-200.14 1651,-190 1618.62,-154.79 1268.4,-165.61 1222,-154 1154.56,-137.12 1044.81,-118.06 1092,-67 1126.5,-29.67 1497.82,-39.09 1548,-31 1554.22,-30 1560.75,-28.67 1567.1,-27.23"/>
<polygon fill="midnightblue" stroke="midnightblue" points="1567.96,-30.63 1576.87,-24.9 1566.34,-23.82 1567.96,-30.63"/>
</g>
<!-- Node6 -->
<g id="node6" class="node">
<title>Node6</title>
<g id="a_node6"><a xlink:title=" ">
<polygon fill="none" stroke="#bfbfbf" points="1526,-190.5 1526,-220.5 1642,-220.5 1642,-190.5 1526,-190.5"/>
<text text-anchor="start" x="1534" y="-208.5" font-family="Helvetica,sans-Serif" font-size="10.00">boost/numeric/ublas</text>
<text text-anchor="middle" x="1584" y="-197.5" font-family="Helvetica,sans-Serif" font-size="10.00">/matrix.hpp</text>
</a>
</g>
</g>
<!-- Node3&#45;&gt;Node6 -->
<g id="edge5" class="edge">
<title>Node3&#45;&gt;Node6</title>
<path fill="none" stroke="midnightblue" d="M1345.83,-257.48C1390.12,-248 1462.43,-232.52 1515.78,-221.1"/>
<polygon fill="midnightblue" stroke="midnightblue" points="1516.8,-224.46 1525.84,-218.95 1515.33,-217.62 1516.8,-224.46"/>
</g>
<!-- Node7 -->
<g id="node7" class="node">
<title>Node7</title>
<g id="a_node7"><a xlink:title=" ">
<polygon fill="none" stroke="#bfbfbf" points="1816,-190.5 1816,-220.5 1932,-220.5 1932,-190.5 1816,-190.5"/>
<text text-anchor="start" x="1824" y="-208.5" font-family="Helvetica,sans-Serif" font-size="10.00">boost/numeric/ublas</text>
<text text-anchor="middle" x="1874" y="-197.5" font-family="Helvetica,sans-Serif" font-size="10.00">/vector.hpp</text>
</a>
</g>
</g>
<!-- Node3&#45;&gt;Node7 -->
<g id="edge6" class="edge">
<title>Node3&#45;&gt;Node7</title>
<path fill="none" stroke="midnightblue" d="M1378.1,-262.33C1473.74,-256.83 1647.94,-244.65 1806.07,-221.02"/>
<polygon fill="midnightblue" stroke="midnightblue" points="1806.61,-224.47 1815.98,-219.52 1805.57,-217.55 1806.61,-224.47"/>
</g>
<!-- Node8 -->
<g id="node8" class="node">
<title>Node8</title>
<g id="a_node8"><a xlink:title=" ">
<polygon fill="none" stroke="#bfbfbf" points="1988,-190.5 1988,-220.5 2104,-220.5 2104,-190.5 1988,-190.5"/>
<text text-anchor="start" x="1996" y="-208.5" font-family="Helvetica,sans-Serif" font-size="10.00">boost/numeric/ublas</text>
<text text-anchor="middle" x="2046" y="-197.5" font-family="Helvetica,sans-Serif" font-size="10.00">/vector_proxy.hpp</text>
</a>
</g>
</g>
<!-- Node3&#45;&gt;Node8 -->
<g id="edge7" class="edge">
<title>Node3&#45;&gt;Node8</title>
<path fill="none" stroke="midnightblue" d="M1378.47,-264.24C1501.43,-260.55 1758.56,-249.82 1974,-221 1975.28,-220.83 1976.57,-220.65 1977.87,-220.46"/>
<polygon fill="midnightblue" stroke="midnightblue" points="1978.62,-223.89 1987.95,-218.87 1977.53,-216.97 1978.62,-223.89"/>
</g>
<!-- Node9 -->
<g id="node9" class="node">
<title>Node9</title>
<g id="a_node9"><a xlink:title=" ">
<polygon fill="none" stroke="#bfbfbf" points="2122,-190.5 2122,-220.5 2238,-220.5 2238,-190.5 2122,-190.5"/>
<text text-anchor="start" x="2130" y="-208.5" font-family="Helvetica,sans-Serif" font-size="10.00">boost/numeric/ublas</text>
<text text-anchor="middle" x="2180" y="-197.5" font-family="Helvetica,sans-Serif" font-size="10.00">/vector_sparse.hpp</text>
</a>
</g>
</g>
<!-- Node3&#45;&gt;Node9 -->
<g id="edge8" class="edge">
<title>Node3&#45;&gt;Node9</title>
<path fill="none" stroke="midnightblue" d="M1378.15,-265.77C1517.99,-264.51 1835.7,-257.61 2111.78,-221.01"/>
<polygon fill="midnightblue" stroke="midnightblue" points="2112.55,-224.44 2121.99,-219.64 2111.62,-217.5 2112.55,-224.44"/>
</g>
<!-- Node10 -->
<g id="node10" class="node">
<title>Node10</title>
<g id="a_node10"><a xlink:title=" ">
<polygon fill="none" stroke="#bfbfbf" points="28,-190.5 28,-220.5 158,-220.5 158,-190.5 28,-190.5"/>
<text text-anchor="start" x="36" y="-208.5" font-family="Helvetica,sans-Serif" font-size="10.00">boost/numeric/ublas</text>
<text text-anchor="middle" x="93" y="-197.5" font-family="Helvetica,sans-Serif" font-size="10.00">/vector_expression.hpp</text>
</a>
</g>
</g>
<!-- Node3&#45;&gt;Node10 -->
<g id="edge9" class="edge">
<title>Node3&#45;&gt;Node10</title>
<path fill="none" stroke="midnightblue" d="M1233.94,-264.61C1020.73,-260.26 394.33,-245.79 168.41,-221.01"/>
<polygon fill="midnightblue" stroke="midnightblue" points="168.62,-217.51 158.28,-219.86 167.83,-224.46 168.62,-217.51"/>
</g>
<!-- Node11 -->
<g id="node11" class="node">
<title>Node11</title>
<g id="a_node11"><a xlink:title=" ">
<polygon fill="none" stroke="#bfbfbf" points="176,-190.5 176,-220.5 292,-220.5 292,-190.5 176,-190.5"/>
<text text-anchor="start" x="184" y="-208.5" font-family="Helvetica,sans-Serif" font-size="10.00">boost/numeric/ublas</text>
<text text-anchor="middle" x="234" y="-197.5" font-family="Helvetica,sans-Serif" font-size="10.00">/matrix_proxy.hpp</text>
</a>
</g>
</g>
<!-- Node3&#45;&gt;Node11 -->
<g id="edge10" class="edge">
<title>Node3&#45;&gt;Node11</title>
<path fill="none" stroke="midnightblue" d="M1233.69,-264.35C1038.06,-259.62 500.37,-244.93 302.03,-220.94"/>
<polygon fill="midnightblue" stroke="midnightblue" points="302.36,-217.45 292,-219.68 301.49,-224.4 302.36,-217.45"/>
</g>
<!-- Node12 -->
<g id="node12" class="node">
<title>Node12</title>
<g id="a_node12"><a xlink:title=" ">
<polygon fill="none" stroke="#bfbfbf" points="310,-190.5 310,-220.5 426,-220.5 426,-190.5 310,-190.5"/>
<text text-anchor="start" x="318" y="-208.5" font-family="Helvetica,sans-Serif" font-size="10.00">boost/numeric/ublas</text>
<text text-anchor="middle" x="368" y="-197.5" font-family="Helvetica,sans-Serif" font-size="10.00">/symmetric.hpp</text>
</a>
</g>
</g>
<!-- Node3&#45;&gt;Node12 -->
<g id="edge11" class="edge">
<title>Node3&#45;&gt;Node12</title>
<path fill="none" stroke="midnightblue" d="M1233.94,-266.2C1086.05,-265.76 737.5,-260.34 436.25,-221.01"/>
<polygon fill="midnightblue" stroke="midnightblue" points="436.38,-217.49 426,-219.65 435.46,-224.43 436.38,-217.49"/>
</g>
<!-- Node13 -->
<g id="node13" class="node">
<title>Node13</title>
<g id="a_node13"><a xlink:title=" ">
<polygon fill="none" stroke="#bfbfbf" points="444,-190.5 444,-220.5 560,-220.5 560,-190.5 444,-190.5"/>
<text text-anchor="start" x="452" y="-208.5" font-family="Helvetica,sans-Serif" font-size="10.00">boost/numeric/ublas</text>
<text text-anchor="middle" x="502" y="-197.5" font-family="Helvetica,sans-Serif" font-size="10.00">/hermitian.hpp</text>
</a>
</g>
</g>
<!-- Node3&#45;&gt;Node13 -->
<g id="edge12" class="edge">
<title>Node3&#45;&gt;Node13</title>
<path fill="none" stroke="midnightblue" d="M1233.98,-265.23C1103.41,-263.04 818.86,-254.63 569.96,-220.98"/>
<polygon fill="midnightblue" stroke="midnightblue" points="570.39,-217.51 560.01,-219.62 569.44,-224.44 570.39,-217.51"/>
</g>
<!-- Node14 -->
<g id="node14" class="node">
<title>Node14</title>
<g id="a_node14"><a xlink:title=" ">
<polygon fill="none" stroke="#bfbfbf" points="578,-190.5 578,-220.5 694,-220.5 694,-190.5 578,-190.5"/>
<text text-anchor="start" x="586" y="-208.5" font-family="Helvetica,sans-Serif" font-size="10.00">boost/numeric/ublas</text>
<text text-anchor="middle" x="636" y="-197.5" font-family="Helvetica,sans-Serif" font-size="10.00">/banded.hpp</text>
</a>
</g>
</g>
<!-- Node3&#45;&gt;Node14 -->
<g id="edge13" class="edge">
<title>Node3&#45;&gt;Node14</title>
<path fill="none" stroke="midnightblue" d="M1233.71,-263.84C1122.07,-259.8 900.89,-248.94 703.97,-221"/>
<polygon fill="midnightblue" stroke="midnightblue" points="704.41,-217.53 694.02,-219.57 703.42,-224.46 704.41,-217.53"/>
</g>
<!-- Node15 -->
<g id="node15" class="node">
<title>Node15</title>
<g id="a_node15"><a xlink:title=" ">
<polygon fill="none" stroke="#bfbfbf" points="712,-190.5 712,-220.5 828,-220.5 828,-190.5 712,-190.5"/>
<text text-anchor="start" x="720" y="-208.5" font-family="Helvetica,sans-Serif" font-size="10.00">boost/numeric/ublas</text>
<text text-anchor="middle" x="770" y="-197.5" font-family="Helvetica,sans-Serif" font-size="10.00">/triangular.hpp</text>
</a>
</g>
</g>
<!-- Node3&#45;&gt;Node15 -->
<g id="edge14" class="edge">
<title>Node3&#45;&gt;Node15</title>
<path fill="none" stroke="midnightblue" d="M1233.76,-261.71C1143.45,-255.76 983.99,-243.31 838.06,-221.04"/>
<polygon fill="midnightblue" stroke="midnightblue" points="838.44,-217.56 828.03,-219.49 837.38,-224.48 838.44,-217.56"/>
</g>
<!-- Node16 -->
<g id="node16" class="node">
<title>Node16</title>
<g id="a_node16"><a xlink:title=" ">
<polygon fill="none" stroke="#bfbfbf" points="846,-190.5 846,-220.5 962,-220.5 962,-190.5 846,-190.5"/>
<text text-anchor="start" x="854" y="-208.5" font-family="Helvetica,sans-Serif" font-size="10.00">boost/numeric/ublas</text>
<text text-anchor="middle" x="904" y="-197.5" font-family="Helvetica,sans-Serif" font-size="10.00">/lu.hpp</text>
</a>
</g>
</g>
<!-- Node3&#45;&gt;Node16 -->
<g id="edge15" class="edge">
<title>Node3&#45;&gt;Node16</title>
<path fill="none" stroke="midnightblue" d="M1233.86,-257.99C1168.1,-250.31 1068.08,-237.66 971.94,-221.08"/>
<polygon fill="midnightblue" stroke="midnightblue" points="972.5,-217.63 962.05,-219.36 971.3,-224.52 972.5,-217.63"/>
</g>
<!-- Node17 -->
<g id="node17" class="node">
<title>Node17</title>
<g id="a_node17"><a xlink:title=" ">
<polygon fill="none" stroke="#bfbfbf" points="980,-190.5 980,-220.5 1096,-220.5 1096,-190.5 980,-190.5"/>
<text text-anchor="start" x="988" y="-208.5" font-family="Helvetica,sans-Serif" font-size="10.00">boost/numeric/ublas</text>
<text text-anchor="middle" x="1038" y="-197.5" font-family="Helvetica,sans-Serif" font-size="10.00">/io.hpp</text>
</a>
</g>
</g>
<!-- Node3&#45;&gt;Node17 -->
<g id="edge16" class="edge">
<title>Node3&#45;&gt;Node17</title>
<path fill="none" stroke="midnightblue" d="M1267.6,-257.48C1225.54,-248.14 1157.25,-232.98 1106.06,-221.61"/>
<polygon fill="midnightblue" stroke="midnightblue" points="1106.59,-218.14 1096.06,-219.39 1105.07,-224.98 1106.59,-218.14"/>
</g>
<!-- Node18 -->
<g id="node18" class="node">
<title>Node18</title>
<g id="a_node18"><a xlink:title=" ">
<polygon fill="none" stroke="#bfbfbf" points="1114,-190.5 1114,-220.5 1230,-220.5 1230,-190.5 1114,-190.5"/>
<text text-anchor="start" x="1122" y="-208.5" font-family="Helvetica,sans-Serif" font-size="10.00">boost/numeric/ublas</text>
<text text-anchor="middle" x="1172" y="-197.5" font-family="Helvetica,sans-Serif" font-size="10.00">/matrix_sparse.hpp</text>
</a>
</g>
</g>
<!-- Node3&#45;&gt;Node18 -->
<g id="edge17" class="edge">
<title>Node3&#45;&gt;Node18</title>
<path fill="none" stroke="midnightblue" d="M1286.8,-257.48C1267.63,-248.96 1237.58,-235.62 1213.03,-224.72"/>
<polygon fill="midnightblue" stroke="midnightblue" points="1214.14,-221.38 1203.58,-220.52 1211.3,-227.78 1214.14,-221.38"/>
</g>
<!-- Node19 -->
<g id="node19" class="node">
<title>Node19</title>
<g id="a_node19"><a xlink:title=" ">
<polygon fill="none" stroke="#bfbfbf" points="1248,-190.5 1248,-220.5 1364,-220.5 1364,-190.5 1248,-190.5"/>
<text text-anchor="start" x="1256" y="-208.5" font-family="Helvetica,sans-Serif" font-size="10.00">boost/numeric/ublas</text>
<text text-anchor="middle" x="1306" y="-197.5" font-family="Helvetica,sans-Serif" font-size="10.00">/operation.hpp</text>
</a>
</g>
</g>
<!-- Node3&#45;&gt;Node19 -->
<g id="edge18" class="edge">
<title>Node3&#45;&gt;Node19</title>
<path fill="none" stroke="midnightblue" d="M1306,-257.48C1306,-250.47 1306,-240.19 1306,-230.7"/>
<polygon fill="midnightblue" stroke="midnightblue" points="1309.5,-230.52 1306,-220.52 1302.5,-230.52 1309.5,-230.52"/>
</g>
<!-- Node20 -->
<g id="node20" class="node">
<title>Node20</title>
<g id="a_node20"><a xlink:title=" ">
<polygon fill="none" stroke="#bfbfbf" points="1382.5,-190.5 1382.5,-220.5 1507.5,-220.5 1507.5,-190.5 1382.5,-190.5"/>
<text text-anchor="start" x="1390.5" y="-208.5" font-family="Helvetica,sans-Serif" font-size="10.00">boost/numeric/ublas</text>
<text text-anchor="middle" x="1445" y="-197.5" font-family="Helvetica,sans-Serif" font-size="10.00">/operation_sparse.hpp</text>
</a>
</g>
</g>
<!-- Node3&#45;&gt;Node20 -->
<g id="edge19" class="edge">
<title>Node3&#45;&gt;Node20</title>
<path fill="none" stroke="midnightblue" d="M1325.92,-257.48C1345.88,-248.93 1377.25,-235.5 1402.78,-224.57"/>
<polygon fill="midnightblue" stroke="midnightblue" points="1404.42,-227.68 1412.24,-220.52 1401.67,-221.24 1404.42,-227.68"/>
</g>
<!-- Node21 -->
<g id="node21" class="node">
<title>Node21</title>
<g id="a_node21"><a xlink:href="../../df/d67/define_8h.html" target="_top" xlink:title=" ">
<polygon fill="none" stroke="black" points="1698.5,-196 1698.5,-215 1797.5,-215 1797.5,-196 1698.5,-196"/>
<text text-anchor="middle" x="1748" y="-203" font-family="Helvetica,sans-Serif" font-size="10.00">includes/define.h</text>
</a>
</g>
</g>
<!-- Node3&#45;&gt;Node21 -->
<g id="edge20" class="edge">
<title>Node3&#45;&gt;Node21</title>
<path fill="none" stroke="midnightblue" d="M1378.08,-259.67C1454.39,-252.45 1578.17,-239.24 1684,-221 1690.26,-219.92 1696.83,-218.62 1703.28,-217.25"/>
<polygon fill="midnightblue" stroke="midnightblue" points="1704.24,-220.63 1713.26,-215.06 1702.74,-213.79 1704.24,-220.63"/>
</g>
<!-- Node21&#45;&gt;Node2 -->
<g id="edge23" class="edge">
<title>Node21&#45;&gt;Node2</title>
<path fill="none" stroke="midnightblue" d="M1781.61,-195.96C1847.94,-178.41 1992.05,-136.73 2024,-98 2037.12,-82.1 2040.25,-58.47 2040.47,-40.74"/>
<polygon fill="midnightblue" stroke="midnightblue" points="2043.96,-40.53 2040.29,-30.59 2036.96,-40.65 2043.96,-40.53"/>
</g>
<!-- Node22 -->
<g id="node22" class="node">
<title>Node22</title>
<g id="a_node22"><a xlink:title=" ">
<polygon fill="none" stroke="#bfbfbf" points="1421.5,-73 1421.5,-92 1486.5,-92 1486.5,-73 1421.5,-73"/>
<text text-anchor="middle" x="1454" y="-80" font-family="Helvetica,sans-Serif" font-size="10.00">stdexcept</text>
</a>
</g>
</g>
<!-- Node21&#45;&gt;Node22 -->
<g id="edge21" class="edge">
<title>Node21&#45;&gt;Node22</title>
<path fill="none" stroke="midnightblue" d="M1727.33,-195.99C1676.32,-175 1544.26,-120.65 1484.35,-95.99"/>
<polygon fill="midnightblue" stroke="midnightblue" points="1485.62,-92.73 1475.04,-92.16 1482.96,-99.2 1485.62,-92.73"/>
</g>
<!-- Node23 -->
<g id="node23" class="node">
<title>Node23</title>
<g id="a_node23"><a xlink:title=" ">
<polygon fill="none" stroke="#bfbfbf" points="1959,-73 1959,-92 2015,-92 2015,-73 1959,-73"/>
<text text-anchor="middle" x="1987" y="-80" font-family="Helvetica,sans-Serif" font-size="10.00">sstream</text>
</a>
</g>
</g>
<!-- Node21&#45;&gt;Node23 -->
<g id="edge22" class="edge">
<title>Node21&#45;&gt;Node23</title>
<path fill="none" stroke="midnightblue" d="M1764.81,-195.99C1805.85,-175.21 1911.42,-121.77 1960.8,-96.76"/>
<polygon fill="midnightblue" stroke="midnightblue" points="1962.55,-99.8 1969.89,-92.16 1959.39,-93.56 1962.55,-99.8"/>
</g>
<!-- Node24 -->
<g id="node24" class="node">
<title>Node24</title>
<g id="a_node24"><a xlink:href="../../d9/dc0/smart__pointers_8h.html" target="_top" xlink:title=" ">
<polygon fill="none" stroke="black" points="1231.5,-134.5 1231.5,-153.5 1374.5,-153.5 1374.5,-134.5 1231.5,-134.5"/>
<text text-anchor="middle" x="1303" y="-141.5" font-family="Helvetica,sans-Serif" font-size="10.00">includes/smart_pointers.h</text>
</a>
</g>
</g>
<!-- Node21&#45;&gt;Node24 -->
<g id="edge24" class="edge">
<title>Node21&#45;&gt;Node24</title>
<path fill="none" stroke="midnightblue" d="M1713.26,-195.93C1703.81,-193.79 1693.54,-191.64 1684,-190 1581.44,-172.38 1462.16,-159.5 1384.76,-152.15"/>
<polygon fill="midnightblue" stroke="midnightblue" points="1384.88,-148.64 1374.6,-151.19 1384.22,-155.61 1384.88,-148.64"/>
</g>
<!-- Node28 -->
<g id="node28" class="node">
<title>Node28</title>
<g id="a_node28"><a xlink:href="../../dd/d2d/exception_8h.html" target="_top" xlink:title=" ">
<polygon fill="none" stroke="black" points="1689.5,-134.5 1689.5,-153.5 1806.5,-153.5 1806.5,-134.5 1689.5,-134.5"/>
<text text-anchor="middle" x="1748" y="-141.5" font-family="Helvetica,sans-Serif" font-size="10.00">includes/exception.h</text>
</a>
</g>
</g>
<!-- Node21&#45;&gt;Node28 -->
<g id="edge29" class="edge">
<title>Node21&#45;&gt;Node28</title>
<path fill="none" stroke="midnightblue" d="M1748,-195.98C1748,-187.58 1748,-174.48 1748,-163.66"/>
<polygon fill="midnightblue" stroke="midnightblue" points="1751.5,-163.51 1748,-153.51 1744.5,-163.51 1751.5,-163.51"/>
</g>
<!-- Node24&#45;&gt;Node5 -->
<g id="edge25" class="edge">
<title>Node24&#45;&gt;Node5</title>
<path fill="none" stroke="midnightblue" d="M1317.75,-134.36C1332.35,-125.64 1355.18,-111.57 1374,-98 1391.68,-85.25 1392.56,-76.85 1412,-67 1418.99,-63.46 1511.89,-40.1 1566.89,-26.42"/>
<polygon fill="midnightblue" stroke="midnightblue" points="1567.83,-29.79 1576.69,-23.99 1566.15,-23 1567.83,-29.79"/>
</g>
<!-- Node25 -->
<g id="node25" class="node">
<title>Node25</title>
<g id="a_node25"><a xlink:title=" ">
<polygon fill="none" stroke="#bfbfbf" points="1101.5,-73 1101.5,-92 1146.5,-92 1146.5,-73 1101.5,-73"/>
<text text-anchor="middle" x="1124" y="-80" font-family="Helvetica,sans-Serif" font-size="10.00">utility</text>
</a>
</g>
</g>
<!-- Node24&#45;&gt;Node25 -->
<g id="edge26" class="edge">
<title>Node24&#45;&gt;Node25</title>
<path fill="none" stroke="midnightblue" d="M1270.77,-134.42C1240.72,-126.12 1194.82,-112.67 1156,-98 1154.39,-97.39 1152.75,-96.74 1151.1,-96.07"/>
<polygon fill="midnightblue" stroke="midnightblue" points="1152.34,-92.79 1141.77,-92.04 1149.56,-99.22 1152.34,-92.79"/>
</g>
<!-- Node26 -->
<g id="node26" class="node">
<title>Node26</title>
<g id="a_node26"><a xlink:title=" ">
<polygon fill="none" stroke="#bfbfbf" points="1165,-73 1165,-92 1223,-92 1223,-73 1165,-73"/>
<text text-anchor="middle" x="1194" y="-80" font-family="Helvetica,sans-Serif" font-size="10.00">memory</text>
</a>
</g>
</g>
<!-- Node24&#45;&gt;Node26 -->
<g id="edge27" class="edge">
<title>Node24&#45;&gt;Node26</title>
<path fill="none" stroke="midnightblue" d="M1287.38,-134.48C1269.41,-124.67 1239.68,-108.43 1218.59,-96.92"/>
<polygon fill="midnightblue" stroke="midnightblue" points="1220.04,-93.73 1209.59,-92.01 1216.69,-99.87 1220.04,-93.73"/>
</g>
<!-- Node27 -->
<g id="node27" class="node">
<title>Node27</title>
<g id="a_node27"><a xlink:title=" ">
<polygon fill="none" stroke="#bfbfbf" points="1241,-67.5 1241,-97.5 1365,-97.5 1365,-67.5 1241,-67.5"/>
<text text-anchor="start" x="1249" y="-85.5" font-family="Helvetica,sans-Serif" font-size="10.00">intrusive_ptr/intrusive</text>
<text text-anchor="middle" x="1303" y="-74.5" font-family="Helvetica,sans-Serif" font-size="10.00">_ptr.hpp</text>
</a>
</g>
</g>
<!-- Node24&#45;&gt;Node27 -->
<g id="edge28" class="edge">
<title>Node24&#45;&gt;Node27</title>
<path fill="none" stroke="midnightblue" d="M1303,-134.48C1303,-127.47 1303,-117.19 1303,-107.7"/>
<polygon fill="midnightblue" stroke="midnightblue" points="1306.5,-107.52 1303,-97.52 1299.5,-107.52 1306.5,-107.52"/>
</g>
<!-- Node28&#45;&gt;Node2 -->
<g id="edge35" class="edge">
<title>Node28&#45;&gt;Node2</title>
<path fill="none" stroke="midnightblue" d="M1783.52,-134.46C1813.78,-126.63 1858.1,-113.87 1895,-98 1896.44,-97.38 1963.32,-59.46 2005.41,-35.57"/>
<polygon fill="midnightblue" stroke="midnightblue" points="2007.28,-38.54 2014.25,-30.56 2003.82,-32.45 2007.28,-38.54"/>
</g>
<!-- Node28&#45;&gt;Node4 -->
<g id="edge31" class="edge">
<title>Node28&#45;&gt;Node4</title>
<path fill="none" stroke="midnightblue" d="M1806.64,-134.65C1830.63,-128.36 1856.76,-117.33 1874,-98 1889.31,-80.84 1892.95,-53.75 1893.5,-35.57"/>
<polygon fill="midnightblue" stroke="midnightblue" points="1897,-35.34 1893.51,-25.33 1890,-35.33 1897,-35.34"/>
</g>
<!-- Node28&#45;&gt;Node5 -->
<g id="edge32" class="edge">
<title>Node28&#45;&gt;Node5</title>
<path fill="none" stroke="midnightblue" d="M1741.44,-134.42C1729.93,-119.69 1704.96,-89.02 1680,-67 1664.4,-53.24 1644.96,-39.95 1630.06,-30.46"/>
<polygon fill="midnightblue" stroke="midnightblue" points="1631.78,-27.41 1621.45,-25.07 1628.07,-33.34 1631.78,-27.41"/>
</g>
<!-- Node28&#45;&gt;Node22 -->
<g id="edge30" class="edge">
<title>Node28&#45;&gt;Node22</title>
<path fill="none" stroke="midnightblue" d="M1690.2,-134.46C1639.88,-126.56 1565.15,-113.68 1501,-98 1497.19,-97.07 1493.23,-96 1489.31,-94.89"/>
<polygon fill="midnightblue" stroke="midnightblue" points="1490.29,-91.53 1479.7,-92.03 1488.29,-98.24 1490.29,-91.53"/>
</g>
<!-- Node28&#45;&gt;Node23 -->
<g id="edge33" class="edge">
<title>Node28&#45;&gt;Node23</title>
<path fill="none" stroke="midnightblue" d="M1791.38,-134.49C1831.53,-126.29 1892.72,-112.95 1945,-98 1947.95,-97.16 1950.99,-96.23 1954.03,-95.26"/>
<polygon fill="midnightblue" stroke="midnightblue" points="1955.21,-98.55 1963.6,-92.08 1953,-91.91 1955.21,-98.55"/>
</g>
<!-- Node28&#45;&gt;Node29 -->
<g id="edge34" class="edge">
<title>Node28&#45;&gt;Node29</title>
<path fill="none" stroke="midnightblue" d="M1689.45,-137.72C1633.88,-131.51 1555.71,-119.24 1534,-98 1517.32,-81.68 1514.09,-53.74 1514,-35.2"/>
<polygon fill="midnightblue" stroke="midnightblue" points="1517.5,-35.14 1514.26,-25.06 1510.51,-34.96 1517.5,-35.14"/>
</g>
<!-- Node30 -->
<g id="node30" class="node">
<title>Node30</title>
<g id="a_node30"><a xlink:href="../../da/da6/code__location_8h.html" target="_top" xlink:title=" ">
<polygon fill="none" stroke="black" points="1727.5,-73 1727.5,-92 1864.5,-92 1864.5,-73 1727.5,-73"/>
<text text-anchor="middle" x="1796" y="-80" font-family="Helvetica,sans-Serif" font-size="10.00">includes/code_location.h</text>
</a>
</g>
</g>
<!-- Node28&#45;&gt;Node30 -->
<g id="edge36" class="edge">
<title>Node28&#45;&gt;Node30</title>
<path fill="none" stroke="midnightblue" d="M1754.88,-134.48C1762.15,-125.46 1773.8,-111.02 1782.84,-99.81"/>
<polygon fill="midnightblue" stroke="midnightblue" points="1785.58,-101.99 1789.14,-92.01 1780.13,-97.59 1785.58,-101.99"/>
</g>
<!-- Node31 -->
<g id="node31" class="node">
<title>Node31</title>
<g id="a_node31"><a xlink:href="../../d9/d06/stl__vector__io_8h.html" target="_top" xlink:title=" ">
<polygon fill="none" stroke="black" points="1543,-73 1543,-92 1671,-92 1671,-73 1543,-73"/>
<text text-anchor="middle" x="1607" y="-80" font-family="Helvetica,sans-Serif" font-size="10.00">utilities/stl_vector_io.h</text>
</a>
</g>
</g>
<!-- Node28&#45;&gt;Node31 -->
<g id="edge40" class="edge">
<title>Node28&#45;&gt;Node31</title>
<path fill="none" stroke="midnightblue" d="M1727.8,-134.48C1703.93,-124.4 1664,-107.55 1636.63,-96"/>
<polygon fill="midnightblue" stroke="midnightblue" points="1637.74,-92.67 1627.16,-92.01 1635.02,-99.12 1637.74,-92.67"/>
</g>
<!-- Node30&#45;&gt;Node2 -->
<g id="edge39" class="edge">
<title>Node30&#45;&gt;Node2</title>
<path fill="none" stroke="midnightblue" d="M1828.02,-72.94C1865.68,-62.86 1929.07,-45.9 1976.56,-33.2"/>
<polygon fill="midnightblue" stroke="midnightblue" points="1977.68,-36.52 1986.44,-30.56 1975.88,-29.76 1977.68,-36.52"/>
</g>
<!-- Node30&#45;&gt;Node4 -->
<g id="edge37" class="edge">
<title>Node30&#45;&gt;Node4</title>
<path fill="none" stroke="midnightblue" d="M1809.08,-72.73C1825.15,-61.96 1852.63,-43.55 1871.75,-30.74"/>
<polygon fill="midnightblue" stroke="midnightblue" points="1873.77,-33.6 1880.13,-25.13 1869.87,-27.79 1873.77,-33.6"/>
</g>
<!-- Node30&#45;&gt;Node5 -->
<g id="edge38" class="edge">
<title>Node30&#45;&gt;Node5</title>
<path fill="none" stroke="midnightblue" d="M1770.9,-72.87C1737.63,-61.42 1678.76,-41.18 1641.38,-28.32"/>
<polygon fill="midnightblue" stroke="midnightblue" points="1642.5,-25.01 1631.9,-25.06 1640.22,-31.63 1642.5,-25.01"/>
</g>
<!-- Node31&#45;&gt;Node5 -->
<g id="edge41" class="edge">
<title>Node31&#45;&gt;Node5</title>
<path fill="none" stroke="midnightblue" d="M1607,-72.73C1607,-63.18 1607,-47.62 1607,-35.28"/>
<polygon fill="midnightblue" stroke="midnightblue" points="1610.5,-35.13 1607,-25.13 1603.5,-35.13 1610.5,-35.13"/>
</g>
<!-- Node31&#45;&gt;Node29 -->
<g id="edge42" class="edge">
<title>Node31&#45;&gt;Node29</title>
<path fill="none" stroke="midnightblue" d="M1594.59,-72.73C1579.42,-62.01 1553.52,-43.72 1535.4,-30.91"/>
<polygon fill="midnightblue" stroke="midnightblue" points="1537.4,-28.04 1527.21,-25.13 1533.36,-33.76 1537.4,-28.04"/>
</g>
</g>
</svg>
