<?xml version="1.0" encoding="UTF-8" standalone="no"?>
<!DOCTYPE svg PUBLIC "-//W3C//DTD SVG 1.1//EN"
 "http://www.w3.org/Graphics/SVG/1.1/DTD/svg11.dtd">
<!-- Generated by graphviz version 2.43.0 (0)
 -->
<!-- Title: /home/runner/work/Documentation/Documentation/master/applications/MeshingApplication/custom_includes/gauss_point_item.h Pages: 1 -->
<svg width="686pt" height="239pt"
 viewBox="0.00 0.00 686.00 239.00" xmlns="http://www.w3.org/2000/svg" xmlns:xlink="http://www.w3.org/1999/xlink">
<g id="graph0" class="graph" transform="scale(1 1) rotate(0) translate(4 235)">
<title>/home/runner/work/Documentation/Documentation/master/applications/MeshingApplication/custom_includes/gauss_point_item.h</title>
<!-- Node1 -->
<g id="node1" class="node">
<title>Node1</title>
<g id="a_node1"><a xlink:title=" ">
<polygon fill="#bfbfbf" stroke="black" points="261,-178.5 261,-230.5 461,-230.5 461,-178.5 261,-178.5"/>
<text text-anchor="start" x="269" y="-218.5" font-family="Helvetica,sans-Serif" font-size="10.00">/home/runner/work/Documentation</text>
<text text-anchor="start" x="269" y="-207.5" font-family="Helvetica,sans-Serif" font-size="10.00">/Documentation/master/applications</text>
<text text-anchor="start" x="269" y="-196.5" font-family="Helvetica,sans-Serif" font-size="10.00">/MeshingApplication/custom_includes</text>
<text text-anchor="middle" x="361" y="-185.5" font-family="Helvetica,sans-Serif" font-size="10.00">/gauss_point_item.h</text>
</a>
</g>
</g>
<!-- Node2 -->
<g id="node2" class="node">
<title>Node2</title>
<g id="a_node2"><a xlink:href="../../dd/d5b/internal__variables__interpolation__process_8h.html" target="_top" xlink:title=" ">
<polygon fill="none" stroke="black" points="247.5,-89.5 247.5,-141.5 474.5,-141.5 474.5,-89.5 247.5,-89.5"/>
<text text-anchor="start" x="255.5" y="-129.5" font-family="Helvetica,sans-Serif" font-size="10.00">/home/runner/work/Documentation</text>
<text text-anchor="start" x="255.5" y="-118.5" font-family="Helvetica,sans-Serif" font-size="10.00">/Documentation/master/applications</text>
<text text-anchor="start" x="255.5" y="-107.5" font-family="Helvetica,sans-Serif" font-size="10.00">/MeshingApplication/custom_processes</text>
<text text-anchor="middle" x="361" y="-96.5" font-family="Helvetica,sans-Serif" font-size="10.00">/internal_variables_interpolation_process.h</text>
</a>
</g>
</g>
<!-- Node1&#45;&gt;Node2 -->
<g id="edge1" class="edge">
<title>Node1&#45;&gt;Node2</title>
<path fill="none" stroke="midnightblue" d="M361,-168.19C361,-159.28 361,-149.9 361,-141.61"/>
<polygon fill="midnightblue" stroke="midnightblue" points="357.5,-168.34 361,-178.34 364.5,-168.34 357.5,-168.34"/>
</g>
<!-- Node3 -->
<g id="node3" class="node">
<title>Node3</title>
<g id="a_node3"><a xlink:href="../../d0/ddf/internal__variables__interpolation__process_8cpp.html" target="_top" xlink:title=" ">
<polygon fill="none" stroke="black" points="0,-0.5 0,-52.5 238,-52.5 238,-0.5 0,-0.5"/>
<text text-anchor="start" x="8" y="-40.5" font-family="Helvetica,sans-Serif" font-size="10.00">/home/runner/work/Documentation</text>
<text text-anchor="start" x="8" y="-29.5" font-family="Helvetica,sans-Serif" font-size="10.00">/Documentation/master/applications</text>
<text text-anchor="start" x="8" y="-18.5" font-family="Helvetica,sans-Serif" font-size="10.00">/MeshingApplication/custom_processes</text>
<text text-anchor="middle" x="119" y="-7.5" font-family="Helvetica,sans-Serif" font-size="10.00">/internal_variables_interpolation_process.cpp</text>
</a>
</g>
</g>
<!-- Node2&#45;&gt;Node3 -->
<g id="edge2" class="edge">
<title>Node2&#45;&gt;Node3</title>
<path fill="none" stroke="midnightblue" d="M281.72,-86C251.66,-75.19 217.7,-62.98 188.6,-52.52"/>
<polygon fill="midnightblue" stroke="midnightblue" points="280.73,-89.36 291.33,-89.45 283.1,-82.78 280.73,-89.36"/>
</g>
<!-- Node4 -->
<g id="node4" class="node">
<title>Node4</title>
<g id="a_node4"><a xlink:href="../../d1/dc3/mmg__process_8cpp.html" target="_top" xlink:title=" ">
<polygon fill="none" stroke="black" points="256.5,-0.5 256.5,-52.5 465.5,-52.5 465.5,-0.5 256.5,-0.5"/>
<text text-anchor="start" x="264.5" y="-40.5" font-family="Helvetica,sans-Serif" font-size="10.00">/home/runner/work/Documentation</text>
<text text-anchor="start" x="264.5" y="-29.5" font-family="Helvetica,sans-Serif" font-size="10.00">/Documentation/master/applications</text>
<text text-anchor="start" x="264.5" y="-18.5" font-family="Helvetica,sans-Serif" font-size="10.00">/MeshingApplication/custom_processes</text>
<text text-anchor="middle" x="361" y="-7.5" font-family="Helvetica,sans-Serif" font-size="10.00">/mmg/mmg_process.cpp</text>
</a>
</g>
</g>
<!-- Node2&#45;&gt;Node4 -->
<g id="edge3" class="edge">
<title>Node2&#45;&gt;Node4</title>
<path fill="none" stroke="midnightblue" d="M361,-79.19C361,-70.28 361,-60.9 361,-52.61"/>
<polygon fill="midnightblue" stroke="midnightblue" points="357.5,-79.34 361,-89.34 364.5,-79.34 357.5,-79.34"/>
</g>
<!-- Node5 -->
<g id="node5" class="node">
<title>Node5</title>
<g id="a_node5"><a xlink:href="../../da/dea/applications_2_meshing_application_2custom__python_2add__processes__to__python_8cpp.html" target="_top" xlink:title=" ">
<polygon fill="none" stroke="black" points="484,-0.5 484,-52.5 678,-52.5 678,-0.5 484,-0.5"/>
<text text-anchor="start" x="492" y="-40.5" font-family="Helvetica,sans-Serif" font-size="10.00">/home/runner/work/Documentation</text>
<text text-anchor="start" x="492" y="-29.5" font-family="Helvetica,sans-Serif" font-size="10.00">/Documentation/master/applications</text>
<text text-anchor="start" x="492" y="-18.5" font-family="Helvetica,sans-Serif" font-size="10.00">/MeshingApplication/custom_python</text>
<text text-anchor="middle" x="581" y="-7.5" font-family="Helvetica,sans-Serif" font-size="10.00">/add_processes_to_python.cpp</text>
</a>
</g>
</g>
<!-- Node2&#45;&gt;Node5 -->
<g id="edge4" class="edge">
<title>Node2&#45;&gt;Node5</title>
<path fill="none" stroke="midnightblue" d="M433.78,-85.72C460.93,-74.98 491.51,-62.89 517.73,-52.52"/>
<polygon fill="midnightblue" stroke="midnightblue" points="432.35,-82.52 424.34,-89.45 434.92,-89.03 432.35,-82.52"/>
</g>
</g>
</svg>
