<?xml version="1.0" encoding="UTF-8" standalone="no"?>
<!DOCTYPE svg PUBLIC "-//W3C//DTD SVG 1.1//EN"
 "http://www.w3.org/Graphics/SVG/1.1/DTD/svg11.dtd">
<!-- Generated by graphviz version 2.43.0 (0)
 -->
<!-- Title: Kratos::ConstitutiveLawDimension Pages: 1 -->
<svg width="193pt" height="259pt"
 viewBox="0.00 0.00 193.00 259.00" xmlns="http://www.w3.org/2000/svg" xmlns:xlink="http://www.w3.org/1999/xlink">
<g id="graph0" class="graph" transform="scale(1 1) rotate(0) translate(4 255)">
<title>Kratos::ConstitutiveLawDimension</title>
<!-- Node1 -->
<g id="node1" class="node">
<title>Node1</title>
<g id="a_node1"><a xlink:title=" ">
<polygon fill="#bfbfbf" stroke="black" points="0,-138.5 0,-250.5 185,-250.5 185,-138.5 0,-138.5"/>
<text text-anchor="middle" x="92.5" y="-238.5" font-family="Helvetica,sans-Serif" font-size="10.00">Kratos::ConstitutiveLawDimension</text>
<polyline fill="none" stroke="black" points="0,-231.5 185,-231.5 "/>
<text text-anchor="middle" x="92.5" y="-219.5" font-family="Helvetica,sans-Serif" font-size="10.00"> </text>
<polyline fill="none" stroke="black" points="0,-212.5 185,-212.5 "/>
<text text-anchor="start" x="8" y="-200.5" font-family="Helvetica,sans-Serif" font-size="10.00">+ ~ConstitutiveLawDimension()</text>
<text text-anchor="start" x="8" y="-189.5" font-family="Helvetica,sans-Serif" font-size="10.00">+ FillConstitutiveMatrix()</text>
<text text-anchor="start" x="8" y="-178.5" font-family="Helvetica,sans-Serif" font-size="10.00">+ Clone()</text>
<text text-anchor="start" x="8" y="-167.5" font-family="Helvetica,sans-Serif" font-size="10.00">+ GetStrainSize()</text>
<text text-anchor="start" x="8" y="-156.5" font-family="Helvetica,sans-Serif" font-size="10.00">+ GetDimension()</text>
<text text-anchor="start" x="8" y="-145.5" font-family="Helvetica,sans-Serif" font-size="10.00">+ GetSpatialType()</text>
</a>
</g>
</g>
<!-- Node2 -->
<g id="node2" class="node">
<title>Node2</title>
<g id="a_node2"><a xlink:href="../../db/d34/class_kratos_1_1_plane_strain.html" target="_top" xlink:title=" ">
<polygon fill="none" stroke="black" points="22.5,-0.5 22.5,-101.5 162.5,-101.5 162.5,-0.5 22.5,-0.5"/>
<text text-anchor="middle" x="92.5" y="-89.5" font-family="Helvetica,sans-Serif" font-size="10.00">Kratos::PlaneStrain</text>
<polyline fill="none" stroke="black" points="22.5,-82.5 162.5,-82.5 "/>
<text text-anchor="middle" x="92.5" y="-70.5" font-family="Helvetica,sans-Serif" font-size="10.00"> </text>
<polyline fill="none" stroke="black" points="22.5,-63.5 162.5,-63.5 "/>
<text text-anchor="start" x="30.5" y="-51.5" font-family="Helvetica,sans-Serif" font-size="10.00">+ FillConstitutiveMatrix()</text>
<text text-anchor="start" x="30.5" y="-40.5" font-family="Helvetica,sans-Serif" font-size="10.00">+ Clone()</text>
<text text-anchor="start" x="30.5" y="-29.5" font-family="Helvetica,sans-Serif" font-size="10.00">+ GetStrainSize()</text>
<text text-anchor="start" x="30.5" y="-18.5" font-family="Helvetica,sans-Serif" font-size="10.00">+ GetDimension()</text>
<text text-anchor="start" x="30.5" y="-7.5" font-family="Helvetica,sans-Serif" font-size="10.00">+ GetSpatialType()</text>
</a>
</g>
</g>
<!-- Node1&#45;&gt;Node2 -->
<g id="edge1" class="edge">
<title>Node1&#45;&gt;Node2</title>
<path fill="none" stroke="midnightblue" d="M92.5,-128.34C92.5,-119.38 92.5,-110.29 92.5,-101.66"/>
<polygon fill="none" stroke="midnightblue" points="89,-128.39 92.5,-138.39 96,-128.39 89,-128.39"/>
</g>
</g>
</svg>
