<?xml version="1.0" encoding="UTF-8" standalone="no"?>
<!DOCTYPE svg PUBLIC "-//W3C//DTD SVG 1.1//EN"
 "http://www.w3.org/Graphics/SVG/1.1/DTD/svg11.dtd">
<!-- Generated by graphviz version 2.43.0 (0)
 -->
<!-- Title: /home/runner/work/Documentation/Documentation/master/applications/StructuralMechanicsApplication/custom_elements/small_displacement.h Pages: 1 -->
<svg width="2020pt" height="772pt"
 viewBox="0.00 0.00 2019.50 772.00" xmlns="http://www.w3.org/2000/svg" xmlns:xlink="http://www.w3.org/1999/xlink">
<g id="graph0" class="graph" transform="scale(1 1) rotate(0) translate(4 768)">
<title>/home/runner/work/Documentation/Documentation/master/applications/StructuralMechanicsApplication/custom_elements/small_displacement.h</title>
<!-- Node1 -->
<g id="node1" class="node">
<title>Node1</title>
<g id="a_node1"><a xlink:title=" ">
<polygon fill="#bfbfbf" stroke="black" points="1111.5,-711.5 1111.5,-763.5 1328.5,-763.5 1328.5,-711.5 1111.5,-711.5"/>
<text text-anchor="start" x="1119.5" y="-751.5" font-family="Helvetica,sans-Serif" font-size="10.00">/home/runner/work/Documentation</text>
<text text-anchor="start" x="1119.5" y="-740.5" font-family="Helvetica,sans-Serif" font-size="10.00">/Documentation/master/applications</text>
<text text-anchor="start" x="1119.5" y="-729.5" font-family="Helvetica,sans-Serif" font-size="10.00">/StructuralMechanicsApplication</text>
<text text-anchor="middle" x="1220" y="-718.5" font-family="Helvetica,sans-Serif" font-size="10.00">/custom_elements/small_displacement.h</text>
</a>
</g>
</g>
<!-- Node2 -->
<g id="node2" class="node">
<title>Node2</title>
<g id="a_node2"><a xlink:href="../../d1/d67/axisym__small__displacement_8h.html" target="_top" xlink:title=" ">
<polygon fill="none" stroke="black" points="684,-611.5 684,-663.5 942,-663.5 942,-611.5 684,-611.5"/>
<text text-anchor="start" x="692" y="-651.5" font-family="Helvetica,sans-Serif" font-size="10.00">/home/runner/work/Documentation</text>
<text text-anchor="start" x="692" y="-640.5" font-family="Helvetica,sans-Serif" font-size="10.00">/Documentation/master/applications</text>
<text text-anchor="start" x="692" y="-629.5" font-family="Helvetica,sans-Serif" font-size="10.00">/StructuralMechanicsApplication</text>
<text text-anchor="middle" x="813" y="-618.5" font-family="Helvetica,sans-Serif" font-size="10.00">/custom_elements/axisym_small_displacement.h</text>
</a>
</g>
</g>
<!-- Node1&#45;&gt;Node2 -->
<g id="edge1" class="edge">
<title>Node1&#45;&gt;Node2</title>
<path fill="none" stroke="midnightblue" d="M1101.44,-709.44C1055.91,-698.9 1003.49,-686.59 956,-675 941.07,-671.35 925.28,-667.41 909.85,-663.51"/>
<polygon fill="midnightblue" stroke="midnightblue" points="1100.81,-712.89 1111.34,-711.73 1102.39,-706.07 1100.81,-712.89"/>
</g>
<!-- Node4 -->
<g id="node4" class="node">
<title>Node4</title>
<g id="a_node4"><a xlink:href="../../da/d9a/structural__mechanics__application_8h.html" target="_top" xlink:title=" ">
<polygon fill="none" stroke="black" points="786,-506 786,-558 980,-558 980,-506 786,-506"/>
<text text-anchor="start" x="794" y="-546" font-family="Helvetica,sans-Serif" font-size="10.00">/home/runner/work/Documentation</text>
<text text-anchor="start" x="794" y="-535" font-family="Helvetica,sans-Serif" font-size="10.00">/Documentation/master/applications</text>
<text text-anchor="start" x="794" y="-524" font-family="Helvetica,sans-Serif" font-size="10.00">/StructuralMechanicsApplication</text>
<text text-anchor="middle" x="883" y="-513" font-family="Helvetica,sans-Serif" font-size="10.00">/structural_mechanics_application.h</text>
</a>
</g>
</g>
<!-- Node1&#45;&gt;Node4 -->
<g id="edge39" class="edge">
<title>Node1&#45;&gt;Node4</title>
<path fill="none" stroke="midnightblue" d="M1101.51,-724.57C1062.4,-715.82 1020.81,-700.77 989,-675 959.97,-651.47 973.04,-630.17 951,-600 939.95,-584.88 925.41,-570.05 912.61,-558.21"/>
<polygon fill="midnightblue" stroke="midnightblue" points="1100.89,-728.02 1111.39,-726.66 1102.34,-721.17 1100.89,-728.02"/>
</g>
<!-- Node16 -->
<g id="node16" class="node">
<title>Node16</title>
<g id="a_node16"><a xlink:href="../../d8/df8/small__displacement__simp__element_8h.html" target="_top" xlink:title=" ">
<polygon fill="none" stroke="black" points="1116,-400.5 1116,-463.5 1324,-463.5 1324,-400.5 1116,-400.5"/>
<text text-anchor="start" x="1124" y="-451.5" font-family="Helvetica,sans-Serif" font-size="10.00">/home/runner/work/Documentation</text>
<text text-anchor="start" x="1124" y="-440.5" font-family="Helvetica,sans-Serif" font-size="10.00">/Documentation/master/applications</text>
<text text-anchor="start" x="1124" y="-429.5" font-family="Helvetica,sans-Serif" font-size="10.00">/TopologyOptimizationApplication</text>
<text text-anchor="start" x="1124" y="-418.5" font-family="Helvetica,sans-Serif" font-size="10.00">/custom_elements/small_displacement</text>
<text text-anchor="middle" x="1220" y="-407.5" font-family="Helvetica,sans-Serif" font-size="10.00">_simp_element.h</text>
</a>
</g>
</g>
<!-- Node1&#45;&gt;Node16 -->
<g id="edge40" class="edge">
<title>Node1&#45;&gt;Node16</title>
<path fill="none" stroke="midnightblue" d="M1220,-701.31C1220,-641.44 1220,-520.74 1220,-463.92"/>
<polygon fill="midnightblue" stroke="midnightblue" points="1216.5,-701.41 1220,-711.41 1223.5,-701.41 1216.5,-701.41"/>
</g>
<!-- Node27 -->
<g id="node27" class="node">
<title>Node27</title>
<g id="a_node27"><a xlink:href="../../d6/d6f/small__displacement_8cpp.html" target="_top" xlink:title=" ">
<polygon fill="none" stroke="black" points="1248,-611.5 1248,-663.5 1476,-663.5 1476,-611.5 1248,-611.5"/>
<text text-anchor="start" x="1256" y="-651.5" font-family="Helvetica,sans-Serif" font-size="10.00">/home/runner/work/Documentation</text>
<text text-anchor="start" x="1256" y="-640.5" font-family="Helvetica,sans-Serif" font-size="10.00">/Documentation/master/applications</text>
<text text-anchor="start" x="1256" y="-629.5" font-family="Helvetica,sans-Serif" font-size="10.00">/StructuralMechanicsApplication</text>
<text text-anchor="middle" x="1362" y="-618.5" font-family="Helvetica,sans-Serif" font-size="10.00">/custom_elements/small_displacement.cpp</text>
</a>
</g>
</g>
<!-- Node1&#45;&gt;Node27 -->
<g id="edge33" class="edge">
<title>Node1&#45;&gt;Node27</title>
<path fill="none" stroke="midnightblue" d="M1265.01,-705.43C1284.54,-691.96 1307.11,-676.38 1325.56,-663.65"/>
<polygon fill="midnightblue" stroke="midnightblue" points="1262.81,-702.7 1256.57,-711.26 1266.79,-708.46 1262.81,-702.7"/>
</g>
<!-- Node28 -->
<g id="node28" class="node">
<title>Node28</title>
<g id="a_node28"><a xlink:href="../../d9/dbf/z__strain__driven__2p5__small__displacement_8h.html" target="_top" xlink:title=" ">
<polygon fill="none" stroke="black" points="998,-606 998,-669 1192,-669 1192,-606 998,-606"/>
<text text-anchor="start" x="1006" y="-657" font-family="Helvetica,sans-Serif" font-size="10.00">/home/runner/work/Documentation</text>
<text text-anchor="start" x="1006" y="-646" font-family="Helvetica,sans-Serif" font-size="10.00">/Documentation/master/applications</text>
<text text-anchor="start" x="1006" y="-635" font-family="Helvetica,sans-Serif" font-size="10.00">/StructuralMechanicsApplication</text>
<text text-anchor="start" x="1006" y="-624" font-family="Helvetica,sans-Serif" font-size="10.00">/custom_elements/z_strain_driven</text>
<text text-anchor="middle" x="1095" y="-613" font-family="Helvetica,sans-Serif" font-size="10.00">_2p5_small_displacement.h</text>
</a>
</g>
</g>
<!-- Node1&#45;&gt;Node28 -->
<g id="edge34" class="edge">
<title>Node1&#45;&gt;Node28</title>
<path fill="none" stroke="midnightblue" d="M1179.9,-705.06C1165.28,-693.6 1148.77,-680.65 1134.22,-669.25"/>
<polygon fill="midnightblue" stroke="midnightblue" points="1177.78,-707.85 1187.81,-711.26 1182.1,-702.34 1177.78,-707.85"/>
</g>
<!-- Node30 -->
<g id="node30" class="node">
<title>Node30</title>
<g id="a_node30"><a xlink:href="../../dd/d34/adjoint__finite__difference__base__element_8cpp.html" target="_top" xlink:title=" ">
<polygon fill="none" stroke="black" points="1494,-600.5 1494,-674.5 1688,-674.5 1688,-600.5 1494,-600.5"/>
<text text-anchor="start" x="1502" y="-662.5" font-family="Helvetica,sans-Serif" font-size="10.00">/home/runner/work/Documentation</text>
<text text-anchor="start" x="1502" y="-651.5" font-family="Helvetica,sans-Serif" font-size="10.00">/Documentation/master/applications</text>
<text text-anchor="start" x="1502" y="-640.5" font-family="Helvetica,sans-Serif" font-size="10.00">/StructuralMechanicsApplication</text>
<text text-anchor="start" x="1502" y="-629.5" font-family="Helvetica,sans-Serif" font-size="10.00">/custom_response_functions/adjoint</text>
<text text-anchor="start" x="1502" y="-618.5" font-family="Helvetica,sans-Serif" font-size="10.00">_elements/adjoint_finite_difference</text>
<text text-anchor="middle" x="1591" y="-607.5" font-family="Helvetica,sans-Serif" font-size="10.00">_base_element.cpp</text>
</a>
</g>
</g>
<!-- Node1&#45;&gt;Node30 -->
<g id="edge37" class="edge">
<title>Node1&#45;&gt;Node30</title>
<path fill="none" stroke="midnightblue" d="M1338.64,-711.72C1384.62,-701.4 1437.53,-688.64 1485,-675 1487.9,-674.17 1490.84,-673.3 1493.8,-672.41"/>
<polygon fill="midnightblue" stroke="midnightblue" points="1337.63,-708.36 1328.63,-713.95 1339.16,-715.19 1337.63,-708.36"/>
</g>
<!-- Node31 -->
<g id="node31" class="node">
<title>Node31</title>
<g id="a_node31"><a xlink:href="../../d5/d6b/adjoint__finite__difference__small__displacement__element_8cpp.html" target="_top" xlink:title=" ">
<polygon fill="none" stroke="black" points="1706,-600.5 1706,-674.5 1900,-674.5 1900,-600.5 1706,-600.5"/>
<text text-anchor="start" x="1714" y="-662.5" font-family="Helvetica,sans-Serif" font-size="10.00">/home/runner/work/Documentation</text>
<text text-anchor="start" x="1714" y="-651.5" font-family="Helvetica,sans-Serif" font-size="10.00">/Documentation/master/applications</text>
<text text-anchor="start" x="1714" y="-640.5" font-family="Helvetica,sans-Serif" font-size="10.00">/StructuralMechanicsApplication</text>
<text text-anchor="start" x="1714" y="-629.5" font-family="Helvetica,sans-Serif" font-size="10.00">/custom_response_functions/adjoint</text>
<text text-anchor="start" x="1714" y="-618.5" font-family="Helvetica,sans-Serif" font-size="10.00">_elements/adjoint_finite_difference</text>
<text text-anchor="middle" x="1803" y="-607.5" font-family="Helvetica,sans-Serif" font-size="10.00">_small_displacement_element.cpp</text>
</a>
</g>
</g>
<!-- Node1&#45;&gt;Node31 -->
<g id="edge38" class="edge">
<title>Node1&#45;&gt;Node31</title>
<path fill="none" stroke="midnightblue" d="M1338.79,-727.94C1436.03,-719.32 1576.67,-703.17 1697,-675 1699.94,-674.31 1702.91,-673.57 1705.9,-672.79"/>
<polygon fill="midnightblue" stroke="midnightblue" points="1338.29,-724.47 1328.63,-728.82 1338.9,-731.44 1338.29,-724.47"/>
</g>
<!-- Node3 -->
<g id="node3" class="node">
<title>Node3</title>
<g id="a_node3"><a xlink:href="../../d9/d6e/axisym__small__displacement_8cpp.html" target="_top" xlink:title=" ">
<polygon fill="none" stroke="black" points="498.5,-506 498.5,-558 767.5,-558 767.5,-506 498.5,-506"/>
<text text-anchor="start" x="506.5" y="-546" font-family="Helvetica,sans-Serif" font-size="10.00">/home/runner/work/Documentation</text>
<text text-anchor="start" x="506.5" y="-535" font-family="Helvetica,sans-Serif" font-size="10.00">/Documentation/master/applications</text>
<text text-anchor="start" x="506.5" y="-524" font-family="Helvetica,sans-Serif" font-size="10.00">/StructuralMechanicsApplication</text>
<text text-anchor="middle" x="633" y="-513" font-family="Helvetica,sans-Serif" font-size="10.00">/custom_elements/axisym_small_displacement.cpp</text>
</a>
</g>
</g>
<!-- Node2&#45;&gt;Node3 -->
<g id="edge2" class="edge">
<title>Node2&#45;&gt;Node3</title>
<path fill="none" stroke="midnightblue" d="M760.59,-606.37C733.89,-591.01 701.8,-572.56 676.48,-558"/>
<polygon fill="midnightblue" stroke="midnightblue" points="759.01,-609.49 769.43,-611.45 762.5,-603.43 759.01,-609.49"/>
</g>
<!-- Node2&#45;&gt;Node4 -->
<g id="edge3" class="edge">
<title>Node2&#45;&gt;Node4</title>
<path fill="none" stroke="midnightblue" d="M835.55,-603.15C845.43,-588.55 856.82,-571.71 865.97,-558.18"/>
<polygon fill="midnightblue" stroke="midnightblue" points="832.65,-601.2 829.95,-611.45 838.45,-605.12 832.65,-601.2"/>
</g>
<!-- Node5 -->
<g id="node5" class="node">
<title>Node5</title>
<g id="a_node5"><a xlink:href="../../d0/d34/kratos__internals_8h.html" target="_top" xlink:title=" ">
<polygon fill="none" stroke="black" points="212,-406 212,-458 406,-458 406,-406 212,-406"/>
<text text-anchor="start" x="220" y="-446" font-family="Helvetica,sans-Serif" font-size="10.00">/home/runner/work/Documentation</text>
<text text-anchor="start" x="220" y="-435" font-family="Helvetica,sans-Serif" font-size="10.00">/Documentation/master/applications</text>
<text text-anchor="start" x="220" y="-424" font-family="Helvetica,sans-Serif" font-size="10.00">/CSharpWrapperApplication/custom</text>
<text text-anchor="middle" x="309" y="-413" font-family="Helvetica,sans-Serif" font-size="10.00">_includes/kratos_internals.h</text>
</a>
</g>
</g>
<!-- Node4&#45;&gt;Node5 -->
<g id="edge4" class="edge">
<title>Node4&#45;&gt;Node5</title>
<path fill="none" stroke="midnightblue" d="M791.11,-503.49C786.01,-502.24 780.95,-501.07 776,-500 649.49,-472.74 501.25,-453.61 406.3,-442.95"/>
<polygon fill="midnightblue" stroke="midnightblue" points="790.37,-506.91 800.93,-505.97 792.09,-500.13 790.37,-506.91"/>
</g>
<!-- Node10 -->
<g id="node10" class="node">
<title>Node10</title>
<g id="a_node10"><a xlink:href="../../d4/d4c/dgeosettlement_8h.html" target="_top" xlink:title=" ">
<polygon fill="none" stroke="black" points="638,-406 638,-458 832,-458 832,-406 638,-406"/>
<text text-anchor="start" x="646" y="-446" font-family="Helvetica,sans-Serif" font-size="10.00">/home/runner/work/Documentation</text>
<text text-anchor="start" x="646" y="-435" font-family="Helvetica,sans-Serif" font-size="10.00">/Documentation/master/applications</text>
<text text-anchor="start" x="646" y="-424" font-family="Helvetica,sans-Serif" font-size="10.00">/GeoMechanicsApplication/custom</text>
<text text-anchor="middle" x="735" y="-413" font-family="Helvetica,sans-Serif" font-size="10.00">_workflows/dgeosettlement.h</text>
</a>
</g>
</g>
<!-- Node4&#45;&gt;Node10 -->
<g id="edge9" class="edge">
<title>Node4&#45;&gt;Node10</title>
<path fill="none" stroke="midnightblue" d="M836.36,-500.12C815.95,-486.6 792.3,-470.94 772.98,-458.15"/>
<polygon fill="midnightblue" stroke="midnightblue" points="834.62,-503.16 844.89,-505.76 838.48,-497.32 834.62,-503.16"/>
</g>
<!-- Node15 -->
<g id="node15" class="node">
<title>Node15</title>
<g id="a_node15"><a xlink:href="../../db/d93/structural__mechanics__application_8cpp.html" target="_top" xlink:title=" ">
<polygon fill="none" stroke="black" points="849.5,-406 849.5,-458 1052.5,-458 1052.5,-406 849.5,-406"/>
<text text-anchor="start" x="857.5" y="-446" font-family="Helvetica,sans-Serif" font-size="10.00">/home/runner/work/Documentation</text>
<text text-anchor="start" x="857.5" y="-435" font-family="Helvetica,sans-Serif" font-size="10.00">/Documentation/master/applications</text>
<text text-anchor="start" x="857.5" y="-424" font-family="Helvetica,sans-Serif" font-size="10.00">/StructuralMechanicsApplication</text>
<text text-anchor="middle" x="951" y="-413" font-family="Helvetica,sans-Serif" font-size="10.00">/structural_mechanics_application.cpp</text>
</a>
</g>
</g>
<!-- Node4&#45;&gt;Node15 -->
<g id="edge14" class="edge">
<title>Node4&#45;&gt;Node15</title>
<path fill="none" stroke="midnightblue" d="M906.46,-497.19C915.35,-484.38 925.31,-470.03 933.55,-458.15"/>
<polygon fill="midnightblue" stroke="midnightblue" points="903.34,-495.55 900.51,-505.76 909.09,-499.54 903.34,-495.55"/>
</g>
<!-- Node4&#45;&gt;Node16 -->
<g id="edge15" class="edge">
<title>Node4&#45;&gt;Node16</title>
<path fill="none" stroke="midnightblue" d="M978.27,-503.13C981.89,-502.07 985.48,-501.03 989,-500 1030.49,-487.91 1076.2,-474.65 1115.92,-463.14"/>
<polygon fill="midnightblue" stroke="midnightblue" points="977.24,-499.78 968.62,-505.94 979.2,-506.5 977.24,-499.78"/>
</g>
<!-- Node6 -->
<g id="node6" class="node">
<title>Node6</title>
<g id="a_node6"><a xlink:href="../../d0/d29/kratos__wrapper_8h.html" target="_top" xlink:title=" ">
<polygon fill="none" stroke="black" points="212,-311.5 212,-363.5 406,-363.5 406,-311.5 212,-311.5"/>
<text text-anchor="start" x="220" y="-351.5" font-family="Helvetica,sans-Serif" font-size="10.00">/home/runner/work/Documentation</text>
<text text-anchor="start" x="220" y="-340.5" font-family="Helvetica,sans-Serif" font-size="10.00">/Documentation/master/applications</text>
<text text-anchor="start" x="220" y="-329.5" font-family="Helvetica,sans-Serif" font-size="10.00">/CSharpWrapperApplication/custom</text>
<text text-anchor="middle" x="309" y="-318.5" font-family="Helvetica,sans-Serif" font-size="10.00">_includes/kratos_wrapper.h</text>
</a>
</g>
</g>
<!-- Node5&#45;&gt;Node6 -->
<g id="edge5" class="edge">
<title>Node5&#45;&gt;Node6</title>
<path fill="none" stroke="midnightblue" d="M309,-395.49C309,-384.91 309,-373.53 309,-363.75"/>
<polygon fill="midnightblue" stroke="midnightblue" points="305.5,-395.72 309,-405.72 312.5,-395.72 305.5,-395.72"/>
</g>
<!-- Node9 -->
<g id="node9" class="node">
<title>Node9</title>
<g id="a_node9"><a xlink:href="../../d5/d45/kratos__internals_8cpp.html" target="_top" xlink:title=" ">
<polygon fill="none" stroke="black" points="0,-311.5 0,-363.5 194,-363.5 194,-311.5 0,-311.5"/>
<text text-anchor="start" x="8" y="-351.5" font-family="Helvetica,sans-Serif" font-size="10.00">/home/runner/work/Documentation</text>
<text text-anchor="start" x="8" y="-340.5" font-family="Helvetica,sans-Serif" font-size="10.00">/Documentation/master/applications</text>
<text text-anchor="start" x="8" y="-329.5" font-family="Helvetica,sans-Serif" font-size="10.00">/CSharpWrapperApplication/custom</text>
<text text-anchor="middle" x="97" y="-318.5" font-family="Helvetica,sans-Serif" font-size="10.00">_sources/kratos_internals.cpp</text>
</a>
</g>
</g>
<!-- Node5&#45;&gt;Node9 -->
<g id="edge8" class="edge">
<title>Node5&#45;&gt;Node9</title>
<path fill="none" stroke="midnightblue" d="M242.24,-401.87C214.04,-389.57 181.52,-375.38 154.42,-363.55"/>
<polygon fill="midnightblue" stroke="midnightblue" points="241.06,-405.18 251.63,-405.97 243.86,-398.76 241.06,-405.18"/>
</g>
<!-- Node7 -->
<g id="node7" class="node">
<title>Node7</title>
<g id="a_node7"><a xlink:href="../../da/df4/kratos__wrapper_8cpp.html" target="_top" xlink:title=" ">
<polygon fill="none" stroke="black" points="305,-211.5 305,-263.5 499,-263.5 499,-211.5 305,-211.5"/>
<text text-anchor="start" x="313" y="-251.5" font-family="Helvetica,sans-Serif" font-size="10.00">/home/runner/work/Documentation</text>
<text text-anchor="start" x="313" y="-240.5" font-family="Helvetica,sans-Serif" font-size="10.00">/Documentation/master/applications</text>
<text text-anchor="start" x="313" y="-229.5" font-family="Helvetica,sans-Serif" font-size="10.00">/CSharpWrapperApplication/custom</text>
<text text-anchor="middle" x="402" y="-218.5" font-family="Helvetica,sans-Serif" font-size="10.00">_sources/kratos_wrapper.cpp</text>
</a>
</g>
</g>
<!-- Node6&#45;&gt;Node7 -->
<g id="edge6" class="edge">
<title>Node6&#45;&gt;Node7</title>
<path fill="none" stroke="midnightblue" d="M340.04,-303.79C352.46,-290.71 366.54,-275.87 378.13,-263.65"/>
<polygon fill="midnightblue" stroke="midnightblue" points="337.29,-301.6 332.95,-311.26 342.37,-306.42 337.29,-301.6"/>
</g>
<!-- Node8 -->
<g id="node8" class="node">
<title>Node8</title>
<g id="a_node8"><a xlink:href="../../d9/df3/_c_sharp_wrapper_application_2external__bindings_2kratos__external__bindings_8cpp.html" target="_top" xlink:title=" ">
<polygon fill="none" stroke="black" points="77.5,-211.5 77.5,-263.5 286.5,-263.5 286.5,-211.5 77.5,-211.5"/>
<text text-anchor="start" x="85.5" y="-251.5" font-family="Helvetica,sans-Serif" font-size="10.00">/home/runner/work/Documentation</text>
<text text-anchor="start" x="85.5" y="-240.5" font-family="Helvetica,sans-Serif" font-size="10.00">/Documentation/master/applications</text>
<text text-anchor="start" x="85.5" y="-229.5" font-family="Helvetica,sans-Serif" font-size="10.00">/CSharpWrapperApplication/external</text>
<text text-anchor="middle" x="182" y="-218.5" font-family="Helvetica,sans-Serif" font-size="10.00">_bindings/kratos_external_bindings.cpp</text>
</a>
</g>
</g>
<!-- Node6&#45;&gt;Node8 -->
<g id="edge7" class="edge">
<title>Node6&#45;&gt;Node8</title>
<path fill="none" stroke="midnightblue" d="M268.04,-304.89C250.74,-291.54 230.87,-276.21 214.59,-263.65"/>
<polygon fill="midnightblue" stroke="midnightblue" points="266.24,-307.92 276.29,-311.26 270.52,-302.38 266.24,-307.92"/>
</g>
<!-- Node11 -->
<g id="node11" class="node">
<title>Node11</title>
<g id="a_node11"><a xlink:href="../../dc/d5d/custom__workflow__factory_8cpp.html" target="_top" xlink:title=" ">
<polygon fill="none" stroke="black" points="852,-311.5 852,-363.5 1070,-363.5 1070,-311.5 852,-311.5"/>
<text text-anchor="start" x="860" y="-351.5" font-family="Helvetica,sans-Serif" font-size="10.00">/home/runner/work/Documentation</text>
<text text-anchor="start" x="860" y="-340.5" font-family="Helvetica,sans-Serif" font-size="10.00">/Documentation/master/applications</text>
<text text-anchor="start" x="860" y="-329.5" font-family="Helvetica,sans-Serif" font-size="10.00">/GeoMechanicsApplication/custom</text>
<text text-anchor="middle" x="961" y="-318.5" font-family="Helvetica,sans-Serif" font-size="10.00">_workflows/custom_workflow_factory.cpp</text>
</a>
</g>
</g>
<!-- Node10&#45;&gt;Node11 -->
<g id="edge10" class="edge">
<title>Node10&#45;&gt;Node11</title>
<path fill="none" stroke="midnightblue" d="M805.77,-402.03C835.93,-389.69 870.77,-375.43 899.79,-363.55"/>
<polygon fill="midnightblue" stroke="midnightblue" points="804.09,-398.94 796.16,-405.97 806.74,-405.42 804.09,-398.94"/>
</g>
<!-- Node12 -->
<g id="node12" class="node">
<title>Node12</title>
<g id="a_node12"><a xlink:href="../../d3/d51/dgeosettlement_8cpp.html" target="_top" xlink:title=" ">
<polygon fill="none" stroke="black" points="424,-311.5 424,-363.5 618,-363.5 618,-311.5 424,-311.5"/>
<text text-anchor="start" x="432" y="-351.5" font-family="Helvetica,sans-Serif" font-size="10.00">/home/runner/work/Documentation</text>
<text text-anchor="start" x="432" y="-340.5" font-family="Helvetica,sans-Serif" font-size="10.00">/Documentation/master/applications</text>
<text text-anchor="start" x="432" y="-329.5" font-family="Helvetica,sans-Serif" font-size="10.00">/GeoMechanicsApplication/custom</text>
<text text-anchor="middle" x="521" y="-318.5" font-family="Helvetica,sans-Serif" font-size="10.00">_workflows/dgeosettlement.cpp</text>
</a>
</g>
</g>
<!-- Node10&#45;&gt;Node12 -->
<g id="edge11" class="edge">
<title>Node10&#45;&gt;Node12</title>
<path fill="none" stroke="midnightblue" d="M667.62,-401.87C639.15,-389.57 606.32,-375.38 578.96,-363.55"/>
<polygon fill="midnightblue" stroke="midnightblue" points="666.52,-405.21 677.09,-405.97 669.3,-398.79 666.52,-405.21"/>
</g>
<!-- Node13 -->
<g id="node13" class="node">
<title>Node13</title>
<g id="a_node13"><a xlink:href="../../d4/d24/kratos__external__bindings_8h.html" target="_top" xlink:title=" ">
<polygon fill="none" stroke="black" points="636,-311.5 636,-363.5 834,-363.5 834,-311.5 636,-311.5"/>
<text text-anchor="start" x="644" y="-351.5" font-family="Helvetica,sans-Serif" font-size="10.00">/home/runner/work/Documentation</text>
<text text-anchor="start" x="644" y="-340.5" font-family="Helvetica,sans-Serif" font-size="10.00">/Documentation/master/applications</text>
<text text-anchor="start" x="644" y="-329.5" font-family="Helvetica,sans-Serif" font-size="10.00">/GeoMechanicsApplication/external</text>
<text text-anchor="middle" x="735" y="-318.5" font-family="Helvetica,sans-Serif" font-size="10.00">_bindings/kratos_external_bindings.h</text>
</a>
</g>
</g>
<!-- Node10&#45;&gt;Node13 -->
<g id="edge12" class="edge">
<title>Node10&#45;&gt;Node13</title>
<path fill="none" stroke="midnightblue" d="M735,-395.49C735,-384.91 735,-373.53 735,-363.75"/>
<polygon fill="midnightblue" stroke="midnightblue" points="731.5,-395.72 735,-405.72 738.5,-395.72 731.5,-395.72"/>
</g>
<!-- Node14 -->
<g id="node14" class="node">
<title>Node14</title>
<g id="a_node14"><a xlink:href="../../dd/d6d/_geo_mechanics_application_2external__bindings_2kratos__external__bindings_8cpp.html" target="_top" xlink:title=" ">
<polygon fill="none" stroke="black" points="610.5,-211.5 610.5,-263.5 819.5,-263.5 819.5,-211.5 610.5,-211.5"/>
<text text-anchor="start" x="618.5" y="-251.5" font-family="Helvetica,sans-Serif" font-size="10.00">/home/runner/work/Documentation</text>
<text text-anchor="start" x="618.5" y="-240.5" font-family="Helvetica,sans-Serif" font-size="10.00">/Documentation/master/applications</text>
<text text-anchor="start" x="618.5" y="-229.5" font-family="Helvetica,sans-Serif" font-size="10.00">/GeoMechanicsApplication/external</text>
<text text-anchor="middle" x="715" y="-218.5" font-family="Helvetica,sans-Serif" font-size="10.00">_bindings/kratos_external_bindings.cpp</text>
</a>
</g>
</g>
<!-- Node13&#45;&gt;Node14 -->
<g id="edge13" class="edge">
<title>Node13&#45;&gt;Node14</title>
<path fill="none" stroke="midnightblue" d="M727.8,-301.2C725.26,-288.78 722.46,-275.07 720.13,-263.65"/>
<polygon fill="midnightblue" stroke="midnightblue" points="724.42,-302.16 729.85,-311.26 731.28,-300.76 724.42,-302.16"/>
</g>
<!-- Node17 -->
<g id="node17" class="node">
<title>Node17</title>
<g id="a_node17"><a xlink:href="../../da/d01/small__displacement__simp__element_8cpp.html" target="_top" xlink:title=" ">
<polygon fill="none" stroke="black" points="838,-206 838,-269 1046,-269 1046,-206 838,-206"/>
<text text-anchor="start" x="846" y="-257" font-family="Helvetica,sans-Serif" font-size="10.00">/home/runner/work/Documentation</text>
<text text-anchor="start" x="846" y="-246" font-family="Helvetica,sans-Serif" font-size="10.00">/Documentation/master/applications</text>
<text text-anchor="start" x="846" y="-235" font-family="Helvetica,sans-Serif" font-size="10.00">/TopologyOptimizationApplication</text>
<text text-anchor="start" x="846" y="-224" font-family="Helvetica,sans-Serif" font-size="10.00">/custom_elements/small_displacement</text>
<text text-anchor="middle" x="942" y="-213" font-family="Helvetica,sans-Serif" font-size="10.00">_simp_element.cpp</text>
</a>
</g>
</g>
<!-- Node16&#45;&gt;Node17 -->
<g id="edge16" class="edge">
<title>Node16&#45;&gt;Node17</title>
<path fill="none" stroke="midnightblue" d="M1170.04,-394.16C1157.7,-384.62 1144.68,-374.16 1133,-364 1107.63,-341.92 1106.15,-330.85 1079,-311 1057.5,-295.27 1032.13,-280.87 1009.12,-269.12"/>
<polygon fill="midnightblue" stroke="midnightblue" points="1167.97,-396.98 1178.03,-400.29 1172.23,-391.43 1167.97,-396.98"/>
</g>
<!-- Node18 -->
<g id="node18" class="node">
<title>Node18</title>
<g id="a_node18"><a xlink:href="../../d5/d7a/structure__adjoint__sensitivity__strategy_8h.html" target="_top" xlink:title=" ">
<polygon fill="none" stroke="black" points="1816.5,-206 1816.5,-269 2011.5,-269 2011.5,-206 1816.5,-206"/>
<text text-anchor="start" x="1824.5" y="-257" font-family="Helvetica,sans-Serif" font-size="10.00">/home/runner/work/Documentation</text>
<text text-anchor="start" x="1824.5" y="-246" font-family="Helvetica,sans-Serif" font-size="10.00">/Documentation/master/applications</text>
<text text-anchor="start" x="1824.5" y="-235" font-family="Helvetica,sans-Serif" font-size="10.00">/TopologyOptimizationApplication</text>
<text text-anchor="start" x="1824.5" y="-224" font-family="Helvetica,sans-Serif" font-size="10.00">/custom_strategies/structure_adjoint</text>
<text text-anchor="middle" x="1914" y="-213" font-family="Helvetica,sans-Serif" font-size="10.00">_sensitivity_strategy.h</text>
</a>
</g>
</g>
<!-- Node16&#45;&gt;Node18 -->
<g id="edge17" class="edge">
<title>Node16&#45;&gt;Node18</title>
<path fill="none" stroke="midnightblue" d="M1334.1,-403.16C1452.87,-373.6 1643.94,-324.41 1807,-275 1813.2,-273.12 1819.58,-271.12 1825.99,-269.06"/>
<polygon fill="midnightblue" stroke="midnightblue" points="1333.12,-399.79 1324.26,-405.6 1334.81,-406.59 1333.12,-399.79"/>
</g>
<!-- Node20 -->
<g id="node20" class="node">
<title>Node20</title>
<g id="a_node20"><a xlink:href="../../db/d32/topology__optimization__application_8h.html" target="_top" xlink:title=" ">
<polygon fill="none" stroke="black" points="1141.5,-311.5 1141.5,-363.5 1338.5,-363.5 1338.5,-311.5 1141.5,-311.5"/>
<text text-anchor="start" x="1149.5" y="-351.5" font-family="Helvetica,sans-Serif" font-size="10.00">/home/runner/work/Documentation</text>
<text text-anchor="start" x="1149.5" y="-340.5" font-family="Helvetica,sans-Serif" font-size="10.00">/Documentation/master/applications</text>
<text text-anchor="start" x="1149.5" y="-329.5" font-family="Helvetica,sans-Serif" font-size="10.00">/TopologyOptimizationApplication</text>
<text text-anchor="middle" x="1240" y="-318.5" font-family="Helvetica,sans-Serif" font-size="10.00">/topology_optimization_application.h</text>
</a>
</g>
</g>
<!-- Node16&#45;&gt;Node20 -->
<g id="edge19" class="edge">
<title>Node16&#45;&gt;Node20</title>
<path fill="none" stroke="midnightblue" d="M1228.77,-390.42C1230.73,-381.36 1232.76,-372 1234.54,-363.77"/>
<polygon fill="midnightblue" stroke="midnightblue" points="1225.3,-389.94 1226.6,-400.46 1232.14,-391.42 1225.3,-389.94"/>
</g>
<!-- Node19 -->
<g id="node19" class="node">
<title>Node19</title>
<g id="a_node19"><a xlink:href="../../d1/d32/_topology_optimization_application_2custom__python_2add__custom__strategies__to__python_8cpp.html" target="_top" xlink:title=" ">
<polygon fill="none" stroke="black" points="1695.5,-100.5 1695.5,-163.5 1906.5,-163.5 1906.5,-100.5 1695.5,-100.5"/>
<text text-anchor="start" x="1703.5" y="-151.5" font-family="Helvetica,sans-Serif" font-size="10.00">/home/runner/work/Documentation</text>
<text text-anchor="start" x="1703.5" y="-140.5" font-family="Helvetica,sans-Serif" font-size="10.00">/Documentation/master/applications</text>
<text text-anchor="start" x="1703.5" y="-129.5" font-family="Helvetica,sans-Serif" font-size="10.00">/TopologyOptimizationApplication</text>
<text text-anchor="start" x="1703.5" y="-118.5" font-family="Helvetica,sans-Serif" font-size="10.00">/custom_python/add_custom_strategies</text>
<text text-anchor="middle" x="1801" y="-107.5" font-family="Helvetica,sans-Serif" font-size="10.00">_to_python.cpp</text>
</a>
</g>
</g>
<!-- Node18&#45;&gt;Node19 -->
<g id="edge18" class="edge">
<title>Node18&#45;&gt;Node19</title>
<path fill="none" stroke="midnightblue" d="M1872.77,-198.73C1860.24,-187.26 1846.63,-174.79 1834.66,-163.83"/>
<polygon fill="midnightblue" stroke="midnightblue" points="1870.66,-201.55 1880.4,-205.73 1875.39,-196.39 1870.66,-201.55"/>
</g>
<!-- Node20&#45;&gt;Node17 -->
<g id="edge20" class="edge">
<title>Node20&#45;&gt;Node17</title>
<path fill="none" stroke="midnightblue" d="M1153.82,-308.16C1116.56,-295.91 1072.89,-281.54 1034.91,-269.06"/>
<polygon fill="midnightblue" stroke="midnightblue" points="1153.05,-311.59 1163.64,-311.39 1155.24,-304.94 1153.05,-311.59"/>
</g>
<!-- Node20&#45;&gt;Node18 -->
<g id="edge23" class="edge">
<title>Node20&#45;&gt;Node18</title>
<path fill="none" stroke="midnightblue" d="M1348.86,-331.83C1463.87,-325.24 1649.95,-309.85 1807,-275 1814.57,-273.32 1822.35,-271.29 1830.1,-269.06"/>
<polygon fill="midnightblue" stroke="midnightblue" points="1348.43,-328.35 1338.64,-332.4 1348.82,-335.34 1348.43,-328.35"/>
</g>
<!-- Node20&#45;&gt;Node20 -->
<g id="edge32" class="edge">
<title>Node20&#45;&gt;Node20</title>
<path fill="none" stroke="midnightblue" d="M1348.32,-348.67C1353.47,-345.86 1356.5,-342.14 1356.5,-337.5 1356.5,-330.43 1349.47,-325.49 1338.59,-322.67"/>
<polygon fill="midnightblue" stroke="midnightblue" points="1346.72,-345.53 1338.59,-352.33 1349.18,-352.08 1346.72,-345.53"/>
</g>
<!-- Node21 -->
<g id="node21" class="node">
<title>Node21</title>
<g id="a_node21"><a xlink:href="../../dc/dc2/residualbased__incrementalupdate__static__simp__scheme_8h.html" target="_top" xlink:title=" ">
<polygon fill="none" stroke="black" points="1580,-200.5 1580,-274.5 1798,-274.5 1798,-200.5 1580,-200.5"/>
<text text-anchor="start" x="1588" y="-262.5" font-family="Helvetica,sans-Serif" font-size="10.00">/home/runner/work/Documentation</text>
<text text-anchor="start" x="1588" y="-251.5" font-family="Helvetica,sans-Serif" font-size="10.00">/Documentation/master/applications</text>
<text text-anchor="start" x="1588" y="-240.5" font-family="Helvetica,sans-Serif" font-size="10.00">/TopologyOptimizationApplication</text>
<text text-anchor="start" x="1588" y="-229.5" font-family="Helvetica,sans-Serif" font-size="10.00">/custom_strategies/custom_schemes</text>
<text text-anchor="start" x="1588" y="-218.5" font-family="Helvetica,sans-Serif" font-size="10.00">/residualbased_incrementalupdate_static</text>
<text text-anchor="middle" x="1689" y="-207.5" font-family="Helvetica,sans-Serif" font-size="10.00">_simp_scheme.h</text>
</a>
</g>
</g>
<!-- Node20&#45;&gt;Node21 -->
<g id="edge21" class="edge">
<title>Node20&#45;&gt;Node21</title>
<path fill="none" stroke="midnightblue" d="M1349.01,-319.53C1413.89,-308.61 1497.61,-293.1 1571,-275 1573.91,-274.28 1576.86,-273.53 1579.83,-272.76"/>
<polygon fill="midnightblue" stroke="midnightblue" points="1348.05,-316.14 1338.77,-321.24 1349.21,-323.04 1348.05,-316.14"/>
</g>
<!-- Node22 -->
<g id="node22" class="node">
<title>Node22</title>
<g id="a_node22"><a xlink:href="../../db/db6/structure__response__function__utilities_8h.html" target="_top" xlink:title=" ">
<polygon fill="none" stroke="black" points="1368,-206 1368,-269 1562,-269 1562,-206 1368,-206"/>
<text text-anchor="start" x="1376" y="-257" font-family="Helvetica,sans-Serif" font-size="10.00">/home/runner/work/Documentation</text>
<text text-anchor="start" x="1376" y="-246" font-family="Helvetica,sans-Serif" font-size="10.00">/Documentation/master/applications</text>
<text text-anchor="start" x="1376" y="-235" font-family="Helvetica,sans-Serif" font-size="10.00">/TopologyOptimizationApplication</text>
<text text-anchor="start" x="1376" y="-224" font-family="Helvetica,sans-Serif" font-size="10.00">/custom_utilities/structure_response</text>
<text text-anchor="middle" x="1465" y="-213" font-family="Helvetica,sans-Serif" font-size="10.00">_function_utilities.h</text>
</a>
</g>
</g>
<!-- Node20&#45;&gt;Node22 -->
<g id="edge24" class="edge">
<title>Node20&#45;&gt;Node22</title>
<path fill="none" stroke="midnightblue" d="M1306.85,-307.38C1334.52,-295.33 1366.62,-281.35 1394.64,-269.14"/>
<polygon fill="midnightblue" stroke="midnightblue" points="1305.42,-304.19 1297.65,-311.39 1308.22,-310.61 1305.42,-304.19"/>
</g>
<!-- Node24 -->
<g id="node24" class="node">
<title>Node24</title>
<g id="a_node24"><a xlink:href="../../d3/d19/topology__updating__utilities_8h.html" target="_top" xlink:title=" ">
<polygon fill="none" stroke="black" points="1209,-100.5 1209,-163.5 1403,-163.5 1403,-100.5 1209,-100.5"/>
<text text-anchor="start" x="1217" y="-151.5" font-family="Helvetica,sans-Serif" font-size="10.00">/home/runner/work/Documentation</text>
<text text-anchor="start" x="1217" y="-140.5" font-family="Helvetica,sans-Serif" font-size="10.00">/Documentation/master/applications</text>
<text text-anchor="start" x="1217" y="-129.5" font-family="Helvetica,sans-Serif" font-size="10.00">/TopologyOptimizationApplication</text>
<text text-anchor="start" x="1217" y="-118.5" font-family="Helvetica,sans-Serif" font-size="10.00">/custom_utilities/topology_updating</text>
<text text-anchor="middle" x="1306" y="-107.5" font-family="Helvetica,sans-Serif" font-size="10.00">_utilities.h</text>
</a>
</g>
</g>
<!-- Node20&#45;&gt;Node24 -->
<g id="edge30" class="edge">
<title>Node20&#45;&gt;Node24</title>
<path fill="none" stroke="midnightblue" d="M1162.44,-306.03C1150.27,-297.8 1139.31,-287.58 1132,-275 1115.25,-246.18 1113.13,-227.48 1132,-200 1141.89,-185.59 1174.41,-171.41 1208.7,-159.84"/>
<polygon fill="midnightblue" stroke="midnightblue" points="1160.7,-309.07 1171.03,-311.41 1164.41,-303.14 1160.7,-309.07"/>
</g>
<!-- Node25 -->
<g id="node25" class="node">
<title>Node25</title>
<g id="a_node25"><a xlink:href="../../de/da4/topology__filtering__utilities_8h.html" target="_top" xlink:title=" ">
<polygon fill="none" stroke="black" points="984,-100.5 984,-163.5 1178,-163.5 1178,-100.5 984,-100.5"/>
<text text-anchor="start" x="992" y="-151.5" font-family="Helvetica,sans-Serif" font-size="10.00">/home/runner/work/Documentation</text>
<text text-anchor="start" x="992" y="-140.5" font-family="Helvetica,sans-Serif" font-size="10.00">/Documentation/master/applications</text>
<text text-anchor="start" x="992" y="-129.5" font-family="Helvetica,sans-Serif" font-size="10.00">/TopologyOptimizationApplication</text>
<text text-anchor="start" x="992" y="-118.5" font-family="Helvetica,sans-Serif" font-size="10.00">/custom_utilities/topology_filtering</text>
<text text-anchor="middle" x="1081" y="-107.5" font-family="Helvetica,sans-Serif" font-size="10.00">_utilities.h</text>
</a>
</g>
</g>
<!-- Node20&#45;&gt;Node25 -->
<g id="edge28" class="edge">
<title>Node20&#45;&gt;Node25</title>
<path fill="none" stroke="midnightblue" d="M1152.3,-306.47C1137.83,-298.2 1124.23,-287.85 1114,-275 1088.54,-243.03 1082.07,-194.88 1080.76,-163.69"/>
<polygon fill="midnightblue" stroke="midnightblue" points="1150.94,-309.72 1161.41,-311.36 1154.25,-303.55 1150.94,-309.72"/>
</g>
<!-- Node26 -->
<g id="node26" class="node">
<title>Node26</title>
<g id="a_node26"><a xlink:href="../../d2/d19/topology__optimization__application_8cpp.html" target="_top" xlink:title=" ">
<polygon fill="none" stroke="black" points="1140.5,-211.5 1140.5,-263.5 1349.5,-263.5 1349.5,-211.5 1140.5,-211.5"/>
<text text-anchor="start" x="1148.5" y="-251.5" font-family="Helvetica,sans-Serif" font-size="10.00">/home/runner/work/Documentation</text>
<text text-anchor="start" x="1148.5" y="-240.5" font-family="Helvetica,sans-Serif" font-size="10.00">/Documentation/master/applications</text>
<text text-anchor="start" x="1148.5" y="-229.5" font-family="Helvetica,sans-Serif" font-size="10.00">/TopologyOptimizationApplication</text>
<text text-anchor="middle" x="1245" y="-218.5" font-family="Helvetica,sans-Serif" font-size="10.00">/topology_optimization_application.cpp</text>
</a>
</g>
</g>
<!-- Node20&#45;&gt;Node26 -->
<g id="edge31" class="edge">
<title>Node20&#45;&gt;Node26</title>
<path fill="none" stroke="midnightblue" d="M1241.8,-301.2C1242.43,-288.78 1243.13,-275.07 1243.72,-263.65"/>
<polygon fill="midnightblue" stroke="midnightblue" points="1238.3,-301.1 1241.29,-311.26 1245.29,-301.45 1238.3,-301.1"/>
</g>
<!-- Node21&#45;&gt;Node19 -->
<g id="edge22" class="edge">
<title>Node21&#45;&gt;Node19</title>
<path fill="none" stroke="midnightblue" d="M1735.6,-193.44C1746.47,-183.39 1757.84,-172.89 1767.98,-163.52"/>
<polygon fill="midnightblue" stroke="midnightblue" points="1733.14,-190.94 1728.17,-200.3 1737.89,-196.08 1733.14,-190.94"/>
</g>
<!-- Node23 -->
<g id="node23" class="node">
<title>Node23</title>
<g id="a_node23"><a xlink:href="../../de/d8e/_topology_optimization_application_2custom__python_2add__custom__utilities__to__python_8cpp.html" target="_top" xlink:title=" ">
<polygon fill="none" stroke="black" points="1206.5,-0.5 1206.5,-63.5 1405.5,-63.5 1405.5,-0.5 1206.5,-0.5"/>
<text text-anchor="start" x="1214.5" y="-51.5" font-family="Helvetica,sans-Serif" font-size="10.00">/home/runner/work/Documentation</text>
<text text-anchor="start" x="1214.5" y="-40.5" font-family="Helvetica,sans-Serif" font-size="10.00">/Documentation/master/applications</text>
<text text-anchor="start" x="1214.5" y="-29.5" font-family="Helvetica,sans-Serif" font-size="10.00">/TopologyOptimizationApplication</text>
<text text-anchor="start" x="1214.5" y="-18.5" font-family="Helvetica,sans-Serif" font-size="10.00">/custom_python/add_custom_utilities</text>
<text text-anchor="middle" x="1306" y="-7.5" font-family="Helvetica,sans-Serif" font-size="10.00">_to_python.cpp</text>
</a>
</g>
</g>
<!-- Node22&#45;&gt;Node23 -->
<g id="edge25" class="edge">
<title>Node22&#45;&gt;Node23</title>
<path fill="none" stroke="midnightblue" d="M1456.44,-195.85C1448.7,-166.7 1434.91,-127.83 1412,-100 1400.24,-85.71 1384.6,-73.53 1368.96,-63.62"/>
<polygon fill="midnightblue" stroke="midnightblue" points="1453.09,-196.88 1458.94,-205.72 1459.88,-195.17 1453.09,-196.88"/>
</g>
<!-- Node22&#45;&gt;Node24 -->
<g id="edge26" class="edge">
<title>Node22&#45;&gt;Node24</title>
<path fill="none" stroke="midnightblue" d="M1408.93,-200C1390.68,-188.12 1370.62,-175.06 1353.09,-163.65"/>
<polygon fill="midnightblue" stroke="midnightblue" points="1407.43,-203.2 1417.73,-205.73 1411.25,-197.34 1407.43,-203.2"/>
</g>
<!-- Node24&#45;&gt;Node23 -->
<g id="edge27" class="edge">
<title>Node24&#45;&gt;Node23</title>
<path fill="none" stroke="midnightblue" d="M1306,-90.1C1306,-81.24 1306,-72.01 1306,-63.63"/>
<polygon fill="midnightblue" stroke="midnightblue" points="1302.5,-90.26 1306,-100.26 1309.5,-90.26 1302.5,-90.26"/>
</g>
<!-- Node25&#45;&gt;Node23 -->
<g id="edge29" class="edge">
<title>Node25&#45;&gt;Node23</title>
<path fill="none" stroke="midnightblue" d="M1160.56,-96.35C1185.13,-85.65 1212,-73.94 1235.88,-63.54"/>
<polygon fill="midnightblue" stroke="midnightblue" points="1159.04,-93.19 1151.27,-100.4 1161.83,-99.61 1159.04,-93.19"/>
</g>
<!-- Node28&#45;&gt;Node4 -->
<g id="edge36" class="edge">
<title>Node28&#45;&gt;Node4</title>
<path fill="none" stroke="midnightblue" d="M1022.97,-601.34C993.94,-587.16 961.1,-571.13 934.53,-558.16"/>
<polygon fill="midnightblue" stroke="midnightblue" points="1021.73,-604.62 1032.25,-605.87 1024.8,-598.33 1021.73,-604.62"/>
</g>
<!-- Node29 -->
<g id="node29" class="node">
<title>Node29</title>
<g id="a_node29"><a xlink:href="../../d6/d6d/z__strain__driven__2p5__small__displacement_8cpp.html" target="_top" xlink:title=" ">
<polygon fill="none" stroke="black" points="998,-500.5 998,-563.5 1192,-563.5 1192,-500.5 998,-500.5"/>
<text text-anchor="start" x="1006" y="-551.5" font-family="Helvetica,sans-Serif" font-size="10.00">/home/runner/work/Documentation</text>
<text text-anchor="start" x="1006" y="-540.5" font-family="Helvetica,sans-Serif" font-size="10.00">/Documentation/master/applications</text>
<text text-anchor="start" x="1006" y="-529.5" font-family="Helvetica,sans-Serif" font-size="10.00">/StructuralMechanicsApplication</text>
<text text-anchor="start" x="1006" y="-518.5" font-family="Helvetica,sans-Serif" font-size="10.00">/custom_elements/z_strain_driven</text>
<text text-anchor="middle" x="1095" y="-507.5" font-family="Helvetica,sans-Serif" font-size="10.00">_2p5_small_displacement.cpp</text>
</a>
</g>
</g>
<!-- Node28&#45;&gt;Node29 -->
<g id="edge35" class="edge">
<title>Node28&#45;&gt;Node29</title>
<path fill="none" stroke="midnightblue" d="M1095,-595.46C1095,-584.92 1095,-573.76 1095,-563.83"/>
<polygon fill="midnightblue" stroke="midnightblue" points="1091.5,-595.73 1095,-605.73 1098.5,-595.73 1091.5,-595.73"/>
</g>
</g>
</svg>
