<?xml version="1.0" encoding="UTF-8" standalone="no"?>
<!DOCTYPE svg PUBLIC "-//W3C//DTD SVG 1.1//EN"
 "http://www.w3.org/Graphics/SVG/1.1/DTD/svg11.dtd">
<!-- Generated by graphviz version 2.43.0 (0)
 -->
<!-- Title: Kratos::array_1d&lt; T, N &gt;::iterator Pages: 1 -->
<svg width="308pt" height="325pt"
 viewBox="0.00 0.00 307.50 325.00" xmlns="http://www.w3.org/2000/svg" xmlns:xlink="http://www.w3.org/1999/xlink">
<g id="graph0" class="graph" transform="scale(1 1) rotate(0) translate(4 321)">
<title>Kratos::array_1d&lt; T, N &gt;::iterator</title>
<!-- Node1 -->
<g id="node1" class="node">
<title>Node1</title>
<g id="a_node1"><a xlink:title=" ">
<polygon fill="#bfbfbf" stroke="black" points="77.5,-0.5 77.5,-189.5 194.5,-189.5 194.5,-0.5 77.5,-0.5"/>
<text text-anchor="start" x="85.5" y="-177.5" font-family="Helvetica,sans-Serif" font-size="10.00">Kratos::array_1d&lt; T,</text>
<text text-anchor="middle" x="136" y="-166.5" font-family="Helvetica,sans-Serif" font-size="10.00"> N &gt;::iterator</text>
<polyline fill="none" stroke="black" points="77.5,-159.5 194.5,-159.5 "/>
<text text-anchor="middle" x="136" y="-147.5" font-family="Helvetica,sans-Serif" font-size="10.00"> </text>
<polyline fill="none" stroke="black" points="77.5,-140.5 194.5,-140.5 "/>
<text text-anchor="start" x="85.5" y="-128.5" font-family="Helvetica,sans-Serif" font-size="10.00">+ iterator()</text>
<text text-anchor="start" x="85.5" y="-117.5" font-family="Helvetica,sans-Serif" font-size="10.00">+ iterator()</text>
<text text-anchor="start" x="85.5" y="-106.5" font-family="Helvetica,sans-Serif" font-size="10.00">+ operator++()</text>
<text text-anchor="start" x="85.5" y="-95.5" font-family="Helvetica,sans-Serif" font-size="10.00">+ operator&#45;&#45;()</text>
<text text-anchor="start" x="85.5" y="-84.5" font-family="Helvetica,sans-Serif" font-size="10.00">+ operator+=()</text>
<text text-anchor="start" x="85.5" y="-73.5" font-family="Helvetica,sans-Serif" font-size="10.00">+ operator&#45;=()</text>
<text text-anchor="start" x="85.5" y="-62.5" font-family="Helvetica,sans-Serif" font-size="10.00">+ operator&#45;()</text>
<text text-anchor="start" x="85.5" y="-51.5" font-family="Helvetica,sans-Serif" font-size="10.00">+ operator*()</text>
<text text-anchor="start" x="85.5" y="-40.5" font-family="Helvetica,sans-Serif" font-size="10.00">+ index()</text>
<text text-anchor="start" x="85.5" y="-29.5" font-family="Helvetica,sans-Serif" font-size="10.00">+ operator=()</text>
<text text-anchor="start" x="85.5" y="-18.5" font-family="Helvetica,sans-Serif" font-size="10.00">+ operator==()</text>
<text text-anchor="start" x="85.5" y="-7.5" font-family="Helvetica,sans-Serif" font-size="10.00">+ operator&lt;()</text>
</a>
</g>
</g>
<!-- Node2 -->
<g id="node2" class="node">
<title>Node2</title>
<g id="a_node2"><a xlink:title=" ">
<polygon fill="none" stroke="#bfbfbf" points="0,-237.5 0,-305.5 114,-305.5 114,-237.5 0,-237.5"/>
<text text-anchor="start" x="8" y="-293.5" font-family="Helvetica,sans-Serif" font-size="10.00">container_reference</text>
<text text-anchor="middle" x="57" y="-282.5" font-family="Helvetica,sans-Serif" font-size="10.00">&lt; array_1d &gt;</text>
<polyline fill="none" stroke="#bfbfbf" points="0,-275.5 114,-275.5 "/>
<text text-anchor="middle" x="57" y="-263.5" font-family="Helvetica,sans-Serif" font-size="10.00"> </text>
<polyline fill="none" stroke="#bfbfbf" points="0,-256.5 114,-256.5 "/>
<text text-anchor="middle" x="57" y="-244.5" font-family="Helvetica,sans-Serif" font-size="10.00"> </text>
</a>
</g>
</g>
<!-- Node2&#45;&gt;Node1 -->
<g id="edge1" class="edge">
<title>Node2&#45;&gt;Node1</title>
<path fill="none" stroke="midnightblue" d="M76.31,-227.85C81.58,-216.2 87.51,-203.1 93.53,-189.8"/>
<polygon fill="none" stroke="midnightblue" points="72.98,-226.71 72.05,-237.27 79.36,-229.6 72.98,-226.71"/>
</g>
<!-- Node3 -->
<g id="node3" class="node">
<title>Node3</title>
<g id="a_node3"><a xlink:title=" ">
<polygon fill="none" stroke="#bfbfbf" points="132.5,-226.5 132.5,-316.5 299.5,-316.5 299.5,-226.5 132.5,-226.5"/>
<text text-anchor="start" x="140.5" y="-304.5" font-family="Helvetica,sans-Serif" font-size="10.00">random_access_iterator</text>
<text text-anchor="start" x="140.5" y="-293.5" font-family="Helvetica,sans-Serif" font-size="10.00">_base&lt; dense_random_access</text>
<text text-anchor="start" x="140.5" y="-282.5" font-family="Helvetica,sans-Serif" font-size="10.00">_iterator_tag, iterator,</text>
<text text-anchor="middle" x="216" y="-271.5" font-family="Helvetica,sans-Serif" font-size="10.00"> value_type, difference_type &gt;</text>
<polyline fill="none" stroke="#bfbfbf" points="132.5,-264.5 299.5,-264.5 "/>
<text text-anchor="middle" x="216" y="-252.5" font-family="Helvetica,sans-Serif" font-size="10.00"> </text>
<polyline fill="none" stroke="#bfbfbf" points="132.5,-245.5 299.5,-245.5 "/>
<text text-anchor="middle" x="216" y="-233.5" font-family="Helvetica,sans-Serif" font-size="10.00"> </text>
</a>
</g>
</g>
<!-- Node3&#45;&gt;Node1 -->
<g id="edge2" class="edge">
<title>Node3&#45;&gt;Node1</title>
<path fill="none" stroke="midnightblue" d="M191.57,-217.2C187.55,-208.45 183.29,-199.16 178.99,-189.76"/>
<polygon fill="none" stroke="midnightblue" points="188.46,-218.83 195.81,-226.47 194.83,-215.92 188.46,-218.83"/>
</g>
</g>
</svg>
