<?xml version="1.0" encoding="UTF-8" standalone="no"?>
<!DOCTYPE svg PUBLIC "-//W3C//DTD SVG 1.1//EN"
 "http://www.w3.org/Graphics/SVG/1.1/DTD/svg11.dtd">
<!-- Generated by graphviz version 2.43.0 (0)
 -->
<!-- Title: Kratos::FilteredAccumReduction&lt; TDataType, TReturnType &gt; Pages: 1 -->
<svg width="181pt" height="215pt"
 viewBox="0.00 0.00 181.00 215.00" xmlns="http://www.w3.org/2000/svg" xmlns:xlink="http://www.w3.org/1999/xlink">
<g id="graph0" class="graph" transform="scale(1 1) rotate(0) translate(4 211)">
<title>Kratos::FilteredAccumReduction&lt; TDataType, TReturnType &gt;</title>
<!-- Node1 -->
<g id="node1" class="node">
<title>Node1</title>
<g id="a_node1"><a xlink:title="A derived template class from AccumReduction that only accumulates values based on a filtering condit...">
<polygon fill="#bfbfbf" stroke="black" points="0,-0.5 0,-68.5 173,-68.5 173,-0.5 0,-0.5"/>
<text text-anchor="start" x="8" y="-56.5" font-family="Helvetica,sans-Serif" font-size="10.00">Kratos::FilteredAccumReduction</text>
<text text-anchor="middle" x="86.5" y="-45.5" font-family="Helvetica,sans-Serif" font-size="10.00">&lt; TDataType, TReturnType &gt;</text>
<polyline fill="none" stroke="black" points="0,-38.5 173,-38.5 "/>
<text text-anchor="middle" x="86.5" y="-26.5" font-family="Helvetica,sans-Serif" font-size="10.00"> </text>
<polyline fill="none" stroke="black" points="0,-19.5 173,-19.5 "/>
<text text-anchor="start" x="8" y="-7.5" font-family="Helvetica,sans-Serif" font-size="10.00">+ LocalReduce()</text>
</a>
</g>
</g>
<!-- Node2 -->
<g id="node2" class="node">
<title>Node2</title>
<g id="a_node2"><a xlink:href="../../d2/d9b/class_kratos_1_1_accum_reduction.html" target="_top" xlink:title=" ">
<polygon fill="none" stroke="black" points="18,-105.5 18,-206.5 155,-206.5 155,-105.5 18,-105.5"/>
<text text-anchor="start" x="26" y="-194.5" font-family="Helvetica,sans-Serif" font-size="10.00">Kratos::AccumReduction</text>
<text text-anchor="start" x="26" y="-183.5" font-family="Helvetica,sans-Serif" font-size="10.00">&lt; TDataType, std::vector</text>
<text text-anchor="middle" x="86.5" y="-172.5" font-family="Helvetica,sans-Serif" font-size="10.00">&lt; TDataType &gt; &gt;</text>
<polyline fill="none" stroke="black" points="18,-165.5 155,-165.5 "/>
<text text-anchor="start" x="26" y="-153.5" font-family="Helvetica,sans-Serif" font-size="10.00">+ mValue</text>
<polyline fill="none" stroke="black" points="18,-146.5 155,-146.5 "/>
<text text-anchor="start" x="26" y="-134.5" font-family="Helvetica,sans-Serif" font-size="10.00">+ GetValue()</text>
<text text-anchor="start" x="26" y="-123.5" font-family="Helvetica,sans-Serif" font-size="10.00">+ LocalReduce()</text>
<text text-anchor="start" x="26" y="-112.5" font-family="Helvetica,sans-Serif" font-size="10.00">+ ThreadSafeReduce()</text>
</a>
</g>
</g>
<!-- Node2&#45;&gt;Node1 -->
<g id="edge1" class="edge">
<title>Node2&#45;&gt;Node1</title>
<path fill="none" stroke="midnightblue" d="M86.5,-95.17C86.5,-86.11 86.5,-77.05 86.5,-68.83"/>
<polygon fill="none" stroke="midnightblue" points="83,-95.36 86.5,-105.36 90,-95.36 83,-95.36"/>
</g>
</g>
</svg>
