<?xml version="1.0" encoding="UTF-8" standalone="no"?>
<!DOCTYPE svg PUBLIC "-//W3C//DTD SVG 1.1//EN"
 "http://www.w3.org/Graphics/SVG/1.1/DTD/svg11.dtd">
<!-- Generated by graphviz version 2.43.0 (0)
 -->
<!-- Title: Kratos::SolidShellElementSprism3D6N::CommonComponents Pages: 1 -->
<svg width="738pt" height="442pt"
 viewBox="0.00 0.00 738.00 442.00" xmlns="http://www.w3.org/2000/svg" xmlns:xlink="http://www.w3.org/1999/xlink">
<g id="graph0" class="graph" transform="scale(1 1) rotate(0) translate(4 438)">
<title>Kratos::SolidShellElementSprism3D6N::CommonComponents</title>
<!-- Node1 -->
<g id="node1" class="node">
<title>Node1</title>
<g id="a_node1"><a xlink:title="Common Components defined in order to compute the Cauchy tensor and the deformation matrix.">
<polygon fill="#bfbfbf" stroke="black" points="270.5,-0.5 270.5,-68.5 459.5,-68.5 459.5,-0.5 270.5,-0.5"/>
<text text-anchor="start" x="278.5" y="-56.5" font-family="Helvetica,sans-Serif" font-size="10.00">Kratos::SolidShellElement</text>
<text text-anchor="middle" x="365" y="-45.5" font-family="Helvetica,sans-Serif" font-size="10.00">Sprism3D6N::CommonComponents</text>
<polyline fill="none" stroke="black" points="270.5,-38.5 459.5,-38.5 "/>
<text text-anchor="start" x="278.5" y="-26.5" font-family="Helvetica,sans-Serif" font-size="10.00">+ CNormal</text>
<polyline fill="none" stroke="black" points="270.5,-19.5 459.5,-19.5 "/>
<text text-anchor="start" x="278.5" y="-7.5" font-family="Helvetica,sans-Serif" font-size="10.00">+ clear()</text>
</a>
</g>
</g>
<!-- Node2 -->
<g id="node2" class="node">
<title>Node2</title>
<g id="a_node2"><a xlink:href="../../d9/dbb/class_kratos_1_1_internals_1_1_matrix.html" target="_top" xlink:title=" ">
<polygon fill="none" stroke="black" points="152,-127.5 152,-305.5 280,-305.5 280,-127.5 152,-127.5"/>
<text text-anchor="start" x="160" y="-293.5" font-family="Helvetica,sans-Serif" font-size="10.00">Kratos::Internals::</text>
<text text-anchor="middle" x="216" y="-282.5" font-family="Helvetica,sans-Serif" font-size="10.00">Matrix&lt; double, 2, 1 &gt;</text>
<polyline fill="none" stroke="black" points="152,-275.5 280,-275.5 "/>
<text text-anchor="middle" x="216" y="-263.5" font-family="Helvetica,sans-Serif" font-size="10.00"> </text>
<polyline fill="none" stroke="black" points="152,-256.5 280,-256.5 "/>
<text text-anchor="start" x="160" y="-244.5" font-family="Helvetica,sans-Serif" font-size="10.00">+ Matrix()</text>
<text text-anchor="start" x="160" y="-233.5" font-family="Helvetica,sans-Serif" font-size="10.00">+ Matrix()</text>
<text text-anchor="start" x="160" y="-222.5" font-family="Helvetica,sans-Serif" font-size="10.00">+ Matrix()</text>
<text text-anchor="start" x="160" y="-211.5" font-family="Helvetica,sans-Serif" font-size="10.00">+ Matrix()</text>
<text text-anchor="start" x="160" y="-200.5" font-family="Helvetica,sans-Serif" font-size="10.00">+ Matrix()</text>
<text text-anchor="start" x="160" y="-189.5" font-family="Helvetica,sans-Serif" font-size="10.00">+ Matrix()</text>
<text text-anchor="start" x="160" y="-178.5" font-family="Helvetica,sans-Serif" font-size="10.00">+ Matrix()</text>
<text text-anchor="start" x="160" y="-167.5" font-family="Helvetica,sans-Serif" font-size="10.00">+ Matrix()</text>
<text text-anchor="start" x="160" y="-156.5" font-family="Helvetica,sans-Serif" font-size="10.00">+ operator=()</text>
<text text-anchor="start" x="160" y="-145.5" font-family="Helvetica,sans-Serif" font-size="10.00">+ operator=()</text>
<text text-anchor="start" x="160" y="-134.5" font-family="Helvetica,sans-Serif" font-size="10.00">and 30 more...</text>
</a>
</g>
</g>
<!-- Node2&#45;&gt;Node1 -->
<g id="edge1" class="edge">
<title>Node2&#45;&gt;Node1</title>
<path fill="none" stroke="#404040" d="M255.66,-127.17C264.19,-112.89 274,-98.9 285,-87 288.47,-83.25 292.27,-79.65 296.26,-76.22"/>
<polygon fill="none" stroke="#404040" points="296.51,-76.03 298.71,-69.16 305.89,-68.55 303.69,-75.42 296.51,-76.03"/>
<text text-anchor="middle" x="323" y="-101" font-family="Helvetica,sans-Serif" font-size="10.00"> +CShearLower</text>
<text text-anchor="middle" x="323" y="-90" font-family="Helvetica,sans-Serif" font-size="10.00">+CShearUpper</text>
</g>
<!-- Node3 -->
<g id="node3" class="node">
<title>Node3</title>
<g id="a_node3"><a xlink:title=" ">
<polygon fill="none" stroke="#bfbfbf" points="161.5,-343.5 161.5,-433.5 326.5,-433.5 326.5,-343.5 161.5,-343.5"/>
<text text-anchor="start" x="169.5" y="-421.5" font-family="Helvetica,sans-Serif" font-size="10.00">AMatrix::MatrixExpression</text>
<text text-anchor="start" x="169.5" y="-410.5" font-family="Helvetica,sans-Serif" font-size="10.00">&lt; Matrix&lt; double, TSize1,</text>
<text text-anchor="start" x="169.5" y="-399.5" font-family="Helvetica,sans-Serif" font-size="10.00"> TSize2 &gt;, AMatrix::row_major</text>
<text text-anchor="middle" x="244" y="-388.5" font-family="Helvetica,sans-Serif" font-size="10.00">_access &gt;</text>
<polyline fill="none" stroke="#bfbfbf" points="161.5,-381.5 326.5,-381.5 "/>
<text text-anchor="middle" x="244" y="-369.5" font-family="Helvetica,sans-Serif" font-size="10.00"> </text>
<polyline fill="none" stroke="#bfbfbf" points="161.5,-362.5 326.5,-362.5 "/>
<text text-anchor="middle" x="244" y="-350.5" font-family="Helvetica,sans-Serif" font-size="10.00"> </text>
</a>
</g>
</g>
<!-- Node3&#45;&gt;Node2 -->
<g id="edge2" class="edge">
<title>Node3&#45;&gt;Node2</title>
<path fill="none" stroke="midnightblue" d="M235.06,-333.2C233.6,-324.38 232.07,-315.06 230.53,-305.69"/>
<polygon fill="none" stroke="midnightblue" points="231.64,-333.98 236.72,-343.28 238.54,-332.84 231.64,-333.98"/>
</g>
<!-- Node5 -->
<g id="node5" class="node">
<title>Node5</title>
<g id="a_node5"><a xlink:href="../../d9/dbb/class_kratos_1_1_internals_1_1_matrix.html" target="_top" xlink:title=" ">
<polygon fill="none" stroke="black" points="0,-127.5 0,-305.5 134,-305.5 134,-127.5 0,-127.5"/>
<text text-anchor="start" x="8" y="-293.5" font-family="Helvetica,sans-Serif" font-size="10.00">Kratos::Internals::</text>
<text text-anchor="middle" x="67" y="-282.5" font-family="Helvetica,sans-Serif" font-size="10.00">Matrix&lt; double, 1, 18 &gt;</text>
<polyline fill="none" stroke="black" points="0,-275.5 134,-275.5 "/>
<text text-anchor="middle" x="67" y="-263.5" font-family="Helvetica,sans-Serif" font-size="10.00"> </text>
<polyline fill="none" stroke="black" points="0,-256.5 134,-256.5 "/>
<text text-anchor="start" x="8" y="-244.5" font-family="Helvetica,sans-Serif" font-size="10.00">+ Matrix()</text>
<text text-anchor="start" x="8" y="-233.5" font-family="Helvetica,sans-Serif" font-size="10.00">+ Matrix()</text>
<text text-anchor="start" x="8" y="-222.5" font-family="Helvetica,sans-Serif" font-size="10.00">+ Matrix()</text>
<text text-anchor="start" x="8" y="-211.5" font-family="Helvetica,sans-Serif" font-size="10.00">+ Matrix()</text>
<text text-anchor="start" x="8" y="-200.5" font-family="Helvetica,sans-Serif" font-size="10.00">+ Matrix()</text>
<text text-anchor="start" x="8" y="-189.5" font-family="Helvetica,sans-Serif" font-size="10.00">+ Matrix()</text>
<text text-anchor="start" x="8" y="-178.5" font-family="Helvetica,sans-Serif" font-size="10.00">+ Matrix()</text>
<text text-anchor="start" x="8" y="-167.5" font-family="Helvetica,sans-Serif" font-size="10.00">+ Matrix()</text>
<text text-anchor="start" x="8" y="-156.5" font-family="Helvetica,sans-Serif" font-size="10.00">+ operator=()</text>
<text text-anchor="start" x="8" y="-145.5" font-family="Helvetica,sans-Serif" font-size="10.00">+ operator=()</text>
<text text-anchor="start" x="8" y="-134.5" font-family="Helvetica,sans-Serif" font-size="10.00">and 30 more...</text>
</a>
</g>
</g>
<!-- Node3&#45;&gt;Node5 -->
<g id="edge5" class="edge">
<title>Node3&#45;&gt;Node5</title>
<path fill="none" stroke="midnightblue" d="M177.78,-336.95C165.87,-327.06 153.81,-316.49 143,-306 140.09,-303.18 137.18,-300.26 134.27,-297.27"/>
<polygon fill="none" stroke="midnightblue" points="175.62,-339.7 185.57,-343.34 180.06,-334.29 175.62,-339.7"/>
</g>
<!-- Node6 -->
<g id="node6" class="node">
<title>Node6</title>
<g id="a_node6"><a xlink:href="../../d9/dbb/class_kratos_1_1_internals_1_1_matrix.html" target="_top" xlink:title=" ">
<polygon fill="none" stroke="black" points="450,-127.5 450,-305.5 578,-305.5 578,-127.5 450,-127.5"/>
<text text-anchor="start" x="458" y="-293.5" font-family="Helvetica,sans-Serif" font-size="10.00">Kratos::Internals::</text>
<text text-anchor="middle" x="514" y="-282.5" font-family="Helvetica,sans-Serif" font-size="10.00">Matrix&lt; double, 3, 1 &gt;</text>
<polyline fill="none" stroke="black" points="450,-275.5 578,-275.5 "/>
<text text-anchor="middle" x="514" y="-263.5" font-family="Helvetica,sans-Serif" font-size="10.00"> </text>
<polyline fill="none" stroke="black" points="450,-256.5 578,-256.5 "/>
<text text-anchor="start" x="458" y="-244.5" font-family="Helvetica,sans-Serif" font-size="10.00">+ Matrix()</text>
<text text-anchor="start" x="458" y="-233.5" font-family="Helvetica,sans-Serif" font-size="10.00">+ Matrix()</text>
<text text-anchor="start" x="458" y="-222.5" font-family="Helvetica,sans-Serif" font-size="10.00">+ Matrix()</text>
<text text-anchor="start" x="458" y="-211.5" font-family="Helvetica,sans-Serif" font-size="10.00">+ Matrix()</text>
<text text-anchor="start" x="458" y="-200.5" font-family="Helvetica,sans-Serif" font-size="10.00">+ Matrix()</text>
<text text-anchor="start" x="458" y="-189.5" font-family="Helvetica,sans-Serif" font-size="10.00">+ Matrix()</text>
<text text-anchor="start" x="458" y="-178.5" font-family="Helvetica,sans-Serif" font-size="10.00">+ Matrix()</text>
<text text-anchor="start" x="458" y="-167.5" font-family="Helvetica,sans-Serif" font-size="10.00">+ Matrix()</text>
<text text-anchor="start" x="458" y="-156.5" font-family="Helvetica,sans-Serif" font-size="10.00">+ operator=()</text>
<text text-anchor="start" x="458" y="-145.5" font-family="Helvetica,sans-Serif" font-size="10.00">+ operator=()</text>
<text text-anchor="start" x="458" y="-134.5" font-family="Helvetica,sans-Serif" font-size="10.00">and 30 more...</text>
</a>
</g>
</g>
<!-- Node3&#45;&gt;Node6 -->
<g id="edge8" class="edge">
<title>Node3&#45;&gt;Node6</title>
<path fill="none" stroke="midnightblue" d="M335.71,-343.12C335.81,-343.08 335.9,-343.04 336,-343 381.68,-323.98 400.44,-334.34 441,-306 443.94,-303.95 446.82,-301.74 449.65,-299.42"/>
<polygon fill="none" stroke="midnightblue" points="334.38,-339.89 326.55,-347.03 337.12,-346.32 334.38,-339.89"/>
</g>
<!-- Node7 -->
<g id="node7" class="node">
<title>Node7</title>
<g id="a_node7"><a xlink:href="../../d9/dbb/class_kratos_1_1_internals_1_1_matrix.html" target="_top" xlink:title=" ">
<polygon fill="none" stroke="black" points="298,-127.5 298,-305.5 432,-305.5 432,-127.5 298,-127.5"/>
<text text-anchor="start" x="306" y="-293.5" font-family="Helvetica,sans-Serif" font-size="10.00">Kratos::Internals::</text>
<text text-anchor="middle" x="365" y="-282.5" font-family="Helvetica,sans-Serif" font-size="10.00">Matrix&lt; double, 3, 18 &gt;</text>
<polyline fill="none" stroke="black" points="298,-275.5 432,-275.5 "/>
<text text-anchor="middle" x="365" y="-263.5" font-family="Helvetica,sans-Serif" font-size="10.00"> </text>
<polyline fill="none" stroke="black" points="298,-256.5 432,-256.5 "/>
<text text-anchor="start" x="306" y="-244.5" font-family="Helvetica,sans-Serif" font-size="10.00">+ Matrix()</text>
<text text-anchor="start" x="306" y="-233.5" font-family="Helvetica,sans-Serif" font-size="10.00">+ Matrix()</text>
<text text-anchor="start" x="306" y="-222.5" font-family="Helvetica,sans-Serif" font-size="10.00">+ Matrix()</text>
<text text-anchor="start" x="306" y="-211.5" font-family="Helvetica,sans-Serif" font-size="10.00">+ Matrix()</text>
<text text-anchor="start" x="306" y="-200.5" font-family="Helvetica,sans-Serif" font-size="10.00">+ Matrix()</text>
<text text-anchor="start" x="306" y="-189.5" font-family="Helvetica,sans-Serif" font-size="10.00">+ Matrix()</text>
<text text-anchor="start" x="306" y="-178.5" font-family="Helvetica,sans-Serif" font-size="10.00">+ Matrix()</text>
<text text-anchor="start" x="306" y="-167.5" font-family="Helvetica,sans-Serif" font-size="10.00">+ Matrix()</text>
<text text-anchor="start" x="306" y="-156.5" font-family="Helvetica,sans-Serif" font-size="10.00">+ operator=()</text>
<text text-anchor="start" x="306" y="-145.5" font-family="Helvetica,sans-Serif" font-size="10.00">+ operator=()</text>
<text text-anchor="start" x="306" y="-134.5" font-family="Helvetica,sans-Serif" font-size="10.00">and 30 more...</text>
</a>
</g>
</g>
<!-- Node3&#45;&gt;Node7 -->
<g id="edge11" class="edge">
<title>Node3&#45;&gt;Node7</title>
<path fill="none" stroke="midnightblue" d="M281.43,-334.91C288.06,-325.6 295.12,-315.67 302.23,-305.69"/>
<polygon fill="none" stroke="midnightblue" points="278.42,-333.1 275.48,-343.28 284.13,-337.16 278.42,-333.1"/>
</g>
<!-- Node8 -->
<g id="node8" class="node">
<title>Node8</title>
<g id="a_node8"><a xlink:href="../../d9/dbb/class_kratos_1_1_internals_1_1_matrix.html" target="_top" xlink:title=" ">
<polygon fill="none" stroke="black" points="596,-127.5 596,-305.5 730,-305.5 730,-127.5 596,-127.5"/>
<text text-anchor="start" x="604" y="-293.5" font-family="Helvetica,sans-Serif" font-size="10.00">Kratos::Internals::</text>
<text text-anchor="middle" x="663" y="-282.5" font-family="Helvetica,sans-Serif" font-size="10.00">Matrix&lt; double, 2, 18 &gt;</text>
<polyline fill="none" stroke="black" points="596,-275.5 730,-275.5 "/>
<text text-anchor="middle" x="663" y="-263.5" font-family="Helvetica,sans-Serif" font-size="10.00"> </text>
<polyline fill="none" stroke="black" points="596,-256.5 730,-256.5 "/>
<text text-anchor="start" x="604" y="-244.5" font-family="Helvetica,sans-Serif" font-size="10.00">+ Matrix()</text>
<text text-anchor="start" x="604" y="-233.5" font-family="Helvetica,sans-Serif" font-size="10.00">+ Matrix()</text>
<text text-anchor="start" x="604" y="-222.5" font-family="Helvetica,sans-Serif" font-size="10.00">+ Matrix()</text>
<text text-anchor="start" x="604" y="-211.5" font-family="Helvetica,sans-Serif" font-size="10.00">+ Matrix()</text>
<text text-anchor="start" x="604" y="-200.5" font-family="Helvetica,sans-Serif" font-size="10.00">+ Matrix()</text>
<text text-anchor="start" x="604" y="-189.5" font-family="Helvetica,sans-Serif" font-size="10.00">+ Matrix()</text>
<text text-anchor="start" x="604" y="-178.5" font-family="Helvetica,sans-Serif" font-size="10.00">+ Matrix()</text>
<text text-anchor="start" x="604" y="-167.5" font-family="Helvetica,sans-Serif" font-size="10.00">+ Matrix()</text>
<text text-anchor="start" x="604" y="-156.5" font-family="Helvetica,sans-Serif" font-size="10.00">+ operator=()</text>
<text text-anchor="start" x="604" y="-145.5" font-family="Helvetica,sans-Serif" font-size="10.00">+ operator=()</text>
<text text-anchor="start" x="604" y="-134.5" font-family="Helvetica,sans-Serif" font-size="10.00">and 30 more...</text>
</a>
</g>
</g>
<!-- Node3&#45;&gt;Node8 -->
<g id="edge14" class="edge">
<title>Node3&#45;&gt;Node8</title>
<path fill="none" stroke="midnightblue" d="M336.32,-343.28C446.34,-312.63 491.05,-358.89 587,-306 590.02,-304.34 592.97,-302.51 595.84,-300.54"/>
<polygon fill="none" stroke="midnightblue" points="335.13,-339.98 326.53,-346.16 337.11,-346.69 335.13,-339.98"/>
</g>
<!-- Node4 -->
<g id="node4" class="node">
<title>Node4</title>
<g id="a_node4"><a xlink:title=" ">
<polygon fill="none" stroke="#bfbfbf" points="344.5,-354.5 344.5,-422.5 493.5,-422.5 493.5,-354.5 344.5,-354.5"/>
<text text-anchor="start" x="352.5" y="-410.5" font-family="Helvetica,sans-Serif" font-size="10.00">AMatrix::MatrixStorage</text>
<text text-anchor="middle" x="419" y="-399.5" font-family="Helvetica,sans-Serif" font-size="10.00">&lt; double, TSize1, TSize2 &gt;</text>
<polyline fill="none" stroke="#bfbfbf" points="344.5,-392.5 493.5,-392.5 "/>
<text text-anchor="middle" x="419" y="-380.5" font-family="Helvetica,sans-Serif" font-size="10.00"> </text>
<polyline fill="none" stroke="#bfbfbf" points="344.5,-373.5 493.5,-373.5 "/>
<text text-anchor="middle" x="419" y="-361.5" font-family="Helvetica,sans-Serif" font-size="10.00"> </text>
</a>
</g>
</g>
<!-- Node4&#45;&gt;Node2 -->
<g id="edge3" class="edge">
<title>Node4&#45;&gt;Node2</title>
<path fill="none" stroke="midnightblue" d="M348.71,-349.14C328.49,-336.63 307.04,-321.84 289,-306 286.01,-303.37 283.04,-300.61 280.1,-297.76"/>
<polygon fill="none" stroke="midnightblue" points="346.93,-352.15 357.29,-354.36 350.57,-346.17 346.93,-352.15"/>
</g>
<!-- Node4&#45;&gt;Node5 -->
<g id="edge6" class="edge">
<title>Node4&#45;&gt;Node5</title>
<path fill="none" stroke="midnightblue" d="M352.99,-349.86C347.34,-347.33 341.63,-345 336,-343 253.68,-313.81 218.56,-349.8 143,-306 140.02,-304.27 137.1,-302.39 134.25,-300.37"/>
<polygon fill="none" stroke="midnightblue" points="351.89,-353.21 362.43,-354.28 354.86,-346.87 351.89,-353.21"/>
</g>
<!-- Node4&#45;&gt;Node6 -->
<g id="edge9" class="edge">
<title>Node4&#45;&gt;Node6</title>
<path fill="none" stroke="midnightblue" d="M442.55,-345.37C449.33,-333.22 457,-319.5 464.73,-305.66"/>
<polygon fill="none" stroke="midnightblue" points="439.37,-343.88 437.54,-354.32 445.48,-347.3 439.37,-343.88"/>
</g>
<!-- Node4&#45;&gt;Node7 -->
<g id="edge12" class="edge">
<title>Node4&#45;&gt;Node7</title>
<path fill="none" stroke="midnightblue" d="M405.39,-344.65C401.59,-332.68 397.31,-319.23 393,-305.66"/>
<polygon fill="none" stroke="midnightblue" points="402.1,-345.85 408.46,-354.32 408.77,-343.73 402.1,-345.85"/>
</g>
<!-- Node4&#45;&gt;Node8 -->
<g id="edge15" class="edge">
<title>Node4&#45;&gt;Node8</title>
<path fill="none" stroke="midnightblue" d="M503.29,-354.82C531.36,-341.85 561.85,-325.38 587,-306 589.89,-303.78 592.75,-301.43 595.56,-298.98"/>
<polygon fill="none" stroke="midnightblue" points="501.55,-351.76 493.88,-359.08 504.43,-358.14 501.55,-351.76"/>
</g>
<!-- Node5&#45;&gt;Node1 -->
<g id="edge4" class="edge">
<title>Node5&#45;&gt;Node1</title>
<path fill="none" stroke="#404040" d="M134.26,-134.79C137.15,-132.09 140.06,-129.49 143,-127 176.29,-98.79 219.46,-78.35 258.88,-64.05"/>
<polygon fill="none" stroke="#404040" points="259.11,-63.97 263.44,-58.2 270.43,-59.99 266.1,-65.75 259.11,-63.97"/>
<text text-anchor="middle" x="231.5" y="-95.5" font-family="Helvetica,sans-Serif" font-size="10.00"> +BNormal</text>
</g>
<!-- Node6&#45;&gt;Node1 -->
<g id="edge7" class="edge">
<title>Node6&#45;&gt;Node1</title>
<path fill="none" stroke="#404040" d="M493.37,-127.2C487.21,-112.68 479.25,-98.6 469,-87 465.55,-83.09 461.73,-79.45 457.66,-76.06"/>
<polygon fill="none" stroke="#404040" points="457.33,-75.81 450.13,-75.4 447.74,-68.59 454.94,-69.01 457.33,-75.81"/>
<text text-anchor="middle" x="533" y="-101" font-family="Helvetica,sans-Serif" font-size="10.00"> +CMembraneLower</text>
<text text-anchor="middle" x="533" y="-90" font-family="Helvetica,sans-Serif" font-size="10.00">+CMembraneUpper</text>
</g>
<!-- Node7&#45;&gt;Node1 -->
<g id="edge10" class="edge">
<title>Node7&#45;&gt;Node1</title>
<path fill="none" stroke="#404040" d="M365,-127.35C365,-111.39 365,-95.35 365,-81.25"/>
<polygon fill="none" stroke="#404040" points="365,-80.89 361,-74.89 365,-68.89 369,-74.89 365,-80.89"/>
<text text-anchor="middle" x="415" y="-101" font-family="Helvetica,sans-Serif" font-size="10.00"> +BMembraneLower</text>
<text text-anchor="middle" x="415" y="-90" font-family="Helvetica,sans-Serif" font-size="10.00">+BMembraneUpper</text>
</g>
<!-- Node8&#45;&gt;Node1 -->
<g id="edge13" class="edge">
<title>Node8&#45;&gt;Node1</title>
<path fill="none" stroke="#404040" d="M623.9,-127.22C613.77,-111.98 601.53,-97.65 587,-87 553.81,-62.68 510.95,-49.62 471.76,-42.69"/>
<polygon fill="none" stroke="#404040" points="471.57,-42.66 465,-45.64 459.73,-40.73 466.29,-37.74 471.57,-42.66"/>
<text text-anchor="middle" x="645" y="-101" font-family="Helvetica,sans-Serif" font-size="10.00"> +BShearLower</text>
<text text-anchor="middle" x="645" y="-90" font-family="Helvetica,sans-Serif" font-size="10.00">+BShearUpper</text>
</g>
</g>
</svg>
