<?xml version="1.0" encoding="UTF-8" standalone="no"?>
<!DOCTYPE svg PUBLIC "-//W3C//DTD SVG 1.1//EN"
 "http://www.w3.org/Graphics/SVG/1.1/DTD/svg11.dtd">
<!-- Generated by graphviz version 2.43.0 (0)
 -->
<!-- Title: Kratos::EmbeddedLaplacianInternals::EmbeddedElementData&lt; TDim &gt; Pages: 1 -->
<!--zoomable 1256 -->
<svg id="main" version="1.1" xmlns="http://www.w3.org/2000/svg" xmlns:xlink="http://www.w3.org/1999/xlink" xml:space="preserve" onload="init(evt)">
<style type="text/css"><![CDATA[
.edge:hover path { stroke: red; }
.edge:hover polygon { stroke: red; fill: red; }
]]></style>
<script type="text/javascript"><![CDATA[
var edges = document.getElementsByTagName('g');
if (edges && edges.length) {
  for (var i=0;i<edges.length;i++) {
    if (edges[i].id.substr(0,4)=='edge') {
      edges[i].setAttribute('class','edge');
    }
  }
}
]]></script>
        <defs>
                <circle id="rim" cx="0" cy="0" r="7"/>
                <circle id="rim2" cx="0" cy="0" r="3.5"/>
                <g id="zoomPlus">
                        <use xlink:href="#rim" fill="#404040">
                                <set attributeName="fill" to="#808080" begin="zoomplus.mouseover" end="zoomplus.mouseout"/>
                        </use>
                        <path d="M-4,0h8M0,-4v8" fill="none" stroke="white" stroke-width="1.5" pointer-events="none"/>
                </g>
                <g id="zoomMin">
                        <use xlink:href="#rim" fill="#404040">
                                <set attributeName="fill" to="#808080" begin="zoomminus.mouseover" end="zoomminus.mouseout"/>
                        </use>
                        <path d="M-4,0h8" fill="none" stroke="white" stroke-width="1.5" pointer-events="none"/>
                </g>
                <g id="dirArrow">
                        <path fill="none" stroke="white" stroke-width="1.5" d="M0,-3.0v7 M-2.5,-0.5L0,-3.0L2.5,-0.5"/>
                </g>
               <g id="resetDef">
                       <use xlink:href="#rim2" fill="#404040">
                               <set attributeName="fill" to="#808080" begin="reset.mouseover" end="reset.mouseout"/>
                       </use>
               </g>
        </defs>

<script type="text/javascript">
var viewWidth = 869;
var viewHeight = 1256;
var sectionId = 'dynsection-0';
</script>
<script xlink:href="../../svgpan.js"/>
<svg id="graph" class="graph">
<g id="viewport">
<title>Kratos::EmbeddedLaplacianInternals::EmbeddedElementData&lt; TDim &gt;</title>
<!-- Node1 -->
<g id="node1" class="node">
<title>Node1</title>
<g id="a_node1"><a xlink:title=" ">
<polygon fill="#bfbfbf" stroke="black" points="255,-0.5 255,-233.5 436,-233.5 436,-0.5 255,-0.5"/>
<text text-anchor="start" x="263" y="-221.5" font-family="Helvetica,sans-Serif" font-size="10.00">Kratos::EmbeddedLaplacian</text>
<text text-anchor="start" x="263" y="-210.5" font-family="Helvetica,sans-Serif" font-size="10.00">Internals::EmbeddedElementData</text>
<text text-anchor="middle" x="345.5" y="-199.5" font-family="Helvetica,sans-Serif" font-size="10.00">&lt; TDim &gt;</text>
<polyline fill="none" stroke="black" points="255,-192.5 436,-192.5 "/>
<text text-anchor="start" x="263" y="-180.5" font-family="Helvetica,sans-Serif" font-size="10.00">+ PenaltyCoefficient</text>
<text text-anchor="start" x="263" y="-169.5" font-family="Helvetica,sans-Serif" font-size="10.00">+ PositiveInterfaceUnitNormals</text>
<text text-anchor="start" x="263" y="-158.5" font-family="Helvetica,sans-Serif" font-size="10.00">+ NumPositiveNodes</text>
<text text-anchor="start" x="263" y="-147.5" font-family="Helvetica,sans-Serif" font-size="10.00">+ NumNegativeNodes</text>
<polyline fill="none" stroke="black" points="255,-140.5 436,-140.5 "/>
<text text-anchor="start" x="263" y="-128.5" font-family="Helvetica,sans-Serif" font-size="10.00">+ Initialize()</text>
<text text-anchor="start" x="263" y="-117.5" font-family="Helvetica,sans-Serif" font-size="10.00">+ IsSplit()</text>
<text text-anchor="start" x="263" y="-106.5" font-family="Helvetica,sans-Serif" font-size="10.00">* ShapeFunctionsGradientsType</text>
<text text-anchor="start" x="263" y="-95.5" font-family="Helvetica,sans-Serif" font-size="10.00">* InterfaceNormalsType</text>
<text text-anchor="start" x="263" y="-84.5" font-family="Helvetica,sans-Serif" font-size="10.00">* NodalScalarData</text>
<text text-anchor="start" x="263" y="-73.5" font-family="Helvetica,sans-Serif" font-size="10.00">* NumNodes</text>
<text text-anchor="start" x="263" y="-62.5" font-family="Helvetica,sans-Serif" font-size="10.00">* PenaltyCoefficient</text>
<text text-anchor="start" x="263" y="-51.5" font-family="Helvetica,sans-Serif" font-size="10.00">* PositiveInterfaceUnitNormals</text>
<text text-anchor="start" x="263" y="-40.5" font-family="Helvetica,sans-Serif" font-size="10.00">* NumPositiveNodes</text>
<text text-anchor="start" x="263" y="-29.5" font-family="Helvetica,sans-Serif" font-size="10.00">* NumNegativeNodes</text>
<text text-anchor="start" x="263" y="-18.5" font-family="Helvetica,sans-Serif" font-size="10.00">* Initialize()</text>
<text text-anchor="start" x="263" y="-7.5" font-family="Helvetica,sans-Serif" font-size="10.00">* IsSplit()</text>
</a>
</g>
</g>
<!-- Node2 -->
<g id="node2" class="node">
<title>Node2</title>
<g id="a_node2"><a xlink:href="../../d9/dbb/class_kratos_1_1_internals_1_1_matrix.html" target="_top" xlink:title=" ">
<polygon fill="none" stroke="black" points="196,-611.5 196,-800.5 333,-800.5 333,-611.5 196,-611.5"/>
<text text-anchor="start" x="204" y="-788.5" font-family="Helvetica,sans-Serif" font-size="10.00">Kratos::Internals::</text>
<text text-anchor="start" x="204" y="-777.5" font-family="Helvetica,sans-Serif" font-size="10.00">Matrix&lt; double, AMatrix</text>
<text text-anchor="middle" x="264.5" y="-766.5" font-family="Helvetica,sans-Serif" font-size="10.00">::dynamic, 1 &gt;</text>
<polyline fill="none" stroke="black" points="196,-759.5 333,-759.5 "/>
<text text-anchor="middle" x="264.5" y="-747.5" font-family="Helvetica,sans-Serif" font-size="10.00"> </text>
<polyline fill="none" stroke="black" points="196,-740.5 333,-740.5 "/>
<text text-anchor="start" x="204" y="-728.5" font-family="Helvetica,sans-Serif" font-size="10.00">+ Matrix()</text>
<text text-anchor="start" x="204" y="-717.5" font-family="Helvetica,sans-Serif" font-size="10.00">+ Matrix()</text>
<text text-anchor="start" x="204" y="-706.5" font-family="Helvetica,sans-Serif" font-size="10.00">+ Matrix()</text>
<text text-anchor="start" x="204" y="-695.5" font-family="Helvetica,sans-Serif" font-size="10.00">+ Matrix()</text>
<text text-anchor="start" x="204" y="-684.5" font-family="Helvetica,sans-Serif" font-size="10.00">+ Matrix()</text>
<text text-anchor="start" x="204" y="-673.5" font-family="Helvetica,sans-Serif" font-size="10.00">+ Matrix()</text>
<text text-anchor="start" x="204" y="-662.5" font-family="Helvetica,sans-Serif" font-size="10.00">+ Matrix()</text>
<text text-anchor="start" x="204" y="-651.5" font-family="Helvetica,sans-Serif" font-size="10.00">+ Matrix()</text>
<text text-anchor="start" x="204" y="-640.5" font-family="Helvetica,sans-Serif" font-size="10.00">+ operator=()</text>
<text text-anchor="start" x="204" y="-629.5" font-family="Helvetica,sans-Serif" font-size="10.00">+ operator=()</text>
<text text-anchor="start" x="204" y="-618.5" font-family="Helvetica,sans-Serif" font-size="10.00">and 30 more...</text>
</a>
</g>
</g>
<!-- Node2&#45;&gt;Node1 -->
<g id="edge1" class="edge">
<title>Node2&#45;&gt;Node1</title>
<path fill="none" stroke="#404040" d="M254.15,-611.31C246.76,-518.48 242.99,-373.04 274.5,-252 275.1,-249.71 275.74,-247.41 276.42,-245.11"/>
<polygon fill="none" stroke="#404040" points="276.45,-245.03 274.51,-238.08 280.18,-233.62 282.12,-240.57 276.45,-245.03"/>
<text text-anchor="middle" x="341" y="-266" font-family="Helvetica,sans-Serif" font-size="10.00"> +PositiveInterfaceWeights</text>
<text text-anchor="middle" x="341" y="-255" font-family="Helvetica,sans-Serif" font-size="10.00">+PositiveSideWeights</text>
</g>
<!-- Node3 -->
<g id="node3" class="node">
<title>Node3</title>
<g id="a_node3"><a xlink:title=" ">
<polygon fill="none" stroke="#bfbfbf" points="167,-1157.5 167,-1247.5 332,-1247.5 332,-1157.5 167,-1157.5"/>
<text text-anchor="start" x="175" y="-1235.5" font-family="Helvetica,sans-Serif" font-size="10.00">AMatrix::MatrixExpression</text>
<text text-anchor="start" x="175" y="-1224.5" font-family="Helvetica,sans-Serif" font-size="10.00">&lt; Matrix&lt; double, TSize1,</text>
<text text-anchor="start" x="175" y="-1213.5" font-family="Helvetica,sans-Serif" font-size="10.00"> TSize2 &gt;, AMatrix::row_major</text>
<text text-anchor="middle" x="249.5" y="-1202.5" font-family="Helvetica,sans-Serif" font-size="10.00">_access &gt;</text>
<polyline fill="none" stroke="#bfbfbf" points="167,-1195.5 332,-1195.5 "/>
<text text-anchor="middle" x="249.5" y="-1183.5" font-family="Helvetica,sans-Serif" font-size="10.00"> </text>
<polyline fill="none" stroke="#bfbfbf" points="167,-1176.5 332,-1176.5 "/>
<text text-anchor="middle" x="249.5" y="-1164.5" font-family="Helvetica,sans-Serif" font-size="10.00"> </text>
</a>
</g>
</g>
<!-- Node3&#45;&gt;Node2 -->
<g id="edge2" class="edge">
<title>Node3&#45;&gt;Node2</title>
<path fill="none" stroke="midnightblue" d="M251.15,-1147.16C253.68,-1063.8 258.55,-903.26 261.65,-800.83"/>
<polygon fill="none" stroke="midnightblue" points="247.65,-1147.08 250.84,-1157.18 254.65,-1147.29 247.65,-1147.08"/>
</g>
<!-- Node8 -->
<g id="node8" class="node">
<title>Node8</title>
<g id="a_node8"><a xlink:href="../../d9/dbb/class_kratos_1_1_internals_1_1_matrix.html" target="_top" xlink:title=" ">
<polygon fill="none" stroke="black" points="9.5,-611.5 9.5,-800.5 177.5,-800.5 177.5,-611.5 9.5,-611.5"/>
<text text-anchor="start" x="17.5" y="-788.5" font-family="Helvetica,sans-Serif" font-size="10.00">Kratos::Internals::</text>
<text text-anchor="start" x="17.5" y="-777.5" font-family="Helvetica,sans-Serif" font-size="10.00">Matrix&lt; double, AMatrix</text>
<text text-anchor="middle" x="93.5" y="-766.5" font-family="Helvetica,sans-Serif" font-size="10.00">::dynamic, AMatrix::dynamic &gt;</text>
<polyline fill="none" stroke="black" points="9.5,-759.5 177.5,-759.5 "/>
<text text-anchor="middle" x="93.5" y="-747.5" font-family="Helvetica,sans-Serif" font-size="10.00"> </text>
<polyline fill="none" stroke="black" points="9.5,-740.5 177.5,-740.5 "/>
<text text-anchor="start" x="17.5" y="-728.5" font-family="Helvetica,sans-Serif" font-size="10.00">+ Matrix()</text>
<text text-anchor="start" x="17.5" y="-717.5" font-family="Helvetica,sans-Serif" font-size="10.00">+ Matrix()</text>
<text text-anchor="start" x="17.5" y="-706.5" font-family="Helvetica,sans-Serif" font-size="10.00">+ Matrix()</text>
<text text-anchor="start" x="17.5" y="-695.5" font-family="Helvetica,sans-Serif" font-size="10.00">+ Matrix()</text>
<text text-anchor="start" x="17.5" y="-684.5" font-family="Helvetica,sans-Serif" font-size="10.00">+ Matrix()</text>
<text text-anchor="start" x="17.5" y="-673.5" font-family="Helvetica,sans-Serif" font-size="10.00">+ Matrix()</text>
<text text-anchor="start" x="17.5" y="-662.5" font-family="Helvetica,sans-Serif" font-size="10.00">+ Matrix()</text>
<text text-anchor="start" x="17.5" y="-651.5" font-family="Helvetica,sans-Serif" font-size="10.00">+ Matrix()</text>
<text text-anchor="start" x="17.5" y="-640.5" font-family="Helvetica,sans-Serif" font-size="10.00">+ operator=()</text>
<text text-anchor="start" x="17.5" y="-629.5" font-family="Helvetica,sans-Serif" font-size="10.00">+ operator=()</text>
<text text-anchor="start" x="17.5" y="-618.5" font-family="Helvetica,sans-Serif" font-size="10.00">and 30 more...</text>
</a>
</g>
</g>
<!-- Node3&#45;&gt;Node8 -->
<g id="edge8" class="edge">
<title>Node3&#45;&gt;Node8</title>
<path fill="none" stroke="midnightblue" d="M203.69,-1148.97C197.2,-1139.75 191.16,-1129.91 186.5,-1120 137.92,-1016.75 114.06,-886.84 102.8,-800.58"/>
<polygon fill="none" stroke="midnightblue" points="201.02,-1151.25 209.75,-1157.26 206.67,-1147.12 201.02,-1151.25"/>
</g>
<!-- Node4 -->
<g id="node4" class="node">
<title>Node4</title>
<g id="a_node4"><a xlink:title=" ">
<polygon fill="none" stroke="#bfbfbf" points="0,-1168.5 0,-1236.5 149,-1236.5 149,-1168.5 0,-1168.5"/>
<text text-anchor="start" x="8" y="-1224.5" font-family="Helvetica,sans-Serif" font-size="10.00">AMatrix::MatrixStorage</text>
<text text-anchor="middle" x="74.5" y="-1213.5" font-family="Helvetica,sans-Serif" font-size="10.00">&lt; double, TSize1, TSize2 &gt;</text>
<polyline fill="none" stroke="#bfbfbf" points="0,-1206.5 149,-1206.5 "/>
<text text-anchor="middle" x="74.5" y="-1194.5" font-family="Helvetica,sans-Serif" font-size="10.00"> </text>
<polyline fill="none" stroke="#bfbfbf" points="0,-1187.5 149,-1187.5 "/>
<text text-anchor="middle" x="74.5" y="-1175.5" font-family="Helvetica,sans-Serif" font-size="10.00"> </text>
</a>
</g>
</g>
<!-- Node4&#45;&gt;Node2 -->
<g id="edge3" class="edge">
<title>Node4&#45;&gt;Node2</title>
<path fill="none" stroke="midnightblue" d="M145.17,-1162.53C160.93,-1150.78 176.04,-1136.53 186.5,-1120 247.86,-1023.04 263.27,-889.37 266.03,-800.67"/>
<polygon fill="none" stroke="midnightblue" points="142.99,-1159.78 136.89,-1168.45 147.06,-1165.48 142.99,-1159.78"/>
</g>
<!-- Node4&#45;&gt;Node8 -->
<g id="edge9" class="edge">
<title>Node4&#45;&gt;Node8</title>
<path fill="none" stroke="midnightblue" d="M76.17,-1158.15C79.22,-1078.66 85.78,-907.95 89.9,-800.81"/>
<polygon fill="none" stroke="midnightblue" points="72.66,-1158.16 75.78,-1168.29 79.66,-1158.43 72.66,-1158.16"/>
</g>
<!-- Node5 -->
<g id="node5" class="node">
<title>Node5</title>
<g id="a_node5"><a xlink:href="../../d9/dbb/class_kratos_1_1_internals_1_1_matrix.html" target="_top" xlink:title=" ">
<polygon fill="none" stroke="black" points="357.5,-611.5 357.5,-800.5 509.5,-800.5 509.5,-611.5 357.5,-611.5"/>
<text text-anchor="start" x="365.5" y="-788.5" font-family="Helvetica,sans-Serif" font-size="10.00">Kratos::Internals::</text>
<text text-anchor="start" x="365.5" y="-777.5" font-family="Helvetica,sans-Serif" font-size="10.00">Matrix&lt; TDataType, TSize1,</text>
<text text-anchor="middle" x="433.5" y="-766.5" font-family="Helvetica,sans-Serif" font-size="10.00"> TSize2 &gt;</text>
<polyline fill="none" stroke="black" points="357.5,-759.5 509.5,-759.5 "/>
<text text-anchor="middle" x="433.5" y="-747.5" font-family="Helvetica,sans-Serif" font-size="10.00"> </text>
<polyline fill="none" stroke="black" points="357.5,-740.5 509.5,-740.5 "/>
<text text-anchor="start" x="365.5" y="-728.5" font-family="Helvetica,sans-Serif" font-size="10.00">+ Matrix()</text>
<text text-anchor="start" x="365.5" y="-717.5" font-family="Helvetica,sans-Serif" font-size="10.00">+ Matrix()</text>
<text text-anchor="start" x="365.5" y="-706.5" font-family="Helvetica,sans-Serif" font-size="10.00">+ Matrix()</text>
<text text-anchor="start" x="365.5" y="-695.5" font-family="Helvetica,sans-Serif" font-size="10.00">+ Matrix()</text>
<text text-anchor="start" x="365.5" y="-684.5" font-family="Helvetica,sans-Serif" font-size="10.00">+ Matrix()</text>
<text text-anchor="start" x="365.5" y="-673.5" font-family="Helvetica,sans-Serif" font-size="10.00">+ Matrix()</text>
<text text-anchor="start" x="365.5" y="-662.5" font-family="Helvetica,sans-Serif" font-size="10.00">+ Matrix()</text>
<text text-anchor="start" x="365.5" y="-651.5" font-family="Helvetica,sans-Serif" font-size="10.00">+ Matrix()</text>
<text text-anchor="start" x="365.5" y="-640.5" font-family="Helvetica,sans-Serif" font-size="10.00">+ operator=()</text>
<text text-anchor="start" x="365.5" y="-629.5" font-family="Helvetica,sans-Serif" font-size="10.00">+ operator=()</text>
<text text-anchor="start" x="365.5" y="-618.5" font-family="Helvetica,sans-Serif" font-size="10.00">and 30 more...</text>
</a>
</g>
</g>
<!-- Node5&#45;&gt;Node1 -->
<g id="edge4" class="edge">
<title>Node5&#45;&gt;Node1</title>
<path fill="none" stroke="#404040" d="M438.24,-611.07C440.58,-518.37 437.87,-373.31 407.5,-252 406.93,-249.72 406.32,-247.42 405.67,-245.12"/>
<polygon fill="none" stroke="#404040" points="405.66,-245.09 400.08,-240.51 402.16,-233.61 407.74,-238.18 405.66,-245.09"/>
<text text-anchor="middle" x="472.5" y="-266" font-family="Helvetica,sans-Serif" font-size="10.00"> +PositiveInterfaceDNDX</text>
<text text-anchor="middle" x="472.5" y="-255" font-family="Helvetica,sans-Serif" font-size="10.00">+PositiveSideDNDX</text>
</g>
<!-- Node6 -->
<g id="node6" class="node">
<title>Node6</title>
<g id="a_node6"><a xlink:title=" ">
<polygon fill="none" stroke="#bfbfbf" points="535,-1157.5 535,-1247.5 700,-1247.5 700,-1157.5 535,-1157.5"/>
<text text-anchor="start" x="543" y="-1235.5" font-family="Helvetica,sans-Serif" font-size="10.00">AMatrix::MatrixExpression</text>
<text text-anchor="start" x="543" y="-1224.5" font-family="Helvetica,sans-Serif" font-size="10.00">&lt; Matrix&lt; TDataType, TSize1,</text>
<text text-anchor="start" x="543" y="-1213.5" font-family="Helvetica,sans-Serif" font-size="10.00"> TSize2 &gt;, AMatrix::row_major</text>
<text text-anchor="middle" x="617.5" y="-1202.5" font-family="Helvetica,sans-Serif" font-size="10.00">_access &gt;</text>
<polyline fill="none" stroke="#bfbfbf" points="535,-1195.5 700,-1195.5 "/>
<text text-anchor="middle" x="617.5" y="-1183.5" font-family="Helvetica,sans-Serif" font-size="10.00"> </text>
<polyline fill="none" stroke="#bfbfbf" points="535,-1176.5 700,-1176.5 "/>
<text text-anchor="middle" x="617.5" y="-1164.5" font-family="Helvetica,sans-Serif" font-size="10.00"> </text>
</a>
</g>
</g>
<!-- Node6&#45;&gt;Node5 -->
<g id="edge5" class="edge">
<title>Node6&#45;&gt;Node5</title>
<path fill="none" stroke="midnightblue" d="M597.47,-1147.67C566.51,-1064.45 506.61,-903.47 468.41,-800.83"/>
<polygon fill="none" stroke="midnightblue" points="594.24,-1149.03 601.01,-1157.18 600.8,-1146.59 594.24,-1149.03"/>
</g>
<!-- Node7 -->
<g id="node7" class="node">
<title>Node7</title>
<g id="a_node7"><a xlink:title=" ">
<polygon fill="none" stroke="#bfbfbf" points="350,-1168.5 350,-1236.5 517,-1236.5 517,-1168.5 350,-1168.5"/>
<text text-anchor="start" x="358" y="-1224.5" font-family="Helvetica,sans-Serif" font-size="10.00">AMatrix::MatrixStorage</text>
<text text-anchor="middle" x="433.5" y="-1213.5" font-family="Helvetica,sans-Serif" font-size="10.00">&lt; TDataType, TSize1, TSize2 &gt;</text>
<polyline fill="none" stroke="#bfbfbf" points="350,-1206.5 517,-1206.5 "/>
<text text-anchor="middle" x="433.5" y="-1194.5" font-family="Helvetica,sans-Serif" font-size="10.00"> </text>
<polyline fill="none" stroke="#bfbfbf" points="350,-1187.5 517,-1187.5 "/>
<text text-anchor="middle" x="433.5" y="-1175.5" font-family="Helvetica,sans-Serif" font-size="10.00"> </text>
</a>
</g>
</g>
<!-- Node7&#45;&gt;Node5 -->
<g id="edge6" class="edge">
<title>Node7&#45;&gt;Node5</title>
<path fill="none" stroke="midnightblue" d="M433.5,-1158.15C433.5,-1078.66 433.5,-907.95 433.5,-800.81"/>
<polygon fill="none" stroke="midnightblue" points="430,-1158.29 433.5,-1168.29 437,-1158.29 430,-1158.29"/>
</g>
<!-- Node8&#45;&gt;Node1 -->
<g id="edge7" class="edge">
<title>Node8&#45;&gt;Node1</title>
<path fill="none" stroke="#404040" d="M88.78,-611.29C88.22,-514.5 99.71,-362.42 166.5,-252 185.54,-220.52 215.02,-193.98 244.6,-173.04"/>
<polygon fill="none" stroke="#404040" points="244.73,-172.95 247.41,-166.25 254.62,-166.15 251.94,-172.84 244.73,-172.95"/>
<text text-anchor="middle" x="217.5" y="-266" font-family="Helvetica,sans-Serif" font-size="10.00"> +PositiveInterfaceN</text>
<text text-anchor="middle" x="217.5" y="-255" font-family="Helvetica,sans-Serif" font-size="10.00">+PositiveSideN</text>
</g>
<!-- Node9 -->
<g id="node9" class="node">
<title>Node9</title>
<g id="a_node9"><a xlink:href="../../d4/ddc/class_kratos_1_1array__1d.html" target="_top" xlink:title=" ">
<polygon fill="none" stroke="black" points="663,-292.5 663,-1119.5 812,-1119.5 812,-292.5 663,-292.5"/>
<text text-anchor="start" x="671" y="-1107.5" font-family="Helvetica,sans-Serif" font-size="10.00">Kratos::array_1d&lt; double,</text>
<text text-anchor="middle" x="737.5" y="-1096.5" font-family="Helvetica,sans-Serif" font-size="10.00"> NumNodes &gt;</text>
<polyline fill="none" stroke="black" points="663,-1089.5 812,-1089.5 "/>
<text text-anchor="middle" x="737.5" y="-1077.5" font-family="Helvetica,sans-Serif" font-size="10.00"> </text>
<polyline fill="none" stroke="black" points="663,-1070.5 812,-1070.5 "/>
<text text-anchor="start" x="671" y="-1058.5" font-family="Helvetica,sans-Serif" font-size="10.00">+ array_1d()</text>
<text text-anchor="start" x="671" y="-1047.5" font-family="Helvetica,sans-Serif" font-size="10.00">+ array_1d()</text>
<text text-anchor="start" x="671" y="-1036.5" font-family="Helvetica,sans-Serif" font-size="10.00">+ array_1d()</text>
<text text-anchor="start" x="671" y="-1025.5" font-family="Helvetica,sans-Serif" font-size="10.00">+ array_1d()</text>
<text text-anchor="start" x="671" y="-1014.5" font-family="Helvetica,sans-Serif" font-size="10.00">+ array_1d()</text>
<text text-anchor="start" x="671" y="-1003.5" font-family="Helvetica,sans-Serif" font-size="10.00">+ array_1d()</text>
<text text-anchor="start" x="671" y="-992.5" font-family="Helvetica,sans-Serif" font-size="10.00">+ array_1d()</text>
<text text-anchor="start" x="671" y="-981.5" font-family="Helvetica,sans-Serif" font-size="10.00">+ operator()()</text>
<text text-anchor="start" x="671" y="-970.5" font-family="Helvetica,sans-Serif" font-size="10.00">+ operator()()</text>
<text text-anchor="start" x="671" y="-959.5" font-family="Helvetica,sans-Serif" font-size="10.00">+ operator[]()</text>
<text text-anchor="start" x="671" y="-948.5" font-family="Helvetica,sans-Serif" font-size="10.00">+ operator[]()</text>
<text text-anchor="start" x="671" y="-937.5" font-family="Helvetica,sans-Serif" font-size="10.00">+ operator=()</text>
<text text-anchor="start" x="671" y="-926.5" font-family="Helvetica,sans-Serif" font-size="10.00">+ operator=()</text>
<text text-anchor="start" x="671" y="-915.5" font-family="Helvetica,sans-Serif" font-size="10.00">+ operator+=()</text>
<text text-anchor="start" x="671" y="-904.5" font-family="Helvetica,sans-Serif" font-size="10.00">+ operator&#45;=()</text>
<text text-anchor="start" x="671" y="-893.5" font-family="Helvetica,sans-Serif" font-size="10.00">+ operator/=()</text>
<text text-anchor="start" x="671" y="-882.5" font-family="Helvetica,sans-Serif" font-size="10.00">+ operator==()</text>
<text text-anchor="start" x="671" y="-871.5" font-family="Helvetica,sans-Serif" font-size="10.00">* size_type</text>
<text text-anchor="start" x="671" y="-860.5" font-family="Helvetica,sans-Serif" font-size="10.00">* difference_type</text>
<text text-anchor="start" x="671" y="-849.5" font-family="Helvetica,sans-Serif" font-size="10.00">* value_type</text>
<text text-anchor="start" x="671" y="-838.5" font-family="Helvetica,sans-Serif" font-size="10.00">* const_reference</text>
<text text-anchor="start" x="671" y="-827.5" font-family="Helvetica,sans-Serif" font-size="10.00">* reference</text>
<text text-anchor="start" x="671" y="-816.5" font-family="Helvetica,sans-Serif" font-size="10.00">* array_type</text>
<text text-anchor="start" x="671" y="-805.5" font-family="Helvetica,sans-Serif" font-size="10.00">* pointer</text>
<text text-anchor="start" x="671" y="-794.5" font-family="Helvetica,sans-Serif" font-size="10.00">* self_type</text>
<text text-anchor="start" x="671" y="-783.5" font-family="Helvetica,sans-Serif" font-size="10.00">* const_closure_type</text>
<text text-anchor="start" x="671" y="-772.5" font-family="Helvetica,sans-Serif" font-size="10.00">* closure_type</text>
<text text-anchor="start" x="671" y="-761.5" font-family="Helvetica,sans-Serif" font-size="10.00">* vector_temporary_type</text>
<text text-anchor="start" x="671" y="-750.5" font-family="Helvetica,sans-Serif" font-size="10.00">* storage_category</text>
<text text-anchor="start" x="671" y="-739.5" font-family="Helvetica,sans-Serif" font-size="10.00">* KRATOS_CLASS_POINTER</text>
<text text-anchor="start" x="671" y="-728.5" font-family="Helvetica,sans-Serif" font-size="10.00">_DEFINITION()</text>
<text text-anchor="start" x="671" y="-717.5" font-family="Helvetica,sans-Serif" font-size="10.00">* const_reverse_iterator</text>
<text text-anchor="start" x="671" y="-706.5" font-family="Helvetica,sans-Serif" font-size="10.00">* reverse_iterator</text>
<text text-anchor="start" x="671" y="-695.5" font-family="Helvetica,sans-Serif" font-size="10.00">* const_iterator_type</text>
<text text-anchor="start" x="671" y="-684.5" font-family="Helvetica,sans-Serif" font-size="10.00">* iterator_type</text>
<text text-anchor="start" x="671" y="-673.5" font-family="Helvetica,sans-Serif" font-size="10.00">* find()</text>
<text text-anchor="start" x="671" y="-662.5" font-family="Helvetica,sans-Serif" font-size="10.00">* find()</text>
<text text-anchor="start" x="671" y="-651.5" font-family="Helvetica,sans-Serif" font-size="10.00">* size()</text>
<text text-anchor="start" x="671" y="-640.5" font-family="Helvetica,sans-Serif" font-size="10.00">* minus_assign()</text>
<text text-anchor="start" x="671" y="-629.5" font-family="Helvetica,sans-Serif" font-size="10.00">* data()</text>
<text text-anchor="start" x="671" y="-618.5" font-family="Helvetica,sans-Serif" font-size="10.00">* data()</text>
<text text-anchor="start" x="671" y="-607.5" font-family="Helvetica,sans-Serif" font-size="10.00">and 8 more...</text>
<text text-anchor="start" x="671" y="-596.5" font-family="Helvetica,sans-Serif" font-size="10.00">* data_</text>
<text text-anchor="start" x="671" y="-585.5" font-family="Helvetica,sans-Serif" font-size="10.00">* array_1d()</text>
<text text-anchor="start" x="671" y="-574.5" font-family="Helvetica,sans-Serif" font-size="10.00">* array_1d()</text>
<text text-anchor="start" x="671" y="-563.5" font-family="Helvetica,sans-Serif" font-size="10.00">* array_1d()</text>
<text text-anchor="start" x="671" y="-552.5" font-family="Helvetica,sans-Serif" font-size="10.00">* array_1d()</text>
<text text-anchor="start" x="671" y="-541.5" font-family="Helvetica,sans-Serif" font-size="10.00">* array_1d()</text>
<text text-anchor="start" x="671" y="-530.5" font-family="Helvetica,sans-Serif" font-size="10.00">* array_1d()</text>
<text text-anchor="start" x="671" y="-519.5" font-family="Helvetica,sans-Serif" font-size="10.00">* array_1d()</text>
<text text-anchor="start" x="671" y="-508.5" font-family="Helvetica,sans-Serif" font-size="10.00">* operator()()</text>
<text text-anchor="start" x="671" y="-497.5" font-family="Helvetica,sans-Serif" font-size="10.00">* operator()()</text>
<text text-anchor="start" x="671" y="-486.5" font-family="Helvetica,sans-Serif" font-size="10.00">* operator[]()</text>
<text text-anchor="start" x="671" y="-475.5" font-family="Helvetica,sans-Serif" font-size="10.00">* operator[]()</text>
<text text-anchor="start" x="671" y="-464.5" font-family="Helvetica,sans-Serif" font-size="10.00">* operator=()</text>
<text text-anchor="start" x="671" y="-453.5" font-family="Helvetica,sans-Serif" font-size="10.00">* operator=()</text>
<text text-anchor="start" x="671" y="-442.5" font-family="Helvetica,sans-Serif" font-size="10.00">* operator+=()</text>
<text text-anchor="start" x="671" y="-431.5" font-family="Helvetica,sans-Serif" font-size="10.00">* operator&#45;=()</text>
<text text-anchor="start" x="671" y="-420.5" font-family="Helvetica,sans-Serif" font-size="10.00">* operator/=()</text>
<text text-anchor="start" x="671" y="-409.5" font-family="Helvetica,sans-Serif" font-size="10.00">* operator==()</text>
<text text-anchor="start" x="671" y="-398.5" font-family="Helvetica,sans-Serif" font-size="10.00">* resize()</text>
<text text-anchor="start" x="671" y="-387.5" font-family="Helvetica,sans-Serif" font-size="10.00">* assign_temporary()</text>
<text text-anchor="start" x="671" y="-376.5" font-family="Helvetica,sans-Serif" font-size="10.00">* operator*=()</text>
<text text-anchor="start" x="671" y="-365.5" font-family="Helvetica,sans-Serif" font-size="10.00">* plus_assign()</text>
<text text-anchor="start" x="671" y="-354.5" font-family="Helvetica,sans-Serif" font-size="10.00">* assign()</text>
<text text-anchor="start" x="671" y="-343.5" font-family="Helvetica,sans-Serif" font-size="10.00">* swap()</text>
<text text-anchor="start" x="671" y="-332.5" font-family="Helvetica,sans-Serif" font-size="10.00">* insert_element()</text>
<text text-anchor="start" x="671" y="-321.5" font-family="Helvetica,sans-Serif" font-size="10.00">* erase_element()</text>
<text text-anchor="start" x="671" y="-310.5" font-family="Helvetica,sans-Serif" font-size="10.00">* clear()</text>
<text text-anchor="start" x="671" y="-299.5" font-family="Helvetica,sans-Serif" font-size="10.00">* swap</text>
</a>
</g>
</g>
<!-- Node9&#45;&gt;Node1 -->
<g id="edge10" class="edge">
<title>Node9&#45;&gt;Node1</title>
<path fill="none" stroke="#404040" d="M662.9,-469.93C632.01,-395.27 590.92,-315.66 538.5,-252 513.23,-221.31 479.23,-194.57 446.81,-173.22"/>
<polygon fill="none" stroke="#404040" points="446.44,-172.98 439.23,-173.09 436.35,-166.48 443.56,-166.37 446.44,-172.98"/>
<text text-anchor="middle" x="599.5" y="-260.5" font-family="Helvetica,sans-Serif" font-size="10.00"> +NodalDistances</text>
</g>
<!-- Node10 -->
<g id="node10" class="node">
<title>Node10</title>
<g id="a_node10"><a xlink:title=" ">
<polygon fill="none" stroke="#bfbfbf" points="718,-1163 718,-1242 861,-1242 861,-1163 718,-1163"/>
<text text-anchor="start" x="726" y="-1230" font-family="Helvetica,sans-Serif" font-size="10.00">boost::numeric::ublas</text>
<text text-anchor="start" x="726" y="-1219" font-family="Helvetica,sans-Serif" font-size="10.00">::vector_expression&lt;</text>
<text text-anchor="middle" x="789.5" y="-1208" font-family="Helvetica,sans-Serif" font-size="10.00"> array_1d&lt; double, N &gt; &gt;</text>
<polyline fill="none" stroke="#bfbfbf" points="718,-1201 861,-1201 "/>
<text text-anchor="middle" x="789.5" y="-1189" font-family="Helvetica,sans-Serif" font-size="10.00"> </text>
<polyline fill="none" stroke="#bfbfbf" points="718,-1182 861,-1182 "/>
<text text-anchor="middle" x="789.5" y="-1170" font-family="Helvetica,sans-Serif" font-size="10.00"> </text>
</a>
</g>
</g>
<!-- Node10&#45;&gt;Node9 -->
<g id="edge11" class="edge">
<title>Node10&#45;&gt;Node9</title>
<path fill="none" stroke="midnightblue" d="M784.35,-1152.49C783.31,-1142.63 782.14,-1131.55 780.88,-1119.51"/>
<polygon fill="none" stroke="midnightblue" points="780.89,-1153.12 785.42,-1162.7 787.85,-1152.39 780.89,-1153.12"/>
</g>
</g>
</svg>
        <g id="navigator" transform="translate(0 0)" fill="#404254">
                <rect fill="#f2f5e9" fill-opacity="0.5" stroke="#606060" stroke-width=".5" x="0" y="0" width="60" height="60"/>
                <use id="zoomplus" xlink:href="#zoomPlus" x="17" y="9" onmousedown="handleZoom(evt,'in')"/>
                <use id="zoomminus" xlink:href="#zoomMin" x="42" y="9" onmousedown="handleZoom(evt,'out')"/>
                <use id="reset" xlink:href="#resetDef" x="30" y="36" onmousedown="handleReset()"/>
                <g id="arrowUp" xlink:href="#dirArrow" transform="translate(30 24)" onmousedown="handlePan(0,-1)">
                  <use xlink:href="#rim" fill="#404040">
                        <set attributeName="fill" to="#808080" begin="arrowUp.mouseover" end="arrowUp.mouseout"/>
                  </use>
                  <path fill="none" stroke="white" stroke-width="1.5" d="M0,-3.0v7 M-2.5,-0.5L0,-3.0L2.5,-0.5"/>
                </g>
                <g id="arrowRight" xlink:href="#dirArrow" transform="rotate(90) translate(36 -43)" onmousedown="handlePan(1,0)">
                  <use xlink:href="#rim" fill="#404040">
                        <set attributeName="fill" to="#808080" begin="arrowRight.mouseover" end="arrowRight.mouseout"/>
                  </use>
                  <path fill="none" stroke="white" stroke-width="1.5" d="M0,-3.0v7 M-2.5,-0.5L0,-3.0L2.5,-0.5"/>
                </g>
                <g id="arrowDown" xlink:href="#dirArrow" transform="rotate(180) translate(-30 -48)" onmousedown="handlePan(0,1)">
                  <use xlink:href="#rim" fill="#404040">
                        <set attributeName="fill" to="#808080" begin="arrowDown.mouseover" end="arrowDown.mouseout"/>
                  </use>
                  <path fill="none" stroke="white" stroke-width="1.5" d="M0,-3.0v7 M-2.5,-0.5L0,-3.0L2.5,-0.5"/>
                </g>
                <g id="arrowLeft" xlink:href="#dirArrow" transform="rotate(270) translate(-36 17)" onmousedown="handlePan(-1,0)">
                  <use xlink:href="#rim" fill="#404040">
                        <set attributeName="fill" to="#808080" begin="arrowLeft.mouseover" end="arrowLeft.mouseout"/>
                  </use>
                  <path fill="none" stroke="white" stroke-width="1.5" d="M0,-3.0v7 M-2.5,-0.5L0,-3.0L2.5,-0.5"/>
                </g>
        </g>
        <svg viewBox="0 0 15 15" width="100%" height="30px" preserveAspectRatio="xMaxYMin meet">
         <g id="arrow_out" transform="scale(0.3 0.3)">
          <a xlink:href="class_kratos_1_1_embedded_laplacian_internals_1_1_embedded_element_data__coll__graph_org.svg" target="_base">
           <rect id="button" ry="5" rx="5" y="6" x="6" height="38" width="38"
                fill="#f2f5e9" fill-opacity="0.5" stroke="#606060" stroke-width="1.0"/>
           <path id="arrow"
             d="M 11.500037,31.436501 C 11.940474,20.09759 22.043105,11.32322 32.158766,21.979434 L 37.068811,17.246167 C 37.068811,17.246167 37.088388,32 37.088388,32 L 22.160133,31.978069 C 22.160133,31.978069 26.997745,27.140456 26.997745,27.140456 C 18.528582,18.264221 13.291696,25.230495 11.500037,31.436501 z"
             style="fill:#404040;"/>
          </a>
         </g>
        </svg>
</svg>
