<?xml version="1.0" encoding="UTF-8" standalone="no"?>
<!DOCTYPE svg PUBLIC "-//W3C//DTD SVG 1.1//EN"
 "http://www.w3.org/Graphics/SVG/1.1/DTD/svg11.dtd">
<!-- Generated by graphviz version 2.43.0 (0)
 -->
<!-- Title: /home/runner/work/Documentation/Documentation/master/applications/DEMApplication/custom_utilities/mesh_to_clu_converter.cpp Pages: 1 -->
<svg width="409pt" height="117pt"
 viewBox="0.00 0.00 408.50 117.00" xmlns="http://www.w3.org/2000/svg" xmlns:xlink="http://www.w3.org/1999/xlink">
<g id="graph0" class="graph" transform="scale(1 1) rotate(0) translate(4 113)">
<title>/home/runner/work/Documentation/Documentation/master/applications/DEMApplication/custom_utilities/mesh_to_clu_converter.cpp</title>
<!-- Node1 -->
<g id="node1" class="node">
<title>Node1</title>
<g id="a_node1"><a xlink:title=" ">
<polygon fill="#bfbfbf" stroke="black" points="117,-56.5 117,-108.5 311,-108.5 311,-56.5 117,-56.5"/>
<text text-anchor="start" x="125" y="-96.5" font-family="Helvetica,sans-Serif" font-size="10.00">/home/runner/work/Documentation</text>
<text text-anchor="start" x="125" y="-85.5" font-family="Helvetica,sans-Serif" font-size="10.00">/Documentation/master/applications</text>
<text text-anchor="start" x="125" y="-74.5" font-family="Helvetica,sans-Serif" font-size="10.00">/DEMApplication/custom_utilities</text>
<text text-anchor="middle" x="214" y="-63.5" font-family="Helvetica,sans-Serif" font-size="10.00">/mesh_to_clu_converter.cpp</text>
</a>
</g>
</g>
<!-- Node2 -->
<g id="node2" class="node">
<title>Node2</title>
<g id="a_node2"><a xlink:title=" ">
<polygon fill="none" stroke="#bfbfbf" points="0,-0.5 0,-19.5 60,-19.5 60,-0.5 0,-0.5"/>
<text text-anchor="middle" x="30" y="-7.5" font-family="Helvetica,sans-Serif" font-size="10.00">iostream</text>
</a>
</g>
</g>
<!-- Node1&#45;&gt;Node2 -->
<g id="edge1" class="edge">
<title>Node1&#45;&gt;Node2</title>
<path fill="none" stroke="midnightblue" d="M148.61,-56.45C119.15,-45.16 85.7,-32.34 61.85,-23.2"/>
<polygon fill="midnightblue" stroke="midnightblue" points="62.85,-19.84 52.25,-19.53 60.34,-26.37 62.85,-19.84"/>
</g>
<!-- Node3 -->
<g id="node3" class="node">
<title>Node3</title>
<g id="a_node3"><a xlink:title=" ">
<polygon fill="none" stroke="#bfbfbf" points="78.5,-0.5 78.5,-19.5 133.5,-19.5 133.5,-0.5 78.5,-0.5"/>
<text text-anchor="middle" x="106" y="-7.5" font-family="Helvetica,sans-Serif" font-size="10.00">fstream</text>
</a>
</g>
</g>
<!-- Node1&#45;&gt;Node3 -->
<g id="edge2" class="edge">
<title>Node1&#45;&gt;Node3</title>
<path fill="none" stroke="midnightblue" d="M175.62,-56.45C159.56,-45.96 141.48,-34.16 127.78,-25.22"/>
<polygon fill="midnightblue" stroke="midnightblue" points="129.35,-22.06 119.06,-19.53 125.52,-27.92 129.35,-22.06"/>
</g>
<!-- Node4 -->
<g id="node4" class="node">
<title>Node4</title>
<g id="a_node4"><a xlink:title=" ">
<polygon fill="none" stroke="#bfbfbf" points="152,-0.5 152,-19.5 208,-19.5 208,-0.5 152,-0.5"/>
<text text-anchor="middle" x="180" y="-7.5" font-family="Helvetica,sans-Serif" font-size="10.00">sstream</text>
</a>
</g>
</g>
<!-- Node1&#45;&gt;Node4 -->
<g id="edge3" class="edge">
<title>Node1&#45;&gt;Node4</title>
<path fill="none" stroke="midnightblue" d="M201.92,-56.45C197.52,-47.33 192.64,-37.22 188.61,-28.85"/>
<polygon fill="midnightblue" stroke="midnightblue" points="191.69,-27.18 184.19,-19.7 185.39,-30.22 191.69,-27.18"/>
</g>
<!-- Node5 -->
<g id="node5" class="node">
<title>Node5</title>
<g id="a_node5"><a xlink:title=" ">
<polygon fill="none" stroke="#bfbfbf" points="226,-0.5 226,-19.5 270,-19.5 270,-0.5 226,-0.5"/>
<text text-anchor="middle" x="248" y="-7.5" font-family="Helvetica,sans-Serif" font-size="10.00">string</text>
</a>
</g>
</g>
<!-- Node1&#45;&gt;Node5 -->
<g id="edge4" class="edge">
<title>Node1&#45;&gt;Node5</title>
<path fill="none" stroke="midnightblue" d="M226.08,-56.45C230.48,-47.33 235.36,-37.22 239.39,-28.85"/>
<polygon fill="midnightblue" stroke="midnightblue" points="242.61,-30.22 243.81,-19.7 236.31,-27.18 242.61,-30.22"/>
</g>
<!-- Node6 -->
<g id="node6" class="node">
<title>Node6</title>
<g id="a_node6"><a xlink:title=" ">
<polygon fill="none" stroke="#bfbfbf" points="288.5,-0.5 288.5,-19.5 335.5,-19.5 335.5,-0.5 288.5,-0.5"/>
<text text-anchor="middle" x="312" y="-7.5" font-family="Helvetica,sans-Serif" font-size="10.00">vector</text>
</a>
</g>
</g>
<!-- Node1&#45;&gt;Node6 -->
<g id="edge5" class="edge">
<title>Node1&#45;&gt;Node6</title>
<path fill="none" stroke="midnightblue" d="M248.83,-56.45C263.17,-46.13 279.29,-34.53 291.65,-25.64"/>
<polygon fill="midnightblue" stroke="midnightblue" points="293.84,-28.38 299.91,-19.7 289.75,-22.69 293.84,-28.38"/>
</g>
<!-- Node7 -->
<g id="node7" class="node">
<title>Node7</title>
<g id="a_node7"><a xlink:title=" ">
<polygon fill="none" stroke="#bfbfbf" points="353.5,-0.5 353.5,-19.5 400.5,-19.5 400.5,-0.5 353.5,-0.5"/>
<text text-anchor="middle" x="377" y="-7.5" font-family="Helvetica,sans-Serif" font-size="10.00">cmath</text>
</a>
</g>
</g>
<!-- Node1&#45;&gt;Node7 -->
<g id="edge6" class="edge">
<title>Node1&#45;&gt;Node7</title>
<path fill="none" stroke="midnightblue" d="M271.93,-56.45C297.68,-45.31 326.87,-32.68 347.93,-23.57"/>
<polygon fill="midnightblue" stroke="midnightblue" points="349.5,-26.71 357.29,-19.53 346.72,-20.28 349.5,-26.71"/>
</g>
</g>
</svg>
