<?xml version="1.0" encoding="UTF-8" standalone="no"?>
<!DOCTYPE svg PUBLIC "-//W3C//DTD SVG 1.1//EN"
 "http://www.w3.org/Graphics/SVG/1.1/DTD/svg11.dtd">
<!-- Generated by graphviz version 2.43.0 (0)
 -->
<!-- Title: /home/runner/work/Documentation/Documentation/master/applications/GeoMechanicsApplication/custom_utilities/dof_utilities.h Pages: 1 -->
<!--zoomable 550 -->
<svg id="main" version="1.1" xmlns="http://www.w3.org/2000/svg" xmlns:xlink="http://www.w3.org/1999/xlink" xml:space="preserve" onload="init(evt)">
<style type="text/css"><![CDATA[
.edge:hover path { stroke: red; }
.edge:hover polygon { stroke: red; fill: red; }
]]></style>
<script type="text/javascript"><![CDATA[
var edges = document.getElementsByTagName('g');
if (edges && edges.length) {
  for (var i=0;i<edges.length;i++) {
    if (edges[i].id.substr(0,4)=='edge') {
      edges[i].setAttribute('class','edge');
    }
  }
}
]]></script>
        <defs>
                <circle id="rim" cx="0" cy="0" r="7"/>
                <circle id="rim2" cx="0" cy="0" r="3.5"/>
                <g id="zoomPlus">
                        <use xlink:href="#rim" fill="#404040">
                                <set attributeName="fill" to="#808080" begin="zoomplus.mouseover" end="zoomplus.mouseout"/>
                        </use>
                        <path d="M-4,0h8M0,-4v8" fill="none" stroke="white" stroke-width="1.5" pointer-events="none"/>
                </g>
                <g id="zoomMin">
                        <use xlink:href="#rim" fill="#404040">
                                <set attributeName="fill" to="#808080" begin="zoomminus.mouseover" end="zoomminus.mouseout"/>
                        </use>
                        <path d="M-4,0h8" fill="none" stroke="white" stroke-width="1.5" pointer-events="none"/>
                </g>
                <g id="dirArrow">
                        <path fill="none" stroke="white" stroke-width="1.5" d="M0,-3.0v7 M-2.5,-0.5L0,-3.0L2.5,-0.5"/>
                </g>
               <g id="resetDef">
                       <use xlink:href="#rim2" fill="#404040">
                               <set attributeName="fill" to="#808080" begin="reset.mouseover" end="reset.mouseout"/>
                       </use>
               </g>
        </defs>

<script type="text/javascript">
var viewWidth = 3606;
var viewHeight = 550;
var sectionId = 'dynsection-1';
</script>
<script xlink:href="../../svgpan.js"/>
<svg id="graph" class="graph">
<g id="viewport">
<title>/home/runner/work/Documentation/Documentation/master/applications/GeoMechanicsApplication/custom_utilities/dof_utilities.h</title>
<!-- Node1 -->
<g id="node1" class="node">
<title>Node1</title>
<g id="a_node1"><a xlink:title=" ">
<polygon fill="#bfbfbf" stroke="black" points="1746,-489.5 1746,-541.5 1940,-541.5 1940,-489.5 1746,-489.5"/>
<text text-anchor="start" x="1754" y="-529.5" font-family="Helvetica,sans-Serif" font-size="10.00">/home/runner/work/Documentation</text>
<text text-anchor="start" x="1754" y="-518.5" font-family="Helvetica,sans-Serif" font-size="10.00">/Documentation/master/applications</text>
<text text-anchor="start" x="1754" y="-507.5" font-family="Helvetica,sans-Serif" font-size="10.00">/GeoMechanicsApplication/custom</text>
<text text-anchor="middle" x="1843" y="-496.5" font-family="Helvetica,sans-Serif" font-size="10.00">_utilities/dof_utilities.h</text>
</a>
</g>
</g>
<!-- Node2 -->
<g id="node2" class="node">
<title>Node2</title>
<g id="a_node2"><a xlink:href="../../d5/d37/general___u___pw__diff__order__condition_8cpp.html" target="_top" xlink:title=" ">
<polygon fill="none" stroke="black" points="0,-389.5 0,-452.5 196,-452.5 196,-389.5 0,-389.5"/>
<text text-anchor="start" x="8" y="-440.5" font-family="Helvetica,sans-Serif" font-size="10.00">/home/runner/work/Documentation</text>
<text text-anchor="start" x="8" y="-429.5" font-family="Helvetica,sans-Serif" font-size="10.00">/Documentation/master/applications</text>
<text text-anchor="start" x="8" y="-418.5" font-family="Helvetica,sans-Serif" font-size="10.00">/GeoMechanicsApplication/custom</text>
<text text-anchor="start" x="8" y="-407.5" font-family="Helvetica,sans-Serif" font-size="10.00">_conditions/general_U_Pw_diff_order</text>
<text text-anchor="middle" x="98" y="-396.5" font-family="Helvetica,sans-Serif" font-size="10.00">_condition.cpp</text>
</a>
</g>
</g>
<!-- Node1&#45;&gt;Node2 -->
<g id="edge1" class="edge">
<title>Node1&#45;&gt;Node2</title>
<path fill="none" stroke="midnightblue" d="M1735.7,-513.89C1420.52,-511.55 501.17,-500.72 205,-453 202.04,-452.52 199.05,-451.99 196.03,-451.41"/>
<polygon fill="midnightblue" stroke="midnightblue" points="1735.72,-517.39 1745.75,-513.96 1735.77,-510.39 1735.72,-517.39"/>
</g>
<!-- Node3 -->
<g id="node3" class="node">
<title>Node3</title>
<g id="a_node3"><a xlink:href="../../df/d15/_pw__condition_8cpp.html" target="_top" xlink:title=" ">
<polygon fill="none" stroke="black" points="214,-395 214,-447 408,-447 408,-395 214,-395"/>
<text text-anchor="start" x="222" y="-435" font-family="Helvetica,sans-Serif" font-size="10.00">/home/runner/work/Documentation</text>
<text text-anchor="start" x="222" y="-424" font-family="Helvetica,sans-Serif" font-size="10.00">/Documentation/master/applications</text>
<text text-anchor="start" x="222" y="-413" font-family="Helvetica,sans-Serif" font-size="10.00">/GeoMechanicsApplication/custom</text>
<text text-anchor="middle" x="311" y="-402" font-family="Helvetica,sans-Serif" font-size="10.00">_conditions/Pw_condition.cpp</text>
</a>
</g>
</g>
<!-- Node1&#45;&gt;Node3 -->
<g id="edge2" class="edge">
<title>Node1&#45;&gt;Node3</title>
<path fill="none" stroke="midnightblue" d="M1735.38,-513.22C1448.57,-509.26 670.42,-494.89 417,-453 407.73,-451.47 398.13,-449.39 388.65,-447.02"/>
<polygon fill="midnightblue" stroke="midnightblue" points="1735.74,-516.72 1745.79,-513.36 1735.84,-509.72 1735.74,-516.72"/>
</g>
<!-- Node4 -->
<g id="node4" class="node">
<title>Node4</title>
<g id="a_node4"><a xlink:href="../../dd/dc5/_t__condition_8cpp.html" target="_top" xlink:title=" ">
<polygon fill="none" stroke="black" points="426,-395 426,-447 620,-447 620,-395 426,-395"/>
<text text-anchor="start" x="434" y="-435" font-family="Helvetica,sans-Serif" font-size="10.00">/home/runner/work/Documentation</text>
<text text-anchor="start" x="434" y="-424" font-family="Helvetica,sans-Serif" font-size="10.00">/Documentation/master/applications</text>
<text text-anchor="start" x="434" y="-413" font-family="Helvetica,sans-Serif" font-size="10.00">/GeoMechanicsApplication/custom</text>
<text text-anchor="middle" x="523" y="-402" font-family="Helvetica,sans-Serif" font-size="10.00">_conditions/T_condition.cpp</text>
</a>
</g>
</g>
<!-- Node1&#45;&gt;Node4 -->
<g id="edge3" class="edge">
<title>Node1&#45;&gt;Node4</title>
<path fill="none" stroke="midnightblue" d="M1735.74,-512.28C1480.05,-506.47 840.24,-488.73 629,-453 619.83,-451.45 610.33,-449.37 600.96,-447.03"/>
<polygon fill="midnightblue" stroke="midnightblue" points="1735.71,-515.78 1745.78,-512.51 1735.86,-508.78 1735.71,-515.78"/>
</g>
<!-- Node5 -->
<g id="node5" class="node">
<title>Node5</title>
<g id="a_node5"><a xlink:href="../../d9/dcd/_u___pw__condition_8cpp.html" target="_top" xlink:title=" ">
<polygon fill="none" stroke="black" points="638,-395 638,-447 832,-447 832,-395 638,-395"/>
<text text-anchor="start" x="646" y="-435" font-family="Helvetica,sans-Serif" font-size="10.00">/home/runner/work/Documentation</text>
<text text-anchor="start" x="646" y="-424" font-family="Helvetica,sans-Serif" font-size="10.00">/Documentation/master/applications</text>
<text text-anchor="start" x="646" y="-413" font-family="Helvetica,sans-Serif" font-size="10.00">/GeoMechanicsApplication/custom</text>
<text text-anchor="middle" x="735" y="-402" font-family="Helvetica,sans-Serif" font-size="10.00">_conditions/U_Pw_condition.cpp</text>
</a>
</g>
</g>
<!-- Node1&#45;&gt;Node5 -->
<g id="edge4" class="edge">
<title>Node1&#45;&gt;Node5</title>
<path fill="none" stroke="midnightblue" d="M1735.97,-510.95C1514.06,-503.1 1010.41,-482.59 841,-453 831.93,-451.42 822.54,-449.34 813.26,-447"/>
<polygon fill="midnightblue" stroke="midnightblue" points="1735.88,-514.45 1746,-511.31 1736.13,-507.46 1735.88,-514.45"/>
</g>
<!-- Node6 -->
<g id="node6" class="node">
<title>Node6</title>
<g id="a_node6"><a xlink:href="../../d3/d03/_u___pw__normal__lysmer__absorbing__condition_8cpp.html" target="_top" xlink:title=" ">
<polygon fill="none" stroke="black" points="850,-389.5 850,-452.5 1084,-452.5 1084,-389.5 850,-389.5"/>
<text text-anchor="start" x="858" y="-440.5" font-family="Helvetica,sans-Serif" font-size="10.00">/home/runner/work/Documentation</text>
<text text-anchor="start" x="858" y="-429.5" font-family="Helvetica,sans-Serif" font-size="10.00">/Documentation/master/applications</text>
<text text-anchor="start" x="858" y="-418.5" font-family="Helvetica,sans-Serif" font-size="10.00">/GeoMechanicsApplication/custom</text>
<text text-anchor="start" x="858" y="-407.5" font-family="Helvetica,sans-Serif" font-size="10.00">_conditions/U_Pw_normal_lysmer_absorbing</text>
<text text-anchor="middle" x="967" y="-396.5" font-family="Helvetica,sans-Serif" font-size="10.00">_condition.cpp</text>
</a>
</g>
</g>
<!-- Node1&#45;&gt;Node6 -->
<g id="edge5" class="edge">
<title>Node1&#45;&gt;Node6</title>
<path fill="none" stroke="midnightblue" d="M1735.6,-511.07C1589.41,-505.19 1319.98,-489.99 1093,-453 1090.11,-452.53 1087.19,-452.03 1084.25,-451.5"/>
<polygon fill="midnightblue" stroke="midnightblue" points="1735.78,-514.58 1745.91,-511.48 1736.06,-507.59 1735.78,-514.58"/>
</g>
<!-- Node7 -->
<g id="node7" class="node">
<title>Node7</title>
<g id="a_node7"><a xlink:href="../../da/df9/geo__steady__state___pw__piping__element_8h.html" target="_top" xlink:title=" ">
<polygon fill="none" stroke="black" points="1102,-395 1102,-447 1368,-447 1368,-395 1102,-395"/>
<text text-anchor="start" x="1110" y="-435" font-family="Helvetica,sans-Serif" font-size="10.00">/home/runner/work/Documentation</text>
<text text-anchor="start" x="1110" y="-424" font-family="Helvetica,sans-Serif" font-size="10.00">/Documentation/master/applications</text>
<text text-anchor="start" x="1110" y="-413" font-family="Helvetica,sans-Serif" font-size="10.00">/GeoMechanicsApplication/custom</text>
<text text-anchor="middle" x="1235" y="-402" font-family="Helvetica,sans-Serif" font-size="10.00">_elements/geo_steady_state_Pw_piping_element.h</text>
</a>
</g>
</g>
<!-- Node1&#45;&gt;Node7 -->
<g id="edge6" class="edge">
<title>Node1&#45;&gt;Node7</title>
<path fill="none" stroke="midnightblue" d="M1735.64,-502.92C1640.94,-492.08 1499.35,-474.39 1377,-453 1366.68,-451.2 1355.98,-449.16 1345.29,-447.02"/>
<polygon fill="midnightblue" stroke="midnightblue" points="1735.47,-506.42 1745.8,-504.07 1736.26,-499.47 1735.47,-506.42"/>
</g>
<!-- Node21 -->
<g id="node21" class="node">
<title>Node21</title>
<g id="a_node21"><a xlink:href="../../d8/d61/geo__structural__base__element_8cpp.html" target="_top" xlink:title=" ">
<polygon fill="none" stroke="black" points="1846.5,-395 1846.5,-447 2081.5,-447 2081.5,-395 1846.5,-395"/>
<text text-anchor="start" x="1854.5" y="-435" font-family="Helvetica,sans-Serif" font-size="10.00">/home/runner/work/Documentation</text>
<text text-anchor="start" x="1854.5" y="-424" font-family="Helvetica,sans-Serif" font-size="10.00">/Documentation/master/applications</text>
<text text-anchor="start" x="1854.5" y="-413" font-family="Helvetica,sans-Serif" font-size="10.00">/GeoMechanicsApplication/custom</text>
<text text-anchor="middle" x="1964" y="-402" font-family="Helvetica,sans-Serif" font-size="10.00">_elements/geo_structural_base_element.cpp</text>
</a>
</g>
</g>
<!-- Node1&#45;&gt;Node21 -->
<g id="edge22" class="edge">
<title>Node1&#45;&gt;Node21</title>
<path fill="none" stroke="midnightblue" d="M1884.07,-483.11C1899.45,-471.35 1916.7,-458.16 1931.23,-447.05"/>
<polygon fill="midnightblue" stroke="midnightblue" points="1881.56,-480.61 1875.74,-489.47 1885.81,-486.18 1881.56,-480.61"/>
</g>
<!-- Node22 -->
<g id="node22" class="node">
<title>Node22</title>
<g id="a_node22"><a xlink:href="../../d1/dea/geo__truss__element__base_8cpp.html" target="_top" xlink:title=" ">
<polygon fill="none" stroke="black" points="2100,-395 2100,-447 2312,-447 2312,-395 2100,-395"/>
<text text-anchor="start" x="2108" y="-435" font-family="Helvetica,sans-Serif" font-size="10.00">/home/runner/work/Documentation</text>
<text text-anchor="start" x="2108" y="-424" font-family="Helvetica,sans-Serif" font-size="10.00">/Documentation/master/applications</text>
<text text-anchor="start" x="2108" y="-413" font-family="Helvetica,sans-Serif" font-size="10.00">/GeoMechanicsApplication/custom</text>
<text text-anchor="middle" x="2206" y="-402" font-family="Helvetica,sans-Serif" font-size="10.00">_elements/geo_truss_element_base.cpp</text>
</a>
</g>
</g>
<!-- Node1&#45;&gt;Node22 -->
<g id="edge23" class="edge">
<title>Node1&#45;&gt;Node22</title>
<path fill="none" stroke="midnightblue" d="M1950.08,-488.45C1993.82,-477.67 2044.89,-464.93 2091,-453 2098.41,-451.08 2106.08,-449.07 2113.77,-447.04"/>
<polygon fill="midnightblue" stroke="midnightblue" points="1949.16,-485.07 1940.28,-490.86 1950.83,-491.87 1949.16,-485.07"/>
</g>
<!-- Node23 -->
<g id="node23" class="node">
<title>Node23</title>
<g id="a_node23"><a xlink:href="../../d0/d94/line__interface__element_8cpp.html" target="_top" xlink:title=" ">
<polygon fill="none" stroke="black" points="2329.5,-395 2329.5,-447 2532.5,-447 2532.5,-395 2329.5,-395"/>
<text text-anchor="start" x="2337.5" y="-435" font-family="Helvetica,sans-Serif" font-size="10.00">/home/runner/work/Documentation</text>
<text text-anchor="start" x="2337.5" y="-424" font-family="Helvetica,sans-Serif" font-size="10.00">/Documentation/master/applications</text>
<text text-anchor="start" x="2337.5" y="-413" font-family="Helvetica,sans-Serif" font-size="10.00">/GeoMechanicsApplication/custom</text>
<text text-anchor="middle" x="2431" y="-402" font-family="Helvetica,sans-Serif" font-size="10.00">_elements/line_interface_element.cpp</text>
</a>
</g>
</g>
<!-- Node1&#45;&gt;Node23 -->
<g id="edge24" class="edge">
<title>Node1&#45;&gt;Node23</title>
<path fill="none" stroke="midnightblue" d="M1950.42,-505.23C2047.79,-495.75 2194.91,-478.73 2321,-453 2329.46,-451.27 2338.22,-449.24 2346.93,-447.05"/>
<polygon fill="midnightblue" stroke="midnightblue" points="1949.89,-501.76 1940.27,-506.2 1950.56,-508.73 1949.89,-501.76"/>
</g>
<!-- Node24 -->
<g id="node24" class="node">
<title>Node24</title>
<g id="a_node24"><a xlink:href="../../d5/d8f/small__strain___u___pw__diff__order__element_8cpp.html" target="_top" xlink:title=" ">
<polygon fill="none" stroke="black" points="2550,-389.5 2550,-452.5 2744,-452.5 2744,-389.5 2550,-389.5"/>
<text text-anchor="start" x="2558" y="-440.5" font-family="Helvetica,sans-Serif" font-size="10.00">/home/runner/work/Documentation</text>
<text text-anchor="start" x="2558" y="-429.5" font-family="Helvetica,sans-Serif" font-size="10.00">/Documentation/master/applications</text>
<text text-anchor="start" x="2558" y="-418.5" font-family="Helvetica,sans-Serif" font-size="10.00">/GeoMechanicsApplication/custom</text>
<text text-anchor="start" x="2558" y="-407.5" font-family="Helvetica,sans-Serif" font-size="10.00">_elements/small_strain_U_Pw_diff</text>
<text text-anchor="middle" x="2647" y="-396.5" font-family="Helvetica,sans-Serif" font-size="10.00">_order_element.cpp</text>
</a>
</g>
</g>
<!-- Node1&#45;&gt;Node24 -->
<g id="edge25" class="edge">
<title>Node1&#45;&gt;Node24</title>
<path fill="none" stroke="midnightblue" d="M1950.38,-511.69C2088.39,-506.56 2334.88,-492.28 2542,-453 2544.61,-452.5 2547.26,-451.97 2549.92,-451.4"/>
<polygon fill="midnightblue" stroke="midnightblue" points="1950.09,-508.19 1940.23,-512.05 1950.35,-515.19 1950.09,-508.19"/>
</g>
<!-- Node25 -->
<g id="node25" class="node">
<title>Node25</title>
<g id="a_node25"><a xlink:href="../../d7/dcd/transient___pw__element_8cpp.html" target="_top" xlink:title=" ">
<polygon fill="none" stroke="black" points="2762,-395 2762,-447 2962,-447 2962,-395 2762,-395"/>
<text text-anchor="start" x="2770" y="-435" font-family="Helvetica,sans-Serif" font-size="10.00">/home/runner/work/Documentation</text>
<text text-anchor="start" x="2770" y="-424" font-family="Helvetica,sans-Serif" font-size="10.00">/Documentation/master/applications</text>
<text text-anchor="start" x="2770" y="-413" font-family="Helvetica,sans-Serif" font-size="10.00">/GeoMechanicsApplication/custom</text>
<text text-anchor="middle" x="2862" y="-402" font-family="Helvetica,sans-Serif" font-size="10.00">_elements/transient_Pw_element.cpp</text>
</a>
</g>
</g>
<!-- Node1&#45;&gt;Node25 -->
<g id="edge26" class="edge">
<title>Node1&#45;&gt;Node25</title>
<path fill="none" stroke="midnightblue" d="M1950.11,-514.5C2121.12,-512.88 2465.83,-502.97 2753,-453 2762.21,-451.4 2771.75,-449.32 2781.19,-447.01"/>
<polygon fill="midnightblue" stroke="midnightblue" points="1950.07,-511 1940.1,-514.58 1950.13,-518 1950.07,-511"/>
</g>
<!-- Node26 -->
<g id="node26" class="node">
<title>Node26</title>
<g id="a_node26"><a xlink:href="../../d4/dd0/transient___pw__interface__element_8cpp.html" target="_top" xlink:title=" ">
<polygon fill="none" stroke="black" points="2980,-389.5 2980,-452.5 3174,-452.5 3174,-389.5 2980,-389.5"/>
<text text-anchor="start" x="2988" y="-440.5" font-family="Helvetica,sans-Serif" font-size="10.00">/home/runner/work/Documentation</text>
<text text-anchor="start" x="2988" y="-429.5" font-family="Helvetica,sans-Serif" font-size="10.00">/Documentation/master/applications</text>
<text text-anchor="start" x="2988" y="-418.5" font-family="Helvetica,sans-Serif" font-size="10.00">/GeoMechanicsApplication/custom</text>
<text text-anchor="start" x="2988" y="-407.5" font-family="Helvetica,sans-Serif" font-size="10.00">_elements/transient_Pw_interface</text>
<text text-anchor="middle" x="3077" y="-396.5" font-family="Helvetica,sans-Serif" font-size="10.00">_element.cpp</text>
</a>
</g>
</g>
<!-- Node1&#45;&gt;Node26 -->
<g id="edge27" class="edge">
<title>Node1&#45;&gt;Node26</title>
<path fill="none" stroke="midnightblue" d="M1950.41,-511.79C2192.93,-505.17 2776.85,-486.23 2971,-453 2973.93,-452.5 2976.89,-451.94 2979.87,-451.35"/>
<polygon fill="midnightblue" stroke="midnightblue" points="1950.08,-508.3 1940.18,-512.07 1950.27,-515.3 1950.08,-508.3"/>
</g>
<!-- Node27 -->
<g id="node27" class="node">
<title>Node27</title>
<g id="a_node27"><a xlink:href="../../d5/d96/transient___pw__line__element_8h.html" target="_top" xlink:title=" ">
<polygon fill="none" stroke="black" points="1386,-395 1386,-447 1598,-447 1598,-395 1386,-395"/>
<text text-anchor="start" x="1394" y="-435" font-family="Helvetica,sans-Serif" font-size="10.00">/home/runner/work/Documentation</text>
<text text-anchor="start" x="1394" y="-424" font-family="Helvetica,sans-Serif" font-size="10.00">/Documentation/master/applications</text>
<text text-anchor="start" x="1394" y="-413" font-family="Helvetica,sans-Serif" font-size="10.00">/GeoMechanicsApplication/custom</text>
<text text-anchor="middle" x="1492" y="-402" font-family="Helvetica,sans-Serif" font-size="10.00">_elements/transient_Pw_line_element.h</text>
</a>
</g>
</g>
<!-- Node1&#45;&gt;Node27 -->
<g id="edge28" class="edge">
<title>Node1&#45;&gt;Node27</title>
<path fill="none" stroke="midnightblue" d="M1736.32,-486.9C1695.81,-476.37 1649.25,-464.2 1607,-453 1599.7,-451.07 1592.15,-449.05 1584.56,-447.02"/>
<polygon fill="midnightblue" stroke="midnightblue" points="1735.66,-490.35 1746.21,-489.47 1737.42,-483.57 1735.66,-490.35"/>
</g>
<!-- Node29 -->
<g id="node29" class="node">
<title>Node29</title>
<g id="a_node29"><a xlink:href="../../d8/dde/transient__thermal__element_8h.html" target="_top" xlink:title=" ">
<polygon fill="none" stroke="black" points="1616,-395 1616,-447 1828,-447 1828,-395 1616,-395"/>
<text text-anchor="start" x="1624" y="-435" font-family="Helvetica,sans-Serif" font-size="10.00">/home/runner/work/Documentation</text>
<text text-anchor="start" x="1624" y="-424" font-family="Helvetica,sans-Serif" font-size="10.00">/Documentation/master/applications</text>
<text text-anchor="start" x="1624" y="-413" font-family="Helvetica,sans-Serif" font-size="10.00">/GeoMechanicsApplication/custom</text>
<text text-anchor="middle" x="1722" y="-402" font-family="Helvetica,sans-Serif" font-size="10.00">_elements/transient_thermal_element.h</text>
</a>
</g>
</g>
<!-- Node1&#45;&gt;Node29 -->
<g id="edge31" class="edge">
<title>Node1&#45;&gt;Node29</title>
<path fill="none" stroke="midnightblue" d="M1801.93,-483.11C1786.55,-471.35 1769.3,-458.16 1754.77,-447.05"/>
<polygon fill="midnightblue" stroke="midnightblue" points="1800.19,-486.18 1810.26,-489.47 1804.44,-480.61 1800.19,-486.18"/>
</g>
<!-- Node31 -->
<g id="node31" class="node">
<title>Node31</title>
<g id="a_node31"><a xlink:href="../../db/dc1/_u___pw__base__element_8cpp.html" target="_top" xlink:title=" ">
<polygon fill="none" stroke="black" points="3192,-395 3192,-447 3386,-447 3386,-395 3192,-395"/>
<text text-anchor="start" x="3200" y="-435" font-family="Helvetica,sans-Serif" font-size="10.00">/home/runner/work/Documentation</text>
<text text-anchor="start" x="3200" y="-424" font-family="Helvetica,sans-Serif" font-size="10.00">/Documentation/master/applications</text>
<text text-anchor="start" x="3200" y="-413" font-family="Helvetica,sans-Serif" font-size="10.00">/GeoMechanicsApplication/custom</text>
<text text-anchor="middle" x="3289" y="-402" font-family="Helvetica,sans-Serif" font-size="10.00">_elements/U_Pw_base_element.cpp</text>
</a>
</g>
</g>
<!-- Node1&#45;&gt;Node31 -->
<g id="edge34" class="edge">
<title>Node1&#45;&gt;Node31</title>
<path fill="none" stroke="midnightblue" d="M1950.39,-512.87C2224.8,-508.19 2946.71,-492.39 3183,-453 3192.17,-451.47 3201.67,-449.41 3211.05,-447.07"/>
<polygon fill="midnightblue" stroke="midnightblue" points="1949.96,-509.38 1940.02,-513.05 1950.08,-516.38 1949.96,-509.38"/>
</g>
<!-- Node32 -->
<g id="node32" class="node">
<title>Node32</title>
<g id="a_node32"><a xlink:href="../../db/db4/dof__utilities_8cpp.html" target="_top" xlink:title=" ">
<polygon fill="none" stroke="black" points="3404,-395 3404,-447 3598,-447 3598,-395 3404,-395"/>
<text text-anchor="start" x="3412" y="-435" font-family="Helvetica,sans-Serif" font-size="10.00">/home/runner/work/Documentation</text>
<text text-anchor="start" x="3412" y="-424" font-family="Helvetica,sans-Serif" font-size="10.00">/Documentation/master/applications</text>
<text text-anchor="start" x="3412" y="-413" font-family="Helvetica,sans-Serif" font-size="10.00">/GeoMechanicsApplication/custom</text>
<text text-anchor="middle" x="3501" y="-402" font-family="Helvetica,sans-Serif" font-size="10.00">_utilities/dof_utilities.cpp</text>
</a>
</g>
</g>
<!-- Node1&#45;&gt;Node32 -->
<g id="edge35" class="edge">
<title>Node1&#45;&gt;Node32</title>
<path fill="none" stroke="midnightblue" d="M1950.17,-513.66C2253.87,-510.75 3116.16,-498.59 3395,-453 3404.27,-451.48 3413.88,-449.41 3423.35,-447.05"/>
<polygon fill="midnightblue" stroke="midnightblue" points="1950.01,-510.16 1940.04,-513.76 1950.08,-517.16 1950.01,-510.16"/>
</g>
<!-- Node8 -->
<g id="node8" class="node">
<title>Node8</title>
<g id="a_node8"><a xlink:href="../../de/d6a/geo__steady__state___pw__piping__element_8cpp.html" target="_top" xlink:title=" ">
<polygon fill="none" stroke="black" points="1129,-289.5 1129,-352.5 1341,-352.5 1341,-289.5 1129,-289.5"/>
<text text-anchor="start" x="1137" y="-340.5" font-family="Helvetica,sans-Serif" font-size="10.00">/home/runner/work/Documentation</text>
<text text-anchor="start" x="1137" y="-329.5" font-family="Helvetica,sans-Serif" font-size="10.00">/Documentation/master/applications</text>
<text text-anchor="start" x="1137" y="-318.5" font-family="Helvetica,sans-Serif" font-size="10.00">/GeoMechanicsApplication/custom</text>
<text text-anchor="start" x="1137" y="-307.5" font-family="Helvetica,sans-Serif" font-size="10.00">_elements/geo_steady_state_Pw_piping</text>
<text text-anchor="middle" x="1235" y="-296.5" font-family="Helvetica,sans-Serif" font-size="10.00">_element.cpp</text>
</a>
</g>
</g>
<!-- Node7&#45;&gt;Node8 -->
<g id="edge7" class="edge">
<title>Node7&#45;&gt;Node8</title>
<path fill="none" stroke="midnightblue" d="M1235,-384.69C1235,-374.24 1235,-362.89 1235,-352.75"/>
<polygon fill="midnightblue" stroke="midnightblue" points="1231.5,-384.76 1235,-394.76 1238.5,-384.76 1231.5,-384.76"/>
</g>
<!-- Node9 -->
<g id="node9" class="node">
<title>Node9</title>
<g id="a_node9"><a xlink:href="../../d2/d49/geo__mechanics__newton__raphson__erosion__process__strategy_8hpp.html" target="_top" xlink:title=" ">
<polygon fill="none" stroke="black" points="859.5,-289.5 859.5,-352.5 1110.5,-352.5 1110.5,-289.5 859.5,-289.5"/>
<text text-anchor="start" x="867.5" y="-340.5" font-family="Helvetica,sans-Serif" font-size="10.00">/home/runner/work/Documentation</text>
<text text-anchor="start" x="867.5" y="-329.5" font-family="Helvetica,sans-Serif" font-size="10.00">/Documentation/master/applications</text>
<text text-anchor="start" x="867.5" y="-318.5" font-family="Helvetica,sans-Serif" font-size="10.00">/GeoMechanicsApplication/custom</text>
<text text-anchor="start" x="867.5" y="-307.5" font-family="Helvetica,sans-Serif" font-size="10.00">_strategies/strategies/geo_mechanics</text>
<text text-anchor="middle" x="985" y="-296.5" font-family="Helvetica,sans-Serif" font-size="10.00">_newton_raphson_erosion_process_strategy.hpp</text>
</a>
</g>
</g>
<!-- Node7&#45;&gt;Node9 -->
<g id="edge8" class="edge">
<title>Node7&#45;&gt;Node9</title>
<path fill="none" stroke="midnightblue" d="M1161.52,-391.2C1130.6,-379.08 1094.58,-364.96 1063.18,-352.64"/>
<polygon fill="midnightblue" stroke="midnightblue" points="1160.36,-394.5 1170.94,-394.89 1162.91,-387.98 1160.36,-394.5"/>
</g>
<!-- Node15 -->
<g id="node15" class="node">
<title>Node15</title>
<g id="a_node15"><a xlink:href="../../d5/d83/geo__mechanics__application_8h.html" target="_top" xlink:title=" ">
<polygon fill="none" stroke="black" points="1600,-295 1600,-347 1824,-347 1824,-295 1600,-295"/>
<text text-anchor="start" x="1608" y="-335" font-family="Helvetica,sans-Serif" font-size="10.00">/home/runner/work/Documentation</text>
<text text-anchor="start" x="1608" y="-324" font-family="Helvetica,sans-Serif" font-size="10.00">/Documentation/master/applications</text>
<text text-anchor="start" x="1608" y="-313" font-family="Helvetica,sans-Serif" font-size="10.00">/GeoMechanicsApplication/geo_mechanics</text>
<text text-anchor="middle" x="1712" y="-302" font-family="Helvetica,sans-Serif" font-size="10.00">_application.h</text>
</a>
</g>
</g>
<!-- Node7&#45;&gt;Node15 -->
<g id="edge14" class="edge">
<title>Node7&#45;&gt;Node15</title>
<path fill="none" stroke="midnightblue" d="M1357.15,-392.94C1363.86,-391.58 1370.51,-390.26 1377,-389 1471.26,-370.76 1496.06,-372.84 1590,-353 1598.66,-351.17 1607.63,-349.15 1616.6,-347.03"/>
<polygon fill="midnightblue" stroke="midnightblue" points="1356.38,-389.53 1347.29,-394.97 1357.79,-396.39 1356.38,-389.53"/>
</g>
<!-- Node10 -->
<g id="node10" class="node">
<title>Node10</title>
<g id="a_node10"><a xlink:href="../../d2/db7/_geo_mechanics_application_2custom__python_2add__custom__strategies__to__python_8cpp.html" target="_top" xlink:title=" ">
<polygon fill="none" stroke="black" points="888,-189.5 888,-252.5 1082,-252.5 1082,-189.5 888,-189.5"/>
<text text-anchor="start" x="896" y="-240.5" font-family="Helvetica,sans-Serif" font-size="10.00">/home/runner/work/Documentation</text>
<text text-anchor="start" x="896" y="-229.5" font-family="Helvetica,sans-Serif" font-size="10.00">/Documentation/master/applications</text>
<text text-anchor="start" x="896" y="-218.5" font-family="Helvetica,sans-Serif" font-size="10.00">/GeoMechanicsApplication/custom</text>
<text text-anchor="start" x="896" y="-207.5" font-family="Helvetica,sans-Serif" font-size="10.00">_python/add_custom_strategies_to</text>
<text text-anchor="middle" x="985" y="-196.5" font-family="Helvetica,sans-Serif" font-size="10.00">_python.cpp</text>
</a>
</g>
</g>
<!-- Node9&#45;&gt;Node10 -->
<g id="edge9" class="edge">
<title>Node9&#45;&gt;Node10</title>
<path fill="none" stroke="midnightblue" d="M985,-279.1C985,-270.24 985,-261.01 985,-252.63"/>
<polygon fill="midnightblue" stroke="midnightblue" points="981.5,-279.26 985,-289.26 988.5,-279.26 981.5,-279.26"/>
</g>
<!-- Node11 -->
<g id="node11" class="node">
<title>Node11</title>
<g id="a_node11"><a xlink:href="../../da/d42/dgeoflow_8h.html" target="_top" xlink:title=" ">
<polygon fill="none" stroke="black" points="1137,-195 1137,-247 1331,-247 1331,-195 1137,-195"/>
<text text-anchor="start" x="1145" y="-235" font-family="Helvetica,sans-Serif" font-size="10.00">/home/runner/work/Documentation</text>
<text text-anchor="start" x="1145" y="-224" font-family="Helvetica,sans-Serif" font-size="10.00">/Documentation/master/applications</text>
<text text-anchor="start" x="1145" y="-213" font-family="Helvetica,sans-Serif" font-size="10.00">/GeoMechanicsApplication/custom</text>
<text text-anchor="middle" x="1234" y="-202" font-family="Helvetica,sans-Serif" font-size="10.00">_workflows/dgeoflow.h</text>
</a>
</g>
</g>
<!-- Node9&#45;&gt;Node11 -->
<g id="edge10" class="edge">
<title>Node9&#45;&gt;Node11</title>
<path fill="none" stroke="midnightblue" d="M1072.19,-285.68C1104.45,-272.99 1140.38,-258.85 1170.17,-247.12"/>
<polygon fill="midnightblue" stroke="midnightblue" points="1070.78,-282.48 1062.76,-289.4 1073.35,-288.99 1070.78,-282.48"/>
</g>
<!-- Node12 -->
<g id="node12" class="node">
<title>Node12</title>
<g id="a_node12"><a xlink:href="../../d7/d88/dgeoflow_8cpp.html" target="_top" xlink:title=" ">
<polygon fill="none" stroke="black" points="1039,-95 1039,-147 1233,-147 1233,-95 1039,-95"/>
<text text-anchor="start" x="1047" y="-135" font-family="Helvetica,sans-Serif" font-size="10.00">/home/runner/work/Documentation</text>
<text text-anchor="start" x="1047" y="-124" font-family="Helvetica,sans-Serif" font-size="10.00">/Documentation/master/applications</text>
<text text-anchor="start" x="1047" y="-113" font-family="Helvetica,sans-Serif" font-size="10.00">/GeoMechanicsApplication/custom</text>
<text text-anchor="middle" x="1136" y="-102" font-family="Helvetica,sans-Serif" font-size="10.00">_workflows/dgeoflow.cpp</text>
</a>
</g>
</g>
<!-- Node11&#45;&gt;Node12 -->
<g id="edge11" class="edge">
<title>Node11&#45;&gt;Node12</title>
<path fill="none" stroke="midnightblue" d="M1201.66,-187.66C1188.48,-174.48 1173.49,-159.49 1161.15,-147.15"/>
<polygon fill="midnightblue" stroke="midnightblue" points="1199.22,-190.17 1208.76,-194.76 1204.17,-185.22 1199.22,-190.17"/>
</g>
<!-- Node13 -->
<g id="node13" class="node">
<title>Node13</title>
<g id="a_node13"><a xlink:href="../../d4/d24/kratos__external__bindings_8h.html" target="_top" xlink:title=" ">
<polygon fill="none" stroke="black" points="1251,-95 1251,-147 1449,-147 1449,-95 1251,-95"/>
<text text-anchor="start" x="1259" y="-135" font-family="Helvetica,sans-Serif" font-size="10.00">/home/runner/work/Documentation</text>
<text text-anchor="start" x="1259" y="-124" font-family="Helvetica,sans-Serif" font-size="10.00">/Documentation/master/applications</text>
<text text-anchor="start" x="1259" y="-113" font-family="Helvetica,sans-Serif" font-size="10.00">/GeoMechanicsApplication/external</text>
<text text-anchor="middle" x="1350" y="-102" font-family="Helvetica,sans-Serif" font-size="10.00">_bindings/kratos_external_bindings.h</text>
</a>
</g>
</g>
<!-- Node11&#45;&gt;Node13 -->
<g id="edge12" class="edge">
<title>Node11&#45;&gt;Node13</title>
<path fill="none" stroke="midnightblue" d="M1271.85,-188.02C1287.55,-174.76 1305.49,-159.6 1320.23,-147.15"/>
<polygon fill="midnightblue" stroke="midnightblue" points="1269.25,-185.64 1263.87,-194.76 1273.77,-190.98 1269.25,-185.64"/>
</g>
<!-- Node14 -->
<g id="node14" class="node">
<title>Node14</title>
<g id="a_node14"><a xlink:href="../../dd/d6d/_geo_mechanics_application_2external__bindings_2kratos__external__bindings_8cpp.html" target="_top" xlink:title=" ">
<polygon fill="none" stroke="black" points="1245.5,-0.5 1245.5,-52.5 1454.5,-52.5 1454.5,-0.5 1245.5,-0.5"/>
<text text-anchor="start" x="1253.5" y="-40.5" font-family="Helvetica,sans-Serif" font-size="10.00">/home/runner/work/Documentation</text>
<text text-anchor="start" x="1253.5" y="-29.5" font-family="Helvetica,sans-Serif" font-size="10.00">/Documentation/master/applications</text>
<text text-anchor="start" x="1253.5" y="-18.5" font-family="Helvetica,sans-Serif" font-size="10.00">/GeoMechanicsApplication/external</text>
<text text-anchor="middle" x="1350" y="-7.5" font-family="Helvetica,sans-Serif" font-size="10.00">_bindings/kratos_external_bindings.cpp</text>
</a>
</g>
</g>
<!-- Node13&#45;&gt;Node14 -->
<g id="edge13" class="edge">
<title>Node13&#45;&gt;Node14</title>
<path fill="none" stroke="midnightblue" d="M1350,-84.49C1350,-73.91 1350,-62.53 1350,-52.75"/>
<polygon fill="midnightblue" stroke="midnightblue" points="1346.5,-84.72 1350,-94.72 1353.5,-84.72 1346.5,-84.72"/>
</g>
<!-- Node15&#45;&gt;Node11 -->
<g id="edge15" class="edge">
<title>Node15&#45;&gt;Node11</title>
<path fill="none" stroke="midnightblue" d="M1606.09,-292.66C1600.65,-291.39 1595.27,-290.16 1590,-289 1502.8,-269.74 1402.8,-251.23 1331.04,-238.56"/>
<polygon fill="midnightblue" stroke="midnightblue" points="1605.37,-296.09 1615.9,-294.98 1606.98,-289.27 1605.37,-296.09"/>
</g>
<!-- Node16 -->
<g id="node16" class="node">
<title>Node16</title>
<g id="a_node16"><a xlink:href="../../d4/d4c/dgeosettlement_8h.html" target="_top" xlink:title=" ">
<polygon fill="none" stroke="black" points="1485,-195 1485,-247 1679,-247 1679,-195 1485,-195"/>
<text text-anchor="start" x="1493" y="-235" font-family="Helvetica,sans-Serif" font-size="10.00">/home/runner/work/Documentation</text>
<text text-anchor="start" x="1493" y="-224" font-family="Helvetica,sans-Serif" font-size="10.00">/Documentation/master/applications</text>
<text text-anchor="start" x="1493" y="-213" font-family="Helvetica,sans-Serif" font-size="10.00">/GeoMechanicsApplication/custom</text>
<text text-anchor="middle" x="1582" y="-202" font-family="Helvetica,sans-Serif" font-size="10.00">_workflows/dgeosettlement.h</text>
</a>
</g>
</g>
<!-- Node15&#45;&gt;Node16 -->
<g id="edge16" class="edge">
<title>Node15&#45;&gt;Node16</title>
<path fill="none" stroke="midnightblue" d="M1670.07,-288.39C1652.36,-275.04 1632.03,-259.71 1615.36,-247.15"/>
<polygon fill="midnightblue" stroke="midnightblue" points="1668.43,-291.54 1678.52,-294.76 1672.64,-285.95 1668.43,-291.54"/>
</g>
<!-- Node20 -->
<g id="node20" class="node">
<title>Node20</title>
<g id="a_node20"><a xlink:href="../../df/dc4/geo__mechanics__application_8cpp.html" target="_top" xlink:title=" ">
<polygon fill="none" stroke="black" points="1697,-195 1697,-247 1921,-247 1921,-195 1697,-195"/>
<text text-anchor="start" x="1705" y="-235" font-family="Helvetica,sans-Serif" font-size="10.00">/home/runner/work/Documentation</text>
<text text-anchor="start" x="1705" y="-224" font-family="Helvetica,sans-Serif" font-size="10.00">/Documentation/master/applications</text>
<text text-anchor="start" x="1705" y="-213" font-family="Helvetica,sans-Serif" font-size="10.00">/GeoMechanicsApplication/geo_mechanics</text>
<text text-anchor="middle" x="1809" y="-202" font-family="Helvetica,sans-Serif" font-size="10.00">_application.cpp</text>
</a>
</g>
</g>
<!-- Node15&#45;&gt;Node20 -->
<g id="edge21" class="edge">
<title>Node15&#45;&gt;Node20</title>
<path fill="none" stroke="midnightblue" d="M1744.37,-287.29C1757.33,-274.21 1772.01,-259.37 1784.1,-247.15"/>
<polygon fill="midnightblue" stroke="midnightblue" points="1741.53,-285.19 1736.98,-294.76 1746.5,-290.12 1741.53,-285.19"/>
</g>
<!-- Node16&#45;&gt;Node13 -->
<g id="edge20" class="edge">
<title>Node16&#45;&gt;Node13</title>
<path fill="none" stroke="midnightblue" d="M1512.98,-190.84C1480,-176.91 1440.91,-160.4 1409.29,-147.04"/>
<polygon fill="midnightblue" stroke="midnightblue" points="1511.98,-194.22 1522.56,-194.89 1514.71,-187.77 1511.98,-194.22"/>
</g>
<!-- Node17 -->
<g id="node17" class="node">
<title>Node17</title>
<g id="a_node17"><a xlink:href="../../d8/d41/_geo_mechanics_application_2custom__python_2add__custom__utilities__to__python_8cpp.html" target="_top" xlink:title=" ">
<polygon fill="none" stroke="black" points="1467,-89.5 1467,-152.5 1661,-152.5 1661,-89.5 1467,-89.5"/>
<text text-anchor="start" x="1475" y="-140.5" font-family="Helvetica,sans-Serif" font-size="10.00">/home/runner/work/Documentation</text>
<text text-anchor="start" x="1475" y="-129.5" font-family="Helvetica,sans-Serif" font-size="10.00">/Documentation/master/applications</text>
<text text-anchor="start" x="1475" y="-118.5" font-family="Helvetica,sans-Serif" font-size="10.00">/GeoMechanicsApplication/custom</text>
<text text-anchor="start" x="1475" y="-107.5" font-family="Helvetica,sans-Serif" font-size="10.00">_python/add_custom_utilities_to</text>
<text text-anchor="middle" x="1564" y="-96.5" font-family="Helvetica,sans-Serif" font-size="10.00">_python.cpp</text>
</a>
</g>
</g>
<!-- Node16&#45;&gt;Node17 -->
<g id="edge17" class="edge">
<title>Node16&#45;&gt;Node17</title>
<path fill="none" stroke="midnightblue" d="M1575.51,-184.69C1573.6,-174.24 1571.51,-162.89 1569.65,-152.75"/>
<polygon fill="midnightblue" stroke="midnightblue" points="1572.12,-185.56 1577.36,-194.76 1579,-184.29 1572.12,-185.56"/>
</g>
<!-- Node18 -->
<g id="node18" class="node">
<title>Node18</title>
<g id="a_node18"><a xlink:href="../../dc/d5d/custom__workflow__factory_8cpp.html" target="_top" xlink:title=" ">
<polygon fill="none" stroke="black" points="1679,-95 1679,-147 1897,-147 1897,-95 1679,-95"/>
<text text-anchor="start" x="1687" y="-135" font-family="Helvetica,sans-Serif" font-size="10.00">/home/runner/work/Documentation</text>
<text text-anchor="start" x="1687" y="-124" font-family="Helvetica,sans-Serif" font-size="10.00">/Documentation/master/applications</text>
<text text-anchor="start" x="1687" y="-113" font-family="Helvetica,sans-Serif" font-size="10.00">/GeoMechanicsApplication/custom</text>
<text text-anchor="middle" x="1788" y="-102" font-family="Helvetica,sans-Serif" font-size="10.00">_workflows/custom_workflow_factory.cpp</text>
</a>
</g>
</g>
<!-- Node16&#45;&gt;Node18 -->
<g id="edge18" class="edge">
<title>Node16&#45;&gt;Node18</title>
<path fill="none" stroke="midnightblue" d="M1644.04,-190.49C1673.17,-176.63 1707.52,-160.29 1735.35,-147.04"/>
<polygon fill="midnightblue" stroke="midnightblue" points="1642.31,-187.43 1634.78,-194.89 1645.32,-193.75 1642.31,-187.43"/>
</g>
<!-- Node19 -->
<g id="node19" class="node">
<title>Node19</title>
<g id="a_node19"><a xlink:href="../../d3/d51/dgeosettlement_8cpp.html" target="_top" xlink:title=" ">
<polygon fill="none" stroke="black" points="1915,-95 1915,-147 2109,-147 2109,-95 1915,-95"/>
<text text-anchor="start" x="1923" y="-135" font-family="Helvetica,sans-Serif" font-size="10.00">/home/runner/work/Documentation</text>
<text text-anchor="start" x="1923" y="-124" font-family="Helvetica,sans-Serif" font-size="10.00">/Documentation/master/applications</text>
<text text-anchor="start" x="1923" y="-113" font-family="Helvetica,sans-Serif" font-size="10.00">/GeoMechanicsApplication/custom</text>
<text text-anchor="middle" x="2012" y="-102" font-family="Helvetica,sans-Serif" font-size="10.00">_workflows/dgeosettlement.cpp</text>
</a>
</g>
</g>
<!-- Node16&#45;&gt;Node19 -->
<g id="edge19" class="edge">
<title>Node16&#45;&gt;Node19</title>
<path fill="none" stroke="midnightblue" d="M1673.78,-192.42C1678.58,-191.21 1683.34,-190.06 1688,-189 1783.75,-167.18 1810.25,-174.82 1906,-153 1913.85,-151.21 1921.98,-149.17 1930.08,-147.02"/>
<polygon fill="midnightblue" stroke="midnightblue" points="1672.72,-189.08 1663.92,-194.98 1674.48,-195.86 1672.72,-189.08"/>
</g>
<!-- Node27&#45;&gt;Node15 -->
<g id="edge30" class="edge">
<title>Node27&#45;&gt;Node15</title>
<path fill="none" stroke="midnightblue" d="M1557.85,-390.67C1589.05,-376.77 1625.92,-360.35 1655.78,-347.04"/>
<polygon fill="midnightblue" stroke="midnightblue" points="1556.08,-387.62 1548.37,-394.89 1558.93,-394.02 1556.08,-387.62"/>
</g>
<!-- Node28 -->
<g id="node28" class="node">
<title>Node28</title>
<g id="a_node28"><a xlink:href="../../d0/d7b/transient___pw__line__element_8cpp.html" target="_top" xlink:title=" ">
<polygon fill="none" stroke="black" points="1358.5,-295 1358.5,-347 1581.5,-347 1581.5,-295 1358.5,-295"/>
<text text-anchor="start" x="1366.5" y="-335" font-family="Helvetica,sans-Serif" font-size="10.00">/home/runner/work/Documentation</text>
<text text-anchor="start" x="1366.5" y="-324" font-family="Helvetica,sans-Serif" font-size="10.00">/Documentation/master/applications</text>
<text text-anchor="start" x="1366.5" y="-313" font-family="Helvetica,sans-Serif" font-size="10.00">/GeoMechanicsApplication/custom</text>
<text text-anchor="middle" x="1470" y="-302" font-family="Helvetica,sans-Serif" font-size="10.00">_elements/transient_Pw_line_element.cpp</text>
</a>
</g>
</g>
<!-- Node27&#45;&gt;Node28 -->
<g id="edge29" class="edge">
<title>Node27&#45;&gt;Node28</title>
<path fill="none" stroke="midnightblue" d="M1484.08,-384.7C1481.29,-372.28 1478.21,-358.57 1475.65,-347.15"/>
<polygon fill="midnightblue" stroke="midnightblue" points="1480.73,-385.77 1486.33,-394.76 1487.56,-384.24 1480.73,-385.77"/>
</g>
<!-- Node29&#45;&gt;Node15 -->
<g id="edge33" class="edge">
<title>Node29&#45;&gt;Node15</title>
<path fill="none" stroke="midnightblue" d="M1718.4,-384.7C1717.13,-372.28 1715.73,-358.57 1714.57,-347.15"/>
<polygon fill="midnightblue" stroke="midnightblue" points="1714.93,-385.17 1719.42,-394.76 1721.89,-384.46 1714.93,-385.17"/>
</g>
<!-- Node30 -->
<g id="node30" class="node">
<title>Node30</title>
<g id="a_node30"><a xlink:href="../../d4/d3f/transient__thermal__element_8cpp.html" target="_top" xlink:title=" ">
<polygon fill="none" stroke="black" points="1842,-295 1842,-347 2066,-347 2066,-295 1842,-295"/>
<text text-anchor="start" x="1850" y="-335" font-family="Helvetica,sans-Serif" font-size="10.00">/home/runner/work/Documentation</text>
<text text-anchor="start" x="1850" y="-324" font-family="Helvetica,sans-Serif" font-size="10.00">/Documentation/master/applications</text>
<text text-anchor="start" x="1850" y="-313" font-family="Helvetica,sans-Serif" font-size="10.00">/GeoMechanicsApplication/custom</text>
<text text-anchor="middle" x="1954" y="-302" font-family="Helvetica,sans-Serif" font-size="10.00">_elements/transient_thermal_element.cpp</text>
</a>
</g>
</g>
<!-- Node29&#45;&gt;Node30 -->
<g id="edge32" class="edge">
<title>Node29&#45;&gt;Node30</title>
<path fill="none" stroke="midnightblue" d="M1791.02,-390.84C1824,-376.91 1863.09,-360.4 1894.71,-347.04"/>
<polygon fill="midnightblue" stroke="midnightblue" points="1789.29,-387.77 1781.44,-394.89 1792.02,-394.22 1789.29,-387.77"/>
</g>
</g>
</svg>
        <g id="navigator" transform="translate(0 0)" fill="#404254">
                <rect fill="#f2f5e9" fill-opacity="0.5" stroke="#606060" stroke-width=".5" x="0" y="0" width="60" height="60"/>
                <use id="zoomplus" xlink:href="#zoomPlus" x="17" y="9" onmousedown="handleZoom(evt,'in')"/>
                <use id="zoomminus" xlink:href="#zoomMin" x="42" y="9" onmousedown="handleZoom(evt,'out')"/>
                <use id="reset" xlink:href="#resetDef" x="30" y="36" onmousedown="handleReset()"/>
                <g id="arrowUp" xlink:href="#dirArrow" transform="translate(30 24)" onmousedown="handlePan(0,-1)">
                  <use xlink:href="#rim" fill="#404040">
                        <set attributeName="fill" to="#808080" begin="arrowUp.mouseover" end="arrowUp.mouseout"/>
                  </use>
                  <path fill="none" stroke="white" stroke-width="1.5" d="M0,-3.0v7 M-2.5,-0.5L0,-3.0L2.5,-0.5"/>
                </g>
                <g id="arrowRight" xlink:href="#dirArrow" transform="rotate(90) translate(36 -43)" onmousedown="handlePan(1,0)">
                  <use xlink:href="#rim" fill="#404040">
                        <set attributeName="fill" to="#808080" begin="arrowRight.mouseover" end="arrowRight.mouseout"/>
                  </use>
                  <path fill="none" stroke="white" stroke-width="1.5" d="M0,-3.0v7 M-2.5,-0.5L0,-3.0L2.5,-0.5"/>
                </g>
                <g id="arrowDown" xlink:href="#dirArrow" transform="rotate(180) translate(-30 -48)" onmousedown="handlePan(0,1)">
                  <use xlink:href="#rim" fill="#404040">
                        <set attributeName="fill" to="#808080" begin="arrowDown.mouseover" end="arrowDown.mouseout"/>
                  </use>
                  <path fill="none" stroke="white" stroke-width="1.5" d="M0,-3.0v7 M-2.5,-0.5L0,-3.0L2.5,-0.5"/>
                </g>
                <g id="arrowLeft" xlink:href="#dirArrow" transform="rotate(270) translate(-36 17)" onmousedown="handlePan(-1,0)">
                  <use xlink:href="#rim" fill="#404040">
                        <set attributeName="fill" to="#808080" begin="arrowLeft.mouseover" end="arrowLeft.mouseout"/>
                  </use>
                  <path fill="none" stroke="white" stroke-width="1.5" d="M0,-3.0v7 M-2.5,-0.5L0,-3.0L2.5,-0.5"/>
                </g>
        </g>
        <svg viewBox="0 0 15 15" width="100%" height="30px" preserveAspectRatio="xMaxYMin meet">
         <g id="arrow_out" transform="scale(0.3 0.3)">
          <a xlink:href="dof__utilities_8h__dep__incl_org.svg" target="_base">
           <rect id="button" ry="5" rx="5" y="6" x="6" height="38" width="38"
                fill="#f2f5e9" fill-opacity="0.5" stroke="#606060" stroke-width="1.0"/>
           <path id="arrow"
             d="M 11.500037,31.436501 C 11.940474,20.09759 22.043105,11.32322 32.158766,21.979434 L 37.068811,17.246167 C 37.068811,17.246167 37.088388,32 37.088388,32 L 22.160133,31.978069 C 22.160133,31.978069 26.997745,27.140456 26.997745,27.140456 C 18.528582,18.264221 13.291696,25.230495 11.500037,31.436501 z"
             style="fill:#404040;"/>
          </a>
         </g>
        </svg>
</svg>
