<?xml version="1.0" encoding="UTF-8" standalone="no"?>
<!DOCTYPE svg PUBLIC "-//W3C//DTD SVG 1.1//EN"
 "http://www.w3.org/Graphics/SVG/1.1/DTD/svg11.dtd">
<!-- Generated by graphviz version 2.43.0 (0)
 -->
<!-- Title: /home/runner/work/Documentation/Documentation/master/applications/RANSApplication/custom_elements/data_containers/k_epsilon/element_data_utilities.h Pages: 1 -->
<!--zoomable 385 -->
<svg id="main" version="1.1" xmlns="http://www.w3.org/2000/svg" xmlns:xlink="http://www.w3.org/1999/xlink" xml:space="preserve" onload="init(evt)">
<style type="text/css"><![CDATA[
.edge:hover path { stroke: red; }
.edge:hover polygon { stroke: red; fill: red; }
]]></style>
<script type="text/javascript"><![CDATA[
var edges = document.getElementsByTagName('g');
if (edges && edges.length) {
  for (var i=0;i<edges.length;i++) {
    if (edges[i].id.substr(0,4)=='edge') {
      edges[i].setAttribute('class','edge');
    }
  }
}
]]></script>
        <defs>
                <circle id="rim" cx="0" cy="0" r="7"/>
                <circle id="rim2" cx="0" cy="0" r="3.5"/>
                <g id="zoomPlus">
                        <use xlink:href="#rim" fill="#404040">
                                <set attributeName="fill" to="#808080" begin="zoomplus.mouseover" end="zoomplus.mouseout"/>
                        </use>
                        <path d="M-4,0h8M0,-4v8" fill="none" stroke="white" stroke-width="1.5" pointer-events="none"/>
                </g>
                <g id="zoomMin">
                        <use xlink:href="#rim" fill="#404040">
                                <set attributeName="fill" to="#808080" begin="zoomminus.mouseover" end="zoomminus.mouseout"/>
                        </use>
                        <path d="M-4,0h8" fill="none" stroke="white" stroke-width="1.5" pointer-events="none"/>
                </g>
                <g id="dirArrow">
                        <path fill="none" stroke="white" stroke-width="1.5" d="M0,-3.0v7 M-2.5,-0.5L0,-3.0L2.5,-0.5"/>
                </g>
               <g id="resetDef">
                       <use xlink:href="#rim2" fill="#404040">
                               <set attributeName="fill" to="#808080" begin="reset.mouseover" end="reset.mouseout"/>
                       </use>
               </g>
        </defs>

<script type="text/javascript">
var viewWidth = 3047;
var viewHeight = 385;
var sectionId = 'dynsection-0';
</script>
<script xlink:href="../../svgpan.js"/>
<svg id="graph" class="graph">
<g id="viewport">
<title>/home/runner/work/Documentation/Documentation/master/applications/RANSApplication/custom_elements/data_containers/k_epsilon/element_data_utilities.h</title>
<!-- Node1 -->
<g id="node1" class="node">
<title>Node1</title>
<g id="a_node1"><a xlink:title=" ">
<polygon fill="#bfbfbf" stroke="black" points="1735.43,-313.5 1735.43,-376.5 1929.43,-376.5 1929.43,-313.5 1735.43,-313.5"/>
<text text-anchor="start" x="1743.43" y="-364.5" font-family="Helvetica,sans-Serif" font-size="10.00">/home/runner/work/Documentation</text>
<text text-anchor="start" x="1743.43" y="-353.5" font-family="Helvetica,sans-Serif" font-size="10.00">/Documentation/master/applications</text>
<text text-anchor="start" x="1743.43" y="-342.5" font-family="Helvetica,sans-Serif" font-size="10.00">/RANSApplication/custom_elements</text>
<text text-anchor="start" x="1743.43" y="-331.5" font-family="Helvetica,sans-Serif" font-size="10.00">/data_containers/k_epsilon/element</text>
<text text-anchor="middle" x="1832.43" y="-320.5" font-family="Helvetica,sans-Serif" font-size="10.00">_data_utilities.h</text>
</a>
</g>
</g>
<!-- Node2 -->
<g id="node2" class="node">
<title>Node2</title>
<g id="a_node2"><a xlink:href="../../d9/d3e/ublas__interface_8h.html" target="_top" xlink:title=" ">
<polygon fill="none" stroke="black" points="1760.43,-257.5 1760.43,-276.5 1904.43,-276.5 1904.43,-257.5 1760.43,-257.5"/>
<text text-anchor="middle" x="1832.43" y="-264.5" font-family="Helvetica,sans-Serif" font-size="10.00">includes/ublas_interface.h</text>
</a>
</g>
</g>
<!-- Node1&#45;&gt;Node2 -->
<g id="edge1" class="edge">
<title>Node1&#45;&gt;Node2</title>
<path fill="none" stroke="midnightblue" d="M1832.43,-313.09C1832.43,-304.15 1832.43,-294.67 1832.43,-286.72"/>
<polygon fill="midnightblue" stroke="midnightblue" points="1835.93,-286.72 1832.43,-276.72 1828.93,-286.72 1835.93,-286.72"/>
</g>
<!-- Node3 -->
<g id="node3" class="node">
<title>Node3</title>
<g id="a_node3"><a xlink:title=" ">
<polygon fill="none" stroke="#bfbfbf" points="930.43,-6 930.43,-25 974.43,-25 974.43,-6 930.43,-6"/>
<text text-anchor="middle" x="952.43" y="-13" font-family="Helvetica,sans-Serif" font-size="10.00">string</text>
</a>
</g>
</g>
<!-- Node2&#45;&gt;Node3 -->
<g id="edge2" class="edge">
<title>Node2&#45;&gt;Node3</title>
<path fill="none" stroke="midnightblue" d="M1760.36,-266.68C1571.42,-267.82 1072.32,-266.46 1014.43,-221 956.29,-175.34 951.1,-76.86 951.65,-35.45"/>
<polygon fill="midnightblue" stroke="midnightblue" points="955.15,-35.47 951.92,-25.38 948.15,-35.28 955.15,-35.47"/>
</g>
<!-- Node4 -->
<g id="node4" class="node">
<title>Node4</title>
<g id="a_node4"><a xlink:title=" ">
<polygon fill="none" stroke="#bfbfbf" points="473.43,-6 473.43,-25 533.43,-25 533.43,-6 473.43,-6"/>
<text text-anchor="middle" x="503.43" y="-13" font-family="Helvetica,sans-Serif" font-size="10.00">iostream</text>
</a>
</g>
</g>
<!-- Node2&#45;&gt;Node4 -->
<g id="edge3" class="edge">
<title>Node2&#45;&gt;Node4</title>
<path fill="none" stroke="midnightblue" d="M1760.31,-265.05C1519.05,-261.66 741.41,-248.77 492.43,-221 271,-196.3 130.17,-283.29 6.43,-98 -1.22,-86.54 -2.8,-77.22 6.43,-67 36.85,-33.34 349.59,-20.96 462.81,-17.57"/>
<polygon fill="midnightblue" stroke="midnightblue" points="463.23,-21.06 473.12,-17.27 463.02,-14.06 463.23,-21.06"/>
</g>
<!-- Node5 -->
<g id="node5" class="node">
<title>Node5</title>
<g id="a_node5"><a xlink:title=" ">
<polygon fill="none" stroke="#bfbfbf" points="1023.43,-190.5 1023.43,-220.5 1139.43,-220.5 1139.43,-190.5 1023.43,-190.5"/>
<text text-anchor="start" x="1031.43" y="-208.5" font-family="Helvetica,sans-Serif" font-size="10.00">boost/numeric/ublas</text>
<text text-anchor="middle" x="1081.43" y="-197.5" font-family="Helvetica,sans-Serif" font-size="10.00">/matrix.hpp</text>
</a>
</g>
</g>
<!-- Node2&#45;&gt;Node5 -->
<g id="edge4" class="edge">
<title>Node2&#45;&gt;Node5</title>
<path fill="none" stroke="midnightblue" d="M1760.19,-264.74C1636.86,-261.83 1377.73,-252.37 1149.6,-221.02"/>
<polygon fill="midnightblue" stroke="midnightblue" points="1149.83,-217.51 1139.44,-219.6 1148.87,-224.45 1149.83,-217.51"/>
</g>
<!-- Node6 -->
<g id="node6" class="node">
<title>Node6</title>
<g id="a_node6"><a xlink:title=" ">
<polygon fill="none" stroke="#bfbfbf" points="1157.43,-190.5 1157.43,-220.5 1273.43,-220.5 1273.43,-190.5 1157.43,-190.5"/>
<text text-anchor="start" x="1165.43" y="-208.5" font-family="Helvetica,sans-Serif" font-size="10.00">boost/numeric/ublas</text>
<text text-anchor="middle" x="1215.43" y="-197.5" font-family="Helvetica,sans-Serif" font-size="10.00">/vector.hpp</text>
</a>
</g>
</g>
<!-- Node2&#45;&gt;Node6 -->
<g id="edge5" class="edge">
<title>Node2&#45;&gt;Node6</title>
<path fill="none" stroke="midnightblue" d="M1760.01,-263.11C1656.46,-258.31 1460,-246.7 1283.44,-221.02"/>
<polygon fill="midnightblue" stroke="midnightblue" points="1283.85,-217.54 1273.45,-219.54 1282.83,-224.46 1283.85,-217.54"/>
</g>
<!-- Node7 -->
<g id="node7" class="node">
<title>Node7</title>
<g id="a_node7"><a xlink:title=" ">
<polygon fill="none" stroke="#bfbfbf" points="1291.43,-190.5 1291.43,-220.5 1407.43,-220.5 1407.43,-190.5 1291.43,-190.5"/>
<text text-anchor="start" x="1299.43" y="-208.5" font-family="Helvetica,sans-Serif" font-size="10.00">boost/numeric/ublas</text>
<text text-anchor="middle" x="1349.43" y="-197.5" font-family="Helvetica,sans-Serif" font-size="10.00">/vector_proxy.hpp</text>
</a>
</g>
</g>
<!-- Node2&#45;&gt;Node7 -->
<g id="edge6" class="edge">
<title>Node2&#45;&gt;Node7</title>
<path fill="none" stroke="midnightblue" d="M1760.35,-260.52C1679.34,-253.85 1543.75,-241.1 1417.69,-221.09"/>
<polygon fill="midnightblue" stroke="midnightblue" points="1417.89,-217.58 1407.47,-219.45 1416.78,-224.49 1417.89,-217.58"/>
</g>
<!-- Node8 -->
<g id="node8" class="node">
<title>Node8</title>
<g id="a_node8"><a xlink:title=" ">
<polygon fill="none" stroke="#bfbfbf" points="1425.43,-190.5 1425.43,-220.5 1541.43,-220.5 1541.43,-190.5 1425.43,-190.5"/>
<text text-anchor="start" x="1433.43" y="-208.5" font-family="Helvetica,sans-Serif" font-size="10.00">boost/numeric/ublas</text>
<text text-anchor="middle" x="1483.43" y="-197.5" font-family="Helvetica,sans-Serif" font-size="10.00">/vector_sparse.hpp</text>
</a>
</g>
</g>
<!-- Node2&#45;&gt;Node8 -->
<g id="edge7" class="edge">
<title>Node2&#45;&gt;Node8</title>
<path fill="none" stroke="midnightblue" d="M1772.85,-257.46C1717.9,-249.37 1633.82,-236.43 1551.52,-221.15"/>
<polygon fill="midnightblue" stroke="midnightblue" points="1551.97,-217.67 1541.5,-219.27 1550.68,-224.55 1551.97,-217.67"/>
</g>
<!-- Node9 -->
<g id="node9" class="node">
<title>Node9</title>
<g id="a_node9"><a xlink:title=" ">
<polygon fill="none" stroke="#bfbfbf" points="1559.43,-190.5 1559.43,-220.5 1689.43,-220.5 1689.43,-190.5 1559.43,-190.5"/>
<text text-anchor="start" x="1567.43" y="-208.5" font-family="Helvetica,sans-Serif" font-size="10.00">boost/numeric/ublas</text>
<text text-anchor="middle" x="1624.43" y="-197.5" font-family="Helvetica,sans-Serif" font-size="10.00">/vector_expression.hpp</text>
</a>
</g>
</g>
<!-- Node2&#45;&gt;Node9 -->
<g id="edge8" class="edge">
<title>Node2&#45;&gt;Node9</title>
<path fill="none" stroke="midnightblue" d="M1802.63,-257.48C1771.56,-248.59 1722.07,-234.43 1683.11,-223.29"/>
<polygon fill="midnightblue" stroke="midnightblue" points="1684.03,-219.91 1673.45,-220.52 1682.11,-226.64 1684.03,-219.91"/>
</g>
<!-- Node10 -->
<g id="node10" class="node">
<title>Node10</title>
<g id="a_node10"><a xlink:title=" ">
<polygon fill="none" stroke="#bfbfbf" points="1707.43,-190.5 1707.43,-220.5 1823.43,-220.5 1823.43,-190.5 1707.43,-190.5"/>
<text text-anchor="start" x="1715.43" y="-208.5" font-family="Helvetica,sans-Serif" font-size="10.00">boost/numeric/ublas</text>
<text text-anchor="middle" x="1765.43" y="-197.5" font-family="Helvetica,sans-Serif" font-size="10.00">/matrix_proxy.hpp</text>
</a>
</g>
</g>
<!-- Node2&#45;&gt;Node10 -->
<g id="edge9" class="edge">
<title>Node2&#45;&gt;Node10</title>
<path fill="none" stroke="midnightblue" d="M1822.83,-257.48C1814.01,-249.64 1800.58,-237.71 1788.93,-227.37"/>
<polygon fill="midnightblue" stroke="midnightblue" points="1791.02,-224.55 1781.22,-220.52 1786.38,-229.78 1791.02,-224.55"/>
</g>
<!-- Node11 -->
<g id="node11" class="node">
<title>Node11</title>
<g id="a_node11"><a xlink:title=" ">
<polygon fill="none" stroke="#bfbfbf" points="1841.43,-190.5 1841.43,-220.5 1957.43,-220.5 1957.43,-190.5 1841.43,-190.5"/>
<text text-anchor="start" x="1849.43" y="-208.5" font-family="Helvetica,sans-Serif" font-size="10.00">boost/numeric/ublas</text>
<text text-anchor="middle" x="1899.43" y="-197.5" font-family="Helvetica,sans-Serif" font-size="10.00">/symmetric.hpp</text>
</a>
</g>
</g>
<!-- Node2&#45;&gt;Node11 -->
<g id="edge10" class="edge">
<title>Node2&#45;&gt;Node11</title>
<path fill="none" stroke="midnightblue" d="M1842.03,-257.48C1850.85,-249.64 1864.28,-237.71 1875.94,-227.37"/>
<polygon fill="midnightblue" stroke="midnightblue" points="1878.49,-229.78 1883.64,-220.52 1873.84,-224.55 1878.49,-229.78"/>
</g>
<!-- Node12 -->
<g id="node12" class="node">
<title>Node12</title>
<g id="a_node12"><a xlink:title=" ">
<polygon fill="none" stroke="#bfbfbf" points="1975.43,-190.5 1975.43,-220.5 2091.43,-220.5 2091.43,-190.5 1975.43,-190.5"/>
<text text-anchor="start" x="1983.43" y="-208.5" font-family="Helvetica,sans-Serif" font-size="10.00">boost/numeric/ublas</text>
<text text-anchor="middle" x="2033.43" y="-197.5" font-family="Helvetica,sans-Serif" font-size="10.00">/hermitian.hpp</text>
</a>
</g>
</g>
<!-- Node2&#45;&gt;Node12 -->
<g id="edge11" class="edge">
<title>Node2&#45;&gt;Node12</title>
<path fill="none" stroke="midnightblue" d="M1861.23,-257.48C1891.12,-248.63 1938.68,-234.55 1976.25,-223.43"/>
<polygon fill="midnightblue" stroke="midnightblue" points="1977.47,-226.72 1986.06,-220.52 1975.48,-220.01 1977.47,-226.72"/>
</g>
<!-- Node13 -->
<g id="node13" class="node">
<title>Node13</title>
<g id="a_node13"><a xlink:title=" ">
<polygon fill="none" stroke="#bfbfbf" points="2109.43,-190.5 2109.43,-220.5 2225.43,-220.5 2225.43,-190.5 2109.43,-190.5"/>
<text text-anchor="start" x="2117.43" y="-208.5" font-family="Helvetica,sans-Serif" font-size="10.00">boost/numeric/ublas</text>
<text text-anchor="middle" x="2167.43" y="-197.5" font-family="Helvetica,sans-Serif" font-size="10.00">/banded.hpp</text>
</a>
</g>
</g>
<!-- Node2&#45;&gt;Node13 -->
<g id="edge12" class="edge">
<title>Node2&#45;&gt;Node13</title>
<path fill="none" stroke="midnightblue" d="M1887.74,-257.49C1939.8,-249.3 2020.18,-236.21 2099.23,-221.18"/>
<polygon fill="midnightblue" stroke="midnightblue" points="2100.2,-224.56 2109.36,-219.24 2098.88,-217.68 2100.2,-224.56"/>
</g>
<!-- Node14 -->
<g id="node14" class="node">
<title>Node14</title>
<g id="a_node14"><a xlink:title=" ">
<polygon fill="none" stroke="#bfbfbf" points="2243.43,-190.5 2243.43,-220.5 2359.43,-220.5 2359.43,-190.5 2243.43,-190.5"/>
<text text-anchor="start" x="2251.43" y="-208.5" font-family="Helvetica,sans-Serif" font-size="10.00">boost/numeric/ublas</text>
<text text-anchor="middle" x="2301.43" y="-197.5" font-family="Helvetica,sans-Serif" font-size="10.00">/triangular.hpp</text>
</a>
</g>
</g>
<!-- Node2&#45;&gt;Node14 -->
<g id="edge13" class="edge">
<title>Node2&#45;&gt;Node14</title>
<path fill="none" stroke="midnightblue" d="M1904.63,-260.15C1983.12,-253.28 2112.42,-240.5 2233.23,-221.09"/>
<polygon fill="midnightblue" stroke="midnightblue" points="2234.09,-224.5 2243.4,-219.44 2232.96,-217.59 2234.09,-224.5"/>
</g>
<!-- Node15 -->
<g id="node15" class="node">
<title>Node15</title>
<g id="a_node15"><a xlink:title=" ">
<polygon fill="none" stroke="#bfbfbf" points="2377.43,-190.5 2377.43,-220.5 2493.43,-220.5 2493.43,-190.5 2377.43,-190.5"/>
<text text-anchor="start" x="2385.43" y="-208.5" font-family="Helvetica,sans-Serif" font-size="10.00">boost/numeric/ublas</text>
<text text-anchor="middle" x="2435.43" y="-197.5" font-family="Helvetica,sans-Serif" font-size="10.00">/lu.hpp</text>
</a>
</g>
</g>
<!-- Node2&#45;&gt;Node15 -->
<g id="edge14" class="edge">
<title>Node2&#45;&gt;Node15</title>
<path fill="none" stroke="midnightblue" d="M1904.73,-262.9C2006.06,-257.9 2196.16,-246.11 2367.46,-221.01"/>
<polygon fill="midnightblue" stroke="midnightblue" points="2368.03,-224.47 2377.41,-219.54 2367.01,-217.54 2368.03,-224.47"/>
</g>
<!-- Node16 -->
<g id="node16" class="node">
<title>Node16</title>
<g id="a_node16"><a xlink:title=" ">
<polygon fill="none" stroke="#bfbfbf" points="2511.43,-190.5 2511.43,-220.5 2627.43,-220.5 2627.43,-190.5 2511.43,-190.5"/>
<text text-anchor="start" x="2519.43" y="-208.5" font-family="Helvetica,sans-Serif" font-size="10.00">boost/numeric/ublas</text>
<text text-anchor="middle" x="2569.43" y="-197.5" font-family="Helvetica,sans-Serif" font-size="10.00">/io.hpp</text>
</a>
</g>
</g>
<!-- Node2&#45;&gt;Node16 -->
<g id="edge15" class="edge">
<title>Node2&#45;&gt;Node16</title>
<path fill="none" stroke="midnightblue" d="M1904.67,-264.6C2026.07,-261.49 2278.73,-251.77 2501.51,-220.98"/>
<polygon fill="midnightblue" stroke="midnightblue" points="2502,-224.45 2511.42,-219.6 2501.03,-217.52 2502,-224.45"/>
</g>
<!-- Node17 -->
<g id="node17" class="node">
<title>Node17</title>
<g id="a_node17"><a xlink:title=" ">
<polygon fill="none" stroke="#bfbfbf" points="2645.43,-190.5 2645.43,-220.5 2761.43,-220.5 2761.43,-190.5 2645.43,-190.5"/>
<text text-anchor="start" x="2653.43" y="-208.5" font-family="Helvetica,sans-Serif" font-size="10.00">boost/numeric/ublas</text>
<text text-anchor="middle" x="2703.43" y="-197.5" font-family="Helvetica,sans-Serif" font-size="10.00">/matrix_sparse.hpp</text>
</a>
</g>
</g>
<!-- Node2&#45;&gt;Node17 -->
<g id="edge16" class="edge">
<title>Node2&#45;&gt;Node17</title>
<path fill="none" stroke="midnightblue" d="M1904.59,-265.75C2044.05,-264.45 2360.34,-257.48 2635.25,-221"/>
<polygon fill="midnightblue" stroke="midnightblue" points="2635.98,-224.44 2645.43,-219.64 2635.05,-217.5 2635.98,-224.44"/>
</g>
<!-- Node18 -->
<g id="node18" class="node">
<title>Node18</title>
<g id="a_node18"><a xlink:title=" ">
<polygon fill="none" stroke="#bfbfbf" points="2779.43,-190.5 2779.43,-220.5 2895.43,-220.5 2895.43,-190.5 2779.43,-190.5"/>
<text text-anchor="start" x="2787.43" y="-208.5" font-family="Helvetica,sans-Serif" font-size="10.00">boost/numeric/ublas</text>
<text text-anchor="middle" x="2837.43" y="-197.5" font-family="Helvetica,sans-Serif" font-size="10.00">/operation.hpp</text>
</a>
</g>
</g>
<!-- Node2&#45;&gt;Node18 -->
<g id="edge17" class="edge">
<title>Node2&#45;&gt;Node18</title>
<path fill="none" stroke="midnightblue" d="M1904.58,-266.58C2060.72,-266.97 2441.64,-263.2 2769.27,-220.99"/>
<polygon fill="midnightblue" stroke="midnightblue" points="2769.97,-224.43 2779.43,-219.67 2769.06,-217.49 2769.97,-224.43"/>
</g>
<!-- Node19 -->
<g id="node19" class="node">
<title>Node19</title>
<g id="a_node19"><a xlink:title=" ">
<polygon fill="none" stroke="#bfbfbf" points="2913.93,-190.5 2913.93,-220.5 3038.93,-220.5 3038.93,-190.5 2913.93,-190.5"/>
<text text-anchor="start" x="2921.93" y="-208.5" font-family="Helvetica,sans-Serif" font-size="10.00">boost/numeric/ublas</text>
<text text-anchor="middle" x="2976.43" y="-197.5" font-family="Helvetica,sans-Serif" font-size="10.00">/operation_sparse.hpp</text>
</a>
</g>
</g>
<!-- Node2&#45;&gt;Node19 -->
<g id="edge18" class="edge">
<title>Node2&#45;&gt;Node19</title>
<path fill="none" stroke="midnightblue" d="M1904.65,-264.45C2109.23,-259.81 2690.99,-244.98 2903.55,-220.93"/>
<polygon fill="midnightblue" stroke="midnightblue" points="2904.17,-224.38 2913.7,-219.74 2903.36,-217.42 2904.17,-224.38"/>
</g>
<!-- Node20 -->
<g id="node20" class="node">
<title>Node20</title>
<g id="a_node20"><a xlink:href="../../df/d67/define_8h.html" target="_top" xlink:title=" ">
<polygon fill="none" stroke="black" points="501.93,-196 501.93,-215 600.93,-215 600.93,-196 501.93,-196"/>
<text text-anchor="middle" x="551.43" y="-203" font-family="Helvetica,sans-Serif" font-size="10.00">includes/define.h</text>
</a>
</g>
</g>
<!-- Node2&#45;&gt;Node20 -->
<g id="edge19" class="edge">
<title>Node2&#45;&gt;Node20</title>
<path fill="none" stroke="midnightblue" d="M1760.35,-262.65C1531.2,-252.01 822.13,-219.07 611.21,-209.28"/>
<polygon fill="midnightblue" stroke="midnightblue" points="611.11,-205.77 600.96,-208.8 610.78,-212.76 611.11,-205.77"/>
</g>
<!-- Node21 -->
<g id="node21" class="node">
<title>Node21</title>
<g id="a_node21"><a xlink:title=" ">
<polygon fill="none" stroke="#bfbfbf" points="15.93,-73 15.93,-92 80.93,-92 80.93,-73 15.93,-73"/>
<text text-anchor="middle" x="48.43" y="-80" font-family="Helvetica,sans-Serif" font-size="10.00">stdexcept</text>
</a>
</g>
</g>
<!-- Node20&#45;&gt;Node21 -->
<g id="edge20" class="edge">
<title>Node20&#45;&gt;Node21</title>
<path fill="none" stroke="midnightblue" d="M501.89,-202.32C431.99,-198.17 301.03,-186.41 194.43,-154 148.66,-140.08 99.31,-113.57 71.31,-97.32"/>
<polygon fill="midnightblue" stroke="midnightblue" points="72.73,-94.1 62.34,-92.04 69.18,-100.13 72.73,-94.1"/>
</g>
<!-- Node22 -->
<g id="node22" class="node">
<title>Node22</title>
<g id="a_node22"><a xlink:title=" ">
<polygon fill="none" stroke="#bfbfbf" points="419.43,-73 419.43,-92 475.43,-92 475.43,-73 419.43,-73"/>
<text text-anchor="middle" x="447.43" y="-80" font-family="Helvetica,sans-Serif" font-size="10.00">sstream</text>
</a>
</g>
</g>
<!-- Node20&#45;&gt;Node22 -->
<g id="edge21" class="edge">
<title>Node20&#45;&gt;Node22</title>
<path fill="none" stroke="midnightblue" d="M543.95,-195.8C526.71,-175.74 483.95,-125.99 461.58,-99.96"/>
<polygon fill="midnightblue" stroke="midnightblue" points="464.02,-97.43 454.84,-92.12 458.71,-101.99 464.02,-97.43"/>
</g>
<!-- Node23 -->
<g id="node23" class="node">
<title>Node23</title>
<g id="a_node23"><a xlink:href="../../dc/d25/kratos__export__api_8h.html" target="_top" xlink:title=" ">
<polygon fill="none" stroke="black" points="784.43,-0.5 784.43,-30.5 912.43,-30.5 912.43,-0.5 784.43,-0.5"/>
<text text-anchor="start" x="792.43" y="-18.5" font-family="Helvetica,sans-Serif" font-size="10.00">includes/kratos_export</text>
<text text-anchor="middle" x="848.43" y="-7.5" font-family="Helvetica,sans-Serif" font-size="10.00">_api.h</text>
</a>
</g>
</g>
<!-- Node20&#45;&gt;Node23 -->
<g id="edge22" class="edge">
<title>Node20&#45;&gt;Node23</title>
<path fill="none" stroke="midnightblue" d="M601.14,-205.06C675.85,-202.88 815.2,-186.39 879.43,-98 892.51,-80 880.36,-55.81 867.63,-38.47"/>
<polygon fill="midnightblue" stroke="midnightblue" points="870.37,-36.28 861.45,-30.56 864.85,-40.6 870.37,-36.28"/>
</g>
<!-- Node24 -->
<g id="node24" class="node">
<title>Node24</title>
<g id="a_node24"><a xlink:href="../../d9/dc0/smart__pointers_8h.html" target="_top" xlink:title=" ">
<polygon fill="none" stroke="black" points="203.93,-134.5 203.93,-153.5 346.93,-153.5 346.93,-134.5 203.93,-134.5"/>
<text text-anchor="middle" x="275.43" y="-141.5" font-family="Helvetica,sans-Serif" font-size="10.00">includes/smart_pointers.h</text>
</a>
</g>
</g>
<!-- Node20&#45;&gt;Node24 -->
<g id="edge23" class="edge">
<title>Node20&#45;&gt;Node24</title>
<path fill="none" stroke="midnightblue" d="M511.89,-195.98C462.6,-185.35 378.34,-167.18 324.85,-155.65"/>
<polygon fill="midnightblue" stroke="midnightblue" points="325.42,-152.2 314.9,-153.51 323.94,-159.04 325.42,-152.2"/>
</g>
<!-- Node28 -->
<g id="node28" class="node">
<title>Node28</title>
<g id="a_node28"><a xlink:href="../../dd/d2d/exception_8h.html" target="_top" xlink:title=" ">
<polygon fill="none" stroke="black" points="536.93,-134.5 536.93,-153.5 653.93,-153.5 653.93,-134.5 536.93,-134.5"/>
<text text-anchor="middle" x="595.43" y="-141.5" font-family="Helvetica,sans-Serif" font-size="10.00">includes/exception.h</text>
</a>
</g>
</g>
<!-- Node20&#45;&gt;Node28 -->
<g id="edge28" class="edge">
<title>Node20&#45;&gt;Node28</title>
<path fill="none" stroke="midnightblue" d="M557.74,-195.98C564.34,-187.05 574.87,-172.81 583.13,-161.64"/>
<polygon fill="midnightblue" stroke="midnightblue" points="586.01,-163.63 589.14,-153.51 580.38,-159.47 586.01,-163.63"/>
</g>
<!-- Node24&#45;&gt;Node4 -->
<g id="edge24" class="edge">
<title>Node24&#45;&gt;Node4</title>
<path fill="none" stroke="midnightblue" d="M220.6,-134.45C166.89,-123.81 97.32,-102.58 128.43,-67 150.27,-42.03 371.05,-25.03 463.28,-18.96"/>
<polygon fill="midnightblue" stroke="midnightblue" points="463.6,-22.45 473.36,-18.31 463.15,-15.46 463.6,-22.45"/>
</g>
<!-- Node25 -->
<g id="node25" class="node">
<title>Node25</title>
<g id="a_node25"><a xlink:title=" ">
<polygon fill="none" stroke="#bfbfbf" points="355.93,-73 355.93,-92 400.93,-92 400.93,-73 355.93,-73"/>
<text text-anchor="middle" x="378.43" y="-80" font-family="Helvetica,sans-Serif" font-size="10.00">utility</text>
</a>
</g>
</g>
<!-- Node24&#45;&gt;Node25 -->
<g id="edge25" class="edge">
<title>Node24&#45;&gt;Node25</title>
<path fill="none" stroke="midnightblue" d="M290.19,-134.48C307.09,-124.71 335.02,-108.58 354.92,-97.08"/>
<polygon fill="midnightblue" stroke="midnightblue" points="356.79,-100.04 363.7,-92.01 353.29,-93.98 356.79,-100.04"/>
</g>
<!-- Node26 -->
<g id="node26" class="node">
<title>Node26</title>
<g id="a_node26"><a xlink:title=" ">
<polygon fill="none" stroke="#bfbfbf" points="137.43,-73 137.43,-92 195.43,-92 195.43,-73 137.43,-73"/>
<text text-anchor="middle" x="166.43" y="-80" font-family="Helvetica,sans-Serif" font-size="10.00">memory</text>
</a>
</g>
</g>
<!-- Node24&#45;&gt;Node26 -->
<g id="edge26" class="edge">
<title>Node24&#45;&gt;Node26</title>
<path fill="none" stroke="midnightblue" d="M259.82,-134.48C241.85,-124.67 212.11,-108.43 191.03,-96.92"/>
<polygon fill="midnightblue" stroke="midnightblue" points="192.47,-93.73 182.02,-92.01 189.12,-99.87 192.47,-93.73"/>
</g>
<!-- Node27 -->
<g id="node27" class="node">
<title>Node27</title>
<g id="a_node27"><a xlink:title=" ">
<polygon fill="none" stroke="#bfbfbf" points="213.43,-67.5 213.43,-97.5 337.43,-97.5 337.43,-67.5 213.43,-67.5"/>
<text text-anchor="start" x="221.43" y="-85.5" font-family="Helvetica,sans-Serif" font-size="10.00">intrusive_ptr/intrusive</text>
<text text-anchor="middle" x="275.43" y="-74.5" font-family="Helvetica,sans-Serif" font-size="10.00">_ptr.hpp</text>
</a>
</g>
</g>
<!-- Node24&#45;&gt;Node27 -->
<g id="edge27" class="edge">
<title>Node24&#45;&gt;Node27</title>
<path fill="none" stroke="midnightblue" d="M275.43,-134.48C275.43,-127.47 275.43,-117.19 275.43,-107.7"/>
<polygon fill="midnightblue" stroke="midnightblue" points="278.93,-107.52 275.43,-97.52 271.93,-107.52 278.93,-107.52"/>
</g>
<!-- Node28&#45;&gt;Node3 -->
<g id="edge30" class="edge">
<title>Node28&#45;&gt;Node3</title>
<path fill="none" stroke="midnightblue" d="M653.99,-138.36C725.48,-131.91 841.57,-118.63 879.43,-98 907.26,-82.84 929.82,-52.83 942.16,-33.76"/>
<polygon fill="midnightblue" stroke="midnightblue" points="945.2,-35.5 947.51,-25.16 939.26,-31.8 945.2,-35.5"/>
</g>
<!-- Node28&#45;&gt;Node4 -->
<g id="edge31" class="edge">
<title>Node28&#45;&gt;Node4</title>
<path fill="none" stroke="midnightblue" d="M572.24,-134.39C555.89,-127.13 534.78,-115.16 522.43,-98 509.14,-79.52 505,-53.13 503.79,-35.44"/>
<polygon fill="midnightblue" stroke="midnightblue" points="507.28,-35.08 503.35,-25.24 500.28,-35.38 507.28,-35.08"/>
</g>
<!-- Node28&#45;&gt;Node21 -->
<g id="edge29" class="edge">
<title>Node28&#45;&gt;Node21</title>
<path fill="none" stroke="midnightblue" d="M536.64,-138.91C447.93,-132.39 274.67,-118.26 128.43,-98 116.2,-96.3 102.98,-94.07 90.88,-91.87"/>
<polygon fill="midnightblue" stroke="midnightblue" points="91.5,-88.43 81.03,-90.04 90.22,-95.31 91.5,-88.43"/>
</g>
<!-- Node28&#45;&gt;Node22 -->
<g id="edge32" class="edge">
<title>Node28&#45;&gt;Node22</title>
<path fill="none" stroke="midnightblue" d="M574.23,-134.48C549.06,-124.36 506.89,-107.4 478.15,-95.85"/>
<polygon fill="midnightblue" stroke="midnightblue" points="479.18,-92.49 468.6,-92.01 476.57,-98.99 479.18,-92.49"/>
</g>
<!-- Node28&#45;&gt;Node23 -->
<g id="edge34" class="edge">
<title>Node28&#45;&gt;Node23</title>
<path fill="none" stroke="midnightblue" d="M654.07,-141.63C724.45,-138.6 836.29,-128.92 862.43,-98 875.96,-82 869.51,-57.75 861.47,-39.86"/>
<polygon fill="midnightblue" stroke="midnightblue" points="864.5,-38.1 856.95,-30.67 858.22,-41.18 864.5,-38.1"/>
</g>
<!-- Node29 -->
<g id="node29" class="node">
<title>Node29</title>
<g id="a_node29"><a xlink:title=" ">
<polygon fill="none" stroke="#bfbfbf" points="617.93,-6 617.93,-25 664.93,-25 664.93,-6 617.93,-6"/>
<text text-anchor="middle" x="641.43" y="-13" font-family="Helvetica,sans-Serif" font-size="10.00">vector</text>
</a>
</g>
</g>
<!-- Node28&#45;&gt;Node29 -->
<g id="edge33" class="edge">
<title>Node28&#45;&gt;Node29</title>
<path fill="none" stroke="midnightblue" d="M621.64,-134.41C638.28,-127.44 658.49,-115.81 668.43,-98 680.08,-77.14 666.55,-50.44 654.81,-33.4"/>
<polygon fill="midnightblue" stroke="midnightblue" points="657.39,-31 648.64,-25.03 651.76,-35.15 657.39,-31"/>
</g>
<!-- Node30 -->
<g id="node30" class="node">
<title>Node30</title>
<g id="a_node30"><a xlink:href="../../da/da6/code__location_8h.html" target="_top" xlink:title=" ">
<polygon fill="none" stroke="black" points="715.93,-73 715.93,-92 852.93,-92 852.93,-73 715.93,-73"/>
<text text-anchor="middle" x="784.43" y="-80" font-family="Helvetica,sans-Serif" font-size="10.00">includes/code_location.h</text>
</a>
</g>
</g>
<!-- Node28&#45;&gt;Node30 -->
<g id="edge35" class="edge">
<title>Node28&#45;&gt;Node30</title>
<path fill="none" stroke="midnightblue" d="M622.51,-134.48C655.35,-124.14 710.86,-106.66 747.58,-95.1"/>
<polygon fill="midnightblue" stroke="midnightblue" points="748.92,-98.35 757.4,-92.01 746.81,-91.67 748.92,-98.35"/>
</g>
<!-- Node31 -->
<g id="node31" class="node">
<title>Node31</title>
<g id="a_node31"><a xlink:href="../../d9/d06/stl__vector__io_8h.html" target="_top" xlink:title=" ">
<polygon fill="none" stroke="black" points="531.43,-73 531.43,-92 659.43,-92 659.43,-73 531.43,-73"/>
<text text-anchor="middle" x="595.43" y="-80" font-family="Helvetica,sans-Serif" font-size="10.00">utilities/stl_vector_io.h</text>
</a>
</g>
</g>
<!-- Node28&#45;&gt;Node31 -->
<g id="edge39" class="edge">
<title>Node28&#45;&gt;Node31</title>
<path fill="none" stroke="midnightblue" d="M595.43,-134.48C595.43,-126.08 595.43,-112.98 595.43,-102.16"/>
<polygon fill="midnightblue" stroke="midnightblue" points="598.93,-102.01 595.43,-92.01 591.93,-102.01 598.93,-102.01"/>
</g>
<!-- Node30&#45;&gt;Node3 -->
<g id="edge36" class="edge">
<title>Node30&#45;&gt;Node3</title>
<path fill="none" stroke="midnightblue" d="M809.43,-73C837.08,-63.43 882.83,-47.11 921.43,-31 922.8,-30.43 924.2,-29.83 925.61,-29.21"/>
<polygon fill="midnightblue" stroke="midnightblue" points="927.17,-32.35 934.84,-25.04 924.29,-25.97 927.17,-32.35"/>
</g>
<!-- Node30&#45;&gt;Node4 -->
<g id="edge37" class="edge">
<title>Node30&#45;&gt;Node4</title>
<path fill="none" stroke="midnightblue" d="M747.41,-72.94C694.62,-60.73 598.12,-38.4 543.64,-25.8"/>
<polygon fill="midnightblue" stroke="midnightblue" points="544.19,-22.33 533.65,-23.49 542.61,-29.15 544.19,-22.33"/>
</g>
<!-- Node30&#45;&gt;Node23 -->
<g id="edge38" class="edge">
<title>Node30&#45;&gt;Node23</title>
<path fill="none" stroke="midnightblue" d="M793.06,-72.73C801.8,-63.86 815.63,-49.81 827.29,-37.97"/>
<polygon fill="midnightblue" stroke="midnightblue" points="830.04,-40.17 834.56,-30.59 825.05,-35.26 830.04,-40.17"/>
</g>
<!-- Node31&#45;&gt;Node4 -->
<g id="edge40" class="edge">
<title>Node31&#45;&gt;Node4</title>
<path fill="none" stroke="midnightblue" d="M583.02,-72.73C567.85,-62.01 541.95,-43.72 523.83,-30.91"/>
<polygon fill="midnightblue" stroke="midnightblue" points="525.83,-28.04 515.64,-25.13 521.79,-33.76 525.83,-28.04"/>
</g>
<!-- Node31&#45;&gt;Node29 -->
<g id="edge41" class="edge">
<title>Node31&#45;&gt;Node29</title>
<path fill="none" stroke="midnightblue" d="M601.64,-72.73C608.74,-62.7 620.55,-46.01 629.46,-33.42"/>
<polygon fill="midnightblue" stroke="midnightblue" points="632.41,-35.31 635.33,-25.13 626.69,-31.27 632.41,-35.31"/>
</g>
</g>
</svg>
        <g id="navigator" transform="translate(0 0)" fill="#404254">
                <rect fill="#f2f5e9" fill-opacity="0.5" stroke="#606060" stroke-width=".5" x="0" y="0" width="60" height="60"/>
                <use id="zoomplus" xlink:href="#zoomPlus" x="17" y="9" onmousedown="handleZoom(evt,'in')"/>
                <use id="zoomminus" xlink:href="#zoomMin" x="42" y="9" onmousedown="handleZoom(evt,'out')"/>
                <use id="reset" xlink:href="#resetDef" x="30" y="36" onmousedown="handleReset()"/>
                <g id="arrowUp" xlink:href="#dirArrow" transform="translate(30 24)" onmousedown="handlePan(0,-1)">
                  <use xlink:href="#rim" fill="#404040">
                        <set attributeName="fill" to="#808080" begin="arrowUp.mouseover" end="arrowUp.mouseout"/>
                  </use>
                  <path fill="none" stroke="white" stroke-width="1.5" d="M0,-3.0v7 M-2.5,-0.5L0,-3.0L2.5,-0.5"/>
                </g>
                <g id="arrowRight" xlink:href="#dirArrow" transform="rotate(90) translate(36 -43)" onmousedown="handlePan(1,0)">
                  <use xlink:href="#rim" fill="#404040">
                        <set attributeName="fill" to="#808080" begin="arrowRight.mouseover" end="arrowRight.mouseout"/>
                  </use>
                  <path fill="none" stroke="white" stroke-width="1.5" d="M0,-3.0v7 M-2.5,-0.5L0,-3.0L2.5,-0.5"/>
                </g>
                <g id="arrowDown" xlink:href="#dirArrow" transform="rotate(180) translate(-30 -48)" onmousedown="handlePan(0,1)">
                  <use xlink:href="#rim" fill="#404040">
                        <set attributeName="fill" to="#808080" begin="arrowDown.mouseover" end="arrowDown.mouseout"/>
                  </use>
                  <path fill="none" stroke="white" stroke-width="1.5" d="M0,-3.0v7 M-2.5,-0.5L0,-3.0L2.5,-0.5"/>
                </g>
                <g id="arrowLeft" xlink:href="#dirArrow" transform="rotate(270) translate(-36 17)" onmousedown="handlePan(-1,0)">
                  <use xlink:href="#rim" fill="#404040">
                        <set attributeName="fill" to="#808080" begin="arrowLeft.mouseover" end="arrowLeft.mouseout"/>
                  </use>
                  <path fill="none" stroke="white" stroke-width="1.5" d="M0,-3.0v7 M-2.5,-0.5L0,-3.0L2.5,-0.5"/>
                </g>
        </g>
        <svg viewBox="0 0 15 15" width="100%" height="30px" preserveAspectRatio="xMaxYMin meet">
         <g id="arrow_out" transform="scale(0.3 0.3)">
          <a xlink:href="k__epsilon_2element__data__utilities_8h__incl_org.svg" target="_base">
           <rect id="button" ry="5" rx="5" y="6" x="6" height="38" width="38"
                fill="#f2f5e9" fill-opacity="0.5" stroke="#606060" stroke-width="1.0"/>
           <path id="arrow"
             d="M 11.500037,31.436501 C 11.940474,20.09759 22.043105,11.32322 32.158766,21.979434 L 37.068811,17.246167 C 37.068811,17.246167 37.088388,32 37.088388,32 L 22.160133,31.978069 C 22.160133,31.978069 26.997745,27.140456 26.997745,27.140456 C 18.528582,18.264221 13.291696,25.230495 11.500037,31.436501 z"
             style="fill:#404040;"/>
          </a>
         </g>
        </svg>
</svg>
