<?xml version="1.0" encoding="UTF-8" standalone="no"?>
<!DOCTYPE svg PUBLIC "-//W3C//DTD SVG 1.1//EN"
 "http://www.w3.org/Graphics/SVG/1.1/DTD/svg11.dtd">
<!-- Generated by graphviz version 2.43.0 (0)
 -->
<!-- Title: /home/runner/work/Documentation/Documentation/master/kratos/modeler/create_entities_from_geometries_modeler.cpp Pages: 1 -->
<svg width="3290pt" height="1112pt"
 viewBox="0.00 0.00 3290.00 1112.00" xmlns="http://www.w3.org/2000/svg" xmlns:xlink="http://www.w3.org/1999/xlink">
<g id="graph0" class="graph" transform="scale(1 1) rotate(0) translate(4 1108)">
<title>/home/runner/work/Documentation/Documentation/master/kratos/modeler/create_entities_from_geometries_modeler.cpp</title>
<!-- Node1 -->
<g id="node1" class="node">
<title>Node1</title>
<g id="a_node1"><a xlink:title=" ">
<polygon fill="#bfbfbf" stroke="black" points="2398.5,-1051.5 2398.5,-1103.5 2585.5,-1103.5 2585.5,-1051.5 2398.5,-1051.5"/>
<text text-anchor="start" x="2406.5" y="-1091.5" font-family="Helvetica,sans-Serif" font-size="10.00">/home/runner/work/Documentation</text>
<text text-anchor="start" x="2406.5" y="-1080.5" font-family="Helvetica,sans-Serif" font-size="10.00">/Documentation/master/kratos</text>
<text text-anchor="start" x="2406.5" y="-1069.5" font-family="Helvetica,sans-Serif" font-size="10.00">/modeler/create_entities_from</text>
<text text-anchor="middle" x="2492" y="-1058.5" font-family="Helvetica,sans-Serif" font-size="10.00">_geometries_modeler.cpp</text>
</a>
</g>
</g>
<!-- Node2 -->
<g id="node2" class="node">
<title>Node2</title>
<g id="a_node2"><a xlink:href="../../de/db2/parallel__environment_8h.html" target="_top" xlink:title=" ">
<polygon fill="none" stroke="black" points="333.5,-928.5 333.5,-947.5 506.5,-947.5 506.5,-928.5 333.5,-928.5"/>
<text text-anchor="middle" x="420" y="-935.5" font-family="Helvetica,sans-Serif" font-size="10.00">includes/parallel_environment.h</text>
</a>
</g>
</g>
<!-- Node1&#45;&gt;Node2 -->
<g id="edge1" class="edge">
<title>Node1&#45;&gt;Node2</title>
<path fill="none" stroke="midnightblue" d="M2398.33,-1071.19C2115.14,-1054.95 1243.05,-1003.7 521,-948 519.69,-947.9 518.37,-947.8 517.05,-947.69"/>
<polygon fill="midnightblue" stroke="midnightblue" points="517.01,-944.18 506.76,-946.87 516.45,-951.16 517.01,-944.18"/>
</g>
<!-- Node134 -->
<g id="node38" class="node">
<title>Node134</title>
<g id="a_node38"><a xlink:href="../../db/d20/entities__utilities_8h.html" target="_top" xlink:title=" ">
<polygon fill="none" stroke="black" points="2406.5,-861.5 2406.5,-891.5 2499.5,-891.5 2499.5,-861.5 2406.5,-861.5"/>
<text text-anchor="start" x="2414.5" y="-879.5" font-family="Helvetica,sans-Serif" font-size="10.00">utilities/entities</text>
<text text-anchor="middle" x="2453" y="-868.5" font-family="Helvetica,sans-Serif" font-size="10.00">_utilities.h</text>
</a>
</g>
</g>
<!-- Node1&#45;&gt;Node134 -->
<g id="edge140" class="edge">
<title>Node1&#45;&gt;Node134</title>
<path fill="none" stroke="midnightblue" d="M2487.06,-1051.3C2479.52,-1012.84 2465.25,-939.98 2457.8,-901.97"/>
<polygon fill="midnightblue" stroke="midnightblue" points="2461.16,-900.94 2455.8,-891.8 2454.29,-902.28 2461.16,-900.94"/>
</g>
<!-- Node135 -->
<g id="node43" class="node">
<title>Node135</title>
<g id="a_node43"><a xlink:href="../../db/d8c/variable__utils_8h.html" target="_top" xlink:title=" ">
<polygon fill="none" stroke="black" points="2646,-861.5 2646,-891.5 2742,-891.5 2742,-861.5 2646,-861.5"/>
<text text-anchor="start" x="2654" y="-879.5" font-family="Helvetica,sans-Serif" font-size="10.00">utilities/variable</text>
<text text-anchor="middle" x="2694" y="-868.5" font-family="Helvetica,sans-Serif" font-size="10.00">_utils.h</text>
</a>
</g>
</g>
<!-- Node1&#45;&gt;Node135 -->
<g id="edge151" class="edge">
<title>Node1&#45;&gt;Node135</title>
<path fill="none" stroke="midnightblue" d="M2517.58,-1051.3C2557.72,-1011.75 2634.79,-935.83 2672.35,-898.83"/>
<polygon fill="midnightblue" stroke="midnightblue" points="2675.07,-901.06 2679.74,-891.55 2670.16,-896.07 2675.07,-901.06"/>
</g>
<!-- Node139 -->
<g id="node47" class="node">
<title>Node139</title>
<g id="a_node47"><a xlink:href="../../d4/d29/create__entities__from__geometries__modeler_8h.html" target="_top" xlink:title=" ">
<polygon fill="none" stroke="black" points="2691.5,-984.5 2691.5,-1014.5 2822.5,-1014.5 2822.5,-984.5 2691.5,-984.5"/>
<text text-anchor="start" x="2699.5" y="-1002.5" font-family="Helvetica,sans-Serif" font-size="10.00">create_entities_from</text>
<text text-anchor="middle" x="2757" y="-991.5" font-family="Helvetica,sans-Serif" font-size="10.00">_geometries_modeler.h</text>
</a>
</g>
</g>
<!-- Node1&#45;&gt;Node139 -->
<g id="edge166" class="edge">
<title>Node1&#45;&gt;Node139</title>
<path fill="none" stroke="midnightblue" d="M2579.51,-1051.4C2618.34,-1040.27 2663.02,-1027.45 2697.84,-1017.47"/>
<polygon fill="midnightblue" stroke="midnightblue" points="2699.2,-1020.72 2707.85,-1014.6 2697.27,-1013.99 2699.2,-1020.72"/>
</g>
<!-- Node3 -->
<g id="node3" class="node">
<title>Node3</title>
<g id="a_node3"><a xlink:title=" ">
<polygon fill="none" stroke="#bfbfbf" points="420,-6 420,-25 464,-25 464,-6 420,-6"/>
<text text-anchor="middle" x="442" y="-13" font-family="Helvetica,sans-Serif" font-size="10.00">string</text>
</a>
</g>
</g>
<!-- Node2&#45;&gt;Node3 -->
<g id="edge2" class="edge">
<title>Node2&#45;&gt;Node3</title>
<path fill="none" stroke="midnightblue" d="M333.48,-928.59C210.54,-914.21 0,-879.51 0,-810.5 0,-810.5 0,-810.5 0,-132 0,-47.26 307.97,-23.51 409.77,-17.98"/>
<polygon fill="midnightblue" stroke="midnightblue" points="409.97,-21.47 419.78,-17.46 409.61,-14.48 409.97,-21.47"/>
</g>
<!-- Node4 -->
<g id="node4" class="node">
<title>Node4</title>
<g id="a_node4"><a xlink:title=" ">
<polygon fill="none" stroke="#bfbfbf" points="1276,-6 1276,-25 1336,-25 1336,-6 1276,-6"/>
<text text-anchor="middle" x="1306" y="-13" font-family="Helvetica,sans-Serif" font-size="10.00">iostream</text>
</a>
</g>
</g>
<!-- Node2&#45;&gt;Node4 -->
<g id="edge3" class="edge">
<title>Node2&#45;&gt;Node4</title>
<path fill="none" stroke="midnightblue" d="M376.43,-928.48C319.78,-914.58 228,-881.15 228,-810.5 228,-810.5 228,-810.5 228,-244 228,-27.66 1069.73,-16.02 1265.61,-16.24"/>
<polygon fill="midnightblue" stroke="midnightblue" points="1265.75,-19.74 1275.76,-16.26 1265.77,-12.74 1265.75,-19.74"/>
</g>
<!-- Node5 -->
<g id="node5" class="node">
<title>Node5</title>
<g id="a_node5"><a xlink:title=" ">
<polygon fill="none" stroke="#bfbfbf" points="2462.5,-179.5 2462.5,-198.5 2555.5,-198.5 2555.5,-179.5 2462.5,-179.5"/>
<text text-anchor="middle" x="2509" y="-186.5" font-family="Helvetica,sans-Serif" font-size="10.00">unordered_map</text>
</a>
</g>
</g>
<!-- Node2&#45;&gt;Node5 -->
<g id="edge4" class="edge">
<title>Node2&#45;&gt;Node5</title>
<path fill="none" stroke="midnightblue" d="M506.73,-936.19C875.13,-932.58 2293.2,-917.11 2332,-892 2536.47,-759.68 2409.93,-597.34 2455,-358 2465.55,-301.96 2489.31,-238.59 2501.49,-208.18"/>
<polygon fill="midnightblue" stroke="midnightblue" points="2504.88,-209.13 2505.41,-198.55 2498.4,-206.49 2504.88,-209.13"/>
</g>
<!-- Node6 -->
<g id="node6" class="node">
<title>Node6</title>
<g id="a_node6"><a xlink:href="../../df/d67/define_8h.html" target="_top" xlink:title=" ">
<polygon fill="none" stroke="black" points="2151.5,-123.5 2151.5,-142.5 2250.5,-142.5 2250.5,-123.5 2151.5,-123.5"/>
<text text-anchor="middle" x="2201" y="-130.5" font-family="Helvetica,sans-Serif" font-size="10.00">includes/define.h</text>
</a>
</g>
</g>
<!-- Node2&#45;&gt;Node6 -->
<g id="edge5" class="edge">
<title>Node2&#45;&gt;Node6</title>
<path fill="none" stroke="midnightblue" d="M506.8,-935.82C878.6,-930.21 2318,-902.53 2318,-810.5 2318,-810.5 2318,-810.5 2318,-741.5 2318,-488.18 2309.19,-418.27 2226,-179 2222.62,-169.29 2217.24,-159.23 2212.33,-151.08"/>
<polygon fill="midnightblue" stroke="midnightblue" points="2215.23,-149.12 2206.93,-142.54 2209.31,-152.86 2215.23,-149.12"/>
</g>
<!-- Node18 -->
<g id="node12" class="node">
<title>Node18</title>
<g id="a_node12"><a xlink:href="../../d9/dd1/data__communicator_8h.html" target="_top" xlink:title=" ">
<polygon fill="none" stroke="black" points="866,-235.5 866,-254.5 1032,-254.5 1032,-235.5 866,-235.5"/>
<text text-anchor="middle" x="949" y="-242.5" font-family="Helvetica,sans-Serif" font-size="10.00">includes/data_communicator.h</text>
</a>
</g>
</g>
<!-- Node2&#45;&gt;Node18 -->
<g id="edge17" class="edge">
<title>Node2&#45;&gt;Node18</title>
<path fill="none" stroke="midnightblue" d="M424.51,-928.37C434.57,-908.29 458,-856.59 458,-810.5 458,-810.5 458,-810.5 458,-557 458,-358.59 747.66,-281.5 882.02,-256.41"/>
<polygon fill="midnightblue" stroke="midnightblue" points="882.99,-259.79 892.2,-254.55 881.73,-252.9 882.99,-259.79"/>
</g>
<!-- Node59 -->
<g id="node18" class="node">
<title>Node59</title>
<g id="a_node18"><a xlink:href="../../dc/d5b/fill__communicator_8h.html" target="_top" xlink:title=" ">
<polygon fill="none" stroke="black" points="1538,-867 1538,-886 1694,-886 1694,-867 1538,-867"/>
<text text-anchor="middle" x="1616" y="-874" font-family="Helvetica,sans-Serif" font-size="10.00">includes/fill_communicator.h</text>
</a>
</g>
</g>
<!-- Node2&#45;&gt;Node59 -->
<g id="edge35" class="edge">
<title>Node2&#45;&gt;Node59</title>
<path fill="none" stroke="midnightblue" d="M506.98,-932.67C727.23,-921.72 1305.23,-892.96 1527.32,-881.91"/>
<polygon fill="midnightblue" stroke="midnightblue" points="1527.81,-885.39 1537.62,-881.4 1527.46,-878.4 1527.81,-885.39"/>
</g>
<!-- Node7 -->
<g id="node7" class="node">
<title>Node7</title>
<g id="a_node7"><a xlink:title=" ">
<polygon fill="none" stroke="#bfbfbf" points="2401.5,-6 2401.5,-25 2466.5,-25 2466.5,-6 2401.5,-6"/>
<text text-anchor="middle" x="2434" y="-13" font-family="Helvetica,sans-Serif" font-size="10.00">stdexcept</text>
</a>
</g>
</g>
<!-- Node6&#45;&gt;Node7 -->
<g id="edge6" class="edge">
<title>Node6&#45;&gt;Node7</title>
<path fill="none" stroke="midnightblue" d="M2218.51,-123.32C2259.01,-103.24 2359.33,-53.51 2407.44,-29.67"/>
<polygon fill="midnightblue" stroke="midnightblue" points="2409.2,-32.7 2416.6,-25.12 2406.09,-26.43 2409.2,-32.7"/>
</g>
<!-- Node8 -->
<g id="node8" class="node">
<title>Node8</title>
<g id="a_node8"><a xlink:title=" ">
<polygon fill="none" stroke="#bfbfbf" points="2773,-6 2773,-25 2829,-25 2829,-6 2773,-6"/>
<text text-anchor="middle" x="2801" y="-13" font-family="Helvetica,sans-Serif" font-size="10.00">sstream</text>
</a>
</g>
</g>
<!-- Node6&#45;&gt;Node8 -->
<g id="edge7" class="edge">
<title>Node6&#45;&gt;Node8</title>
<path fill="none" stroke="midnightblue" d="M2236.75,-123.48C2292.11,-110.44 2402.02,-85.12 2496,-67 2591.51,-48.58 2704.64,-30.94 2762.58,-22.2"/>
<polygon fill="midnightblue" stroke="midnightblue" points="2763.37,-25.62 2772.74,-20.67 2762.33,-18.69 2763.37,-25.62"/>
</g>
<!-- Node9 -->
<g id="node9" class="node">
<title>Node9</title>
<g id="a_node9"><a xlink:href="../../dc/d25/kratos__export__api_8h.html" target="_top" xlink:title=" ">
<polygon fill="none" stroke="black" points="2193,-0.5 2193,-30.5 2321,-30.5 2321,-0.5 2193,-0.5"/>
<text text-anchor="start" x="2201" y="-18.5" font-family="Helvetica,sans-Serif" font-size="10.00">includes/kratos_export</text>
<text text-anchor="middle" x="2257" y="-7.5" font-family="Helvetica,sans-Serif" font-size="10.00">_api.h</text>
</a>
</g>
</g>
<!-- Node6&#45;&gt;Node9 -->
<g id="edge8" class="edge">
<title>Node6&#45;&gt;Node9</title>
<path fill="none" stroke="midnightblue" d="M2220.91,-123.41C2235.22,-116.04 2253.46,-103.92 2262,-87 2269.18,-72.77 2267.79,-54.83 2264.67,-40.61"/>
<polygon fill="midnightblue" stroke="midnightblue" points="2267.97,-39.38 2262.07,-30.58 2261.2,-41.14 2267.97,-39.38"/>
</g>
<!-- Node10 -->
<g id="node10" class="node">
<title>Node10</title>
<g id="a_node10"><a xlink:href="../../d9/dc0/smart__pointers_8h.html" target="_top" xlink:title=" ">
<polygon fill="none" stroke="red" points="1964.5,-67.5 1964.5,-86.5 2107.5,-86.5 2107.5,-67.5 1964.5,-67.5"/>
<text text-anchor="middle" x="2036" y="-74.5" font-family="Helvetica,sans-Serif" font-size="10.00">includes/smart_pointers.h</text>
</a>
</g>
</g>
<!-- Node6&#45;&gt;Node10 -->
<g id="edge9" class="edge">
<title>Node6&#45;&gt;Node10</title>
<path fill="none" stroke="midnightblue" d="M2174.86,-123.44C2146.98,-114.32 2102.65,-99.81 2071.6,-89.65"/>
<polygon fill="midnightblue" stroke="midnightblue" points="2072.62,-86.3 2062.02,-86.52 2070.44,-92.95 2072.62,-86.3"/>
</g>
<!-- Node14 -->
<g id="node11" class="node">
<title>Node14</title>
<g id="a_node11"><a xlink:href="../../dd/d2d/exception_8h.html" target="_top" xlink:title=" ">
<polygon fill="none" stroke="red" points="2136.5,-67.5 2136.5,-86.5 2253.5,-86.5 2253.5,-67.5 2136.5,-67.5"/>
<text text-anchor="middle" x="2195" y="-74.5" font-family="Helvetica,sans-Serif" font-size="10.00">includes/exception.h</text>
</a>
</g>
</g>
<!-- Node6&#45;&gt;Node14 -->
<g id="edge11" class="edge">
<title>Node6&#45;&gt;Node14</title>
<path fill="none" stroke="midnightblue" d="M2200.01,-123.08C2199.21,-115.93 2198.07,-105.64 2197.08,-96.69"/>
<polygon fill="midnightblue" stroke="midnightblue" points="2200.56,-96.3 2195.97,-86.75 2193.6,-97.08 2200.56,-96.3"/>
</g>
<!-- Node10&#45;&gt;Node4 -->
<g id="edge10" class="edge">
<title>Node10&#45;&gt;Node4</title>
<path fill="none" stroke="midnightblue" d="M1964.26,-70C1952.15,-68.99 1939.72,-67.96 1928,-67 1708.44,-48.94 1445.25,-27.71 1346.26,-19.74"/>
<polygon fill="midnightblue" stroke="midnightblue" points="1346.35,-16.23 1336.1,-18.92 1345.79,-23.21 1346.35,-16.23"/>
</g>
<!-- Node14&#45;&gt;Node3 -->
<g id="edge13" class="edge">
<title>Node14&#45;&gt;Node3</title>
<path fill="none" stroke="midnightblue" d="M2136.38,-68.77C2129.52,-68.09 2122.61,-67.48 2116,-67 1779.45,-42.8 677.16,-20.97 474.25,-17.11"/>
<polygon fill="midnightblue" stroke="midnightblue" points="474.3,-13.61 464.24,-16.92 474.17,-20.6 474.3,-13.61"/>
</g>
<!-- Node14&#45;&gt;Node4 -->
<g id="edge14" class="edge">
<title>Node14&#45;&gt;Node4</title>
<path fill="none" stroke="midnightblue" d="M2136.36,-68.98C2129.5,-68.26 2122.6,-67.58 2116,-67 1821.03,-41.02 1464.48,-23.66 1346.24,-18.28"/>
<polygon fill="midnightblue" stroke="midnightblue" points="1346.35,-14.78 1336.2,-17.82 1346.03,-21.77 1346.35,-14.78"/>
</g>
<!-- Node14&#45;&gt;Node7 -->
<g id="edge12" class="edge">
<title>Node14&#45;&gt;Node7</title>
<path fill="none" stroke="midnightblue" d="M2229.24,-67.48C2272.05,-56.82 2345.32,-38.58 2391.62,-27.05"/>
<polygon fill="midnightblue" stroke="midnightblue" points="2392.5,-30.44 2401.36,-24.63 2390.81,-23.65 2392.5,-30.44"/>
</g>
<!-- Node14&#45;&gt;Node8 -->
<g id="edge15" class="edge">
<title>Node14&#45;&gt;Node8</title>
<path fill="none" stroke="midnightblue" d="M2253.66,-70.24C2376.87,-58.14 2659.72,-30.37 2762.65,-20.27"/>
<polygon fill="midnightblue" stroke="midnightblue" points="2763.27,-23.72 2772.88,-19.26 2762.59,-16.75 2763.27,-23.72"/>
</g>
<!-- Node14&#45;&gt;Node9 -->
<g id="edge16" class="edge">
<title>Node14&#45;&gt;Node9</title>
<path fill="none" stroke="midnightblue" d="M2203.88,-67.48C2211.97,-59.72 2224.24,-47.94 2234.95,-37.66"/>
<polygon fill="midnightblue" stroke="midnightblue" points="2237.6,-39.97 2242.39,-30.52 2232.75,-34.92 2237.6,-39.97"/>
</g>
<!-- Node18&#45;&gt;Node3 -->
<g id="edge18" class="edge">
<title>Node18&#45;&gt;Node3</title>
<path fill="none" stroke="midnightblue" d="M917.63,-235.47C891.69,-227.77 854.32,-215.18 824,-199 786.99,-179.24 780.64,-169.36 748,-143 708.32,-110.95 707.37,-90.31 662,-67 600.34,-35.31 518.83,-23.3 474.36,-18.91"/>
<polygon fill="midnightblue" stroke="midnightblue" points="474.43,-15.4 464.15,-17.97 473.79,-22.37 474.43,-15.4"/>
</g>
<!-- Node18&#45;&gt;Node4 -->
<g id="edge19" class="edge">
<title>Node18&#45;&gt;Node4</title>
<path fill="none" stroke="midnightblue" d="M942.75,-235.21C934.14,-221.92 920.98,-196.41 933,-179 958.65,-141.84 991.16,-169.11 1028,-143 1064.03,-117.47 1054.38,-90.13 1092,-67 1146.15,-33.7 1220.41,-22.36 1265.7,-18.49"/>
<polygon fill="midnightblue" stroke="midnightblue" points="1266.03,-21.98 1275.73,-17.72 1265.49,-15 1266.03,-21.98"/>
</g>
<!-- Node18&#45;&gt;Node6 -->
<g id="edge30" class="edge">
<title>Node18&#45;&gt;Node6</title>
<path fill="none" stroke="midnightblue" d="M1032.06,-244.76C1164.78,-244.62 1432.39,-238.79 1655,-199 1685.59,-193.53 1691.48,-184.84 1722,-179 1901.23,-144.73 1949.58,-162.64 2131,-143 2134.39,-142.63 2137.87,-142.24 2141.39,-141.83"/>
<polygon fill="midnightblue" stroke="midnightblue" points="2141.8,-145.3 2151.32,-140.64 2140.97,-138.35 2141.8,-145.3"/>
</g>
<!-- Node19 -->
<g id="node13" class="node">
<title>Node19</title>
<g id="a_node13"><a xlink:title=" ">
<polygon fill="none" stroke="#bfbfbf" points="2573.5,-179.5 2573.5,-198.5 2642.5,-198.5 2642.5,-179.5 2573.5,-179.5"/>
<text text-anchor="middle" x="2608" y="-186.5" font-family="Helvetica,sans-Serif" font-size="10.00">type_traits</text>
</a>
</g>
</g>
<!-- Node18&#45;&gt;Node19 -->
<g id="edge20" class="edge">
<title>Node18&#45;&gt;Node19</title>
<path fill="none" stroke="midnightblue" d="M1032.15,-242.1C1342.56,-234.94 2422.52,-209.56 2563.23,-198.74"/>
<polygon fill="midnightblue" stroke="midnightblue" points="2563.72,-202.21 2573.35,-197.81 2563.07,-195.24 2563.72,-202.21"/>
</g>
<!-- Node20 -->
<g id="node14" class="node">
<title>Node20</title>
<g id="a_node14"><a xlink:href="../../d9/d36/array__1d_8h.html" target="_top" xlink:title=" ">
<polygon fill="none" stroke="red" points="1524,-179.5 1524,-198.5 1646,-198.5 1646,-179.5 1524,-179.5"/>
<text text-anchor="middle" x="1585" y="-186.5" font-family="Helvetica,sans-Serif" font-size="10.00">containers/array_1d.h</text>
</a>
</g>
</g>
<!-- Node18&#45;&gt;Node20 -->
<g id="edge21" class="edge">
<title>Node18&#45;&gt;Node20</title>
<path fill="none" stroke="midnightblue" d="M1032.15,-236.94C1158.11,-226.25 1395.15,-206.12 1513.7,-196.05"/>
<polygon fill="midnightblue" stroke="midnightblue" points="1514.09,-199.53 1523.76,-195.2 1513.5,-192.56 1514.09,-199.53"/>
</g>
<!-- Node42 -->
<g id="node16" class="node">
<title>Node42</title>
<g id="a_node16"><a xlink:href="../../d9/da0/flags_8h.html" target="_top" xlink:title=" ">
<polygon fill="none" stroke="black" points="1136.5,-179.5 1136.5,-198.5 1239.5,-198.5 1239.5,-179.5 1136.5,-179.5"/>
<text text-anchor="middle" x="1188" y="-186.5" font-family="Helvetica,sans-Serif" font-size="10.00">containers/flags.h</text>
</a>
</g>
</g>
<!-- Node18&#45;&gt;Node42 -->
<g id="edge26" class="edge">
<title>Node18&#45;&gt;Node42</title>
<path fill="none" stroke="midnightblue" d="M986.87,-235.44C1028.48,-226.04 1095.37,-210.93 1140.47,-200.74"/>
<polygon fill="midnightblue" stroke="midnightblue" points="1141.32,-204.13 1150.31,-198.52 1139.78,-197.31 1141.32,-204.13"/>
</g>
<!-- Node43 -->
<g id="node17" class="node">
<title>Node43</title>
<g id="a_node17"><a xlink:href="../../da/dae/mpi__serializer_8h.html" target="_top" xlink:title=" ">
<polygon fill="none" stroke="red" points="942.5,-179.5 942.5,-198.5 1079.5,-198.5 1079.5,-179.5 942.5,-179.5"/>
<text text-anchor="middle" x="1011" y="-186.5" font-family="Helvetica,sans-Serif" font-size="10.00">includes/mpi_serializer.h</text>
</a>
</g>
</g>
<!-- Node18&#45;&gt;Node43 -->
<g id="edge31" class="edge">
<title>Node18&#45;&gt;Node43</title>
<path fill="none" stroke="midnightblue" d="M958.96,-235.32C968.13,-227.34 981.94,-215.31 993.03,-205.65"/>
<polygon fill="midnightblue" stroke="midnightblue" points="995.62,-208.04 1000.86,-198.83 991.02,-202.76 995.62,-208.04"/>
</g>
<!-- Node20&#45;&gt;Node3 -->
<g id="edge22" class="edge">
<title>Node20&#45;&gt;Node3</title>
<path fill="none" stroke="midnightblue" d="M1540.66,-179.49C1429.78,-158.42 1131.43,-102.9 881,-67 729.67,-45.31 547.94,-26.79 474.83,-19.64"/>
<polygon fill="midnightblue" stroke="midnightblue" points="474.73,-16.12 464.44,-18.64 474.06,-23.09 474.73,-16.12"/>
</g>
<!-- Node20&#45;&gt;Node4 -->
<g id="edge23" class="edge">
<title>Node20&#45;&gt;Node4</title>
<path fill="none" stroke="midnightblue" d="M1582.31,-179.29C1574.88,-156.72 1551.77,-96.11 1510,-67 1460.53,-32.53 1389.93,-21.52 1346.08,-18.04"/>
<polygon fill="midnightblue" stroke="midnightblue" points="1346.3,-14.55 1336.08,-17.34 1345.81,-21.53 1346.3,-14.55"/>
</g>
<!-- Node20&#45;&gt;Node6 -->
<g id="edge25" class="edge">
<title>Node20&#45;&gt;Node6</title>
<path fill="none" stroke="midnightblue" d="M1646.37,-180.42C1650.98,-179.91 1655.56,-179.44 1660,-179 1868.94,-158.49 1922.15,-164.39 2131,-143 2134.39,-142.65 2137.88,-142.27 2141.39,-141.88"/>
<polygon fill="midnightblue" stroke="midnightblue" points="2141.8,-145.35 2151.32,-140.71 2140.98,-138.4 2141.8,-145.35"/>
</g>
<!-- Node21 -->
<g id="node15" class="node">
<title>Node21</title>
<g id="a_node15"><a xlink:title=" ">
<polygon fill="none" stroke="#bfbfbf" points="2080,-123.5 2080,-142.5 2122,-142.5 2122,-123.5 2080,-123.5"/>
<text text-anchor="middle" x="2101" y="-130.5" font-family="Helvetica,sans-Serif" font-size="10.00">array</text>
</a>
</g>
</g>
<!-- Node20&#45;&gt;Node21 -->
<g id="edge24" class="edge">
<title>Node20&#45;&gt;Node21</title>
<path fill="none" stroke="midnightblue" d="M1646.38,-180.54C1650.99,-180.01 1655.57,-179.49 1660,-179 1813.51,-161.96 1997.37,-143.98 2069.64,-137.01"/>
<polygon fill="midnightblue" stroke="midnightblue" points="2070.25,-140.46 2079.87,-136.02 2069.58,-133.5 2070.25,-140.46"/>
</g>
<!-- Node42&#45;&gt;Node3 -->
<g id="edge27" class="edge">
<title>Node42&#45;&gt;Node3</title>
<path fill="none" stroke="midnightblue" d="M1136.37,-183.16C1049.36,-174.69 880.65,-156.76 857,-143 820.28,-121.63 835.67,-88.47 799,-67 744.19,-34.9 551.9,-21.96 474.57,-17.97"/>
<polygon fill="midnightblue" stroke="midnightblue" points="474.61,-14.47 464.45,-17.47 474.26,-21.46 474.61,-14.47"/>
</g>
<!-- Node42&#45;&gt;Node4 -->
<g id="edge28" class="edge">
<title>Node42&#45;&gt;Node4</title>
<path fill="none" stroke="midnightblue" d="M1191.67,-179.26C1200.57,-158.57 1224.76,-105.49 1254,-67 1263.85,-54.03 1277.03,-41.27 1287.66,-31.82"/>
<polygon fill="midnightblue" stroke="midnightblue" points="1290.25,-34.2 1295.52,-25.01 1285.67,-28.91 1290.25,-34.2"/>
</g>
<!-- Node42&#45;&gt;Node6 -->
<g id="edge29" class="edge">
<title>Node42&#45;&gt;Node6</title>
<path fill="none" stroke="midnightblue" d="M1239.72,-186.99C1382.11,-183.89 1791.81,-172.85 2131,-143 2134.4,-142.7 2137.89,-142.36 2141.4,-141.99"/>
<polygon fill="midnightblue" stroke="midnightblue" points="2141.79,-145.47 2151.34,-140.88 2141.02,-138.51 2141.79,-145.47"/>
</g>
<!-- Node43&#45;&gt;Node3 -->
<g id="edge32" class="edge">
<title>Node43&#45;&gt;Node3</title>
<path fill="none" stroke="midnightblue" d="M942.21,-183.99C904.4,-178.88 858.33,-167.61 824,-143 791.53,-119.73 809.44,-88.85 776,-67 726.52,-34.67 547.86,-21.94 474.15,-17.99"/>
<polygon fill="midnightblue" stroke="midnightblue" points="474.23,-14.49 464.06,-17.47 473.87,-21.48 474.23,-14.49"/>
</g>
<!-- Node43&#45;&gt;Node4 -->
<g id="edge33" class="edge">
<title>Node43&#45;&gt;Node4</title>
<path fill="none" stroke="midnightblue" d="M1023.78,-179.36C1035.61,-170.97 1053.25,-157.42 1066,-143 1092.47,-113.08 1081.77,-90.61 1114,-67 1159.11,-33.95 1224.16,-22.51 1265.76,-18.56"/>
<polygon fill="midnightblue" stroke="midnightblue" points="1266.14,-22.04 1275.8,-17.71 1265.54,-15.07 1266.14,-22.04"/>
</g>
<!-- Node43&#45;&gt;Node6 -->
<g id="edge34" class="edge">
<title>Node43&#45;&gt;Node6</title>
<path fill="none" stroke="midnightblue" d="M1079.67,-182.2C1095.22,-181.02 1111.67,-179.87 1127,-179 1572.79,-153.72 1685.99,-179.51 2131,-143 2134.3,-142.73 2137.68,-142.42 2141.09,-142.07"/>
<polygon fill="midnightblue" stroke="midnightblue" points="2141.78,-145.52 2151.35,-140.96 2141.03,-138.56 2141.78,-145.52"/>
</g>
<!-- Node59&#45;&gt;Node6 -->
<g id="edge36" class="edge">
<title>Node59&#45;&gt;Node6</title>
<path fill="none" stroke="midnightblue" d="M1694.2,-871.93C1882.48,-861.26 2349.94,-821.79 2411,-691 2460.33,-585.34 2370.7,-268.54 2296,-179 2283.08,-163.51 2263.6,-153.01 2245.65,-146.07"/>
<polygon fill="midnightblue" stroke="midnightblue" points="2246.47,-142.65 2235.88,-142.58 2244.11,-149.24 2246.47,-142.65"/>
</g>
<!-- Node60 -->
<g id="node19" class="node">
<title>Node60</title>
<g id="a_node19"><a xlink:href="../../dd/dfe/model__part_8h.html" target="_top" xlink:title=" ">
<polygon fill="none" stroke="black" points="1553.5,-800 1553.5,-819 1678.5,-819 1678.5,-800 1553.5,-800"/>
<text text-anchor="middle" x="1616" y="-807" font-family="Helvetica,sans-Serif" font-size="10.00">includes/model_part.h</text>
</a>
</g>
</g>
<!-- Node59&#45;&gt;Node60 -->
<g id="edge37" class="edge">
<title>Node59&#45;&gt;Node60</title>
<path fill="none" stroke="midnightblue" d="M1616,-866.73C1616,-857.18 1616,-841.62 1616,-829.28"/>
<polygon fill="midnightblue" stroke="midnightblue" points="1619.5,-829.13 1616,-819.13 1612.5,-829.13 1619.5,-829.13"/>
</g>
<!-- Node60&#45;&gt;Node3 -->
<g id="edge38" class="edge">
<title>Node60&#45;&gt;Node3</title>
<path fill="none" stroke="midnightblue" d="M1553.48,-807.76C1357.76,-805.07 765.23,-794 687,-758 574.51,-706.23 388.49,-435.94 340,-322 307.61,-245.88 300.44,-224.93 289,-143 284.31,-109.44 273.87,-93.49 295,-67 322.63,-32.36 375.31,-21.38 409.52,-17.96"/>
<polygon fill="midnightblue" stroke="midnightblue" points="410.25,-21.41 419.93,-17.1 409.67,-14.44 410.25,-21.41"/>
</g>
<!-- Node60&#45;&gt;Node4 -->
<g id="edge39" class="edge">
<title>Node60&#45;&gt;Node4</title>
<path fill="none" stroke="midnightblue" d="M1553.33,-808.43C1363.6,-807.72 804.25,-801.91 736,-758 573.99,-653.77 534,-567.14 534,-374.5 534,-374.5 534,-374.5 534,-305.5 534,-114.31 707.81,-118.23 892,-67 1025.31,-29.92 1190.29,-20.06 1265.37,-17.44"/>
<polygon fill="midnightblue" stroke="midnightblue" points="1265.9,-20.93 1275.78,-17.11 1265.68,-13.93 1265.9,-20.93"/>
</g>
<!-- Node60&#45;&gt;Node6 -->
<g id="edge42" class="edge">
<title>Node60&#45;&gt;Node6</title>
<path fill="none" stroke="midnightblue" d="M1678.84,-808.79C1766.61,-807.54 1929.96,-799.19 2062,-758 2370.2,-661.86 2480.54,-600.99 2643,-322 2675.43,-266.31 2710.32,-226.71 2667,-179 2640.19,-149.47 2380.55,-138.77 2260.87,-135.38"/>
<polygon fill="midnightblue" stroke="midnightblue" points="2260.87,-131.88 2250.77,-135.11 2260.67,-138.88 2260.87,-131.88"/>
</g>
<!-- Node60&#45;&gt;Node8 -->
<g id="edge40" class="edge">
<title>Node60&#45;&gt;Node8</title>
<path fill="none" stroke="midnightblue" d="M1678.71,-808.16C1918.78,-806.56 2771.67,-798.08 2886,-758 3157.48,-662.82 3282,-533.68 3282,-246 3282,-246 3282,-246 3282,-132 3282,-41.12 2953.25,-21.56 2839.32,-17.52"/>
<polygon fill="midnightblue" stroke="midnightblue" points="2839.4,-14.02 2829.29,-17.18 2839.17,-21.01 2839.4,-14.02"/>
</g>
<!-- Node61 -->
<g id="node20" class="node">
<title>Node61</title>
<g id="a_node20"><a xlink:title=" ">
<polygon fill="none" stroke="#bfbfbf" points="1807.5,-235.5 1807.5,-254.5 1860.5,-254.5 1860.5,-235.5 1807.5,-235.5"/>
<text text-anchor="middle" x="1834" y="-242.5" font-family="Helvetica,sans-Serif" font-size="10.00">cstddef</text>
</a>
</g>
</g>
<!-- Node60&#45;&gt;Node61 -->
<g id="edge41" class="edge">
<title>Node60&#45;&gt;Node61</title>
<path fill="none" stroke="midnightblue" d="M1630.5,-799.84C1657.98,-782.66 1717.65,-741.53 1749,-691 1766.11,-663.42 1768,-652.95 1768,-620.5 1768,-620.5 1768,-620.5 1768,-372.5 1768,-328.79 1799.36,-285.24 1818.84,-262.39"/>
<polygon fill="midnightblue" stroke="midnightblue" points="1821.65,-264.5 1825.64,-254.69 1816.4,-259.87 1821.65,-264.5"/>
</g>
<!-- Node46 -->
<g id="node21" class="node">
<title>Node46</title>
<g id="a_node21"><a xlink:href="../../dd/d5f/serializer_8h.html" target="_top" xlink:title=" ">
<polygon fill="none" stroke="red" points="1398.5,-235.5 1398.5,-254.5 1511.5,-254.5 1511.5,-235.5 1398.5,-235.5"/>
<text text-anchor="middle" x="1455" y="-242.5" font-family="Helvetica,sans-Serif" font-size="10.00">includes/serializer.h</text>
</a>
</g>
</g>
<!-- Node60&#45;&gt;Node46 -->
<g id="edge43" class="edge">
<title>Node60&#45;&gt;Node46</title>
<path fill="none" stroke="midnightblue" d="M1553.4,-801.8C1495.08,-794.3 1413.81,-780.19 1391,-758 1248.72,-619.6 1400.68,-337.21 1444.12,-263.77"/>
<polygon fill="midnightblue" stroke="midnightblue" points="1447.34,-265.21 1449.49,-254.84 1441.34,-261.61 1447.34,-265.21"/>
</g>
<!-- Node51 -->
<g id="node22" class="node">
<title>Node51</title>
<g id="a_node22"><a xlink:href="../../d1/d8c/logger_8h.html" target="_top" xlink:title=" ">
<polygon fill="none" stroke="red" points="866,-123.5 866,-142.5 986,-142.5 986,-123.5 866,-123.5"/>
<text text-anchor="middle" x="926" y="-130.5" font-family="Helvetica,sans-Serif" font-size="10.00">input_output/logger.h</text>
</a>
</g>
</g>
<!-- Node60&#45;&gt;Node51 -->
<g id="edge132" class="edge">
<title>Node60&#45;&gt;Node51</title>
<path fill="none" stroke="midnightblue" d="M1553.32,-805.38C1362.25,-795.04 800,-758.16 800,-682 800,-682 800,-682 800,-434 800,-343.61 803.3,-316.69 842,-235 858.32,-200.55 889.13,-168.04 908.56,-149.61"/>
<polygon fill="midnightblue" stroke="midnightblue" points="911.15,-151.98 916.11,-142.61 906.4,-146.84 911.15,-151.98"/>
</g>
<!-- Node62 -->
<g id="node23" class="node">
<title>Node62</title>
<g id="a_node23"><a xlink:href="../../de/db8/process__info_8h.html" target="_top" xlink:title=" ">
<polygon fill="none" stroke="black" points="1532.5,-548.5 1532.5,-567.5 1663.5,-567.5 1663.5,-548.5 1532.5,-548.5"/>
<text text-anchor="middle" x="1598" y="-555.5" font-family="Helvetica,sans-Serif" font-size="10.00">includes/process_info.h</text>
</a>
</g>
</g>
<!-- Node60&#45;&gt;Node62 -->
<g id="edge55" class="edge">
<title>Node60&#45;&gt;Node62</title>
<path fill="none" stroke="midnightblue" d="M1600.04,-799.79C1571.37,-783.1 1511.98,-743.57 1489,-691 1475.4,-659.88 1516.53,-658.56 1541,-635 1559.67,-617.02 1576.9,-592.48 1587.42,-576.2"/>
<polygon fill="midnightblue" stroke="midnightblue" points="1590.42,-578.01 1592.8,-567.69 1584.5,-574.27 1590.42,-578.01"/>
</g>
<!-- Node63 -->
<g id="node24" class="node">
<title>Node63</title>
<g id="a_node24"><a xlink:href="../../d1/d82/data__value__container_8h.html" target="_top" xlink:title=" ">
<polygon fill="none" stroke="red" points="1494.5,-481.5 1494.5,-511.5 1619.5,-511.5 1619.5,-481.5 1494.5,-481.5"/>
<text text-anchor="start" x="1502.5" y="-499.5" font-family="Helvetica,sans-Serif" font-size="10.00">containers/data_value</text>
<text text-anchor="middle" x="1557" y="-488.5" font-family="Helvetica,sans-Serif" font-size="10.00">_container.h</text>
</a>
</g>
</g>
<!-- Node60&#45;&gt;Node63 -->
<g id="edge85" class="edge">
<title>Node60&#45;&gt;Node63</title>
<path fill="none" stroke="midnightblue" d="M1553.47,-802.2C1482.95,-791.23 1378,-761.55 1378,-682 1378,-682 1378,-682 1378,-618.5 1378,-563.35 1437.04,-531.64 1487.31,-514.63"/>
<polygon fill="midnightblue" stroke="midnightblue" points="1488.46,-517.94 1496.9,-511.52 1486.31,-511.28 1488.46,-517.94"/>
</g>
<!-- Node64 -->
<g id="node25" class="node">
<title>Node64</title>
<g id="a_node25"><a xlink:href="../../da/d89/variable_8h.html" target="_top" xlink:title=" ">
<polygon fill="none" stroke="red" points="1192.5,-364 1192.5,-383 1311.5,-383 1311.5,-364 1192.5,-364"/>
<text text-anchor="middle" x="1252" y="-371" font-family="Helvetica,sans-Serif" font-size="10.00">containers/variable.h</text>
</a>
</g>
</g>
<!-- Node60&#45;&gt;Node64 -->
<g id="edge138" class="edge">
<title>Node60&#45;&gt;Node64</title>
<path fill="none" stroke="midnightblue" d="M1553.45,-809.47C1445.53,-809.85 1230.47,-804.54 1174,-758 1146.67,-735.47 1150,-717.42 1150,-682 1150,-682 1150,-682 1150,-618.5 1150,-527.07 1211.71,-430.25 1239.13,-391.74"/>
<polygon fill="midnightblue" stroke="midnightblue" points="1242.26,-393.39 1245.31,-383.25 1236.6,-389.28 1242.26,-393.39"/>
</g>
<!-- Node79 -->
<g id="node26" class="node">
<title>Node79</title>
<g id="a_node26"><a xlink:href="../../d3/dc3/variable__data_8h.html" target="_top" xlink:title=" ">
<polygon fill="none" stroke="red" points="1230,-297 1230,-316 1322,-316 1322,-297 1230,-297"/>
<text text-anchor="middle" x="1276" y="-304" font-family="Helvetica,sans-Serif" font-size="10.00">variable_data.h</text>
</a>
</g>
</g>
<!-- Node60&#45;&gt;Node79 -->
<g id="edge139" class="edge">
<title>Node60&#45;&gt;Node79</title>
<path fill="none" stroke="midnightblue" d="M1553.22,-808.15C1467.74,-806.18 1321.48,-797.03 1288,-758 1262.82,-728.65 1285.28,-709.57 1288,-671 1295.13,-569.8 1312.87,-546.2 1320,-445 1322.72,-406.43 1333.56,-394.21 1320,-358 1314.9,-344.39 1304.29,-332.03 1294.77,-322.94"/>
<polygon fill="midnightblue" stroke="midnightblue" points="1296.95,-320.2 1287.17,-316.13 1292.28,-325.41 1296.95,-320.2"/>
</g>
<!-- Node84 -->
<g id="node28" class="node">
<title>Node84</title>
<g id="a_node28"><a xlink:href="../../d8/d3b/mesh_8h.html" target="_top" xlink:title=" ">
<polygon fill="none" stroke="red" points="1862,-671.5 1862,-690.5 1958,-690.5 1958,-671.5 1862,-671.5"/>
<text text-anchor="middle" x="1910" y="-678.5" font-family="Helvetica,sans-Serif" font-size="10.00">includes/mesh.h</text>
</a>
</g>
</g>
<!-- Node60&#45;&gt;Node84 -->
<g id="edge86" class="edge">
<title>Node60&#45;&gt;Node84</title>
<path fill="none" stroke="midnightblue" d="M1678.64,-804.98C1750.72,-799.61 1863.04,-786.79 1893,-758 1908.35,-743.24 1911.25,-717.88 1911.21,-700.54"/>
<polygon fill="midnightblue" stroke="midnightblue" points="1914.7,-700.37 1910.85,-690.5 1907.71,-700.62 1914.7,-700.37"/>
</g>
<!-- Node88 -->
<g id="node29" class="node">
<title>Node88</title>
<g id="a_node29"><a xlink:href="../../d2/d58/pointer__vector__map_8h.html" target="_top" xlink:title=" ">
<polygon fill="none" stroke="red" points="2024.5,-291.5 2024.5,-321.5 2129.5,-321.5 2129.5,-291.5 2024.5,-291.5"/>
<text text-anchor="start" x="2032.5" y="-309.5" font-family="Helvetica,sans-Serif" font-size="10.00">containers/pointer</text>
<text text-anchor="middle" x="2077" y="-298.5" font-family="Helvetica,sans-Serif" font-size="10.00">_vector_map.h</text>
</a>
</g>
</g>
<!-- Node60&#45;&gt;Node88 -->
<g id="edge126" class="edge">
<title>Node60&#45;&gt;Node88</title>
<path fill="none" stroke="midnightblue" d="M1678.77,-801.93C1797.1,-788.22 2046.46,-752.62 2104,-691 2164.93,-625.74 2158,-586.79 2158,-497.5 2158,-497.5 2158,-497.5 2158,-434 2158,-391.41 2125.03,-351.67 2101.16,-328.49"/>
<polygon fill="midnightblue" stroke="midnightblue" points="2103.47,-325.85 2093.78,-321.56 2098.68,-330.95 2103.47,-325.85"/>
</g>
<!-- Node100 -->
<g id="node30" class="node">
<title>Node100</title>
<g id="a_node30"><a xlink:href="../../da/da4/master__slave__constraint_8h.html" target="_top" xlink:title=" ">
<polygon fill="none" stroke="red" points="1406,-604.5 1406,-634.5 1532,-634.5 1532,-604.5 1406,-604.5"/>
<text text-anchor="start" x="1414" y="-622.5" font-family="Helvetica,sans-Serif" font-size="10.00">includes/master_slave</text>
<text text-anchor="middle" x="1469" y="-611.5" font-family="Helvetica,sans-Serif" font-size="10.00">_constraint.h</text>
</a>
</g>
</g>
<!-- Node60&#45;&gt;Node100 -->
<g id="edge137" class="edge">
<title>Node60&#45;&gt;Node100</title>
<path fill="none" stroke="midnightblue" d="M1553.34,-805.92C1518.67,-800.89 1478.21,-788.31 1456,-758 1431.53,-724.61 1445.98,-673.72 1457.98,-644.12"/>
<polygon fill="midnightblue" stroke="midnightblue" points="1461.34,-645.17 1462.05,-634.6 1454.9,-642.42 1461.34,-645.17"/>
</g>
<!-- Node111 -->
<g id="node31" class="node">
<title>Node111</title>
<g id="a_node31"><a xlink:href="../../d3/dad/geometry__container_8h.html" target="_top" xlink:title=" ">
<polygon fill="none" stroke="red" points="2680,-358.5 2680,-388.5 2798,-388.5 2798,-358.5 2680,-358.5"/>
<text text-anchor="start" x="2688" y="-376.5" font-family="Helvetica,sans-Serif" font-size="10.00">containers/geometry</text>
<text text-anchor="middle" x="2739" y="-365.5" font-family="Helvetica,sans-Serif" font-size="10.00">_container.h</text>
</a>
</g>
</g>
<!-- Node60&#45;&gt;Node111 -->
<g id="edge105" class="edge">
<title>Node60&#45;&gt;Node111</title>
<path fill="none" stroke="midnightblue" d="M1678.53,-808.8C1824.51,-808.71 2183.73,-803.69 2294,-758 2345.46,-736.68 2633.13,-472.49 2716.41,-395.45"/>
<polygon fill="midnightblue" stroke="midnightblue" points="2718.86,-397.96 2723.82,-388.6 2714.1,-392.82 2718.86,-397.96"/>
</g>
<!-- Node112 -->
<g id="node32" class="node">
<title>Node112</title>
<g id="a_node32"><a xlink:href="../../d4/dfe/element_8h.html" target="_top" xlink:title=" ">
<polygon fill="none" stroke="red" points="1498,-671.5 1498,-690.5 1608,-690.5 1608,-671.5 1498,-671.5"/>
<text text-anchor="middle" x="1553" y="-678.5" font-family="Helvetica,sans-Serif" font-size="10.00">includes/element.h</text>
</a>
</g>
</g>
<!-- Node60&#45;&gt;Node112 -->
<g id="edge107" class="edge">
<title>Node60&#45;&gt;Node112</title>
<path fill="none" stroke="midnightblue" d="M1611.67,-799.81C1601.46,-779.31 1575.73,-727.65 1561.99,-700.04"/>
<polygon fill="midnightblue" stroke="midnightblue" points="1564.95,-698.15 1557.36,-690.76 1558.69,-701.27 1564.95,-698.15"/>
</g>
<!-- Node130 -->
<g id="node33" class="node">
<title>Node130</title>
<g id="a_node33"><a xlink:href="../../d7/d6c/condition_8h.html" target="_top" xlink:title=" ">
<polygon fill="none" stroke="red" points="1626,-671.5 1626,-690.5 1740,-690.5 1740,-671.5 1626,-671.5"/>
<text text-anchor="middle" x="1683" y="-678.5" font-family="Helvetica,sans-Serif" font-size="10.00">includes/condition.h</text>
</a>
</g>
</g>
<!-- Node60&#45;&gt;Node130 -->
<g id="edge109" class="edge">
<title>Node60&#45;&gt;Node130</title>
<path fill="none" stroke="midnightblue" d="M1620.61,-799.81C1631.51,-779.22 1659.07,-727.19 1673.64,-699.68"/>
<polygon fill="midnightblue" stroke="midnightblue" points="1676.78,-701.23 1678.36,-690.76 1670.59,-697.95 1676.78,-701.23"/>
</g>
<!-- Node131 -->
<g id="node34" class="node">
<title>Node131</title>
<g id="a_node34"><a xlink:href="../../d8/d75/communicator_8h.html" target="_top" xlink:title=" ">
<polygon fill="none" stroke="black" points="1745.5,-733 1745.5,-752 1884.5,-752 1884.5,-733 1745.5,-733"/>
<text text-anchor="middle" x="1815" y="-740" font-family="Helvetica,sans-Serif" font-size="10.00">includes/communicator.h</text>
</a>
</g>
</g>
<!-- Node60&#45;&gt;Node131 -->
<g id="edge111" class="edge">
<title>Node60&#45;&gt;Node131</title>
<path fill="none" stroke="midnightblue" d="M1642.43,-799.87C1677.54,-788.4 1739.7,-768.09 1779.06,-755.24"/>
<polygon fill="midnightblue" stroke="midnightblue" points="1780.36,-758.5 1788.78,-752.06 1778.19,-751.84 1780.36,-758.5"/>
</g>
<!-- Node115 -->
<g id="node35" class="node">
<title>Node115</title>
<g id="a_node35"><a xlink:href="../../dd/d98/table_8h.html" target="_top" xlink:title=" ">
<polygon fill="none" stroke="black" points="677,-425.5 677,-444.5 771,-444.5 771,-425.5 677,-425.5"/>
<text text-anchor="middle" x="724" y="-432.5" font-family="Helvetica,sans-Serif" font-size="10.00">includes/table.h</text>
</a>
</g>
</g>
<!-- Node60&#45;&gt;Node115 -->
<g id="edge120" class="edge">
<title>Node60&#45;&gt;Node115</title>
<path fill="none" stroke="midnightblue" d="M1553.39,-807.57C1371.83,-804.48 853.65,-792.67 786,-758 747.21,-738.12 724,-725.59 724,-682 724,-682 724,-682 724,-557 724,-520.71 724,-478.31 724,-454.56"/>
<polygon fill="midnightblue" stroke="midnightblue" points="727.5,-454.51 724,-444.51 720.5,-454.51 727.5,-454.51"/>
</g>
<!-- Node132 -->
<g id="node36" class="node">
<title>Node132</title>
<g id="a_node36"><a xlink:href="../../da/d92/pointer__hash__map__set_8h.html" target="_top" xlink:title=" ">
<polygon fill="none" stroke="red" points="2528.5,-291.5 2528.5,-321.5 2633.5,-321.5 2633.5,-291.5 2528.5,-291.5"/>
<text text-anchor="start" x="2536.5" y="-309.5" font-family="Helvetica,sans-Serif" font-size="10.00">containers/pointer</text>
<text text-anchor="middle" x="2581" y="-298.5" font-family="Helvetica,sans-Serif" font-size="10.00">_hash_map_set.h</text>
</a>
</g>
</g>
<!-- Node60&#45;&gt;Node132 -->
<g id="edge127" class="edge">
<title>Node60&#45;&gt;Node132</title>
<path fill="none" stroke="midnightblue" d="M1678.76,-807.96C1757.94,-805.59 1897.38,-795.79 2010,-758 2269.88,-670.79 2499.61,-407.53 2563.45,-329.51"/>
<polygon fill="midnightblue" stroke="midnightblue" points="2566.17,-331.71 2569.76,-321.74 2560.74,-327.3 2566.17,-331.71"/>
</g>
<!-- Node110 -->
<g id="node37" class="node">
<title>Node110</title>
<g id="a_node37"><a xlink:href="../../d0/dac/kratos__flags_8h.html" target="_top" xlink:title=" ">
<polygon fill="none" stroke="black" points="970,-487 970,-506 1098,-506 1098,-487 970,-487"/>
<text text-anchor="middle" x="1034" y="-494" font-family="Helvetica,sans-Serif" font-size="10.00">includes/kratos_flags.h</text>
</a>
</g>
</g>
<!-- Node60&#45;&gt;Node110 -->
<g id="edge133" class="edge">
<title>Node60&#45;&gt;Node110</title>
<path fill="none" stroke="midnightblue" d="M1553.41,-807.71C1440.23,-805.35 1206.73,-795.88 1136,-758 1097.32,-737.28 1073,-725.87 1073,-682 1073,-682 1073,-682 1073,-618.5 1073,-580.05 1054.94,-537.89 1043.4,-514.88"/>
<polygon fill="midnightblue" stroke="midnightblue" points="1046.5,-513.26 1038.78,-506 1040.29,-516.49 1046.5,-513.26"/>
</g>
<!-- Node46&#45;&gt;Node3 -->
<g id="edge44" class="edge">
<title>Node46&#45;&gt;Node3</title>
<path fill="none" stroke="midnightblue" d="M1398.44,-241.43C1282.15,-235.78 1019.86,-220.97 933,-199 872.41,-183.67 858.76,-173.12 804,-143 751.29,-114.01 747.46,-90.3 692,-67 617.84,-35.84 523.03,-23.47 474.23,-18.92"/>
<polygon fill="midnightblue" stroke="midnightblue" points="474.53,-15.43 464.26,-18.04 473.91,-22.4 474.53,-15.43"/>
</g>
<!-- Node46&#45;&gt;Node4 -->
<g id="edge46" class="edge">
<title>Node46&#45;&gt;Node4</title>
<path fill="none" stroke="midnightblue" d="M1443.5,-235.26C1432.88,-226.79 1417.11,-213.18 1406,-199 1363.17,-144.34 1328.29,-68.89 1313.56,-34.67"/>
<polygon fill="midnightblue" stroke="midnightblue" points="1316.62,-32.93 1309.5,-25.09 1310.18,-35.66 1316.62,-32.93"/>
</g>
<!-- Node46&#45;&gt;Node5 -->
<g id="edge47" class="edge">
<title>Node46&#45;&gt;Node5</title>
<path fill="none" stroke="midnightblue" d="M1511.67,-241.1C1694.65,-231.72 2268.49,-202.32 2451.98,-192.92"/>
<polygon fill="midnightblue" stroke="midnightblue" points="2452.41,-196.4 2462.22,-192.4 2452.05,-189.41 2452.41,-196.4"/>
</g>
<!-- Node46&#45;&gt;Node6 -->
<g id="edge48" class="edge">
<title>Node46&#45;&gt;Node6</title>
<path fill="none" stroke="midnightblue" d="M1511.63,-238.44C1567.05,-232.11 1653.46,-219.83 1726,-199 1748.21,-192.62 1751.59,-184.67 1774,-179 1928.61,-139.91 1972.57,-161.17 2131,-143 2134.39,-142.61 2137.87,-142.2 2141.38,-141.78"/>
<polygon fill="midnightblue" stroke="midnightblue" points="2141.81,-145.25 2151.31,-140.56 2140.96,-138.3 2141.81,-145.25"/>
</g>
<!-- Node46&#45;&gt;Node8 -->
<g id="edge45" class="edge">
<title>Node46&#45;&gt;Node8</title>
<path fill="none" stroke="midnightblue" d="M1495.75,-235.5C1536.28,-226.88 1600.14,-212.89 1655,-199 1686.78,-190.95 1694,-186.1 1726,-179 2026.73,-112.24 2105.2,-111.62 2410,-67 2539.16,-48.09 2692.87,-29.33 2762.88,-20.99"/>
<polygon fill="midnightblue" stroke="midnightblue" points="2763.47,-24.44 2772.98,-19.79 2762.64,-17.49 2763.47,-24.44"/>
</g>
<!-- Node46&#45;&gt;Node20 -->
<g id="edge54" class="edge">
<title>Node46&#45;&gt;Node20</title>
<path fill="none" stroke="midnightblue" d="M1475.6,-235.44C1496.99,-226.56 1530.68,-212.56 1555.02,-202.45"/>
<polygon fill="midnightblue" stroke="midnightblue" points="1556.61,-205.58 1564.5,-198.52 1553.92,-199.12 1556.61,-205.58"/>
</g>
<!-- Node46&#45;&gt;Node42 -->
<g id="edge53" class="edge">
<title>Node46&#45;&gt;Node42</title>
<path fill="none" stroke="midnightblue" d="M1412.69,-235.44C1365.92,-225.98 1290.54,-210.74 1240.15,-200.55"/>
<polygon fill="midnightblue" stroke="midnightblue" points="1240.6,-197.07 1230.11,-198.52 1239.22,-203.93 1240.6,-197.07"/>
</g>
<!-- Node46&#45;&gt;Node51 -->
<g id="edge49" class="edge">
<title>Node46&#45;&gt;Node51</title>
<path fill="none" stroke="midnightblue" d="M1432.06,-235.42C1394.23,-221.59 1316.17,-194.35 1248,-179 1162.41,-159.72 1062.05,-147.26 996.41,-140.45"/>
<polygon fill="midnightblue" stroke="midnightblue" points="996.48,-136.94 986.18,-139.41 995.77,-143.9 996.48,-136.94"/>
</g>
<!-- Node51&#45;&gt;Node3 -->
<g id="edge50" class="edge">
<title>Node51&#45;&gt;Node3</title>
<path fill="none" stroke="midnightblue" d="M919.32,-123.46C907.49,-109.04 881.33,-80.16 852,-67 784.38,-36.67 558.75,-22.4 474.28,-18.02"/>
<polygon fill="midnightblue" stroke="midnightblue" points="474.41,-14.53 464.24,-17.52 474.05,-21.52 474.41,-14.53"/>
</g>
<!-- Node51&#45;&gt;Node4 -->
<g id="edge51" class="edge">
<title>Node51&#45;&gt;Node4</title>
<path fill="none" stroke="midnightblue" d="M933.12,-123.13C945.22,-108.76 971.25,-80.61 1000,-67 1088.15,-25.27 1204.74,-17.31 1265.4,-16.22"/>
<polygon fill="midnightblue" stroke="midnightblue" points="1265.75,-19.72 1275.71,-16.1 1265.66,-12.72 1265.75,-19.72"/>
</g>
<!-- Node51&#45;&gt;Node14 -->
<g id="edge52" class="edge">
<title>Node51&#45;&gt;Node14</title>
<path fill="none" stroke="midnightblue" d="M986.15,-131.33C1160.9,-129.05 1683.59,-119.76 2116,-87 2119.41,-86.74 2122.89,-86.45 2126.41,-86.13"/>
<polygon fill="midnightblue" stroke="midnightblue" points="2126.75,-89.62 2136.38,-85.18 2126.09,-82.65 2126.75,-89.62"/>
</g>
<!-- Node62&#45;&gt;Node3 -->
<g id="edge56" class="edge">
<title>Node62&#45;&gt;Node3</title>
<path fill="none" stroke="midnightblue" d="M1532.18,-554.91C1416.31,-550.67 1168.51,-539.04 961,-512 803.51,-491.48 758.6,-501.04 610,-445 564.14,-427.71 553.75,-419.01 515,-389 423.76,-318.33 387.63,-303.19 338,-199 312.71,-145.91 309.27,-112.1 347,-67 363.38,-47.42 389.33,-34.36 409.98,-26.43"/>
<polygon fill="midnightblue" stroke="midnightblue" points="411.41,-29.64 419.63,-22.94 409.03,-23.05 411.41,-29.64"/>
</g>
<!-- Node62&#45;&gt;Node4 -->
<g id="edge57" class="edge">
<title>Node62&#45;&gt;Node4</title>
<path fill="none" stroke="midnightblue" d="M1606.21,-548.18C1613.54,-539.66 1623.76,-526.02 1628,-512 1631.99,-498.81 1630.83,-494.48 1628,-481 1603.48,-364.14 1603.21,-320.63 1520,-235 1493.95,-208.2 1472.83,-222.78 1444,-199 1387.84,-152.67 1391.51,-124.61 1347,-67 1338.14,-55.53 1327.85,-42.86 1319.8,-33.08"/>
<polygon fill="midnightblue" stroke="midnightblue" points="1322.46,-30.81 1313.39,-25.34 1317.07,-35.27 1322.46,-30.81"/>
</g>
<!-- Node62&#45;&gt;Node6 -->
<g id="edge60" class="edge">
<title>Node62&#45;&gt;Node6</title>
<path fill="none" stroke="midnightblue" d="M1627.46,-548.4C1651.81,-540.66 1686.82,-528.05 1715,-512 1922.62,-393.78 1945.43,-321.76 2137,-179 2151.02,-168.55 2167.13,-157.23 2179.68,-148.56"/>
<polygon fill="midnightblue" stroke="midnightblue" points="2181.85,-151.31 2188.1,-142.76 2177.88,-145.54 2181.85,-151.31"/>
</g>
<!-- Node62&#45;&gt;Node8 -->
<g id="edge58" class="edge">
<title>Node62&#45;&gt;Node8</title>
<path fill="none" stroke="midnightblue" d="M1663.57,-554.67C1835.11,-546.06 2307.04,-506.05 2643,-322 2773.09,-250.73 2822.94,-223.92 2880,-87 2890.77,-61.16 2860.76,-41.11 2834.69,-29.11"/>
<polygon fill="midnightblue" stroke="midnightblue" points="2835.91,-25.83 2825.34,-25.06 2833.13,-32.25 2835.91,-25.83"/>
</g>
<!-- Node62&#45;&gt;Node42 -->
<g id="edge84" class="edge">
<title>Node62&#45;&gt;Node42</title>
<path fill="none" stroke="midnightblue" d="M1561.88,-548.45C1538.21,-541.52 1507.58,-529.91 1485,-512 1391.21,-437.6 1415.38,-375.92 1331,-291 1294.27,-254.04 1242.6,-221.28 1212.47,-203.68"/>
<polygon fill="midnightblue" stroke="midnightblue" points="1213.91,-200.47 1203.5,-198.51 1210.42,-206.53 1213.91,-200.47"/>
</g>
<!-- Node62&#45;&gt;Node61 -->
<g id="edge59" class="edge">
<title>Node62&#45;&gt;Node61</title>
<path fill="none" stroke="midnightblue" d="M1620.69,-548.42C1658.43,-532.51 1730,-494.6 1730,-436 1730,-436 1730,-436 1730,-372.5 1730,-334.74 1730.48,-320.54 1754,-291 1765.51,-276.55 1783,-265.95 1798.7,-258.69"/>
<polygon fill="midnightblue" stroke="midnightblue" points="1800.38,-261.78 1808.17,-254.59 1797.6,-255.35 1800.38,-261.78"/>
</g>
<!-- Node62&#45;&gt;Node63 -->
<g id="edge61" class="edge">
<title>Node62&#45;&gt;Node63</title>
<path fill="none" stroke="midnightblue" d="M1592.13,-548.48C1586.99,-541.02 1579.29,-529.85 1572.41,-519.87"/>
<polygon fill="midnightblue" stroke="midnightblue" points="1575.22,-517.77 1566.66,-511.52 1569.45,-521.74 1575.22,-517.77"/>
</g>
<!-- Node63&#45;&gt;Node3 -->
<g id="edge62" class="edge">
<title>Node63&#45;&gt;Node3</title>
<path fill="none" stroke="midnightblue" d="M1494.25,-493.44C1304.84,-487.03 747.06,-466.51 668,-445 615.45,-430.7 603.55,-420.32 559,-389 476.94,-331.31 469.15,-301.44 394,-235 375.33,-218.49 363.12,-220.78 351,-199 322.31,-147.45 327.8,-112.79 365,-67 377.98,-51.03 397.38,-38.35 413.45,-29.69"/>
<polygon fill="midnightblue" stroke="midnightblue" points="415.17,-32.74 422.46,-25.06 411.97,-26.52 415.17,-32.74"/>
</g>
<!-- Node63&#45;&gt;Node4 -->
<g id="edge63" class="edge">
<title>Node63&#45;&gt;Node4</title>
<path fill="none" stroke="midnightblue" d="M1545.25,-481.39C1515.81,-445.51 1437.73,-347.05 1389,-255 1351.62,-184.38 1349.65,-163 1325,-87 1319.38,-69.68 1314.09,-49.61 1310.52,-35.32"/>
<polygon fill="midnightblue" stroke="midnightblue" points="1313.84,-34.15 1308.06,-25.27 1307.04,-35.81 1313.84,-34.15"/>
</g>
<!-- Node63&#45;&gt;Node6 -->
<g id="edge65" class="edge">
<title>Node63&#45;&gt;Node6</title>
<path fill="none" stroke="midnightblue" d="M1584.71,-481.41C1603.81,-471.55 1629.67,-457.88 1652,-445 1845.33,-333.44 1877.44,-276.98 2078,-179 2105.47,-165.58 2138.02,-153.84 2162.73,-145.72"/>
<polygon fill="midnightblue" stroke="midnightblue" points="2164.03,-148.98 2172.47,-142.58 2161.88,-142.32 2164.03,-148.98"/>
</g>
<!-- Node63&#45;&gt;Node14 -->
<g id="edge83" class="edge">
<title>Node63&#45;&gt;Node14</title>
<path fill="none" stroke="midnightblue" d="M1562.72,-481.26C1577.86,-445.15 1622.21,-348.76 1686,-291 1821.24,-168.54 2036.98,-110.4 2138.59,-88.65"/>
<polygon fill="midnightblue" stroke="midnightblue" points="2139.58,-92.02 2148.64,-86.54 2138.14,-85.17 2139.58,-92.02"/>
</g>
<!-- Node63&#45;&gt;Node61 -->
<g id="edge64" class="edge">
<title>Node63&#45;&gt;Node61</title>
<path fill="none" stroke="midnightblue" d="M1583.2,-481.41C1598.2,-472.42 1616.63,-459.71 1630,-445 1682.71,-386.97 1656.7,-342.27 1716,-291 1728.59,-280.11 1767.76,-266.31 1797.54,-256.88"/>
<polygon fill="midnightblue" stroke="midnightblue" points="1798.73,-260.18 1807.23,-253.86 1796.65,-253.49 1798.73,-260.18"/>
</g>
<!-- Node63&#45;&gt;Node64 -->
<g id="edge66" class="edge">
<title>Node63&#45;&gt;Node64</title>
<path fill="none" stroke="midnightblue" d="M1521.42,-481.38C1461.23,-457.51 1340.33,-409.54 1283.23,-386.89"/>
<polygon fill="midnightblue" stroke="midnightblue" points="1284.24,-383.53 1273.66,-383.09 1281.66,-390.03 1284.24,-383.53"/>
</g>
<!-- Node81 -->
<g id="node27" class="node">
<title>Node81</title>
<g id="a_node27"><a xlink:href="../../dc/d8e/kratos__components_8h.html" target="_top" xlink:title=" ">
<polygon fill="none" stroke="red" points="893.5,-425.5 893.5,-444.5 1058.5,-444.5 1058.5,-425.5 893.5,-425.5"/>
<text text-anchor="middle" x="976" y="-432.5" font-family="Helvetica,sans-Serif" font-size="10.00">includes/kratos_components.h</text>
</a>
</g>
</g>
<!-- Node63&#45;&gt;Node81 -->
<g id="edge76" class="edge">
<title>Node63&#45;&gt;Node81</title>
<path fill="none" stroke="midnightblue" d="M1494.27,-489.08C1391.91,-478.59 1188.46,-457.76 1069.17,-445.54"/>
<polygon fill="midnightblue" stroke="midnightblue" points="1069.27,-442.03 1058.96,-444.5 1068.55,-449 1069.27,-442.03"/>
</g>
<!-- Node64&#45;&gt;Node3 -->
<g id="edge67" class="edge">
<title>Node64&#45;&gt;Node3</title>
<path fill="none" stroke="midnightblue" d="M1203.41,-363.99C1098.35,-345.45 842.34,-299.48 629,-255 601.66,-249.3 402.36,-220.04 384,-199 345.26,-154.62 366.9,-118.22 396,-67 403.42,-53.95 414.74,-41.46 424.3,-32.17"/>
<polygon fill="midnightblue" stroke="midnightblue" points="426.87,-34.55 431.79,-25.17 422.09,-29.44 426.87,-34.55"/>
</g>
<!-- Node64&#45;&gt;Node4 -->
<g id="edge68" class="edge">
<title>Node64&#45;&gt;Node4</title>
<path fill="none" stroke="midnightblue" d="M1244.64,-363.91C1237.02,-354.4 1225.59,-338.24 1221,-322 1217.26,-308.74 1218.94,-304.62 1221,-291 1223,-277.79 1281.16,-94.52 1300.1,-35.01"/>
<polygon fill="midnightblue" stroke="midnightblue" points="1303.55,-35.72 1303.25,-25.13 1296.88,-33.59 1303.55,-35.72"/>
</g>
<!-- Node64&#45;&gt;Node6 -->
<g id="edge69" class="edge">
<title>Node64&#45;&gt;Node6</title>
<path fill="none" stroke="midnightblue" d="M1301.57,-363.94C1347.79,-355.37 1418.37,-340.77 1478,-322 1552.71,-298.49 1568.63,-284.95 1641,-255 1662.35,-246.16 1667.02,-242.15 1689,-235 1754.61,-213.66 1774.39,-220.34 1840,-199 1861.98,-191.85 1865.72,-185.14 1888,-179 1911.87,-172.42 2057.56,-152.77 2141.5,-141.73"/>
<polygon fill="midnightblue" stroke="midnightblue" points="2141.96,-145.2 2151.42,-140.43 2141.05,-138.26 2141.96,-145.2"/>
</g>
<!-- Node64&#45;&gt;Node79 -->
<g id="edge70" class="edge">
<title>Node64&#45;&gt;Node79</title>
<path fill="none" stroke="midnightblue" d="M1255.24,-363.73C1258.84,-353.99 1264.75,-337.98 1269.34,-325.53"/>
<polygon fill="midnightblue" stroke="midnightblue" points="1272.63,-326.72 1272.81,-316.13 1266.07,-324.3 1272.63,-326.72"/>
</g>
<!-- Node79&#45;&gt;Node3 -->
<g id="edge71" class="edge">
<title>Node79&#45;&gt;Node3</title>
<path fill="none" stroke="midnightblue" d="M1229.99,-301.39C1143.1,-293.5 948.95,-275.18 786,-255 775.22,-253.67 406.11,-207.21 399,-199 357.15,-150.65 404.85,-69.04 429.31,-33.69"/>
<polygon fill="midnightblue" stroke="midnightblue" points="432.28,-35.55 435.23,-25.37 426.57,-31.49 432.28,-35.55"/>
</g>
<!-- Node79&#45;&gt;Node4 -->
<g id="edge72" class="edge">
<title>Node79&#45;&gt;Node4</title>
<path fill="none" stroke="midnightblue" d="M1229.97,-301.59C1123.68,-292.34 869.29,-268.86 857,-255 822.2,-215.75 869.23,-215.7 925,-179 954.23,-159.77 967.02,-164 995,-143 1032.22,-115.07 1026.4,-89.73 1067,-67 1130.4,-31.51 1215.97,-20.91 1265.65,-17.77"/>
<polygon fill="midnightblue" stroke="midnightblue" points="1265.9,-21.26 1275.69,-17.21 1265.51,-14.27 1265.9,-21.26"/>
</g>
<!-- Node79&#45;&gt;Node6 -->
<g id="edge74" class="edge">
<title>Node79&#45;&gt;Node6</title>
<path fill="none" stroke="midnightblue" d="M1318.81,-296.93C1367.58,-287.1 1449.63,-270.36 1520,-255 1547.18,-249.07 1737.51,-207.49 1764,-199 1786.01,-191.95 1789.63,-184.8 1812,-179 1950.11,-143.21 1989.35,-160.1 2131,-143 2134.39,-142.59 2137.87,-142.16 2141.38,-141.73"/>
<polygon fill="midnightblue" stroke="midnightblue" points="2141.81,-145.2 2151.3,-140.49 2140.94,-138.26 2141.81,-145.2"/>
</g>
<!-- Node79&#45;&gt;Node61 -->
<g id="edge73" class="edge">
<title>Node79&#45;&gt;Node61</title>
<path fill="none" stroke="midnightblue" d="M1322.14,-300.58C1430.47,-289.03 1699.33,-260.36 1797.43,-249.9"/>
<polygon fill="midnightblue" stroke="midnightblue" points="1797.89,-253.37 1807.46,-248.83 1797.14,-246.41 1797.89,-253.37"/>
</g>
<!-- Node79&#45;&gt;Node46 -->
<g id="edge75" class="edge">
<title>Node79&#45;&gt;Node46</title>
<path fill="none" stroke="midnightblue" d="M1301.65,-296.98C1332.62,-286.68 1384.87,-269.31 1419.65,-257.75"/>
<polygon fill="midnightblue" stroke="midnightblue" points="1421.02,-260.98 1429.4,-254.51 1418.81,-254.34 1421.02,-260.98"/>
</g>
<!-- Node81&#45;&gt;Node3 -->
<g id="edge77" class="edge">
<title>Node81&#45;&gt;Node3</title>
<path fill="none" stroke="midnightblue" d="M961.69,-425.33C921.05,-400.49 801.92,-326.31 710,-255 609.63,-177.14 499.09,-71.96 458.28,-32.41"/>
<polygon fill="midnightblue" stroke="midnightblue" points="460.48,-29.67 450.87,-25.2 455.6,-34.68 460.48,-29.67"/>
</g>
<!-- Node81&#45;&gt;Node4 -->
<g id="edge78" class="edge">
<title>Node81&#45;&gt;Node4</title>
<path fill="none" stroke="midnightblue" d="M977.76,-425.26C980.85,-410.79 988.02,-381.17 999,-358 1014.36,-325.59 1023.32,-320.31 1044,-291 1119.78,-183.64 1137.61,-152.97 1237,-67 1252.2,-53.86 1270.61,-40.49 1284.59,-30.82"/>
<polygon fill="midnightblue" stroke="midnightblue" points="1286.78,-33.56 1293.06,-25.03 1282.83,-27.78 1286.78,-33.56"/>
</g>
<!-- Node81&#45;&gt;Node6 -->
<g id="edge79" class="edge">
<title>Node81&#45;&gt;Node6</title>
<path fill="none" stroke="midnightblue" d="M1058.72,-427.27C1128.84,-420.59 1231.78,-408.49 1320,-389 1416.9,-367.59 1440.25,-357.28 1533,-322 1564.42,-310.05 1570.74,-303.36 1602,-291 1673.23,-262.83 1691.88,-257.83 1765,-235 1852.7,-207.62 1874.56,-200.03 1964,-179 2023.95,-164.9 2093.22,-152.15 2141.33,-143.85"/>
<polygon fill="midnightblue" stroke="midnightblue" points="2141.99,-147.29 2151.26,-142.15 2140.81,-140.39 2141.99,-147.29"/>
</g>
<!-- Node81&#45;&gt;Node18 -->
<g id="edge80" class="edge">
<title>Node81&#45;&gt;Node18</title>
<path fill="none" stroke="midnightblue" d="M972.1,-425.24C968.32,-416.31 962.76,-401.98 960,-389 950.72,-345.31 949.05,-292.64 948.87,-265.02"/>
<polygon fill="midnightblue" stroke="midnightblue" points="952.37,-264.82 948.87,-254.82 945.37,-264.82 952.37,-264.82"/>
</g>
<!-- Node81&#45;&gt;Node42 -->
<g id="edge81" class="edge">
<title>Node81&#45;&gt;Node42</title>
<path fill="none" stroke="midnightblue" d="M980.53,-425.47C996.51,-395.97 1053.05,-296.74 1122,-235 1134.97,-223.39 1151.09,-212.34 1164.15,-204.1"/>
<polygon fill="midnightblue" stroke="midnightblue" points="1166.36,-206.85 1173.03,-198.63 1162.68,-200.89 1166.36,-206.85"/>
</g>
<!-- Node81&#45;&gt;Node64 -->
<g id="edge82" class="edge">
<title>Node81&#45;&gt;Node64</title>
<path fill="none" stroke="midnightblue" d="M1015.54,-425.48C1064.83,-414.85 1149.09,-396.68 1202.59,-385.15"/>
<polygon fill="midnightblue" stroke="midnightblue" points="1203.49,-388.54 1212.53,-383.01 1202.02,-381.7 1203.49,-388.54"/>
</g>
<!-- Node84&#45;&gt;Node3 -->
<g id="edge87" class="edge">
<title>Node84&#45;&gt;Node3</title>
<path fill="none" stroke="midnightblue" d="M1861.57,-677.34C1736.11,-670.31 1402.64,-650.71 1293,-635 1035.6,-598.12 969.01,-590.16 721,-512 507.37,-444.67 401.31,-409.95 326,-199 306.27,-143.73 291.3,-111.97 329,-67 349.51,-42.54 384.26,-29.47 409.82,-22.8"/>
<polygon fill="midnightblue" stroke="midnightblue" points="410.9,-26.14 419.8,-20.39 409.26,-19.33 410.9,-26.14"/>
</g>
<!-- Node84&#45;&gt;Node4 -->
<g id="edge88" class="edge">
<title>Node84&#45;&gt;Node4</title>
<path fill="none" stroke="midnightblue" d="M1914.3,-671.22C1918.53,-662.29 1924.94,-647.95 1929,-635 1947.68,-575.4 1958,-559.96 1958,-497.5 1958,-497.5 1958,-497.5 1958,-372.5 1958,-299.7 1931.27,-272.71 1869,-235 1721.24,-145.51 1635.4,-278.43 1482,-199 1413.42,-163.49 1424.48,-120.72 1369,-67 1355.58,-54.01 1339.06,-40.86 1326.31,-31.24"/>
<polygon fill="midnightblue" stroke="midnightblue" points="1328.28,-28.34 1318.16,-25.18 1324.1,-33.96 1328.28,-28.34"/>
</g>
<!-- Node84&#45;&gt;Node6 -->
<g id="edge91" class="edge">
<title>Node84&#45;&gt;Node6</title>
<path fill="none" stroke="midnightblue" d="M1930.7,-671.4C1947.23,-663.75 1970.15,-651.24 1986,-635 2097.29,-520.91 2094.06,-466.64 2161,-322 2174.35,-293.16 2178.44,-285.87 2186,-255 2194.7,-219.49 2198.49,-176.81 2200.03,-152.8"/>
<polygon fill="midnightblue" stroke="midnightblue" points="2203.54,-152.82 2200.62,-142.63 2196.55,-152.41 2203.54,-152.82"/>
</g>
<!-- Node84&#45;&gt;Node8 -->
<g id="edge89" class="edge">
<title>Node84&#45;&gt;Node8</title>
<path fill="none" stroke="midnightblue" d="M1953.53,-671.47C2115.76,-638.88 2682.3,-517.52 2807,-389 2910.31,-282.52 2971.14,-194.33 2895,-67 2882.83,-46.64 2859.31,-34.01 2838.85,-26.48"/>
<polygon fill="midnightblue" stroke="midnightblue" points="2839.71,-23.07 2829.11,-23.18 2837.46,-29.7 2839.71,-23.07"/>
</g>
<!-- Node84&#45;&gt;Node42 -->
<g id="edge98" class="edge">
<title>Node84&#45;&gt;Node42</title>
<path fill="none" stroke="midnightblue" d="M1861.9,-676.6C1742.97,-668.08 1441.49,-645.73 1397,-635 1320.06,-616.45 1298.71,-610.6 1232,-568 1168.59,-527.5 1126,-511.24 1126,-436 1126,-436 1126,-436 1126,-372.5 1126,-339.24 1163.38,-247.6 1180.09,-208.29"/>
<polygon fill="midnightblue" stroke="midnightblue" points="1183.4,-209.46 1184.12,-198.89 1176.97,-206.7 1183.4,-209.46"/>
</g>
<!-- Node84&#45;&gt;Node61 -->
<g id="edge90" class="edge">
<title>Node84&#45;&gt;Node61</title>
<path fill="none" stroke="midnightblue" d="M1910.82,-671.27C1913.21,-645.02 1920,-564.45 1920,-497.5 1920,-497.5 1920,-497.5 1920,-434 1920,-365.4 1872.06,-294.44 1847.77,-262.88"/>
<polygon fill="midnightblue" stroke="midnightblue" points="1850.27,-260.41 1841.33,-254.73 1844.78,-264.75 1850.27,-260.41"/>
</g>
<!-- Node84&#45;&gt;Node63 -->
<g id="edge99" class="edge">
<title>Node84&#45;&gt;Node63</title>
<path fill="none" stroke="midnightblue" d="M1895.76,-671.49C1859.2,-649.78 1758.79,-591.01 1672,-548 1648.77,-536.49 1622.31,-524.78 1600.63,-515.53"/>
<polygon fill="midnightblue" stroke="midnightblue" points="1601.92,-512.28 1591.35,-511.6 1599.19,-518.72 1601.92,-512.28"/>
</g>
<!-- Node84&#45;&gt;Node88 -->
<g id="edge92" class="edge">
<title>Node84&#45;&gt;Node88</title>
<path fill="none" stroke="midnightblue" d="M1923.72,-671.18C1935.37,-663.05 1951.79,-650 1962,-635 2030.48,-534.38 2062.49,-388.66 2072.95,-331.65"/>
<polygon fill="midnightblue" stroke="midnightblue" points="2076.4,-332.23 2074.7,-321.77 2069.51,-331 2076.4,-332.23"/>
</g>
<!-- Node84&#45;&gt;Node100 -->
<g id="edge100" class="edge">
<title>Node84&#45;&gt;Node100</title>
<path fill="none" stroke="midnightblue" d="M1861.97,-673.52C1784.83,-663.11 1632.82,-642.6 1542.14,-630.37"/>
<polygon fill="midnightblue" stroke="midnightblue" points="1542.58,-626.9 1532.2,-629.03 1541.65,-633.83 1542.58,-626.9"/>
</g>
<!-- Node88&#45;&gt;Node3 -->
<g id="edge93" class="edge">
<title>Node88&#45;&gt;Node3</title>
<path fill="none" stroke="midnightblue" d="M2024.2,-304.14C1797.18,-298.17 913.02,-273.81 857,-255 718.03,-208.34 716.57,-133.64 586,-67 549.27,-48.26 503.97,-33.64 474.1,-25.05"/>
<polygon fill="midnightblue" stroke="midnightblue" points="474.79,-21.61 464.22,-22.27 472.9,-28.35 474.79,-21.61"/>
</g>
<!-- Node88&#45;&gt;Node4 -->
<g id="edge94" class="edge">
<title>Node88&#45;&gt;Node4</title>
<path fill="none" stroke="midnightblue" d="M2062.9,-291.39C2046.72,-275.84 2018.81,-250.92 1991,-235 1803.55,-127.71 1742.27,-127.73 1535,-67 1469.8,-47.9 1392.29,-32.24 1346.23,-23.65"/>
<polygon fill="midnightblue" stroke="midnightblue" points="1346.81,-20.2 1336.34,-21.83 1345.54,-27.09 1346.81,-20.2"/>
</g>
<!-- Node88&#45;&gt;Node6 -->
<g id="edge97" class="edge">
<title>Node88&#45;&gt;Node6</title>
<path fill="none" stroke="midnightblue" d="M2084,-291.44C2096.39,-267.24 2123.72,-216.68 2154,-179 2162.65,-168.24 2173.75,-157.5 2182.99,-149.21"/>
<polygon fill="midnightblue" stroke="midnightblue" points="2185.3,-151.84 2190.53,-142.62 2180.69,-146.57 2185.3,-151.84"/>
</g>
<!-- Node88&#45;&gt;Node8 -->
<g id="edge95" class="edge">
<title>Node88&#45;&gt;Node8</title>
<path fill="none" stroke="midnightblue" d="M2112.41,-291.37C2236.82,-241.7 2652.71,-75.69 2769.98,-28.88"/>
<polygon fill="midnightblue" stroke="midnightblue" points="2771.47,-32.06 2779.46,-25.1 2768.87,-25.56 2771.47,-32.06"/>
</g>
<!-- Node88&#45;&gt;Node61 -->
<g id="edge96" class="edge">
<title>Node88&#45;&gt;Node61</title>
<path fill="none" stroke="midnightblue" d="M2024.27,-292.59C1977.82,-281.21 1911.37,-264.94 1870.54,-254.95"/>
<polygon fill="midnightblue" stroke="midnightblue" points="1871.28,-251.53 1860.74,-252.55 1869.62,-258.33 1871.28,-251.53"/>
</g>
<!-- Node100&#45;&gt;Node6 -->
<g id="edge101" class="edge">
<title>Node100&#45;&gt;Node6</title>
<path fill="none" stroke="midnightblue" d="M1532.14,-609.13C1665.18,-585.96 1975.45,-513.34 2138,-322 2160.4,-295.63 2186.47,-194.74 2196.63,-152.63"/>
<polygon fill="midnightblue" stroke="midnightblue" points="2200.05,-153.38 2198.96,-142.85 2193.24,-151.76 2200.05,-153.38"/>
</g>
<!-- Node100&#45;&gt;Node42 -->
<g id="edge102" class="edge">
<title>Node100&#45;&gt;Node42</title>
<path fill="none" stroke="midnightblue" d="M1405.8,-609.44C1316.47,-592.67 1164,-547.69 1164,-436 1164,-436 1164,-436 1164,-372.5 1164,-319.2 1182.64,-308.03 1188,-255 1189.56,-239.54 1189.44,-221.91 1189,-208.92"/>
<polygon fill="midnightblue" stroke="midnightblue" points="1192.5,-208.7 1188.56,-198.86 1185.5,-209 1192.5,-208.7"/>
</g>
<!-- Node100&#45;&gt;Node62 -->
<g id="edge104" class="edge">
<title>Node100&#45;&gt;Node62</title>
<path fill="none" stroke="midnightblue" d="M1499.57,-604.4C1520.93,-594.55 1549.22,-581.5 1569.98,-571.92"/>
<polygon fill="midnightblue" stroke="midnightblue" points="1571.61,-575.02 1579.23,-567.66 1568.68,-568.67 1571.61,-575.02"/>
</g>
<!-- Node100&#45;&gt;Node64 -->
<g id="edge103" class="edge">
<title>Node100&#45;&gt;Node64</title>
<path fill="none" stroke="midnightblue" d="M1456.4,-604.33C1418.66,-561.9 1306.75,-436.06 1266.57,-390.88"/>
<polygon fill="midnightblue" stroke="midnightblue" points="1268.99,-388.34 1259.73,-383.2 1263.76,-392.99 1268.99,-388.34"/>
</g>
<!-- Node111&#45;&gt;Node6 -->
<g id="edge106" class="edge">
<title>Node111&#45;&gt;Node6</title>
<path fill="none" stroke="midnightblue" d="M2747.01,-358.33C2765.83,-322.92 2807.89,-229.81 2761,-179 2744.22,-160.82 2402.19,-143.19 2261.07,-136.66"/>
<polygon fill="midnightblue" stroke="midnightblue" points="2261.02,-133.15 2250.87,-136.19 2260.69,-140.14 2261.02,-133.15"/>
</g>
<!-- Node112&#45;&gt;Node62 -->
<g id="edge108" class="edge">
<title>Node112&#45;&gt;Node62</title>
<path fill="none" stroke="midnightblue" d="M1557.53,-671.18C1562.04,-662.22 1569,-647.85 1574,-635 1581.51,-615.7 1588.44,-592.99 1592.91,-577.45"/>
<polygon fill="midnightblue" stroke="midnightblue" points="1596.35,-578.13 1595.69,-567.56 1589.61,-576.24 1596.35,-578.13"/>
</g>
<!-- Node130&#45;&gt;Node62 -->
<g id="edge110" class="edge">
<title>Node130&#45;&gt;Node62</title>
<path fill="none" stroke="midnightblue" d="M1676.89,-671.3C1662.92,-651.41 1628.45,-602.35 1610.05,-576.15"/>
<polygon fill="midnightblue" stroke="midnightblue" points="1612.67,-573.79 1604.06,-567.62 1606.94,-577.82 1612.67,-573.79"/>
</g>
<!-- Node131&#45;&gt;Node3 -->
<g id="edge112" class="edge">
<title>Node131&#45;&gt;Node3</title>
<path fill="none" stroke="midnightblue" d="M1745.32,-736.91C1557.75,-722.72 1028.82,-670.48 622,-512 520.86,-472.6 488.45,-465.05 411,-389 343.49,-322.71 343.07,-289.35 315,-199 297.59,-142.96 274.72,-112.31 312,-67 336.22,-37.56 379.82,-25.23 409.8,-20.1"/>
<polygon fill="midnightblue" stroke="midnightblue" points="410.43,-23.55 419.78,-18.57 409.37,-16.63 410.43,-23.55"/>
</g>
<!-- Node131&#45;&gt;Node4 -->
<g id="edge113" class="edge">
<title>Node131&#45;&gt;Node4</title>
<path fill="none" stroke="midnightblue" d="M1877.3,-732.99C1907.48,-726.07 1942.42,-713.57 1967,-691 2030.8,-632.43 2026.53,-596.82 2044,-512 2063.03,-419.59 1967.84,-303.27 1959,-291 1841.19,-127.5 1695.83,-287.96 1515,-199 1443.05,-163.6 1454.56,-117.16 1392,-67 1373.76,-52.38 1350.84,-39.13 1333.25,-29.88"/>
<polygon fill="midnightblue" stroke="midnightblue" points="1334.59,-26.63 1324.09,-25.17 1331.38,-32.86 1334.59,-26.63"/>
</g>
<!-- Node131&#45;&gt;Node6 -->
<g id="edge116" class="edge">
<title>Node131&#45;&gt;Node6</title>
<path fill="none" stroke="midnightblue" d="M1884.8,-733.25C1965.07,-723.15 2087.92,-705.59 2104,-691 2251.14,-557.45 2172.95,-451.42 2203,-255 2208.14,-221.43 2214.71,-212.76 2211,-179 2210.03,-170.14 2208.01,-160.47 2206.04,-152.38"/>
<polygon fill="midnightblue" stroke="midnightblue" points="2209.38,-151.33 2203.48,-142.53 2202.61,-153.09 2209.38,-151.33"/>
</g>
<!-- Node131&#45;&gt;Node8 -->
<g id="edge114" class="edge">
<title>Node131&#45;&gt;Node8</title>
<path fill="none" stroke="midnightblue" d="M1884.57,-736.71C2052.78,-724.41 2477.22,-688.85 2608,-635 2667.26,-610.6 2669.62,-583.47 2723,-548 2945.92,-399.87 3244,-513.64 3244,-246 3244,-246 3244,-246 3244,-132 3244,-48.64 2946.57,-24.34 2839.13,-18.28"/>
<polygon fill="midnightblue" stroke="midnightblue" points="2839.22,-14.78 2829.05,-17.74 2838.84,-21.77 2839.22,-14.78"/>
</g>
<!-- Node131&#45;&gt;Node61 -->
<g id="edge115" class="edge">
<title>Node131&#45;&gt;Node61</title>
<path fill="none" stroke="midnightblue" d="M1813.9,-732.71C1811.49,-712.78 1806,-662.63 1806,-620.5 1806,-620.5 1806,-620.5 1806,-495.5 1806,-408.64 1822.96,-305.84 1830.48,-264.53"/>
<polygon fill="midnightblue" stroke="midnightblue" points="1833.95,-265.05 1832.33,-254.58 1827.07,-263.77 1833.95,-265.05"/>
</g>
<!-- Node131&#45;&gt;Node84 -->
<g id="edge119" class="edge">
<title>Node131&#45;&gt;Node84</title>
<path fill="none" stroke="midnightblue" d="M1828.61,-732.98C1844.06,-723.3 1869.49,-707.37 1887.82,-695.89"/>
<polygon fill="midnightblue" stroke="midnightblue" points="1889.8,-698.78 1896.41,-690.51 1886.08,-692.85 1889.8,-698.78"/>
</g>
<!-- Node131&#45;&gt;Node112 -->
<g id="edge118" class="edge">
<title>Node131&#45;&gt;Node112</title>
<path fill="none" stroke="midnightblue" d="M1777.46,-732.98C1730.77,-722.37 1651.02,-704.26 1600.22,-692.72"/>
<polygon fill="midnightblue" stroke="midnightblue" points="1601,-689.31 1590.47,-690.51 1599.45,-696.14 1601,-689.31"/>
</g>
<!-- Node131&#45;&gt;Node130 -->
<g id="edge117" class="edge">
<title>Node131&#45;&gt;Node130</title>
<path fill="none" stroke="midnightblue" d="M1796.09,-732.98C1773.84,-722.95 1736.69,-706.2 1711.07,-694.65"/>
<polygon fill="midnightblue" stroke="midnightblue" points="1712.43,-691.43 1701.88,-690.51 1709.56,-697.81 1712.43,-691.43"/>
</g>
<!-- Node115&#45;&gt;Node3 -->
<g id="edge121" class="edge">
<title>Node115&#45;&gt;Node3</title>
<path fill="none" stroke="midnightblue" d="M682.1,-425.43C655.7,-418.6 621.84,-407.12 596,-389 523.59,-338.23 542.45,-285.71 470,-235 430.27,-207.19 397.47,-236.72 367,-199 329.9,-153.07 347.56,-114.96 382,-67 392.22,-52.76 407.34,-40.07 419.84,-30.97"/>
<polygon fill="midnightblue" stroke="midnightblue" points="422.18,-33.61 428.38,-25.01 418.17,-27.87 422.18,-33.61"/>
</g>
<!-- Node115&#45;&gt;Node4 -->
<g id="edge122" class="edge">
<title>Node115&#45;&gt;Node4</title>
<path fill="none" stroke="midnightblue" d="M720.67,-425.02C707.79,-388.62 665.26,-250.61 732,-179 810.88,-94.36 856.34,-100.78 967,-67 1071.85,-34.99 1201.37,-22.9 1265.74,-18.63"/>
<polygon fill="midnightblue" stroke="midnightblue" points="1266.11,-22.12 1275.87,-17.99 1265.67,-15.13 1266.11,-22.12"/>
</g>
<!-- Node115&#45;&gt;Node6 -->
<g id="edge124" class="edge">
<title>Node115&#45;&gt;Node6</title>
<path fill="none" stroke="midnightblue" d="M771.1,-426.65C873.5,-410.38 1123.82,-369.02 1331,-322 1442.34,-296.73 1469.53,-287.42 1579,-255 1606.76,-246.78 1613.06,-242.61 1641,-235 1711.74,-215.72 1733.18,-224.3 1802,-199 1819.91,-192.42 1821.79,-184.71 1840,-179 1964.35,-140.02 2001.71,-159.31 2131,-143 2134.38,-142.57 2137.86,-142.13 2141.37,-141.69"/>
<polygon fill="midnightblue" stroke="midnightblue" points="2141.81,-145.16 2151.29,-140.42 2140.93,-138.21 2141.81,-145.16"/>
</g>
<!-- Node115&#45;&gt;Node51 -->
<g id="edge123" class="edge">
<title>Node115&#45;&gt;Node51</title>
<path fill="none" stroke="midnightblue" d="M721.64,-425.19C712.63,-389.44 684.05,-253.62 748,-179 762.24,-162.38 812.41,-150.65 855.87,-143.33"/>
<polygon fill="midnightblue" stroke="midnightblue" points="856.58,-146.77 865.88,-141.71 855.45,-139.86 856.58,-146.77"/>
</g>
<!-- Node115&#45;&gt;Node64 -->
<g id="edge125" class="edge">
<title>Node115&#45;&gt;Node64</title>
<path fill="none" stroke="midnightblue" d="M771.32,-428.67C864.62,-418.15 1072.72,-394.7 1181.97,-382.39"/>
<polygon fill="midnightblue" stroke="midnightblue" points="1182.68,-385.83 1192.22,-381.24 1181.89,-378.88 1182.68,-385.83"/>
</g>
<!-- Node132&#45;&gt;Node5 -->
<g id="edge129" class="edge">
<title>Node132&#45;&gt;Node5</title>
<path fill="none" stroke="midnightblue" d="M2572.17,-291.34C2558.96,-270.15 2534.09,-230.24 2519.81,-207.34"/>
<polygon fill="midnightblue" stroke="midnightblue" points="2522.66,-205.3 2514.4,-198.67 2516.72,-209.01 2522.66,-205.3"/>
</g>
<!-- Node132&#45;&gt;Node6 -->
<g id="edge130" class="edge">
<title>Node132&#45;&gt;Node6</title>
<path fill="none" stroke="midnightblue" d="M2593.23,-291.37C2617.63,-262.39 2668.65,-197.39 2652,-179 2626.24,-150.54 2377.77,-139.32 2261.03,-135.6"/>
<polygon fill="midnightblue" stroke="midnightblue" points="2260.94,-132.09 2250.83,-135.28 2260.72,-139.09 2260.94,-132.09"/>
</g>
<!-- Node132&#45;&gt;Node19 -->
<g id="edge128" class="edge">
<title>Node132&#45;&gt;Node19</title>
<path fill="none" stroke="midnightblue" d="M2584.31,-291.34C2589.18,-270.53 2598.26,-231.66 2603.66,-208.58"/>
<polygon fill="midnightblue" stroke="midnightblue" points="2607.11,-209.2 2605.97,-198.67 2600.29,-207.61 2607.11,-209.2"/>
</g>
<!-- Node132&#45;&gt;Node46 -->
<g id="edge131" class="edge">
<title>Node132&#45;&gt;Node46</title>
<path fill="none" stroke="midnightblue" d="M2528.2,-302.71C2343.49,-292.95 1726.43,-260.34 1521.67,-249.52"/>
<polygon fill="midnightblue" stroke="midnightblue" points="1521.83,-246.03 1511.66,-248.99 1521.46,-253.02 1521.83,-246.03"/>
</g>
<!-- Node110&#45;&gt;Node6 -->
<g id="edge134" class="edge">
<title>Node110&#45;&gt;Node6</title>
<path fill="none" stroke="midnightblue" d="M1064.9,-486.92C1127.25,-469.48 1272.45,-428.22 1393,-389 1477.75,-361.43 1498.65,-353.54 1582,-322 1585.02,-320.86 1794.91,-235.97 1798,-235 1865.87,-213.64 1884.92,-216.06 1954,-199 2026.74,-181.04 2111.07,-158.47 2160,-145.2"/>
<polygon fill="midnightblue" stroke="midnightblue" points="2161.15,-148.51 2169.88,-142.51 2159.32,-141.76 2161.15,-148.51"/>
</g>
<!-- Node110&#45;&gt;Node42 -->
<g id="edge135" class="edge">
<title>Node110&#45;&gt;Node42</title>
<path fill="none" stroke="midnightblue" d="M1040.94,-486.67C1048.29,-476.94 1059.82,-460.6 1067,-445 1096.83,-380.23 1080.04,-354.75 1112,-291 1128.45,-258.19 1155.84,-225.14 1172.86,-206.17"/>
<polygon fill="midnightblue" stroke="midnightblue" points="1175.51,-208.46 1179.67,-198.72 1170.34,-203.74 1175.51,-208.46"/>
</g>
<!-- Node110&#45;&gt;Node81 -->
<g id="edge136" class="edge">
<title>Node110&#45;&gt;Node81</title>
<path fill="none" stroke="midnightblue" d="M1025.69,-486.98C1016.82,-477.87 1002.55,-463.24 991.58,-451.98"/>
<polygon fill="midnightblue" stroke="midnightblue" points="993.78,-449.23 984.29,-444.51 988.77,-454.11 993.78,-449.23"/>
</g>
<!-- Node134&#45;&gt;Node60 -->
<g id="edge141" class="edge">
<title>Node134&#45;&gt;Node60</title>
<path fill="none" stroke="midnightblue" d="M2406.21,-871.87C2267.29,-861.08 1856.54,-829.18 1688.7,-816.15"/>
<polygon fill="midnightblue" stroke="midnightblue" points="1688.96,-812.66 1678.72,-815.37 1688.42,-819.63 1688.96,-812.66"/>
</g>
<!-- Node68 -->
<g id="node39" class="node">
<title>Node68</title>
<g id="a_node39"><a xlink:href="../../de/d07/parallel__utilities_8h.html" target="_top" xlink:title=" ">
<polygon fill="none" stroke="red" points="2783.5,-727.5 2783.5,-757.5 2876.5,-757.5 2876.5,-727.5 2783.5,-727.5"/>
<text text-anchor="start" x="2791.5" y="-745.5" font-family="Helvetica,sans-Serif" font-size="10.00">utilities/parallel</text>
<text text-anchor="middle" x="2830" y="-734.5" font-family="Helvetica,sans-Serif" font-size="10.00">_utilities.h</text>
</a>
</g>
</g>
<!-- Node134&#45;&gt;Node68 -->
<g id="edge142" class="edge">
<title>Node134&#45;&gt;Node68</title>
<path fill="none" stroke="midnightblue" d="M2492.99,-861.5C2562.27,-837.24 2704.44,-787.46 2780.08,-760.98"/>
<polygon fill="midnightblue" stroke="midnightblue" points="2781.57,-764.16 2789.85,-757.56 2779.26,-757.56 2781.57,-764.16"/>
</g>
<!-- Node78 -->
<g id="node42" class="node">
<title>Node78</title>
<g id="a_node42"><a xlink:href="../../d9/d9f/string__utilities_8h.html" target="_top" xlink:title=" ">
<polygon fill="none" stroke="red" points="408.5,-179.5 408.5,-198.5 543.5,-198.5 543.5,-179.5 408.5,-179.5"/>
<text text-anchor="middle" x="476" y="-186.5" font-family="Helvetica,sans-Serif" font-size="10.00">utilities/string_utilities.h</text>
</a>
</g>
</g>
<!-- Node134&#45;&gt;Node78 -->
<g id="edge148" class="edge">
<title>Node134&#45;&gt;Node78</title>
<path fill="none" stroke="midnightblue" d="M2406.22,-874.65C2137.09,-869.71 794.99,-844.19 710,-825 509.05,-779.63 382,-703.5 382,-497.5 382,-497.5 382,-497.5 382,-434 382,-343.61 438.87,-246.21 464.14,-207.39"/>
<polygon fill="midnightblue" stroke="midnightblue" points="467.21,-209.09 469.83,-198.83 461.38,-205.22 467.21,-209.09"/>
</g>
<!-- Node68&#45;&gt;Node4 -->
<g id="edge143" class="edge">
<title>Node68&#45;&gt;Node4</title>
<path fill="none" stroke="midnightblue" d="M2841.92,-727.22C2887.58,-671.43 3051.61,-461.09 3106,-255 3115.64,-218.49 3100.01,-199.04 3068,-179 2921.07,-87.02 2468.53,-83.88 2296,-67 1928.28,-31.03 1481.07,-19.87 1346.3,-17.21"/>
<polygon fill="midnightblue" stroke="midnightblue" points="1346.11,-13.71 1336.04,-17.01 1345.98,-20.7 1346.11,-13.71"/>
</g>
<!-- Node68&#45;&gt;Node6 -->
<g id="edge146" class="edge">
<title>Node68&#45;&gt;Node6</title>
<path fill="none" stroke="midnightblue" d="M2876.63,-736.36C2905.57,-730.49 2940.63,-717.92 2959,-691 3025.86,-593.02 2909.55,-240.3 2808,-179 2784.82,-165.01 2409.69,-144.58 2261.01,-136.99"/>
<polygon fill="midnightblue" stroke="midnightblue" points="2260.87,-133.47 2250.7,-136.46 2260.51,-140.46 2260.87,-133.47"/>
</g>
<!-- Node68&#45;&gt;Node21 -->
<g id="edge144" class="edge">
<title>Node68&#45;&gt;Node21</title>
<path fill="none" stroke="midnightblue" d="M2834.81,-727.38C2846.79,-691.96 2877.32,-599.89 2882,-568 2883.29,-559.21 2883.49,-556.76 2882,-548 2849.66,-357.48 2829.8,-254.71 2652,-179 2547.47,-134.49 2254.45,-159.22 2142,-143 2138.75,-142.53 2135.38,-141.95 2132.03,-141.31"/>
<polygon fill="midnightblue" stroke="midnightblue" points="2132.67,-137.87 2122.17,-139.26 2131.25,-144.72 2132.67,-137.87"/>
</g>
<!-- Node69 -->
<g id="node40" class="node">
<title>Node69</title>
<g id="a_node40"><a xlink:title=" ">
<polygon fill="none" stroke="#bfbfbf" points="2896.5,-671.5 2896.5,-690.5 2949.5,-690.5 2949.5,-671.5 2896.5,-671.5"/>
<text text-anchor="middle" x="2923" y="-678.5" font-family="Helvetica,sans-Serif" font-size="10.00">iterator</text>
</a>
</g>
</g>
<!-- Node68&#45;&gt;Node69 -->
<g id="edge145" class="edge">
<title>Node68&#45;&gt;Node69</title>
<path fill="none" stroke="midnightblue" d="M2852.04,-727.4C2866.81,-717.95 2886.18,-705.56 2900.95,-696.11"/>
<polygon fill="midnightblue" stroke="midnightblue" points="2902.93,-699 2909.47,-690.66 2899.16,-693.1 2902.93,-699"/>
</g>
<!-- Node76 -->
<g id="node41" class="node">
<title>Node76</title>
<g id="a_node41"><a xlink:href="../../d5/dfb/global__variables_8h.html" target="_top" xlink:title=" ">
<polygon fill="none" stroke="black" points="2653.5,-671.5 2653.5,-690.5 2802.5,-690.5 2802.5,-671.5 2653.5,-671.5"/>
<text text-anchor="middle" x="2728" y="-678.5" font-family="Helvetica,sans-Serif" font-size="10.00">includes/global_variables.h</text>
</a>
</g>
</g>
<!-- Node68&#45;&gt;Node76 -->
<g id="edge147" class="edge">
<title>Node68&#45;&gt;Node76</title>
<path fill="none" stroke="midnightblue" d="M2805.83,-727.4C2789.48,-717.86 2767.99,-705.32 2751.73,-695.84"/>
<polygon fill="midnightblue" stroke="midnightblue" points="2753.24,-692.67 2742.84,-690.66 2749.72,-698.72 2753.24,-692.67"/>
</g>
<!-- Node78&#45;&gt;Node3 -->
<g id="edge149" class="edge">
<title>Node78&#45;&gt;Node3</title>
<path fill="none" stroke="midnightblue" d="M474.27,-179.26C468.97,-152.54 452.91,-71.52 445.64,-34.86"/>
<polygon fill="midnightblue" stroke="midnightblue" points="449.07,-34.15 443.69,-25.02 442.2,-35.51 449.07,-34.15"/>
</g>
<!-- Node78&#45;&gt;Node6 -->
<g id="edge150" class="edge">
<title>Node78&#45;&gt;Node6</title>
<path fill="none" stroke="midnightblue" d="M543.94,-186.56C835.26,-180.32 1971.33,-155.4 2131,-143 2134.3,-142.74 2137.68,-142.44 2141.09,-142.11"/>
<polygon fill="midnightblue" stroke="midnightblue" points="2141.78,-145.55 2151.35,-141.01 2141.04,-138.59 2141.78,-145.55"/>
</g>
<!-- Node135&#45;&gt;Node6 -->
<g id="edge153" class="edge">
<title>Node135&#45;&gt;Node6</title>
<path fill="none" stroke="midnightblue" d="M2742.08,-872.08C2828.61,-865.4 3006.9,-849.15 3064,-825 3118.08,-802.12 3168,-802.22 3168,-743.5 3168,-743.5 3168,-743.5 3168,-618.5 3168,-502.82 2993.71,-228.18 2889,-179 2860.79,-165.75 2422.98,-144.27 2260.82,-136.72"/>
<polygon fill="midnightblue" stroke="midnightblue" points="2260.69,-133.22 2250.54,-136.25 2260.37,-140.21 2260.69,-133.22"/>
</g>
<!-- Node135&#45;&gt;Node19 -->
<g id="edge152" class="edge">
<title>Node135&#45;&gt;Node19</title>
<path fill="none" stroke="midnightblue" d="M2675.81,-861.41C2665.06,-852.16 2652.01,-839.18 2644,-825 2628.88,-798.26 2630.81,-788.48 2627,-758 2614.99,-661.79 2641.09,-418.94 2643,-322 2643.27,-308.22 2645.29,-304.59 2643,-291 2637.93,-260.91 2624.93,-227.8 2616.28,-207.97"/>
<polygon fill="midnightblue" stroke="midnightblue" points="2619.39,-206.35 2612.11,-198.66 2613.01,-209.21 2619.39,-206.35"/>
</g>
<!-- Node135&#45;&gt;Node60 -->
<g id="edge154" class="edge">
<title>Node135&#45;&gt;Node60</title>
<path fill="none" stroke="midnightblue" d="M2645.94,-862.55C2642.92,-861.97 2639.93,-861.44 2637,-861 2453.83,-833.45 1890.52,-817.25 1688.8,-812.21"/>
<polygon fill="midnightblue" stroke="midnightblue" points="1688.69,-808.71 1678.61,-811.96 1688.52,-815.71 1688.69,-808.71"/>
</g>
<!-- Node135&#45;&gt;Node68 -->
<g id="edge158" class="edge">
<title>Node135&#45;&gt;Node68</title>
<path fill="none" stroke="midnightblue" d="M2708.55,-861.37C2732.48,-838.15 2780.26,-791.78 2808.22,-764.64"/>
<polygon fill="midnightblue" stroke="midnightblue" points="2810.81,-767 2815.55,-757.52 2805.94,-761.98 2810.81,-767"/>
</g>
<!-- Node135&#45;&gt;Node76 -->
<g id="edge157" class="edge">
<title>Node135&#45;&gt;Node76</title>
<path fill="none" stroke="midnightblue" d="M2696.5,-861.27C2702.53,-826.94 2717.89,-739.57 2724.68,-700.9"/>
<polygon fill="midnightblue" stroke="midnightblue" points="2728.21,-701.03 2726.49,-690.58 2721.32,-699.82 2728.21,-701.03"/>
</g>
<!-- Node136 -->
<g id="node44" class="node">
<title>Node136</title>
<g id="a_node44"><a xlink:href="../../d5/d16/checks_8h.html" target="_top" xlink:title=" ">
<polygon fill="none" stroke="red" points="2495.5,-610 2495.5,-629 2598.5,-629 2598.5,-610 2495.5,-610"/>
<text text-anchor="middle" x="2547" y="-617" font-family="Helvetica,sans-Serif" font-size="10.00">includes/checks.h</text>
</a>
</g>
</g>
<!-- Node135&#45;&gt;Node136 -->
<g id="edge155" class="edge">
<title>Node135&#45;&gt;Node136</title>
<path fill="none" stroke="midnightblue" d="M2649.82,-861.42C2620.14,-851.14 2584.6,-836.98 2574,-825 2527.28,-772.2 2528.45,-741.09 2536,-671 2537.15,-660.36 2539.61,-648.66 2541.92,-639.21"/>
<polygon fill="midnightblue" stroke="midnightblue" points="2545.36,-639.9 2544.47,-629.34 2538.58,-638.15 2545.36,-639.9"/>
</g>
<!-- Node137 -->
<g id="node45" class="node">
<title>Node137</title>
<g id="a_node45"><a xlink:href="../../da/d3c/atomic__utilities_8h.html" target="_top" xlink:title=" ">
<polygon fill="none" stroke="red" points="2731.5,-548.5 2731.5,-567.5 2872.5,-567.5 2872.5,-548.5 2731.5,-548.5"/>
<text text-anchor="middle" x="2802" y="-555.5" font-family="Helvetica,sans-Serif" font-size="10.00">utilities/atomic_utilities.h</text>
</a>
</g>
</g>
<!-- Node135&#45;&gt;Node137 -->
<g id="edge159" class="edge">
<title>Node135&#45;&gt;Node137</title>
<path fill="none" stroke="midnightblue" d="M2683.91,-861.46C2660.21,-826.6 2605.85,-734.35 2645,-671 2663.81,-640.57 2687.4,-655.1 2717,-635 2743.46,-617.03 2770.37,-591.47 2786.63,-575.06"/>
<polygon fill="midnightblue" stroke="midnightblue" points="2789.23,-577.41 2793.71,-567.81 2784.22,-572.52 2789.23,-577.41"/>
</g>
<!-- Node138 -->
<g id="node46" class="node">
<title>Node138</title>
<g id="a_node46"><a xlink:href="../../d6/d05/reduction__utilities_8h.html" target="_top" xlink:title=" ">
<polygon fill="none" stroke="red" points="2836,-794.5 2836,-824.5 2938,-824.5 2938,-794.5 2836,-794.5"/>
<text text-anchor="start" x="2844" y="-812.5" font-family="Helvetica,sans-Serif" font-size="10.00">utilities/reduction</text>
<text text-anchor="middle" x="2887" y="-801.5" font-family="Helvetica,sans-Serif" font-size="10.00">_utilities.h</text>
</a>
</g>
</g>
<!-- Node135&#45;&gt;Node138 -->
<g id="edge162" class="edge">
<title>Node135&#45;&gt;Node138</title>
<path fill="none" stroke="midnightblue" d="M2735.88,-861.4C2765.09,-851.56 2804.26,-838.37 2835.4,-827.88"/>
<polygon fill="midnightblue" stroke="midnightblue" points="2836.84,-831.09 2845.2,-824.58 2834.61,-824.45 2836.84,-831.09"/>
</g>
<!-- Node136&#45;&gt;Node14 -->
<g id="edge156" class="edge">
<title>Node136&#45;&gt;Node14</title>
<path fill="none" stroke="midnightblue" d="M2544.43,-609.89C2527.85,-554.74 2434.64,-251.05 2372,-179 2333.38,-134.57 2270.18,-105.23 2230.68,-90.13"/>
<polygon fill="midnightblue" stroke="midnightblue" points="2231.77,-86.8 2221.17,-86.6 2229.33,-93.36 2231.77,-86.8"/>
</g>
<!-- Node137&#45;&gt;Node6 -->
<g id="edge160" class="edge">
<title>Node137&#45;&gt;Node6</title>
<path fill="none" stroke="midnightblue" d="M2804.94,-548.31C2811.35,-528.59 2826,-478.83 2826,-436 2826,-436 2826,-436 2826,-244 2826,-208.86 2811.47,-196.5 2781,-179 2736.68,-153.54 2399.78,-140.21 2260.73,-135.74"/>
<polygon fill="midnightblue" stroke="midnightblue" points="2260.78,-132.24 2250.67,-135.42 2260.56,-139.24 2260.78,-132.24"/>
</g>
<!-- Node137&#45;&gt;Node20 -->
<g id="edge161" class="edge">
<title>Node137&#45;&gt;Node20</title>
<path fill="none" stroke="midnightblue" d="M2785.46,-548.37C2702.72,-505.65 2324.52,-315.62 1991,-235 1875.81,-207.16 1738.01,-196.49 1656.2,-192.44"/>
<polygon fill="midnightblue" stroke="midnightblue" points="1656.17,-188.93 1646.02,-191.95 1655.84,-195.92 1656.17,-188.93"/>
</g>
<!-- Node138&#45;&gt;Node6 -->
<g id="edge163" class="edge">
<title>Node138&#45;&gt;Node6</title>
<path fill="none" stroke="midnightblue" d="M2938.06,-801.22C2985.88,-793.23 3052.27,-778.72 3068,-758 3151.97,-647.4 2957.02,-241.47 2833,-179 2807.69,-166.25 2413.35,-144.86 2260.71,-137.01"/>
<polygon fill="midnightblue" stroke="midnightblue" points="2260.74,-133.5 2250.57,-136.49 2260.38,-140.49 2260.74,-133.5"/>
</g>
<!-- Node138&#45;&gt;Node68 -->
<g id="edge165" class="edge">
<title>Node138&#45;&gt;Node68</title>
<path fill="none" stroke="midnightblue" d="M2874.63,-794.4C2867.16,-785.88 2857.49,-774.85 2849.06,-765.23"/>
<polygon fill="midnightblue" stroke="midnightblue" points="2851.57,-762.79 2842.34,-757.58 2846.31,-767.4 2851.57,-762.79"/>
</g>
<!-- Node138&#45;&gt;Node137 -->
<g id="edge164" class="edge">
<title>Node138&#45;&gt;Node137</title>
<path fill="none" stroke="midnightblue" d="M2904.01,-794.48C2931.96,-769.65 2982.32,-716.28 2959,-671 2933.11,-620.72 2873.04,-588.03 2835.16,-571.61"/>
<polygon fill="midnightblue" stroke="midnightblue" points="2836.15,-568.23 2825.58,-567.6 2833.45,-574.69 2836.15,-568.23"/>
</g>
<!-- Node139&#45;&gt;Node6 -->
<g id="edge173" class="edge">
<title>Node139&#45;&gt;Node6</title>
<path fill="none" stroke="midnightblue" d="M2822.68,-995.86C2955.61,-988.71 3244,-963.31 3244,-877.5 3244,-877.5 3244,-877.5 3244,-618.5 3244,-383.24 3168.26,-264.28 2949,-179 2885.61,-154.35 2426.65,-139.94 2260.68,-135.49"/>
<polygon fill="midnightblue" stroke="midnightblue" points="2260.74,-131.99 2250.65,-135.23 2260.55,-138.99 2260.74,-131.99"/>
</g>
<!-- Node139&#45;&gt;Node81 -->
<g id="edge177" class="edge">
<title>Node139&#45;&gt;Node81</title>
<path fill="none" stroke="midnightblue" d="M2691.27,-997.57C2399.09,-993.04 1216.66,-970.11 855,-892 713.45,-861.43 632.17,-882.38 558,-758 495.5,-653.19 653.79,-560.45 799,-481 830.26,-463.9 868.18,-453.14 900.89,-446.45"/>
<polygon fill="midnightblue" stroke="midnightblue" points="901.72,-449.85 910.86,-444.5 900.38,-442.98 901.72,-449.85"/>
</g>
<!-- Node139&#45;&gt;Node68 -->
<g id="edge182" class="edge">
<title>Node139&#45;&gt;Node68</title>
<path fill="none" stroke="midnightblue" d="M2761.03,-984.43C2772.97,-942.72 2808.26,-819.43 2823.2,-767.25"/>
<polygon fill="midnightblue" stroke="midnightblue" points="2826.6,-768.11 2825.98,-757.53 2819.87,-766.18 2826.6,-768.11"/>
</g>
<!-- Node139&#45;&gt;Node138 -->
<g id="edge183" class="edge">
<title>Node139&#45;&gt;Node138</title>
<path fill="none" stroke="midnightblue" d="M2780.29,-984.37C2793.8,-975.29 2810.38,-962.49 2822,-948 2850.25,-912.78 2869.76,-863.26 2879.6,-834.26"/>
<polygon fill="midnightblue" stroke="midnightblue" points="2882.99,-835.16 2882.79,-824.57 2876.34,-832.97 2882.99,-835.16"/>
</g>
<!-- Node140 -->
<g id="node48" class="node">
<title>Node140</title>
<g id="a_node48"><a xlink:href="../../dc/d51/model_8h.html" target="_top" xlink:title=" ">
<polygon fill="none" stroke="black" points="2518,-867 2518,-886 2628,-886 2628,-867 2518,-867"/>
<text text-anchor="middle" x="2573" y="-874" font-family="Helvetica,sans-Serif" font-size="10.00">containers/model.h</text>
</a>
</g>
</g>
<!-- Node139&#45;&gt;Node140 -->
<g id="edge167" class="edge">
<title>Node139&#45;&gt;Node140</title>
<path fill="none" stroke="midnightblue" d="M2716.18,-984.4C2693.83,-975.69 2666.24,-963.25 2644,-948 2621.52,-932.58 2599.92,-909.57 2586.57,-894.07"/>
<polygon fill="midnightblue" stroke="midnightblue" points="2589.16,-891.73 2580.05,-886.33 2583.81,-896.24 2589.16,-891.73"/>
</g>
<!-- Node141 -->
<g id="node49" class="node">
<title>Node141</title>
<g id="a_node49"><a xlink:href="../../db/d40/define__registry_8h.html" target="_top" xlink:title=" ">
<polygon fill="none" stroke="red" points="2731,-67.5 2731,-86.5 2871,-86.5 2871,-67.5 2731,-67.5"/>
<text text-anchor="middle" x="2801" y="-74.5" font-family="Helvetica,sans-Serif" font-size="10.00">includes/define_registry.h</text>
</a>
</g>
</g>
<!-- Node139&#45;&gt;Node141 -->
<g id="edge174" class="edge">
<title>Node139&#45;&gt;Node141</title>
<path fill="none" stroke="midnightblue" d="M2822.69,-997.04C2963.57,-992.14 3282,-970.74 3282,-877.5 3282,-877.5 3282,-877.5 3282,-434 3282,-293.2 3207.46,-262.38 3094,-179 3024.65,-128.04 2927.59,-101.33 2864.51,-88.46"/>
<polygon fill="midnightblue" stroke="midnightblue" points="2865.17,-85.03 2854.69,-86.52 2863.81,-91.9 2865.17,-85.03"/>
</g>
<!-- Node142 -->
<g id="node50" class="node">
<title>Node142</title>
<g id="a_node50"><a xlink:href="../../d5/da9/modeler_8h.html" target="_top" xlink:title=" ">
<polygon fill="none" stroke="black" points="2652.5,-928.5 2652.5,-947.5 2761.5,-947.5 2761.5,-928.5 2652.5,-928.5"/>
<text text-anchor="middle" x="2707" y="-935.5" font-family="Helvetica,sans-Serif" font-size="10.00">modeler/modeler.h</text>
</a>
</g>
</g>
<!-- Node139&#45;&gt;Node142 -->
<g id="edge178" class="edge">
<title>Node139&#45;&gt;Node142</title>
<path fill="none" stroke="midnightblue" d="M2745.15,-984.4C2737.89,-975.75 2728.55,-964.64 2720.93,-955.58"/>
<polygon fill="midnightblue" stroke="midnightblue" points="2723.39,-953.06 2714.28,-947.66 2718.03,-957.57 2723.39,-953.06"/>
</g>
<!-- Node140&#45;&gt;Node3 -->
<g id="edge168" class="edge">
<title>Node140&#45;&gt;Node3</title>
<path fill="none" stroke="midnightblue" d="M2540.65,-866.95C2530.58,-864.61 2519.39,-862.36 2509,-861 2095.89,-806.97 1017.98,-926.63 637,-758 369.9,-639.78 295.84,-535.4 214,-255 193.21,-183.78 183.64,-156.64 280,-67 316.02,-33.49 373.99,-22.21 409.94,-18.42"/>
<polygon fill="midnightblue" stroke="midnightblue" points="410.27,-21.9 419.9,-17.5 409.62,-14.93 410.27,-21.9"/>
</g>
<!-- Node140&#45;&gt;Node4 -->
<g id="edge169" class="edge">
<title>Node140&#45;&gt;Node4</title>
<path fill="none" stroke="midnightblue" d="M2562.75,-866.77C2518.73,-828.24 2348,-667.81 2348,-497.5 2348,-497.5 2348,-497.5 2348,-372.5 2348,-231.44 2372.16,-155.1 2262,-67 2225.73,-37.99 1523.75,-21.14 1346.42,-17.33"/>
<polygon fill="midnightblue" stroke="midnightblue" points="1346.29,-13.83 1336.22,-17.11 1346.14,-20.82 1346.29,-13.83"/>
</g>
<!-- Node140&#45;&gt;Node5 -->
<g id="edge170" class="edge">
<title>Node140&#45;&gt;Node5</title>
<path fill="none" stroke="midnightblue" d="M2570.89,-866.9C2564.21,-837.94 2545.63,-741.86 2574,-671 2582.18,-650.57 2599.87,-655.45 2608,-635 2613.09,-622.2 2610.08,-617.62 2608,-604 2588.22,-474.2 2545.16,-450.86 2520,-322 2512.24,-282.27 2509.95,-234.76 2509.28,-208.96"/>
<polygon fill="midnightblue" stroke="midnightblue" points="2512.77,-208.67 2509.07,-198.74 2505.77,-208.81 2512.77,-208.67"/>
</g>
<!-- Node140&#45;&gt;Node6 -->
<g id="edge171" class="edge">
<title>Node140&#45;&gt;Node6</title>
<path fill="none" stroke="midnightblue" d="M2607.41,-866.99C2616.95,-864.83 2627.34,-862.65 2637,-861 2748.02,-842.03 3130,-856.12 3130,-743.5 3130,-743.5 3130,-743.5 3130,-618.5 3130,-521.34 2985.82,-306.48 2920,-235 2895.51,-208.4 2894.1,-193.53 2861,-179 2806.87,-155.24 2412.89,-140.59 2260.73,-135.77"/>
<polygon fill="midnightblue" stroke="midnightblue" points="2260.74,-132.26 2250.63,-135.45 2260.52,-139.26 2260.74,-132.26"/>
</g>
<!-- Node140&#45;&gt;Node60 -->
<g id="edge172" class="edge">
<title>Node140&#45;&gt;Node60</title>
<path fill="none" stroke="midnightblue" d="M2540.31,-866.99C2530.32,-864.69 2519.27,-862.44 2509,-861 2206.49,-818.48 1841.56,-811.49 1688.79,-810.53"/>
<polygon fill="midnightblue" stroke="midnightblue" points="1688.62,-807.03 1678.6,-810.47 1688.58,-814.03 1688.62,-807.03"/>
</g>
<!-- Node141&#45;&gt;Node7 -->
<g id="edge175" class="edge">
<title>Node141&#45;&gt;Node7</title>
<path fill="none" stroke="midnightblue" d="M2748.42,-67.48C2675.27,-55.62 2544.21,-34.37 2476.73,-23.43"/>
<polygon fill="midnightblue" stroke="midnightblue" points="2477.29,-19.97 2466.86,-21.83 2476.17,-26.88 2477.29,-19.97"/>
</g>
<!-- Node141&#45;&gt;Node8 -->
<g id="edge176" class="edge">
<title>Node141&#45;&gt;Node8</title>
<path fill="none" stroke="midnightblue" d="M2801,-67.48C2801,-59.08 2801,-45.98 2801,-35.16"/>
<polygon fill="midnightblue" stroke="midnightblue" points="2804.5,-35.01 2801,-25.01 2797.5,-35.01 2804.5,-35.01"/>
</g>
<!-- Node142&#45;&gt;Node6 -->
<g id="edge179" class="edge">
<title>Node142&#45;&gt;Node6</title>
<path fill="none" stroke="midnightblue" d="M2761.83,-934.67C2891.46,-927.67 3206,-901.32 3206,-810.5 3206,-810.5 3206,-810.5 3206,-618.5 3206,-501.73 3026.3,-222.65 2918,-179 2857.86,-154.76 2422.38,-140.21 2260.98,-135.6"/>
<polygon fill="midnightblue" stroke="midnightblue" points="2260.84,-132.09 2250.75,-135.31 2260.64,-139.09 2260.84,-132.09"/>
</g>
<!-- Node142&#45;&gt;Node81 -->
<g id="edge181" class="edge">
<title>Node142&#45;&gt;Node81</title>
<path fill="none" stroke="midnightblue" d="M2652.42,-936.52C2329.77,-933.3 686,-911.96 686,-810.5 686,-810.5 686,-810.5 686,-680 686,-549.54 859.95,-474.8 938.41,-447.73"/>
<polygon fill="midnightblue" stroke="midnightblue" points="939.57,-451.03 947.93,-444.51 937.34,-444.39 939.57,-451.03"/>
</g>
<!-- Node142&#45;&gt;Node140 -->
<g id="edge180" class="edge">
<title>Node142&#45;&gt;Node140</title>
<path fill="none" stroke="midnightblue" d="M2687.8,-928.48C2665.21,-918.45 2627.5,-901.7 2601.5,-890.15"/>
<polygon fill="midnightblue" stroke="midnightblue" points="2602.72,-886.87 2592.16,-886.01 2599.88,-893.27 2602.72,-886.87"/>
</g>
</g>
</svg>
