<?xml version="1.0" encoding="UTF-8" standalone="no"?>
<!DOCTYPE svg PUBLIC "-//W3C//DTD SVG 1.1//EN"
 "http://www.w3.org/Graphics/SVG/1.1/DTD/svg11.dtd">
<!-- Generated by graphviz version 2.43.0 (0)
 -->
<!-- Title: /home/runner/work/Documentation/Documentation/master/applications/ContactStructuralMechanicsApplication/custom_conditions/penalty_frictional_mortar_contact_condition.h Pages: 1 -->
<!--zoomable 372 -->
<svg id="main" version="1.1" xmlns="http://www.w3.org/2000/svg" xmlns:xlink="http://www.w3.org/1999/xlink" xml:space="preserve" onload="init(evt)">
<style type="text/css"><![CDATA[
.edge:hover path { stroke: red; }
.edge:hover polygon { stroke: red; fill: red; }
]]></style>
<script type="text/javascript"><![CDATA[
var edges = document.getElementsByTagName('g');
if (edges && edges.length) {
  for (var i=0;i<edges.length;i++) {
    if (edges[i].id.substr(0,4)=='edge') {
      edges[i].setAttribute('class','edge');
    }
  }
}
]]></script>
        <defs>
                <circle id="rim" cx="0" cy="0" r="7"/>
                <circle id="rim2" cx="0" cy="0" r="3.5"/>
                <g id="zoomPlus">
                        <use xlink:href="#rim" fill="#404040">
                                <set attributeName="fill" to="#808080" begin="zoomplus.mouseover" end="zoomplus.mouseout"/>
                        </use>
                        <path d="M-4,0h8M0,-4v8" fill="none" stroke="white" stroke-width="1.5" pointer-events="none"/>
                </g>
                <g id="zoomMin">
                        <use xlink:href="#rim" fill="#404040">
                                <set attributeName="fill" to="#808080" begin="zoomminus.mouseover" end="zoomminus.mouseout"/>
                        </use>
                        <path d="M-4,0h8" fill="none" stroke="white" stroke-width="1.5" pointer-events="none"/>
                </g>
                <g id="dirArrow">
                        <path fill="none" stroke="white" stroke-width="1.5" d="M0,-3.0v7 M-2.5,-0.5L0,-3.0L2.5,-0.5"/>
                </g>
               <g id="resetDef">
                       <use xlink:href="#rim2" fill="#404040">
                               <set attributeName="fill" to="#808080" begin="reset.mouseover" end="reset.mouseout"/>
                       </use>
               </g>
        </defs>

<script type="text/javascript">
var viewWidth = 850;
var viewHeight = 372;
var sectionId = 'dynsection-1';
</script>
<script xlink:href="../../svgpan.js"/>
<svg id="graph" class="graph">
<g id="viewport">
<title>/home/runner/work/Documentation/Documentation/master/applications/ContactStructuralMechanicsApplication/custom_conditions/penalty_frictional_mortar_contact_condition.h</title>
<!-- Node1 -->
<g id="node1" class="node">
<title>Node1</title>
<g id="a_node1"><a xlink:title=" ">
<polygon fill="#bfbfbf" stroke="black" points="265,-300.5 265,-363.5 476,-363.5 476,-300.5 265,-300.5"/>
<text text-anchor="start" x="273" y="-351.5" font-family="Helvetica,sans-Serif" font-size="10.00">/home/runner/work/Documentation</text>
<text text-anchor="start" x="273" y="-340.5" font-family="Helvetica,sans-Serif" font-size="10.00">/Documentation/master/applications</text>
<text text-anchor="start" x="273" y="-329.5" font-family="Helvetica,sans-Serif" font-size="10.00">/ContactStructuralMechanicsApplication</text>
<text text-anchor="start" x="273" y="-318.5" font-family="Helvetica,sans-Serif" font-size="10.00">/custom_conditions/penalty_frictional</text>
<text text-anchor="middle" x="370.5" y="-307.5" font-family="Helvetica,sans-Serif" font-size="10.00">_mortar_contact_condition.h</text>
</a>
</g>
</g>
<!-- Node2 -->
<g id="node2" class="node">
<title>Node2</title>
<g id="a_node2"><a xlink:href="../../d1/dc8/contact__structural__mechanics__application_8h.html" target="_top" xlink:title=" ">
<polygon fill="none" stroke="black" points="6,-95 6,-147 239,-147 239,-95 6,-95"/>
<text text-anchor="start" x="14" y="-135" font-family="Helvetica,sans-Serif" font-size="10.00">/home/runner/work/Documentation</text>
<text text-anchor="start" x="14" y="-124" font-family="Helvetica,sans-Serif" font-size="10.00">/Documentation/master/applications</text>
<text text-anchor="start" x="14" y="-113" font-family="Helvetica,sans-Serif" font-size="10.00">/ContactStructuralMechanicsApplication</text>
<text text-anchor="middle" x="122.5" y="-102" font-family="Helvetica,sans-Serif" font-size="10.00">/contact_structural_mechanics_application.h</text>
</a>
</g>
</g>
<!-- Node1&#45;&gt;Node2 -->
<g id="edge1" class="edge">
<title>Node1&#45;&gt;Node2</title>
<path fill="none" stroke="midnightblue" d="M254.93,-322.63C213.75,-313.74 170.65,-296.59 142.5,-264 114.43,-231.5 115.11,-178.32 118.54,-147.09"/>
<polygon fill="midnightblue" stroke="midnightblue" points="254.29,-326.07 264.79,-324.61 255.67,-319.21 254.29,-326.07"/>
</g>
<!-- Node4 -->
<g id="node4" class="node">
<title>Node4</title>
<g id="a_node4"><a xlink:href="../../d0/d3f/penalty__frictional__mortar__contact__axisym__condition_8h.html" target="_top" xlink:title=" ">
<polygon fill="none" stroke="black" points="151,-195 151,-258 362,-258 362,-195 151,-195"/>
<text text-anchor="start" x="159" y="-246" font-family="Helvetica,sans-Serif" font-size="10.00">/home/runner/work/Documentation</text>
<text text-anchor="start" x="159" y="-235" font-family="Helvetica,sans-Serif" font-size="10.00">/Documentation/master/applications</text>
<text text-anchor="start" x="159" y="-224" font-family="Helvetica,sans-Serif" font-size="10.00">/ContactStructuralMechanicsApplication</text>
<text text-anchor="start" x="159" y="-213" font-family="Helvetica,sans-Serif" font-size="10.00">/custom_conditions/penalty_frictional</text>
<text text-anchor="middle" x="256.5" y="-202" font-family="Helvetica,sans-Serif" font-size="10.00">_mortar_contact_axisym_condition.h</text>
</a>
</g>
</g>
<!-- Node1&#45;&gt;Node4 -->
<g id="edge3" class="edge">
<title>Node1&#45;&gt;Node4</title>
<path fill="none" stroke="midnightblue" d="M328.9,-293.23C316.26,-281.76 302.53,-269.29 290.46,-258.33"/>
<polygon fill="midnightblue" stroke="midnightblue" points="326.85,-296.1 336.6,-300.23 331.55,-290.91 326.85,-296.1"/>
</g>
<!-- Node6 -->
<g id="node6" class="node">
<title>Node6</title>
<g id="a_node6"><a xlink:href="../../de/d57/penalty__frictional__mortar__contact__condition_8cpp.html" target="_top" xlink:title=" ">
<polygon fill="none" stroke="black" points="380,-195 380,-258 591,-258 591,-195 380,-195"/>
<text text-anchor="start" x="388" y="-246" font-family="Helvetica,sans-Serif" font-size="10.00">/home/runner/work/Documentation</text>
<text text-anchor="start" x="388" y="-235" font-family="Helvetica,sans-Serif" font-size="10.00">/Documentation/master/applications</text>
<text text-anchor="start" x="388" y="-224" font-family="Helvetica,sans-Serif" font-size="10.00">/ContactStructuralMechanicsApplication</text>
<text text-anchor="start" x="388" y="-213" font-family="Helvetica,sans-Serif" font-size="10.00">/custom_conditions/penalty_frictional</text>
<text text-anchor="middle" x="485.5" y="-202" font-family="Helvetica,sans-Serif" font-size="10.00">_mortar_contact_condition.cpp</text>
</a>
</g>
</g>
<!-- Node1&#45;&gt;Node6 -->
<g id="edge6" class="edge">
<title>Node1&#45;&gt;Node6</title>
<path fill="none" stroke="midnightblue" d="M412.46,-293.23C425.21,-281.76 439.06,-269.29 451.24,-258.33"/>
<polygon fill="midnightblue" stroke="midnightblue" points="409.78,-290.94 404.69,-300.23 414.47,-296.14 409.78,-290.94"/>
</g>
<!-- Node7 -->
<g id="node7" class="node">
<title>Node7</title>
<g id="a_node7"><a xlink:href="../../dc/d06/penalty__frictional__mortar__contact__condition__template_8cpp.html" target="_top" xlink:title=" ">
<polygon fill="none" stroke="black" points="609.5,-189.5 609.5,-263.5 841.5,-263.5 841.5,-189.5 609.5,-189.5"/>
<text text-anchor="start" x="617.5" y="-251.5" font-family="Helvetica,sans-Serif" font-size="10.00">/home/runner/work/Documentation</text>
<text text-anchor="start" x="617.5" y="-240.5" font-family="Helvetica,sans-Serif" font-size="10.00">/Documentation/master/applications</text>
<text text-anchor="start" x="617.5" y="-229.5" font-family="Helvetica,sans-Serif" font-size="10.00">/ContactStructuralMechanicsApplication</text>
<text text-anchor="start" x="617.5" y="-218.5" font-family="Helvetica,sans-Serif" font-size="10.00">/symbolic_generation/penalty_frictional</text>
<text text-anchor="start" x="617.5" y="-207.5" font-family="Helvetica,sans-Serif" font-size="10.00">_mortar_condition/penalty_frictional_mortar</text>
<text text-anchor="middle" x="725.5" y="-196.5" font-family="Helvetica,sans-Serif" font-size="10.00">_contact_condition_template.cpp</text>
</a>
</g>
</g>
<!-- Node1&#45;&gt;Node7 -->
<g id="edge7" class="edge">
<title>Node1&#45;&gt;Node7</title>
<path fill="none" stroke="midnightblue" d="M485.05,-297.65C521.91,-286.91 562.93,-274.96 600.5,-264 603.43,-263.15 606.4,-262.28 609.39,-261.41"/>
<polygon fill="midnightblue" stroke="midnightblue" points="483.89,-294.34 475.27,-300.5 485.85,-301.06 483.89,-294.34"/>
</g>
<!-- Node3 -->
<g id="node3" class="node">
<title>Node3</title>
<g id="a_node3"><a xlink:href="../../dd/df4/contact__structural__mechanics__application_8cpp.html" target="_top" xlink:title=" ">
<polygon fill="none" stroke="black" points="0,-0.5 0,-52.5 245,-52.5 245,-0.5 0,-0.5"/>
<text text-anchor="start" x="8" y="-40.5" font-family="Helvetica,sans-Serif" font-size="10.00">/home/runner/work/Documentation</text>
<text text-anchor="start" x="8" y="-29.5" font-family="Helvetica,sans-Serif" font-size="10.00">/Documentation/master/applications</text>
<text text-anchor="start" x="8" y="-18.5" font-family="Helvetica,sans-Serif" font-size="10.00">/ContactStructuralMechanicsApplication</text>
<text text-anchor="middle" x="122.5" y="-7.5" font-family="Helvetica,sans-Serif" font-size="10.00">/contact_structural_mechanics_application.cpp</text>
</a>
</g>
</g>
<!-- Node2&#45;&gt;Node3 -->
<g id="edge2" class="edge">
<title>Node2&#45;&gt;Node3</title>
<path fill="none" stroke="midnightblue" d="M122.5,-84.49C122.5,-73.91 122.5,-62.53 122.5,-52.75"/>
<polygon fill="midnightblue" stroke="midnightblue" points="119,-84.72 122.5,-94.72 126,-84.72 119,-84.72"/>
</g>
<!-- Node4&#45;&gt;Node2 -->
<g id="edge4" class="edge">
<title>Node4&#45;&gt;Node2</title>
<path fill="none" stroke="midnightblue" d="M208.67,-188.56C190.95,-174.87 171.28,-159.67 155.2,-147.26"/>
<polygon fill="midnightblue" stroke="midnightblue" points="206.6,-191.38 216.66,-194.73 210.88,-185.84 206.6,-191.38"/>
</g>
<!-- Node5 -->
<g id="node5" class="node">
<title>Node5</title>
<g id="a_node5"><a xlink:href="../../d2/db7/penalty__frictional__mortar__contact__axisym__condition_8cpp.html" target="_top" xlink:title=" ">
<polygon fill="none" stroke="black" points="257,-89.5 257,-152.5 468,-152.5 468,-89.5 257,-89.5"/>
<text text-anchor="start" x="265" y="-140.5" font-family="Helvetica,sans-Serif" font-size="10.00">/home/runner/work/Documentation</text>
<text text-anchor="start" x="265" y="-129.5" font-family="Helvetica,sans-Serif" font-size="10.00">/Documentation/master/applications</text>
<text text-anchor="start" x="265" y="-118.5" font-family="Helvetica,sans-Serif" font-size="10.00">/ContactStructuralMechanicsApplication</text>
<text text-anchor="start" x="265" y="-107.5" font-family="Helvetica,sans-Serif" font-size="10.00">/custom_conditions/penalty_frictional</text>
<text text-anchor="middle" x="362.5" y="-96.5" font-family="Helvetica,sans-Serif" font-size="10.00">_mortar_contact_axisym_condition.cpp</text>
</a>
</g>
</g>
<!-- Node4&#45;&gt;Node5 -->
<g id="edge5" class="edge">
<title>Node4&#45;&gt;Node5</title>
<path fill="none" stroke="midnightblue" d="M295.18,-187.73C306.93,-176.26 319.7,-163.79 330.92,-152.83"/>
<polygon fill="midnightblue" stroke="midnightblue" points="292.73,-185.24 288.02,-194.73 297.62,-190.24 292.73,-185.24"/>
</g>
</g>
</svg>
        <g id="navigator" transform="translate(0 0)" fill="#404254">
                <rect fill="#f2f5e9" fill-opacity="0.5" stroke="#606060" stroke-width=".5" x="0" y="0" width="60" height="60"/>
                <use id="zoomplus" xlink:href="#zoomPlus" x="17" y="9" onmousedown="handleZoom(evt,'in')"/>
                <use id="zoomminus" xlink:href="#zoomMin" x="42" y="9" onmousedown="handleZoom(evt,'out')"/>
                <use id="reset" xlink:href="#resetDef" x="30" y="36" onmousedown="handleReset()"/>
                <g id="arrowUp" xlink:href="#dirArrow" transform="translate(30 24)" onmousedown="handlePan(0,-1)">
                  <use xlink:href="#rim" fill="#404040">
                        <set attributeName="fill" to="#808080" begin="arrowUp.mouseover" end="arrowUp.mouseout"/>
                  </use>
                  <path fill="none" stroke="white" stroke-width="1.5" d="M0,-3.0v7 M-2.5,-0.5L0,-3.0L2.5,-0.5"/>
                </g>
                <g id="arrowRight" xlink:href="#dirArrow" transform="rotate(90) translate(36 -43)" onmousedown="handlePan(1,0)">
                  <use xlink:href="#rim" fill="#404040">
                        <set attributeName="fill" to="#808080" begin="arrowRight.mouseover" end="arrowRight.mouseout"/>
                  </use>
                  <path fill="none" stroke="white" stroke-width="1.5" d="M0,-3.0v7 M-2.5,-0.5L0,-3.0L2.5,-0.5"/>
                </g>
                <g id="arrowDown" xlink:href="#dirArrow" transform="rotate(180) translate(-30 -48)" onmousedown="handlePan(0,1)">
                  <use xlink:href="#rim" fill="#404040">
                        <set attributeName="fill" to="#808080" begin="arrowDown.mouseover" end="arrowDown.mouseout"/>
                  </use>
                  <path fill="none" stroke="white" stroke-width="1.5" d="M0,-3.0v7 M-2.5,-0.5L0,-3.0L2.5,-0.5"/>
                </g>
                <g id="arrowLeft" xlink:href="#dirArrow" transform="rotate(270) translate(-36 17)" onmousedown="handlePan(-1,0)">
                  <use xlink:href="#rim" fill="#404040">
                        <set attributeName="fill" to="#808080" begin="arrowLeft.mouseover" end="arrowLeft.mouseout"/>
                  </use>
                  <path fill="none" stroke="white" stroke-width="1.5" d="M0,-3.0v7 M-2.5,-0.5L0,-3.0L2.5,-0.5"/>
                </g>
        </g>
        <svg viewBox="0 0 15 15" width="100%" height="30px" preserveAspectRatio="xMaxYMin meet">
         <g id="arrow_out" transform="scale(0.3 0.3)">
          <a xlink:href="penalty__frictional__mortar__contact__condition_8h__dep__incl_org.svg" target="_base">
           <rect id="button" ry="5" rx="5" y="6" x="6" height="38" width="38"
                fill="#f2f5e9" fill-opacity="0.5" stroke="#606060" stroke-width="1.0"/>
           <path id="arrow"
             d="M 11.500037,31.436501 C 11.940474,20.09759 22.043105,11.32322 32.158766,21.979434 L 37.068811,17.246167 C 37.068811,17.246167 37.088388,32 37.088388,32 L 22.160133,31.978069 C 22.160133,31.978069 26.997745,27.140456 26.997745,27.140456 C 18.528582,18.264221 13.291696,25.230495 11.500037,31.436501 z"
             style="fill:#404040;"/>
          </a>
         </g>
        </svg>
</svg>
