<?xml version="1.0" encoding="UTF-8" standalone="no"?>
<!DOCTYPE svg PUBLIC "-//W3C//DTD SVG 1.1//EN"
 "http://www.w3.org/Graphics/SVG/1.1/DTD/svg11.dtd">
<!-- Generated by graphviz version 2.43.0 (0)
 -->
<!-- Title: /home/runner/work/Documentation/Documentation/master/applications/DEMApplication/custom_utilities/dem_fem_search.h Pages: 1 -->
<svg width="1898pt" height="439pt"
 viewBox="0.00 0.00 1897.50 439.00" xmlns="http://www.w3.org/2000/svg" xmlns:xlink="http://www.w3.org/1999/xlink">
<g id="graph0" class="graph" transform="scale(1 1) rotate(0) translate(4 435)">
<title>/home/runner/work/Documentation/Documentation/master/applications/DEMApplication/custom_utilities/dem_fem_search.h</title>
<!-- Node1 -->
<g id="node1" class="node">
<title>Node1</title>
<g id="a_node1"><a xlink:title=" ">
<polygon fill="#bfbfbf" stroke="black" points="255,-378.5 255,-430.5 449,-430.5 449,-378.5 255,-378.5"/>
<text text-anchor="start" x="263" y="-418.5" font-family="Helvetica,sans-Serif" font-size="10.00">/home/runner/work/Documentation</text>
<text text-anchor="start" x="263" y="-407.5" font-family="Helvetica,sans-Serif" font-size="10.00">/Documentation/master/applications</text>
<text text-anchor="start" x="263" y="-396.5" font-family="Helvetica,sans-Serif" font-size="10.00">/DEMApplication/custom_utilities</text>
<text text-anchor="middle" x="352" y="-385.5" font-family="Helvetica,sans-Serif" font-size="10.00">/dem_fem_search.h</text>
</a>
</g>
</g>
<!-- Node2 -->
<g id="node2" class="node">
<title>Node2</title>
<g id="a_node2"><a xlink:href="../../d6/ddd/_d_e_m_application_2custom__python_2add__custom__strategies__to__python_8cpp.html" target="_top" xlink:title=" ">
<polygon fill="none" stroke="black" points="0,-0.5 0,-52.5 196,-52.5 196,-0.5 0,-0.5"/>
<text text-anchor="start" x="8" y="-40.5" font-family="Helvetica,sans-Serif" font-size="10.00">/home/runner/work/Documentation</text>
<text text-anchor="start" x="8" y="-29.5" font-family="Helvetica,sans-Serif" font-size="10.00">/Documentation/master/applications</text>
<text text-anchor="start" x="8" y="-18.5" font-family="Helvetica,sans-Serif" font-size="10.00">/DEMApplication/custom_python/add</text>
<text text-anchor="middle" x="98" y="-7.5" font-family="Helvetica,sans-Serif" font-size="10.00">_custom_strategies_to_python.cpp</text>
</a>
</g>
</g>
<!-- Node1&#45;&gt;Node2 -->
<g id="edge1" class="edge">
<title>Node1&#45;&gt;Node2</title>
<path fill="none" stroke="midnightblue" d="M244.65,-380.52C176.06,-359.68 92.31,-321.37 50,-253 42.86,-241.47 44.08,-112.04 52,-89 56.55,-75.76 65.11,-63.04 73.62,-52.63"/>
<polygon fill="midnightblue" stroke="midnightblue" points="244.08,-384 254.66,-383.47 246.06,-377.29 244.08,-384"/>
</g>
<!-- Node3 -->
<g id="node3" class="node">
<title>Node3</title>
<g id="a_node3"><a xlink:href="../../d0/d32/_d_e_m_application_2custom__python_2add__custom__utilities__to__python_8cpp.html" target="_top" xlink:title=" ">
<polygon fill="none" stroke="black" points="254,-289.5 254,-341.5 450,-341.5 450,-289.5 254,-289.5"/>
<text text-anchor="start" x="262" y="-329.5" font-family="Helvetica,sans-Serif" font-size="10.00">/home/runner/work/Documentation</text>
<text text-anchor="start" x="262" y="-318.5" font-family="Helvetica,sans-Serif" font-size="10.00">/Documentation/master/applications</text>
<text text-anchor="start" x="262" y="-307.5" font-family="Helvetica,sans-Serif" font-size="10.00">/DEMApplication/custom_python/add</text>
<text text-anchor="middle" x="352" y="-296.5" font-family="Helvetica,sans-Serif" font-size="10.00">_custom_utilities_to_python.cpp</text>
</a>
</g>
</g>
<!-- Node1&#45;&gt;Node3 -->
<g id="edge2" class="edge">
<title>Node1&#45;&gt;Node3</title>
<path fill="none" stroke="midnightblue" d="M352,-368.19C352,-359.28 352,-349.9 352,-341.61"/>
<polygon fill="midnightblue" stroke="midnightblue" points="348.5,-368.34 352,-378.34 355.5,-368.34 348.5,-368.34"/>
</g>
<!-- Node4 -->
<g id="node4" class="node">
<title>Node4</title>
<g id="a_node4"><a xlink:href="../../d6/d9f/explicit__solver__strategy_8h.html" target="_top" xlink:title=" ">
<polygon fill="none" stroke="black" points="672,-289.5 672,-341.5 868,-341.5 868,-289.5 672,-289.5"/>
<text text-anchor="start" x="680" y="-329.5" font-family="Helvetica,sans-Serif" font-size="10.00">/home/runner/work/Documentation</text>
<text text-anchor="start" x="680" y="-318.5" font-family="Helvetica,sans-Serif" font-size="10.00">/Documentation/master/applications</text>
<text text-anchor="start" x="680" y="-307.5" font-family="Helvetica,sans-Serif" font-size="10.00">/DEMApplication/custom_strategies</text>
<text text-anchor="middle" x="770" y="-296.5" font-family="Helvetica,sans-Serif" font-size="10.00">/strategies/explicit_solver_strategy.h</text>
</a>
</g>
</g>
<!-- Node1&#45;&gt;Node4 -->
<g id="edge3" class="edge">
<title>Node1&#45;&gt;Node4</title>
<path fill="none" stroke="midnightblue" d="M459.17,-381.2C524.75,-367.55 608.04,-350.21 671.89,-336.92"/>
<polygon fill="midnightblue" stroke="midnightblue" points="458.29,-377.8 449.21,-383.27 459.71,-384.66 458.29,-377.8"/>
</g>
<!-- Node4&#45;&gt;Node2 -->
<g id="edge4" class="edge">
<title>Node4&#45;&gt;Node2</title>
<path fill="none" stroke="midnightblue" d="M661.56,-305.31C467.68,-288.82 81.44,-255.66 79,-253 28.21,-197.49 64.04,-98.85 85.32,-52.66"/>
<polygon fill="midnightblue" stroke="midnightblue" points="661.52,-308.82 671.78,-306.18 662.12,-301.85 661.52,-308.82"/>
</g>
<!-- Node5 -->
<g id="node5" class="node">
<title>Node5</title>
<g id="a_node5"><a xlink:href="../../d0/d6b/explicit__solver__continuum_8h.html" target="_top" xlink:title=" ">
<polygon fill="none" stroke="black" points="88.5,-195 88.5,-247 297.5,-247 297.5,-195 88.5,-195"/>
<text text-anchor="start" x="96.5" y="-235" font-family="Helvetica,sans-Serif" font-size="10.00">/home/runner/work/Documentation</text>
<text text-anchor="start" x="96.5" y="-224" font-family="Helvetica,sans-Serif" font-size="10.00">/Documentation/master/applications</text>
<text text-anchor="start" x="96.5" y="-213" font-family="Helvetica,sans-Serif" font-size="10.00">/DEMApplication/custom_strategies</text>
<text text-anchor="middle" x="193" y="-202" font-family="Helvetica,sans-Serif" font-size="10.00">/strategies/explicit_solver_continuum.h</text>
</a>
</g>
</g>
<!-- Node4&#45;&gt;Node5 -->
<g id="edge5" class="edge">
<title>Node4&#45;&gt;Node5</title>
<path fill="none" stroke="midnightblue" d="M661.45,-304.33C566.98,-294.48 426.65,-277.43 306,-253 297.43,-251.26 288.55,-249.24 279.7,-247.06"/>
<polygon fill="midnightblue" stroke="midnightblue" points="661.29,-307.83 671.59,-305.38 662.01,-300.87 661.29,-307.83"/>
</g>
<!-- Node8 -->
<g id="node8" class="node">
<title>Node8</title>
<g id="a_node8"><a xlink:href="../../d7/d2f/explicit__solver__strategy_8cpp.html" target="_top" xlink:title=" ">
<polygon fill="none" stroke="black" points="315.5,-195 315.5,-247 522.5,-247 522.5,-195 315.5,-195"/>
<text text-anchor="start" x="323.5" y="-235" font-family="Helvetica,sans-Serif" font-size="10.00">/home/runner/work/Documentation</text>
<text text-anchor="start" x="323.5" y="-224" font-family="Helvetica,sans-Serif" font-size="10.00">/Documentation/master/applications</text>
<text text-anchor="start" x="323.5" y="-213" font-family="Helvetica,sans-Serif" font-size="10.00">/DEMApplication/custom_strategies</text>
<text text-anchor="middle" x="419" y="-202" font-family="Helvetica,sans-Serif" font-size="10.00">/strategies/explicit_solver_strategy.cpp</text>
</a>
</g>
</g>
<!-- Node4&#45;&gt;Node8 -->
<g id="edge10" class="edge">
<title>Node4&#45;&gt;Node8</title>
<path fill="none" stroke="midnightblue" d="M662.17,-287.2C621.07,-276.67 573.82,-264.44 531,-253 523.79,-251.07 516.32,-249.06 508.82,-247.02"/>
<polygon fill="midnightblue" stroke="midnightblue" points="661.37,-290.6 671.93,-289.69 663.11,-283.82 661.37,-290.6"/>
</g>
<!-- Node9 -->
<g id="node9" class="node">
<title>Node9</title>
<g id="a_node9"><a xlink:href="../../de/d35/iterative__solver__strategy_8h.html" target="_top" xlink:title=" ">
<polygon fill="none" stroke="black" points="540.5,-195 540.5,-247 741.5,-247 741.5,-195 540.5,-195"/>
<text text-anchor="start" x="548.5" y="-235" font-family="Helvetica,sans-Serif" font-size="10.00">/home/runner/work/Documentation</text>
<text text-anchor="start" x="548.5" y="-224" font-family="Helvetica,sans-Serif" font-size="10.00">/Documentation/master/applications</text>
<text text-anchor="start" x="548.5" y="-213" font-family="Helvetica,sans-Serif" font-size="10.00">/DEMApplication/custom_strategies</text>
<text text-anchor="middle" x="641" y="-202" font-family="Helvetica,sans-Serif" font-size="10.00">/strategies/iterative_solver_strategy.h</text>
</a>
</g>
</g>
<!-- Node4&#45;&gt;Node9 -->
<g id="edge11" class="edge">
<title>Node4&#45;&gt;Node9</title>
<path fill="none" stroke="midnightblue" d="M726.67,-283.43C710.16,-271.59 691.57,-258.26 675.94,-247.05"/>
<polygon fill="midnightblue" stroke="midnightblue" points="724.92,-286.49 735.09,-289.47 729,-280.8 724.92,-286.49"/>
</g>
<!-- Node10 -->
<g id="node10" class="node">
<title>Node10</title>
<g id="a_node10"><a xlink:href="../../dc/da4/_fem_to_dem_application_2custom__python_2add__custom__strategies__to__python_8cpp.html" target="_top" xlink:title=" ">
<polygon fill="none" stroke="black" points="680.5,-95 680.5,-147 887.5,-147 887.5,-95 680.5,-95"/>
<text text-anchor="start" x="688.5" y="-135" font-family="Helvetica,sans-Serif" font-size="10.00">/home/runner/work/Documentation</text>
<text text-anchor="start" x="688.5" y="-124" font-family="Helvetica,sans-Serif" font-size="10.00">/Documentation/master/applications</text>
<text text-anchor="start" x="688.5" y="-113" font-family="Helvetica,sans-Serif" font-size="10.00">/FemToDemApplication/custom_python</text>
<text text-anchor="middle" x="784" y="-102" font-family="Helvetica,sans-Serif" font-size="10.00">/add_custom_strategies_to_python.cpp</text>
</a>
</g>
</g>
<!-- Node4&#45;&gt;Node10 -->
<g id="edge13" class="edge">
<title>Node4&#45;&gt;Node10</title>
<path fill="none" stroke="midnightblue" d="M772.57,-279.17C775.35,-240.92 779.72,-180.9 782.17,-147.17"/>
<polygon fill="midnightblue" stroke="midnightblue" points="769.06,-279.11 771.83,-289.33 776.05,-279.61 769.06,-279.11"/>
</g>
<!-- Node11 -->
<g id="node11" class="node">
<title>Node11</title>
<g id="a_node11"><a xlink:href="../../dd/d7d/residualbased___d_e_m__coupled__newton__raphson__strategy_8h.html" target="_top" xlink:title=" ">
<polygon fill="none" stroke="black" points="798,-195 798,-247 1096,-247 1096,-195 798,-195"/>
<text text-anchor="start" x="806" y="-235" font-family="Helvetica,sans-Serif" font-size="10.00">/home/runner/work/Documentation</text>
<text text-anchor="start" x="806" y="-224" font-family="Helvetica,sans-Serif" font-size="10.00">/Documentation/master/applications</text>
<text text-anchor="start" x="806" y="-213" font-family="Helvetica,sans-Serif" font-size="10.00">/FemToDemApplication/custom_strategies</text>
<text text-anchor="middle" x="947" y="-202" font-family="Helvetica,sans-Serif" font-size="10.00">/residualbased_DEM_coupled_newton_raphson_strategy.h</text>
</a>
</g>
</g>
<!-- Node4&#45;&gt;Node11 -->
<g id="edge14" class="edge">
<title>Node4&#45;&gt;Node11</title>
<path fill="none" stroke="midnightblue" d="M826.97,-284.73C850.22,-272.58 876.82,-258.67 899.06,-247.05"/>
<polygon fill="midnightblue" stroke="midnightblue" points="825.14,-281.73 817.9,-289.47 828.38,-287.94 825.14,-281.73"/>
</g>
<!-- Node12 -->
<g id="node12" class="node">
<title>Node12</title>
<g id="a_node12"><a xlink:href="../../d5/d41/_swimming_d_e_m_application_2custom__python_2add__custom__strategies__to__python_8cpp.html" target="_top" xlink:title=" ">
<polygon fill="none" stroke="black" points="965,-89.5 965,-152.5 1159,-152.5 1159,-89.5 965,-89.5"/>
<text text-anchor="start" x="973" y="-140.5" font-family="Helvetica,sans-Serif" font-size="10.00">/home/runner/work/Documentation</text>
<text text-anchor="start" x="973" y="-129.5" font-family="Helvetica,sans-Serif" font-size="10.00">/Documentation/master/applications</text>
<text text-anchor="start" x="973" y="-118.5" font-family="Helvetica,sans-Serif" font-size="10.00">/SwimmingDEMApplication/custom</text>
<text text-anchor="start" x="973" y="-107.5" font-family="Helvetica,sans-Serif" font-size="10.00">_python/add_custom_strategies_to</text>
<text text-anchor="middle" x="1062" y="-96.5" font-family="Helvetica,sans-Serif" font-size="10.00">_python.cpp</text>
</a>
</g>
</g>
<!-- Node4&#45;&gt;Node12 -->
<g id="edge16" class="edge">
<title>Node4&#45;&gt;Node12</title>
<path fill="none" stroke="midnightblue" d="M878.38,-309.26C964.98,-302.54 1076.42,-287.3 1105,-253 1129.06,-224.13 1107.43,-181.4 1087.11,-152.67"/>
<polygon fill="midnightblue" stroke="midnightblue" points="877.93,-305.79 868.22,-310.02 878.45,-312.77 877.93,-305.79"/>
</g>
<!-- Node13 -->
<g id="node13" class="node">
<title>Node13</title>
<g id="a_node13"><a xlink:href="../../de/d55/adams__bashforth__strategy_8h.html" target="_top" xlink:title=" ">
<polygon fill="none" stroke="black" points="1152,-189.5 1152,-252.5 1362,-252.5 1362,-189.5 1152,-189.5"/>
<text text-anchor="start" x="1160" y="-240.5" font-family="Helvetica,sans-Serif" font-size="10.00">/home/runner/work/Documentation</text>
<text text-anchor="start" x="1160" y="-229.5" font-family="Helvetica,sans-Serif" font-size="10.00">/Documentation/master/applications</text>
<text text-anchor="start" x="1160" y="-218.5" font-family="Helvetica,sans-Serif" font-size="10.00">/SwimmingDEMApplication/custom</text>
<text text-anchor="start" x="1160" y="-207.5" font-family="Helvetica,sans-Serif" font-size="10.00">_strategies/strategies/adams_bashforth</text>
<text text-anchor="middle" x="1257" y="-196.5" font-family="Helvetica,sans-Serif" font-size="10.00">_strategy.h</text>
</a>
</g>
</g>
<!-- Node4&#45;&gt;Node13 -->
<g id="edge17" class="edge">
<title>Node4&#45;&gt;Node13</title>
<path fill="none" stroke="midnightblue" d="M878.28,-299C951.84,-287.84 1051.18,-271.52 1138,-253 1142.59,-252.02 1147.28,-250.98 1152,-249.9"/>
<polygon fill="midnightblue" stroke="midnightblue" points="877.44,-295.59 868.07,-300.55 878.49,-302.51 877.44,-295.59"/>
</g>
<!-- Node15 -->
<g id="node15" class="node">
<title>Node15</title>
<g id="a_node15"><a xlink:href="../../d6/d4c/_thermal_d_e_m_application_2custom__python_2add__custom__strategies__to__python_8cpp.html" target="_top" xlink:title=" ">
<polygon fill="none" stroke="black" points="1405.5,-95 1405.5,-147 1620.5,-147 1620.5,-95 1405.5,-95"/>
<text text-anchor="start" x="1413.5" y="-135" font-family="Helvetica,sans-Serif" font-size="10.00">/home/runner/work/Documentation</text>
<text text-anchor="start" x="1413.5" y="-124" font-family="Helvetica,sans-Serif" font-size="10.00">/Documentation/master/applications</text>
<text text-anchor="start" x="1413.5" y="-113" font-family="Helvetica,sans-Serif" font-size="10.00">/ThermalDEMApplication/custom_python</text>
<text text-anchor="middle" x="1513" y="-102" font-family="Helvetica,sans-Serif" font-size="10.00">/add_custom_strategies_to_python.cpp</text>
</a>
</g>
</g>
<!-- Node4&#45;&gt;Node15 -->
<g id="edge20" class="edge">
<title>Node4&#45;&gt;Node15</title>
<path fill="none" stroke="midnightblue" d="M878.21,-314.75C1028.65,-313.22 1291.49,-303.15 1371,-253 1399.17,-235.23 1386.8,-212.9 1410,-189 1425.9,-172.62 1446.5,-158.23 1465.1,-147.03"/>
<polygon fill="midnightblue" stroke="midnightblue" points="877.99,-311.26 868.02,-314.85 878.06,-318.26 877.99,-311.26"/>
</g>
<!-- Node16 -->
<g id="node16" class="node">
<title>Node16</title>
<g id="a_node16"><a xlink:href="../../da/d6b/thermal__explicit__solver__strategy_8h.html" target="_top" xlink:title=" ">
<polygon fill="none" stroke="black" points="1418.5,-195 1418.5,-247 1657.5,-247 1657.5,-195 1418.5,-195"/>
<text text-anchor="start" x="1426.5" y="-235" font-family="Helvetica,sans-Serif" font-size="10.00">/home/runner/work/Documentation</text>
<text text-anchor="start" x="1426.5" y="-224" font-family="Helvetica,sans-Serif" font-size="10.00">/Documentation/master/applications</text>
<text text-anchor="start" x="1426.5" y="-213" font-family="Helvetica,sans-Serif" font-size="10.00">/ThermalDEMApplication/custom_strategies</text>
<text text-anchor="middle" x="1538" y="-202" font-family="Helvetica,sans-Serif" font-size="10.00">/strategies/thermal_explicit_solver_strategy.h</text>
</a>
</g>
</g>
<!-- Node4&#45;&gt;Node16 -->
<g id="edge21" class="edge">
<title>Node4&#45;&gt;Node16</title>
<path fill="none" stroke="midnightblue" d="M878.36,-308.31C1005.03,-300.08 1220.7,-282.96 1404,-253 1414.49,-251.29 1425.38,-249.23 1436.21,-247.01"/>
<polygon fill="midnightblue" stroke="midnightblue" points="878.02,-304.83 868.26,-308.96 878.47,-311.81 878.02,-304.83"/>
</g>
<!-- Node5&#45;&gt;Node2 -->
<g id="edge6" class="edge">
<title>Node5&#45;&gt;Node2</title>
<path fill="none" stroke="midnightblue" d="M146.6,-188.22C135.23,-178.23 124.25,-166.3 117,-153 99.8,-121.46 96.8,-79.21 96.89,-52.67"/>
<polygon fill="midnightblue" stroke="midnightblue" points="144.57,-191.09 154.49,-194.81 149.06,-185.71 144.57,-191.09"/>
</g>
<!-- Node6 -->
<g id="node6" class="node">
<title>Node6</title>
<g id="a_node6"><a xlink:href="../../de/d2a/explicit__solver__continuum_8cpp.html" target="_top" xlink:title=" ">
<polygon fill="none" stroke="black" points="126,-95 126,-147 346,-147 346,-95 126,-95"/>
<text text-anchor="start" x="134" y="-135" font-family="Helvetica,sans-Serif" font-size="10.00">/home/runner/work/Documentation</text>
<text text-anchor="start" x="134" y="-124" font-family="Helvetica,sans-Serif" font-size="10.00">/Documentation/master/applications</text>
<text text-anchor="start" x="134" y="-113" font-family="Helvetica,sans-Serif" font-size="10.00">/DEMApplication/custom_strategies</text>
<text text-anchor="middle" x="236" y="-102" font-family="Helvetica,sans-Serif" font-size="10.00">/strategies/explicit_solver_continuum.cpp</text>
</a>
</g>
</g>
<!-- Node5&#45;&gt;Node6 -->
<g id="edge7" class="edge">
<title>Node5&#45;&gt;Node6</title>
<path fill="none" stroke="midnightblue" d="M208.16,-185.45C213.7,-172.83 219.85,-158.8 224.96,-147.15"/>
<polygon fill="midnightblue" stroke="midnightblue" points="204.89,-184.2 204.07,-194.76 211.3,-187.01 204.89,-184.2"/>
</g>
<!-- Node7 -->
<g id="node7" class="node">
<title>Node7</title>
<g id="a_node7"><a xlink:href="../../db/d87/velocity__verlet__solver__strategy_8h.html" target="_top" xlink:title=" ">
<polygon fill="none" stroke="black" points="364,-89.5 364,-152.5 558,-152.5 558,-89.5 364,-89.5"/>
<text text-anchor="start" x="372" y="-140.5" font-family="Helvetica,sans-Serif" font-size="10.00">/home/runner/work/Documentation</text>
<text text-anchor="start" x="372" y="-129.5" font-family="Helvetica,sans-Serif" font-size="10.00">/Documentation/master/applications</text>
<text text-anchor="start" x="372" y="-118.5" font-family="Helvetica,sans-Serif" font-size="10.00">/DEMApplication/custom_strategies</text>
<text text-anchor="start" x="372" y="-107.5" font-family="Helvetica,sans-Serif" font-size="10.00">/strategies/velocity_verlet_solver</text>
<text text-anchor="middle" x="461" y="-96.5" font-family="Helvetica,sans-Serif" font-size="10.00">_strategy.h</text>
</a>
</g>
</g>
<!-- Node5&#45;&gt;Node7 -->
<g id="edge8" class="edge">
<title>Node5&#45;&gt;Node7</title>
<path fill="none" stroke="midnightblue" d="M271.34,-191.35C304.58,-179.2 343.38,-165.01 377.2,-152.64"/>
<polygon fill="midnightblue" stroke="midnightblue" points="269.86,-188.17 261.67,-194.89 272.26,-194.74 269.86,-188.17"/>
</g>
<!-- Node7&#45;&gt;Node2 -->
<g id="edge9" class="edge">
<title>Node7&#45;&gt;Node2</title>
<path fill="none" stroke="midnightblue" d="M353.75,-88.71C296.42,-73.59 241.61,-60.39 196.22,-49.8"/>
<polygon fill="midnightblue" stroke="midnightblue" points="353.16,-92.17 363.72,-91.35 354.95,-85.4 353.16,-92.17"/>
</g>
<!-- Node9&#45;&gt;Node2 -->
<g id="edge12" class="edge">
<title>Node9&#45;&gt;Node2</title>
<path fill="none" stroke="midnightblue" d="M631.02,-184.95C620.37,-154.38 600.36,-111.51 567,-89 508.24,-49.36 315.47,-35.22 196.14,-30.21"/>
<polygon fill="midnightblue" stroke="midnightblue" points="627.81,-186.4 634.27,-194.79 634.46,-184.2 627.81,-186.4"/>
</g>
<!-- Node11&#45;&gt;Node10 -->
<g id="edge15" class="edge">
<title>Node11&#45;&gt;Node10</title>
<path fill="none" stroke="midnightblue" d="M896.23,-189.48C873.61,-175.88 847.3,-160.06 825.83,-147.15"/>
<polygon fill="midnightblue" stroke="midnightblue" points="894.65,-192.61 905.02,-194.76 898.26,-186.61 894.65,-192.61"/>
</g>
<!-- Node13&#45;&gt;Node12 -->
<g id="edge18" class="edge">
<title>Node13&#45;&gt;Node12</title>
<path fill="none" stroke="midnightblue" d="M1186.92,-184.78C1165.94,-174.23 1143.1,-162.76 1122.77,-152.54"/>
<polygon fill="midnightblue" stroke="midnightblue" points="1185.6,-188.03 1196.1,-189.4 1188.74,-181.78 1185.6,-188.03"/>
</g>
<!-- Node14 -->
<g id="node14" class="node">
<title>Node14</title>
<g id="a_node14"><a xlink:href="../../de/d93/adams__bashforth__strategy_8cpp.html" target="_top" xlink:title=" ">
<polygon fill="none" stroke="black" points="1177,-89.5 1177,-152.5 1387,-152.5 1387,-89.5 1177,-89.5"/>
<text text-anchor="start" x="1185" y="-140.5" font-family="Helvetica,sans-Serif" font-size="10.00">/home/runner/work/Documentation</text>
<text text-anchor="start" x="1185" y="-129.5" font-family="Helvetica,sans-Serif" font-size="10.00">/Documentation/master/applications</text>
<text text-anchor="start" x="1185" y="-118.5" font-family="Helvetica,sans-Serif" font-size="10.00">/SwimmingDEMApplication/custom</text>
<text text-anchor="start" x="1185" y="-107.5" font-family="Helvetica,sans-Serif" font-size="10.00">_strategies/strategies/adams_bashforth</text>
<text text-anchor="middle" x="1282" y="-96.5" font-family="Helvetica,sans-Serif" font-size="10.00">_strategy.cpp</text>
</a>
</g>
</g>
<!-- Node13&#45;&gt;Node14 -->
<g id="edge19" class="edge">
<title>Node13&#45;&gt;Node14</title>
<path fill="none" stroke="midnightblue" d="M1267.36,-179.39C1269.64,-170.44 1272.02,-161.11 1274.19,-152.63"/>
<polygon fill="midnightblue" stroke="midnightblue" points="1263.92,-178.71 1264.84,-189.26 1270.7,-180.44 1263.92,-178.71"/>
</g>
<!-- Node16&#45;&gt;Node15 -->
<g id="edge22" class="edge">
<title>Node16&#45;&gt;Node15</title>
<path fill="none" stroke="midnightblue" d="M1529,-184.7C1525.83,-172.28 1522.33,-158.57 1519.42,-147.15"/>
<polygon fill="midnightblue" stroke="midnightblue" points="1525.7,-185.94 1531.56,-194.76 1532.48,-184.21 1525.7,-185.94"/>
</g>
<!-- Node17 -->
<g id="node17" class="node">
<title>Node17</title>
<g id="a_node17"><a xlink:href="../../d9/d13/thermal__explicit__solver__strategy_8cpp.html" target="_top" xlink:title=" ">
<polygon fill="none" stroke="black" points="1638.5,-95 1638.5,-147 1889.5,-147 1889.5,-95 1638.5,-95"/>
<text text-anchor="start" x="1646.5" y="-135" font-family="Helvetica,sans-Serif" font-size="10.00">/home/runner/work/Documentation</text>
<text text-anchor="start" x="1646.5" y="-124" font-family="Helvetica,sans-Serif" font-size="10.00">/Documentation/master/applications</text>
<text text-anchor="start" x="1646.5" y="-113" font-family="Helvetica,sans-Serif" font-size="10.00">/ThermalDEMApplication/custom_strategies</text>
<text text-anchor="middle" x="1764" y="-102" font-family="Helvetica,sans-Serif" font-size="10.00">/strategies/thermal_explicit_solver_strategy.cpp</text>
</a>
</g>
</g>
<!-- Node16&#45;&gt;Node17 -->
<g id="edge23" class="edge">
<title>Node16&#45;&gt;Node17</title>
<path fill="none" stroke="midnightblue" d="M1605.24,-190.84C1637.37,-176.91 1675.44,-160.4 1706.24,-147.04"/>
<polygon fill="midnightblue" stroke="midnightblue" points="1603.69,-187.7 1595.91,-194.89 1606.47,-194.12 1603.69,-187.7"/>
</g>
</g>
</svg>
