<?xml version="1.0" encoding="UTF-8" standalone="no"?>
<!DOCTYPE svg PUBLIC "-//W3C//DTD SVG 1.1//EN"
 "http://www.w3.org/Graphics/SVG/1.1/DTD/svg11.dtd">
<!-- Generated by graphviz version 2.43.0 (0)
 -->
<!-- Title: /home/runner/work/Documentation/Documentation/master/applications/ParticleMechanicsApplication/custom_utilities/mpm_boundary_rotation_utility.h Pages: 1 -->
<svg width="502pt" height="250pt"
 viewBox="0.00 0.00 501.50 250.00" xmlns="http://www.w3.org/2000/svg" xmlns:xlink="http://www.w3.org/1999/xlink">
<g id="graph0" class="graph" transform="scale(1 1) rotate(0) translate(4 246)">
<title>/home/runner/work/Documentation/Documentation/master/applications/ParticleMechanicsApplication/custom_utilities/mpm_boundary_rotation_utility.h</title>
<!-- Node1 -->
<g id="node1" class="node">
<title>Node1</title>
<g id="a_node1"><a xlink:title=" ">
<polygon fill="#bfbfbf" stroke="black" points="142,-189.5 142,-241.5 365,-241.5 365,-189.5 142,-189.5"/>
<text text-anchor="start" x="150" y="-229.5" font-family="Helvetica,sans-Serif" font-size="10.00">/home/runner/work/Documentation</text>
<text text-anchor="start" x="150" y="-218.5" font-family="Helvetica,sans-Serif" font-size="10.00">/Documentation/master/applications</text>
<text text-anchor="start" x="150" y="-207.5" font-family="Helvetica,sans-Serif" font-size="10.00">/ParticleMechanicsApplication/custom</text>
<text text-anchor="middle" x="253.5" y="-196.5" font-family="Helvetica,sans-Serif" font-size="10.00">_utilities/mpm_boundary_rotation_utility.h</text>
</a>
</g>
</g>
<!-- Node2 -->
<g id="node2" class="node">
<title>Node2</title>
<g id="a_node2"><a xlink:href="../../d3/d21/mpm__explicit__scheme_8hpp.html" target="_top" xlink:title=" ">
<polygon fill="none" stroke="black" points="0,-95 0,-147 251,-147 251,-95 0,-95"/>
<text text-anchor="start" x="8" y="-135" font-family="Helvetica,sans-Serif" font-size="10.00">/home/runner/work/Documentation</text>
<text text-anchor="start" x="8" y="-124" font-family="Helvetica,sans-Serif" font-size="10.00">/Documentation/master/applications</text>
<text text-anchor="start" x="8" y="-113" font-family="Helvetica,sans-Serif" font-size="10.00">/ParticleMechanicsApplication/custom</text>
<text text-anchor="middle" x="125.5" y="-102" font-family="Helvetica,sans-Serif" font-size="10.00">_strategies/schemes/mpm_explicit_scheme.hpp</text>
</a>
</g>
</g>
<!-- Node1&#45;&gt;Node2 -->
<g id="edge1" class="edge">
<title>Node1&#45;&gt;Node2</title>
<path fill="none" stroke="midnightblue" d="M210.51,-183.43C194.13,-171.59 175.68,-158.26 160.17,-147.05"/>
<polygon fill="midnightblue" stroke="midnightblue" points="208.71,-186.45 218.86,-189.47 212.81,-180.77 208.71,-186.45"/>
</g>
<!-- Node4 -->
<g id="node4" class="node">
<title>Node4</title>
<g id="a_node4"><a xlink:href="../../d4/db4/mpm__residual__based__bossak__scheme_8hpp.html" target="_top" xlink:title=" ">
<polygon fill="none" stroke="black" points="269.5,-89.5 269.5,-152.5 493.5,-152.5 493.5,-89.5 269.5,-89.5"/>
<text text-anchor="start" x="277.5" y="-140.5" font-family="Helvetica,sans-Serif" font-size="10.00">/home/runner/work/Documentation</text>
<text text-anchor="start" x="277.5" y="-129.5" font-family="Helvetica,sans-Serif" font-size="10.00">/Documentation/master/applications</text>
<text text-anchor="start" x="277.5" y="-118.5" font-family="Helvetica,sans-Serif" font-size="10.00">/ParticleMechanicsApplication/custom</text>
<text text-anchor="start" x="277.5" y="-107.5" font-family="Helvetica,sans-Serif" font-size="10.00">_strategies/schemes/mpm_residual_based</text>
<text text-anchor="middle" x="381.5" y="-96.5" font-family="Helvetica,sans-Serif" font-size="10.00">_bossak_scheme.hpp</text>
</a>
</g>
</g>
<!-- Node1&#45;&gt;Node4 -->
<g id="edge3" class="edge">
<title>Node1&#45;&gt;Node4</title>
<path fill="none" stroke="midnightblue" d="M296.47,-183.45C310.2,-173.53 325.38,-162.56 339.07,-152.66"/>
<polygon fill="midnightblue" stroke="midnightblue" points="294.19,-180.77 288.14,-189.47 298.29,-186.45 294.19,-180.77"/>
</g>
<!-- Node3 -->
<g id="node3" class="node">
<title>Node3</title>
<g id="a_node3"><a xlink:href="../../d0/d4d/_particle_mechanics_application_2custom__python_2add__custom__strategies__to__python_8cpp.html" target="_top" xlink:title=" ">
<polygon fill="none" stroke="black" points="130.5,-0.5 130.5,-52.5 376.5,-52.5 376.5,-0.5 130.5,-0.5"/>
<text text-anchor="start" x="138.5" y="-40.5" font-family="Helvetica,sans-Serif" font-size="10.00">/home/runner/work/Documentation</text>
<text text-anchor="start" x="138.5" y="-29.5" font-family="Helvetica,sans-Serif" font-size="10.00">/Documentation/master/applications</text>
<text text-anchor="start" x="138.5" y="-18.5" font-family="Helvetica,sans-Serif" font-size="10.00">/ParticleMechanicsApplication/custom</text>
<text text-anchor="middle" x="253.5" y="-7.5" font-family="Helvetica,sans-Serif" font-size="10.00">_python/add_custom_strategies_to_python.cpp</text>
</a>
</g>
</g>
<!-- Node2&#45;&gt;Node3 -->
<g id="edge2" class="edge">
<title>Node2&#45;&gt;Node3</title>
<path fill="none" stroke="midnightblue" d="M168.49,-88.93C184.87,-77.09 203.32,-63.76 218.83,-52.55"/>
<polygon fill="midnightblue" stroke="midnightblue" points="166.19,-86.27 160.14,-94.97 170.29,-91.95 166.19,-86.27"/>
</g>
<!-- Node4&#45;&gt;Node3 -->
<g id="edge4" class="edge">
<title>Node4&#45;&gt;Node3</title>
<path fill="none" stroke="midnightblue" d="M330.98,-83.49C316.74,-73.2 301.57,-62.24 288.46,-52.77"/>
<polygon fill="midnightblue" stroke="midnightblue" points="329.08,-86.44 339.23,-89.46 333.18,-80.76 329.08,-86.44"/>
</g>
</g>
</svg>
