<?xml version="1.0" encoding="UTF-8" standalone="no"?>
<!DOCTYPE svg PUBLIC "-//W3C//DTD SVG 1.1//EN"
 "http://www.w3.org/Graphics/SVG/1.1/DTD/svg11.dtd">
<!-- Generated by graphviz version 2.43.0 (0)
 -->
<!-- Title: /home/runner/work/Documentation/Documentation/master/applications/MeshMovingApplication/custom_utilities/affine_transform.h Pages: 1 -->
<svg width="1839pt" height="417pt"
 viewBox="0.00 0.00 1839.00 417.00" xmlns="http://www.w3.org/2000/svg" xmlns:xlink="http://www.w3.org/1999/xlink">
<g id="graph0" class="graph" transform="scale(1 1) rotate(0) translate(4 413)">
<title>/home/runner/work/Documentation/Documentation/master/applications/MeshMovingApplication/custom_utilities/affine_transform.h</title>
<!-- Node1 -->
<g id="node1" class="node">
<title>Node1</title>
<g id="a_node1"><a xlink:title=" ">
<polygon fill="#bfbfbf" stroke="black" points="1388,-356.5 1388,-408.5 1606,-408.5 1606,-356.5 1388,-356.5"/>
<text text-anchor="start" x="1396" y="-396.5" font-family="Helvetica,sans-Serif" font-size="10.00">/home/runner/work/Documentation</text>
<text text-anchor="start" x="1396" y="-385.5" font-family="Helvetica,sans-Serif" font-size="10.00">/Documentation/master/applications</text>
<text text-anchor="start" x="1396" y="-374.5" font-family="Helvetica,sans-Serif" font-size="10.00">/MeshMovingApplication/custom_utilities</text>
<text text-anchor="middle" x="1497" y="-363.5" font-family="Helvetica,sans-Serif" font-size="10.00">/affine_transform.h</text>
</a>
</g>
</g>
<!-- Node2 -->
<g id="node2" class="node">
<title>Node2</title>
<g id="a_node2"><a xlink:href="../../d6/dad/_mesh_moving_application_2custom__python_2add__custom__utilities__to__python_8cpp.html" target="_top" xlink:title=" ">
<polygon fill="none" stroke="black" points="1477.5,-89.5 1477.5,-141.5 1692.5,-141.5 1692.5,-89.5 1477.5,-89.5"/>
<text text-anchor="start" x="1485.5" y="-129.5" font-family="Helvetica,sans-Serif" font-size="10.00">/home/runner/work/Documentation</text>
<text text-anchor="start" x="1485.5" y="-118.5" font-family="Helvetica,sans-Serif" font-size="10.00">/Documentation/master/applications</text>
<text text-anchor="start" x="1485.5" y="-107.5" font-family="Helvetica,sans-Serif" font-size="10.00">/MeshMovingApplication/custom_python</text>
<text text-anchor="middle" x="1585" y="-96.5" font-family="Helvetica,sans-Serif" font-size="10.00">/add_custom_utilities_to_python.cpp</text>
</a>
</g>
</g>
<!-- Node1&#45;&gt;Node2 -->
<g id="edge1" class="edge">
<title>Node1&#45;&gt;Node2</title>
<path fill="none" stroke="midnightblue" d="M1515.27,-347.24C1519.67,-338.47 1524.2,-328.97 1528,-320 1544.35,-281.44 1547.46,-271.26 1559,-231 1567.71,-200.63 1575.4,-165.06 1580.12,-141.72"/>
<polygon fill="midnightblue" stroke="midnightblue" points="1512.01,-345.92 1510.58,-356.42 1518.25,-349.11 1512.01,-345.92"/>
</g>
<!-- Node3 -->
<g id="node3" class="node">
<title>Node3</title>
<g id="a_node3"><a xlink:href="../../d3/d05/affine__transform_8cpp.html" target="_top" xlink:title=" ">
<polygon fill="none" stroke="black" points="1613,-267.5 1613,-319.5 1831,-319.5 1831,-267.5 1613,-267.5"/>
<text text-anchor="start" x="1621" y="-307.5" font-family="Helvetica,sans-Serif" font-size="10.00">/home/runner/work/Documentation</text>
<text text-anchor="start" x="1621" y="-296.5" font-family="Helvetica,sans-Serif" font-size="10.00">/Documentation/master/applications</text>
<text text-anchor="start" x="1621" y="-285.5" font-family="Helvetica,sans-Serif" font-size="10.00">/MeshMovingApplication/custom_utilities</text>
<text text-anchor="middle" x="1722" y="-274.5" font-family="Helvetica,sans-Serif" font-size="10.00">/affine_transform.cpp</text>
</a>
</g>
</g>
<!-- Node1&#45;&gt;Node3 -->
<g id="edge2" class="edge">
<title>Node1&#45;&gt;Node3</title>
<path fill="none" stroke="midnightblue" d="M1571.44,-352.72C1599.2,-341.98 1630.47,-329.89 1657.29,-319.52"/>
<polygon fill="midnightblue" stroke="midnightblue" points="1569.84,-349.58 1561.78,-356.45 1572.37,-356.11 1569.84,-349.58"/>
</g>
<!-- Node4 -->
<g id="node4" class="node">
<title>Node4</title>
<g id="a_node4"><a xlink:href="../../d7/d8b/move__mesh__utilities_8h.html" target="_top" xlink:title=" ">
<polygon fill="none" stroke="black" points="1000,-178.5 1000,-230.5 1218,-230.5 1218,-178.5 1000,-178.5"/>
<text text-anchor="start" x="1008" y="-218.5" font-family="Helvetica,sans-Serif" font-size="10.00">/home/runner/work/Documentation</text>
<text text-anchor="start" x="1008" y="-207.5" font-family="Helvetica,sans-Serif" font-size="10.00">/Documentation/master/applications</text>
<text text-anchor="start" x="1008" y="-196.5" font-family="Helvetica,sans-Serif" font-size="10.00">/MeshMovingApplication/custom_utilities</text>
<text text-anchor="middle" x="1109" y="-185.5" font-family="Helvetica,sans-Serif" font-size="10.00">/move_mesh_utilities.h</text>
</a>
</g>
</g>
<!-- Node1&#45;&gt;Node4 -->
<g id="edge3" class="edge">
<title>Node1&#45;&gt;Node4</title>
<path fill="none" stroke="midnightblue" d="M1384.32,-353.58C1353.76,-344.44 1321.09,-333.18 1292,-320 1236.87,-295.03 1178.46,-256 1142.86,-230.58"/>
<polygon fill="midnightblue" stroke="midnightblue" points="1383.57,-357.01 1394.16,-356.48 1385.55,-350.3 1383.57,-357.01"/>
</g>
<!-- Node12 -->
<g id="node12" class="node">
<title>Node12</title>
<g id="a_node12"><a xlink:href="../../d6/d0c/parametric__affine__transform_8h.html" target="_top" xlink:title=" ">
<polygon fill="none" stroke="black" points="1301,-267.5 1301,-319.5 1519,-319.5 1519,-267.5 1301,-267.5"/>
<text text-anchor="start" x="1309" y="-307.5" font-family="Helvetica,sans-Serif" font-size="10.00">/home/runner/work/Documentation</text>
<text text-anchor="start" x="1309" y="-296.5" font-family="Helvetica,sans-Serif" font-size="10.00">/Documentation/master/applications</text>
<text text-anchor="start" x="1309" y="-285.5" font-family="Helvetica,sans-Serif" font-size="10.00">/MeshMovingApplication/custom_utilities</text>
<text text-anchor="middle" x="1410" y="-274.5" font-family="Helvetica,sans-Serif" font-size="10.00">/parametric_affine_transform.h</text>
</a>
</g>
</g>
<!-- Node1&#45;&gt;Node12 -->
<g id="edge13" class="edge">
<title>Node1&#45;&gt;Node12</title>
<path fill="none" stroke="midnightblue" d="M1464.58,-349.08C1454.84,-339.34 1444.3,-328.8 1435.11,-319.61"/>
<polygon fill="midnightblue" stroke="midnightblue" points="1462.29,-351.74 1471.84,-356.34 1467.24,-346.79 1462.29,-351.74"/>
</g>
<!-- Node4&#45;&gt;Node2 -->
<g id="edge6" class="edge">
<title>Node4&#45;&gt;Node2</title>
<path fill="none" stroke="midnightblue" d="M1228.2,-184.46C1298.19,-172.93 1388.28,-157.51 1468,-142 1471.06,-141.4 1474.17,-140.79 1477.3,-140.16"/>
<polygon fill="midnightblue" stroke="midnightblue" points="1227.33,-181.06 1218.03,-186.13 1228.46,-187.96 1227.33,-181.06"/>
</g>
<!-- Node5 -->
<g id="node5" class="node">
<title>Node5</title>
<g id="a_node5"><a xlink:href="../../d2/dd9/laplacian__meshmoving__element_8cpp.html" target="_top" xlink:title=" ">
<polygon fill="none" stroke="black" points="750.5,-89.5 750.5,-141.5 977.5,-141.5 977.5,-89.5 750.5,-89.5"/>
<text text-anchor="start" x="758.5" y="-129.5" font-family="Helvetica,sans-Serif" font-size="10.00">/home/runner/work/Documentation</text>
<text text-anchor="start" x="758.5" y="-118.5" font-family="Helvetica,sans-Serif" font-size="10.00">/Documentation/master/applications</text>
<text text-anchor="start" x="758.5" y="-107.5" font-family="Helvetica,sans-Serif" font-size="10.00">/MeshMovingApplication/custom_elements</text>
<text text-anchor="middle" x="864" y="-96.5" font-family="Helvetica,sans-Serif" font-size="10.00">/laplacian_meshmoving_element.cpp</text>
</a>
</g>
</g>
<!-- Node4&#45;&gt;Node5 -->
<g id="edge4" class="edge">
<title>Node4&#45;&gt;Node5</title>
<path fill="none" stroke="midnightblue" d="M1028.74,-175C998.31,-164.19 963.92,-151.98 934.46,-141.52"/>
<polygon fill="midnightblue" stroke="midnightblue" points="1027.87,-178.4 1038.46,-178.45 1030.21,-171.81 1027.87,-178.4"/>
</g>
<!-- Node6 -->
<g id="node6" class="node">
<title>Node6</title>
<g id="a_node6"><a xlink:href="../../d4/d7b/structural__meshmoving__element_8cpp.html" target="_top" xlink:title=" ">
<polygon fill="none" stroke="black" points="995.5,-89.5 995.5,-141.5 1222.5,-141.5 1222.5,-89.5 995.5,-89.5"/>
<text text-anchor="start" x="1003.5" y="-129.5" font-family="Helvetica,sans-Serif" font-size="10.00">/home/runner/work/Documentation</text>
<text text-anchor="start" x="1003.5" y="-118.5" font-family="Helvetica,sans-Serif" font-size="10.00">/Documentation/master/applications</text>
<text text-anchor="start" x="1003.5" y="-107.5" font-family="Helvetica,sans-Serif" font-size="10.00">/MeshMovingApplication/custom_elements</text>
<text text-anchor="middle" x="1109" y="-96.5" font-family="Helvetica,sans-Serif" font-size="10.00">/structural_meshmoving_element.cpp</text>
</a>
</g>
</g>
<!-- Node4&#45;&gt;Node6 -->
<g id="edge5" class="edge">
<title>Node4&#45;&gt;Node6</title>
<path fill="none" stroke="midnightblue" d="M1109,-168.19C1109,-159.28 1109,-149.9 1109,-141.61"/>
<polygon fill="midnightblue" stroke="midnightblue" points="1105.5,-168.34 1109,-178.34 1112.5,-168.34 1105.5,-168.34"/>
</g>
<!-- Node7 -->
<g id="node7" class="node">
<title>Node7</title>
<g id="a_node7"><a xlink:href="../../d0/dc7/laplacian__meshmoving__strategy_8h.html" target="_top" xlink:title=" ">
<polygon fill="none" stroke="black" points="0,-89.5 0,-141.5 238,-141.5 238,-89.5 0,-89.5"/>
<text text-anchor="start" x="8" y="-129.5" font-family="Helvetica,sans-Serif" font-size="10.00">/home/runner/work/Documentation</text>
<text text-anchor="start" x="8" y="-118.5" font-family="Helvetica,sans-Serif" font-size="10.00">/Documentation/master/applications</text>
<text text-anchor="start" x="8" y="-107.5" font-family="Helvetica,sans-Serif" font-size="10.00">/MeshMovingApplication/custom_strategies</text>
<text text-anchor="middle" x="119" y="-96.5" font-family="Helvetica,sans-Serif" font-size="10.00">/strategies/laplacian_meshmoving_strategy.h</text>
</a>
</g>
</g>
<!-- Node4&#45;&gt;Node7 -->
<g id="edge7" class="edge">
<title>Node4&#45;&gt;Node7</title>
<path fill="none" stroke="midnightblue" d="M989.4,-199.71C822.52,-193.34 510.61,-177.52 247,-142 244.08,-141.61 241.13,-141.19 238.15,-140.75"/>
<polygon fill="midnightblue" stroke="midnightblue" points="989.57,-203.22 999.69,-200.09 989.83,-196.22 989.57,-203.22"/>
</g>
<!-- Node9 -->
<g id="node9" class="node">
<title>Node9</title>
<g id="a_node9"><a xlink:href="../../d7/d87/structural__meshmoving__strategy_8h.html" target="_top" xlink:title=" ">
<polygon fill="none" stroke="black" points="256,-89.5 256,-141.5 496,-141.5 496,-89.5 256,-89.5"/>
<text text-anchor="start" x="264" y="-129.5" font-family="Helvetica,sans-Serif" font-size="10.00">/home/runner/work/Documentation</text>
<text text-anchor="start" x="264" y="-118.5" font-family="Helvetica,sans-Serif" font-size="10.00">/Documentation/master/applications</text>
<text text-anchor="start" x="264" y="-107.5" font-family="Helvetica,sans-Serif" font-size="10.00">/MeshMovingApplication/custom_strategies</text>
<text text-anchor="middle" x="376" y="-96.5" font-family="Helvetica,sans-Serif" font-size="10.00">/strategies/structural_meshmoving_strategy.h</text>
</a>
</g>
</g>
<!-- Node4&#45;&gt;Node9 -->
<g id="edge9" class="edge">
<title>Node4&#45;&gt;Node9</title>
<path fill="none" stroke="midnightblue" d="M989.65,-194.67C867.51,-184.85 672.43,-167.02 505,-142 502.06,-141.56 499.1,-141.1 496.1,-140.62"/>
<polygon fill="midnightblue" stroke="midnightblue" points="989.53,-198.17 999.78,-195.48 990.09,-191.19 989.53,-198.17"/>
</g>
<!-- Node10 -->
<g id="node10" class="node">
<title>Node10</title>
<g id="a_node10"><a xlink:href="../../d4/d04/fixed__mesh__ale__utilities_8cpp.html" target="_top" xlink:title=" ">
<polygon fill="none" stroke="black" points="514,-89.5 514,-141.5 732,-141.5 732,-89.5 514,-89.5"/>
<text text-anchor="start" x="522" y="-129.5" font-family="Helvetica,sans-Serif" font-size="10.00">/home/runner/work/Documentation</text>
<text text-anchor="start" x="522" y="-118.5" font-family="Helvetica,sans-Serif" font-size="10.00">/Documentation/master/applications</text>
<text text-anchor="start" x="522" y="-107.5" font-family="Helvetica,sans-Serif" font-size="10.00">/MeshMovingApplication/custom_utilities</text>
<text text-anchor="middle" x="623" y="-96.5" font-family="Helvetica,sans-Serif" font-size="10.00">/fixed_mesh_ale_utilities.cpp</text>
</a>
</g>
</g>
<!-- Node4&#45;&gt;Node10 -->
<g id="edge11" class="edge">
<title>Node4&#45;&gt;Node10</title>
<path fill="none" stroke="midnightblue" d="M989.63,-185.02C917.5,-173.48 823.79,-157.85 741,-142 738.12,-141.45 735.2,-140.88 732.25,-140.3"/>
<polygon fill="midnightblue" stroke="midnightblue" points="989.24,-188.5 999.66,-186.62 990.34,-181.58 989.24,-188.5"/>
</g>
<!-- Node11 -->
<g id="node11" class="node">
<title>Node11</title>
<g id="a_node11"><a xlink:href="../../d6/ddd/move__mesh__utilities_8cpp.html" target="_top" xlink:title=" ">
<polygon fill="none" stroke="black" points="1241,-89.5 1241,-141.5 1459,-141.5 1459,-89.5 1241,-89.5"/>
<text text-anchor="start" x="1249" y="-129.5" font-family="Helvetica,sans-Serif" font-size="10.00">/home/runner/work/Documentation</text>
<text text-anchor="start" x="1249" y="-118.5" font-family="Helvetica,sans-Serif" font-size="10.00">/Documentation/master/applications</text>
<text text-anchor="start" x="1249" y="-107.5" font-family="Helvetica,sans-Serif" font-size="10.00">/MeshMovingApplication/custom_utilities</text>
<text text-anchor="middle" x="1350" y="-96.5" font-family="Helvetica,sans-Serif" font-size="10.00">/move_mesh_utilities.cpp</text>
</a>
</g>
</g>
<!-- Node4&#45;&gt;Node11 -->
<g id="edge12" class="edge">
<title>Node4&#45;&gt;Node11</title>
<path fill="none" stroke="midnightblue" d="M1187.95,-175C1217.88,-164.19 1251.71,-151.98 1280.69,-141.52"/>
<polygon fill="midnightblue" stroke="midnightblue" points="1186.6,-171.77 1178.38,-178.45 1188.98,-178.35 1186.6,-171.77"/>
</g>
<!-- Node8 -->
<g id="node8" class="node">
<title>Node8</title>
<g id="a_node8"><a xlink:href="../../dd/d3c/_mesh_moving_application_2custom__python_2add__custom__strategies__to__python_8cpp.html" target="_top" xlink:title=" ">
<polygon fill="none" stroke="black" points="139.5,-0.5 139.5,-52.5 354.5,-52.5 354.5,-0.5 139.5,-0.5"/>
<text text-anchor="start" x="147.5" y="-40.5" font-family="Helvetica,sans-Serif" font-size="10.00">/home/runner/work/Documentation</text>
<text text-anchor="start" x="147.5" y="-29.5" font-family="Helvetica,sans-Serif" font-size="10.00">/Documentation/master/applications</text>
<text text-anchor="start" x="147.5" y="-18.5" font-family="Helvetica,sans-Serif" font-size="10.00">/MeshMovingApplication/custom_python</text>
<text text-anchor="middle" x="247" y="-7.5" font-family="Helvetica,sans-Serif" font-size="10.00">/add_custom_strategies_to_python.cpp</text>
</a>
</g>
</g>
<!-- Node7&#45;&gt;Node8 -->
<g id="edge8" class="edge">
<title>Node7&#45;&gt;Node8</title>
<path fill="none" stroke="midnightblue" d="M164.6,-83.5C179.51,-73.37 195.87,-62.25 210.06,-52.61"/>
<polygon fill="midnightblue" stroke="midnightblue" points="162.33,-80.82 156.02,-89.34 166.26,-86.61 162.33,-80.82"/>
</g>
<!-- Node9&#45;&gt;Node8 -->
<g id="edge10" class="edge">
<title>Node9&#45;&gt;Node8</title>
<path fill="none" stroke="midnightblue" d="M330.04,-83.5C315.02,-73.37 298.53,-62.25 284.23,-52.61"/>
<polygon fill="midnightblue" stroke="midnightblue" points="328.44,-86.65 338.69,-89.34 332.35,-80.84 328.44,-86.65"/>
</g>
<!-- Node12&#45;&gt;Node2 -->
<g id="edge14" class="edge">
<title>Node12&#45;&gt;Node2</title>
<path fill="none" stroke="midnightblue" d="M1484.69,-262.65C1500.28,-254.06 1515.69,-243.54 1528,-231 1553.04,-205.49 1569.13,-166.78 1577.62,-141.56"/>
<polygon fill="midnightblue" stroke="midnightblue" points="1482.73,-259.73 1475.52,-267.49 1485.99,-265.92 1482.73,-259.73"/>
</g>
<!-- Node12&#45;&gt;Node4 -->
<g id="edge16" class="edge">
<title>Node12&#45;&gt;Node4</title>
<path fill="none" stroke="midnightblue" d="M1313.33,-264.56C1275.47,-253.62 1232.38,-241.16 1195.57,-230.52"/>
<polygon fill="midnightblue" stroke="midnightblue" points="1312.76,-268.04 1323.34,-267.45 1314.71,-261.31 1312.76,-268.04"/>
</g>
<!-- Node12&#45;&gt;Node11 -->
<g id="edge15" class="edge">
<title>Node12&#45;&gt;Node11</title>
<path fill="none" stroke="midnightblue" d="M1323.49,-262.01C1310.94,-253.87 1299.69,-243.68 1292,-231 1279.78,-210.86 1283.31,-199.89 1292,-178 1297.47,-164.22 1307.65,-151.74 1317.98,-141.68"/>
<polygon fill="midnightblue" stroke="midnightblue" points="1321.97,-265.19 1332.35,-267.33 1325.58,-259.19 1321.97,-265.19"/>
</g>
<!-- Node13 -->
<g id="node13" class="node">
<title>Node13</title>
<g id="a_node13"><a xlink:href="../../db/d4e/parametric__affine__transform_8cpp.html" target="_top" xlink:title=" ">
<polygon fill="none" stroke="black" points="1301,-178.5 1301,-230.5 1519,-230.5 1519,-178.5 1301,-178.5"/>
<text text-anchor="start" x="1309" y="-218.5" font-family="Helvetica,sans-Serif" font-size="10.00">/home/runner/work/Documentation</text>
<text text-anchor="start" x="1309" y="-207.5" font-family="Helvetica,sans-Serif" font-size="10.00">/Documentation/master/applications</text>
<text text-anchor="start" x="1309" y="-196.5" font-family="Helvetica,sans-Serif" font-size="10.00">/MeshMovingApplication/custom_utilities</text>
<text text-anchor="middle" x="1410" y="-185.5" font-family="Helvetica,sans-Serif" font-size="10.00">/parametric_affine_transform.cpp</text>
</a>
</g>
</g>
<!-- Node12&#45;&gt;Node13 -->
<g id="edge17" class="edge">
<title>Node12&#45;&gt;Node13</title>
<path fill="none" stroke="midnightblue" d="M1410,-257.19C1410,-248.28 1410,-238.9 1410,-230.61"/>
<polygon fill="midnightblue" stroke="midnightblue" points="1406.5,-257.34 1410,-267.34 1413.5,-257.34 1406.5,-257.34"/>
</g>
</g>
</svg>
