<?xml version="1.0" encoding="UTF-8" standalone="no"?>
<!DOCTYPE svg PUBLIC "-//W3C//DTD SVG 1.1//EN"
 "http://www.w3.org/Graphics/SVG/1.1/DTD/svg11.dtd">
<!-- Generated by graphviz version 2.43.0 (0)
 -->
<!-- Title: Kratos::SphericParticle::ParticleDataBuffer Pages: 1 -->
<svg width="559pt" height="358pt"
 viewBox="0.00 0.00 558.50 358.00" xmlns="http://www.w3.org/2000/svg" xmlns:xlink="http://www.w3.org/1999/xlink">
<g id="graph0" class="graph" transform="scale(1 1) rotate(0) translate(4 354)">
<title>Kratos::SphericParticle::ParticleDataBuffer</title>
<!-- Node1 -->
<g id="node1" class="node">
<title>Node1</title>
<g id="a_node1"><a xlink:title=" ">
<polygon fill="#bfbfbf" stroke="black" points="226.5,-127.5 226.5,-349.5 381.5,-349.5 381.5,-127.5 226.5,-127.5"/>
<text text-anchor="start" x="234.5" y="-337.5" font-family="Helvetica,sans-Serif" font-size="10.00">Kratos::SphericParticle</text>
<text text-anchor="middle" x="304" y="-326.5" font-family="Helvetica,sans-Serif" font-size="10.00">::ParticleDataBuffer</text>
<polyline fill="none" stroke="black" points="226.5,-319.5 381.5,-319.5 "/>
<text text-anchor="start" x="234.5" y="-307.5" font-family="Helvetica,sans-Serif" font-size="10.00">+ mMultiStageRHS</text>
<text text-anchor="start" x="234.5" y="-296.5" font-family="Helvetica,sans-Serif" font-size="10.00">+ mDomainIsPeriodic</text>
<text text-anchor="start" x="234.5" y="-285.5" font-family="Helvetica,sans-Serif" font-size="10.00">+ mDistance</text>
<text text-anchor="start" x="234.5" y="-274.5" font-family="Helvetica,sans-Serif" font-size="10.00">+ mRadiusSum</text>
<text text-anchor="start" x="234.5" y="-263.5" font-family="Helvetica,sans-Serif" font-size="10.00">+ mDt</text>
<text text-anchor="start" x="234.5" y="-252.5" font-family="Helvetica,sans-Serif" font-size="10.00">+ mOtherRadius</text>
<text text-anchor="start" x="234.5" y="-241.5" font-family="Helvetica,sans-Serif" font-size="10.00">+ mIndentation</text>
<text text-anchor="start" x="234.5" y="-230.5" font-family="Helvetica,sans-Serif" font-size="10.00">+ mMyCoors</text>
<text text-anchor="start" x="234.5" y="-219.5" font-family="Helvetica,sans-Serif" font-size="10.00">+ mOtherCoors</text>
<text text-anchor="start" x="234.5" y="-208.5" font-family="Helvetica,sans-Serif" font-size="10.00">+ mLocalRelVel</text>
<text text-anchor="start" x="234.5" y="-197.5" font-family="Helvetica,sans-Serif" font-size="10.00">and 10 more...</text>
<polyline fill="none" stroke="black" points="226.5,-190.5 381.5,-190.5 "/>
<text text-anchor="start" x="234.5" y="-178.5" font-family="Helvetica,sans-Serif" font-size="10.00">+ ParticleDataBuffer()</text>
<text text-anchor="start" x="234.5" y="-167.5" font-family="Helvetica,sans-Serif" font-size="10.00">+ ~ParticleDataBuffer()</text>
<text text-anchor="start" x="234.5" y="-156.5" font-family="Helvetica,sans-Serif" font-size="10.00">+ SetNextNeighbourOrExit()</text>
<text text-anchor="start" x="234.5" y="-145.5" font-family="Helvetica,sans-Serif" font-size="10.00">+ SetCurrentNeighbour()</text>
<text text-anchor="start" x="234.5" y="-134.5" font-family="Helvetica,sans-Serif" font-size="10.00">+ SetBoundingBox()</text>
</a>
</g>
</g>
<!-- Node2 -->
<g id="node2" class="node">
<title>Node2</title>
<g id="a_node2"><a xlink:href="../../d5/d78/class_kratos_1_1_analytic_spheric_particle_1_1_particle_data_buffer.html" target="_top" xlink:title=" ">
<polygon fill="none" stroke="black" points="0,-0.5 0,-90.5 212,-90.5 212,-0.5 0,-0.5"/>
<text text-anchor="start" x="8" y="-78.5" font-family="Helvetica,sans-Serif" font-size="10.00">Kratos::AnalyticSphericParticle</text>
<text text-anchor="middle" x="106" y="-67.5" font-family="Helvetica,sans-Serif" font-size="10.00">::ParticleDataBuffer</text>
<polyline fill="none" stroke="black" points="0,-60.5 212,-60.5 "/>
<text text-anchor="start" x="8" y="-48.5" font-family="Helvetica,sans-Serif" font-size="10.00">+ mCurrentContactingNeighbourIds</text>
<text text-anchor="start" x="8" y="-37.5" font-family="Helvetica,sans-Serif" font-size="10.00">+ mCurrentContactingFaceNeighbourIds</text>
<polyline fill="none" stroke="black" points="0,-30.5 212,-30.5 "/>
<text text-anchor="start" x="8" y="-18.5" font-family="Helvetica,sans-Serif" font-size="10.00">+ ParticleDataBuffer()</text>
<text text-anchor="start" x="8" y="-7.5" font-family="Helvetica,sans-Serif" font-size="10.00">+ ~ParticleDataBuffer()</text>
</a>
</g>
</g>
<!-- Node1&#45;&gt;Node2 -->
<g id="edge1" class="edge">
<title>Node1&#45;&gt;Node2</title>
<path fill="none" stroke="midnightblue" d="M218.87,-155.38C195.81,-133.13 171.72,-109.9 151.75,-90.64"/>
<polygon fill="none" stroke="midnightblue" points="216.69,-158.14 226.31,-162.56 221.55,-153.1 216.69,-158.14"/>
</g>
<!-- Node3 -->
<g id="node3" class="node">
<title>Node3</title>
<g id="a_node3"><a xlink:href="../../d3/dc9/class_kratos_1_1_contact_info_spheric_particle_1_1_particle_data_buffer.html" target="_top" xlink:title=" ">
<polygon fill="none" stroke="black" points="230.5,-6 230.5,-85 377.5,-85 377.5,-6 230.5,-6"/>
<text text-anchor="start" x="238.5" y="-73" font-family="Helvetica,sans-Serif" font-size="10.00">Kratos::ContactInfoSpheric</text>
<text text-anchor="middle" x="304" y="-62" font-family="Helvetica,sans-Serif" font-size="10.00">Particle::ParticleDataBuffer</text>
<polyline fill="none" stroke="black" points="230.5,-55 377.5,-55 "/>
<text text-anchor="middle" x="304" y="-43" font-family="Helvetica,sans-Serif" font-size="10.00"> </text>
<polyline fill="none" stroke="black" points="230.5,-36 377.5,-36 "/>
<text text-anchor="start" x="238.5" y="-24" font-family="Helvetica,sans-Serif" font-size="10.00">+ ParticleDataBuffer()</text>
<text text-anchor="start" x="238.5" y="-13" font-family="Helvetica,sans-Serif" font-size="10.00">+ ~ParticleDataBuffer()</text>
</a>
</g>
</g>
<!-- Node1&#45;&gt;Node3 -->
<g id="edge2" class="edge">
<title>Node1&#45;&gt;Node3</title>
<path fill="none" stroke="midnightblue" d="M304,-117.09C304,-105.68 304,-94.79 304,-85.11"/>
<polygon fill="none" stroke="midnightblue" points="300.5,-117.22 304,-127.22 307.5,-117.22 300.5,-117.22"/>
</g>
<!-- Node4 -->
<g id="node4" class="node">
<title>Node4</title>
<g id="a_node4"><a xlink:href="../../d6/dbe/class_kratos_1_1_spheric_continuum_particle_1_1_particle_data_buffer.html" target="_top" xlink:title=" ">
<polygon fill="none" stroke="black" points="395.5,-0.5 395.5,-90.5 550.5,-90.5 550.5,-0.5 395.5,-0.5"/>
<text text-anchor="start" x="403.5" y="-78.5" font-family="Helvetica,sans-Serif" font-size="10.00">Kratos::SphericContinuum</text>
<text text-anchor="middle" x="473" y="-67.5" font-family="Helvetica,sans-Serif" font-size="10.00">Particle::ParticleDataBuffer</text>
<polyline fill="none" stroke="black" points="395.5,-60.5 550.5,-60.5 "/>
<text text-anchor="middle" x="473" y="-48.5" font-family="Helvetica,sans-Serif" font-size="10.00"> </text>
<polyline fill="none" stroke="black" points="395.5,-41.5 550.5,-41.5 "/>
<text text-anchor="start" x="403.5" y="-29.5" font-family="Helvetica,sans-Serif" font-size="10.00">+ ParticleDataBuffer()</text>
<text text-anchor="start" x="403.5" y="-18.5" font-family="Helvetica,sans-Serif" font-size="10.00">+ ~ParticleDataBuffer()</text>
<text text-anchor="start" x="403.5" y="-7.5" font-family="Helvetica,sans-Serif" font-size="10.00">+ SetNextNeighbourOrExit()</text>
</a>
</g>
</g>
<!-- Node1&#45;&gt;Node4 -->
<g id="edge3" class="edge">
<title>Node1&#45;&gt;Node4</title>
<path fill="none" stroke="midnightblue" d="M388.39,-142.12C404.31,-124.14 420.23,-106.14 433.89,-90.7"/>
<polygon fill="none" stroke="midnightblue" points="385.58,-140.02 381.58,-149.83 390.82,-144.66 385.58,-140.02"/>
</g>
</g>
</svg>
