<?xml version="1.0" encoding="UTF-8" standalone="no"?>
<!DOCTYPE svg PUBLIC "-//W3C//DTD SVG 1.1//EN"
 "http://www.w3.org/Graphics/SVG/1.1/DTD/svg11.dtd">
<!-- Generated by graphviz version 2.43.0 (0)
 -->
<!-- Title: /home/runner/work/Documentation/Documentation/master/applications/GeoMechanicsApplication/custom_utilities/interface_element_utilities.h Pages: 1 -->
<!--zoomable 839 -->
<svg id="main" version="1.1" xmlns="http://www.w3.org/2000/svg" xmlns:xlink="http://www.w3.org/1999/xlink" xml:space="preserve" onload="init(evt)">
<style type="text/css"><![CDATA[
.edge:hover path { stroke: red; }
.edge:hover polygon { stroke: red; fill: red; }
]]></style>
<script type="text/javascript"><![CDATA[
var edges = document.getElementsByTagName('g');
if (edges && edges.length) {
  for (var i=0;i<edges.length;i++) {
    if (edges[i].id.substr(0,4)=='edge') {
      edges[i].setAttribute('class','edge');
    }
  }
}
]]></script>
        <defs>
                <circle id="rim" cx="0" cy="0" r="7"/>
                <circle id="rim2" cx="0" cy="0" r="3.5"/>
                <g id="zoomPlus">
                        <use xlink:href="#rim" fill="#404040">
                                <set attributeName="fill" to="#808080" begin="zoomplus.mouseover" end="zoomplus.mouseout"/>
                        </use>
                        <path d="M-4,0h8M0,-4v8" fill="none" stroke="white" stroke-width="1.5" pointer-events="none"/>
                </g>
                <g id="zoomMin">
                        <use xlink:href="#rim" fill="#404040">
                                <set attributeName="fill" to="#808080" begin="zoomminus.mouseover" end="zoomminus.mouseout"/>
                        </use>
                        <path d="M-4,0h8" fill="none" stroke="white" stroke-width="1.5" pointer-events="none"/>
                </g>
                <g id="dirArrow">
                        <path fill="none" stroke="white" stroke-width="1.5" d="M0,-3.0v7 M-2.5,-0.5L0,-3.0L2.5,-0.5"/>
                </g>
               <g id="resetDef">
                       <use xlink:href="#rim2" fill="#404040">
                               <set attributeName="fill" to="#808080" begin="reset.mouseover" end="reset.mouseout"/>
                       </use>
               </g>
        </defs>

<script type="text/javascript">
var viewWidth = 1685;
var viewHeight = 839;
var sectionId = 'dynsection-1';
</script>
<script xlink:href="../../svgpan.js"/>
<svg id="graph" class="graph">
<g id="viewport">
<title>/home/runner/work/Documentation/Documentation/master/applications/GeoMechanicsApplication/custom_utilities/interface_element_utilities.h</title>
<!-- Node1 -->
<g id="node1" class="node">
<title>Node1</title>
<g id="a_node1"><a xlink:title=" ">
<polygon fill="#bfbfbf" stroke="black" points="824,-778.5 824,-830.5 1026,-830.5 1026,-778.5 824,-778.5"/>
<text text-anchor="start" x="832" y="-818.5" font-family="Helvetica,sans-Serif" font-size="10.00">/home/runner/work/Documentation</text>
<text text-anchor="start" x="832" y="-807.5" font-family="Helvetica,sans-Serif" font-size="10.00">/Documentation/master/applications</text>
<text text-anchor="start" x="832" y="-796.5" font-family="Helvetica,sans-Serif" font-size="10.00">/GeoMechanicsApplication/custom</text>
<text text-anchor="middle" x="925" y="-785.5" font-family="Helvetica,sans-Serif" font-size="10.00">_utilities/interface_element_utilities.h</text>
</a>
</g>
</g>
<!-- Node2 -->
<g id="node2" class="node">
<title>Node2</title>
<g id="a_node2"><a xlink:href="../../dc/dd9/_u___pw__face__load__interface__condition_8hpp.html" target="_top" xlink:title=" ">
<polygon fill="none" stroke="black" points="1031.5,-678.5 1031.5,-741.5 1234.5,-741.5 1234.5,-678.5 1031.5,-678.5"/>
<text text-anchor="start" x="1039.5" y="-729.5" font-family="Helvetica,sans-Serif" font-size="10.00">/home/runner/work/Documentation</text>
<text text-anchor="start" x="1039.5" y="-718.5" font-family="Helvetica,sans-Serif" font-size="10.00">/Documentation/master/applications</text>
<text text-anchor="start" x="1039.5" y="-707.5" font-family="Helvetica,sans-Serif" font-size="10.00">/GeoMechanicsApplication/custom</text>
<text text-anchor="start" x="1039.5" y="-696.5" font-family="Helvetica,sans-Serif" font-size="10.00">_conditions/U_Pw_face_load_interface</text>
<text text-anchor="middle" x="1133" y="-685.5" font-family="Helvetica,sans-Serif" font-size="10.00">_condition.hpp</text>
</a>
</g>
</g>
<!-- Node1&#45;&gt;Node2 -->
<g id="edge1" class="edge">
<title>Node1&#45;&gt;Node2</title>
<path fill="none" stroke="midnightblue" d="M990.44,-774.4C1013.87,-763.98 1040.34,-752.21 1064.05,-741.66"/>
<polygon fill="midnightblue" stroke="midnightblue" points="989,-771.21 981.29,-778.47 991.85,-777.6 989,-771.21"/>
</g>
<!-- Node4 -->
<g id="node4" class="node">
<title>Node4</title>
<g id="a_node4"><a xlink:href="../../d2/d0a/_u___pw__normal__flux__interface__condition_8hpp.html" target="_top" xlink:title=" ">
<polygon fill="none" stroke="black" points="1040,-578.5 1040,-641.5 1254,-641.5 1254,-578.5 1040,-578.5"/>
<text text-anchor="start" x="1048" y="-629.5" font-family="Helvetica,sans-Serif" font-size="10.00">/home/runner/work/Documentation</text>
<text text-anchor="start" x="1048" y="-618.5" font-family="Helvetica,sans-Serif" font-size="10.00">/Documentation/master/applications</text>
<text text-anchor="start" x="1048" y="-607.5" font-family="Helvetica,sans-Serif" font-size="10.00">/GeoMechanicsApplication/custom</text>
<text text-anchor="start" x="1048" y="-596.5" font-family="Helvetica,sans-Serif" font-size="10.00">_conditions/U_Pw_normal_flux_interface</text>
<text text-anchor="middle" x="1147" y="-585.5" font-family="Helvetica,sans-Serif" font-size="10.00">_condition.hpp</text>
</a>
</g>
</g>
<!-- Node1&#45;&gt;Node4 -->
<g id="edge16" class="edge">
<title>Node1&#45;&gt;Node4</title>
<path fill="none" stroke="midnightblue" d="M945.3,-769.88C963,-742.62 990.71,-704.49 1022,-678 1038.54,-664 1058.48,-651.71 1077.52,-641.61"/>
<polygon fill="midnightblue" stroke="midnightblue" points="942.34,-768.02 939.91,-778.33 948.24,-771.78 942.34,-768.02"/>
</g>
<!-- Node15 -->
<g id="node15" class="node">
<title>Node15</title>
<g id="a_node15"><a xlink:href="../../d4/d1d/steady__state___pw__interface__element_8hpp.html" target="_top" xlink:title=" ">
<polygon fill="none" stroke="black" points="278,-478.5 278,-541.5 480,-541.5 480,-478.5 278,-478.5"/>
<text text-anchor="start" x="286" y="-529.5" font-family="Helvetica,sans-Serif" font-size="10.00">/home/runner/work/Documentation</text>
<text text-anchor="start" x="286" y="-518.5" font-family="Helvetica,sans-Serif" font-size="10.00">/Documentation/master/applications</text>
<text text-anchor="start" x="286" y="-507.5" font-family="Helvetica,sans-Serif" font-size="10.00">/GeoMechanicsApplication/custom</text>
<text text-anchor="start" x="286" y="-496.5" font-family="Helvetica,sans-Serif" font-size="10.00">_elements/steady_state_Pw_interface</text>
<text text-anchor="middle" x="379" y="-485.5" font-family="Helvetica,sans-Serif" font-size="10.00">_element.hpp</text>
</a>
</g>
</g>
<!-- Node1&#45;&gt;Node15 -->
<g id="edge17" class="edge">
<title>Node1&#45;&gt;Node15</title>
<path fill="none" stroke="midnightblue" d="M813.86,-792.05C650.38,-772.53 358.19,-726.47 301,-642 285.05,-618.45 289.13,-603.85 301,-578 307.48,-563.89 318.57,-551.63 330.38,-541.59"/>
<polygon fill="midnightblue" stroke="midnightblue" points="813.62,-795.55 823.96,-793.25 814.44,-788.6 813.62,-795.55"/>
</g>
<!-- Node17 -->
<g id="node17" class="node">
<title>Node17</title>
<g id="a_node17"><a xlink:href="../../d0/dc7/steady__state___pw__piping__element_8hpp.html" target="_top" xlink:title=" ">
<polygon fill="none" stroke="black" points="157,-378.5 157,-441.5 351,-441.5 351,-378.5 157,-378.5"/>
<text text-anchor="start" x="165" y="-429.5" font-family="Helvetica,sans-Serif" font-size="10.00">/home/runner/work/Documentation</text>
<text text-anchor="start" x="165" y="-418.5" font-family="Helvetica,sans-Serif" font-size="10.00">/Documentation/master/applications</text>
<text text-anchor="start" x="165" y="-407.5" font-family="Helvetica,sans-Serif" font-size="10.00">/GeoMechanicsApplication/custom</text>
<text text-anchor="start" x="165" y="-396.5" font-family="Helvetica,sans-Serif" font-size="10.00">_elements/steady_state_Pw_piping</text>
<text text-anchor="middle" x="254" y="-385.5" font-family="Helvetica,sans-Serif" font-size="10.00">_element.hpp</text>
</a>
</g>
</g>
<!-- Node1&#45;&gt;Node17 -->
<g id="edge26" class="edge">
<title>Node1&#45;&gt;Node17</title>
<path fill="none" stroke="midnightblue" d="M813.54,-803.78C666.32,-802.14 416.92,-791.78 342,-742 242.71,-676.01 244.97,-510.35 250.61,-441.62"/>
<polygon fill="midnightblue" stroke="midnightblue" points="813.92,-807.28 823.96,-803.88 813.99,-800.28 813.92,-807.28"/>
</g>
<!-- Node21 -->
<g id="node21" class="node">
<title>Node21</title>
<g id="a_node21"><a xlink:href="../../d4/dd0/transient___pw__interface__element_8cpp.html" target="_top" xlink:title=" ">
<polygon fill="none" stroke="black" points="703,-478.5 703,-541.5 897,-541.5 897,-478.5 703,-478.5"/>
<text text-anchor="start" x="711" y="-529.5" font-family="Helvetica,sans-Serif" font-size="10.00">/home/runner/work/Documentation</text>
<text text-anchor="start" x="711" y="-518.5" font-family="Helvetica,sans-Serif" font-size="10.00">/Documentation/master/applications</text>
<text text-anchor="start" x="711" y="-507.5" font-family="Helvetica,sans-Serif" font-size="10.00">/GeoMechanicsApplication/custom</text>
<text text-anchor="start" x="711" y="-496.5" font-family="Helvetica,sans-Serif" font-size="10.00">_elements/transient_Pw_interface</text>
<text text-anchor="middle" x="800" y="-485.5" font-family="Helvetica,sans-Serif" font-size="10.00">_element.cpp</text>
</a>
</g>
</g>
<!-- Node1&#45;&gt;Node21 -->
<g id="edge27" class="edge">
<title>Node1&#45;&gt;Node21</title>
<path fill="none" stroke="midnightblue" d="M896.97,-770.42C872.26,-739.36 837.39,-690.51 819,-642 806.53,-609.12 802.18,-568.75 800.7,-541.59"/>
<polygon fill="midnightblue" stroke="midnightblue" points="894.33,-772.73 903.34,-778.32 899.78,-768.33 894.33,-772.73"/>
</g>
<!-- Node22 -->
<g id="node22" class="node">
<title>Node22</title>
<g id="a_node22"><a xlink:href="../../d6/d97/_u___pw__small__strain__interface__element_8hpp.html" target="_top" xlink:title=" ">
<polygon fill="none" stroke="black" points="560,-678.5 560,-741.5 772,-741.5 772,-678.5 560,-678.5"/>
<text text-anchor="start" x="568" y="-729.5" font-family="Helvetica,sans-Serif" font-size="10.00">/home/runner/work/Documentation</text>
<text text-anchor="start" x="568" y="-718.5" font-family="Helvetica,sans-Serif" font-size="10.00">/Documentation/master/applications</text>
<text text-anchor="start" x="568" y="-707.5" font-family="Helvetica,sans-Serif" font-size="10.00">/GeoMechanicsApplication/custom</text>
<text text-anchor="start" x="568" y="-696.5" font-family="Helvetica,sans-Serif" font-size="10.00">_elements/U_Pw_small_strain_interface</text>
<text text-anchor="middle" x="666" y="-685.5" font-family="Helvetica,sans-Serif" font-size="10.00">_element.hpp</text>
</a>
</g>
</g>
<!-- Node1&#45;&gt;Node22 -->
<g id="edge28" class="edge">
<title>Node1&#45;&gt;Node22</title>
<path fill="none" stroke="midnightblue" d="M845.44,-775.09C815.8,-764.5 782.04,-752.44 751.86,-741.66"/>
<polygon fill="midnightblue" stroke="midnightblue" points="844.32,-778.4 854.91,-778.47 846.67,-771.81 844.32,-778.4"/>
</g>
<!-- Node25 -->
<g id="node25" class="node">
<title>Node25</title>
<g id="a_node25"><a xlink:href="../../d7/d44/_u___pw__small__strain__link__interface__element_8hpp.html" target="_top" xlink:title=" ">
<polygon fill="none" stroke="black" points="828,-578.5 828,-641.5 1022,-641.5 1022,-578.5 828,-578.5"/>
<text text-anchor="start" x="836" y="-629.5" font-family="Helvetica,sans-Serif" font-size="10.00">/home/runner/work/Documentation</text>
<text text-anchor="start" x="836" y="-618.5" font-family="Helvetica,sans-Serif" font-size="10.00">/Documentation/master/applications</text>
<text text-anchor="start" x="836" y="-607.5" font-family="Helvetica,sans-Serif" font-size="10.00">/GeoMechanicsApplication/custom</text>
<text text-anchor="start" x="836" y="-596.5" font-family="Helvetica,sans-Serif" font-size="10.00">_elements/U_Pw_small_strain_link</text>
<text text-anchor="middle" x="925" y="-585.5" font-family="Helvetica,sans-Serif" font-size="10.00">_interface_element.hpp</text>
</a>
</g>
</g>
<!-- Node1&#45;&gt;Node25 -->
<g id="edge38" class="edge">
<title>Node1&#45;&gt;Node25</title>
<path fill="none" stroke="midnightblue" d="M925,-768.2C925,-731.93 925,-676.02 925,-641.57"/>
<polygon fill="midnightblue" stroke="midnightblue" points="921.5,-768.33 925,-778.33 928.5,-768.33 921.5,-768.33"/>
</g>
<!-- Node27 -->
<g id="node27" class="node">
<title>Node27</title>
<g id="a_node27"><a xlink:href="../../d8/d41/_geo_mechanics_application_2custom__python_2add__custom__utilities__to__python_8cpp.html" target="_top" xlink:title=" ">
<polygon fill="none" stroke="black" points="1252,-678.5 1252,-741.5 1446,-741.5 1446,-678.5 1252,-678.5"/>
<text text-anchor="start" x="1260" y="-729.5" font-family="Helvetica,sans-Serif" font-size="10.00">/home/runner/work/Documentation</text>
<text text-anchor="start" x="1260" y="-718.5" font-family="Helvetica,sans-Serif" font-size="10.00">/Documentation/master/applications</text>
<text text-anchor="start" x="1260" y="-707.5" font-family="Helvetica,sans-Serif" font-size="10.00">/GeoMechanicsApplication/custom</text>
<text text-anchor="start" x="1260" y="-696.5" font-family="Helvetica,sans-Serif" font-size="10.00">_python/add_custom_utilities_to</text>
<text text-anchor="middle" x="1349" y="-685.5" font-family="Helvetica,sans-Serif" font-size="10.00">_python.cpp</text>
</a>
</g>
</g>
<!-- Node1&#45;&gt;Node27 -->
<g id="edge39" class="edge">
<title>Node1&#45;&gt;Node27</title>
<path fill="none" stroke="midnightblue" d="M1036.22,-784.62C1097.52,-773.56 1174.8,-758.53 1243,-742 1245.89,-741.3 1248.82,-740.57 1251.77,-739.82"/>
<polygon fill="midnightblue" stroke="midnightblue" points="1035.36,-781.22 1026.13,-786.43 1036.59,-788.11 1035.36,-781.22"/>
</g>
<!-- Node28 -->
<g id="node28" class="node">
<title>Node28</title>
<g id="a_node28"><a xlink:href="../../dd/d1e/interface__element__utilities_8cpp.html" target="_top" xlink:title=" ">
<polygon fill="none" stroke="black" points="1463.5,-684 1463.5,-736 1676.5,-736 1676.5,-684 1463.5,-684"/>
<text text-anchor="start" x="1471.5" y="-724" font-family="Helvetica,sans-Serif" font-size="10.00">/home/runner/work/Documentation</text>
<text text-anchor="start" x="1471.5" y="-713" font-family="Helvetica,sans-Serif" font-size="10.00">/Documentation/master/applications</text>
<text text-anchor="start" x="1471.5" y="-702" font-family="Helvetica,sans-Serif" font-size="10.00">/GeoMechanicsApplication/custom</text>
<text text-anchor="middle" x="1570" y="-691" font-family="Helvetica,sans-Serif" font-size="10.00">_utilities/interface_element_utilities.cpp</text>
</a>
</g>
</g>
<!-- Node1&#45;&gt;Node28 -->
<g id="edge40" class="edge">
<title>Node1&#45;&gt;Node28</title>
<path fill="none" stroke="midnightblue" d="M1036.53,-795.38C1144.29,-786.4 1311.79,-769.46 1455,-742 1463.94,-740.29 1473.2,-738.25 1482.41,-736.04"/>
<polygon fill="midnightblue" stroke="midnightblue" points="1035.97,-791.91 1026.29,-796.22 1036.55,-798.89 1035.97,-791.91"/>
</g>
<!-- Node3 -->
<g id="node3" class="node">
<title>Node3</title>
<g id="a_node3"><a xlink:href="../../d2/d36/_u___pw__face__load__interface__condition_8cpp.html" target="_top" xlink:title=" ">
<polygon fill="none" stroke="black" points="1271.5,-578.5 1271.5,-641.5 1474.5,-641.5 1474.5,-578.5 1271.5,-578.5"/>
<text text-anchor="start" x="1279.5" y="-629.5" font-family="Helvetica,sans-Serif" font-size="10.00">/home/runner/work/Documentation</text>
<text text-anchor="start" x="1279.5" y="-618.5" font-family="Helvetica,sans-Serif" font-size="10.00">/Documentation/master/applications</text>
<text text-anchor="start" x="1279.5" y="-607.5" font-family="Helvetica,sans-Serif" font-size="10.00">/GeoMechanicsApplication/custom</text>
<text text-anchor="start" x="1279.5" y="-596.5" font-family="Helvetica,sans-Serif" font-size="10.00">_conditions/U_Pw_face_load_interface</text>
<text text-anchor="middle" x="1373" y="-585.5" font-family="Helvetica,sans-Serif" font-size="10.00">_condition.cpp</text>
</a>
</g>
</g>
<!-- Node2&#45;&gt;Node3 -->
<g id="edge2" class="edge">
<title>Node2&#45;&gt;Node3</title>
<path fill="none" stroke="midnightblue" d="M1217.52,-674.49C1243.82,-663.75 1272.62,-651.99 1298.21,-641.54"/>
<polygon fill="midnightblue" stroke="midnightblue" points="1215.89,-671.37 1207.95,-678.4 1218.53,-677.86 1215.89,-671.37"/>
</g>
<!-- Node2&#45;&gt;Node4 -->
<g id="edge3" class="edge">
<title>Node2&#45;&gt;Node4</title>
<path fill="none" stroke="midnightblue" d="M1138.84,-668.1C1140.11,-659.24 1141.43,-650.01 1142.62,-641.63"/>
<polygon fill="midnightblue" stroke="midnightblue" points="1135.34,-667.87 1137.39,-678.26 1142.27,-668.86 1135.34,-667.87"/>
</g>
<!-- Node6 -->
<g id="node6" class="node">
<title>Node6</title>
<g id="a_node6"><a xlink:href="../../d5/d83/geo__mechanics__application_8h.html" target="_top" xlink:title=" ">
<polygon fill="none" stroke="black" points="563,-284 563,-336 787,-336 787,-284 563,-284"/>
<text text-anchor="start" x="571" y="-324" font-family="Helvetica,sans-Serif" font-size="10.00">/home/runner/work/Documentation</text>
<text text-anchor="start" x="571" y="-313" font-family="Helvetica,sans-Serif" font-size="10.00">/Documentation/master/applications</text>
<text text-anchor="start" x="571" y="-302" font-family="Helvetica,sans-Serif" font-size="10.00">/GeoMechanicsApplication/geo_mechanics</text>
<text text-anchor="middle" x="675" y="-291" font-family="Helvetica,sans-Serif" font-size="10.00">_application.h</text>
</a>
</g>
</g>
<!-- Node2&#45;&gt;Node6 -->
<g id="edge15" class="edge">
<title>Node2&#45;&gt;Node6</title>
<path fill="none" stroke="midnightblue" d="M1244.73,-678.04C1310.87,-668.16 1449.59,-680.79 1483,-642 1533.36,-583.53 1486.32,-526.13 1426,-478 1328.25,-400 971.7,-346.76 787.25,-323.79"/>
<polygon fill="midnightblue" stroke="midnightblue" points="1243.99,-674.62 1234.77,-679.83 1245.23,-681.51 1243.99,-674.62"/>
</g>
<!-- Node5 -->
<g id="node5" class="node">
<title>Node5</title>
<g id="a_node5"><a xlink:href="../../d4/d1e/_u___pw__normal__flux__interface__condition_8cpp.html" target="_top" xlink:title=" ">
<polygon fill="none" stroke="black" points="1203,-478.5 1203,-541.5 1417,-541.5 1417,-478.5 1203,-478.5"/>
<text text-anchor="start" x="1211" y="-529.5" font-family="Helvetica,sans-Serif" font-size="10.00">/home/runner/work/Documentation</text>
<text text-anchor="start" x="1211" y="-518.5" font-family="Helvetica,sans-Serif" font-size="10.00">/Documentation/master/applications</text>
<text text-anchor="start" x="1211" y="-507.5" font-family="Helvetica,sans-Serif" font-size="10.00">/GeoMechanicsApplication/custom</text>
<text text-anchor="start" x="1211" y="-496.5" font-family="Helvetica,sans-Serif" font-size="10.00">_conditions/U_Pw_normal_flux_interface</text>
<text text-anchor="middle" x="1310" y="-485.5" font-family="Helvetica,sans-Serif" font-size="10.00">_condition.cpp</text>
</a>
</g>
</g>
<!-- Node4&#45;&gt;Node5 -->
<g id="edge4" class="edge">
<title>Node4&#45;&gt;Node5</title>
<path fill="none" stroke="midnightblue" d="M1206.93,-572.97C1224.05,-562.68 1242.53,-551.56 1259.05,-541.63"/>
<polygon fill="midnightblue" stroke="midnightblue" points="1204.89,-570.11 1198.13,-578.26 1208.5,-576.11 1204.89,-570.11"/>
</g>
<!-- Node4&#45;&gt;Node6 -->
<g id="edge5" class="edge">
<title>Node4&#45;&gt;Node6</title>
<path fill="none" stroke="midnightblue" d="M1162.29,-568.6C1170.08,-540.66 1174.48,-503.97 1156,-478 1072.67,-360.86 901.11,-325.15 787.04,-314.69"/>
<polygon fill="midnightblue" stroke="midnightblue" points="1158.85,-567.88 1159.3,-578.46 1165.55,-569.91 1158.85,-567.88"/>
</g>
<!-- Node7 -->
<g id="node7" class="node">
<title>Node7</title>
<g id="a_node7"><a xlink:href="../../da/d42/dgeoflow_8h.html" target="_top" xlink:title=" ">
<polygon fill="none" stroke="black" points="359,-184 359,-236 553,-236 553,-184 359,-184"/>
<text text-anchor="start" x="367" y="-224" font-family="Helvetica,sans-Serif" font-size="10.00">/home/runner/work/Documentation</text>
<text text-anchor="start" x="367" y="-213" font-family="Helvetica,sans-Serif" font-size="10.00">/Documentation/master/applications</text>
<text text-anchor="start" x="367" y="-202" font-family="Helvetica,sans-Serif" font-size="10.00">/GeoMechanicsApplication/custom</text>
<text text-anchor="middle" x="456" y="-191" font-family="Helvetica,sans-Serif" font-size="10.00">_workflows/dgeoflow.h</text>
</a>
</g>
</g>
<!-- Node6&#45;&gt;Node7 -->
<g id="edge6" class="edge">
<title>Node6&#45;&gt;Node7</title>
<path fill="none" stroke="midnightblue" d="M609.45,-279.67C578.39,-265.77 541.69,-249.35 511.97,-236.04"/>
<polygon fill="midnightblue" stroke="midnightblue" points="608.33,-283 618.89,-283.89 611.19,-276.61 608.33,-283"/>
</g>
<!-- Node11 -->
<g id="node11" class="node">
<title>Node11</title>
<g id="a_node11"><a xlink:href="../../d4/d4c/dgeosettlement_8h.html" target="_top" xlink:title=" ">
<polygon fill="none" stroke="black" points="578,-184 578,-236 772,-236 772,-184 578,-184"/>
<text text-anchor="start" x="586" y="-224" font-family="Helvetica,sans-Serif" font-size="10.00">/home/runner/work/Documentation</text>
<text text-anchor="start" x="586" y="-213" font-family="Helvetica,sans-Serif" font-size="10.00">/Documentation/master/applications</text>
<text text-anchor="start" x="586" y="-202" font-family="Helvetica,sans-Serif" font-size="10.00">/GeoMechanicsApplication/custom</text>
<text text-anchor="middle" x="675" y="-191" font-family="Helvetica,sans-Serif" font-size="10.00">_workflows/dgeosettlement.h</text>
</a>
</g>
</g>
<!-- Node6&#45;&gt;Node11 -->
<g id="edge10" class="edge">
<title>Node6&#45;&gt;Node11</title>
<path fill="none" stroke="midnightblue" d="M675,-273.7C675,-261.28 675,-247.57 675,-236.15"/>
<polygon fill="midnightblue" stroke="midnightblue" points="671.5,-273.76 675,-283.76 678.5,-273.76 671.5,-273.76"/>
</g>
<!-- Node14 -->
<g id="node14" class="node">
<title>Node14</title>
<g id="a_node14"><a xlink:href="../../df/dc4/geo__mechanics__application_8cpp.html" target="_top" xlink:title=" ">
<polygon fill="none" stroke="black" points="790,-184 790,-236 1014,-236 1014,-184 790,-184"/>
<text text-anchor="start" x="798" y="-224" font-family="Helvetica,sans-Serif" font-size="10.00">/home/runner/work/Documentation</text>
<text text-anchor="start" x="798" y="-213" font-family="Helvetica,sans-Serif" font-size="10.00">/Documentation/master/applications</text>
<text text-anchor="start" x="798" y="-202" font-family="Helvetica,sans-Serif" font-size="10.00">/GeoMechanicsApplication/geo_mechanics</text>
<text text-anchor="middle" x="902" y="-191" font-family="Helvetica,sans-Serif" font-size="10.00">_application.cpp</text>
</a>
</g>
</g>
<!-- Node6&#45;&gt;Node14 -->
<g id="edge14" class="edge">
<title>Node6&#45;&gt;Node14</title>
<path fill="none" stroke="midnightblue" d="M742.53,-279.84C774.81,-265.91 813.05,-249.4 843.99,-236.04"/>
<polygon fill="midnightblue" stroke="midnightblue" points="740.96,-276.71 733.16,-283.89 743.73,-283.14 740.96,-276.71"/>
</g>
<!-- Node8 -->
<g id="node8" class="node">
<title>Node8</title>
<g id="a_node8"><a xlink:href="../../d7/d88/dgeoflow_8cpp.html" target="_top" xlink:title=" ">
<polygon fill="none" stroke="black" points="145,-89.5 145,-141.5 339,-141.5 339,-89.5 145,-89.5"/>
<text text-anchor="start" x="153" y="-129.5" font-family="Helvetica,sans-Serif" font-size="10.00">/home/runner/work/Documentation</text>
<text text-anchor="start" x="153" y="-118.5" font-family="Helvetica,sans-Serif" font-size="10.00">/Documentation/master/applications</text>
<text text-anchor="start" x="153" y="-107.5" font-family="Helvetica,sans-Serif" font-size="10.00">/GeoMechanicsApplication/custom</text>
<text text-anchor="middle" x="242" y="-96.5" font-family="Helvetica,sans-Serif" font-size="10.00">_workflows/dgeoflow.cpp</text>
</a>
</g>
</g>
<!-- Node7&#45;&gt;Node8 -->
<g id="edge7" class="edge">
<title>Node7&#45;&gt;Node8</title>
<path fill="none" stroke="midnightblue" d="M388.62,-179.87C360.15,-167.57 327.32,-153.38 299.96,-141.55"/>
<polygon fill="midnightblue" stroke="midnightblue" points="387.52,-183.21 398.09,-183.97 390.3,-176.79 387.52,-183.21"/>
</g>
<!-- Node9 -->
<g id="node9" class="node">
<title>Node9</title>
<g id="a_node9"><a xlink:href="../../d4/d24/kratos__external__bindings_8h.html" target="_top" xlink:title=" ">
<polygon fill="none" stroke="black" points="357,-89.5 357,-141.5 555,-141.5 555,-89.5 357,-89.5"/>
<text text-anchor="start" x="365" y="-129.5" font-family="Helvetica,sans-Serif" font-size="10.00">/home/runner/work/Documentation</text>
<text text-anchor="start" x="365" y="-118.5" font-family="Helvetica,sans-Serif" font-size="10.00">/Documentation/master/applications</text>
<text text-anchor="start" x="365" y="-107.5" font-family="Helvetica,sans-Serif" font-size="10.00">/GeoMechanicsApplication/external</text>
<text text-anchor="middle" x="456" y="-96.5" font-family="Helvetica,sans-Serif" font-size="10.00">_bindings/kratos_external_bindings.h</text>
</a>
</g>
</g>
<!-- Node7&#45;&gt;Node9 -->
<g id="edge8" class="edge">
<title>Node7&#45;&gt;Node9</title>
<path fill="none" stroke="midnightblue" d="M456,-173.49C456,-162.91 456,-151.53 456,-141.75"/>
<polygon fill="midnightblue" stroke="midnightblue" points="452.5,-173.72 456,-183.72 459.5,-173.72 452.5,-173.72"/>
</g>
<!-- Node10 -->
<g id="node10" class="node">
<title>Node10</title>
<g id="a_node10"><a xlink:href="../../dd/d6d/_geo_mechanics_application_2external__bindings_2kratos__external__bindings_8cpp.html" target="_top" xlink:title=" ">
<polygon fill="none" stroke="black" points="351.5,-0.5 351.5,-52.5 560.5,-52.5 560.5,-0.5 351.5,-0.5"/>
<text text-anchor="start" x="359.5" y="-40.5" font-family="Helvetica,sans-Serif" font-size="10.00">/home/runner/work/Documentation</text>
<text text-anchor="start" x="359.5" y="-29.5" font-family="Helvetica,sans-Serif" font-size="10.00">/Documentation/master/applications</text>
<text text-anchor="start" x="359.5" y="-18.5" font-family="Helvetica,sans-Serif" font-size="10.00">/GeoMechanicsApplication/external</text>
<text text-anchor="middle" x="456" y="-7.5" font-family="Helvetica,sans-Serif" font-size="10.00">_bindings/kratos_external_bindings.cpp</text>
</a>
</g>
</g>
<!-- Node9&#45;&gt;Node10 -->
<g id="edge9" class="edge">
<title>Node9&#45;&gt;Node10</title>
<path fill="none" stroke="midnightblue" d="M456,-79.19C456,-70.28 456,-60.9 456,-52.61"/>
<polygon fill="midnightblue" stroke="midnightblue" points="452.5,-79.34 456,-89.34 459.5,-79.34 452.5,-79.34"/>
</g>
<!-- Node11&#45;&gt;Node9 -->
<g id="edge13" class="edge">
<title>Node11&#45;&gt;Node9</title>
<path fill="none" stroke="midnightblue" d="M606.42,-180.03C577.2,-167.69 543.44,-153.43 515.31,-141.55"/>
<polygon fill="midnightblue" stroke="midnightblue" points="605.16,-183.3 615.74,-183.97 607.89,-176.85 605.16,-183.3"/>
</g>
<!-- Node12 -->
<g id="node12" class="node">
<title>Node12</title>
<g id="a_node12"><a xlink:href="../../dc/d5d/custom__workflow__factory_8cpp.html" target="_top" xlink:title=" ">
<polygon fill="none" stroke="black" points="573,-89.5 573,-141.5 791,-141.5 791,-89.5 573,-89.5"/>
<text text-anchor="start" x="581" y="-129.5" font-family="Helvetica,sans-Serif" font-size="10.00">/home/runner/work/Documentation</text>
<text text-anchor="start" x="581" y="-118.5" font-family="Helvetica,sans-Serif" font-size="10.00">/Documentation/master/applications</text>
<text text-anchor="start" x="581" y="-107.5" font-family="Helvetica,sans-Serif" font-size="10.00">/GeoMechanicsApplication/custom</text>
<text text-anchor="middle" x="682" y="-96.5" font-family="Helvetica,sans-Serif" font-size="10.00">_workflows/custom_workflow_factory.cpp</text>
</a>
</g>
</g>
<!-- Node11&#45;&gt;Node12 -->
<g id="edge11" class="edge">
<title>Node11&#45;&gt;Node12</title>
<path fill="none" stroke="midnightblue" d="M677.69,-173.49C678.49,-162.91 679.35,-151.53 680.09,-141.75"/>
<polygon fill="midnightblue" stroke="midnightblue" points="674.18,-173.49 676.91,-183.72 681.16,-174.02 674.18,-173.49"/>
</g>
<!-- Node13 -->
<g id="node13" class="node">
<title>Node13</title>
<g id="a_node13"><a xlink:href="../../d3/d51/dgeosettlement_8cpp.html" target="_top" xlink:title=" ">
<polygon fill="none" stroke="black" points="809,-89.5 809,-141.5 1003,-141.5 1003,-89.5 809,-89.5"/>
<text text-anchor="start" x="817" y="-129.5" font-family="Helvetica,sans-Serif" font-size="10.00">/home/runner/work/Documentation</text>
<text text-anchor="start" x="817" y="-118.5" font-family="Helvetica,sans-Serif" font-size="10.00">/Documentation/master/applications</text>
<text text-anchor="start" x="817" y="-107.5" font-family="Helvetica,sans-Serif" font-size="10.00">/GeoMechanicsApplication/custom</text>
<text text-anchor="middle" x="906" y="-96.5" font-family="Helvetica,sans-Serif" font-size="10.00">_workflows/dgeosettlement.cpp</text>
</a>
</g>
</g>
<!-- Node11&#45;&gt;Node13 -->
<g id="edge12" class="edge">
<title>Node11&#45;&gt;Node13</title>
<path fill="none" stroke="midnightblue" d="M746.94,-180.19C777.85,-167.82 813.64,-153.48 843.44,-141.55"/>
<polygon fill="midnightblue" stroke="midnightblue" points="745.49,-177 737.51,-183.97 748.1,-183.5 745.49,-177"/>
</g>
<!-- Node15&#45;&gt;Node6 -->
<g id="edge25" class="edge">
<title>Node15&#45;&gt;Node6</title>
<path fill="none" stroke="midnightblue" d="M373.86,-468.32C372.6,-439.59 376.09,-402.06 398,-378 420.49,-353.31 496.29,-336.03 562.92,-325.21"/>
<polygon fill="midnightblue" stroke="midnightblue" points="370.38,-468.71 374.52,-478.46 377.37,-468.26 370.38,-468.71"/>
</g>
<!-- Node16 -->
<g id="node16" class="node">
<title>Node16</title>
<g id="a_node16"><a xlink:href="../../d4/db8/steady__state___pw__interface__element_8cpp.html" target="_top" xlink:title=" ">
<polygon fill="none" stroke="black" points="407,-378.5 407,-441.5 609,-441.5 609,-378.5 407,-378.5"/>
<text text-anchor="start" x="415" y="-429.5" font-family="Helvetica,sans-Serif" font-size="10.00">/home/runner/work/Documentation</text>
<text text-anchor="start" x="415" y="-418.5" font-family="Helvetica,sans-Serif" font-size="10.00">/Documentation/master/applications</text>
<text text-anchor="start" x="415" y="-407.5" font-family="Helvetica,sans-Serif" font-size="10.00">/GeoMechanicsApplication/custom</text>
<text text-anchor="start" x="415" y="-396.5" font-family="Helvetica,sans-Serif" font-size="10.00">_elements/steady_state_Pw_interface</text>
<text text-anchor="middle" x="508" y="-385.5" font-family="Helvetica,sans-Serif" font-size="10.00">_element.cpp</text>
</a>
</g>
</g>
<!-- Node15&#45;&gt;Node16 -->
<g id="edge18" class="edge">
<title>Node15&#45;&gt;Node16</title>
<path fill="none" stroke="midnightblue" d="M427.55,-472.11C440.78,-462.06 454.96,-451.29 467.68,-441.63"/>
<polygon fill="midnightblue" stroke="midnightblue" points="425.31,-469.42 419.46,-478.26 429.54,-475 425.31,-469.42"/>
</g>
<!-- Node15&#45;&gt;Node17 -->
<g id="edge19" class="edge">
<title>Node15&#45;&gt;Node17</title>
<path fill="none" stroke="midnightblue" d="M331.59,-471.83C318.87,-461.86 305.27,-451.2 293.07,-441.63"/>
<polygon fill="midnightblue" stroke="midnightblue" points="329.76,-474.85 339.79,-478.26 334.08,-469.34 329.76,-474.85"/>
</g>
<!-- Node17&#45;&gt;Node6 -->
<g id="edge24" class="edge">
<title>Node17&#45;&gt;Node6</title>
<path fill="none" stroke="midnightblue" d="M361.13,-378.97C362.42,-378.64 363.72,-378.32 365,-378 430.21,-361.86 503.67,-345.89 562.71,-333.59"/>
<polygon fill="midnightblue" stroke="midnightblue" points="359.9,-375.67 351.07,-381.53 361.63,-382.45 359.9,-375.67"/>
</g>
<!-- Node18 -->
<g id="node18" class="node">
<title>Node18</title>
<g id="a_node18"><a xlink:href="../../d9/d8e/steady__state___pw__piping__element_8cpp.html" target="_top" xlink:title=" ">
<polygon fill="none" stroke="black" points="0,-278.5 0,-341.5 194,-341.5 194,-278.5 0,-278.5"/>
<text text-anchor="start" x="8" y="-329.5" font-family="Helvetica,sans-Serif" font-size="10.00">/home/runner/work/Documentation</text>
<text text-anchor="start" x="8" y="-318.5" font-family="Helvetica,sans-Serif" font-size="10.00">/Documentation/master/applications</text>
<text text-anchor="start" x="8" y="-307.5" font-family="Helvetica,sans-Serif" font-size="10.00">/GeoMechanicsApplication/custom</text>
<text text-anchor="start" x="8" y="-296.5" font-family="Helvetica,sans-Serif" font-size="10.00">_elements/steady_state_Pw_piping</text>
<text text-anchor="middle" x="97" y="-285.5" font-family="Helvetica,sans-Serif" font-size="10.00">_element.cpp</text>
</a>
</g>
</g>
<!-- Node17&#45;&gt;Node18 -->
<g id="edge20" class="edge">
<title>Node17&#45;&gt;Node18</title>
<path fill="none" stroke="midnightblue" d="M196.27,-372.97C179.79,-362.68 161.98,-351.56 146.07,-341.63"/>
<polygon fill="midnightblue" stroke="midnightblue" points="194.42,-375.93 204.75,-378.26 198.13,-370 194.42,-375.93"/>
</g>
<!-- Node19 -->
<g id="node19" class="node">
<title>Node19</title>
<g id="a_node19"><a xlink:href="../../d2/d49/geo__mechanics__newton__raphson__erosion__process__strategy_8hpp.html" target="_top" xlink:title=" ">
<polygon fill="none" stroke="black" points="211.5,-278.5 211.5,-341.5 462.5,-341.5 462.5,-278.5 211.5,-278.5"/>
<text text-anchor="start" x="219.5" y="-329.5" font-family="Helvetica,sans-Serif" font-size="10.00">/home/runner/work/Documentation</text>
<text text-anchor="start" x="219.5" y="-318.5" font-family="Helvetica,sans-Serif" font-size="10.00">/Documentation/master/applications</text>
<text text-anchor="start" x="219.5" y="-307.5" font-family="Helvetica,sans-Serif" font-size="10.00">/GeoMechanicsApplication/custom</text>
<text text-anchor="start" x="219.5" y="-296.5" font-family="Helvetica,sans-Serif" font-size="10.00">_strategies/strategies/geo_mechanics</text>
<text text-anchor="middle" x="337" y="-285.5" font-family="Helvetica,sans-Serif" font-size="10.00">_newton_raphson_erosion_process_strategy.hpp</text>
</a>
</g>
</g>
<!-- Node17&#45;&gt;Node19 -->
<g id="edge21" class="edge">
<title>Node17&#45;&gt;Node19</title>
<path fill="none" stroke="midnightblue" d="M286.69,-370.4C294.78,-360.85 303.34,-350.74 311.06,-341.63"/>
<polygon fill="midnightblue" stroke="midnightblue" points="283.83,-368.37 280.03,-378.26 289.17,-372.89 283.83,-368.37"/>
</g>
<!-- Node19&#45;&gt;Node7 -->
<g id="edge23" class="edge">
<title>Node19&#45;&gt;Node7</title>
<path fill="none" stroke="midnightblue" d="M382.23,-271.75C396.72,-259.82 412.41,-246.9 425.58,-236.05"/>
<polygon fill="midnightblue" stroke="midnightblue" points="379.82,-269.2 374.33,-278.26 384.27,-274.61 379.82,-269.2"/>
</g>
<!-- Node20 -->
<g id="node20" class="node">
<title>Node20</title>
<g id="a_node20"><a xlink:href="../../d2/db7/_geo_mechanics_application_2custom__python_2add__custom__strategies__to__python_8cpp.html" target="_top" xlink:title=" ">
<polygon fill="none" stroke="black" points="147,-178.5 147,-241.5 341,-241.5 341,-178.5 147,-178.5"/>
<text text-anchor="start" x="155" y="-229.5" font-family="Helvetica,sans-Serif" font-size="10.00">/home/runner/work/Documentation</text>
<text text-anchor="start" x="155" y="-218.5" font-family="Helvetica,sans-Serif" font-size="10.00">/Documentation/master/applications</text>
<text text-anchor="start" x="155" y="-207.5" font-family="Helvetica,sans-Serif" font-size="10.00">/GeoMechanicsApplication/custom</text>
<text text-anchor="start" x="155" y="-196.5" font-family="Helvetica,sans-Serif" font-size="10.00">_python/add_custom_strategies_to</text>
<text text-anchor="middle" x="244" y="-185.5" font-family="Helvetica,sans-Serif" font-size="10.00">_python.cpp</text>
</a>
</g>
</g>
<!-- Node19&#45;&gt;Node20 -->
<g id="edge22" class="edge">
<title>Node19&#45;&gt;Node20</title>
<path fill="none" stroke="midnightblue" d="M300.91,-270.97C291.69,-261.25 281.89,-250.93 273.07,-241.63"/>
<polygon fill="midnightblue" stroke="midnightblue" points="298.41,-273.42 307.83,-278.26 303.48,-268.6 298.41,-273.42"/>
</g>
<!-- Node22&#45;&gt;Node6 -->
<g id="edge37" class="edge">
<title>Node22&#45;&gt;Node6</title>
<path fill="none" stroke="midnightblue" d="M721.52,-671.4C730.24,-662.82 738.01,-652.96 743,-642 754.79,-616.11 755.85,-603.38 743,-578 730.8,-553.89 707.18,-565.59 694,-542 656.8,-475.44 664.26,-380.84 670.65,-336.19"/>
<polygon fill="midnightblue" stroke="midnightblue" points="719.01,-668.96 714.01,-678.3 723.74,-674.11 719.01,-668.96"/>
</g>
<!-- Node23 -->
<g id="node23" class="node">
<title>Node23</title>
<g id="a_node23"><a xlink:href="../../dc/df3/transient___pw__interface__element_8hpp.html" target="_top" xlink:title=" ">
<polygon fill="none" stroke="black" points="540,-578.5 540,-641.5 734,-641.5 734,-578.5 540,-578.5"/>
<text text-anchor="start" x="548" y="-629.5" font-family="Helvetica,sans-Serif" font-size="10.00">/home/runner/work/Documentation</text>
<text text-anchor="start" x="548" y="-618.5" font-family="Helvetica,sans-Serif" font-size="10.00">/Documentation/master/applications</text>
<text text-anchor="start" x="548" y="-607.5" font-family="Helvetica,sans-Serif" font-size="10.00">/GeoMechanicsApplication/custom</text>
<text text-anchor="start" x="548" y="-596.5" font-family="Helvetica,sans-Serif" font-size="10.00">_elements/transient_Pw_interface</text>
<text text-anchor="middle" x="637" y="-585.5" font-family="Helvetica,sans-Serif" font-size="10.00">_element.hpp</text>
</a>
</g>
</g>
<!-- Node22&#45;&gt;Node23 -->
<g id="edge29" class="edge">
<title>Node22&#45;&gt;Node23</title>
<path fill="none" stroke="midnightblue" d="M653.98,-668.39C651.33,-659.44 648.57,-650.11 646.06,-641.63"/>
<polygon fill="midnightblue" stroke="midnightblue" points="650.71,-669.67 656.9,-678.26 657.42,-667.68 650.71,-669.67"/>
</g>
<!-- Node24 -->
<g id="node24" class="node">
<title>Node24</title>
<g id="a_node24"><a xlink:href="../../da/d74/_u___pw__small__strain__interface__element_8cpp.html" target="_top" xlink:title=" ">
<polygon fill="none" stroke="black" points="310,-578.5 310,-641.5 522,-641.5 522,-578.5 310,-578.5"/>
<text text-anchor="start" x="318" y="-629.5" font-family="Helvetica,sans-Serif" font-size="10.00">/home/runner/work/Documentation</text>
<text text-anchor="start" x="318" y="-618.5" font-family="Helvetica,sans-Serif" font-size="10.00">/Documentation/master/applications</text>
<text text-anchor="start" x="318" y="-607.5" font-family="Helvetica,sans-Serif" font-size="10.00">/GeoMechanicsApplication/custom</text>
<text text-anchor="start" x="318" y="-596.5" font-family="Helvetica,sans-Serif" font-size="10.00">_elements/U_Pw_small_strain_interface</text>
<text text-anchor="middle" x="416" y="-585.5" font-family="Helvetica,sans-Serif" font-size="10.00">_element.cpp</text>
</a>
</g>
</g>
<!-- Node22&#45;&gt;Node24 -->
<g id="edge33" class="edge">
<title>Node22&#45;&gt;Node24</title>
<path fill="none" stroke="midnightblue" d="M578.32,-674.63C550.83,-663.85 520.68,-652.04 493.91,-641.54"/>
<polygon fill="midnightblue" stroke="midnightblue" points="577.34,-678 587.93,-678.4 579.89,-671.49 577.34,-678"/>
</g>
<!-- Node22&#45;&gt;Node25 -->
<g id="edge34" class="edge">
<title>Node22&#45;&gt;Node25</title>
<path fill="none" stroke="midnightblue" d="M756.46,-674.77C785.05,-663.96 816.43,-652.08 844.28,-641.54"/>
<polygon fill="midnightblue" stroke="midnightblue" points="755,-671.58 746.88,-678.4 757.48,-678.13 755,-671.58"/>
</g>
<!-- Node23&#45;&gt;Node6 -->
<g id="edge32" class="edge">
<title>Node23&#45;&gt;Node6</title>
<path fill="none" stroke="midnightblue" d="M639.98,-568C643.65,-521.69 650.68,-444.16 661,-378 663.18,-364.03 666.36,-348.57 669.14,-336.02"/>
<polygon fill="midnightblue" stroke="midnightblue" points="636.47,-567.99 639.19,-578.23 643.45,-568.53 636.47,-567.99"/>
</g>
<!-- Node23&#45;&gt;Node15 -->
<g id="edge30" class="edge">
<title>Node23&#45;&gt;Node15</title>
<path fill="none" stroke="midnightblue" d="M546.89,-574.77C518.41,-563.96 487.15,-552.08 459.4,-541.54"/>
<polygon fill="midnightblue" stroke="midnightblue" points="545.84,-578.12 556.43,-578.4 548.32,-571.57 545.84,-578.12"/>
</g>
<!-- Node23&#45;&gt;Node21 -->
<g id="edge31" class="edge">
<title>Node23&#45;&gt;Node21</title>
<path fill="none" stroke="midnightblue" d="M696.93,-572.97C714.05,-562.68 732.53,-551.56 749.05,-541.63"/>
<polygon fill="midnightblue" stroke="midnightblue" points="694.89,-570.11 688.13,-578.26 698.5,-576.11 694.89,-570.11"/>
</g>
<!-- Node25&#45;&gt;Node6 -->
<g id="edge36" class="edge">
<title>Node25&#45;&gt;Node6</title>
<path fill="none" stroke="midnightblue" d="M927.08,-568.38C926.66,-541.02 922.41,-505.11 906,-478 865.37,-410.9 786.5,-362.87 732.32,-336.02"/>
<polygon fill="midnightblue" stroke="midnightblue" points="923.58,-568.41 927.07,-578.42 930.58,-568.42 923.58,-568.41"/>
</g>
<!-- Node26 -->
<g id="node26" class="node">
<title>Node26</title>
<g id="a_node26"><a xlink:href="../../d5/d48/_u___pw__small__strain__link__interface__element_8cpp.html" target="_top" xlink:title=" ">
<polygon fill="none" stroke="black" points="953,-478.5 953,-541.5 1147,-541.5 1147,-478.5 953,-478.5"/>
<text text-anchor="start" x="961" y="-529.5" font-family="Helvetica,sans-Serif" font-size="10.00">/home/runner/work/Documentation</text>
<text text-anchor="start" x="961" y="-518.5" font-family="Helvetica,sans-Serif" font-size="10.00">/Documentation/master/applications</text>
<text text-anchor="start" x="961" y="-507.5" font-family="Helvetica,sans-Serif" font-size="10.00">/GeoMechanicsApplication/custom</text>
<text text-anchor="start" x="961" y="-496.5" font-family="Helvetica,sans-Serif" font-size="10.00">_elements/U_Pw_small_strain_link</text>
<text text-anchor="middle" x="1050" y="-485.5" font-family="Helvetica,sans-Serif" font-size="10.00">_interface_element.cpp</text>
</a>
</g>
</g>
<!-- Node25&#45;&gt;Node26 -->
<g id="edge35" class="edge">
<title>Node25&#45;&gt;Node26</title>
<path fill="none" stroke="midnightblue" d="M972.41,-571.83C985.13,-561.86 998.73,-551.2 1010.93,-541.63"/>
<polygon fill="midnightblue" stroke="midnightblue" points="969.92,-569.34 964.21,-578.26 974.24,-574.85 969.92,-569.34"/>
</g>
</g>
</svg>
        <g id="navigator" transform="translate(0 0)" fill="#404254">
                <rect fill="#f2f5e9" fill-opacity="0.5" stroke="#606060" stroke-width=".5" x="0" y="0" width="60" height="60"/>
                <use id="zoomplus" xlink:href="#zoomPlus" x="17" y="9" onmousedown="handleZoom(evt,'in')"/>
                <use id="zoomminus" xlink:href="#zoomMin" x="42" y="9" onmousedown="handleZoom(evt,'out')"/>
                <use id="reset" xlink:href="#resetDef" x="30" y="36" onmousedown="handleReset()"/>
                <g id="arrowUp" xlink:href="#dirArrow" transform="translate(30 24)" onmousedown="handlePan(0,-1)">
                  <use xlink:href="#rim" fill="#404040">
                        <set attributeName="fill" to="#808080" begin="arrowUp.mouseover" end="arrowUp.mouseout"/>
                  </use>
                  <path fill="none" stroke="white" stroke-width="1.5" d="M0,-3.0v7 M-2.5,-0.5L0,-3.0L2.5,-0.5"/>
                </g>
                <g id="arrowRight" xlink:href="#dirArrow" transform="rotate(90) translate(36 -43)" onmousedown="handlePan(1,0)">
                  <use xlink:href="#rim" fill="#404040">
                        <set attributeName="fill" to="#808080" begin="arrowRight.mouseover" end="arrowRight.mouseout"/>
                  </use>
                  <path fill="none" stroke="white" stroke-width="1.5" d="M0,-3.0v7 M-2.5,-0.5L0,-3.0L2.5,-0.5"/>
                </g>
                <g id="arrowDown" xlink:href="#dirArrow" transform="rotate(180) translate(-30 -48)" onmousedown="handlePan(0,1)">
                  <use xlink:href="#rim" fill="#404040">
                        <set attributeName="fill" to="#808080" begin="arrowDown.mouseover" end="arrowDown.mouseout"/>
                  </use>
                  <path fill="none" stroke="white" stroke-width="1.5" d="M0,-3.0v7 M-2.5,-0.5L0,-3.0L2.5,-0.5"/>
                </g>
                <g id="arrowLeft" xlink:href="#dirArrow" transform="rotate(270) translate(-36 17)" onmousedown="handlePan(-1,0)">
                  <use xlink:href="#rim" fill="#404040">
                        <set attributeName="fill" to="#808080" begin="arrowLeft.mouseover" end="arrowLeft.mouseout"/>
                  </use>
                  <path fill="none" stroke="white" stroke-width="1.5" d="M0,-3.0v7 M-2.5,-0.5L0,-3.0L2.5,-0.5"/>
                </g>
        </g>
        <svg viewBox="0 0 15 15" width="100%" height="30px" preserveAspectRatio="xMaxYMin meet">
         <g id="arrow_out" transform="scale(0.3 0.3)">
          <a xlink:href="interface__element__utilities_8h__dep__incl_org.svg" target="_base">
           <rect id="button" ry="5" rx="5" y="6" x="6" height="38" width="38"
                fill="#f2f5e9" fill-opacity="0.5" stroke="#606060" stroke-width="1.0"/>
           <path id="arrow"
             d="M 11.500037,31.436501 C 11.940474,20.09759 22.043105,11.32322 32.158766,21.979434 L 37.068811,17.246167 C 37.068811,17.246167 37.088388,32 37.088388,32 L 22.160133,31.978069 C 22.160133,31.978069 26.997745,27.140456 26.997745,27.140456 C 18.528582,18.264221 13.291696,25.230495 11.500037,31.436501 z"
             style="fill:#404040;"/>
          </a>
         </g>
        </svg>
</svg>
