<?xml version="1.0" encoding="UTF-8" standalone="no"?>
<!DOCTYPE svg PUBLIC "-//W3C//DTD SVG 1.1//EN"
 "http://www.w3.org/Graphics/SVG/1.1/DTD/svg11.dtd">
<!-- Generated by graphviz version 2.43.0 (0)
 -->
<!-- Title: /home/runner/work/Documentation/Documentation/master/kratos/modeler/entity_generation/voxel_mesher_entity_generation.h Pages: 1 -->
<svg width="1991pt" height="239pt"
 viewBox="0.00 0.00 1990.50 239.00" xmlns="http://www.w3.org/2000/svg" xmlns:xlink="http://www.w3.org/1999/xlink">
<g id="graph0" class="graph" transform="scale(1 1) rotate(0) translate(4 235)">
<title>/home/runner/work/Documentation/Documentation/master/kratos/modeler/entity_generation/voxel_mesher_entity_generation.h</title>
<!-- Node1 -->
<g id="node1" class="node">
<title>Node1</title>
<g id="a_node1"><a xlink:title=" ">
<polygon fill="#bfbfbf" stroke="black" points="998.5,-178.5 998.5,-230.5 1185.5,-230.5 1185.5,-178.5 998.5,-178.5"/>
<text text-anchor="start" x="1006.5" y="-218.5" font-family="Helvetica,sans-Serif" font-size="10.00">/home/runner/work/Documentation</text>
<text text-anchor="start" x="1006.5" y="-207.5" font-family="Helvetica,sans-Serif" font-size="10.00">/Documentation/master/kratos</text>
<text text-anchor="start" x="1006.5" y="-196.5" font-family="Helvetica,sans-Serif" font-size="10.00">/modeler/entity_generation/voxel</text>
<text text-anchor="middle" x="1092" y="-185.5" font-family="Helvetica,sans-Serif" font-size="10.00">_mesher_entity_generation.h</text>
</a>
</g>
</g>
<!-- Node2 -->
<g id="node2" class="node">
<title>Node2</title>
<g id="a_node2"><a xlink:href="../../d5/de7/generate__conditions__with__face__color_8h.html" target="_top" xlink:title=" ">
<polygon fill="none" stroke="black" points="233,-89.5 233,-141.5 429,-141.5 429,-89.5 233,-89.5"/>
<text text-anchor="start" x="241" y="-129.5" font-family="Helvetica,sans-Serif" font-size="10.00">/home/runner/work/Documentation</text>
<text text-anchor="start" x="241" y="-118.5" font-family="Helvetica,sans-Serif" font-size="10.00">/Documentation/master/kratos</text>
<text text-anchor="start" x="241" y="-107.5" font-family="Helvetica,sans-Serif" font-size="10.00">/modeler/entity_generation/generate</text>
<text text-anchor="middle" x="331" y="-96.5" font-family="Helvetica,sans-Serif" font-size="10.00">_conditions_with_face_color.h</text>
</a>
</g>
</g>
<!-- Node1&#45;&gt;Node2 -->
<g id="edge1" class="edge">
<title>Node1&#45;&gt;Node2</title>
<path fill="none" stroke="midnightblue" d="M988.03,-198.23C858.52,-190.64 630.81,-173.88 438,-142 435.08,-141.52 432.12,-141 429.14,-140.45"/>
<polygon fill="midnightblue" stroke="midnightblue" points="988.15,-201.74 998.33,-198.83 988.55,-194.76 988.15,-201.74"/>
</g>
<!-- Node5 -->
<g id="node5" class="node">
<title>Node5</title>
<g id="a_node5"><a xlink:href="../../d6/df6/generate__elements__with__cell__color_8h.html" target="_top" xlink:title=" ">
<polygon fill="none" stroke="black" points="447,-89.5 447,-141.5 643,-141.5 643,-89.5 447,-89.5"/>
<text text-anchor="start" x="455" y="-129.5" font-family="Helvetica,sans-Serif" font-size="10.00">/home/runner/work/Documentation</text>
<text text-anchor="start" x="455" y="-118.5" font-family="Helvetica,sans-Serif" font-size="10.00">/Documentation/master/kratos</text>
<text text-anchor="start" x="455" y="-107.5" font-family="Helvetica,sans-Serif" font-size="10.00">/modeler/entity_generation/generate</text>
<text text-anchor="middle" x="545" y="-96.5" font-family="Helvetica,sans-Serif" font-size="10.00">_elements_with_cell_color.h</text>
</a>
</g>
</g>
<!-- Node1&#45;&gt;Node5 -->
<g id="edge4" class="edge">
<title>Node1&#45;&gt;Node5</title>
<path fill="none" stroke="midnightblue" d="M988.05,-191.91C898.39,-181.21 765.64,-163.73 651,-142 648.4,-141.51 645.76,-140.99 643.1,-140.46"/>
<polygon fill="midnightblue" stroke="midnightblue" points="987.88,-195.41 998.22,-193.11 988.71,-188.46 987.88,-195.41"/>
</g>
<!-- Node7 -->
<g id="node7" class="node">
<title>Node7</title>
<g id="a_node7"><a xlink:href="../../de/da7/generate__quadratic__elements__with__cell__color_8h.html" target="_top" xlink:title=" ">
<polygon fill="none" stroke="black" points="660.5,-89.5 660.5,-141.5 865.5,-141.5 865.5,-89.5 660.5,-89.5"/>
<text text-anchor="start" x="668.5" y="-129.5" font-family="Helvetica,sans-Serif" font-size="10.00">/home/runner/work/Documentation</text>
<text text-anchor="start" x="668.5" y="-118.5" font-family="Helvetica,sans-Serif" font-size="10.00">/Documentation/master/kratos</text>
<text text-anchor="start" x="668.5" y="-107.5" font-family="Helvetica,sans-Serif" font-size="10.00">/modeler/entity_generation/generate</text>
<text text-anchor="middle" x="763" y="-96.5" font-family="Helvetica,sans-Serif" font-size="10.00">_quadratic_elements_with_cell_color.h</text>
</a>
</g>
</g>
<!-- Node1&#45;&gt;Node7 -->
<g id="edge7" class="edge">
<title>Node1&#45;&gt;Node7</title>
<path fill="none" stroke="midnightblue" d="M988.24,-176.06C946.48,-165.02 898.64,-152.37 857.82,-141.57"/>
<polygon fill="midnightblue" stroke="midnightblue" points="987.6,-179.51 998.16,-178.69 989.39,-172.75 987.6,-179.51"/>
</g>
<!-- Node9 -->
<g id="node9" class="node">
<title>Node9</title>
<g id="a_node9"><a xlink:href="../../d0/d1c/generate__stl__intersection__with__cells_8h.html" target="_top" xlink:title=" ">
<polygon fill="none" stroke="black" points="883,-89.5 883,-141.5 1079,-141.5 1079,-89.5 883,-89.5"/>
<text text-anchor="start" x="891" y="-129.5" font-family="Helvetica,sans-Serif" font-size="10.00">/home/runner/work/Documentation</text>
<text text-anchor="start" x="891" y="-118.5" font-family="Helvetica,sans-Serif" font-size="10.00">/Documentation/master/kratos</text>
<text text-anchor="start" x="891" y="-107.5" font-family="Helvetica,sans-Serif" font-size="10.00">/modeler/entity_generation/generate</text>
<text text-anchor="middle" x="981" y="-96.5" font-family="Helvetica,sans-Serif" font-size="10.00">_stl_intersection_with_cells.h</text>
</a>
</g>
</g>
<!-- Node1&#45;&gt;Node9 -->
<g id="edge10" class="edge">
<title>Node1&#45;&gt;Node9</title>
<path fill="none" stroke="midnightblue" d="M1051.73,-171.93C1039,-161.96 1025.11,-151.07 1013.03,-141.61"/>
<polygon fill="midnightblue" stroke="midnightblue" points="1049.86,-174.92 1059.89,-178.34 1054.18,-169.41 1049.86,-174.92"/>
</g>
<!-- Node11 -->
<g id="node11" class="node">
<title>Node11</title>
<g id="a_node11"><a xlink:href="../../d8/d1c/generate__tetrahedral__elements__with__cell__color_8h.html" target="_top" xlink:title=" ">
<polygon fill="none" stroke="black" points="1096.5,-89.5 1096.5,-141.5 1309.5,-141.5 1309.5,-89.5 1096.5,-89.5"/>
<text text-anchor="start" x="1104.5" y="-129.5" font-family="Helvetica,sans-Serif" font-size="10.00">/home/runner/work/Documentation</text>
<text text-anchor="start" x="1104.5" y="-118.5" font-family="Helvetica,sans-Serif" font-size="10.00">/Documentation/master/kratos</text>
<text text-anchor="start" x="1104.5" y="-107.5" font-family="Helvetica,sans-Serif" font-size="10.00">/modeler/entity_generation/generate</text>
<text text-anchor="middle" x="1203" y="-96.5" font-family="Helvetica,sans-Serif" font-size="10.00">_tetrahedral_elements_with_cell_color.h</text>
</a>
</g>
</g>
<!-- Node1&#45;&gt;Node11 -->
<g id="edge13" class="edge">
<title>Node1&#45;&gt;Node11</title>
<path fill="none" stroke="midnightblue" d="M1132.27,-171.93C1145,-161.96 1158.89,-151.07 1170.97,-141.61"/>
<polygon fill="midnightblue" stroke="midnightblue" points="1129.82,-169.41 1124.11,-178.34 1134.14,-174.92 1129.82,-169.41"/>
</g>
<!-- Node13 -->
<g id="node13" class="node">
<title>Node13</title>
<g id="a_node13"><a xlink:href="../../df/d89/generate__triangular__conditions__with__face__color_8h.html" target="_top" xlink:title=" ">
<polygon fill="none" stroke="black" points="1327.5,-89.5 1327.5,-141.5 1542.5,-141.5 1542.5,-89.5 1327.5,-89.5"/>
<text text-anchor="start" x="1335.5" y="-129.5" font-family="Helvetica,sans-Serif" font-size="10.00">/home/runner/work/Documentation</text>
<text text-anchor="start" x="1335.5" y="-118.5" font-family="Helvetica,sans-Serif" font-size="10.00">/Documentation/master/kratos</text>
<text text-anchor="start" x="1335.5" y="-107.5" font-family="Helvetica,sans-Serif" font-size="10.00">/modeler/entity_generation/generate</text>
<text text-anchor="middle" x="1435" y="-96.5" font-family="Helvetica,sans-Serif" font-size="10.00">_triangular_conditions_with_face_color.h</text>
</a>
</g>
</g>
<!-- Node1&#45;&gt;Node13 -->
<g id="edge16" class="edge">
<title>Node1&#45;&gt;Node13</title>
<path fill="none" stroke="midnightblue" d="M1195.44,-177.26C1240.12,-165.93 1292.15,-152.73 1336.29,-141.54"/>
<polygon fill="midnightblue" stroke="midnightblue" points="1194.56,-173.88 1185.73,-179.73 1196.28,-180.66 1194.56,-173.88"/>
</g>
<!-- Node15 -->
<g id="node15" class="node">
<title>Node15</title>
<g id="a_node15"><a xlink:href="../../dd/d28/voxel__mesher__entity__generation_8cpp.html" target="_top" xlink:title=" ">
<polygon fill="none" stroke="black" points="1775.5,-89.5 1775.5,-141.5 1962.5,-141.5 1962.5,-89.5 1775.5,-89.5"/>
<text text-anchor="start" x="1783.5" y="-129.5" font-family="Helvetica,sans-Serif" font-size="10.00">/home/runner/work/Documentation</text>
<text text-anchor="start" x="1783.5" y="-118.5" font-family="Helvetica,sans-Serif" font-size="10.00">/Documentation/master/kratos</text>
<text text-anchor="start" x="1783.5" y="-107.5" font-family="Helvetica,sans-Serif" font-size="10.00">/modeler/entity_generation/voxel</text>
<text text-anchor="middle" x="1869" y="-96.5" font-family="Helvetica,sans-Serif" font-size="10.00">_mesher_entity_generation.cpp</text>
</a>
</g>
</g>
<!-- Node1&#45;&gt;Node15 -->
<g id="edge19" class="edge">
<title>Node1&#45;&gt;Node15</title>
<path fill="none" stroke="midnightblue" d="M1195.86,-199.01C1328.95,-192.12 1566.44,-176 1767,-142 1769.79,-141.53 1772.62,-141.02 1775.46,-140.48"/>
<polygon fill="midnightblue" stroke="midnightblue" points="1195.48,-195.53 1185.67,-199.53 1195.83,-202.52 1195.48,-195.53"/>
</g>
<!-- Node16 -->
<g id="node16" class="node">
<title>Node16</title>
<g id="a_node16"><a xlink:href="../../d6/d31/voxel__mesher__entity__generation__factory_8h.html" target="_top" xlink:title=" ">
<polygon fill="none" stroke="black" points="1560.5,-89.5 1560.5,-141.5 1757.5,-141.5 1757.5,-89.5 1560.5,-89.5"/>
<text text-anchor="start" x="1568.5" y="-129.5" font-family="Helvetica,sans-Serif" font-size="10.00">/home/runner/work/Documentation</text>
<text text-anchor="start" x="1568.5" y="-118.5" font-family="Helvetica,sans-Serif" font-size="10.00">/Documentation/master/kratos</text>
<text text-anchor="start" x="1568.5" y="-107.5" font-family="Helvetica,sans-Serif" font-size="10.00">/modeler/entity_generation/voxel</text>
<text text-anchor="middle" x="1659" y="-96.5" font-family="Helvetica,sans-Serif" font-size="10.00">_mesher_entity_generation_factory.h</text>
</a>
</g>
</g>
<!-- Node1&#45;&gt;Node16 -->
<g id="edge20" class="edge">
<title>Node1&#45;&gt;Node16</title>
<path fill="none" stroke="midnightblue" d="M1195.62,-192.57C1288.95,-182.03 1429.71,-164.39 1551,-142 1554.13,-141.42 1557.3,-140.81 1560.5,-140.18"/>
<polygon fill="midnightblue" stroke="midnightblue" points="1195.16,-189.1 1185.61,-193.7 1195.94,-196.06 1195.16,-189.1"/>
</g>
<!-- Node3 -->
<g id="node3" class="node">
<title>Node3</title>
<g id="a_node3"><a xlink:href="../../d5/db8/generate__conditions__with__face__color_8cpp.html" target="_top" xlink:title=" ">
<polygon fill="none" stroke="black" points="0,-0.5 0,-52.5 196,-52.5 196,-0.5 0,-0.5"/>
<text text-anchor="start" x="8" y="-40.5" font-family="Helvetica,sans-Serif" font-size="10.00">/home/runner/work/Documentation</text>
<text text-anchor="start" x="8" y="-29.5" font-family="Helvetica,sans-Serif" font-size="10.00">/Documentation/master/kratos</text>
<text text-anchor="start" x="8" y="-18.5" font-family="Helvetica,sans-Serif" font-size="10.00">/modeler/entity_generation/generate</text>
<text text-anchor="middle" x="98" y="-7.5" font-family="Helvetica,sans-Serif" font-size="10.00">_conditions_with_face_color.cpp</text>
</a>
</g>
</g>
<!-- Node2&#45;&gt;Node3 -->
<g id="edge2" class="edge">
<title>Node2&#45;&gt;Node3</title>
<path fill="none" stroke="midnightblue" d="M254.29,-85.86C225.45,-75.09 192.9,-62.94 165.01,-52.52"/>
<polygon fill="midnightblue" stroke="midnightblue" points="253.33,-89.23 263.92,-89.45 255.78,-82.68 253.33,-89.23"/>
</g>
<!-- Node4 -->
<g id="node4" class="node">
<title>Node4</title>
<g id="a_node4"><a xlink:href="../../df/d9d/voxel__mesher__entity__generation__factory_8cpp.html" target="_top" xlink:title=" ">
<polygon fill="none" stroke="black" points="876.5,-0.5 876.5,-52.5 1085.5,-52.5 1085.5,-0.5 876.5,-0.5"/>
<text text-anchor="start" x="884.5" y="-40.5" font-family="Helvetica,sans-Serif" font-size="10.00">/home/runner/work/Documentation</text>
<text text-anchor="start" x="884.5" y="-29.5" font-family="Helvetica,sans-Serif" font-size="10.00">/Documentation/master/kratos</text>
<text text-anchor="start" x="884.5" y="-18.5" font-family="Helvetica,sans-Serif" font-size="10.00">/modeler/entity_generation/voxel</text>
<text text-anchor="middle" x="981" y="-7.5" font-family="Helvetica,sans-Serif" font-size="10.00">_mesher_entity_generation_factory.cpp</text>
</a>
</g>
</g>
<!-- Node2&#45;&gt;Node4 -->
<g id="edge3" class="edge">
<title>Node2&#45;&gt;Node4</title>
<path fill="none" stroke="midnightblue" d="M439.15,-88.93C628.71,-59.51 681.1,-81.46 867,-53 870.11,-52.52 873.26,-52.01 876.43,-51.47"/>
<polygon fill="midnightblue" stroke="midnightblue" points="438.46,-85.49 429.13,-90.51 439.56,-92.41 438.46,-85.49"/>
</g>
<!-- Node5&#45;&gt;Node4 -->
<g id="edge6" class="edge">
<title>Node5&#45;&gt;Node4</title>
<path fill="none" stroke="midnightblue" d="M653.15,-88.62C748.12,-69.72 774.65,-71.01 867,-53 870.09,-52.4 873.22,-51.78 876.37,-51.14"/>
<polygon fill="midnightblue" stroke="midnightblue" points="652.23,-85.23 643.12,-90.64 653.62,-92.09 652.23,-85.23"/>
</g>
<!-- Node6 -->
<g id="node6" class="node">
<title>Node6</title>
<g id="a_node6"><a xlink:href="../../d9/d99/generate__elements__with__cell__color_8cpp.html" target="_top" xlink:title=" ">
<polygon fill="none" stroke="black" points="214,-0.5 214,-52.5 410,-52.5 410,-0.5 214,-0.5"/>
<text text-anchor="start" x="222" y="-40.5" font-family="Helvetica,sans-Serif" font-size="10.00">/home/runner/work/Documentation</text>
<text text-anchor="start" x="222" y="-29.5" font-family="Helvetica,sans-Serif" font-size="10.00">/Documentation/master/kratos</text>
<text text-anchor="start" x="222" y="-18.5" font-family="Helvetica,sans-Serif" font-size="10.00">/modeler/entity_generation/generate</text>
<text text-anchor="middle" x="312" y="-7.5" font-family="Helvetica,sans-Serif" font-size="10.00">_elements_with_cell_color.cpp</text>
</a>
</g>
</g>
<!-- Node5&#45;&gt;Node6 -->
<g id="edge5" class="edge">
<title>Node5&#45;&gt;Node6</title>
<path fill="none" stroke="midnightblue" d="M468.29,-85.86C439.45,-75.09 406.9,-62.94 379.01,-52.52"/>
<polygon fill="midnightblue" stroke="midnightblue" points="467.33,-89.23 477.92,-89.45 469.78,-82.68 467.33,-89.23"/>
</g>
<!-- Node7&#45;&gt;Node4 -->
<g id="edge9" class="edge">
<title>Node7&#45;&gt;Node4</title>
<path fill="none" stroke="midnightblue" d="M835.12,-85.72C862.02,-74.98 892.32,-62.89 918.3,-52.52"/>
<polygon fill="midnightblue" stroke="midnightblue" points="833.75,-82.5 825.76,-89.45 836.35,-89 833.75,-82.5"/>
</g>
<!-- Node8 -->
<g id="node8" class="node">
<title>Node8</title>
<g id="a_node8"><a xlink:href="../../d8/deb/generate__quadratic__elements__with__cell__color_8cpp.html" target="_top" xlink:title=" ">
<polygon fill="none" stroke="black" points="428,-0.5 428,-52.5 644,-52.5 644,-0.5 428,-0.5"/>
<text text-anchor="start" x="436" y="-40.5" font-family="Helvetica,sans-Serif" font-size="10.00">/home/runner/work/Documentation</text>
<text text-anchor="start" x="436" y="-29.5" font-family="Helvetica,sans-Serif" font-size="10.00">/Documentation/master/kratos</text>
<text text-anchor="start" x="436" y="-18.5" font-family="Helvetica,sans-Serif" font-size="10.00">/modeler/entity_generation/generate</text>
<text text-anchor="middle" x="536" y="-7.5" font-family="Helvetica,sans-Serif" font-size="10.00">_quadratic_elements_with_cell_color.cpp</text>
</a>
</g>
</g>
<!-- Node7&#45;&gt;Node8 -->
<g id="edge8" class="edge">
<title>Node7&#45;&gt;Node8</title>
<path fill="none" stroke="midnightblue" d="M688.27,-85.86C660.17,-75.09 628.46,-62.94 601.28,-52.52"/>
<polygon fill="midnightblue" stroke="midnightblue" points="687.06,-89.14 697.65,-89.45 689.56,-82.61 687.06,-89.14"/>
</g>
<!-- Node9&#45;&gt;Node4 -->
<g id="edge12" class="edge">
<title>Node9&#45;&gt;Node4</title>
<path fill="none" stroke="midnightblue" d="M981,-79.19C981,-70.28 981,-60.9 981,-52.61"/>
<polygon fill="midnightblue" stroke="midnightblue" points="977.5,-79.34 981,-89.34 984.5,-79.34 977.5,-79.34"/>
</g>
<!-- Node10 -->
<g id="node10" class="node">
<title>Node10</title>
<g id="a_node10"><a xlink:href="../../df/dfd/generate__stl__intersection__with__cells_8cpp.html" target="_top" xlink:title=" ">
<polygon fill="none" stroke="black" points="662,-0.5 662,-52.5 858,-52.5 858,-0.5 662,-0.5"/>
<text text-anchor="start" x="670" y="-40.5" font-family="Helvetica,sans-Serif" font-size="10.00">/home/runner/work/Documentation</text>
<text text-anchor="start" x="670" y="-29.5" font-family="Helvetica,sans-Serif" font-size="10.00">/Documentation/master/kratos</text>
<text text-anchor="start" x="670" y="-18.5" font-family="Helvetica,sans-Serif" font-size="10.00">/modeler/entity_generation/generate</text>
<text text-anchor="middle" x="760" y="-7.5" font-family="Helvetica,sans-Serif" font-size="10.00">_stl_intersection_with_cells.cpp</text>
</a>
</g>
</g>
<!-- Node9&#45;&gt;Node10 -->
<g id="edge11" class="edge">
<title>Node9&#45;&gt;Node10</title>
<path fill="none" stroke="midnightblue" d="M907.88,-85.72C880.61,-74.98 849.9,-62.89 823.56,-52.52"/>
<polygon fill="midnightblue" stroke="midnightblue" points="906.79,-89.05 917.37,-89.45 909.35,-82.53 906.79,-89.05"/>
</g>
<!-- Node11&#45;&gt;Node4 -->
<g id="edge15" class="edge">
<title>Node11&#45;&gt;Node4</title>
<path fill="none" stroke="midnightblue" d="M1129.55,-85.72C1102.16,-74.98 1071.31,-62.89 1044.85,-52.52"/>
<polygon fill="midnightblue" stroke="midnightblue" points="1128.5,-89.06 1139.09,-89.45 1131.05,-82.55 1128.5,-89.06"/>
</g>
<!-- Node12 -->
<g id="node12" class="node">
<title>Node12</title>
<g id="a_node12"><a xlink:href="../../d9/d0a/generate__tetrahedral__elements__with__cell__color_8cpp.html" target="_top" xlink:title=" ">
<polygon fill="none" stroke="black" points="1104,-0.5 1104,-52.5 1328,-52.5 1328,-0.5 1104,-0.5"/>
<text text-anchor="start" x="1112" y="-40.5" font-family="Helvetica,sans-Serif" font-size="10.00">/home/runner/work/Documentation</text>
<text text-anchor="start" x="1112" y="-29.5" font-family="Helvetica,sans-Serif" font-size="10.00">/Documentation/master/kratos</text>
<text text-anchor="start" x="1112" y="-18.5" font-family="Helvetica,sans-Serif" font-size="10.00">/modeler/entity_generation/generate</text>
<text text-anchor="middle" x="1216" y="-7.5" font-family="Helvetica,sans-Serif" font-size="10.00">_tetrahedral_elements_with_cell_color.cpp</text>
</a>
</g>
</g>
<!-- Node11&#45;&gt;Node12 -->
<g id="edge14" class="edge">
<title>Node11&#45;&gt;Node12</title>
<path fill="none" stroke="midnightblue" d="M1208.28,-79.19C1209.61,-70.28 1211.01,-60.9 1212.25,-52.61"/>
<polygon fill="midnightblue" stroke="midnightblue" points="1204.78,-78.93 1206.76,-89.34 1211.7,-79.96 1204.78,-78.93"/>
</g>
<!-- Node13&#45;&gt;Node4 -->
<g id="edge18" class="edge">
<title>Node13&#45;&gt;Node4</title>
<path fill="none" stroke="midnightblue" d="M1317.42,-88.94C1217.68,-70.39 1190.51,-71.37 1095,-53 1091.91,-52.41 1088.78,-51.79 1085.62,-51.16"/>
<polygon fill="midnightblue" stroke="midnightblue" points="1316.83,-92.39 1327.3,-90.8 1318.12,-85.51 1316.83,-92.39"/>
</g>
<!-- Node14 -->
<g id="node14" class="node">
<title>Node14</title>
<g id="a_node14"><a xlink:href="../../d9/daa/generate__triangular__conditions__with__face__color_8cpp.html" target="_top" xlink:title=" ">
<polygon fill="none" stroke="black" points="1346,-0.5 1346,-52.5 1572,-52.5 1572,-0.5 1346,-0.5"/>
<text text-anchor="start" x="1354" y="-40.5" font-family="Helvetica,sans-Serif" font-size="10.00">/home/runner/work/Documentation</text>
<text text-anchor="start" x="1354" y="-29.5" font-family="Helvetica,sans-Serif" font-size="10.00">/Documentation/master/kratos</text>
<text text-anchor="start" x="1354" y="-18.5" font-family="Helvetica,sans-Serif" font-size="10.00">/modeler/entity_generation/generate</text>
<text text-anchor="middle" x="1459" y="-7.5" font-family="Helvetica,sans-Serif" font-size="10.00">_triangular_conditions_with_face_color.cpp</text>
</a>
</g>
</g>
<!-- Node13&#45;&gt;Node14 -->
<g id="edge17" class="edge">
<title>Node13&#45;&gt;Node14</title>
<path fill="none" stroke="midnightblue" d="M1444.66,-79.48C1447.14,-70.49 1449.76,-60.99 1452.07,-52.61"/>
<polygon fill="midnightblue" stroke="midnightblue" points="1441.23,-78.77 1441.94,-89.34 1447.98,-80.63 1441.23,-78.77"/>
</g>
<!-- Node16&#45;&gt;Node4 -->
<g id="edge21" class="edge">
<title>Node16&#45;&gt;Node4</title>
<path fill="none" stroke="midnightblue" d="M1550.21,-88.99C1348.37,-58.36 1292.79,-82.78 1095,-53 1091.89,-52.53 1088.74,-52.03 1085.57,-51.49"/>
<polygon fill="midnightblue" stroke="midnightblue" points="1549.83,-92.48 1560.24,-90.54 1550.89,-85.56 1549.83,-92.48"/>
</g>
<!-- Node17 -->
<g id="node17" class="node">
<title>Node17</title>
<g id="a_node17"><a xlink:href="../../d4/dd7/voxel__mesh__generator__modeler_8cpp.html" target="_top" xlink:title=" ">
<polygon fill="none" stroke="black" points="1795.5,-0.5 1795.5,-52.5 1982.5,-52.5 1982.5,-0.5 1795.5,-0.5"/>
<text text-anchor="start" x="1803.5" y="-40.5" font-family="Helvetica,sans-Serif" font-size="10.00">/home/runner/work/Documentation</text>
<text text-anchor="start" x="1803.5" y="-29.5" font-family="Helvetica,sans-Serif" font-size="10.00">/Documentation/master/kratos</text>
<text text-anchor="start" x="1803.5" y="-18.5" font-family="Helvetica,sans-Serif" font-size="10.00">/modeler/voxel_mesh_generator</text>
<text text-anchor="middle" x="1889" y="-7.5" font-family="Helvetica,sans-Serif" font-size="10.00">_modeler.cpp</text>
</a>
</g>
</g>
<!-- Node16&#45;&gt;Node17 -->
<g id="edge22" class="edge">
<title>Node16&#45;&gt;Node17</title>
<path fill="none" stroke="midnightblue" d="M1734.72,-85.86C1763.19,-75.09 1795.32,-62.94 1822.85,-52.52"/>
<polygon fill="midnightblue" stroke="midnightblue" points="1733.33,-82.64 1725.22,-89.45 1735.81,-89.19 1733.33,-82.64"/>
</g>
<!-- Node18 -->
<g id="node18" class="node">
<title>Node18</title>
<g id="a_node18"><a xlink:href="../../da/dd0/kratos__application_8cpp.html" target="_top" xlink:title=" ">
<polygon fill="none" stroke="black" points="1590.5,-6 1590.5,-47 1777.5,-47 1777.5,-6 1590.5,-6"/>
<text text-anchor="start" x="1598.5" y="-35" font-family="Helvetica,sans-Serif" font-size="10.00">/home/runner/work/Documentation</text>
<text text-anchor="start" x="1598.5" y="-24" font-family="Helvetica,sans-Serif" font-size="10.00">/Documentation/master/kratos</text>
<text text-anchor="middle" x="1684" y="-13" font-family="Helvetica,sans-Serif" font-size="10.00">/sources/kratos_application.cpp</text>
</a>
</g>
</g>
<!-- Node16&#45;&gt;Node18 -->
<g id="edge23" class="edge">
<title>Node16&#45;&gt;Node18</title>
<path fill="none" stroke="midnightblue" d="M1669.06,-79.49C1672.23,-68.45 1675.62,-56.65 1678.37,-47.08"/>
<polygon fill="midnightblue" stroke="midnightblue" points="1665.63,-78.76 1666.23,-89.34 1672.36,-80.69 1665.63,-78.76"/>
</g>
</g>
</svg>
