<?xml version="1.0" encoding="UTF-8" standalone="no"?>
<!DOCTYPE svg PUBLIC "-//W3C//DTD SVG 1.1//EN"
 "http://www.w3.org/Graphics/SVG/1.1/DTD/svg11.dtd">
<!-- Generated by graphviz version 2.43.0 (0)
 -->
<!-- Title: /home/runner/work/Documentation/Documentation/master/applications/DEMApplication/custom_strategies/schemes/glued_to_wall_scheme.h Pages: 1 -->
<svg width="3064pt" height="1123pt"
 viewBox="0.00 0.00 3064.00 1123.00" xmlns="http://www.w3.org/2000/svg" xmlns:xlink="http://www.w3.org/1999/xlink">
<g id="graph0" class="graph" transform="scale(1 1) rotate(0) translate(4 1119)">
<title>/home/runner/work/Documentation/Documentation/master/applications/DEMApplication/custom_strategies/schemes/glued_to_wall_scheme.h</title>
<!-- Node1 -->
<g id="node1" class="node">
<title>Node1</title>
<g id="a_node1"><a xlink:title=" ">
<polygon fill="#bfbfbf" stroke="black" points="678,-1062.5 678,-1114.5 872,-1114.5 872,-1062.5 678,-1062.5"/>
<text text-anchor="start" x="686" y="-1102.5" font-family="Helvetica,sans-Serif" font-size="10.00">/home/runner/work/Documentation</text>
<text text-anchor="start" x="686" y="-1091.5" font-family="Helvetica,sans-Serif" font-size="10.00">/Documentation/master/applications</text>
<text text-anchor="start" x="686" y="-1080.5" font-family="Helvetica,sans-Serif" font-size="10.00">/DEMApplication/custom_strategies</text>
<text text-anchor="middle" x="775" y="-1069.5" font-family="Helvetica,sans-Serif" font-size="10.00">/schemes/glued_to_wall_scheme.h</text>
</a>
</g>
</g>
<!-- Node2 -->
<g id="node2" class="node">
<title>Node2</title>
<g id="a_node2"><a xlink:title=" ">
<polygon fill="none" stroke="#bfbfbf" points="2445,-6 2445,-25 2489,-25 2489,-6 2445,-6"/>
<text text-anchor="middle" x="2467" y="-13" font-family="Helvetica,sans-Serif" font-size="10.00">string</text>
</a>
</g>
</g>
<!-- Node1&#45;&gt;Node2 -->
<g id="edge1" class="edge">
<title>Node1&#45;&gt;Node2</title>
<path fill="none" stroke="midnightblue" d="M872.06,-1087.1C1211.51,-1085.3 2344.38,-1075.61 2704,-1026 2863.64,-1003.98 3056,-1100.15 3056,-939 3056,-939 3056,-939 3056,-188 3056,-71.05 2622.5,-28.54 2499.3,-18.82"/>
<polygon fill="midnightblue" stroke="midnightblue" points="2499.25,-15.31 2489.01,-18.03 2498.72,-22.29 2499.25,-15.31"/>
</g>
<!-- Node3 -->
<g id="node3" class="node">
<title>Node3</title>
<g id="a_node3"><a xlink:title=" ">
<polygon fill="none" stroke="#bfbfbf" points="498,-6 498,-25 558,-25 558,-6 498,-6"/>
<text text-anchor="middle" x="528" y="-13" font-family="Helvetica,sans-Serif" font-size="10.00">iostream</text>
</a>
</g>
</g>
<!-- Node1&#45;&gt;Node3 -->
<g id="edge2" class="edge">
<title>Node1&#45;&gt;Node3</title>
<path fill="none" stroke="midnightblue" d="M677.98,-1088.23C557.45,-1086.72 346.61,-1076.16 174,-1026 90.97,-1001.87 0,-1025.46 0,-939 0,-939 0,-939 0,-132 0,-95.55 18.19,-84.8 50,-67 124.73,-25.18 386.86,-17.96 487.88,-16.74"/>
<polygon fill="midnightblue" stroke="midnightblue" points="488.03,-20.24 497.99,-16.63 487.95,-13.24 488.03,-20.24"/>
</g>
<!-- Node4 -->
<g id="node4" class="node">
<title>Node4</title>
<g id="a_node4"><a xlink:title=" ">
<polygon fill="none" stroke="#bfbfbf" points="206,-1001 206,-1020 250,-1020 250,-1001 206,-1001"/>
<text text-anchor="middle" x="228" y="-1008" font-family="Helvetica,sans-Serif" font-size="10.00">cfloat</text>
</a>
</g>
</g>
<!-- Node1&#45;&gt;Node4 -->
<g id="edge3" class="edge">
<title>Node1&#45;&gt;Node4</title>
<path fill="none" stroke="midnightblue" d="M677.54,-1083.39C573.66,-1077.25 405.07,-1062.22 264,-1026 261.49,-1025.35 258.92,-1024.58 256.36,-1023.72"/>
<polygon fill="midnightblue" stroke="midnightblue" points="257.34,-1020.35 246.74,-1020.13 254.89,-1026.9 257.34,-1020.35"/>
</g>
<!-- Node5 -->
<g id="node5" class="node">
<title>Node5</title>
<g id="a_node5"><a xlink:href="../../db/d6a/dem__integration__scheme_8h.html" target="_top" xlink:title=" ">
<polygon fill="none" stroke="black" points="541.5,-733 541.5,-752 690.5,-752 690.5,-733 541.5,-733"/>
<text text-anchor="middle" x="616" y="-740" font-family="Helvetica,sans-Serif" font-size="10.00">dem_integration_scheme.h</text>
</a>
</g>
</g>
<!-- Node1&#45;&gt;Node5 -->
<g id="edge4" class="edge">
<title>Node1&#45;&gt;Node5</title>
<path fill="none" stroke="midnightblue" d="M677.88,-1064.9C658.44,-1055.93 640.26,-1043.42 628,-1026 569.82,-943.32 597.49,-810.83 610.53,-762.19"/>
<polygon fill="midnightblue" stroke="midnightblue" points="613.94,-762.98 613.26,-752.41 607.2,-761.1 613.94,-762.98"/>
</g>
<!-- Node6 -->
<g id="node6" class="node">
<title>Node6</title>
<g id="a_node6"><a xlink:href="../../df/d67/define_8h.html" target="_top" xlink:title=" ">
<polygon fill="none" stroke="black" points="1588.5,-123.5 1588.5,-142.5 1687.5,-142.5 1687.5,-123.5 1588.5,-123.5"/>
<text text-anchor="middle" x="1638" y="-130.5" font-family="Helvetica,sans-Serif" font-size="10.00">includes/define.h</text>
</a>
</g>
</g>
<!-- Node1&#45;&gt;Node6 -->
<g id="edge127" class="edge">
<title>Node1&#45;&gt;Node6</title>
<path fill="none" stroke="midnightblue" d="M872.17,-1085.94C1183.96,-1080.63 2157.12,-1061.57 2470,-1026 2673.27,-1002.89 2922,-1143.58 2922,-939 2922,-939 2922,-939 2922,-864.5 2922,-741.66 2746.65,-470.18 2677,-369 2618.4,-283.89 2583.76,-271.26 2487,-235 2386.86,-197.47 2358.67,-195.4 2253,-179 2051.11,-147.67 1808.45,-138.04 1698,-135.17"/>
<polygon fill="midnightblue" stroke="midnightblue" points="1697.82,-131.67 1687.73,-134.91 1697.64,-138.66 1697.82,-131.67"/>
</g>
<!-- Node18 -->
<g id="node14" class="node">
<title>Node18</title>
<g id="a_node14"><a xlink:href="../../d1/db8/openmp__utils_8h.html" target="_top" xlink:title=" ">
<polygon fill="none" stroke="black" points="303.5,-671.5 303.5,-690.5 434.5,-690.5 434.5,-671.5 303.5,-671.5"/>
<text text-anchor="middle" x="369" y="-678.5" font-family="Helvetica,sans-Serif" font-size="10.00">utilities/openmp_utils.h</text>
</a>
</g>
</g>
<!-- Node1&#45;&gt;Node18 -->
<g id="edge128" class="edge">
<title>Node1&#45;&gt;Node18</title>
<path fill="none" stroke="midnightblue" d="M677.91,-1084.12C521.63,-1077.68 228.5,-1061.03 197,-1026 100.84,-919.07 288.21,-748.59 350.11,-697.16"/>
<polygon fill="midnightblue" stroke="midnightblue" points="352.46,-699.77 357.97,-690.72 348.02,-694.35 352.46,-699.77"/>
</g>
<!-- Node32 -->
<g id="node20" class="node">
<title>Node32</title>
<g id="a_node20"><a xlink:href="../../dd/dfe/model__part_8h.html" target="_top" xlink:title=" ">
<polygon fill="none" stroke="black" points="1393.5,-671.5 1393.5,-690.5 1518.5,-690.5 1518.5,-671.5 1393.5,-671.5"/>
<text text-anchor="middle" x="1456" y="-678.5" font-family="Helvetica,sans-Serif" font-size="10.00">includes/model_part.h</text>
</a>
</g>
</g>
<!-- Node1&#45;&gt;Node32 -->
<g id="edge129" class="edge">
<title>Node1&#45;&gt;Node32</title>
<path fill="none" stroke="midnightblue" d="M780.69,-1062.28C790.21,-1025.55 812.73,-957.33 856,-917 1010.61,-772.88 1263.83,-713.49 1385.88,-692.26"/>
<polygon fill="midnightblue" stroke="midnightblue" points="1386.59,-695.69 1395.86,-690.56 1385.41,-688.79 1386.59,-695.69"/>
</g>
<!-- Node138 -->
<g id="node41" class="node">
<title>Node138</title>
<g id="a_node41"><a xlink:href="../../d5/d44/_geometry_functions_8h.html" target="_top" xlink:title=" ">
<polygon fill="none" stroke="black" points="1436,-850.5 1436,-880.5 1582,-880.5 1582,-850.5 1436,-850.5"/>
<text text-anchor="start" x="1444" y="-868.5" font-family="Helvetica,sans-Serif" font-size="10.00">custom_utilities/Geometry</text>
<text text-anchor="middle" x="1509" y="-857.5" font-family="Helvetica,sans-Serif" font-size="10.00">Functions.h</text>
</a>
</g>
</g>
<!-- Node1&#45;&gt;Node138 -->
<g id="edge130" class="edge">
<title>Node1&#45;&gt;Node138</title>
<path fill="none" stroke="midnightblue" d="M858.13,-1062.47C1009.02,-1017.04 1324.25,-922.13 1452.7,-883.45"/>
<polygon fill="midnightblue" stroke="midnightblue" points="1453.79,-886.78 1462.35,-880.55 1451.77,-880.08 1453.79,-886.78"/>
</g>
<!-- Node143 -->
<g id="node44" class="node">
<title>Node143</title>
<g id="a_node44"><a xlink:href="../../d2/dfc/spheric__particle_8h.html" target="_top" xlink:title=" ">
<polygon fill="none" stroke="black" points="1599,-995.5 1599,-1025.5 1741,-1025.5 1741,-995.5 1599,-995.5"/>
<text text-anchor="start" x="1607" y="-1013.5" font-family="Helvetica,sans-Serif" font-size="10.00">custom_elements/spheric</text>
<text text-anchor="middle" x="1670" y="-1002.5" font-family="Helvetica,sans-Serif" font-size="10.00">_particle.h</text>
</a>
</g>
</g>
<!-- Node1&#45;&gt;Node143 -->
<g id="edge144" class="edge">
<title>Node1&#45;&gt;Node143</title>
<path fill="none" stroke="midnightblue" d="M872.06,-1079.26C1049.58,-1064.18 1423.5,-1032.43 1588.65,-1018.41"/>
<polygon fill="midnightblue" stroke="midnightblue" points="1589.07,-1021.88 1598.74,-1017.55 1588.48,-1014.91 1589.07,-1021.88"/>
</g>
<!-- Node5&#45;&gt;Node2 -->
<g id="edge125" class="edge">
<title>Node5&#45;&gt;Node2</title>
<path fill="none" stroke="midnightblue" d="M690.59,-740.55C1040.91,-735.98 2507.52,-715.39 2548,-691 2770.25,-557.09 2757.37,-371.59 2683,-123 2674.66,-95.1 2672.22,-84.57 2649,-67 2604.43,-33.26 2538.51,-22.06 2499.44,-18.35"/>
<polygon fill="midnightblue" stroke="midnightblue" points="2499.43,-14.83 2489.18,-17.48 2498.85,-21.81 2499.43,-14.83"/>
</g>
<!-- Node5&#45;&gt;Node3 -->
<g id="edge126" class="edge">
<title>Node5&#45;&gt;Node3</title>
<path fill="none" stroke="midnightblue" d="M541.45,-738.28C410.29,-730.55 152,-705.28 152,-626 152,-626 152,-626 152,-568 152,-480.14 76,-473.36 76,-385.5 76,-385.5 76,-385.5 76,-132 76,-101.2 75.81,-86.06 100,-67 159.55,-20.08 393.03,-15.8 487.75,-16.05"/>
<polygon fill="midnightblue" stroke="midnightblue" points="487.78,-19.55 497.8,-16.1 487.81,-12.55 487.78,-19.55"/>
</g>
<!-- Node5&#45;&gt;Node6 -->
<g id="edge5" class="edge">
<title>Node5&#45;&gt;Node6</title>
<path fill="none" stroke="midnightblue" d="M628.7,-732.92C689.75,-691.73 959.42,-510.43 1185,-369 1211.35,-352.48 1220.19,-351.75 1245,-333 1261.05,-320.87 1263.12,-315.54 1278,-302 1345.38,-240.68 1357.95,-214.16 1442,-179 1485.85,-160.66 1538.5,-149.1 1578.18,-142.29"/>
<polygon fill="midnightblue" stroke="midnightblue" points="1578.94,-145.71 1588.23,-140.62 1577.8,-138.81 1578.94,-145.71"/>
</g>
<!-- Node5&#45;&gt;Node18 -->
<g id="edge19" class="edge">
<title>Node5&#45;&gt;Node18</title>
<path fill="none" stroke="midnightblue" d="M580.61,-732.98C536.77,-722.42 462.03,-704.41 414.12,-692.87"/>
<polygon fill="midnightblue" stroke="midnightblue" points="414.87,-689.45 404.32,-690.51 413.23,-696.25 414.87,-689.45"/>
</g>
<!-- Node5&#45;&gt;Node32 -->
<g id="edge30" class="edge">
<title>Node5&#45;&gt;Node32</title>
<path fill="none" stroke="midnightblue" d="M690.54,-736.22C850.45,-724.89 1224.73,-698.38 1383.13,-687.16"/>
<polygon fill="midnightblue" stroke="midnightblue" points="1383.52,-690.64 1393.24,-686.45 1383.02,-683.66 1383.52,-690.64"/>
</g>
<!-- Node86 -->
<g id="node39" class="node">
<title>Node86</title>
<g id="a_node39"><a xlink:href="../../da/d07/quaternion_8h.html" target="_top" xlink:title=" ">
<polygon fill="none" stroke="black" points="564,-671.5 564,-690.5 682,-690.5 682,-671.5 564,-671.5"/>
<text text-anchor="middle" x="623" y="-678.5" font-family="Helvetica,sans-Serif" font-size="10.00">utilities/quaternion.h</text>
</a>
</g>
</g>
<!-- Node5&#45;&gt;Node86 -->
<g id="edge121" class="edge">
<title>Node5&#45;&gt;Node86</title>
<path fill="none" stroke="midnightblue" d="M617,-732.98C617.99,-724.58 619.53,-711.48 620.8,-700.66"/>
<polygon fill="midnightblue" stroke="midnightblue" points="624.31,-700.85 622,-690.51 617.35,-700.03 624.31,-700.85"/>
</g>
<!-- Node137 -->
<g id="node40" class="node">
<title>Node137</title>
<g id="a_node40"><a xlink:title=" ">
<polygon fill="none" stroke="#bfbfbf" points="498.5,-671.5 498.5,-690.5 545.5,-690.5 545.5,-671.5 498.5,-671.5"/>
<text text-anchor="middle" x="522" y="-678.5" font-family="Helvetica,sans-Serif" font-size="10.00">float.h</text>
</a>
</g>
</g>
<!-- Node5&#45;&gt;Node137 -->
<g id="edge124" class="edge">
<title>Node5&#45;&gt;Node137</title>
<path fill="none" stroke="midnightblue" d="M602.53,-732.98C587.32,-723.34 562.31,-707.52 544.2,-696.05"/>
<polygon fill="midnightblue" stroke="midnightblue" points="545.76,-692.9 535.44,-690.51 542.02,-698.81 545.76,-692.9"/>
</g>
<!-- Node7 -->
<g id="node7" class="node">
<title>Node7</title>
<g id="a_node7"><a xlink:title=" ">
<polygon fill="none" stroke="#bfbfbf" points="1508.5,-6 1508.5,-25 1573.5,-25 1573.5,-6 1508.5,-6"/>
<text text-anchor="middle" x="1541" y="-13" font-family="Helvetica,sans-Serif" font-size="10.00">stdexcept</text>
</a>
</g>
</g>
<!-- Node6&#45;&gt;Node7 -->
<g id="edge6" class="edge">
<title>Node6&#45;&gt;Node7</title>
<path fill="none" stroke="midnightblue" d="M1630.71,-123.32C1614.63,-104.17 1575.89,-58.04 1554.97,-33.13"/>
<polygon fill="midnightblue" stroke="midnightblue" points="1557.49,-30.69 1548.38,-25.28 1552.13,-35.19 1557.49,-30.69"/>
</g>
<!-- Node8 -->
<g id="node8" class="node">
<title>Node8</title>
<g id="a_node8"><a xlink:title=" ">
<polygon fill="none" stroke="#bfbfbf" points="2819,-6 2819,-25 2875,-25 2875,-6 2819,-6"/>
<text text-anchor="middle" x="2847" y="-13" font-family="Helvetica,sans-Serif" font-size="10.00">sstream</text>
</a>
</g>
</g>
<!-- Node6&#45;&gt;Node8 -->
<g id="edge7" class="edge">
<title>Node6&#45;&gt;Node8</title>
<path fill="none" stroke="midnightblue" d="M1687.67,-130.97C1855.73,-127.28 2402.23,-113.48 2576,-87 2662.28,-73.85 2760.83,-44.47 2812,-28.09"/>
<polygon fill="midnightblue" stroke="midnightblue" points="2813.14,-31.4 2821.59,-25 2810.99,-24.74 2813.14,-31.4"/>
</g>
<!-- Node9 -->
<g id="node9" class="node">
<title>Node9</title>
<g id="a_node9"><a xlink:href="../../dc/d25/kratos__export__api_8h.html" target="_top" xlink:title=" ">
<polygon fill="none" stroke="black" points="1180,-0.5 1180,-30.5 1308,-30.5 1308,-0.5 1180,-0.5"/>
<text text-anchor="start" x="1188" y="-18.5" font-family="Helvetica,sans-Serif" font-size="10.00">includes/kratos_export</text>
<text text-anchor="middle" x="1244" y="-7.5" font-family="Helvetica,sans-Serif" font-size="10.00">_api.h</text>
</a>
</g>
</g>
<!-- Node6&#45;&gt;Node9 -->
<g id="edge8" class="edge">
<title>Node6&#45;&gt;Node9</title>
<path fill="none" stroke="midnightblue" d="M1588.14,-128.4C1534.14,-123.38 1446.07,-111.92 1374,-87 1337.53,-74.39 1299.08,-52.29 1273.54,-36.19"/>
<polygon fill="midnightblue" stroke="midnightblue" points="1275.38,-33.21 1265.07,-30.77 1271.61,-39.11 1275.38,-33.21"/>
</g>
<!-- Node10 -->
<g id="node10" class="node">
<title>Node10</title>
<g id="a_node10"><a xlink:href="../../d9/dc0/smart__pointers_8h.html" target="_top" xlink:title=" ">
<polygon fill="none" stroke="red" points="992.5,-67.5 992.5,-86.5 1135.5,-86.5 1135.5,-67.5 992.5,-67.5"/>
<text text-anchor="middle" x="1064" y="-74.5" font-family="Helvetica,sans-Serif" font-size="10.00">includes/smart_pointers.h</text>
</a>
</g>
</g>
<!-- Node6&#45;&gt;Node10 -->
<g id="edge9" class="edge">
<title>Node6&#45;&gt;Node10</title>
<path fill="none" stroke="midnightblue" d="M1588.07,-127.3C1489.08,-117.99 1267.11,-97.11 1146.24,-85.74"/>
<polygon fill="midnightblue" stroke="midnightblue" points="1146.22,-82.22 1135.93,-84.77 1145.56,-89.19 1146.22,-82.22"/>
</g>
<!-- Node14 -->
<g id="node12" class="node">
<title>Node14</title>
<g id="a_node12"><a xlink:href="../../dd/d2d/exception_8h.html" target="_top" xlink:title=" ">
<polygon fill="none" stroke="red" points="1382.5,-67.5 1382.5,-86.5 1499.5,-86.5 1499.5,-67.5 1382.5,-67.5"/>
<text text-anchor="middle" x="1441" y="-74.5" font-family="Helvetica,sans-Serif" font-size="10.00">includes/exception.h</text>
</a>
</g>
</g>
<!-- Node6&#45;&gt;Node14 -->
<g id="edge12" class="edge">
<title>Node6&#45;&gt;Node14</title>
<path fill="none" stroke="midnightblue" d="M1606.78,-123.44C1573.07,-114.2 1519.2,-99.44 1482.07,-89.26"/>
<polygon fill="midnightblue" stroke="midnightblue" points="1482.64,-85.78 1472.07,-86.52 1480.79,-92.54 1482.64,-85.78"/>
</g>
<!-- Node10&#45;&gt;Node3 -->
<g id="edge10" class="edge">
<title>Node10&#45;&gt;Node3</title>
<path fill="none" stroke="midnightblue" d="M992.27,-68.04C877.98,-55.35 658.28,-30.96 568.12,-20.95"/>
<polygon fill="midnightblue" stroke="midnightblue" points="568.36,-17.46 558.03,-19.83 567.58,-24.42 568.36,-17.46"/>
</g>
<!-- Node11 -->
<g id="node11" class="node">
<title>Node11</title>
<g id="a_node11"><a xlink:title=" ">
<polygon fill="none" stroke="#bfbfbf" points="953.5,-6 953.5,-25 998.5,-25 998.5,-6 953.5,-6"/>
<text text-anchor="middle" x="976" y="-13" font-family="Helvetica,sans-Serif" font-size="10.00">utility</text>
</a>
</g>
</g>
<!-- Node10&#45;&gt;Node11 -->
<g id="edge11" class="edge">
<title>Node10&#45;&gt;Node11</title>
<path fill="none" stroke="midnightblue" d="M1051.39,-67.48C1037.28,-57.93 1014.17,-42.31 997.25,-30.87"/>
<polygon fill="midnightblue" stroke="midnightblue" points="998.83,-27.71 988.58,-25.01 994.91,-33.51 998.83,-27.71"/>
</g>
<!-- Node14&#45;&gt;Node2 -->
<g id="edge14" class="edge">
<title>Node14&#45;&gt;Node2</title>
<path fill="none" stroke="midnightblue" d="M1499.53,-68.42C1504.42,-67.9 1509.29,-67.41 1514,-67 1874.47,-35.27 2313.53,-20.92 2434.71,-17.39"/>
<polygon fill="midnightblue" stroke="midnightblue" points="2434.9,-20.89 2444.8,-17.1 2434.7,-13.89 2434.9,-20.89"/>
</g>
<!-- Node14&#45;&gt;Node3 -->
<g id="edge15" class="edge">
<title>Node14&#45;&gt;Node3</title>
<path fill="none" stroke="midnightblue" d="M1382.46,-68.46C1377.57,-67.93 1372.71,-67.43 1368,-67 1061.19,-38.89 689.84,-22.82 568.48,-18.03"/>
<polygon fill="midnightblue" stroke="midnightblue" points="568.32,-14.52 558.19,-17.63 568.04,-21.52 568.32,-14.52"/>
</g>
<!-- Node14&#45;&gt;Node7 -->
<g id="edge13" class="edge">
<title>Node14&#45;&gt;Node7</title>
<path fill="none" stroke="midnightblue" d="M1455.33,-67.48C1471.66,-57.75 1498.6,-41.73 1517.91,-30.24"/>
<polygon fill="midnightblue" stroke="midnightblue" points="1519.89,-33.13 1526.7,-25.01 1516.32,-27.11 1519.89,-33.13"/>
</g>
<!-- Node14&#45;&gt;Node8 -->
<g id="edge16" class="edge">
<title>Node14&#45;&gt;Node8</title>
<path fill="none" stroke="midnightblue" d="M1499.62,-73.52C1735.91,-63.52 2614.94,-26.32 2808.95,-18.11"/>
<polygon fill="midnightblue" stroke="midnightblue" points="2809.11,-21.61 2818.95,-17.69 2808.81,-14.61 2809.11,-21.61"/>
</g>
<!-- Node14&#45;&gt;Node9 -->
<g id="edge18" class="edge">
<title>Node14&#45;&gt;Node9</title>
<path fill="none" stroke="midnightblue" d="M1412.77,-67.48C1383.48,-58.63 1336.87,-44.55 1300.05,-33.43"/>
<polygon fill="midnightblue" stroke="midnightblue" points="1301.01,-30.06 1290.43,-30.52 1298.99,-36.76 1301.01,-30.06"/>
</g>
<!-- Node15 -->
<g id="node13" class="node">
<title>Node15</title>
<g id="a_node13"><a xlink:title=" ">
<polygon fill="none" stroke="#bfbfbf" points="1326.5,-6 1326.5,-25 1373.5,-25 1373.5,-6 1326.5,-6"/>
<text text-anchor="middle" x="1350" y="-13" font-family="Helvetica,sans-Serif" font-size="10.00">vector</text>
</a>
</g>
</g>
<!-- Node14&#45;&gt;Node15 -->
<g id="edge17" class="edge">
<title>Node14&#45;&gt;Node15</title>
<path fill="none" stroke="midnightblue" d="M1427.96,-67.48C1413.23,-57.84 1389.03,-42.02 1371.49,-30.55"/>
<polygon fill="midnightblue" stroke="midnightblue" points="1373.3,-27.55 1363.01,-25.01 1369.47,-33.41 1373.3,-27.55"/>
</g>
<!-- Node18&#45;&gt;Node3 -->
<g id="edge22" class="edge">
<title>Node18&#45;&gt;Node3</title>
<path fill="none" stroke="midnightblue" d="M315.17,-671.44C291.36,-665.08 264.79,-654.06 247,-635 226.46,-613 228,-600.1 228,-570 228,-570 228,-570 228,-506.5 228,-388.24 152,-369.76 152,-251.5 152,-251.5 152,-251.5 152,-132 152,-101.2 152.05,-86.36 176,-67 223.2,-28.84 405.56,-19.51 487.6,-17.23"/>
<polygon fill="midnightblue" stroke="midnightblue" points="487.89,-20.73 497.79,-16.97 487.71,-13.73 487.89,-20.73"/>
</g>
<!-- Node18&#45;&gt;Node15 -->
<g id="edge21" class="edge">
<title>Node18&#45;&gt;Node15</title>
<path fill="none" stroke="midnightblue" d="M373.03,-671.44C378.51,-658.45 386.6,-633.33 377,-615 363.95,-590.1 338.05,-603.9 325,-579 320.87,-571.13 322.2,-567.44 325,-559 402.31,-325.75 440.96,-223.94 665,-123 769.19,-76.06 1068.08,-118.28 1178,-87 1196.36,-81.78 1198.52,-74.67 1216,-67 1259.64,-47.85 1272.71,-48.6 1317,-31 1318.6,-30.36 1320.24,-29.7 1321.88,-29.02"/>
<polygon fill="midnightblue" stroke="midnightblue" points="1323.43,-32.16 1331.25,-25.02 1320.68,-25.72 1323.43,-32.16"/>
</g>
<!-- Node19 -->
<g id="node15" class="node">
<title>Node19</title>
<g id="a_node15"><a xlink:title=" ">
<polygon fill="none" stroke="#bfbfbf" points="318,-615.5 318,-634.5 368,-634.5 368,-615.5 318,-615.5"/>
<text text-anchor="middle" x="343" y="-622.5" font-family="Helvetica,sans-Serif" font-size="10.00">stdio.h</text>
</a>
</g>
</g>
<!-- Node18&#45;&gt;Node19 -->
<g id="edge20" class="edge">
<title>Node18&#45;&gt;Node19</title>
<path fill="none" stroke="midnightblue" d="M364.71,-671.08C361.15,-663.69 355.98,-652.95 351.58,-643.81"/>
<polygon fill="midnightblue" stroke="midnightblue" points="354.71,-642.24 347.21,-634.75 348.4,-645.28 354.71,-642.24"/>
</g>
<!-- Node20 -->
<g id="node16" class="node">
<title>Node20</title>
<g id="a_node16"><a xlink:title=" ">
<polygon fill="none" stroke="#bfbfbf" points="256,-615.5 256,-634.5 300,-634.5 300,-615.5 256,-615.5"/>
<text text-anchor="middle" x="278" y="-622.5" font-family="Helvetica,sans-Serif" font-size="10.00">ctime</text>
</a>
</g>
</g>
<!-- Node18&#45;&gt;Node20 -->
<g id="edge23" class="edge">
<title>Node18&#45;&gt;Node20</title>
<path fill="none" stroke="midnightblue" d="M354.38,-671.32C340.05,-662.82 317.99,-649.73 301.25,-639.8"/>
<polygon fill="midnightblue" stroke="midnightblue" points="302.97,-636.75 292.58,-634.65 299.4,-642.77 302.97,-636.75"/>
</g>
<!-- Node21 -->
<g id="node17" class="node">
<title>Node21</title>
<g id="a_node17"><a xlink:href="../../de/d07/parallel__utilities_8h.html" target="_top" xlink:title=" ">
<polygon fill="none" stroke="red" points="538,-615.5 538,-634.5 642,-634.5 642,-615.5 538,-615.5"/>
<text text-anchor="middle" x="590" y="-622.5" font-family="Helvetica,sans-Serif" font-size="10.00">parallel_utilities.h</text>
</a>
</g>
</g>
<!-- Node18&#45;&gt;Node21 -->
<g id="edge24" class="edge">
<title>Node18&#45;&gt;Node21</title>
<path fill="none" stroke="midnightblue" d="M404.02,-671.44C442.25,-662.1 503.57,-647.12 545.26,-636.93"/>
<polygon fill="midnightblue" stroke="midnightblue" points="546.26,-640.29 555.15,-634.52 544.6,-633.49 546.26,-640.29"/>
</g>
<!-- Node21&#45;&gt;Node3 -->
<g id="edge25" class="edge">
<title>Node21&#45;&gt;Node3</title>
<path fill="none" stroke="midnightblue" d="M582.93,-615.48C565.22,-594.23 517.31,-537.32 475,-492 459.56,-475.46 452.88,-473.87 439,-456 357.66,-351.31 304,-322.58 304,-190 304,-190 304,-190 304,-132 304,-50.35 423.03,-26.36 487.55,-19.36"/>
<polygon fill="midnightblue" stroke="midnightblue" points="488.19,-22.81 497.79,-18.34 487.49,-15.85 488.19,-22.81"/>
</g>
<!-- Node21&#45;&gt;Node6 -->
<g id="edge28" class="edge">
<title>Node21&#45;&gt;Node6</title>
<path fill="none" stroke="midnightblue" d="M594.61,-615.35C610.41,-586.4 665.25,-491.56 734,-436 871.31,-325.03 941.29,-356.28 1093,-266 1149.3,-232.5 1150.88,-202.59 1212,-179 1245.36,-166.13 1468.97,-147.2 1578.19,-138.58"/>
<polygon fill="midnightblue" stroke="midnightblue" points="1578.7,-142.05 1588.39,-137.78 1578.15,-135.07 1578.7,-142.05"/>
</g>
<!-- Node21&#45;&gt;Node15 -->
<g id="edge26" class="edge">
<title>Node21&#45;&gt;Node15</title>
<path fill="none" stroke="midnightblue" d="M589.08,-615.37C587.29,-597.93 583.36,-557.27 582,-523 574.68,-337.92 539.25,-216.75 699,-123 798.33,-64.71 1105.22,-118.49 1216,-87 1259.01,-74.77 1304.03,-47.67 1329.4,-30.85"/>
<polygon fill="midnightblue" stroke="midnightblue" points="1331.48,-33.67 1337.81,-25.17 1327.56,-27.87 1331.48,-33.67"/>
</g>
<!-- Node25 -->
<g id="node18" class="node">
<title>Node25</title>
<g id="a_node18"><a xlink:title=" ">
<polygon fill="none" stroke="#bfbfbf" points="1957.5,-559.5 1957.5,-578.5 2004.5,-578.5 2004.5,-559.5 1957.5,-559.5"/>
<text text-anchor="middle" x="1981" y="-566.5" font-family="Helvetica,sans-Serif" font-size="10.00">cmath</text>
</a>
</g>
</g>
<!-- Node21&#45;&gt;Node25 -->
<g id="edge27" class="edge">
<title>Node21&#45;&gt;Node25</title>
<path fill="none" stroke="midnightblue" d="M642.41,-621.97C869.06,-613.17 1761.81,-578.51 1947.18,-571.31"/>
<polygon fill="midnightblue" stroke="midnightblue" points="1947.55,-574.8 1957.41,-570.92 1947.28,-567.81 1947.55,-574.8"/>
</g>
<!-- Node30 -->
<g id="node19" class="node">
<title>Node30</title>
<g id="a_node19"><a xlink:href="../../d5/dfb/global__variables_8h.html" target="_top" xlink:title=" ">
<polygon fill="none" stroke="black" points="333.5,-559.5 333.5,-578.5 482.5,-578.5 482.5,-559.5 333.5,-559.5"/>
<text text-anchor="middle" x="408" y="-566.5" font-family="Helvetica,sans-Serif" font-size="10.00">includes/global_variables.h</text>
</a>
</g>
</g>
<!-- Node21&#45;&gt;Node30 -->
<g id="edge29" class="edge">
<title>Node21&#45;&gt;Node30</title>
<path fill="none" stroke="midnightblue" d="M561.16,-615.44C530.14,-606.24 480.67,-591.56 446.38,-581.39"/>
<polygon fill="midnightblue" stroke="midnightblue" points="447.29,-578.01 436.7,-578.52 445.29,-584.72 447.29,-578.01"/>
</g>
<!-- Node32&#45;&gt;Node2 -->
<g id="edge31" class="edge">
<title>Node32&#45;&gt;Node2</title>
<path fill="none" stroke="midnightblue" d="M1518.72,-679.14C1707.29,-676.21 2260.78,-665.14 2336,-635 2535.89,-554.9 2580.07,-469.67 2650,-266 2678.93,-181.74 2692.87,-125.86 2626,-67 2590.14,-35.43 2534.49,-23.58 2499.43,-19.14"/>
<polygon fill="midnightblue" stroke="midnightblue" points="2499.59,-15.64 2489.26,-17.99 2498.8,-22.59 2499.59,-15.64"/>
</g>
<!-- Node32&#45;&gt;Node3 -->
<g id="edge32" class="edge">
<title>Node32&#45;&gt;Node3</title>
<path fill="none" stroke="midnightblue" d="M1393.3,-678.7C1190.77,-674.29 565.04,-658.77 529,-635 497.64,-614.31 512.19,-590.68 492,-559 383.64,-388.94 228,-391.65 228,-190 228,-190 228,-190 228,-132 228,-76.94 406.21,-38.14 487.93,-23.25"/>
<polygon fill="midnightblue" stroke="midnightblue" points="488.64,-26.68 497.86,-21.47 487.4,-19.79 488.64,-26.68"/>
</g>
<!-- Node32&#45;&gt;Node6 -->
<g id="edge35" class="edge">
<title>Node32&#45;&gt;Node6</title>
<path fill="none" stroke="midnightblue" d="M1482.08,-671.46C1588.22,-636.34 1982,-502.31 1982,-447 1982,-447 1982,-447 1982,-316.5 1982,-244.65 1960.15,-213.27 1897,-179 1879.75,-169.64 1768.71,-152.54 1697.74,-142.32"/>
<polygon fill="midnightblue" stroke="midnightblue" points="1697.97,-138.82 1687.57,-140.87 1696.98,-145.75 1697.97,-138.82"/>
</g>
<!-- Node32&#45;&gt;Node8 -->
<g id="edge33" class="edge">
<title>Node32&#45;&gt;Node8</title>
<path fill="none" stroke="midnightblue" d="M1518.81,-680.48C1698.31,-681.28 2210.95,-679.49 2372,-635 2503.13,-598.78 2692.66,-521.77 2880,-333 2972.55,-239.74 3086.86,-172.83 3009,-67 2980.83,-28.72 2923.83,-18.63 2885.52,-16.4"/>
<polygon fill="midnightblue" stroke="midnightblue" points="2885.39,-12.9 2875.25,-15.97 2885.09,-19.89 2885.39,-12.9"/>
</g>
<!-- Node33 -->
<g id="node21" class="node">
<title>Node33</title>
<g id="a_node21"><a xlink:title=" ">
<polygon fill="none" stroke="#bfbfbf" points="1834.5,-179.5 1834.5,-198.5 1887.5,-198.5 1887.5,-179.5 1834.5,-179.5"/>
<text text-anchor="middle" x="1861" y="-186.5" font-family="Helvetica,sans-Serif" font-size="10.00">cstddef</text>
</a>
</g>
</g>
<!-- Node32&#45;&gt;Node33 -->
<g id="edge34" class="edge">
<title>Node32&#45;&gt;Node33</title>
<path fill="none" stroke="midnightblue" d="M1466.59,-671.35C1481.89,-658.87 1511.06,-635.11 1536,-615 1567.02,-589.99 1572.83,-581.07 1606,-559 1633.82,-540.49 1648.17,-546.43 1672,-523 1772,-424.68 1835.54,-262.26 1854.8,-208.16"/>
<polygon fill="midnightblue" stroke="midnightblue" points="1858.15,-209.17 1858.14,-198.58 1851.54,-206.86 1858.15,-209.17"/>
</g>
<!-- Node34 -->
<g id="node22" class="node">
<title>Node34</title>
<g id="a_node22"><a xlink:href="../../dd/d5f/serializer_8h.html" target="_top" xlink:title=" ">
<polygon fill="none" stroke="red" points="770.5,-179.5 770.5,-198.5 883.5,-198.5 883.5,-179.5 770.5,-179.5"/>
<text text-anchor="middle" x="827" y="-186.5" font-family="Helvetica,sans-Serif" font-size="10.00">includes/serializer.h</text>
</a>
</g>
</g>
<!-- Node32&#45;&gt;Node34 -->
<g id="edge36" class="edge">
<title>Node32&#45;&gt;Node34</title>
<path fill="none" stroke="midnightblue" d="M1393.19,-676.93C1323.8,-672.35 1209.27,-661.24 1114,-635 1053.35,-618.29 1031.93,-619.74 984,-579 858.21,-472.08 830.3,-424.46 784,-266 780.14,-252.78 778.87,-247.79 784,-235 788.68,-223.33 797.99,-212.97 806.76,-205.14"/>
<polygon fill="midnightblue" stroke="midnightblue" points="809.05,-207.78 814.5,-198.7 804.58,-202.4 809.05,-207.78"/>
</g>
<!-- Node41 -->
<g id="node24" class="node">
<title>Node41</title>
<g id="a_node24"><a xlink:href="../../d1/d8c/logger_8h.html" target="_top" xlink:title=" ">
<polygon fill="none" stroke="red" points="802,-123.5 802,-142.5 922,-142.5 922,-123.5 802,-123.5"/>
<text text-anchor="middle" x="862" y="-130.5" font-family="Helvetica,sans-Serif" font-size="10.00">input_output/logger.h</text>
</a>
</g>
</g>
<!-- Node32&#45;&gt;Node41 -->
<g id="edge115" class="edge">
<title>Node32&#45;&gt;Node41</title>
<path fill="none" stroke="midnightblue" d="M1393.31,-678.53C1253.04,-674.74 922.81,-662.94 881,-635 706.85,-518.63 648.27,-354.89 762,-179 772.38,-162.95 790,-152.57 807.58,-145.87"/>
<polygon fill="midnightblue" stroke="midnightblue" points="808.99,-149.09 817.3,-142.52 806.71,-142.47 808.99,-149.09"/>
</g>
<!-- Node71 -->
<g id="node25" class="node">
<title>Node71</title>
<g id="a_node25"><a xlink:href="../../de/db8/process__info_8h.html" target="_top" xlink:title=" ">
<polygon fill="none" stroke="red" points="2048.5,-436.5 2048.5,-455.5 2179.5,-455.5 2179.5,-436.5 2048.5,-436.5"/>
<text text-anchor="middle" x="2114" y="-443.5" font-family="Helvetica,sans-Serif" font-size="10.00">includes/process_info.h</text>
</a>
</g>
</g>
<!-- Node32&#45;&gt;Node71 -->
<g id="edge46" class="edge">
<title>Node32&#45;&gt;Node71</title>
<path fill="none" stroke="midnightblue" d="M1518.72,-676.05C1610.76,-669.67 1777.61,-655.66 1834,-635 1891.52,-613.92 1895.01,-587.96 1949,-559 1985.15,-539.61 1999.69,-545.49 2034,-523 2059.92,-506.01 2085.03,-480.14 2100,-463.4"/>
<polygon fill="midnightblue" stroke="midnightblue" points="2102.9,-465.4 2106.86,-455.57 2097.64,-460.79 2102.9,-465.4"/>
</g>
<!-- Node72 -->
<g id="node26" class="node">
<title>Node72</title>
<g id="a_node26"><a xlink:href="../../d1/d82/data__value__container_8h.html" target="_top" xlink:title=" ">
<polygon fill="none" stroke="red" points="1446.5,-369.5 1446.5,-399.5 1571.5,-399.5 1571.5,-369.5 1446.5,-369.5"/>
<text text-anchor="start" x="1454.5" y="-387.5" font-family="Helvetica,sans-Serif" font-size="10.00">containers/data_value</text>
<text text-anchor="middle" x="1509" y="-376.5" font-family="Helvetica,sans-Serif" font-size="10.00">_container.h</text>
</a>
</g>
</g>
<!-- Node32&#45;&gt;Node72 -->
<g id="edge69" class="edge">
<title>Node32&#45;&gt;Node72</title>
<path fill="none" stroke="midnightblue" d="M1452.9,-671.29C1446.62,-652.86 1433,-608.44 1433,-570 1433,-570 1433,-570 1433,-506.5 1433,-466.61 1462.99,-429.08 1485.29,-406.7"/>
<polygon fill="midnightblue" stroke="midnightblue" points="1487.77,-409.18 1492.51,-399.7 1482.89,-404.15 1487.77,-409.18"/>
</g>
<!-- Node73 -->
<g id="node27" class="node">
<title>Node73</title>
<g id="a_node27"><a xlink:href="../../da/d89/variable_8h.html" target="_top" xlink:title=" ">
<polygon fill="none" stroke="red" points="1482.5,-308 1482.5,-327 1601.5,-327 1601.5,-308 1482.5,-308"/>
<text text-anchor="middle" x="1542" y="-315" font-family="Helvetica,sans-Serif" font-size="10.00">containers/variable.h</text>
</a>
</g>
</g>
<!-- Node32&#45;&gt;Node73 -->
<g id="edge119" class="edge">
<title>Node32&#45;&gt;Node73</title>
<path fill="none" stroke="midnightblue" d="M1450.59,-671.46C1435.66,-647.06 1395,-574.55 1395,-508.5 1395,-508.5 1395,-508.5 1395,-445 1395,-406.19 1409.71,-395.57 1438,-369 1456.78,-351.37 1482.87,-338.72 1504.22,-330.49"/>
<polygon fill="midnightblue" stroke="midnightblue" points="1505.47,-333.76 1513.65,-327.02 1503.06,-327.19 1505.47,-333.76"/>
</g>
<!-- Node78 -->
<g id="node28" class="node">
<title>Node78</title>
<g id="a_node28"><a xlink:href="../../d3/dc3/variable__data_8h.html" target="_top" xlink:title=" ">
<polygon fill="none" stroke="red" points="1444,-241 1444,-260 1536,-260 1536,-241 1444,-241"/>
<text text-anchor="middle" x="1490" y="-248" font-family="Helvetica,sans-Serif" font-size="10.00">variable_data.h</text>
</a>
</g>
</g>
<!-- Node32&#45;&gt;Node78 -->
<g id="edge120" class="edge">
<title>Node32&#45;&gt;Node78</title>
<path fill="none" stroke="midnightblue" d="M1446.8,-671.5C1438.08,-662.99 1425.12,-649.17 1417,-635 1372.29,-557.03 1366.8,-524.75 1381,-436 1385.95,-405.05 1388.6,-396.84 1403,-369 1423.28,-329.79 1456.16,-289.63 1475.16,-267.9"/>
<polygon fill="midnightblue" stroke="midnightblue" points="1477.91,-270.07 1481.93,-260.27 1472.67,-265.43 1477.91,-270.07"/>
</g>
<!-- Node87 -->
<g id="node29" class="node">
<title>Node87</title>
<g id="a_node29"><a xlink:href="../../d8/d3b/mesh_8h.html" target="_top" xlink:title=" ">
<polygon fill="none" stroke="red" points="1615,-559.5 1615,-578.5 1711,-578.5 1711,-559.5 1615,-559.5"/>
<text text-anchor="middle" x="1663" y="-566.5" font-family="Helvetica,sans-Serif" font-size="10.00">includes/mesh.h</text>
</a>
</g>
</g>
<!-- Node32&#45;&gt;Node87 -->
<g id="edge70" class="edge">
<title>Node32&#45;&gt;Node87</title>
<path fill="none" stroke="midnightblue" d="M1472.24,-671.37C1508.22,-652.25 1594.82,-606.23 1637.86,-583.36"/>
<polygon fill="midnightblue" stroke="midnightblue" points="1639.64,-586.37 1646.83,-578.59 1636.36,-580.19 1639.64,-586.37"/>
</g>
<!-- Node91 -->
<g id="node30" class="node">
<title>Node91</title>
<g id="a_node30"><a xlink:href="../../d2/d58/pointer__vector__map_8h.html" target="_top" xlink:title=" ">
<polygon fill="none" stroke="red" points="2238.5,-235.5 2238.5,-265.5 2343.5,-265.5 2343.5,-235.5 2238.5,-235.5"/>
<text text-anchor="start" x="2246.5" y="-253.5" font-family="Helvetica,sans-Serif" font-size="10.00">containers/pointer</text>
<text text-anchor="middle" x="2291" y="-242.5" font-family="Helvetica,sans-Serif" font-size="10.00">_vector_map.h</text>
</a>
</g>
</g>
<!-- Node32&#45;&gt;Node91 -->
<g id="edge113" class="edge">
<title>Node32&#45;&gt;Node91</title>
<path fill="none" stroke="midnightblue" d="M1518.71,-680.69C1687.75,-681.91 2149.76,-680.83 2294,-635 2338.54,-620.85 2360.41,-619.91 2383,-579 2441.13,-473.74 2348.6,-328.75 2308.29,-273.81"/>
<polygon fill="midnightblue" stroke="midnightblue" points="2311.08,-271.71 2302.3,-265.79 2305.48,-275.89 2311.08,-271.71"/>
</g>
<!-- Node103 -->
<g id="node31" class="node">
<title>Node103</title>
<g id="a_node31"><a xlink:href="../../da/da4/master__slave__constraint_8h.html" target="_top" xlink:title=" ">
<polygon fill="none" stroke="red" points="1537,-492.5 1537,-522.5 1663,-522.5 1663,-492.5 1537,-492.5"/>
<text text-anchor="start" x="1545" y="-510.5" font-family="Helvetica,sans-Serif" font-size="10.00">includes/master_slave</text>
<text text-anchor="middle" x="1600" y="-499.5" font-family="Helvetica,sans-Serif" font-size="10.00">_constraint.h</text>
</a>
</g>
</g>
<!-- Node32&#45;&gt;Node103 -->
<g id="edge118" class="edge">
<title>Node32&#45;&gt;Node103</title>
<path fill="none" stroke="midnightblue" d="M1456.69,-671.26C1458.83,-649.65 1467.14,-592.99 1497,-559 1509.42,-544.86 1526.71,-534.28 1543.57,-526.56"/>
<polygon fill="midnightblue" stroke="midnightblue" points="1545.07,-529.72 1552.87,-522.55 1542.3,-523.29 1545.07,-529.72"/>
</g>
<!-- Node114 -->
<g id="node32" class="node">
<title>Node114</title>
<g id="a_node32"><a xlink:href="../../d3/dad/geometry__container_8h.html" target="_top" xlink:title=" ">
<polygon fill="none" stroke="black" points="1118,-302.5 1118,-332.5 1236,-332.5 1236,-302.5 1118,-302.5"/>
<text text-anchor="start" x="1126" y="-320.5" font-family="Helvetica,sans-Serif" font-size="10.00">containers/geometry</text>
<text text-anchor="middle" x="1177" y="-309.5" font-family="Helvetica,sans-Serif" font-size="10.00">_container.h</text>
</a>
</g>
</g>
<!-- Node32&#45;&gt;Node114 -->
<g id="edge88" class="edge">
<title>Node32&#45;&gt;Node114</title>
<path fill="none" stroke="midnightblue" d="M1393.29,-675.49C1331.41,-669.79 1242.46,-657.83 1217,-635 1132.77,-559.46 1157.5,-402.94 1170.93,-342.78"/>
<polygon fill="midnightblue" stroke="midnightblue" points="1174.41,-343.24 1173.27,-332.71 1167.59,-341.66 1174.41,-343.24"/>
</g>
<!-- Node115 -->
<g id="node33" class="node">
<title>Node115</title>
<g id="a_node33"><a xlink:href="../../da/d92/pointer__hash__map__set_8h.html" target="_top" xlink:title=" ">
<polygon fill="none" stroke="red" points="978.5,-235.5 978.5,-265.5 1083.5,-265.5 1083.5,-235.5 978.5,-235.5"/>
<text text-anchor="start" x="986.5" y="-253.5" font-family="Helvetica,sans-Serif" font-size="10.00">containers/pointer</text>
<text text-anchor="middle" x="1031" y="-242.5" font-family="Helvetica,sans-Serif" font-size="10.00">_hash_map_set.h</text>
</a>
</g>
</g>
<!-- Node32&#45;&gt;Node115 -->
<g id="edge114" class="edge">
<title>Node32&#45;&gt;Node115</title>
<path fill="none" stroke="midnightblue" d="M1393.24,-675.42C1339.36,-670.04 1260.29,-658.63 1195,-635 1089.31,-596.75 976,-620.9 976,-508.5 976,-508.5 976,-508.5 976,-383.5 976,-342.59 998.78,-299.66 1015.02,-274.26"/>
<polygon fill="midnightblue" stroke="midnightblue" points="1018.07,-276 1020.65,-265.73 1012.22,-272.15 1018.07,-276"/>
</g>
<!-- Node117 -->
<g id="node34" class="node">
<title>Node117</title>
<g id="a_node34"><a xlink:href="../../d4/dfe/element_8h.html" target="_top" xlink:title=" ">
<polygon fill="none" stroke="red" points="2193,-559.5 2193,-578.5 2303,-578.5 2303,-559.5 2193,-559.5"/>
<text text-anchor="middle" x="2248" y="-566.5" font-family="Helvetica,sans-Serif" font-size="10.00">includes/element.h</text>
</a>
</g>
</g>
<!-- Node32&#45;&gt;Node117 -->
<g id="edge94" class="edge">
<title>Node32&#45;&gt;Node117</title>
<path fill="none" stroke="midnightblue" d="M1518.55,-676.94C1613.37,-671.73 1799,-659.24 1955,-635 2045.15,-620.99 2149.06,-595.74 2205.72,-581.17"/>
<polygon fill="midnightblue" stroke="midnightblue" points="2206.93,-584.48 2215.74,-578.58 2205.18,-577.7 2206.93,-584.48"/>
</g>
<!-- Node135 -->
<g id="node35" class="node">
<title>Node135</title>
<g id="a_node35"><a xlink:href="../../d7/d6c/condition_8h.html" target="_top" xlink:title=" ">
<polygon fill="none" stroke="red" points="2023,-559.5 2023,-578.5 2137,-578.5 2137,-559.5 2023,-559.5"/>
<text text-anchor="middle" x="2080" y="-566.5" font-family="Helvetica,sans-Serif" font-size="10.00">includes/condition.h</text>
</a>
</g>
</g>
<!-- Node32&#45;&gt;Node135 -->
<g id="edge96" class="edge">
<title>Node32&#45;&gt;Node135</title>
<path fill="none" stroke="midnightblue" d="M1518.69,-679.09C1607.25,-676.63 1773.52,-667.61 1911,-635 1962.84,-622.71 2020.1,-598.2 2052.89,-583.04"/>
<polygon fill="midnightblue" stroke="midnightblue" points="2054.68,-586.07 2062.25,-578.66 2051.71,-579.73 2054.68,-586.07"/>
</g>
<!-- Node136 -->
<g id="node36" class="node">
<title>Node136</title>
<g id="a_node36"><a xlink:href="../../d8/d75/communicator_8h.html" target="_top" xlink:title=" ">
<polygon fill="none" stroke="black" points="1685.5,-615.5 1685.5,-634.5 1824.5,-634.5 1824.5,-615.5 1685.5,-615.5"/>
<text text-anchor="middle" x="1755" y="-622.5" font-family="Helvetica,sans-Serif" font-size="10.00">includes/communicator.h</text>
</a>
</g>
</g>
<!-- Node32&#45;&gt;Node136 -->
<g id="edge98" class="edge">
<title>Node32&#45;&gt;Node136</title>
<path fill="none" stroke="midnightblue" d="M1503.38,-671.44C1556.08,-661.92 1641.23,-646.55 1697.66,-636.36"/>
<polygon fill="midnightblue" stroke="midnightblue" points="1698.63,-639.74 1707.84,-634.52 1697.38,-632.85 1698.63,-639.74"/>
</g>
<!-- Node120 -->
<g id="node37" class="node">
<title>Node120</title>
<g id="a_node37"><a xlink:href="../../dd/d98/table_8h.html" target="_top" xlink:title=" ">
<polygon fill="none" stroke="black" points="1235,-375 1235,-394 1329,-394 1329,-375 1235,-375"/>
<text text-anchor="middle" x="1282" y="-382" font-family="Helvetica,sans-Serif" font-size="10.00">includes/table.h</text>
</a>
</g>
</g>
<!-- Node32&#45;&gt;Node120 -->
<g id="edge107" class="edge">
<title>Node32&#45;&gt;Node120</title>
<path fill="none" stroke="midnightblue" d="M1393.38,-678.83C1318.75,-673.72 1204,-652.46 1204,-570 1204,-570 1204,-570 1204,-506.5 1204,-462.68 1240.59,-422.13 1263.64,-400.92"/>
<polygon fill="midnightblue" stroke="midnightblue" points="1266,-403.51 1271.15,-394.25 1261.35,-398.27 1266,-403.51"/>
</g>
<!-- Node113 -->
<g id="node38" class="node">
<title>Node113</title>
<g id="a_node38"><a xlink:href="../../d0/dac/kratos__flags_8h.html" target="_top" xlink:title=" ">
<polygon fill="none" stroke="red" points="890,-615.5 890,-634.5 1018,-634.5 1018,-615.5 890,-615.5"/>
<text text-anchor="middle" x="954" y="-622.5" font-family="Helvetica,sans-Serif" font-size="10.00">includes/kratos_flags.h</text>
</a>
</g>
</g>
<!-- Node32&#45;&gt;Node113 -->
<g id="edge116" class="edge">
<title>Node32&#45;&gt;Node113</title>
<path fill="none" stroke="midnightblue" d="M1393.48,-673.54C1310.75,-664.96 1160.39,-649.22 1032,-635 1030.88,-634.88 1029.76,-634.75 1028.62,-634.62"/>
<polygon fill="midnightblue" stroke="midnightblue" points="1028.6,-631.1 1018.27,-633.46 1027.82,-638.06 1028.6,-631.1"/>
</g>
<!-- Node34&#45;&gt;Node2 -->
<g id="edge38" class="edge">
<title>Node34&#45;&gt;Node2</title>
<path fill="none" stroke="midnightblue" d="M883.95,-181.28C1007.8,-166.42 1310.74,-128.77 1563,-87 1609.01,-79.38 1619.74,-72.92 1666,-67 1962.97,-28.97 2325.72,-19.2 2434.61,-17.05"/>
<polygon fill="midnightblue" stroke="midnightblue" points="2434.99,-20.54 2444.92,-16.85 2434.86,-13.54 2434.99,-20.54"/>
</g>
<!-- Node34&#45;&gt;Node3 -->
<g id="edge40" class="edge">
<title>Node34&#45;&gt;Node3</title>
<path fill="none" stroke="midnightblue" d="M818.66,-179.34C805.77,-166.21 779.86,-140.92 755,-123 693.31,-78.53 610.12,-45.16 563.49,-28.45"/>
<polygon fill="midnightblue" stroke="midnightblue" points="564.43,-25.07 553.84,-25.04 562.1,-31.67 564.43,-25.07"/>
</g>
<!-- Node34&#45;&gt;Node6 -->
<g id="edge41" class="edge">
<title>Node34&#45;&gt;Node6</title>
<path fill="none" stroke="midnightblue" d="M883.71,-184.22C1031.46,-174.39 1427.28,-148.03 1578.31,-137.97"/>
<polygon fill="midnightblue" stroke="midnightblue" points="1578.58,-141.46 1588.33,-137.31 1578.12,-134.48 1578.58,-141.46"/>
</g>
<!-- Node34&#45;&gt;Node8 -->
<g id="edge39" class="edge">
<title>Node34&#45;&gt;Node8</title>
<path fill="none" stroke="midnightblue" d="M883.67,-183.06C1009.13,-172.15 1319.82,-145.16 1580,-123 2064.89,-81.69 2654.26,-32.55 2808.56,-19.7"/>
<polygon fill="midnightblue" stroke="midnightblue" points="2809.23,-23.16 2818.91,-18.84 2808.65,-16.18 2809.23,-23.16"/>
</g>
<!-- Node35 -->
<g id="node23" class="node">
<title>Node35</title>
<g id="a_node23"><a xlink:title=" ">
<polygon fill="none" stroke="#bfbfbf" points="708,-123.5 708,-142.5 746,-142.5 746,-123.5 708,-123.5"/>
<text text-anchor="middle" x="727" y="-130.5" font-family="Helvetica,sans-Serif" font-size="10.00">map</text>
</a>
</g>
</g>
<!-- Node34&#45;&gt;Node35 -->
<g id="edge37" class="edge">
<title>Node34&#45;&gt;Node35</title>
<path fill="none" stroke="midnightblue" d="M810.93,-179.32C795.04,-170.74 770.49,-157.49 752.04,-147.52"/>
<polygon fill="midnightblue" stroke="midnightblue" points="753.49,-144.33 743.03,-142.65 750.16,-150.49 753.49,-144.33"/>
</g>
<!-- Node34&#45;&gt;Node41 -->
<g id="edge42" class="edge">
<title>Node34&#45;&gt;Node41</title>
<path fill="none" stroke="midnightblue" d="M832.78,-179.08C837.67,-171.53 844.83,-160.49 850.83,-151.23"/>
<polygon fill="midnightblue" stroke="midnightblue" points="853.83,-153.05 856.33,-142.75 847.95,-149.24 853.83,-153.05"/>
</g>
<!-- Node41&#45;&gt;Node2 -->
<g id="edge43" class="edge">
<title>Node41&#45;&gt;Node2</title>
<path fill="none" stroke="midnightblue" d="M922.25,-129.14C1060.44,-122.37 1396.93,-104.6 1509,-87 1545.63,-81.25 1553.33,-72.53 1590,-67 1916.87,-17.67 2318.95,-15.67 2434.54,-16.22"/>
<polygon fill="midnightblue" stroke="midnightblue" points="2434.8,-19.72 2444.82,-16.28 2434.84,-12.72 2434.8,-19.72"/>
</g>
<!-- Node41&#45;&gt;Node3 -->
<g id="edge44" class="edge">
<title>Node41&#45;&gt;Node3</title>
<path fill="none" stroke="midnightblue" d="M854.83,-123.22C842.68,-108.98 816.55,-81.01 788,-67 715.83,-31.58 620.96,-20.98 568.06,-17.83"/>
<polygon fill="midnightblue" stroke="midnightblue" points="568.24,-14.33 558.06,-17.29 567.86,-21.32 568.24,-14.33"/>
</g>
<!-- Node41&#45;&gt;Node14 -->
<g id="edge45" class="edge">
<title>Node41&#45;&gt;Node14</title>
<path fill="none" stroke="midnightblue" d="M922.05,-126.4C1030.45,-116.29 1258.12,-95.06 1372.44,-84.39"/>
<polygon fill="midnightblue" stroke="midnightblue" points="1372.84,-87.87 1382.47,-83.46 1372.19,-80.9 1372.84,-87.87"/>
</g>
<!-- Node71&#45;&gt;Node2 -->
<g id="edge47" class="edge">
<title>Node71&#45;&gt;Node2</title>
<path fill="none" stroke="midnightblue" d="M2139.56,-436.5C2196.62,-416.23 2335.33,-359.66 2411,-266 2467.46,-196.11 2469.65,-80.79 2468.09,-35.55"/>
<polygon fill="midnightblue" stroke="midnightblue" points="2471.58,-35.24 2467.63,-25.41 2464.59,-35.56 2471.58,-35.24"/>
</g>
<!-- Node71&#45;&gt;Node3 -->
<g id="edge48" class="edge">
<title>Node71&#45;&gt;Node3</title>
<path fill="none" stroke="midnightblue" d="M2048.26,-445.01C1900.62,-444.31 1531.74,-438.47 1226,-400 1077.08,-381.26 1033.4,-391.08 895,-333 728.54,-263.14 583.31,-88.06 540.65,-33.21"/>
<polygon fill="midnightblue" stroke="midnightblue" points="543.37,-30.99 534.5,-25.2 537.82,-35.26 543.37,-30.99"/>
</g>
<!-- Node71&#45;&gt;Node6 -->
<g id="edge51" class="edge">
<title>Node71&#45;&gt;Node6</title>
<path fill="none" stroke="midnightblue" d="M2112.86,-436.37C2107,-396.17 2076.25,-227.28 1968,-179 1964.93,-177.63 1791.72,-154.44 1697.51,-141.9"/>
<polygon fill="midnightblue" stroke="midnightblue" points="1697.92,-138.43 1687.54,-140.58 1696.99,-145.36 1697.92,-138.43"/>
</g>
<!-- Node71&#45;&gt;Node8 -->
<g id="edge49" class="edge">
<title>Node71&#45;&gt;Node8</title>
<path fill="none" stroke="midnightblue" d="M2151.03,-436.48C2182.88,-428.62 2229.75,-415.81 2269,-400 2447.32,-328.17 2495.29,-310.35 2652,-199 2726.22,-146.26 2801.31,-67.06 2832.26,-33.01"/>
<polygon fill="midnightblue" stroke="midnightblue" points="2835.06,-35.14 2839.16,-25.38 2829.86,-30.45 2835.06,-35.14"/>
</g>
<!-- Node71&#45;&gt;Node33 -->
<g id="edge50" class="edge">
<title>Node71&#45;&gt;Node33</title>
<path fill="none" stroke="midnightblue" d="M2106.74,-436.09C2082.12,-406.13 1998.93,-306.82 1920,-235 1908,-224.08 1893.54,-213.02 1881.93,-204.59"/>
<polygon fill="midnightblue" stroke="midnightblue" points="1883.87,-201.68 1873.7,-198.71 1879.8,-207.37 1883.87,-201.68"/>
</g>
<!-- Node71&#45;&gt;Node72 -->
<g id="edge52" class="edge">
<title>Node71&#45;&gt;Node72</title>
<path fill="none" stroke="midnightblue" d="M2048.39,-438.55C1934.4,-427.34 1700.62,-404.34 1581.8,-392.66"/>
<polygon fill="midnightblue" stroke="midnightblue" points="1582,-389.16 1571.7,-391.67 1581.31,-396.13 1582,-389.16"/>
</g>
<!-- Node72&#45;&gt;Node2 -->
<g id="edge53" class="edge">
<title>Node72&#45;&gt;Node2</title>
<path fill="none" stroke="midnightblue" d="M1571.55,-381.63C1682.22,-377.58 1919.48,-365.58 2117,-333 2238.57,-312.95 2299.2,-353.44 2386,-266 2450.09,-201.43 2397.92,-150.52 2434,-67 2439.16,-55.05 2447.09,-42.8 2453.88,-33.36"/>
<polygon fill="midnightblue" stroke="midnightblue" points="2456.74,-35.38 2459.92,-25.27 2451.13,-31.19 2456.74,-35.38"/>
</g>
<!-- Node72&#45;&gt;Node3 -->
<g id="edge54" class="edge">
<title>Node72&#45;&gt;Node3</title>
<path fill="none" stroke="midnightblue" d="M1446.14,-378.06C1349.89,-369.31 1170.67,-351.23 1109,-333 1076.12,-323.28 991.93,-292.36 970,-266 927.87,-215.36 973.03,-173.73 931,-123 894.73,-79.23 870.08,-84.52 816,-67 730.26,-39.22 624.91,-25.68 568.4,-19.99"/>
<polygon fill="midnightblue" stroke="midnightblue" points="568.39,-16.48 558.1,-18.99 567.71,-23.44 568.39,-16.48"/>
</g>
<!-- Node72&#45;&gt;Node6 -->
<g id="edge57" class="edge">
<title>Node72&#45;&gt;Node6</title>
<path fill="none" stroke="midnightblue" d="M1560.17,-369.43C1579.01,-361.7 1598.72,-350.09 1611,-333 1650.82,-277.57 1645.53,-190.56 1640.83,-152.67"/>
<polygon fill="midnightblue" stroke="midnightblue" points="1644.28,-152.01 1639.45,-142.58 1637.34,-152.96 1644.28,-152.01"/>
</g>
<!-- Node72&#45;&gt;Node14 -->
<g id="edge68" class="edge">
<title>Node72&#45;&gt;Node14</title>
<path fill="none" stroke="midnightblue" d="M1495.99,-369.31C1477.94,-348.51 1446.24,-307.66 1435,-266 1418.8,-205.95 1430.03,-131.19 1436.84,-96.85"/>
<polygon fill="midnightblue" stroke="midnightblue" points="1440.31,-97.33 1438.93,-86.83 1433.46,-95.9 1440.31,-97.33"/>
</g>
<!-- Node72&#45;&gt;Node15 -->
<g id="edge56" class="edge">
<title>Node72&#45;&gt;Node15</title>
<path fill="none" stroke="midnightblue" d="M1484.64,-369.49C1471.19,-360.61 1455.19,-347.98 1445,-333 1377.82,-234.21 1357.07,-86.7 1351.67,-35.11"/>
<polygon fill="midnightblue" stroke="midnightblue" points="1355.15,-34.73 1350.69,-25.12 1348.18,-35.41 1355.15,-34.73"/>
</g>
<!-- Node72&#45;&gt;Node33 -->
<g id="edge55" class="edge">
<title>Node72&#45;&gt;Node33</title>
<path fill="none" stroke="midnightblue" d="M1554.15,-369.45C1580.91,-360.44 1615.11,-347.69 1644,-333 1721.12,-293.79 1804.46,-233.09 1841.43,-205.09"/>
<polygon fill="midnightblue" stroke="midnightblue" points="1843.97,-207.56 1849.8,-198.71 1839.72,-201.99 1843.97,-207.56"/>
</g>
<!-- Node72&#45;&gt;Node73 -->
<g id="edge58" class="edge">
<title>Node72&#45;&gt;Node73</title>
<path fill="none" stroke="midnightblue" d="M1516.16,-369.4C1521.1,-359.66 1527.71,-346.65 1533.01,-336.21"/>
<polygon fill="midnightblue" stroke="midnightblue" points="1536.18,-337.7 1537.59,-327.19 1529.94,-334.53 1536.18,-337.7"/>
</g>
<!-- Node73&#45;&gt;Node2 -->
<g id="edge59" class="edge">
<title>Node73&#45;&gt;Node2</title>
<path fill="none" stroke="midnightblue" d="M1556.92,-307.93C1598.37,-284.41 1718.95,-218.03 1826,-179 2052.93,-96.27 2339.81,-39.77 2434.82,-22.26"/>
<polygon fill="midnightblue" stroke="midnightblue" points="2435.73,-25.65 2444.94,-20.41 2434.47,-18.76 2435.73,-25.65"/>
</g>
<!-- Node73&#45;&gt;Node3 -->
<g id="edge60" class="edge">
<title>Node73&#45;&gt;Node3</title>
<path fill="none" stroke="midnightblue" d="M1523.04,-307.89C1444.11,-272.37 1133.12,-135.97 864,-67 758.99,-40.09 631.6,-25.79 568.07,-19.86"/>
<polygon fill="midnightblue" stroke="midnightblue" points="568.35,-16.38 558.07,-18.95 567.71,-23.35 568.35,-16.38"/>
</g>
<!-- Node73&#45;&gt;Node6 -->
<g id="edge61" class="edge">
<title>Node73&#45;&gt;Node6</title>
<path fill="none" stroke="midnightblue" d="M1543.73,-307.85C1548.55,-285.21 1563.65,-222.98 1592,-179 1599.23,-167.78 1609.73,-157.24 1618.87,-149.18"/>
<polygon fill="midnightblue" stroke="midnightblue" points="1621.36,-151.65 1626.75,-142.53 1616.85,-146.3 1621.36,-151.65"/>
</g>
<!-- Node73&#45;&gt;Node78 -->
<g id="edge62" class="edge">
<title>Node73&#45;&gt;Node78</title>
<path fill="none" stroke="midnightblue" d="M1534.99,-307.73C1526.88,-297.6 1513.35,-280.69 1503.24,-268.06"/>
<polygon fill="midnightblue" stroke="midnightblue" points="1505.88,-265.75 1496.9,-260.13 1500.42,-270.12 1505.88,-265.75"/>
</g>
<!-- Node78&#45;&gt;Node2 -->
<g id="edge63" class="edge">
<title>Node78&#45;&gt;Node2</title>
<path fill="none" stroke="midnightblue" d="M1493.5,-240.73C1503.29,-217.41 1533.32,-153.55 1580,-123 1643.04,-81.74 1666.21,-82.19 1740,-67 1875.78,-39.05 2311.8,-21.95 2434.56,-17.6"/>
<polygon fill="midnightblue" stroke="midnightblue" points="2434.93,-21.09 2444.81,-17.24 2434.69,-14.09 2434.93,-21.09"/>
</g>
<!-- Node78&#45;&gt;Node3 -->
<g id="edge64" class="edge">
<title>Node78&#45;&gt;Node3</title>
<path fill="none" stroke="midnightblue" d="M1471.29,-240.92C1421.99,-218.59 1284.06,-158.01 1164,-123 1085.68,-100.16 1061.65,-112.04 984,-87 963.56,-80.41 960.68,-72.82 940,-67 807.43,-29.7 643.2,-19.95 568.45,-17.4"/>
<polygon fill="midnightblue" stroke="midnightblue" points="568.19,-13.89 558.09,-17.07 567.97,-20.89 568.19,-13.89"/>
</g>
<!-- Node78&#45;&gt;Node6 -->
<g id="edge66" class="edge">
<title>Node78&#45;&gt;Node6</title>
<path fill="none" stroke="midnightblue" d="M1496.3,-240.81C1506.96,-226.56 1529.76,-197.92 1554,-179 1570.57,-166.07 1591.39,-154.89 1608.15,-146.9"/>
<polygon fill="midnightblue" stroke="midnightblue" points="1609.88,-149.96 1617.49,-142.59 1606.94,-143.61 1609.88,-149.96"/>
</g>
<!-- Node78&#45;&gt;Node33 -->
<g id="edge65" class="edge">
<title>Node78&#45;&gt;Node33</title>
<path fill="none" stroke="midnightblue" d="M1536.24,-242.08C1610.73,-230.14 1755.82,-206.87 1823.97,-195.94"/>
<polygon fill="midnightblue" stroke="midnightblue" points="1824.9,-199.33 1834.22,-194.29 1823.79,-192.42 1824.9,-199.33"/>
</g>
<!-- Node78&#45;&gt;Node34 -->
<g id="edge67" class="edge">
<title>Node78&#45;&gt;Node34</title>
<path fill="none" stroke="midnightblue" d="M1443.91,-245.36C1328.85,-235.04 1028.64,-208.1 894.02,-196.01"/>
<polygon fill="midnightblue" stroke="midnightblue" points="894.12,-192.51 883.84,-195.1 893.49,-199.48 894.12,-192.51"/>
</g>
<!-- Node87&#45;&gt;Node2 -->
<g id="edge71" class="edge">
<title>Node87&#45;&gt;Node2</title>
<path fill="none" stroke="midnightblue" d="M1707.86,-559.45C1753.7,-550.63 1826.91,-536.32 1890,-523 2023.25,-494.87 2063.89,-509.8 2189,-456 2279.03,-417.29 2297.3,-396.43 2372,-333 2445.38,-270.69 2465.86,-238.73 2476,-143 2480.04,-104.82 2474.4,-59.96 2470.39,-35.23"/>
<polygon fill="midnightblue" stroke="midnightblue" points="2473.8,-34.37 2468.66,-25.11 2466.9,-35.56 2473.8,-34.37"/>
</g>
<!-- Node87&#45;&gt;Node3 -->
<g id="edge72" class="edge">
<title>Node87&#45;&gt;Node3</title>
<path fill="none" stroke="midnightblue" d="M1614.96,-566.33C1386.16,-557.11 418,-503.23 418,-251.5 418,-251.5 418,-251.5 418,-132 418,-84.11 468.19,-48.22 500.77,-29.97"/>
<polygon fill="midnightblue" stroke="midnightblue" points="502.69,-32.91 509.84,-25.08 499.37,-26.74 502.69,-32.91"/>
</g>
<!-- Node87&#45;&gt;Node6 -->
<g id="edge75" class="edge">
<title>Node87&#45;&gt;Node6</title>
<path fill="none" stroke="midnightblue" d="M1684.88,-559.4C1721.69,-543.33 1792,-505.03 1792,-447 1792,-447 1792,-447 1792,-249.5 1792,-193.46 1725.92,-161.27 1680.33,-145.74"/>
<polygon fill="midnightblue" stroke="midnightblue" points="1681.25,-142.36 1670.66,-142.59 1679.08,-149.02 1681.25,-142.36"/>
</g>
<!-- Node87&#45;&gt;Node8 -->
<g id="edge73" class="edge">
<title>Node87&#45;&gt;Node8</title>
<path fill="none" stroke="midnightblue" d="M1711.2,-568.31C1872.5,-567.25 2403.67,-546.8 2766,-333 2894.39,-257.24 2939.58,-225.78 2994,-87 3012.33,-40.26 2934.68,-24.44 2885.26,-19.14"/>
<polygon fill="midnightblue" stroke="midnightblue" points="2885.48,-15.64 2875.19,-18.16 2884.8,-22.61 2885.48,-15.64"/>
</g>
<!-- Node87&#45;&gt;Node33 -->
<g id="edge74" class="edge">
<title>Node87&#45;&gt;Node33</title>
<path fill="none" stroke="midnightblue" d="M1706.28,-559.44C1743.26,-551.25 1792.57,-537.96 1806,-523 1888.6,-431.01 1872.4,-264.45 1864.16,-208.73"/>
<polygon fill="midnightblue" stroke="midnightblue" points="1867.57,-207.92 1862.56,-198.59 1860.66,-209.01 1867.57,-207.92"/>
</g>
<!-- Node87&#45;&gt;Node72 -->
<g id="edge83" class="edge">
<title>Node87&#45;&gt;Node72</title>
<path fill="none" stroke="midnightblue" d="M1622.59,-559.47C1587.45,-551.2 1540.27,-537.78 1528,-523 1501.53,-491.14 1502.04,-440.07 1505.23,-409.96"/>
<polygon fill="midnightblue" stroke="midnightblue" points="1508.73,-410.24 1506.49,-399.88 1501.78,-409.37 1508.73,-410.24"/>
</g>
<!-- Node87&#45;&gt;Node91 -->
<g id="edge76" class="edge">
<title>Node87&#45;&gt;Node91</title>
<path fill="none" stroke="midnightblue" d="M1711.13,-560.14C1748.35,-553.1 1800.66,-541.06 1844,-523 2014.85,-451.82 2197.04,-321.85 2264.18,-271.85"/>
<polygon fill="midnightblue" stroke="midnightblue" points="2266.6,-274.41 2272.51,-265.61 2262.41,-268.8 2266.6,-274.41"/>
</g>
<!-- Node87&#45;&gt;Node103 -->
<g id="edge84" class="edge">
<title>Node87&#45;&gt;Node103</title>
<path fill="none" stroke="midnightblue" d="M1653.97,-559.48C1645.76,-551.72 1633.29,-539.94 1622.41,-529.66"/>
<polygon fill="midnightblue" stroke="midnightblue" points="1624.52,-526.84 1614.85,-522.52 1619.71,-531.93 1624.52,-526.84"/>
</g>
<!-- Node91&#45;&gt;Node2 -->
<g id="edge78" class="edge">
<title>Node91&#45;&gt;Node2</title>
<path fill="none" stroke="midnightblue" d="M2292.52,-235.26C2296.8,-201.78 2311.81,-117.15 2358,-67 2378.52,-44.72 2410.85,-31.46 2434.97,-24.17"/>
<polygon fill="midnightblue" stroke="midnightblue" points="2436.09,-27.49 2444.75,-21.39 2434.18,-20.75 2436.09,-27.49"/>
</g>
<!-- Node91&#45;&gt;Node3 -->
<g id="edge79" class="edge">
<title>Node91&#45;&gt;Node3</title>
<path fill="none" stroke="midnightblue" d="M2276.51,-235.32C2258.55,-218.7 2226.24,-191.82 2193,-179 2156.16,-164.79 1154.81,-67.9 1145,-67 927.63,-47.08 666.81,-26.98 568.3,-19.53"/>
<polygon fill="midnightblue" stroke="midnightblue" points="568.43,-16.03 558.19,-18.76 567.9,-23.01 568.43,-16.03"/>
</g>
<!-- Node91&#45;&gt;Node6 -->
<g id="edge82" class="edge">
<title>Node91&#45;&gt;Node6</title>
<path fill="none" stroke="midnightblue" d="M2267.16,-235.35C2235.29,-216.69 2180.21,-185.46 2158,-179 1962.8,-122.21 1904.09,-165.17 1702,-143 1700.54,-142.84 1699.05,-142.67 1697.56,-142.5"/>
<polygon fill="midnightblue" stroke="midnightblue" points="1697.93,-139.02 1687.58,-141.28 1697.08,-145.97 1697.93,-139.02"/>
</g>
<!-- Node91&#45;&gt;Node8 -->
<g id="edge80" class="edge">
<title>Node91&#45;&gt;Node8</title>
<path fill="none" stroke="midnightblue" d="M2324.53,-235.45C2424.87,-193.4 2721.73,-69 2817.12,-29.02"/>
<polygon fill="midnightblue" stroke="midnightblue" points="2818.61,-32.19 2826.48,-25.1 2815.9,-25.74 2818.61,-32.19"/>
</g>
<!-- Node91&#45;&gt;Node15 -->
<g id="edge77" class="edge">
<title>Node91&#45;&gt;Node15</title>
<path fill="none" stroke="midnightblue" d="M2283.65,-235.32C2274.38,-218.96 2256.86,-192.59 2234,-179 2084.81,-90.31 1527.39,-33.05 1383.87,-19.57"/>
<polygon fill="midnightblue" stroke="midnightblue" points="1383.79,-16.05 1373.51,-18.61 1383.15,-23.02 1383.79,-16.05"/>
</g>
<!-- Node91&#45;&gt;Node33 -->
<g id="edge81" class="edge">
<title>Node91&#45;&gt;Node33</title>
<path fill="none" stroke="midnightblue" d="M2238.27,-242.2C2149.92,-229.98 1974.16,-205.66 1897.82,-195.09"/>
<polygon fill="midnightblue" stroke="midnightblue" points="1898.11,-191.6 1887.73,-193.7 1897.15,-198.54 1898.11,-191.6"/>
</g>
<!-- Node103&#45;&gt;Node6 -->
<g id="edge85" class="edge">
<title>Node103&#45;&gt;Node6</title>
<path fill="none" stroke="midnightblue" d="M1616.92,-492.39C1639.87,-471.57 1678,-430.24 1678,-385.5 1678,-385.5 1678,-385.5 1678,-249.5 1678,-213.06 1660.01,-173.55 1648.16,-151.47"/>
<polygon fill="midnightblue" stroke="midnightblue" points="1651.15,-149.66 1643.23,-142.63 1645.04,-153.07 1651.15,-149.66"/>
</g>
<!-- Node103&#45;&gt;Node71 -->
<g id="edge87" class="edge">
<title>Node103&#45;&gt;Node71</title>
<path fill="none" stroke="midnightblue" d="M1663.03,-499.2C1757.75,-488.24 1936.54,-467.54 2038.23,-455.77"/>
<polygon fill="midnightblue" stroke="midnightblue" points="2038.9,-459.22 2048.43,-454.59 2038.09,-452.26 2038.9,-459.22"/>
</g>
<!-- Node103&#45;&gt;Node73 -->
<g id="edge86" class="edge">
<title>Node103&#45;&gt;Node73</title>
<path fill="none" stroke="midnightblue" d="M1600.4,-492.21C1600.6,-466.51 1598.72,-411.22 1581,-369 1575.68,-356.33 1566.36,-344.08 1558.17,-334.82"/>
<polygon fill="midnightblue" stroke="midnightblue" points="1560.48,-332.17 1551.1,-327.23 1555.35,-336.94 1560.48,-332.17"/>
</g>
<!-- Node114&#45;&gt;Node6 -->
<g id="edge89" class="edge">
<title>Node114&#45;&gt;Node6</title>
<path fill="none" stroke="midnightblue" d="M1187.45,-302.27C1209.46,-273.5 1263.71,-208.65 1326,-179 1369.45,-158.32 1500.43,-144.82 1578.18,-138.39"/>
<polygon fill="midnightblue" stroke="midnightblue" points="1578.64,-141.86 1588.32,-137.57 1578.07,-134.89 1578.64,-141.86"/>
</g>
<!-- Node114&#45;&gt;Node115 -->
<g id="edge90" class="edge">
<title>Node114&#45;&gt;Node115</title>
<path fill="none" stroke="midnightblue" d="M1145.32,-302.4C1123.8,-292.81 1095.13,-280.05 1071.88,-269.7"/>
<polygon fill="midnightblue" stroke="midnightblue" points="1073.18,-266.45 1062.62,-265.58 1070.33,-272.84 1073.18,-266.45"/>
</g>
<!-- Node115&#45;&gt;Node6 -->
<g id="edge92" class="edge">
<title>Node115&#45;&gt;Node6</title>
<path fill="none" stroke="midnightblue" d="M1053.25,-235.34C1080.53,-218.75 1128.74,-191.88 1174,-179 1248.47,-157.8 1470.8,-143.15 1578.38,-137.11"/>
<polygon fill="midnightblue" stroke="midnightblue" points="1578.64,-140.6 1588.43,-136.55 1578.25,-133.61 1578.64,-140.6"/>
</g>
<!-- Node115&#45;&gt;Node11 -->
<g id="edge91" class="edge">
<title>Node115&#45;&gt;Node11</title>
<path fill="none" stroke="midnightblue" d="M1026.03,-235.35C1016.4,-207.38 995.17,-142.87 984,-87 980.53,-69.65 978.44,-49.58 977.27,-35.3"/>
<polygon fill="midnightblue" stroke="midnightblue" points="980.75,-34.97 976.52,-25.26 973.77,-35.49 980.75,-34.97"/>
</g>
<!-- Node115&#45;&gt;Node34 -->
<g id="edge93" class="edge">
<title>Node115&#45;&gt;Node34</title>
<path fill="none" stroke="midnightblue" d="M982.91,-235.47C947.26,-225.08 899.27,-211.08 865.99,-201.37"/>
<polygon fill="midnightblue" stroke="midnightblue" points="866.74,-197.95 856.16,-198.51 864.78,-204.67 866.74,-197.95"/>
</g>
<!-- Node117&#45;&gt;Node71 -->
<g id="edge95" class="edge">
<title>Node117&#45;&gt;Node71</title>
<path fill="none" stroke="midnightblue" d="M2247.59,-559.31C2246.4,-543.84 2241.81,-511.34 2224,-492 2209.11,-475.82 2187.55,-465.32 2167.46,-458.56"/>
<polygon fill="midnightblue" stroke="midnightblue" points="2168.34,-455.17 2157.75,-455.54 2166.26,-461.86 2168.34,-455.17"/>
</g>
<!-- Node135&#45;&gt;Node71 -->
<g id="edge97" class="edge">
<title>Node135&#45;&gt;Node71</title>
<path fill="none" stroke="midnightblue" d="M2082.45,-559.3C2087.93,-539.76 2101.34,-492.06 2108.79,-465.55"/>
<polygon fill="midnightblue" stroke="midnightblue" points="2112.24,-466.2 2111.58,-455.62 2105.5,-464.3 2112.24,-466.2"/>
</g>
<!-- Node136&#45;&gt;Node2 -->
<g id="edge99" class="edge">
<title>Node136&#45;&gt;Node2</title>
<path fill="none" stroke="midnightblue" d="M1768.83,-615.44C1790.99,-602 1836.14,-575.75 1877,-559 2072.1,-479.02 2151.18,-520.81 2324,-400 2361.46,-373.82 2369.62,-365.25 2402,-333 2429.9,-305.2 2440.36,-300.14 2460,-266 2488.06,-217.23 2486.5,-199.16 2490,-143 2491.17,-124.2 2490.78,-75.2 2489,-67 2486.52,-55.61 2481.41,-43.61 2476.74,-34.18"/>
<polygon fill="midnightblue" stroke="midnightblue" points="2479.73,-32.33 2471.99,-25.08 2473.52,-35.57 2479.73,-32.33"/>
</g>
<!-- Node136&#45;&gt;Node3 -->
<g id="edge100" class="edge">
<title>Node136&#45;&gt;Node3</title>
<path fill="none" stroke="midnightblue" d="M1685.4,-620.37C1405.88,-603.92 380,-524.94 380,-251.5 380,-251.5 380,-251.5 380,-132 380,-76.85 444.65,-44.15 488.5,-28.31"/>
<polygon fill="midnightblue" stroke="midnightblue" points="489.74,-31.58 498.05,-25 487.46,-24.97 489.74,-31.58"/>
</g>
<!-- Node136&#45;&gt;Node6 -->
<g id="edge103" class="edge">
<title>Node136&#45;&gt;Node6</title>
<path fill="none" stroke="midnightblue" d="M1685.28,-620.65C1655.92,-615.36 1624.37,-603.73 1606,-579 1575.88,-538.43 1654.57,-544.1 1672,-523 1712.87,-473.54 1716,-449.66 1716,-385.5 1716,-385.5 1716,-385.5 1716,-249.5 1716,-207.48 1680.1,-169.31 1657.01,-149.11"/>
<polygon fill="midnightblue" stroke="midnightblue" points="1659.08,-146.28 1649.18,-142.51 1654.57,-151.63 1659.08,-146.28"/>
</g>
<!-- Node136&#45;&gt;Node8 -->
<g id="edge101" class="edge">
<title>Node136&#45;&gt;Node8</title>
<path fill="none" stroke="midnightblue" d="M1779.74,-615.49C1816.55,-602.88 1887.96,-578.61 1949,-559 2000.8,-542.36 2014.27,-539.84 2066,-523 2153.14,-494.63 2177.58,-493.92 2261,-456 2415.07,-385.96 2450.31,-360.06 2591,-266 2693.8,-197.27 2726.7,-183.51 2804,-87 2817.4,-70.27 2829.81,-49.04 2837.82,-34.27"/>
<polygon fill="midnightblue" stroke="midnightblue" points="2841.03,-35.68 2842.62,-25.21 2834.85,-32.4 2841.03,-35.68"/>
</g>
<!-- Node136&#45;&gt;Node33 -->
<g id="edge102" class="edge">
<title>Node136&#45;&gt;Node33</title>
<path fill="none" stroke="midnightblue" d="M1760.6,-615.31C1768.92,-602.58 1785.27,-578.28 1801,-559 1844.14,-506.14 1906,-515.23 1906,-447 1906,-447 1906,-447 1906,-316.5 1906,-275.5 1884.76,-231.13 1871.47,-207.37"/>
<polygon fill="midnightblue" stroke="midnightblue" points="1874.38,-205.42 1866.34,-198.52 1868.32,-208.93 1874.38,-205.42"/>
</g>
<!-- Node136&#45;&gt;Node87 -->
<g id="edge106" class="edge">
<title>Node136&#45;&gt;Node87</title>
<path fill="none" stroke="midnightblue" d="M1740.22,-615.32C1725.73,-606.82 1703.43,-593.73 1686.51,-583.8"/>
<polygon fill="midnightblue" stroke="midnightblue" points="1688.14,-580.7 1677.74,-578.65 1684.6,-586.74 1688.14,-580.7"/>
</g>
<!-- Node136&#45;&gt;Node117 -->
<g id="edge105" class="edge">
<title>Node136&#45;&gt;Node117</title>
<path fill="none" stroke="midnightblue" d="M1824.59,-616.38C1919.89,-605.94 2089.74,-587.33 2182.73,-577.15"/>
<polygon fill="midnightblue" stroke="midnightblue" points="2183.29,-580.61 2192.85,-576.04 2182.53,-573.65 2183.29,-580.61"/>
</g>
<!-- Node136&#45;&gt;Node135 -->
<g id="edge104" class="edge">
<title>Node136&#45;&gt;Node135</title>
<path fill="none" stroke="midnightblue" d="M1806.5,-615.44C1864.14,-605.87 1957.49,-590.36 2018.81,-580.17"/>
<polygon fill="midnightblue" stroke="midnightblue" points="2019.45,-583.61 2028.74,-578.52 2018.31,-576.7 2019.45,-583.61"/>
</g>
<!-- Node120&#45;&gt;Node2 -->
<g id="edge108" class="edge">
<title>Node120&#45;&gt;Node2</title>
<path fill="none" stroke="midnightblue" d="M1329.13,-379.07C1533.47,-359.75 2333.34,-283.16 2353,-266 2379.23,-243.11 2372,-224.82 2372,-190 2372,-190 2372,-190 2372,-132 2372,-87.02 2415.51,-50.02 2443.64,-30.8"/>
<polygon fill="midnightblue" stroke="midnightblue" points="2445.72,-33.62 2452.16,-25.2 2441.88,-27.77 2445.72,-33.62"/>
</g>
<!-- Node120&#45;&gt;Node3 -->
<g id="edge109" class="edge">
<title>Node120&#45;&gt;Node3</title>
<path fill="none" stroke="midnightblue" d="M1234.86,-378.27C1159.99,-369.56 1017.52,-351.23 970,-333 832.67,-280.3 807.62,-242.2 699,-143 662.55,-109.71 657.82,-96.18 618,-67 598.19,-52.48 573.78,-39.03 555.39,-29.66"/>
<polygon fill="midnightblue" stroke="midnightblue" points="556.88,-26.5 546.37,-25.16 553.75,-32.76 556.88,-26.5"/>
</g>
<!-- Node120&#45;&gt;Node6 -->
<g id="edge111" class="edge">
<title>Node120&#45;&gt;Node6</title>
<path fill="none" stroke="midnightblue" d="M1289.69,-374.75C1311.12,-350.65 1374,-281.98 1435,-235 1473.23,-205.56 1484.88,-200.64 1528,-179 1552.95,-166.48 1582.25,-154.63 1604.33,-146.23"/>
<polygon fill="midnightblue" stroke="midnightblue" points="1605.8,-149.42 1613.93,-142.63 1603.34,-142.86 1605.8,-149.42"/>
</g>
<!-- Node120&#45;&gt;Node41 -->
<g id="edge110" class="edge">
<title>Node120&#45;&gt;Node41</title>
<path fill="none" stroke="midnightblue" d="M1234.58,-379.03C1184.25,-373.08 1103.15,-359.98 1038,-333 987.89,-312.25 971.94,-306.62 936,-266 907.42,-233.7 914.85,-216.19 893,-179 887.35,-169.39 880.36,-159.12 874.45,-150.82"/>
<polygon fill="midnightblue" stroke="midnightblue" points="877.27,-148.76 868.57,-142.72 871.6,-152.87 877.27,-148.76"/>
</g>
<!-- Node120&#45;&gt;Node73 -->
<g id="edge112" class="edge">
<title>Node120&#45;&gt;Node73</title>
<path fill="none" stroke="midnightblue" d="M1316.26,-374.94C1362.93,-363.27 1446.53,-342.37 1497.85,-329.54"/>
<polygon fill="midnightblue" stroke="midnightblue" points="1498.81,-332.9 1507.67,-327.08 1497.12,-326.11 1498.81,-332.9"/>
</g>
<!-- Node113&#45;&gt;Node6 -->
<g id="edge117" class="edge">
<title>Node113&#45;&gt;Node6</title>
<path fill="none" stroke="midnightblue" d="M962.49,-615.14C995.06,-581.36 1115.72,-458.06 1226,-369 1247.87,-351.34 1255.61,-350 1278,-333 1332.3,-291.78 1340.81,-275.02 1396,-235 1433.84,-207.57 1442.4,-198.22 1485,-179 1518.1,-164.06 1557.45,-152.62 1587.96,-145.01"/>
<polygon fill="midnightblue" stroke="midnightblue" points="1589.05,-148.35 1597.94,-142.58 1587.4,-141.54 1589.05,-148.35"/>
</g>
<!-- Node86&#45;&gt;Node30 -->
<g id="edge122" class="edge">
<title>Node86&#45;&gt;Node30</title>
<path fill="none" stroke="midnightblue" d="M590.85,-671.48C564.5,-663.83 526.68,-651.3 496,-635 469.72,-621.04 442.64,-599.82 425.59,-585.45"/>
<polygon fill="midnightblue" stroke="midnightblue" points="427.51,-582.49 417.64,-578.64 422.96,-587.81 427.51,-582.49"/>
</g>
<!-- Node86&#45;&gt;Node34 -->
<g id="edge123" class="edge">
<title>Node86&#45;&gt;Node34</title>
<path fill="none" stroke="midnightblue" d="M630.41,-671.41C637.28,-662.84 647.01,-648.98 651,-635 653.44,-626.45 651.7,-623.86 651,-615 647.21,-567.22 634,-556.43 634,-508.5 634,-508.5 634,-508.5 634,-383.5 634,-309.76 653.3,-284.45 708,-235 726.06,-218.68 750.62,-208.07 772.74,-201.28"/>
<polygon fill="midnightblue" stroke="midnightblue" points="773.72,-204.64 782.37,-198.51 771.79,-197.91 773.72,-204.64"/>
</g>
<!-- Node138&#45;&gt;Node18 -->
<g id="edge132" class="edge">
<title>Node138&#45;&gt;Node18</title>
<path fill="none" stroke="midnightblue" d="M1435.85,-864.55C1271.36,-862.94 861.02,-849.25 533,-758 480.12,-743.29 422.94,-713.2 392.03,-695.62"/>
<polygon fill="midnightblue" stroke="midnightblue" points="393.72,-692.56 383.31,-690.59 390.22,-698.62 393.72,-692.56"/>
</g>
<!-- Node138&#45;&gt;Node25 -->
<g id="edge131" class="edge">
<title>Node138&#45;&gt;Node25</title>
<path fill="none" stroke="midnightblue" d="M1582.23,-858.81C1704.03,-847.32 1935,-815.96 1935,-743.5 1935,-743.5 1935,-743.5 1935,-680 1935,-644.82 1955.28,-607.86 1968.91,-587"/>
<polygon fill="midnightblue" stroke="midnightblue" points="1971.88,-588.85 1974.6,-578.61 1966.09,-584.92 1971.88,-588.85"/>
</g>
<!-- Node138&#45;&gt;Node32 -->
<g id="edge134" class="edge">
<title>Node138&#45;&gt;Node32</title>
<path fill="none" stroke="midnightblue" d="M1497,-850.46C1489.44,-840.83 1480.17,-827.41 1475,-814 1460.21,-775.61 1456.8,-726.91 1456.09,-700.72"/>
<polygon fill="midnightblue" stroke="midnightblue" points="1459.59,-700.61 1455.93,-690.67 1452.59,-700.73 1459.59,-700.61"/>
</g>
<!-- Node138&#45;&gt;Node86 -->
<g id="edge133" class="edge">
<title>Node138&#45;&gt;Node86</title>
<path fill="none" stroke="midnightblue" d="M1440.95,-850.48C1270.03,-815.28 825.57,-723.73 674.29,-692.57"/>
<polygon fill="midnightblue" stroke="midnightblue" points="674.83,-689.1 664.33,-690.51 673.42,-695.96 674.83,-689.1"/>
</g>
<!-- Node139 -->
<g id="node42" class="node">
<title>Node139</title>
<g id="a_node42"><a xlink:href="../../d9/d06/_d_e_m__application__variables_8h.html" target="_top" xlink:title=" ">
<polygon fill="none" stroke="red" points="1484,-794.5 1484,-813.5 1642,-813.5 1642,-794.5 1484,-794.5"/>
<text text-anchor="middle" x="1563" y="-801.5" font-family="Helvetica,sans-Serif" font-size="10.00">DEM_application_variables.h</text>
</a>
</g>
</g>
<!-- Node138&#45;&gt;Node139 -->
<g id="edge135" class="edge">
<title>Node138&#45;&gt;Node139</title>
<path fill="none" stroke="midnightblue" d="M1521.8,-850.4C1529.72,-841.66 1539.94,-830.41 1548.21,-821.3"/>
<polygon fill="midnightblue" stroke="midnightblue" points="1551.01,-823.42 1555.14,-813.66 1545.83,-818.71 1551.01,-823.42"/>
</g>
<!-- Node139&#45;&gt;Node5 -->
<g id="edge139" class="edge">
<title>Node139&#45;&gt;Node5</title>
<path fill="none" stroke="midnightblue" d="M1483.89,-798.03C1307.3,-786.93 882.3,-760.23 700.65,-748.82"/>
<polygon fill="midnightblue" stroke="midnightblue" points="700.81,-745.32 690.61,-748.19 700.37,-752.31 700.81,-745.32"/>
</g>
<!-- Node139&#45;&gt;Node6 -->
<g id="edge136" class="edge">
<title>Node139&#45;&gt;Node6</title>
<path fill="none" stroke="midnightblue" d="M1571.65,-794.23C1586.78,-779.19 1619.45,-748.09 1651,-727 1726.69,-676.42 1760.35,-688.51 1834,-635 1881.55,-600.46 2020,-505.77 2020,-447 2020,-447 2020,-447 2020,-316.5 2020,-242.47 1992.28,-211.96 1926,-179 1915.87,-173.96 1779.32,-154 1697.94,-142.43"/>
<polygon fill="midnightblue" stroke="midnightblue" points="1698.21,-138.93 1687.82,-140.99 1697.23,-145.86 1698.21,-138.93"/>
</g>
<!-- Node139&#45;&gt;Node135 -->
<g id="edge137" class="edge">
<title>Node139&#45;&gt;Node135</title>
<path fill="none" stroke="midnightblue" d="M1642.2,-797.94C1693.4,-792.51 1760.57,-781.27 1816,-758 1920.62,-714.08 2024.23,-622.7 2063.5,-585.88"/>
<polygon fill="midnightblue" stroke="midnightblue" points="2066.03,-588.31 2070.89,-578.89 2061.22,-583.23 2066.03,-588.31"/>
</g>
<!-- Node139&#45;&gt;Node86 -->
<g id="edge138" class="edge">
<title>Node139&#45;&gt;Node86</title>
<path fill="none" stroke="midnightblue" d="M1527.61,-794.48C1460.72,-778.69 1310.93,-744.87 1183,-727 1090.12,-714.03 820.81,-695.15 692.53,-686.56"/>
<polygon fill="midnightblue" stroke="midnightblue" points="692.63,-683.06 682.42,-685.89 692.16,-690.05 692.63,-683.06"/>
</g>
<!-- Node142 -->
<g id="node43" class="node">
<title>Node142</title>
<g id="a_node43"><a xlink:href="../../d2/d62/properties__proxies_8h.html" target="_top" xlink:title=" ">
<polygon fill="none" stroke="black" points="1659.5,-727.5 1659.5,-757.5 1806.5,-757.5 1806.5,-727.5 1659.5,-727.5"/>
<text text-anchor="start" x="1667.5" y="-745.5" font-family="Helvetica,sans-Serif" font-size="10.00">custom_utilities/properties</text>
<text text-anchor="middle" x="1733" y="-734.5" font-family="Helvetica,sans-Serif" font-size="10.00">_proxies.h</text>
</a>
</g>
</g>
<!-- Node139&#45;&gt;Node142 -->
<g id="edge140" class="edge">
<title>Node139&#45;&gt;Node142</title>
<path fill="none" stroke="midnightblue" d="M1587.36,-794.48C1612.32,-785.74 1651.84,-771.91 1683.41,-760.86"/>
<polygon fill="midnightblue" stroke="midnightblue" points="1684.65,-764.13 1692.93,-757.52 1682.34,-757.52 1684.65,-764.13"/>
</g>
<!-- Node142&#45;&gt;Node2 -->
<g id="edge141" class="edge">
<title>Node142&#45;&gt;Node2</title>
<path fill="none" stroke="midnightblue" d="M1806.64,-741.24C2011.36,-740.01 2576.98,-732.8 2649,-691 2871.92,-561.62 2880.81,-353.76 2766,-123 2752.6,-96.07 2753.11,-83.56 2728,-67 2690.74,-42.44 2560.83,-26.17 2499.51,-19.68"/>
<polygon fill="midnightblue" stroke="midnightblue" points="2499.55,-16.16 2489.25,-18.61 2498.83,-23.12 2499.55,-16.16"/>
</g>
<!-- Node142&#45;&gt;Node3 -->
<g id="edge142" class="edge">
<title>Node142&#45;&gt;Node3</title>
<path fill="none" stroke="midnightblue" d="M1659.35,-739.92C1507.31,-736.07 1147.82,-724.01 848,-691 771.45,-682.57 580.96,-652.65 506,-635 424.03,-615.71 385.55,-637.52 325,-579 259.21,-515.41 190,-281.5 190,-190 190,-190 190,-190 190,-132 190,-87.21 226.6,-86.32 267,-67 339.8,-32.18 434.9,-21.37 487.89,-18.01"/>
<polygon fill="midnightblue" stroke="midnightblue" points="488.12,-21.5 497.9,-17.43 487.72,-14.51 488.12,-21.5"/>
</g>
<!-- Node142&#45;&gt;Node32 -->
<g id="edge143" class="edge">
<title>Node142&#45;&gt;Node32</title>
<path fill="none" stroke="midnightblue" d="M1667.71,-727.47C1618.04,-716.81 1550.75,-702.35 1505.48,-692.63"/>
<polygon fill="midnightblue" stroke="midnightblue" points="1506.11,-689.18 1495.6,-690.51 1504.64,-696.03 1506.11,-689.18"/>
</g>
<!-- Node143&#45;&gt;Node2 -->
<g id="edge145" class="edge">
<title>Node143&#45;&gt;Node2</title>
<path fill="none" stroke="midnightblue" d="M1741.17,-1007.89C1938.4,-1003.08 2482.48,-987.38 2558,-959 2877.11,-839.07 2980,-659.4 2980,-318.5 2980,-318.5 2980,-318.5 2980,-188 2980,-83.35 2876.3,-102.92 2778,-67 2680.74,-31.46 2557.27,-20.87 2499.53,-17.76"/>
<polygon fill="midnightblue" stroke="midnightblue" points="2499.37,-14.25 2489.21,-17.25 2499.02,-21.24 2499.37,-14.25"/>
</g>
<!-- Node143&#45;&gt;Node3 -->
<g id="edge146" class="edge">
<title>Node143&#45;&gt;Node3</title>
<path fill="none" stroke="midnightblue" d="M1598.6,-1008.52C1322.32,-1004.54 335.8,-988.31 276,-959 112.66,-878.93 38,-807.91 38,-626 38,-626 38,-626 38,-132 38,-97.84 50.06,-85.14 79,-67 146.65,-24.58 390.66,-17.69 487.74,-16.65"/>
<polygon fill="midnightblue" stroke="midnightblue" points="487.79,-20.15 497.76,-16.56 487.72,-13.15 487.79,-20.15"/>
</g>
<!-- Node143&#45;&gt;Node5 -->
<g id="edge186" class="edge">
<title>Node143&#45;&gt;Node5</title>
<path fill="none" stroke="midnightblue" d="M1598.77,-1010.12C1387.8,-1011.35 776.35,-1010.4 704,-959 637.61,-911.83 621.21,-805.38 617.24,-762.22"/>
<polygon fill="midnightblue" stroke="midnightblue" points="620.71,-761.72 616.43,-752.03 613.73,-762.28 620.71,-761.72"/>
</g>
<!-- Node143&#45;&gt;Node6 -->
<g id="edge148" class="edge">
<title>Node143&#45;&gt;Node6</title>
<path fill="none" stroke="midnightblue" d="M1598.74,-1006.99C1444.58,-1001.13 1084.36,-985.06 965,-959 850.47,-934 718,-983.72 718,-866.5 718,-866.5 718,-866.5 718,-803 718,-615.19 1112.56,-246.03 1288,-179 1339.69,-159.25 1492.73,-144.96 1578.33,-138.27"/>
<polygon fill="midnightblue" stroke="midnightblue" points="1578.72,-141.75 1588.42,-137.49 1578.18,-134.77 1578.72,-141.75"/>
</g>
<!-- Node143&#45;&gt;Node9 -->
<g id="edge187" class="edge">
<title>Node143&#45;&gt;Node9</title>
<path fill="none" stroke="midnightblue" d="M1598.89,-1009.41C1399.84,-1008.59 840,-1002.4 662,-959 549.98,-931.68 190,-858.8 190,-743.5 190,-743.5 190,-743.5 190,-506.5 190,-360.23 264.22,-329.34 376,-235 466.88,-158.3 503.78,-152.43 619,-123 846.03,-65 924.37,-165.93 1145,-87 1153.07,-84.11 1190.75,-56.51 1217.22,-36.72"/>
<polygon fill="midnightblue" stroke="midnightblue" points="1219.47,-39.41 1225.37,-30.61 1215.27,-33.81 1219.47,-39.41"/>
</g>
<!-- Node143&#45;&gt;Node35 -->
<g id="edge147" class="edge">
<title>Node143&#45;&gt;Node35</title>
<path fill="none" stroke="midnightblue" d="M1598.55,-1008.35C1328.97,-1003.82 385.86,-986.1 328,-959 269.01,-931.37 279.27,-892.62 230,-850 208.19,-831.13 196.04,-834.75 176,-814 131.35,-767.78 128.16,-748.76 100,-691 86.51,-663.32 76,-656.8 76,-626 76,-626 76,-626 76,-568 76,-264.76 571.06,-160.36 697.75,-138.6"/>
<polygon fill="midnightblue" stroke="midnightblue" points="698.58,-142.01 707.87,-136.91 697.43,-135.11 698.58,-142.01"/>
</g>
<!-- Node143&#45;&gt;Node113 -->
<g id="edge189" class="edge">
<title>Node143&#45;&gt;Node113</title>
<path fill="none" stroke="midnightblue" d="M1598.65,-1004.24C1402.58,-988.82 870,-940.18 870,-866.5 870,-866.5 870,-866.5 870,-803 870,-738.58 915.98,-672.59 939.9,-642.62"/>
<polygon fill="midnightblue" stroke="midnightblue" points="942.91,-644.47 946.55,-634.52 937.5,-640.03 942.91,-644.47"/>
</g>
<!-- Node143&#45;&gt;Node142 -->
<g id="edge188" class="edge">
<title>Node143&#45;&gt;Node142</title>
<path fill="none" stroke="midnightblue" d="M1672.92,-995.37C1676.7,-977.2 1683.58,-944.69 1690,-917 1702.4,-863.54 1718.19,-801.13 1726.77,-767.66"/>
<polygon fill="midnightblue" stroke="midnightblue" points="1730.19,-768.42 1729.29,-757.86 1723.41,-766.68 1730.19,-768.42"/>
</g>
<!-- Node144 -->
<g id="node45" class="node">
<title>Node144</title>
<g id="a_node45"><a xlink:href="../../d3/dd5/discrete__element_8h.html" target="_top" xlink:title=" ">
<polygon fill="none" stroke="red" points="2080,-615.5 2080,-634.5 2190,-634.5 2190,-615.5 2080,-615.5"/>
<text text-anchor="middle" x="2135" y="-622.5" font-family="Helvetica,sans-Serif" font-size="10.00">discrete_element.h</text>
</a>
</g>
</g>
<!-- Node143&#45;&gt;Node144 -->
<g id="edge149" class="edge">
<title>Node143&#45;&gt;Node144</title>
<path fill="none" stroke="midnightblue" d="M1741.38,-1010.46C1853.09,-1010.52 2062.35,-1004.33 2119,-959 2152.97,-931.82 2151,-910 2151,-866.5 2151,-866.5 2151,-866.5 2151,-741.5 2151,-707.04 2143.92,-667.33 2139.18,-644.6"/>
<polygon fill="midnightblue" stroke="midnightblue" points="2142.56,-643.67 2137.03,-634.64 2135.72,-645.15 2142.56,-643.67"/>
</g>
<!-- Node145 -->
<g id="node46" class="node">
<title>Node145</title>
<g id="a_node46"><a xlink:title=" ">
<polygon fill="none" stroke="#bfbfbf" points="1867.5,-850.5 1867.5,-880.5 2008.5,-880.5 2008.5,-850.5 1867.5,-850.5"/>
<text text-anchor="start" x="1875.5" y="-868.5" font-family="Helvetica,sans-Serif" font-size="10.00">custom_utilities/Auxiliary</text>
<text text-anchor="middle" x="1938" y="-857.5" font-family="Helvetica,sans-Serif" font-size="10.00">Functions.h</text>
</a>
</g>
</g>
<!-- Node143&#45;&gt;Node145 -->
<g id="edge157" class="edge">
<title>Node143&#45;&gt;Node145</title>
<path fill="none" stroke="midnightblue" d="M1741.15,-1003.21C1804.38,-996.17 1890.49,-982.54 1915,-959 1933.29,-941.43 1937.93,-911.74 1938.7,-890.74"/>
<polygon fill="midnightblue" stroke="midnightblue" points="1942.2,-890.7 1938.8,-880.66 1935.2,-890.63 1942.2,-890.7"/>
</g>
<!-- Node146 -->
<g id="node47" class="node">
<title>Node146</title>
<g id="a_node47"><a xlink:href="../../d4/d65/_d_e_m__discontinuum__constitutive__law_8h.html" target="_top" xlink:title=" ">
<polygon fill="none" stroke="red" points="1698.5,-923 1698.5,-953 1905.5,-953 1905.5,-923 1698.5,-923"/>
<text text-anchor="start" x="1706.5" y="-941" font-family="Helvetica,sans-Serif" font-size="10.00">custom_constitutive</text>
<text text-anchor="middle" x="1802" y="-930" font-family="Helvetica,sans-Serif" font-size="10.00">/DEM_discontinuum_constitutive_law.h</text>
</a>
</g>
</g>
<!-- Node143&#45;&gt;Node146 -->
<g id="edge158" class="edge">
<title>Node143&#45;&gt;Node146</title>
<path fill="none" stroke="midnightblue" d="M1696.39,-995.4C1716.54,-984.64 1744.5,-969.71 1766.58,-957.92"/>
<polygon fill="midnightblue" stroke="midnightblue" points="1768.48,-960.87 1775.65,-953.07 1765.18,-954.7 1768.48,-960.87"/>
</g>
<!-- Node148 -->
<g id="node48" class="node">
<title>Node148</title>
<g id="a_node48"><a xlink:href="../../d4/d0a/_d_e_m__rolling__friction__model_8h.html" target="_top" xlink:title=" ">
<polygon fill="none" stroke="red" points="1992,-917.5 1992,-958.5 2110,-958.5 2110,-917.5 1992,-917.5"/>
<text text-anchor="start" x="2000" y="-946.5" font-family="Helvetica,sans-Serif" font-size="10.00">custom_constitutive</text>
<text text-anchor="start" x="2000" y="-935.5" font-family="Helvetica,sans-Serif" font-size="10.00">/DEM_rolling_friction</text>
<text text-anchor="middle" x="2051" y="-924.5" font-family="Helvetica,sans-Serif" font-size="10.00">_model.h</text>
</a>
</g>
</g>
<!-- Node143&#45;&gt;Node148 -->
<g id="edge164" class="edge">
<title>Node143&#45;&gt;Node148</title>
<path fill="none" stroke="midnightblue" d="M1741.12,-997.02C1797.75,-987 1879.02,-972.43 1950,-959 1960.25,-957.06 1971.07,-954.97 1981.68,-952.89"/>
<polygon fill="midnightblue" stroke="midnightblue" points="1982.62,-956.27 1991.75,-950.91 1981.26,-949.4 1982.62,-956.27"/>
</g>
<!-- Node149 -->
<g id="node49" class="node">
<title>Node149</title>
<g id="a_node49"><a xlink:href="../../dd/d9b/_rigid_face_8h.html" target="_top" xlink:title=" ">
<polygon fill="none" stroke="red" points="2371.5,-671.5 2371.5,-690.5 2538.5,-690.5 2538.5,-671.5 2371.5,-671.5"/>
<text text-anchor="middle" x="2455" y="-678.5" font-family="Helvetica,sans-Serif" font-size="10.00">custom_conditions/RigidFace.h</text>
</a>
</g>
</g>
<!-- Node143&#45;&gt;Node149 -->
<g id="edge184" class="edge">
<title>Node143&#45;&gt;Node149</title>
<path fill="none" stroke="midnightblue" d="M1741.33,-1007.42C1979.44,-999.55 2732,-966.73 2732,-866.5 2732,-866.5 2732,-866.5 2732,-803 2732,-721.22 2629.36,-694.17 2549.03,-685.52"/>
<polygon fill="midnightblue" stroke="midnightblue" points="2549.16,-682.01 2538.86,-684.51 2548.47,-688.98 2549.16,-682.01"/>
</g>
<!-- Node150 -->
<g id="node50" class="node">
<title>Node150</title>
<g id="a_node50"><a xlink:href="../../d6/d85/dem__wall_8h.html" target="_top" xlink:title=" ">
<polygon fill="none" stroke="black" points="2211.5,-615.5 2211.5,-634.5 2284.5,-634.5 2284.5,-615.5 2211.5,-615.5"/>
<text text-anchor="middle" x="2248" y="-622.5" font-family="Helvetica,sans-Serif" font-size="10.00">dem_wall.h</text>
</a>
</g>
</g>
<!-- Node143&#45;&gt;Node150 -->
<g id="edge185" class="edge">
<title>Node143&#45;&gt;Node150</title>
<path fill="none" stroke="midnightblue" d="M1741.39,-1006.76C1855.94,-1001.57 2075.23,-988.1 2147,-959 2208.76,-933.96 2265,-933.14 2265,-866.5 2265,-866.5 2265,-866.5 2265,-741.5 2265,-707 2257.48,-667.31 2252.45,-644.59"/>
<polygon fill="midnightblue" stroke="midnightblue" points="2255.81,-643.59 2250.15,-634.63 2248.99,-645.16 2255.81,-643.59"/>
</g>
<!-- Node144&#45;&gt;Node2 -->
<g id="edge150" class="edge">
<title>Node144&#45;&gt;Node2</title>
<path fill="none" stroke="midnightblue" d="M2181.78,-615.48C2230.04,-606.26 2301.73,-591.23 2327,-579 2418.97,-534.49 2421.84,-492.45 2507,-436 2534.85,-417.54 2551.84,-425.86 2573,-400 2634.87,-324.39 2638,-287.7 2638,-190 2638,-190 2638,-190 2638,-132 2638,-65.61 2548.39,-34.81 2498.91,-22.87"/>
<polygon fill="midnightblue" stroke="midnightblue" points="2499.53,-19.42 2489.01,-20.6 2497.97,-26.25 2499.53,-19.42"/>
</g>
<!-- Node144&#45;&gt;Node3 -->
<g id="edge151" class="edge">
<title>Node144&#45;&gt;Node3</title>
<path fill="none" stroke="midnightblue" d="M2079.97,-621.52C1950.55,-615.45 1629.85,-598.84 1524,-579 1203.17,-518.88 1115.22,-495.26 832,-333 691.43,-252.46 654.45,-220.74 563,-87 551.58,-70.3 541.66,-49.33 535.33,-34.62"/>
<polygon fill="midnightblue" stroke="midnightblue" points="538.46,-33.05 531.38,-25.17 532,-35.74 538.46,-33.05"/>
</g>
<!-- Node144&#45;&gt;Node6 -->
<g id="edge153" class="edge">
<title>Node144&#45;&gt;Node6</title>
<path fill="none" stroke="midnightblue" d="M2180.47,-615.43C2230.15,-605.61 2303.83,-589.51 2312,-579 2317.46,-571.98 2314.88,-567.41 2312,-559 2252.8,-386.45 2184.7,-368.16 2060,-235 2034.39,-207.66 2031.13,-194.44 1997,-179 1878.27,-125.28 1835.26,-159.55 1706,-143 1703.32,-142.66 1700.59,-142.3 1697.83,-141.95"/>
<polygon fill="midnightblue" stroke="midnightblue" points="1698.13,-138.46 1687.76,-140.64 1697.22,-145.4 1698.13,-138.46"/>
</g>
<!-- Node144&#45;&gt;Node25 -->
<g id="edge152" class="edge">
<title>Node144&#45;&gt;Node25</title>
<path fill="none" stroke="midnightblue" d="M2110.6,-615.44C2084.58,-606.32 2043.2,-591.81 2014.22,-581.65"/>
<polygon fill="midnightblue" stroke="midnightblue" points="2015.12,-578.26 2004.53,-578.25 2012.81,-584.86 2015.12,-578.26"/>
</g>
<!-- Node144&#45;&gt;Node71 -->
<g id="edge155" class="edge">
<title>Node144&#45;&gt;Node71</title>
<path fill="none" stroke="midnightblue" d="M2137.73,-615.49C2140.45,-606.52 2144.44,-591.94 2146,-579 2151.01,-537.42 2133.66,-489.99 2122.57,-464.85"/>
<polygon fill="midnightblue" stroke="midnightblue" points="2125.64,-463.14 2118.28,-455.52 2119.28,-466.07 2125.64,-463.14"/>
</g>
<!-- Node144&#45;&gt;Node117 -->
<g id="edge154" class="edge">
<title>Node144&#45;&gt;Node117</title>
<path fill="none" stroke="midnightblue" d="M2152.91,-615.44C2171.25,-606.68 2200.01,-592.94 2221.09,-582.86"/>
<polygon fill="midnightblue" stroke="midnightblue" points="2222.67,-585.99 2230.18,-578.52 2219.65,-579.67 2222.67,-585.99"/>
</g>
<!-- Node144&#45;&gt;Node135 -->
<g id="edge156" class="edge">
<title>Node144&#45;&gt;Node135</title>
<path fill="none" stroke="midnightblue" d="M2125.92,-615.08C2117.83,-607.14 2105.8,-595.34 2096.09,-585.8"/>
<polygon fill="midnightblue" stroke="midnightblue" points="2098.5,-583.26 2088.91,-578.75 2093.6,-588.25 2098.5,-583.26"/>
</g>
<!-- Node146&#45;&gt;Node6 -->
<g id="edge159" class="edge">
<title>Node146&#45;&gt;Node6</title>
<path fill="none" stroke="midnightblue" d="M1807.31,-922.81C1815.38,-903.26 1832.63,-868.38 1859,-850 1923.45,-805.07 2488.23,-742 2548,-691 2592.14,-653.34 2597,-628.02 2597,-570 2597,-570 2597,-570 2597,-506.5 2597,-489.55 2098.03,-184.51 2082,-179 1923.23,-124.45 1872.79,-162.02 1706,-143 1703.32,-142.69 1700.58,-142.37 1697.81,-142.04"/>
<polygon fill="midnightblue" stroke="midnightblue" points="1698.09,-138.55 1687.74,-140.79 1697.23,-145.49 1698.09,-138.55"/>
</g>
<!-- Node146&#45;&gt;Node34 -->
<g id="edge161" class="edge">
<title>Node146&#45;&gt;Node34</title>
<path fill="none" stroke="midnightblue" d="M1698.45,-926.3C1622.64,-917.32 1517.63,-902.48 1427,-881 1163.46,-818.55 1079.85,-830.98 848,-691 714.54,-610.42 596,-602.9 596,-447 596,-447 596,-447 596,-383.5 596,-309.56 613.21,-281.12 671,-235 696.34,-214.78 730.39,-203.65 760.22,-197.51"/>
<polygon fill="midnightblue" stroke="midnightblue" points="760.98,-200.93 770.15,-195.62 759.67,-194.06 760.98,-200.93"/>
</g>
<!-- Node146&#45;&gt;Node138 -->
<g id="edge162" class="edge">
<title>Node146&#45;&gt;Node138</title>
<path fill="none" stroke="midnightblue" d="M1743.76,-922.99C1695.81,-911.45 1627.74,-895.07 1577.23,-882.92"/>
<polygon fill="midnightblue" stroke="midnightblue" points="1577.92,-879.48 1567.38,-880.55 1576.28,-886.29 1577.92,-879.48"/>
</g>
<!-- Node146&#45;&gt;Node144 -->
<g id="edge163" class="edge">
<title>Node146&#45;&gt;Node144</title>
<path fill="none" stroke="midnightblue" d="M1801.7,-922.91C1802.08,-903.8 1805.68,-869.79 1825,-850 1865.09,-808.94 1899.97,-843.82 1949,-814 2023.93,-768.42 2022.13,-732.16 2085,-671 2095.36,-660.92 2107.39,-650.07 2117.05,-641.55"/>
<polygon fill="midnightblue" stroke="midnightblue" points="2119.61,-643.96 2124.83,-634.74 2115,-638.69 2119.61,-643.96"/>
</g>
<!-- Node146&#45;&gt;Node145 -->
<g id="edge160" class="edge">
<title>Node146&#45;&gt;Node145</title>
<path fill="none" stroke="midnightblue" d="M1829.19,-922.9C1850.04,-912.1 1879.01,-897.08 1901.81,-885.26"/>
<polygon fill="midnightblue" stroke="midnightblue" points="1903.59,-888.28 1910.85,-880.57 1900.36,-882.07 1903.59,-888.28"/>
</g>
<!-- Node148&#45;&gt;Node2 -->
<g id="edge165" class="edge">
<title>Node148&#45;&gt;Node2</title>
<path fill="none" stroke="midnightblue" d="M2110.04,-936.26C2199.77,-933.73 2375.05,-923.24 2517,-881 2694.74,-828.11 2797.34,-811.57 2854,-635 2932.37,-390.78 2961.71,-214.67 2752,-67 2711.62,-38.57 2565.23,-24.03 2499.43,-18.8"/>
<polygon fill="midnightblue" stroke="midnightblue" points="2499.46,-15.3 2489.22,-18.02 2498.92,-22.28 2499.46,-15.3"/>
</g>
<!-- Node148&#45;&gt;Node3 -->
<g id="edge166" class="edge">
<title>Node148&#45;&gt;Node3</title>
<path fill="none" stroke="midnightblue" d="M1991.88,-927.35C1968.04,-923.72 1940.26,-919.79 1915,-917 1698.83,-893.16 1643.74,-898.93 1427,-881 1130.78,-856.5 114,-923.23 114,-626 114,-626 114,-626 114,-132 114,-97.84 126.27,-85.47 155,-67 209.48,-31.98 403.24,-20.91 487.91,-17.7"/>
<polygon fill="midnightblue" stroke="midnightblue" points="488.06,-21.2 497.92,-17.34 487.8,-14.21 488.06,-21.2"/>
</g>
<!-- Node148&#45;&gt;Node6 -->
<g id="edge167" class="edge">
<title>Node148&#45;&gt;Node6</title>
<path fill="none" stroke="midnightblue" d="M2110.15,-936.15C2272.15,-930.4 2711,-890.42 2711,-626 2711,-626 2711,-626 2711,-568 2711,-280.09 2474.66,-238.68 2193,-179 2015.62,-141.42 1800.25,-134.75 1697.76,-133.87"/>
<polygon fill="midnightblue" stroke="midnightblue" points="1697.63,-130.37 1687.61,-133.8 1697.58,-137.37 1697.63,-130.37"/>
</g>
<!-- Node148&#45;&gt;Node34 -->
<g id="edge169" class="edge">
<title>Node148&#45;&gt;Node34</title>
<path fill="none" stroke="midnightblue" d="M2047.36,-917.14C2043.06,-898.17 2034.31,-869.63 2018,-850 1950.83,-769.15 1915.94,-759.58 1816,-727 1617.5,-662.29 1029.37,-781.88 881,-635 760.49,-515.7 806,-277.1 822.22,-208.71"/>
<polygon fill="midnightblue" stroke="midnightblue" points="825.72,-209.16 824.71,-198.61 818.92,-207.49 825.72,-209.16"/>
</g>
<!-- Node148&#45;&gt;Node138 -->
<g id="edge170" class="edge">
<title>Node148&#45;&gt;Node138</title>
<path fill="none" stroke="midnightblue" d="M1991.8,-928C1967.95,-924.45 1940.19,-920.42 1915,-917 1803.35,-901.85 1674.17,-886.08 1592.06,-876.28"/>
<polygon fill="midnightblue" stroke="midnightblue" points="1592.38,-872.8 1582.04,-875.09 1591.55,-879.75 1592.38,-872.8"/>
</g>
<!-- Node148&#45;&gt;Node144 -->
<g id="edge171" class="edge">
<title>Node148&#45;&gt;Node144</title>
<path fill="none" stroke="midnightblue" d="M2056.93,-917.08C2064.04,-891.41 2075,-845.3 2075,-805 2075,-805 2075,-805 2075,-741.5 2075,-702.57 2102.17,-663.74 2119.94,-642.49"/>
<polygon fill="midnightblue" stroke="midnightblue" points="2122.74,-644.61 2126.66,-634.76 2117.46,-640.02 2122.74,-644.61"/>
</g>
<!-- Node148&#45;&gt;Node145 -->
<g id="edge168" class="edge">
<title>Node148&#45;&gt;Node145</title>
<path fill="none" stroke="midnightblue" d="M2019.52,-917.36C2003.91,-907.62 1985.1,-895.89 1969.49,-886.15"/>
<polygon fill="midnightblue" stroke="midnightblue" points="1971.05,-882.99 1960.71,-880.67 1967.34,-888.93 1971.05,-882.99"/>
</g>
<!-- Node148&#45;&gt;Node149 -->
<g id="edge172" class="edge">
<title>Node148&#45;&gt;Node149</title>
<path fill="none" stroke="midnightblue" d="M2082.03,-917.41C2160.38,-867.96 2364.79,-738.94 2432.7,-696.07"/>
<polygon fill="midnightblue" stroke="midnightblue" points="2434.76,-698.91 2441.35,-690.61 2431.03,-692.99 2434.76,-698.91"/>
</g>
<!-- Node148&#45;&gt;Node150 -->
<g id="edge183" class="edge">
<title>Node148&#45;&gt;Node150</title>
<path fill="none" stroke="midnightblue" d="M2063.62,-917.07C2099.76,-860.03 2203.18,-696.76 2237.09,-643.23"/>
<polygon fill="midnightblue" stroke="midnightblue" points="2240.18,-644.88 2242.58,-634.56 2234.27,-641.13 2240.18,-644.88"/>
</g>
<!-- Node149&#45;&gt;Node1 -->
<g id="edge182" class="edge">
<title>Node149&#45;&gt;Node1</title>
<path fill="none" stroke="midnightblue" d="M2538.61,-685.06C2592.04,-689.68 2661.61,-700.77 2718,-727 2765.47,-749.08 2808,-750.65 2808,-803 2808,-939 2808,-939 2808,-939 2808,-1036.47 1301.89,-1076.17 882.33,-1085.33"/>
<polygon fill="midnightblue" stroke="midnightblue" points="881.95,-1081.84 872.03,-1085.56 882.1,-1088.84 881.95,-1081.84"/>
</g>
<!-- Node149&#45;&gt;Node6 -->
<g id="edge173" class="edge">
<title>Node149&#45;&gt;Node6</title>
<path fill="none" stroke="midnightblue" d="M2461.46,-671.49C2470.13,-658.98 2483.59,-634.95 2476,-615 2452.02,-551.99 2115.81,-205.93 2054,-179 1911.45,-116.88 1860.42,-161.2 1706,-143 1703.32,-142.68 1700.58,-142.35 1697.82,-142.01"/>
<polygon fill="midnightblue" stroke="midnightblue" points="1698.1,-138.52 1687.74,-140.75 1697.23,-145.47 1698.1,-138.52"/>
</g>
<!-- Node149&#45;&gt;Node34 -->
<g id="edge175" class="edge">
<title>Node149&#45;&gt;Node34</title>
<path fill="none" stroke="midnightblue" d="M2371.49,-678.44C2198.74,-674.68 1807.41,-663.25 1677,-635 1324.59,-558.67 1218.95,-540.41 924,-333 889.81,-308.96 881,-300.9 858,-266 846.02,-247.82 837.3,-224.28 832.22,-208.25"/>
<polygon fill="midnightblue" stroke="midnightblue" points="835.52,-207.07 829.28,-198.5 828.81,-209.09 835.52,-207.07"/>
</g>
<!-- Node149&#45;&gt;Node117 -->
<g id="edge174" class="edge">
<title>Node149&#45;&gt;Node117</title>
<path fill="none" stroke="midnightblue" d="M2458.88,-671.3C2464.29,-657.68 2472.09,-631.17 2459,-615 2440.87,-592.59 2368.26,-580.86 2313.24,-575.07"/>
<polygon fill="midnightblue" stroke="midnightblue" points="2313.49,-571.58 2303.19,-574.06 2312.79,-578.54 2313.49,-571.58"/>
</g>
<!-- Node149&#45;&gt;Node135 -->
<g id="edge176" class="edge">
<title>Node149&#45;&gt;Node135</title>
<path fill="none" stroke="midnightblue" d="M2436.55,-671.3C2407.02,-657.66 2347.06,-631.15 2294,-615 2244.24,-599.85 2186.44,-588.03 2143.46,-580.31"/>
<polygon fill="midnightblue" stroke="midnightblue" points="2143.88,-576.83 2133.43,-578.53 2142.66,-583.72 2143.88,-576.83"/>
</g>
<!-- Node149&#45;&gt;Node150 -->
<g id="edge177" class="edge">
<title>Node149&#45;&gt;Node150</title>
<path fill="none" stroke="midnightblue" d="M2422.2,-671.44C2386.62,-662.16 2329.69,-647.31 2290.65,-637.13"/>
<polygon fill="midnightblue" stroke="midnightblue" points="2291.21,-633.65 2280.65,-634.52 2289.44,-640.43 2291.21,-633.65"/>
</g>
<!-- Node150&#45;&gt;Node6 -->
<g id="edge178" class="edge">
<title>Node150&#45;&gt;Node6</title>
<path fill="none" stroke="midnightblue" d="M2277.88,-615.39C2295.54,-608.59 2316.45,-597.15 2327,-579 2339.79,-557 2317.98,-521.2 2305,-492 2244.29,-355.39 2197.48,-336.8 2088,-235 2060.81,-209.72 2059.85,-194.25 2026,-179 1895.51,-120.21 1848.06,-160.39 1706,-143 1703.32,-142.67 1700.59,-142.33 1697.82,-141.98"/>
<polygon fill="midnightblue" stroke="midnightblue" points="1698.11,-138.49 1687.75,-140.7 1697.23,-145.44 1698.11,-138.49"/>
</g>
<!-- Node150&#45;&gt;Node34 -->
<g id="edge180" class="edge">
<title>Node150&#45;&gt;Node34</title>
<path fill="none" stroke="midnightblue" d="M2211.42,-616.78C2207.24,-616.11 2203.04,-615.49 2199,-615 1936.89,-583.09 1863.87,-635.77 1606,-579 1355.73,-523.9 1308.77,-459.46 1069,-369 1025.2,-352.47 1009.49,-358.15 970,-333 913.91,-297.28 862.54,-236.14 839.61,-206.74"/>
<polygon fill="midnightblue" stroke="midnightblue" points="842.3,-204.5 833.43,-198.7 836.75,-208.77 842.3,-204.5"/>
</g>
<!-- Node150&#45;&gt;Node117 -->
<g id="edge179" class="edge">
<title>Node150&#45;&gt;Node117</title>
<path fill="none" stroke="midnightblue" d="M2248,-615.08C2248,-608.01 2248,-597.86 2248,-588.99"/>
<polygon fill="midnightblue" stroke="midnightblue" points="2251.5,-588.75 2248,-578.75 2244.5,-588.75 2251.5,-588.75"/>
</g>
<!-- Node150&#45;&gt;Node135 -->
<g id="edge181" class="edge">
<title>Node150&#45;&gt;Node135</title>
<path fill="none" stroke="midnightblue" d="M2221.38,-615.44C2192.99,-606.32 2147.86,-591.81 2116.25,-581.65"/>
<polygon fill="midnightblue" stroke="midnightblue" points="2117.09,-578.24 2106.5,-578.52 2114.94,-584.91 2117.09,-578.24"/>
</g>
</g>
</svg>
