<?xml version="1.0" encoding="UTF-8" standalone="no"?>
<!DOCTYPE svg PUBLIC "-//W3C//DTD SVG 1.1//EN"
 "http://www.w3.org/Graphics/SVG/1.1/DTD/svg11.dtd">
<!-- Generated by graphviz version 2.43.0 (0)
 -->
<!-- Title: /home/runner/work/Documentation/Documentation/master/applications/PfemFluidDynamicsApplication/custom_elements/two_step_updated_lagrangian_V_P_implicit_nodally_integrated_element.h Pages: 1 -->
<!--zoomable 372 -->
<svg id="main" version="1.1" xmlns="http://www.w3.org/2000/svg" xmlns:xlink="http://www.w3.org/1999/xlink" xml:space="preserve" onload="init(evt)">
<style type="text/css"><![CDATA[
.edge:hover path { stroke: red; }
.edge:hover polygon { stroke: red; fill: red; }
]]></style>
<script type="text/javascript"><![CDATA[
var edges = document.getElementsByTagName('g');
if (edges && edges.length) {
  for (var i=0;i<edges.length;i++) {
    if (edges[i].id.substr(0,4)=='edge') {
      edges[i].setAttribute('class','edge');
    }
  }
}
]]></script>
        <defs>
                <circle id="rim" cx="0" cy="0" r="7"/>
                <circle id="rim2" cx="0" cy="0" r="3.5"/>
                <g id="zoomPlus">
                        <use xlink:href="#rim" fill="#404040">
                                <set attributeName="fill" to="#808080" begin="zoomplus.mouseover" end="zoomplus.mouseout"/>
                        </use>
                        <path d="M-4,0h8M0,-4v8" fill="none" stroke="white" stroke-width="1.5" pointer-events="none"/>
                </g>
                <g id="zoomMin">
                        <use xlink:href="#rim" fill="#404040">
                                <set attributeName="fill" to="#808080" begin="zoomminus.mouseover" end="zoomminus.mouseout"/>
                        </use>
                        <path d="M-4,0h8" fill="none" stroke="white" stroke-width="1.5" pointer-events="none"/>
                </g>
                <g id="dirArrow">
                        <path fill="none" stroke="white" stroke-width="1.5" d="M0,-3.0v7 M-2.5,-0.5L0,-3.0L2.5,-0.5"/>
                </g>
               <g id="resetDef">
                       <use xlink:href="#rim2" fill="#404040">
                               <set attributeName="fill" to="#808080" begin="reset.mouseover" end="reset.mouseout"/>
                       </use>
               </g>
        </defs>

<script type="text/javascript">
var viewWidth = 895;
var viewHeight = 372;
var sectionId = 'dynsection-1';
</script>
<script xlink:href="../../svgpan.js"/>
<svg id="graph" class="graph">
<g id="viewport">
<title>/home/runner/work/Documentation/Documentation/master/applications/PfemFluidDynamicsApplication/custom_elements/two_step_updated_lagrangian_V_P_implicit_nodally_integrated_element.h</title>
<!-- Node1 -->
<g id="node1" class="node">
<title>Node1</title>
<g id="a_node1"><a xlink:title=" ">
<polygon fill="#bfbfbf" stroke="black" points="356,-300.5 356,-363.5 589,-363.5 589,-300.5 356,-300.5"/>
<text text-anchor="start" x="364" y="-351.5" font-family="Helvetica,sans-Serif" font-size="10.00">/home/runner/work/Documentation</text>
<text text-anchor="start" x="364" y="-340.5" font-family="Helvetica,sans-Serif" font-size="10.00">/Documentation/master/applications</text>
<text text-anchor="start" x="364" y="-329.5" font-family="Helvetica,sans-Serif" font-size="10.00">/PfemFluidDynamicsApplication/custom</text>
<text text-anchor="start" x="364" y="-318.5" font-family="Helvetica,sans-Serif" font-size="10.00">_elements/two_step_updated_lagrangian</text>
<text text-anchor="middle" x="472.5" y="-307.5" font-family="Helvetica,sans-Serif" font-size="10.00">_V_P_implicit_nodally_integrated_element.h</text>
</a>
</g>
</g>
<!-- Node2 -->
<g id="node2" class="node">
<title>Node2</title>
<g id="a_node2"><a xlink:href="../../d1/dae/two__step__updated__lagrangian___v___p__implicit__nodally__integrated__element_8cpp.html" target="_top" xlink:title=" ">
<polygon fill="none" stroke="black" points="0,-200.5 0,-263.5 245,-263.5 245,-200.5 0,-200.5"/>
<text text-anchor="start" x="8" y="-251.5" font-family="Helvetica,sans-Serif" font-size="10.00">/home/runner/work/Documentation</text>
<text text-anchor="start" x="8" y="-240.5" font-family="Helvetica,sans-Serif" font-size="10.00">/Documentation/master/applications</text>
<text text-anchor="start" x="8" y="-229.5" font-family="Helvetica,sans-Serif" font-size="10.00">/PfemFluidDynamicsApplication/custom</text>
<text text-anchor="start" x="8" y="-218.5" font-family="Helvetica,sans-Serif" font-size="10.00">_elements/two_step_updated_lagrangian</text>
<text text-anchor="middle" x="122.5" y="-207.5" font-family="Helvetica,sans-Serif" font-size="10.00">_V_P_implicit_nodally_integrated_element.cpp</text>
</a>
</g>
</g>
<!-- Node1&#45;&gt;Node2 -->
<g id="edge1" class="edge">
<title>Node1&#45;&gt;Node2</title>
<path fill="none" stroke="midnightblue" d="M353.52,-297.69C314.03,-286.63 270.28,-274.38 231.58,-263.54"/>
<polygon fill="midnightblue" stroke="midnightblue" points="352.62,-301.07 363.2,-300.4 354.51,-294.33 352.62,-301.07"/>
</g>
<!-- Node3 -->
<g id="node3" class="node">
<title>Node3</title>
<g id="a_node3"><a xlink:href="../../d4/ddd/two__step__updated__lagrangian___v___p__implicit__nodally__integrated__fluid__element_8h.html" target="_top" xlink:title=" ">
<polygon fill="none" stroke="black" points="263.5,-200.5 263.5,-263.5 523.5,-263.5 523.5,-200.5 263.5,-200.5"/>
<text text-anchor="start" x="271.5" y="-251.5" font-family="Helvetica,sans-Serif" font-size="10.00">/home/runner/work/Documentation</text>
<text text-anchor="start" x="271.5" y="-240.5" font-family="Helvetica,sans-Serif" font-size="10.00">/Documentation/master/applications</text>
<text text-anchor="start" x="271.5" y="-229.5" font-family="Helvetica,sans-Serif" font-size="10.00">/PfemFluidDynamicsApplication/custom</text>
<text text-anchor="start" x="271.5" y="-218.5" font-family="Helvetica,sans-Serif" font-size="10.00">_elements/two_step_updated_lagrangian</text>
<text text-anchor="middle" x="393.5" y="-207.5" font-family="Helvetica,sans-Serif" font-size="10.00">_V_P_implicit_nodally_integrated_fluid_element.h</text>
</a>
</g>
</g>
<!-- Node1&#45;&gt;Node3 -->
<g id="edge2" class="edge">
<title>Node1&#45;&gt;Node3</title>
<path fill="none" stroke="midnightblue" d="M441.38,-292.4C433.68,-282.85 425.54,-272.74 418.19,-263.63"/>
<polygon fill="midnightblue" stroke="midnightblue" points="438.72,-294.67 447.72,-300.26 444.17,-290.28 438.72,-294.67"/>
</g>
<!-- Node5 -->
<g id="node5" class="node">
<title>Node5</title>
<g id="a_node5"><a xlink:href="../../d8/ddc/pfem__fluid__dynamics__application_8h.html" target="_top" xlink:title=" ">
<polygon fill="none" stroke="black" points="451,-100.5 451,-152.5 652,-152.5 652,-100.5 451,-100.5"/>
<text text-anchor="start" x="459" y="-140.5" font-family="Helvetica,sans-Serif" font-size="10.00">/home/runner/work/Documentation</text>
<text text-anchor="start" x="459" y="-129.5" font-family="Helvetica,sans-Serif" font-size="10.00">/Documentation/master/applications</text>
<text text-anchor="start" x="459" y="-118.5" font-family="Helvetica,sans-Serif" font-size="10.00">/PfemFluidDynamicsApplication/pfem</text>
<text text-anchor="middle" x="551.5" y="-107.5" font-family="Helvetica,sans-Serif" font-size="10.00">_fluid_dynamics_application.h</text>
</a>
</g>
</g>
<!-- Node1&#45;&gt;Node5 -->
<g id="edge9" class="edge">
<title>Node1&#45;&gt;Node5</title>
<path fill="none" stroke="midnightblue" d="M513.61,-292.71C520.96,-283.95 527.77,-274.19 532.5,-264 549.26,-227.86 552.26,-180.99 552.3,-152.63"/>
<polygon fill="midnightblue" stroke="midnightblue" points="510.76,-290.65 506.75,-300.46 516,-295.29 510.76,-290.65"/>
</g>
<!-- Node7 -->
<g id="node7" class="node">
<title>Node7</title>
<g id="a_node7"><a xlink:href="../../d0/dc2/two__step__updated__lagrangian___v___p__implicit__nodally__integrated__solid__element_8h.html" target="_top" xlink:title=" ">
<polygon fill="none" stroke="black" points="579.5,-200.5 579.5,-263.5 841.5,-263.5 841.5,-200.5 579.5,-200.5"/>
<text text-anchor="start" x="587.5" y="-251.5" font-family="Helvetica,sans-Serif" font-size="10.00">/home/runner/work/Documentation</text>
<text text-anchor="start" x="587.5" y="-240.5" font-family="Helvetica,sans-Serif" font-size="10.00">/Documentation/master/applications</text>
<text text-anchor="start" x="587.5" y="-229.5" font-family="Helvetica,sans-Serif" font-size="10.00">/PfemFluidDynamicsApplication/custom</text>
<text text-anchor="start" x="587.5" y="-218.5" font-family="Helvetica,sans-Serif" font-size="10.00">_elements/two_step_updated_lagrangian</text>
<text text-anchor="middle" x="710.5" y="-207.5" font-family="Helvetica,sans-Serif" font-size="10.00">_V_P_implicit_nodally_integrated_solid_element.h</text>
</a>
</g>
</g>
<!-- Node1&#45;&gt;Node7 -->
<g id="edge6" class="edge">
<title>Node1&#45;&gt;Node7</title>
<path fill="none" stroke="midnightblue" d="M556.31,-296.49C582.39,-285.75 610.95,-273.99 636.33,-263.54"/>
<polygon fill="midnightblue" stroke="midnightblue" points="554.74,-293.35 546.83,-300.4 557.41,-299.82 554.74,-293.35"/>
</g>
<!-- Node4 -->
<g id="node4" class="node">
<title>Node4</title>
<g id="a_node4"><a xlink:href="../../df/d73/two__step__updated__lagrangian___v___p__implicit__nodally__integrated__fluid__element_8cpp.html" target="_top" xlink:title=" ">
<polygon fill="none" stroke="black" points="216,-89.5 216,-163.5 433,-163.5 433,-89.5 216,-89.5"/>
<text text-anchor="start" x="224" y="-151.5" font-family="Helvetica,sans-Serif" font-size="10.00">/home/runner/work/Documentation</text>
<text text-anchor="start" x="224" y="-140.5" font-family="Helvetica,sans-Serif" font-size="10.00">/Documentation/master/applications</text>
<text text-anchor="start" x="224" y="-129.5" font-family="Helvetica,sans-Serif" font-size="10.00">/PfemFluidDynamicsApplication/custom</text>
<text text-anchor="start" x="224" y="-118.5" font-family="Helvetica,sans-Serif" font-size="10.00">_elements/two_step_updated_lagrangian</text>
<text text-anchor="start" x="224" y="-107.5" font-family="Helvetica,sans-Serif" font-size="10.00">_V_P_implicit_nodally_integrated_fluid</text>
<text text-anchor="middle" x="324.5" y="-96.5" font-family="Helvetica,sans-Serif" font-size="10.00">_element.cpp</text>
</a>
</g>
</g>
<!-- Node3&#45;&gt;Node4 -->
<g id="edge3" class="edge">
<title>Node3&#45;&gt;Node4</title>
<path fill="none" stroke="midnightblue" d="M367.28,-191.66C361.18,-182.52 354.71,-172.82 348.71,-163.81"/>
<polygon fill="midnightblue" stroke="midnightblue" points="364.53,-193.85 372.98,-200.23 370.35,-189.96 364.53,-193.85"/>
</g>
<!-- Node3&#45;&gt;Node5 -->
<g id="edge4" class="edge">
<title>Node3&#45;&gt;Node5</title>
<path fill="none" stroke="midnightblue" d="M449.08,-194.59C470.28,-180.7 493.95,-165.2 513.2,-152.59"/>
<polygon fill="midnightblue" stroke="midnightblue" points="446.92,-191.82 440.48,-200.23 450.76,-197.67 446.92,-191.82"/>
</g>
<!-- Node6 -->
<g id="node6" class="node">
<title>Node6</title>
<g id="a_node6"><a xlink:href="../../da/de5/pfem__fluid__dynamics__application_8cpp.html" target="_top" xlink:title=" ">
<polygon fill="none" stroke="black" points="451,-0.5 451,-52.5 652,-52.5 652,-0.5 451,-0.5"/>
<text text-anchor="start" x="459" y="-40.5" font-family="Helvetica,sans-Serif" font-size="10.00">/home/runner/work/Documentation</text>
<text text-anchor="start" x="459" y="-29.5" font-family="Helvetica,sans-Serif" font-size="10.00">/Documentation/master/applications</text>
<text text-anchor="start" x="459" y="-18.5" font-family="Helvetica,sans-Serif" font-size="10.00">/PfemFluidDynamicsApplication/pfem</text>
<text text-anchor="middle" x="551.5" y="-7.5" font-family="Helvetica,sans-Serif" font-size="10.00">_fluid_dynamics_application.cpp</text>
</a>
</g>
</g>
<!-- Node5&#45;&gt;Node6 -->
<g id="edge5" class="edge">
<title>Node5&#45;&gt;Node6</title>
<path fill="none" stroke="midnightblue" d="M551.5,-90.2C551.5,-77.78 551.5,-64.07 551.5,-52.65"/>
<polygon fill="midnightblue" stroke="midnightblue" points="548,-90.26 551.5,-100.26 555,-90.26 548,-90.26"/>
</g>
<!-- Node7&#45;&gt;Node5 -->
<g id="edge8" class="edge">
<title>Node7&#45;&gt;Node5</title>
<path fill="none" stroke="midnightblue" d="M654.57,-194.59C633.23,-180.7 609.41,-165.2 590.05,-152.59"/>
<polygon fill="midnightblue" stroke="midnightblue" points="652.93,-197.7 663.23,-200.23 656.75,-191.84 652.93,-197.7"/>
</g>
<!-- Node8 -->
<g id="node8" class="node">
<title>Node8</title>
<g id="a_node8"><a xlink:href="../../d5/d1c/two__step__updated__lagrangian___v___p__implicit__nodally__integrated__solid__element_8cpp.html" target="_top" xlink:title=" ">
<polygon fill="none" stroke="black" points="670,-89.5 670,-163.5 887,-163.5 887,-89.5 670,-89.5"/>
<text text-anchor="start" x="678" y="-151.5" font-family="Helvetica,sans-Serif" font-size="10.00">/home/runner/work/Documentation</text>
<text text-anchor="start" x="678" y="-140.5" font-family="Helvetica,sans-Serif" font-size="10.00">/Documentation/master/applications</text>
<text text-anchor="start" x="678" y="-129.5" font-family="Helvetica,sans-Serif" font-size="10.00">/PfemFluidDynamicsApplication/custom</text>
<text text-anchor="start" x="678" y="-118.5" font-family="Helvetica,sans-Serif" font-size="10.00">_elements/two_step_updated_lagrangian</text>
<text text-anchor="start" x="678" y="-107.5" font-family="Helvetica,sans-Serif" font-size="10.00">_V_P_implicit_nodally_integrated_solid</text>
<text text-anchor="middle" x="778.5" y="-96.5" font-family="Helvetica,sans-Serif" font-size="10.00">_element.cpp</text>
</a>
</g>
</g>
<!-- Node7&#45;&gt;Node8 -->
<g id="edge7" class="edge">
<title>Node7&#45;&gt;Node8</title>
<path fill="none" stroke="midnightblue" d="M736.34,-191.66C742.35,-182.52 748.73,-172.82 754.65,-163.81"/>
<polygon fill="midnightblue" stroke="midnightblue" points="733.28,-189.95 730.72,-200.23 739.13,-193.79 733.28,-189.95"/>
</g>
</g>
</svg>
        <g id="navigator" transform="translate(0 0)" fill="#404254">
                <rect fill="#f2f5e9" fill-opacity="0.5" stroke="#606060" stroke-width=".5" x="0" y="0" width="60" height="60"/>
                <use id="zoomplus" xlink:href="#zoomPlus" x="17" y="9" onmousedown="handleZoom(evt,'in')"/>
                <use id="zoomminus" xlink:href="#zoomMin" x="42" y="9" onmousedown="handleZoom(evt,'out')"/>
                <use id="reset" xlink:href="#resetDef" x="30" y="36" onmousedown="handleReset()"/>
                <g id="arrowUp" xlink:href="#dirArrow" transform="translate(30 24)" onmousedown="handlePan(0,-1)">
                  <use xlink:href="#rim" fill="#404040">
                        <set attributeName="fill" to="#808080" begin="arrowUp.mouseover" end="arrowUp.mouseout"/>
                  </use>
                  <path fill="none" stroke="white" stroke-width="1.5" d="M0,-3.0v7 M-2.5,-0.5L0,-3.0L2.5,-0.5"/>
                </g>
                <g id="arrowRight" xlink:href="#dirArrow" transform="rotate(90) translate(36 -43)" onmousedown="handlePan(1,0)">
                  <use xlink:href="#rim" fill="#404040">
                        <set attributeName="fill" to="#808080" begin="arrowRight.mouseover" end="arrowRight.mouseout"/>
                  </use>
                  <path fill="none" stroke="white" stroke-width="1.5" d="M0,-3.0v7 M-2.5,-0.5L0,-3.0L2.5,-0.5"/>
                </g>
                <g id="arrowDown" xlink:href="#dirArrow" transform="rotate(180) translate(-30 -48)" onmousedown="handlePan(0,1)">
                  <use xlink:href="#rim" fill="#404040">
                        <set attributeName="fill" to="#808080" begin="arrowDown.mouseover" end="arrowDown.mouseout"/>
                  </use>
                  <path fill="none" stroke="white" stroke-width="1.5" d="M0,-3.0v7 M-2.5,-0.5L0,-3.0L2.5,-0.5"/>
                </g>
                <g id="arrowLeft" xlink:href="#dirArrow" transform="rotate(270) translate(-36 17)" onmousedown="handlePan(-1,0)">
                  <use xlink:href="#rim" fill="#404040">
                        <set attributeName="fill" to="#808080" begin="arrowLeft.mouseover" end="arrowLeft.mouseout"/>
                  </use>
                  <path fill="none" stroke="white" stroke-width="1.5" d="M0,-3.0v7 M-2.5,-0.5L0,-3.0L2.5,-0.5"/>
                </g>
        </g>
        <svg viewBox="0 0 15 15" width="100%" height="30px" preserveAspectRatio="xMaxYMin meet">
         <g id="arrow_out" transform="scale(0.3 0.3)">
          <a xlink:href="two__step__updated__lagrangian___v___p__implicit__nodally__integrated__element_8h__dep__incl_org.svg" target="_base">
           <rect id="button" ry="5" rx="5" y="6" x="6" height="38" width="38"
                fill="#f2f5e9" fill-opacity="0.5" stroke="#606060" stroke-width="1.0"/>
           <path id="arrow"
             d="M 11.500037,31.436501 C 11.940474,20.09759 22.043105,11.32322 32.158766,21.979434 L 37.068811,17.246167 C 37.068811,17.246167 37.088388,32 37.088388,32 L 22.160133,31.978069 C 22.160133,31.978069 26.997745,27.140456 26.997745,27.140456 C 18.528582,18.264221 13.291696,25.230495 11.500037,31.436501 z"
             style="fill:#404040;"/>
          </a>
         </g>
        </svg>
</svg>
