<?xml version="1.0" encoding="UTF-8" standalone="no"?>
<!DOCTYPE svg PUBLIC "-//W3C//DTD SVG 1.1//EN"
 "http://www.w3.org/Graphics/SVG/1.1/DTD/svg11.dtd">
<!-- Generated by graphviz version 2.43.0 (0)
 -->
<!-- Title: /home/runner/work/Documentation/Documentation/master/applications/RANSApplication/custom_conditions/scalar_wall_flux_condition_data.h Pages: 1 -->
<svg width="1341pt" height="339pt"
 viewBox="0.00 0.00 1341.00 339.00" xmlns="http://www.w3.org/2000/svg" xmlns:xlink="http://www.w3.org/1999/xlink">
<g id="graph0" class="graph" transform="scale(1 1) rotate(0) translate(4 335)">
<title>/home/runner/work/Documentation/Documentation/master/applications/RANSApplication/custom_conditions/scalar_wall_flux_condition_data.h</title>
<!-- Node1 -->
<g id="node1" class="node">
<title>Node1</title>
<g id="a_node1"><a xlink:title=" ">
<polygon fill="#bfbfbf" stroke="black" points="569,-278.5 569,-330.5 766,-330.5 766,-278.5 569,-278.5"/>
<text text-anchor="start" x="577" y="-318.5" font-family="Helvetica,sans-Serif" font-size="10.00">/home/runner/work/Documentation</text>
<text text-anchor="start" x="577" y="-307.5" font-family="Helvetica,sans-Serif" font-size="10.00">/Documentation/master/applications</text>
<text text-anchor="start" x="577" y="-296.5" font-family="Helvetica,sans-Serif" font-size="10.00">/RANSApplication/custom_conditions</text>
<text text-anchor="middle" x="667.5" y="-285.5" font-family="Helvetica,sans-Serif" font-size="10.00">/scalar_wall_flux_condition_data.h</text>
</a>
</g>
</g>
<!-- Node2 -->
<g id="node2" class="node">
<title>Node2</title>
<g id="a_node2"><a xlink:href="../../db/d69/epsilon__k__based__wall__condition__data_8h.html" target="_top" xlink:title=" ">
<polygon fill="none" stroke="black" points="215,-178.5 215,-241.5 412,-241.5 412,-178.5 215,-178.5"/>
<text text-anchor="start" x="223" y="-229.5" font-family="Helvetica,sans-Serif" font-size="10.00">/home/runner/work/Documentation</text>
<text text-anchor="start" x="223" y="-218.5" font-family="Helvetica,sans-Serif" font-size="10.00">/Documentation/master/applications</text>
<text text-anchor="start" x="223" y="-207.5" font-family="Helvetica,sans-Serif" font-size="10.00">/RANSApplication/custom_conditions</text>
<text text-anchor="start" x="223" y="-196.5" font-family="Helvetica,sans-Serif" font-size="10.00">/data_containers/k_epsilon/epsilon</text>
<text text-anchor="middle" x="313.5" y="-185.5" font-family="Helvetica,sans-Serif" font-size="10.00">_k_based_wall_condition_data.h</text>
</a>
</g>
</g>
<!-- Node1&#45;&gt;Node2 -->
<g id="edge1" class="edge">
<title>Node1&#45;&gt;Node2</title>
<path fill="none" stroke="midnightblue" d="M558.95,-277.22C516.05,-266.61 466.37,-254.04 421.5,-242 418.39,-241.17 415.23,-240.31 412.05,-239.44"/>
<polygon fill="midnightblue" stroke="midnightblue" points="558.3,-280.66 568.84,-279.66 559.97,-273.87 558.3,-280.66"/>
</g>
<!-- Node7 -->
<g id="node7" class="node">
<title>Node7</title>
<g id="a_node7"><a xlink:href="../../dd/d26/epsilon__u__based__wall__condition__data_8h.html" target="_top" xlink:title=" ">
<polygon fill="none" stroke="black" points="923,-178.5 923,-241.5 1120,-241.5 1120,-178.5 923,-178.5"/>
<text text-anchor="start" x="931" y="-229.5" font-family="Helvetica,sans-Serif" font-size="10.00">/home/runner/work/Documentation</text>
<text text-anchor="start" x="931" y="-218.5" font-family="Helvetica,sans-Serif" font-size="10.00">/Documentation/master/applications</text>
<text text-anchor="start" x="931" y="-207.5" font-family="Helvetica,sans-Serif" font-size="10.00">/RANSApplication/custom_conditions</text>
<text text-anchor="start" x="931" y="-196.5" font-family="Helvetica,sans-Serif" font-size="10.00">/data_containers/k_epsilon/epsilon</text>
<text text-anchor="middle" x="1021.5" y="-185.5" font-family="Helvetica,sans-Serif" font-size="10.00">_u_based_wall_condition_data.h</text>
</a>
</g>
</g>
<!-- Node1&#45;&gt;Node7 -->
<g id="edge6" class="edge">
<title>Node1&#45;&gt;Node7</title>
<path fill="none" stroke="midnightblue" d="M776.05,-277.22C818.95,-266.61 868.63,-254.04 913.5,-242 916.61,-241.17 919.77,-240.31 922.95,-239.44"/>
<polygon fill="midnightblue" stroke="midnightblue" points="775.03,-273.87 766.16,-279.66 776.7,-280.66 775.03,-273.87"/>
</g>
<!-- Node9 -->
<g id="node9" class="node">
<title>Node9</title>
<g id="a_node9"><a xlink:href="../../d1/d64/omega__k__based__wall__condition__data_8h.html" target="_top" xlink:title=" ">
<polygon fill="none" stroke="black" points="430.5,-178.5 430.5,-241.5 658.5,-241.5 658.5,-178.5 430.5,-178.5"/>
<text text-anchor="start" x="438.5" y="-229.5" font-family="Helvetica,sans-Serif" font-size="10.00">/home/runner/work/Documentation</text>
<text text-anchor="start" x="438.5" y="-218.5" font-family="Helvetica,sans-Serif" font-size="10.00">/Documentation/master/applications</text>
<text text-anchor="start" x="438.5" y="-207.5" font-family="Helvetica,sans-Serif" font-size="10.00">/RANSApplication/custom_conditions</text>
<text text-anchor="start" x="438.5" y="-196.5" font-family="Helvetica,sans-Serif" font-size="10.00">/data_containers/k_omega/omega_k_based</text>
<text text-anchor="middle" x="544.5" y="-185.5" font-family="Helvetica,sans-Serif" font-size="10.00">_wall_condition_data.h</text>
</a>
</g>
</g>
<!-- Node1&#45;&gt;Node9 -->
<g id="edge10" class="edge">
<title>Node1&#45;&gt;Node9</title>
<path fill="none" stroke="midnightblue" d="M626.21,-272.45C613.01,-262.53 598.43,-251.56 585.27,-241.66"/>
<polygon fill="midnightblue" stroke="midnightblue" points="624.12,-275.26 634.21,-278.47 628.33,-269.66 624.12,-275.26"/>
</g>
<!-- Node11 -->
<g id="node11" class="node">
<title>Node11</title>
<g id="a_node11"><a xlink:href="../../df/d18/omega__u__based__wall__condition__data_8h.html" target="_top" xlink:title=" ">
<polygon fill="none" stroke="black" points="676.5,-178.5 676.5,-241.5 904.5,-241.5 904.5,-178.5 676.5,-178.5"/>
<text text-anchor="start" x="684.5" y="-229.5" font-family="Helvetica,sans-Serif" font-size="10.00">/home/runner/work/Documentation</text>
<text text-anchor="start" x="684.5" y="-218.5" font-family="Helvetica,sans-Serif" font-size="10.00">/Documentation/master/applications</text>
<text text-anchor="start" x="684.5" y="-207.5" font-family="Helvetica,sans-Serif" font-size="10.00">/RANSApplication/custom_conditions</text>
<text text-anchor="start" x="684.5" y="-196.5" font-family="Helvetica,sans-Serif" font-size="10.00">/data_containers/k_omega/omega_u_based</text>
<text text-anchor="middle" x="790.5" y="-185.5" font-family="Helvetica,sans-Serif" font-size="10.00">_wall_condition_data.h</text>
</a>
</g>
</g>
<!-- Node1&#45;&gt;Node11 -->
<g id="edge14" class="edge">
<title>Node1&#45;&gt;Node11</title>
<path fill="none" stroke="midnightblue" d="M708.79,-272.45C721.99,-262.53 736.57,-251.56 749.73,-241.66"/>
<polygon fill="midnightblue" stroke="midnightblue" points="706.67,-269.66 700.79,-278.47 710.88,-275.26 706.67,-269.66"/>
</g>
<!-- Node3 -->
<g id="node3" class="node">
<title>Node3</title>
<g id="a_node3"><a xlink:href="../../df/d1b/epsilon__k__based__wall__condition__data_8cpp.html" target="_top" xlink:title=" ">
<polygon fill="none" stroke="black" points="0,-78.5 0,-141.5 197,-141.5 197,-78.5 0,-78.5"/>
<text text-anchor="start" x="8" y="-129.5" font-family="Helvetica,sans-Serif" font-size="10.00">/home/runner/work/Documentation</text>
<text text-anchor="start" x="8" y="-118.5" font-family="Helvetica,sans-Serif" font-size="10.00">/Documentation/master/applications</text>
<text text-anchor="start" x="8" y="-107.5" font-family="Helvetica,sans-Serif" font-size="10.00">/RANSApplication/custom_conditions</text>
<text text-anchor="start" x="8" y="-96.5" font-family="Helvetica,sans-Serif" font-size="10.00">/data_containers/k_epsilon/epsilon</text>
<text text-anchor="middle" x="98.5" y="-85.5" font-family="Helvetica,sans-Serif" font-size="10.00">_k_based_wall_condition_data.cpp</text>
</a>
</g>
</g>
<!-- Node2&#45;&gt;Node3 -->
<g id="edge2" class="edge">
<title>Node2&#45;&gt;Node3</title>
<path fill="none" stroke="midnightblue" d="M237.17,-174.21C213.77,-163.54 188.22,-151.9 165.5,-141.54"/>
<polygon fill="midnightblue" stroke="midnightblue" points="235.81,-177.43 246.36,-178.4 238.71,-171.06 235.81,-177.43"/>
</g>
<!-- Node4 -->
<g id="node4" class="node">
<title>Node4</title>
<g id="a_node4"><a xlink:href="../../d3/d55/scalar__wall__flux__condition_8cpp.html" target="_top" xlink:title=" ">
<polygon fill="none" stroke="black" points="462,-84 462,-136 659,-136 659,-84 462,-84"/>
<text text-anchor="start" x="470" y="-124" font-family="Helvetica,sans-Serif" font-size="10.00">/home/runner/work/Documentation</text>
<text text-anchor="start" x="470" y="-113" font-family="Helvetica,sans-Serif" font-size="10.00">/Documentation/master/applications</text>
<text text-anchor="start" x="470" y="-102" font-family="Helvetica,sans-Serif" font-size="10.00">/RANSApplication/custom_conditions</text>
<text text-anchor="middle" x="560.5" y="-91" font-family="Helvetica,sans-Serif" font-size="10.00">/scalar_wall_flux_condition.cpp</text>
</a>
</g>
</g>
<!-- Node2&#45;&gt;Node4 -->
<g id="edge3" class="edge">
<title>Node2&#45;&gt;Node4</title>
<path fill="none" stroke="midnightblue" d="M399.99,-174.68C431.99,-161.99 467.63,-147.85 497.19,-136.12"/>
<polygon fill="midnightblue" stroke="midnightblue" points="398.64,-171.45 390.64,-178.4 401.22,-177.96 398.64,-171.45"/>
</g>
<!-- Node5 -->
<g id="node5" class="node">
<title>Node5</title>
<g id="a_node5"><a xlink:href="../../d8/d1c/rans__application_8h.html" target="_top" xlink:title=" ">
<polygon fill="none" stroke="black" points="677.5,-89.5 677.5,-130.5 871.5,-130.5 871.5,-89.5 677.5,-89.5"/>
<text text-anchor="start" x="685.5" y="-118.5" font-family="Helvetica,sans-Serif" font-size="10.00">/home/runner/work/Documentation</text>
<text text-anchor="start" x="685.5" y="-107.5" font-family="Helvetica,sans-Serif" font-size="10.00">/Documentation/master/applications</text>
<text text-anchor="middle" x="774.5" y="-96.5" font-family="Helvetica,sans-Serif" font-size="10.00">/RANSApplication/rans_application.h</text>
</a>
</g>
</g>
<!-- Node2&#45;&gt;Node5 -->
<g id="edge4" class="edge">
<title>Node2&#45;&gt;Node5</title>
<path fill="none" stroke="midnightblue" d="M422.33,-177.94C531.34,-155.3 562.68,-164.74 667.5,-142 682.15,-138.82 697.73,-134.73 712.35,-130.56"/>
<polygon fill="midnightblue" stroke="midnightblue" points="421.3,-174.58 412.24,-180.08 422.75,-181.43 421.3,-174.58"/>
</g>
<!-- Node6 -->
<g id="node6" class="node">
<title>Node6</title>
<g id="a_node6"><a xlink:href="../../d3/d7b/rans__application_8cpp.html" target="_top" xlink:title=" ">
<polygon fill="none" stroke="black" points="671.5,-0.5 671.5,-41.5 877.5,-41.5 877.5,-0.5 671.5,-0.5"/>
<text text-anchor="start" x="679.5" y="-29.5" font-family="Helvetica,sans-Serif" font-size="10.00">/home/runner/work/Documentation</text>
<text text-anchor="start" x="679.5" y="-18.5" font-family="Helvetica,sans-Serif" font-size="10.00">/Documentation/master/applications</text>
<text text-anchor="middle" x="774.5" y="-7.5" font-family="Helvetica,sans-Serif" font-size="10.00">/RANSApplication/rans_application.cpp</text>
</a>
</g>
</g>
<!-- Node5&#45;&gt;Node6 -->
<g id="edge5" class="edge">
<title>Node5&#45;&gt;Node6</title>
<path fill="none" stroke="midnightblue" d="M774.5,-78.94C774.5,-66.6 774.5,-52.66 774.5,-41.66"/>
<polygon fill="midnightblue" stroke="midnightblue" points="771,-79.26 774.5,-89.26 778,-79.26 771,-79.26"/>
</g>
<!-- Node7&#45;&gt;Node4 -->
<g id="edge8" class="edge">
<title>Node7&#45;&gt;Node4</title>
<path fill="none" stroke="midnightblue" d="M912.71,-177.95C804.11,-155.35 772.93,-164.55 668.5,-142 660.4,-140.25 652.01,-138.23 643.65,-136.07"/>
<polygon fill="midnightblue" stroke="midnightblue" points="912.25,-181.43 922.76,-180.09 913.7,-174.58 912.25,-181.43"/>
</g>
<!-- Node7&#45;&gt;Node5 -->
<g id="edge9" class="edge">
<title>Node7&#45;&gt;Node5</title>
<path fill="none" stroke="midnightblue" d="M935.02,-174.69C897.79,-159.92 855.62,-143.19 823.85,-130.58"/>
<polygon fill="midnightblue" stroke="midnightblue" points="933.78,-177.96 944.36,-178.4 936.36,-171.45 933.78,-177.96"/>
</g>
<!-- Node8 -->
<g id="node8" class="node">
<title>Node8</title>
<g id="a_node8"><a xlink:href="../../d0/df5/epsilon__u__based__wall__condition__data_8cpp.html" target="_top" xlink:title=" ">
<polygon fill="none" stroke="black" points="1136,-78.5 1136,-141.5 1333,-141.5 1333,-78.5 1136,-78.5"/>
<text text-anchor="start" x="1144" y="-129.5" font-family="Helvetica,sans-Serif" font-size="10.00">/home/runner/work/Documentation</text>
<text text-anchor="start" x="1144" y="-118.5" font-family="Helvetica,sans-Serif" font-size="10.00">/Documentation/master/applications</text>
<text text-anchor="start" x="1144" y="-107.5" font-family="Helvetica,sans-Serif" font-size="10.00">/RANSApplication/custom_conditions</text>
<text text-anchor="start" x="1144" y="-96.5" font-family="Helvetica,sans-Serif" font-size="10.00">/data_containers/k_epsilon/epsilon</text>
<text text-anchor="middle" x="1234.5" y="-85.5" font-family="Helvetica,sans-Serif" font-size="10.00">_u_based_wall_condition_data.cpp</text>
</a>
</g>
</g>
<!-- Node7&#45;&gt;Node8 -->
<g id="edge7" class="edge">
<title>Node7&#45;&gt;Node8</title>
<path fill="none" stroke="midnightblue" d="M1097.12,-174.21C1120.3,-163.54 1145.61,-151.9 1168.12,-141.54"/>
<polygon fill="midnightblue" stroke="midnightblue" points="1095.64,-171.04 1088.02,-178.4 1098.57,-177.4 1095.64,-171.04"/>
</g>
<!-- Node9&#45;&gt;Node4 -->
<g id="edge12" class="edge">
<title>Node9&#45;&gt;Node4</title>
<path fill="none" stroke="midnightblue" d="M551.18,-168.08C552.96,-157.21 554.82,-145.79 556.41,-136.05"/>
<polygon fill="midnightblue" stroke="midnightblue" points="547.68,-167.83 549.52,-178.26 554.58,-168.96 547.68,-167.83"/>
</g>
<!-- Node9&#45;&gt;Node5 -->
<g id="edge13" class="edge">
<title>Node9&#45;&gt;Node5</title>
<path fill="none" stroke="midnightblue" d="M625.91,-174.31C660.36,-159.63 699.21,-143.08 728.54,-130.58"/>
<polygon fill="midnightblue" stroke="midnightblue" points="624.16,-171.26 616.33,-178.4 626.9,-177.7 624.16,-171.26"/>
</g>
<!-- Node10 -->
<g id="node10" class="node">
<title>Node10</title>
<g id="a_node10"><a xlink:href="../../d9/d12/omega__k__based__wall__condition__data_8cpp.html" target="_top" xlink:title=" ">
<polygon fill="none" stroke="black" points="215.5,-78.5 215.5,-141.5 443.5,-141.5 443.5,-78.5 215.5,-78.5"/>
<text text-anchor="start" x="223.5" y="-129.5" font-family="Helvetica,sans-Serif" font-size="10.00">/home/runner/work/Documentation</text>
<text text-anchor="start" x="223.5" y="-118.5" font-family="Helvetica,sans-Serif" font-size="10.00">/Documentation/master/applications</text>
<text text-anchor="start" x="223.5" y="-107.5" font-family="Helvetica,sans-Serif" font-size="10.00">/RANSApplication/custom_conditions</text>
<text text-anchor="start" x="223.5" y="-96.5" font-family="Helvetica,sans-Serif" font-size="10.00">/data_containers/k_omega/omega_k_based</text>
<text text-anchor="middle" x="329.5" y="-85.5" font-family="Helvetica,sans-Serif" font-size="10.00">_wall_condition_data.cpp</text>
</a>
</g>
</g>
<!-- Node9&#45;&gt;Node10 -->
<g id="edge11" class="edge">
<title>Node9&#45;&gt;Node10</title>
<path fill="none" stroke="midnightblue" d="M468.17,-174.21C444.77,-163.54 419.22,-151.9 396.5,-141.54"/>
<polygon fill="midnightblue" stroke="midnightblue" points="466.81,-177.43 477.36,-178.4 469.71,-171.06 466.81,-177.43"/>
</g>
<!-- Node11&#45;&gt;Node4 -->
<g id="edge16" class="edge">
<title>Node11&#45;&gt;Node4</title>
<path fill="none" stroke="midnightblue" d="M709.19,-174.36C679.6,-161.75 646.74,-147.75 619.46,-136.12"/>
<polygon fill="midnightblue" stroke="midnightblue" points="708.1,-177.7 718.67,-178.4 710.84,-171.26 708.1,-177.7"/>
</g>
<!-- Node11&#45;&gt;Node5 -->
<g id="edge17" class="edge">
<title>Node11&#45;&gt;Node5</title>
<path fill="none" stroke="midnightblue" d="M783.82,-168.07C781.7,-155.07 779.45,-141.29 777.69,-130.53"/>
<polygon fill="midnightblue" stroke="midnightblue" points="780.42,-168.96 785.48,-178.26 787.32,-167.83 780.42,-168.96"/>
</g>
<!-- Node12 -->
<g id="node12" class="node">
<title>Node12</title>
<g id="a_node12"><a xlink:href="../../d1/dd6/omega__u__based__wall__condition__data_8cpp.html" target="_top" xlink:title=" ">
<polygon fill="none" stroke="black" points="889.5,-78.5 889.5,-141.5 1117.5,-141.5 1117.5,-78.5 889.5,-78.5"/>
<text text-anchor="start" x="897.5" y="-129.5" font-family="Helvetica,sans-Serif" font-size="10.00">/home/runner/work/Documentation</text>
<text text-anchor="start" x="897.5" y="-118.5" font-family="Helvetica,sans-Serif" font-size="10.00">/Documentation/master/applications</text>
<text text-anchor="start" x="897.5" y="-107.5" font-family="Helvetica,sans-Serif" font-size="10.00">/RANSApplication/custom_conditions</text>
<text text-anchor="start" x="897.5" y="-96.5" font-family="Helvetica,sans-Serif" font-size="10.00">/data_containers/k_omega/omega_u_based</text>
<text text-anchor="middle" x="1003.5" y="-85.5" font-family="Helvetica,sans-Serif" font-size="10.00">_wall_condition_data.cpp</text>
</a>
</g>
</g>
<!-- Node11&#45;&gt;Node12 -->
<g id="edge15" class="edge">
<title>Node11&#45;&gt;Node12</title>
<path fill="none" stroke="midnightblue" d="M866.12,-174.21C889.3,-163.54 914.61,-151.9 937.12,-141.54"/>
<polygon fill="midnightblue" stroke="midnightblue" points="864.64,-171.04 857.02,-178.4 867.57,-177.4 864.64,-171.04"/>
</g>
</g>
</svg>
