<?xml version="1.0" encoding="UTF-8" standalone="no"?>
<!DOCTYPE svg PUBLIC "-//W3C//DTD SVG 1.1//EN"
 "http://www.w3.org/Graphics/SVG/1.1/DTD/svg11.dtd">
<!-- Generated by graphviz version 2.43.0 (0)
 -->
<!-- Title: core.xdmf.GeometrycalObjectData Pages: 1 -->
<svg width="296pt" height="530pt"
 viewBox="0.00 0.00 296.00 530.00" xmlns="http://www.w3.org/2000/svg" xmlns:xlink="http://www.w3.org/1999/xlink">
<g id="graph0" class="graph" transform="scale(1 1) rotate(0) translate(4 526)">
<title>core.xdmf.GeometrycalObjectData</title>
<!-- Node1 -->
<g id="node1" class="node">
<title>Node1</title>
<g id="a_node1"><a xlink:title="An XDMF Attribute for element data value container data.">
<polygon fill="#bfbfbf" stroke="black" points="52,-94.5 52,-195.5 238,-195.5 238,-94.5 52,-94.5"/>
<text text-anchor="middle" x="145" y="-183.5" font-family="Helvetica,sans-Serif" font-size="10.00">core.xdmf.GeometrycalObjectData</text>
<polyline fill="none" stroke="black" points="52,-176.5 238,-176.5 "/>
<text text-anchor="start" x="60" y="-164.5" font-family="Helvetica,sans-Serif" font-size="10.00">+ data</text>
<polyline fill="none" stroke="black" points="52,-157.5 238,-157.5 "/>
<text text-anchor="start" x="60" y="-145.5" font-family="Helvetica,sans-Serif" font-size="10.00">+ name()</text>
<text text-anchor="start" x="60" y="-134.5" font-family="Helvetica,sans-Serif" font-size="10.00">+ center()</text>
<text text-anchor="start" x="60" y="-123.5" font-family="Helvetica,sans-Serif" font-size="10.00">+ attribute_type()</text>
<text text-anchor="start" x="60" y="-112.5" font-family="Helvetica,sans-Serif" font-size="10.00">+ __init__()</text>
<text text-anchor="start" x="60" y="-101.5" font-family="Helvetica,sans-Serif" font-size="10.00">+ create_xml_element()</text>
</a>
</g>
</g>
<!-- Node6 -->
<g id="node6" class="node">
<title>Node6</title>
<g id="a_node6"><a xlink:href="../../d4/d22/classcore_1_1xdmf_1_1_condition_data.html" target="_top" xlink:title=" ">
<polygon fill="none" stroke="black" points="0,-0.5 0,-57.5 138,-57.5 138,-0.5 0,-0.5"/>
<text text-anchor="middle" x="69" y="-45.5" font-family="Helvetica,sans-Serif" font-size="10.00">core.xdmf.ConditionData</text>
<polyline fill="none" stroke="black" points="0,-38.5 138,-38.5 "/>
<text text-anchor="middle" x="69" y="-26.5" font-family="Helvetica,sans-Serif" font-size="10.00"> </text>
<polyline fill="none" stroke="black" points="0,-19.5 138,-19.5 "/>
<text text-anchor="start" x="8" y="-7.5" font-family="Helvetica,sans-Serif" font-size="10.00">+ __init__()</text>
</a>
</g>
</g>
<!-- Node1&#45;&gt;Node6 -->
<g id="edge5" class="edge">
<title>Node1&#45;&gt;Node6</title>
<path fill="none" stroke="midnightblue" d="M106.15,-85.72C99.6,-75.9 93.09,-66.14 87.39,-57.59"/>
<polygon fill="none" stroke="midnightblue" points="103.43,-87.95 111.89,-94.33 109.25,-84.07 103.43,-87.95"/>
</g>
<!-- Node7 -->
<g id="node7" class="node">
<title>Node7</title>
<g id="a_node7"><a xlink:href="../../d5/da8/classcore_1_1xdmf_1_1_element_data.html" target="_top" xlink:title="An XDMF Attribute for element data value container data.">
<polygon fill="none" stroke="black" points="156,-0.5 156,-57.5 288,-57.5 288,-0.5 156,-0.5"/>
<text text-anchor="middle" x="222" y="-45.5" font-family="Helvetica,sans-Serif" font-size="10.00">core.xdmf.ElementData</text>
<polyline fill="none" stroke="black" points="156,-38.5 288,-38.5 "/>
<text text-anchor="middle" x="222" y="-26.5" font-family="Helvetica,sans-Serif" font-size="10.00"> </text>
<polyline fill="none" stroke="black" points="156,-19.5 288,-19.5 "/>
<text text-anchor="start" x="164" y="-7.5" font-family="Helvetica,sans-Serif" font-size="10.00">+ __init__()</text>
</a>
</g>
</g>
<!-- Node1&#45;&gt;Node7 -->
<g id="edge6" class="edge">
<title>Node1&#45;&gt;Node7</title>
<path fill="none" stroke="midnightblue" d="M184.16,-86.02C190.86,-76.1 197.53,-66.23 203.37,-57.59"/>
<polygon fill="none" stroke="midnightblue" points="181.25,-84.08 178.55,-94.33 187.05,-88 181.25,-84.08"/>
</g>
<!-- Node2 -->
<g id="node2" class="node">
<title>Node2</title>
<g id="a_node2"><a xlink:href="../../db/d4d/classcore_1_1xdmf_1_1_attribute.html" target="_top" xlink:title="An abc for an XDMF Attribute (e.g., nodal or gauss point results).">
<polygon fill="none" stroke="black" points="89.5,-232.5 89.5,-322.5 200.5,-322.5 200.5,-232.5 89.5,-232.5"/>
<text text-anchor="middle" x="145" y="-310.5" font-family="Helvetica,sans-Serif" font-size="10.00">core.xdmf.Attribute</text>
<polyline fill="none" stroke="black" points="89.5,-303.5 200.5,-303.5 "/>
<text text-anchor="middle" x="145" y="-291.5" font-family="Helvetica,sans-Serif" font-size="10.00"> </text>
<polyline fill="none" stroke="black" points="89.5,-284.5 200.5,-284.5 "/>
<text text-anchor="start" x="97.5" y="-272.5" font-family="Helvetica,sans-Serif" font-size="10.00">+ xml_tag()</text>
<text text-anchor="start" x="97.5" y="-261.5" font-family="Helvetica,sans-Serif" font-size="10.00">+ name()</text>
<text text-anchor="start" x="97.5" y="-250.5" font-family="Helvetica,sans-Serif" font-size="10.00">+ center()</text>
<text text-anchor="start" x="97.5" y="-239.5" font-family="Helvetica,sans-Serif" font-size="10.00">+ attribute_type()</text>
</a>
</g>
</g>
<!-- Node2&#45;&gt;Node1 -->
<g id="edge1" class="edge">
<title>Node2&#45;&gt;Node1</title>
<path fill="none" stroke="midnightblue" d="M145,-222.13C145,-213.31 145,-204.22 145,-195.52"/>
<polygon fill="none" stroke="midnightblue" points="141.5,-222.32 145,-232.32 148.5,-222.32 141.5,-222.32"/>
</g>
<!-- Node3 -->
<g id="node3" class="node">
<title>Node3</title>
<g id="a_node3"><a xlink:href="../../d7/da3/classcore_1_1xdmf_1_1_xdmf_item.html" target="_top" xlink:title="The base class for all XDMF XML elements.">
<polygon fill="none" stroke="black" points="77,-359.5 77,-427.5 213,-427.5 213,-359.5 77,-359.5"/>
<text text-anchor="middle" x="145" y="-415.5" font-family="Helvetica,sans-Serif" font-size="10.00">core.xdmf.XdmfItem</text>
<polyline fill="none" stroke="black" points="77,-408.5 213,-408.5 "/>
<text text-anchor="middle" x="145" y="-396.5" font-family="Helvetica,sans-Serif" font-size="10.00"> </text>
<polyline fill="none" stroke="black" points="77,-389.5 213,-389.5 "/>
<text text-anchor="start" x="85" y="-377.5" font-family="Helvetica,sans-Serif" font-size="10.00">+ xml_tag()</text>
<text text-anchor="start" x="85" y="-366.5" font-family="Helvetica,sans-Serif" font-size="10.00">+ create_xml_element()</text>
</a>
</g>
</g>
<!-- Node3&#45;&gt;Node2 -->
<g id="edge2" class="edge">
<title>Node3&#45;&gt;Node2</title>
<path fill="none" stroke="midnightblue" d="M145,-348.97C145,-340.35 145,-331.28 145,-322.64"/>
<polygon fill="none" stroke="midnightblue" points="141.5,-349.22 145,-359.22 148.5,-349.22 141.5,-349.22"/>
</g>
<!-- Node4 -->
<g id="node4" class="node">
<title>Node4</title>
<g id="a_node4"><a xlink:title=" ">
<polygon fill="none" stroke="#bfbfbf" points="70.5,-464.5 70.5,-521.5 137.5,-521.5 137.5,-464.5 70.5,-464.5"/>
<text text-anchor="middle" x="104" y="-509.5" font-family="Helvetica,sans-Serif" font-size="10.00">metaclass</text>
<polyline fill="none" stroke="#bfbfbf" points="70.5,-502.5 137.5,-502.5 "/>
<text text-anchor="middle" x="104" y="-490.5" font-family="Helvetica,sans-Serif" font-size="10.00"> </text>
<polyline fill="none" stroke="#bfbfbf" points="70.5,-483.5 137.5,-483.5 "/>
<text text-anchor="middle" x="104" y="-471.5" font-family="Helvetica,sans-Serif" font-size="10.00"> </text>
</a>
</g>
</g>
<!-- Node4&#45;&gt;Node3 -->
<g id="edge3" class="edge">
<title>Node4&#45;&gt;Node3</title>
<path fill="none" stroke="midnightblue" d="M119.59,-454.92C123.34,-446 127.33,-436.52 131,-427.79"/>
<polygon fill="none" stroke="midnightblue" points="116.29,-453.75 115.64,-464.32 122.74,-456.46 116.29,-453.75"/>
</g>
<!-- Node5 -->
<g id="node5" class="node">
<title>Node5</title>
<g id="a_node5"><a xlink:title=" ">
<polygon fill="none" stroke="#bfbfbf" points="156,-464.5 156,-521.5 218,-521.5 218,-464.5 156,-464.5"/>
<text text-anchor="middle" x="187" y="-509.5" font-family="Helvetica,sans-Serif" font-size="10.00">ABCMeta</text>
<polyline fill="none" stroke="#bfbfbf" points="156,-502.5 218,-502.5 "/>
<text text-anchor="middle" x="187" y="-490.5" font-family="Helvetica,sans-Serif" font-size="10.00"> </text>
<polyline fill="none" stroke="#bfbfbf" points="156,-483.5 218,-483.5 "/>
<text text-anchor="middle" x="187" y="-471.5" font-family="Helvetica,sans-Serif" font-size="10.00"> </text>
</a>
</g>
</g>
<!-- Node5&#45;&gt;Node3 -->
<g id="edge4" class="edge">
<title>Node5&#45;&gt;Node3</title>
<path fill="none" stroke="midnightblue" d="M171.03,-454.92C167.18,-446 163.1,-436.52 159.34,-427.79"/>
<polygon fill="none" stroke="midnightblue" points="167.91,-456.52 175.08,-464.32 174.33,-453.75 167.91,-456.52"/>
</g>
</g>
</svg>
