<?xml version="1.0" encoding="UTF-8" standalone="no"?>
<!DOCTYPE svg PUBLIC "-//W3C//DTD SVG 1.1//EN"
 "http://www.w3.org/Graphics/SVG/1.1/DTD/svg11.dtd">
<!-- Generated by graphviz version 2.43.0 (0)
 -->
<!-- Title: /home/runner/work/Documentation/Documentation/master/kratos/utilities/timer.cpp Pages: 1 -->
<svg width="1482pt" height="486pt"
 viewBox="0.00 0.00 1482.00 486.00" xmlns="http://www.w3.org/2000/svg" xmlns:xlink="http://www.w3.org/1999/xlink">
<g id="graph0" class="graph" transform="scale(1 1) rotate(0) translate(4 482)">
<title>/home/runner/work/Documentation/Documentation/master/kratos/utilities/timer.cpp</title>
<!-- Node1 -->
<g id="node1" class="node">
<title>Node1</title>
<g id="a_node1"><a xlink:title=" ">
<polygon fill="#bfbfbf" stroke="black" points="202.5,-436.5 202.5,-477.5 389.5,-477.5 389.5,-436.5 202.5,-436.5"/>
<text text-anchor="start" x="210.5" y="-465.5" font-family="Helvetica,sans-Serif" font-size="10.00">/home/runner/work/Documentation</text>
<text text-anchor="start" x="210.5" y="-454.5" font-family="Helvetica,sans-Serif" font-size="10.00">/Documentation/master/kratos</text>
<text text-anchor="middle" x="296" y="-443.5" font-family="Helvetica,sans-Serif" font-size="10.00">/utilities/timer.cpp</text>
</a>
</g>
</g>
<!-- Node2 -->
<g id="node2" class="node">
<title>Node2</title>
<g id="a_node2"><a xlink:title=" ">
<polygon fill="none" stroke="#bfbfbf" points="193,-380.5 193,-399.5 249,-399.5 249,-380.5 193,-380.5"/>
<text text-anchor="middle" x="221" y="-387.5" font-family="Helvetica,sans-Serif" font-size="10.00">iomanip</text>
</a>
</g>
</g>
<!-- Node1&#45;&gt;Node2 -->
<g id="edge1" class="edge">
<title>Node1&#45;&gt;Node2</title>
<path fill="none" stroke="midnightblue" d="M273.5,-436.5C262.33,-426.82 249.04,-415.3 238.62,-406.27"/>
<polygon fill="midnightblue" stroke="midnightblue" points="240.83,-403.56 230.98,-399.65 236.25,-408.85 240.83,-403.56"/>
</g>
<!-- Node3 -->
<g id="node3" class="node">
<title>Node3</title>
<g id="a_node3"><a xlink:title=" ">
<polygon fill="none" stroke="#bfbfbf" points="574,-73 574,-92 630,-92 630,-73 574,-73"/>
<text text-anchor="middle" x="602" y="-80" font-family="Helvetica,sans-Serif" font-size="10.00">sstream</text>
</a>
</g>
</g>
<!-- Node1&#45;&gt;Node3 -->
<g id="edge2" class="edge">
<title>Node1&#45;&gt;Node3</title>
<path fill="none" stroke="midnightblue" d="M314.66,-436.25C371.76,-375.72 541.52,-195.04 562,-165 575.97,-144.51 587.88,-118.42 594.98,-101.35"/>
<polygon fill="midnightblue" stroke="midnightblue" points="598.25,-102.61 598.76,-92.02 591.76,-99.98 598.25,-102.61"/>
</g>
<!-- Node4 -->
<g id="node4" class="node">
<title>Node4</title>
<g id="a_node4"><a xlink:href="../../d5/dd0/timer_8h.html" target="_top" xlink:title=" ">
<polygon fill="none" stroke="black" points="245.5,-257.5 245.5,-276.5 336.5,-276.5 336.5,-257.5 245.5,-257.5"/>
<text text-anchor="middle" x="291" y="-264.5" font-family="Helvetica,sans-Serif" font-size="10.00">utilities/timer.h</text>
</a>
</g>
</g>
<!-- Node1&#45;&gt;Node4 -->
<g id="edge3" class="edge">
<title>Node1&#45;&gt;Node4</title>
<path fill="none" stroke="midnightblue" d="M295.47,-436.24C294.51,-399.83 292.45,-322.62 291.5,-286.88"/>
<polygon fill="midnightblue" stroke="midnightblue" points="295,-286.74 291.24,-276.84 288,-286.93 295,-286.74"/>
</g>
<!-- Node22 -->
<g id="node22" class="node">
<title>Node22</title>
<g id="a_node22"><a xlink:href="../../d1/d8c/logger_8h.html" target="_top" xlink:title=" ">
<polygon fill="none" stroke="black" points="394,-380.5 394,-399.5 514,-399.5 514,-380.5 394,-380.5"/>
<text text-anchor="middle" x="454" y="-387.5" font-family="Helvetica,sans-Serif" font-size="10.00">input_output/logger.h</text>
</a>
</g>
</g>
<!-- Node1&#45;&gt;Node22 -->
<g id="edge33" class="edge">
<title>Node1&#45;&gt;Node22</title>
<path fill="none" stroke="midnightblue" d="M343.41,-436.5C369.38,-425.81 400.8,-412.89 423.51,-403.54"/>
<polygon fill="midnightblue" stroke="midnightblue" points="425.05,-406.69 432.97,-399.65 422.39,-400.22 425.05,-406.69"/>
</g>
<!-- Node5 -->
<g id="node5" class="node">
<title>Node5</title>
<g id="a_node5"><a xlink:title=" ">
<polygon fill="none" stroke="#bfbfbf" points="216,-6 216,-25 260,-25 260,-6 216,-6"/>
<text text-anchor="middle" x="238" y="-13" font-family="Helvetica,sans-Serif" font-size="10.00">string</text>
</a>
</g>
</g>
<!-- Node4&#45;&gt;Node5 -->
<g id="edge4" class="edge">
<title>Node4&#45;&gt;Node5</title>
<path fill="none" stroke="midnightblue" d="M245.3,-261.99C193.38,-256.37 113.43,-244.15 95,-221 52.36,-167.46 55.47,-122.88 95,-67 119.97,-31.7 171.75,-20.91 205.67,-17.71"/>
<polygon fill="midnightblue" stroke="midnightblue" points="206.3,-21.17 216,-16.91 205.76,-14.19 206.3,-21.17"/>
</g>
<!-- Node6 -->
<g id="node6" class="node">
<title>Node6</title>
<g id="a_node6"><a xlink:title=" ">
<polygon fill="none" stroke="#bfbfbf" points="1292,-6 1292,-25 1352,-25 1352,-6 1292,-6"/>
<text text-anchor="middle" x="1322" y="-13" font-family="Helvetica,sans-Serif" font-size="10.00">iostream</text>
</a>
</g>
</g>
<!-- Node4&#45;&gt;Node6 -->
<g id="edge5" class="edge">
<title>Node4&#45;&gt;Node6</title>
<path fill="none" stroke="midnightblue" d="M336.65,-263.38C497.81,-253.75 1039.32,-218.09 1204,-165 1262.14,-146.26 1293.08,-150.68 1324,-98 1335.23,-78.88 1331.96,-52.63 1327.74,-35.15"/>
<polygon fill="midnightblue" stroke="midnightblue" points="1331,-33.8 1324.97,-25.09 1324.25,-35.66 1331,-33.8"/>
</g>
<!-- Node7 -->
<g id="node7" class="node">
<title>Node7</title>
<g id="a_node7"><a xlink:title=" ">
<polygon fill="none" stroke="#bfbfbf" points="104.5,-201.5 104.5,-220.5 159.5,-220.5 159.5,-201.5 104.5,-201.5"/>
<text text-anchor="middle" x="132" y="-208.5" font-family="Helvetica,sans-Serif" font-size="10.00">fstream</text>
</a>
</g>
</g>
<!-- Node4&#45;&gt;Node7 -->
<g id="edge6" class="edge">
<title>Node4&#45;&gt;Node7</title>
<path fill="none" stroke="midnightblue" d="M265.81,-257.44C239.06,-248.36 196.6,-233.94 166.69,-223.78"/>
<polygon fill="midnightblue" stroke="midnightblue" points="167.67,-220.42 157.08,-220.52 165.42,-227.05 167.67,-220.42"/>
</g>
<!-- Node8 -->
<g id="node8" class="node">
<title>Node8</title>
<g id="a_node8"><a xlink:title=" ">
<polygon fill="none" stroke="#bfbfbf" points="172,-73 172,-92 210,-92 210,-73 172,-73"/>
<text text-anchor="middle" x="191" y="-80" font-family="Helvetica,sans-Serif" font-size="10.00">map</text>
</a>
</g>
</g>
<!-- Node4&#45;&gt;Node8 -->
<g id="edge7" class="edge">
<title>Node4&#45;&gt;Node8</title>
<path fill="none" stroke="midnightblue" d="M296.25,-257.4C309.21,-234.97 339.75,-173.68 313,-134 289.15,-98.62 263.31,-114.58 224,-98 222.59,-97.41 221.16,-96.8 219.71,-96.17"/>
<polygon fill="midnightblue" stroke="midnightblue" points="220.72,-92.8 210.15,-92.03 217.93,-99.22 220.72,-92.8"/>
</g>
<!-- Node9 -->
<g id="node9" class="node">
<title>Node9</title>
<g id="a_node9"><a xlink:title=" ">
<polygon fill="none" stroke="#bfbfbf" points="177.5,-201.5 177.5,-220.5 270.5,-220.5 270.5,-201.5 177.5,-201.5"/>
<text text-anchor="middle" x="224" y="-208.5" font-family="Helvetica,sans-Serif" font-size="10.00">unordered_map</text>
</a>
</g>
</g>
<!-- Node4&#45;&gt;Node9 -->
<g id="edge8" class="edge">
<title>Node4&#45;&gt;Node9</title>
<path fill="none" stroke="midnightblue" d="M280.24,-257.32C270.23,-249.26 255.11,-237.08 243.07,-227.37"/>
<polygon fill="midnightblue" stroke="midnightblue" points="244.94,-224.38 234.96,-220.83 240.55,-229.83 244.94,-224.38"/>
</g>
<!-- Node10 -->
<g id="node10" class="node">
<title>Node10</title>
<g id="a_node10"><a xlink:title=" ">
<polygon fill="none" stroke="#bfbfbf" points="104,-73 104,-92 154,-92 154,-73 104,-73"/>
<text text-anchor="middle" x="129" y="-80" font-family="Helvetica,sans-Serif" font-size="10.00">chrono</text>
</a>
</g>
</g>
<!-- Node4&#45;&gt;Node10 -->
<g id="edge9" class="edge">
<title>Node4&#45;&gt;Node10</title>
<path fill="none" stroke="midnightblue" d="M291.28,-257.32C291.32,-244.18 289.82,-218.87 279,-201 249.17,-151.73 190.52,-115.12 156.06,-96.75"/>
<polygon fill="midnightblue" stroke="midnightblue" points="157.51,-93.56 147.02,-92.05 154.28,-99.77 157.51,-93.56"/>
</g>
<!-- Node11 -->
<g id="node11" class="node">
<title>Node11</title>
<g id="a_node11"><a xlink:href="../../df/d67/define_8h.html" target="_top" xlink:title=" ">
<polygon fill="none" stroke="black" points="608.5,-201.5 608.5,-220.5 707.5,-220.5 707.5,-201.5 608.5,-201.5"/>
<text text-anchor="middle" x="658" y="-208.5" font-family="Helvetica,sans-Serif" font-size="10.00">includes/define.h</text>
</a>
</g>
</g>
<!-- Node4&#45;&gt;Node11 -->
<g id="edge10" class="edge">
<title>Node4&#45;&gt;Node11</title>
<path fill="none" stroke="midnightblue" d="M336.74,-259.27C402.9,-249.54 525.36,-231.52 598.48,-220.76"/>
<polygon fill="midnightblue" stroke="midnightblue" points="599.07,-224.21 608.46,-219.29 598.05,-217.28 599.07,-224.21"/>
</g>
<!-- Node11&#45;&gt;Node3 -->
<g id="edge12" class="edge">
<title>Node11&#45;&gt;Node3</title>
<path fill="none" stroke="midnightblue" d="M654.15,-201.31C645.08,-180.81 622.21,-129.15 609.99,-101.54"/>
<polygon fill="midnightblue" stroke="midnightblue" points="613.12,-99.98 605.88,-92.26 606.72,-102.82 613.12,-99.98"/>
</g>
<!-- Node12 -->
<g id="node12" class="node">
<title>Node12</title>
<g id="a_node12"><a xlink:title=" ">
<polygon fill="none" stroke="#bfbfbf" points="686.5,-73 686.5,-92 751.5,-92 751.5,-73 686.5,-73"/>
<text text-anchor="middle" x="719" y="-80" font-family="Helvetica,sans-Serif" font-size="10.00">stdexcept</text>
</a>
</g>
</g>
<!-- Node11&#45;&gt;Node12 -->
<g id="edge11" class="edge">
<title>Node11&#45;&gt;Node12</title>
<path fill="none" stroke="midnightblue" d="M662.19,-201.31C672.07,-180.81 696.99,-129.15 710.3,-101.54"/>
<polygon fill="midnightblue" stroke="midnightblue" points="713.59,-102.78 714.78,-92.26 707.28,-99.74 713.59,-102.78"/>
</g>
<!-- Node13 -->
<g id="node13" class="node">
<title>Node13</title>
<g id="a_node13"><a xlink:href="../../dc/d25/kratos__export__api_8h.html" target="_top" xlink:title=" ">
<polygon fill="none" stroke="black" points="489,-0.5 489,-30.5 617,-30.5 617,-0.5 489,-0.5"/>
<text text-anchor="start" x="497" y="-18.5" font-family="Helvetica,sans-Serif" font-size="10.00">includes/kratos_export</text>
<text text-anchor="middle" x="553" y="-7.5" font-family="Helvetica,sans-Serif" font-size="10.00">_api.h</text>
</a>
</g>
</g>
<!-- Node11&#45;&gt;Node13 -->
<g id="edge13" class="edge">
<title>Node11&#45;&gt;Node13</title>
<path fill="none" stroke="midnightblue" d="M659.28,-201.38C662.35,-177.68 667.81,-110.4 639,-67 630.05,-53.51 616.16,-43.14 602.14,-35.4"/>
<polygon fill="midnightblue" stroke="midnightblue" points="603.45,-32.14 592.95,-30.7 600.25,-38.37 603.45,-32.14"/>
</g>
<!-- Node14 -->
<g id="node14" class="node">
<title>Node14</title>
<g id="a_node14"><a xlink:href="../../d9/dc0/smart__pointers_8h.html" target="_top" xlink:title=" ">
<polygon fill="none" stroke="black" points="1051.5,-140 1051.5,-159 1194.5,-159 1194.5,-140 1051.5,-140"/>
<text text-anchor="middle" x="1123" y="-147" font-family="Helvetica,sans-Serif" font-size="10.00">includes/smart_pointers.h</text>
</a>
</g>
</g>
<!-- Node11&#45;&gt;Node14 -->
<g id="edge14" class="edge">
<title>Node11&#45;&gt;Node14</title>
<path fill="none" stroke="midnightblue" d="M707.76,-203.63C789,-193.24 950.64,-172.55 1046.53,-160.29"/>
<polygon fill="midnightblue" stroke="midnightblue" points="1046.98,-163.76 1056.45,-159.02 1046.09,-156.81 1046.98,-163.76"/>
</g>
<!-- Node18 -->
<g id="node18" class="node">
<title>Node18</title>
<g id="a_node18"><a xlink:href="../../dd/d2d/exception_8h.html" target="_top" xlink:title=" ">
<polygon fill="none" stroke="black" points="724.5,-140 724.5,-159 841.5,-159 841.5,-140 724.5,-140"/>
<text text-anchor="middle" x="783" y="-147" font-family="Helvetica,sans-Serif" font-size="10.00">includes/exception.h</text>
</a>
</g>
</g>
<!-- Node11&#45;&gt;Node18 -->
<g id="edge19" class="edge">
<title>Node11&#45;&gt;Node18</title>
<path fill="none" stroke="midnightblue" d="M675.91,-201.48C696.89,-191.49 731.85,-174.85 756.09,-163.31"/>
<polygon fill="midnightblue" stroke="midnightblue" points="757.6,-166.47 765.12,-159.01 754.59,-160.15 757.6,-166.47"/>
</g>
<!-- Node14&#45;&gt;Node6 -->
<g id="edge15" class="edge">
<title>Node14&#45;&gt;Node6</title>
<path fill="none" stroke="midnightblue" d="M1194.58,-145.33C1231.73,-139.94 1275.07,-127.2 1303,-98 1319.05,-81.22 1322.47,-53.62 1322.77,-35.26"/>
<polygon fill="midnightblue" stroke="midnightblue" points="1326.26,-35.15 1322.64,-25.2 1319.27,-35.24 1326.26,-35.15"/>
</g>
<!-- Node15 -->
<g id="node15" class="node">
<title>Node15</title>
<g id="a_node15"><a xlink:title=" ">
<polygon fill="none" stroke="#bfbfbf" points="1030.5,-73 1030.5,-92 1075.5,-92 1075.5,-73 1030.5,-73"/>
<text text-anchor="middle" x="1053" y="-80" font-family="Helvetica,sans-Serif" font-size="10.00">utility</text>
</a>
</g>
</g>
<!-- Node14&#45;&gt;Node15 -->
<g id="edge16" class="edge">
<title>Node14&#45;&gt;Node15</title>
<path fill="none" stroke="midnightblue" d="M1113.56,-139.73C1102.33,-129.31 1083.38,-111.71 1069.66,-98.97"/>
<polygon fill="midnightblue" stroke="midnightblue" points="1072,-96.37 1062.29,-92.13 1067.24,-101.5 1072,-96.37"/>
</g>
<!-- Node16 -->
<g id="node16" class="node">
<title>Node16</title>
<g id="a_node16"><a xlink:title=" ">
<polygon fill="none" stroke="#bfbfbf" points="1094,-73 1094,-92 1152,-92 1152,-73 1094,-73"/>
<text text-anchor="middle" x="1123" y="-80" font-family="Helvetica,sans-Serif" font-size="10.00">memory</text>
</a>
</g>
</g>
<!-- Node14&#45;&gt;Node16 -->
<g id="edge17" class="edge">
<title>Node14&#45;&gt;Node16</title>
<path fill="none" stroke="midnightblue" d="M1123,-139.73C1123,-130.18 1123,-114.62 1123,-102.28"/>
<polygon fill="midnightblue" stroke="midnightblue" points="1126.5,-102.13 1123,-92.13 1119.5,-102.13 1126.5,-102.13"/>
</g>
<!-- Node17 -->
<g id="node17" class="node">
<title>Node17</title>
<g id="a_node17"><a xlink:title=" ">
<polygon fill="none" stroke="#bfbfbf" points="1170,-67.5 1170,-97.5 1294,-97.5 1294,-67.5 1170,-67.5"/>
<text text-anchor="start" x="1178" y="-85.5" font-family="Helvetica,sans-Serif" font-size="10.00">intrusive_ptr/intrusive</text>
<text text-anchor="middle" x="1232" y="-74.5" font-family="Helvetica,sans-Serif" font-size="10.00">_ptr.hpp</text>
</a>
</g>
</g>
<!-- Node14&#45;&gt;Node17 -->
<g id="edge18" class="edge">
<title>Node14&#45;&gt;Node17</title>
<path fill="none" stroke="midnightblue" d="M1137.7,-139.73C1153.49,-130.32 1179.09,-115.05 1199.63,-102.8"/>
<polygon fill="midnightblue" stroke="midnightblue" points="1201.58,-105.72 1208.37,-97.59 1197.99,-99.7 1201.58,-105.72"/>
</g>
<!-- Node18&#45;&gt;Node3 -->
<g id="edge23" class="edge">
<title>Node18&#45;&gt;Node3</title>
<path fill="none" stroke="midnightblue" d="M758.96,-139.87C727.23,-128.47 671.21,-108.35 635.38,-95.49"/>
<polygon fill="midnightblue" stroke="midnightblue" points="636.44,-92.15 625.85,-92.06 634.08,-98.74 636.44,-92.15"/>
</g>
<!-- Node18&#45;&gt;Node5 -->
<g id="edge21" class="edge">
<title>Node18&#45;&gt;Node5</title>
<path fill="none" stroke="midnightblue" d="M724.22,-145.79C625.78,-140.5 432.34,-126.73 371,-98 352.78,-89.46 354.48,-78.54 338,-67 316.13,-51.69 288.97,-38.28 268.47,-29.13"/>
<polygon fill="midnightblue" stroke="midnightblue" points="269.85,-25.91 259.28,-25.12 267.04,-32.33 269.85,-25.91"/>
</g>
<!-- Node18&#45;&gt;Node6 -->
<g id="edge22" class="edge">
<title>Node18&#45;&gt;Node6</title>
<path fill="none" stroke="midnightblue" d="M841.74,-140.41C882.86,-133.16 938.22,-120.15 983,-98 1002.85,-88.18 1001.77,-76.01 1022,-67 1108.93,-28.27 1222.1,-19.04 1281.52,-16.97"/>
<polygon fill="midnightblue" stroke="midnightblue" points="1281.73,-20.47 1291.62,-16.67 1281.52,-13.47 1281.73,-20.47"/>
</g>
<!-- Node18&#45;&gt;Node12 -->
<g id="edge20" class="edge">
<title>Node18&#45;&gt;Node12</title>
<path fill="none" stroke="midnightblue" d="M774.37,-139.73C764.2,-129.4 747.1,-112.04 734.59,-99.33"/>
<polygon fill="midnightblue" stroke="midnightblue" points="737,-96.8 727.49,-92.13 732.02,-101.71 737,-96.8"/>
</g>
<!-- Node18&#45;&gt;Node13 -->
<g id="edge25" class="edge">
<title>Node18&#45;&gt;Node13</title>
<path fill="none" stroke="midnightblue" d="M783.34,-139.97C783.5,-123.42 781.36,-86.85 761,-67 741.92,-48.4 678.92,-34.79 627.21,-26.41"/>
<polygon fill="midnightblue" stroke="midnightblue" points="627.46,-22.91 617.03,-24.81 626.37,-29.82 627.46,-22.91"/>
</g>
<!-- Node19 -->
<g id="node19" class="node">
<title>Node19</title>
<g id="a_node19"><a xlink:title=" ">
<polygon fill="none" stroke="#bfbfbf" points="840.5,-6 840.5,-25 887.5,-25 887.5,-6 840.5,-6"/>
<text text-anchor="middle" x="864" y="-13" font-family="Helvetica,sans-Serif" font-size="10.00">vector</text>
</a>
</g>
</g>
<!-- Node18&#45;&gt;Node19 -->
<g id="edge24" class="edge">
<title>Node18&#45;&gt;Node19</title>
<path fill="none" stroke="midnightblue" d="M788.31,-139.84C801.47,-118.39 835.78,-62.49 853.33,-33.9"/>
<polygon fill="midnightblue" stroke="midnightblue" points="856.52,-35.37 858.77,-25.02 850.56,-31.71 856.52,-35.37"/>
</g>
<!-- Node20 -->
<g id="node20" class="node">
<title>Node20</title>
<g id="a_node20"><a xlink:href="../../da/da6/code__location_8h.html" target="_top" xlink:title=" ">
<polygon fill="none" stroke="black" points="380.5,-73 380.5,-92 517.5,-92 517.5,-73 380.5,-73"/>
<text text-anchor="middle" x="449" y="-80" font-family="Helvetica,sans-Serif" font-size="10.00">includes/code_location.h</text>
</a>
</g>
</g>
<!-- Node18&#45;&gt;Node20 -->
<g id="edge26" class="edge">
<title>Node18&#45;&gt;Node20</title>
<path fill="none" stroke="midnightblue" d="M738.99,-139.94C678.21,-128.11 568.64,-106.78 502.99,-94.01"/>
<polygon fill="midnightblue" stroke="midnightblue" points="503.32,-90.51 492.84,-92.03 501.99,-97.38 503.32,-90.51"/>
</g>
<!-- Node21 -->
<g id="node21" class="node">
<title>Node21</title>
<g id="a_node21"><a xlink:href="../../d9/d06/stl__vector__io_8h.html" target="_top" xlink:title=" ">
<polygon fill="none" stroke="black" points="846,-73 846,-92 974,-92 974,-73 846,-73"/>
<text text-anchor="middle" x="910" y="-80" font-family="Helvetica,sans-Serif" font-size="10.00">utilities/stl_vector_io.h</text>
</a>
</g>
</g>
<!-- Node18&#45;&gt;Node21 -->
<g id="edge30" class="edge">
<title>Node18&#45;&gt;Node21</title>
<path fill="none" stroke="midnightblue" d="M799.86,-139.87C821.4,-128.84 858.9,-109.66 884.08,-96.77"/>
<polygon fill="midnightblue" stroke="midnightblue" points="885.76,-99.84 893.07,-92.17 882.57,-93.61 885.76,-99.84"/>
</g>
<!-- Node20&#45;&gt;Node5 -->
<g id="edge27" class="edge">
<title>Node20&#45;&gt;Node5</title>
<path fill="none" stroke="midnightblue" d="M420.98,-72.87C381.81,-60.8 310.89,-38.96 269.79,-26.29"/>
<polygon fill="midnightblue" stroke="midnightblue" points="270.61,-22.88 260.03,-23.29 268.55,-29.57 270.61,-22.88"/>
</g>
<!-- Node20&#45;&gt;Node6 -->
<g id="edge28" class="edge">
<title>Node20&#45;&gt;Node6</title>
<path fill="none" stroke="midnightblue" d="M492.81,-72.93C505.42,-70.71 519.22,-68.52 532,-67 817.85,-33 1164.81,-20.83 1281.51,-17.53"/>
<polygon fill="midnightblue" stroke="midnightblue" points="1281.86,-21.02 1291.76,-17.25 1281.66,-14.02 1281.86,-21.02"/>
</g>
<!-- Node20&#45;&gt;Node13 -->
<g id="edge29" class="edge">
<title>Node20&#45;&gt;Node13</title>
<path fill="none" stroke="midnightblue" d="M463.03,-72.73C478.03,-63.36 502.3,-48.19 521.85,-35.97"/>
<polygon fill="midnightblue" stroke="midnightblue" points="523.83,-38.86 530.46,-30.59 520.12,-32.92 523.83,-38.86"/>
</g>
<!-- Node21&#45;&gt;Node6 -->
<g id="edge31" class="edge">
<title>Node21&#45;&gt;Node6</title>
<path fill="none" stroke="midnightblue" d="M954.5,-72.96C965.44,-70.93 977.13,-68.83 988,-67 1093.73,-49.19 1218.79,-31.06 1281.65,-22.15"/>
<polygon fill="midnightblue" stroke="midnightblue" points="1282.14,-25.62 1291.55,-20.75 1281.16,-18.69 1282.14,-25.62"/>
</g>
<!-- Node21&#45;&gt;Node19 -->
<g id="edge32" class="edge">
<title>Node21&#45;&gt;Node19</title>
<path fill="none" stroke="midnightblue" d="M903.8,-72.73C896.69,-62.7 884.89,-46.01 875.98,-33.42"/>
<polygon fill="midnightblue" stroke="midnightblue" points="878.74,-31.27 870.11,-25.13 873.03,-35.31 878.74,-31.27"/>
</g>
<!-- Node22&#45;&gt;Node5 -->
<g id="edge34" class="edge">
<title>Node22&#45;&gt;Node5</title>
<path fill="none" stroke="midnightblue" d="M403.68,-380.42C285.47,-358.85 0,-297.87 0,-212 0,-212 0,-212 0,-148.5 0,-107.34 11.61,-92.41 44,-67 91.61,-29.65 164.03,-19.74 205.61,-17.23"/>
<polygon fill="midnightblue" stroke="midnightblue" points="205.91,-20.72 215.73,-16.72 205.56,-13.72 205.91,-20.72"/>
</g>
<!-- Node22&#45;&gt;Node6 -->
<g id="edge35" class="edge">
<title>Node22&#45;&gt;Node6</title>
<path fill="none" stroke="midnightblue" d="M514.37,-388.22C733.49,-384.62 1474,-365.24 1474,-268 1474,-268 1474,-268 1474,-148.5 1474,-86.63 1401.33,-47.21 1356.48,-28.78"/>
<polygon fill="midnightblue" stroke="midnightblue" points="1357.69,-25.49 1347.1,-25.06 1355.11,-31.99 1357.69,-25.49"/>
</g>
<!-- Node22&#45;&gt;Node18 -->
<g id="edge55" class="edge">
<title>Node22&#45;&gt;Node18</title>
<path fill="none" stroke="midnightblue" d="M478.97,-380.5C501.54,-372.39 535.38,-359.2 563,-344 639.75,-301.78 655.27,-283.15 717,-221 734.97,-202.9 754.9,-181.41 768.1,-166.96"/>
<polygon fill="midnightblue" stroke="midnightblue" points="770.89,-169.09 775.03,-159.34 765.72,-164.38 770.89,-169.09"/>
</g>
<!-- Node23 -->
<g id="node23" class="node">
<title>Node23</title>
<g id="a_node23"><a xlink:href="../../df/d27/logger__message_8h.html" target="_top" xlink:title=" ">
<polygon fill="none" stroke="black" points="441,-134.5 441,-164.5 553,-164.5 553,-134.5 441,-134.5"/>
<text text-anchor="start" x="449" y="-152.5" font-family="Helvetica,sans-Serif" font-size="10.00">input_output/logger</text>
<text text-anchor="middle" x="497" y="-141.5" font-family="Helvetica,sans-Serif" font-size="10.00">_message.h</text>
</a>
</g>
</g>
<!-- Node22&#45;&gt;Node23 -->
<g id="edge36" class="edge">
<title>Node22&#45;&gt;Node23</title>
<path fill="none" stroke="midnightblue" d="M448.62,-380.44C443.44,-371.68 435.99,-357.47 433,-344 430.02,-330.55 430.43,-326.54 433,-313 442.85,-261.12 468.92,-204.62 484.58,-173.8"/>
<polygon fill="midnightblue" stroke="midnightblue" points="487.78,-175.23 489.26,-164.73 481.56,-172.01 487.78,-175.23"/>
</g>
<!-- Node24 -->
<g id="node24" class="node">
<title>Node24</title>
<g id="a_node24"><a xlink:href="../../da/d8c/logger__output_8h.html" target="_top" xlink:title=" ">
<polygon fill="none" stroke="black" points="442,-313.5 442,-343.5 554,-343.5 554,-313.5 442,-313.5"/>
<text text-anchor="start" x="450" y="-331.5" font-family="Helvetica,sans-Serif" font-size="10.00">input_output/logger</text>
<text text-anchor="middle" x="498" y="-320.5" font-family="Helvetica,sans-Serif" font-size="10.00">_output.h</text>
</a>
</g>
</g>
<!-- Node22&#45;&gt;Node24 -->
<g id="edge45" class="edge">
<title>Node22&#45;&gt;Node24</title>
<path fill="none" stroke="midnightblue" d="M460.3,-380.48C465.87,-372.94 474.24,-361.63 481.68,-351.57"/>
<polygon fill="midnightblue" stroke="midnightblue" points="484.5,-353.64 487.63,-343.52 478.87,-349.48 484.5,-353.64"/>
</g>
<!-- Node23&#45;&gt;Node3 -->
<g id="edge38" class="edge">
<title>Node23&#45;&gt;Node3</title>
<path fill="none" stroke="midnightblue" d="M519.78,-134.4C537.55,-123.39 562.1,-108.2 579.74,-97.28"/>
<polygon fill="midnightblue" stroke="midnightblue" points="581.6,-100.25 588.26,-92.01 577.91,-94.29 581.6,-100.25"/>
</g>
<!-- Node23&#45;&gt;Node5 -->
<g id="edge37" class="edge">
<title>Node23&#45;&gt;Node5</title>
<path fill="none" stroke="midnightblue" d="M451.18,-134.42C424.27,-125.43 389.96,-112.72 361,-98 322.12,-78.23 280.56,-48.71 257.07,-31.15"/>
<polygon fill="midnightblue" stroke="midnightblue" points="259.09,-28.29 249,-25.05 254.87,-33.88 259.09,-28.29"/>
</g>
<!-- Node23&#45;&gt;Node6 -->
<g id="edge39" class="edge">
<title>Node23&#45;&gt;Node6</title>
<path fill="none" stroke="midnightblue" d="M504.13,-134.24C514.55,-115.1 535.94,-81.8 565,-67 597.17,-50.62 1129.44,-25.26 1281.64,-18.31"/>
<polygon fill="midnightblue" stroke="midnightblue" points="1282.1,-21.79 1291.93,-17.84 1281.78,-14.8 1282.1,-21.79"/>
</g>
<!-- Node23&#45;&gt;Node8 -->
<g id="edge40" class="edge">
<title>Node23&#45;&gt;Node8</title>
<path fill="none" stroke="midnightblue" d="M440.87,-136.58C375.64,-122.72 270.48,-100.38 219.94,-89.65"/>
<polygon fill="midnightblue" stroke="midnightblue" points="220.53,-86.2 210.02,-87.54 219.08,-93.04 220.53,-86.2"/>
</g>
<!-- Node23&#45;&gt;Node10 -->
<g id="edge41" class="edge">
<title>Node23&#45;&gt;Node10</title>
<path fill="none" stroke="midnightblue" d="M440.83,-144.37C373.7,-138.44 258.48,-125.1 163,-98 160.71,-97.35 158.37,-96.58 156.04,-95.75"/>
<polygon fill="midnightblue" stroke="midnightblue" points="157.28,-92.47 146.69,-92.05 154.7,-98.98 157.28,-92.47"/>
</g>
<!-- Node23&#45;&gt;Node13 -->
<g id="edge42" class="edge">
<title>Node23&#45;&gt;Node13</title>
<path fill="none" stroke="midnightblue" d="M440.94,-135.08C396.92,-121.79 346.8,-98.83 371,-67 384.42,-49.35 434.48,-36.25 478.7,-27.82"/>
<polygon fill="midnightblue" stroke="midnightblue" points="479.42,-31.25 488.62,-25.99 478.15,-24.36 479.42,-31.25"/>
</g>
<!-- Node23&#45;&gt;Node20 -->
<g id="edge43" class="edge">
<title>Node23&#45;&gt;Node20</title>
<path fill="none" stroke="midnightblue" d="M486.58,-134.4C479.17,-124.36 469.19,-110.84 461.37,-100.25"/>
<polygon fill="midnightblue" stroke="midnightblue" points="464.18,-98.16 455.42,-92.19 458.55,-102.32 464.18,-98.16"/>
</g>
<!-- Node23&#45;&gt;Node21 -->
<g id="edge44" class="edge">
<title>Node23&#45;&gt;Node21</title>
<path fill="none" stroke="midnightblue" d="M553.13,-139.67C629.48,-127.65 765.74,-106.2 845.98,-93.58"/>
<polygon fill="midnightblue" stroke="midnightblue" points="846.63,-97.02 855.96,-92 845.54,-90.1 846.63,-97.02"/>
</g>
<!-- Node24&#45;&gt;Node5 -->
<g id="edge46" class="edge">
<title>Node24&#45;&gt;Node5</title>
<path fill="none" stroke="midnightblue" d="M441.59,-319.25C318.76,-300.51 38,-253.17 38,-212 38,-212 38,-212 38,-148.5 38,-109.08 43.65,-93.32 73,-67 110.35,-33.5 169.44,-22.22 205.85,-18.42"/>
<polygon fill="midnightblue" stroke="midnightblue" points="206.28,-21.9 215.92,-17.5 205.65,-14.93 206.28,-21.9"/>
</g>
<!-- Node24&#45;&gt;Node6 -->
<g id="edge47" class="edge">
<title>Node24&#45;&gt;Node6</title>
<path fill="none" stroke="midnightblue" d="M554.21,-326.52C756.58,-322.28 1436,-301.37 1436,-212 1436,-212 1436,-212 1436,-148.5 1436,-94.25 1380.17,-51.28 1346.65,-30.38"/>
<polygon fill="midnightblue" stroke="midnightblue" points="1348.22,-27.24 1337.85,-25.07 1344.61,-33.23 1348.22,-27.24"/>
</g>
<!-- Node24&#45;&gt;Node8 -->
<g id="edge48" class="edge">
<title>Node24&#45;&gt;Node8</title>
<path fill="none" stroke="midnightblue" d="M489.75,-313.27C468.44,-277.74 407.93,-184.37 333,-134 290.66,-105.54 271.63,-116.28 224,-98 222.39,-97.38 220.75,-96.73 219.1,-96.06"/>
<polygon fill="midnightblue" stroke="midnightblue" points="220.29,-92.76 209.72,-92.09 217.57,-99.21 220.29,-92.76"/>
</g>
<!-- Node24&#45;&gt;Node11 -->
<g id="edge49" class="edge">
<title>Node24&#45;&gt;Node11</title>
<path fill="none" stroke="midnightblue" d="M554.17,-319.78C583.12,-313.05 616.89,-300.47 639,-277 650.71,-264.58 655.24,-245.34 656.98,-231.01"/>
<polygon fill="midnightblue" stroke="midnightblue" points="660.49,-231.06 657.86,-220.8 653.52,-230.46 660.49,-231.06"/>
</g>
<!-- Node24&#45;&gt;Node23 -->
<g id="edge50" class="edge">
<title>Node24&#45;&gt;Node23</title>
<path fill="none" stroke="midnightblue" d="M497.92,-313.31C497.75,-283.15 497.35,-212.34 497.14,-174.82"/>
<polygon fill="midnightblue" stroke="midnightblue" points="500.64,-174.73 497.08,-164.75 493.64,-174.77 500.64,-174.73"/>
</g>
<!-- Node25 -->
<g id="node25" class="node">
<title>Node25</title>
<g id="a_node25"><a xlink:href="../../d9/da0/flags_8h.html" target="_top" xlink:title=" ">
<polygon fill="none" stroke="black" points="526.5,-257.5 526.5,-276.5 629.5,-276.5 629.5,-257.5 526.5,-257.5"/>
<text text-anchor="middle" x="578" y="-264.5" font-family="Helvetica,sans-Serif" font-size="10.00">containers/flags.h</text>
</a>
</g>
</g>
<!-- Node24&#45;&gt;Node25 -->
<g id="edge51" class="edge">
<title>Node24&#45;&gt;Node25</title>
<path fill="none" stroke="midnightblue" d="M516.96,-313.4C529.42,-304.13 545.7,-292.03 558.31,-282.65"/>
<polygon fill="midnightblue" stroke="midnightblue" points="560.42,-285.43 566.36,-276.66 556.25,-279.82 560.42,-285.43"/>
</g>
<!-- Node25&#45;&gt;Node5 -->
<g id="edge52" class="edge">
<title>Node25&#45;&gt;Node5</title>
<path fill="none" stroke="midnightblue" d="M564.27,-257.19C530.78,-235.75 442.12,-179.29 367,-134 339.71,-117.55 329.28,-118.63 305,-98 282.51,-78.88 261.78,-51.54 249.51,-33.9"/>
<polygon fill="midnightblue" stroke="midnightblue" points="252.12,-31.52 243.61,-25.21 246.34,-35.45 252.12,-31.52"/>
</g>
<!-- Node25&#45;&gt;Node6 -->
<g id="edge53" class="edge">
<title>Node25&#45;&gt;Node6</title>
<path fill="none" stroke="midnightblue" d="M629.68,-266.22C791.36,-266.46 1280.11,-263.62 1336,-221 1392.06,-178.25 1401.45,-131.93 1374,-67 1367.91,-52.59 1355.47,-40.27 1344.29,-31.4"/>
<polygon fill="midnightblue" stroke="midnightblue" points="1346.22,-28.48 1336.11,-25.32 1342.04,-34.09 1346.22,-28.48"/>
</g>
<!-- Node25&#45;&gt;Node11 -->
<g id="edge54" class="edge">
<title>Node25&#45;&gt;Node11</title>
<path fill="none" stroke="midnightblue" d="M590.85,-257.32C603.22,-248.98 622.13,-236.21 636.74,-226.35"/>
<polygon fill="midnightblue" stroke="midnightblue" points="638.85,-229.15 645.18,-220.65 634.93,-223.35 638.85,-229.15"/>
</g>
</g>
</svg>
