<?xml version="1.0" encoding="UTF-8" standalone="no"?>
<!DOCTYPE svg PUBLIC "-//W3C//DTD SVG 1.1//EN"
 "http://www.w3.org/Graphics/SVG/1.1/DTD/svg11.dtd">
<!-- Generated by graphviz version 2.43.0 (0)
 -->
<!-- Title: core.operations.model_part.ConditionDataValueOutput Pages: 1 -->
<svg width="182pt" height="469pt"
 viewBox="0.00 0.00 182.00 469.00" xmlns="http://www.w3.org/2000/svg" xmlns:xlink="http://www.w3.org/1999/xlink">
<g id="graph0" class="graph" transform="scale(1 1) rotate(0) translate(4 465)">
<title>core.operations.model_part.ConditionDataValueOutput</title>
<!-- Node1 -->
<g id="node1" class="node">
<title>Node1</title>
<g id="a_node1"><a xlink:title="Writes non&#45;historical element data values to a file.">
<polygon fill="#bfbfbf" stroke="black" points="0,-0.5 0,-68.5 174,-68.5 174,-0.5 0,-0.5"/>
<text text-anchor="start" x="8" y="-56.5" font-family="Helvetica,sans-Serif" font-size="10.00">core.operations.model</text>
<text text-anchor="middle" x="87" y="-45.5" font-family="Helvetica,sans-Serif" font-size="10.00">_part.ConditionDataValueOutput</text>
<polyline fill="none" stroke="black" points="0,-38.5 174,-38.5 "/>
<text text-anchor="middle" x="87" y="-26.5" font-family="Helvetica,sans-Serif" font-size="10.00"> </text>
<polyline fill="none" stroke="black" points="0,-19.5 174,-19.5 "/>
<text text-anchor="start" x="8" y="-7.5" font-family="Helvetica,sans-Serif" font-size="10.00">+ Execute()</text>
</a>
</g>
</g>
<!-- Node2 -->
<g id="node2" class="node">
<title>Node2</title>
<g id="a_node2"><a xlink:href="../../db/dd8/classcore_1_1operations_1_1model__part_1_1_variable_i_o_operation.html" target="_top" xlink:title="Generates json settings for variable data IO.">
<polygon fill="none" stroke="black" points="15,-105.5 15,-184.5 159,-184.5 159,-105.5 15,-105.5"/>
<text text-anchor="start" x="23" y="-172.5" font-family="Helvetica,sans-Serif" font-size="10.00">core.operations.model</text>
<text text-anchor="middle" x="87" y="-161.5" font-family="Helvetica,sans-Serif" font-size="10.00">_part.VariableIOOperation</text>
<polyline fill="none" stroke="black" points="15,-154.5 159,-154.5 "/>
<text text-anchor="middle" x="87" y="-142.5" font-family="Helvetica,sans-Serif" font-size="10.00"> </text>
<polyline fill="none" stroke="black" points="15,-135.5 159,-135.5 "/>
<text text-anchor="start" x="23" y="-123.5" font-family="Helvetica,sans-Serif" font-size="10.00">+ __init__()</text>
<text text-anchor="start" x="23" y="-112.5" font-family="Helvetica,sans-Serif" font-size="10.00">+ GetDefaultParameters()</text>
</a>
</g>
</g>
<!-- Node2&#45;&gt;Node1 -->
<g id="edge1" class="edge">
<title>Node2&#45;&gt;Node1</title>
<path fill="none" stroke="midnightblue" d="M87,-95.35C87,-86.28 87,-77 87,-68.54"/>
<polygon fill="none" stroke="midnightblue" points="83.5,-95.44 87,-105.44 90.5,-95.44 83.5,-95.44"/>
</g>
<!-- Node3 -->
<g id="node3" class="node">
<title>Node3</title>
<g id="a_node3"><a xlink:href="../../de/dde/classcore_1_1operations_1_1model__part_1_1_i_o_operation.html" target="_top" xlink:title="Base class for HDF5 IO operations.">
<polygon fill="none" stroke="black" points="15,-221.5 15,-366.5 159,-366.5 159,-221.5 15,-221.5"/>
<text text-anchor="start" x="23" y="-354.5" font-family="Helvetica,sans-Serif" font-size="10.00">core.operations.model</text>
<text text-anchor="middle" x="87" y="-343.5" font-family="Helvetica,sans-Serif" font-size="10.00">_part.IOOperation</text>
<polyline fill="none" stroke="black" points="15,-336.5 159,-336.5 "/>
<text text-anchor="middle" x="87" y="-324.5" font-family="Helvetica,sans-Serif" font-size="10.00"> </text>
<polyline fill="none" stroke="black" points="15,-317.5 159,-317.5 "/>
<text text-anchor="start" x="23" y="-305.5" font-family="Helvetica,sans-Serif" font-size="10.00">+ __init__()</text>
<text text-anchor="start" x="23" y="-294.5" font-family="Helvetica,sans-Serif" font-size="10.00">+ Execute()</text>
<text text-anchor="start" x="23" y="-283.5" font-family="Helvetica,sans-Serif" font-size="10.00">+ GetDefaultParameters()</text>
<text text-anchor="start" x="23" y="-272.5" font-family="Helvetica,sans-Serif" font-size="10.00">+ model_part()</text>
<text text-anchor="start" x="23" y="-261.5" font-family="Helvetica,sans-Serif" font-size="10.00">+ parameters()</text>
<text text-anchor="start" x="23" y="-250.5" font-family="Helvetica,sans-Serif" font-size="10.00">+ file()</text>
<text text-anchor="start" x="23" y="-239.5" font-family="Helvetica,sans-Serif" font-size="10.00">+ time_format()</text>
<text text-anchor="start" x="23" y="-228.5" font-family="Helvetica,sans-Serif" font-size="10.00">+ prefix()</text>
</a>
</g>
</g>
<!-- Node3&#45;&gt;Node2 -->
<g id="edge2" class="edge">
<title>Node3&#45;&gt;Node2</title>
<path fill="none" stroke="midnightblue" d="M87,-210.95C87,-201.9 87,-193.02 87,-184.87"/>
<polygon fill="none" stroke="midnightblue" points="83.5,-211.22 87,-221.22 90.5,-211.22 83.5,-211.22"/>
</g>
<!-- Node4 -->
<g id="node4" class="node">
<title>Node4</title>
<g id="a_node4"><a xlink:title=" ">
<polygon fill="none" stroke="#bfbfbf" points="6.5,-403.5 6.5,-460.5 167.5,-460.5 167.5,-403.5 6.5,-403.5"/>
<text text-anchor="middle" x="87" y="-448.5" font-family="Helvetica,sans-Serif" font-size="10.00">KratosMultiphysics.Operation</text>
<polyline fill="none" stroke="#bfbfbf" points="6.5,-441.5 167.5,-441.5 "/>
<text text-anchor="middle" x="87" y="-429.5" font-family="Helvetica,sans-Serif" font-size="10.00"> </text>
<polyline fill="none" stroke="#bfbfbf" points="6.5,-422.5 167.5,-422.5 "/>
<text text-anchor="middle" x="87" y="-410.5" font-family="Helvetica,sans-Serif" font-size="10.00"> </text>
</a>
</g>
</g>
<!-- Node4&#45;&gt;Node3 -->
<g id="edge3" class="edge">
<title>Node4&#45;&gt;Node3</title>
<path fill="none" stroke="midnightblue" d="M87,-393.36C87,-385 87,-375.87 87,-366.66"/>
<polygon fill="none" stroke="midnightblue" points="83.5,-393.48 87,-403.48 90.5,-393.48 83.5,-393.48"/>
</g>
</g>
</svg>
