<?xml version="1.0" encoding="UTF-8" standalone="no"?>
<!DOCTYPE svg PUBLIC "-//W3C//DTD SVG 1.1//EN"
 "http://www.w3.org/Graphics/SVG/1.1/DTD/svg11.dtd">
<!-- Generated by graphviz version 2.43.0 (0)
 -->
<!-- Title: ApplicationNameApplication Pages: 1 -->
<svg width="502pt" height="64pt"
 viewBox="0.00 0.00 502.00 64.00" xmlns="http://www.w3.org/2000/svg" xmlns:xlink="http://www.w3.org/1999/xlink">
<g id="graph0" class="graph" transform="scale(1 1) rotate(0) translate(4 60)">
<title>ApplicationNameApplication</title>
<!-- Node3 -->
<g id="node1" class="node">
<title>Node3</title>
<g id="a_node1"><a xlink:href="../../d8/d46/group___structural_mechanics_application.html" target="_top" xlink:title=" ">
<polygon fill="none" stroke="black" points="494,-56 324,-56 324,-37 494,-37 494,-56"/>
<text text-anchor="middle" x="409" y="-44" font-family="Helvetica,sans-Serif" font-size="10.00">StructuralMechanicsApplication</text>
</a>
</g>
</g>
<!-- Node1 -->
<g id="node2" class="node">
<title>Node1</title>
<g id="a_node2"><a xlink:title=" ">
<polygon fill="#bfbfbf" stroke="black" points="155,-37 0,-37 0,-18 155,-18 155,-37"/>
<text text-anchor="middle" x="77.5" y="-25" font-family="Helvetica,sans-Serif" font-size="10.00">ApplicationNameApplication</text>
</a>
</g>
</g>
<!-- Node1&#45;&gt;Node3 -->
<g id="edge2" class="edge">
<title>Node1&#45;&gt;Node3</title>
<path fill="none" stroke="orange" stroke-dasharray="5,2" d="M155.34,-31.93C205.83,-34.84 271.89,-38.65 323.81,-41.65"/>
<text text-anchor="middle" x="239.5" y="-42.5" font-family="Helvetica,sans-Serif" font-size="10.00">Kratos::SimoJuYieldSurface</text>
</g>
<!-- Node2 -->
<g id="node3" class="node">
<title>Node2</title>
<g id="a_node3"><a xlink:href="../../d5/d4d/group___kratos_core.html" target="_top" xlink:title="The Kratos core comprises a basic set of classes used by all applications.">
<polygon fill="none" stroke="black" points="446,-19 372,-19 372,0 446,0 446,-19"/>
<text text-anchor="middle" x="409" y="-7" font-family="Helvetica,sans-Serif" font-size="10.00">Kratos Core</text>
</a>
</g>
</g>
<!-- Node1&#45;&gt;Node2 -->
<g id="edge1" class="edge">
<title>Node1&#45;&gt;Node2</title>
<path fill="none" stroke="orange" stroke-dasharray="5,2" d="M134.58,-17.97C147.18,-16.16 160.52,-14.53 173,-13.5 243.15,-7.73 325.46,-7.92 371.7,-8.66"/>
<text text-anchor="middle" x="239.5" y="-16.5" font-family="Helvetica,sans-Serif" font-size="10.00">Kratos::ParticlesUtilities</text>
</g>
</g>
</svg>
