<?xml version="1.0" encoding="UTF-8" standalone="no"?>
<!DOCTYPE svg PUBLIC "-//W3C//DTD SVG 1.1//EN"
 "http://www.w3.org/Graphics/SVG/1.1/DTD/svg11.dtd">
<!-- Generated by graphviz version 2.43.0 (0)
 -->
<!-- Title: impose_temperature_by_device_process.ImposeTemperaturebyDeviceProcess Pages: 1 -->
<svg width="235pt" height="204pt"
 viewBox="0.00 0.00 235.00 204.00" xmlns="http://www.w3.org/2000/svg" xmlns:xlink="http://www.w3.org/1999/xlink">
<g id="graph0" class="graph" transform="scale(1 1) rotate(0) translate(4 200)">
<title>impose_temperature_by_device_process.ImposeTemperaturebyDeviceProcess</title>
<!-- Node1 -->
<g id="node1" class="node">
<title>Node1</title>
<g id="a_node1"><a xlink:title=" ">
<polygon fill="#bfbfbf" stroke="black" points="0,-0.5 0,-101.5 227,-101.5 227,-0.5 0,-0.5"/>
<text text-anchor="start" x="8" y="-89.5" font-family="Helvetica,sans-Serif" font-size="10.00">impose_temperature</text>
<text text-anchor="start" x="8" y="-78.5" font-family="Helvetica,sans-Serif" font-size="10.00">_by_device_process.ImposeTemperatureby</text>
<text text-anchor="middle" x="113.5" y="-67.5" font-family="Helvetica,sans-Serif" font-size="10.00">DeviceProcess</text>
<polyline fill="none" stroke="black" points="0,-60.5 227,-60.5 "/>
<text text-anchor="start" x="8" y="-48.5" font-family="Helvetica,sans-Serif" font-size="10.00">+ process</text>
<polyline fill="none" stroke="black" points="0,-41.5 227,-41.5 "/>
<text text-anchor="start" x="8" y="-29.5" font-family="Helvetica,sans-Serif" font-size="10.00">+ __init__()</text>
<text text-anchor="start" x="8" y="-18.5" font-family="Helvetica,sans-Serif" font-size="10.00">+ ExecuteInitializeSolution</text>
<text text-anchor="start" x="8" y="-7.5" font-family="Helvetica,sans-Serif" font-size="10.00">Step()</text>
</a>
</g>
</g>
<!-- Node2 -->
<g id="node2" class="node">
<title>Node2</title>
<g id="a_node2"><a xlink:title=" ">
<polygon fill="none" stroke="#bfbfbf" points="38.5,-138.5 38.5,-195.5 188.5,-195.5 188.5,-138.5 38.5,-138.5"/>
<text text-anchor="middle" x="113.5" y="-183.5" font-family="Helvetica,sans-Serif" font-size="10.00">KratosMultiphysics.Process</text>
<polyline fill="none" stroke="#bfbfbf" points="38.5,-176.5 188.5,-176.5 "/>
<text text-anchor="middle" x="113.5" y="-164.5" font-family="Helvetica,sans-Serif" font-size="10.00"> </text>
<polyline fill="none" stroke="#bfbfbf" points="38.5,-157.5 188.5,-157.5 "/>
<text text-anchor="middle" x="113.5" y="-145.5" font-family="Helvetica,sans-Serif" font-size="10.00"> </text>
</a>
</g>
</g>
<!-- Node2&#45;&gt;Node1 -->
<g id="edge1" class="edge">
<title>Node2&#45;&gt;Node1</title>
<path fill="none" stroke="midnightblue" d="M113.5,-128.35C113.5,-119.8 113.5,-110.58 113.5,-101.61"/>
<polygon fill="none" stroke="midnightblue" points="110,-128.4 113.5,-138.4 117,-128.4 110,-128.4"/>
</g>
</g>
</svg>
