<?xml version="1.0" encoding="UTF-8" standalone="no"?>
<!DOCTYPE svg PUBLIC "-//W3C//DTD SVG 1.1//EN"
 "http://www.w3.org/Graphics/SVG/1.1/DTD/svg11.dtd">
<!-- Generated by graphviz version 2.43.0 (0)
 -->
<!-- Title: /home/runner/work/Documentation/Documentation/master/kratos/containers/vector_map.h Pages: 1 -->
<!--zoomable 374 -->
<svg id="main" version="1.1" xmlns="http://www.w3.org/2000/svg" xmlns:xlink="http://www.w3.org/1999/xlink" xml:space="preserve" onload="init(evt)">
<style type="text/css"><![CDATA[
.edge:hover path { stroke: red; }
.edge:hover polygon { stroke: red; fill: red; }
]]></style>
<script type="text/javascript"><![CDATA[
var edges = document.getElementsByTagName('g');
if (edges && edges.length) {
  for (var i=0;i<edges.length;i++) {
    if (edges[i].id.substr(0,4)=='edge') {
      edges[i].setAttribute('class','edge');
    }
  }
}
]]></script>
        <defs>
                <circle id="rim" cx="0" cy="0" r="7"/>
                <circle id="rim2" cx="0" cy="0" r="3.5"/>
                <g id="zoomPlus">
                        <use xlink:href="#rim" fill="#404040">
                                <set attributeName="fill" to="#808080" begin="zoomplus.mouseover" end="zoomplus.mouseout"/>
                        </use>
                        <path d="M-4,0h8M0,-4v8" fill="none" stroke="white" stroke-width="1.5" pointer-events="none"/>
                </g>
                <g id="zoomMin">
                        <use xlink:href="#rim" fill="#404040">
                                <set attributeName="fill" to="#808080" begin="zoomminus.mouseover" end="zoomminus.mouseout"/>
                        </use>
                        <path d="M-4,0h8" fill="none" stroke="white" stroke-width="1.5" pointer-events="none"/>
                </g>
                <g id="dirArrow">
                        <path fill="none" stroke="white" stroke-width="1.5" d="M0,-3.0v7 M-2.5,-0.5L0,-3.0L2.5,-0.5"/>
                </g>
               <g id="resetDef">
                       <use xlink:href="#rim2" fill="#404040">
                               <set attributeName="fill" to="#808080" begin="reset.mouseover" end="reset.mouseout"/>
                       </use>
               </g>
        </defs>

<script type="text/javascript">
var viewWidth = 1295;
var viewHeight = 374;
var sectionId = 'dynsection-0';
</script>
<script xlink:href="../../svgpan.js"/>
<svg id="graph" class="graph">
<g id="viewport">
<title>/home/runner/work/Documentation/Documentation/master/kratos/containers/vector_map.h</title>
<!-- Node1 -->
<g id="node1" class="node">
<title>Node1</title>
<g id="a_node1"><a xlink:title=" ">
<polygon fill="#bfbfbf" stroke="black" points="435.5,-324.5 435.5,-365.5 622.5,-365.5 622.5,-324.5 435.5,-324.5"/>
<text text-anchor="start" x="443.5" y="-353.5" font-family="Helvetica,sans-Serif" font-size="10.00">/home/runner/work/Documentation</text>
<text text-anchor="start" x="443.5" y="-342.5" font-family="Helvetica,sans-Serif" font-size="10.00">/Documentation/master/kratos</text>
<text text-anchor="middle" x="529" y="-331.5" font-family="Helvetica,sans-Serif" font-size="10.00">/containers/vector_map.h</text>
</a>
</g>
</g>
<!-- Node2 -->
<g id="node2" class="node">
<title>Node2</title>
<g id="a_node2"><a xlink:title=" ">
<polygon fill="none" stroke="#bfbfbf" points="938.5,-6 938.5,-25 985.5,-25 985.5,-6 938.5,-6"/>
<text text-anchor="middle" x="962" y="-13" font-family="Helvetica,sans-Serif" font-size="10.00">vector</text>
</a>
</g>
</g>
<!-- Node1&#45;&gt;Node2 -->
<g id="edge1" class="edge">
<title>Node1&#45;&gt;Node2</title>
<path fill="none" stroke="midnightblue" d="M622.64,-341.5C789.74,-334.47 1122,-307.76 1122,-206.5 1122,-206.5 1122,-206.5 1122,-143 1122,-104.83 1110.13,-92.8 1082,-67 1057.59,-44.61 1021.8,-31.3 995.66,-24.02"/>
<polygon fill="midnightblue" stroke="midnightblue" points="996.38,-20.59 985.81,-21.43 994.6,-27.36 996.38,-20.59"/>
</g>
<!-- Node3 -->
<g id="node3" class="node">
<title>Node3</title>
<g id="a_node3"><a xlink:title=" ">
<polygon fill="none" stroke="#bfbfbf" points="1150.5,-263 1150.5,-282 1215.5,-282 1215.5,-263 1150.5,-263"/>
<text text-anchor="middle" x="1183" y="-270" font-family="Helvetica,sans-Serif" font-size="10.00">functional</text>
</a>
</g>
</g>
<!-- Node1&#45;&gt;Node3 -->
<g id="edge2" class="edge">
<title>Node1&#45;&gt;Node3</title>
<path fill="none" stroke="midnightblue" d="M622.67,-341.37C742.65,-336.63 956.54,-323.56 1136,-288 1140.15,-287.18 1144.45,-286.13 1148.69,-284.98"/>
<polygon fill="midnightblue" stroke="midnightblue" points="1149.75,-288.32 1158.37,-282.15 1147.79,-281.6 1149.75,-288.32"/>
</g>
<!-- Node4 -->
<g id="node4" class="node">
<title>Node4</title>
<g id="a_node4"><a xlink:title=" ">
<polygon fill="none" stroke="#bfbfbf" points="273,-6 273,-25 317,-25 317,-6 273,-6"/>
<text text-anchor="middle" x="295" y="-13" font-family="Helvetica,sans-Serif" font-size="10.00">string</text>
</a>
</g>
</g>
<!-- Node1&#45;&gt;Node4 -->
<g id="edge3" class="edge">
<title>Node1&#45;&gt;Node4</title>
<path fill="none" stroke="midnightblue" d="M435.29,-339.92C321.4,-333.68 136.89,-319.05 76,-288 31.88,-265.5 0,-256.03 0,-206.5 0,-206.5 0,-206.5 0,-143 0,-29.64 186.29,-16.56 262.79,-15.97"/>
<polygon fill="midnightblue" stroke="midnightblue" points="262.83,-19.47 272.83,-15.96 262.82,-12.47 262.83,-19.47"/>
</g>
<!-- Node5 -->
<g id="node5" class="node">
<title>Node5</title>
<g id="a_node5"><a xlink:title=" ">
<polygon fill="none" stroke="#bfbfbf" points="479,-6 479,-25 539,-25 539,-6 479,-6"/>
<text text-anchor="middle" x="509" y="-13" font-family="Helvetica,sans-Serif" font-size="10.00">iostream</text>
</a>
</g>
</g>
<!-- Node1&#45;&gt;Node5 -->
<g id="edge4" class="edge">
<title>Node1&#45;&gt;Node5</title>
<path fill="none" stroke="midnightblue" d="M435.49,-336.92C293.03,-323.54 38,-288.16 38,-206.5 38,-206.5 38,-206.5 38,-143 38,-93.96 73.72,-88.07 118,-67 149.24,-52.13 375.07,-29.25 468.6,-20.28"/>
<polygon fill="midnightblue" stroke="midnightblue" points="469.18,-23.74 478.81,-19.31 468.52,-16.78 469.18,-23.74"/>
</g>
<!-- Node6 -->
<g id="node6" class="node">
<title>Node6</title>
<g id="a_node6"><a xlink:title=" ">
<polygon fill="none" stroke="#bfbfbf" points="462,-73 462,-92 518,-92 518,-73 462,-73"/>
<text text-anchor="middle" x="490" y="-80" font-family="Helvetica,sans-Serif" font-size="10.00">sstream</text>
</a>
</g>
</g>
<!-- Node1&#45;&gt;Node6 -->
<g id="edge5" class="edge">
<title>Node1&#45;&gt;Node6</title>
<path fill="none" stroke="midnightblue" d="M525.67,-324.42C521.58,-300.17 514.5,-257.58 509,-221 502.63,-178.65 495.95,-128.84 492.46,-102.33"/>
<polygon fill="midnightblue" stroke="midnightblue" points="495.9,-101.66 491.13,-92.2 488.96,-102.57 495.9,-101.66"/>
</g>
<!-- Node7 -->
<g id="node7" class="node">
<title>Node7</title>
<g id="a_node7"><a xlink:title=" ">
<polygon fill="none" stroke="#bfbfbf" points="1233.5,-263 1233.5,-282 1286.5,-282 1286.5,-263 1233.5,-263"/>
<text text-anchor="middle" x="1260" y="-270" font-family="Helvetica,sans-Serif" font-size="10.00">cstddef</text>
</a>
</g>
</g>
<!-- Node1&#45;&gt;Node7 -->
<g id="edge6" class="edge">
<title>Node1&#45;&gt;Node7</title>
<path fill="none" stroke="midnightblue" d="M622.57,-340.09C785.18,-332.69 1113.26,-314.93 1225,-288 1227.52,-287.39 1230.09,-286.63 1232.64,-285.77"/>
<polygon fill="midnightblue" stroke="midnightblue" points="1234.09,-288.96 1242.2,-282.13 1231.6,-282.42 1234.09,-288.96"/>
</g>
<!-- Node8 -->
<g id="node8" class="node">
<title>Node8</title>
<g id="a_node8"><a xlink:href="../../df/d67/define_8h.html" target="_top" xlink:title=" ">
<polygon fill="none" stroke="black" points="518.5,-196 518.5,-215 617.5,-215 617.5,-196 518.5,-196"/>
<text text-anchor="middle" x="568" y="-203" font-family="Helvetica,sans-Serif" font-size="10.00">includes/define.h</text>
</a>
</g>
</g>
<!-- Node1&#45;&gt;Node8 -->
<g id="edge7" class="edge">
<title>Node1&#45;&gt;Node8</title>
<path fill="none" stroke="midnightblue" d="M534.59,-324.3C542.14,-297.66 555.52,-250.52 562.84,-224.68"/>
<polygon fill="midnightblue" stroke="midnightblue" points="566.22,-225.61 565.58,-215.04 559.48,-223.7 566.22,-225.61"/>
</g>
<!-- Node18 -->
<g id="node18" class="node">
<title>Node18</title>
<g id="a_node18"><a xlink:href="../../dd/dc7/vector__map__iterator_8h.html" target="_top" xlink:title=" ">
<polygon fill="none" stroke="black" points="190,-257.5 190,-287.5 318,-287.5 318,-257.5 190,-257.5"/>
<text text-anchor="start" x="198" y="-275.5" font-family="Helvetica,sans-Serif" font-size="10.00">containers/vector_map</text>
<text text-anchor="middle" x="254" y="-264.5" font-family="Helvetica,sans-Serif" font-size="10.00">_iterator.h</text>
</a>
</g>
</g>
<!-- Node1&#45;&gt;Node18 -->
<g id="edge30" class="edge">
<title>Node1&#45;&gt;Node18</title>
<path fill="none" stroke="midnightblue" d="M452.76,-324.46C410.71,-313.67 359.04,-300.43 318.92,-290.14"/>
<polygon fill="midnightblue" stroke="midnightblue" points="319.54,-286.69 308.99,-287.6 317.81,-293.47 319.54,-286.69"/>
</g>
<!-- Node8&#45;&gt;Node6 -->
<g id="edge9" class="edge">
<title>Node8&#45;&gt;Node6</title>
<path fill="none" stroke="midnightblue" d="M562.39,-195.8C549.57,-175.91 517.95,-126.85 501.05,-100.65"/>
<polygon fill="midnightblue" stroke="midnightblue" points="503.92,-98.63 495.56,-92.12 498.04,-102.42 503.92,-98.63"/>
</g>
<!-- Node9 -->
<g id="node9" class="node">
<title>Node9</title>
<g id="a_node9"><a xlink:title=" ">
<polygon fill="none" stroke="#bfbfbf" points="990.5,-73 990.5,-92 1055.5,-92 1055.5,-73 990.5,-73"/>
<text text-anchor="middle" x="1023" y="-80" font-family="Helvetica,sans-Serif" font-size="10.00">stdexcept</text>
</a>
</g>
</g>
<!-- Node8&#45;&gt;Node9 -->
<g id="edge8" class="edge">
<title>Node8&#45;&gt;Node9</title>
<path fill="none" stroke="midnightblue" d="M599.99,-195.99C680.34,-174.63 890.6,-118.71 980.85,-94.71"/>
<polygon fill="midnightblue" stroke="midnightblue" points="981.97,-98.03 990.74,-92.08 980.17,-91.27 981.97,-98.03"/>
</g>
<!-- Node10 -->
<g id="node10" class="node">
<title>Node10</title>
<g id="a_node10"><a xlink:href="../../dc/d25/kratos__export__api_8h.html" target="_top" xlink:title=" ">
<polygon fill="none" stroke="black" points="714,-0.5 714,-30.5 842,-30.5 842,-0.5 714,-0.5"/>
<text text-anchor="start" x="722" y="-18.5" font-family="Helvetica,sans-Serif" font-size="10.00">includes/kratos_export</text>
<text text-anchor="middle" x="778" y="-7.5" font-family="Helvetica,sans-Serif" font-size="10.00">_api.h</text>
</a>
</g>
</g>
<!-- Node8&#45;&gt;Node10 -->
<g id="edge10" class="edge">
<title>Node8&#45;&gt;Node10</title>
<path fill="none" stroke="midnightblue" d="M617.55,-201.55C731.98,-193.6 1009.12,-167.43 1065,-98 1073.64,-87.27 1073.86,-77.55 1065,-67 1051.37,-50.77 932.6,-34.15 852.18,-24.6"/>
<polygon fill="midnightblue" stroke="midnightblue" points="852.42,-21.11 842.08,-23.42 851.61,-28.06 852.42,-21.11"/>
</g>
<!-- Node11 -->
<g id="node11" class="node">
<title>Node11</title>
<g id="a_node11"><a xlink:href="../../d9/dc0/smart__pointers_8h.html" target="_top" xlink:title=" ">
<polygon fill="none" stroke="black" points="272.5,-134.5 272.5,-153.5 415.5,-153.5 415.5,-134.5 272.5,-134.5"/>
<text text-anchor="middle" x="344" y="-141.5" font-family="Helvetica,sans-Serif" font-size="10.00">includes/smart_pointers.h</text>
</a>
</g>
</g>
<!-- Node8&#45;&gt;Node11 -->
<g id="edge11" class="edge">
<title>Node8&#45;&gt;Node11</title>
<path fill="none" stroke="midnightblue" d="M535.91,-195.98C496.4,-185.48 429.22,-167.64 385.74,-156.09"/>
<polygon fill="midnightblue" stroke="midnightblue" points="386.6,-152.69 376.03,-153.51 384.8,-159.46 386.6,-152.69"/>
</g>
<!-- Node15 -->
<g id="node15" class="node">
<title>Node15</title>
<g id="a_node15"><a xlink:href="../../dd/d2d/exception_8h.html" target="_top" xlink:title=" ">
<polygon fill="none" stroke="black" points="622.5,-134.5 622.5,-153.5 739.5,-153.5 739.5,-134.5 622.5,-134.5"/>
<text text-anchor="middle" x="681" y="-141.5" font-family="Helvetica,sans-Serif" font-size="10.00">includes/exception.h</text>
</a>
</g>
</g>
<!-- Node8&#45;&gt;Node15 -->
<g id="edge16" class="edge">
<title>Node8&#45;&gt;Node15</title>
<path fill="none" stroke="midnightblue" d="M584.19,-195.98C602.9,-186.12 633.92,-169.79 655.8,-158.27"/>
<polygon fill="midnightblue" stroke="midnightblue" points="657.62,-161.27 664.84,-153.51 654.36,-155.07 657.62,-161.27"/>
</g>
<!-- Node11&#45;&gt;Node5 -->
<g id="edge12" class="edge">
<title>Node11&#45;&gt;Node5</title>
<path fill="none" stroke="midnightblue" d="M358.84,-134.48C373.5,-125.85 396.38,-111.85 415,-98 430.28,-86.63 469.11,-52.25 491.8,-31.96"/>
<polygon fill="midnightblue" stroke="midnightblue" points="494.24,-34.47 499.35,-25.19 489.57,-29.26 494.24,-34.47"/>
</g>
<!-- Node12 -->
<g id="node12" class="node">
<title>Node12</title>
<g id="a_node12"><a xlink:title=" ">
<polygon fill="none" stroke="#bfbfbf" points="142.5,-73 142.5,-92 187.5,-92 187.5,-73 142.5,-73"/>
<text text-anchor="middle" x="165" y="-80" font-family="Helvetica,sans-Serif" font-size="10.00">utility</text>
</a>
</g>
</g>
<!-- Node11&#45;&gt;Node12 -->
<g id="edge13" class="edge">
<title>Node11&#45;&gt;Node12</title>
<path fill="none" stroke="midnightblue" d="M311.77,-134.42C281.72,-126.12 235.82,-112.67 197,-98 195.39,-97.39 193.75,-96.74 192.1,-96.07"/>
<polygon fill="midnightblue" stroke="midnightblue" points="193.34,-92.79 182.77,-92.04 190.56,-99.22 193.34,-92.79"/>
</g>
<!-- Node13 -->
<g id="node13" class="node">
<title>Node13</title>
<g id="a_node13"><a xlink:title=" ">
<polygon fill="none" stroke="#bfbfbf" points="206,-73 206,-92 264,-92 264,-73 206,-73"/>
<text text-anchor="middle" x="235" y="-80" font-family="Helvetica,sans-Serif" font-size="10.00">memory</text>
</a>
</g>
</g>
<!-- Node11&#45;&gt;Node13 -->
<g id="edge14" class="edge">
<title>Node11&#45;&gt;Node13</title>
<path fill="none" stroke="midnightblue" d="M328.38,-134.48C310.41,-124.67 280.68,-108.43 259.59,-96.92"/>
<polygon fill="midnightblue" stroke="midnightblue" points="261.04,-93.73 250.59,-92.01 257.69,-99.87 261.04,-93.73"/>
</g>
<!-- Node14 -->
<g id="node14" class="node">
<title>Node14</title>
<g id="a_node14"><a xlink:title=" ">
<polygon fill="none" stroke="#bfbfbf" points="282,-67.5 282,-97.5 406,-97.5 406,-67.5 282,-67.5"/>
<text text-anchor="start" x="290" y="-85.5" font-family="Helvetica,sans-Serif" font-size="10.00">intrusive_ptr/intrusive</text>
<text text-anchor="middle" x="344" y="-74.5" font-family="Helvetica,sans-Serif" font-size="10.00">_ptr.hpp</text>
</a>
</g>
</g>
<!-- Node11&#45;&gt;Node14 -->
<g id="edge15" class="edge">
<title>Node11&#45;&gt;Node14</title>
<path fill="none" stroke="midnightblue" d="M344,-134.48C344,-127.47 344,-117.19 344,-107.7"/>
<polygon fill="midnightblue" stroke="midnightblue" points="347.5,-107.52 344,-97.52 340.5,-107.52 347.5,-107.52"/>
</g>
<!-- Node15&#45;&gt;Node2 -->
<g id="edge21" class="edge">
<title>Node15&#45;&gt;Node2</title>
<path fill="none" stroke="midnightblue" d="M739.57,-140.33C807.66,-135.99 914.37,-124.99 943,-98 959.98,-81.99 963.13,-53.98 963.12,-35.33"/>
<polygon fill="midnightblue" stroke="midnightblue" points="966.62,-35.01 962.81,-25.12 959.62,-35.23 966.62,-35.01"/>
</g>
<!-- Node15&#45;&gt;Node4 -->
<g id="edge18" class="edge">
<title>Node15&#45;&gt;Node4</title>
<path fill="none" stroke="midnightblue" d="M649.26,-134.45C624.43,-126.96 589.61,-114.67 562,-98 544.21,-87.26 545.53,-76.4 527,-67 461.01,-33.51 373.49,-22.16 327.08,-18.36"/>
<polygon fill="midnightblue" stroke="midnightblue" points="327.25,-14.87 317.01,-17.61 326.72,-21.85 327.25,-14.87"/>
</g>
<!-- Node15&#45;&gt;Node5 -->
<g id="edge19" class="edge">
<title>Node15&#45;&gt;Node5</title>
<path fill="none" stroke="midnightblue" d="M664,-134.4C647.8,-125.94 622.99,-112.24 603,-98 574.01,-77.36 543.4,-49.53 525.26,-32.31"/>
<polygon fill="midnightblue" stroke="midnightblue" points="527.5,-29.61 517.86,-25.21 522.65,-34.66 527.5,-29.61"/>
</g>
<!-- Node15&#45;&gt;Node6 -->
<g id="edge20" class="edge">
<title>Node15&#45;&gt;Node6</title>
<path fill="none" stroke="midnightblue" d="M651.49,-134.46C621.36,-125.65 573.27,-111.35 532,-98 529.41,-97.16 526.73,-96.28 524.04,-95.38"/>
<polygon fill="midnightblue" stroke="midnightblue" points="524.97,-92 514.38,-92.1 522.72,-98.63 524.97,-92"/>
</g>
<!-- Node15&#45;&gt;Node9 -->
<g id="edge17" class="edge">
<title>Node15&#45;&gt;Node9</title>
<path fill="none" stroke="midnightblue" d="M739.69,-136.64C799.57,-129.55 894.95,-116.58 976,-98 979.91,-97.1 983.98,-96.05 988,-94.92"/>
<polygon fill="midnightblue" stroke="midnightblue" points="989.22,-98.21 997.82,-92.02 987.24,-91.49 989.22,-98.21"/>
</g>
<!-- Node15&#45;&gt;Node10 -->
<g id="edge22" class="edge">
<title>Node15&#45;&gt;Node10</title>
<path fill="none" stroke="midnightblue" d="M706.5,-134.48C723.85,-127.39 745.96,-115.58 759,-98 771.33,-81.38 775.82,-58.02 777.38,-40.57"/>
<polygon fill="midnightblue" stroke="midnightblue" points="780.87,-40.79 778.01,-30.58 773.89,-40.34 780.87,-40.79"/>
</g>
<!-- Node16 -->
<g id="node16" class="node">
<title>Node16</title>
<g id="a_node16"><a xlink:href="../../da/da6/code__location_8h.html" target="_top" xlink:title=" ">
<polygon fill="none" stroke="black" points="612.5,-73 612.5,-92 749.5,-92 749.5,-73 612.5,-73"/>
<text text-anchor="middle" x="681" y="-80" font-family="Helvetica,sans-Serif" font-size="10.00">includes/code_location.h</text>
</a>
</g>
</g>
<!-- Node15&#45;&gt;Node16 -->
<g id="edge23" class="edge">
<title>Node15&#45;&gt;Node16</title>
<path fill="none" stroke="midnightblue" d="M681,-134.48C681,-126.08 681,-112.98 681,-102.16"/>
<polygon fill="midnightblue" stroke="midnightblue" points="684.5,-102.01 681,-92.01 677.5,-102.01 684.5,-102.01"/>
</g>
<!-- Node17 -->
<g id="node17" class="node">
<title>Node17</title>
<g id="a_node17"><a xlink:href="../../d9/d06/stl__vector__io_8h.html" target="_top" xlink:title=" ">
<polygon fill="none" stroke="black" points="806,-73 806,-92 934,-92 934,-73 806,-73"/>
<text text-anchor="middle" x="870" y="-80" font-family="Helvetica,sans-Serif" font-size="10.00">utilities/stl_vector_io.h</text>
</a>
</g>
</g>
<!-- Node15&#45;&gt;Node17 -->
<g id="edge27" class="edge">
<title>Node15&#45;&gt;Node17</title>
<path fill="none" stroke="midnightblue" d="M708.08,-134.48C740.92,-124.14 796.43,-106.66 833.15,-95.1"/>
<polygon fill="midnightblue" stroke="midnightblue" points="834.48,-98.35 842.97,-92.01 832.38,-91.67 834.48,-98.35"/>
</g>
<!-- Node16&#45;&gt;Node4 -->
<g id="edge24" class="edge">
<title>Node16&#45;&gt;Node4</title>
<path fill="none" stroke="midnightblue" d="M630.14,-72.94C549.5,-59.36 394.56,-33.26 327.38,-21.95"/>
<polygon fill="midnightblue" stroke="midnightblue" points="327.82,-18.48 317.38,-20.27 326.66,-25.38 327.82,-18.48"/>
</g>
<!-- Node16&#45;&gt;Node5 -->
<g id="edge25" class="edge">
<title>Node16&#45;&gt;Node5</title>
<path fill="none" stroke="midnightblue" d="M658.16,-72.87C628.13,-61.52 575.22,-41.52 541.16,-28.65"/>
<polygon fill="midnightblue" stroke="midnightblue" points="542.25,-25.32 531.66,-25.06 539.78,-31.87 542.25,-25.32"/>
</g>
<!-- Node16&#45;&gt;Node10 -->
<g id="edge26" class="edge">
<title>Node16&#45;&gt;Node10</title>
<path fill="none" stroke="midnightblue" d="M694.08,-72.73C707.95,-63.44 730.3,-48.46 748.46,-36.3"/>
<polygon fill="midnightblue" stroke="midnightblue" points="750.62,-39.06 756.97,-30.59 746.72,-33.25 750.62,-39.06"/>
</g>
<!-- Node17&#45;&gt;Node2 -->
<g id="edge29" class="edge">
<title>Node17&#45;&gt;Node2</title>
<path fill="none" stroke="midnightblue" d="M882.41,-72.73C897.58,-62.01 923.48,-43.72 941.6,-30.91"/>
<polygon fill="midnightblue" stroke="midnightblue" points="943.64,-33.76 949.79,-25.13 939.6,-28.04 943.64,-33.76"/>
</g>
<!-- Node17&#45;&gt;Node5 -->
<g id="edge28" class="edge">
<title>Node17&#45;&gt;Node5</title>
<path fill="none" stroke="midnightblue" d="M822.43,-72.94C750.83,-60.04 616.6,-35.87 549.43,-23.78"/>
<polygon fill="midnightblue" stroke="midnightblue" points="549.71,-20.27 539.25,-21.95 548.47,-27.16 549.71,-20.27"/>
</g>
<!-- Node18&#45;&gt;Node4 -->
<g id="edge31" class="edge">
<title>Node18&#45;&gt;Node4</title>
<path fill="none" stroke="midnightblue" d="M189.71,-268.51C155.71,-263.25 116.63,-250.57 95,-221 74.46,-192.92 25.65,-159.13 100,-67 120.3,-41.85 212.96,-26.69 262.89,-20.21"/>
<polygon fill="midnightblue" stroke="midnightblue" points="263.37,-23.67 272.86,-18.95 262.5,-16.73 263.37,-23.67"/>
</g>
<!-- Node18&#45;&gt;Node5 -->
<g id="edge32" class="edge">
<title>Node18&#45;&gt;Node5</title>
<path fill="none" stroke="midnightblue" d="M253.26,-257.29C251.81,-240.23 247.55,-211.27 235,-190 198.92,-128.83 86.24,-120.46 133,-67 144.01,-54.41 374.29,-30 468.93,-20.46"/>
<polygon fill="midnightblue" stroke="midnightblue" points="469.38,-23.93 478.98,-19.45 468.68,-16.97 469.38,-23.93"/>
</g>
<!-- Node18&#45;&gt;Node8 -->
<g id="edge34" class="edge">
<title>Node18&#45;&gt;Node8</title>
<path fill="none" stroke="midnightblue" d="M318.3,-258.19C376.96,-246.05 462.52,-228.34 516.7,-217.12"/>
<polygon fill="midnightblue" stroke="midnightblue" points="517.69,-220.49 526.77,-215.03 516.27,-213.63 517.69,-220.49"/>
</g>
<!-- Node19 -->
<g id="node19" class="node">
<title>Node19</title>
<g id="a_node19"><a xlink:title=" ">
<polygon fill="none" stroke="#bfbfbf" points="104,-190.5 104,-220.5 226,-220.5 226,-190.5 104,-190.5"/>
<text text-anchor="start" x="112" y="-208.5" font-family="Helvetica,sans-Serif" font-size="10.00">boost/iterator/iterator</text>
<text text-anchor="middle" x="165" y="-197.5" font-family="Helvetica,sans-Serif" font-size="10.00">_adaptor.hpp</text>
</a>
</g>
</g>
<!-- Node18&#45;&gt;Node19 -->
<g id="edge33" class="edge">
<title>Node18&#45;&gt;Node19</title>
<path fill="none" stroke="midnightblue" d="M234.69,-257.4C222.33,-248.37 206.1,-236.51 192.41,-226.52"/>
<polygon fill="midnightblue" stroke="midnightblue" points="194.41,-223.65 184.27,-220.58 190.29,-229.3 194.41,-223.65"/>
</g>
</g>
</svg>
        <g id="navigator" transform="translate(0 0)" fill="#404254">
                <rect fill="#f2f5e9" fill-opacity="0.5" stroke="#606060" stroke-width=".5" x="0" y="0" width="60" height="60"/>
                <use id="zoomplus" xlink:href="#zoomPlus" x="17" y="9" onmousedown="handleZoom(evt,'in')"/>
                <use id="zoomminus" xlink:href="#zoomMin" x="42" y="9" onmousedown="handleZoom(evt,'out')"/>
                <use id="reset" xlink:href="#resetDef" x="30" y="36" onmousedown="handleReset()"/>
                <g id="arrowUp" xlink:href="#dirArrow" transform="translate(30 24)" onmousedown="handlePan(0,-1)">
                  <use xlink:href="#rim" fill="#404040">
                        <set attributeName="fill" to="#808080" begin="arrowUp.mouseover" end="arrowUp.mouseout"/>
                  </use>
                  <path fill="none" stroke="white" stroke-width="1.5" d="M0,-3.0v7 M-2.5,-0.5L0,-3.0L2.5,-0.5"/>
                </g>
                <g id="arrowRight" xlink:href="#dirArrow" transform="rotate(90) translate(36 -43)" onmousedown="handlePan(1,0)">
                  <use xlink:href="#rim" fill="#404040">
                        <set attributeName="fill" to="#808080" begin="arrowRight.mouseover" end="arrowRight.mouseout"/>
                  </use>
                  <path fill="none" stroke="white" stroke-width="1.5" d="M0,-3.0v7 M-2.5,-0.5L0,-3.0L2.5,-0.5"/>
                </g>
                <g id="arrowDown" xlink:href="#dirArrow" transform="rotate(180) translate(-30 -48)" onmousedown="handlePan(0,1)">
                  <use xlink:href="#rim" fill="#404040">
                        <set attributeName="fill" to="#808080" begin="arrowDown.mouseover" end="arrowDown.mouseout"/>
                  </use>
                  <path fill="none" stroke="white" stroke-width="1.5" d="M0,-3.0v7 M-2.5,-0.5L0,-3.0L2.5,-0.5"/>
                </g>
                <g id="arrowLeft" xlink:href="#dirArrow" transform="rotate(270) translate(-36 17)" onmousedown="handlePan(-1,0)">
                  <use xlink:href="#rim" fill="#404040">
                        <set attributeName="fill" to="#808080" begin="arrowLeft.mouseover" end="arrowLeft.mouseout"/>
                  </use>
                  <path fill="none" stroke="white" stroke-width="1.5" d="M0,-3.0v7 M-2.5,-0.5L0,-3.0L2.5,-0.5"/>
                </g>
        </g>
        <svg viewBox="0 0 15 15" width="100%" height="30px" preserveAspectRatio="xMaxYMin meet">
         <g id="arrow_out" transform="scale(0.3 0.3)">
          <a xlink:href="vector__map_8h__incl_org.svg" target="_base">
           <rect id="button" ry="5" rx="5" y="6" x="6" height="38" width="38"
                fill="#f2f5e9" fill-opacity="0.5" stroke="#606060" stroke-width="1.0"/>
           <path id="arrow"
             d="M 11.500037,31.436501 C 11.940474,20.09759 22.043105,11.32322 32.158766,21.979434 L 37.068811,17.246167 C 37.068811,17.246167 37.088388,32 37.088388,32 L 22.160133,31.978069 C 22.160133,31.978069 26.997745,27.140456 26.997745,27.140456 C 18.528582,18.264221 13.291696,25.230495 11.500037,31.436501 z"
             style="fill:#404040;"/>
          </a>
         </g>
        </svg>
</svg>
