<?xml version="1.0" encoding="UTF-8" standalone="no"?>
<!DOCTYPE svg PUBLIC "-//W3C//DTD SVG 1.1//EN"
 "http://www.w3.org/Graphics/SVG/1.1/DTD/svg11.dtd">
<!-- Generated by graphviz version 2.43.0 (0)
 -->
<!-- Title: /home/runner/work/Documentation/Documentation/master/kratos/containers/distributed_sparse_graph.h Pages: 1 -->
<!--zoomable 584 -->
<svg id="main" version="1.1" xmlns="http://www.w3.org/2000/svg" xmlns:xlink="http://www.w3.org/1999/xlink" xml:space="preserve" onload="init(evt)">
<style type="text/css"><![CDATA[
.edge:hover path { stroke: red; }
.edge:hover polygon { stroke: red; fill: red; }
]]></style>
<script type="text/javascript"><![CDATA[
var edges = document.getElementsByTagName('g');
if (edges && edges.length) {
  for (var i=0;i<edges.length;i++) {
    if (edges[i].id.substr(0,4)=='edge') {
      edges[i].setAttribute('class','edge');
    }
  }
}
]]></script>
        <defs>
                <circle id="rim" cx="0" cy="0" r="7"/>
                <circle id="rim2" cx="0" cy="0" r="3.5"/>
                <g id="zoomPlus">
                        <use xlink:href="#rim" fill="#404040">
                                <set attributeName="fill" to="#808080" begin="zoomplus.mouseover" end="zoomplus.mouseout"/>
                        </use>
                        <path d="M-4,0h8M0,-4v8" fill="none" stroke="white" stroke-width="1.5" pointer-events="none"/>
                </g>
                <g id="zoomMin">
                        <use xlink:href="#rim" fill="#404040">
                                <set attributeName="fill" to="#808080" begin="zoomminus.mouseover" end="zoomminus.mouseout"/>
                        </use>
                        <path d="M-4,0h8" fill="none" stroke="white" stroke-width="1.5" pointer-events="none"/>
                </g>
                <g id="dirArrow">
                        <path fill="none" stroke="white" stroke-width="1.5" d="M0,-3.0v7 M-2.5,-0.5L0,-3.0L2.5,-0.5"/>
                </g>
               <g id="resetDef">
                       <use xlink:href="#rim2" fill="#404040">
                               <set attributeName="fill" to="#808080" begin="reset.mouseover" end="reset.mouseout"/>
                       </use>
               </g>
        </defs>

<script type="text/javascript">
var viewWidth = 531;
var viewHeight = 584;
var sectionId = 'dynsection-1';
</script>
<script xlink:href="../../svgpan.js"/>
<svg id="graph" class="graph">
<g id="viewport">
<title>/home/runner/work/Documentation/Documentation/master/kratos/containers/distributed_sparse_graph.h</title>
<!-- Node1 -->
<g id="node1" class="node">
<title>Node1</title>
<g id="a_node1"><a xlink:title=" ">
<polygon fill="#bfbfbf" stroke="black" points="86.17,-534.5 86.17,-575.5 292.17,-575.5 292.17,-534.5 86.17,-534.5"/>
<text text-anchor="start" x="94.17" y="-563.5" font-family="Helvetica,sans-Serif" font-size="10.00">/home/runner/work/Documentation</text>
<text text-anchor="start" x="94.17" y="-552.5" font-family="Helvetica,sans-Serif" font-size="10.00">/Documentation/master/kratos</text>
<text text-anchor="middle" x="189.17" y="-541.5" font-family="Helvetica,sans-Serif" font-size="10.00">/containers/distributed_sparse_graph.h</text>
</a>
</g>
</g>
<!-- Node2 -->
<g id="node2" class="node">
<title>Node2</title>
<g id="a_node2"><a xlink:href="../../db/d26/distributed__csr__matrix_8h.html" target="_top" xlink:title=" ">
<polygon fill="none" stroke="black" points="95.67,-267.5 95.67,-319.5 282.67,-319.5 282.67,-267.5 95.67,-267.5"/>
<text text-anchor="start" x="103.67" y="-307.5" font-family="Helvetica,sans-Serif" font-size="10.00">/home/runner/work/Documentation</text>
<text text-anchor="start" x="103.67" y="-296.5" font-family="Helvetica,sans-Serif" font-size="10.00">/Documentation/master/kratos</text>
<text text-anchor="start" x="103.67" y="-285.5" font-family="Helvetica,sans-Serif" font-size="10.00">/containers/distributed_csr</text>
<text text-anchor="middle" x="189.17" y="-274.5" font-family="Helvetica,sans-Serif" font-size="10.00">_matrix.h</text>
</a>
</g>
</g>
<!-- Node1&#45;&gt;Node2 -->
<g id="edge1" class="edge">
<title>Node1&#45;&gt;Node2</title>
<path fill="none" stroke="midnightblue" d="M189.17,-524.38C189.17,-472.97 189.17,-368.13 189.17,-319.86"/>
<polygon fill="midnightblue" stroke="midnightblue" points="185.67,-524.5 189.17,-534.5 192.67,-524.5 185.67,-524.5"/>
</g>
<!-- Node3 -->
<g id="node3" class="node">
<title>Node3</title>
<g id="a_node3"><a xlink:href="../../d0/d4d/add__distributed__sparse__matrices__to__python_8cpp.html" target="_top" xlink:title=" ">
<polygon fill="none" stroke="black" points="65.67,-0.5 65.67,-52.5 252.67,-52.5 252.67,-0.5 65.67,-0.5"/>
<text text-anchor="start" x="73.67" y="-40.5" font-family="Helvetica,sans-Serif" font-size="10.00">/home/runner/work/Documentation</text>
<text text-anchor="start" x="73.67" y="-29.5" font-family="Helvetica,sans-Serif" font-size="10.00">/Documentation/master/kratos</text>
<text text-anchor="start" x="73.67" y="-18.5" font-family="Helvetica,sans-Serif" font-size="10.00">/mpi/python/add_distributed</text>
<text text-anchor="middle" x="159.17" y="-7.5" font-family="Helvetica,sans-Serif" font-size="10.00">_sparse_matrices_to_python.cpp</text>
</a>
</g>
</g>
<!-- Node1&#45;&gt;Node3 -->
<g id="edge13" class="edge">
<title>Node1&#45;&gt;Node3</title>
<path fill="none" stroke="midnightblue" d="M129.95,-530.16C74.52,-503.47 0.17,-454.45 0.17,-383.5 0.17,-383.5 0.17,-383.5 0.17,-203.5 0.17,-150.78 -2.54,-129.54 31.17,-89 44.09,-73.46 61.87,-61.56 80.07,-52.57"/>
<polygon fill="midnightblue" stroke="midnightblue" points="128.48,-533.34 139.02,-534.41 131.45,-527 128.48,-533.34"/>
</g>
<!-- Node7 -->
<g id="node7" class="node">
<title>Node7</title>
<g id="a_node7"><a xlink:href="../../d1/de6/distributed__system__vector_8h.html" target="_top" xlink:title=" ">
<polygon fill="none" stroke="black" points="247.67,-445.5 247.67,-497.5 434.67,-497.5 434.67,-445.5 247.67,-445.5"/>
<text text-anchor="start" x="255.67" y="-485.5" font-family="Helvetica,sans-Serif" font-size="10.00">/home/runner/work/Documentation</text>
<text text-anchor="start" x="255.67" y="-474.5" font-family="Helvetica,sans-Serif" font-size="10.00">/Documentation/master/kratos</text>
<text text-anchor="start" x="255.67" y="-463.5" font-family="Helvetica,sans-Serif" font-size="10.00">/containers/distributed_system</text>
<text text-anchor="middle" x="341.17" y="-452.5" font-family="Helvetica,sans-Serif" font-size="10.00">_vector.h</text>
</a>
</g>
</g>
<!-- Node1&#45;&gt;Node7 -->
<g id="edge7" class="edge">
<title>Node1&#45;&gt;Node7</title>
<path fill="none" stroke="midnightblue" d="M234.58,-529.65C253.46,-519.53 275.37,-507.78 294.4,-497.58"/>
<polygon fill="midnightblue" stroke="midnightblue" points="232.74,-526.67 225.58,-534.48 236.04,-532.84 232.74,-526.67"/>
</g>
<!-- Node2&#45;&gt;Node3 -->
<g id="edge2" class="edge">
<title>Node2&#45;&gt;Node3</title>
<path fill="none" stroke="midnightblue" d="M90.32,-262.33C77.18,-254.2 65.42,-243.94 57.17,-231 23.25,-177.78 26.13,-143.95 57.17,-89 65.86,-73.61 80.13,-61.63 95.27,-52.52"/>
<polygon fill="midnightblue" stroke="midnightblue" points="88.71,-265.44 99.13,-267.37 92.18,-259.37 88.71,-265.44"/>
</g>
<!-- Node4 -->
<g id="node4" class="node">
<title>Node4</title>
<g id="a_node4"><a xlink:href="../../d7/d99/amgcl__distributed__csr__conversion__utilities_8h.html" target="_top" xlink:title=" ">
<polygon fill="none" stroke="black" points="65.67,-178.5 65.67,-230.5 252.67,-230.5 252.67,-178.5 65.67,-178.5"/>
<text text-anchor="start" x="73.67" y="-218.5" font-family="Helvetica,sans-Serif" font-size="10.00">/home/runner/work/Documentation</text>
<text text-anchor="start" x="73.67" y="-207.5" font-family="Helvetica,sans-Serif" font-size="10.00">/Documentation/master/kratos</text>
<text text-anchor="start" x="73.67" y="-196.5" font-family="Helvetica,sans-Serif" font-size="10.00">/mpi/utilities/amgcl_distributed</text>
<text text-anchor="middle" x="159.17" y="-185.5" font-family="Helvetica,sans-Serif" font-size="10.00">_csr_conversion_utilities.h</text>
</a>
</g>
</g>
<!-- Node2&#45;&gt;Node4 -->
<g id="edge3" class="edge">
<title>Node2&#45;&gt;Node4</title>
<path fill="none" stroke="midnightblue" d="M177.19,-257.77C174.06,-248.69 170.75,-239.08 167.83,-230.61"/>
<polygon fill="midnightblue" stroke="midnightblue" points="173.92,-259.02 180.49,-267.34 180.54,-256.74 173.92,-259.02"/>
</g>
<!-- Node6 -->
<g id="node6" class="node">
<title>Node6</title>
<g id="a_node6"><a xlink:href="../../da/d20/kratos__space_8h.html" target="_top" xlink:title=" ">
<polygon fill="none" stroke="black" points="270.67,-184 270.67,-225 457.67,-225 457.67,-184 270.67,-184"/>
<text text-anchor="start" x="278.67" y="-213" font-family="Helvetica,sans-Serif" font-size="10.00">/home/runner/work/Documentation</text>
<text text-anchor="start" x="278.67" y="-202" font-family="Helvetica,sans-Serif" font-size="10.00">/Documentation/master/kratos</text>
<text text-anchor="middle" x="364.17" y="-191" font-family="Helvetica,sans-Serif" font-size="10.00">/spaces/kratos_space.h</text>
</a>
</g>
</g>
<!-- Node2&#45;&gt;Node6 -->
<g id="edge6" class="edge">
<title>Node2&#45;&gt;Node6</title>
<path fill="none" stroke="midnightblue" d="M248.85,-262.83C273.93,-250.36 302.4,-236.21 324.78,-225.08"/>
<polygon fill="midnightblue" stroke="midnightblue" points="247.18,-259.75 239.79,-267.34 250.3,-266.02 247.18,-259.75"/>
</g>
<!-- Node5 -->
<g id="node5" class="node">
<title>Node5</title>
<g id="a_node5"><a xlink:href="../../db/d3d/amgcl__distributed__csr__spmm__utilities_8h.html" target="_top" xlink:title=" ">
<polygon fill="none" stroke="black" points="65.67,-89.5 65.67,-141.5 252.67,-141.5 252.67,-89.5 65.67,-89.5"/>
<text text-anchor="start" x="73.67" y="-129.5" font-family="Helvetica,sans-Serif" font-size="10.00">/home/runner/work/Documentation</text>
<text text-anchor="start" x="73.67" y="-118.5" font-family="Helvetica,sans-Serif" font-size="10.00">/Documentation/master/kratos</text>
<text text-anchor="start" x="73.67" y="-107.5" font-family="Helvetica,sans-Serif" font-size="10.00">/mpi/utilities/amgcl_distributed</text>
<text text-anchor="middle" x="159.17" y="-96.5" font-family="Helvetica,sans-Serif" font-size="10.00">_csr_spmm_utilities.h</text>
</a>
</g>
</g>
<!-- Node4&#45;&gt;Node5 -->
<g id="edge4" class="edge">
<title>Node4&#45;&gt;Node5</title>
<path fill="none" stroke="midnightblue" d="M159.17,-168.19C159.17,-159.28 159.17,-149.9 159.17,-141.61"/>
<polygon fill="midnightblue" stroke="midnightblue" points="155.67,-168.34 159.17,-178.34 162.67,-168.34 155.67,-168.34"/>
</g>
<!-- Node5&#45;&gt;Node3 -->
<g id="edge5" class="edge">
<title>Node5&#45;&gt;Node3</title>
<path fill="none" stroke="midnightblue" d="M159.17,-79.19C159.17,-70.28 159.17,-60.9 159.17,-52.61"/>
<polygon fill="midnightblue" stroke="midnightblue" points="155.67,-79.34 159.17,-89.34 162.67,-79.34 155.67,-79.34"/>
</g>
<!-- Node7&#45;&gt;Node3 -->
<g id="edge12" class="edge">
<title>Node7&#45;&gt;Node3</title>
<path fill="none" stroke="midnightblue" d="M406.19,-440.42C458.44,-411.27 523.17,-361.6 523.17,-294.5 523.17,-294.5 523.17,-294.5 523.17,-203.5 523.17,-83.47 360.76,-45.26 252.91,-33.13"/>
<polygon fill="midnightblue" stroke="midnightblue" points="404.37,-437.43 397.26,-445.28 407.72,-443.58 404.37,-437.43"/>
</g>
<!-- Node7&#45;&gt;Node7 -->
<g id="edge8" class="edge">
<title>Node7&#45;&gt;Node7</title>
<path fill="none" stroke="midnightblue" d="M444.45,-481.43C449.62,-478.96 452.67,-475.65 452.67,-471.5 452.67,-465.17 445.59,-460.8 434.71,-458.38"/>
<polygon fill="midnightblue" stroke="midnightblue" points="443.12,-478.18 434.71,-484.62 445.3,-484.84 443.12,-478.18"/>
</g>
<!-- Node8 -->
<g id="node8" class="node">
<title>Node8</title>
<g id="a_node8"><a xlink:href="../../d2/dd7/distributed__vector__importer_8h.html" target="_top" xlink:title=" ">
<polygon fill="none" stroke="black" points="247.67,-356.5 247.67,-408.5 434.67,-408.5 434.67,-356.5 247.67,-356.5"/>
<text text-anchor="start" x="255.67" y="-396.5" font-family="Helvetica,sans-Serif" font-size="10.00">/home/runner/work/Documentation</text>
<text text-anchor="start" x="255.67" y="-385.5" font-family="Helvetica,sans-Serif" font-size="10.00">/Documentation/master/kratos</text>
<text text-anchor="start" x="255.67" y="-374.5" font-family="Helvetica,sans-Serif" font-size="10.00">/containers/distributed_vector</text>
<text text-anchor="middle" x="341.17" y="-363.5" font-family="Helvetica,sans-Serif" font-size="10.00">_importer.h</text>
</a>
</g>
</g>
<!-- Node7&#45;&gt;Node8 -->
<g id="edge9" class="edge">
<title>Node7&#45;&gt;Node8</title>
<path fill="none" stroke="midnightblue" d="M341.17,-435.19C341.17,-426.28 341.17,-416.9 341.17,-408.61"/>
<polygon fill="midnightblue" stroke="midnightblue" points="337.67,-435.34 341.17,-445.34 344.67,-435.34 337.67,-435.34"/>
</g>
<!-- Node8&#45;&gt;Node2 -->
<g id="edge10" class="edge">
<title>Node8&#45;&gt;Node2</title>
<path fill="none" stroke="midnightblue" d="M288.5,-351.35C270.4,-341 250.35,-329.52 233.04,-319.61"/>
<polygon fill="midnightblue" stroke="midnightblue" points="286.79,-354.41 297.2,-356.34 290.26,-348.33 286.79,-354.41"/>
</g>
<!-- Node8&#45;&gt;Node3 -->
<g id="edge11" class="edge">
<title>Node8&#45;&gt;Node3</title>
<path fill="none" stroke="midnightblue" d="M384.84,-350.01C434.8,-309.98 505.11,-238.77 467.17,-178 420.6,-103.41 325.19,-64.79 252.83,-45.46"/>
<polygon fill="midnightblue" stroke="midnightblue" points="382.41,-347.47 376.71,-356.4 386.73,-352.97 382.41,-347.47"/>
</g>
</g>
</svg>
        <g id="navigator" transform="translate(0 0)" fill="#404254">
                <rect fill="#f2f5e9" fill-opacity="0.5" stroke="#606060" stroke-width=".5" x="0" y="0" width="60" height="60"/>
                <use id="zoomplus" xlink:href="#zoomPlus" x="17" y="9" onmousedown="handleZoom(evt,'in')"/>
                <use id="zoomminus" xlink:href="#zoomMin" x="42" y="9" onmousedown="handleZoom(evt,'out')"/>
                <use id="reset" xlink:href="#resetDef" x="30" y="36" onmousedown="handleReset()"/>
                <g id="arrowUp" xlink:href="#dirArrow" transform="translate(30 24)" onmousedown="handlePan(0,-1)">
                  <use xlink:href="#rim" fill="#404040">
                        <set attributeName="fill" to="#808080" begin="arrowUp.mouseover" end="arrowUp.mouseout"/>
                  </use>
                  <path fill="none" stroke="white" stroke-width="1.5" d="M0,-3.0v7 M-2.5,-0.5L0,-3.0L2.5,-0.5"/>
                </g>
                <g id="arrowRight" xlink:href="#dirArrow" transform="rotate(90) translate(36 -43)" onmousedown="handlePan(1,0)">
                  <use xlink:href="#rim" fill="#404040">
                        <set attributeName="fill" to="#808080" begin="arrowRight.mouseover" end="arrowRight.mouseout"/>
                  </use>
                  <path fill="none" stroke="white" stroke-width="1.5" d="M0,-3.0v7 M-2.5,-0.5L0,-3.0L2.5,-0.5"/>
                </g>
                <g id="arrowDown" xlink:href="#dirArrow" transform="rotate(180) translate(-30 -48)" onmousedown="handlePan(0,1)">
                  <use xlink:href="#rim" fill="#404040">
                        <set attributeName="fill" to="#808080" begin="arrowDown.mouseover" end="arrowDown.mouseout"/>
                  </use>
                  <path fill="none" stroke="white" stroke-width="1.5" d="M0,-3.0v7 M-2.5,-0.5L0,-3.0L2.5,-0.5"/>
                </g>
                <g id="arrowLeft" xlink:href="#dirArrow" transform="rotate(270) translate(-36 17)" onmousedown="handlePan(-1,0)">
                  <use xlink:href="#rim" fill="#404040">
                        <set attributeName="fill" to="#808080" begin="arrowLeft.mouseover" end="arrowLeft.mouseout"/>
                  </use>
                  <path fill="none" stroke="white" stroke-width="1.5" d="M0,-3.0v7 M-2.5,-0.5L0,-3.0L2.5,-0.5"/>
                </g>
        </g>
        <svg viewBox="0 0 15 15" width="100%" height="30px" preserveAspectRatio="xMaxYMin meet">
         <g id="arrow_out" transform="scale(0.3 0.3)">
          <a xlink:href="distributed__sparse__graph_8h__dep__incl_org.svg" target="_base">
           <rect id="button" ry="5" rx="5" y="6" x="6" height="38" width="38"
                fill="#f2f5e9" fill-opacity="0.5" stroke="#606060" stroke-width="1.0"/>
           <path id="arrow"
             d="M 11.500037,31.436501 C 11.940474,20.09759 22.043105,11.32322 32.158766,21.979434 L 37.068811,17.246167 C 37.068811,17.246167 37.088388,32 37.088388,32 L 22.160133,31.978069 C 22.160133,31.978069 26.997745,27.140456 26.997745,27.140456 C 18.528582,18.264221 13.291696,25.230495 11.500037,31.436501 z"
             style="fill:#404040;"/>
          </a>
         </g>
        </svg>
</svg>
