<?xml version="1.0" encoding="UTF-8" standalone="no"?>
<!DOCTYPE svg PUBLIC "-//W3C//DTD SVG 1.1//EN"
 "http://www.w3.org/Graphics/SVG/1.1/DTD/svg11.dtd">
<!-- Generated by graphviz version 2.43.0 (0)
 -->
<!-- Title: /home/runner/work/Documentation/Documentation/master/kratos/operations/operation.h Pages: 1 -->
<!--zoomable 1012 -->
<svg id="main" version="1.1" xmlns="http://www.w3.org/2000/svg" xmlns:xlink="http://www.w3.org/1999/xlink" xml:space="preserve" onload="init(evt)">
<style type="text/css"><![CDATA[
.edge:hover path { stroke: red; }
.edge:hover polygon { stroke: red; fill: red; }
]]></style>
<script type="text/javascript"><![CDATA[
var edges = document.getElementsByTagName('g');
if (edges && edges.length) {
  for (var i=0;i<edges.length;i++) {
    if (edges[i].id.substr(0,4)=='edge') {
      edges[i].setAttribute('class','edge');
    }
  }
}
]]></script>
        <defs>
                <circle id="rim" cx="0" cy="0" r="7"/>
                <circle id="rim2" cx="0" cy="0" r="3.5"/>
                <g id="zoomPlus">
                        <use xlink:href="#rim" fill="#404040">
                                <set attributeName="fill" to="#808080" begin="zoomplus.mouseover" end="zoomplus.mouseout"/>
                        </use>
                        <path d="M-4,0h8M0,-4v8" fill="none" stroke="white" stroke-width="1.5" pointer-events="none"/>
                </g>
                <g id="zoomMin">
                        <use xlink:href="#rim" fill="#404040">
                                <set attributeName="fill" to="#808080" begin="zoomminus.mouseover" end="zoomminus.mouseout"/>
                        </use>
                        <path d="M-4,0h8" fill="none" stroke="white" stroke-width="1.5" pointer-events="none"/>
                </g>
                <g id="dirArrow">
                        <path fill="none" stroke="white" stroke-width="1.5" d="M0,-3.0v7 M-2.5,-0.5L0,-3.0L2.5,-0.5"/>
                </g>
               <g id="resetDef">
                       <use xlink:href="#rim2" fill="#404040">
                               <set attributeName="fill" to="#808080" begin="reset.mouseover" end="reset.mouseout"/>
                       </use>
               </g>
        </defs>

<script type="text/javascript">
var viewWidth = 3217;
var viewHeight = 1012;
var sectionId = 'dynsection-0';
</script>
<script xlink:href="../../svgpan.js"/>
<svg id="graph" class="graph">
<g id="viewport">
<title>/home/runner/work/Documentation/Documentation/master/kratos/operations/operation.h</title>
<!-- Node1 -->
<g id="node1" class="node">
<title>Node1</title>
<g id="a_node1"><a xlink:title=" ">
<polygon fill="#bfbfbf" stroke="black" points="166.76,-962.5 166.76,-1003.5 353.76,-1003.5 353.76,-962.5 166.76,-962.5"/>
<text text-anchor="start" x="174.76" y="-991.5" font-family="Helvetica,sans-Serif" font-size="10.00">/home/runner/work/Documentation</text>
<text text-anchor="start" x="174.76" y="-980.5" font-family="Helvetica,sans-Serif" font-size="10.00">/Documentation/master/kratos</text>
<text text-anchor="middle" x="260.26" y="-969.5" font-family="Helvetica,sans-Serif" font-size="10.00">/operations/operation.h</text>
</a>
</g>
</g>
<!-- Node2 -->
<g id="node2" class="node">
<title>Node2</title>
<g id="a_node2"><a xlink:href="../../dc/d51/model_8h.html" target="_top" xlink:title=" ">
<polygon fill="none" stroke="black" points="1029.26,-906.5 1029.26,-925.5 1139.26,-925.5 1139.26,-906.5 1029.26,-906.5"/>
<text text-anchor="middle" x="1084.26" y="-913.5" font-family="Helvetica,sans-Serif" font-size="10.00">containers/model.h</text>
</a>
</g>
</g>
<!-- Node1&#45;&gt;Node2 -->
<g id="edge1" class="edge">
<title>Node1&#45;&gt;Node2</title>
<path fill="none" stroke="midnightblue" d="M353.98,-974.61C522.77,-961.29 873.78,-933.6 1019.09,-922.14"/>
<polygon fill="midnightblue" stroke="midnightblue" points="1019.5,-925.62 1029.19,-921.34 1018.95,-918.64 1019.5,-925.62"/>
</g>
<!-- Node60 -->
<g id="node27" class="node">
<title>Node60</title>
<g id="a_node27"><a xlink:href="../../dc/d27/registry_8h.html" target="_top" xlink:title=" ">
<polygon fill="none" stroke="black" points="1479.76,-246.5 1479.76,-265.5 1584.76,-265.5 1584.76,-246.5 1479.76,-246.5"/>
<text text-anchor="middle" x="1532.26" y="-253.5" font-family="Helvetica,sans-Serif" font-size="10.00">includes/registry.h</text>
</a>
</g>
</g>
<!-- Node1&#45;&gt;Node60 -->
<g id="edge172" class="edge">
<title>Node1&#45;&gt;Node60</title>
<path fill="none" stroke="midnightblue" d="M309.59,-962.43C444.22,-908.3 827.9,-749.32 1127.26,-579 1211.47,-531.08 1230.82,-515.55 1307.26,-456 1389.1,-392.24 1479.63,-307.39 1515.91,-272.74"/>
<polygon fill="midnightblue" stroke="midnightblue" points="1518.39,-275.22 1523.18,-265.77 1513.54,-270.16 1518.39,-275.22"/>
</g>
<!-- Node126 -->
<g id="node43" class="node">
<title>Node126</title>
<g id="a_node43"><a xlink:href="../../db/d71/kratos__parameters_8h.html" target="_top" xlink:title=" ">
<polygon fill="none" stroke="black" points="1215.76,-677 1215.76,-696 1376.76,-696 1376.76,-677 1215.76,-677"/>
<text text-anchor="middle" x="1296.26" y="-684" font-family="Helvetica,sans-Serif" font-size="10.00">includes/kratos_parameters.h</text>
</a>
</g>
</g>
<!-- Node1&#45;&gt;Node126 -->
<g id="edge171" class="edge">
<title>Node1&#45;&gt;Node126</title>
<path fill="none" stroke="midnightblue" d="M329.03,-962.45C528.03,-905.88 1100.14,-743.25 1256.41,-698.83"/>
<polygon fill="midnightblue" stroke="midnightblue" points="1257.43,-702.18 1266.09,-696.08 1255.51,-695.44 1257.43,-702.18"/>
</g>
<!-- Node109 -->
<g id="node49" class="node">
<title>Node109</title>
<g id="a_node49"><a xlink:href="../../d0/dac/kratos__flags_8h.html" target="_top" xlink:title=" ">
<polygon fill="none" stroke="black" points="990.26,-554 990.26,-573 1118.26,-573 1118.26,-554 990.26,-554"/>
<text text-anchor="middle" x="1054.26" y="-561" font-family="Helvetica,sans-Serif" font-size="10.00">includes/kratos_flags.h</text>
</a>
</g>
</g>
<!-- Node1&#45;&gt;Node109 -->
<g id="edge170" class="edge">
<title>Node1&#45;&gt;Node109</title>
<path fill="none" stroke="midnightblue" d="M209.73,-962.35C194.26,-953.67 179.02,-941.77 170.26,-926 153.85,-896.47 163.97,-883.19 170.26,-850 186.66,-763.39 300.26,-616.8 303.26,-615 360.28,-580.71 801.92,-569.02 980.1,-565.67"/>
<polygon fill="midnightblue" stroke="midnightblue" points="980.24,-569.17 990.17,-565.48 980.11,-562.17 980.24,-569.17"/>
</g>
<!-- Node132 -->
<g id="node50" class="node">
<title>Node132</title>
<g id="a_node50"><a xlink:href="../../db/d40/define__registry_8h.html" target="_top" xlink:title=" ">
<polygon fill="none" stroke="black" points="2889.26,-302.5 2889.26,-321.5 3029.26,-321.5 3029.26,-302.5 2889.26,-302.5"/>
<text text-anchor="middle" x="2959.26" y="-309.5" font-family="Helvetica,sans-Serif" font-size="10.00">includes/define_registry.h</text>
</a>
</g>
</g>
<!-- Node1&#45;&gt;Node132 -->
<g id="edge165" class="edge">
<title>Node1&#45;&gt;Node132</title>
<path fill="none" stroke="midnightblue" d="M353.92,-980.44C839.83,-972.05 3051.26,-930.08 3051.26,-861 3051.26,-861 3051.26,-861 3051.26,-439.5 3051.26,-391.23 3006.9,-349 2979.78,-327.7"/>
<polygon fill="midnightblue" stroke="midnightblue" points="2981.75,-324.79 2971.66,-321.54 2977.51,-330.37 2981.75,-324.79"/>
</g>
<!-- Node3 -->
<g id="node3" class="node">
<title>Node3</title>
<g id="a_node3"><a xlink:title=" ">
<polygon fill="none" stroke="#bfbfbf" points="2289.26,-6 2289.26,-25 2333.26,-25 2333.26,-6 2289.26,-6"/>
<text text-anchor="middle" x="2311.26" y="-13" font-family="Helvetica,sans-Serif" font-size="10.00">string</text>
</a>
</g>
</g>
<!-- Node2&#45;&gt;Node3 -->
<g id="edge2" class="edge">
<title>Node2&#45;&gt;Node3</title>
<path fill="none" stroke="midnightblue" d="M1139.32,-914.75C1450.52,-912.98 2975.26,-899.49 2975.26,-805 2975.26,-805 2975.26,-805 2975.26,-501 2975.26,-410.93 2906.46,-408.17 2880.26,-322 2863.82,-267.93 2867.26,-252.02 2867.26,-195.5 2867.26,-195.5 2867.26,-195.5 2867.26,-132 2867.26,-24.33 2462.47,-16.31 2343.67,-16.28"/>
<polygon fill="midnightblue" stroke="midnightblue" points="2343.39,-12.78 2333.4,-16.29 2343.4,-19.78 2343.39,-12.78"/>
</g>
<!-- Node4 -->
<g id="node4" class="node">
<title>Node4</title>
<g id="a_node4"><a xlink:title=" ">
<polygon fill="none" stroke="#bfbfbf" points="681.26,-6 681.26,-25 741.26,-25 741.26,-6 681.26,-6"/>
<text text-anchor="middle" x="711.26" y="-13" font-family="Helvetica,sans-Serif" font-size="10.00">iostream</text>
</a>
</g>
</g>
<!-- Node2&#45;&gt;Node4 -->
<g id="edge3" class="edge">
<title>Node2&#45;&gt;Node4</title>
<path fill="none" stroke="midnightblue" d="M1029.05,-914.49C915.13,-912.74 645.98,-904.9 423.26,-870 321.02,-853.98 290.79,-858.28 197.26,-814 -18.85,-711.7 1.26,-552.1 1.26,-313 1.26,-313 1.26,-313 1.26,-132 1.26,-95.82 18.52,-84.36 50.26,-67 104.63,-37.25 535.53,-21.81 670.79,-17.66"/>
<polygon fill="midnightblue" stroke="midnightblue" points="671.22,-21.15 681.11,-17.35 671.01,-14.15 671.22,-21.15"/>
</g>
<!-- Node5 -->
<g id="node5" class="node">
<title>Node5</title>
<g id="a_node5"><a xlink:title=" ">
<polygon fill="none" stroke="#bfbfbf" points="172.76,-123.5 172.76,-142.5 265.76,-142.5 265.76,-123.5 172.76,-123.5"/>
<text text-anchor="middle" x="219.26" y="-130.5" font-family="Helvetica,sans-Serif" font-size="10.00">unordered_map</text>
</a>
</g>
</g>
<!-- Node2&#45;&gt;Node5 -->
<g id="edge4" class="edge">
<title>Node2&#45;&gt;Node5</title>
<path fill="none" stroke="midnightblue" d="M1028.86,-913.52C895.67,-908.8 547.89,-889.62 269.26,-814 183.77,-790.8 115.26,-776.08 115.26,-687.5 115.26,-687.5 115.26,-687.5 115.26,-311 115.26,-243.24 172.62,-178.5 202.14,-149.67"/>
<polygon fill="midnightblue" stroke="midnightblue" points="204.83,-151.94 209.66,-142.52 200,-146.87 204.83,-151.94"/>
</g>
<!-- Node6 -->
<g id="node6" class="node">
<title>Node6</title>
<g id="a_node6"><a xlink:href="../../df/d67/define_8h.html" target="_top" xlink:title=" ">
<polygon fill="none" stroke="black" points="1715.76,-123.5 1715.76,-142.5 1814.76,-142.5 1814.76,-123.5 1715.76,-123.5"/>
<text text-anchor="middle" x="1765.26" y="-130.5" font-family="Helvetica,sans-Serif" font-size="10.00">includes/define.h</text>
</a>
</g>
</g>
<!-- Node2&#45;&gt;Node6 -->
<g id="edge5" class="edge">
<title>Node2&#45;&gt;Node6</title>
<path fill="none" stroke="midnightblue" d="M1139.29,-914.77C1425.29,-912.96 2732.62,-897.11 2837.26,-758 2961.27,-593.13 2782.94,-532.87 2575.26,-358 2499.39,-294.12 2475.02,-281.09 2382.26,-246 2305.95,-217.14 2277.05,-242.6 2202.26,-210 2180.66,-200.59 2181.26,-187.41 2159.26,-179 2020.5,-125.97 1972,-161.81 1825.24,-143.73"/>
<polygon fill="midnightblue" stroke="midnightblue" points="1825.33,-140.22 1814.97,-142.4 1824.43,-147.16 1825.33,-140.22"/>
</g>
<!-- Node18 -->
<g id="node12" class="node">
<title>Node18</title>
<g id="a_node12"><a xlink:href="../../dd/dfe/model__part_8h.html" target="_top" xlink:title=" ">
<polygon fill="none" stroke="black" points="1817.76,-850.5 1817.76,-869.5 1942.76,-869.5 1942.76,-850.5 1817.76,-850.5"/>
<text text-anchor="middle" x="1880.26" y="-857.5" font-family="Helvetica,sans-Serif" font-size="10.00">includes/model_part.h</text>
</a>
</g>
</g>
<!-- Node2&#45;&gt;Node18 -->
<g id="edge17" class="edge">
<title>Node2&#45;&gt;Node18</title>
<path fill="none" stroke="midnightblue" d="M1139.28,-911.27C1279.43,-901.76 1649.87,-876.63 1807.55,-865.93"/>
<polygon fill="midnightblue" stroke="midnightblue" points="1807.88,-869.42 1817.62,-865.25 1807.41,-862.43 1807.88,-869.42"/>
</g>
<!-- Node7 -->
<g id="node7" class="node">
<title>Node7</title>
<g id="a_node7"><a xlink:title=" ">
<polygon fill="none" stroke="#bfbfbf" points="2796.76,-6 2796.76,-25 2861.76,-25 2861.76,-6 2796.76,-6"/>
<text text-anchor="middle" x="2829.26" y="-13" font-family="Helvetica,sans-Serif" font-size="10.00">stdexcept</text>
</a>
</g>
</g>
<!-- Node6&#45;&gt;Node7 -->
<g id="edge6" class="edge">
<title>Node6&#45;&gt;Node7</title>
<path fill="none" stroke="midnightblue" d="M1815.12,-130.97C1930.14,-128.12 2222.78,-118.15 2465.26,-87 2582.46,-71.94 2718.75,-42.23 2786.48,-26.62"/>
<polygon fill="midnightblue" stroke="midnightblue" points="2787.41,-30 2796.36,-24.33 2785.83,-23.18 2787.41,-30"/>
</g>
<!-- Node8 -->
<g id="node8" class="node">
<title>Node8</title>
<g id="a_node8"><a xlink:title=" ">
<polygon fill="none" stroke="#bfbfbf" points="3029.26,-6 3029.26,-25 3085.26,-25 3085.26,-6 3029.26,-6"/>
<text text-anchor="middle" x="3057.26" y="-13" font-family="Helvetica,sans-Serif" font-size="10.00">sstream</text>
</a>
</g>
</g>
<!-- Node6&#45;&gt;Node8 -->
<g id="edge7" class="edge">
<title>Node6&#45;&gt;Node8</title>
<path fill="none" stroke="midnightblue" d="M1814.77,-130.46C1937.76,-126.34 2266.94,-113.53 2540.26,-87 2720.07,-69.55 2933.49,-36.5 3019.02,-22.75"/>
<polygon fill="midnightblue" stroke="midnightblue" points="3019.73,-26.18 3029.05,-21.13 3018.62,-19.27 3019.73,-26.18"/>
</g>
<!-- Node9 -->
<g id="node9" class="node">
<title>Node9</title>
<g id="a_node9"><a xlink:href="../../dc/d25/kratos__export__api_8h.html" target="_top" xlink:title=" ">
<polygon fill="none" stroke="black" points="1751.26,-0.5 1751.26,-30.5 1879.26,-30.5 1879.26,-0.5 1751.26,-0.5"/>
<text text-anchor="start" x="1759.26" y="-18.5" font-family="Helvetica,sans-Serif" font-size="10.00">includes/kratos_export</text>
<text text-anchor="middle" x="1815.26" y="-7.5" font-family="Helvetica,sans-Serif" font-size="10.00">_api.h</text>
</a>
</g>
</g>
<!-- Node6&#45;&gt;Node9 -->
<g id="edge8" class="edge">
<title>Node6&#45;&gt;Node9</title>
<path fill="none" stroke="midnightblue" d="M1769.01,-123.32C1776.59,-105.81 1793.94,-65.75 1805.1,-39.97"/>
<polygon fill="midnightblue" stroke="midnightblue" points="1808.42,-41.11 1809.18,-30.55 1801.99,-38.33 1808.42,-41.11"/>
</g>
<!-- Node10 -->
<g id="node10" class="node">
<title>Node10</title>
<g id="a_node10"><a xlink:href="../../d9/dc0/smart__pointers_8h.html" target="_top" xlink:title=" ">
<polygon fill="none" stroke="red" points="1062.76,-67.5 1062.76,-86.5 1205.76,-86.5 1205.76,-67.5 1062.76,-67.5"/>
<text text-anchor="middle" x="1134.26" y="-74.5" font-family="Helvetica,sans-Serif" font-size="10.00">includes/smart_pointers.h</text>
</a>
</g>
</g>
<!-- Node6&#45;&gt;Node10 -->
<g id="edge9" class="edge">
<title>Node6&#45;&gt;Node10</title>
<path fill="none" stroke="midnightblue" d="M1715.74,-127.76C1607.51,-118.5 1348.92,-96.37 1216.08,-85"/>
<polygon fill="midnightblue" stroke="midnightblue" points="1216.23,-81.5 1205.96,-84.14 1215.63,-88.48 1216.23,-81.5"/>
</g>
<!-- Node14 -->
<g id="node11" class="node">
<title>Node14</title>
<g id="a_node11"><a xlink:href="../../dd/d2d/exception_8h.html" target="_top" xlink:title=" ">
<polygon fill="none" stroke="red" points="2339.76,-67.5 2339.76,-86.5 2456.76,-86.5 2456.76,-67.5 2339.76,-67.5"/>
<text text-anchor="middle" x="2398.26" y="-74.5" font-family="Helvetica,sans-Serif" font-size="10.00">includes/exception.h</text>
</a>
</g>
</g>
<!-- Node6&#45;&gt;Node14 -->
<g id="edge11" class="edge">
<title>Node6&#45;&gt;Node14</title>
<path fill="none" stroke="midnightblue" d="M1814.93,-127.76C1927.16,-118.19 2200.53,-94.87 2329.17,-83.89"/>
<polygon fill="midnightblue" stroke="midnightblue" points="2329.63,-87.37 2339.3,-83.03 2329.04,-80.39 2329.63,-87.37"/>
</g>
<!-- Node10&#45;&gt;Node4 -->
<g id="edge10" class="edge">
<title>Node10&#45;&gt;Node4</title>
<path fill="none" stroke="midnightblue" d="M1073.65,-67.48C985.83,-55.12 825.59,-32.58 751.19,-22.12"/>
<polygon fill="midnightblue" stroke="midnightblue" points="751.67,-18.65 741.28,-20.72 750.69,-25.58 751.67,-18.65"/>
</g>
<!-- Node14&#45;&gt;Node3 -->
<g id="edge13" class="edge">
<title>Node14&#45;&gt;Node3</title>
<path fill="none" stroke="midnightblue" d="M2385.79,-67.48C2371.84,-57.93 2348.99,-42.31 2332.27,-30.87"/>
<polygon fill="midnightblue" stroke="midnightblue" points="2333.93,-27.77 2323.7,-25.01 2329.98,-33.54 2333.93,-27.77"/>
</g>
<!-- Node14&#45;&gt;Node4 -->
<g id="edge14" class="edge">
<title>Node14&#45;&gt;Node4</title>
<path fill="none" stroke="midnightblue" d="M2339.7,-73.93C2072.91,-64.53 975.88,-25.83 751.47,-17.92"/>
<polygon fill="midnightblue" stroke="midnightblue" points="751.56,-14.42 741.45,-17.56 751.32,-21.42 751.56,-14.42"/>
</g>
<!-- Node14&#45;&gt;Node7 -->
<g id="edge12" class="edge">
<title>Node14&#45;&gt;Node7</title>
<path fill="none" stroke="midnightblue" d="M2456.83,-67.91C2544.83,-55.77 2709.08,-33.09 2786.63,-22.38"/>
<polygon fill="midnightblue" stroke="midnightblue" points="2787.11,-25.85 2796.53,-21.02 2786.15,-18.92 2787.11,-25.85"/>
</g>
<!-- Node14&#45;&gt;Node8 -->
<g id="edge15" class="edge">
<title>Node14&#45;&gt;Node8</title>
<path fill="none" stroke="midnightblue" d="M2457.03,-70.69C2589.66,-58.72 2909.21,-29.87 3019.26,-19.93"/>
<polygon fill="midnightblue" stroke="midnightblue" points="3019.6,-23.41 3029.24,-19.03 3018.97,-16.44 3019.6,-23.41"/>
</g>
<!-- Node14&#45;&gt;Node9 -->
<g id="edge16" class="edge">
<title>Node14&#45;&gt;Node9</title>
<path fill="none" stroke="midnightblue" d="M2339.69,-70.02C2232.93,-59.13 2006.89,-36.06 1889.51,-24.08"/>
<polygon fill="midnightblue" stroke="midnightblue" points="1889.83,-20.59 1879.53,-23.06 1889.12,-27.56 1889.83,-20.59"/>
</g>
<!-- Node18&#45;&gt;Node3 -->
<g id="edge18" class="edge">
<title>Node18&#45;&gt;Node3</title>
<path fill="none" stroke="midnightblue" d="M1942.78,-856.99C2113.13,-851.28 2577.11,-834.07 2643.26,-814 2778.34,-773.01 2899.26,-767.16 2899.26,-626 2899.26,-626 2899.26,-626 2899.26,-439.5 2899.26,-382.39 2869.23,-374.71 2847.26,-322 2820.99,-259 2818.54,-241.56 2791.26,-179 2780.21,-153.67 2780.45,-145.39 2764.26,-123 2743.26,-93.96 2738.56,-82.51 2706.26,-67 2642.14,-36.23 2425.97,-22.3 2343.55,-18.02"/>
<polygon fill="midnightblue" stroke="midnightblue" points="2343.67,-14.52 2333.51,-17.51 2343.32,-21.51 2343.67,-14.52"/>
</g>
<!-- Node18&#45;&gt;Node4 -->
<g id="edge19" class="edge">
<title>Node18&#45;&gt;Node4</title>
<path fill="none" stroke="midnightblue" d="M1817.47,-858.3C1533.44,-854.97 379.37,-839.9 307.26,-814 265.58,-799.03 153.26,-731.79 153.26,-687.5 153.26,-687.5 153.26,-687.5 153.26,-501 153.26,-381.3 39.26,-376.7 39.26,-257 39.26,-257 39.26,-257 39.26,-132 39.26,-97.84 51.03,-84.68 80.26,-67 130.73,-36.47 540.32,-21.63 671.2,-17.64"/>
<polygon fill="midnightblue" stroke="midnightblue" points="671.32,-21.13 681.21,-17.34 671.11,-14.14 671.32,-21.13"/>
</g>
<!-- Node18&#45;&gt;Node6 -->
<g id="edge22" class="edge">
<title>Node18&#45;&gt;Node6</title>
<path fill="none" stroke="midnightblue" d="M1943.06,-856.52C2023.65,-852.33 2167.37,-841.42 2287.26,-814 2371.8,-794.66 2471.26,-835.73 2471.26,-749 2471.26,-749 2471.26,-749 2471.26,-562.5 2471.26,-427.78 2420.61,-387.21 2316.26,-302 2242.03,-241.39 2202.95,-260.09 2121.26,-210 2102.08,-198.24 2101.99,-187.72 2081.26,-179 1975.97,-134.74 1937.64,-159.18 1825.02,-143.79"/>
<polygon fill="midnightblue" stroke="midnightblue" points="1825.37,-140.31 1814.97,-142.34 1824.37,-147.23 1825.37,-140.31"/>
</g>
<!-- Node18&#45;&gt;Node8 -->
<g id="edge20" class="edge">
<title>Node18&#45;&gt;Node8</title>
<path fill="none" stroke="midnightblue" d="M1943.04,-857.84C2107.85,-854.41 2549.98,-842.74 2693.26,-814 2766.3,-799.35 2789,-798.92 2851.26,-758 3079.95,-607.67 3209.26,-530.67 3209.26,-257 3209.26,-257 3209.26,-257 3209.26,-132 3209.26,-74.84 3140.28,-42.28 3095.25,-27.11"/>
<polygon fill="midnightblue" stroke="midnightblue" points="3096.08,-23.7 3085.49,-23.97 3093.94,-30.36 3096.08,-23.7"/>
</g>
<!-- Node19 -->
<g id="node13" class="node">
<title>Node19</title>
<g id="a_node13"><a xlink:title=" ">
<polygon fill="none" stroke="#bfbfbf" points="2254.76,-302.5 2254.76,-321.5 2307.76,-321.5 2307.76,-302.5 2254.76,-302.5"/>
<text text-anchor="middle" x="2281.26" y="-309.5" font-family="Helvetica,sans-Serif" font-size="10.00">cstddef</text>
</a>
</g>
</g>
<!-- Node18&#45;&gt;Node19 -->
<g id="edge21" class="edge">
<title>Node18&#45;&gt;Node19</title>
<path fill="none" stroke="midnightblue" d="M1943.02,-857.74C2108.78,-854.05 2549.68,-841.71 2609.26,-814 2645.46,-797.16 2671.26,-788.92 2671.26,-749 2671.26,-749 2671.26,-749 2671.26,-624 2671.26,-530.3 2392.61,-372.8 2306.38,-326.3"/>
<polygon fill="midnightblue" stroke="midnightblue" points="2307.99,-323.19 2297.52,-321.55 2304.68,-329.36 2307.99,-323.19"/>
</g>
<!-- Node20 -->
<g id="node14" class="node">
<title>Node20</title>
<g id="a_node14"><a xlink:href="../../dd/d5f/serializer_8h.html" target="_top" xlink:title=" ">
<polygon fill="none" stroke="red" points="501.76,-302.5 501.76,-321.5 614.76,-321.5 614.76,-302.5 501.76,-302.5"/>
<text text-anchor="middle" x="558.26" y="-309.5" font-family="Helvetica,sans-Serif" font-size="10.00">includes/serializer.h</text>
</a>
</g>
</g>
<!-- Node18&#45;&gt;Node20 -->
<g id="edge23" class="edge">
<title>Node18&#45;&gt;Node20</title>
<path fill="none" stroke="midnightblue" d="M1817.59,-859C1588.11,-858.67 794.1,-854.54 544.26,-814 395.34,-789.84 229.26,-838.37 229.26,-687.5 229.26,-687.5 229.26,-687.5 229.26,-501 229.26,-381.23 395.65,-336.73 491.77,-321.02"/>
<polygon fill="midnightblue" stroke="midnightblue" points="492.37,-324.47 501.7,-319.45 491.28,-317.55 492.37,-324.47"/>
</g>
<!-- Node26 -->
<g id="node20" class="node">
<title>Node26</title>
<g id="a_node20"><a xlink:href="../../d1/d8c/logger_8h.html" target="_top" xlink:title=" ">
<polygon fill="none" stroke="red" points="2301.26,-123.5 2301.26,-142.5 2421.26,-142.5 2421.26,-123.5 2301.26,-123.5"/>
<text text-anchor="middle" x="2361.26" y="-130.5" font-family="Helvetica,sans-Serif" font-size="10.00">input_output/logger.h</text>
</a>
</g>
</g>
<!-- Node18&#45;&gt;Node26 -->
<g id="edge157" class="edge">
<title>Node18&#45;&gt;Node26</title>
<path fill="none" stroke="midnightblue" d="M1942.88,-859.7C2083.27,-860.46 2418.97,-857.52 2522.26,-814 2562.29,-797.13 2595.26,-792.44 2595.26,-749 2595.26,-749 2595.26,-749 2595.26,-685.5 2595.26,-557.73 2747.26,-569.27 2747.26,-441.5 2747.26,-441.5 2747.26,-441.5 2747.26,-372.5 2747.26,-224.88 2540.41,-165.58 2429.56,-144.4"/>
<polygon fill="midnightblue" stroke="midnightblue" points="2429.93,-140.91 2419.46,-142.52 2428.66,-147.79 2429.93,-140.91"/>
</g>
<!-- Node57 -->
<g id="node24" class="node">
<title>Node57</title>
<g id="a_node24"><a xlink:href="../../de/db8/process__info_8h.html" target="_top" xlink:title=" ">
<polygon fill="none" stroke="black" points="1855.76,-615.5 1855.76,-634.5 1986.76,-634.5 1986.76,-615.5 1855.76,-615.5"/>
<text text-anchor="middle" x="1921.26" y="-622.5" font-family="Helvetica,sans-Serif" font-size="10.00">includes/process_info.h</text>
</a>
</g>
</g>
<!-- Node18&#45;&gt;Node57 -->
<g id="edge50" class="edge">
<title>Node18&#45;&gt;Node57</title>
<path fill="none" stroke="midnightblue" d="M1882.35,-850.39C1886.53,-833.01 1896.04,-792.44 1902.26,-758 1909.5,-717.89 1915.77,-670.53 1918.97,-644.85"/>
<polygon fill="midnightblue" stroke="midnightblue" points="1922.48,-645.04 1920.23,-634.68 1915.53,-644.18 1922.48,-645.04"/>
</g>
<!-- Node58 -->
<g id="node25" class="node">
<title>Node58</title>
<g id="a_node25"><a xlink:href="../../d1/d82/data__value__container_8h.html" target="_top" xlink:title=" ">
<polygon fill="none" stroke="red" points="1895.76,-548.5 1895.76,-578.5 2020.76,-578.5 2020.76,-548.5 1895.76,-548.5"/>
<text text-anchor="start" x="1903.76" y="-566.5" font-family="Helvetica,sans-Serif" font-size="10.00">containers/data_value</text>
<text text-anchor="middle" x="1958.26" y="-555.5" font-family="Helvetica,sans-Serif" font-size="10.00">_container.h</text>
</a>
</g>
</g>
<!-- Node18&#45;&gt;Node58 -->
<g id="edge104" class="edge">
<title>Node18&#45;&gt;Node58</title>
<path fill="none" stroke="midnightblue" d="M1817.49,-851.21C1758.51,-839.96 1679.26,-812.95 1679.26,-749 1679.26,-749 1679.26,-749 1679.26,-685.5 1679.26,-595.54 1802.86,-571.73 1885.53,-565.86"/>
<polygon fill="midnightblue" stroke="midnightblue" points="1885.89,-569.35 1895.64,-565.22 1885.44,-562.36 1885.89,-569.35"/>
</g>
<!-- Node59 -->
<g id="node26" class="node">
<title>Node59</title>
<g id="a_node26"><a xlink:href="../../da/d89/variable_8h.html" target="_top" xlink:title=" ">
<polygon fill="none" stroke="red" points="1618.76,-431 1618.76,-450 1737.76,-450 1737.76,-431 1618.76,-431"/>
<text text-anchor="middle" x="1678.26" y="-438" font-family="Helvetica,sans-Serif" font-size="10.00">containers/variable.h</text>
</a>
</g>
</g>
<!-- Node18&#45;&gt;Node59 -->
<g id="edge163" class="edge">
<title>Node18&#45;&gt;Node59</title>
<path fill="none" stroke="midnightblue" d="M1817.42,-856.55C1721.33,-852.02 1542.97,-840.28 1485.26,-814 1446.32,-796.27 1414.26,-791.78 1414.26,-749 1414.26,-749 1414.26,-749 1414.26,-624 1414.26,-567.31 1581.07,-485.43 1649.49,-454.23"/>
<polygon fill="midnightblue" stroke="midnightblue" points="1651.17,-457.31 1658.84,-450 1648.29,-450.93 1651.17,-457.31"/>
</g>
<!-- Node74 -->
<g id="node32" class="node">
<title>Node74</title>
<g id="a_node32"><a xlink:href="../../d3/dc3/variable__data_8h.html" target="_top" xlink:title=" ">
<polygon fill="none" stroke="red" points="1933.26,-364 1933.26,-383 2025.26,-383 2025.26,-364 1933.26,-364"/>
<text text-anchor="middle" x="1979.26" y="-371" font-family="Helvetica,sans-Serif" font-size="10.00">variable_data.h</text>
</a>
</g>
</g>
<!-- Node18&#45;&gt;Node74 -->
<g id="edge164" class="edge">
<title>Node18&#45;&gt;Node74</title>
<path fill="none" stroke="midnightblue" d="M1912.84,-850.49C1955.67,-837.62 2030.36,-809.13 2072.26,-758 2129.08,-688.66 2129.26,-654.15 2129.26,-564.5 2129.26,-564.5 2129.26,-564.5 2129.26,-501 2129.26,-441.62 2059.71,-404.45 2015.33,-386.78"/>
<polygon fill="midnightblue" stroke="midnightblue" points="2016.32,-383.41 2005.73,-383.1 2013.81,-389.95 2016.32,-383.41"/>
</g>
<!-- Node83 -->
<g id="node37" class="node">
<title>Node83</title>
<g id="a_node37"><a xlink:href="../../d8/d3b/mesh_8h.html" target="_top" xlink:title=" ">
<polygon fill="none" stroke="red" points="2233.26,-738.5 2233.26,-757.5 2329.26,-757.5 2329.26,-738.5 2233.26,-738.5"/>
<text text-anchor="middle" x="2281.26" y="-745.5" font-family="Helvetica,sans-Serif" font-size="10.00">includes/mesh.h</text>
</a>
</g>
</g>
<!-- Node18&#45;&gt;Node83 -->
<g id="edge105" class="edge">
<title>Node18&#45;&gt;Node83</title>
<path fill="none" stroke="midnightblue" d="M1943.1,-855.66C2046.57,-849.58 2243.75,-835.34 2267.26,-814 2279.92,-802.5 2282.62,-782.53 2282.64,-767.75"/>
<polygon fill="midnightblue" stroke="midnightblue" points="2286.13,-767.54 2282.25,-757.68 2279.14,-767.81 2286.13,-767.54"/>
</g>
<!-- Node87 -->
<g id="node38" class="node">
<title>Node87</title>
<g id="a_node38"><a xlink:href="../../d2/d58/pointer__vector__map_8h.html" target="_top" xlink:title=" ">
<polygon fill="none" stroke="red" points="2461.76,-358.5 2461.76,-388.5 2566.76,-388.5 2566.76,-358.5 2461.76,-358.5"/>
<text text-anchor="start" x="2469.76" y="-376.5" font-family="Helvetica,sans-Serif" font-size="10.00">containers/pointer</text>
<text text-anchor="middle" x="2514.26" y="-365.5" font-family="Helvetica,sans-Serif" font-size="10.00">_vector_map.h</text>
</a>
</g>
</g>
<!-- Node18&#45;&gt;Node87 -->
<g id="edge155" class="edge">
<title>Node18&#45;&gt;Node87</title>
<path fill="none" stroke="midnightblue" d="M1942.8,-859.43C2077.16,-859.54 2388.97,-855.2 2485.26,-814 2524.89,-797.04 2557.26,-792.11 2557.26,-749 2557.26,-749 2557.26,-749 2557.26,-501 2557.26,-463.32 2539.94,-422.53 2527.29,-397.74"/>
<polygon fill="midnightblue" stroke="midnightblue" points="2530.31,-395.97 2522.55,-388.76 2524.12,-399.24 2530.31,-395.97"/>
</g>
<!-- Node99 -->
<g id="node39" class="node">
<title>Node99</title>
<g id="a_node39"><a xlink:href="../../da/da4/master__slave__constraint_8h.html" target="_top" xlink:title=" ">
<polygon fill="none" stroke="red" points="1712.26,-671.5 1712.26,-701.5 1838.26,-701.5 1838.26,-671.5 1712.26,-671.5"/>
<text text-anchor="start" x="1720.26" y="-689.5" font-family="Helvetica,sans-Serif" font-size="10.00">includes/master_slave</text>
<text text-anchor="middle" x="1775.26" y="-678.5" font-family="Helvetica,sans-Serif" font-size="10.00">_constraint.h</text>
</a>
</g>
</g>
<!-- Node18&#45;&gt;Node99 -->
<g id="edge162" class="edge">
<title>Node18&#45;&gt;Node99</title>
<path fill="none" stroke="midnightblue" d="M1865.39,-850.47C1840.91,-835.45 1792.98,-801.69 1774.26,-758 1768.03,-743.47 1768.34,-725.67 1770.18,-711.59"/>
<polygon fill="midnightblue" stroke="midnightblue" points="1773.64,-712.1 1771.79,-701.66 1766.73,-710.97 1773.64,-712.1"/>
</g>
<!-- Node110 -->
<g id="node40" class="node">
<title>Node110</title>
<g id="a_node40"><a xlink:href="../../d3/dad/geometry__container_8h.html" target="_top" xlink:title=" ">
<polygon fill="none" stroke="black" points="1141.26,-425.5 1141.26,-455.5 1259.26,-455.5 1259.26,-425.5 1141.26,-425.5"/>
<text text-anchor="start" x="1149.26" y="-443.5" font-family="Helvetica,sans-Serif" font-size="10.00">containers/geometry</text>
<text text-anchor="middle" x="1200.26" y="-432.5" font-family="Helvetica,sans-Serif" font-size="10.00">_container.h</text>
</a>
</g>
</g>
<!-- Node18&#45;&gt;Node110 -->
<g id="edge124" class="edge">
<title>Node18&#45;&gt;Node110</title>
<path fill="none" stroke="midnightblue" d="M1817.6,-856.37C1637.35,-847.99 1130.26,-818.26 1130.26,-749 1130.26,-749 1130.26,-749 1130.26,-685.5 1130.26,-601.66 1168.92,-507.67 1188.78,-464.93"/>
<polygon fill="midnightblue" stroke="midnightblue" points="1192.04,-466.2 1193.16,-455.67 1185.72,-463.21 1192.04,-466.2"/>
</g>
<!-- Node111 -->
<g id="node41" class="node">
<title>Node111</title>
<g id="a_node41"><a xlink:href="../../da/d92/pointer__hash__map__set_8h.html" target="_top" xlink:title=" ">
<polygon fill="none" stroke="red" points="523.76,-358.5 523.76,-388.5 628.76,-388.5 628.76,-358.5 523.76,-358.5"/>
<text text-anchor="start" x="531.76" y="-376.5" font-family="Helvetica,sans-Serif" font-size="10.00">containers/pointer</text>
<text text-anchor="middle" x="576.26" y="-365.5" font-family="Helvetica,sans-Serif" font-size="10.00">_hash_map_set.h</text>
</a>
</g>
</g>
<!-- Node18&#45;&gt;Node111 -->
<g id="edge156" class="edge">
<title>Node18&#45;&gt;Node111</title>
<path fill="none" stroke="midnightblue" d="M1817.32,-857.8C1530.28,-851.91 359.26,-823.34 359.26,-749 359.26,-749 359.26,-749 359.26,-501 359.26,-462.37 463.17,-416.63 527.19,-392.11"/>
<polygon fill="midnightblue" stroke="midnightblue" points="528.59,-395.32 536.71,-388.51 526.12,-388.78 528.59,-395.32"/>
</g>
<!-- Node112 -->
<g id="node42" class="node">
<title>Node112</title>
<g id="a_node42"><a xlink:href="../../d4/dfe/element_8h.html" target="_top" xlink:title=" ">
<polygon fill="none" stroke="red" points="1783.26,-738.5 1783.26,-757.5 1893.26,-757.5 1893.26,-738.5 1783.26,-738.5"/>
<text text-anchor="middle" x="1838.26" y="-745.5" font-family="Helvetica,sans-Serif" font-size="10.00">includes/element.h</text>
</a>
</g>
</g>
<!-- Node18&#45;&gt;Node112 -->
<g id="edge130" class="edge">
<title>Node18&#45;&gt;Node112</title>
<path fill="none" stroke="midnightblue" d="M1876.96,-850.37C1870.12,-832.46 1854.26,-790.92 1845.11,-766.95"/>
<polygon fill="midnightblue" stroke="midnightblue" points="1848.37,-765.69 1841.54,-757.59 1841.83,-768.18 1848.37,-765.69"/>
</g>
<!-- Node130 -->
<g id="node46" class="node">
<title>Node130</title>
<g id="a_node46"><a xlink:href="../../d7/d6c/condition_8h.html" target="_top" xlink:title=" ">
<polygon fill="none" stroke="red" points="1949.26,-738.5 1949.26,-757.5 2063.26,-757.5 2063.26,-738.5 1949.26,-738.5"/>
<text text-anchor="middle" x="2006.26" y="-745.5" font-family="Helvetica,sans-Serif" font-size="10.00">includes/condition.h</text>
</a>
</g>
</g>
<!-- Node18&#45;&gt;Node130 -->
<g id="edge137" class="edge">
<title>Node18&#45;&gt;Node130</title>
<path fill="none" stroke="midnightblue" d="M1891.36,-850.21C1902.58,-841.27 1920.33,-826.92 1935.26,-814 1954.27,-797.54 1975.46,-777.98 1989.7,-764.64"/>
<polygon fill="midnightblue" stroke="midnightblue" points="1992.32,-766.98 1997.21,-757.58 1987.53,-761.88 1992.32,-766.98"/>
</g>
<!-- Node131 -->
<g id="node47" class="node">
<title>Node131</title>
<g id="a_node47"><a xlink:href="../../d8/d75/communicator_8h.html" target="_top" xlink:title=" ">
<polygon fill="none" stroke="black" points="2119.76,-794.5 2119.76,-813.5 2258.76,-813.5 2258.76,-794.5 2119.76,-794.5"/>
<text text-anchor="middle" x="2189.26" y="-801.5" font-family="Helvetica,sans-Serif" font-size="10.00">includes/communicator.h</text>
</a>
</g>
</g>
<!-- Node18&#45;&gt;Node131 -->
<g id="edge140" class="edge">
<title>Node18&#45;&gt;Node131</title>
<path fill="none" stroke="midnightblue" d="M1929.22,-850.44C1983.8,-840.9 2072.05,-825.48 2130.36,-815.29"/>
<polygon fill="midnightblue" stroke="midnightblue" points="2131.28,-818.69 2140.52,-813.52 2130.07,-811.79 2131.28,-818.69"/>
</g>
<!-- Node115 -->
<g id="node48" class="node">
<title>Node115</title>
<g id="a_node48"><a xlink:href="../../dd/d98/table_8h.html" target="_top" xlink:title=" ">
<polygon fill="none" stroke="black" points="1707.26,-492.5 1707.26,-511.5 1801.26,-511.5 1801.26,-492.5 1707.26,-492.5"/>
<text text-anchor="middle" x="1754.26" y="-499.5" font-family="Helvetica,sans-Serif" font-size="10.00">includes/table.h</text>
</a>
</g>
</g>
<!-- Node18&#45;&gt;Node115 -->
<g id="edge149" class="edge">
<title>Node18&#45;&gt;Node115</title>
<path fill="none" stroke="midnightblue" d="M1817.56,-855.89C1698.68,-848.28 1452.26,-823.51 1452.26,-749 1452.26,-749 1452.26,-749 1452.26,-624 1452.26,-571.64 1610.67,-531.65 1698.03,-513.58"/>
<polygon fill="midnightblue" stroke="midnightblue" points="1698.96,-516.97 1708.06,-511.54 1697.56,-510.11 1698.96,-516.97"/>
</g>
<!-- Node18&#45;&gt;Node109 -->
<g id="edge158" class="edge">
<title>Node18&#45;&gt;Node109</title>
<path fill="none" stroke="midnightblue" d="M1817.6,-857.93C1646.36,-854.66 1179.1,-843.12 1116.26,-814 1080.03,-797.21 1054.26,-788.92 1054.26,-749 1054.26,-749 1054.26,-749 1054.26,-685.5 1054.26,-649.21 1054.26,-606.81 1054.26,-583.06"/>
<polygon fill="midnightblue" stroke="midnightblue" points="1057.76,-583.01 1054.26,-573.01 1050.76,-583.01 1057.76,-583.01"/>
</g>
<!-- Node20&#45;&gt;Node3 -->
<g id="edge26" class="edge">
<title>Node20&#45;&gt;Node3</title>
<path fill="none" stroke="midnightblue" d="M585.25,-302.46C614.29,-291.75 654.3,-271.64 638.26,-246 618.86,-214.99 583.65,-241.01 564.26,-210 556.95,-198.32 555.76,-189.84 564.26,-179 693.03,-14.77 813.61,-96.12 1020.26,-67 1084.43,-57.96 2085.08,-24.08 2278.89,-17.58"/>
<polygon fill="midnightblue" stroke="midnightblue" points="2279.13,-21.08 2289,-17.24 2278.89,-14.08 2279.13,-21.08"/>
</g>
<!-- Node20&#45;&gt;Node4 -->
<g id="edge30" class="edge">
<title>Node20&#45;&gt;Node4</title>
<path fill="none" stroke="midnightblue" d="M501.66,-305.9C445.57,-299.7 364.86,-287.33 342.26,-266 318.66,-243.73 323.26,-227.95 323.26,-195.5 323.26,-195.5 323.26,-195.5 323.26,-132 323.26,-95.28 342.52,-85.47 374.26,-67 423.94,-38.08 592.43,-23.96 670.69,-18.84"/>
<polygon fill="midnightblue" stroke="midnightblue" points="671.36,-22.31 681.11,-18.18 670.91,-15.32 671.36,-22.31"/>
</g>
<!-- Node20&#45;&gt;Node5 -->
<g id="edge31" class="edge">
<title>Node20&#45;&gt;Node5</title>
<path fill="none" stroke="midnightblue" d="M501.76,-305.88C438.36,-299.27 340.3,-286.15 309.26,-266 265.95,-237.9 238.04,-180.87 226.03,-151.85"/>
<polygon fill="midnightblue" stroke="midnightblue" points="229.27,-150.52 222.33,-142.52 222.77,-153.11 229.27,-150.52"/>
</g>
<!-- Node20&#45;&gt;Node6 -->
<g id="edge33" class="edge">
<title>Node20&#45;&gt;Node6</title>
<path fill="none" stroke="midnightblue" d="M614.77,-310.73C736.89,-309.44 1034.27,-302.46 1280.26,-266 1307.02,-262.03 1493.33,-222.63 1517.26,-210 1535.34,-200.45 1533.06,-188.32 1551.26,-179 1599.69,-154.2 1660.98,-143.06 1705.54,-138.06"/>
<polygon fill="midnightblue" stroke="midnightblue" points="1706.05,-141.53 1715.63,-137 1705.32,-134.57 1706.05,-141.53"/>
</g>
<!-- Node20&#45;&gt;Node8 -->
<g id="edge28" class="edge">
<title>Node20&#45;&gt;Node8</title>
<path fill="none" stroke="midnightblue" d="M614.92,-310.21C791.44,-307.48 1347.12,-296.84 1806.26,-266 2059.8,-248.97 2125.59,-257.31 2375.26,-210 2628.99,-161.92 2924.95,-62.66 3023.46,-28.42"/>
<polygon fill="midnightblue" stroke="midnightblue" points="3024.88,-31.63 3033.17,-25.04 3022.57,-25.03 3024.88,-31.63"/>
</g>
<!-- Node21 -->
<g id="node15" class="node">
<title>Node21</title>
<g id="a_node15"><a xlink:title=" ">
<polygon fill="none" stroke="#bfbfbf" points="219.26,-246.5 219.26,-265.5 257.26,-265.5 257.26,-246.5 219.26,-246.5"/>
<text text-anchor="middle" x="238.26" y="-253.5" font-family="Helvetica,sans-Serif" font-size="10.00">map</text>
</a>
</g>
</g>
<!-- Node20&#45;&gt;Node21 -->
<g id="edge24" class="edge">
<title>Node20&#45;&gt;Node21</title>
<path fill="none" stroke="midnightblue" d="M501.55,-304C443.41,-296.37 350.54,-282.97 271.26,-266 269.98,-265.73 268.69,-265.44 267.38,-265.13"/>
<polygon fill="midnightblue" stroke="midnightblue" points="267.92,-261.66 257.36,-262.6 266.2,-268.44 267.92,-261.66"/>
</g>
<!-- Node22 -->
<g id="node16" class="node">
<title>Node22</title>
<g id="a_node16"><a xlink:title=" ">
<polygon fill="none" stroke="#bfbfbf" points="529.26,-246.5 529.26,-265.5 561.26,-265.5 561.26,-246.5 529.26,-246.5"/>
<text text-anchor="middle" x="545.26" y="-253.5" font-family="Helvetica,sans-Serif" font-size="10.00">set</text>
</a>
</g>
</g>
<!-- Node20&#45;&gt;Node22 -->
<g id="edge25" class="edge">
<title>Node20&#45;&gt;Node22</title>
<path fill="none" stroke="midnightblue" d="M556.11,-302.08C554.39,-294.93 551.91,-284.64 549.76,-275.69"/>
<polygon fill="midnightblue" stroke="midnightblue" points="553.11,-274.65 547.36,-265.75 546.3,-276.29 553.11,-274.65"/>
</g>
<!-- Node23 -->
<g id="node17" class="node">
<title>Node23</title>
<g id="a_node17"><a xlink:title=" ">
<polygon fill="none" stroke="#bfbfbf" points="579.26,-246.5 579.26,-265.5 629.26,-265.5 629.26,-246.5 579.26,-246.5"/>
<text text-anchor="middle" x="604.26" y="-253.5" font-family="Helvetica,sans-Serif" font-size="10.00">cstring</text>
</a>
</g>
</g>
<!-- Node20&#45;&gt;Node23 -->
<g id="edge27" class="edge">
<title>Node20&#45;&gt;Node23</title>
<path fill="none" stroke="midnightblue" d="M565.85,-302.08C572.48,-294.3 582.28,-282.8 590.31,-273.37"/>
<polygon fill="midnightblue" stroke="midnightblue" points="592.98,-275.63 596.8,-265.75 587.65,-271.09 592.98,-275.63"/>
</g>
<!-- Node24 -->
<g id="node18" class="node">
<title>Node24</title>
<g id="a_node18"><a xlink:title=" ">
<polygon fill="none" stroke="#bfbfbf" points="351.76,-246.5 351.76,-265.5 406.76,-265.5 406.76,-246.5 351.76,-246.5"/>
<text text-anchor="middle" x="379.26" y="-253.5" font-family="Helvetica,sans-Serif" font-size="10.00">fstream</text>
</a>
</g>
</g>
<!-- Node20&#45;&gt;Node24 -->
<g id="edge29" class="edge">
<title>Node20&#45;&gt;Node24</title>
<path fill="none" stroke="midnightblue" d="M529.89,-302.44C499.34,-293.23 450.58,-278.52 416.85,-268.34"/>
<polygon fill="midnightblue" stroke="midnightblue" points="417.48,-264.88 406.9,-265.34 415.46,-271.58 417.48,-264.88"/>
</g>
<!-- Node25 -->
<g id="node19" class="node">
<title>Node25</title>
<g id="a_node19"><a xlink:title=" ">
<polygon fill="none" stroke="#bfbfbf" points="425.26,-246.5 425.26,-265.5 511.26,-265.5 511.26,-246.5 425.26,-246.5"/>
<text text-anchor="middle" x="468.26" y="-253.5" font-family="Helvetica,sans-Serif" font-size="10.00">unordered_set</text>
</a>
</g>
</g>
<!-- Node20&#45;&gt;Node25 -->
<g id="edge32" class="edge">
<title>Node20&#45;&gt;Node25</title>
<path fill="none" stroke="midnightblue" d="M543.8,-302.32C529.76,-293.9 508.21,-280.97 491.71,-271.07"/>
<polygon fill="midnightblue" stroke="midnightblue" points="493.06,-267.8 482.68,-265.65 489.46,-273.8 493.06,-267.8"/>
</g>
<!-- Node20&#45;&gt;Node26 -->
<g id="edge34" class="edge">
<title>Node20&#45;&gt;Node26</title>
<path fill="none" stroke="midnightblue" d="M614.88,-308.84C916.55,-297.18 2322.43,-241.25 2354.26,-210 2369.15,-195.38 2368.37,-169.98 2365.56,-152.6"/>
<polygon fill="midnightblue" stroke="midnightblue" points="2368.94,-151.66 2363.57,-142.53 2362.07,-153.02 2368.94,-151.66"/>
</g>
<!-- Node30 -->
<g id="node21" class="node">
<title>Node30</title>
<g id="a_node21"><a xlink:href="../../d9/da0/flags_8h.html" target="_top" xlink:title=" ">
<polygon fill="none" stroke="black" points="875.76,-246.5 875.76,-265.5 978.76,-265.5 978.76,-246.5 875.76,-246.5"/>
<text text-anchor="middle" x="927.26" y="-253.5" font-family="Helvetica,sans-Serif" font-size="10.00">containers/flags.h</text>
</a>
</g>
</g>
<!-- Node20&#45;&gt;Node30 -->
<g id="edge38" class="edge">
<title>Node20&#45;&gt;Node30</title>
<path fill="none" stroke="midnightblue" d="M615.1,-302.68C682.93,-292.76 795.9,-276.22 865.73,-266"/>
<polygon fill="midnightblue" stroke="midnightblue" points="866.32,-269.46 875.71,-264.54 865.3,-262.53 866.32,-269.46"/>
</g>
<!-- Node31 -->
<g id="node22" class="node">
<title>Node31</title>
<g id="a_node22"><a xlink:href="../../d9/d36/array__1d_8h.html" target="_top" xlink:title=" ">
<polygon fill="none" stroke="red" points="1149.26,-246.5 1149.26,-265.5 1271.26,-265.5 1271.26,-246.5 1149.26,-246.5"/>
<text text-anchor="middle" x="1210.26" y="-253.5" font-family="Helvetica,sans-Serif" font-size="10.00">containers/array_1d.h</text>
</a>
</g>
</g>
<!-- Node20&#45;&gt;Node31 -->
<g id="edge42" class="edge">
<title>Node20&#45;&gt;Node31</title>
<path fill="none" stroke="midnightblue" d="M614.98,-306.3C733.68,-296.47 1008.05,-273.75 1138.66,-262.93"/>
<polygon fill="midnightblue" stroke="midnightblue" points="1139.27,-266.39 1148.95,-262.08 1138.69,-259.42 1139.27,-266.39"/>
</g>
<!-- Node26&#45;&gt;Node3 -->
<g id="edge35" class="edge">
<title>Node26&#45;&gt;Node3</title>
<path fill="none" stroke="midnightblue" d="M2353.87,-123.25C2346.88,-114.56 2336.55,-100.6 2330.26,-87 2322.53,-70.3 2317.46,-49.86 2314.51,-35.3"/>
<polygon fill="midnightblue" stroke="midnightblue" points="2317.88,-34.25 2312.6,-25.07 2311,-35.54 2317.88,-34.25"/>
</g>
<!-- Node26&#45;&gt;Node4 -->
<g id="edge36" class="edge">
<title>Node26&#45;&gt;Node4</title>
<path fill="none" stroke="midnightblue" d="M2301,-126.83C2285.45,-125.53 2268.73,-124.18 2253.26,-123 1656.39,-77.52 928.9,-30.44 751.61,-19.08"/>
<polygon fill="midnightblue" stroke="midnightblue" points="751.65,-15.57 741.44,-18.42 751.2,-22.56 751.65,-15.57"/>
</g>
<!-- Node26&#45;&gt;Node14 -->
<g id="edge37" class="edge">
<title>Node26&#45;&gt;Node14</title>
<path fill="none" stroke="midnightblue" d="M2367.37,-123.08C2372.54,-115.53 2380.1,-104.49 2386.45,-95.23"/>
<polygon fill="midnightblue" stroke="midnightblue" points="2389.5,-96.98 2392.26,-86.75 2383.72,-93.02 2389.5,-96.98"/>
</g>
<!-- Node30&#45;&gt;Node3 -->
<g id="edge39" class="edge">
<title>Node30&#45;&gt;Node3</title>
<path fill="none" stroke="midnightblue" d="M930.18,-246.47C939.09,-221.93 968.54,-151.13 1020.26,-123 1097.29,-81.1 1130.61,-113.34 1214.26,-87 1234.75,-80.55 1237.38,-72.05 1258.26,-67 1309.04,-54.72 2107.06,-24.17 2278.84,-17.71"/>
<polygon fill="midnightblue" stroke="midnightblue" points="2279.15,-21.2 2289.02,-17.33 2278.89,-14.21 2279.15,-21.2"/>
</g>
<!-- Node30&#45;&gt;Node4 -->
<g id="edge40" class="edge">
<title>Node30&#45;&gt;Node4</title>
<path fill="none" stroke="midnightblue" d="M875.5,-250.51C797,-243.16 655.34,-227.63 640.26,-210 593.96,-155.88 662.58,-68.94 695.4,-32.94"/>
<polygon fill="midnightblue" stroke="midnightblue" points="698.26,-35 702.53,-25.3 693.15,-30.22 698.26,-35"/>
</g>
<!-- Node30&#45;&gt;Node6 -->
<g id="edge41" class="edge">
<title>Node30&#45;&gt;Node6</title>
<path fill="none" stroke="midnightblue" d="M933.86,-246.38C947.15,-229.79 978.98,-193.75 1015.26,-179 1078.47,-153.3 1539.4,-139.55 1705.67,-135.38"/>
<polygon fill="midnightblue" stroke="midnightblue" points="1705.81,-138.88 1715.72,-135.13 1705.63,-131.88 1705.81,-138.88"/>
</g>
<!-- Node31&#45;&gt;Node3 -->
<g id="edge43" class="edge">
<title>Node31&#45;&gt;Node3</title>
<path fill="none" stroke="midnightblue" d="M1158.72,-246.5C1104.04,-236.95 1024.26,-221.32 1015.26,-210 1006.68,-199.22 1007.08,-190.09 1015.26,-179 1040.17,-145.19 1334.92,-74.41 1376.26,-67 1466.5,-50.82 2123.73,-23.94 2278.62,-17.78"/>
<polygon fill="midnightblue" stroke="midnightblue" points="2279.04,-21.27 2288.89,-17.38 2278.76,-14.28 2279.04,-21.27"/>
</g>
<!-- Node31&#45;&gt;Node4 -->
<g id="edge44" class="edge">
<title>Node31&#45;&gt;Node4</title>
<path fill="none" stroke="midnightblue" d="M1148.93,-248.23C1066.3,-238.76 927.1,-221.43 906.26,-210 832.5,-169.54 844.53,-123.56 782.26,-67 767.28,-53.4 748.58,-40.23 734.13,-30.75"/>
<polygon fill="midnightblue" stroke="midnightblue" points="735.64,-27.56 725.33,-25.09 731.85,-33.44 735.64,-27.56"/>
</g>
<!-- Node31&#45;&gt;Node6 -->
<g id="edge45" class="edge">
<title>Node31&#45;&gt;Node6</title>
<path fill="none" stroke="midnightblue" d="M1212.39,-246.08C1216.83,-229.63 1228.78,-194.75 1253.26,-179 1290.53,-155.02 1578.29,-141.16 1705.32,-136.15"/>
<polygon fill="midnightblue" stroke="midnightblue" points="1705.79,-139.64 1715.65,-135.75 1705.52,-132.64 1705.79,-139.64"/>
</g>
<!-- Node35 -->
<g id="node23" class="node">
<title>Node35</title>
<g id="a_node23"><a xlink:href="../../d9/d3e/ublas__interface_8h.html" target="_top" xlink:title=" ">
<polygon fill="none" stroke="red" points="1024.26,-185 1024.26,-204 1168.26,-204 1168.26,-185 1024.26,-185"/>
<text text-anchor="middle" x="1096.26" y="-192" font-family="Helvetica,sans-Serif" font-size="10.00">includes/ublas_interface.h</text>
</a>
</g>
</g>
<!-- Node31&#45;&gt;Node35 -->
<g id="edge46" class="edge">
<title>Node31&#45;&gt;Node35</title>
<path fill="none" stroke="midnightblue" d="M1193.92,-246.48C1175.05,-236.62 1143.75,-220.29 1121.68,-208.77"/>
<polygon fill="midnightblue" stroke="midnightblue" points="1123.04,-205.53 1112.56,-204.01 1119.81,-211.74 1123.04,-205.53"/>
</g>
<!-- Node35&#45;&gt;Node3 -->
<g id="edge47" class="edge">
<title>Node35&#45;&gt;Node3</title>
<path fill="none" stroke="midnightblue" d="M1121.82,-184.93C1151.19,-175.03 1200.82,-158.15 1243.26,-143 1334.77,-110.32 1353.16,-86.95 1448.26,-67 1530.65,-49.72 2131.61,-23.93 2278.79,-17.83"/>
<polygon fill="midnightblue" stroke="midnightblue" points="2279.13,-21.32 2288.97,-17.41 2278.84,-14.32 2279.13,-21.32"/>
</g>
<!-- Node35&#45;&gt;Node4 -->
<g id="edge48" class="edge">
<title>Node35&#45;&gt;Node4</title>
<path fill="none" stroke="midnightblue" d="M1088.06,-184.85C1065.73,-161.83 1001,-98.65 934.26,-67 874.36,-38.6 797.72,-25.76 751.66,-20.27"/>
<polygon fill="midnightblue" stroke="midnightblue" points="751.81,-16.76 741.48,-19.11 751.02,-23.72 751.81,-16.76"/>
</g>
<!-- Node35&#45;&gt;Node6 -->
<g id="edge49" class="edge">
<title>Node35&#45;&gt;Node6</title>
<path fill="none" stroke="midnightblue" d="M1142.12,-184.98C1155.06,-182.79 1169.18,-180.6 1182.26,-179 1372.65,-155.65 1599.61,-142.25 1705.42,-136.84"/>
<polygon fill="midnightblue" stroke="midnightblue" points="1705.77,-140.32 1715.58,-136.32 1705.42,-133.33 1705.77,-140.32"/>
</g>
<!-- Node57&#45;&gt;Node3 -->
<g id="edge51" class="edge">
<title>Node57&#45;&gt;Node3</title>
<path fill="none" stroke="midnightblue" d="M1986.81,-623.81C2145.87,-619.21 2546.33,-581.5 2643.26,-322 2683.01,-215.57 2716.84,-134.24 2625.26,-67 2580.81,-34.36 2414.56,-21.91 2343.64,-18.02"/>
<polygon fill="midnightblue" stroke="midnightblue" points="2343.67,-14.51 2333.5,-17.48 2343.3,-21.5 2343.67,-14.51"/>
</g>
<!-- Node57&#45;&gt;Node4 -->
<g id="edge52" class="edge">
<title>Node57&#45;&gt;Node4</title>
<path fill="none" stroke="midnightblue" d="M1855.65,-622.35C1656.16,-617.14 1065.35,-600.09 981.26,-579 913.96,-562.12 900.52,-546.39 840.26,-512 801.61,-489.94 787.47,-488.67 757.26,-456 684.42,-377.24 726.39,-307.16 638.26,-246 554.69,-188.02 478.28,-287.37 412.26,-210 371,-161.65 371.23,-115.54 412.26,-67 444.89,-28.39 596.84,-19.29 670.72,-17.15"/>
<polygon fill="midnightblue" stroke="midnightblue" points="671.12,-20.64 681.03,-16.88 670.94,-13.64 671.12,-20.64"/>
</g>
<!-- Node57&#45;&gt;Node6 -->
<g id="edge55" class="edge">
<title>Node57&#45;&gt;Node6</title>
<path fill="none" stroke="midnightblue" d="M1912.81,-615.45C1904.83,-606.91 1893.1,-593.06 1886.26,-579 1871.02,-547.69 1867.26,-537.82 1867.26,-503 1867.26,-503 1867.26,-503 1867.26,-439.5 1867.26,-323.15 1960.52,-273.94 1893.26,-179 1883.69,-165.5 1846.09,-153.27 1814.09,-144.97"/>
<polygon fill="midnightblue" stroke="midnightblue" points="1814.93,-141.58 1804.38,-142.53 1813.22,-148.37 1814.93,-141.58"/>
</g>
<!-- Node57&#45;&gt;Node8 -->
<g id="edge53" class="edge">
<title>Node57&#45;&gt;Node8</title>
<path fill="none" stroke="midnightblue" d="M1986.93,-623.27C2074.02,-620.95 2231.9,-612.06 2362.26,-579 2499.95,-544.08 2528.47,-515.94 2657.26,-456 2743.4,-415.91 2757.12,-388.05 2847.26,-358 2960.16,-320.36 3095.26,-376.01 3095.26,-257 3095.26,-257 3095.26,-257 3095.26,-132 3095.26,-95.75 3078.16,-56.17 3066.9,-34.03"/>
<polygon fill="midnightblue" stroke="midnightblue" points="3069.99,-32.37 3062.22,-25.16 3063.8,-35.64 3069.99,-32.37"/>
</g>
<!-- Node57&#45;&gt;Node19 -->
<g id="edge54" class="edge">
<title>Node57&#45;&gt;Node19</title>
<path fill="none" stroke="midnightblue" d="M1948.13,-615.47C1970.7,-607.69 2003.32,-594.99 2029.26,-579 2136.67,-512.76 2164.51,-489.94 2240.26,-389 2253.99,-370.7 2265.91,-347.22 2273.31,-331.23"/>
<polygon fill="midnightblue" stroke="midnightblue" points="2276.58,-332.49 2277.49,-321.94 2270.2,-329.62 2276.58,-332.49"/>
</g>
<!-- Node57&#45;&gt;Node30 -->
<g id="edge103" class="edge">
<title>Node57&#45;&gt;Node30</title>
<path fill="none" stroke="midnightblue" d="M1903.07,-615.47C1807.19,-570.52 1364.09,-362.91 1349.26,-358 1274.29,-333.18 1250.71,-345.29 1175.26,-322 1153.17,-315.18 1149.28,-309.01 1127.26,-302 1080.52,-287.13 1026.13,-275.23 985.89,-267.41"/>
<polygon fill="midnightblue" stroke="midnightblue" points="986.45,-263.95 975.97,-265.51 985.14,-270.83 986.45,-263.95"/>
</g>
<!-- Node57&#45;&gt;Node58 -->
<g id="edge56" class="edge">
<title>Node57&#45;&gt;Node58</title>
<path fill="none" stroke="midnightblue" d="M1926.56,-615.48C1931.15,-608.09 1938,-597.08 1944.16,-587.17"/>
<polygon fill="midnightblue" stroke="midnightblue" points="1947.23,-588.86 1949.54,-578.52 1941.28,-585.17 1947.23,-588.86"/>
</g>
<!-- Node58&#45;&gt;Node3 -->
<g id="edge57" class="edge">
<title>Node58&#45;&gt;Node3</title>
<path fill="none" stroke="midnightblue" d="M2009.3,-548.49C2156.21,-508.1 2569.97,-394.06 2575.26,-389 2640.74,-326.42 2639.26,-286.08 2639.26,-195.5 2639.26,-195.5 2639.26,-195.5 2639.26,-132 2639.26,-97.84 2626.62,-86.03 2598.26,-67 2556.97,-39.29 2409.89,-24.36 2343.81,-18.92"/>
<polygon fill="midnightblue" stroke="midnightblue" points="2343.81,-15.41 2333.56,-18.1 2343.25,-22.39 2343.81,-15.41"/>
</g>
<!-- Node58&#45;&gt;Node4 -->
<g id="edge58" class="edge">
<title>Node58&#45;&gt;Node4</title>
<path fill="none" stroke="midnightblue" d="M1895.39,-561.53C1683.04,-557.98 1000.4,-544.15 907.26,-512 856.54,-494.5 809.26,-495.16 809.26,-441.5 809.26,-441.5 809.26,-441.5 809.26,-311 809.26,-280.2 804.53,-270.02 785.26,-246 732.32,-180.04 665.76,-217.24 625.26,-143 601.89,-100.17 656.36,-53.66 688.98,-30.81"/>
<polygon fill="midnightblue" stroke="midnightblue" points="691.2,-33.53 697.51,-25.02 687.27,-27.74 691.2,-33.53"/>
</g>
<!-- Node58&#45;&gt;Node6 -->
<g id="edge60" class="edge">
<title>Node58&#45;&gt;Node6</title>
<path fill="none" stroke="midnightblue" d="M1954.49,-548.24C1946.91,-518.77 1930.07,-448.88 1924.26,-389 1915.24,-296.05 1988,-253.17 1931.26,-179 1924.12,-169.67 1862.97,-154.79 1816.94,-144.72"/>
<polygon fill="midnightblue" stroke="midnightblue" points="1817.6,-141.28 1807.09,-142.59 1816.12,-148.12 1817.6,-141.28"/>
</g>
<!-- Node58&#45;&gt;Node14 -->
<g id="edge102" class="edge">
<title>Node58&#45;&gt;Node14</title>
<path fill="none" stroke="midnightblue" d="M1968.12,-548.35C1999.03,-505.04 2098.69,-372.96 2212.26,-302 2255.52,-274.96 2276.24,-290.01 2321.26,-266 2357.03,-246.92 2366.92,-240.82 2393.26,-210 2420.55,-178.06 2443.04,-163.03 2430.26,-123 2426.92,-112.54 2420.16,-102.43 2413.71,-94.45"/>
<polygon fill="midnightblue" stroke="midnightblue" points="2416.2,-91.98 2407.01,-86.71 2410.91,-96.56 2416.2,-91.98"/>
</g>
<!-- Node58&#45;&gt;Node19 -->
<g id="edge59" class="edge">
<title>Node58&#45;&gt;Node19</title>
<path fill="none" stroke="midnightblue" d="M1996.14,-548.41C2017.85,-539.51 2045.1,-526.89 2067.26,-512 2151.47,-455.43 2234.7,-365.82 2267.09,-329.3"/>
<polygon fill="midnightblue" stroke="midnightblue" points="2269.9,-331.4 2273.88,-321.58 2264.65,-326.78 2269.9,-331.4"/>
</g>
<!-- Node58&#45;&gt;Node59 -->
<g id="edge61" class="edge">
<title>Node58&#45;&gt;Node59</title>
<path fill="none" stroke="midnightblue" d="M1895.45,-553.8C1823.23,-543.26 1712.69,-525.26 1698.26,-512 1684.08,-498.98 1679.68,-476.73 1678.44,-460.7"/>
<polygon fill="midnightblue" stroke="midnightblue" points="1681.93,-460.2 1678.01,-450.35 1674.93,-460.49 1681.93,-460.2"/>
</g>
<!-- Node76 -->
<g id="node33" class="node">
<title>Node76</title>
<g id="a_node33"><a xlink:href="../../dc/d8e/kratos__components_8h.html" target="_top" xlink:title=" ">
<polygon fill="none" stroke="black" points="916.76,-492.5 916.76,-511.5 1081.76,-511.5 1081.76,-492.5 916.76,-492.5"/>
<text text-anchor="middle" x="999.26" y="-499.5" font-family="Helvetica,sans-Serif" font-size="10.00">includes/kratos_components.h</text>
</a>
</g>
</g>
<!-- Node58&#45;&gt;Node76 -->
<g id="edge86" class="edge">
<title>Node58&#45;&gt;Node76</title>
<path fill="none" stroke="midnightblue" d="M1895.7,-558.62C1731.25,-548.42 1286.12,-520.8 1091.94,-508.75"/>
<polygon fill="midnightblue" stroke="midnightblue" points="1091.96,-505.24 1081.76,-508.12 1091.52,-512.23 1091.96,-505.24"/>
</g>
<!-- Node59&#45;&gt;Node3 -->
<g id="edge62" class="edge">
<title>Node59&#45;&gt;Node3</title>
<path fill="none" stroke="midnightblue" d="M1675.77,-431C1664.49,-390.42 1622.16,-214.66 1706.26,-123 1784.49,-37.74 2164.8,-20.5 2278.86,-17.23"/>
<polygon fill="midnightblue" stroke="midnightblue" points="2279.14,-20.72 2289.05,-16.95 2278.96,-13.72 2279.14,-20.72"/>
</g>
<!-- Node59&#45;&gt;Node4 -->
<g id="edge63" class="edge">
<title>Node59&#45;&gt;Node4</title>
<path fill="none" stroke="midnightblue" d="M1651.65,-430.92C1601.88,-415.07 1491.16,-380.75 1396.26,-358 1313.53,-338.17 1289.22,-348.14 1208.26,-322 1188.2,-315.52 1185.13,-309.03 1165.26,-302 1103.07,-279.99 1082.31,-290.98 1021.26,-266 1005.03,-259.36 1003.76,-251.91 987.26,-246 890.26,-211.27 839.7,-273.1 758.26,-210 704.16,-168.1 705.62,-75.32 709.06,-35.39"/>
<polygon fill="midnightblue" stroke="midnightblue" points="712.55,-35.71 710.07,-25.41 705.59,-35.01 712.55,-35.71"/>
</g>
<!-- Node59&#45;&gt;Node6 -->
<g id="edge64" class="edge">
<title>Node59&#45;&gt;Node6</title>
<path fill="none" stroke="midnightblue" d="M1689.31,-430.87C1700.61,-421.56 1718.06,-405.79 1729.26,-389 1762,-339.91 1767.94,-323.91 1779.26,-266 1786.68,-228.05 1785.07,-217.23 1779.26,-179 1777.89,-170 1775.07,-160.33 1772.31,-152.26"/>
<polygon fill="midnightblue" stroke="midnightblue" points="1775.57,-150.98 1768.86,-142.78 1768.99,-153.37 1775.57,-150.98"/>
</g>
<!-- Node59&#45;&gt;Node60 -->
<g id="edge65" class="edge">
<title>Node59&#45;&gt;Node60</title>
<path fill="none" stroke="midnightblue" d="M1672.54,-430.79C1657.78,-408.53 1616.81,-348.07 1577.26,-302 1568.44,-291.73 1557.76,-280.99 1549.01,-272.57"/>
<polygon fill="midnightblue" stroke="midnightblue" points="1551.3,-269.92 1541.64,-265.58 1546.49,-275 1551.3,-269.92"/>
</g>
<!-- Node59&#45;&gt;Node74 -->
<g id="edge80" class="edge">
<title>Node59&#45;&gt;Node74</title>
<path fill="none" stroke="midnightblue" d="M1717.92,-430.94C1772.39,-419.17 1870.35,-398.02 1929.63,-385.22"/>
<polygon fill="midnightblue" stroke="midnightblue" points="1930.47,-388.62 1939.51,-383.08 1929,-381.77 1930.47,-388.62"/>
</g>
<!-- Node60&#45;&gt;Node3 -->
<g id="edge66" class="edge">
<title>Node60&#45;&gt;Node3</title>
<path fill="none" stroke="midnightblue" d="M1479.74,-250.19C1403.01,-242.61 1267.75,-227.02 1253.26,-210 1244.32,-199.51 1245.58,-190.44 1253.26,-179 1289.93,-124.39 1463.15,-81.75 1527.26,-67 1673.85,-33.27 2149.85,-20.17 2278.79,-17.2"/>
<polygon fill="midnightblue" stroke="midnightblue" points="2279.24,-20.69 2289.16,-16.96 2279.09,-13.69 2279.24,-20.69"/>
</g>
<!-- Node60&#45;&gt;Node4 -->
<g id="edge67" class="edge">
<title>Node60&#45;&gt;Node4</title>
<path fill="none" stroke="midnightblue" d="M1479.51,-250.47C1348.1,-239.19 1016.54,-210.67 1015.26,-210 941.99,-171.69 965.8,-111.73 896.26,-67 851.66,-38.31 790.95,-25.77 751.44,-20.39"/>
<polygon fill="midnightblue" stroke="midnightblue" points="751.74,-16.91 741.38,-19.12 750.86,-23.85 751.74,-16.91"/>
</g>
<!-- Node61 -->
<g id="node28" class="node">
<title>Node61</title>
<g id="a_node28"><a xlink:href="../../d4/d5e/registry__item_8h.html" target="_top" xlink:title=" ">
<polygon fill="none" stroke="black" points="2211.26,-185 2211.26,-204 2345.26,-204 2345.26,-185 2211.26,-185"/>
<text text-anchor="middle" x="2278.26" y="-192" font-family="Helvetica,sans-Serif" font-size="10.00">includes/registry_item.h</text>
</a>
</g>
</g>
<!-- Node60&#45;&gt;Node61 -->
<g id="edge68" class="edge">
<title>Node60&#45;&gt;Node61</title>
<path fill="none" stroke="midnightblue" d="M1584.86,-250.42C1601.61,-248.98 1620.21,-247.4 1637.26,-246 1840.49,-229.28 2080.07,-210.71 2200.64,-201.44"/>
<polygon fill="midnightblue" stroke="midnightblue" points="2201.17,-204.91 2210.88,-200.66 2200.64,-197.93 2201.17,-204.91"/>
</g>
<!-- Node63 -->
<g id="node30" class="node">
<title>Node63</title>
<g id="a_node30"><a xlink:href="../../de/d07/parallel__utilities_8h.html" target="_top" xlink:title=" ">
<polygon fill="none" stroke="red" points="1262.76,-179.5 1262.76,-209.5 1355.76,-209.5 1355.76,-179.5 1262.76,-179.5"/>
<text text-anchor="start" x="1270.76" y="-197.5" font-family="Helvetica,sans-Serif" font-size="10.00">utilities/parallel</text>
<text text-anchor="middle" x="1309.26" y="-186.5" font-family="Helvetica,sans-Serif" font-size="10.00">_utilities.h</text>
</a>
</g>
</g>
<!-- Node60&#45;&gt;Node63 -->
<g id="edge74" class="edge">
<title>Node60&#45;&gt;Node63</title>
<path fill="none" stroke="midnightblue" d="M1500.31,-246.48C1465.22,-237.11 1408.22,-221.9 1365.59,-210.53"/>
<polygon fill="midnightblue" stroke="midnightblue" points="1366.47,-207.14 1355.91,-207.95 1364.67,-213.91 1366.47,-207.14"/>
</g>
<!-- Node73 -->
<g id="node31" class="node">
<title>Node73</title>
<g id="a_node31"><a xlink:href="../../d9/d9f/string__utilities_8h.html" target="_top" xlink:title=" ">
<polygon fill="none" stroke="red" points="1373.76,-185 1373.76,-204 1508.76,-204 1508.76,-185 1373.76,-185"/>
<text text-anchor="middle" x="1441.26" y="-192" font-family="Helvetica,sans-Serif" font-size="10.00">utilities/string_utilities.h</text>
</a>
</g>
</g>
<!-- Node60&#45;&gt;Node73 -->
<g id="edge77" class="edge">
<title>Node60&#45;&gt;Node73</title>
<path fill="none" stroke="midnightblue" d="M1519.22,-246.48C1504.49,-236.84 1480.28,-221.02 1462.75,-209.55"/>
<polygon fill="midnightblue" stroke="midnightblue" points="1464.56,-206.55 1454.27,-204.01 1460.73,-212.41 1464.56,-206.55"/>
</g>
<!-- Node61&#45;&gt;Node3 -->
<g id="edge69" class="edge">
<title>Node61&#45;&gt;Node3</title>
<path fill="none" stroke="midnightblue" d="M2279.85,-184.96C2284.89,-157.93 2300.59,-73.74 2307.69,-35.61"/>
<polygon fill="midnightblue" stroke="midnightblue" points="2311.21,-35.84 2309.6,-25.37 2304.33,-34.56 2311.21,-35.84"/>
</g>
<!-- Node61&#45;&gt;Node4 -->
<g id="edge70" class="edge">
<title>Node61&#45;&gt;Node4</title>
<path fill="none" stroke="midnightblue" d="M2232.03,-184.99C2220.67,-182.96 2208.53,-180.85 2197.26,-179 2031.41,-151.74 1990.08,-143.46 1823.26,-123 1608.68,-96.68 924.47,-35.43 751.35,-20.05"/>
<polygon fill="midnightblue" stroke="midnightblue" points="751.66,-16.57 741.39,-19.17 751.04,-23.54 751.66,-16.57"/>
</g>
<!-- Node61&#45;&gt;Node5 -->
<g id="edge71" class="edge">
<title>Node61&#45;&gt;Node5</title>
<path fill="none" stroke="midnightblue" d="M2211.21,-191.56C1896.48,-182.47 568.7,-144.1 276.35,-135.65"/>
<polygon fill="midnightblue" stroke="midnightblue" points="276.09,-132.14 265.99,-135.35 275.89,-139.14 276.09,-132.14"/>
</g>
<!-- Node61&#45;&gt;Node6 -->
<g id="edge73" class="edge">
<title>Node61&#45;&gt;Node6</title>
<path fill="none" stroke="midnightblue" d="M2234.22,-184.96C2222.26,-182.82 2209.29,-180.66 2197.26,-179 2034.47,-156.5 1992.44,-162.45 1829.26,-143 1827.79,-142.83 1826.31,-142.65 1824.82,-142.46"/>
<polygon fill="midnightblue" stroke="midnightblue" points="1825.21,-138.98 1814.84,-141.18 1824.32,-145.93 1825.21,-138.98"/>
</g>
<!-- Node62 -->
<g id="node29" class="node">
<title>Node62</title>
<g id="a_node29"><a xlink:title=" ">
<polygon fill="none" stroke="#bfbfbf" points="2209.76,-123.5 2209.76,-142.5 2244.76,-142.5 2244.76,-123.5 2209.76,-123.5"/>
<text text-anchor="middle" x="2227.26" y="-130.5" font-family="Helvetica,sans-Serif" font-size="10.00">any</text>
</a>
</g>
</g>
<!-- Node61&#45;&gt;Node62 -->
<g id="edge72" class="edge">
<title>Node61&#45;&gt;Node62</title>
<path fill="none" stroke="midnightblue" d="M2270.95,-184.98C2263.22,-175.96 2250.85,-161.52 2241.24,-150.31"/>
<polygon fill="midnightblue" stroke="midnightblue" points="2243.72,-147.82 2234.55,-142.51 2238.4,-152.38 2243.72,-147.82"/>
</g>
<!-- Node63&#45;&gt;Node4 -->
<g id="edge75" class="edge">
<title>Node63&#45;&gt;Node4</title>
<path fill="none" stroke="midnightblue" d="M1276.24,-179.33C1215.75,-153.82 1082.64,-99.76 966.26,-67 891.48,-45.95 801.96,-30.37 751.35,-22.43"/>
<polygon fill="midnightblue" stroke="midnightblue" points="751.87,-18.97 741.45,-20.9 750.8,-25.89 751.87,-18.97"/>
</g>
<!-- Node63&#45;&gt;Node6 -->
<g id="edge76" class="edge">
<title>Node63&#45;&gt;Node6</title>
<path fill="none" stroke="midnightblue" d="M1355.96,-180.69C1358.76,-180.08 1361.54,-179.51 1364.26,-179 1484.2,-156.58 1626.56,-143.84 1705.31,-137.98"/>
<polygon fill="midnightblue" stroke="midnightblue" points="1705.81,-141.46 1715.53,-137.23 1705.3,-134.47 1705.81,-141.46"/>
</g>
<!-- Node73&#45;&gt;Node3 -->
<g id="edge78" class="edge">
<title>Node73&#45;&gt;Node3</title>
<path fill="none" stroke="midnightblue" d="M1446.18,-185C1460.48,-161.2 1504.72,-93.91 1562.26,-67 1627.85,-36.32 2144,-20.85 2279.02,-17.3"/>
<polygon fill="midnightblue" stroke="midnightblue" points="2279.23,-20.8 2289.14,-17.04 2279.05,-13.8 2279.23,-20.8"/>
</g>
<!-- Node73&#45;&gt;Node6 -->
<g id="edge79" class="edge">
<title>Node73&#45;&gt;Node6</title>
<path fill="none" stroke="midnightblue" d="M1487.68,-184.98C1546.02,-174.26 1646.1,-155.88 1708.81,-144.37"/>
<polygon fill="midnightblue" stroke="midnightblue" points="1709.72,-147.76 1718.92,-142.51 1708.45,-140.87 1709.72,-147.76"/>
</g>
<!-- Node74&#45;&gt;Node3 -->
<g id="edge81" class="edge">
<title>Node74&#45;&gt;Node3</title>
<path fill="none" stroke="midnightblue" d="M2015.86,-363.96C2089.52,-345.45 2258.57,-296.23 2375.26,-210 2435.65,-165.37 2509.31,-127.81 2465.26,-67 2437.54,-28.74 2379.92,-18.94 2343.56,-16.73"/>
<polygon fill="midnightblue" stroke="midnightblue" points="2343.6,-13.23 2333.46,-16.28 2343.29,-20.22 2343.6,-13.23"/>
</g>
<!-- Node74&#45;&gt;Node4 -->
<g id="edge82" class="edge">
<title>Node74&#45;&gt;Node4</title>
<path fill="none" stroke="midnightblue" d="M1933.08,-366.96C1768.85,-347.2 1218.7,-280.61 1140.26,-266 1103.8,-259.21 1095.52,-253.76 1059.26,-246 971.8,-227.27 937.71,-256.42 861.26,-210 788.88,-166.06 738.32,-73.34 719.44,-34.36"/>
<polygon fill="midnightblue" stroke="midnightblue" points="722.59,-32.82 715.15,-25.27 716.26,-35.81 722.59,-32.82"/>
</g>
<!-- Node74&#45;&gt;Node6 -->
<g id="edge84" class="edge">
<title>Node74&#45;&gt;Node6</title>
<path fill="none" stroke="midnightblue" d="M1982.04,-363.87C1991.05,-334.08 2016.21,-234.45 1969.26,-179 1964.37,-173.23 1879.2,-155.86 1820.47,-144.47"/>
<polygon fill="midnightblue" stroke="midnightblue" points="1821.04,-141.02 1810.56,-142.56 1819.72,-147.89 1821.04,-141.02"/>
</g>
<!-- Node74&#45;&gt;Node19 -->
<g id="edge83" class="edge">
<title>Node74&#45;&gt;Node19</title>
<path fill="none" stroke="midnightblue" d="M2022.53,-363.98C2082.25,-352.21 2188.9,-331.2 2244.8,-320.18"/>
<polygon fill="midnightblue" stroke="midnightblue" points="2245.48,-323.62 2254.62,-318.25 2244.13,-316.75 2245.48,-323.62"/>
</g>
<!-- Node74&#45;&gt;Node20 -->
<g id="edge85" class="edge">
<title>Node74&#45;&gt;Node20</title>
<path fill="none" stroke="midnightblue" d="M1933.19,-370.57C1725,-361.85 871.6,-326.12 625.17,-315.8"/>
<polygon fill="midnightblue" stroke="midnightblue" points="625.07,-312.29 614.93,-315.37 624.78,-319.29 625.07,-312.29"/>
</g>
<!-- Node76&#45;&gt;Node3 -->
<g id="edge87" class="edge">
<title>Node76&#45;&gt;Node3</title>
<path fill="none" stroke="midnightblue" d="M988.56,-492.45C950.22,-460.72 824.2,-346.39 866.26,-246 910.71,-139.89 946.73,-110.46 1053.26,-67 1067.89,-61.03 2083.7,-24.6 2278.98,-17.65"/>
<polygon fill="midnightblue" stroke="midnightblue" points="2279.3,-21.14 2289.17,-17.28 2279.05,-14.14 2279.3,-21.14"/>
</g>
<!-- Node76&#45;&gt;Node4 -->
<g id="edge88" class="edge">
<title>Node76&#45;&gt;Node4</title>
<path fill="none" stroke="midnightblue" d="M916.57,-500.8C814.42,-498.94 635.91,-490.43 487.26,-456 325.79,-418.6 277.13,-413.97 139.26,-322 106.04,-299.85 77.26,-296.92 77.26,-257 77.26,-257 77.26,-257 77.26,-132 77.26,-101.2 76.74,-85.63 101.26,-67 146.52,-32.6 542.31,-20.43 671.01,-17.35"/>
<polygon fill="midnightblue" stroke="midnightblue" points="671.31,-20.85 681.22,-17.12 671.14,-13.85 671.31,-20.85"/>
</g>
<!-- Node76&#45;&gt;Node6 -->
<g id="edge91" class="edge">
<title>Node76&#45;&gt;Node6</title>
<path fill="none" stroke="midnightblue" d="M1012.41,-492.37C1035.8,-477.29 1086.48,-445.75 1132.26,-425 1329.65,-335.51 1402.37,-368.64 1593.26,-266 1597.44,-263.75 1702.15,-182.84 1746.11,-148.83"/>
<polygon fill="midnightblue" stroke="midnightblue" points="1748.27,-151.57 1754.04,-142.69 1743.99,-146.04 1748.27,-151.57"/>
</g>
<!-- Node76&#45;&gt;Node21 -->
<g id="edge89" class="edge">
<title>Node76&#45;&gt;Node21</title>
<path fill="none" stroke="midnightblue" d="M916.75,-492.49C770,-476.3 470.39,-438.28 378.26,-389 322.97,-359.43 273.5,-302.27 251.03,-273.86"/>
<polygon fill="midnightblue" stroke="midnightblue" points="253.61,-271.48 244.71,-265.73 248.08,-275.77 253.61,-271.48"/>
</g>
<!-- Node76&#45;&gt;Node30 -->
<g id="edge98" class="edge">
<title>Node76&#45;&gt;Node30</title>
<path fill="none" stroke="midnightblue" d="M996.69,-492.32C986.31,-457.11 947.19,-324.56 932.7,-275.45"/>
<polygon fill="midnightblue" stroke="midnightblue" points="935.98,-274.18 929.79,-265.58 929.26,-276.16 935.98,-274.18"/>
</g>
<!-- Node76&#45;&gt;Node59 -->
<g id="edge99" class="edge">
<title>Node76&#45;&gt;Node59</title>
<path fill="none" stroke="midnightblue" d="M1081.84,-493.76C1216.76,-481.94 1482.07,-458.69 1608.31,-447.63"/>
<polygon fill="midnightblue" stroke="midnightblue" points="1608.97,-451.09 1618.62,-446.73 1608.36,-444.11 1608.97,-451.09"/>
</g>
<!-- Node77 -->
<g id="node34" class="node">
<title>Node77</title>
<g id="a_node34"><a xlink:title=" ">
<polygon fill="none" stroke="#bfbfbf" points="837.76,-431 837.76,-450 894.76,-450 894.76,-431 837.76,-431"/>
<text text-anchor="middle" x="866.26" y="-438" font-family="Helvetica,sans-Serif" font-size="10.00">typeinfo</text>
</a>
</g>
</g>
<!-- Node76&#45;&gt;Node77 -->
<g id="edge90" class="edge">
<title>Node76&#45;&gt;Node77</title>
<path fill="none" stroke="midnightblue" d="M980.2,-492.48C957.78,-482.45 920.35,-465.7 894.54,-454.15"/>
<polygon fill="midnightblue" stroke="midnightblue" points="895.83,-450.9 885.28,-450.01 892.98,-457.29 895.83,-450.9"/>
</g>
<!-- Node78 -->
<g id="node35" class="node">
<title>Node78</title>
<g id="a_node35"><a xlink:href="../../d9/dd1/data__communicator_8h.html" target="_top" xlink:title=" ">
<polygon fill="none" stroke="red" points="1217.26,-302.5 1217.26,-321.5 1383.26,-321.5 1383.26,-302.5 1217.26,-302.5"/>
<text text-anchor="middle" x="1300.26" y="-309.5" font-family="Helvetica,sans-Serif" font-size="10.00">includes/data_communicator.h</text>
</a>
</g>
</g>
<!-- Node76&#45;&gt;Node78 -->
<g id="edge92" class="edge">
<title>Node76&#45;&gt;Node78</title>
<path fill="none" stroke="midnightblue" d="M1004.41,-492.42C1013.95,-477.12 1035.74,-444.9 1061.26,-425 1124.47,-375.7 1212.9,-341.48 1262.56,-324.75"/>
<polygon fill="midnightblue" stroke="midnightblue" points="1263.86,-328 1272.25,-321.54 1261.66,-321.36 1263.86,-328"/>
</g>
<!-- Node82 -->
<g id="node36" class="node">
<title>Node82</title>
<g id="a_node36"><a xlink:href="../../da/d07/quaternion_8h.html" target="_top" xlink:title=" ">
<polygon fill="none" stroke="red" points="387.26,-364 387.26,-383 505.26,-383 505.26,-364 387.26,-364"/>
<text text-anchor="middle" x="446.26" y="-371" font-family="Helvetica,sans-Serif" font-size="10.00">utilities/quaternion.h</text>
</a>
</g>
</g>
<!-- Node76&#45;&gt;Node82 -->
<g id="edge100" class="edge">
<title>Node76&#45;&gt;Node82</title>
<path fill="none" stroke="midnightblue" d="M961.68,-492.4C863.83,-470.02 601.27,-409.96 493.46,-385.3"/>
<polygon fill="midnightblue" stroke="midnightblue" points="494.05,-381.84 483.52,-383.02 492.49,-388.67 494.05,-381.84"/>
</g>
<!-- Node78&#45;&gt;Node3 -->
<g id="edge93" class="edge">
<title>Node78&#45;&gt;Node3</title>
<path fill="none" stroke="midnightblue" d="M1265.24,-302.43C1232.58,-294.14 1182.65,-280.7 1140.26,-266 1109.57,-255.36 1023.29,-237.01 1005.26,-210 997.61,-198.54 998.79,-191.17 1005.26,-179 1059.86,-76.3 1141.52,-128.29 1250.26,-87 1267.37,-80.5 1268.66,-72.03 1286.26,-67 1335.08,-53.06 2109.94,-23.89 2278.89,-17.68"/>
<polygon fill="midnightblue" stroke="midnightblue" points="2279.27,-21.17 2289.13,-17.3 2279.01,-14.17 2279.27,-21.17"/>
</g>
<!-- Node78&#45;&gt;Node4 -->
<g id="edge94" class="edge">
<title>Node78&#45;&gt;Node4</title>
<path fill="none" stroke="midnightblue" d="M1238.64,-302.47C1191.62,-295.14 1125.57,-283.03 1069.26,-266 1047.13,-259.31 1043.5,-252.28 1021.26,-246 922.11,-217.99 876.97,-268.63 792.26,-210 732.84,-168.88 716.87,-75.26 712.69,-35.23"/>
<polygon fill="midnightblue" stroke="midnightblue" points="716.15,-34.68 711.77,-25.04 709.18,-35.31 716.15,-34.68"/>
</g>
<!-- Node78&#45;&gt;Node6 -->
<g id="edge97" class="edge">
<title>Node78&#45;&gt;Node6</title>
<path fill="none" stroke="midnightblue" d="M1316.39,-302.46C1341.68,-289.26 1392.42,-263.62 1437.26,-246 1486.71,-226.57 1500.92,-227.01 1551.26,-210 1589.75,-196.99 1598.98,-192.63 1637.26,-179 1668.99,-167.7 1705.22,-154.98 1731.01,-145.96"/>
<polygon fill="midnightblue" stroke="midnightblue" points="1732.41,-149.17 1740.7,-142.57 1730.1,-142.57 1732.41,-149.17"/>
</g>
<!-- Node78&#45;&gt;Node30 -->
<g id="edge96" class="edge">
<title>Node78&#45;&gt;Node30</title>
<path fill="none" stroke="midnightblue" d="M1241.15,-302.44C1172.23,-292.47 1058.86,-276.05 988.88,-265.92"/>
<polygon fill="midnightblue" stroke="midnightblue" points="989.27,-262.44 978.88,-264.47 988.27,-269.37 989.27,-262.44"/>
</g>
<!-- Node78&#45;&gt;Node31 -->
<g id="edge95" class="edge">
<title>Node78&#45;&gt;Node31</title>
<path fill="none" stroke="midnightblue" d="M1285.8,-302.32C1271.76,-293.9 1250.21,-280.97 1233.71,-271.07"/>
<polygon fill="midnightblue" stroke="midnightblue" points="1235.06,-267.8 1224.68,-265.65 1231.46,-273.8 1235.06,-267.8"/>
</g>
<!-- Node82&#45;&gt;Node20 -->
<g id="edge101" class="edge">
<title>Node82&#45;&gt;Node20</title>
<path fill="none" stroke="midnightblue" d="M462.3,-363.98C480.85,-354.12 511.6,-337.79 533.28,-326.27"/>
<polygon fill="midnightblue" stroke="midnightblue" points="535.05,-329.29 542.24,-321.51 531.77,-323.11 535.05,-329.29"/>
</g>
<!-- Node83&#45;&gt;Node3 -->
<g id="edge106" class="edge">
<title>Node83&#45;&gt;Node3</title>
<path fill="none" stroke="midnightblue" d="M2300.01,-738.39C2316.53,-730.3 2340.78,-717.2 2359.26,-702 2563.94,-533.61 2661.67,-472.78 2696.26,-210 2704.95,-143.94 2708.09,-101.77 2651.26,-67 2599.95,-35.61 2418.62,-22.34 2343.86,-18.12"/>
<polygon fill="midnightblue" stroke="midnightblue" points="2343.8,-14.61 2333.63,-17.56 2343.42,-21.6 2343.8,-14.61"/>
</g>
<!-- Node83&#45;&gt;Node4 -->
<g id="edge107" class="edge">
<title>Node83&#45;&gt;Node4</title>
<path fill="none" stroke="midnightblue" d="M2233.01,-744.41C2091.01,-736.69 1680.75,-713.64 1621.26,-702 1500.02,-678.28 1478.16,-640.38 1357.26,-615 1192.96,-580.51 1143.07,-623.7 981.26,-579 873.72,-549.29 771.26,-553.06 771.26,-441.5 771.26,-441.5 771.26,-441.5 771.26,-311 771.26,-242.3 701.26,-260.1 654.26,-210 630.83,-185.04 624.99,-176.1 616.26,-143 607.53,-109.94 608.45,-94.88 628.26,-67 640.45,-49.83 660.5,-37.39 677.84,-29.16"/>
<polygon fill="midnightblue" stroke="midnightblue" points="679.42,-32.29 687.12,-25.01 676.57,-25.89 679.42,-32.29"/>
</g>
<!-- Node83&#45;&gt;Node6 -->
<g id="edge110" class="edge">
<title>Node83&#45;&gt;Node6</title>
<path fill="none" stroke="midnightblue" d="M2281.26,-738.49C2281.26,-718.74 2281.26,-668.22 2281.26,-626 2281.26,-626 2281.26,-626 2281.26,-501 2281.26,-412.28 2123.95,-219.96 2045.26,-179 1957.94,-133.55 1921.98,-157.68 1824.89,-143.82"/>
<polygon fill="midnightblue" stroke="midnightblue" points="1825.4,-140.35 1814.98,-142.3 1824.34,-147.27 1825.4,-140.35"/>
</g>
<!-- Node83&#45;&gt;Node8 -->
<g id="edge108" class="edge">
<title>Node83&#45;&gt;Node8</title>
<path fill="none" stroke="midnightblue" d="M2325.92,-738.46C2414.45,-720.08 2616.12,-670.79 2761.26,-579 2807.21,-549.94 2807.73,-529.33 2847.26,-492 2879.99,-461.08 2887.04,-451.76 2923.26,-425 3019.39,-353.98 3133.26,-376.52 3133.26,-257 3133.26,-257 3133.26,-257 3133.26,-132 3133.26,-90.31 3098.28,-52.03 3075.78,-31.72"/>
<polygon fill="midnightblue" stroke="midnightblue" points="3077.99,-29 3068.15,-25.08 3073.39,-34.28 3077.99,-29"/>
</g>
<!-- Node83&#45;&gt;Node19 -->
<g id="edge109" class="edge">
<title>Node83&#45;&gt;Node19</title>
<path fill="none" stroke="midnightblue" d="M2284.86,-738.22C2288.31,-729.28 2293.29,-714.94 2295.26,-702 2313.75,-580.29 2302.91,-547.87 2295.26,-425 2293.2,-392.02 2287.78,-353.9 2284.32,-331.72"/>
<polygon fill="midnightblue" stroke="midnightblue" points="2287.75,-331 2282.72,-321.68 2280.84,-332.11 2287.75,-331"/>
</g>
<!-- Node83&#45;&gt;Node30 -->
<g id="edge117" class="edge">
<title>Node83&#45;&gt;Node30</title>
<path fill="none" stroke="midnightblue" d="M2233.15,-744.6C2103.44,-737.92 1752.9,-718.58 1703.26,-702 1485.86,-629.39 1468.02,-537.37 1268.26,-425 1155.43,-361.53 1015.3,-296.69 955.95,-269.85"/>
<polygon fill="midnightblue" stroke="midnightblue" points="957.04,-266.5 946.49,-265.58 954.16,-272.88 957.04,-266.5"/>
</g>
<!-- Node83&#45;&gt;Node58 -->
<g id="edge118" class="edge">
<title>Node83&#45;&gt;Node58</title>
<path fill="none" stroke="midnightblue" d="M2266.11,-738.44C2217.05,-710.72 2061.68,-622.93 1992.29,-583.73"/>
<polygon fill="midnightblue" stroke="midnightblue" points="1993.91,-580.63 1983.49,-578.75 1990.47,-586.72 1993.91,-580.63"/>
</g>
<!-- Node83&#45;&gt;Node87 -->
<g id="edge111" class="edge">
<title>Node83&#45;&gt;Node87</title>
<path fill="none" stroke="midnightblue" d="M2293.49,-738.39C2304.78,-730.01 2321.53,-716.47 2333.26,-702 2416.05,-599.86 2481.07,-454.51 2504.67,-398.12"/>
<polygon fill="midnightblue" stroke="midnightblue" points="2507.99,-399.24 2508.58,-388.66 2501.52,-396.56 2507.99,-399.24"/>
</g>
<!-- Node83&#45;&gt;Node99 -->
<g id="edge119" class="edge">
<title>Node83&#45;&gt;Node99</title>
<path fill="none" stroke="midnightblue" d="M2233.2,-741.35C2144.39,-730.91 1954.06,-708.52 1848.88,-696.16"/>
<polygon fill="midnightblue" stroke="midnightblue" points="1849.01,-692.65 1838.67,-694.96 1848.19,-699.6 1849.01,-692.65"/>
</g>
<!-- Node87&#45;&gt;Node3 -->
<g id="edge112" class="edge">
<title>Node87&#45;&gt;Node3</title>
<path fill="none" stroke="midnightblue" d="M2524.3,-358.4C2556.61,-311.21 2651.51,-156.68 2577.26,-67 2547.93,-31.58 2408.02,-20.8 2343.72,-17.69"/>
<polygon fill="midnightblue" stroke="midnightblue" points="2343.5,-14.18 2333.35,-17.22 2343.18,-21.17 2343.5,-14.18"/>
</g>
<!-- Node87&#45;&gt;Node4 -->
<g id="edge113" class="edge">
<title>Node87&#45;&gt;Node4</title>
<path fill="none" stroke="midnightblue" d="M2483.86,-358.44C2445.67,-341.54 2377.68,-313.96 2316.26,-302 1946.85,-230.08 1845.47,-295.13 1470.26,-266 1456.43,-264.93 986.98,-215.51 974.26,-210 884.28,-171.02 887.36,-122.11 806.26,-67 784.85,-52.45 758.78,-38.85 739.37,-29.44"/>
<polygon fill="midnightblue" stroke="midnightblue" points="740.69,-26.19 730.15,-25.05 737.67,-32.51 740.69,-26.19"/>
</g>
<!-- Node87&#45;&gt;Node6 -->
<g id="edge116" class="edge">
<title>Node87&#45;&gt;Node6</title>
<path fill="none" stroke="midnightblue" d="M2500.31,-358.1C2473.63,-331.47 2412.37,-274.62 2349.26,-246 2274.96,-212.31 2244.86,-240.67 2169.26,-210 2145.72,-200.45 2145.15,-187.61 2121.26,-179 1997.2,-134.27 1955.13,-160.75 1824.91,-143.74"/>
<polygon fill="midnightblue" stroke="midnightblue" points="1825.35,-140.26 1814.97,-142.37 1824.4,-147.2 1825.35,-140.26"/>
</g>
<!-- Node87&#45;&gt;Node8 -->
<g id="edge114" class="edge">
<title>Node87&#45;&gt;Node8</title>
<path fill="none" stroke="midnightblue" d="M2566.81,-370.74C2692.45,-366.07 3002.43,-351.64 3038.26,-322 3061.45,-302.81 3057.26,-287.1 3057.26,-257 3057.26,-257 3057.26,-257 3057.26,-132 3057.26,-97.86 3057.26,-58.05 3057.26,-35.21"/>
<polygon fill="midnightblue" stroke="midnightblue" points="3060.76,-35.19 3057.26,-25.19 3053.76,-35.19 3060.76,-35.19"/>
</g>
<!-- Node87&#45;&gt;Node19 -->
<g id="edge115" class="edge">
<title>Node87&#45;&gt;Node19</title>
<path fill="none" stroke="midnightblue" d="M2461.68,-359.07C2417.81,-347.87 2356.44,-332.2 2317.78,-322.33"/>
<polygon fill="midnightblue" stroke="midnightblue" points="2318.55,-318.91 2307.99,-319.83 2316.81,-325.69 2318.55,-318.91"/>
</g>
<!-- Node99&#45;&gt;Node6 -->
<g id="edge120" class="edge">
<title>Node99&#45;&gt;Node6</title>
<path fill="none" stroke="midnightblue" d="M1779.12,-671.25C1786.89,-641.79 1804.17,-571.92 1810.26,-512 1825.21,-364.76 1868.64,-315.42 1811.26,-179 1806.23,-167.05 1796.31,-156.69 1786.97,-148.93"/>
<polygon fill="midnightblue" stroke="midnightblue" points="1789.1,-146.15 1779.04,-142.81 1784.82,-151.69 1789.1,-146.15"/>
</g>
<!-- Node99&#45;&gt;Node30 -->
<g id="edge121" class="edge">
<title>Node99&#45;&gt;Node30</title>
<path fill="none" stroke="midnightblue" d="M1753.57,-671.26C1690.21,-629.47 1500.34,-502.94 1349.26,-389 1331.86,-375.88 1330.99,-367.26 1311.26,-358 1235.82,-322.6 1205.85,-349.7 1127.26,-322 1109.26,-315.66 1107,-309.04 1089.26,-302 1052.5,-287.41 1009.27,-275.66 976.72,-267.83"/>
<polygon fill="midnightblue" stroke="midnightblue" points="977.52,-264.42 966.98,-265.53 975.91,-271.24 977.52,-264.42"/>
</g>
<!-- Node99&#45;&gt;Node57 -->
<g id="edge123" class="edge">
<title>Node99&#45;&gt;Node57</title>
<path fill="none" stroke="midnightblue" d="M1809.86,-671.4C1834.35,-661.42 1866.91,-648.15 1890.5,-638.53"/>
<polygon fill="midnightblue" stroke="midnightblue" points="1892.07,-641.67 1900.01,-634.66 1889.43,-635.19 1892.07,-641.67"/>
</g>
<!-- Node99&#45;&gt;Node59 -->
<g id="edge122" class="edge">
<title>Node99&#45;&gt;Node59</title>
<path fill="none" stroke="midnightblue" d="M1764.7,-671.13C1744.37,-642.55 1700.22,-575.82 1682.26,-512 1677.49,-495.05 1676.81,-474.93 1677.13,-460.53"/>
<polygon fill="midnightblue" stroke="midnightblue" points="1680.64,-460.52 1677.55,-450.38 1673.64,-460.23 1680.64,-460.52"/>
</g>
<!-- Node110&#45;&gt;Node6 -->
<g id="edge125" class="edge">
<title>Node110&#45;&gt;Node6</title>
<path fill="none" stroke="midnightblue" d="M1259.35,-439.19C1322.42,-436.73 1423.87,-426.54 1502.26,-389 1621.92,-331.69 1721.22,-198.43 1753.87,-151.08"/>
<polygon fill="midnightblue" stroke="midnightblue" points="1756.92,-152.8 1759.65,-142.57 1751.13,-148.87 1756.92,-152.8"/>
</g>
<!-- Node110&#45;&gt;Node111 -->
<g id="edge126" class="edge">
<title>Node110&#45;&gt;Node111</title>
<path fill="none" stroke="midnightblue" d="M1140.99,-433.33C1023.04,-421.04 759.91,-393.63 639.09,-381.05"/>
<polygon fill="midnightblue" stroke="midnightblue" points="639.21,-377.54 628.9,-379.98 638.48,-384.5 639.21,-377.54"/>
</g>
<!-- Node111&#45;&gt;Node5 -->
<g id="edge127" class="edge">
<title>Node111&#45;&gt;Node5</title>
<path fill="none" stroke="midnightblue" d="M523.56,-358.94C424.58,-333.24 219.88,-278.82 210.26,-266 185.18,-232.59 200.28,-180.03 211.12,-152.39"/>
<polygon fill="midnightblue" stroke="midnightblue" points="214.5,-153.39 215.11,-142.81 208.04,-150.7 214.5,-153.39"/>
</g>
<!-- Node111&#45;&gt;Node6 -->
<g id="edge128" class="edge">
<title>Node111&#45;&gt;Node6</title>
<path fill="none" stroke="midnightblue" d="M629.04,-371.36C798.65,-367.4 1322.79,-352.78 1392.26,-322 1436.51,-302.39 1428.1,-269.79 1470.26,-246 1525.46,-214.85 1548.78,-231.91 1608.26,-210 1621.41,-205.15 1697.67,-167.56 1738.86,-147.13"/>
<polygon fill="midnightblue" stroke="midnightblue" points="1740.64,-150.15 1748.05,-142.57 1737.53,-143.88 1740.64,-150.15"/>
</g>
<!-- Node111&#45;&gt;Node20 -->
<g id="edge129" class="edge">
<title>Node111&#45;&gt;Node20</title>
<path fill="none" stroke="midnightblue" d="M571.99,-358.4C569.54,-350.29 566.43,-340.01 563.79,-331.28"/>
<polygon fill="midnightblue" stroke="midnightblue" points="567.12,-330.22 560.88,-321.66 560.42,-332.24 567.12,-330.22"/>
</g>
<!-- Node112&#45;&gt;Node57 -->
<g id="edge131" class="edge">
<title>Node112&#45;&gt;Node57</title>
<path fill="none" stroke="midnightblue" d="M1844.23,-738.3C1857.87,-718.41 1891.52,-669.35 1909.49,-643.15"/>
<polygon fill="midnightblue" stroke="midnightblue" points="1912.57,-644.85 1915.34,-634.62 1906.8,-640.89 1912.57,-644.85"/>
</g>
<!-- Node112&#45;&gt;Node126 -->
<g id="edge132" class="edge">
<title>Node112&#45;&gt;Node126</title>
<path fill="none" stroke="midnightblue" d="M1782.91,-739.67C1778.29,-739.09 1773.7,-738.53 1769.26,-738 1636.52,-722.26 1482.56,-706.24 1387.27,-696.58"/>
<polygon fill="midnightblue" stroke="midnightblue" points="1387.39,-693.07 1377.09,-695.55 1386.68,-700.04 1387.39,-693.07"/>
</g>
<!-- Node126&#45;&gt;Node20 -->
<g id="edge135" class="edge">
<title>Node126&#45;&gt;Node20</title>
<path fill="none" stroke="midnightblue" d="M1215.72,-678.96C1102.18,-667.9 889.87,-640.4 719.26,-579 556.01,-520.25 466.15,-538.58 378.26,-389 350.5,-341.76 429.41,-323.88 491.45,-317.11"/>
<polygon fill="midnightblue" stroke="midnightblue" points="492.03,-320.57 501.63,-316.08 491.33,-313.61 492.03,-320.57"/>
</g>
<!-- Node126&#45;&gt;Node35 -->
<g id="edge136" class="edge">
<title>Node126&#45;&gt;Node35</title>
<path fill="none" stroke="midnightblue" d="M1312.52,-676.88C1326.9,-668.31 1347.13,-653.75 1357.26,-635 1427.99,-504.07 1470.49,-428.59 1392.26,-302 1366.01,-259.54 1226.33,-223.42 1148.59,-206.23"/>
<polygon fill="midnightblue" stroke="midnightblue" points="1149.03,-202.74 1138.51,-204.03 1147.54,-209.58 1149.03,-202.74"/>
</g>
<!-- Node127 -->
<g id="node44" class="node">
<title>Node127</title>
<g id="a_node44"><a xlink:title=" ">
<polygon fill="none" stroke="#bfbfbf" points="1158.26,-615.5 1158.26,-634.5 1226.26,-634.5 1226.26,-615.5 1158.26,-615.5"/>
<text text-anchor="middle" x="1192.26" y="-622.5" font-family="Helvetica,sans-Serif" font-size="10.00">filesystem</text>
</a>
</g>
</g>
<!-- Node126&#45;&gt;Node127 -->
<g id="edge133" class="edge">
<title>Node126&#45;&gt;Node127</title>
<path fill="none" stroke="midnightblue" d="M1281.36,-676.98C1264.29,-667.21 1236.1,-651.08 1215.99,-639.58"/>
<polygon fill="midnightblue" stroke="midnightblue" points="1217.55,-636.44 1207.13,-634.51 1214.07,-642.51 1217.55,-636.44"/>
</g>
<!-- Node128 -->
<g id="node45" class="node">
<title>Node128</title>
<g id="a_node45"><a xlink:title=" ">
<polygon fill="none" stroke="#bfbfbf" points="1244.26,-615.5 1244.26,-634.5 1348.26,-634.5 1348.26,-615.5 1244.26,-615.5"/>
<text text-anchor="middle" x="1296.26" y="-622.5" font-family="Helvetica,sans-Serif" font-size="10.00">json/json_fwd.hpp</text>
</a>
</g>
</g>
<!-- Node126&#45;&gt;Node128 -->
<g id="edge134" class="edge">
<title>Node126&#45;&gt;Node128</title>
<path fill="none" stroke="midnightblue" d="M1296.26,-676.98C1296.26,-668.58 1296.26,-655.48 1296.26,-644.66"/>
<polygon fill="midnightblue" stroke="midnightblue" points="1299.76,-644.51 1296.26,-634.51 1292.76,-644.51 1299.76,-644.51"/>
</g>
<!-- Node130&#45;&gt;Node57 -->
<g id="edge138" class="edge">
<title>Node130&#45;&gt;Node57</title>
<path fill="none" stroke="midnightblue" d="M2000.14,-738.3C1986.18,-718.41 1951.71,-669.35 1933.3,-643.15"/>
<polygon fill="midnightblue" stroke="midnightblue" points="1935.93,-640.79 1927.31,-634.62 1930.2,-644.82 1935.93,-640.79"/>
</g>
<!-- Node130&#45;&gt;Node126 -->
<g id="edge139" class="edge">
<title>Node130&#45;&gt;Node126</title>
<path fill="none" stroke="midnightblue" d="M1949.04,-742.02C1933.84,-740.7 1917.43,-739.29 1902.26,-738 1719.55,-722.48 1505.81,-704.77 1387.25,-694.99"/>
<polygon fill="midnightblue" stroke="midnightblue" points="1387.39,-691.49 1377.13,-694.16 1386.81,-698.47 1387.39,-691.49"/>
</g>
<!-- Node131&#45;&gt;Node3 -->
<g id="edge141" class="edge">
<title>Node131&#45;&gt;Node3</title>
<path fill="none" stroke="midnightblue" d="M2255.6,-794.48C2410.95,-770.43 2785.26,-687.02 2785.26,-441.5 2785.26,-441.5 2785.26,-441.5 2785.26,-372.5 2785.26,-228.64 2799.03,-145.17 2678.26,-67 2623.21,-31.37 2423.01,-20.46 2343.82,-17.5"/>
<polygon fill="midnightblue" stroke="midnightblue" points="2343.6,-13.99 2333.48,-17.13 2343.35,-20.98 2343.6,-13.99"/>
</g>
<!-- Node131&#45;&gt;Node4 -->
<g id="edge142" class="edge">
<title>Node131&#45;&gt;Node4</title>
<path fill="none" stroke="midnightblue" d="M2119.61,-802.41C1957.18,-799.61 1541.57,-784.27 1206.26,-702 1062.7,-666.78 1030.62,-642.74 897.26,-579 842.49,-552.83 818.8,-557.17 778.26,-512 692.34,-416.28 737.8,-351.52 664.26,-246 650.96,-226.91 638.17,-229.98 626.26,-210 610.47,-183.51 612.29,-173.57 608.26,-143 605.4,-121.36 612.68,-67.85 613.26,-67 626.72,-46.98 650.68,-34.43 671.54,-26.85"/>
<polygon fill="midnightblue" stroke="midnightblue" points="672.8,-30.12 681.16,-23.61 670.57,-23.49 672.8,-30.12"/>
</g>
<!-- Node131&#45;&gt;Node6 -->
<g id="edge145" class="edge">
<title>Node131&#45;&gt;Node6</title>
<path fill="none" stroke="midnightblue" d="M2191.28,-794.36C2195.59,-775.23 2205.26,-727.78 2205.26,-687.5 2205.26,-687.5 2205.26,-687.5 2205.26,-501 2205.26,-329.41 2134.74,-274.61 1992.26,-179 1985.19,-174.26 1888.04,-156.08 1823.15,-144.33"/>
<polygon fill="midnightblue" stroke="midnightblue" points="1823.49,-140.84 1813.03,-142.5 1822.24,-147.72 1823.49,-140.84"/>
</g>
<!-- Node131&#45;&gt;Node8 -->
<g id="edge143" class="edge">
<title>Node131&#45;&gt;Node8</title>
<path fill="none" stroke="midnightblue" d="M2258.92,-797.55C2423.62,-783.73 2823.26,-744.35 2823.26,-687.5 2823.26,-687.5 2823.26,-687.5 2823.26,-624 2823.26,-399.22 3171.26,-481.78 3171.26,-257 3171.26,-257 3171.26,-257 3171.26,-132 3171.26,-83.2 3119.07,-47.56 3085.31,-29.61"/>
<polygon fill="midnightblue" stroke="midnightblue" points="3086.83,-26.46 3076.34,-25.02 3083.65,-32.69 3086.83,-26.46"/>
</g>
<!-- Node131&#45;&gt;Node19 -->
<g id="edge144" class="edge">
<title>Node131&#45;&gt;Node19</title>
<path fill="none" stroke="midnightblue" d="M2258.85,-799.02C2330.97,-790.69 2433.26,-765.18 2433.26,-687.5 2433.26,-687.5 2433.26,-687.5 2433.26,-562.5 2433.26,-460.48 2339.42,-364.75 2299.2,-328.41"/>
<polygon fill="midnightblue" stroke="midnightblue" points="2301.51,-325.77 2291.7,-321.76 2296.87,-331.01 2301.51,-325.77"/>
</g>
<!-- Node131&#45;&gt;Node83 -->
<g id="edge148" class="edge">
<title>Node131&#45;&gt;Node83</title>
<path fill="none" stroke="midnightblue" d="M2204.04,-794.32C2218.52,-785.82 2240.83,-772.73 2257.75,-762.8"/>
<polygon fill="midnightblue" stroke="midnightblue" points="2259.66,-765.74 2266.51,-757.65 2256.12,-759.7 2259.66,-765.74"/>
</g>
<!-- Node131&#45;&gt;Node112 -->
<g id="edge147" class="edge">
<title>Node131&#45;&gt;Node112</title>
<path fill="none" stroke="midnightblue" d="M2133.64,-794.44C2071.03,-784.81 1969.44,-769.18 1903.23,-759"/>
<polygon fill="midnightblue" stroke="midnightblue" points="1903.74,-755.53 1893.32,-757.47 1902.68,-762.45 1903.74,-755.53"/>
</g>
<!-- Node131&#45;&gt;Node130 -->
<g id="edge146" class="edge">
<title>Node131&#45;&gt;Node130</title>
<path fill="none" stroke="midnightblue" d="M2160.26,-794.44C2129.07,-785.24 2079.33,-770.56 2044.85,-760.39"/>
<polygon fill="midnightblue" stroke="midnightblue" points="2045.7,-756.99 2035.12,-757.52 2043.72,-763.7 2045.7,-756.99"/>
</g>
<!-- Node115&#45;&gt;Node3 -->
<g id="edge150" class="edge">
<title>Node115&#45;&gt;Node3</title>
<path fill="none" stroke="midnightblue" d="M1801.45,-494.28C1843.46,-487.44 1906.16,-475.09 1958.26,-456 2078.1,-412.08 2101.19,-384.88 2212.26,-322 2227.18,-313.55 2229.69,-309.2 2245.26,-302 2291.18,-280.76 2309.9,-292.09 2353.26,-266 2421.13,-225.16 2449.13,-214.96 2482.26,-143 2496.39,-112.29 2505.56,-94.03 2485.26,-67 2468.21,-44.31 2388.75,-28.52 2343.33,-21.17"/>
<polygon fill="midnightblue" stroke="midnightblue" points="2343.8,-17.7 2333.38,-19.61 2342.71,-24.62 2343.8,-17.7"/>
</g>
<!-- Node115&#45;&gt;Node4 -->
<g id="edge151" class="edge">
<title>Node115&#45;&gt;Node4</title>
<path fill="none" stroke="midnightblue" d="M1706.96,-498.59C1602.9,-493.06 1346.29,-478.21 1132.26,-456 1030.1,-445.4 1005.43,-435.41 903.26,-425 786.92,-413.15 488.79,-427.19 378.26,-389 286.33,-357.24 253.91,-345.06 197.26,-266 159.2,-212.9 124.65,-175.7 163.26,-123 223.44,-40.83 554.22,-21.8 670.67,-17.62"/>
<polygon fill="midnightblue" stroke="midnightblue" points="671.06,-21.11 680.94,-17.27 670.82,-14.11 671.06,-21.11"/>
</g>
<!-- Node115&#45;&gt;Node6 -->
<g id="edge153" class="edge">
<title>Node115&#45;&gt;Node6</title>
<path fill="none" stroke="midnightblue" d="M1756.32,-492.1C1763.41,-461.13 1786.75,-355.05 1795.26,-266 1797.63,-241.22 1796.03,-234.89 1796.26,-210 1796.38,-196.22 1800.35,-192.16 1796.26,-179 1793.03,-168.62 1786.48,-158.52 1780.23,-150.53"/>
<polygon fill="midnightblue" stroke="midnightblue" points="1782.84,-148.19 1773.74,-142.77 1777.47,-152.68 1782.84,-148.19"/>
</g>
<!-- Node115&#45;&gt;Node26 -->
<g id="edge152" class="edge">
<title>Node115&#45;&gt;Node26</title>
<path fill="none" stroke="midnightblue" d="M1793.93,-492.5C1851.57,-478.61 1959.72,-446.67 2034.26,-389 2072.22,-359.62 2059.43,-330.23 2098.26,-302 2203.18,-225.72 2299.35,-315.2 2375.26,-210 2387.48,-193.06 2379.66,-168.62 2371.65,-152.06"/>
<polygon fill="midnightblue" stroke="midnightblue" points="2374.58,-150.12 2366.82,-142.91 2368.39,-153.39 2374.58,-150.12"/>
</g>
<!-- Node115&#45;&gt;Node59 -->
<g id="edge154" class="edge">
<title>Node115&#45;&gt;Node59</title>
<path fill="none" stroke="midnightblue" d="M1743.37,-492.48C1731.29,-483.02 1711.59,-467.6 1697.02,-456.19"/>
<polygon fill="midnightblue" stroke="midnightblue" points="1699.16,-453.42 1689.13,-450.01 1694.84,-458.93 1699.16,-453.42"/>
</g>
<!-- Node109&#45;&gt;Node6 -->
<g id="edge159" class="edge">
<title>Node109&#45;&gt;Node6</title>
<path fill="none" stroke="midnightblue" d="M1109.7,-554C1210.14,-536.56 1425.93,-489.61 1578.26,-389 1666.8,-330.52 1681.35,-300.8 1736.26,-210 1747.3,-191.74 1755.41,-168.55 1760.2,-152.62"/>
<polygon fill="midnightblue" stroke="midnightblue" points="1763.6,-153.47 1762.99,-142.9 1756.87,-151.55 1763.6,-153.47"/>
</g>
<!-- Node109&#45;&gt;Node30 -->
<g id="edge160" class="edge">
<title>Node109&#45;&gt;Node30</title>
<path fill="none" stroke="midnightblue" d="M1063.84,-553.79C1076.84,-540.87 1097.64,-515.61 1090.26,-492 1060.76,-397.72 978.66,-308.05 943.54,-272.76"/>
<polygon fill="midnightblue" stroke="midnightblue" points="945.99,-270.26 936.42,-265.71 941.06,-275.24 945.99,-270.26"/>
</g>
<!-- Node109&#45;&gt;Node76 -->
<g id="edge161" class="edge">
<title>Node109&#45;&gt;Node76</title>
<path fill="none" stroke="midnightblue" d="M1046.38,-553.98C1037.96,-544.87 1024.44,-530.24 1014.03,-518.98"/>
<polygon fill="midnightblue" stroke="midnightblue" points="1016.48,-516.48 1007.12,-511.51 1011.34,-521.23 1016.48,-516.48"/>
</g>
<!-- Node132&#45;&gt;Node7 -->
<g id="edge166" class="edge">
<title>Node132&#45;&gt;Node7</title>
<path fill="none" stroke="midnightblue" d="M2962.04,-302.41C2967.96,-283.38 2981.26,-236.12 2981.26,-195.5 2981.26,-195.5 2981.26,-195.5 2981.26,-132 2981.26,-76.27 2915.67,-43.92 2870.66,-28.28"/>
<polygon fill="midnightblue" stroke="midnightblue" points="2871.71,-24.94 2861.12,-25.1 2869.5,-31.58 2871.71,-24.94"/>
</g>
<!-- Node132&#45;&gt;Node8 -->
<g id="edge167" class="edge">
<title>Node132&#45;&gt;Node8</title>
<path fill="none" stroke="midnightblue" d="M2967.7,-302.36C2975.73,-293.75 2987.66,-279.86 2995.26,-266 3011.17,-236.98 3019.26,-228.6 3019.26,-195.5 3019.26,-195.5 3019.26,-195.5 3019.26,-132 3019.26,-95.75 3036.35,-56.17 3047.61,-34.03"/>
<polygon fill="midnightblue" stroke="midnightblue" points="3050.72,-35.64 3052.29,-25.16 3044.53,-32.37 3050.72,-35.64"/>
</g>
<!-- Node132&#45;&gt;Node60 -->
<g id="edge168" class="edge">
<title>Node132&#45;&gt;Node60</title>
<path fill="none" stroke="midnightblue" d="M2888.98,-308.34C2643.69,-299.06 1827.87,-268.19 1594.88,-259.37"/>
<polygon fill="midnightblue" stroke="midnightblue" points="1595.01,-255.87 1584.88,-258.99 1594.74,-262.87 1595.01,-255.87"/>
</g>
<!-- Node132&#45;&gt;Node61 -->
<g id="edge169" class="edge">
<title>Node132&#45;&gt;Node61</title>
<path fill="none" stroke="midnightblue" d="M2908.9,-302.46C2786.1,-281.63 2471.55,-228.28 2338.81,-205.77"/>
<polygon fill="midnightblue" stroke="midnightblue" points="2339.26,-202.3 2328.81,-204.07 2338.09,-209.2 2339.26,-202.3"/>
</g>
</g>
</svg>
        <g id="navigator" transform="translate(0 0)" fill="#404254">
                <rect fill="#f2f5e9" fill-opacity="0.5" stroke="#606060" stroke-width=".5" x="0" y="0" width="60" height="60"/>
                <use id="zoomplus" xlink:href="#zoomPlus" x="17" y="9" onmousedown="handleZoom(evt,'in')"/>
                <use id="zoomminus" xlink:href="#zoomMin" x="42" y="9" onmousedown="handleZoom(evt,'out')"/>
                <use id="reset" xlink:href="#resetDef" x="30" y="36" onmousedown="handleReset()"/>
                <g id="arrowUp" xlink:href="#dirArrow" transform="translate(30 24)" onmousedown="handlePan(0,-1)">
                  <use xlink:href="#rim" fill="#404040">
                        <set attributeName="fill" to="#808080" begin="arrowUp.mouseover" end="arrowUp.mouseout"/>
                  </use>
                  <path fill="none" stroke="white" stroke-width="1.5" d="M0,-3.0v7 M-2.5,-0.5L0,-3.0L2.5,-0.5"/>
                </g>
                <g id="arrowRight" xlink:href="#dirArrow" transform="rotate(90) translate(36 -43)" onmousedown="handlePan(1,0)">
                  <use xlink:href="#rim" fill="#404040">
                        <set attributeName="fill" to="#808080" begin="arrowRight.mouseover" end="arrowRight.mouseout"/>
                  </use>
                  <path fill="none" stroke="white" stroke-width="1.5" d="M0,-3.0v7 M-2.5,-0.5L0,-3.0L2.5,-0.5"/>
                </g>
                <g id="arrowDown" xlink:href="#dirArrow" transform="rotate(180) translate(-30 -48)" onmousedown="handlePan(0,1)">
                  <use xlink:href="#rim" fill="#404040">
                        <set attributeName="fill" to="#808080" begin="arrowDown.mouseover" end="arrowDown.mouseout"/>
                  </use>
                  <path fill="none" stroke="white" stroke-width="1.5" d="M0,-3.0v7 M-2.5,-0.5L0,-3.0L2.5,-0.5"/>
                </g>
                <g id="arrowLeft" xlink:href="#dirArrow" transform="rotate(270) translate(-36 17)" onmousedown="handlePan(-1,0)">
                  <use xlink:href="#rim" fill="#404040">
                        <set attributeName="fill" to="#808080" begin="arrowLeft.mouseover" end="arrowLeft.mouseout"/>
                  </use>
                  <path fill="none" stroke="white" stroke-width="1.5" d="M0,-3.0v7 M-2.5,-0.5L0,-3.0L2.5,-0.5"/>
                </g>
        </g>
        <svg viewBox="0 0 15 15" width="100%" height="30px" preserveAspectRatio="xMaxYMin meet">
         <g id="arrow_out" transform="scale(0.3 0.3)">
          <a xlink:href="operation_8h__incl_org.svg" target="_base">
           <rect id="button" ry="5" rx="5" y="6" x="6" height="38" width="38"
                fill="#f2f5e9" fill-opacity="0.5" stroke="#606060" stroke-width="1.0"/>
           <path id="arrow"
             d="M 11.500037,31.436501 C 11.940474,20.09759 22.043105,11.32322 32.158766,21.979434 L 37.068811,17.246167 C 37.068811,17.246167 37.088388,32 37.088388,32 L 22.160133,31.978069 C 22.160133,31.978069 26.997745,27.140456 26.997745,27.140456 C 18.528582,18.264221 13.291696,25.230495 11.500037,31.436501 z"
             style="fill:#404040;"/>
          </a>
         </g>
        </svg>
</svg>
