<?xml version="1.0" encoding="UTF-8" standalone="no"?>
<!DOCTYPE svg PUBLIC "-//W3C//DTD SVG 1.1//EN"
 "http://www.w3.org/Graphics/SVG/1.1/DTD/svg11.dtd">
<!-- Generated by graphviz version 2.43.0 (0)
 -->
<!-- Title: /home/runner/work/Documentation/Documentation/master/applications/DEMApplication/custom_constitutive/DEM_D_Linear_viscous_Coulomb_CL.h Pages: 1 -->
<svg width="2312pt" height="328pt"
 viewBox="0.00 0.00 2311.87 328.00" xmlns="http://www.w3.org/2000/svg" xmlns:xlink="http://www.w3.org/1999/xlink">
<g id="graph0" class="graph" transform="scale(1 1) rotate(0) translate(4 324)">
<title>/home/runner/work/Documentation/Documentation/master/applications/DEMApplication/custom_constitutive/DEM_D_Linear_viscous_Coulomb_CL.h</title>
<!-- Node1 -->
<g id="node1" class="node">
<title>Node1</title>
<g id="a_node1"><a xlink:title=" ">
<polygon fill="#bfbfbf" stroke="black" points="964.91,-267.5 964.91,-319.5 1171.91,-319.5 1171.91,-267.5 964.91,-267.5"/>
<text text-anchor="start" x="972.91" y="-307.5" font-family="Helvetica,sans-Serif" font-size="10.00">/home/runner/work/Documentation</text>
<text text-anchor="start" x="972.91" y="-296.5" font-family="Helvetica,sans-Serif" font-size="10.00">/Documentation/master/applications</text>
<text text-anchor="start" x="972.91" y="-285.5" font-family="Helvetica,sans-Serif" font-size="10.00">/DEMApplication/custom_constitutive</text>
<text text-anchor="middle" x="1068.41" y="-274.5" font-family="Helvetica,sans-Serif" font-size="10.00">/DEM_D_Linear_viscous_Coulomb_CL.h</text>
</a>
</g>
</g>
<!-- Node2 -->
<g id="node2" class="node">
<title>Node2</title>
<g id="a_node2"><a xlink:href="../../da/d66/_d_e_m___d___linear__classic___c_l_8h.html" target="_top" xlink:title=" ">
<polygon fill="none" stroke="black" points="904.91,-178.5 904.91,-230.5 1103.91,-230.5 1103.91,-178.5 904.91,-178.5"/>
<text text-anchor="start" x="912.91" y="-218.5" font-family="Helvetica,sans-Serif" font-size="10.00">/home/runner/work/Documentation</text>
<text text-anchor="start" x="912.91" y="-207.5" font-family="Helvetica,sans-Serif" font-size="10.00">/Documentation/master/applications</text>
<text text-anchor="start" x="912.91" y="-196.5" font-family="Helvetica,sans-Serif" font-size="10.00">/DEMApplication/custom_constitutive</text>
<text text-anchor="middle" x="1004.41" y="-185.5" font-family="Helvetica,sans-Serif" font-size="10.00">/DEM_D_Linear_classic_CL.h</text>
</a>
</g>
</g>
<!-- Node1&#45;&gt;Node2 -->
<g id="edge1" class="edge">
<title>Node1&#45;&gt;Node2</title>
<path fill="none" stroke="midnightblue" d="M1043.93,-259.22C1036.94,-249.72 1029.45,-239.53 1022.88,-230.61"/>
<polygon fill="midnightblue" stroke="midnightblue" points="1041.16,-261.35 1049.9,-267.34 1046.79,-257.21 1041.16,-261.35"/>
</g>
<!-- Node4 -->
<g id="node4" class="node">
<title>Node4</title>
<g id="a_node4"><a xlink:href="../../d6/d7e/_d_e_m_application_2custom__python_2add__custom__constitutive__laws__to__python_8cpp.html" target="_top" xlink:title=" ">
<polygon fill="none" stroke="black" points="699.91,-0.5 699.91,-52.5 922.91,-52.5 922.91,-0.5 699.91,-0.5"/>
<text text-anchor="start" x="707.91" y="-40.5" font-family="Helvetica,sans-Serif" font-size="10.00">/home/runner/work/Documentation</text>
<text text-anchor="start" x="707.91" y="-29.5" font-family="Helvetica,sans-Serif" font-size="10.00">/Documentation/master/applications</text>
<text text-anchor="start" x="707.91" y="-18.5" font-family="Helvetica,sans-Serif" font-size="10.00">/DEMApplication/custom_python/add</text>
<text text-anchor="middle" x="811.41" y="-7.5" font-family="Helvetica,sans-Serif" font-size="10.00">_custom_constitutive_laws_to_python.cpp</text>
</a>
</g>
</g>
<!-- Node1&#45;&gt;Node4 -->
<g id="edge31" class="edge">
<title>Node1&#45;&gt;Node4</title>
<path fill="none" stroke="midnightblue" d="M954.55,-292.54C740.4,-291.37 285.93,-282.65 138.41,-231 73.02,-208.1 42.51,-203.41 10.41,-142 -0.5,-121.12 -5.59,-106.28 10.41,-89 56.26,-39.5 490.43,-29.69 699.69,-27.86"/>
<polygon fill="midnightblue" stroke="midnightblue" points="954.55,-296.04 964.57,-292.59 954.58,-289.04 954.55,-296.04"/>
</g>
<!-- Node5 -->
<g id="node5" class="node">
<title>Node5</title>
<g id="a_node5"><a xlink:href="../../d1/d08/_d_e_m__application_8cpp.html" target="_top" xlink:title=" ">
<polygon fill="none" stroke="black" points="1057.41,-95 1057.41,-136 1259.41,-136 1259.41,-95 1057.41,-95"/>
<text text-anchor="start" x="1065.41" y="-124" font-family="Helvetica,sans-Serif" font-size="10.00">/home/runner/work/Documentation</text>
<text text-anchor="start" x="1065.41" y="-113" font-family="Helvetica,sans-Serif" font-size="10.00">/Documentation/master/applications</text>
<text text-anchor="middle" x="1158.41" y="-102" font-family="Helvetica,sans-Serif" font-size="10.00">/DEMApplication/DEM_application.cpp</text>
</a>
</g>
</g>
<!-- Node1&#45;&gt;Node5 -->
<g id="edge32" class="edge">
<title>Node1&#45;&gt;Node5</title>
<path fill="none" stroke="midnightblue" d="M1095.13,-259.25C1101.59,-250.37 1108.14,-240.57 1113.41,-231 1130.82,-199.38 1144.85,-159.61 1152.38,-136.23"/>
<polygon fill="midnightblue" stroke="midnightblue" points="1092.19,-257.34 1089.01,-267.45 1097.8,-261.53 1092.19,-257.34"/>
</g>
<!-- Node6 -->
<g id="node6" class="node">
<title>Node6</title>
<g id="a_node6"><a xlink:href="../../d2/d00/_d_e_m___d___linear__confined___c_l_8h.html" target="_top" xlink:title=" ">
<polygon fill="none" stroke="black" points="147.91,-178.5 147.91,-230.5 346.91,-230.5 346.91,-178.5 147.91,-178.5"/>
<text text-anchor="start" x="155.91" y="-218.5" font-family="Helvetica,sans-Serif" font-size="10.00">/home/runner/work/Documentation</text>
<text text-anchor="start" x="155.91" y="-207.5" font-family="Helvetica,sans-Serif" font-size="10.00">/Documentation/master/applications</text>
<text text-anchor="start" x="155.91" y="-196.5" font-family="Helvetica,sans-Serif" font-size="10.00">/DEMApplication/custom_constitutive</text>
<text text-anchor="middle" x="247.41" y="-185.5" font-family="Helvetica,sans-Serif" font-size="10.00">/DEM_D_Linear_confined_CL.h</text>
</a>
</g>
</g>
<!-- Node1&#45;&gt;Node6 -->
<g id="edge5" class="edge">
<title>Node1&#45;&gt;Node6</title>
<path fill="none" stroke="midnightblue" d="M954.42,-283.22C825.75,-272.38 610.26,-253.07 425.41,-231 399.99,-227.97 372.6,-224.26 347.1,-220.62"/>
<polygon fill="midnightblue" stroke="midnightblue" points="954.42,-286.74 964.68,-284.09 955.01,-279.76 954.42,-286.74"/>
</g>
<!-- Node8 -->
<g id="node8" class="node">
<title>Node8</title>
<g id="a_node8"><a xlink:href="../../da/d01/dem__d__linear__custom__constants__cl_8h.html" target="_top" xlink:title=" ">
<polygon fill="none" stroke="black" points="434.41,-178.5 434.41,-230.5 636.41,-230.5 636.41,-178.5 434.41,-178.5"/>
<text text-anchor="start" x="442.41" y="-218.5" font-family="Helvetica,sans-Serif" font-size="10.00">/home/runner/work/Documentation</text>
<text text-anchor="start" x="442.41" y="-207.5" font-family="Helvetica,sans-Serif" font-size="10.00">/Documentation/master/applications</text>
<text text-anchor="start" x="442.41" y="-196.5" font-family="Helvetica,sans-Serif" font-size="10.00">/DEMApplication/custom_constitutive</text>
<text text-anchor="middle" x="535.41" y="-185.5" font-family="Helvetica,sans-Serif" font-size="10.00">/dem_d_linear_custom_constants_cl.h</text>
</a>
</g>
</g>
<!-- Node1&#45;&gt;Node8 -->
<g id="edge8" class="edge">
<title>Node1&#45;&gt;Node8</title>
<path fill="none" stroke="midnightblue" d="M954.48,-276.42C873.66,-264.7 762.7,-247.96 665.41,-231 656.01,-229.36 646.24,-227.58 636.47,-225.75"/>
<polygon fill="midnightblue" stroke="midnightblue" points="954.28,-279.93 964.68,-277.9 955.29,-273 954.28,-279.93"/>
</g>
<!-- Node10 -->
<g id="node10" class="node">
<title>Node10</title>
<g id="a_node10"><a xlink:href="../../d0/d1c/_d_e_m___d___linear___high_stiffness___c_l_8h.html" target="_top" xlink:title=" ">
<polygon fill="none" stroke="black" points="673.91,-178.5 673.91,-230.5 872.91,-230.5 872.91,-178.5 673.91,-178.5"/>
<text text-anchor="start" x="681.91" y="-218.5" font-family="Helvetica,sans-Serif" font-size="10.00">/home/runner/work/Documentation</text>
<text text-anchor="start" x="681.91" y="-207.5" font-family="Helvetica,sans-Serif" font-size="10.00">/Documentation/master/applications</text>
<text text-anchor="start" x="681.91" y="-196.5" font-family="Helvetica,sans-Serif" font-size="10.00">/DEMApplication/custom_constitutive</text>
<text text-anchor="middle" x="773.41" y="-185.5" font-family="Helvetica,sans-Serif" font-size="10.00">/DEM_D_Linear_HighStiffness_CL.h</text>
</a>
</g>
</g>
<!-- Node1&#45;&gt;Node10 -->
<g id="edge12" class="edge">
<title>Node1&#45;&gt;Node10</title>
<path fill="none" stroke="midnightblue" d="M973.67,-264.56C936.57,-253.62 894.34,-241.16 858.25,-230.52"/>
<polygon fill="midnightblue" stroke="midnightblue" points="972.9,-267.98 983.48,-267.45 974.88,-261.27 972.9,-267.98"/>
</g>
<!-- Node12 -->
<g id="node12" class="node">
<title>Node12</title>
<g id="a_node12"><a xlink:href="../../da/d1f/_d_e_m___d___linear__viscous___coulomb__2_d___c_l_8h.html" target="_top" xlink:title=" ">
<polygon fill="none" stroke="black" points="1170.41,-178.5 1170.41,-230.5 1396.41,-230.5 1396.41,-178.5 1170.41,-178.5"/>
<text text-anchor="start" x="1178.41" y="-218.5" font-family="Helvetica,sans-Serif" font-size="10.00">/home/runner/work/Documentation</text>
<text text-anchor="start" x="1178.41" y="-207.5" font-family="Helvetica,sans-Serif" font-size="10.00">/Documentation/master/applications</text>
<text text-anchor="start" x="1178.41" y="-196.5" font-family="Helvetica,sans-Serif" font-size="10.00">/DEMApplication/custom_constitutive</text>
<text text-anchor="middle" x="1283.41" y="-185.5" font-family="Helvetica,sans-Serif" font-size="10.00">/DEM_D_Linear_viscous_Coulomb_2D_CL.h</text>
</a>
</g>
</g>
<!-- Node1&#45;&gt;Node12 -->
<g id="edge15" class="edge">
<title>Node1&#45;&gt;Node12</title>
<path fill="none" stroke="midnightblue" d="M1139.89,-263.58C1166.33,-252.88 1196.06,-240.85 1221.58,-230.52"/>
<polygon fill="midnightblue" stroke="midnightblue" points="1138.27,-260.46 1130.31,-267.45 1140.89,-266.95 1138.27,-260.46"/>
</g>
<!-- Node16 -->
<g id="node16" class="node">
<title>Node16</title>
<g id="a_node16"><a xlink:href="../../d0/d79/_d_e_m___d___linear__viscous___coulomb___c_l_8cpp.html" target="_top" xlink:title=" ">
<polygon fill="none" stroke="black" points="1414.41,-178.5 1414.41,-230.5 1632.41,-230.5 1632.41,-178.5 1414.41,-178.5"/>
<text text-anchor="start" x="1422.41" y="-218.5" font-family="Helvetica,sans-Serif" font-size="10.00">/home/runner/work/Documentation</text>
<text text-anchor="start" x="1422.41" y="-207.5" font-family="Helvetica,sans-Serif" font-size="10.00">/Documentation/master/applications</text>
<text text-anchor="start" x="1422.41" y="-196.5" font-family="Helvetica,sans-Serif" font-size="10.00">/DEMApplication/custom_constitutive</text>
<text text-anchor="middle" x="1523.41" y="-185.5" font-family="Helvetica,sans-Serif" font-size="10.00">/DEM_D_Linear_viscous_Coulomb_CL.cpp</text>
</a>
</g>
</g>
<!-- Node1&#45;&gt;Node16 -->
<g id="edge22" class="edge">
<title>Node1&#45;&gt;Node16</title>
<path fill="none" stroke="midnightblue" d="M1182.12,-272.69C1247.53,-261.06 1331.21,-245.78 1405.41,-231 1408.29,-230.43 1411.21,-229.84 1414.15,-229.24"/>
<polygon fill="midnightblue" stroke="midnightblue" points="1181.43,-269.26 1172.2,-274.45 1182.65,-276.15 1181.43,-269.26"/>
</g>
<!-- Node17 -->
<g id="node17" class="node">
<title>Node17</title>
<g id="a_node17"><a xlink:href="../../de/d68/_d_e_m___d___quadratic___c_l_8h.html" target="_top" xlink:title=" ">
<polygon fill="none" stroke="black" points="1721.91,-178.5 1721.91,-230.5 1920.91,-230.5 1920.91,-178.5 1721.91,-178.5"/>
<text text-anchor="start" x="1729.91" y="-218.5" font-family="Helvetica,sans-Serif" font-size="10.00">/home/runner/work/Documentation</text>
<text text-anchor="start" x="1729.91" y="-207.5" font-family="Helvetica,sans-Serif" font-size="10.00">/Documentation/master/applications</text>
<text text-anchor="start" x="1729.91" y="-196.5" font-family="Helvetica,sans-Serif" font-size="10.00">/DEMApplication/custom_constitutive</text>
<text text-anchor="middle" x="1821.41" y="-185.5" font-family="Helvetica,sans-Serif" font-size="10.00">/DEM_D_Quadratic_CL.h</text>
</a>
</g>
</g>
<!-- Node1&#45;&gt;Node17 -->
<g id="edge23" class="edge">
<title>Node1&#45;&gt;Node17</title>
<path fill="none" stroke="midnightblue" d="M1182.34,-281.42C1298.06,-269.89 1482.39,-250.79 1641.41,-231 1667.41,-227.76 1695.47,-223.95 1721.52,-220.26"/>
<polygon fill="midnightblue" stroke="midnightblue" points="1181.65,-277.97 1172.05,-282.44 1182.35,-284.93 1181.65,-277.97"/>
</g>
<!-- Node19 -->
<g id="node19" class="node">
<title>Node19</title>
<g id="a_node19"><a xlink:href="../../de/d4b/_d_e_m___d___stress__dependent__cohesive___c_l_8h.html" target="_top" xlink:title=" ">
<polygon fill="none" stroke="black" points="1997.41,-178.5 1997.41,-230.5 2219.41,-230.5 2219.41,-178.5 1997.41,-178.5"/>
<text text-anchor="start" x="2005.41" y="-218.5" font-family="Helvetica,sans-Serif" font-size="10.00">/home/runner/work/Documentation</text>
<text text-anchor="start" x="2005.41" y="-207.5" font-family="Helvetica,sans-Serif" font-size="10.00">/Documentation/master/applications</text>
<text text-anchor="start" x="2005.41" y="-196.5" font-family="Helvetica,sans-Serif" font-size="10.00">/DEMApplication/custom_constitutive</text>
<text text-anchor="middle" x="2108.41" y="-185.5" font-family="Helvetica,sans-Serif" font-size="10.00">/DEM_D_Stress_dependent_cohesive_CL.h</text>
</a>
</g>
</g>
<!-- Node1&#45;&gt;Node19 -->
<g id="edge27" class="edge">
<title>Node1&#45;&gt;Node19</title>
<path fill="none" stroke="midnightblue" d="M1182.3,-286.96C1347.47,-278.33 1663.01,-259.66 1930.41,-231 1951.99,-228.69 1974.96,-225.75 1997,-222.7"/>
<polygon fill="midnightblue" stroke="midnightblue" points="1181.93,-283.47 1172.12,-287.49 1182.29,-290.46 1181.93,-283.47"/>
</g>
<!-- Node3 -->
<g id="node3" class="node">
<title>Node3</title>
<g id="a_node3"><a xlink:href="../../d2/d61/_d_e_m___d___linear__classic___c_l_8cpp.html" target="_top" xlink:title=" ">
<polygon fill="none" stroke="black" points="839.91,-89.5 839.91,-141.5 1038.91,-141.5 1038.91,-89.5 839.91,-89.5"/>
<text text-anchor="start" x="847.91" y="-129.5" font-family="Helvetica,sans-Serif" font-size="10.00">/home/runner/work/Documentation</text>
<text text-anchor="start" x="847.91" y="-118.5" font-family="Helvetica,sans-Serif" font-size="10.00">/Documentation/master/applications</text>
<text text-anchor="start" x="847.91" y="-107.5" font-family="Helvetica,sans-Serif" font-size="10.00">/DEMApplication/custom_constitutive</text>
<text text-anchor="middle" x="939.41" y="-96.5" font-family="Helvetica,sans-Serif" font-size="10.00">/DEM_D_Linear_classic_CL.cpp</text>
</a>
</g>
</g>
<!-- Node2&#45;&gt;Node3 -->
<g id="edge2" class="edge">
<title>Node2&#45;&gt;Node3</title>
<path fill="none" stroke="midnightblue" d="M979.54,-170.22C972.45,-160.72 964.84,-150.53 958.17,-141.61"/>
<polygon fill="midnightblue" stroke="midnightblue" points="976.82,-172.42 985.61,-178.34 982.43,-168.23 976.82,-172.42"/>
</g>
<!-- Node2&#45;&gt;Node4 -->
<g id="edge3" class="edge">
<title>Node2&#45;&gt;Node4</title>
<path fill="none" stroke="midnightblue" d="M898.23,-175.33C868.39,-165.4 841.34,-153.76 831.41,-142 810.46,-117.17 807.95,-78.29 808.97,-52.84"/>
<polygon fill="midnightblue" stroke="midnightblue" points="897.4,-178.74 908,-178.49 899.56,-172.08 897.4,-178.74"/>
</g>
<!-- Node2&#45;&gt;Node5 -->
<g id="edge4" class="edge">
<title>Node2&#45;&gt;Node5</title>
<path fill="none" stroke="midnightblue" d="M1057.81,-173.34C1079.66,-160.99 1104.31,-147.06 1123.75,-136.08"/>
<polygon fill="midnightblue" stroke="midnightblue" points="1055.94,-170.37 1048.96,-178.34 1059.38,-176.46 1055.94,-170.37"/>
</g>
<!-- Node6&#45;&gt;Node4 -->
<g id="edge7" class="edge">
<title>Node6&#45;&gt;Node4</title>
<path fill="none" stroke="midnightblue" d="M243.04,-168C242.02,-142.36 245.48,-108.87 266.41,-89 297.19,-59.79 549.33,-41.44 699.65,-32.99"/>
<polygon fill="midnightblue" stroke="midnightblue" points="239.55,-168.34 243.68,-178.1 246.54,-167.9 239.55,-168.34"/>
</g>
<!-- Node7 -->
<g id="node7" class="node">
<title>Node7</title>
<g id="a_node7"><a xlink:href="../../d4/de7/_d_e_m___d___linear__confined___c_l_8cpp.html" target="_top" xlink:title=" ">
<polygon fill="none" stroke="black" points="19.91,-89.5 19.91,-141.5 218.91,-141.5 218.91,-89.5 19.91,-89.5"/>
<text text-anchor="start" x="27.91" y="-129.5" font-family="Helvetica,sans-Serif" font-size="10.00">/home/runner/work/Documentation</text>
<text text-anchor="start" x="27.91" y="-118.5" font-family="Helvetica,sans-Serif" font-size="10.00">/Documentation/master/applications</text>
<text text-anchor="start" x="27.91" y="-107.5" font-family="Helvetica,sans-Serif" font-size="10.00">/DEMApplication/custom_constitutive</text>
<text text-anchor="middle" x="119.41" y="-96.5" font-family="Helvetica,sans-Serif" font-size="10.00">/DEM_D_Linear_confined_CL.cpp</text>
</a>
</g>
</g>
<!-- Node6&#45;&gt;Node7 -->
<g id="edge6" class="edge">
<title>Node6&#45;&gt;Node7</title>
<path fill="none" stroke="midnightblue" d="M201.81,-172.5C186.9,-162.37 170.54,-151.25 156.35,-141.61"/>
<polygon fill="midnightblue" stroke="midnightblue" points="200.15,-175.61 210.39,-178.34 204.09,-169.82 200.15,-175.61"/>
</g>
<!-- Node8&#45;&gt;Node4 -->
<g id="edge10" class="edge">
<title>Node8&#45;&gt;Node4</title>
<path fill="none" stroke="midnightblue" d="M525.22,-168.4C520.29,-143.55 518.73,-110.88 536.41,-89 557.25,-63.22 633.07,-47.5 699.83,-38.42"/>
<polygon fill="midnightblue" stroke="midnightblue" points="521.81,-169.19 527.41,-178.18 528.64,-167.66 521.81,-169.19"/>
</g>
<!-- Node8&#45;&gt;Node5 -->
<g id="edge11" class="edge">
<title>Node8&#45;&gt;Node5</title>
<path fill="none" stroke="midnightblue" d="M646.69,-180.92C653.01,-179.87 659.29,-178.89 665.41,-178 834.62,-153.51 879.64,-169.37 1048.41,-142 1058.67,-140.34 1069.39,-138.27 1079.95,-136.04"/>
<polygon fill="midnightblue" stroke="midnightblue" points="646,-177.48 636.73,-182.61 647.17,-184.38 646,-177.48"/>
</g>
<!-- Node9 -->
<g id="node9" class="node">
<title>Node9</title>
<g id="a_node9"><a xlink:href="../../da/d3b/dem__d__linear__custom__constants__cl_8cpp.html" target="_top" xlink:title=" ">
<polygon fill="none" stroke="black" points="275.91,-89.5 275.91,-141.5 488.91,-141.5 488.91,-89.5 275.91,-89.5"/>
<text text-anchor="start" x="283.91" y="-129.5" font-family="Helvetica,sans-Serif" font-size="10.00">/home/runner/work/Documentation</text>
<text text-anchor="start" x="283.91" y="-118.5" font-family="Helvetica,sans-Serif" font-size="10.00">/Documentation/master/applications</text>
<text text-anchor="start" x="283.91" y="-107.5" font-family="Helvetica,sans-Serif" font-size="10.00">/DEMApplication/custom_constitutive</text>
<text text-anchor="middle" x="382.41" y="-96.5" font-family="Helvetica,sans-Serif" font-size="10.00">/dem_d_linear_custom_constants_cl.cpp</text>
</a>
</g>
</g>
<!-- Node8&#45;&gt;Node9 -->
<g id="edge9" class="edge">
<title>Node8&#45;&gt;Node9</title>
<path fill="none" stroke="midnightblue" d="M482.4,-173.35C464.18,-163 444,-151.52 426.57,-141.61"/>
<polygon fill="midnightblue" stroke="midnightblue" points="480.74,-176.44 491.16,-178.34 484.2,-170.35 480.74,-176.44"/>
</g>
<!-- Node10&#45;&gt;Node4 -->
<g id="edge14" class="edge">
<title>Node10&#45;&gt;Node4</title>
<path fill="none" stroke="midnightblue" d="M780.57,-168.6C785.26,-145.9 791.58,-115.67 797.41,-89 800.03,-77.02 803.04,-63.75 805.59,-52.61"/>
<polygon fill="midnightblue" stroke="midnightblue" points="777.12,-167.96 778.53,-178.46 783.98,-169.37 777.12,-167.96"/>
</g>
<!-- Node11 -->
<g id="node11" class="node">
<title>Node11</title>
<g id="a_node11"><a xlink:href="../../d1/dc8/_d_e_m___d___linear___high_stiffness___c_l_8cpp.html" target="_top" xlink:title=" ">
<polygon fill="none" stroke="black" points="545.91,-89.5 545.91,-141.5 744.91,-141.5 744.91,-89.5 545.91,-89.5"/>
<text text-anchor="start" x="553.91" y="-129.5" font-family="Helvetica,sans-Serif" font-size="10.00">/home/runner/work/Documentation</text>
<text text-anchor="start" x="553.91" y="-118.5" font-family="Helvetica,sans-Serif" font-size="10.00">/Documentation/master/applications</text>
<text text-anchor="start" x="553.91" y="-107.5" font-family="Helvetica,sans-Serif" font-size="10.00">/DEMApplication/custom_constitutive</text>
<text text-anchor="middle" x="645.41" y="-96.5" font-family="Helvetica,sans-Serif" font-size="10.00">/DEM_D_Linear_HighStiffness_CL.cpp</text>
</a>
</g>
</g>
<!-- Node10&#45;&gt;Node11 -->
<g id="edge13" class="edge">
<title>Node10&#45;&gt;Node11</title>
<path fill="none" stroke="midnightblue" d="M727.81,-172.5C712.9,-162.37 696.54,-151.25 682.35,-141.61"/>
<polygon fill="midnightblue" stroke="midnightblue" points="726.15,-175.61 736.39,-178.34 730.09,-169.82 726.15,-175.61"/>
</g>
<!-- Node12&#45;&gt;Node4 -->
<g id="edge20" class="edge">
<title>Node12&#45;&gt;Node4</title>
<path fill="none" stroke="midnightblue" d="M1289.04,-168.28C1290.97,-142.78 1288.69,-109.34 1268.41,-89 1221.4,-41.83 1042.47,-29.99 922.95,-27.49"/>
<polygon fill="midnightblue" stroke="midnightblue" points="1285.55,-168.01 1288.04,-178.31 1292.52,-168.71 1285.55,-168.01"/>
</g>
<!-- Node12&#45;&gt;Node5 -->
<g id="edge21" class="edge">
<title>Node12&#45;&gt;Node5</title>
<path fill="none" stroke="midnightblue" d="M1238.89,-172.51C1221.45,-160.37 1201.97,-146.82 1186.55,-136.08"/>
<polygon fill="midnightblue" stroke="midnightblue" points="1237.05,-175.5 1247.26,-178.34 1241.05,-169.75 1237.05,-175.5"/>
</g>
<!-- Node13 -->
<g id="node13" class="node">
<title>Node13</title>
<g id="a_node13"><a xlink:href="../../dd/d88/_d_e_m___d___linear___high_stiffness__2_d___c_l_8h.html" target="_top" xlink:title=" ">
<polygon fill="none" stroke="black" points="1315.91,-89.5 1315.91,-141.5 1520.91,-141.5 1520.91,-89.5 1315.91,-89.5"/>
<text text-anchor="start" x="1323.91" y="-129.5" font-family="Helvetica,sans-Serif" font-size="10.00">/home/runner/work/Documentation</text>
<text text-anchor="start" x="1323.91" y="-118.5" font-family="Helvetica,sans-Serif" font-size="10.00">/Documentation/master/applications</text>
<text text-anchor="start" x="1323.91" y="-107.5" font-family="Helvetica,sans-Serif" font-size="10.00">/DEMApplication/custom_constitutive</text>
<text text-anchor="middle" x="1418.41" y="-96.5" font-family="Helvetica,sans-Serif" font-size="10.00">/DEM_D_Linear_HighStiffness_2D_CL.h</text>
</a>
</g>
</g>
<!-- Node12&#45;&gt;Node13 -->
<g id="edge16" class="edge">
<title>Node12&#45;&gt;Node13</title>
<path fill="none" stroke="midnightblue" d="M1331.07,-172.79C1346.91,-162.58 1364.35,-151.34 1379.45,-141.61"/>
<polygon fill="midnightblue" stroke="midnightblue" points="1328.97,-169.98 1322.46,-178.34 1332.76,-175.86 1328.97,-169.98"/>
</g>
<!-- Node15 -->
<g id="node15" class="node">
<title>Node15</title>
<g id="a_node15"><a xlink:href="../../dc/d51/_d_e_m___d___linear__viscous___coulomb__2_d___c_l_8cpp.html" target="_top" xlink:title=" ">
<polygon fill="none" stroke="black" points="1538.91,-89.5 1538.91,-141.5 1775.91,-141.5 1775.91,-89.5 1538.91,-89.5"/>
<text text-anchor="start" x="1546.91" y="-129.5" font-family="Helvetica,sans-Serif" font-size="10.00">/home/runner/work/Documentation</text>
<text text-anchor="start" x="1546.91" y="-118.5" font-family="Helvetica,sans-Serif" font-size="10.00">/Documentation/master/applications</text>
<text text-anchor="start" x="1546.91" y="-107.5" font-family="Helvetica,sans-Serif" font-size="10.00">/DEMApplication/custom_constitutive</text>
<text text-anchor="middle" x="1657.41" y="-96.5" font-family="Helvetica,sans-Serif" font-size="10.00">/DEM_D_Linear_viscous_Coulomb_2D_CL.cpp</text>
</a>
</g>
</g>
<!-- Node12&#45;&gt;Node15 -->
<g id="edge19" class="edge">
<title>Node12&#45;&gt;Node15</title>
<path fill="none" stroke="midnightblue" d="M1400.84,-176.18C1448.51,-165.09 1503.23,-152.37 1549.85,-141.52"/>
<polygon fill="midnightblue" stroke="midnightblue" points="1400.03,-172.78 1391.09,-178.45 1401.62,-179.6 1400.03,-172.78"/>
</g>
<!-- Node13&#45;&gt;Node4 -->
<g id="edge18" class="edge">
<title>Node13&#45;&gt;Node4</title>
<path fill="none" stroke="midnightblue" d="M1305.86,-89.77C1304.37,-89.51 1302.89,-89.25 1301.41,-89 1172.33,-66.88 1022.84,-49.26 923.25,-38.65"/>
<polygon fill="midnightblue" stroke="midnightblue" points="1305.32,-93.23 1315.79,-91.59 1306.58,-86.35 1305.32,-93.23"/>
</g>
<!-- Node14 -->
<g id="node14" class="node">
<title>Node14</title>
<g id="a_node14"><a xlink:href="../../d3/dae/_d_e_m___d___linear___high_stiffness__2_d___c_l_8cpp.html" target="_top" xlink:title=" ">
<polygon fill="none" stroke="black" points="1310.41,-0.5 1310.41,-52.5 1526.41,-52.5 1526.41,-0.5 1310.41,-0.5"/>
<text text-anchor="start" x="1318.41" y="-40.5" font-family="Helvetica,sans-Serif" font-size="10.00">/home/runner/work/Documentation</text>
<text text-anchor="start" x="1318.41" y="-29.5" font-family="Helvetica,sans-Serif" font-size="10.00">/Documentation/master/applications</text>
<text text-anchor="start" x="1318.41" y="-18.5" font-family="Helvetica,sans-Serif" font-size="10.00">/DEMApplication/custom_constitutive</text>
<text text-anchor="middle" x="1418.41" y="-7.5" font-family="Helvetica,sans-Serif" font-size="10.00">/DEM_D_Linear_HighStiffness_2D_CL.cpp</text>
</a>
</g>
</g>
<!-- Node13&#45;&gt;Node14 -->
<g id="edge17" class="edge">
<title>Node13&#45;&gt;Node14</title>
<path fill="none" stroke="midnightblue" d="M1418.41,-79.19C1418.41,-70.28 1418.41,-60.9 1418.41,-52.61"/>
<polygon fill="midnightblue" stroke="midnightblue" points="1414.91,-79.34 1418.41,-89.34 1421.91,-79.34 1414.91,-79.34"/>
</g>
<!-- Node17&#45;&gt;Node4 -->
<g id="edge25" class="edge">
<title>Node17&#45;&gt;Node4</title>
<path fill="none" stroke="midnightblue" d="M1930.87,-189.51C1958.63,-180.47 1985.38,-165.77 2002.41,-142 2016.13,-122.85 2018.64,-106.08 2002.41,-89 1975.55,-60.73 1340.36,-55.01 1301.41,-53 1171.68,-46.29 1022.63,-38.53 923.31,-33.35"/>
<polygon fill="midnightblue" stroke="midnightblue" points="1929.59,-186.25 1921.03,-192.48 1931.61,-192.95 1929.59,-186.25"/>
</g>
<!-- Node17&#45;&gt;Node5 -->
<g id="edge26" class="edge">
<title>Node17&#45;&gt;Node5</title>
<path fill="none" stroke="midnightblue" d="M1711.35,-187.31C1688.27,-184.09 1664.06,-180.82 1641.41,-178 1493.26,-159.53 1455.29,-162.6 1307.41,-142 1291.95,-139.85 1275.62,-137.31 1259.67,-134.7"/>
<polygon fill="midnightblue" stroke="midnightblue" points="1711.13,-190.82 1721.52,-188.74 1712.11,-183.89 1711.13,-190.82"/>
</g>
<!-- Node18 -->
<g id="node18" class="node">
<title>Node18</title>
<g id="a_node18"><a xlink:href="../../d4/d0d/_d_e_m___d___quadratic___c_l_8cpp.html" target="_top" xlink:title=" ">
<polygon fill="none" stroke="black" points="1793.91,-89.5 1793.91,-141.5 1992.91,-141.5 1992.91,-89.5 1793.91,-89.5"/>
<text text-anchor="start" x="1801.91" y="-129.5" font-family="Helvetica,sans-Serif" font-size="10.00">/home/runner/work/Documentation</text>
<text text-anchor="start" x="1801.91" y="-118.5" font-family="Helvetica,sans-Serif" font-size="10.00">/Documentation/master/applications</text>
<text text-anchor="start" x="1801.91" y="-107.5" font-family="Helvetica,sans-Serif" font-size="10.00">/DEMApplication/custom_constitutive</text>
<text text-anchor="middle" x="1893.41" y="-96.5" font-family="Helvetica,sans-Serif" font-size="10.00">/DEM_D_Quadratic_CL.cpp</text>
</a>
</g>
</g>
<!-- Node17&#45;&gt;Node18 -->
<g id="edge24" class="edge">
<title>Node17&#45;&gt;Node18</title>
<path fill="none" stroke="midnightblue" d="M1848.72,-170.5C1856.65,-160.92 1865.18,-150.62 1872.63,-141.61"/>
<polygon fill="midnightblue" stroke="midnightblue" points="1845.92,-168.4 1842.24,-178.34 1851.31,-172.86 1845.92,-168.4"/>
</g>
<!-- Node19&#45;&gt;Node4 -->
<g id="edge29" class="edge">
<title>Node19&#45;&gt;Node4</title>
<path fill="none" stroke="midnightblue" d="M2229.28,-186.58C2253.96,-177.37 2277.05,-163.33 2292.41,-142 2306.18,-122.89 2308.76,-105.96 2292.41,-89 2254.17,-49.34 1356.45,-55.43 1301.41,-53 1171.63,-47.27 1022.59,-39.31 923.29,-33.82"/>
<polygon fill="midnightblue" stroke="midnightblue" points="2228.06,-183.3 2219.76,-189.88 2230.35,-189.91 2228.06,-183.3"/>
</g>
<!-- Node19&#45;&gt;Node5 -->
<g id="edge30" class="edge">
<title>Node19&#45;&gt;Node5</title>
<path fill="none" stroke="midnightblue" d="M1986.89,-184.69C1968.02,-182.18 1948.71,-179.84 1930.41,-178 1654.45,-150.31 1582.98,-173.44 1307.41,-142 1291.9,-140.23 1275.55,-137.9 1259.58,-135.38"/>
<polygon fill="midnightblue" stroke="midnightblue" points="1986.64,-188.19 1997.02,-186.07 1987.58,-181.26 1986.64,-188.19"/>
</g>
<!-- Node20 -->
<g id="node20" class="node">
<title>Node20</title>
<g id="a_node20"><a xlink:href="../../da/ded/_d_e_m___d___stress__dependent__cohesive___c_l_8cpp.html" target="_top" xlink:title=" ">
<polygon fill="none" stroke="black" points="2049.91,-89.5 2049.91,-141.5 2282.91,-141.5 2282.91,-89.5 2049.91,-89.5"/>
<text text-anchor="start" x="2057.91" y="-129.5" font-family="Helvetica,sans-Serif" font-size="10.00">/home/runner/work/Documentation</text>
<text text-anchor="start" x="2057.91" y="-118.5" font-family="Helvetica,sans-Serif" font-size="10.00">/Documentation/master/applications</text>
<text text-anchor="start" x="2057.91" y="-107.5" font-family="Helvetica,sans-Serif" font-size="10.00">/DEMApplication/custom_constitutive</text>
<text text-anchor="middle" x="2166.41" y="-96.5" font-family="Helvetica,sans-Serif" font-size="10.00">/DEM_D_Stress_dependent_cohesive_CL.cpp</text>
</a>
</g>
</g>
<!-- Node19&#45;&gt;Node20 -->
<g id="edge28" class="edge">
<title>Node19&#45;&gt;Node20</title>
<path fill="none" stroke="midnightblue" d="M2130.79,-169.93C2137.07,-160.51 2143.79,-150.44 2149.67,-141.61"/>
<polygon fill="midnightblue" stroke="midnightblue" points="2127.82,-168.07 2125.19,-178.34 2133.65,-171.96 2127.82,-168.07"/>
</g>
</g>
</svg>
