<?xml version="1.0" encoding="UTF-8" standalone="no"?>
<!DOCTYPE svg PUBLIC "-//W3C//DTD SVG 1.1//EN"
 "http://www.w3.org/Graphics/SVG/1.1/DTD/svg11.dtd">
<!-- Generated by graphviz version 2.43.0 (0)
 -->
<!-- Title: data_transfer_operators.transfer_one_to_many.TransferOneToMany Pages: 1 -->
<svg width="193pt" height="182pt"
 viewBox="0.00 0.00 193.00 182.00" xmlns="http://www.w3.org/2000/svg" xmlns:xlink="http://www.w3.org/1999/xlink">
<g id="graph0" class="graph" transform="scale(1 1) rotate(0) translate(4 178)">
<title>data_transfer_operators.transfer_one_to_many.TransferOneToMany</title>
<!-- Node1 -->
<g id="node1" class="node">
<title>Node1</title>
<g id="a_node1"><a xlink:title="DataTransferOperator to take one single value and set it to all values on another interface.">
<polygon fill="#bfbfbf" stroke="black" points="0,-0.5 0,-68.5 185,-68.5 185,-0.5 0,-0.5"/>
<text text-anchor="start" x="8" y="-56.5" font-family="Helvetica,sans-Serif" font-size="10.00">data_transfer_operators.transfer</text>
<text text-anchor="middle" x="92.5" y="-45.5" font-family="Helvetica,sans-Serif" font-size="10.00">_one_to_many.TransferOneToMany</text>
<polyline fill="none" stroke="black" points="0,-38.5 185,-38.5 "/>
<text text-anchor="middle" x="92.5" y="-26.5" font-family="Helvetica,sans-Serif" font-size="10.00"> </text>
<polyline fill="none" stroke="black" points="0,-19.5 185,-19.5 "/>
<text text-anchor="middle" x="92.5" y="-7.5" font-family="Helvetica,sans-Serif" font-size="10.00"> </text>
</a>
</g>
</g>
<!-- Node2 -->
<g id="node2" class="node">
<title>Node2</title>
<g id="a_node2"><a xlink:title=" ">
<polygon fill="none" stroke="#bfbfbf" points="20.5,-105.5 20.5,-173.5 164.5,-173.5 164.5,-105.5 20.5,-105.5"/>
<text text-anchor="start" x="28.5" y="-161.5" font-family="Helvetica,sans-Serif" font-size="10.00">CoSimulationDataTransfer</text>
<text text-anchor="middle" x="92.5" y="-150.5" font-family="Helvetica,sans-Serif" font-size="10.00">Operator</text>
<polyline fill="none" stroke="#bfbfbf" points="20.5,-143.5 164.5,-143.5 "/>
<text text-anchor="middle" x="92.5" y="-131.5" font-family="Helvetica,sans-Serif" font-size="10.00"> </text>
<polyline fill="none" stroke="#bfbfbf" points="20.5,-124.5 164.5,-124.5 "/>
<text text-anchor="middle" x="92.5" y="-112.5" font-family="Helvetica,sans-Serif" font-size="10.00"> </text>
</a>
</g>
</g>
<!-- Node2&#45;&gt;Node1 -->
<g id="edge1" class="edge">
<title>Node2&#45;&gt;Node1</title>
<path fill="none" stroke="midnightblue" d="M92.5,-95.14C92.5,-86.26 92.5,-77.04 92.5,-68.59"/>
<polygon fill="none" stroke="midnightblue" points="89,-95.34 92.5,-105.34 96,-95.34 89,-95.34"/>
</g>
</g>
</svg>
