<?xml version="1.0" encoding="UTF-8" standalone="no"?>
<!DOCTYPE svg PUBLIC "-//W3C//DTD SVG 1.1//EN"
 "http://www.w3.org/Graphics/SVG/1.1/DTD/svg11.dtd">
<!-- Generated by graphviz version 2.43.0 (0)
 -->
<!-- Title: /home/runner/work/Documentation/Documentation/master/applications/PfemFluidDynamicsApplication/custom_elements/two_step_updated_lagrangian_V_P_implicit_fluid_FIC_element.h Pages: 1 -->
<!--zoomable 361 -->
<svg id="main" version="1.1" xmlns="http://www.w3.org/2000/svg" xmlns:xlink="http://www.w3.org/1999/xlink" xml:space="preserve" onload="init(evt)">
<style type="text/css"><![CDATA[
.edge:hover path { stroke: red; }
.edge:hover polygon { stroke: red; fill: red; }
]]></style>
<script type="text/javascript"><![CDATA[
var edges = document.getElementsByTagName('g');
if (edges && edges.length) {
  for (var i=0;i<edges.length;i++) {
    if (edges[i].id.substr(0,4)=='edge') {
      edges[i].setAttribute('class','edge');
    }
  }
}
]]></script>
        <defs>
                <circle id="rim" cx="0" cy="0" r="7"/>
                <circle id="rim2" cx="0" cy="0" r="3.5"/>
                <g id="zoomPlus">
                        <use xlink:href="#rim" fill="#404040">
                                <set attributeName="fill" to="#808080" begin="zoomplus.mouseover" end="zoomplus.mouseout"/>
                        </use>
                        <path d="M-4,0h8M0,-4v8" fill="none" stroke="white" stroke-width="1.5" pointer-events="none"/>
                </g>
                <g id="zoomMin">
                        <use xlink:href="#rim" fill="#404040">
                                <set attributeName="fill" to="#808080" begin="zoomminus.mouseover" end="zoomminus.mouseout"/>
                        </use>
                        <path d="M-4,0h8" fill="none" stroke="white" stroke-width="1.5" pointer-events="none"/>
                </g>
                <g id="dirArrow">
                        <path fill="none" stroke="white" stroke-width="1.5" d="M0,-3.0v7 M-2.5,-0.5L0,-3.0L2.5,-0.5"/>
                </g>
               <g id="resetDef">
                       <use xlink:href="#rim2" fill="#404040">
                               <set attributeName="fill" to="#808080" begin="reset.mouseover" end="reset.mouseout"/>
                       </use>
               </g>
        </defs>

<script type="text/javascript">
var viewWidth = 868;
var viewHeight = 361;
var sectionId = 'dynsection-1';
</script>
<script xlink:href="../../svgpan.js"/>
<svg id="graph" class="graph">
<g id="viewport">
<title>/home/runner/work/Documentation/Documentation/master/applications/PfemFluidDynamicsApplication/custom_elements/two_step_updated_lagrangian_V_P_implicit_fluid_FIC_element.h</title>
<!-- Node1 -->
<g id="node1" class="node">
<title>Node1</title>
<g id="a_node1"><a xlink:title=" ">
<polygon fill="#bfbfbf" stroke="black" points="329.5,-289.5 329.5,-352.5 546.5,-352.5 546.5,-289.5 329.5,-289.5"/>
<text text-anchor="start" x="337.5" y="-340.5" font-family="Helvetica,sans-Serif" font-size="10.00">/home/runner/work/Documentation</text>
<text text-anchor="start" x="337.5" y="-329.5" font-family="Helvetica,sans-Serif" font-size="10.00">/Documentation/master/applications</text>
<text text-anchor="start" x="337.5" y="-318.5" font-family="Helvetica,sans-Serif" font-size="10.00">/PfemFluidDynamicsApplication/custom</text>
<text text-anchor="start" x="337.5" y="-307.5" font-family="Helvetica,sans-Serif" font-size="10.00">_elements/two_step_updated_lagrangian</text>
<text text-anchor="middle" x="438" y="-296.5" font-family="Helvetica,sans-Serif" font-size="10.00">_V_P_implicit_fluid_FIC_element.h</text>
</a>
</g>
</g>
<!-- Node2 -->
<g id="node2" class="node">
<title>Node2</title>
<g id="a_node2"><a xlink:href="../../d7/d29/two__step__updated__lagrangian___v___p__implicit__fluid___d_e_m__coupling__element_8h.html" target="_top" xlink:title=" ">
<polygon fill="none" stroke="black" points="101.5,-189.5 101.5,-252.5 338.5,-252.5 338.5,-189.5 101.5,-189.5"/>
<text text-anchor="start" x="109.5" y="-240.5" font-family="Helvetica,sans-Serif" font-size="10.00">/home/runner/work/Documentation</text>
<text text-anchor="start" x="109.5" y="-229.5" font-family="Helvetica,sans-Serif" font-size="10.00">/Documentation/master/applications</text>
<text text-anchor="start" x="109.5" y="-218.5" font-family="Helvetica,sans-Serif" font-size="10.00">/PfemFluidDynamicsApplication/custom</text>
<text text-anchor="start" x="109.5" y="-207.5" font-family="Helvetica,sans-Serif" font-size="10.00">_elements/two_step_updated_lagrangian</text>
<text text-anchor="middle" x="220" y="-196.5" font-family="Helvetica,sans-Serif" font-size="10.00">_V_P_implicit_fluid_DEM_coupling_element.h</text>
</a>
</g>
</g>
<!-- Node1&#45;&gt;Node2 -->
<g id="edge1" class="edge">
<title>Node1&#45;&gt;Node2</title>
<path fill="none" stroke="midnightblue" d="M360.6,-285.21C336.88,-274.54 310.98,-262.9 287.94,-252.54"/>
<polygon fill="midnightblue" stroke="midnightblue" points="359.36,-288.49 369.92,-289.4 362.23,-282.1 359.36,-288.49"/>
</g>
<!-- Node4 -->
<g id="node4" class="node">
<title>Node4</title>
<g id="a_node4"><a xlink:href="../../d8/ddc/pfem__fluid__dynamics__application_8h.html" target="_top" xlink:title=" ">
<polygon fill="none" stroke="black" points="266.5,-95 266.5,-147 467.5,-147 467.5,-95 266.5,-95"/>
<text text-anchor="start" x="274.5" y="-135" font-family="Helvetica,sans-Serif" font-size="10.00">/home/runner/work/Documentation</text>
<text text-anchor="start" x="274.5" y="-124" font-family="Helvetica,sans-Serif" font-size="10.00">/Documentation/master/applications</text>
<text text-anchor="start" x="274.5" y="-113" font-family="Helvetica,sans-Serif" font-size="10.00">/PfemFluidDynamicsApplication/pfem</text>
<text text-anchor="middle" x="367" y="-102" font-family="Helvetica,sans-Serif" font-size="10.00">_fluid_dynamics_application.h</text>
</a>
</g>
</g>
<!-- Node1&#45;&gt;Node4 -->
<g id="edge9" class="edge">
<title>Node1&#45;&gt;Node4</title>
<path fill="none" stroke="midnightblue" d="M402.65,-281.31C396.2,-272.52 390.19,-262.86 386,-253 371.25,-218.32 367.6,-174.31 366.88,-147.16"/>
<polygon fill="midnightblue" stroke="midnightblue" points="400.05,-283.67 408.93,-289.44 405.59,-279.39 400.05,-283.67"/>
</g>
<!-- Node6 -->
<g id="node6" class="node">
<title>Node6</title>
<g id="a_node6"><a xlink:href="../../d0/d29/two__step__updated__lagrangian___v___p__implicit__fluid___f_i_c__cut__fem__element_8h.html" target="_top" xlink:title=" ">
<polygon fill="none" stroke="black" points="395.5,-189.5 395.5,-252.5 624.5,-252.5 624.5,-189.5 395.5,-189.5"/>
<text text-anchor="start" x="403.5" y="-240.5" font-family="Helvetica,sans-Serif" font-size="10.00">/home/runner/work/Documentation</text>
<text text-anchor="start" x="403.5" y="-229.5" font-family="Helvetica,sans-Serif" font-size="10.00">/Documentation/master/applications</text>
<text text-anchor="start" x="403.5" y="-218.5" font-family="Helvetica,sans-Serif" font-size="10.00">/PfemFluidDynamicsApplication/custom</text>
<text text-anchor="start" x="403.5" y="-207.5" font-family="Helvetica,sans-Serif" font-size="10.00">_elements/two_step_updated_lagrangian</text>
<text text-anchor="middle" x="510" y="-196.5" font-family="Helvetica,sans-Serif" font-size="10.00">_V_P_implicit_fluid_FIC_cut_fem_element.h</text>
</a>
</g>
</g>
<!-- Node1&#45;&gt;Node6 -->
<g id="edge5" class="edge">
<title>Node1&#45;&gt;Node6</title>
<path fill="none" stroke="midnightblue" d="M466.57,-281.11C473.52,-271.65 480.87,-261.65 487.5,-252.63"/>
<polygon fill="midnightblue" stroke="midnightblue" points="463.68,-279.13 460.58,-289.26 469.33,-283.27 463.68,-279.13"/>
</g>
<!-- Node8 -->
<g id="node8" class="node">
<title>Node8</title>
<g id="a_node8"><a xlink:href="../../d1/d18/two__step__updated__lagrangian___v___p__implicit__fluid___f_i_c__element_8cpp.html" target="_top" xlink:title=" ">
<polygon fill="none" stroke="black" points="642.5,-189.5 642.5,-252.5 859.5,-252.5 859.5,-189.5 642.5,-189.5"/>
<text text-anchor="start" x="650.5" y="-240.5" font-family="Helvetica,sans-Serif" font-size="10.00">/home/runner/work/Documentation</text>
<text text-anchor="start" x="650.5" y="-229.5" font-family="Helvetica,sans-Serif" font-size="10.00">/Documentation/master/applications</text>
<text text-anchor="start" x="650.5" y="-218.5" font-family="Helvetica,sans-Serif" font-size="10.00">/PfemFluidDynamicsApplication/custom</text>
<text text-anchor="start" x="650.5" y="-207.5" font-family="Helvetica,sans-Serif" font-size="10.00">_elements/two_step_updated_lagrangian</text>
<text text-anchor="middle" x="751" y="-196.5" font-family="Helvetica,sans-Serif" font-size="10.00">_V_P_implicit_fluid_FIC_element.cpp</text>
</a>
</g>
</g>
<!-- Node1&#45;&gt;Node8 -->
<g id="edge8" class="edge">
<title>Node1&#45;&gt;Node8</title>
<path fill="none" stroke="midnightblue" d="M545.52,-286.33C580.54,-275.37 619.21,-263.26 653.46,-252.54"/>
<polygon fill="midnightblue" stroke="midnightblue" points="544.25,-283.07 535.75,-289.4 546.34,-289.75 544.25,-283.07"/>
</g>
<!-- Node3 -->
<g id="node3" class="node">
<title>Node3</title>
<g id="a_node3"><a xlink:href="../../db/dd7/two__step__updated__lagrangian___v___p__implicit__fluid___d_e_m__coupling__element_8cpp.html" target="_top" xlink:title=" ">
<polygon fill="none" stroke="black" points="0,-89.5 0,-152.5 248,-152.5 248,-89.5 0,-89.5"/>
<text text-anchor="start" x="8" y="-140.5" font-family="Helvetica,sans-Serif" font-size="10.00">/home/runner/work/Documentation</text>
<text text-anchor="start" x="8" y="-129.5" font-family="Helvetica,sans-Serif" font-size="10.00">/Documentation/master/applications</text>
<text text-anchor="start" x="8" y="-118.5" font-family="Helvetica,sans-Serif" font-size="10.00">/PfemFluidDynamicsApplication/custom</text>
<text text-anchor="start" x="8" y="-107.5" font-family="Helvetica,sans-Serif" font-size="10.00">_elements/two_step_updated_lagrangian</text>
<text text-anchor="middle" x="124" y="-96.5" font-family="Helvetica,sans-Serif" font-size="10.00">_V_P_implicit_fluid_DEM_coupling_element.cpp</text>
</a>
</g>
</g>
<!-- Node2&#45;&gt;Node3 -->
<g id="edge2" class="edge">
<title>Node2&#45;&gt;Node3</title>
<path fill="none" stroke="midnightblue" d="M182.75,-181.97C173.23,-172.25 163.11,-161.93 154,-152.63"/>
<polygon fill="midnightblue" stroke="midnightblue" points="180.39,-184.57 189.89,-189.26 185.39,-179.67 180.39,-184.57"/>
</g>
<!-- Node2&#45;&gt;Node4 -->
<g id="edge3" class="edge">
<title>Node2&#45;&gt;Node4</title>
<path fill="none" stroke="midnightblue" d="M274.88,-183.41C293.05,-171.3 312.85,-158.1 329.42,-147.05"/>
<polygon fill="midnightblue" stroke="midnightblue" points="272.49,-180.8 266.11,-189.26 276.37,-186.63 272.49,-180.8"/>
</g>
<!-- Node5 -->
<g id="node5" class="node">
<title>Node5</title>
<g id="a_node5"><a xlink:href="../../da/de5/pfem__fluid__dynamics__application_8cpp.html" target="_top" xlink:title=" ">
<polygon fill="none" stroke="black" points="266.5,-0.5 266.5,-52.5 467.5,-52.5 467.5,-0.5 266.5,-0.5"/>
<text text-anchor="start" x="274.5" y="-40.5" font-family="Helvetica,sans-Serif" font-size="10.00">/home/runner/work/Documentation</text>
<text text-anchor="start" x="274.5" y="-29.5" font-family="Helvetica,sans-Serif" font-size="10.00">/Documentation/master/applications</text>
<text text-anchor="start" x="274.5" y="-18.5" font-family="Helvetica,sans-Serif" font-size="10.00">/PfemFluidDynamicsApplication/pfem</text>
<text text-anchor="middle" x="367" y="-7.5" font-family="Helvetica,sans-Serif" font-size="10.00">_fluid_dynamics_application.cpp</text>
</a>
</g>
</g>
<!-- Node4&#45;&gt;Node5 -->
<g id="edge4" class="edge">
<title>Node4&#45;&gt;Node5</title>
<path fill="none" stroke="midnightblue" d="M367,-84.49C367,-73.91 367,-62.53 367,-52.75"/>
<polygon fill="midnightblue" stroke="midnightblue" points="363.5,-84.72 367,-94.72 370.5,-84.72 363.5,-84.72"/>
</g>
<!-- Node6&#45;&gt;Node4 -->
<g id="edge7" class="edge">
<title>Node6&#45;&gt;Node4</title>
<path fill="none" stroke="midnightblue" d="M456.62,-183.41C438.94,-171.3 419.68,-158.1 403.56,-147.05"/>
<polygon fill="midnightblue" stroke="midnightblue" points="454.92,-186.5 465.15,-189.26 458.88,-180.72 454.92,-186.5"/>
</g>
<!-- Node7 -->
<g id="node7" class="node">
<title>Node7</title>
<g id="a_node7"><a xlink:href="../../d5/dc6/two__step__updated__lagrangian___v___p__implicit__fluid___f_i_c__cut__fem__element_8cpp.html" target="_top" xlink:title=" ">
<polygon fill="none" stroke="black" points="486,-89.5 486,-152.5 726,-152.5 726,-89.5 486,-89.5"/>
<text text-anchor="start" x="494" y="-140.5" font-family="Helvetica,sans-Serif" font-size="10.00">/home/runner/work/Documentation</text>
<text text-anchor="start" x="494" y="-129.5" font-family="Helvetica,sans-Serif" font-size="10.00">/Documentation/master/applications</text>
<text text-anchor="start" x="494" y="-118.5" font-family="Helvetica,sans-Serif" font-size="10.00">/PfemFluidDynamicsApplication/custom</text>
<text text-anchor="start" x="494" y="-107.5" font-family="Helvetica,sans-Serif" font-size="10.00">_elements/two_step_updated_lagrangian</text>
<text text-anchor="middle" x="606" y="-96.5" font-family="Helvetica,sans-Serif" font-size="10.00">_V_P_implicit_fluid_FIC_cut_fem_element.cpp</text>
</a>
</g>
</g>
<!-- Node6&#45;&gt;Node7 -->
<g id="edge6" class="edge">
<title>Node6&#45;&gt;Node7</title>
<path fill="none" stroke="midnightblue" d="M547.25,-181.97C556.77,-172.25 566.89,-161.93 576,-152.63"/>
<polygon fill="midnightblue" stroke="midnightblue" points="544.61,-179.67 540.11,-189.26 549.61,-184.57 544.61,-179.67"/>
</g>
</g>
</svg>
        <g id="navigator" transform="translate(0 0)" fill="#404254">
                <rect fill="#f2f5e9" fill-opacity="0.5" stroke="#606060" stroke-width=".5" x="0" y="0" width="60" height="60"/>
                <use id="zoomplus" xlink:href="#zoomPlus" x="17" y="9" onmousedown="handleZoom(evt,'in')"/>
                <use id="zoomminus" xlink:href="#zoomMin" x="42" y="9" onmousedown="handleZoom(evt,'out')"/>
                <use id="reset" xlink:href="#resetDef" x="30" y="36" onmousedown="handleReset()"/>
                <g id="arrowUp" xlink:href="#dirArrow" transform="translate(30 24)" onmousedown="handlePan(0,-1)">
                  <use xlink:href="#rim" fill="#404040">
                        <set attributeName="fill" to="#808080" begin="arrowUp.mouseover" end="arrowUp.mouseout"/>
                  </use>
                  <path fill="none" stroke="white" stroke-width="1.5" d="M0,-3.0v7 M-2.5,-0.5L0,-3.0L2.5,-0.5"/>
                </g>
                <g id="arrowRight" xlink:href="#dirArrow" transform="rotate(90) translate(36 -43)" onmousedown="handlePan(1,0)">
                  <use xlink:href="#rim" fill="#404040">
                        <set attributeName="fill" to="#808080" begin="arrowRight.mouseover" end="arrowRight.mouseout"/>
                  </use>
                  <path fill="none" stroke="white" stroke-width="1.5" d="M0,-3.0v7 M-2.5,-0.5L0,-3.0L2.5,-0.5"/>
                </g>
                <g id="arrowDown" xlink:href="#dirArrow" transform="rotate(180) translate(-30 -48)" onmousedown="handlePan(0,1)">
                  <use xlink:href="#rim" fill="#404040">
                        <set attributeName="fill" to="#808080" begin="arrowDown.mouseover" end="arrowDown.mouseout"/>
                  </use>
                  <path fill="none" stroke="white" stroke-width="1.5" d="M0,-3.0v7 M-2.5,-0.5L0,-3.0L2.5,-0.5"/>
                </g>
                <g id="arrowLeft" xlink:href="#dirArrow" transform="rotate(270) translate(-36 17)" onmousedown="handlePan(-1,0)">
                  <use xlink:href="#rim" fill="#404040">
                        <set attributeName="fill" to="#808080" begin="arrowLeft.mouseover" end="arrowLeft.mouseout"/>
                  </use>
                  <path fill="none" stroke="white" stroke-width="1.5" d="M0,-3.0v7 M-2.5,-0.5L0,-3.0L2.5,-0.5"/>
                </g>
        </g>
        <svg viewBox="0 0 15 15" width="100%" height="30px" preserveAspectRatio="xMaxYMin meet">
         <g id="arrow_out" transform="scale(0.3 0.3)">
          <a xlink:href="two__step__updated__lagrangian___v___p__implicit__fluid___f_i_c__element_8h__dep__incl_org.svg" target="_base">
           <rect id="button" ry="5" rx="5" y="6" x="6" height="38" width="38"
                fill="#f2f5e9" fill-opacity="0.5" stroke="#606060" stroke-width="1.0"/>
           <path id="arrow"
             d="M 11.500037,31.436501 C 11.940474,20.09759 22.043105,11.32322 32.158766,21.979434 L 37.068811,17.246167 C 37.068811,17.246167 37.088388,32 37.088388,32 L 22.160133,31.978069 C 22.160133,31.978069 26.997745,27.140456 26.997745,27.140456 C 18.528582,18.264221 13.291696,25.230495 11.500037,31.436501 z"
             style="fill:#404040;"/>
          </a>
         </g>
        </svg>
</svg>
