<?xml version="1.0" encoding="UTF-8" standalone="no"?>
<!DOCTYPE svg PUBLIC "-//W3C//DTD SVG 1.1//EN"
 "http://www.w3.org/Graphics/SVG/1.1/DTD/svg11.dtd">
<!-- Generated by graphviz version 2.43.0 (0)
 -->
<!-- Title: /home/runner/work/Documentation/Documentation/master/applications/StructuralMechanicsApplication/custom_elements/truss_elements/truss_element_linear_3D2N.hpp Pages: 1 -->
<!--zoomable 694 -->
<svg id="main" version="1.1" xmlns="http://www.w3.org/2000/svg" xmlns:xlink="http://www.w3.org/1999/xlink" xml:space="preserve" onload="init(evt)">
<style type="text/css"><![CDATA[
.edge:hover path { stroke: red; }
.edge:hover polygon { stroke: red; fill: red; }
]]></style>
<script type="text/javascript"><![CDATA[
var edges = document.getElementsByTagName('g');
if (edges && edges.length) {
  for (var i=0;i<edges.length;i++) {
    if (edges[i].id.substr(0,4)=='edge') {
      edges[i].setAttribute('class','edge');
    }
  }
}
]]></script>
        <defs>
                <circle id="rim" cx="0" cy="0" r="7"/>
                <circle id="rim2" cx="0" cy="0" r="3.5"/>
                <g id="zoomPlus">
                        <use xlink:href="#rim" fill="#404040">
                                <set attributeName="fill" to="#808080" begin="zoomplus.mouseover" end="zoomplus.mouseout"/>
                        </use>
                        <path d="M-4,0h8M0,-4v8" fill="none" stroke="white" stroke-width="1.5" pointer-events="none"/>
                </g>
                <g id="zoomMin">
                        <use xlink:href="#rim" fill="#404040">
                                <set attributeName="fill" to="#808080" begin="zoomminus.mouseover" end="zoomminus.mouseout"/>
                        </use>
                        <path d="M-4,0h8" fill="none" stroke="white" stroke-width="1.5" pointer-events="none"/>
                </g>
                <g id="dirArrow">
                        <path fill="none" stroke="white" stroke-width="1.5" d="M0,-3.0v7 M-2.5,-0.5L0,-3.0L2.5,-0.5"/>
                </g>
               <g id="resetDef">
                       <use xlink:href="#rim2" fill="#404040">
                               <set attributeName="fill" to="#808080" begin="reset.mouseover" end="reset.mouseout"/>
                       </use>
               </g>
        </defs>

<script type="text/javascript">
var viewWidth = 2240;
var viewHeight = 694;
var sectionId = 'dynsection-1';
</script>
<script xlink:href="../../svgpan.js"/>
<svg id="graph" class="graph">
<g id="viewport">
<title>/home/runner/work/Documentation/Documentation/master/applications/StructuralMechanicsApplication/custom_elements/truss_elements/truss_element_linear_3D2N.hpp</title>
<!-- Node1 -->
<g id="node1" class="node">
<title>Node1</title>
<g id="a_node1"><a xlink:title=" ">
<polygon fill="#bfbfbf" stroke="black" points="424,-622.5 424,-685.5 618,-685.5 618,-622.5 424,-622.5"/>
<text text-anchor="start" x="432" y="-673.5" font-family="Helvetica,sans-Serif" font-size="10.00">/home/runner/work/Documentation</text>
<text text-anchor="start" x="432" y="-662.5" font-family="Helvetica,sans-Serif" font-size="10.00">/Documentation/master/applications</text>
<text text-anchor="start" x="432" y="-651.5" font-family="Helvetica,sans-Serif" font-size="10.00">/StructuralMechanicsApplication</text>
<text text-anchor="start" x="432" y="-640.5" font-family="Helvetica,sans-Serif" font-size="10.00">/custom_elements/truss_elements</text>
<text text-anchor="middle" x="521" y="-629.5" font-family="Helvetica,sans-Serif" font-size="10.00">/truss_element_linear_3D2N.hpp</text>
</a>
</g>
</g>
<!-- Node2 -->
<g id="node2" class="node">
<title>Node2</title>
<g id="a_node2"><a xlink:href="../../de/d54/truss__element__linear__3_d2_n_8cpp.html" target="_top" xlink:title=" ">
<polygon fill="none" stroke="black" points="0,-517 0,-580 194,-580 194,-517 0,-517"/>
<text text-anchor="start" x="8" y="-568" font-family="Helvetica,sans-Serif" font-size="10.00">/home/runner/work/Documentation</text>
<text text-anchor="start" x="8" y="-557" font-family="Helvetica,sans-Serif" font-size="10.00">/Documentation/master/applications</text>
<text text-anchor="start" x="8" y="-546" font-family="Helvetica,sans-Serif" font-size="10.00">/StructuralMechanicsApplication</text>
<text text-anchor="start" x="8" y="-535" font-family="Helvetica,sans-Serif" font-size="10.00">/custom_elements/truss_elements</text>
<text text-anchor="middle" x="97" y="-524" font-family="Helvetica,sans-Serif" font-size="10.00">/truss_element_linear_3D2N.cpp</text>
</a>
</g>
</g>
<!-- Node1&#45;&gt;Node2 -->
<g id="edge1" class="edge">
<title>Node1&#45;&gt;Node2</title>
<path fill="none" stroke="midnightblue" d="M413.69,-633.83C351.67,-621.89 272.42,-605.18 203,-586 196.43,-584.19 189.68,-582.18 182.92,-580.08"/>
<polygon fill="midnightblue" stroke="midnightblue" points="413.4,-637.34 423.88,-635.78 414.72,-630.46 413.4,-637.34"/>
</g>
<!-- Node3 -->
<g id="node3" class="node">
<title>Node3</title>
<g id="a_node3"><a xlink:href="../../dd/d34/adjoint__finite__difference__base__element_8cpp.html" target="_top" xlink:title=" ">
<polygon fill="none" stroke="black" points="212,-511.5 212,-585.5 406,-585.5 406,-511.5 212,-511.5"/>
<text text-anchor="start" x="220" y="-573.5" font-family="Helvetica,sans-Serif" font-size="10.00">/home/runner/work/Documentation</text>
<text text-anchor="start" x="220" y="-562.5" font-family="Helvetica,sans-Serif" font-size="10.00">/Documentation/master/applications</text>
<text text-anchor="start" x="220" y="-551.5" font-family="Helvetica,sans-Serif" font-size="10.00">/StructuralMechanicsApplication</text>
<text text-anchor="start" x="220" y="-540.5" font-family="Helvetica,sans-Serif" font-size="10.00">/custom_response_functions/adjoint</text>
<text text-anchor="start" x="220" y="-529.5" font-family="Helvetica,sans-Serif" font-size="10.00">_elements/adjoint_finite_difference</text>
<text text-anchor="middle" x="309" y="-518.5" font-family="Helvetica,sans-Serif" font-size="10.00">_base_element.cpp</text>
</a>
</g>
</g>
<!-- Node1&#45;&gt;Node3 -->
<g id="edge2" class="edge">
<title>Node1&#45;&gt;Node3</title>
<path fill="none" stroke="midnightblue" d="M449.22,-617.96C427.82,-607.51 404.33,-596.04 382.8,-585.53"/>
<polygon fill="midnightblue" stroke="midnightblue" points="447.73,-621.12 458.25,-622.37 450.8,-614.83 447.73,-621.12"/>
</g>
<!-- Node4 -->
<g id="node4" class="node">
<title>Node4</title>
<g id="a_node4"><a xlink:href="../../d0/d75/adjoint__finite__difference__truss__element__3_d2_n_8cpp.html" target="_top" xlink:title=" ">
<polygon fill="none" stroke="black" points="424,-511.5 424,-585.5 618,-585.5 618,-511.5 424,-511.5"/>
<text text-anchor="start" x="432" y="-573.5" font-family="Helvetica,sans-Serif" font-size="10.00">/home/runner/work/Documentation</text>
<text text-anchor="start" x="432" y="-562.5" font-family="Helvetica,sans-Serif" font-size="10.00">/Documentation/master/applications</text>
<text text-anchor="start" x="432" y="-551.5" font-family="Helvetica,sans-Serif" font-size="10.00">/StructuralMechanicsApplication</text>
<text text-anchor="start" x="432" y="-540.5" font-family="Helvetica,sans-Serif" font-size="10.00">/custom_response_functions/adjoint</text>
<text text-anchor="start" x="432" y="-529.5" font-family="Helvetica,sans-Serif" font-size="10.00">_elements/adjoint_finite_difference</text>
<text text-anchor="middle" x="521" y="-518.5" font-family="Helvetica,sans-Serif" font-size="10.00">_truss_element_3D2N.cpp</text>
</a>
</g>
</g>
<!-- Node1&#45;&gt;Node4 -->
<g id="edge3" class="edge">
<title>Node1&#45;&gt;Node4</title>
<path fill="none" stroke="midnightblue" d="M521,-611.96C521,-603.32 521,-594.26 521,-585.81"/>
<polygon fill="midnightblue" stroke="midnightblue" points="517.5,-612.23 521,-622.23 524.5,-612.23 517.5,-612.23"/>
</g>
<!-- Node5 -->
<g id="node5" class="node">
<title>Node5</title>
<g id="a_node5"><a xlink:href="../../d6/d36/adjoint__finite__difference__truss__element__linear__3_d2_n_8cpp.html" target="_top" xlink:title=" ">
<polygon fill="none" stroke="black" points="636,-511.5 636,-585.5 830,-585.5 830,-511.5 636,-511.5"/>
<text text-anchor="start" x="644" y="-573.5" font-family="Helvetica,sans-Serif" font-size="10.00">/home/runner/work/Documentation</text>
<text text-anchor="start" x="644" y="-562.5" font-family="Helvetica,sans-Serif" font-size="10.00">/Documentation/master/applications</text>
<text text-anchor="start" x="644" y="-551.5" font-family="Helvetica,sans-Serif" font-size="10.00">/StructuralMechanicsApplication</text>
<text text-anchor="start" x="644" y="-540.5" font-family="Helvetica,sans-Serif" font-size="10.00">/custom_response_functions/adjoint</text>
<text text-anchor="start" x="644" y="-529.5" font-family="Helvetica,sans-Serif" font-size="10.00">_elements/adjoint_finite_difference</text>
<text text-anchor="middle" x="733" y="-518.5" font-family="Helvetica,sans-Serif" font-size="10.00">_truss_element_linear_3D2N.cpp</text>
</a>
</g>
</g>
<!-- Node1&#45;&gt;Node5 -->
<g id="edge4" class="edge">
<title>Node1&#45;&gt;Node5</title>
<path fill="none" stroke="midnightblue" d="M592.78,-617.96C614.18,-607.51 637.67,-596.04 659.2,-585.53"/>
<polygon fill="midnightblue" stroke="midnightblue" points="591.2,-614.83 583.75,-622.37 594.27,-621.12 591.2,-614.83"/>
</g>
<!-- Node6 -->
<g id="node6" class="node">
<title>Node6</title>
<g id="a_node6"><a xlink:href="../../da/d9a/structural__mechanics__application_8h.html" target="_top" xlink:title=" ">
<polygon fill="none" stroke="black" points="848,-522.5 848,-574.5 1042,-574.5 1042,-522.5 848,-522.5"/>
<text text-anchor="start" x="856" y="-562.5" font-family="Helvetica,sans-Serif" font-size="10.00">/home/runner/work/Documentation</text>
<text text-anchor="start" x="856" y="-551.5" font-family="Helvetica,sans-Serif" font-size="10.00">/Documentation/master/applications</text>
<text text-anchor="start" x="856" y="-540.5" font-family="Helvetica,sans-Serif" font-size="10.00">/StructuralMechanicsApplication</text>
<text text-anchor="middle" x="945" y="-529.5" font-family="Helvetica,sans-Serif" font-size="10.00">/structural_mechanics_application.h</text>
</a>
</g>
</g>
<!-- Node1&#45;&gt;Node6 -->
<g id="edge5" class="edge">
<title>Node1&#45;&gt;Node6</title>
<path fill="none" stroke="midnightblue" d="M628.31,-633.83C690.33,-621.89 769.58,-605.18 839,-586 851.19,-582.63 864.03,-578.62 876.39,-574.51"/>
<polygon fill="midnightblue" stroke="midnightblue" points="627.28,-630.46 618.12,-635.78 628.6,-637.34 627.28,-630.46"/>
</g>
<!-- Node7 -->
<g id="node7" class="node">
<title>Node7</title>
<g id="a_node7"><a xlink:href="../../d0/d34/kratos__internals_8h.html" target="_top" xlink:title=" ">
<polygon fill="none" stroke="black" points="240,-417 240,-469 434,-469 434,-417 240,-417"/>
<text text-anchor="start" x="248" y="-457" font-family="Helvetica,sans-Serif" font-size="10.00">/home/runner/work/Documentation</text>
<text text-anchor="start" x="248" y="-446" font-family="Helvetica,sans-Serif" font-size="10.00">/Documentation/master/applications</text>
<text text-anchor="start" x="248" y="-435" font-family="Helvetica,sans-Serif" font-size="10.00">/CSharpWrapperApplication/custom</text>
<text text-anchor="middle" x="337" y="-424" font-family="Helvetica,sans-Serif" font-size="10.00">_includes/kratos_internals.h</text>
</a>
</g>
</g>
<!-- Node6&#45;&gt;Node7 -->
<g id="edge6" class="edge">
<title>Node6&#45;&gt;Node7</title>
<path fill="none" stroke="midnightblue" d="M869.27,-519.39C859.18,-516.25 848.9,-513.34 839,-511 700.38,-478.23 536.18,-460.1 434.28,-451.21"/>
<polygon fill="midnightblue" stroke="midnightblue" points="868.28,-522.75 878.87,-522.47 870.42,-516.09 868.28,-522.75"/>
</g>
<!-- Node12 -->
<g id="node12" class="node">
<title>Node12</title>
<g id="a_node12"><a xlink:href="../../d4/d4c/dgeosettlement_8h.html" target="_top" xlink:title=" ">
<polygon fill="none" stroke="black" points="740,-417 740,-469 934,-469 934,-417 740,-417"/>
<text text-anchor="start" x="748" y="-457" font-family="Helvetica,sans-Serif" font-size="10.00">/home/runner/work/Documentation</text>
<text text-anchor="start" x="748" y="-446" font-family="Helvetica,sans-Serif" font-size="10.00">/Documentation/master/applications</text>
<text text-anchor="start" x="748" y="-435" font-family="Helvetica,sans-Serif" font-size="10.00">/GeoMechanicsApplication/custom</text>
<text text-anchor="middle" x="837" y="-424" font-family="Helvetica,sans-Serif" font-size="10.00">_workflows/dgeosettlement.h</text>
</a>
</g>
</g>
<!-- Node6&#45;&gt;Node12 -->
<g id="edge11" class="edge">
<title>Node6&#45;&gt;Node12</title>
<path fill="none" stroke="midnightblue" d="M911.48,-515.37C895.96,-500.5 877.79,-483.09 863.28,-469.18"/>
<polygon fill="midnightblue" stroke="midnightblue" points="909.21,-518.05 918.86,-522.45 914.06,-513 909.21,-518.05"/>
</g>
<!-- Node18 -->
<g id="node18" class="node">
<title>Node18</title>
<g id="a_node18"><a xlink:href="../../db/d93/structural__mechanics__application_8cpp.html" target="_top" xlink:title=" ">
<polygon fill="none" stroke="black" points="951.5,-417 951.5,-469 1154.5,-469 1154.5,-417 951.5,-417"/>
<text text-anchor="start" x="959.5" y="-457" font-family="Helvetica,sans-Serif" font-size="10.00">/home/runner/work/Documentation</text>
<text text-anchor="start" x="959.5" y="-446" font-family="Helvetica,sans-Serif" font-size="10.00">/Documentation/master/applications</text>
<text text-anchor="start" x="959.5" y="-435" font-family="Helvetica,sans-Serif" font-size="10.00">/StructuralMechanicsApplication</text>
<text text-anchor="middle" x="1053" y="-424" font-family="Helvetica,sans-Serif" font-size="10.00">/structural_mechanics_application.cpp</text>
</a>
</g>
</g>
<!-- Node6&#45;&gt;Node18 -->
<g id="edge17" class="edge">
<title>Node6&#45;&gt;Node18</title>
<path fill="none" stroke="midnightblue" d="M978.52,-515.37C994.04,-500.5 1012.21,-483.09 1026.72,-469.18"/>
<polygon fill="midnightblue" stroke="midnightblue" points="975.94,-513 971.14,-522.45 980.79,-518.05 975.94,-513"/>
</g>
<!-- Node19 -->
<g id="node19" class="node">
<title>Node19</title>
<g id="a_node19"><a xlink:href="../../d8/df8/small__displacement__simp__element_8h.html" target="_top" xlink:title=" ">
<polygon fill="none" stroke="black" points="1259,-411.5 1259,-474.5 1467,-474.5 1467,-411.5 1259,-411.5"/>
<text text-anchor="start" x="1267" y="-462.5" font-family="Helvetica,sans-Serif" font-size="10.00">/home/runner/work/Documentation</text>
<text text-anchor="start" x="1267" y="-451.5" font-family="Helvetica,sans-Serif" font-size="10.00">/Documentation/master/applications</text>
<text text-anchor="start" x="1267" y="-440.5" font-family="Helvetica,sans-Serif" font-size="10.00">/TopologyOptimizationApplication</text>
<text text-anchor="start" x="1267" y="-429.5" font-family="Helvetica,sans-Serif" font-size="10.00">/custom_elements/small_displacement</text>
<text text-anchor="middle" x="1363" y="-418.5" font-family="Helvetica,sans-Serif" font-size="10.00">_simp_element.h</text>
</a>
</g>
</g>
<!-- Node6&#45;&gt;Node19 -->
<g id="edge18" class="edge">
<title>Node6&#45;&gt;Node19</title>
<path fill="none" stroke="midnightblue" d="M1052.25,-520.94C1115.71,-505.23 1195.72,-485.42 1258.66,-469.84"/>
<polygon fill="midnightblue" stroke="midnightblue" points="1051.08,-517.63 1042.21,-523.43 1052.76,-524.42 1051.08,-517.63"/>
</g>
<!-- Node8 -->
<g id="node8" class="node">
<title>Node8</title>
<g id="a_node8"><a xlink:href="../../d0/d29/kratos__wrapper_8h.html" target="_top" xlink:title=" ">
<polygon fill="none" stroke="black" points="240,-317 240,-369 434,-369 434,-317 240,-317"/>
<text text-anchor="start" x="248" y="-357" font-family="Helvetica,sans-Serif" font-size="10.00">/home/runner/work/Documentation</text>
<text text-anchor="start" x="248" y="-346" font-family="Helvetica,sans-Serif" font-size="10.00">/Documentation/master/applications</text>
<text text-anchor="start" x="248" y="-335" font-family="Helvetica,sans-Serif" font-size="10.00">/CSharpWrapperApplication/custom</text>
<text text-anchor="middle" x="337" y="-324" font-family="Helvetica,sans-Serif" font-size="10.00">_includes/kratos_wrapper.h</text>
</a>
</g>
</g>
<!-- Node7&#45;&gt;Node8 -->
<g id="edge7" class="edge">
<title>Node7&#45;&gt;Node8</title>
<path fill="none" stroke="midnightblue" d="M337,-406.7C337,-394.28 337,-380.57 337,-369.15"/>
<polygon fill="midnightblue" stroke="midnightblue" points="333.5,-406.76 337,-416.76 340.5,-406.76 333.5,-406.76"/>
</g>
<!-- Node11 -->
<g id="node11" class="node">
<title>Node11</title>
<g id="a_node11"><a xlink:href="../../d5/d45/kratos__internals_8cpp.html" target="_top" xlink:title=" ">
<polygon fill="none" stroke="black" points="28,-317 28,-369 222,-369 222,-317 28,-317"/>
<text text-anchor="start" x="36" y="-357" font-family="Helvetica,sans-Serif" font-size="10.00">/home/runner/work/Documentation</text>
<text text-anchor="start" x="36" y="-346" font-family="Helvetica,sans-Serif" font-size="10.00">/Documentation/master/applications</text>
<text text-anchor="start" x="36" y="-335" font-family="Helvetica,sans-Serif" font-size="10.00">/CSharpWrapperApplication/custom</text>
<text text-anchor="middle" x="125" y="-324" font-family="Helvetica,sans-Serif" font-size="10.00">_sources/kratos_internals.cpp</text>
</a>
</g>
</g>
<!-- Node7&#45;&gt;Node11 -->
<g id="edge10" class="edge">
<title>Node7&#45;&gt;Node11</title>
<path fill="none" stroke="midnightblue" d="M273.54,-412.67C243.48,-398.77 207.95,-382.35 179.18,-369.04"/>
<polygon fill="midnightblue" stroke="midnightblue" points="272.13,-415.87 282.68,-416.89 275.07,-409.52 272.13,-415.87"/>
</g>
<!-- Node9 -->
<g id="node9" class="node">
<title>Node9</title>
<g id="a_node9"><a xlink:href="../../da/df4/kratos__wrapper_8cpp.html" target="_top" xlink:title=" ">
<polygon fill="none" stroke="black" points="20,-211.5 20,-263.5 214,-263.5 214,-211.5 20,-211.5"/>
<text text-anchor="start" x="28" y="-251.5" font-family="Helvetica,sans-Serif" font-size="10.00">/home/runner/work/Documentation</text>
<text text-anchor="start" x="28" y="-240.5" font-family="Helvetica,sans-Serif" font-size="10.00">/Documentation/master/applications</text>
<text text-anchor="start" x="28" y="-229.5" font-family="Helvetica,sans-Serif" font-size="10.00">/CSharpWrapperApplication/custom</text>
<text text-anchor="middle" x="117" y="-218.5" font-family="Helvetica,sans-Serif" font-size="10.00">_sources/kratos_wrapper.cpp</text>
</a>
</g>
</g>
<!-- Node8&#45;&gt;Node9 -->
<g id="edge8" class="edge">
<title>Node8&#45;&gt;Node9</title>
<path fill="none" stroke="midnightblue" d="M274.65,-312.67C241.68,-297.15 201.63,-278.31 170.15,-263.5"/>
<polygon fill="midnightblue" stroke="midnightblue" points="273.21,-315.86 283.74,-316.95 276.19,-309.52 273.21,-315.86"/>
</g>
<!-- Node10 -->
<g id="node10" class="node">
<title>Node10</title>
<g id="a_node10"><a xlink:href="../../d9/df3/_c_sharp_wrapper_application_2external__bindings_2kratos__external__bindings_8cpp.html" target="_top" xlink:title=" ">
<polygon fill="none" stroke="black" points="232.5,-211.5 232.5,-263.5 441.5,-263.5 441.5,-211.5 232.5,-211.5"/>
<text text-anchor="start" x="240.5" y="-251.5" font-family="Helvetica,sans-Serif" font-size="10.00">/home/runner/work/Documentation</text>
<text text-anchor="start" x="240.5" y="-240.5" font-family="Helvetica,sans-Serif" font-size="10.00">/Documentation/master/applications</text>
<text text-anchor="start" x="240.5" y="-229.5" font-family="Helvetica,sans-Serif" font-size="10.00">/CSharpWrapperApplication/external</text>
<text text-anchor="middle" x="337" y="-218.5" font-family="Helvetica,sans-Serif" font-size="10.00">_bindings/kratos_external_bindings.cpp</text>
</a>
</g>
</g>
<!-- Node8&#45;&gt;Node10 -->
<g id="edge9" class="edge">
<title>Node8&#45;&gt;Node10</title>
<path fill="none" stroke="midnightblue" d="M337,-306.59C337,-292.49 337,-276.57 337,-263.68"/>
<polygon fill="midnightblue" stroke="midnightblue" points="333.5,-306.95 337,-316.95 340.5,-306.95 333.5,-306.95"/>
</g>
<!-- Node13 -->
<g id="node13" class="node">
<title>Node13</title>
<g id="a_node13"><a xlink:href="../../d8/d41/_geo_mechanics_application_2custom__python_2add__custom__utilities__to__python_8cpp.html" target="_top" xlink:title=" ">
<polygon fill="none" stroke="black" points="674,-311.5 674,-374.5 868,-374.5 868,-311.5 674,-311.5"/>
<text text-anchor="start" x="682" y="-362.5" font-family="Helvetica,sans-Serif" font-size="10.00">/home/runner/work/Documentation</text>
<text text-anchor="start" x="682" y="-351.5" font-family="Helvetica,sans-Serif" font-size="10.00">/Documentation/master/applications</text>
<text text-anchor="start" x="682" y="-340.5" font-family="Helvetica,sans-Serif" font-size="10.00">/GeoMechanicsApplication/custom</text>
<text text-anchor="start" x="682" y="-329.5" font-family="Helvetica,sans-Serif" font-size="10.00">_python/add_custom_utilities_to</text>
<text text-anchor="middle" x="771" y="-318.5" font-family="Helvetica,sans-Serif" font-size="10.00">_python.cpp</text>
</a>
</g>
</g>
<!-- Node12&#45;&gt;Node13 -->
<g id="edge12" class="edge">
<title>Node12&#45;&gt;Node13</title>
<path fill="none" stroke="midnightblue" d="M814.32,-408.32C806.98,-397.43 798.89,-385.42 791.71,-374.75"/>
<polygon fill="midnightblue" stroke="midnightblue" points="811.51,-410.42 820,-416.76 817.32,-406.51 811.51,-410.42"/>
</g>
<!-- Node14 -->
<g id="node14" class="node">
<title>Node14</title>
<g id="a_node14"><a xlink:href="../../dc/d5d/custom__workflow__factory_8cpp.html" target="_top" xlink:title=" ">
<polygon fill="none" stroke="black" points="886,-317 886,-369 1104,-369 1104,-317 886,-317"/>
<text text-anchor="start" x="894" y="-357" font-family="Helvetica,sans-Serif" font-size="10.00">/home/runner/work/Documentation</text>
<text text-anchor="start" x="894" y="-346" font-family="Helvetica,sans-Serif" font-size="10.00">/Documentation/master/applications</text>
<text text-anchor="start" x="894" y="-335" font-family="Helvetica,sans-Serif" font-size="10.00">/GeoMechanicsApplication/custom</text>
<text text-anchor="middle" x="995" y="-324" font-family="Helvetica,sans-Serif" font-size="10.00">_workflows/custom_workflow_factory.cpp</text>
</a>
</g>
</g>
<!-- Node12&#45;&gt;Node14 -->
<g id="edge13" class="edge">
<title>Node12&#45;&gt;Node14</title>
<path fill="none" stroke="midnightblue" d="M886.21,-411.48C908.13,-397.88 933.64,-382.06 954.45,-369.15"/>
<polygon fill="midnightblue" stroke="midnightblue" points="884.34,-408.52 877.69,-416.76 888.03,-414.47 884.34,-408.52"/>
</g>
<!-- Node15 -->
<g id="node15" class="node">
<title>Node15</title>
<g id="a_node15"><a xlink:href="../../d3/d51/dgeosettlement_8cpp.html" target="_top" xlink:title=" ">
<polygon fill="none" stroke="black" points="1122,-317 1122,-369 1316,-369 1316,-317 1122,-317"/>
<text text-anchor="start" x="1130" y="-357" font-family="Helvetica,sans-Serif" font-size="10.00">/home/runner/work/Documentation</text>
<text text-anchor="start" x="1130" y="-346" font-family="Helvetica,sans-Serif" font-size="10.00">/Documentation/master/applications</text>
<text text-anchor="start" x="1130" y="-335" font-family="Helvetica,sans-Serif" font-size="10.00">/GeoMechanicsApplication/custom</text>
<text text-anchor="middle" x="1219" y="-324" font-family="Helvetica,sans-Serif" font-size="10.00">_workflows/dgeosettlement.cpp</text>
</a>
</g>
</g>
<!-- Node12&#45;&gt;Node15 -->
<g id="edge14" class="edge">
<title>Node12&#45;&gt;Node15</title>
<path fill="none" stroke="midnightblue" d="M929.52,-414.25C933.73,-413.12 937.91,-412.03 942,-411 1017.3,-391.99 1037.67,-393.91 1113,-375 1120.35,-373.16 1127.95,-371.14 1135.55,-369.06"/>
<polygon fill="midnightblue" stroke="midnightblue" points="928.38,-410.93 919.65,-416.93 930.22,-417.68 928.38,-410.93"/>
</g>
<!-- Node16 -->
<g id="node16" class="node">
<title>Node16</title>
<g id="a_node16"><a xlink:href="../../d4/d24/kratos__external__bindings_8h.html" target="_top" xlink:title=" ">
<polygon fill="none" stroke="black" points="458,-317 458,-369 656,-369 656,-317 458,-317"/>
<text text-anchor="start" x="466" y="-357" font-family="Helvetica,sans-Serif" font-size="10.00">/home/runner/work/Documentation</text>
<text text-anchor="start" x="466" y="-346" font-family="Helvetica,sans-Serif" font-size="10.00">/Documentation/master/applications</text>
<text text-anchor="start" x="466" y="-335" font-family="Helvetica,sans-Serif" font-size="10.00">/GeoMechanicsApplication/external</text>
<text text-anchor="middle" x="557" y="-324" font-family="Helvetica,sans-Serif" font-size="10.00">_bindings/kratos_external_bindings.h</text>
</a>
</g>
</g>
<!-- Node12&#45;&gt;Node16 -->
<g id="edge15" class="edge">
<title>Node12&#45;&gt;Node16</title>
<path fill="none" stroke="midnightblue" d="M755.74,-413.56C715.51,-399.48 667.38,-382.63 628.56,-369.04"/>
<polygon fill="midnightblue" stroke="midnightblue" points="754.66,-416.89 765.26,-416.89 756.97,-410.28 754.66,-416.89"/>
</g>
<!-- Node17 -->
<g id="node17" class="node">
<title>Node17</title>
<g id="a_node17"><a xlink:href="../../dd/d6d/_geo_mechanics_application_2external__bindings_2kratos__external__bindings_8cpp.html" target="_top" xlink:title=" ">
<polygon fill="none" stroke="black" points="459.5,-211.5 459.5,-263.5 668.5,-263.5 668.5,-211.5 459.5,-211.5"/>
<text text-anchor="start" x="467.5" y="-251.5" font-family="Helvetica,sans-Serif" font-size="10.00">/home/runner/work/Documentation</text>
<text text-anchor="start" x="467.5" y="-240.5" font-family="Helvetica,sans-Serif" font-size="10.00">/Documentation/master/applications</text>
<text text-anchor="start" x="467.5" y="-229.5" font-family="Helvetica,sans-Serif" font-size="10.00">/GeoMechanicsApplication/external</text>
<text text-anchor="middle" x="564" y="-218.5" font-family="Helvetica,sans-Serif" font-size="10.00">_bindings/kratos_external_bindings.cpp</text>
</a>
</g>
</g>
<!-- Node16&#45;&gt;Node17 -->
<g id="edge16" class="edge">
<title>Node16&#45;&gt;Node17</title>
<path fill="none" stroke="midnightblue" d="M559.39,-306.59C560.35,-292.49 561.42,-276.57 562.3,-263.68"/>
<polygon fill="midnightblue" stroke="midnightblue" points="555.88,-306.73 558.69,-316.95 562.86,-307.2 555.88,-306.73"/>
</g>
<!-- Node20 -->
<g id="node20" class="node">
<title>Node20</title>
<g id="a_node20"><a xlink:href="../../da/d01/small__displacement__simp__element_8cpp.html" target="_top" xlink:title=" ">
<polygon fill="none" stroke="black" points="1058,-206 1058,-269 1266,-269 1266,-206 1058,-206"/>
<text text-anchor="start" x="1066" y="-257" font-family="Helvetica,sans-Serif" font-size="10.00">/home/runner/work/Documentation</text>
<text text-anchor="start" x="1066" y="-246" font-family="Helvetica,sans-Serif" font-size="10.00">/Documentation/master/applications</text>
<text text-anchor="start" x="1066" y="-235" font-family="Helvetica,sans-Serif" font-size="10.00">/TopologyOptimizationApplication</text>
<text text-anchor="start" x="1066" y="-224" font-family="Helvetica,sans-Serif" font-size="10.00">/custom_elements/small_displacement</text>
<text text-anchor="middle" x="1162" y="-213" font-family="Helvetica,sans-Serif" font-size="10.00">_simp_element.cpp</text>
</a>
</g>
</g>
<!-- Node19&#45;&gt;Node20 -->
<g id="edge19" class="edge">
<title>Node19&#45;&gt;Node20</title>
<path fill="none" stroke="midnightblue" d="M1360.11,-401.24C1356.15,-372.96 1346.84,-336.03 1325,-311 1313.6,-297.93 1280.97,-282.42 1247.88,-269.11"/>
<polygon fill="midnightblue" stroke="midnightblue" points="1356.65,-401.73 1361.34,-411.23 1363.59,-400.87 1356.65,-401.73"/>
</g>
<!-- Node21 -->
<g id="node21" class="node">
<title>Node21</title>
<g id="a_node21"><a xlink:href="../../d5/d7a/structure__adjoint__sensitivity__strategy_8h.html" target="_top" xlink:title=" ">
<polygon fill="none" stroke="black" points="1284.5,-206 1284.5,-269 1479.5,-269 1479.5,-206 1284.5,-206"/>
<text text-anchor="start" x="1292.5" y="-257" font-family="Helvetica,sans-Serif" font-size="10.00">/home/runner/work/Documentation</text>
<text text-anchor="start" x="1292.5" y="-246" font-family="Helvetica,sans-Serif" font-size="10.00">/Documentation/master/applications</text>
<text text-anchor="start" x="1292.5" y="-235" font-family="Helvetica,sans-Serif" font-size="10.00">/TopologyOptimizationApplication</text>
<text text-anchor="start" x="1292.5" y="-224" font-family="Helvetica,sans-Serif" font-size="10.00">/custom_strategies/structure_adjoint</text>
<text text-anchor="middle" x="1382" y="-213" font-family="Helvetica,sans-Serif" font-size="10.00">_sensitivity_strategy.h</text>
</a>
</g>
</g>
<!-- Node19&#45;&gt;Node21 -->
<g id="edge20" class="edge">
<title>Node19&#45;&gt;Node21</title>
<path fill="none" stroke="midnightblue" d="M1366.82,-401.11C1370.46,-362.09 1375.87,-304.19 1379.15,-269.03"/>
<polygon fill="midnightblue" stroke="midnightblue" points="1363.33,-400.81 1365.89,-411.09 1370.3,-401.46 1363.33,-400.81"/>
</g>
<!-- Node23 -->
<g id="node23" class="node">
<title>Node23</title>
<g id="a_node23"><a xlink:href="../../db/d32/topology__optimization__application_8h.html" target="_top" xlink:title=" ">
<polygon fill="none" stroke="black" points="1620.5,-317 1620.5,-369 1817.5,-369 1817.5,-317 1620.5,-317"/>
<text text-anchor="start" x="1628.5" y="-357" font-family="Helvetica,sans-Serif" font-size="10.00">/home/runner/work/Documentation</text>
<text text-anchor="start" x="1628.5" y="-346" font-family="Helvetica,sans-Serif" font-size="10.00">/Documentation/master/applications</text>
<text text-anchor="start" x="1628.5" y="-335" font-family="Helvetica,sans-Serif" font-size="10.00">/TopologyOptimizationApplication</text>
<text text-anchor="middle" x="1719" y="-324" font-family="Helvetica,sans-Serif" font-size="10.00">/topology_optimization_application.h</text>
</a>
</g>
</g>
<!-- Node19&#45;&gt;Node23 -->
<g id="edge22" class="edge">
<title>Node19&#45;&gt;Node23</title>
<path fill="none" stroke="midnightblue" d="M1477.06,-410.6C1525.82,-397.18 1581.97,-381.72 1627.89,-369.08"/>
<polygon fill="midnightblue" stroke="midnightblue" points="1476.12,-407.23 1467.41,-413.26 1477.98,-413.98 1476.12,-407.23"/>
</g>
<!-- Node22 -->
<g id="node22" class="node">
<title>Node22</title>
<g id="a_node22"><a xlink:href="../../d1/d32/_topology_optimization_application_2custom__python_2add__custom__strategies__to__python_8cpp.html" target="_top" xlink:title=" ">
<polygon fill="none" stroke="black" points="1433.5,-100.5 1433.5,-163.5 1644.5,-163.5 1644.5,-100.5 1433.5,-100.5"/>
<text text-anchor="start" x="1441.5" y="-151.5" font-family="Helvetica,sans-Serif" font-size="10.00">/home/runner/work/Documentation</text>
<text text-anchor="start" x="1441.5" y="-140.5" font-family="Helvetica,sans-Serif" font-size="10.00">/Documentation/master/applications</text>
<text text-anchor="start" x="1441.5" y="-129.5" font-family="Helvetica,sans-Serif" font-size="10.00">/TopologyOptimizationApplication</text>
<text text-anchor="start" x="1441.5" y="-118.5" font-family="Helvetica,sans-Serif" font-size="10.00">/custom_python/add_custom_strategies</text>
<text text-anchor="middle" x="1539" y="-107.5" font-family="Helvetica,sans-Serif" font-size="10.00">_to_python.cpp</text>
</a>
</g>
</g>
<!-- Node21&#45;&gt;Node22 -->
<g id="edge21" class="edge">
<title>Node21&#45;&gt;Node22</title>
<path fill="none" stroke="midnightblue" d="M1437.36,-200C1455.39,-188.12 1475.19,-175.06 1492.5,-163.65"/>
<polygon fill="midnightblue" stroke="midnightblue" points="1435.1,-197.3 1428.68,-205.73 1438.96,-203.14 1435.1,-197.3"/>
</g>
<!-- Node23&#45;&gt;Node20 -->
<g id="edge23" class="edge">
<title>Node23&#45;&gt;Node20</title>
<path fill="none" stroke="midnightblue" d="M1610.25,-330.6C1519.78,-319.92 1388,-301.59 1275,-275 1267.47,-273.23 1259.73,-271.19 1251.99,-269.01"/>
<polygon fill="midnightblue" stroke="midnightblue" points="1609.91,-334.08 1620.25,-331.76 1610.72,-327.13 1609.91,-334.08"/>
</g>
<!-- Node23&#45;&gt;Node21 -->
<g id="edge26" class="edge">
<title>Node23&#45;&gt;Node21</title>
<path fill="none" stroke="midnightblue" d="M1619.78,-314.16C1579.12,-302.48 1531.68,-288.49 1489,-275 1483.01,-273.11 1476.85,-271.12 1470.65,-269.08"/>
<polygon fill="midnightblue" stroke="midnightblue" points="1618.85,-317.53 1629.42,-316.93 1620.78,-310.81 1618.85,-317.53"/>
</g>
<!-- Node23&#45;&gt;Node23 -->
<g id="edge35" class="edge">
<title>Node23&#45;&gt;Node23</title>
<path fill="none" stroke="midnightblue" d="M1826.95,-355.09C1832.33,-352.08 1835.5,-348.05 1835.5,-343 1835.5,-335.48 1828.47,-330.22 1817.59,-327.23"/>
<polygon fill="midnightblue" stroke="midnightblue" points="1825.62,-351.86 1817.59,-358.77 1828.18,-358.37 1825.62,-351.86"/>
</g>
<!-- Node24 -->
<g id="node24" class="node">
<title>Node24</title>
<g id="a_node24"><a xlink:href="../../dc/dc2/residualbased__incrementalupdate__static__simp__scheme_8h.html" target="_top" xlink:title=" ">
<polygon fill="none" stroke="black" points="1498,-200.5 1498,-274.5 1716,-274.5 1716,-200.5 1498,-200.5"/>
<text text-anchor="start" x="1506" y="-262.5" font-family="Helvetica,sans-Serif" font-size="10.00">/home/runner/work/Documentation</text>
<text text-anchor="start" x="1506" y="-251.5" font-family="Helvetica,sans-Serif" font-size="10.00">/Documentation/master/applications</text>
<text text-anchor="start" x="1506" y="-240.5" font-family="Helvetica,sans-Serif" font-size="10.00">/TopologyOptimizationApplication</text>
<text text-anchor="start" x="1506" y="-229.5" font-family="Helvetica,sans-Serif" font-size="10.00">/custom_strategies/custom_schemes</text>
<text text-anchor="start" x="1506" y="-218.5" font-family="Helvetica,sans-Serif" font-size="10.00">/residualbased_incrementalupdate_static</text>
<text text-anchor="middle" x="1607" y="-207.5" font-family="Helvetica,sans-Serif" font-size="10.00">_simp_scheme.h</text>
</a>
</g>
</g>
<!-- Node23&#45;&gt;Node24 -->
<g id="edge24" class="edge">
<title>Node23&#45;&gt;Node24</title>
<path fill="none" stroke="midnightblue" d="M1684.21,-309.85C1672.14,-298.7 1658.54,-286.12 1646.14,-274.67"/>
<polygon fill="midnightblue" stroke="midnightblue" points="1682.17,-312.73 1691.89,-316.95 1686.92,-307.59 1682.17,-312.73"/>
</g>
<!-- Node25 -->
<g id="node25" class="node">
<title>Node25</title>
<g id="a_node25"><a xlink:href="../../db/db6/structure__response__function__utilities_8h.html" target="_top" xlink:title=" ">
<polygon fill="none" stroke="black" points="1734,-206 1734,-269 1928,-269 1928,-206 1734,-206"/>
<text text-anchor="start" x="1742" y="-257" font-family="Helvetica,sans-Serif" font-size="10.00">/home/runner/work/Documentation</text>
<text text-anchor="start" x="1742" y="-246" font-family="Helvetica,sans-Serif" font-size="10.00">/Documentation/master/applications</text>
<text text-anchor="start" x="1742" y="-235" font-family="Helvetica,sans-Serif" font-size="10.00">/TopologyOptimizationApplication</text>
<text text-anchor="start" x="1742" y="-224" font-family="Helvetica,sans-Serif" font-size="10.00">/custom_utilities/structure_response</text>
<text text-anchor="middle" x="1831" y="-213" font-family="Helvetica,sans-Serif" font-size="10.00">_function_utilities.h</text>
</a>
</g>
</g>
<!-- Node23&#45;&gt;Node25 -->
<g id="edge27" class="edge">
<title>Node23&#45;&gt;Node25</title>
<path fill="none" stroke="midnightblue" d="M1753.67,-309.96C1767.7,-296.99 1783.85,-282.08 1797.74,-269.24"/>
<polygon fill="midnightblue" stroke="midnightblue" points="1751.08,-307.59 1746.11,-316.95 1755.83,-312.73 1751.08,-307.59"/>
</g>
<!-- Node27 -->
<g id="node27" class="node">
<title>Node27</title>
<g id="a_node27"><a xlink:href="../../d3/d19/topology__updating__utilities_8h.html" target="_top" xlink:title=" ">
<polygon fill="none" stroke="black" points="1796,-100.5 1796,-163.5 1990,-163.5 1990,-100.5 1796,-100.5"/>
<text text-anchor="start" x="1804" y="-151.5" font-family="Helvetica,sans-Serif" font-size="10.00">/home/runner/work/Documentation</text>
<text text-anchor="start" x="1804" y="-140.5" font-family="Helvetica,sans-Serif" font-size="10.00">/Documentation/master/applications</text>
<text text-anchor="start" x="1804" y="-129.5" font-family="Helvetica,sans-Serif" font-size="10.00">/TopologyOptimizationApplication</text>
<text text-anchor="start" x="1804" y="-118.5" font-family="Helvetica,sans-Serif" font-size="10.00">/custom_utilities/topology_updating</text>
<text text-anchor="middle" x="1893" y="-107.5" font-family="Helvetica,sans-Serif" font-size="10.00">_utilities.h</text>
</a>
</g>
</g>
<!-- Node23&#45;&gt;Node27 -->
<g id="edge33" class="edge">
<title>Node23&#45;&gt;Node27</title>
<path fill="none" stroke="midnightblue" d="M1827.39,-321.27C1874.87,-309.77 1923,-293.96 1937,-275 1961.62,-241.68 1938.07,-194.33 1917.08,-163.63"/>
<polygon fill="midnightblue" stroke="midnightblue" points="1826.53,-317.87 1817.6,-323.58 1828.14,-324.69 1826.53,-317.87"/>
</g>
<!-- Node28 -->
<g id="node28" class="node">
<title>Node28</title>
<g id="a_node28"><a xlink:href="../../de/da4/topology__filtering__utilities_8h.html" target="_top" xlink:title=" ">
<polygon fill="none" stroke="black" points="2008,-100.5 2008,-163.5 2202,-163.5 2202,-100.5 2008,-100.5"/>
<text text-anchor="start" x="2016" y="-151.5" font-family="Helvetica,sans-Serif" font-size="10.00">/home/runner/work/Documentation</text>
<text text-anchor="start" x="2016" y="-140.5" font-family="Helvetica,sans-Serif" font-size="10.00">/Documentation/master/applications</text>
<text text-anchor="start" x="2016" y="-129.5" font-family="Helvetica,sans-Serif" font-size="10.00">/TopologyOptimizationApplication</text>
<text text-anchor="start" x="2016" y="-118.5" font-family="Helvetica,sans-Serif" font-size="10.00">/custom_utilities/topology_filtering</text>
<text text-anchor="middle" x="2105" y="-107.5" font-family="Helvetica,sans-Serif" font-size="10.00">_utilities.h</text>
</a>
</g>
</g>
<!-- Node23&#45;&gt;Node28 -->
<g id="edge31" class="edge">
<title>Node23&#45;&gt;Node28</title>
<path fill="none" stroke="midnightblue" d="M1827.41,-326.46C1870.12,-316.63 1917.95,-300.7 1956,-275 1990.92,-251.42 1983.85,-229.44 2014,-200 2027.33,-186.98 2043.3,-174.39 2058.12,-163.72"/>
<polygon fill="midnightblue" stroke="midnightblue" points="1826.54,-323.07 1817.53,-328.65 1828.05,-329.9 1826.54,-323.07"/>
</g>
<!-- Node29 -->
<g id="node29" class="node">
<title>Node29</title>
<g id="a_node29"><a xlink:href="../../d2/d19/topology__optimization__application_8cpp.html" target="_top" xlink:title=" ">
<polygon fill="none" stroke="black" points="2022.5,-211.5 2022.5,-263.5 2231.5,-263.5 2231.5,-211.5 2022.5,-211.5"/>
<text text-anchor="start" x="2030.5" y="-251.5" font-family="Helvetica,sans-Serif" font-size="10.00">/home/runner/work/Documentation</text>
<text text-anchor="start" x="2030.5" y="-240.5" font-family="Helvetica,sans-Serif" font-size="10.00">/Documentation/master/applications</text>
<text text-anchor="start" x="2030.5" y="-229.5" font-family="Helvetica,sans-Serif" font-size="10.00">/TopologyOptimizationApplication</text>
<text text-anchor="middle" x="2127" y="-218.5" font-family="Helvetica,sans-Serif" font-size="10.00">/topology_optimization_application.cpp</text>
</a>
</g>
</g>
<!-- Node23&#45;&gt;Node29 -->
<g id="edge34" class="edge">
<title>Node23&#45;&gt;Node29</title>
<path fill="none" stroke="midnightblue" d="M1827.74,-318.68C1882.11,-306.54 1948.77,-290.93 2008,-275 2021.04,-271.49 2034.81,-267.52 2048.17,-263.52"/>
<polygon fill="midnightblue" stroke="midnightblue" points="1826.74,-315.31 1817.74,-320.9 1828.26,-322.15 1826.74,-315.31"/>
</g>
<!-- Node24&#45;&gt;Node22 -->
<g id="edge25" class="edge">
<title>Node24&#45;&gt;Node22</title>
<path fill="none" stroke="midnightblue" d="M1577.56,-191.69C1571.31,-182.18 1564.85,-172.35 1559.05,-163.52"/>
<polygon fill="midnightblue" stroke="midnightblue" points="1574.8,-193.86 1583.22,-200.3 1580.65,-190.02 1574.8,-193.86"/>
</g>
<!-- Node26 -->
<g id="node26" class="node">
<title>Node26</title>
<g id="a_node26"><a xlink:href="../../de/d8e/_topology_optimization_application_2custom__python_2add__custom__utilities__to__python_8cpp.html" target="_top" xlink:title=" ">
<polygon fill="none" stroke="black" points="1793.5,-0.5 1793.5,-63.5 1992.5,-63.5 1992.5,-0.5 1793.5,-0.5"/>
<text text-anchor="start" x="1801.5" y="-51.5" font-family="Helvetica,sans-Serif" font-size="10.00">/home/runner/work/Documentation</text>
<text text-anchor="start" x="1801.5" y="-40.5" font-family="Helvetica,sans-Serif" font-size="10.00">/Documentation/master/applications</text>
<text text-anchor="start" x="1801.5" y="-29.5" font-family="Helvetica,sans-Serif" font-size="10.00">/TopologyOptimizationApplication</text>
<text text-anchor="start" x="1801.5" y="-18.5" font-family="Helvetica,sans-Serif" font-size="10.00">/custom_python/add_custom_utilities</text>
<text text-anchor="middle" x="1893" y="-7.5" font-family="Helvetica,sans-Serif" font-size="10.00">_to_python.cpp</text>
</a>
</g>
</g>
<!-- Node25&#45;&gt;Node26 -->
<g id="edge28" class="edge">
<title>Node25&#45;&gt;Node26</title>
<path fill="none" stroke="midnightblue" d="M1802,-197.09C1785.08,-168.91 1770.09,-130.7 1787,-100 1795.19,-85.13 1808.24,-73.1 1822.41,-63.56"/>
<polygon fill="midnightblue" stroke="midnightblue" points="1799.23,-199.26 1807.52,-205.86 1805.16,-195.53 1799.23,-199.26"/>
</g>
<!-- Node25&#45;&gt;Node27 -->
<g id="edge29" class="edge">
<title>Node25&#45;&gt;Node27</title>
<path fill="none" stroke="midnightblue" d="M1854.6,-197.1C1861.2,-186.09 1868.27,-174.28 1874.53,-163.83"/>
<polygon fill="midnightblue" stroke="midnightblue" points="1851.57,-195.35 1849.43,-205.73 1857.58,-198.95 1851.57,-195.35"/>
</g>
<!-- Node27&#45;&gt;Node26 -->
<g id="edge30" class="edge">
<title>Node27&#45;&gt;Node26</title>
<path fill="none" stroke="midnightblue" d="M1893,-90.1C1893,-81.24 1893,-72.01 1893,-63.63"/>
<polygon fill="midnightblue" stroke="midnightblue" points="1889.5,-90.26 1893,-100.26 1896.5,-90.26 1889.5,-90.26"/>
</g>
<!-- Node28&#45;&gt;Node26 -->
<g id="edge32" class="edge">
<title>Node28&#45;&gt;Node26</title>
<path fill="none" stroke="midnightblue" d="M2029.43,-96.06C2006.44,-85.44 1981.37,-73.85 1959.07,-63.54"/>
<polygon fill="midnightblue" stroke="midnightblue" points="2028.25,-99.38 2038.79,-100.4 2031.19,-93.02 2028.25,-99.38"/>
</g>
</g>
</svg>
        <g id="navigator" transform="translate(0 0)" fill="#404254">
                <rect fill="#f2f5e9" fill-opacity="0.5" stroke="#606060" stroke-width=".5" x="0" y="0" width="60" height="60"/>
                <use id="zoomplus" xlink:href="#zoomPlus" x="17" y="9" onmousedown="handleZoom(evt,'in')"/>
                <use id="zoomminus" xlink:href="#zoomMin" x="42" y="9" onmousedown="handleZoom(evt,'out')"/>
                <use id="reset" xlink:href="#resetDef" x="30" y="36" onmousedown="handleReset()"/>
                <g id="arrowUp" xlink:href="#dirArrow" transform="translate(30 24)" onmousedown="handlePan(0,-1)">
                  <use xlink:href="#rim" fill="#404040">
                        <set attributeName="fill" to="#808080" begin="arrowUp.mouseover" end="arrowUp.mouseout"/>
                  </use>
                  <path fill="none" stroke="white" stroke-width="1.5" d="M0,-3.0v7 M-2.5,-0.5L0,-3.0L2.5,-0.5"/>
                </g>
                <g id="arrowRight" xlink:href="#dirArrow" transform="rotate(90) translate(36 -43)" onmousedown="handlePan(1,0)">
                  <use xlink:href="#rim" fill="#404040">
                        <set attributeName="fill" to="#808080" begin="arrowRight.mouseover" end="arrowRight.mouseout"/>
                  </use>
                  <path fill="none" stroke="white" stroke-width="1.5" d="M0,-3.0v7 M-2.5,-0.5L0,-3.0L2.5,-0.5"/>
                </g>
                <g id="arrowDown" xlink:href="#dirArrow" transform="rotate(180) translate(-30 -48)" onmousedown="handlePan(0,1)">
                  <use xlink:href="#rim" fill="#404040">
                        <set attributeName="fill" to="#808080" begin="arrowDown.mouseover" end="arrowDown.mouseout"/>
                  </use>
                  <path fill="none" stroke="white" stroke-width="1.5" d="M0,-3.0v7 M-2.5,-0.5L0,-3.0L2.5,-0.5"/>
                </g>
                <g id="arrowLeft" xlink:href="#dirArrow" transform="rotate(270) translate(-36 17)" onmousedown="handlePan(-1,0)">
                  <use xlink:href="#rim" fill="#404040">
                        <set attributeName="fill" to="#808080" begin="arrowLeft.mouseover" end="arrowLeft.mouseout"/>
                  </use>
                  <path fill="none" stroke="white" stroke-width="1.5" d="M0,-3.0v7 M-2.5,-0.5L0,-3.0L2.5,-0.5"/>
                </g>
        </g>
        <svg viewBox="0 0 15 15" width="100%" height="30px" preserveAspectRatio="xMaxYMin meet">
         <g id="arrow_out" transform="scale(0.3 0.3)">
          <a xlink:href="truss__element__linear__3_d2_n_8hpp__dep__incl_org.svg" target="_base">
           <rect id="button" ry="5" rx="5" y="6" x="6" height="38" width="38"
                fill="#f2f5e9" fill-opacity="0.5" stroke="#606060" stroke-width="1.0"/>
           <path id="arrow"
             d="M 11.500037,31.436501 C 11.940474,20.09759 22.043105,11.32322 32.158766,21.979434 L 37.068811,17.246167 C 37.068811,17.246167 37.088388,32 37.088388,32 L 22.160133,31.978069 C 22.160133,31.978069 26.997745,27.140456 26.997745,27.140456 C 18.528582,18.264221 13.291696,25.230495 11.500037,31.436501 z"
             style="fill:#404040;"/>
          </a>
         </g>
        </svg>
</svg>
