<?xml version="1.0" encoding="UTF-8" standalone="no"?>
<!DOCTYPE svg PUBLIC "-//W3C//DTD SVG 1.1//EN"
 "http://www.w3.org/Graphics/SVG/1.1/DTD/svg11.dtd">
<!-- Generated by graphviz version 2.43.0 (0)
 -->
<!-- Title: /home/runner/work/Documentation/Documentation/master/applications/StructuralMechanicsApplication/custom_elements/truss_element_linear_3D2N.hpp Pages: 1 -->
<svg width="2355pt" height="672pt"
 viewBox="0.00 0.00 2355.00 672.00" xmlns="http://www.w3.org/2000/svg" xmlns:xlink="http://www.w3.org/1999/xlink">
<g id="graph0" class="graph" transform="scale(1 1) rotate(0) translate(4 668)">
<title>/home/runner/work/Documentation/Documentation/master/applications/StructuralMechanicsApplication/custom_elements/truss_element_linear_3D2N.hpp</title>
<!-- Node1 -->
<g id="node1" class="node">
<title>Node1</title>
<g id="a_node1"><a xlink:title=" ">
<polygon fill="#bfbfbf" stroke="black" points="459.5,-611.5 459.5,-663.5 725.5,-663.5 725.5,-611.5 459.5,-611.5"/>
<text text-anchor="start" x="467.5" y="-651.5" font-family="Helvetica,sans-Serif" font-size="10.00">/home/runner/work/Documentation</text>
<text text-anchor="start" x="467.5" y="-640.5" font-family="Helvetica,sans-Serif" font-size="10.00">/Documentation/master/applications</text>
<text text-anchor="start" x="467.5" y="-629.5" font-family="Helvetica,sans-Serif" font-size="10.00">/StructuralMechanicsApplication</text>
<text text-anchor="middle" x="592.5" y="-618.5" font-family="Helvetica,sans-Serif" font-size="10.00">/custom_elements/truss_element_linear_3D2N.hpp</text>
</a>
</g>
</g>
<!-- Node2 -->
<g id="node2" class="node">
<title>Node2</title>
<g id="a_node2"><a xlink:href="../../de/d54/truss__element__linear__3_d2_n_8cpp.html" target="_top" xlink:title=" ">
<polygon fill="none" stroke="black" points="0,-511.5 0,-563.5 265,-563.5 265,-511.5 0,-511.5"/>
<text text-anchor="start" x="8" y="-551.5" font-family="Helvetica,sans-Serif" font-size="10.00">/home/runner/work/Documentation</text>
<text text-anchor="start" x="8" y="-540.5" font-family="Helvetica,sans-Serif" font-size="10.00">/Documentation/master/applications</text>
<text text-anchor="start" x="8" y="-529.5" font-family="Helvetica,sans-Serif" font-size="10.00">/StructuralMechanicsApplication</text>
<text text-anchor="middle" x="132.5" y="-518.5" font-family="Helvetica,sans-Serif" font-size="10.00">/custom_elements/truss_element_linear_3D2N.cpp</text>
</a>
</g>
</g>
<!-- Node1&#45;&gt;Node2 -->
<g id="edge1" class="edge">
<title>Node1&#45;&gt;Node2</title>
<path fill="none" stroke="midnightblue" d="M449.31,-610.72C394.48,-600.34 331.44,-587.81 274.5,-575 258.98,-571.51 242.57,-567.55 226.64,-563.55"/>
<polygon fill="midnightblue" stroke="midnightblue" points="448.98,-614.22 459.45,-612.63 450.28,-607.34 448.98,-614.22"/>
</g>
<!-- Node3 -->
<g id="node3" class="node">
<title>Node3</title>
<g id="a_node3"><a xlink:href="../../dd/d34/adjoint__finite__difference__base__element_8cpp.html" target="_top" xlink:title=" ">
<polygon fill="none" stroke="black" points="283.5,-500.5 283.5,-574.5 477.5,-574.5 477.5,-500.5 283.5,-500.5"/>
<text text-anchor="start" x="291.5" y="-562.5" font-family="Helvetica,sans-Serif" font-size="10.00">/home/runner/work/Documentation</text>
<text text-anchor="start" x="291.5" y="-551.5" font-family="Helvetica,sans-Serif" font-size="10.00">/Documentation/master/applications</text>
<text text-anchor="start" x="291.5" y="-540.5" font-family="Helvetica,sans-Serif" font-size="10.00">/StructuralMechanicsApplication</text>
<text text-anchor="start" x="291.5" y="-529.5" font-family="Helvetica,sans-Serif" font-size="10.00">/custom_response_functions/adjoint</text>
<text text-anchor="start" x="291.5" y="-518.5" font-family="Helvetica,sans-Serif" font-size="10.00">_elements/adjoint_finite_difference</text>
<text text-anchor="middle" x="380.5" y="-507.5" font-family="Helvetica,sans-Serif" font-size="10.00">_base_element.cpp</text>
</a>
</g>
</g>
<!-- Node1&#45;&gt;Node3 -->
<g id="edge2" class="edge">
<title>Node1&#45;&gt;Node3</title>
<path fill="none" stroke="midnightblue" d="M528.91,-607.1C506.82,-596.89 481.79,-585.32 458.67,-574.63"/>
<polygon fill="midnightblue" stroke="midnightblue" points="527.63,-610.37 538.18,-611.39 530.57,-604.02 527.63,-610.37"/>
</g>
<!-- Node4 -->
<g id="node4" class="node">
<title>Node4</title>
<g id="a_node4"><a xlink:href="../../d0/d75/adjoint__finite__difference__truss__element__3_d2_n_8cpp.html" target="_top" xlink:title=" ">
<polygon fill="none" stroke="black" points="495.5,-500.5 495.5,-574.5 689.5,-574.5 689.5,-500.5 495.5,-500.5"/>
<text text-anchor="start" x="503.5" y="-562.5" font-family="Helvetica,sans-Serif" font-size="10.00">/home/runner/work/Documentation</text>
<text text-anchor="start" x="503.5" y="-551.5" font-family="Helvetica,sans-Serif" font-size="10.00">/Documentation/master/applications</text>
<text text-anchor="start" x="503.5" y="-540.5" font-family="Helvetica,sans-Serif" font-size="10.00">/StructuralMechanicsApplication</text>
<text text-anchor="start" x="503.5" y="-529.5" font-family="Helvetica,sans-Serif" font-size="10.00">/custom_response_functions/adjoint</text>
<text text-anchor="start" x="503.5" y="-518.5" font-family="Helvetica,sans-Serif" font-size="10.00">_elements/adjoint_finite_difference</text>
<text text-anchor="middle" x="592.5" y="-507.5" font-family="Helvetica,sans-Serif" font-size="10.00">_truss_element_3D2N.cpp</text>
</a>
</g>
</g>
<!-- Node1&#45;&gt;Node4 -->
<g id="edge3" class="edge">
<title>Node1&#45;&gt;Node4</title>
<path fill="none" stroke="midnightblue" d="M592.5,-601.16C592.5,-592.57 592.5,-583.37 592.5,-574.73"/>
<polygon fill="midnightblue" stroke="midnightblue" points="589,-601.26 592.5,-611.26 596,-601.26 589,-601.26"/>
</g>
<!-- Node5 -->
<g id="node5" class="node">
<title>Node5</title>
<g id="a_node5"><a xlink:href="../../d6/d36/adjoint__finite__difference__truss__element__linear__3_d2_n_8cpp.html" target="_top" xlink:title=" ">
<polygon fill="none" stroke="black" points="707.5,-500.5 707.5,-574.5 901.5,-574.5 901.5,-500.5 707.5,-500.5"/>
<text text-anchor="start" x="715.5" y="-562.5" font-family="Helvetica,sans-Serif" font-size="10.00">/home/runner/work/Documentation</text>
<text text-anchor="start" x="715.5" y="-551.5" font-family="Helvetica,sans-Serif" font-size="10.00">/Documentation/master/applications</text>
<text text-anchor="start" x="715.5" y="-540.5" font-family="Helvetica,sans-Serif" font-size="10.00">/StructuralMechanicsApplication</text>
<text text-anchor="start" x="715.5" y="-529.5" font-family="Helvetica,sans-Serif" font-size="10.00">/custom_response_functions/adjoint</text>
<text text-anchor="start" x="715.5" y="-518.5" font-family="Helvetica,sans-Serif" font-size="10.00">_elements/adjoint_finite_difference</text>
<text text-anchor="middle" x="804.5" y="-507.5" font-family="Helvetica,sans-Serif" font-size="10.00">_truss_element_linear_3D2N.cpp</text>
</a>
</g>
</g>
<!-- Node1&#45;&gt;Node5 -->
<g id="edge4" class="edge">
<title>Node1&#45;&gt;Node5</title>
<path fill="none" stroke="midnightblue" d="M656.09,-607.1C678.18,-596.89 703.21,-585.32 726.33,-574.63"/>
<polygon fill="midnightblue" stroke="midnightblue" points="654.43,-604.02 646.82,-611.39 657.37,-610.37 654.43,-604.02"/>
</g>
<!-- Node6 -->
<g id="node6" class="node">
<title>Node6</title>
<g id="a_node6"><a xlink:href="../../da/d9a/structural__mechanics__application_8h.html" target="_top" xlink:title=" ">
<polygon fill="none" stroke="black" points="919.5,-511.5 919.5,-563.5 1113.5,-563.5 1113.5,-511.5 919.5,-511.5"/>
<text text-anchor="start" x="927.5" y="-551.5" font-family="Helvetica,sans-Serif" font-size="10.00">/home/runner/work/Documentation</text>
<text text-anchor="start" x="927.5" y="-540.5" font-family="Helvetica,sans-Serif" font-size="10.00">/Documentation/master/applications</text>
<text text-anchor="start" x="927.5" y="-529.5" font-family="Helvetica,sans-Serif" font-size="10.00">/StructuralMechanicsApplication</text>
<text text-anchor="middle" x="1016.5" y="-518.5" font-family="Helvetica,sans-Serif" font-size="10.00">/structural_mechanics_application.h</text>
</a>
</g>
</g>
<!-- Node1&#45;&gt;Node6 -->
<g id="edge5" class="edge">
<title>Node1&#45;&gt;Node6</title>
<path fill="none" stroke="midnightblue" d="M735.9,-613.19C790.9,-603.1 853.99,-590.11 910.5,-575 922.82,-571.71 935.77,-567.71 948.23,-563.58"/>
<polygon fill="midnightblue" stroke="midnightblue" points="734.95,-609.81 725.73,-615.04 736.2,-616.69 734.95,-609.81"/>
</g>
<!-- Node7 -->
<g id="node7" class="node">
<title>Node7</title>
<g id="a_node7"><a xlink:href="../../d0/d34/kratos__internals_8h.html" target="_top" xlink:title=" ">
<polygon fill="none" stroke="black" points="363.5,-406 363.5,-458 557.5,-458 557.5,-406 363.5,-406"/>
<text text-anchor="start" x="371.5" y="-446" font-family="Helvetica,sans-Serif" font-size="10.00">/home/runner/work/Documentation</text>
<text text-anchor="start" x="371.5" y="-435" font-family="Helvetica,sans-Serif" font-size="10.00">/Documentation/master/applications</text>
<text text-anchor="start" x="371.5" y="-424" font-family="Helvetica,sans-Serif" font-size="10.00">/CSharpWrapperApplication/custom</text>
<text text-anchor="middle" x="460.5" y="-413" font-family="Helvetica,sans-Serif" font-size="10.00">_includes/kratos_internals.h</text>
</a>
</g>
</g>
<!-- Node6&#45;&gt;Node7 -->
<g id="edge6" class="edge">
<title>Node6&#45;&gt;Node7</title>
<path fill="none" stroke="midnightblue" d="M939.99,-508.3C930.15,-505.22 920.14,-502.36 910.5,-500 790.61,-470.7 649.43,-452.21 557.62,-442.24"/>
<polygon fill="midnightblue" stroke="midnightblue" points="939.17,-511.71 949.76,-511.44 941.31,-505.05 939.17,-511.71"/>
</g>
<!-- Node12 -->
<g id="node12" class="node">
<title>Node12</title>
<g id="a_node12"><a xlink:href="../../d4/d4c/dgeosettlement_8h.html" target="_top" xlink:title=" ">
<polygon fill="none" stroke="black" points="811.5,-406 811.5,-458 1005.5,-458 1005.5,-406 811.5,-406"/>
<text text-anchor="start" x="819.5" y="-446" font-family="Helvetica,sans-Serif" font-size="10.00">/home/runner/work/Documentation</text>
<text text-anchor="start" x="819.5" y="-435" font-family="Helvetica,sans-Serif" font-size="10.00">/Documentation/master/applications</text>
<text text-anchor="start" x="819.5" y="-424" font-family="Helvetica,sans-Serif" font-size="10.00">/GeoMechanicsApplication/custom</text>
<text text-anchor="middle" x="908.5" y="-413" font-family="Helvetica,sans-Serif" font-size="10.00">_workflows/dgeosettlement.h</text>
</a>
</g>
</g>
<!-- Node6&#45;&gt;Node12 -->
<g id="edge11" class="edge">
<title>Node6&#45;&gt;Node12</title>
<path fill="none" stroke="midnightblue" d="M982.98,-504.37C967.46,-489.5 949.29,-472.09 934.78,-458.18"/>
<polygon fill="midnightblue" stroke="midnightblue" points="980.71,-507.05 990.36,-511.45 985.56,-502 980.71,-507.05"/>
</g>
<!-- Node17 -->
<g id="node17" class="node">
<title>Node17</title>
<g id="a_node17"><a xlink:href="../../db/d93/structural__mechanics__application_8cpp.html" target="_top" xlink:title=" ">
<polygon fill="none" stroke="black" points="1023,-406 1023,-458 1226,-458 1226,-406 1023,-406"/>
<text text-anchor="start" x="1031" y="-446" font-family="Helvetica,sans-Serif" font-size="10.00">/home/runner/work/Documentation</text>
<text text-anchor="start" x="1031" y="-435" font-family="Helvetica,sans-Serif" font-size="10.00">/Documentation/master/applications</text>
<text text-anchor="start" x="1031" y="-424" font-family="Helvetica,sans-Serif" font-size="10.00">/StructuralMechanicsApplication</text>
<text text-anchor="middle" x="1124.5" y="-413" font-family="Helvetica,sans-Serif" font-size="10.00">/structural_mechanics_application.cpp</text>
</a>
</g>
</g>
<!-- Node6&#45;&gt;Node17 -->
<g id="edge16" class="edge">
<title>Node6&#45;&gt;Node17</title>
<path fill="none" stroke="midnightblue" d="M1050.02,-504.37C1065.54,-489.5 1083.71,-472.09 1098.22,-458.18"/>
<polygon fill="midnightblue" stroke="midnightblue" points="1047.44,-502 1042.64,-511.45 1052.29,-507.05 1047.44,-502"/>
</g>
<!-- Node18 -->
<g id="node18" class="node">
<title>Node18</title>
<g id="a_node18"><a xlink:href="../../d8/df8/small__displacement__simp__element_8h.html" target="_top" xlink:title=" ">
<polygon fill="none" stroke="black" points="1288.5,-400.5 1288.5,-463.5 1496.5,-463.5 1496.5,-400.5 1288.5,-400.5"/>
<text text-anchor="start" x="1296.5" y="-451.5" font-family="Helvetica,sans-Serif" font-size="10.00">/home/runner/work/Documentation</text>
<text text-anchor="start" x="1296.5" y="-440.5" font-family="Helvetica,sans-Serif" font-size="10.00">/Documentation/master/applications</text>
<text text-anchor="start" x="1296.5" y="-429.5" font-family="Helvetica,sans-Serif" font-size="10.00">/TopologyOptimizationApplication</text>
<text text-anchor="start" x="1296.5" y="-418.5" font-family="Helvetica,sans-Serif" font-size="10.00">/custom_elements/small_displacement</text>
<text text-anchor="middle" x="1392.5" y="-407.5" font-family="Helvetica,sans-Serif" font-size="10.00">_simp_element.h</text>
</a>
</g>
</g>
<!-- Node6&#45;&gt;Node18 -->
<g id="edge17" class="edge">
<title>Node6&#45;&gt;Node18</title>
<path fill="none" stroke="midnightblue" d="M1117.26,-508.76C1170.18,-494.2 1234.95,-476.37 1288.36,-461.67"/>
<polygon fill="midnightblue" stroke="midnightblue" points="1116.23,-505.42 1107.52,-511.45 1118.09,-512.17 1116.23,-505.42"/>
</g>
<!-- Node8 -->
<g id="node8" class="node">
<title>Node8</title>
<g id="a_node8"><a xlink:href="../../d0/d29/kratos__wrapper_8h.html" target="_top" xlink:title=" ">
<polygon fill="none" stroke="black" points="151.5,-311.5 151.5,-363.5 345.5,-363.5 345.5,-311.5 151.5,-311.5"/>
<text text-anchor="start" x="159.5" y="-351.5" font-family="Helvetica,sans-Serif" font-size="10.00">/home/runner/work/Documentation</text>
<text text-anchor="start" x="159.5" y="-340.5" font-family="Helvetica,sans-Serif" font-size="10.00">/Documentation/master/applications</text>
<text text-anchor="start" x="159.5" y="-329.5" font-family="Helvetica,sans-Serif" font-size="10.00">/CSharpWrapperApplication/custom</text>
<text text-anchor="middle" x="248.5" y="-318.5" font-family="Helvetica,sans-Serif" font-size="10.00">_includes/kratos_wrapper.h</text>
</a>
</g>
</g>
<!-- Node7&#45;&gt;Node8 -->
<g id="edge7" class="edge">
<title>Node7&#45;&gt;Node8</title>
<path fill="none" stroke="midnightblue" d="M393.74,-401.87C365.54,-389.57 333.02,-375.38 305.92,-363.55"/>
<polygon fill="midnightblue" stroke="midnightblue" points="392.56,-405.18 403.13,-405.97 395.36,-398.76 392.56,-405.18"/>
</g>
<!-- Node11 -->
<g id="node11" class="node">
<title>Node11</title>
<g id="a_node11"><a xlink:href="../../d5/d45/kratos__internals_8cpp.html" target="_top" xlink:title=" ">
<polygon fill="none" stroke="black" points="363.5,-311.5 363.5,-363.5 557.5,-363.5 557.5,-311.5 363.5,-311.5"/>
<text text-anchor="start" x="371.5" y="-351.5" font-family="Helvetica,sans-Serif" font-size="10.00">/home/runner/work/Documentation</text>
<text text-anchor="start" x="371.5" y="-340.5" font-family="Helvetica,sans-Serif" font-size="10.00">/Documentation/master/applications</text>
<text text-anchor="start" x="371.5" y="-329.5" font-family="Helvetica,sans-Serif" font-size="10.00">/CSharpWrapperApplication/custom</text>
<text text-anchor="middle" x="460.5" y="-318.5" font-family="Helvetica,sans-Serif" font-size="10.00">_sources/kratos_internals.cpp</text>
</a>
</g>
</g>
<!-- Node7&#45;&gt;Node11 -->
<g id="edge10" class="edge">
<title>Node7&#45;&gt;Node11</title>
<path fill="none" stroke="midnightblue" d="M460.5,-395.49C460.5,-384.91 460.5,-373.53 460.5,-363.75"/>
<polygon fill="midnightblue" stroke="midnightblue" points="457,-395.72 460.5,-405.72 464,-395.72 457,-395.72"/>
</g>
<!-- Node9 -->
<g id="node9" class="node">
<title>Node9</title>
<g id="a_node9"><a xlink:href="../../da/df4/kratos__wrapper_8cpp.html" target="_top" xlink:title=" ">
<polygon fill="none" stroke="black" points="41.5,-211.5 41.5,-263.5 235.5,-263.5 235.5,-211.5 41.5,-211.5"/>
<text text-anchor="start" x="49.5" y="-251.5" font-family="Helvetica,sans-Serif" font-size="10.00">/home/runner/work/Documentation</text>
<text text-anchor="start" x="49.5" y="-240.5" font-family="Helvetica,sans-Serif" font-size="10.00">/Documentation/master/applications</text>
<text text-anchor="start" x="49.5" y="-229.5" font-family="Helvetica,sans-Serif" font-size="10.00">/CSharpWrapperApplication/custom</text>
<text text-anchor="middle" x="138.5" y="-218.5" font-family="Helvetica,sans-Serif" font-size="10.00">_sources/kratos_wrapper.cpp</text>
</a>
</g>
</g>
<!-- Node8&#45;&gt;Node9 -->
<g id="edge8" class="edge">
<title>Node8&#45;&gt;Node9</title>
<path fill="none" stroke="midnightblue" d="M212.61,-304.52C197.72,-291.26 180.7,-276.1 166.73,-263.65"/>
<polygon fill="midnightblue" stroke="midnightblue" points="210.38,-307.22 220.17,-311.26 215.03,-302 210.38,-307.22"/>
</g>
<!-- Node10 -->
<g id="node10" class="node">
<title>Node10</title>
<g id="a_node10"><a xlink:href="../../d9/df3/_c_sharp_wrapper_application_2external__bindings_2kratos__external__bindings_8cpp.html" target="_top" xlink:title=" ">
<polygon fill="none" stroke="black" points="254,-211.5 254,-263.5 463,-263.5 463,-211.5 254,-211.5"/>
<text text-anchor="start" x="262" y="-251.5" font-family="Helvetica,sans-Serif" font-size="10.00">/home/runner/work/Documentation</text>
<text text-anchor="start" x="262" y="-240.5" font-family="Helvetica,sans-Serif" font-size="10.00">/Documentation/master/applications</text>
<text text-anchor="start" x="262" y="-229.5" font-family="Helvetica,sans-Serif" font-size="10.00">/CSharpWrapperApplication/external</text>
<text text-anchor="middle" x="358.5" y="-218.5" font-family="Helvetica,sans-Serif" font-size="10.00">_bindings/kratos_external_bindings.cpp</text>
</a>
</g>
</g>
<!-- Node8&#45;&gt;Node10 -->
<g id="edge9" class="edge">
<title>Node8&#45;&gt;Node10</title>
<path fill="none" stroke="midnightblue" d="M284.39,-304.52C299.28,-291.26 316.3,-276.1 330.27,-263.65"/>
<polygon fill="midnightblue" stroke="midnightblue" points="281.97,-302 276.83,-311.26 286.62,-307.22 281.97,-302"/>
</g>
<!-- Node13 -->
<g id="node13" class="node">
<title>Node13</title>
<g id="a_node13"><a xlink:href="../../dc/d5d/custom__workflow__factory_8cpp.html" target="_top" xlink:title=" ">
<polygon fill="none" stroke="black" points="575.5,-311.5 575.5,-363.5 793.5,-363.5 793.5,-311.5 575.5,-311.5"/>
<text text-anchor="start" x="583.5" y="-351.5" font-family="Helvetica,sans-Serif" font-size="10.00">/home/runner/work/Documentation</text>
<text text-anchor="start" x="583.5" y="-340.5" font-family="Helvetica,sans-Serif" font-size="10.00">/Documentation/master/applications</text>
<text text-anchor="start" x="583.5" y="-329.5" font-family="Helvetica,sans-Serif" font-size="10.00">/GeoMechanicsApplication/custom</text>
<text text-anchor="middle" x="684.5" y="-318.5" font-family="Helvetica,sans-Serif" font-size="10.00">_workflows/custom_workflow_factory.cpp</text>
</a>
</g>
</g>
<!-- Node12&#45;&gt;Node13 -->
<g id="edge12" class="edge">
<title>Node12&#45;&gt;Node13</title>
<path fill="none" stroke="midnightblue" d="M838.35,-402.03C808.47,-389.69 773.93,-375.43 745.17,-363.55"/>
<polygon fill="midnightblue" stroke="midnightblue" points="837.3,-405.39 847.88,-405.97 839.98,-398.92 837.3,-405.39"/>
</g>
<!-- Node14 -->
<g id="node14" class="node">
<title>Node14</title>
<g id="a_node14"><a xlink:href="../../d3/d51/dgeosettlement_8cpp.html" target="_top" xlink:title=" ">
<polygon fill="none" stroke="black" points="811.5,-311.5 811.5,-363.5 1005.5,-363.5 1005.5,-311.5 811.5,-311.5"/>
<text text-anchor="start" x="819.5" y="-351.5" font-family="Helvetica,sans-Serif" font-size="10.00">/home/runner/work/Documentation</text>
<text text-anchor="start" x="819.5" y="-340.5" font-family="Helvetica,sans-Serif" font-size="10.00">/Documentation/master/applications</text>
<text text-anchor="start" x="819.5" y="-329.5" font-family="Helvetica,sans-Serif" font-size="10.00">/GeoMechanicsApplication/custom</text>
<text text-anchor="middle" x="908.5" y="-318.5" font-family="Helvetica,sans-Serif" font-size="10.00">_workflows/dgeosettlement.cpp</text>
</a>
</g>
</g>
<!-- Node12&#45;&gt;Node14 -->
<g id="edge13" class="edge">
<title>Node12&#45;&gt;Node14</title>
<path fill="none" stroke="midnightblue" d="M908.5,-395.49C908.5,-384.91 908.5,-373.53 908.5,-363.75"/>
<polygon fill="midnightblue" stroke="midnightblue" points="905,-395.72 908.5,-405.72 912,-395.72 905,-395.72"/>
</g>
<!-- Node15 -->
<g id="node15" class="node">
<title>Node15</title>
<g id="a_node15"><a xlink:href="../../d4/d24/kratos__external__bindings_8h.html" target="_top" xlink:title=" ">
<polygon fill="none" stroke="black" points="1023.5,-311.5 1023.5,-363.5 1221.5,-363.5 1221.5,-311.5 1023.5,-311.5"/>
<text text-anchor="start" x="1031.5" y="-351.5" font-family="Helvetica,sans-Serif" font-size="10.00">/home/runner/work/Documentation</text>
<text text-anchor="start" x="1031.5" y="-340.5" font-family="Helvetica,sans-Serif" font-size="10.00">/Documentation/master/applications</text>
<text text-anchor="start" x="1031.5" y="-329.5" font-family="Helvetica,sans-Serif" font-size="10.00">/GeoMechanicsApplication/external</text>
<text text-anchor="middle" x="1122.5" y="-318.5" font-family="Helvetica,sans-Serif" font-size="10.00">_bindings/kratos_external_bindings.h</text>
</a>
</g>
</g>
<!-- Node12&#45;&gt;Node15 -->
<g id="edge14" class="edge">
<title>Node12&#45;&gt;Node15</title>
<path fill="none" stroke="midnightblue" d="M975.88,-401.87C1004.35,-389.57 1037.18,-375.38 1064.54,-363.55"/>
<polygon fill="midnightblue" stroke="midnightblue" points="974.2,-398.79 966.41,-405.97 976.98,-405.21 974.2,-398.79"/>
</g>
<!-- Node16 -->
<g id="node16" class="node">
<title>Node16</title>
<g id="a_node16"><a xlink:href="../../dd/d6d/_geo_mechanics_application_2external__bindings_2kratos__external__bindings_8cpp.html" target="_top" xlink:title=" ">
<polygon fill="none" stroke="black" points="946,-211.5 946,-263.5 1155,-263.5 1155,-211.5 946,-211.5"/>
<text text-anchor="start" x="954" y="-251.5" font-family="Helvetica,sans-Serif" font-size="10.00">/home/runner/work/Documentation</text>
<text text-anchor="start" x="954" y="-240.5" font-family="Helvetica,sans-Serif" font-size="10.00">/Documentation/master/applications</text>
<text text-anchor="start" x="954" y="-229.5" font-family="Helvetica,sans-Serif" font-size="10.00">/GeoMechanicsApplication/external</text>
<text text-anchor="middle" x="1050.5" y="-218.5" font-family="Helvetica,sans-Serif" font-size="10.00">_bindings/kratos_external_bindings.cpp</text>
</a>
</g>
</g>
<!-- Node15&#45;&gt;Node16 -->
<g id="edge15" class="edge">
<title>Node15&#45;&gt;Node16</title>
<path fill="none" stroke="midnightblue" d="M1097.93,-303.06C1088.45,-290.15 1077.79,-275.64 1068.98,-263.65"/>
<polygon fill="midnightblue" stroke="midnightblue" points="1095.22,-305.28 1103.96,-311.26 1100.86,-301.13 1095.22,-305.28"/>
</g>
<!-- Node19 -->
<g id="node19" class="node">
<title>Node19</title>
<g id="a_node19"><a xlink:href="../../da/d01/small__displacement__simp__element_8cpp.html" target="_top" xlink:title=" ">
<polygon fill="none" stroke="black" points="1173.5,-206 1173.5,-269 1381.5,-269 1381.5,-206 1173.5,-206"/>
<text text-anchor="start" x="1181.5" y="-257" font-family="Helvetica,sans-Serif" font-size="10.00">/home/runner/work/Documentation</text>
<text text-anchor="start" x="1181.5" y="-246" font-family="Helvetica,sans-Serif" font-size="10.00">/Documentation/master/applications</text>
<text text-anchor="start" x="1181.5" y="-235" font-family="Helvetica,sans-Serif" font-size="10.00">/TopologyOptimizationApplication</text>
<text text-anchor="start" x="1181.5" y="-224" font-family="Helvetica,sans-Serif" font-size="10.00">/custom_elements/small_displacement</text>
<text text-anchor="middle" x="1277.5" y="-213" font-family="Helvetica,sans-Serif" font-size="10.00">_simp_element.cpp</text>
</a>
</g>
</g>
<!-- Node18&#45;&gt;Node19 -->
<g id="edge18" class="edge">
<title>Node18&#45;&gt;Node19</title>
<path fill="none" stroke="midnightblue" d="M1369,-391.67C1347.35,-355.43 1315.66,-302.38 1295.83,-269.18"/>
<polygon fill="midnightblue" stroke="midnightblue" points="1366.14,-393.71 1374.28,-400.5 1372.15,-390.12 1366.14,-393.71"/>
</g>
<!-- Node20 -->
<g id="node20" class="node">
<title>Node20</title>
<g id="a_node20"><a xlink:href="../../d5/d7a/structure__adjoint__sensitivity__strategy_8h.html" target="_top" xlink:title=" ">
<polygon fill="none" stroke="black" points="2152,-206 2152,-269 2347,-269 2347,-206 2152,-206"/>
<text text-anchor="start" x="2160" y="-257" font-family="Helvetica,sans-Serif" font-size="10.00">/home/runner/work/Documentation</text>
<text text-anchor="start" x="2160" y="-246" font-family="Helvetica,sans-Serif" font-size="10.00">/Documentation/master/applications</text>
<text text-anchor="start" x="2160" y="-235" font-family="Helvetica,sans-Serif" font-size="10.00">/TopologyOptimizationApplication</text>
<text text-anchor="start" x="2160" y="-224" font-family="Helvetica,sans-Serif" font-size="10.00">/custom_strategies/structure_adjoint</text>
<text text-anchor="middle" x="2249.5" y="-213" font-family="Helvetica,sans-Serif" font-size="10.00">_sensitivity_strategy.h</text>
</a>
</g>
</g>
<!-- Node18&#45;&gt;Node20 -->
<g id="edge19" class="edge">
<title>Node18&#45;&gt;Node20</title>
<path fill="none" stroke="midnightblue" d="M1506.59,-411.81C1654.51,-385.89 1919.91,-335.86 2142.5,-275 2149.13,-273.19 2155.94,-271.19 2162.77,-269.09"/>
<polygon fill="midnightblue" stroke="midnightblue" points="1505.83,-408.39 1496.58,-413.55 1507.03,-415.28 1505.83,-408.39"/>
</g>
<!-- Node22 -->
<g id="node22" class="node">
<title>Node22</title>
<g id="a_node22"><a xlink:href="../../db/d32/topology__optimization__application_8h.html" target="_top" xlink:title=" ">
<polygon fill="none" stroke="black" points="1438,-311.5 1438,-363.5 1635,-363.5 1635,-311.5 1438,-311.5"/>
<text text-anchor="start" x="1446" y="-351.5" font-family="Helvetica,sans-Serif" font-size="10.00">/home/runner/work/Documentation</text>
<text text-anchor="start" x="1446" y="-340.5" font-family="Helvetica,sans-Serif" font-size="10.00">/Documentation/master/applications</text>
<text text-anchor="start" x="1446" y="-329.5" font-family="Helvetica,sans-Serif" font-size="10.00">/TopologyOptimizationApplication</text>
<text text-anchor="middle" x="1536.5" y="-318.5" font-family="Helvetica,sans-Serif" font-size="10.00">/topology_optimization_application.h</text>
</a>
</g>
</g>
<!-- Node18&#45;&gt;Node22 -->
<g id="edge21" class="edge">
<title>Node18&#45;&gt;Node22</title>
<path fill="none" stroke="midnightblue" d="M1448.89,-394.78C1465.03,-384.41 1482.28,-373.33 1497.17,-363.77"/>
<polygon fill="midnightblue" stroke="midnightblue" points="1446.57,-392.11 1440.05,-400.46 1450.36,-398 1446.57,-392.11"/>
</g>
<!-- Node21 -->
<g id="node21" class="node">
<title>Node21</title>
<g id="a_node21"><a xlink:href="../../d1/d32/_topology_optimization_application_2custom__python_2add__custom__strategies__to__python_8cpp.html" target="_top" xlink:title=" ">
<polygon fill="none" stroke="black" points="2031,-100.5 2031,-163.5 2242,-163.5 2242,-100.5 2031,-100.5"/>
<text text-anchor="start" x="2039" y="-151.5" font-family="Helvetica,sans-Serif" font-size="10.00">/home/runner/work/Documentation</text>
<text text-anchor="start" x="2039" y="-140.5" font-family="Helvetica,sans-Serif" font-size="10.00">/Documentation/master/applications</text>
<text text-anchor="start" x="2039" y="-129.5" font-family="Helvetica,sans-Serif" font-size="10.00">/TopologyOptimizationApplication</text>
<text text-anchor="start" x="2039" y="-118.5" font-family="Helvetica,sans-Serif" font-size="10.00">/custom_python/add_custom_strategies</text>
<text text-anchor="middle" x="2136.5" y="-107.5" font-family="Helvetica,sans-Serif" font-size="10.00">_to_python.cpp</text>
</a>
</g>
</g>
<!-- Node20&#45;&gt;Node21 -->
<g id="edge20" class="edge">
<title>Node20&#45;&gt;Node21</title>
<path fill="none" stroke="midnightblue" d="M2208.27,-198.73C2195.74,-187.26 2182.13,-174.79 2170.16,-163.83"/>
<polygon fill="midnightblue" stroke="midnightblue" points="2206.16,-201.55 2215.9,-205.73 2210.89,-196.39 2206.16,-201.55"/>
</g>
<!-- Node22&#45;&gt;Node19 -->
<g id="edge22" class="edge">
<title>Node22&#45;&gt;Node19</title>
<path fill="none" stroke="midnightblue" d="M1460.38,-307.7C1428.34,-295.58 1391.03,-281.46 1358.49,-269.14"/>
<polygon fill="midnightblue" stroke="midnightblue" points="1459.55,-311.12 1470.14,-311.39 1462.02,-304.58 1459.55,-311.12"/>
</g>
<!-- Node22&#45;&gt;Node20 -->
<g id="edge25" class="edge">
<title>Node22&#45;&gt;Node20</title>
<path fill="none" stroke="midnightblue" d="M1645.3,-332.91C1767.5,-327.16 1971.16,-312.4 2142.5,-275 2150.17,-273.33 2158.06,-271.28 2165.9,-269.03"/>
<polygon fill="midnightblue" stroke="midnightblue" points="1645.02,-329.42 1635.19,-333.37 1645.34,-336.41 1645.02,-329.42"/>
</g>
<!-- Node22&#45;&gt;Node22 -->
<g id="edge34" class="edge">
<title>Node22&#45;&gt;Node22</title>
<path fill="none" stroke="midnightblue" d="M1644.82,-348.67C1649.97,-345.86 1653,-342.14 1653,-337.5 1653,-330.43 1645.97,-325.49 1635.09,-322.67"/>
<polygon fill="midnightblue" stroke="midnightblue" points="1643.22,-345.53 1635.09,-352.33 1645.68,-352.08 1643.22,-345.53"/>
</g>
<!-- Node23 -->
<g id="node23" class="node">
<title>Node23</title>
<g id="a_node23"><a xlink:href="../../dc/dc2/residualbased__incrementalupdate__static__simp__scheme_8h.html" target="_top" xlink:title=" ">
<polygon fill="none" stroke="black" points="1915.5,-200.5 1915.5,-274.5 2133.5,-274.5 2133.5,-200.5 1915.5,-200.5"/>
<text text-anchor="start" x="1923.5" y="-262.5" font-family="Helvetica,sans-Serif" font-size="10.00">/home/runner/work/Documentation</text>
<text text-anchor="start" x="1923.5" y="-251.5" font-family="Helvetica,sans-Serif" font-size="10.00">/Documentation/master/applications</text>
<text text-anchor="start" x="1923.5" y="-240.5" font-family="Helvetica,sans-Serif" font-size="10.00">/TopologyOptimizationApplication</text>
<text text-anchor="start" x="1923.5" y="-229.5" font-family="Helvetica,sans-Serif" font-size="10.00">/custom_strategies/custom_schemes</text>
<text text-anchor="start" x="1923.5" y="-218.5" font-family="Helvetica,sans-Serif" font-size="10.00">/residualbased_incrementalupdate_static</text>
<text text-anchor="middle" x="2024.5" y="-207.5" font-family="Helvetica,sans-Serif" font-size="10.00">_simp_scheme.h</text>
</a>
</g>
</g>
<!-- Node22&#45;&gt;Node23 -->
<g id="edge23" class="edge">
<title>Node22&#45;&gt;Node23</title>
<path fill="none" stroke="midnightblue" d="M1645.66,-322.32C1719.75,-311.72 1819.65,-295.55 1906.5,-275 1909.42,-274.31 1912.38,-273.58 1915.35,-272.83"/>
<polygon fill="midnightblue" stroke="midnightblue" points="1644.79,-318.9 1635.38,-323.77 1645.77,-325.84 1644.79,-318.9"/>
</g>
<!-- Node24 -->
<g id="node24" class="node">
<title>Node24</title>
<g id="a_node24"><a xlink:href="../../db/db6/structure__response__function__utilities_8h.html" target="_top" xlink:title=" ">
<polygon fill="none" stroke="black" points="1703.5,-206 1703.5,-269 1897.5,-269 1897.5,-206 1703.5,-206"/>
<text text-anchor="start" x="1711.5" y="-257" font-family="Helvetica,sans-Serif" font-size="10.00">/home/runner/work/Documentation</text>
<text text-anchor="start" x="1711.5" y="-246" font-family="Helvetica,sans-Serif" font-size="10.00">/Documentation/master/applications</text>
<text text-anchor="start" x="1711.5" y="-235" font-family="Helvetica,sans-Serif" font-size="10.00">/TopologyOptimizationApplication</text>
<text text-anchor="start" x="1711.5" y="-224" font-family="Helvetica,sans-Serif" font-size="10.00">/custom_utilities/structure_response</text>
<text text-anchor="middle" x="1800.5" y="-213" font-family="Helvetica,sans-Serif" font-size="10.00">_function_utilities.h</text>
</a>
</g>
</g>
<!-- Node22&#45;&gt;Node24 -->
<g id="edge26" class="edge">
<title>Node22&#45;&gt;Node24</title>
<path fill="none" stroke="midnightblue" d="M1613.67,-307.85C1646.42,-295.7 1684.64,-281.51 1717.95,-269.14"/>
<polygon fill="midnightblue" stroke="midnightblue" points="1612.3,-304.63 1604.14,-311.39 1614.74,-311.19 1612.3,-304.63"/>
</g>
<!-- Node26 -->
<g id="node26" class="node">
<title>Node26</title>
<g id="a_node26"><a xlink:href="../../d3/d19/topology__updating__utilities_8h.html" target="_top" xlink:title=" ">
<polygon fill="none" stroke="black" points="1544.5,-100.5 1544.5,-163.5 1738.5,-163.5 1738.5,-100.5 1544.5,-100.5"/>
<text text-anchor="start" x="1552.5" y="-151.5" font-family="Helvetica,sans-Serif" font-size="10.00">/home/runner/work/Documentation</text>
<text text-anchor="start" x="1552.5" y="-140.5" font-family="Helvetica,sans-Serif" font-size="10.00">/Documentation/master/applications</text>
<text text-anchor="start" x="1552.5" y="-129.5" font-family="Helvetica,sans-Serif" font-size="10.00">/TopologyOptimizationApplication</text>
<text text-anchor="start" x="1552.5" y="-118.5" font-family="Helvetica,sans-Serif" font-size="10.00">/custom_utilities/topology_updating</text>
<text text-anchor="middle" x="1641.5" y="-107.5" font-family="Helvetica,sans-Serif" font-size="10.00">_utilities.h</text>
</a>
</g>
</g>
<!-- Node22&#45;&gt;Node26 -->
<g id="edge32" class="edge">
<title>Node22&#45;&gt;Node26</title>
<path fill="none" stroke="midnightblue" d="M1488.78,-304.58C1479.75,-296.11 1471.55,-286.17 1466.5,-275 1452.76,-244.63 1447.61,-227.46 1466.5,-200 1476.5,-185.46 1509.46,-171.21 1544.12,-159.61"/>
<polygon fill="midnightblue" stroke="midnightblue" points="1486.69,-307.4 1496.52,-311.34 1491.29,-302.13 1486.69,-307.4"/>
</g>
<!-- Node27 -->
<g id="node27" class="node">
<title>Node27</title>
<g id="a_node27"><a xlink:href="../../de/da4/topology__filtering__utilities_8h.html" target="_top" xlink:title=" ">
<polygon fill="none" stroke="black" points="1319.5,-100.5 1319.5,-163.5 1513.5,-163.5 1513.5,-100.5 1319.5,-100.5"/>
<text text-anchor="start" x="1327.5" y="-151.5" font-family="Helvetica,sans-Serif" font-size="10.00">/home/runner/work/Documentation</text>
<text text-anchor="start" x="1327.5" y="-140.5" font-family="Helvetica,sans-Serif" font-size="10.00">/Documentation/master/applications</text>
<text text-anchor="start" x="1327.5" y="-129.5" font-family="Helvetica,sans-Serif" font-size="10.00">/TopologyOptimizationApplication</text>
<text text-anchor="start" x="1327.5" y="-118.5" font-family="Helvetica,sans-Serif" font-size="10.00">/custom_utilities/topology_filtering</text>
<text text-anchor="middle" x="1416.5" y="-107.5" font-family="Helvetica,sans-Serif" font-size="10.00">_utilities.h</text>
</a>
</g>
</g>
<!-- Node22&#45;&gt;Node27 -->
<g id="edge30" class="edge">
<title>Node22&#45;&gt;Node27</title>
<path fill="none" stroke="midnightblue" d="M1480.49,-305.36C1469.16,-296.81 1458.34,-286.64 1450.5,-275 1427.85,-241.35 1420.23,-194.3 1417.7,-163.74"/>
<polygon fill="midnightblue" stroke="midnightblue" points="1478.62,-308.32 1488.79,-311.29 1482.69,-302.63 1478.62,-308.32"/>
</g>
<!-- Node28 -->
<g id="node28" class="node">
<title>Node28</title>
<g id="a_node28"><a xlink:href="../../d2/d19/topology__optimization__application_8cpp.html" target="_top" xlink:title=" ">
<polygon fill="none" stroke="black" points="1476,-211.5 1476,-263.5 1685,-263.5 1685,-211.5 1476,-211.5"/>
<text text-anchor="start" x="1484" y="-251.5" font-family="Helvetica,sans-Serif" font-size="10.00">/home/runner/work/Documentation</text>
<text text-anchor="start" x="1484" y="-240.5" font-family="Helvetica,sans-Serif" font-size="10.00">/Documentation/master/applications</text>
<text text-anchor="start" x="1484" y="-229.5" font-family="Helvetica,sans-Serif" font-size="10.00">/TopologyOptimizationApplication</text>
<text text-anchor="middle" x="1580.5" y="-218.5" font-family="Helvetica,sans-Serif" font-size="10.00">/topology_optimization_application.cpp</text>
</a>
</g>
</g>
<!-- Node22&#45;&gt;Node28 -->
<g id="edge33" class="edge">
<title>Node22&#45;&gt;Node28</title>
<path fill="none" stroke="midnightblue" d="M1552.01,-301.95C1557.68,-289.33 1563.98,-275.3 1569.21,-263.65"/>
<polygon fill="midnightblue" stroke="midnightblue" points="1548.73,-300.71 1547.83,-311.26 1555.12,-303.57 1548.73,-300.71"/>
</g>
<!-- Node23&#45;&gt;Node21 -->
<g id="edge24" class="edge">
<title>Node23&#45;&gt;Node21</title>
<path fill="none" stroke="midnightblue" d="M2071.1,-193.44C2081.97,-183.39 2093.34,-172.89 2103.48,-163.52"/>
<polygon fill="midnightblue" stroke="midnightblue" points="2068.64,-190.94 2063.67,-200.3 2073.39,-196.08 2068.64,-190.94"/>
</g>
<!-- Node25 -->
<g id="node25" class="node">
<title>Node25</title>
<g id="a_node25"><a xlink:href="../../de/d8e/_topology_optimization_application_2custom__python_2add__custom__utilities__to__python_8cpp.html" target="_top" xlink:title=" ">
<polygon fill="none" stroke="black" points="1542,-0.5 1542,-63.5 1741,-63.5 1741,-0.5 1542,-0.5"/>
<text text-anchor="start" x="1550" y="-51.5" font-family="Helvetica,sans-Serif" font-size="10.00">/home/runner/work/Documentation</text>
<text text-anchor="start" x="1550" y="-40.5" font-family="Helvetica,sans-Serif" font-size="10.00">/Documentation/master/applications</text>
<text text-anchor="start" x="1550" y="-29.5" font-family="Helvetica,sans-Serif" font-size="10.00">/TopologyOptimizationApplication</text>
<text text-anchor="start" x="1550" y="-18.5" font-family="Helvetica,sans-Serif" font-size="10.00">/custom_python/add_custom_utilities</text>
<text text-anchor="middle" x="1641.5" y="-7.5" font-family="Helvetica,sans-Serif" font-size="10.00">_to_python.cpp</text>
</a>
</g>
</g>
<!-- Node24&#45;&gt;Node25 -->
<g id="edge27" class="edge">
<title>Node24&#45;&gt;Node25</title>
<path fill="none" stroke="midnightblue" d="M1791.94,-195.85C1784.2,-166.7 1770.41,-127.83 1747.5,-100 1735.74,-85.71 1720.1,-73.53 1704.46,-63.62"/>
<polygon fill="midnightblue" stroke="midnightblue" points="1788.59,-196.88 1794.44,-205.72 1795.38,-195.17 1788.59,-196.88"/>
</g>
<!-- Node24&#45;&gt;Node26 -->
<g id="edge28" class="edge">
<title>Node24&#45;&gt;Node26</title>
<path fill="none" stroke="midnightblue" d="M1744.43,-200C1726.18,-188.12 1706.12,-175.06 1688.59,-163.65"/>
<polygon fill="midnightblue" stroke="midnightblue" points="1742.93,-203.2 1753.23,-205.73 1746.75,-197.34 1742.93,-203.2"/>
</g>
<!-- Node26&#45;&gt;Node25 -->
<g id="edge29" class="edge">
<title>Node26&#45;&gt;Node25</title>
<path fill="none" stroke="midnightblue" d="M1641.5,-90.1C1641.5,-81.24 1641.5,-72.01 1641.5,-63.63"/>
<polygon fill="midnightblue" stroke="midnightblue" points="1638,-90.26 1641.5,-100.26 1645,-90.26 1638,-90.26"/>
</g>
<!-- Node27&#45;&gt;Node25 -->
<g id="edge31" class="edge">
<title>Node27&#45;&gt;Node25</title>
<path fill="none" stroke="midnightblue" d="M1496.06,-96.35C1520.63,-85.65 1547.5,-73.94 1571.38,-63.54"/>
<polygon fill="midnightblue" stroke="midnightblue" points="1494.54,-93.19 1486.77,-100.4 1497.33,-99.61 1494.54,-93.19"/>
</g>
</g>
</svg>
