<?xml version="1.0" encoding="UTF-8" standalone="no"?>
<!DOCTYPE svg PUBLIC "-//W3C//DTD SVG 1.1//EN"
 "http://www.w3.org/Graphics/SVG/1.1/DTD/svg11.dtd">
<!-- Generated by graphviz version 2.43.0 (0)
 -->
<!-- Title: /home/runner/work/Documentation/Documentation/master/applications/ConstitutiveLawsApplication/custom_constitutive/thermal/small_strains/elastic/thermal_linear_plane_strain.h Pages: 1 -->
<svg width="698pt" height="361pt"
 viewBox="0.00 0.00 698.00 361.00" xmlns="http://www.w3.org/2000/svg" xmlns:xlink="http://www.w3.org/1999/xlink">
<g id="graph0" class="graph" transform="scale(1 1) rotate(0) translate(4 357)">
<title>/home/runner/work/Documentation/Documentation/master/applications/ConstitutiveLawsApplication/custom_constitutive/thermal/small_strains/elastic/thermal_linear_plane_strain.h</title>
<!-- Node1 -->
<g id="node1" class="node">
<title>Node1</title>
<g id="a_node1"><a xlink:title=" ">
<polygon fill="#bfbfbf" stroke="black" points="243.5,-289.5 243.5,-352.5 443.5,-352.5 443.5,-289.5 243.5,-289.5"/>
<text text-anchor="start" x="251.5" y="-340.5" font-family="Helvetica,sans-Serif" font-size="10.00">/home/runner/work/Documentation</text>
<text text-anchor="start" x="251.5" y="-329.5" font-family="Helvetica,sans-Serif" font-size="10.00">/Documentation/master/applications</text>
<text text-anchor="start" x="251.5" y="-318.5" font-family="Helvetica,sans-Serif" font-size="10.00">/ConstitutiveLawsApplication/custom</text>
<text text-anchor="start" x="251.5" y="-307.5" font-family="Helvetica,sans-Serif" font-size="10.00">_constitutive/thermal/small_strains</text>
<text text-anchor="middle" x="343.5" y="-296.5" font-family="Helvetica,sans-Serif" font-size="10.00">/elastic/thermal_linear_plane_strain.h</text>
</a>
</g>
</g>
<!-- Node2 -->
<g id="node2" class="node">
<title>Node2</title>
<g id="a_node2"><a xlink:href="../../dc/d99/constitutive__laws__application_8h.html" target="_top" xlink:title=" ">
<polygon fill="none" stroke="black" points="0,-95 0,-147 219,-147 219,-95 0,-95"/>
<text text-anchor="start" x="8" y="-135" font-family="Helvetica,sans-Serif" font-size="10.00">/home/runner/work/Documentation</text>
<text text-anchor="start" x="8" y="-124" font-family="Helvetica,sans-Serif" font-size="10.00">/Documentation/master/applications</text>
<text text-anchor="start" x="8" y="-113" font-family="Helvetica,sans-Serif" font-size="10.00">/ConstitutiveLawsApplication/constitutive</text>
<text text-anchor="middle" x="109.5" y="-102" font-family="Helvetica,sans-Serif" font-size="10.00">_laws_application.h</text>
</a>
</g>
</g>
<!-- Node1&#45;&gt;Node2 -->
<g id="edge1" class="edge">
<title>Node1&#45;&gt;Node2</title>
<path fill="none" stroke="midnightblue" d="M233.48,-300.01C183.41,-288.53 131.9,-272.5 116.5,-253 92.78,-222.98 97.18,-175.94 103,-147.15"/>
<polygon fill="midnightblue" stroke="midnightblue" points="232.94,-303.48 243.46,-302.25 234.47,-296.65 232.94,-303.48"/>
</g>
<!-- Node4 -->
<g id="node4" class="node">
<title>Node4</title>
<g id="a_node4"><a xlink:href="../../de/dec/thermal__linear__plane__strain_8cpp.html" target="_top" xlink:title=" ">
<polygon fill="none" stroke="black" points="125.5,-189.5 125.5,-252.5 337.5,-252.5 337.5,-189.5 125.5,-189.5"/>
<text text-anchor="start" x="133.5" y="-240.5" font-family="Helvetica,sans-Serif" font-size="10.00">/home/runner/work/Documentation</text>
<text text-anchor="start" x="133.5" y="-229.5" font-family="Helvetica,sans-Serif" font-size="10.00">/Documentation/master/applications</text>
<text text-anchor="start" x="133.5" y="-218.5" font-family="Helvetica,sans-Serif" font-size="10.00">/ConstitutiveLawsApplication/custom</text>
<text text-anchor="start" x="133.5" y="-207.5" font-family="Helvetica,sans-Serif" font-size="10.00">_constitutive/thermal/small_strains</text>
<text text-anchor="middle" x="231.5" y="-196.5" font-family="Helvetica,sans-Serif" font-size="10.00">/elastic/thermal_linear_plane_strain.cpp</text>
</a>
</g>
</g>
<!-- Node1&#45;&gt;Node4 -->
<g id="edge3" class="edge">
<title>Node1&#45;&gt;Node4</title>
<path fill="none" stroke="midnightblue" d="M300.69,-282.54C289.4,-272.66 277.34,-262.11 266.51,-252.63"/>
<polygon fill="midnightblue" stroke="midnightblue" points="298.54,-285.31 308.37,-289.26 303.15,-280.04 298.54,-285.31"/>
</g>
<!-- Node5 -->
<g id="node5" class="node">
<title>Node5</title>
<g id="a_node5"><a xlink:href="../../d5/d1e/thermal__linear__plane__stress_8h.html" target="_top" xlink:title=" ">
<polygon fill="none" stroke="black" points="355.5,-189.5 355.5,-252.5 557.5,-252.5 557.5,-189.5 355.5,-189.5"/>
<text text-anchor="start" x="363.5" y="-240.5" font-family="Helvetica,sans-Serif" font-size="10.00">/home/runner/work/Documentation</text>
<text text-anchor="start" x="363.5" y="-229.5" font-family="Helvetica,sans-Serif" font-size="10.00">/Documentation/master/applications</text>
<text text-anchor="start" x="363.5" y="-218.5" font-family="Helvetica,sans-Serif" font-size="10.00">/ConstitutiveLawsApplication/custom</text>
<text text-anchor="start" x="363.5" y="-207.5" font-family="Helvetica,sans-Serif" font-size="10.00">_constitutive/thermal/small_strains</text>
<text text-anchor="middle" x="456.5" y="-196.5" font-family="Helvetica,sans-Serif" font-size="10.00">/elastic/thermal_linear_plane_stress.h</text>
</a>
</g>
</g>
<!-- Node1&#45;&gt;Node5 -->
<g id="edge4" class="edge">
<title>Node1&#45;&gt;Node5</title>
<path fill="none" stroke="midnightblue" d="M386.69,-282.54C398.09,-272.66 410.25,-262.11 421.18,-252.63"/>
<polygon fill="midnightblue" stroke="midnightblue" points="384.21,-280.07 378.94,-289.26 388.79,-285.35 384.21,-280.07"/>
</g>
<!-- Node7 -->
<g id="node7" class="node">
<title>Node7</title>
<g id="a_node7"><a xlink:href="../../d8/d97/_constitutive_laws_application_2custom__python_2add__custom__constitutive__laws__to__python_8cpp.html" target="_top" xlink:title=" ">
<polygon fill="none" stroke="black" points="481,-89.5 481,-152.5 690,-152.5 690,-89.5 481,-89.5"/>
<text text-anchor="start" x="489" y="-140.5" font-family="Helvetica,sans-Serif" font-size="10.00">/home/runner/work/Documentation</text>
<text text-anchor="start" x="489" y="-129.5" font-family="Helvetica,sans-Serif" font-size="10.00">/Documentation/master/applications</text>
<text text-anchor="start" x="489" y="-118.5" font-family="Helvetica,sans-Serif" font-size="10.00">/ConstitutiveLawsApplication/custom</text>
<text text-anchor="start" x="489" y="-107.5" font-family="Helvetica,sans-Serif" font-size="10.00">_python/add_custom_constitutive_laws</text>
<text text-anchor="middle" x="585.5" y="-96.5" font-family="Helvetica,sans-Serif" font-size="10.00">_to_python.cpp</text>
</a>
</g>
</g>
<!-- Node1&#45;&gt;Node7 -->
<g id="edge8" class="edge">
<title>Node1&#45;&gt;Node7</title>
<path fill="none" stroke="midnightblue" d="M453.57,-311.61C494.72,-302.82 538.28,-285.74 566.5,-253 590.28,-225.41 591.9,-181.77 589.68,-152.53"/>
<polygon fill="midnightblue" stroke="midnightblue" points="452.86,-308.18 443.73,-313.56 454.22,-315.05 452.86,-308.18"/>
</g>
<!-- Node3 -->
<g id="node3" class="node">
<title>Node3</title>
<g id="a_node3"><a xlink:href="../../d3/d03/constitutive__laws__application_8cpp.html" target="_top" xlink:title=" ">
<polygon fill="none" stroke="black" points="0,-0.5 0,-52.5 219,-52.5 219,-0.5 0,-0.5"/>
<text text-anchor="start" x="8" y="-40.5" font-family="Helvetica,sans-Serif" font-size="10.00">/home/runner/work/Documentation</text>
<text text-anchor="start" x="8" y="-29.5" font-family="Helvetica,sans-Serif" font-size="10.00">/Documentation/master/applications</text>
<text text-anchor="start" x="8" y="-18.5" font-family="Helvetica,sans-Serif" font-size="10.00">/ConstitutiveLawsApplication/constitutive</text>
<text text-anchor="middle" x="109.5" y="-7.5" font-family="Helvetica,sans-Serif" font-size="10.00">_laws_application.cpp</text>
</a>
</g>
</g>
<!-- Node2&#45;&gt;Node3 -->
<g id="edge2" class="edge">
<title>Node2&#45;&gt;Node3</title>
<path fill="none" stroke="midnightblue" d="M109.5,-84.49C109.5,-73.91 109.5,-62.53 109.5,-52.75"/>
<polygon fill="midnightblue" stroke="midnightblue" points="106,-84.72 109.5,-94.72 113,-84.72 106,-84.72"/>
</g>
<!-- Node5&#45;&gt;Node2 -->
<g id="edge5" class="edge">
<title>Node5&#45;&gt;Node2</title>
<path fill="none" stroke="midnightblue" d="M345.47,-188.64C297.89,-175.2 243.07,-159.72 198.25,-147.06"/>
<polygon fill="midnightblue" stroke="midnightblue" points="344.63,-192.04 355.2,-191.39 346.53,-185.3 344.63,-192.04"/>
</g>
<!-- Node6 -->
<g id="node6" class="node">
<title>Node6</title>
<g id="a_node6"><a xlink:href="../../d8/df4/thermal__linear__plane__stress_8cpp.html" target="_top" xlink:title=" ">
<polygon fill="none" stroke="black" points="250,-89.5 250,-152.5 463,-152.5 463,-89.5 250,-89.5"/>
<text text-anchor="start" x="258" y="-140.5" font-family="Helvetica,sans-Serif" font-size="10.00">/home/runner/work/Documentation</text>
<text text-anchor="start" x="258" y="-129.5" font-family="Helvetica,sans-Serif" font-size="10.00">/Documentation/master/applications</text>
<text text-anchor="start" x="258" y="-118.5" font-family="Helvetica,sans-Serif" font-size="10.00">/ConstitutiveLawsApplication/custom</text>
<text text-anchor="start" x="258" y="-107.5" font-family="Helvetica,sans-Serif" font-size="10.00">_constitutive/thermal/small_strains</text>
<text text-anchor="middle" x="356.5" y="-96.5" font-family="Helvetica,sans-Serif" font-size="10.00">/elastic/thermal_linear_plane_stress.cpp</text>
</a>
</g>
</g>
<!-- Node5&#45;&gt;Node6 -->
<g id="edge6" class="edge">
<title>Node5&#45;&gt;Node6</title>
<path fill="none" stroke="midnightblue" d="M417.99,-182.26C407.99,-172.46 397.33,-162.02 387.75,-152.63"/>
<polygon fill="midnightblue" stroke="midnightblue" points="415.54,-184.76 425.13,-189.26 420.44,-179.76 415.54,-184.76"/>
</g>
<!-- Node5&#45;&gt;Node7 -->
<g id="edge7" class="edge">
<title>Node5&#45;&gt;Node7</title>
<path fill="none" stroke="midnightblue" d="M505.05,-183.11C518.28,-173.06 532.46,-162.29 545.18,-152.63"/>
<polygon fill="midnightblue" stroke="midnightblue" points="502.81,-180.42 496.96,-189.26 507.04,-186 502.81,-180.42"/>
</g>
</g>
</svg>
