<?xml version="1.0" encoding="UTF-8" standalone="no"?>
<!DOCTYPE svg PUBLIC "-//W3C//DTD SVG 1.1//EN"
 "http://www.w3.org/Graphics/SVG/1.1/DTD/svg11.dtd">
<!-- Generated by graphviz version 2.43.0 (0)
 -->
<!-- Title: Kratos::ButcherTableau&lt; Derived, TOrder, TSubstepCount &gt;::ArraySlice Pages: 1 -->
<svg width="340pt" height="475pt"
 viewBox="0.00 0.00 339.50 475.00" xmlns="http://www.w3.org/2000/svg" xmlns:xlink="http://www.w3.org/1999/xlink">
<g id="graph0" class="graph" transform="scale(1 1) rotate(0) translate(4 471)">
<title>Kratos::ButcherTableau&lt; Derived, TOrder, TSubstepCount &gt;::ArraySlice</title>
<!-- Node1 -->
<g id="node1" class="node">
<title>Node1</title>
<g id="a_node1"><a xlink:title=" ">
<polygon fill="#bfbfbf" stroke="black" points="67.5,-0.5 67.5,-79.5 252.5,-79.5 252.5,-0.5 67.5,-0.5"/>
<text text-anchor="start" x="75.5" y="-67.5" font-family="Helvetica,sans-Serif" font-size="10.00">Kratos::ButcherTableau</text>
<text text-anchor="start" x="75.5" y="-56.5" font-family="Helvetica,sans-Serif" font-size="10.00">&lt; Derived, TOrder, TSubstepCount</text>
<text text-anchor="middle" x="160" y="-45.5" font-family="Helvetica,sans-Serif" font-size="10.00"> &gt;::ArraySlice</text>
<polyline fill="none" stroke="black" points="67.5,-38.5 252.5,-38.5 "/>
<text text-anchor="middle" x="160" y="-26.5" font-family="Helvetica,sans-Serif" font-size="10.00"> </text>
<polyline fill="none" stroke="black" points="67.5,-19.5 252.5,-19.5 "/>
<text text-anchor="middle" x="160" y="-7.5" font-family="Helvetica,sans-Serif" font-size="10.00"> </text>
</a>
</g>
</g>
<!-- Node2 -->
<g id="node2" class="node">
<title>Node2</title>
<g id="a_node2"><a xlink:href="../../d3/d30/class_kratos_1_1array__1d_1_1const__iterator.html" target="_top" xlink:title=" ">
<polygon fill="none" stroke="black" points="101.5,-138.5 101.5,-338.5 218.5,-338.5 218.5,-138.5 101.5,-138.5"/>
<text text-anchor="start" x="109.5" y="-326.5" font-family="Helvetica,sans-Serif" font-size="10.00">Kratos::array_1d&lt; T,</text>
<text text-anchor="middle" x="160" y="-315.5" font-family="Helvetica,sans-Serif" font-size="10.00"> N &gt;::const_iterator</text>
<polyline fill="none" stroke="black" points="101.5,-308.5 218.5,-308.5 "/>
<text text-anchor="middle" x="160" y="-296.5" font-family="Helvetica,sans-Serif" font-size="10.00"> </text>
<polyline fill="none" stroke="black" points="101.5,-289.5 218.5,-289.5 "/>
<text text-anchor="start" x="109.5" y="-277.5" font-family="Helvetica,sans-Serif" font-size="10.00">+ const_iterator()</text>
<text text-anchor="start" x="109.5" y="-266.5" font-family="Helvetica,sans-Serif" font-size="10.00">+ const_iterator()</text>
<text text-anchor="start" x="109.5" y="-255.5" font-family="Helvetica,sans-Serif" font-size="10.00">+ const_iterator()</text>
<text text-anchor="start" x="109.5" y="-244.5" font-family="Helvetica,sans-Serif" font-size="10.00">+ operator++()</text>
<text text-anchor="start" x="109.5" y="-233.5" font-family="Helvetica,sans-Serif" font-size="10.00">+ operator&#45;&#45;()</text>
<text text-anchor="start" x="109.5" y="-222.5" font-family="Helvetica,sans-Serif" font-size="10.00">+ operator+=()</text>
<text text-anchor="start" x="109.5" y="-211.5" font-family="Helvetica,sans-Serif" font-size="10.00">+ operator&#45;=()</text>
<text text-anchor="start" x="109.5" y="-200.5" font-family="Helvetica,sans-Serif" font-size="10.00">+ operator&#45;()</text>
<text text-anchor="start" x="109.5" y="-189.5" font-family="Helvetica,sans-Serif" font-size="10.00">+ operator*()</text>
<text text-anchor="start" x="109.5" y="-178.5" font-family="Helvetica,sans-Serif" font-size="10.00">+ index()</text>
<text text-anchor="start" x="109.5" y="-167.5" font-family="Helvetica,sans-Serif" font-size="10.00">+ operator=()</text>
<text text-anchor="start" x="109.5" y="-156.5" font-family="Helvetica,sans-Serif" font-size="10.00">+ operator==()</text>
<text text-anchor="start" x="109.5" y="-145.5" font-family="Helvetica,sans-Serif" font-size="10.00">+ operator&lt;()</text>
</a>
</g>
</g>
<!-- Node2&#45;&gt;Node1 -->
<g id="edge1" class="edge">
<title>Node2&#45;&gt;Node1</title>
<path fill="none" stroke="#404040" d="M160,-138.39C160,-122.3 160,-106.25 160,-91.96"/>
<polygon fill="none" stroke="#404040" points="160,-91.89 156,-85.89 160,-79.89 164,-85.89 160,-91.89"/>
<text text-anchor="middle" x="179.5" y="-112" font-family="Helvetica,sans-Serif" font-size="10.00"> +begin</text>
<text text-anchor="middle" x="179.5" y="-101" font-family="Helvetica,sans-Serif" font-size="10.00">+end</text>
</g>
<!-- Node3 -->
<g id="node3" class="node">
<title>Node3</title>
<g id="a_node3"><a xlink:title=" ">
<polygon fill="none" stroke="#bfbfbf" points="0,-387.5 0,-455.5 146,-455.5 146,-387.5 0,-387.5"/>
<text text-anchor="start" x="8" y="-443.5" font-family="Helvetica,sans-Serif" font-size="10.00">container_const_reference</text>
<text text-anchor="middle" x="73" y="-432.5" font-family="Helvetica,sans-Serif" font-size="10.00">&lt; array_1d &gt;</text>
<polyline fill="none" stroke="#bfbfbf" points="0,-425.5 146,-425.5 "/>
<text text-anchor="middle" x="73" y="-413.5" font-family="Helvetica,sans-Serif" font-size="10.00"> </text>
<polyline fill="none" stroke="#bfbfbf" points="0,-406.5 146,-406.5 "/>
<text text-anchor="middle" x="73" y="-394.5" font-family="Helvetica,sans-Serif" font-size="10.00"> </text>
</a>
</g>
</g>
<!-- Node3&#45;&gt;Node2 -->
<g id="edge2" class="edge">
<title>Node3&#45;&gt;Node2</title>
<path fill="none" stroke="midnightblue" d="M93.4,-378.07C99.15,-366.09 105.66,-352.54 112.31,-338.72"/>
<polygon fill="none" stroke="midnightblue" points="90.13,-376.77 88.96,-387.3 96.44,-379.81 90.13,-376.77"/>
</g>
<!-- Node4 -->
<g id="node4" class="node">
<title>Node4</title>
<g id="a_node4"><a xlink:title=" ">
<polygon fill="none" stroke="#bfbfbf" points="164.5,-376.5 164.5,-466.5 331.5,-466.5 331.5,-376.5 164.5,-376.5"/>
<text text-anchor="start" x="172.5" y="-454.5" font-family="Helvetica,sans-Serif" font-size="10.00">random_access_iterator</text>
<text text-anchor="start" x="172.5" y="-443.5" font-family="Helvetica,sans-Serif" font-size="10.00">_base&lt; dense_random_access</text>
<text text-anchor="start" x="172.5" y="-432.5" font-family="Helvetica,sans-Serif" font-size="10.00">_iterator_tag, const_iterator,</text>
<text text-anchor="middle" x="248" y="-421.5" font-family="Helvetica,sans-Serif" font-size="10.00"> value_type, difference_type &gt;</text>
<polyline fill="none" stroke="#bfbfbf" points="164.5,-414.5 331.5,-414.5 "/>
<text text-anchor="middle" x="248" y="-402.5" font-family="Helvetica,sans-Serif" font-size="10.00"> </text>
<polyline fill="none" stroke="#bfbfbf" points="164.5,-395.5 331.5,-395.5 "/>
<text text-anchor="middle" x="248" y="-383.5" font-family="Helvetica,sans-Serif" font-size="10.00"> </text>
</a>
</g>
</g>
<!-- Node4&#45;&gt;Node2 -->
<g id="edge3" class="edge">
<title>Node4&#45;&gt;Node2</title>
<path fill="none" stroke="midnightblue" d="M222.02,-367.07C217.64,-358.05 212.97,-348.45 208.23,-338.71"/>
<polygon fill="none" stroke="midnightblue" points="218.95,-368.76 226.47,-376.22 225.25,-365.7 218.95,-368.76"/>
</g>
</g>
</svg>
