<?xml version="1.0" encoding="UTF-8" standalone="no"?>
<!DOCTYPE svg PUBLIC "-//W3C//DTD SVG 1.1//EN"
 "http://www.w3.org/Graphics/SVG/1.1/DTD/svg11.dtd">
<!-- Generated by graphviz version 2.43.0 (0)
 -->
<!-- Title: /home/runner/work/Documentation/Documentation/master/kratos/mappers Pages: 1 -->
<svg width="138pt" height="311pt"
 viewBox="0.00 0.00 138.00 311.00" xmlns="http://www.w3.org/2000/svg" xmlns:xlink="http://www.w3.org/1999/xlink">
<g id="graph0" class="graph" transform="scale(1 1) rotate(0) translate(4 307)">
<title>/home/runner/work/Documentation/Documentation/master/kratos/mappers</title>
<g id="clust1" class="cluster">
<title>clusterdir_8fc3e8efef0bfca4a113d719cbd52afb</title>
<g id="a_clust1"><a xlink:href="dir_8fc3e8efef0bfca4a113d719cbd52afb.html" target="_top" xlink:title="kratos">
<polygon fill="#ddddee" stroke="black" points="8,-8 8,-295 122,-295 122,-8 8,-8"/>
<text text-anchor="middle" x="65" y="-283" font-family="Helvetica,sans-Serif" font-size="10.00">kratos</text>
</a>
</g>
</g>
<!-- dir_6da2b5da699b6e8099c18b866a052d71 -->
<g id="node1" class="node">
<title>dir_6da2b5da699b6e8099c18b866a052d71</title>
<g id="a_node1"><a xlink:href="dir_6da2b5da699b6e8099c18b866a052d71.html" target="_top" xlink:title="includes">
<polygon fill="none" stroke="black" points="93.5,-124 36.5,-124 36.5,-88 93.5,-88 93.5,-124"/>
<text text-anchor="middle" x="65" y="-103.5" font-family="Helvetica,sans-Serif" font-size="10.00">includes</text>
</a>
</g>
</g>
<!-- dir_80b24cd11685060440d77842b83d8f07 -->
<g id="node2" class="node">
<title>dir_80b24cd11685060440d77842b83d8f07</title>
<g id="a_node2"><a xlink:href="dir_80b24cd11685060440d77842b83d8f07.html" target="_top" xlink:title="containers">
<polygon fill="none" stroke="black" points="99,-52 31,-52 31,-16 99,-16 99,-52"/>
<text text-anchor="middle" x="65" y="-31.5" font-family="Helvetica,sans-Serif" font-size="10.00">containers</text>
</a>
</g>
</g>
<!-- dir_6da2b5da699b6e8099c18b866a052d71&#45;&gt;dir_80b24cd11685060440d77842b83d8f07 -->
<g id="edge4" class="edge">
<title>dir_6da2b5da699b6e8099c18b866a052d71&#45;&gt;dir_80b24cd11685060440d77842b83d8f07</title>
<path fill="none" stroke="black" d="M59.08,-87.7C58.29,-79.98 58.06,-70.71 58.4,-62.11"/>
<polygon fill="black" stroke="black" points="61.9,-62.32 59.1,-52.1 54.92,-61.84 61.9,-62.32"/>
<g id="a_edge4&#45;headlabel"><a xlink:href="dir_000729_000722.html" target="_top" xlink:title="62">
<text text-anchor="middle" x="64.48" y="-63.61" font-family="Helvetica,sans-Serif" font-size="10.00">62</text>
</a>
</g>
</g>
<!-- dir_80b24cd11685060440d77842b83d8f07&#45;&gt;dir_6da2b5da699b6e8099c18b866a052d71 -->
<g id="edge1" class="edge">
<title>dir_80b24cd11685060440d77842b83d8f07&#45;&gt;dir_6da2b5da699b6e8099c18b866a052d71</title>
<path fill="none" stroke="black" d="M70.9,-52.1C71.7,-59.79 71.94,-69.05 71.6,-77.67"/>
<polygon fill="black" stroke="black" points="68.11,-77.48 70.92,-87.7 75.09,-77.96 68.11,-77.48"/>
<g id="a_edge1&#45;headlabel"><a xlink:href="dir_000722_000729.html" target="_top" xlink:title="65">
<text text-anchor="middle" x="65.52" y="-71.2" font-family="Helvetica,sans-Serif" font-size="10.00">65</text>
</a>
</g>
</g>
<!-- dir_bd2ce17ba33a86142a4fe49271950777 -->
<g id="node3" class="node">
<title>dir_bd2ce17ba33a86142a4fe49271950777</title>
<g id="a_node3"><a xlink:href="dir_bd2ce17ba33a86142a4fe49271950777.html" target="_top" xlink:title="spaces">
<polygon fill="none" stroke="black" points="114,-196 60,-196 60,-160 114,-160 114,-196"/>
<text text-anchor="middle" x="87" y="-175.5" font-family="Helvetica,sans-Serif" font-size="10.00">spaces</text>
</a>
</g>
</g>
<!-- dir_bd2ce17ba33a86142a4fe49271950777&#45;&gt;dir_6da2b5da699b6e8099c18b866a052d71 -->
<g id="edge2" class="edge">
<title>dir_bd2ce17ba33a86142a4fe49271950777&#45;&gt;dir_6da2b5da699b6e8099c18b866a052d71</title>
<path fill="none" stroke="black" d="M81.56,-159.7C79.11,-151.9 76.16,-142.51 73.43,-133.83"/>
<polygon fill="black" stroke="black" points="76.71,-132.59 70.38,-124.1 70.04,-134.69 76.71,-132.59"/>
<g id="a_edge2&#45;headlabel"><a xlink:href="dir_000769_000729.html" target="_top" xlink:title="7">
<text text-anchor="middle" x="80.5" y="-132.67" font-family="Helvetica,sans-Serif" font-size="10.00">7</text>
</a>
</g>
</g>
<!-- dir_bd2ce17ba33a86142a4fe49271950777&#45;&gt;dir_80b24cd11685060440d77842b83d8f07 -->
<g id="edge3" class="edge">
<title>dir_bd2ce17ba33a86142a4fe49271950777&#45;&gt;dir_80b24cd11685060440d77842b83d8f07</title>
<path fill="none" stroke="black" d="M94.9,-159.94C102.2,-141.78 110.83,-112.36 103,-88 99.81,-78.08 94,-68.44 87.87,-60.17"/>
<polygon fill="black" stroke="black" points="90.42,-57.74 81.46,-52.08 84.93,-62.09 90.42,-57.74"/>
<g id="a_edge3&#45;headlabel"><a xlink:href="dir_000769_000722.html" target="_top" xlink:title="3">
<text text-anchor="middle" x="94.88" y="-56.3" font-family="Helvetica,sans-Serif" font-size="10.00">3</text>
</a>
</g>
</g>
<!-- dir_c4649f6bde4de2a13c3fc6a6282bfbce -->
<g id="node4" class="node">
<title>dir_c4649f6bde4de2a13c3fc6a6282bfbce</title>
<g id="a_node4"><a xlink:href="dir_c4649f6bde4de2a13c3fc6a6282bfbce.html" target="_top" xlink:title="mappers">
<polygon fill="#eeeeff" stroke="black" points="75.5,-268 16.5,-268 16.5,-232 75.5,-232 75.5,-268"/>
<text text-anchor="middle" x="46" y="-247.5" font-family="Helvetica,sans-Serif" font-size="10.00">mappers</text>
</a>
</g>
</g>
<!-- dir_c4649f6bde4de2a13c3fc6a6282bfbce&#45;&gt;dir_6da2b5da699b6e8099c18b866a052d71 -->
<g id="edge5" class="edge">
<title>dir_c4649f6bde4de2a13c3fc6a6282bfbce&#45;&gt;dir_6da2b5da699b6e8099c18b866a052d71</title>
<path fill="none" stroke="black" d="M45.94,-231.83C46.12,-213.82 47.08,-184.76 51,-160 52.34,-151.54 54.47,-142.48 56.67,-134.28"/>
<polygon fill="black" stroke="black" points="60.09,-135.05 59.43,-124.48 53.35,-133.15 60.09,-135.05"/>
<g id="a_edge5&#45;headlabel"><a xlink:href="dir_000733_000729.html" target="_top" xlink:title="5">
<text text-anchor="middle" x="61.84" y="-136.78" font-family="Helvetica,sans-Serif" font-size="10.00">5</text>
</a>
</g>
</g>
<!-- dir_c4649f6bde4de2a13c3fc6a6282bfbce&#45;&gt;dir_80b24cd11685060440d77842b83d8f07 -->
<g id="edge6" class="edge">
<title>dir_c4649f6bde4de2a13c3fc6a6282bfbce&#45;&gt;dir_80b24cd11685060440d77842b83d8f07</title>
<path fill="none" stroke="black" d="M39.26,-231.62C28.64,-201.59 10.81,-138.37 27,-88 30.19,-78.08 36,-68.44 42.13,-60.17"/>
<polygon fill="black" stroke="black" points="45.07,-62.09 48.54,-52.08 39.58,-57.74 45.07,-62.09"/>
<g id="a_edge6&#45;headlabel"><a xlink:href="dir_000733_000722.html" target="_top" xlink:title="2">
<text text-anchor="middle" x="45.06" y="-64.17" font-family="Helvetica,sans-Serif" font-size="10.00">2</text>
</a>
</g>
</g>
<!-- dir_c4649f6bde4de2a13c3fc6a6282bfbce&#45;&gt;dir_bd2ce17ba33a86142a4fe49271950777 -->
<g id="edge7" class="edge">
<title>dir_c4649f6bde4de2a13c3fc6a6282bfbce&#45;&gt;dir_bd2ce17ba33a86142a4fe49271950777</title>
<path fill="none" stroke="black" d="M56.13,-231.7C60.85,-223.64 66.56,-213.89 71.78,-204.98"/>
<polygon fill="black" stroke="black" points="74.95,-206.5 76.98,-196.1 68.91,-202.96 74.95,-206.5"/>
<g id="a_edge7&#45;headlabel"><a xlink:href="dir_000733_000769.html" target="_top" xlink:title="1">
<text text-anchor="middle" x="75.58" y="-208.54" font-family="Helvetica,sans-Serif" font-size="10.00">1</text>
</a>
</g>
</g>
</g>
</svg>
