<?xml version="1.0" encoding="UTF-8" standalone="no"?>
<!DOCTYPE svg PUBLIC "-//W3C//DTD SVG 1.1//EN"
 "http://www.w3.org/Graphics/SVG/1.1/DTD/svg11.dtd">
<!-- Generated by graphviz version 2.43.0 (0)
 -->
<!-- Title: /home/runner/work/Documentation/Documentation/master/applications/RANSApplication/custom_python Pages: 1 -->
<svg width="295pt" height="295pt"
 viewBox="0.00 0.00 294.65 295.00" xmlns="http://www.w3.org/2000/svg" xmlns:xlink="http://www.w3.org/1999/xlink">
<g id="graph0" class="graph" transform="scale(1 1) rotate(0) translate(4 291)">
<title>/home/runner/work/Documentation/Documentation/master/applications/RANSApplication/custom_python</title>
<g id="clust1" class="cluster">
<title>clusterdir_967db24cefe5c9d8ef6e6f3f57bce73c</title>
<g id="a_clust1"><a xlink:href="dir_967db24cefe5c9d8ef6e6f3f57bce73c.html" target="_top" xlink:title="RANSApplication">
<polygon fill="#ddddee" stroke="black" points="8,-64 8,-279 276,-279 276,-64 8,-64"/>
<text text-anchor="middle" x="142" y="-267" font-family="Helvetica,sans-Serif" font-size="10.00">RANSApplication</text>
</a>
</g>
</g>
<!-- dir_50309386b71197827bb46a6521b82a7d -->
<g id="node1" class="node">
<title>dir_50309386b71197827bb46a6521b82a7d</title>
<g id="a_node1"><a xlink:href="dir_50309386b71197827bb46a6521b82a7d.html" target="_top" xlink:title="custom_strategies">
<polygon fill="none" stroke="black" points="268.5,-180 161.5,-180 161.5,-144 268.5,-144 268.5,-180"/>
<text text-anchor="middle" x="215" y="-159.5" font-family="Helvetica,sans-Serif" font-size="10.00">custom_strategies</text>
</a>
</g>
</g>
<!-- dir_8fc3e8efef0bfca4a113d719cbd52afb -->
<g id="node5" class="node">
<title>dir_8fc3e8efef0bfca4a113d719cbd52afb</title>
<g id="a_node5"><a xlink:href="dir_8fc3e8efef0bfca4a113d719cbd52afb.html" target="_top" xlink:title="kratos">
<polygon fill="none" stroke="red" points="218,-36 164,-36 164,0 218,0 218,-36"/>
<text text-anchor="middle" x="191" y="-15.5" font-family="Helvetica,sans-Serif" font-size="10.00">kratos</text>
</a>
</g>
</g>
<!-- dir_50309386b71197827bb46a6521b82a7d&#45;&gt;dir_8fc3e8efef0bfca4a113d719cbd52afb -->
<g id="edge1" class="edge">
<title>dir_50309386b71197827bb46a6521b82a7d&#45;&gt;dir_8fc3e8efef0bfca4a113d719cbd52afb</title>
<path fill="none" stroke="black" d="M212.11,-143.87C208.01,-119.67 200.5,-75.21 195.63,-46.39"/>
<polygon fill="black" stroke="black" points="199.02,-45.47 193.91,-36.19 192.12,-46.63 199.02,-45.47"/>
<g id="a_edge1&#45;headlabel"><a xlink:href="dir_000568_000709.html" target="_top" xlink:title="19">
<text text-anchor="middle" x="202.42" y="-46.04" font-family="Helvetica,sans-Serif" font-size="10.00">19</text>
</a>
</g>
</g>
<!-- dir_6bcaa7cda04ac56d0f64b3a97246494d -->
<g id="node2" class="node">
<title>dir_6bcaa7cda04ac56d0f64b3a97246494d</title>
<g id="a_node2"><a xlink:href="dir_6bcaa7cda04ac56d0f64b3a97246494d.html" target="_top" xlink:title="custom_processes">
<polygon fill="none" stroke="black" points="143.5,-180 36.5,-180 36.5,-144 143.5,-144 143.5,-180"/>
<text text-anchor="middle" x="90" y="-159.5" font-family="Helvetica,sans-Serif" font-size="10.00">custom_processes</text>
</a>
</g>
</g>
<!-- dir_d00027f6feada1f7c28473d9986b9594 -->
<g id="node3" class="node">
<title>dir_d00027f6feada1f7c28473d9986b9594</title>
<g id="a_node3"><a xlink:href="dir_d00027f6feada1f7c28473d9986b9594.html" target="_top" xlink:title="custom_utilities">
<polygon fill="none" stroke="black" points="137.5,-108 42.5,-108 42.5,-72 137.5,-72 137.5,-108"/>
<text text-anchor="middle" x="90" y="-87.5" font-family="Helvetica,sans-Serif" font-size="10.00">custom_utilities</text>
</a>
</g>
</g>
<!-- dir_6bcaa7cda04ac56d0f64b3a97246494d&#45;&gt;dir_d00027f6feada1f7c28473d9986b9594 -->
<g id="edge8" class="edge">
<title>dir_6bcaa7cda04ac56d0f64b3a97246494d&#45;&gt;dir_d00027f6feada1f7c28473d9986b9594</title>
<path fill="none" stroke="black" d="M90,-143.7C90,-135.98 90,-126.71 90,-118.11"/>
<polygon fill="black" stroke="black" points="93.5,-118.1 90,-108.1 86.5,-118.1 93.5,-118.1"/>
<g id="a_edge8&#45;headlabel"><a xlink:href="dir_000567_000570.html" target="_top" xlink:title="6">
<text text-anchor="middle" x="96.34" y="-119.2" font-family="Helvetica,sans-Serif" font-size="10.00">6</text>
</a>
</g>
</g>
<!-- dir_6bcaa7cda04ac56d0f64b3a97246494d&#45;&gt;dir_8fc3e8efef0bfca4a113d719cbd52afb -->
<g id="edge7" class="edge">
<title>dir_6bcaa7cda04ac56d0f64b3a97246494d&#45;&gt;dir_8fc3e8efef0bfca4a113d719cbd52afb</title>
<path fill="none" stroke="black" d="M111.4,-143.87C122.63,-134.16 136.08,-121.31 146,-108 160.47,-88.58 172.56,-63.82 180.55,-45.34"/>
<polygon fill="black" stroke="black" points="183.81,-46.63 184.46,-36.06 177.35,-43.92 183.81,-46.63"/>
<g id="a_edge7&#45;headlabel"><a xlink:href="dir_000567_000709.html" target="_top" xlink:title="81">
<text text-anchor="middle" x="185.03" y="-48.55" font-family="Helvetica,sans-Serif" font-size="10.00">81</text>
</a>
</g>
</g>
<!-- dir_d00027f6feada1f7c28473d9986b9594&#45;&gt;dir_8fc3e8efef0bfca4a113d719cbd52afb -->
<g id="edge2" class="edge">
<title>dir_d00027f6feada1f7c28473d9986b9594&#45;&gt;dir_8fc3e8efef0bfca4a113d719cbd52afb</title>
<path fill="none" stroke="black" d="M114.71,-71.88C127.67,-62.89 143.73,-51.76 157.77,-42.03"/>
<polygon fill="black" stroke="black" points="159.97,-44.76 166.2,-36.19 155.98,-39.01 159.97,-44.76"/>
<g id="a_edge2&#45;headlabel"><a xlink:href="dir_000570_000709.html" target="_top" xlink:title="24">
<text text-anchor="middle" x="158.64" y="-46.64" font-family="Helvetica,sans-Serif" font-size="10.00">24</text>
</a>
</g>
</g>
<!-- dir_1f0daa270c116fe3cdeaa2639e960a02 -->
<g id="node4" class="node">
<title>dir_1f0daa270c116fe3cdeaa2639e960a02</title>
<g id="a_node4"><a xlink:href="dir_1f0daa270c116fe3cdeaa2639e960a02.html" target="_top" xlink:title="custom_python">
<polygon fill="#eeeeff" stroke="black" points="198,-252 106,-252 106,-216 198,-216 198,-252"/>
<text text-anchor="middle" x="152" y="-231.5" font-family="Helvetica,sans-Serif" font-size="10.00">custom_python</text>
</a>
</g>
</g>
<!-- dir_1f0daa270c116fe3cdeaa2639e960a02&#45;&gt;dir_50309386b71197827bb46a6521b82a7d -->
<g id="edge3" class="edge">
<title>dir_1f0daa270c116fe3cdeaa2639e960a02&#45;&gt;dir_50309386b71197827bb46a6521b82a7d</title>
<path fill="none" stroke="black" d="M167.57,-215.7C175.2,-207.22 184.52,-196.86 192.88,-187.58"/>
<polygon fill="black" stroke="black" points="195.52,-189.88 199.61,-180.1 190.31,-185.2 195.52,-189.88"/>
<g id="a_edge3&#45;headlabel"><a xlink:href="dir_000049_000568.html" target="_top" xlink:title="3">
<text text-anchor="middle" x="195.22" y="-191.95" font-family="Helvetica,sans-Serif" font-size="10.00">3</text>
</a>
</g>
</g>
<!-- dir_1f0daa270c116fe3cdeaa2639e960a02&#45;&gt;dir_6bcaa7cda04ac56d0f64b3a97246494d -->
<g id="edge4" class="edge">
<title>dir_1f0daa270c116fe3cdeaa2639e960a02&#45;&gt;dir_6bcaa7cda04ac56d0f64b3a97246494d</title>
<path fill="none" stroke="black" d="M136.67,-215.7C129.24,-207.3 120.18,-197.07 112.02,-187.86"/>
<polygon fill="black" stroke="black" points="114.4,-185.27 105.15,-180.1 109.16,-189.91 114.4,-185.27"/>
<g id="a_edge4&#45;headlabel"><a xlink:href="dir_000049_000567.html" target="_top" xlink:title="16">
<text text-anchor="middle" x="118.91" y="-183.58" font-family="Helvetica,sans-Serif" font-size="10.00">16</text>
</a>
</g>
</g>
<!-- dir_1f0daa270c116fe3cdeaa2639e960a02&#45;&gt;dir_d00027f6feada1f7c28473d9986b9594 -->
<g id="edge6" class="edge">
<title>dir_1f0daa270c116fe3cdeaa2639e960a02&#45;&gt;dir_d00027f6feada1f7c28473d9986b9594</title>
<path fill="none" stroke="black" d="M105.77,-226.31C77.87,-219.62 44.44,-206.34 27,-180 18.17,-166.66 20.25,-158.51 27,-144 32.43,-132.34 41.82,-122.34 51.72,-114.26"/>
<polygon fill="black" stroke="black" points="53.85,-117.03 59.7,-108.2 49.62,-111.45 53.85,-117.03"/>
<g id="a_edge6&#45;headlabel"><a xlink:href="dir_000049_000570.html" target="_top" xlink:title="4">
<text text-anchor="middle" x="52.71" y="-118.96" font-family="Helvetica,sans-Serif" font-size="10.00">4</text>
</a>
</g>
</g>
<!-- dir_1f0daa270c116fe3cdeaa2639e960a02&#45;&gt;dir_8fc3e8efef0bfca4a113d719cbd52afb -->
<g id="edge5" class="edge">
<title>dir_1f0daa270c116fe3cdeaa2639e960a02&#45;&gt;dir_8fc3e8efef0bfca4a113d719cbd52afb</title>
<path fill="none" stroke="black" d="M198.23,-226.31C226.13,-219.62 259.56,-206.34 277,-180 307.74,-133.57 255.77,-75.03 220.14,-42.88"/>
<polygon fill="black" stroke="black" points="222.2,-40.03 212.38,-36.05 217.58,-45.28 222.2,-40.03"/>
<g id="a_edge5&#45;headlabel"><a xlink:href="dir_000049_000709.html" target="_top" xlink:title="10">
<text text-anchor="middle" x="226.78" y="-37.77" font-family="Helvetica,sans-Serif" font-size="10.00">10</text>
</a>
</g>
</g>
</g>
</svg>
