<?xml version="1.0" encoding="UTF-8" standalone="no"?>
<!DOCTYPE svg PUBLIC "-//W3C//DTD SVG 1.1//EN"
 "http://www.w3.org/Graphics/SVG/1.1/DTD/svg11.dtd">
<!-- Generated by graphviz version 2.43.0 (0)
 -->
<!-- Title: /home/runner/work/Documentation/Documentation/master/applications/SolidMechanicsApplication/custom_constitutive Pages: 1 -->
<svg width="244pt" height="375pt"
 viewBox="0.00 0.00 244.47 375.00" xmlns="http://www.w3.org/2000/svg" xmlns:xlink="http://www.w3.org/1999/xlink">
<g id="graph0" class="graph" transform="scale(1 1) rotate(0) translate(4 371)">
<title>/home/runner/work/Documentation/Documentation/master/applications/SolidMechanicsApplication/custom_constitutive</title>
<g id="clust1" class="cluster">
<title>clusterdir_66a868bf6d753b83ea6ea8ea996bb820</title>
<g id="a_clust1"><a xlink:href="dir_66a868bf6d753b83ea6ea8ea996bb820.html" target="_top" xlink:title="SolidMechanicsApplication">
<polygon fill="#ddddee" stroke="black" points="8,-56 8,-359 202,-359 202,-56 8,-56"/>
<text text-anchor="middle" x="105" y="-347" font-family="Helvetica,sans-Serif" font-size="10.00">SolidMechanicsApplication</text>
</a>
</g>
</g>
<g id="clust2" class="cluster">
<title>clusterdir_fc404ae7feac46d276aaabd8e5d7e29c</title>
<g id="a_clust2"><a xlink:href="dir_fc404ae7feac46d276aaabd8e5d7e29c.html" target="_top">
<polygon fill="#eeeeff" stroke="black" points="16,-64 16,-332 194,-332 194,-64 16,-64"/>
</a>
</g>
</g>
<!-- dir_fc404ae7feac46d276aaabd8e5d7e29c -->
<g id="node1" class="node">
<title>dir_fc404ae7feac46d276aaabd8e5d7e29c</title>
<text text-anchor="middle" x="116" y="-303.5" font-family="Helvetica,sans-Serif" font-size="10.00">custom_constitutive</text>
</g>
<!-- dir_0650c816bb4f5a635fb1dd61e1c3c7fc -->
<g id="node2" class="node">
<title>dir_0650c816bb4f5a635fb1dd61e1c3c7fc</title>
<g id="a_node2"><a xlink:href="dir_0650c816bb4f5a635fb1dd61e1c3c7fc.html" target="_top" xlink:title="custom_flow_rules">
<polygon fill="white" stroke="black" points="158.5,-252 51.5,-252 51.5,-216 158.5,-216 158.5,-252"/>
<text text-anchor="middle" x="105" y="-231.5" font-family="Helvetica,sans-Serif" font-size="10.00">custom_flow_rules</text>
</a>
</g>
</g>
<!-- dir_fc404ae7feac46d276aaabd8e5d7e29c&#45;&gt;dir_0650c816bb4f5a635fb1dd61e1c3c7fc -->
<g id="edge4" class="edge">
<title>dir_fc404ae7feac46d276aaabd8e5d7e29c&#45;&gt;dir_0650c816bb4f5a635fb1dd61e1c3c7fc</title>
<path fill="none" stroke="black" d="M113.28,-287.7C112.07,-279.98 110.61,-270.71 109.26,-262.11"/>
<polygon fill="black" stroke="black" points="112.7,-261.44 107.69,-252.1 105.78,-262.53 112.7,-261.44"/>
<g id="a_edge4&#45;headlabel"><a xlink:href="dir_000399_000547.html" target="_top" xlink:title="22">
<text text-anchor="middle" x="116.06" y="-262.05" font-family="Helvetica,sans-Serif" font-size="10.00">22</text>
</a>
</g>
</g>
<!-- dir_ab9580742aba767b5790311ec4ecac89 -->
<g id="node3" class="node">
<title>dir_ab9580742aba767b5790311ec4ecac89</title>
<g id="a_node3"><a xlink:href="dir_ab9580742aba767b5790311ec4ecac89.html" target="_top" xlink:title="custom_hardening_laws">
<polygon fill="white" stroke="black" points="158,-108 24,-108 24,-72 158,-72 158,-108"/>
<text text-anchor="middle" x="91" y="-87.5" font-family="Helvetica,sans-Serif" font-size="10.00">custom_hardening_laws</text>
</a>
</g>
</g>
<!-- dir_fc404ae7feac46d276aaabd8e5d7e29c&#45;&gt;dir_ab9580742aba767b5790311ec4ecac89 -->
<g id="edge6" class="edge">
<title>dir_fc404ae7feac46d276aaabd8e5d7e29c&#45;&gt;dir_ab9580742aba767b5790311ec4ecac89</title>
<path fill="none" stroke="black" d="M79.49,-287.92C65.4,-279.29 50.82,-267.35 43,-252 35.43,-237.14 40.59,-162.79 48,-144 52.02,-133.81 58.74,-124.07 65.69,-115.78"/>
<polygon fill="black" stroke="black" points="68.31,-118.1 72.35,-108.31 63.08,-113.45 68.31,-118.1"/>
<g id="a_edge6&#45;headlabel"><a xlink:href="dir_000399_000549.html" target="_top" xlink:title="23">
<text text-anchor="middle" x="68.04" y="-120.18" font-family="Helvetica,sans-Serif" font-size="10.00">23</text>
</a>
</g>
</g>
<!-- dir_b7da531a944b21ece9507c1da6dcea5f -->
<g id="node4" class="node">
<title>dir_b7da531a944b21ece9507c1da6dcea5f</title>
<g id="a_node4"><a xlink:href="dir_b7da531a944b21ece9507c1da6dcea5f.html" target="_top" xlink:title="custom_yield_criteria">
<polygon fill="white" stroke="black" points="186,-180 64,-180 64,-144 186,-144 186,-180"/>
<text text-anchor="middle" x="125" y="-159.5" font-family="Helvetica,sans-Serif" font-size="10.00">custom_yield_criteria</text>
</a>
</g>
</g>
<!-- dir_fc404ae7feac46d276aaabd8e5d7e29c&#45;&gt;dir_b7da531a944b21ece9507c1da6dcea5f -->
<g id="edge7" class="edge">
<title>dir_fc404ae7feac46d276aaabd8e5d7e29c&#45;&gt;dir_b7da531a944b21ece9507c1da6dcea5f</title>
<path fill="none" stroke="black" d="M139.75,-287.91C150.55,-278.65 162.2,-266.2 168,-252 174.05,-237.19 173.35,-231.08 168,-216 164.34,-205.68 157.71,-195.9 150.74,-187.61"/>
<polygon fill="black" stroke="black" points="153.33,-185.26 144.04,-180.16 148.13,-189.94 153.33,-185.26"/>
<g id="a_edge7&#45;headlabel"><a xlink:href="dir_000399_000551.html" target="_top" xlink:title="22">
<text text-anchor="middle" x="157.84" y="-183.53" font-family="Helvetica,sans-Serif" font-size="10.00">22</text>
</a>
</g>
</g>
<!-- dir_8fc3e8efef0bfca4a113d719cbd52afb -->
<g id="node5" class="node">
<title>dir_8fc3e8efef0bfca4a113d719cbd52afb</title>
<g id="a_node5"><a xlink:href="dir_8fc3e8efef0bfca4a113d719cbd52afb.html" target="_top" xlink:title="kratos">
<polygon fill="none" stroke="red" points="232,-36 178,-36 178,0 232,0 232,-36"/>
<text text-anchor="middle" x="205" y="-15.5" font-family="Helvetica,sans-Serif" font-size="10.00">kratos</text>
</a>
</g>
</g>
<!-- dir_fc404ae7feac46d276aaabd8e5d7e29c&#45;&gt;dir_8fc3e8efef0bfca4a113d719cbd52afb -->
<g id="edge5" class="edge">
<title>dir_fc404ae7feac46d276aaabd8e5d7e29c&#45;&gt;dir_8fc3e8efef0bfca4a113d719cbd52afb</title>
<path fill="none" stroke="black" d="M138.34,-287.86C150.11,-278.14 164.29,-265.29 175,-252 198.11,-223.33 203.91,-214.78 216,-180 234.17,-127.74 241.66,-109.35 227,-56 225.99,-52.32 224.51,-48.65 222.79,-45.11"/>
<polygon fill="black" stroke="black" points="225.74,-43.22 217.81,-36.19 219.62,-46.62 225.74,-43.22"/>
<g id="a_edge5&#45;headlabel"><a xlink:href="dir_000399_000704.html" target="_top" xlink:title="16">
<text text-anchor="middle" x="229.97" y="-42.47" font-family="Helvetica,sans-Serif" font-size="10.00">16</text>
</a>
</g>
</g>
<!-- dir_0650c816bb4f5a635fb1dd61e1c3c7fc&#45;&gt;dir_ab9580742aba767b5790311ec4ecac89 -->
<g id="edge9" class="edge">
<title>dir_0650c816bb4f5a635fb1dd61e1c3c7fc&#45;&gt;dir_ab9580742aba767b5790311ec4ecac89</title>
<path fill="none" stroke="black" d="M82.4,-215.96C71.94,-206.63 60.6,-194.11 55,-180 49.09,-165.13 50.3,-159.29 55,-144 58.01,-134.22 63.51,-124.62 69.32,-116.33"/>
<polygon fill="black" stroke="black" points="72.19,-118.33 75.39,-108.23 66.59,-114.13 72.19,-118.33"/>
<g id="a_edge9&#45;headlabel"><a xlink:href="dir_000547_000549.html" target="_top" xlink:title="1">
<text text-anchor="middle" x="72.31" y="-120.41" font-family="Helvetica,sans-Serif" font-size="10.00">1</text>
</a>
</g>
</g>
<!-- dir_0650c816bb4f5a635fb1dd61e1c3c7fc&#45;&gt;dir_b7da531a944b21ece9507c1da6dcea5f -->
<g id="edge10" class="edge">
<title>dir_0650c816bb4f5a635fb1dd61e1c3c7fc&#45;&gt;dir_b7da531a944b21ece9507c1da6dcea5f</title>
<path fill="none" stroke="black" d="M109.94,-215.7C112.17,-207.9 114.85,-198.51 117.33,-189.83"/>
<polygon fill="black" stroke="black" points="120.73,-190.68 120.11,-180.1 114,-188.76 120.73,-190.68"/>
<g id="a_edge10&#45;headlabel"><a xlink:href="dir_000547_000551.html" target="_top" xlink:title="1">
<text text-anchor="middle" x="122.47" y="-192.42" font-family="Helvetica,sans-Serif" font-size="10.00">1</text>
</a>
</g>
</g>
<!-- dir_0650c816bb4f5a635fb1dd61e1c3c7fc&#45;&gt;dir_8fc3e8efef0bfca4a113d719cbd52afb -->
<g id="edge8" class="edge">
<title>dir_0650c816bb4f5a635fb1dd61e1c3c7fc&#45;&gt;dir_8fc3e8efef0bfca4a113d719cbd52afb</title>
<path fill="none" stroke="black" d="M152.55,-215.89C168.76,-207.61 185.23,-195.92 195,-180 220.24,-138.86 216.03,-80.14 210.58,-46.16"/>
<polygon fill="black" stroke="black" points="213.98,-45.29 208.8,-36.05 207.09,-46.5 213.98,-45.29"/>
<g id="a_edge8&#45;headlabel"><a xlink:href="dir_000547_000704.html" target="_top" xlink:title="3">
<text text-anchor="middle" x="217.4" y="-45.84" font-family="Helvetica,sans-Serif" font-size="10.00">3</text>
</a>
</g>
</g>
<!-- dir_ab9580742aba767b5790311ec4ecac89&#45;&gt;dir_8fc3e8efef0bfca4a113d719cbd52afb -->
<g id="edge1" class="edge">
<title>dir_ab9580742aba767b5790311ec4ecac89&#45;&gt;dir_8fc3e8efef0bfca4a113d719cbd52afb</title>
<path fill="none" stroke="black" d="M118.89,-71.88C134.02,-62.59 152.88,-51 169.1,-41.04"/>
<polygon fill="black" stroke="black" points="171.1,-43.92 177.79,-35.71 167.44,-37.96 171.1,-43.92"/>
<g id="a_edge1&#45;headlabel"><a xlink:href="dir_000549_000704.html" target="_top" xlink:title="10">
<text text-anchor="middle" x="169.53" y="-45.72" font-family="Helvetica,sans-Serif" font-size="10.00">10</text>
</a>
</g>
</g>
<!-- dir_b7da531a944b21ece9507c1da6dcea5f&#45;&gt;dir_ab9580742aba767b5790311ec4ecac89 -->
<g id="edge3" class="edge">
<title>dir_b7da531a944b21ece9507c1da6dcea5f&#45;&gt;dir_ab9580742aba767b5790311ec4ecac89</title>
<path fill="none" stroke="black" d="M116.6,-143.7C112.73,-135.73 108.05,-126.1 103.76,-117.26"/>
<polygon fill="black" stroke="black" points="106.83,-115.57 99.31,-108.1 100.53,-118.63 106.83,-115.57"/>
<g id="a_edge3&#45;headlabel"><a xlink:href="dir_000551_000549.html" target="_top" xlink:title="1">
<text text-anchor="middle" x="110.95" y="-115.06" font-family="Helvetica,sans-Serif" font-size="10.00">1</text>
</a>
</g>
</g>
<!-- dir_b7da531a944b21ece9507c1da6dcea5f&#45;&gt;dir_8fc3e8efef0bfca4a113d719cbd52afb -->
<g id="edge2" class="edge">
<title>dir_b7da531a944b21ece9507c1da6dcea5f&#45;&gt;dir_8fc3e8efef0bfca4a113d719cbd52afb</title>
<path fill="none" stroke="black" d="M140.64,-143.71C149.14,-133.75 159.43,-120.71 167,-108 178.89,-88.02 189.03,-63.64 195.84,-45.45"/>
<polygon fill="black" stroke="black" points="199.13,-46.64 199.26,-36.05 192.55,-44.24 199.13,-46.64"/>
<g id="a_edge2&#45;headlabel"><a xlink:href="dir_000551_000704.html" target="_top" xlink:title="2">
<text text-anchor="middle" x="200.56" y="-48.49" font-family="Helvetica,sans-Serif" font-size="10.00">2</text>
</a>
</g>
</g>
</g>
</svg>
