<?xml version="1.0" encoding="UTF-8" standalone="no"?>
<!DOCTYPE svg PUBLIC "-//W3C//DTD SVG 1.1//EN"
 "http://www.w3.org/Graphics/SVG/1.1/DTD/svg11.dtd">
<!-- Generated by graphviz version 2.43.0 (0)
 -->
<!-- Title: /home/runner/work/Documentation/Documentation/master/applications/FluidDynamicsApplication/python_scripts/symbolic_generation/weakly_compressible_navier_stokes Pages: 1 -->
<svg width="234pt" height="223pt"
 viewBox="0.00 0.00 234.00 223.00" xmlns="http://www.w3.org/2000/svg" xmlns:xlink="http://www.w3.org/1999/xlink">
<g id="graph0" class="graph" transform="scale(1 1) rotate(0) translate(4 219)">
<title>/home/runner/work/Documentation/Documentation/master/applications/FluidDynamicsApplication/python_scripts/symbolic_generation/weakly_compressible_navier_stokes</title>
<g id="clust1" class="cluster">
<title>clusterdir_93dea51814859aa55e4bea5627cb43a6</title>
<g id="a_clust1"><a xlink:href="dir_93dea51814859aa55e4bea5627cb43a6.html" target="_top" xlink:title="symbolic_generation">
<polygon fill="#ddddee" stroke="black" points="8,-136 8,-207 218,-207 218,-136 8,-136"/>
<text text-anchor="middle" x="113" y="-195" font-family="Helvetica,sans-Serif" font-size="10.00">symbolic_generation</text>
</a>
</g>
</g>
<!-- dir_5cac1fab3021db735c7087fbd88e2537 -->
<g id="node1" class="node">
<title>dir_5cac1fab3021db735c7087fbd88e2537</title>
<g id="a_node1"><a xlink:href="dir_5cac1fab3021db735c7087fbd88e2537.html" target="_top" xlink:title="weakly_compressible_navier_stokes">
<polygon fill="#eeeeff" stroke="black" points="210.5,-180 15.5,-180 15.5,-144 210.5,-144 210.5,-180"/>
<text text-anchor="middle" x="113" y="-159.5" font-family="Helvetica,sans-Serif" font-size="10.00">weakly_compressible_navier_stokes</text>
</a>
</g>
</g>
<!-- dir_44c939bd03ca2d59fc207ef063d27e2a -->
<g id="node2" class="node">
<title>dir_44c939bd03ca2d59fc207ef063d27e2a</title>
<g id="a_node2"><a xlink:href="dir_44c939bd03ca2d59fc207ef063d27e2a.html" target="_top" xlink:title="custom_elements">
<polygon fill="none" stroke="red" points="125,-108 21,-108 21,-72 125,-72 125,-108"/>
<text text-anchor="middle" x="73" y="-87.5" font-family="Helvetica,sans-Serif" font-size="10.00">custom_elements</text>
</a>
</g>
</g>
<!-- dir_5cac1fab3021db735c7087fbd88e2537&#45;&gt;dir_44c939bd03ca2d59fc207ef063d27e2a -->
<g id="edge1" class="edge">
<title>dir_5cac1fab3021db735c7087fbd88e2537&#45;&gt;dir_44c939bd03ca2d59fc207ef063d27e2a</title>
<path fill="none" stroke="black" d="M103.11,-143.7C98.51,-135.64 92.94,-125.89 87.85,-116.98"/>
<polygon fill="black" stroke="black" points="90.77,-115.05 82.77,-108.1 84.7,-118.52 90.77,-115.05"/>
<g id="a_edge1&#45;headlabel"><a xlink:href="dir_000116_000350.html" target="_top" xlink:title="2">
<text text-anchor="middle" x="95.02" y="-114.26" font-family="Helvetica,sans-Serif" font-size="10.00">2</text>
</a>
</g>
</g>
<!-- dir_c1eab5df6f7ab55b7cfd8523c83a6072 -->
<g id="node3" class="node">
<title>dir_c1eab5df6f7ab55b7cfd8523c83a6072</title>
<g id="a_node3"><a xlink:href="dir_c1eab5df6f7ab55b7cfd8523c83a6072.html" target="_top" xlink:title="custom_utilities">
<polygon fill="none" stroke="black" points="120.5,-36 25.5,-36 25.5,0 120.5,0 120.5,-36"/>
<text text-anchor="middle" x="73" y="-15.5" font-family="Helvetica,sans-Serif" font-size="10.00">custom_utilities</text>
</a>
</g>
</g>
<!-- dir_5cac1fab3021db735c7087fbd88e2537&#45;&gt;dir_c1eab5df6f7ab55b7cfd8523c83a6072 -->
<g id="edge2" class="edge">
<title>dir_5cac1fab3021db735c7087fbd88e2537&#45;&gt;dir_c1eab5df6f7ab55b7cfd8523c83a6072</title>
<path fill="none" stroke="black" d="M123.37,-143.96C133.14,-125.55 144.8,-95.69 134,-72 128.77,-60.53 119.7,-50.58 110.13,-42.5"/>
<polygon fill="black" stroke="black" points="112.07,-39.58 102.04,-36.16 107.75,-45.09 112.07,-39.58"/>
<g id="a_edge2&#45;headlabel"><a xlink:href="dir_000116_000362.html" target="_top" xlink:title="3">
<text text-anchor="middle" x="116.65" y="-37.06" font-family="Helvetica,sans-Serif" font-size="10.00">3</text>
</a>
</g>
</g>
<!-- dir_44c939bd03ca2d59fc207ef063d27e2a&#45;&gt;dir_c1eab5df6f7ab55b7cfd8523c83a6072 -->
<g id="edge4" class="edge">
<title>dir_44c939bd03ca2d59fc207ef063d27e2a&#45;&gt;dir_c1eab5df6f7ab55b7cfd8523c83a6072</title>
<path fill="none" stroke="black" d="M67.08,-71.7C66.29,-63.98 66.06,-54.71 66.4,-46.11"/>
<polygon fill="black" stroke="black" points="69.9,-46.32 67.1,-36.1 62.92,-45.84 69.9,-46.32"/>
<g id="a_edge4&#45;headlabel"><a xlink:href="dir_000350_000362.html" target="_top" xlink:title="56">
<text text-anchor="middle" x="72.48" y="-47.61" font-family="Helvetica,sans-Serif" font-size="10.00">56</text>
</a>
</g>
</g>
<!-- dir_c1eab5df6f7ab55b7cfd8523c83a6072&#45;&gt;dir_44c939bd03ca2d59fc207ef063d27e2a -->
<g id="edge3" class="edge">
<title>dir_c1eab5df6f7ab55b7cfd8523c83a6072&#45;&gt;dir_44c939bd03ca2d59fc207ef063d27e2a</title>
<path fill="none" stroke="black" d="M78.9,-36.1C79.7,-43.79 79.94,-53.05 79.6,-61.67"/>
<polygon fill="black" stroke="black" points="76.11,-61.48 78.92,-71.7 83.09,-61.96 76.11,-61.48"/>
<g id="a_edge3&#45;headlabel"><a xlink:href="dir_000362_000350.html" target="_top" xlink:title="1">
<text text-anchor="middle" x="73.52" y="-55.2" font-family="Helvetica,sans-Serif" font-size="10.00">1</text>
</a>
</g>
</g>
</g>
</svg>
