<?xml version="1.0" encoding="UTF-8" standalone="no"?>
<!DOCTYPE svg PUBLIC "-//W3C//DTD SVG 1.1//EN"
 "http://www.w3.org/Graphics/SVG/1.1/DTD/svg11.dtd">
<!-- Generated by graphviz version 2.43.0 (0)
 -->
<!-- Title: /home/runner/work/Documentation/Documentation/master/applications/FluidDynamicsApplication/custom_conditions Pages: 1 -->
<svg width="274pt" height="231pt"
 viewBox="0.00 0.00 273.56 231.00" xmlns="http://www.w3.org/2000/svg" xmlns:xlink="http://www.w3.org/1999/xlink">
<g id="graph0" class="graph" transform="scale(1 1) rotate(0) translate(4 227)">
<title>/home/runner/work/Documentation/Documentation/master/applications/FluidDynamicsApplication/custom_conditions</title>
<g id="clust1" class="cluster">
<title>clusterdir_3ad5b53c1d85a729c373dd4b6e02d9a8</title>
<g id="a_clust1"><a xlink:href="dir_3ad5b53c1d85a729c373dd4b6e02d9a8.html" target="_top" xlink:title="FluidDynamicsApplication">
<polygon fill="#ddddee" stroke="black" points="8,-56 8,-215 252,-215 252,-56 8,-56"/>
<text text-anchor="middle" x="130" y="-203" font-family="Helvetica,sans-Serif" font-size="10.00">FluidDynamicsApplication</text>
</a>
</g>
</g>
<g id="clust2" class="cluster">
<title>clusterdir_996863ac74ccf784c9b4bd44f8334b29</title>
<g id="a_clust2"><a xlink:href="dir_996863ac74ccf784c9b4bd44f8334b29.html" target="_top">
<polygon fill="#eeeeff" stroke="black" points="16,-64 16,-188 140,-188 140,-64 16,-64"/>
</a>
</g>
</g>
<!-- dir_c1eab5df6f7ab55b7cfd8523c83a6072 -->
<g id="node1" class="node">
<title>dir_c1eab5df6f7ab55b7cfd8523c83a6072</title>
<g id="a_node1"><a xlink:href="dir_c1eab5df6f7ab55b7cfd8523c83a6072.html" target="_top" xlink:title="custom_utilities">
<polygon fill="none" stroke="black" points="243.5,-108 148.5,-108 148.5,-72 243.5,-72 243.5,-108"/>
<text text-anchor="middle" x="196" y="-87.5" font-family="Helvetica,sans-Serif" font-size="10.00">custom_utilities</text>
</a>
</g>
</g>
<!-- dir_8fc3e8efef0bfca4a113d719cbd52afb -->
<g id="node4" class="node">
<title>dir_8fc3e8efef0bfca4a113d719cbd52afb</title>
<g id="a_node4"><a xlink:href="dir_8fc3e8efef0bfca4a113d719cbd52afb.html" target="_top" xlink:title="kratos">
<polygon fill="none" stroke="red" points="223,-36 169,-36 169,0 223,0 223,-36"/>
<text text-anchor="middle" x="196" y="-15.5" font-family="Helvetica,sans-Serif" font-size="10.00">kratos</text>
</a>
</g>
</g>
<!-- dir_c1eab5df6f7ab55b7cfd8523c83a6072&#45;&gt;dir_8fc3e8efef0bfca4a113d719cbd52afb -->
<g id="edge5" class="edge">
<title>dir_c1eab5df6f7ab55b7cfd8523c83a6072&#45;&gt;dir_8fc3e8efef0bfca4a113d719cbd52afb</title>
<path fill="none" stroke="black" d="M196,-71.7C196,-63.98 196,-54.71 196,-46.11"/>
<polygon fill="black" stroke="black" points="199.5,-46.1 196,-36.1 192.5,-46.1 199.5,-46.1"/>
<g id="a_edge5&#45;headlabel"><a xlink:href="dir_000364_000705.html" target="_top" xlink:title="155">
<text text-anchor="middle" x="202.34" y="-47.2" font-family="Helvetica,sans-Serif" font-size="10.00">155</text>
</a>
</g>
</g>
<!-- dir_996863ac74ccf784c9b4bd44f8334b29 -->
<g id="node2" class="node">
<title>dir_996863ac74ccf784c9b4bd44f8334b29</title>
<text text-anchor="middle" x="78" y="-159.5" font-family="Helvetica,sans-Serif" font-size="10.00">custom_conditions</text>
</g>
<!-- dir_996863ac74ccf784c9b4bd44f8334b29&#45;&gt;dir_c1eab5df6f7ab55b7cfd8523c83a6072 -->
<g id="edge3" class="edge">
<title>dir_996863ac74ccf784c9b4bd44f8334b29&#45;&gt;dir_c1eab5df6f7ab55b7cfd8523c83a6072</title>
<path fill="none" stroke="black" d="M106.87,-143.88C122.29,-134.72 141.48,-123.34 158.1,-113.48"/>
<polygon fill="black" stroke="black" points="160.21,-116.3 167.02,-108.19 156.64,-110.28 160.21,-116.3"/>
<g id="a_edge3&#45;headlabel"><a xlink:href="dir_000349_000364.html" target="_top" xlink:title="1">
<text text-anchor="middle" x="158.57" y="-118.08" font-family="Helvetica,sans-Serif" font-size="10.00">1</text>
</a>
</g>
</g>
<!-- dir_9b1f7a2dc482e1fa885741f74678ac5d -->
<g id="node3" class="node">
<title>dir_9b1f7a2dc482e1fa885741f74678ac5d</title>
<g id="a_node3"><a xlink:href="dir_9b1f7a2dc482e1fa885741f74678ac5d.html" target="_top" xlink:title="wall_laws">
<polygon fill="white" stroke="black" points="120.5,-108 55.5,-108 55.5,-72 120.5,-72 120.5,-108"/>
<text text-anchor="middle" x="88" y="-87.5" font-family="Helvetica,sans-Serif" font-size="10.00">wall_laws</text>
</a>
</g>
</g>
<!-- dir_996863ac74ccf784c9b4bd44f8334b29&#45;&gt;dir_9b1f7a2dc482e1fa885741f74678ac5d -->
<g id="edge2" class="edge">
<title>dir_996863ac74ccf784c9b4bd44f8334b29&#45;&gt;dir_9b1f7a2dc482e1fa885741f74678ac5d</title>
<path fill="none" stroke="black" d="M80.47,-143.7C81.57,-135.98 82.9,-126.71 84.13,-118.11"/>
<polygon fill="black" stroke="black" points="87.61,-118.5 85.56,-108.1 80.68,-117.51 87.61,-118.5"/>
<g id="a_edge2&#45;headlabel"><a xlink:href="dir_000349_000350.html" target="_top" xlink:title="2">
<text text-anchor="middle" x="89.91" y="-119.96" font-family="Helvetica,sans-Serif" font-size="10.00">2</text>
</a>
</g>
</g>
<!-- dir_996863ac74ccf784c9b4bd44f8334b29&#45;&gt;dir_8fc3e8efef0bfca4a113d719cbd52afb -->
<g id="edge1" class="edge">
<title>dir_996863ac74ccf784c9b4bd44f8334b29&#45;&gt;dir_8fc3e8efef0bfca4a113d719cbd52afb</title>
<path fill="none" stroke="black" d="M132.28,-152.12C178.96,-143.24 241.06,-128.03 256,-108 269.81,-89.47 267.26,-76.18 256,-56 250.62,-46.36 241.59,-38.92 232.14,-33.33"/>
<polygon fill="black" stroke="black" points="233.54,-30.11 223.06,-28.52 230.26,-36.3 233.54,-30.11"/>
<g id="a_edge1&#45;headlabel"><a xlink:href="dir_000349_000705.html" target="_top" xlink:title="78">
<text text-anchor="middle" x="238.04" y="-26.78" font-family="Helvetica,sans-Serif" font-size="10.00">78</text>
</a>
</g>
</g>
<!-- dir_9b1f7a2dc482e1fa885741f74678ac5d&#45;&gt;dir_8fc3e8efef0bfca4a113d719cbd52afb -->
<g id="edge4" class="edge">
<title>dir_9b1f7a2dc482e1fa885741f74678ac5d&#45;&gt;dir_8fc3e8efef0bfca4a113d719cbd52afb</title>
<path fill="none" stroke="black" d="M105.32,-71.94C111.3,-66.51 118.2,-60.7 125,-56 135.72,-48.6 148.11,-41.65 159.51,-35.82"/>
<polygon fill="black" stroke="black" points="161.4,-38.79 168.8,-31.21 158.28,-32.53 161.4,-38.79"/>
<g id="a_edge4&#45;headlabel"><a xlink:href="dir_000350_000705.html" target="_top" xlink:title="8">
<text text-anchor="middle" x="159.45" y="-40.44" font-family="Helvetica,sans-Serif" font-size="10.00">8</text>
</a>
</g>
</g>
</g>
</svg>
