<?xml version="1.0" encoding="UTF-8" standalone="no"?>
<!DOCTYPE svg PUBLIC "-//W3C//DTD SVG 1.1//EN"
 "http://www.w3.org/Graphics/SVG/1.1/DTD/svg11.dtd">
<!-- Generated by graphviz version 2.43.0 (0)
 -->
<!-- Title: /home/runner/work/Documentation/Documentation/master/applications/FluidDynamicsApplication/python_scripts/symbolic_generation/compressible_navier_stokes/templates Pages: 1 -->
<svg width="186pt" height="223pt"
 viewBox="0.00 0.00 186.00 223.00" xmlns="http://www.w3.org/2000/svg" xmlns:xlink="http://www.w3.org/1999/xlink">
<g id="graph0" class="graph" transform="scale(1 1) rotate(0) translate(4 219)">
<title>/home/runner/work/Documentation/Documentation/master/applications/FluidDynamicsApplication/python_scripts/symbolic_generation/compressible_navier_stokes/templates</title>
<g id="clust1" class="cluster">
<title>clusterdir_0428367666cb016510c92e8bc9a5ce4c</title>
<g id="a_clust1"><a xlink:href="dir_0428367666cb016510c92e8bc9a5ce4c.html" target="_top" xlink:title="compressible_navier_stokes">
<polygon fill="#ddddee" stroke="black" points="15,-136 15,-207 170,-207 170,-136 15,-136"/>
<text text-anchor="middle" x="92.5" y="-195" font-family="Helvetica,sans-Serif" font-size="10.00">compressible_navier_stokes</text>
</a>
</g>
</g>
<!-- dir_9aca8965011f33a8a7e9371fe978ccc9 -->
<g id="node1" class="node">
<title>dir_9aca8965011f33a8a7e9371fe978ccc9</title>
<g id="a_node1"><a xlink:href="dir_9aca8965011f33a8a7e9371fe978ccc9.html" target="_top" xlink:title="templates">
<polygon fill="#eeeeff" stroke="black" points="125,-180 59,-180 59,-144 125,-144 125,-180"/>
<text text-anchor="middle" x="92" y="-159.5" font-family="Helvetica,sans-Serif" font-size="10.00">templates</text>
</a>
</g>
</g>
<!-- dir_44c939bd03ca2d59fc207ef063d27e2a -->
<g id="node2" class="node">
<title>dir_44c939bd03ca2d59fc207ef063d27e2a</title>
<g id="a_node2"><a xlink:href="dir_44c939bd03ca2d59fc207ef063d27e2a.html" target="_top" xlink:title="custom_elements">
<polygon fill="none" stroke="red" points="104,-108 0,-108 0,-72 104,-72 104,-108"/>
<text text-anchor="middle" x="52" y="-87.5" font-family="Helvetica,sans-Serif" font-size="10.00">custom_elements</text>
</a>
</g>
</g>
<!-- dir_9aca8965011f33a8a7e9371fe978ccc9&#45;&gt;dir_44c939bd03ca2d59fc207ef063d27e2a -->
<g id="edge1" class="edge">
<title>dir_9aca8965011f33a8a7e9371fe978ccc9&#45;&gt;dir_44c939bd03ca2d59fc207ef063d27e2a</title>
<path fill="none" stroke="black" d="M82.11,-143.7C77.51,-135.64 71.94,-125.89 66.85,-116.98"/>
<polygon fill="black" stroke="black" points="69.77,-115.05 61.77,-108.1 63.7,-118.52 69.77,-115.05"/>
<g id="a_edge1&#45;headlabel"><a xlink:href="dir_000367_000351.html" target="_top" xlink:title="3">
<text text-anchor="middle" x="74.02" y="-114.26" font-family="Helvetica,sans-Serif" font-size="10.00">3</text>
</a>
</g>
</g>
<!-- dir_8fc3e8efef0bfca4a113d719cbd52afb -->
<g id="node3" class="node">
<title>dir_8fc3e8efef0bfca4a113d719cbd52afb</title>
<g id="a_node3"><a xlink:href="dir_8fc3e8efef0bfca4a113d719cbd52afb.html" target="_top" xlink:title="kratos">
<polygon fill="none" stroke="red" points="119,-36 65,-36 65,0 119,0 119,-36"/>
<text text-anchor="middle" x="92" y="-15.5" font-family="Helvetica,sans-Serif" font-size="10.00">kratos</text>
</a>
</g>
</g>
<!-- dir_9aca8965011f33a8a7e9371fe978ccc9&#45;&gt;dir_8fc3e8efef0bfca4a113d719cbd52afb -->
<g id="edge2" class="edge">
<title>dir_9aca8965011f33a8a7e9371fe978ccc9&#45;&gt;dir_8fc3e8efef0bfca4a113d719cbd52afb</title>
<path fill="none" stroke="black" d="M100.72,-143.83C105.37,-133.69 110.62,-120.44 113,-108 116,-92.28 116,-87.72 113,-72 111.29,-63.06 108.1,-53.7 104.71,-45.37"/>
<polygon fill="black" stroke="black" points="107.91,-43.95 100.72,-36.17 101.49,-46.73 107.91,-43.95"/>
<g id="a_edge2&#45;headlabel"><a xlink:href="dir_000367_000701.html" target="_top" xlink:title="4">
<text text-anchor="middle" x="111.94" y="-43.62" font-family="Helvetica,sans-Serif" font-size="10.00">4</text>
</a>
</g>
</g>
<!-- dir_44c939bd03ca2d59fc207ef063d27e2a&#45;&gt;dir_8fc3e8efef0bfca4a113d719cbd52afb -->
<g id="edge3" class="edge">
<title>dir_44c939bd03ca2d59fc207ef063d27e2a&#45;&gt;dir_8fc3e8efef0bfca4a113d719cbd52afb</title>
<path fill="none" stroke="black" d="M61.89,-71.7C66.49,-63.64 72.06,-53.89 77.15,-44.98"/>
<polygon fill="black" stroke="black" points="80.3,-46.52 82.23,-36.1 74.23,-43.05 80.3,-46.52"/>
<g id="a_edge3&#45;headlabel"><a xlink:href="dir_000351_000701.html" target="_top" xlink:title="266">
<text text-anchor="middle" x="80.99" y="-48.55" font-family="Helvetica,sans-Serif" font-size="10.00">266</text>
</a>
</g>
</g>
</g>
</svg>
