<?xml version="1.0" encoding="UTF-8" standalone="no"?>
<!DOCTYPE svg PUBLIC "-//W3C//DTD SVG 1.1//EN"
 "http://www.w3.org/Graphics/SVG/1.1/DTD/svg11.dtd">
<!-- Generated by graphviz version 2.43.0 (0)
 -->
<!-- Title: /home/runner/work/Documentation/Documentation/master/applications/DamApplication/custom_conditions Pages: 1 -->
<svg width="201pt" height="223pt"
 viewBox="0.00 0.00 201.00 223.00" xmlns="http://www.w3.org/2000/svg" xmlns:xlink="http://www.w3.org/1999/xlink">
<g id="graph0" class="graph" transform="scale(1 1) rotate(0) translate(4 219)">
<title>/home/runner/work/Documentation/Documentation/master/applications/DamApplication/custom_conditions</title>
<g id="clust1" class="cluster">
<title>clusterdir_fe0101161804a37679e56472a4547203</title>
<g id="a_clust1"><a xlink:href="dir_fe0101161804a37679e56472a4547203.html" target="_top" xlink:title="DamApplication">
<polygon fill="#ddddee" stroke="black" points="8,-136 8,-207 132,-207 132,-136 8,-136"/>
<text text-anchor="middle" x="70" y="-195" font-family="Helvetica,sans-Serif" font-size="10.00">DamApplication</text>
</a>
</g>
</g>
<!-- dir_9b3768e4bacb468e0da5c1c5187fda13 -->
<g id="node1" class="node">
<title>dir_9b3768e4bacb468e0da5c1c5187fda13</title>
<g id="a_node1"><a xlink:href="dir_9b3768e4bacb468e0da5c1c5187fda13.html" target="_top" xlink:title="custom_conditions">
<polygon fill="#eeeeff" stroke="black" points="124,-180 16,-180 16,-144 124,-144 124,-180"/>
<text text-anchor="middle" x="70" y="-159.5" font-family="Helvetica,sans-Serif" font-size="10.00">custom_conditions</text>
</a>
</g>
</g>
<!-- dir_8fc3e8efef0bfca4a113d719cbd52afb -->
<g id="node2" class="node">
<title>dir_8fc3e8efef0bfca4a113d719cbd52afb</title>
<g id="a_node2"><a xlink:href="dir_8fc3e8efef0bfca4a113d719cbd52afb.html" target="_top" xlink:title="kratos">
<polygon fill="none" stroke="red" points="96,-36 42,-36 42,0 96,0 96,-36"/>
<text text-anchor="middle" x="69" y="-15.5" font-family="Helvetica,sans-Serif" font-size="10.00">kratos</text>
</a>
</g>
</g>
<!-- dir_9b3768e4bacb468e0da5c1c5187fda13&#45;&gt;dir_8fc3e8efef0bfca4a113d719cbd52afb -->
<g id="edge2" class="edge">
<title>dir_9b3768e4bacb468e0da5c1c5187fda13&#45;&gt;dir_8fc3e8efef0bfca4a113d719cbd52afb</title>
<path fill="none" stroke="black" d="M56.44,-143.97C49.44,-134.09 41.63,-121.05 38,-108 33.71,-92.59 33.82,-87.44 38,-72 40.58,-62.48 45.34,-52.92 50.38,-44.59"/>
<polygon fill="black" stroke="black" points="53.38,-46.39 55.85,-36.09 47.49,-42.6 53.38,-46.39"/>
<g id="a_edge2&#45;headlabel"><a xlink:href="dir_000283_000704.html" target="_top" xlink:title="16">
<text text-anchor="middle" x="53.82" y="-48.45" font-family="Helvetica,sans-Serif" font-size="10.00">16</text>
</a>
</g>
</g>
<!-- dir_f83e21e3a4e8662fd0596446c632b4a1 -->
<g id="node3" class="node">
<title>dir_f83e21e3a4e8662fd0596446c632b4a1</title>
<g id="a_node3"><a xlink:href="dir_f83e21e3a4e8662fd0596446c632b4a1.html" target="_top" xlink:title="PoromechanicsApplication">
<polygon fill="none" stroke="red" points="193,-108 47,-108 47,-72 193,-72 193,-108"/>
<text text-anchor="middle" x="120" y="-87.5" font-family="Helvetica,sans-Serif" font-size="10.00">PoromechanicsApplication</text>
</a>
</g>
</g>
<!-- dir_9b3768e4bacb468e0da5c1c5187fda13&#45;&gt;dir_f83e21e3a4e8662fd0596446c632b4a1 -->
<g id="edge3" class="edge">
<title>dir_9b3768e4bacb468e0da5c1c5187fda13&#45;&gt;dir_f83e21e3a4e8662fd0596446c632b4a1</title>
<path fill="none" stroke="black" d="M82.36,-143.7C88.23,-135.47 95.37,-125.48 101.84,-116.42"/>
<polygon fill="black" stroke="black" points="104.82,-118.28 107.78,-108.1 99.12,-114.21 104.82,-118.28"/>
<g id="a_edge3&#45;headlabel"><a xlink:href="dir_000283_000046.html" target="_top" xlink:title="2">
<text text-anchor="middle" x="105.04" y="-120.35" font-family="Helvetica,sans-Serif" font-size="10.00">2</text>
</a>
</g>
</g>
<!-- dir_f83e21e3a4e8662fd0596446c632b4a1&#45;&gt;dir_8fc3e8efef0bfca4a113d719cbd52afb -->
<g id="edge1" class="edge">
<title>dir_f83e21e3a4e8662fd0596446c632b4a1&#45;&gt;dir_8fc3e8efef0bfca4a113d719cbd52afb</title>
<path fill="none" stroke="black" d="M107.39,-71.7C101.4,-63.47 94.12,-53.48 87.52,-44.42"/>
<polygon fill="black" stroke="black" points="90.18,-42.13 81.46,-36.1 84.52,-46.25 90.18,-42.13"/>
<g id="a_edge1&#45;headlabel"><a xlink:href="dir_000046_000704.html" target="_top" xlink:title="209">
<text text-anchor="middle" x="94.59" y="-40.86" font-family="Helvetica,sans-Serif" font-size="10.00">209</text>
</a>
</g>
</g>
</g>
</svg>
