<?xml version="1.0" encoding="UTF-8" standalone="no"?>
<!DOCTYPE svg PUBLIC "-//W3C//DTD SVG 1.1//EN"
 "http://www.w3.org/Graphics/SVG/1.1/DTD/svg11.dtd">
<!-- Generated by graphviz version 2.43.0 (0)
 -->
<!-- Title: /home/runner/work/Documentation/Documentation/master/applications/PoromechanicsApplication/custom_elements Pages: 1 -->
<svg width="271pt" height="231pt"
 viewBox="0.00 0.00 271.00 231.00" xmlns="http://www.w3.org/2000/svg" xmlns:xlink="http://www.w3.org/1999/xlink">
<g id="graph0" class="graph" transform="scale(1 1) rotate(0) translate(4 227)">
<title>/home/runner/work/Documentation/Documentation/master/applications/PoromechanicsApplication/custom_elements</title>
<g id="clust1" class="cluster">
<title>clusterdir_f83e21e3a4e8662fd0596446c632b4a1</title>
<g id="a_clust1"><a xlink:href="dir_f83e21e3a4e8662fd0596446c632b4a1.html" target="_top" xlink:title="PoromechanicsApplication">
<polygon fill="#ddddee" stroke="black" points="8,-64 8,-215 255,-215 255,-64 8,-64"/>
<text text-anchor="middle" x="131.5" y="-203" font-family="Helvetica,sans-Serif" font-size="10.00">PoromechanicsApplication</text>
</a>
</g>
</g>
<g id="clust2" class="cluster">
<title>clusterdir_04835582e2ebc3589e40067a7dfee349</title>
<g id="a_clust2"><a xlink:href="dir_04835582e2ebc3589e40067a7dfee349.html" target="_top">
<polygon fill="#eeeeff" stroke="black" points="16,-136 16,-188 247,-188 247,-136 16,-136"/>
</a>
</g>
</g>
<!-- dir_bbe611a91f5f6e7d4468b4e27fc6d301 -->
<g id="node1" class="node">
<title>dir_bbe611a91f5f6e7d4468b4e27fc6d301</title>
<g id="a_node1"><a xlink:href="dir_bbe611a91f5f6e7d4468b4e27fc6d301.html" target="_top" xlink:title="custom_utilities">
<polygon fill="none" stroke="black" points="114.5,-108 19.5,-108 19.5,-72 114.5,-72 114.5,-108"/>
<text text-anchor="middle" x="67" y="-87.5" font-family="Helvetica,sans-Serif" font-size="10.00">custom_utilities</text>
</a>
</g>
</g>
<!-- dir_8fc3e8efef0bfca4a113d719cbd52afb -->
<g id="node4" class="node">
<title>dir_8fc3e8efef0bfca4a113d719cbd52afb</title>
<g id="a_node4"><a xlink:href="dir_8fc3e8efef0bfca4a113d719cbd52afb.html" target="_top" xlink:title="kratos">
<polygon fill="none" stroke="red" points="132,-36 78,-36 78,0 132,0 132,-36"/>
<text text-anchor="middle" x="105" y="-15.5" font-family="Helvetica,sans-Serif" font-size="10.00">kratos</text>
</a>
</g>
</g>
<!-- dir_bbe611a91f5f6e7d4468b4e27fc6d301&#45;&gt;dir_8fc3e8efef0bfca4a113d719cbd52afb -->
<g id="edge1" class="edge">
<title>dir_bbe611a91f5f6e7d4468b4e27fc6d301&#45;&gt;dir_8fc3e8efef0bfca4a113d719cbd52afb</title>
<path fill="none" stroke="black" d="M76.39,-71.7C80.76,-63.64 86.06,-53.89 90.9,-44.98"/>
<polygon fill="black" stroke="black" points="94.02,-46.56 95.71,-36.1 87.87,-43.22 94.02,-46.56"/>
<g id="a_edge1&#45;headlabel"><a xlink:href="dir_000394_000712.html" target="_top" xlink:title="40">
<text text-anchor="middle" x="94.8" y="-48.58" font-family="Helvetica,sans-Serif" font-size="10.00">40</text>
</a>
</g>
</g>
<!-- dir_04835582e2ebc3589e40067a7dfee349 -->
<g id="node2" class="node">
<title>dir_04835582e2ebc3589e40067a7dfee349</title>
<text text-anchor="middle" x="187" y="-159.5" font-family="Helvetica,sans-Serif" font-size="10.00">custom_elements</text>
</g>
<!-- dir_a7a6a02bbe2fcf6d0275ca7381308502 -->
<g id="node3" class="node">
<title>dir_a7a6a02bbe2fcf6d0275ca7381308502</title>
<g id="a_node3"><a xlink:href="dir_a7a6a02bbe2fcf6d0275ca7381308502.html" target="_top" xlink:title="one&#45;phase_flow">
<polygon fill="white" stroke="black" points="116.5,-180 23.5,-180 23.5,-144 116.5,-144 116.5,-180"/>
<text text-anchor="middle" x="70" y="-159.5" font-family="Helvetica,sans-Serif" font-size="10.00">one&#45;phase_flow</text>
</a>
</g>
</g>
<!-- dir_a7a6a02bbe2fcf6d0275ca7381308502&#45;&gt;dir_bbe611a91f5f6e7d4468b4e27fc6d301 -->
<g id="edge3" class="edge">
<title>dir_a7a6a02bbe2fcf6d0275ca7381308502&#45;&gt;dir_bbe611a91f5f6e7d4468b4e27fc6d301</title>
<path fill="none" stroke="black" d="M69.26,-143.7C68.93,-135.98 68.53,-126.71 68.16,-118.11"/>
<polygon fill="black" stroke="black" points="71.66,-117.95 67.73,-108.1 64.66,-118.25 71.66,-117.95"/>
<g id="a_edge3&#45;headlabel"><a xlink:href="dir_000555_000394.html" target="_top" xlink:title="3">
<text text-anchor="middle" x="74.65" y="-118.92" font-family="Helvetica,sans-Serif" font-size="10.00">3</text>
</a>
</g>
</g>
<!-- dir_a7a6a02bbe2fcf6d0275ca7381308502&#45;&gt;dir_8fc3e8efef0bfca4a113d719cbd52afb -->
<g id="edge2" class="edge">
<title>dir_a7a6a02bbe2fcf6d0275ca7381308502&#45;&gt;dir_8fc3e8efef0bfca4a113d719cbd52afb</title>
<path fill="none" stroke="black" d="M97.8,-143.87C109.77,-134.84 122.5,-122.59 129,-108 136.96,-90.14 133.74,-82.97 129,-64 127.39,-57.57 124.68,-51.06 121.63,-45.06"/>
<polygon fill="black" stroke="black" points="124.6,-43.2 116.7,-36.14 118.48,-46.58 124.6,-43.2"/>
<g id="a_edge2&#45;headlabel"><a xlink:href="dir_000555_000712.html" target="_top" xlink:title="22">
<text text-anchor="middle" x="128.83" y="-42.47" font-family="Helvetica,sans-Serif" font-size="10.00">22</text>
</a>
</g>
</g>
</g>
</svg>
