<?xml version="1.0" encoding="UTF-8" standalone="no"?>
<!DOCTYPE svg PUBLIC "-//W3C//DTD SVG 1.1//EN"
 "http://www.w3.org/Graphics/SVG/1.1/DTD/svg11.dtd">
<!-- Generated by graphviz version 2.43.0 (0)
 -->
<!-- Title: /home/runner/work/Documentation/Documentation/master/kratos/mpi Pages: 1 -->
<!--zoomable 535 -->
<svg id="main" version="1.1" xmlns="http://www.w3.org/2000/svg" xmlns:xlink="http://www.w3.org/1999/xlink" xml:space="preserve" onload="init(evt)">
<style type="text/css"><![CDATA[
.edge:hover path { stroke: red; }
.edge:hover polygon { stroke: red; fill: red; }
]]></style>
<script type="text/javascript"><![CDATA[
var edges = document.getElementsByTagName('g');
if (edges && edges.length) {
  for (var i=0;i<edges.length;i++) {
    if (edges[i].id.substr(0,4)=='edge') {
      edges[i].setAttribute('class','edge');
    }
  }
}
]]></script>
        <defs>
                <circle id="rim" cx="0" cy="0" r="7"/>
                <circle id="rim2" cx="0" cy="0" r="3.5"/>
                <g id="zoomPlus">
                        <use xlink:href="#rim" fill="#404040">
                                <set attributeName="fill" to="#808080" begin="zoomplus.mouseover" end="zoomplus.mouseout"/>
                        </use>
                        <path d="M-4,0h8M0,-4v8" fill="none" stroke="white" stroke-width="1.5" pointer-events="none"/>
                </g>
                <g id="zoomMin">
                        <use xlink:href="#rim" fill="#404040">
                                <set attributeName="fill" to="#808080" begin="zoomminus.mouseover" end="zoomminus.mouseout"/>
                        </use>
                        <path d="M-4,0h8" fill="none" stroke="white" stroke-width="1.5" pointer-events="none"/>
                </g>
                <g id="dirArrow">
                        <path fill="none" stroke="white" stroke-width="1.5" d="M0,-3.0v7 M-2.5,-0.5L0,-3.0L2.5,-0.5"/>
                </g>
               <g id="resetDef">
                       <use xlink:href="#rim2" fill="#404040">
                               <set attributeName="fill" to="#808080" begin="reset.mouseover" end="reset.mouseout"/>
                       </use>
               </g>
        </defs>

<script type="text/javascript">
var viewWidth = 360;
var viewHeight = 535;
var sectionId = 'dynsection-0';
</script>
<script xlink:href="svgpan.js"/>
<svg id="graph" class="graph">
<g id="viewport">
<title>/home/runner/work/Documentation/Documentation/master/kratos/mpi</title>
<g id="clust1" class="cluster">
<title>clusterdir_8fc3e8efef0bfca4a113d719cbd52afb</title>
<g id="a_clust1"><a xlink:href="dir_8fc3e8efef0bfca4a113d719cbd52afb.html" target="_top" xlink:title="kratos">
<polygon fill="#ddddee" stroke="black" points="8,-8 8,-519 344,-519 344,-8 8,-8"/>
<text text-anchor="middle" x="176" y="-507" font-family="Helvetica,sans-Serif" font-size="10.00">kratos</text>
</a>
</g>
</g>
<g id="clust2" class="cluster">
<title>clusterdir_bd392a5b05f0091b7bab150669bd102e</title>
<g id="a_clust2"><a xlink:href="dir_bd392a5b05f0091b7bab150669bd102e.html" target="_top">
<polygon fill="#eeeeff" stroke="black" points="16,-296 16,-492 336,-492 336,-296 16,-296"/>
</a>
</g>
</g>
<!-- dir_6da2b5da699b6e8099c18b866a052d71 -->
<g id="node1" class="node">
<title>dir_6da2b5da699b6e8099c18b866a052d71</title>
<g id="a_node1"><a xlink:href="dir_6da2b5da699b6e8099c18b866a052d71.html" target="_top" xlink:title="includes">
<polygon fill="none" stroke="black" points="205.5,-268 148.5,-268 148.5,-232 205.5,-232 205.5,-268"/>
<text text-anchor="middle" x="177" y="-247.5" font-family="Helvetica,sans-Serif" font-size="10.00">includes</text>
</a>
</g>
</g>
<!-- dir_70f98bb657cca0a872199855cac08757 -->
<g id="node2" class="node">
<title>dir_70f98bb657cca0a872199855cac08757</title>
<g id="a_node2"><a xlink:href="dir_70f98bb657cca0a872199855cac08757.html" target="_top" xlink:title="utilities">
<polygon fill="none" stroke="red" points="158,-196 104,-196 104,-160 158,-160 158,-196"/>
<text text-anchor="middle" x="131" y="-175.5" font-family="Helvetica,sans-Serif" font-size="10.00">utilities</text>
</a>
</g>
</g>
<!-- dir_6da2b5da699b6e8099c18b866a052d71&#45;&gt;dir_70f98bb657cca0a872199855cac08757 -->
<g id="edge20" class="edge">
<title>dir_6da2b5da699b6e8099c18b866a052d71&#45;&gt;dir_70f98bb657cca0a872199855cac08757</title>
<path fill="none" stroke="black" d="M159.71,-231.7C153.59,-223.64 146.97,-213.89 141.53,-204.98"/>
<polygon fill="black" stroke="black" points="144.41,-202.98 136.34,-196.1 138.36,-206.51 144.41,-202.98"/>
<g id="a_edge20&#45;headlabel"><a xlink:href="dir_000721_000722.html" target="_top" xlink:title="13">
<text text-anchor="middle" x="148.67" y="-202.15" font-family="Helvetica,sans-Serif" font-size="10.00">13</text>
</a>
</g>
</g>
<!-- dir_80b24cd11685060440d77842b83d8f07 -->
<g id="node3" class="node">
<title>dir_80b24cd11685060440d77842b83d8f07</title>
<g id="a_node3"><a xlink:href="dir_80b24cd11685060440d77842b83d8f07.html" target="_top" xlink:title="containers">
<polygon fill="none" stroke="black" points="165,-52 97,-52 97,-16 165,-16 165,-52"/>
<text text-anchor="middle" x="131" y="-31.5" font-family="Helvetica,sans-Serif" font-size="10.00">containers</text>
</a>
</g>
</g>
<!-- dir_6da2b5da699b6e8099c18b866a052d71&#45;&gt;dir_80b24cd11685060440d77842b83d8f07 -->
<g id="edge21" class="edge">
<title>dir_6da2b5da699b6e8099c18b866a052d71&#45;&gt;dir_80b24cd11685060440d77842b83d8f07</title>
<path fill="none" stroke="black" d="M180.16,-231.53C190.26,-200.83 213.4,-135.91 190,-88 184.19,-76.11 174.29,-66.12 164.19,-58.12"/>
<polygon fill="black" stroke="black" points="166.23,-55.28 156.11,-52.14 162.06,-60.91 166.23,-55.28"/>
<g id="a_edge21&#45;headlabel"><a xlink:href="dir_000721_000714.html" target="_top" xlink:title="62">
<text text-anchor="middle" x="170.81" y="-52.64" font-family="Helvetica,sans-Serif" font-size="10.00">62</text>
</a>
</g>
</g>
<!-- dir_70f98bb657cca0a872199855cac08757&#45;&gt;dir_6da2b5da699b6e8099c18b866a052d71 -->
<g id="edge17" class="edge">
<title>dir_70f98bb657cca0a872199855cac08757&#45;&gt;dir_6da2b5da699b6e8099c18b866a052d71</title>
<path fill="none" stroke="black" d="M148.14,-196.1C154.25,-204.13 160.87,-213.87 166.34,-222.8"/>
<polygon fill="black" stroke="black" points="163.47,-224.83 171.54,-231.7 169.52,-221.3 163.47,-224.83"/>
<g id="a_edge17&#45;headlabel"><a xlink:href="dir_000722_000721.html" target="_top" xlink:title="220">
<text text-anchor="middle" x="159.21" y="-220.66" font-family="Helvetica,sans-Serif" font-size="10.00">220</text>
</a>
</g>
</g>
<!-- dir_70f98bb657cca0a872199855cac08757&#45;&gt;dir_80b24cd11685060440d77842b83d8f07 -->
<g id="edge18" class="edge">
<title>dir_70f98bb657cca0a872199855cac08757&#45;&gt;dir_80b24cd11685060440d77842b83d8f07</title>
<path fill="none" stroke="black" d="M116.47,-159.63C111.8,-149.42 107.8,-136.17 106,-124 103.66,-108.17 103.66,-103.83 106,-88 107.28,-79.35 109.67,-70.15 112.62,-61.89"/>
<polygon fill="black" stroke="black" points="115.97,-62.95 116.47,-52.37 109.48,-60.33 115.97,-62.95"/>
<g id="a_edge18&#45;headlabel"><a xlink:href="dir_000722_000714.html" target="_top" xlink:title="31">
<text text-anchor="middle" x="117.25" y="-64.85" font-family="Helvetica,sans-Serif" font-size="10.00">31</text>
</a>
</g>
</g>
<!-- dir_c7c5f3eb57bf72689def995461ffc148 -->
<g id="node4" class="node">
<title>dir_c7c5f3eb57bf72689def995461ffc148</title>
<g id="a_node4"><a xlink:href="dir_c7c5f3eb57bf72689def995461ffc148.html" target="_top" xlink:title="processes">
<polygon fill="none" stroke="black" points="189.5,-124 124.5,-124 124.5,-88 189.5,-88 189.5,-124"/>
<text text-anchor="middle" x="157" y="-103.5" font-family="Helvetica,sans-Serif" font-size="10.00">processes</text>
</a>
</g>
</g>
<!-- dir_70f98bb657cca0a872199855cac08757&#45;&gt;dir_c7c5f3eb57bf72689def995461ffc148 -->
<g id="edge19" class="edge">
<title>dir_70f98bb657cca0a872199855cac08757&#45;&gt;dir_c7c5f3eb57bf72689def995461ffc148</title>
<path fill="none" stroke="black" d="M131.51,-159.7C133.65,-151.73 137.01,-142.1 140.69,-133.26"/>
<polygon fill="black" stroke="black" points="143.89,-134.66 144.75,-124.1 137.5,-131.82 143.89,-134.66"/>
<g id="a_edge19&#45;headlabel"><a xlink:href="dir_000722_000736.html" target="_top" xlink:title="4">
<text text-anchor="middle" x="145.03" y="-136.6" font-family="Helvetica,sans-Serif" font-size="10.00">4</text>
</a>
</g>
</g>
<!-- dir_80b24cd11685060440d77842b83d8f07&#45;&gt;dir_6da2b5da699b6e8099c18b866a052d71 -->
<g id="edge1" class="edge">
<title>dir_80b24cd11685060440d77842b83d8f07&#45;&gt;dir_6da2b5da699b6e8099c18b866a052d71</title>
<path fill="none" stroke="black" d="M165.07,-47.76C181.52,-56.71 199.33,-70.25 208,-88 229.3,-131.6 212.04,-189.3 195.7,-222.47"/>
<polygon fill="black" stroke="black" points="192.48,-221.05 190.92,-231.53 198.68,-224.32 192.48,-221.05"/>
<g id="a_edge1&#45;headlabel"><a xlink:href="dir_000714_000721.html" target="_top" xlink:title="65">
<text text-anchor="middle" x="191.65" y="-214.05" font-family="Helvetica,sans-Serif" font-size="10.00">65</text>
</a>
</g>
</g>
<!-- dir_80b24cd11685060440d77842b83d8f07&#45;&gt;dir_70f98bb657cca0a872199855cac08757 -->
<g id="edge2" class="edge">
<title>dir_80b24cd11685060440d77842b83d8f07&#45;&gt;dir_70f98bb657cca0a872199855cac08757</title>
<path fill="none" stroke="black" d="M132.22,-52.37C129.8,-62.58 125.8,-75.83 124,-88 121.66,-103.83 121.66,-108.17 124,-124 125.26,-132.56 127.62,-141.65 129.74,-149.84"/>
<polygon fill="black" stroke="black" points="126.38,-150.79 132.22,-159.63 133.16,-149.07 126.38,-150.79"/>
<g id="a_edge2&#45;headlabel"><a xlink:href="dir_000714_000722.html" target="_top" xlink:title="22">
<text text-anchor="middle" x="122.74" y="-145.51" font-family="Helvetica,sans-Serif" font-size="10.00">22</text>
</a>
</g>
</g>
<!-- dir_c7c5f3eb57bf72689def995461ffc148&#45;&gt;dir_6da2b5da699b6e8099c18b866a052d71 -->
<g id="edge8" class="edge">
<title>dir_c7c5f3eb57bf72689def995461ffc148&#45;&gt;dir_6da2b5da699b6e8099c18b866a052d71</title>
<path fill="none" stroke="black" d="M160.57,-124.13C162.64,-134.48 165.19,-147.96 167,-160 170.1,-180.63 172.7,-204.08 174.47,-221.73"/>
<polygon fill="black" stroke="black" points="171,-222.28 175.46,-231.89 177.97,-221.6 171,-222.28"/>
<g id="a_edge8&#45;headlabel"><a xlink:href="dir_000736_000721.html" target="_top" xlink:title="145">
<text text-anchor="middle" x="167.83" y="-216.47" font-family="Helvetica,sans-Serif" font-size="10.00">145</text>
</a>
</g>
</g>
<!-- dir_c7c5f3eb57bf72689def995461ffc148&#45;&gt;dir_70f98bb657cca0a872199855cac08757 -->
<g id="edge9" class="edge">
<title>dir_c7c5f3eb57bf72689def995461ffc148&#45;&gt;dir_70f98bb657cca0a872199855cac08757</title>
<path fill="none" stroke="black" d="M156.54,-124.1C154.42,-132.04 151.08,-141.67 147.41,-150.51"/>
<polygon fill="black" stroke="black" points="144.19,-149.14 143.34,-159.7 150.59,-151.97 144.19,-149.14"/>
<g id="a_edge9&#45;headlabel"><a xlink:href="dir_000736_000722.html" target="_top" xlink:title="102">
<text text-anchor="middle" x="143.05" y="-142.2" font-family="Helvetica,sans-Serif" font-size="10.00">102</text>
</a>
</g>
</g>
<!-- dir_c7c5f3eb57bf72689def995461ffc148&#45;&gt;dir_80b24cd11685060440d77842b83d8f07 -->
<g id="edge10" class="edge">
<title>dir_c7c5f3eb57bf72689def995461ffc148&#45;&gt;dir_80b24cd11685060440d77842b83d8f07</title>
<path fill="none" stroke="black" d="M150.57,-87.7C147.64,-79.81 144.11,-70.3 140.86,-61.55"/>
<polygon fill="black" stroke="black" points="144.12,-60.26 137.35,-52.1 137.55,-62.7 144.12,-60.26"/>
<g id="a_edge10&#45;headlabel"><a xlink:href="dir_000736_000714.html" target="_top" xlink:title="24">
<text text-anchor="middle" x="148.03" y="-60.14" font-family="Helvetica,sans-Serif" font-size="10.00">24</text>
</a>
</g>
</g>
<!-- dir_bd392a5b05f0091b7bab150669bd102e -->
<g id="node5" class="node">
<title>dir_bd392a5b05f0091b7bab150669bd102e</title>
<text text-anchor="middle" x="301" y="-463.5" font-family="Helvetica,sans-Serif" font-size="10.00">mpi</text>
</g>
<!-- dir_ad00d68e8a4851d16a9b37bf741e86a0 -->
<g id="node6" class="node">
<title>dir_ad00d68e8a4851d16a9b37bf741e86a0</title>
<g id="a_node6"><a xlink:href="dir_ad00d68e8a4851d16a9b37bf741e86a0.html" target="_top" xlink:title="includes">
<polygon fill="white" stroke="black" points="145.5,-340 88.5,-340 88.5,-304 145.5,-304 145.5,-340"/>
<text text-anchor="middle" x="117" y="-319.5" font-family="Helvetica,sans-Serif" font-size="10.00">includes</text>
</a>
</g>
</g>
<!-- dir_ad00d68e8a4851d16a9b37bf741e86a0&#45;&gt;dir_6da2b5da699b6e8099c18b866a052d71 -->
<g id="edge14" class="edge">
<title>dir_ad00d68e8a4851d16a9b37bf741e86a0&#45;&gt;dir_6da2b5da699b6e8099c18b866a052d71</title>
<path fill="none" stroke="black" d="M131.83,-303.7C139.02,-295.3 147.8,-285.07 155.69,-275.86"/>
<polygon fill="black" stroke="black" points="158.49,-277.97 162.34,-268.1 153.17,-273.42 158.49,-277.97"/>
<g id="a_edge14&#45;headlabel"><a xlink:href="dir_000730_000721.html" target="_top" xlink:title="7">
<text text-anchor="middle" x="158.31" y="-280.05" font-family="Helvetica,sans-Serif" font-size="10.00">7</text>
</a>
</g>
</g>
<!-- dir_ad00d68e8a4851d16a9b37bf741e86a0&#45;&gt;dir_70f98bb657cca0a872199855cac08757 -->
<g id="edge15" class="edge">
<title>dir_ad00d68e8a4851d16a9b37bf741e86a0&#45;&gt;dir_70f98bb657cca0a872199855cac08757</title>
<path fill="none" stroke="black" d="M118.69,-303.87C121.07,-279.67 125.46,-235.21 128.3,-206.39"/>
<polygon fill="black" stroke="black" points="131.81,-206.48 129.31,-196.19 124.84,-205.8 131.81,-206.48"/>
<g id="a_edge15&#45;headlabel"><a xlink:href="dir_000730_000722.html" target="_top" xlink:title="2">
<text text-anchor="middle" x="134.28" y="-207.84" font-family="Helvetica,sans-Serif" font-size="10.00">2</text>
</a>
</g>
</g>
<!-- dir_ad00d68e8a4851d16a9b37bf741e86a0&#45;&gt;dir_80b24cd11685060440d77842b83d8f07 -->
<g id="edge16" class="edge">
<title>dir_ad00d68e8a4851d16a9b37bf741e86a0&#45;&gt;dir_80b24cd11685060440d77842b83d8f07</title>
<path fill="none" stroke="black" d="M112.98,-303.74C107.61,-279.74 98.39,-234.85 95,-196 90.78,-147.72 96.08,-134.42 110,-88 112.62,-79.28 116.06,-69.98 119.41,-61.65"/>
<polygon fill="black" stroke="black" points="122.64,-62.98 123.23,-52.4 116.17,-60.3 122.64,-62.98"/>
<g id="a_edge16&#45;headlabel"><a xlink:href="dir_000730_000714.html" target="_top" xlink:title="2">
<text text-anchor="middle" x="123.9" y="-64.88" font-family="Helvetica,sans-Serif" font-size="10.00">2</text>
</a>
</g>
</g>
<!-- dir_81d6828ad0abd3f625a80ed751f23091 -->
<g id="node7" class="node">
<title>dir_81d6828ad0abd3f625a80ed751f23091</title>
<g id="a_node7"><a xlink:href="dir_81d6828ad0abd3f625a80ed751f23091.html" target="_top" xlink:title="python">
<polygon fill="white" stroke="black" points="256,-484 202,-484 202,-448 256,-448 256,-484"/>
<text text-anchor="middle" x="229" y="-463.5" font-family="Helvetica,sans-Serif" font-size="10.00">python</text>
</a>
</g>
</g>
<!-- dir_81d6828ad0abd3f625a80ed751f23091&#45;&gt;dir_6da2b5da699b6e8099c18b866a052d71 -->
<g id="edge22" class="edge">
<title>dir_81d6828ad0abd3f625a80ed751f23091&#45;&gt;dir_6da2b5da699b6e8099c18b866a052d71</title>
<path fill="none" stroke="black" d="M225.32,-447.65C218.74,-416.95 204.3,-351.08 190,-296 188.46,-290.05 186.69,-283.69 184.97,-277.68"/>
<polygon fill="black" stroke="black" points="188.31,-276.66 182.16,-268.03 181.59,-278.61 188.31,-276.66"/>
<g id="a_edge22&#45;headlabel"><a xlink:href="dir_000731_000721.html" target="_top" xlink:title="9">
<text text-anchor="middle" x="192.05" y="-276.81" font-family="Helvetica,sans-Serif" font-size="10.00">9</text>
</a>
</g>
</g>
<!-- dir_81d6828ad0abd3f625a80ed751f23091&#45;&gt;dir_80b24cd11685060440d77842b83d8f07 -->
<g id="edge23" class="edge">
<title>dir_81d6828ad0abd3f625a80ed751f23091&#45;&gt;dir_80b24cd11685060440d77842b83d8f07</title>
<path fill="none" stroke="black" d="M229,-447.95C229,-421.29 229,-368.11 229,-323 229,-323 229,-323 229,-177 229,-136.36 230.94,-121.55 208,-88 199.37,-75.37 186.65,-64.86 174.03,-56.62"/>
<polygon fill="black" stroke="black" points="175.71,-53.54 165.36,-51.27 172.04,-59.5 175.71,-53.54"/>
<g id="a_edge23&#45;headlabel"><a xlink:href="dir_000731_000714.html" target="_top" xlink:title="6">
<text text-anchor="middle" x="180.26" y="-50.51" font-family="Helvetica,sans-Serif" font-size="10.00">6</text>
</a>
</g>
</g>
<!-- dir_81d6828ad0abd3f625a80ed751f23091&#45;&gt;dir_ad00d68e8a4851d16a9b37bf741e86a0 -->
<g id="edge24" class="edge">
<title>dir_81d6828ad0abd3f625a80ed751f23091&#45;&gt;dir_ad00d68e8a4851d16a9b37bf741e86a0</title>
<path fill="none" stroke="black" d="M201.93,-450.21C186.82,-440.86 168.57,-427.61 156,-412 141.18,-393.6 130.9,-368.69 124.63,-349.9"/>
<polygon fill="black" stroke="black" points="127.91,-348.66 121.56,-340.18 121.24,-350.77 127.91,-348.66"/>
<g id="a_edge24&#45;headlabel"><a xlink:href="dir_000731_000730.html" target="_top" xlink:title="4">
<text text-anchor="middle" x="131.7" y="-348.73" font-family="Helvetica,sans-Serif" font-size="10.00">4</text>
</a>
</g>
</g>
<!-- dir_d0d64bac6ead8ce15755474805de133d -->
<g id="node10" class="node">
<title>dir_d0d64bac6ead8ce15755474805de133d</title>
<g id="a_node10"><a xlink:href="dir_d0d64bac6ead8ce15755474805de133d.html" target="_top" xlink:title="utilities">
<polygon fill="white" stroke="black" points="96,-412 42,-412 42,-376 96,-376 96,-412"/>
<text text-anchor="middle" x="69" y="-391.5" font-family="Helvetica,sans-Serif" font-size="10.00">utilities</text>
</a>
</g>
</g>
<!-- dir_81d6828ad0abd3f625a80ed751f23091&#45;&gt;dir_d0d64bac6ead8ce15755474805de133d -->
<g id="edge25" class="edge">
<title>dir_81d6828ad0abd3f625a80ed751f23091&#45;&gt;dir_d0d64bac6ead8ce15755474805de133d</title>
<path fill="none" stroke="black" d="M201.92,-452.08C198.92,-450.69 195.9,-449.3 193,-448 163.78,-434.86 130.37,-420.63 105.6,-410.22"/>
<polygon fill="black" stroke="black" points="106.79,-406.93 96.22,-406.29 104.09,-413.38 106.79,-406.93"/>
<g id="a_edge25&#45;headlabel"><a xlink:href="dir_000731_000734.html" target="_top" xlink:title="9">
<text text-anchor="middle" x="111.21" y="-403.2" font-family="Helvetica,sans-Serif" font-size="10.00">9</text>
</a>
</g>
</g>
<!-- dir_5f98b4defa182c35be0c0bf506b235db -->
<g id="node8" class="node">
<title>dir_5f98b4defa182c35be0c0bf506b235db</title>
<g id="a_node8"><a xlink:href="dir_5f98b4defa182c35be0c0bf506b235db.html" target="_top" xlink:title="python_scripts">
<polygon fill="white" stroke="black" points="184,-484 96,-484 96,-448 184,-448 184,-484"/>
<text text-anchor="middle" x="140" y="-463.5" font-family="Helvetica,sans-Serif" font-size="10.00">python_scripts</text>
</a>
</g>
</g>
<!-- dir_196ffdaa88866eb4d2088403d92abe5c -->
<g id="node9" class="node">
<title>dir_196ffdaa88866eb4d2088403d92abe5c</title>
<g id="a_node9"><a xlink:href="dir_196ffdaa88866eb4d2088403d92abe5c.html" target="_top" xlink:title="sources">
<polygon fill="white" stroke="black" points="78,-484 24,-484 24,-448 78,-448 78,-484"/>
<text text-anchor="middle" x="51" y="-463.5" font-family="Helvetica,sans-Serif" font-size="10.00">sources</text>
</a>
</g>
</g>
<!-- dir_196ffdaa88866eb4d2088403d92abe5c&#45;&gt;dir_6da2b5da699b6e8099c18b866a052d71 -->
<g id="edge11" class="edge">
<title>dir_196ffdaa88866eb4d2088403d92abe5c&#45;&gt;dir_6da2b5da699b6e8099c18b866a052d71</title>
<path fill="none" stroke="black" d="M75.92,-447.96C104.61,-426.63 150.1,-387.1 168,-340 175.48,-320.31 177.56,-296.51 177.86,-278.47"/>
<polygon fill="black" stroke="black" points="181.36,-278.33 177.86,-268.33 174.36,-278.34 181.36,-278.33"/>
<g id="a_edge11&#45;headlabel"><a xlink:href="dir_000733_000721.html" target="_top" xlink:title="1">
<text text-anchor="middle" x="184.21" y="-279.43" font-family="Helvetica,sans-Serif" font-size="10.00">1</text>
</a>
</g>
</g>
<!-- dir_196ffdaa88866eb4d2088403d92abe5c&#45;&gt;dir_ad00d68e8a4851d16a9b37bf741e86a0 -->
<g id="edge12" class="edge">
<title>dir_196ffdaa88866eb4d2088403d92abe5c&#45;&gt;dir_ad00d68e8a4851d16a9b37bf741e86a0</title>
<path fill="none" stroke="black" d="M74.55,-447.95C85.63,-438.62 97.94,-426.09 105,-412 114.63,-392.77 117.37,-368.43 117.84,-350.06"/>
<polygon fill="black" stroke="black" points="121.34,-350.04 117.9,-340.02 114.34,-350 121.34,-350.04"/>
<g id="a_edge12&#45;headlabel"><a xlink:href="dir_000733_000730.html" target="_top" xlink:title="4">
<text text-anchor="middle" x="124.16" y="-351.15" font-family="Helvetica,sans-Serif" font-size="10.00">4</text>
</a>
</g>
</g>
<!-- dir_196ffdaa88866eb4d2088403d92abe5c&#45;&gt;dir_d0d64bac6ead8ce15755474805de133d -->
<g id="edge13" class="edge">
<title>dir_196ffdaa88866eb4d2088403d92abe5c&#45;&gt;dir_d0d64bac6ead8ce15755474805de133d</title>
<path fill="none" stroke="black" d="M55.45,-447.7C57.45,-439.9 59.87,-430.51 62.1,-421.83"/>
<polygon fill="black" stroke="black" points="65.5,-422.66 64.6,-412.1 58.72,-420.92 65.5,-422.66"/>
<g id="a_edge13&#45;headlabel"><a xlink:href="dir_000733_000734.html" target="_top" xlink:title="1">
<text text-anchor="middle" x="67.36" y="-424.35" font-family="Helvetica,sans-Serif" font-size="10.00">1</text>
</a>
</g>
</g>
<!-- dir_d0d64bac6ead8ce15755474805de133d&#45;&gt;dir_6da2b5da699b6e8099c18b866a052d71 -->
<g id="edge3" class="edge">
<title>dir_d0d64bac6ead8ce15755474805de133d&#45;&gt;dir_6da2b5da699b6e8099c18b866a052d71</title>
<path fill="none" stroke="black" d="M96.39,-377.3C119.69,-363.72 150.01,-345.43 154,-340 167.24,-321.95 172.88,-296.97 175.27,-278.06"/>
<polygon fill="black" stroke="black" points="178.76,-278.31 176.31,-268 171.8,-277.59 178.76,-278.31"/>
<g id="a_edge3&#45;headlabel"><a xlink:href="dir_000734_000721.html" target="_top" xlink:title="17">
<text text-anchor="middle" x="181.21" y="-279.68" font-family="Helvetica,sans-Serif" font-size="10.00">17</text>
</a>
</g>
</g>
<!-- dir_d0d64bac6ead8ce15755474805de133d&#45;&gt;dir_70f98bb657cca0a872199855cac08757 -->
<g id="edge4" class="edge">
<title>dir_d0d64bac6ead8ce15755474805de133d&#45;&gt;dir_70f98bb657cca0a872199855cac08757</title>
<path fill="none" stroke="black" d="M69.15,-375.89C69.68,-356.27 71.72,-323.32 79,-296 87.7,-263.34 104.41,-228.2 116.55,-205.05"/>
<polygon fill="black" stroke="black" points="119.65,-206.67 121.27,-196.2 113.47,-203.38 119.65,-206.67"/>
<g id="a_edge4&#45;headlabel"><a xlink:href="dir_000734_000722.html" target="_top" xlink:title="7">
<text text-anchor="middle" x="120.46" y="-208.68" font-family="Helvetica,sans-Serif" font-size="10.00">7</text>
</a>
</g>
</g>
<!-- dir_d0d64bac6ead8ce15755474805de133d&#45;&gt;dir_80b24cd11685060440d77842b83d8f07 -->
<g id="edge5" class="edge">
<title>dir_d0d64bac6ead8ce15755474805de133d&#45;&gt;dir_80b24cd11685060440d77842b83d8f07</title>
<path fill="none" stroke="black" d="M60.91,-375.95C49.22,-349.72 29,-297.61 29,-251 29,-251 29,-251 29,-177 29,-127.82 69.86,-84.01 99.85,-58.48"/>
<polygon fill="black" stroke="black" points="102.12,-61.15 107.6,-52.08 97.66,-55.75 102.12,-61.15"/>
<g id="a_edge5&#45;headlabel"><a xlink:href="dir_000734_000714.html" target="_top" xlink:title="4">
<text text-anchor="middle" x="101.16" y="-63.12" font-family="Helvetica,sans-Serif" font-size="10.00">4</text>
</a>
</g>
</g>
<!-- dir_d0d64bac6ead8ce15755474805de133d&#45;&gt;dir_c7c5f3eb57bf72689def995461ffc148 -->
<g id="edge7" class="edge">
<title>dir_d0d64bac6ead8ce15755474805de133d&#45;&gt;dir_c7c5f3eb57bf72689def995461ffc148</title>
<path fill="none" stroke="black" d="M66.44,-375.74C61.28,-335 53.45,-230.95 95,-160 101.66,-148.62 111.68,-138.51 121.73,-130.25"/>
<polygon fill="black" stroke="black" points="123.99,-132.93 129.74,-124.03 119.69,-127.4 123.99,-132.93"/>
<g id="a_edge7&#45;headlabel"><a xlink:href="dir_000734_000736.html" target="_top" xlink:title="1">
<text text-anchor="middle" x="122.89" y="-134.88" font-family="Helvetica,sans-Serif" font-size="10.00">1</text>
</a>
</g>
</g>
<!-- dir_d0d64bac6ead8ce15755474805de133d&#45;&gt;dir_ad00d68e8a4851d16a9b37bf741e86a0 -->
<g id="edge6" class="edge">
<title>dir_d0d64bac6ead8ce15755474805de133d&#45;&gt;dir_ad00d68e8a4851d16a9b37bf741e86a0</title>
<path fill="none" stroke="black" d="M80.87,-375.7C86.5,-367.47 93.35,-357.48 99.57,-348.42"/>
<polygon fill="black" stroke="black" points="102.5,-350.33 105.27,-340.1 96.73,-346.37 102.5,-350.33"/>
<g id="a_edge6&#45;headlabel"><a xlink:href="dir_000734_000730.html" target="_top" xlink:title="5">
<text text-anchor="middle" x="102.81" y="-352.4" font-family="Helvetica,sans-Serif" font-size="10.00">5</text>
</a>
</g>
</g>
</g>
</svg>
        <g id="navigator" transform="translate(0 0)" fill="#404254">
                <rect fill="#f2f5e9" fill-opacity="0.5" stroke="#606060" stroke-width=".5" x="0" y="0" width="60" height="60"/>
                <use id="zoomplus" xlink:href="#zoomPlus" x="17" y="9" onmousedown="handleZoom(evt,'in')"/>
                <use id="zoomminus" xlink:href="#zoomMin" x="42" y="9" onmousedown="handleZoom(evt,'out')"/>
                <use id="reset" xlink:href="#resetDef" x="30" y="36" onmousedown="handleReset()"/>
                <g id="arrowUp" xlink:href="#dirArrow" transform="translate(30 24)" onmousedown="handlePan(0,-1)">
                  <use xlink:href="#rim" fill="#404040">
                        <set attributeName="fill" to="#808080" begin="arrowUp.mouseover" end="arrowUp.mouseout"/>
                  </use>
                  <path fill="none" stroke="white" stroke-width="1.5" d="M0,-3.0v7 M-2.5,-0.5L0,-3.0L2.5,-0.5"/>
                </g>
                <g id="arrowRight" xlink:href="#dirArrow" transform="rotate(90) translate(36 -43)" onmousedown="handlePan(1,0)">
                  <use xlink:href="#rim" fill="#404040">
                        <set attributeName="fill" to="#808080" begin="arrowRight.mouseover" end="arrowRight.mouseout"/>
                  </use>
                  <path fill="none" stroke="white" stroke-width="1.5" d="M0,-3.0v7 M-2.5,-0.5L0,-3.0L2.5,-0.5"/>
                </g>
                <g id="arrowDown" xlink:href="#dirArrow" transform="rotate(180) translate(-30 -48)" onmousedown="handlePan(0,1)">
                  <use xlink:href="#rim" fill="#404040">
                        <set attributeName="fill" to="#808080" begin="arrowDown.mouseover" end="arrowDown.mouseout"/>
                  </use>
                  <path fill="none" stroke="white" stroke-width="1.5" d="M0,-3.0v7 M-2.5,-0.5L0,-3.0L2.5,-0.5"/>
                </g>
                <g id="arrowLeft" xlink:href="#dirArrow" transform="rotate(270) translate(-36 17)" onmousedown="handlePan(-1,0)">
                  <use xlink:href="#rim" fill="#404040">
                        <set attributeName="fill" to="#808080" begin="arrowLeft.mouseover" end="arrowLeft.mouseout"/>
                  </use>
                  <path fill="none" stroke="white" stroke-width="1.5" d="M0,-3.0v7 M-2.5,-0.5L0,-3.0L2.5,-0.5"/>
                </g>
        </g>
        <svg viewBox="0 0 15 15" width="100%" height="30px" preserveAspectRatio="xMaxYMin meet">
         <g id="arrow_out" transform="scale(0.3 0.3)">
          <a xlink:href="dir_bd392a5b05f0091b7bab150669bd102e_dep_org.svg" target="_base">
           <rect id="button" ry="5" rx="5" y="6" x="6" height="38" width="38"
                fill="#f2f5e9" fill-opacity="0.5" stroke="#606060" stroke-width="1.0"/>
           <path id="arrow"
             d="M 11.500037,31.436501 C 11.940474,20.09759 22.043105,11.32322 32.158766,21.979434 L 37.068811,17.246167 C 37.068811,17.246167 37.088388,32 37.088388,32 L 22.160133,31.978069 C 22.160133,31.978069 26.997745,27.140456 26.997745,27.140456 C 18.528582,18.264221 13.291696,25.230495 11.500037,31.436501 z"
             style="fill:#404040;"/>
          </a>
         </g>
        </svg>
</svg>
