<?xml version="1.0" encoding="UTF-8" standalone="no"?>
<!DOCTYPE svg PUBLIC "-//W3C//DTD SVG 1.1//EN"
 "http://www.w3.org/Graphics/SVG/1.1/DTD/svg11.dtd">
<!-- Generated by graphviz version 2.43.0 (0)
 -->
<!-- Title: /home/runner/work/Documentation/Documentation/master/applications/PfemFluidDynamicsApplication Pages: 1 -->
<svg width="658pt" height="303pt"
 viewBox="0.00 0.00 657.88 303.00" xmlns="http://www.w3.org/2000/svg" xmlns:xlink="http://www.w3.org/1999/xlink">
<g id="graph0" class="graph" transform="scale(1 1) rotate(0) translate(4 299)">
<title>/home/runner/work/Documentation/Documentation/master/applications/PfemFluidDynamicsApplication</title>
<g id="clust1" class="cluster">
<title>clusterdir_a6e4fee11f07c3b70486e88fe92cbbdc</title>
<g id="a_clust1"><a xlink:href="dir_a6e4fee11f07c3b70486e88fe92cbbdc.html" target="_top" xlink:title="applications">
<polygon fill="#ddddee" stroke="black" points="8,-64 8,-287 641,-287 641,-64 8,-64"/>
<text text-anchor="middle" x="324.5" y="-275" font-family="Helvetica,sans-Serif" font-size="10.00">applications</text>
</a>
</g>
</g>
<g id="clust2" class="cluster">
<title>clusterdir_77f11c234ba493b7b4b1588a3dc15f04</title>
<g id="a_clust2"><a xlink:href="dir_77f11c234ba493b7b4b1588a3dc15f04.html" target="_top">
<polygon fill="#eeeeff" stroke="black" points="16,-136 16,-260 633,-260 633,-136 16,-136"/>
</a>
</g>
</g>
<!-- dir_5380690f8fe4a5308725276daeb74309 -->
<g id="node1" class="node">
<title>dir_5380690f8fe4a5308725276daeb74309</title>
<g id="a_node1"><a xlink:href="dir_5380690f8fe4a5308725276daeb74309.html" target="_top" xlink:title="DelaunayMeshingApplication">
<polygon fill="none" stroke="red" points="237.5,-108 78.5,-108 78.5,-72 237.5,-72 237.5,-108"/>
<text text-anchor="middle" x="158" y="-87.5" font-family="Helvetica,sans-Serif" font-size="10.00">DelaunayMeshingApplication</text>
</a>
</g>
</g>
<!-- dir_8fc3e8efef0bfca4a113d719cbd52afb -->
<g id="node10" class="node">
<title>dir_8fc3e8efef0bfca4a113d719cbd52afb</title>
<g id="a_node10"><a xlink:href="dir_8fc3e8efef0bfca4a113d719cbd52afb.html" target="_top" xlink:title="kratos">
<polygon fill="none" stroke="red" points="368,-36 314,-36 314,0 368,0 368,-36"/>
<text text-anchor="middle" x="341" y="-15.5" font-family="Helvetica,sans-Serif" font-size="10.00">kratos</text>
</a>
</g>
</g>
<!-- dir_5380690f8fe4a5308725276daeb74309&#45;&gt;dir_8fc3e8efef0bfca4a113d719cbd52afb -->
<g id="edge5" class="edge">
<title>dir_5380690f8fe4a5308725276daeb74309&#45;&gt;dir_8fc3e8efef0bfca4a113d719cbd52afb</title>
<path fill="none" stroke="black" d="M202.77,-71.88C234.04,-59.91 275.28,-44.14 304.55,-32.94"/>
<polygon fill="black" stroke="black" points="305.9,-36.17 313.99,-29.33 303.4,-29.64 305.9,-36.17"/>
<g id="a_edge5&#45;headlabel"><a xlink:href="dir_000020_000710.html" target="_top" xlink:title="101">
<text text-anchor="middle" x="303.56" y="-37.61" font-family="Helvetica,sans-Serif" font-size="10.00">101</text>
</a>
</g>
</g>
<!-- dir_77f11c234ba493b7b4b1588a3dc15f04 -->
<g id="node2" class="node">
<title>dir_77f11c234ba493b7b4b1588a3dc15f04</title>
<text text-anchor="middle" x="489" y="-231.5" font-family="Helvetica,sans-Serif" font-size="10.00">PfemFluidDynamicsApplication</text>
</g>
<!-- dir_2abacd524efd9a474253400a31b1f87c -->
<g id="node3" class="node">
<title>dir_2abacd524efd9a474253400a31b1f87c</title>
<g id="a_node3"><a xlink:href="dir_2abacd524efd9a474253400a31b1f87c.html" target="_top" xlink:title="custom_constitutive">
<polygon fill="white" stroke="red" points="625,-180 509,-180 509,-144 625,-144 625,-180"/>
<text text-anchor="middle" x="567" y="-159.5" font-family="Helvetica,sans-Serif" font-size="10.00">custom_constitutive</text>
</a>
</g>
</g>
<!-- dir_77f11c234ba493b7b4b1588a3dc15f04&#45;&gt;dir_2abacd524efd9a474253400a31b1f87c -->
<g id="edge2" class="edge">
<title>dir_77f11c234ba493b7b4b1588a3dc15f04&#45;&gt;dir_2abacd524efd9a474253400a31b1f87c</title>
<path fill="none" stroke="black" d="M508.28,-215.7C517.92,-207.05 529.73,-196.45 540.23,-187.03"/>
<polygon fill="black" stroke="black" points="542.84,-189.39 547.94,-180.1 538.16,-184.18 542.84,-189.39"/>
<g id="a_edge2&#45;headlabel"><a xlink:href="dir_000042_000195.html" target="_top" xlink:title="22">
<text text-anchor="middle" x="542.06" y="-191.4" font-family="Helvetica,sans-Serif" font-size="10.00">22</text>
</a>
</g>
</g>
<!-- dir_7331a2f29e865df213d46695f2abf2e0 -->
<g id="node4" class="node">
<title>dir_7331a2f29e865df213d46695f2abf2e0</title>
<g id="a_node4"><a xlink:href="dir_7331a2f29e865df213d46695f2abf2e0.html" target="_top" xlink:title="custom_elements">
<polygon fill="white" stroke="black" points="491,-180 387,-180 387,-144 491,-144 491,-180"/>
<text text-anchor="middle" x="439" y="-159.5" font-family="Helvetica,sans-Serif" font-size="10.00">custom_elements</text>
</a>
</g>
</g>
<!-- dir_77f11c234ba493b7b4b1588a3dc15f04&#45;&gt;dir_7331a2f29e865df213d46695f2abf2e0 -->
<g id="edge3" class="edge">
<title>dir_77f11c234ba493b7b4b1588a3dc15f04&#45;&gt;dir_7331a2f29e865df213d46695f2abf2e0</title>
<path fill="none" stroke="black" d="M476.64,-215.7C470.77,-207.47 463.63,-197.48 457.16,-188.42"/>
<polygon fill="black" stroke="black" points="459.88,-186.21 451.22,-180.1 454.18,-190.28 459.88,-186.21"/>
<g id="a_edge3&#45;headlabel"><a xlink:href="dir_000042_000531.html" target="_top" xlink:title="17">
<text text-anchor="middle" x="464.28" y="-184.98" font-family="Helvetica,sans-Serif" font-size="10.00">17</text>
</a>
</g>
</g>
<!-- dir_2abacd524efd9a474253400a31b1f87c&#45;&gt;dir_8fc3e8efef0bfca4a113d719cbd52afb -->
<g id="edge1" class="edge">
<title>dir_2abacd524efd9a474253400a31b1f87c&#45;&gt;dir_8fc3e8efef0bfca4a113d719cbd52afb</title>
<path fill="none" stroke="black" d="M539.74,-143.87C498.91,-118.22 421.84,-69.79 376.61,-41.37"/>
<polygon fill="black" stroke="black" points="378.34,-38.32 368.01,-35.97 374.61,-44.25 378.34,-38.32"/>
<g id="a_edge1&#45;headlabel"><a xlink:href="dir_000195_000710.html" target="_top" xlink:title="38">
<text text-anchor="middle" x="382.89" y="-35.33" font-family="Helvetica,sans-Serif" font-size="10.00">38</text>
</a>
</g>
</g>
<!-- dir_7331a2f29e865df213d46695f2abf2e0&#45;&gt;dir_8fc3e8efef0bfca4a113d719cbd52afb -->
<g id="edge8" class="edge">
<title>dir_7331a2f29e865df213d46695f2abf2e0&#45;&gt;dir_8fc3e8efef0bfca4a113d719cbd52afb</title>
<path fill="none" stroke="black" d="M427.18,-143.87C410.11,-119.14 378.43,-73.24 358.61,-44.51"/>
<polygon fill="black" stroke="black" points="361.42,-42.43 352.86,-36.19 355.66,-46.41 361.42,-42.43"/>
<g id="a_edge8&#45;headlabel"><a xlink:href="dir_000531_000710.html" target="_top" xlink:title="104">
<text text-anchor="middle" x="365.8" y="-41.28" font-family="Helvetica,sans-Serif" font-size="10.00">104</text>
</a>
</g>
</g>
<!-- dir_0140685fb5315946d548c2b9d9b7526e -->
<g id="node5" class="node">
<title>dir_0140685fb5315946d548c2b9d9b7526e</title>
<g id="a_node5"><a xlink:href="dir_0140685fb5315946d548c2b9d9b7526e.html" target="_top" xlink:title="custom_processes">
<polygon fill="white" stroke="black" points="130.5,-180 23.5,-180 23.5,-144 130.5,-144 130.5,-180"/>
<text text-anchor="middle" x="77" y="-159.5" font-family="Helvetica,sans-Serif" font-size="10.00">custom_processes</text>
</a>
</g>
</g>
<!-- dir_0140685fb5315946d548c2b9d9b7526e&#45;&gt;dir_5380690f8fe4a5308725276daeb74309 -->
<g id="edge6" class="edge">
<title>dir_0140685fb5315946d548c2b9d9b7526e&#45;&gt;dir_5380690f8fe4a5308725276daeb74309</title>
<path fill="none" stroke="black" d="M97.02,-143.7C107.13,-134.97 119.54,-124.24 130.52,-114.75"/>
<polygon fill="black" stroke="black" points="132.93,-117.29 138.21,-108.1 128.35,-111.99 132.93,-117.29"/>
<g id="a_edge6&#45;headlabel"><a xlink:href="dir_000341_000020.html" target="_top" xlink:title="44">
<text text-anchor="middle" x="132.07" y="-119.29" font-family="Helvetica,sans-Serif" font-size="10.00">44</text>
</a>
</g>
</g>
<!-- dir_0140685fb5315946d548c2b9d9b7526e&#45;&gt;dir_8fc3e8efef0bfca4a113d719cbd52afb -->
<g id="edge7" class="edge">
<title>dir_0140685fb5315946d548c2b9d9b7526e&#45;&gt;dir_8fc3e8efef0bfca4a113d719cbd52afb</title>
<path fill="none" stroke="black" d="M117.72,-143.94C125.08,-141.12 132.72,-138.35 140,-136 188.42,-120.36 209.76,-137.79 251,-108 269.79,-94.43 263.12,-80.88 279,-64 286.81,-55.69 296.35,-47.9 305.58,-41.21"/>
<polygon fill="black" stroke="black" points="307.71,-43.99 313.91,-35.4 303.7,-38.25 307.71,-43.99"/>
<g id="a_edge7&#45;headlabel"><a xlink:href="dir_000341_000710.html" target="_top" xlink:title="115">
<text text-anchor="middle" x="306.39" y="-45.88" font-family="Helvetica,sans-Serif" font-size="10.00">115</text>
</a>
</g>
</g>
<!-- dir_933b914ed9157f51f335ef9b408b962f -->
<g id="node6" class="node">
<title>dir_933b914ed9157f51f335ef9b408b962f</title>
<g id="a_node6"><a xlink:href="dir_933b914ed9157f51f335ef9b408b962f.html" target="_top" xlink:title="custom_python">
<polygon fill="white" stroke="black" points="307,-252 215,-252 215,-216 307,-216 307,-252"/>
<text text-anchor="middle" x="261" y="-231.5" font-family="Helvetica,sans-Serif" font-size="10.00">custom_python</text>
</a>
</g>
</g>
<!-- dir_933b914ed9157f51f335ef9b408b962f&#45;&gt;dir_0140685fb5315946d548c2b9d9b7526e -->
<g id="edge11" class="edge">
<title>dir_933b914ed9157f51f335ef9b408b962f&#45;&gt;dir_0140685fb5315946d548c2b9d9b7526e</title>
<path fill="none" stroke="black" d="M215.99,-215.88C190.5,-206.18 158.43,-193.98 131.52,-183.74"/>
<polygon fill="black" stroke="black" points="132.46,-180.35 121.87,-180.07 129.97,-186.9 132.46,-180.35"/>
<g id="a_edge11&#45;headlabel"><a xlink:href="dir_000043_000341.html" target="_top" xlink:title="36">
<text text-anchor="middle" x="136.83" y="-176.48" font-family="Helvetica,sans-Serif" font-size="10.00">36</text>
</a>
</g>
</g>
<!-- dir_c3e133ab6d88e8e18053390906efbe84 -->
<g id="node7" class="node">
<title>dir_c3e133ab6d88e8e18053390906efbe84</title>
<g id="a_node7"><a xlink:href="dir_c3e133ab6d88e8e18053390906efbe84.html" target="_top" xlink:title="custom_strategies">
<polygon fill="white" stroke="red" points="255.5,-180 148.5,-180 148.5,-144 255.5,-144 255.5,-180"/>
<text text-anchor="middle" x="202" y="-159.5" font-family="Helvetica,sans-Serif" font-size="10.00">custom_strategies</text>
</a>
</g>
</g>
<!-- dir_933b914ed9157f51f335ef9b408b962f&#45;&gt;dir_c3e133ab6d88e8e18053390906efbe84 -->
<g id="edge13" class="edge">
<title>dir_933b914ed9157f51f335ef9b408b962f&#45;&gt;dir_c3e133ab6d88e8e18053390906efbe84</title>
<path fill="none" stroke="black" d="M246.42,-215.7C239.34,-207.3 230.72,-197.07 222.95,-187.86"/>
<polygon fill="black" stroke="black" points="225.54,-185.49 216.42,-180.1 220.19,-190.01 225.54,-185.49"/>
<g id="a_edge13&#45;headlabel"><a xlink:href="dir_000043_000532.html" target="_top" xlink:title="8">
<text text-anchor="middle" x="230.03" y="-183.91" font-family="Helvetica,sans-Serif" font-size="10.00">8</text>
</a>
</g>
</g>
<!-- dir_f660763c1530cc6766092b51f6ec50e0 -->
<g id="node8" class="node">
<title>dir_f660763c1530cc6766092b51f6ec50e0</title>
<g id="a_node8"><a xlink:href="dir_f660763c1530cc6766092b51f6ec50e0.html" target="_top" xlink:title="custom_utilities">
<polygon fill="white" stroke="black" points="368.5,-180 273.5,-180 273.5,-144 368.5,-144 368.5,-180"/>
<text text-anchor="middle" x="321" y="-159.5" font-family="Helvetica,sans-Serif" font-size="10.00">custom_utilities</text>
</a>
</g>
</g>
<!-- dir_933b914ed9157f51f335ef9b408b962f&#45;&gt;dir_f660763c1530cc6766092b51f6ec50e0 -->
<g id="edge14" class="edge">
<title>dir_933b914ed9157f51f335ef9b408b962f&#45;&gt;dir_f660763c1530cc6766092b51f6ec50e0</title>
<path fill="none" stroke="black" d="M275.83,-215.7C283.02,-207.3 291.8,-197.07 299.69,-187.86"/>
<polygon fill="black" stroke="black" points="302.49,-189.97 306.34,-180.1 297.17,-185.42 302.49,-189.97"/>
<g id="a_edge14&#45;headlabel"><a xlink:href="dir_000043_000318.html" target="_top" xlink:title="5">
<text text-anchor="middle" x="302.31" y="-192.05" font-family="Helvetica,sans-Serif" font-size="10.00">5</text>
</a>
</g>
</g>
<!-- dir_933b914ed9157f51f335ef9b408b962f&#45;&gt;dir_8fc3e8efef0bfca4a113d719cbd52afb -->
<g id="edge12" class="edge">
<title>dir_933b914ed9157f51f335ef9b408b962f&#45;&gt;dir_8fc3e8efef0bfca4a113d719cbd52afb</title>
<path fill="none" stroke="black" d="M307.1,-226.84C406.3,-213.55 631.33,-183.08 634,-180 712.66,-89.37 473.16,-40.12 378.09,-24.52"/>
<polygon fill="black" stroke="black" points="378.47,-21.04 368.04,-22.91 377.36,-27.95 378.47,-21.04"/>
<g id="a_edge12&#45;headlabel"><a xlink:href="dir_000043_000710.html" target="_top" xlink:title="38">
<text text-anchor="middle" x="382.46" y="-16.3" font-family="Helvetica,sans-Serif" font-size="10.00">38</text>
</a>
</g>
</g>
<!-- dir_c3e133ab6d88e8e18053390906efbe84&#45;&gt;dir_5380690f8fe4a5308725276daeb74309 -->
<g id="edge10" class="edge">
<title>dir_c3e133ab6d88e8e18053390906efbe84&#45;&gt;dir_5380690f8fe4a5308725276daeb74309</title>
<path fill="none" stroke="black" d="M191.12,-143.7C186.01,-135.56 179.8,-125.69 174.16,-116.7"/>
<polygon fill="black" stroke="black" points="177.04,-114.71 168.75,-108.1 171.11,-118.43 177.04,-114.71"/>
<g id="a_edge10&#45;headlabel"><a xlink:href="dir_000532_000020.html" target="_top" xlink:title="14">
<text text-anchor="middle" x="181.35" y="-113.74" font-family="Helvetica,sans-Serif" font-size="10.00">14</text>
</a>
</g>
</g>
<!-- dir_c3e133ab6d88e8e18053390906efbe84&#45;&gt;dir_8fc3e8efef0bfca4a113d719cbd52afb -->
<g id="edge9" class="edge">
<title>dir_c3e133ab6d88e8e18053390906efbe84&#45;&gt;dir_8fc3e8efef0bfca4a113d719cbd52afb</title>
<path fill="none" stroke="black" d="M232.04,-143.88C247.11,-134.44 265.08,-121.85 279,-108 298.05,-89.06 315.12,-63.59 326.5,-44.75"/>
<polygon fill="black" stroke="black" points="329.55,-46.48 331.62,-36.09 323.52,-42.92 329.55,-46.48"/>
<g id="a_edge9&#45;headlabel"><a xlink:href="dir_000532_000710.html" target="_top" xlink:title="101">
<text text-anchor="middle" x="330.16" y="-48.52" font-family="Helvetica,sans-Serif" font-size="10.00">101</text>
</a>
</g>
</g>
<!-- dir_f660763c1530cc6766092b51f6ec50e0&#45;&gt;dir_8fc3e8efef0bfca4a113d719cbd52afb -->
<g id="edge4" class="edge">
<title>dir_f660763c1530cc6766092b51f6ec50e0&#45;&gt;dir_8fc3e8efef0bfca4a113d719cbd52afb</title>
<path fill="none" stroke="black" d="M323.41,-143.87C326.82,-119.67 333.08,-75.21 337.14,-46.39"/>
<polygon fill="black" stroke="black" points="340.65,-46.58 338.58,-36.19 333.72,-45.6 340.65,-46.58"/>
<g id="a_edge4&#45;headlabel"><a xlink:href="dir_000318_000710.html" target="_top" xlink:title="29">
<text text-anchor="middle" x="342.96" y="-48.04" font-family="Helvetica,sans-Serif" font-size="10.00">29</text>
</a>
</g>
</g>
<!-- dir_648d2222172d6ae771db7dfab28039bd -->
<g id="node9" class="node">
<title>dir_648d2222172d6ae771db7dfab28039bd</title>
<g id="a_node9"><a xlink:href="dir_648d2222172d6ae771db7dfab28039bd.html" target="_top" xlink:title="python_scripts">
<polygon fill="white" stroke="black" points="184,-252 96,-252 96,-216 184,-216 184,-252"/>
<text text-anchor="middle" x="140" y="-231.5" font-family="Helvetica,sans-Serif" font-size="10.00">python_scripts</text>
</a>
</g>
</g>
</g>
</svg>
