<?xml version="1.0" encoding="UTF-8" standalone="no"?>
<!DOCTYPE svg PUBLIC "-//W3C//DTD SVG 1.1//EN"
 "http://www.w3.org/Graphics/SVG/1.1/DTD/svg11.dtd">
<!-- Generated by graphviz version 2.43.0 (0)
 -->
<!-- Title: /home/runner/work/Documentation/Documentation/master/applications/StructuralMechanicsApplication/custom_strategies/custom_convergencecriterias Pages: 1 -->
<svg width="200pt" height="223pt"
 viewBox="0.00 0.00 200.00 223.00" xmlns="http://www.w3.org/2000/svg" xmlns:xlink="http://www.w3.org/1999/xlink">
<g id="graph0" class="graph" transform="scale(1 1) rotate(0) translate(4 219)">
<title>/home/runner/work/Documentation/Documentation/master/applications/StructuralMechanicsApplication/custom_strategies/custom_convergencecriterias</title>
<g id="clust1" class="cluster">
<title>clusterdir_88fb93bf092210c788cffb66d532d92a</title>
<g id="a_clust1"><a xlink:href="dir_88fb93bf092210c788cffb66d532d92a.html" target="_top" xlink:title="custom_strategies">
<polygon fill="#ddddee" stroke="black" points="8,-136 8,-207 184,-207 184,-136 8,-136"/>
<text text-anchor="middle" x="96" y="-195" font-family="Helvetica,sans-Serif" font-size="10.00">custom_strategies</text>
</a>
</g>
</g>
<!-- dir_0d058eca46d33935be599de9c0e0bb5d -->
<g id="node1" class="node">
<title>dir_0d058eca46d33935be599de9c0e0bb5d</title>
<g id="a_node1"><a xlink:href="dir_0d058eca46d33935be599de9c0e0bb5d.html" target="_top" xlink:title="custom_convergencecriterias">
<polygon fill="#eeeeff" stroke="black" points="176,-180 16,-180 16,-144 176,-144 176,-180"/>
<text text-anchor="middle" x="96" y="-159.5" font-family="Helvetica,sans-Serif" font-size="10.00">custom_convergencecriterias</text>
</a>
</g>
</g>
<!-- dir_2f9ef5081e10999ddaf37a05ebf778bb -->
<g id="node2" class="node">
<title>dir_2f9ef5081e10999ddaf37a05ebf778bb</title>
<g id="a_node2"><a xlink:href="dir_2f9ef5081e10999ddaf37a05ebf778bb.html" target="_top" xlink:title="custom_processes">
<polygon fill="none" stroke="black" points="108.5,-108 1.5,-108 1.5,-72 108.5,-72 108.5,-108"/>
<text text-anchor="middle" x="55" y="-87.5" font-family="Helvetica,sans-Serif" font-size="10.00">custom_processes</text>
</a>
</g>
</g>
<!-- dir_0d058eca46d33935be599de9c0e0bb5d&#45;&gt;dir_2f9ef5081e10999ddaf37a05ebf778bb -->
<g id="edge1" class="edge">
<title>dir_0d058eca46d33935be599de9c0e0bb5d&#45;&gt;dir_2f9ef5081e10999ddaf37a05ebf778bb</title>
<path fill="none" stroke="black" d="M85.87,-143.7C81.15,-135.64 75.44,-125.89 70.22,-116.98"/>
<polygon fill="black" stroke="black" points="73.09,-114.96 65.02,-108.1 67.05,-118.5 73.09,-114.96"/>
<g id="a_edge1&#45;headlabel"><a xlink:href="dir_000626_000621.html" target="_top" xlink:title="1">
<text text-anchor="middle" x="77.36" y="-114.13" font-family="Helvetica,sans-Serif" font-size="10.00">1</text>
</a>
</g>
</g>
<!-- dir_8fc3e8efef0bfca4a113d719cbd52afb -->
<g id="node3" class="node">
<title>dir_8fc3e8efef0bfca4a113d719cbd52afb</title>
<g id="a_node3"><a xlink:href="dir_8fc3e8efef0bfca4a113d719cbd52afb.html" target="_top" xlink:title="kratos">
<polygon fill="none" stroke="red" points="123,-36 69,-36 69,0 123,0 123,-36"/>
<text text-anchor="middle" x="96" y="-15.5" font-family="Helvetica,sans-Serif" font-size="10.00">kratos</text>
</a>
</g>
</g>
<!-- dir_0d058eca46d33935be599de9c0e0bb5d&#45;&gt;dir_8fc3e8efef0bfca4a113d719cbd52afb -->
<g id="edge2" class="edge">
<title>dir_0d058eca46d33935be599de9c0e0bb5d&#45;&gt;dir_8fc3e8efef0bfca4a113d719cbd52afb</title>
<path fill="none" stroke="black" d="M105.13,-143.88C110.01,-133.76 115.51,-120.51 118,-108 121.13,-92.31 121.13,-87.69 118,-72 116.21,-63.01 112.86,-53.64 109.31,-45.32"/>
<polygon fill="black" stroke="black" points="112.46,-43.77 105.13,-36.12 106.08,-46.67 112.46,-43.77"/>
<g id="a_edge2&#45;headlabel"><a xlink:href="dir_000626_000700.html" target="_top" xlink:title="7">
<text text-anchor="middle" x="116.53" y="-43.37" font-family="Helvetica,sans-Serif" font-size="10.00">7</text>
</a>
</g>
</g>
<!-- dir_2f9ef5081e10999ddaf37a05ebf778bb&#45;&gt;dir_8fc3e8efef0bfca4a113d719cbd52afb -->
<g id="edge3" class="edge">
<title>dir_2f9ef5081e10999ddaf37a05ebf778bb&#45;&gt;dir_8fc3e8efef0bfca4a113d719cbd52afb</title>
<path fill="none" stroke="black" d="M65.13,-71.7C69.85,-63.64 75.56,-53.89 80.78,-44.98"/>
<polygon fill="black" stroke="black" points="83.95,-46.5 85.98,-36.1 77.91,-42.96 83.95,-46.5"/>
<g id="a_edge3&#45;headlabel"><a xlink:href="dir_000621_000700.html" target="_top" xlink:title="71">
<text text-anchor="middle" x="84.58" y="-48.54" font-family="Helvetica,sans-Serif" font-size="10.00">71</text>
</a>
</g>
</g>
</g>
</svg>
