<?xml version="1.0" encoding="UTF-8" standalone="no"?>
<!DOCTYPE svg PUBLIC "-//W3C//DTD SVG 1.1//EN"
 "http://www.w3.org/Graphics/SVG/1.1/DTD/svg11.dtd">
<!-- Generated by graphviz version 2.43.0 (0)
 -->
<!-- Title: /home/runner/work/Documentation/Documentation/master/applications/OptimizationApplication/custom_python Pages: 1 -->
<svg width="420pt" height="295pt"
 viewBox="0.00 0.00 419.97 295.00" xmlns="http://www.w3.org/2000/svg" xmlns:xlink="http://www.w3.org/1999/xlink">
<g id="graph0" class="graph" transform="scale(1 1) rotate(0) translate(4 291)">
<title>/home/runner/work/Documentation/Documentation/master/applications/OptimizationApplication/custom_python</title>
<g id="clust1" class="cluster">
<title>clusterdir_6713ffb34e97d7a4d87587761f02609e</title>
<g id="a_clust1"><a xlink:href="dir_6713ffb34e97d7a4d87587761f02609e.html" target="_top" xlink:title="OptimizationApplication">
<polygon fill="#ddddee" stroke="black" points="8,-64 8,-279 400,-279 400,-64 8,-64"/>
<text text-anchor="middle" x="204" y="-267" font-family="Helvetica,sans-Serif" font-size="10.00">OptimizationApplication</text>
</a>
</g>
</g>
<!-- dir_1404077f3c979131d0a274a9a96dee00 -->
<g id="node1" class="node">
<title>dir_1404077f3c979131d0a274a9a96dee00</title>
<g id="a_node1"><a xlink:href="dir_1404077f3c979131d0a274a9a96dee00.html" target="_top" xlink:title="custom_responses">
<polygon fill="none" stroke="red" points="143.5,-180 36.5,-180 36.5,-144 143.5,-144 143.5,-180"/>
<text text-anchor="middle" x="90" y="-159.5" font-family="Helvetica,sans-Serif" font-size="10.00">custom_responses</text>
</a>
</g>
</g>
<!-- dir_62170c9a8f5b54c628d9bd583c5e506c -->
<g id="node4" class="node">
<title>dir_62170c9a8f5b54c628d9bd583c5e506c</title>
<g id="a_node4"><a xlink:href="dir_62170c9a8f5b54c628d9bd583c5e506c.html" target="_top" xlink:title="custom_strategies">
<polygon fill="none" stroke="red" points="143.5,-108 36.5,-108 36.5,-72 143.5,-72 143.5,-108"/>
<text text-anchor="middle" x="90" y="-87.5" font-family="Helvetica,sans-Serif" font-size="10.00">custom_strategies</text>
</a>
</g>
</g>
<!-- dir_1404077f3c979131d0a274a9a96dee00&#45;&gt;dir_62170c9a8f5b54c628d9bd583c5e506c -->
<g id="edge2" class="edge">
<title>dir_1404077f3c979131d0a274a9a96dee00&#45;&gt;dir_62170c9a8f5b54c628d9bd583c5e506c</title>
<path fill="none" stroke="black" d="M90,-143.7C90,-135.98 90,-126.71 90,-118.11"/>
<polygon fill="black" stroke="black" points="93.5,-118.1 90,-108.1 86.5,-118.1 93.5,-118.1"/>
<g id="a_edge2&#45;headlabel"><a xlink:href="dir_000493_000497.html" target="_top" xlink:title="1">
<text text-anchor="middle" x="96.34" y="-119.2" font-family="Helvetica,sans-Serif" font-size="10.00">1</text>
</a>
</g>
</g>
<!-- dir_8fc3e8efef0bfca4a113d719cbd52afb -->
<g id="node6" class="node">
<title>dir_8fc3e8efef0bfca4a113d719cbd52afb</title>
<g id="a_node6"><a xlink:href="dir_8fc3e8efef0bfca4a113d719cbd52afb.html" target="_top" xlink:title="kratos">
<polygon fill="none" stroke="red" points="247,-36 193,-36 193,0 247,0 247,-36"/>
<text text-anchor="middle" x="220" y="-15.5" font-family="Helvetica,sans-Serif" font-size="10.00">kratos</text>
</a>
</g>
</g>
<!-- dir_1404077f3c979131d0a274a9a96dee00&#45;&gt;dir_8fc3e8efef0bfca4a113d719cbd52afb -->
<g id="edge3" class="edge">
<title>dir_1404077f3c979131d0a274a9a96dee00&#45;&gt;dir_8fc3e8efef0bfca4a113d719cbd52afb</title>
<path fill="none" stroke="black" d="M112.24,-143.9C124.52,-134 139.73,-120.96 152,-108 170.93,-88.01 189.72,-62.91 202.73,-44.46"/>
<polygon fill="black" stroke="black" points="205.61,-46.45 208.46,-36.25 199.87,-42.45 205.61,-46.45"/>
<g id="a_edge3&#45;headlabel"><a xlink:href="dir_000493_000709.html" target="_top" xlink:title="20">
<text text-anchor="middle" x="205.88" y="-48.53" font-family="Helvetica,sans-Serif" font-size="10.00">20</text>
</a>
</g>
</g>
<!-- dir_2a517cf58a6bfcc2b024206438eb0938 -->
<g id="node2" class="node">
<title>dir_2a517cf58a6bfcc2b024206438eb0938</title>
<g id="a_node2"><a xlink:href="dir_2a517cf58a6bfcc2b024206438eb0938.html" target="_top" xlink:title="custom_constitutive">
<polygon fill="none" stroke="black" points="278,-180 162,-180 162,-144 278,-144 278,-180"/>
<text text-anchor="middle" x="220" y="-159.5" font-family="Helvetica,sans-Serif" font-size="10.00">custom_constitutive</text>
</a>
</g>
</g>
<!-- dir_2a517cf58a6bfcc2b024206438eb0938&#45;&gt;dir_8fc3e8efef0bfca4a113d719cbd52afb -->
<g id="edge1" class="edge">
<title>dir_2a517cf58a6bfcc2b024206438eb0938&#45;&gt;dir_8fc3e8efef0bfca4a113d719cbd52afb</title>
<path fill="none" stroke="black" d="M220,-143.87C220,-119.67 220,-75.21 220,-46.39"/>
<polygon fill="black" stroke="black" points="223.5,-46.19 220,-36.19 216.5,-46.19 223.5,-46.19"/>
<g id="a_edge1&#45;headlabel"><a xlink:href="dir_000490_000709.html" target="_top" xlink:title="2">
<text text-anchor="middle" x="226.34" y="-47.28" font-family="Helvetica,sans-Serif" font-size="10.00">2</text>
</a>
</g>
</g>
<!-- dir_379a8a064764fd379d3b1794ef38b21e -->
<g id="node3" class="node">
<title>dir_379a8a064764fd379d3b1794ef38b21e</title>
<g id="a_node3"><a xlink:href="dir_379a8a064764fd379d3b1794ef38b21e.html" target="_top" xlink:title="custom_utilities">
<polygon fill="none" stroke="red" points="391.5,-180 296.5,-180 296.5,-144 391.5,-144 391.5,-180"/>
<text text-anchor="middle" x="344" y="-159.5" font-family="Helvetica,sans-Serif" font-size="10.00">custom_utilities</text>
</a>
</g>
</g>
<!-- dir_379a8a064764fd379d3b1794ef38b21e&#45;&gt;dir_8fc3e8efef0bfca4a113d719cbd52afb -->
<g id="edge9" class="edge">
<title>dir_379a8a064764fd379d3b1794ef38b21e&#45;&gt;dir_8fc3e8efef0bfca4a113d719cbd52afb</title>
<path fill="none" stroke="black" d="M329.04,-143.87C307.26,-118.92 266.67,-72.45 241.63,-43.77"/>
<polygon fill="black" stroke="black" points="244.22,-41.42 235.01,-36.19 238.95,-46.02 244.22,-41.42"/>
<g id="a_edge9&#45;headlabel"><a xlink:href="dir_000499_000709.html" target="_top" xlink:title="147">
<text text-anchor="middle" x="248.73" y="-39.76" font-family="Helvetica,sans-Serif" font-size="10.00">147</text>
</a>
</g>
</g>
<!-- dir_62170c9a8f5b54c628d9bd583c5e506c&#45;&gt;dir_8fc3e8efef0bfca4a113d719cbd52afb -->
<g id="edge10" class="edge">
<title>dir_62170c9a8f5b54c628d9bd583c5e506c&#45;&gt;dir_8fc3e8efef0bfca4a113d719cbd52afb</title>
<path fill="none" stroke="black" d="M121.8,-71.88C140.62,-61.74 164.51,-48.88 184.02,-38.37"/>
<polygon fill="black" stroke="black" points="185.77,-41.4 192.92,-33.58 182.46,-35.24 185.77,-41.4"/>
<g id="a_edge10&#45;headlabel"><a xlink:href="dir_000497_000709.html" target="_top" xlink:title="6">
<text text-anchor="middle" x="183.96" y="-43.11" font-family="Helvetica,sans-Serif" font-size="10.00">6</text>
</a>
</g>
</g>
<!-- dir_de9f5af50cbf1cba8aa59b46861a988e -->
<g id="node5" class="node">
<title>dir_de9f5af50cbf1cba8aa59b46861a988e</title>
<g id="a_node5"><a xlink:href="dir_de9f5af50cbf1cba8aa59b46861a988e.html" target="_top" xlink:title="custom_python">
<polygon fill="#eeeeff" stroke="black" points="266,-252 174,-252 174,-216 266,-216 266,-252"/>
<text text-anchor="middle" x="220" y="-231.5" font-family="Helvetica,sans-Serif" font-size="10.00">custom_python</text>
</a>
</g>
</g>
<!-- dir_de9f5af50cbf1cba8aa59b46861a988e&#45;&gt;dir_1404077f3c979131d0a274a9a96dee00 -->
<g id="edge4" class="edge">
<title>dir_de9f5af50cbf1cba8aa59b46861a988e&#45;&gt;dir_1404077f3c979131d0a274a9a96dee00</title>
<path fill="none" stroke="black" d="M188.2,-215.88C170.89,-206.55 149.28,-194.92 130.74,-184.94"/>
<polygon fill="black" stroke="black" points="132.39,-181.85 121.92,-180.19 129.07,-188.01 132.39,-181.85"/>
<g id="a_edge4&#45;headlabel"><a xlink:href="dir_000069_000493.html" target="_top" xlink:title="6">
<text text-anchor="middle" x="136.9" y="-178.55" font-family="Helvetica,sans-Serif" font-size="10.00">6</text>
</a>
</g>
</g>
<!-- dir_de9f5af50cbf1cba8aa59b46861a988e&#45;&gt;dir_2a517cf58a6bfcc2b024206438eb0938 -->
<g id="edge5" class="edge">
<title>dir_de9f5af50cbf1cba8aa59b46861a988e&#45;&gt;dir_2a517cf58a6bfcc2b024206438eb0938</title>
<path fill="none" stroke="black" d="M220,-215.7C220,-207.98 220,-198.71 220,-190.11"/>
<polygon fill="black" stroke="black" points="223.5,-190.1 220,-180.1 216.5,-190.1 223.5,-190.1"/>
<g id="a_edge5&#45;headlabel"><a xlink:href="dir_000069_000490.html" target="_top" xlink:title="1">
<text text-anchor="middle" x="226.34" y="-191.2" font-family="Helvetica,sans-Serif" font-size="10.00">1</text>
</a>
</g>
</g>
<!-- dir_de9f5af50cbf1cba8aa59b46861a988e&#45;&gt;dir_379a8a064764fd379d3b1794ef38b21e -->
<g id="edge6" class="edge">
<title>dir_de9f5af50cbf1cba8aa59b46861a988e&#45;&gt;dir_379a8a064764fd379d3b1794ef38b21e</title>
<path fill="none" stroke="black" d="M250.33,-215.88C266.7,-206.64 287.08,-195.13 304.65,-185.21"/>
<polygon fill="black" stroke="black" points="306.56,-188.15 313.55,-180.19 303.12,-182.06 306.56,-188.15"/>
<g id="a_edge6&#45;headlabel"><a xlink:href="dir_000069_000499.html" target="_top" xlink:title="16">
<text text-anchor="middle" x="304.83" y="-189.89" font-family="Helvetica,sans-Serif" font-size="10.00">16</text>
</a>
</g>
</g>
<!-- dir_de9f5af50cbf1cba8aa59b46861a988e&#45;&gt;dir_62170c9a8f5b54c628d9bd583c5e506c -->
<g id="edge7" class="edge">
<title>dir_de9f5af50cbf1cba8aa59b46861a988e&#45;&gt;dir_62170c9a8f5b54c628d9bd583c5e506c</title>
<path fill="none" stroke="black" d="M173.99,-226.82C122.75,-218.88 44.75,-203.28 27,-180 17.3,-167.28 20.25,-158.51 27,-144 32.43,-132.34 41.82,-122.34 51.72,-114.26"/>
<polygon fill="black" stroke="black" points="53.85,-117.03 59.7,-108.2 49.62,-111.45 53.85,-117.03"/>
<g id="a_edge7&#45;headlabel"><a xlink:href="dir_000069_000497.html" target="_top" xlink:title="1">
<text text-anchor="middle" x="52.71" y="-118.96" font-family="Helvetica,sans-Serif" font-size="10.00">1</text>
</a>
</g>
</g>
<!-- dir_de9f5af50cbf1cba8aa59b46861a988e&#45;&gt;dir_8fc3e8efef0bfca4a113d719cbd52afb -->
<g id="edge8" class="edge">
<title>dir_de9f5af50cbf1cba8aa59b46861a988e&#45;&gt;dir_8fc3e8efef0bfca4a113d719cbd52afb</title>
<path fill="none" stroke="black" d="M266.21,-225.87C314.29,-217.39 384.8,-201.62 401,-180 449.57,-115.17 322.59,-56.75 256.73,-31.8"/>
<polygon fill="black" stroke="black" points="257.69,-28.43 247.1,-28.23 255.26,-34.99 257.69,-28.43"/>
<g id="a_edge8&#45;headlabel"><a xlink:href="dir_000069_000709.html" target="_top" xlink:title="16">
<text text-anchor="middle" x="262.05" y="-24.51" font-family="Helvetica,sans-Serif" font-size="10.00">16</text>
</a>
</g>
</g>
</g>
</svg>
