<?xml version="1.0" encoding="UTF-8" standalone="no"?>
<!DOCTYPE svg PUBLIC "-//W3C//DTD SVG 1.1//EN"
 "http://www.w3.org/Graphics/SVG/1.1/DTD/svg11.dtd">
<!-- Generated by graphviz version 2.43.0 (0)
 -->
<!-- Title: /home/runner/work/Documentation/Documentation/master/applications/FluidDynamicsApplication/trilinos_extension Pages: 1 -->
<svg width="404pt" height="447pt"
 viewBox="0.00 0.00 404.00 447.00" xmlns="http://www.w3.org/2000/svg" xmlns:xlink="http://www.w3.org/1999/xlink">
<g id="graph0" class="graph" transform="scale(1 1) rotate(0) translate(4 443)">
<title>/home/runner/work/Documentation/Documentation/master/applications/FluidDynamicsApplication/trilinos_extension</title>
<g id="clust1" class="cluster">
<title>clusterdir_3ad5b53c1d85a729c373dd4b6e02d9a8</title>
<g id="a_clust1"><a xlink:href="dir_3ad5b53c1d85a729c373dd4b6e02d9a8.html" target="_top" xlink:title="FluidDynamicsApplication">
<polygon fill="#ddddee" stroke="black" points="8,-64 8,-431 254,-431 254,-64 8,-64"/>
<text text-anchor="middle" x="131" y="-419" font-family="Helvetica,sans-Serif" font-size="10.00">FluidDynamicsApplication</text>
</a>
</g>
</g>
<g id="clust2" class="cluster">
<title>clusterdir_e153ad32bb5396708e0c439ed169995c</title>
<g id="a_clust2"><a xlink:href="dir_e153ad32bb5396708e0c439ed169995c.html" target="_top">
<polygon fill="#eeeeff" stroke="black" points="16,-208 16,-404 246,-404 246,-208 16,-208"/>
</a>
</g>
</g>
<!-- dir_a1355cd600912f0dbadf1a4f6b5124f7 -->
<g id="node1" class="node">
<title>dir_a1355cd600912f0dbadf1a4f6b5124f7</title>
<g id="a_node1"><a xlink:href="dir_a1355cd600912f0dbadf1a4f6b5124f7.html" target="_top" xlink:title="custom_processes">
<polygon fill="none" stroke="black" points="221.5,-180 114.5,-180 114.5,-144 221.5,-144 221.5,-180"/>
<text text-anchor="middle" x="168" y="-159.5" font-family="Helvetica,sans-Serif" font-size="10.00">custom_processes</text>
</a>
</g>
</g>
<!-- dir_a73957754da12bcf902aa9e04703e8d9 -->
<g id="node2" class="node">
<title>dir_a73957754da12bcf902aa9e04703e8d9</title>
<g id="a_node2"><a xlink:href="dir_a73957754da12bcf902aa9e04703e8d9.html" target="_top" xlink:title="custom_strategies">
<polygon fill="none" stroke="red" points="211.5,-108 104.5,-108 104.5,-72 211.5,-72 211.5,-108"/>
<text text-anchor="middle" x="158" y="-87.5" font-family="Helvetica,sans-Serif" font-size="10.00">custom_strategies</text>
</a>
</g>
</g>
<!-- dir_a1355cd600912f0dbadf1a4f6b5124f7&#45;&gt;dir_a73957754da12bcf902aa9e04703e8d9 -->
<g id="edge6" class="edge">
<title>dir_a1355cd600912f0dbadf1a4f6b5124f7&#45;&gt;dir_a73957754da12bcf902aa9e04703e8d9</title>
<path fill="none" stroke="black" d="M159.61,-143.7C157.71,-135.98 156.16,-126.71 155.28,-118.11"/>
<polygon fill="black" stroke="black" points="158.77,-117.82 154.55,-108.1 151.78,-118.33 158.77,-117.82"/>
<g id="a_edge6&#45;headlabel"><a xlink:href="dir_000365_000367.html" target="_top" xlink:title="1">
<text text-anchor="middle" x="161.86" y="-118.7" font-family="Helvetica,sans-Serif" font-size="10.00">1</text>
</a>
</g>
</g>
<!-- dir_8fc3e8efef0bfca4a113d719cbd52afb -->
<g id="node8" class="node">
<title>dir_8fc3e8efef0bfca4a113d719cbd52afb</title>
<g id="a_node8"><a xlink:href="dir_8fc3e8efef0bfca4a113d719cbd52afb.html" target="_top" xlink:title="kratos">
<polygon fill="none" stroke="red" points="226,-36 172,-36 172,0 226,0 226,-36"/>
<text text-anchor="middle" x="199" y="-15.5" font-family="Helvetica,sans-Serif" font-size="10.00">kratos</text>
</a>
</g>
</g>
<!-- dir_a1355cd600912f0dbadf1a4f6b5124f7&#45;&gt;dir_8fc3e8efef0bfca4a113d719cbd52afb -->
<g id="edge5" class="edge">
<title>dir_a1355cd600912f0dbadf1a4f6b5124f7&#45;&gt;dir_8fc3e8efef0bfca4a113d719cbd52afb</title>
<path fill="none" stroke="black" d="M192.48,-143.77C203.4,-134.56 215.12,-122.19 221,-108 229.38,-87.78 222.4,-63.6 214.16,-45.55"/>
<polygon fill="black" stroke="black" points="217.11,-43.62 209.53,-36.21 210.84,-46.73 217.11,-43.62"/>
<g id="a_edge5&#45;headlabel"><a xlink:href="dir_000365_000713.html" target="_top" xlink:title="130">
<text text-anchor="middle" x="221.25" y="-43.08" font-family="Helvetica,sans-Serif" font-size="10.00">130</text>
</a>
</g>
</g>
<!-- dir_a73957754da12bcf902aa9e04703e8d9&#45;&gt;dir_a1355cd600912f0dbadf1a4f6b5124f7 -->
<g id="edge17" class="edge">
<title>dir_a73957754da12bcf902aa9e04703e8d9&#45;&gt;dir_a1355cd600912f0dbadf1a4f6b5124f7</title>
<path fill="none" stroke="black" d="M166.34,-108.1C168.24,-115.79 169.8,-125.05 170.7,-133.67"/>
<polygon fill="black" stroke="black" points="167.21,-133.98 171.44,-143.7 174.19,-133.46 167.21,-133.98"/>
<g id="a_edge17&#45;headlabel"><a xlink:href="dir_000367_000365.html" target="_top" xlink:title="2">
<text text-anchor="middle" x="164.12" y="-128.11" font-family="Helvetica,sans-Serif" font-size="10.00">2</text>
</a>
</g>
</g>
<!-- dir_a73957754da12bcf902aa9e04703e8d9&#45;&gt;dir_8fc3e8efef0bfca4a113d719cbd52afb -->
<g id="edge16" class="edge">
<title>dir_a73957754da12bcf902aa9e04703e8d9&#45;&gt;dir_8fc3e8efef0bfca4a113d719cbd52afb</title>
<path fill="none" stroke="black" d="M168.13,-71.7C172.85,-63.64 178.56,-53.89 183.78,-44.98"/>
<polygon fill="black" stroke="black" points="186.95,-46.5 188.98,-36.1 180.91,-42.96 186.95,-46.5"/>
<g id="a_edge16&#45;headlabel"><a xlink:href="dir_000367_000713.html" target="_top" xlink:title="79">
<text text-anchor="middle" x="187.58" y="-48.54" font-family="Helvetica,sans-Serif" font-size="10.00">79</text>
</a>
</g>
</g>
<!-- dir_e153ad32bb5396708e0c439ed169995c -->
<g id="node3" class="node">
<title>dir_e153ad32bb5396708e0c439ed169995c</title>
<text text-anchor="middle" x="186" y="-375.5" font-family="Helvetica,sans-Serif" font-size="10.00">trilinos_extension</text>
</g>
<!-- dir_1fdec9fc1735e799cf4c961d66fcfb4d -->
<g id="node4" class="node">
<title>dir_1fdec9fc1735e799cf4c961d66fcfb4d</title>
<g id="a_node4"><a xlink:href="dir_1fdec9fc1735e799cf4c961d66fcfb4d.html" target="_top" xlink:title="custom_processes">
<polygon fill="white" stroke="black" points="227.5,-252 120.5,-252 120.5,-216 227.5,-216 227.5,-252"/>
<text text-anchor="middle" x="174" y="-231.5" font-family="Helvetica,sans-Serif" font-size="10.00">custom_processes</text>
</a>
</g>
</g>
<!-- dir_1fdec9fc1735e799cf4c961d66fcfb4d&#45;&gt;dir_a1355cd600912f0dbadf1a4f6b5124f7 -->
<g id="edge9" class="edge">
<title>dir_1fdec9fc1735e799cf4c961d66fcfb4d&#45;&gt;dir_a1355cd600912f0dbadf1a4f6b5124f7</title>
<path fill="none" stroke="black" d="M172.52,-215.7C171.86,-207.98 171.06,-198.71 170.32,-190.11"/>
<polygon fill="black" stroke="black" points="173.81,-189.77 169.47,-180.1 166.83,-190.37 173.81,-189.77"/>
<g id="a_edge9&#45;headlabel"><a xlink:href="dir_000379_000365.html" target="_top" xlink:title="1">
<text text-anchor="middle" x="176.94" y="-190.61" font-family="Helvetica,sans-Serif" font-size="10.00">1</text>
</a>
</g>
</g>
<!-- dir_110ec459504756441be28fd12adbe554 -->
<g id="node7" class="node">
<title>dir_110ec459504756441be28fd12adbe554</title>
<g id="a_node7"><a xlink:href="dir_110ec459504756441be28fd12adbe554.html" target="_top" xlink:title="TrilinosApplication">
<polygon fill="none" stroke="red" points="368,-180 262,-180 262,-144 368,-144 368,-180"/>
<text text-anchor="middle" x="315" y="-159.5" font-family="Helvetica,sans-Serif" font-size="10.00">TrilinosApplication</text>
</a>
</g>
</g>
<!-- dir_1fdec9fc1735e799cf4c961d66fcfb4d&#45;&gt;dir_110ec459504756441be28fd12adbe554 -->
<g id="edge7" class="edge">
<title>dir_1fdec9fc1735e799cf4c961d66fcfb4d&#45;&gt;dir_110ec459504756441be28fd12adbe554</title>
<path fill="none" stroke="black" d="M208.49,-215.88C227.44,-206.47 251.13,-194.71 271.36,-184.67"/>
<polygon fill="black" stroke="black" points="272.97,-187.77 280.37,-180.19 269.86,-181.5 272.97,-187.77"/>
<g id="a_edge7&#45;headlabel"><a xlink:href="dir_000379_000102.html" target="_top" xlink:title="3">
<text text-anchor="middle" x="271.02" y="-189.41" font-family="Helvetica,sans-Serif" font-size="10.00">3</text>
</a>
</g>
</g>
<!-- dir_1fdec9fc1735e799cf4c961d66fcfb4d&#45;&gt;dir_8fc3e8efef0bfca4a113d719cbd52afb -->
<g id="edge8" class="edge">
<title>dir_1fdec9fc1735e799cf4c961d66fcfb4d&#45;&gt;dir_8fc3e8efef0bfca4a113d719cbd52afb</title>
<path fill="none" stroke="black" d="M122.35,-215.96C105.86,-207.8 89.45,-196.18 80,-180 53.99,-135.48 50.69,-106.42 80,-64 98.26,-37.57 134.17,-26.65 161.79,-22.14"/>
<polygon fill="black" stroke="black" points="162.51,-25.58 171.92,-20.71 161.53,-18.65 162.51,-25.58"/>
<g id="a_edge8&#45;headlabel"><a xlink:href="dir_000379_000713.html" target="_top" xlink:title="8">
<text text-anchor="middle" x="159.35" y="-26.39" font-family="Helvetica,sans-Serif" font-size="10.00">8</text>
</a>
</g>
</g>
<!-- dir_d8e58d5941911dffa01c281e6d3efd53 -->
<g id="node5" class="node">
<title>dir_d8e58d5941911dffa01c281e6d3efd53</title>
<g id="a_node5"><a xlink:href="dir_d8e58d5941911dffa01c281e6d3efd53.html" target="_top" xlink:title="custom_python">
<polygon fill="white" stroke="black" points="116,-396 24,-396 24,-360 116,-360 116,-396"/>
<text text-anchor="middle" x="70" y="-375.5" font-family="Helvetica,sans-Serif" font-size="10.00">custom_python</text>
</a>
</g>
</g>
<!-- dir_d8e58d5941911dffa01c281e6d3efd53&#45;&gt;dir_a1355cd600912f0dbadf1a4f6b5124f7 -->
<g id="edge14" class="edge">
<title>dir_d8e58d5941911dffa01c281e6d3efd53&#45;&gt;dir_a1355cd600912f0dbadf1a4f6b5124f7</title>
<path fill="none" stroke="black" d="M75.51,-359.9C78.75,-349.56 82.83,-336.09 86,-324 99.42,-272.9 84.06,-252.84 112,-208 117.04,-199.92 124.05,-192.65 131.42,-186.43"/>
<polygon fill="black" stroke="black" points="133.77,-189.04 139.47,-180.11 129.44,-183.53 133.77,-189.04"/>
<g id="a_edge14&#45;headlabel"><a xlink:href="dir_000380_000365.html" target="_top" xlink:title="1">
<text text-anchor="middle" x="132.69" y="-190.99" font-family="Helvetica,sans-Serif" font-size="10.00">1</text>
</a>
</g>
</g>
<!-- dir_d8e58d5941911dffa01c281e6d3efd53&#45;&gt;dir_a73957754da12bcf902aa9e04703e8d9 -->
<g id="edge15" class="edge">
<title>dir_d8e58d5941911dffa01c281e6d3efd53&#45;&gt;dir_a73957754da12bcf902aa9e04703e8d9</title>
<path fill="none" stroke="black" d="M68.81,-359.94C66.77,-319.63 66.14,-216.44 106,-144 111.86,-133.34 120.47,-123.34 129,-114.96"/>
<polygon fill="black" stroke="black" points="131.49,-117.42 136.41,-108.04 126.71,-112.31 131.49,-117.42"/>
<g id="a_edge15&#45;headlabel"><a xlink:href="dir_000380_000367.html" target="_top" xlink:title="8">
<text text-anchor="middle" x="130.8" y="-119.45" font-family="Helvetica,sans-Serif" font-size="10.00">8</text>
</a>
</g>
</g>
<!-- dir_d8e58d5941911dffa01c281e6d3efd53&#45;&gt;dir_1fdec9fc1735e799cf4c961d66fcfb4d -->
<g id="edge12" class="edge">
<title>dir_d8e58d5941911dffa01c281e6d3efd53&#45;&gt;dir_1fdec9fc1735e799cf4c961d66fcfb4d</title>
<path fill="none" stroke="black" d="M87.17,-359.9C96.49,-349.99 107.76,-336.95 116,-324 125.4,-309.23 122.94,-302.98 132,-288 137.8,-278.41 145.12,-268.6 152.02,-260.07"/>
<polygon fill="black" stroke="black" points="154.74,-262.26 158.43,-252.33 149.35,-257.79 154.74,-262.26"/>
<g id="a_edge12&#45;headlabel"><a xlink:href="dir_000380_000379.html" target="_top" xlink:title="2">
<text text-anchor="middle" x="154.63" y="-264.34" font-family="Helvetica,sans-Serif" font-size="10.00">2</text>
</a>
</g>
</g>
<!-- dir_07609acf665810d59a34fbbc8771bfb0 -->
<g id="node6" class="node">
<title>dir_07609acf665810d59a34fbbc8771bfb0</title>
<g id="a_node6"><a xlink:href="dir_07609acf665810d59a34fbbc8771bfb0.html" target="_top" xlink:title="custom_utilities">
<polygon fill="white" stroke="black" points="235.5,-324 140.5,-324 140.5,-288 235.5,-288 235.5,-324"/>
<text text-anchor="middle" x="188" y="-303.5" font-family="Helvetica,sans-Serif" font-size="10.00">custom_utilities</text>
</a>
</g>
</g>
<!-- dir_d8e58d5941911dffa01c281e6d3efd53&#45;&gt;dir_07609acf665810d59a34fbbc8771bfb0 -->
<g id="edge10" class="edge">
<title>dir_d8e58d5941911dffa01c281e6d3efd53&#45;&gt;dir_07609acf665810d59a34fbbc8771bfb0</title>
<path fill="none" stroke="black" d="M98.87,-359.88C114.29,-350.72 133.48,-339.34 150.1,-329.48"/>
<polygon fill="black" stroke="black" points="152.21,-332.3 159.02,-324.19 148.64,-326.28 152.21,-332.3"/>
<g id="a_edge10&#45;headlabel"><a xlink:href="dir_000380_000385.html" target="_top" xlink:title="2">
<text text-anchor="middle" x="150.57" y="-334.08" font-family="Helvetica,sans-Serif" font-size="10.00">2</text>
</a>
</g>
</g>
<!-- dir_d8e58d5941911dffa01c281e6d3efd53&#45;&gt;dir_110ec459504756441be28fd12adbe554 -->
<g id="edge11" class="edge">
<title>dir_d8e58d5941911dffa01c281e6d3efd53&#45;&gt;dir_110ec459504756441be28fd12adbe554</title>
<path fill="none" stroke="black" d="M116.2,-362.69C119.18,-361.78 122.13,-360.87 125,-360 178.27,-343.78 203.36,-360.97 245,-324 284.97,-288.51 303.03,-226.1 310.44,-190.3"/>
<polygon fill="black" stroke="black" points="313.95,-190.58 312.41,-180.1 307.07,-189.26 313.95,-190.58"/>
<g id="a_edge11&#45;headlabel"><a xlink:href="dir_000380_000102.html" target="_top" xlink:title="4">
<text text-anchor="middle" x="316.05" y="-192.15" font-family="Helvetica,sans-Serif" font-size="10.00">4</text>
</a>
</g>
</g>
<!-- dir_d8e58d5941911dffa01c281e6d3efd53&#45;&gt;dir_8fc3e8efef0bfca4a113d719cbd52afb -->
<g id="edge13" class="edge">
<title>dir_d8e58d5941911dffa01c281e6d3efd53&#45;&gt;dir_8fc3e8efef0bfca4a113d719cbd52afb</title>
<path fill="none" stroke="black" d="M116.15,-362.52C119.14,-361.65 122.11,-360.8 125,-360 252.84,-324.62 396,-367.64 396,-235 396,-235 396,-235 396,-161 396,-83.05 293.23,-43.62 236.15,-27.74"/>
<polygon fill="black" stroke="black" points="236.96,-24.33 226.39,-25.13 235.15,-31.09 236.96,-24.33"/>
<g id="a_edge13&#45;headlabel"><a xlink:href="dir_000380_000713.html" target="_top" xlink:title="17">
<text text-anchor="middle" x="241.16" y="-20.02" font-family="Helvetica,sans-Serif" font-size="10.00">17</text>
</a>
</g>
</g>
<!-- dir_07609acf665810d59a34fbbc8771bfb0&#45;&gt;dir_1fdec9fc1735e799cf4c961d66fcfb4d -->
<g id="edge2" class="edge">
<title>dir_07609acf665810d59a34fbbc8771bfb0&#45;&gt;dir_1fdec9fc1735e799cf4c961d66fcfb4d</title>
<path fill="none" stroke="black" d="M184.54,-287.7C183,-279.98 181.14,-270.71 179.42,-262.11"/>
<polygon fill="black" stroke="black" points="182.81,-261.22 177.42,-252.1 175.95,-262.6 182.81,-261.22"/>
<g id="a_edge2&#45;headlabel"><a xlink:href="dir_000385_000379.html" target="_top" xlink:title="2">
<text text-anchor="middle" x="186.3" y="-261.69" font-family="Helvetica,sans-Serif" font-size="10.00">2</text>
</a>
</g>
</g>
<!-- dir_07609acf665810d59a34fbbc8771bfb0&#45;&gt;dir_110ec459504756441be28fd12adbe554 -->
<g id="edge1" class="edge">
<title>dir_07609acf665810d59a34fbbc8771bfb0&#45;&gt;dir_110ec459504756441be28fd12adbe554</title>
<path fill="none" stroke="black" d="M204,-287.92C213.64,-277.59 226.1,-264.11 237,-252 256.31,-230.55 277.92,-205.84 293.48,-187.91"/>
<polygon fill="black" stroke="black" points="296.28,-190.03 300.18,-180.18 290.99,-185.44 296.28,-190.03"/>
<g id="a_edge1&#45;headlabel"><a xlink:href="dir_000385_000102.html" target="_top" xlink:title="2">
<text text-anchor="middle" x="296.07" y="-192.11" font-family="Helvetica,sans-Serif" font-size="10.00">2</text>
</a>
</g>
</g>
<!-- dir_07609acf665810d59a34fbbc8771bfb0&#45;&gt;dir_8fc3e8efef0bfca4a113d719cbd52afb -->
<g id="edge3" class="edge">
<title>dir_07609acf665810d59a34fbbc8771bfb0&#45;&gt;dir_8fc3e8efef0bfca4a113d719cbd52afb</title>
<path fill="none" stroke="black" d="M158.88,-287.9C143.97,-278.38 126.05,-265.7 112,-252 49.57,-191.15 4.43,-134.29 56,-64 79.96,-31.34 127.65,-21.76 161.36,-19.27"/>
<polygon fill="black" stroke="black" points="161.97,-22.74 171.76,-18.69 161.58,-15.75 161.97,-22.74"/>
<g id="a_edge3&#45;headlabel"><a xlink:href="dir_000385_000713.html" target="_top" xlink:title="4">
<text text-anchor="middle" x="158.54" y="-23.27" font-family="Helvetica,sans-Serif" font-size="10.00">4</text>
</a>
</g>
</g>
<!-- dir_110ec459504756441be28fd12adbe554&#45;&gt;dir_8fc3e8efef0bfca4a113d719cbd52afb -->
<g id="edge4" class="edge">
<title>dir_110ec459504756441be28fd12adbe554&#45;&gt;dir_8fc3e8efef0bfca4a113d719cbd52afb</title>
<path fill="none" stroke="black" d="M307.48,-143.93C297.93,-123.47 280.03,-88.85 258,-64 251.01,-56.12 242.47,-48.68 234.08,-42.21"/>
<polygon fill="black" stroke="black" points="235.93,-39.22 225.81,-36.08 231.76,-44.84 235.93,-39.22"/>
<g id="a_edge4&#45;headlabel"><a xlink:href="dir_000102_000713.html" target="_top" xlink:title="83">
<text text-anchor="middle" x="240.5" y="-36.58" font-family="Helvetica,sans-Serif" font-size="10.00">83</text>
</a>
</g>
</g>
</g>
</svg>
