<?xml version="1.0" encoding="UTF-8" standalone="no"?>
<!DOCTYPE svg PUBLIC "-//W3C//DTD SVG 1.1//EN"
 "http://www.w3.org/Graphics/SVG/1.1/DTD/svg11.dtd">
<!-- Generated by graphviz version 2.43.0 (0)
 -->
<!-- Title: /home/runner/work/Documentation/Documentation/master/applications/HDF5Application/custom_utilities Pages: 1 -->
<svg width="138pt" height="223pt"
 viewBox="0.00 0.00 137.51 223.00" xmlns="http://www.w3.org/2000/svg" xmlns:xlink="http://www.w3.org/1999/xlink">
<g id="graph0" class="graph" transform="scale(1 1) rotate(0) translate(4 219)">
<title>/home/runner/work/Documentation/Documentation/master/applications/HDF5Application/custom_utilities</title>
<g id="clust1" class="cluster">
<title>clusterdir_df46494d3fb0c33a337b1b75a173b8d9</title>
<g id="a_clust1"><a xlink:href="dir_df46494d3fb0c33a337b1b75a173b8d9.html" target="_top" xlink:title="HDF5Application">
<polygon fill="#ddddee" stroke="black" points="8,-64 8,-207 120,-207 120,-64 8,-64"/>
<text text-anchor="middle" x="64" y="-195" font-family="Helvetica,sans-Serif" font-size="10.00">HDF5Application</text>
</a>
</g>
</g>
<!-- dir_766c2a11fa0e9418048b0c91ed8b699f -->
<g id="node1" class="node">
<title>dir_766c2a11fa0e9418048b0c91ed8b699f</title>
<g id="a_node1"><a xlink:href="dir_766c2a11fa0e9418048b0c91ed8b699f.html" target="_top" xlink:title="custom_io">
<polygon fill="none" stroke="black" points="97.5,-180 30.5,-180 30.5,-144 97.5,-144 97.5,-180"/>
<text text-anchor="middle" x="64" y="-159.5" font-family="Helvetica,sans-Serif" font-size="10.00">custom_io</text>
</a>
</g>
</g>
<!-- dir_aaf54a0f96b24d209dbb5e43a43fc49b -->
<g id="node2" class="node">
<title>dir_aaf54a0f96b24d209dbb5e43a43fc49b</title>
<g id="a_node2"><a xlink:href="dir_aaf54a0f96b24d209dbb5e43a43fc49b.html" target="_top" xlink:title="custom_utilities">
<polygon fill="#eeeeff" stroke="black" points="111.5,-108 16.5,-108 16.5,-72 111.5,-72 111.5,-108"/>
<text text-anchor="middle" x="64" y="-87.5" font-family="Helvetica,sans-Serif" font-size="10.00">custom_utilities</text>
</a>
</g>
</g>
<!-- dir_766c2a11fa0e9418048b0c91ed8b699f&#45;&gt;dir_aaf54a0f96b24d209dbb5e43a43fc49b -->
<g id="edge4" class="edge">
<title>dir_766c2a11fa0e9418048b0c91ed8b699f&#45;&gt;dir_aaf54a0f96b24d209dbb5e43a43fc49b</title>
<path fill="none" stroke="black" d="M58.08,-143.7C57.29,-135.98 57.06,-126.71 57.4,-118.11"/>
<polygon fill="black" stroke="black" points="60.9,-118.32 58.1,-108.1 53.92,-117.84 60.9,-118.32"/>
<g id="a_edge4&#45;headlabel"><a xlink:href="dir_000407_000409.html" target="_top" xlink:title="19">
<text text-anchor="middle" x="63.48" y="-119.61" font-family="Helvetica,sans-Serif" font-size="10.00">19</text>
</a>
</g>
</g>
<!-- dir_8fc3e8efef0bfca4a113d719cbd52afb -->
<g id="node3" class="node">
<title>dir_8fc3e8efef0bfca4a113d719cbd52afb</title>
<g id="a_node3"><a xlink:href="dir_8fc3e8efef0bfca4a113d719cbd52afb.html" target="_top" xlink:title="kratos">
<polygon fill="none" stroke="red" points="129,-36 75,-36 75,0 129,0 129,-36"/>
<text text-anchor="middle" x="102" y="-15.5" font-family="Helvetica,sans-Serif" font-size="10.00">kratos</text>
</a>
</g>
</g>
<!-- dir_766c2a11fa0e9418048b0c91ed8b699f&#45;&gt;dir_8fc3e8efef0bfca4a113d719cbd52afb -->
<g id="edge3" class="edge">
<title>dir_766c2a11fa0e9418048b0c91ed8b699f&#45;&gt;dir_8fc3e8efef0bfca4a113d719cbd52afb</title>
<path fill="none" stroke="black" d="M90.58,-143.91C102.24,-134.81 114.69,-122.49 121,-108 129.73,-87.96 123.47,-63.58 115.88,-45.41"/>
<polygon fill="black" stroke="black" points="118.93,-43.67 111.61,-36.02 112.56,-46.57 118.93,-43.67"/>
<g id="a_edge3&#45;headlabel"><a xlink:href="dir_000407_000705.html" target="_top" xlink:title="64">
<text text-anchor="middle" x="123.01" y="-43.27" font-family="Helvetica,sans-Serif" font-size="10.00">64</text>
</a>
</g>
</g>
<!-- dir_aaf54a0f96b24d209dbb5e43a43fc49b&#45;&gt;dir_766c2a11fa0e9418048b0c91ed8b699f -->
<g id="edge1" class="edge">
<title>dir_aaf54a0f96b24d209dbb5e43a43fc49b&#45;&gt;dir_766c2a11fa0e9418048b0c91ed8b699f</title>
<path fill="none" stroke="black" d="M69.9,-108.1C70.7,-115.79 70.94,-125.05 70.6,-133.67"/>
<polygon fill="black" stroke="black" points="67.11,-133.48 69.92,-143.7 74.09,-133.96 67.11,-133.48"/>
<g id="a_edge1&#45;headlabel"><a xlink:href="dir_000409_000407.html" target="_top" xlink:title="1">
<text text-anchor="middle" x="64.52" y="-127.2" font-family="Helvetica,sans-Serif" font-size="10.00">1</text>
</a>
</g>
</g>
<!-- dir_aaf54a0f96b24d209dbb5e43a43fc49b&#45;&gt;dir_8fc3e8efef0bfca4a113d719cbd52afb -->
<g id="edge2" class="edge">
<title>dir_aaf54a0f96b24d209dbb5e43a43fc49b&#45;&gt;dir_8fc3e8efef0bfca4a113d719cbd52afb</title>
<path fill="none" stroke="black" d="M73.39,-71.7C77.76,-63.64 83.06,-53.89 87.9,-44.98"/>
<polygon fill="black" stroke="black" points="91.02,-46.56 92.71,-36.1 84.87,-43.22 91.02,-46.56"/>
<g id="a_edge2&#45;headlabel"><a xlink:href="dir_000409_000705.html" target="_top" xlink:title="18">
<text text-anchor="middle" x="91.8" y="-48.58" font-family="Helvetica,sans-Serif" font-size="10.00">18</text>
</a>
</g>
</g>
</g>
</svg>
