<?xml version="1.0" encoding="UTF-8" standalone="no"?>
<!DOCTYPE svg PUBLIC "-//W3C//DTD SVG 1.1//EN"
 "http://www.w3.org/Graphics/SVG/1.1/DTD/svg11.dtd">
<!-- Generated by graphviz version 2.43.0 (0)
 -->
<!-- Title: /home/runner/work/Documentation/Documentation/master/kratos/spatial_containers Pages: 1 -->
<svg width="316pt" height="346pt"
 viewBox="0.00 0.00 316.00 346.16" xmlns="http://www.w3.org/2000/svg" xmlns:xlink="http://www.w3.org/1999/xlink">
<g id="graph0" class="graph" transform="scale(1 1) rotate(0) translate(4 342.16)">
<title>/home/runner/work/Documentation/Documentation/master/kratos/spatial_containers</title>
<g id="clust1" class="cluster">
<title>clusterdir_8fc3e8efef0bfca4a113d719cbd52afb</title>
<g id="a_clust1"><a xlink:href="dir_8fc3e8efef0bfca4a113d719cbd52afb.html" target="_top" xlink:title="kratos">
<polygon fill="#ddddee" stroke="black" points="8,-8 8,-303 300,-303 300,-8 8,-8"/>
<text text-anchor="middle" x="154" y="-291" font-family="Helvetica,sans-Serif" font-size="10.00">kratos</text>
</a>
</g>
</g>
<g id="clust2" class="cluster">
<title>clusterdir_3df538503b4c9d1db505a9b503b9f267</title>
<g id="a_clust2"><a xlink:href="dir_3df538503b4c9d1db505a9b503b9f267.html" target="_top">
<polygon fill="#eeeeff" stroke="black" points="84,-224 84,-276 292,-276 292,-224 84,-224"/>
</a>
</g>
</g>
<!-- dir_6da2b5da699b6e8099c18b866a052d71 -->
<g id="node1" class="node">
<title>dir_6da2b5da699b6e8099c18b866a052d71</title>
<g id="a_node1"><a xlink:href="dir_6da2b5da699b6e8099c18b866a052d71.html" target="_top" xlink:title="includes">
<polygon fill="none" stroke="black" points="73.5,-268 16.5,-268 16.5,-232 73.5,-232 73.5,-268"/>
<text text-anchor="middle" x="45" y="-247.5" font-family="Helvetica,sans-Serif" font-size="10.00">includes</text>
</a>
</g>
</g>
<!-- dir_70f98bb657cca0a872199855cac08757 -->
<g id="node2" class="node">
<title>dir_70f98bb657cca0a872199855cac08757</title>
<g id="a_node2"><a xlink:href="dir_70f98bb657cca0a872199855cac08757.html" target="_top" xlink:title="utilities">
<polygon fill="none" stroke="red" points="138,-196 84,-196 84,-160 138,-160 138,-196"/>
<text text-anchor="middle" x="111" y="-175.5" font-family="Helvetica,sans-Serif" font-size="10.00">utilities</text>
</a>
</g>
</g>
<!-- dir_6da2b5da699b6e8099c18b866a052d71&#45;&gt;dir_70f98bb657cca0a872199855cac08757 -->
<g id="edge11" class="edge">
<title>dir_6da2b5da699b6e8099c18b866a052d71&#45;&gt;dir_70f98bb657cca0a872199855cac08757</title>
<path fill="none" stroke="black" d="M55.4,-231.7C62.59,-223.14 72.29,-212.66 81.62,-203.3"/>
<polygon fill="black" stroke="black" points="84.28,-205.6 88.98,-196.1 79.38,-200.6 84.28,-205.6"/>
<g id="a_edge11&#45;headlabel"><a xlink:href="dir_000730_000777.html" target="_top" xlink:title="13">
<text text-anchor="middle" x="83.7" y="-207.64" font-family="Helvetica,sans-Serif" font-size="10.00">13</text>
</a>
</g>
</g>
<!-- dir_80b24cd11685060440d77842b83d8f07 -->
<g id="node3" class="node">
<title>dir_80b24cd11685060440d77842b83d8f07</title>
<g id="a_node3"><a xlink:href="dir_80b24cd11685060440d77842b83d8f07.html" target="_top" xlink:title="containers">
<polygon fill="none" stroke="black" points="161,-52 93,-52 93,-16 161,-16 161,-52"/>
<text text-anchor="middle" x="127" y="-31.5" font-family="Helvetica,sans-Serif" font-size="10.00">containers</text>
</a>
</g>
</g>
<!-- dir_6da2b5da699b6e8099c18b866a052d71&#45;&gt;dir_80b24cd11685060440d77842b83d8f07 -->
<g id="edge12" class="edge">
<title>dir_6da2b5da699b6e8099c18b866a052d71&#45;&gt;dir_80b24cd11685060440d77842b83d8f07</title>
<path fill="none" stroke="black" d="M36.25,-231.73C27.36,-200.77 20.53,-134.72 46,-88 54.31,-72.76 69.09,-60.73 83.86,-52"/>
<polygon fill="black" stroke="black" points="85.9,-54.87 92.99,-47 82.54,-48.73 85.9,-54.87"/>
<g id="a_edge12&#45;headlabel"><a xlink:href="dir_000730_000723.html" target="_top" xlink:title="62">
<text text-anchor="middle" x="84.11" y="-56.59" font-family="Helvetica,sans-Serif" font-size="10.00">62</text>
</a>
</g>
</g>
<!-- dir_9311051b33dbe6b2e08fc45590134e6c -->
<g id="node4" class="node">
<title>dir_9311051b33dbe6b2e08fc45590134e6c</title>
<g id="a_node4"><a xlink:href="dir_9311051b33dbe6b2e08fc45590134e6c.html" target="_top" xlink:title="geometries">
<polygon fill="none" stroke="red" points="136,-124 64,-124 64,-88 136,-88 136,-124"/>
<text text-anchor="middle" x="100" y="-103.5" font-family="Helvetica,sans-Serif" font-size="10.00">geometries</text>
</a>
</g>
</g>
<!-- dir_6da2b5da699b6e8099c18b866a052d71&#45;&gt;dir_9311051b33dbe6b2e08fc45590134e6c -->
<g id="edge13" class="edge">
<title>dir_6da2b5da699b6e8099c18b866a052d71&#45;&gt;dir_9311051b33dbe6b2e08fc45590134e6c</title>
<path fill="none" stroke="black" d="M43.45,-231.72C46.74,-213.63 56.13,-184.5 66,-160 69.54,-151.22 73.8,-141.83 78.23,-133.42"/>
<polygon fill="black" stroke="black" points="81.43,-134.87 83.27,-124.44 75.33,-131.45 81.43,-134.87"/>
<g id="a_edge13&#45;headlabel"><a xlink:href="dir_000730_000728.html" target="_top" xlink:title="39">
<text text-anchor="middle" x="82.15" y="-136.9" font-family="Helvetica,sans-Serif" font-size="10.00">39</text>
</a>
</g>
</g>
<!-- dir_70f98bb657cca0a872199855cac08757&#45;&gt;dir_6da2b5da699b6e8099c18b866a052d71 -->
<g id="edge5" class="edge">
<title>dir_70f98bb657cca0a872199855cac08757&#45;&gt;dir_6da2b5da699b6e8099c18b866a052d71</title>
<path fill="none" stroke="black" d="M100.77,-196.1C93.62,-204.64 83.94,-215.11 74.59,-224.48"/>
<polygon fill="black" stroke="black" points="71.92,-222.2 67.23,-231.7 76.82,-227.2 71.92,-222.2"/>
<g id="a_edge5&#45;headlabel"><a xlink:href="dir_000777_000730.html" target="_top" xlink:title="221">
<text text-anchor="middle" x="72.5" y="-215.15" font-family="Helvetica,sans-Serif" font-size="10.00">221</text>
</a>
</g>
</g>
<!-- dir_70f98bb657cca0a872199855cac08757&#45;&gt;dir_80b24cd11685060440d77842b83d8f07 -->
<g id="edge6" class="edge">
<title>dir_70f98bb657cca0a872199855cac08757&#45;&gt;dir_80b24cd11685060440d77842b83d8f07</title>
<path fill="none" stroke="black" d="M117.78,-159.63C124.09,-149.85 132.19,-137.01 136,-124 142.01,-103.51 136.62,-79.8 131.55,-62"/>
<polygon fill="black" stroke="black" points="134.87,-60.88 128.69,-52.27 128.15,-62.86 134.87,-60.88"/>
<g id="a_edge6&#45;headlabel"><a xlink:href="dir_000777_000723.html" target="_top" xlink:title="31">
<text text-anchor="middle" x="138.61" y="-61.03" font-family="Helvetica,sans-Serif" font-size="10.00">31</text>
</a>
</g>
</g>
<!-- dir_70f98bb657cca0a872199855cac08757&#45;&gt;dir_9311051b33dbe6b2e08fc45590134e6c -->
<g id="edge7" class="edge">
<title>dir_70f98bb657cca0a872199855cac08757&#45;&gt;dir_9311051b33dbe6b2e08fc45590134e6c</title>
<path fill="none" stroke="black" d="M102.37,-159.7C100.36,-151.98 98.67,-142.71 97.67,-134.11"/>
<polygon fill="black" stroke="black" points="101.15,-133.76 96.79,-124.1 94.17,-134.37 101.15,-133.76"/>
<g id="a_edge7&#45;headlabel"><a xlink:href="dir_000777_000728.html" target="_top" xlink:title="64">
<text text-anchor="middle" x="104.29" y="-134.6" font-family="Helvetica,sans-Serif" font-size="10.00">64</text>
</a>
</g>
</g>
<!-- dir_3df538503b4c9d1db505a9b503b9f267 -->
<g id="node5" class="node">
<title>dir_3df538503b4c9d1db505a9b503b9f267</title>
<text text-anchor="middle" x="145" y="-247.5" font-family="Helvetica,sans-Serif" font-size="10.00">spatial_containers</text>
</g>
<!-- dir_70f98bb657cca0a872199855cac08757&#45;&gt;dir_3df538503b4c9d1db505a9b503b9f267 -->
<g id="edge4" class="edge">
<title>dir_70f98bb657cca0a872199855cac08757&#45;&gt;dir_3df538503b4c9d1db505a9b503b9f267</title>
<path fill="none" stroke="black" d="M125.2,-196.1C129.84,-203.96 134.69,-213.46 138.58,-222.23"/>
<polygon fill="black" stroke="black" points="135.44,-223.8 142.51,-231.7 141.91,-221.12 135.44,-223.8"/>
<g id="a_edge4&#45;headlabel"><a xlink:href="dir_000777_000772.html" target="_top" xlink:title="9">
<text text-anchor="middle" x="131.44" y="-219.07" font-family="Helvetica,sans-Serif" font-size="10.00">9</text>
</a>
</g>
</g>
<!-- dir_80b24cd11685060440d77842b83d8f07&#45;&gt;dir_6da2b5da699b6e8099c18b866a052d71 -->
<g id="edge1" class="edge">
<title>dir_80b24cd11685060440d77842b83d8f07&#45;&gt;dir_6da2b5da699b6e8099c18b866a052d71</title>
<path fill="none" stroke="black" d="M100.07,-52.19C86.88,-60.9 72.25,-72.87 64,-88 41.02,-130.16 44.33,-188.06 46.33,-221.71"/>
<polygon fill="black" stroke="black" points="42.83,-221.94 46.89,-231.73 49.82,-221.55 42.83,-221.94"/>
<g id="a_edge1&#45;headlabel"><a xlink:href="dir_000723_000730.html" target="_top" xlink:title="65">
<text text-anchor="middle" x="39.8" y="-216.01" font-family="Helvetica,sans-Serif" font-size="10.00">65</text>
</a>
</g>
</g>
<!-- dir_80b24cd11685060440d77842b83d8f07&#45;&gt;dir_70f98bb657cca0a872199855cac08757 -->
<g id="edge2" class="edge">
<title>dir_80b24cd11685060440d77842b83d8f07&#45;&gt;dir_70f98bb657cca0a872199855cac08757</title>
<path fill="none" stroke="black" d="M142.12,-52.27C152.07,-70.36 161.18,-99.49 154,-124 151.17,-133.65 145.98,-143.22 140.08,-151.51"/>
<polygon fill="black" stroke="black" points="137.13,-149.6 133.73,-159.63 142.64,-153.9 137.13,-149.6"/>
<g id="a_edge2&#45;headlabel"><a xlink:href="dir_000723_000777.html" target="_top" xlink:title="22">
<text text-anchor="middle" x="137.1" y="-142.52" font-family="Helvetica,sans-Serif" font-size="10.00">22</text>
</a>
</g>
</g>
<!-- dir_9311051b33dbe6b2e08fc45590134e6c&#45;&gt;dir_6da2b5da699b6e8099c18b866a052d71 -->
<g id="edge14" class="edge">
<title>dir_9311051b33dbe6b2e08fc45590134e6c&#45;&gt;dir_6da2b5da699b6e8099c18b866a052d71</title>
<path fill="none" stroke="black" d="M99.02,-124.44C95.12,-134.67 88.87,-147.92 84,-160 75.71,-180.58 67.76,-204.42 60.78,-222.25"/>
<polygon fill="black" stroke="black" points="57.45,-221.14 56.89,-231.72 63.92,-223.8 57.45,-221.14"/>
<g id="a_edge14&#45;headlabel"><a xlink:href="dir_000728_000730.html" target="_top" xlink:title="18">
<text text-anchor="middle" x="56.18" y="-214.24" font-family="Helvetica,sans-Serif" font-size="10.00">18</text>
</a>
</g>
</g>
<!-- dir_9311051b33dbe6b2e08fc45590134e6c&#45;&gt;dir_70f98bb657cca0a872199855cac08757 -->
<g id="edge15" class="edge">
<title>dir_9311051b33dbe6b2e08fc45590134e6c&#45;&gt;dir_70f98bb657cca0a872199855cac08757</title>
<path fill="none" stroke="black" d="M108.58,-124.1C110.6,-131.79 112.29,-141.05 113.31,-149.67"/>
<polygon fill="black" stroke="black" points="109.83,-150.04 114.2,-159.7 116.8,-149.43 109.83,-150.04"/>
<g id="a_edge15&#45;headlabel"><a xlink:href="dir_000728_000777.html" target="_top" xlink:title="41">
<text text-anchor="middle" x="106.68" y="-144.21" font-family="Helvetica,sans-Serif" font-size="10.00">41</text>
</a>
</g>
</g>
<!-- dir_9311051b33dbe6b2e08fc45590134e6c&#45;&gt;dir_80b24cd11685060440d77842b83d8f07 -->
<g id="edge16" class="edge">
<title>dir_9311051b33dbe6b2e08fc45590134e6c&#45;&gt;dir_80b24cd11685060440d77842b83d8f07</title>
<path fill="none" stroke="black" d="M106.67,-87.7C109.71,-79.81 113.38,-70.3 116.76,-61.55"/>
<polygon fill="black" stroke="black" points="120.07,-62.69 120.4,-52.1 113.54,-60.17 120.07,-62.69"/>
<g id="a_edge16&#45;headlabel"><a xlink:href="dir_000728_000723.html" target="_top" xlink:title="5">
<text text-anchor="middle" x="121.42" y="-64.57" font-family="Helvetica,sans-Serif" font-size="10.00">5</text>
</a>
</g>
</g>
<!-- dir_3df538503b4c9d1db505a9b503b9f267&#45;&gt;dir_70f98bb657cca0a872199855cac08757 -->
<g id="edge3" class="edge">
<title>dir_3df538503b4c9d1db505a9b503b9f267&#45;&gt;dir_70f98bb657cca0a872199855cac08757</title>
<path fill="none" stroke="black" d="M130.68,-231.7C126.04,-223.81 121.2,-214.3 117.32,-205.55"/>
<polygon fill="black" stroke="black" points="120.47,-204 113.41,-196.1 114,-206.68 120.47,-204"/>
<g id="a_edge3&#45;headlabel"><a xlink:href="dir_000772_000777.html" target="_top" xlink:title="3">
<text text-anchor="middle" x="124.47" y="-203.74" font-family="Helvetica,sans-Serif" font-size="10.00">3</text>
</a>
</g>
</g>
<!-- dir_ff2d599a0cf7ef36a601740580a9e1b4 -->
<g id="node6" class="node">
<title>dir_ff2d599a0cf7ef36a601740580a9e1b4</title>
<g id="a_node6"><a xlink:href="dir_ff2d599a0cf7ef36a601740580a9e1b4.html" target="_top" xlink:title="configures">
<polygon fill="white" stroke="black" points="283.5,-268 216.5,-268 216.5,-232 283.5,-232 283.5,-268"/>
<text text-anchor="middle" x="250" y="-247.5" font-family="Helvetica,sans-Serif" font-size="10.00">configures</text>
</a>
</g>
</g>
<!-- dir_ff2d599a0cf7ef36a601740580a9e1b4&#45;&gt;dir_6da2b5da699b6e8099c18b866a052d71 -->
<g id="edge8" class="edge">
<title>dir_ff2d599a0cf7ef36a601740580a9e1b4&#45;&gt;dir_6da2b5da699b6e8099c18b866a052d71</title>
<path fill="none" stroke="black" d="M242.59,-268.12C234.48,-285.28 219.67,-310.01 198,-321 154.79,-342.91 131.33,-344.56 89,-321 72.32,-311.71 61.16,-293.2 54.25,-277.4"/>
<polygon fill="black" stroke="black" points="57.46,-276 50.49,-268.02 50.96,-278.61 57.46,-276"/>
<g id="a_edge8&#45;headlabel"><a xlink:href="dir_000773_000730.html" target="_top" xlink:title="2">
<text text-anchor="middle" x="61.43" y="-275.78" font-family="Helvetica,sans-Serif" font-size="10.00">2</text>
</a>
</g>
</g>
<!-- dir_ff2d599a0cf7ef36a601740580a9e1b4&#45;&gt;dir_80b24cd11685060440d77842b83d8f07 -->
<g id="edge9" class="edge">
<title>dir_ff2d599a0cf7ef36a601740580a9e1b4&#45;&gt;dir_80b24cd11685060440d77842b83d8f07</title>
<path fill="none" stroke="black" d="M240.14,-231.85C218.64,-194.44 167.42,-105.32 141.93,-60.98"/>
<polygon fill="black" stroke="black" points="144.92,-59.16 136.9,-52.23 138.85,-62.65 144.92,-59.16"/>
<g id="a_edge9&#45;headlabel"><a xlink:href="dir_000773_000723.html" target="_top" xlink:title="1">
<text text-anchor="middle" x="149.18" y="-58.36" font-family="Helvetica,sans-Serif" font-size="10.00">1</text>
</a>
</g>
</g>
<!-- dir_ff2d599a0cf7ef36a601740580a9e1b4&#45;&gt;dir_9311051b33dbe6b2e08fc45590134e6c -->
<g id="edge10" class="edge">
<title>dir_ff2d599a0cf7ef36a601740580a9e1b4&#45;&gt;dir_9311051b33dbe6b2e08fc45590134e6c</title>
<path fill="none" stroke="black" d="M231.91,-231.87C205.44,-206.82 156.04,-160.05 125.78,-131.41"/>
<polygon fill="black" stroke="black" points="127.83,-128.52 118.16,-124.19 123.01,-133.61 127.83,-128.52"/>
<g id="a_edge10&#45;headlabel"><a xlink:href="dir_000773_000728.html" target="_top" xlink:title="1">
<text text-anchor="middle" x="132.39" y="-126.43" font-family="Helvetica,sans-Serif" font-size="10.00">1</text>
</a>
</g>
</g>
</g>
</svg>
