<?xml version="1.0" encoding="UTF-8" standalone="no"?>
<!DOCTYPE svg PUBLIC "-//W3C//DTD SVG 1.1//EN"
 "http://www.w3.org/Graphics/SVG/1.1/DTD/svg11.dtd">
<!-- Generated by graphviz version 2.43.0 (0)
 -->
<!-- Title: /home/runner/work/Documentation/Documentation/master/applications/SystemIdentificationApplication/custom_python Pages: 1 -->
<svg width="249pt" height="223pt"
 viewBox="0.00 0.00 249.00 223.00" xmlns="http://www.w3.org/2000/svg" xmlns:xlink="http://www.w3.org/1999/xlink">
<g id="graph0" class="graph" transform="scale(1 1) rotate(0) translate(4 219)">
<title>/home/runner/work/Documentation/Documentation/master/applications/SystemIdentificationApplication/custom_python</title>
<g id="clust1" class="cluster">
<title>clusterdir_7423feb3c51cbedd6695f90aad0cc518</title>
<g id="a_clust1"><a xlink:href="dir_7423feb3c51cbedd6695f90aad0cc518.html" target="_top" xlink:title="SystemIdentificationApplication">
<polygon fill="#ddddee" stroke="black" points="8,-64 8,-207 233,-207 233,-64 8,-64"/>
<text text-anchor="middle" x="120.5" y="-195" font-family="Helvetica,sans-Serif" font-size="10.00">SystemIdentificationApplication</text>
</a>
</g>
</g>
<!-- dir_1d26dda4c195d4164c9389739414d413 -->
<g id="node1" class="node">
<title>dir_1d26dda4c195d4164c9389739414d413</title>
<g id="a_node1"><a xlink:href="dir_1d26dda4c195d4164c9389739414d413.html" target="_top" xlink:title="custom_sensors">
<polygon fill="none" stroke="black" points="111.5,-108 16.5,-108 16.5,-72 111.5,-72 111.5,-108"/>
<text text-anchor="middle" x="64" y="-87.5" font-family="Helvetica,sans-Serif" font-size="10.00">custom_sensors</text>
</a>
</g>
</g>
<!-- dir_8fc3e8efef0bfca4a113d719cbd52afb -->
<g id="node4" class="node">
<title>dir_8fc3e8efef0bfca4a113d719cbd52afb</title>
<g id="a_node4"><a xlink:href="dir_8fc3e8efef0bfca4a113d719cbd52afb.html" target="_top" xlink:title="kratos">
<polygon fill="none" stroke="red" points="204,-36 150,-36 150,0 204,0 204,-36"/>
<text text-anchor="middle" x="177" y="-15.5" font-family="Helvetica,sans-Serif" font-size="10.00">kratos</text>
</a>
</g>
</g>
<!-- dir_1d26dda4c195d4164c9389739414d413&#45;&gt;dir_8fc3e8efef0bfca4a113d719cbd52afb -->
<g id="edge2" class="edge">
<title>dir_1d26dda4c195d4164c9389739414d413&#45;&gt;dir_8fc3e8efef0bfca4a113d719cbd52afb</title>
<path fill="none" stroke="black" d="M91.64,-71.88C106.53,-62.66 125.07,-51.17 141.06,-41.26"/>
<polygon fill="black" stroke="black" points="142.98,-44.19 149.64,-35.95 139.3,-38.24 142.98,-44.19"/>
<g id="a_edge2&#45;headlabel"><a xlink:href="dir_000668_000712.html" target="_top" xlink:title="18">
<text text-anchor="middle" x="141.42" y="-46" font-family="Helvetica,sans-Serif" font-size="10.00">18</text>
</a>
</g>
</g>
<!-- dir_7620225bda7e83b9b9159e6d795a6a0a -->
<g id="node2" class="node">
<title>dir_7620225bda7e83b9b9159e6d795a6a0a</title>
<g id="a_node2"><a xlink:href="dir_7620225bda7e83b9b9159e6d795a6a0a.html" target="_top" xlink:title="custom_utilities">
<polygon fill="none" stroke="black" points="224.5,-108 129.5,-108 129.5,-72 224.5,-72 224.5,-108"/>
<text text-anchor="middle" x="177" y="-87.5" font-family="Helvetica,sans-Serif" font-size="10.00">custom_utilities</text>
</a>
</g>
</g>
<!-- dir_7620225bda7e83b9b9159e6d795a6a0a&#45;&gt;dir_8fc3e8efef0bfca4a113d719cbd52afb -->
<g id="edge1" class="edge">
<title>dir_7620225bda7e83b9b9159e6d795a6a0a&#45;&gt;dir_8fc3e8efef0bfca4a113d719cbd52afb</title>
<path fill="none" stroke="black" d="M177,-71.7C177,-63.98 177,-54.71 177,-46.11"/>
<polygon fill="black" stroke="black" points="180.5,-46.1 177,-36.1 173.5,-46.1 180.5,-46.1"/>
<g id="a_edge1&#45;headlabel"><a xlink:href="dir_000669_000712.html" target="_top" xlink:title="20">
<text text-anchor="middle" x="183.34" y="-47.2" font-family="Helvetica,sans-Serif" font-size="10.00">20</text>
</a>
</g>
</g>
<!-- dir_45ddd2567bc3520608cf3e60bdc41823 -->
<g id="node3" class="node">
<title>dir_45ddd2567bc3520608cf3e60bdc41823</title>
<g id="a_node3"><a xlink:href="dir_45ddd2567bc3520608cf3e60bdc41823.html" target="_top" xlink:title="custom_python">
<polygon fill="#eeeeff" stroke="black" points="223,-180 131,-180 131,-144 223,-144 223,-180"/>
<text text-anchor="middle" x="177" y="-159.5" font-family="Helvetica,sans-Serif" font-size="10.00">custom_python</text>
</a>
</g>
</g>
<!-- dir_45ddd2567bc3520608cf3e60bdc41823&#45;&gt;dir_1d26dda4c195d4164c9389739414d413 -->
<g id="edge3" class="edge">
<title>dir_45ddd2567bc3520608cf3e60bdc41823&#45;&gt;dir_1d26dda4c195d4164c9389739414d413</title>
<path fill="none" stroke="black" d="M149.36,-143.88C134.58,-134.72 116.21,-123.34 100.3,-113.48"/>
<polygon fill="black" stroke="black" points="102.09,-110.48 91.75,-108.19 98.41,-116.43 102.09,-110.48"/>
<g id="a_edge3&#45;headlabel"><a xlink:href="dir_000101_000668.html" target="_top" xlink:title="5">
<text text-anchor="middle" x="106.64" y="-107.46" font-family="Helvetica,sans-Serif" font-size="10.00">5</text>
</a>
</g>
</g>
<!-- dir_45ddd2567bc3520608cf3e60bdc41823&#45;&gt;dir_7620225bda7e83b9b9159e6d795a6a0a -->
<g id="edge4" class="edge">
<title>dir_45ddd2567bc3520608cf3e60bdc41823&#45;&gt;dir_7620225bda7e83b9b9159e6d795a6a0a</title>
<path fill="none" stroke="black" d="M177,-143.7C177,-135.98 177,-126.71 177,-118.11"/>
<polygon fill="black" stroke="black" points="180.5,-118.1 177,-108.1 173.5,-118.1 180.5,-118.1"/>
<g id="a_edge4&#45;headlabel"><a xlink:href="dir_000101_000669.html" target="_top" xlink:title="5">
<text text-anchor="middle" x="183.34" y="-119.2" font-family="Helvetica,sans-Serif" font-size="10.00">5</text>
</a>
</g>
</g>
<!-- dir_45ddd2567bc3520608cf3e60bdc41823&#45;&gt;dir_8fc3e8efef0bfca4a113d719cbd52afb -->
<g id="edge5" class="edge">
<title>dir_45ddd2567bc3520608cf3e60bdc41823&#45;&gt;dir_8fc3e8efef0bfca4a113d719cbd52afb</title>
<path fill="none" stroke="black" d="M203.58,-143.91C215.24,-134.81 227.69,-122.49 234,-108 241.81,-90.07 242.53,-81.6 234,-64 229.21,-54.11 221.07,-45.74 212.43,-39"/>
<polygon fill="black" stroke="black" points="214.25,-36 204.07,-33.04 210.18,-41.7 214.25,-36"/>
<g id="a_edge5&#45;headlabel"><a xlink:href="dir_000101_000712.html" target="_top" xlink:title="5">
<text text-anchor="middle" x="218.82" y="-33.28" font-family="Helvetica,sans-Serif" font-size="10.00">5</text>
</a>
</g>
</g>
</g>
</svg>
