<?xml version="1.0" encoding="UTF-8" standalone="no"?>
<!DOCTYPE svg PUBLIC "-//W3C//DTD SVG 1.1//EN"
 "http://www.w3.org/Graphics/SVG/1.1/DTD/svg11.dtd">
<!-- Generated by graphviz version 2.43.0 (0)
 -->
<!-- Title: /home/runner/work/Documentation/Documentation/master/applications/DemStructuresCouplingApplication/custom_python Pages: 1 -->
<svg width="261pt" height="223pt"
 viewBox="0.00 0.00 260.54 223.00" xmlns="http://www.w3.org/2000/svg" xmlns:xlink="http://www.w3.org/1999/xlink">
<g id="graph0" class="graph" transform="scale(1 1) rotate(0) translate(4 219)">
<title>/home/runner/work/Documentation/Documentation/master/applications/DemStructuresCouplingApplication/custom_python</title>
<g id="clust1" class="cluster">
<title>clusterdir_c903becf39f694062bf2ec76659c15b8</title>
<g id="a_clust1"><a xlink:href="dir_c903becf39f694062bf2ec76659c15b8.html" target="_top" xlink:title="DemStructuresCouplingApplication">
<polygon fill="#ddddee" stroke="black" points="8,-64 8,-207 244,-207 244,-64 8,-64"/>
<text text-anchor="middle" x="126" y="-195" font-family="Helvetica,sans-Serif" font-size="10.00">DemStructuresCouplingApplication</text>
</a>
</g>
</g>
<!-- dir_249879d2bd2312d1f077b12fdc68a2ec -->
<g id="node1" class="node">
<title>dir_249879d2bd2312d1f077b12fdc68a2ec</title>
<g id="a_node1"><a xlink:href="dir_249879d2bd2312d1f077b12fdc68a2ec.html" target="_top" xlink:title="custom_utilities">
<polygon fill="none" stroke="black" points="111.5,-108 16.5,-108 16.5,-72 111.5,-72 111.5,-108"/>
<text text-anchor="middle" x="64" y="-87.5" font-family="Helvetica,sans-Serif" font-size="10.00">custom_utilities</text>
</a>
</g>
</g>
<!-- dir_8fc3e8efef0bfca4a113d719cbd52afb -->
<g id="node4" class="node">
<title>dir_8fc3e8efef0bfca4a113d719cbd52afb</title>
<g id="a_node4"><a xlink:href="dir_8fc3e8efef0bfca4a113d719cbd52afb.html" target="_top" xlink:title="kratos">
<polygon fill="none" stroke="red" points="210,-36 156,-36 156,0 210,0 210,-36"/>
<text text-anchor="middle" x="183" y="-15.5" font-family="Helvetica,sans-Serif" font-size="10.00">kratos</text>
</a>
</g>
</g>
<!-- dir_249879d2bd2312d1f077b12fdc68a2ec&#45;&gt;dir_8fc3e8efef0bfca4a113d719cbd52afb -->
<g id="edge4" class="edge">
<title>dir_249879d2bd2312d1f077b12fdc68a2ec&#45;&gt;dir_8fc3e8efef0bfca4a113d719cbd52afb</title>
<path fill="none" stroke="black" d="M93.11,-71.88C109.4,-62.29 129.84,-50.27 147.12,-40.11"/>
<polygon fill="black" stroke="black" points="148.98,-43.07 155.82,-34.99 145.43,-37.04 148.98,-43.07"/>
<g id="a_edge4&#45;headlabel"><a xlink:href="dir_000332_000719.html" target="_top" xlink:title="55">
<text text-anchor="middle" x="147.32" y="-44.84" font-family="Helvetica,sans-Serif" font-size="10.00">55</text>
</a>
</g>
</g>
<!-- dir_747a59f03bffd30f5d702bf863535a96 -->
<g id="node2" class="node">
<title>dir_747a59f03bffd30f5d702bf863535a96</title>
<g id="a_node2"><a xlink:href="dir_747a59f03bffd30f5d702bf863535a96.html" target="_top" xlink:title="custom_processes">
<polygon fill="none" stroke="black" points="236.5,-108 129.5,-108 129.5,-72 236.5,-72 236.5,-108"/>
<text text-anchor="middle" x="183" y="-87.5" font-family="Helvetica,sans-Serif" font-size="10.00">custom_processes</text>
</a>
</g>
</g>
<!-- dir_747a59f03bffd30f5d702bf863535a96&#45;&gt;dir_8fc3e8efef0bfca4a113d719cbd52afb -->
<g id="edge5" class="edge">
<title>dir_747a59f03bffd30f5d702bf863535a96&#45;&gt;dir_8fc3e8efef0bfca4a113d719cbd52afb</title>
<path fill="none" stroke="black" d="M183,-71.7C183,-63.98 183,-54.71 183,-46.11"/>
<polygon fill="black" stroke="black" points="186.5,-46.1 183,-36.1 179.5,-46.1 186.5,-46.1"/>
<g id="a_edge5&#45;headlabel"><a xlink:href="dir_000331_000719.html" target="_top" xlink:title="3">
<text text-anchor="middle" x="189.34" y="-47.2" font-family="Helvetica,sans-Serif" font-size="10.00">3</text>
</a>
</g>
</g>
<!-- dir_8252de5d69c3af07b8a2376d859f0c45 -->
<g id="node3" class="node">
<title>dir_8252de5d69c3af07b8a2376d859f0c45</title>
<g id="a_node3"><a xlink:href="dir_8252de5d69c3af07b8a2376d859f0c45.html" target="_top" xlink:title="custom_python">
<polygon fill="#eeeeff" stroke="black" points="229,-180 137,-180 137,-144 229,-144 229,-180"/>
<text text-anchor="middle" x="183" y="-159.5" font-family="Helvetica,sans-Serif" font-size="10.00">custom_python</text>
</a>
</g>
</g>
<!-- dir_8252de5d69c3af07b8a2376d859f0c45&#45;&gt;dir_249879d2bd2312d1f077b12fdc68a2ec -->
<g id="edge1" class="edge">
<title>dir_8252de5d69c3af07b8a2376d859f0c45&#45;&gt;dir_249879d2bd2312d1f077b12fdc68a2ec</title>
<path fill="none" stroke="black" d="M153.89,-143.88C138.33,-134.72 118.98,-123.34 102.22,-113.48"/>
<polygon fill="black" stroke="black" points="103.62,-110.24 93.22,-108.19 100.07,-116.28 103.62,-110.24"/>
<g id="a_edge1&#45;headlabel"><a xlink:href="dir_000027_000332.html" target="_top" xlink:title="12">
<text text-anchor="middle" x="108.15" y="-107.12" font-family="Helvetica,sans-Serif" font-size="10.00">12</text>
</a>
</g>
</g>
<!-- dir_8252de5d69c3af07b8a2376d859f0c45&#45;&gt;dir_747a59f03bffd30f5d702bf863535a96 -->
<g id="edge2" class="edge">
<title>dir_8252de5d69c3af07b8a2376d859f0c45&#45;&gt;dir_747a59f03bffd30f5d702bf863535a96</title>
<path fill="none" stroke="black" d="M183,-143.7C183,-135.98 183,-126.71 183,-118.11"/>
<polygon fill="black" stroke="black" points="186.5,-118.1 183,-108.1 179.5,-118.1 186.5,-118.1"/>
<g id="a_edge2&#45;headlabel"><a xlink:href="dir_000027_000331.html" target="_top" xlink:title="1">
<text text-anchor="middle" x="189.34" y="-119.2" font-family="Helvetica,sans-Serif" font-size="10.00">1</text>
</a>
</g>
</g>
<!-- dir_8252de5d69c3af07b8a2376d859f0c45&#45;&gt;dir_8fc3e8efef0bfca4a113d719cbd52afb -->
<g id="edge3" class="edge">
<title>dir_8252de5d69c3af07b8a2376d859f0c45&#45;&gt;dir_8fc3e8efef0bfca4a113d719cbd52afb</title>
<path fill="none" stroke="black" d="M213.3,-143.8C225.88,-134.9 239.12,-122.77 246,-108 254.25,-90.27 254.95,-81.39 246,-64 240.03,-52.4 229.53,-43.13 218.8,-36.09"/>
<polygon fill="black" stroke="black" points="220.59,-33.08 210.22,-30.91 216.98,-39.07 220.59,-33.08"/>
<g id="a_edge3&#45;headlabel"><a xlink:href="dir_000027_000719.html" target="_top" xlink:title="7">
<text text-anchor="middle" x="225.13" y="-30" font-family="Helvetica,sans-Serif" font-size="10.00">7</text>
</a>
</g>
</g>
</g>
</svg>
