<?xml version="1.0" encoding="UTF-8" standalone="no"?>
<!DOCTYPE svg PUBLIC "-//W3C//DTD SVG 1.1//EN"
 "http://www.w3.org/Graphics/SVG/1.1/DTD/svg11.dtd">
<!-- Generated by graphviz version 2.43.0 (0)
 -->
<!-- Title: /home/runner/work/Documentation/Documentation/master/kratos/solving_strategies Pages: 1 -->
<!--zoomable 535 -->
<svg id="main" version="1.1" xmlns="http://www.w3.org/2000/svg" xmlns:xlink="http://www.w3.org/1999/xlink" xml:space="preserve" onload="init(evt)">
<style type="text/css"><![CDATA[
.edge:hover path { stroke: red; }
.edge:hover polygon { stroke: red; fill: red; }
]]></style>
<script type="text/javascript"><![CDATA[
var edges = document.getElementsByTagName('g');
if (edges && edges.length) {
  for (var i=0;i<edges.length;i++) {
    if (edges[i].id.substr(0,4)=='edge') {
      edges[i].setAttribute('class','edge');
    }
  }
}
]]></script>
        <defs>
                <circle id="rim" cx="0" cy="0" r="7"/>
                <circle id="rim2" cx="0" cy="0" r="3.5"/>
                <g id="zoomPlus">
                        <use xlink:href="#rim" fill="#404040">
                                <set attributeName="fill" to="#808080" begin="zoomplus.mouseover" end="zoomplus.mouseout"/>
                        </use>
                        <path d="M-4,0h8M0,-4v8" fill="none" stroke="white" stroke-width="1.5" pointer-events="none"/>
                </g>
                <g id="zoomMin">
                        <use xlink:href="#rim" fill="#404040">
                                <set attributeName="fill" to="#808080" begin="zoomminus.mouseover" end="zoomminus.mouseout"/>
                        </use>
                        <path d="M-4,0h8" fill="none" stroke="white" stroke-width="1.5" pointer-events="none"/>
                </g>
                <g id="dirArrow">
                        <path fill="none" stroke="white" stroke-width="1.5" d="M0,-3.0v7 M-2.5,-0.5L0,-3.0L2.5,-0.5"/>
                </g>
               <g id="resetDef">
                       <use xlink:href="#rim2" fill="#404040">
                               <set attributeName="fill" to="#808080" begin="reset.mouseover" end="reset.mouseout"/>
                       </use>
               </g>
        </defs>

<script type="text/javascript">
var viewWidth = 534;
var viewHeight = 535;
var sectionId = 'dynsection-0';
</script>
<script xlink:href="svgpan.js"/>
<svg id="graph" class="graph">
<g id="viewport">
<title>/home/runner/work/Documentation/Documentation/master/kratos/solving_strategies</title>
<g id="clust1" class="cluster">
<title>clusterdir_8fc3e8efef0bfca4a113d719cbd52afb</title>
<g id="a_clust1"><a xlink:href="dir_8fc3e8efef0bfca4a113d719cbd52afb.html" target="_top" xlink:title="kratos">
<polygon fill="#ddddee" stroke="black" points="8,-8 8,-519 518,-519 518,-8 8,-8"/>
<text text-anchor="middle" x="263" y="-507" font-family="Helvetica,sans-Serif" font-size="10.00">kratos</text>
</a>
</g>
</g>
<g id="clust2" class="cluster">
<title>clusterdir_fdea7736ef62293a5901d28bce787dd1</title>
<g id="a_clust2"><a xlink:href="dir_fdea7736ef62293a5901d28bce787dd1.html" target="_top">
<polygon fill="#eeeeff" stroke="black" points="142,-296 142,-492 510,-492 510,-296 142,-296"/>
</a>
</g>
</g>
<!-- dir_4bf86485d60c2e09cb36d324d749dc60 -->
<g id="node1" class="node">
<title>dir_4bf86485d60c2e09cb36d324d749dc60</title>
<g id="a_node1"><a xlink:href="dir_4bf86485d60c2e09cb36d324d749dc60.html" target="_top" xlink:title="factories">
<polygon fill="none" stroke="black" points="96.5,-412 37.5,-412 37.5,-376 96.5,-376 96.5,-412"/>
<text text-anchor="middle" x="67" y="-391.5" font-family="Helvetica,sans-Serif" font-size="10.00">factories</text>
</a>
</g>
</g>
<!-- dir_6da2b5da699b6e8099c18b866a052d71 -->
<g id="node2" class="node">
<title>dir_6da2b5da699b6e8099c18b866a052d71</title>
<g id="a_node2"><a xlink:href="dir_6da2b5da699b6e8099c18b866a052d71.html" target="_top" xlink:title="includes">
<polygon fill="none" stroke="black" points="133.5,-340 76.5,-340 76.5,-304 133.5,-304 133.5,-340"/>
<text text-anchor="middle" x="105" y="-319.5" font-family="Helvetica,sans-Serif" font-size="10.00">includes</text>
</a>
</g>
</g>
<!-- dir_4bf86485d60c2e09cb36d324d749dc60&#45;&gt;dir_6da2b5da699b6e8099c18b866a052d71 -->
<g id="edge6" class="edge">
<title>dir_4bf86485d60c2e09cb36d324d749dc60&#45;&gt;dir_6da2b5da699b6e8099c18b866a052d71</title>
<path fill="none" stroke="black" d="M76.39,-375.7C80.76,-367.64 86.06,-357.89 90.9,-348.98"/>
<polygon fill="black" stroke="black" points="94.02,-350.56 95.71,-340.1 87.87,-347.22 94.02,-350.56"/>
<g id="a_edge6&#45;headlabel"><a xlink:href="dir_000726_000729.html" target="_top" xlink:title="18">
<text text-anchor="middle" x="94.8" y="-352.58" font-family="Helvetica,sans-Serif" font-size="10.00">18</text>
</a>
</g>
</g>
<!-- dir_80b24cd11685060440d77842b83d8f07 -->
<g id="node4" class="node">
<title>dir_80b24cd11685060440d77842b83d8f07</title>
<g id="a_node4"><a xlink:href="dir_80b24cd11685060440d77842b83d8f07.html" target="_top" xlink:title="containers">
<polygon fill="none" stroke="black" points="200,-124 132,-124 132,-88 200,-88 200,-124"/>
<text text-anchor="middle" x="166" y="-103.5" font-family="Helvetica,sans-Serif" font-size="10.00">containers</text>
</a>
</g>
</g>
<!-- dir_4bf86485d60c2e09cb36d324d749dc60&#45;&gt;dir_80b24cd11685060440d77842b83d8f07 -->
<g id="edge7" class="edge">
<title>dir_4bf86485d60c2e09cb36d324d749dc60&#45;&gt;dir_80b24cd11685060440d77842b83d8f07</title>
<path fill="none" stroke="black" d="M51.82,-375.7C44.27,-365.94 35.93,-353.1 32,-340 18.19,-294.03 19.96,-278.47 32,-232 41.18,-196.56 46.2,-185.97 72,-160 86.26,-145.65 105.22,-133.97 122.37,-125.27"/>
<polygon fill="black" stroke="black" points="124.22,-128.27 131.68,-120.74 121.15,-121.97 124.22,-128.27"/>
<g id="a_edge7&#45;headlabel"><a xlink:href="dir_000726_000722.html" target="_top" xlink:title="1">
<text text-anchor="middle" x="122.23" y="-129.89" font-family="Helvetica,sans-Serif" font-size="10.00">1</text>
</a>
</g>
</g>
<!-- dir_bd2ce17ba33a86142a4fe49271950777 -->
<g id="node7" class="node">
<title>dir_bd2ce17ba33a86142a4fe49271950777</title>
<g id="a_node7"><a xlink:href="dir_bd2ce17ba33a86142a4fe49271950777.html" target="_top" xlink:title="spaces">
<polygon fill="none" stroke="black" points="170,-196 116,-196 116,-160 170,-160 170,-196"/>
<text text-anchor="middle" x="143" y="-175.5" font-family="Helvetica,sans-Serif" font-size="10.00">spaces</text>
</a>
</g>
</g>
<!-- dir_4bf86485d60c2e09cb36d324d749dc60&#45;&gt;dir_bd2ce17ba33a86142a4fe49271950777 -->
<g id="edge9" class="edge">
<title>dir_4bf86485d60c2e09cb36d324d749dc60&#45;&gt;dir_bd2ce17ba33a86142a4fe49271950777</title>
<path fill="none" stroke="black" d="M64.36,-375.75C61.98,-356.02 59.95,-322.95 68,-296 78.47,-260.95 102.85,-226.37 120.99,-204"/>
<polygon fill="black" stroke="black" points="123.89,-205.98 127.59,-196.06 118.51,-201.51 123.89,-205.98"/>
<g id="a_edge9&#45;headlabel"><a xlink:href="dir_000726_000769.html" target="_top" xlink:title="5">
<text text-anchor="middle" x="123.78" y="-208.06" font-family="Helvetica,sans-Serif" font-size="10.00">5</text>
</a>
</g>
</g>
<!-- dir_fdea7736ef62293a5901d28bce787dd1 -->
<g id="node8" class="node">
<title>dir_fdea7736ef62293a5901d28bce787dd1</title>
<text text-anchor="middle" x="365" y="-463.5" font-family="Helvetica,sans-Serif" font-size="10.00">solving_strategies</text>
</g>
<!-- dir_4bf86485d60c2e09cb36d324d749dc60&#45;&gt;dir_fdea7736ef62293a5901d28bce787dd1 -->
<g id="edge10" class="edge">
<title>dir_4bf86485d60c2e09cb36d324d749dc60&#45;&gt;dir_fdea7736ef62293a5901d28bce787dd1</title>
<path fill="none" stroke="black" d="M96.57,-407.27C101.35,-409.01 106.27,-410.66 111,-412 191.49,-434.89 216.59,-428.99 302.1,-447.92"/>
<polygon fill="black" stroke="black" points="301.45,-451.36 311.97,-450.15 302.99,-444.53 301.45,-451.36"/>
<g id="a_edge10&#45;headlabel"><a xlink:href="dir_000726_000762.html" target="_top" xlink:title="1">
<text text-anchor="middle" x="297.31" y="-450.83" font-family="Helvetica,sans-Serif" font-size="10.00">1</text>
</a>
</g>
</g>
<!-- dir_84722a22f804f3734a04c6a9d1859e65 -->
<g id="node9" class="node">
<title>dir_84722a22f804f3734a04c6a9d1859e65</title>
<g id="a_node9"><a xlink:href="dir_84722a22f804f3734a04c6a9d1859e65.html" target="_top" xlink:title="builder_and_solvers">
<polygon fill="white" stroke="black" points="447,-412 333,-412 333,-376 447,-376 447,-412"/>
<text text-anchor="middle" x="390" y="-391.5" font-family="Helvetica,sans-Serif" font-size="10.00">builder_and_solvers</text>
</a>
</g>
</g>
<!-- dir_4bf86485d60c2e09cb36d324d749dc60&#45;&gt;dir_84722a22f804f3734a04c6a9d1859e65 -->
<g id="edge8" class="edge">
<title>dir_4bf86485d60c2e09cb36d324d749dc60&#45;&gt;dir_84722a22f804f3734a04c6a9d1859e65</title>
<path fill="none" stroke="black" d="M96.73,-411.01C111.37,-418.42 129.58,-426.26 147,-430 220,-445.67 242.19,-446.57 315,-430 327.21,-427.22 339.76,-422.19 351.01,-416.76"/>
<polygon fill="black" stroke="black" points="352.78,-419.78 360.12,-412.14 349.62,-413.54 352.78,-419.78"/>
<g id="a_edge8&#45;headlabel"><a xlink:href="dir_000726_000763.html" target="_top" xlink:title="1">
<text text-anchor="middle" x="350.86" y="-421.44" font-family="Helvetica,sans-Serif" font-size="10.00">1</text>
</a>
</g>
</g>
<!-- dir_70f98bb657cca0a872199855cac08757 -->
<g id="node3" class="node">
<title>dir_70f98bb657cca0a872199855cac08757</title>
<g id="a_node3"><a xlink:href="dir_70f98bb657cca0a872199855cac08757.html" target="_top" xlink:title="utilities">
<polygon fill="none" stroke="red" points="269,-268 215,-268 215,-232 269,-232 269,-268"/>
<text text-anchor="middle" x="242" y="-247.5" font-family="Helvetica,sans-Serif" font-size="10.00">utilities</text>
</a>
</g>
</g>
<!-- dir_6da2b5da699b6e8099c18b866a052d71&#45;&gt;dir_70f98bb657cca0a872199855cac08757 -->
<g id="edge37" class="edge">
<title>dir_6da2b5da699b6e8099c18b866a052d71&#45;&gt;dir_70f98bb657cca0a872199855cac08757</title>
<path fill="none" stroke="black" d="M117.28,-303.82C120.98,-301.04 125.03,-298.32 129,-296 152.98,-282 182.12,-269.77 204.96,-261.6"/>
<polygon fill="black" stroke="black" points="206.34,-264.82 214.65,-258.25 204.05,-258.21 206.34,-264.82"/>
<g id="a_edge37&#45;headlabel"><a xlink:href="dir_000729_000775.html" target="_top" xlink:title="13">
<text text-anchor="middle" x="203.87" y="-266.18" font-family="Helvetica,sans-Serif" font-size="10.00">13</text>
</a>
</g>
</g>
<!-- dir_6da2b5da699b6e8099c18b866a052d71&#45;&gt;dir_80b24cd11685060440d77842b83d8f07 -->
<g id="edge38" class="edge">
<title>dir_6da2b5da699b6e8099c18b866a052d71&#45;&gt;dir_80b24cd11685060440d77842b83d8f07</title>
<path fill="none" stroke="black" d="M95.48,-303.58C85.49,-272.94 76.18,-208.12 98,-160 103.48,-147.91 113.2,-137.41 123.68,-129.01"/>
<polygon fill="black" stroke="black" points="125.82,-131.78 131.77,-123.01 121.65,-126.15 125.82,-131.78"/>
<g id="a_edge38&#45;headlabel"><a xlink:href="dir_000729_000722.html" target="_top" xlink:title="62">
<text text-anchor="middle" x="124.62" y="-133.7" font-family="Helvetica,sans-Serif" font-size="10.00">62</text>
</a>
</g>
</g>
<!-- dir_a8ba84f8eb43664bd905ad17f89003d4 -->
<g id="node6" class="node">
<title>dir_a8ba84f8eb43664bd905ad17f89003d4</title>
<g id="a_node6"><a xlink:href="dir_a8ba84f8eb43664bd905ad17f89003d4.html" target="_top" xlink:title="input_output">
<polygon fill="none" stroke="black" points="205,-52 127,-52 127,-16 205,-16 205,-52"/>
<text text-anchor="middle" x="166" y="-31.5" font-family="Helvetica,sans-Serif" font-size="10.00">input_output</text>
</a>
</g>
</g>
<!-- dir_6da2b5da699b6e8099c18b866a052d71&#45;&gt;dir_a8ba84f8eb43664bd905ad17f89003d4 -->
<g id="edge39" class="edge">
<title>dir_6da2b5da699b6e8099c18b866a052d71&#45;&gt;dir_a8ba84f8eb43664bd905ad17f89003d4</title>
<path fill="none" stroke="black" d="M90.47,-303.63C85.8,-293.42 81.8,-280.17 80,-268 76.93,-247.18 81.51,-166.53 83,-160 90.74,-126.03 95.97,-117.81 114,-88 119.92,-78.22 127.48,-68.28 135.09,-59.7"/>
<polygon fill="black" stroke="black" points="137.79,-61.94 142.05,-52.24 132.67,-57.17 137.79,-61.94"/>
<g id="a_edge39&#45;headlabel"><a xlink:href="dir_000729_000730.html" target="_top" xlink:title="4">
<text text-anchor="middle" x="137.41" y="-64.01" font-family="Helvetica,sans-Serif" font-size="10.00">4</text>
</a>
</g>
</g>
<!-- dir_70f98bb657cca0a872199855cac08757&#45;&gt;dir_6da2b5da699b6e8099c18b866a052d71 -->
<g id="edge19" class="edge">
<title>dir_70f98bb657cca0a872199855cac08757&#45;&gt;dir_6da2b5da699b6e8099c18b866a052d71</title>
<path fill="none" stroke="black" d="M214.64,-263.79C195.15,-271.88 168.92,-283.21 147,-296 145.32,-296.98 143.63,-298.03 141.94,-299.12"/>
<polygon fill="black" stroke="black" points="139.81,-296.34 133.51,-304.86 143.75,-302.13 139.81,-296.34"/>
<g id="a_edge19&#45;headlabel"><a xlink:href="dir_000775_000729.html" target="_top" xlink:title="221">
<text text-anchor="middle" x="141.18" y="-289.47" font-family="Helvetica,sans-Serif" font-size="10.00">221</text>
</a>
</g>
</g>
<!-- dir_70f98bb657cca0a872199855cac08757&#45;&gt;dir_80b24cd11685060440d77842b83d8f07 -->
<g id="edge20" class="edge">
<title>dir_70f98bb657cca0a872199855cac08757&#45;&gt;dir_80b24cd11685060440d77842b83d8f07</title>
<path fill="none" stroke="black" d="M218.24,-231.82C208.61,-221.9 198.32,-208.86 191,-196 179.78,-176.29 170.83,-152.17 166.31,-134.01"/>
<polygon fill="black" stroke="black" points="169.7,-133.13 164.18,-124.09 162.86,-134.6 169.7,-133.13"/>
<g id="a_edge20&#45;headlabel"><a xlink:href="dir_000775_000722.html" target="_top" xlink:title="31">
<text text-anchor="middle" x="173.23" y="-133.55" font-family="Helvetica,sans-Serif" font-size="10.00">31</text>
</a>
</g>
</g>
<!-- dir_8ca372e2f9eb6368b085be2e79cef818 -->
<g id="node5" class="node">
<title>dir_8ca372e2f9eb6368b085be2e79cef818</title>
<g id="a_node5"><a xlink:href="dir_8ca372e2f9eb6368b085be2e79cef818.html" target="_top" xlink:title="response_functions">
<polygon fill="none" stroke="black" points="319.5,-196 208.5,-196 208.5,-160 319.5,-160 319.5,-196"/>
<text text-anchor="middle" x="264" y="-175.5" font-family="Helvetica,sans-Serif" font-size="10.00">response_functions</text>
</a>
</g>
</g>
<!-- dir_70f98bb657cca0a872199855cac08757&#45;&gt;dir_8ca372e2f9eb6368b085be2e79cef818 -->
<g id="edge21" class="edge">
<title>dir_70f98bb657cca0a872199855cac08757&#45;&gt;dir_8ca372e2f9eb6368b085be2e79cef818</title>
<path fill="none" stroke="black" d="M247.44,-231.7C249.89,-223.9 252.84,-214.51 255.57,-205.83"/>
<polygon fill="black" stroke="black" points="258.96,-206.69 258.62,-196.1 252.29,-204.59 258.96,-206.69"/>
<g id="a_edge21&#45;headlabel"><a xlink:href="dir_000775_000761.html" target="_top" xlink:title="1">
<text text-anchor="middle" x="260.6" y="-208.47" font-family="Helvetica,sans-Serif" font-size="10.00">1</text>
</a>
</g>
</g>
<!-- dir_70f98bb657cca0a872199855cac08757&#45;&gt;dir_a8ba84f8eb43664bd905ad17f89003d4 -->
<g id="edge23" class="edge">
<title>dir_70f98bb657cca0a872199855cac08757&#45;&gt;dir_a8ba84f8eb43664bd905ad17f89003d4</title>
<path fill="none" stroke="black" d="M269.31,-237.3C287.16,-228.99 308.91,-215.74 320,-196 327.84,-182.05 327.08,-174.35 320,-160 296.36,-112.09 244.58,-77.45 207.48,-56.95"/>
<polygon fill="black" stroke="black" points="208.85,-53.72 198.39,-52.05 205.53,-59.88 208.85,-53.72"/>
<g id="a_edge23&#45;headlabel"><a xlink:href="dir_000775_000730.html" target="_top" xlink:title="7">
<text text-anchor="middle" x="213.36" y="-50.42" font-family="Helvetica,sans-Serif" font-size="10.00">7</text>
</a>
</g>
</g>
<!-- dir_70f98bb657cca0a872199855cac08757&#45;&gt;dir_bd2ce17ba33a86142a4fe49271950777 -->
<g id="edge24" class="edge">
<title>dir_70f98bb657cca0a872199855cac08757&#45;&gt;dir_bd2ce17ba33a86142a4fe49271950777</title>
<path fill="none" stroke="black" d="M214.84,-233.81C200.72,-224.62 183.64,-212.71 169.61,-202.34"/>
<polygon fill="black" stroke="black" points="171.42,-199.33 161.32,-196.13 167.22,-204.93 171.42,-199.33"/>
<g id="a_edge24&#45;headlabel"><a xlink:href="dir_000775_000769.html" target="_top" xlink:title="6">
<text text-anchor="middle" x="176" y="-196.72" font-family="Helvetica,sans-Serif" font-size="10.00">6</text>
</a>
</g>
</g>
<!-- dir_70f98bb657cca0a872199855cac08757&#45;&gt;dir_fdea7736ef62293a5901d28bce787dd1 -->
<g id="edge25" class="edge">
<title>dir_70f98bb657cca0a872199855cac08757&#45;&gt;dir_fdea7736ef62293a5901d28bce787dd1</title>
<path fill="none" stroke="black" d="M214.7,-260.57C198.87,-267.69 180.29,-279.12 171,-296 146.15,-341.17 139.71,-371.03 171,-412 206.04,-457.87 240.64,-434.64 301.85,-447.97"/>
<polygon fill="black" stroke="black" points="301.36,-451.45 311.9,-450.44 303.02,-444.65 301.36,-451.45"/>
<g id="a_edge25&#45;headlabel"><a xlink:href="dir_000775_000762.html" target="_top" xlink:title="2">
<text text-anchor="middle" x="297.19" y="-450.85" font-family="Helvetica,sans-Serif" font-size="10.00">2</text>
</a>
</g>
</g>
<!-- dir_a57845194016cdf310b01d0839f73000 -->
<g id="node12" class="node">
<title>dir_a57845194016cdf310b01d0839f73000</title>
<g id="a_node12"><a xlink:href="dir_a57845194016cdf310b01d0839f73000.html" target="_top" xlink:title="schemes">
<polygon fill="white" stroke="black" points="360,-340 300,-340 300,-304 360,-304 360,-340"/>
<text text-anchor="middle" x="330" y="-319.5" font-family="Helvetica,sans-Serif" font-size="10.00">schemes</text>
</a>
</g>
</g>
<!-- dir_70f98bb657cca0a872199855cac08757&#45;&gt;dir_a57845194016cdf310b01d0839f73000 -->
<g id="edge22" class="edge">
<title>dir_70f98bb657cca0a872199855cac08757&#45;&gt;dir_a57845194016cdf310b01d0839f73000</title>
<path fill="none" stroke="black" d="M269.07,-267.86C280.97,-276.59 294.75,-287.4 306.25,-296.98"/>
<polygon fill="black" stroke="black" points="304.27,-299.89 314.16,-303.7 308.8,-294.56 304.27,-299.89"/>
<g id="a_edge22&#45;headlabel"><a xlink:href="dir_000775_000766.html" target="_top" xlink:title="2">
<text text-anchor="middle" x="299.7" y="-297.23" font-family="Helvetica,sans-Serif" font-size="10.00">2</text>
</a>
</g>
</g>
<!-- dir_80b24cd11685060440d77842b83d8f07&#45;&gt;dir_6da2b5da699b6e8099c18b866a052d71 -->
<g id="edge1" class="edge">
<title>dir_80b24cd11685060440d77842b83d8f07&#45;&gt;dir_6da2b5da699b6e8099c18b866a052d71</title>
<path fill="none" stroke="black" d="M146.44,-124.16C135.33,-133.21 122.6,-145.45 116,-160 96.4,-203.23 101.92,-259.95 105.23,-293.24"/>
<polygon fill="black" stroke="black" points="101.79,-293.96 106.23,-303.58 108.76,-293.29 101.79,-293.96"/>
<g id="a_edge1&#45;headlabel"><a xlink:href="dir_000722_000729.html" target="_top" xlink:title="65">
<text text-anchor="middle" x="98.62" y="-288.15" font-family="Helvetica,sans-Serif" font-size="10.00">65</text>
</a>
</g>
</g>
<!-- dir_80b24cd11685060440d77842b83d8f07&#45;&gt;dir_70f98bb657cca0a872199855cac08757 -->
<g id="edge2" class="edge">
<title>dir_80b24cd11685060440d77842b83d8f07&#45;&gt;dir_70f98bb657cca0a872199855cac08757</title>
<path fill="none" stroke="black" d="M177.45,-124.09C185.4,-142.53 195.58,-172.43 209,-196 214.49,-205.64 221.65,-215.39 228.04,-223.85"/>
<polygon fill="black" stroke="black" points="225.26,-225.97 234.1,-231.82 230.84,-221.74 225.26,-225.97"/>
<g id="a_edge2&#45;headlabel"><a xlink:href="dir_000722_000775.html" target="_top" xlink:title="22">
<text text-anchor="middle" x="220.83" y="-222.32" font-family="Helvetica,sans-Serif" font-size="10.00">22</text>
</a>
</g>
</g>
<!-- dir_80b24cd11685060440d77842b83d8f07&#45;&gt;dir_a8ba84f8eb43664bd905ad17f89003d4 -->
<g id="edge3" class="edge">
<title>dir_80b24cd11685060440d77842b83d8f07&#45;&gt;dir_a8ba84f8eb43664bd905ad17f89003d4</title>
<path fill="none" stroke="black" d="M160.08,-87.7C159.29,-79.98 159.06,-70.71 159.4,-62.11"/>
<polygon fill="black" stroke="black" points="162.9,-62.32 160.1,-52.1 155.92,-61.84 162.9,-62.32"/>
<g id="a_edge3&#45;headlabel"><a xlink:href="dir_000722_000730.html" target="_top" xlink:title="1">
<text text-anchor="middle" x="165.48" y="-63.61" font-family="Helvetica,sans-Serif" font-size="10.00">1</text>
</a>
</g>
</g>
<!-- dir_8ca372e2f9eb6368b085be2e79cef818&#45;&gt;dir_6da2b5da699b6e8099c18b866a052d71 -->
<g id="edge17" class="edge">
<title>dir_8ca372e2f9eb6368b085be2e79cef818&#45;&gt;dir_6da2b5da699b6e8099c18b866a052d71</title>
<path fill="none" stroke="black" d="M244.75,-196.19C216.54,-221.39 163.85,-268.45 131.84,-297.03"/>
<polygon fill="black" stroke="black" points="129.31,-294.6 124.18,-303.87 133.97,-299.82 129.31,-294.6"/>
<g id="a_edge17&#45;headlabel"><a xlink:href="dir_000761_000729.html" target="_top" xlink:title="5">
<text text-anchor="middle" x="130.1" y="-287.59" font-family="Helvetica,sans-Serif" font-size="10.00">5</text>
</a>
</g>
</g>
<!-- dir_8ca372e2f9eb6368b085be2e79cef818&#45;&gt;dir_80b24cd11685060440d77842b83d8f07 -->
<g id="edge18" class="edge">
<title>dir_8ca372e2f9eb6368b085be2e79cef818&#45;&gt;dir_80b24cd11685060440d77842b83d8f07</title>
<path fill="none" stroke="black" d="M240.03,-159.88C227.45,-150.89 211.87,-139.76 198.25,-130.03"/>
<polygon fill="black" stroke="black" points="200.24,-127.15 190.07,-124.19 196.17,-132.85 200.24,-127.15"/>
<g id="a_edge18&#45;headlabel"><a xlink:href="dir_000761_000722.html" target="_top" xlink:title="2">
<text text-anchor="middle" x="204.81" y="-124.43" font-family="Helvetica,sans-Serif" font-size="10.00">2</text>
</a>
</g>
</g>
<!-- dir_a8ba84f8eb43664bd905ad17f89003d4&#45;&gt;dir_6da2b5da699b6e8099c18b866a052d71 -->
<g id="edge40" class="edge">
<title>dir_a8ba84f8eb43664bd905ad17f89003d4&#45;&gt;dir_6da2b5da699b6e8099c18b866a052d71</title>
<path fill="none" stroke="black" d="M157.9,-52.24C150.27,-62.19 139.73,-75.23 132,-88 113.97,-117.81 108.74,-126.03 101,-160 99.51,-166.53 94.93,-247.18 98,-268 99.26,-276.56 101.62,-285.65 103.74,-293.84"/>
<polygon fill="black" stroke="black" points="100.38,-294.79 106.22,-303.63 107.16,-293.07 100.38,-294.79"/>
<g id="a_edge40&#45;headlabel"><a xlink:href="dir_000730_000729.html" target="_top" xlink:title="33">
<text text-anchor="middle" x="96.74" y="-289.51" font-family="Helvetica,sans-Serif" font-size="10.00">33</text>
</a>
</g>
</g>
<!-- dir_a8ba84f8eb43664bd905ad17f89003d4&#45;&gt;dir_70f98bb657cca0a872199855cac08757 -->
<g id="edge41" class="edge">
<title>dir_a8ba84f8eb43664bd905ad17f89003d4&#45;&gt;dir_70f98bb657cca0a872199855cac08757</title>
<path fill="none" stroke="black" d="M205,-48.94C246.98,-67.69 310.94,-105.15 338,-160 345.08,-174.35 345.84,-182.05 338,-196 325.76,-217.8 300.51,-231.68 278.84,-239.75"/>
<polygon fill="black" stroke="black" points="277.52,-236.5 269.19,-243.05 279.78,-243.12 277.52,-236.5"/>
<g id="a_edge41&#45;headlabel"><a xlink:href="dir_000730_000775.html" target="_top" xlink:title="14">
<text text-anchor="middle" x="280" y="-230.15" font-family="Helvetica,sans-Serif" font-size="10.00">14</text>
</a>
</g>
</g>
<!-- dir_a8ba84f8eb43664bd905ad17f89003d4&#45;&gt;dir_80b24cd11685060440d77842b83d8f07 -->
<g id="edge42" class="edge">
<title>dir_a8ba84f8eb43664bd905ad17f89003d4&#45;&gt;dir_80b24cd11685060440d77842b83d8f07</title>
<path fill="none" stroke="black" d="M171.9,-52.1C172.7,-59.79 172.94,-69.05 172.6,-77.67"/>
<polygon fill="black" stroke="black" points="169.11,-77.48 171.92,-87.7 176.09,-77.96 169.11,-77.48"/>
<g id="a_edge42&#45;headlabel"><a xlink:href="dir_000730_000722.html" target="_top" xlink:title="4">
<text text-anchor="middle" x="166.52" y="-71.2" font-family="Helvetica,sans-Serif" font-size="10.00">4</text>
</a>
</g>
</g>
<!-- dir_bd2ce17ba33a86142a4fe49271950777&#45;&gt;dir_6da2b5da699b6e8099c18b866a052d71 -->
<g id="edge34" class="edge">
<title>dir_bd2ce17ba33a86142a4fe49271950777&#45;&gt;dir_6da2b5da699b6e8099c18b866a052d71</title>
<path fill="none" stroke="black" d="M138.4,-196.19C131.89,-220.53 119.91,-265.28 112.21,-294.06"/>
<polygon fill="black" stroke="black" points="108.79,-293.31 109.58,-303.87 115.55,-295.12 108.79,-293.31"/>
<g id="a_edge34&#45;headlabel"><a xlink:href="dir_000769_000729.html" target="_top" xlink:title="7">
<text text-anchor="middle" x="106.97" y="-286.6" font-family="Helvetica,sans-Serif" font-size="10.00">7</text>
</a>
</g>
</g>
<!-- dir_bd2ce17ba33a86142a4fe49271950777&#45;&gt;dir_70f98bb657cca0a872199855cac08757 -->
<g id="edge35" class="edge">
<title>dir_bd2ce17ba33a86142a4fe49271950777&#45;&gt;dir_70f98bb657cca0a872199855cac08757</title>
<path fill="none" stroke="black" d="M170.18,-194.2C184.22,-203.34 201.2,-215.17 215.18,-225.5"/>
<polygon fill="black" stroke="black" points="213.34,-228.5 223.44,-231.7 217.54,-222.9 213.34,-228.5"/>
<g id="a_edge35&#45;headlabel"><a xlink:href="dir_000769_000775.html" target="_top" xlink:title="6">
<text text-anchor="middle" x="208.76" y="-226.11" font-family="Helvetica,sans-Serif" font-size="10.00">6</text>
</a>
</g>
</g>
<!-- dir_bd2ce17ba33a86142a4fe49271950777&#45;&gt;dir_80b24cd11685060440d77842b83d8f07 -->
<g id="edge36" class="edge">
<title>dir_bd2ce17ba33a86142a4fe49271950777&#45;&gt;dir_80b24cd11685060440d77842b83d8f07</title>
<path fill="none" stroke="black" d="M148.69,-159.7C151.25,-151.9 154.33,-142.51 157.18,-133.83"/>
<polygon fill="black" stroke="black" points="160.58,-134.7 160.38,-124.1 153.93,-132.51 160.58,-134.7"/>
<g id="a_edge36&#45;headlabel"><a xlink:href="dir_000769_000722.html" target="_top" xlink:title="3">
<text text-anchor="middle" x="162.16" y="-136.5" font-family="Helvetica,sans-Serif" font-size="10.00">3</text>
</a>
</g>
</g>
<!-- dir_84722a22f804f3734a04c6a9d1859e65&#45;&gt;dir_4bf86485d60c2e09cb36d324d749dc60 -->
<g id="edge11" class="edge">
<title>dir_84722a22f804f3734a04c6a9d1859e65&#45;&gt;dir_4bf86485d60c2e09cb36d324d749dc60</title>
<path fill="none" stroke="black" d="M360.12,-412.14C346.81,-419.2 330.63,-426.44 315,-430 242.19,-446.57 220,-445.67 147,-430 133.12,-427.02 118.73,-421.44 106.06,-415.54"/>
<polygon fill="black" stroke="black" points="107.26,-412.23 96.73,-411.01 104.2,-418.53 107.26,-412.23"/>
<g id="a_edge11&#45;headlabel"><a xlink:href="dir_000763_000726.html" target="_top" xlink:title="1">
<text text-anchor="middle" x="111.73" y="-408.75" font-family="Helvetica,sans-Serif" font-size="10.00">1</text>
</a>
</g>
</g>
<!-- dir_84722a22f804f3734a04c6a9d1859e65&#45;&gt;dir_6da2b5da699b6e8099c18b866a052d71 -->
<g id="edge12" class="edge">
<title>dir_84722a22f804f3734a04c6a9d1859e65&#45;&gt;dir_6da2b5da699b6e8099c18b866a052d71</title>
<path fill="none" stroke="black" d="M332.81,-378.04C329.84,-377.34 326.89,-376.65 324,-376 245.07,-358.21 219.55,-366.82 143.16,-341.58"/>
<polygon fill="black" stroke="black" points="144.18,-338.23 133.58,-338.33 141.93,-344.86 144.18,-338.23"/>
<g id="a_edge12&#45;headlabel"><a xlink:href="dir_000763_000729.html" target="_top" xlink:title="16">
<text text-anchor="middle" x="148.49" y="-334.2" font-family="Helvetica,sans-Serif" font-size="10.00">16</text>
</a>
</g>
</g>
<!-- dir_84722a22f804f3734a04c6a9d1859e65&#45;&gt;dir_70f98bb657cca0a872199855cac08757 -->
<g id="edge13" class="edge">
<title>dir_84722a22f804f3734a04c6a9d1859e65&#45;&gt;dir_70f98bb657cca0a872199855cac08757</title>
<path fill="none" stroke="black" d="M345.51,-375.89C327.05,-367.2 306.39,-355.21 291,-340 273.16,-322.37 260.02,-296.86 251.86,-277.67"/>
<polygon fill="black" stroke="black" points="255.06,-276.23 248.05,-268.28 248.57,-278.87 255.06,-276.23"/>
<g id="a_edge13&#45;headlabel"><a xlink:href="dir_000763_000775.html" target="_top" xlink:title="18">
<text text-anchor="middle" x="259.04" y="-276" font-family="Helvetica,sans-Serif" font-size="10.00">18</text>
</a>
</g>
</g>
<!-- dir_84722a22f804f3734a04c6a9d1859e65&#45;&gt;dir_a8ba84f8eb43664bd905ad17f89003d4 -->
<g id="edge15" class="edge">
<title>dir_84722a22f804f3734a04c6a9d1859e65&#45;&gt;dir_a8ba84f8eb43664bd905ad17f89003d4</title>
<path fill="none" stroke="black" d="M388.62,-375.96C386.58,-349.32 383,-296.17 383,-251 383,-251 383,-251 383,-177 383,-97.19 278.95,-59.82 214.95,-44.39"/>
<polygon fill="black" stroke="black" points="215.58,-40.94 205.05,-42.09 214,-47.76 215.58,-40.94"/>
<g id="a_edge15&#45;headlabel"><a xlink:href="dir_000763_000730.html" target="_top" xlink:title="1">
<text text-anchor="middle" x="219.72" y="-36.48" font-family="Helvetica,sans-Serif" font-size="10.00">1</text>
</a>
</g>
</g>
<!-- dir_84722a22f804f3734a04c6a9d1859e65&#45;&gt;dir_bd2ce17ba33a86142a4fe49271950777 -->
<g id="edge16" class="edge">
<title>dir_84722a22f804f3734a04c6a9d1859e65&#45;&gt;dir_bd2ce17ba33a86142a4fe49271950777</title>
<path fill="none" stroke="black" d="M332.85,-378.24C307.82,-369.84 279.17,-357.45 257,-340 209.52,-302.63 173.34,-240.31 155.44,-205.17"/>
<polygon fill="black" stroke="black" points="158.47,-203.41 150.88,-196.02 152.21,-206.54 158.47,-203.41"/>
<g id="a_edge16&#45;headlabel"><a xlink:href="dir_000763_000769.html" target="_top" xlink:title="3">
<text text-anchor="middle" x="162.62" y="-202.86" font-family="Helvetica,sans-Serif" font-size="10.00">3</text>
</a>
</g>
</g>
<!-- dir_84722a22f804f3734a04c6a9d1859e65&#45;&gt;dir_a57845194016cdf310b01d0839f73000 -->
<g id="edge14" class="edge">
<title>dir_84722a22f804f3734a04c6a9d1859e65&#45;&gt;dir_a57845194016cdf310b01d0839f73000</title>
<path fill="none" stroke="black" d="M375.17,-375.7C367.98,-367.3 359.2,-357.07 351.31,-347.86"/>
<polygon fill="black" stroke="black" points="353.83,-345.42 344.66,-340.1 348.51,-349.97 353.83,-345.42"/>
<g id="a_edge14&#45;headlabel"><a xlink:href="dir_000763_000766.html" target="_top" xlink:title="1">
<text text-anchor="middle" x="358.32" y="-343.8" font-family="Helvetica,sans-Serif" font-size="10.00">1</text>
</a>
</g>
</g>
<!-- dir_690a5af3cdf13aa8e1ff7a3fa306e005 -->
<g id="node10" class="node">
<title>dir_690a5af3cdf13aa8e1ff7a3fa306e005</title>
<g id="a_node10"><a xlink:href="dir_690a5af3cdf13aa8e1ff7a3fa306e005.html" target="_top" xlink:title="convergence_accelerators">
<polygon fill="white" stroke="black" points="294,-484 150,-484 150,-448 294,-448 294,-484"/>
<text text-anchor="middle" x="222" y="-463.5" font-family="Helvetica,sans-Serif" font-size="10.00">convergence_accelerators</text>
</a>
</g>
</g>
<!-- dir_690a5af3cdf13aa8e1ff7a3fa306e005&#45;&gt;dir_6da2b5da699b6e8099c18b866a052d71 -->
<g id="edge33" class="edge">
<title>dir_690a5af3cdf13aa8e1ff7a3fa306e005&#45;&gt;dir_6da2b5da699b6e8099c18b866a052d71</title>
<path fill="none" stroke="black" d="M149.8,-454.55C101.09,-445.86 43.04,-431.7 28,-412 18.29,-399.28 20.56,-390.16 28,-376 36.44,-359.94 52.2,-347.8 67.26,-339.22"/>
<polygon fill="black" stroke="black" points="69.29,-342.11 76.49,-334.33 66.01,-335.92 69.29,-342.11"/>
<g id="a_edge33&#45;headlabel"><a xlink:href="dir_000764_000729.html" target="_top" xlink:title="2">
<text text-anchor="middle" x="67.44" y="-343.8" font-family="Helvetica,sans-Serif" font-size="10.00">2</text>
</a>
</g>
</g>
<!-- dir_f6ed064e7e71983d02a1b567e955ecf8 -->
<g id="node11" class="node">
<title>dir_f6ed064e7e71983d02a1b567e955ecf8</title>
<g id="a_node11"><a xlink:href="dir_f6ed064e7e71983d02a1b567e955ecf8.html" target="_top" xlink:title="convergencecriterias">
<polygon fill="white" stroke="black" points="314.5,-412 195.5,-412 195.5,-376 314.5,-376 314.5,-412"/>
<text text-anchor="middle" x="255" y="-391.5" font-family="Helvetica,sans-Serif" font-size="10.00">convergencecriterias</text>
</a>
</g>
</g>
<!-- dir_f6ed064e7e71983d02a1b567e955ecf8&#45;&gt;dir_6da2b5da699b6e8099c18b866a052d71 -->
<g id="edge4" class="edge">
<title>dir_f6ed064e7e71983d02a1b567e955ecf8&#45;&gt;dir_6da2b5da699b6e8099c18b866a052d71</title>
<path fill="none" stroke="black" d="M216.04,-375.94C195.5,-366.81 169.7,-355.15 142.88,-342.31"/>
<polygon fill="black" stroke="black" points="144.28,-339.11 133.75,-337.92 141.25,-345.41 144.28,-339.11"/>
<g id="a_edge4&#45;headlabel"><a xlink:href="dir_000765_000729.html" target="_top" xlink:title="10">
<text text-anchor="middle" x="148.75" y="-335.61" font-family="Helvetica,sans-Serif" font-size="10.00">10</text>
</a>
</g>
</g>
<!-- dir_f6ed064e7e71983d02a1b567e955ecf8&#45;&gt;dir_70f98bb657cca0a872199855cac08757 -->
<g id="edge5" class="edge">
<title>dir_f6ed064e7e71983d02a1b567e955ecf8&#45;&gt;dir_70f98bb657cca0a872199855cac08757</title>
<path fill="none" stroke="black" d="M253.43,-375.87C251.22,-351.67 247.15,-307.21 244.51,-278.39"/>
<polygon fill="black" stroke="black" points="247.97,-277.83 243.57,-268.19 241,-278.47 247.97,-277.83"/>
<g id="a_edge5&#45;headlabel"><a xlink:href="dir_000765_000775.html" target="_top" xlink:title="5">
<text text-anchor="middle" x="251.13" y="-278.65" font-family="Helvetica,sans-Serif" font-size="10.00">5</text>
</a>
</g>
</g>
<!-- dir_a57845194016cdf310b01d0839f73000&#45;&gt;dir_6da2b5da699b6e8099c18b866a052d71 -->
<g id="edge43" class="edge">
<title>dir_a57845194016cdf310b01d0839f73000&#45;&gt;dir_6da2b5da699b6e8099c18b866a052d71</title>
<path fill="none" stroke="black" d="M299.69,-322C247.67,-322 195.65,-322 143.62,-322"/>
<polygon fill="black" stroke="black" points="143.56,-318.5 133.56,-322 143.56,-325.5 143.56,-318.5"/>
<g id="a_edge43&#45;headlabel"><a xlink:href="dir_000766_000729.html" target="_top" xlink:title="24">
<text text-anchor="middle" x="147.16" y="-313.16" font-family="Helvetica,sans-Serif" font-size="10.00">24</text>
</a>
</g>
</g>
<!-- dir_a57845194016cdf310b01d0839f73000&#45;&gt;dir_70f98bb657cca0a872199855cac08757 -->
<g id="edge44" class="edge">
<title>dir_a57845194016cdf310b01d0839f73000&#45;&gt;dir_70f98bb657cca0a872199855cac08757</title>
<path fill="none" stroke="black" d="M302.33,-303.7C290.45,-294.97 276.8,-284.24 265.43,-274.75"/>
<polygon fill="black" stroke="black" points="267.49,-271.91 257.61,-268.1 262.96,-277.25 267.49,-271.91"/>
<g id="a_edge44&#45;headlabel"><a xlink:href="dir_000766_000775.html" target="_top" xlink:title="16">
<text text-anchor="middle" x="272.07" y="-269.58" font-family="Helvetica,sans-Serif" font-size="10.00">16</text>
</a>
</g>
</g>
<!-- dir_a57845194016cdf310b01d0839f73000&#45;&gt;dir_80b24cd11685060440d77842b83d8f07 -->
<g id="edge45" class="edge">
<title>dir_a57845194016cdf310b01d0839f73000&#45;&gt;dir_80b24cd11685060440d77842b83d8f07</title>
<path fill="none" stroke="black" d="M335.78,-303.97C345.4,-272.22 360.68,-203.32 329,-160 302.03,-123.11 248.76,-111.41 210.46,-107.95"/>
<polygon fill="black" stroke="black" points="210.31,-104.43 200.08,-107.18 209.79,-111.41 210.31,-104.43"/>
<g id="a_edge45&#45;headlabel"><a xlink:href="dir_000766_000722.html" target="_top" xlink:title="1">
<text text-anchor="middle" x="214.11" y="-99.36" font-family="Helvetica,sans-Serif" font-size="10.00">1</text>
</a>
</g>
</g>
<!-- dir_a57845194016cdf310b01d0839f73000&#45;&gt;dir_8ca372e2f9eb6368b085be2e79cef818 -->
<g id="edge46" class="edge">
<title>dir_a57845194016cdf310b01d0839f73000&#45;&gt;dir_8ca372e2f9eb6368b085be2e79cef818</title>
<path fill="none" stroke="black" d="M322.04,-303.87C310.64,-279.35 289.58,-234.03 276.2,-205.26"/>
<polygon fill="black" stroke="black" points="279.38,-203.78 271.99,-196.19 273.03,-206.73 279.38,-203.78"/>
<g id="a_edge46&#45;headlabel"><a xlink:href="dir_000766_000761.html" target="_top" xlink:title="3">
<text text-anchor="middle" x="283.47" y="-203.35" font-family="Helvetica,sans-Serif" font-size="10.00">3</text>
</a>
</g>
</g>
<!-- dir_f3fa20d41003b2417d39e1b01b1098a5 -->
<g id="node13" class="node">
<title>dir_f3fa20d41003b2417d39e1b01b1098a5</title>
<g id="a_node13"><a xlink:href="dir_f3fa20d41003b2417d39e1b01b1098a5.html" target="_top" xlink:title="strategies">
<polygon fill="white" stroke="black" points="501.5,-484 436.5,-484 436.5,-448 501.5,-448 501.5,-484"/>
<text text-anchor="middle" x="469" y="-463.5" font-family="Helvetica,sans-Serif" font-size="10.00">strategies</text>
</a>
</g>
</g>
<!-- dir_f3fa20d41003b2417d39e1b01b1098a5&#45;&gt;dir_4bf86485d60c2e09cb36d324d749dc60 -->
<g id="edge26" class="edge">
<title>dir_f3fa20d41003b2417d39e1b01b1098a5&#45;&gt;dir_4bf86485d60c2e09cb36d324d749dc60</title>
<path fill="none" stroke="black" d="M436.26,-450.8C433.17,-449.74 430.05,-448.79 427,-448 298.69,-414.85 261.13,-437.07 131,-412 123.06,-410.47 114.66,-408.5 106.64,-406.44"/>
<polygon fill="black" stroke="black" points="107.32,-403 96.76,-403.82 105.52,-409.77 107.32,-403"/>
<g id="a_edge26&#45;headlabel"><a xlink:href="dir_000767_000726.html" target="_top" xlink:title="2">
<text text-anchor="middle" x="111.52" y="-398.68" font-family="Helvetica,sans-Serif" font-size="10.00">2</text>
</a>
</g>
</g>
<!-- dir_f3fa20d41003b2417d39e1b01b1098a5&#45;&gt;dir_6da2b5da699b6e8099c18b866a052d71 -->
<g id="edge27" class="edge">
<title>dir_f3fa20d41003b2417d39e1b01b1098a5&#45;&gt;dir_6da2b5da699b6e8099c18b866a052d71</title>
<path fill="none" stroke="black" d="M436.25,-450.86C433.15,-449.79 430.04,-448.82 427,-448 316.03,-418.22 269.77,-470.7 171,-412 164.31,-408.02 139.68,-373.48 122.48,-348.62"/>
<polygon fill="black" stroke="black" points="125.3,-346.55 116.75,-340.3 119.54,-350.52 125.3,-346.55"/>
<g id="a_edge27&#45;headlabel"><a xlink:href="dir_000767_000729.html" target="_top" xlink:title="21">
<text text-anchor="middle" x="129.68" y="-345.4" font-family="Helvetica,sans-Serif" font-size="10.00">21</text>
</a>
</g>
</g>
<!-- dir_f3fa20d41003b2417d39e1b01b1098a5&#45;&gt;dir_70f98bb657cca0a872199855cac08757 -->
<g id="edge28" class="edge">
<title>dir_f3fa20d41003b2417d39e1b01b1098a5&#45;&gt;dir_70f98bb657cca0a872199855cac08757</title>
<path fill="none" stroke="black" d="M436.24,-450.89C433.15,-449.81 430.04,-448.83 427,-448 374.98,-433.78 222.19,-452.86 187,-412 152.88,-372.38 192.24,-310.58 219.77,-276.22"/>
<polygon fill="black" stroke="black" points="222.8,-278.04 226.47,-268.1 217.4,-273.59 222.8,-278.04"/>
<g id="a_edge28&#45;headlabel"><a xlink:href="dir_000767_000775.html" target="_top" xlink:title="8">
<text text-anchor="middle" x="222.71" y="-280.12" font-family="Helvetica,sans-Serif" font-size="10.00">8</text>
</a>
</g>
</g>
<!-- dir_f3fa20d41003b2417d39e1b01b1098a5&#45;&gt;dir_80b24cd11685060440d77842b83d8f07 -->
<g id="edge29" class="edge">
<title>dir_f3fa20d41003b2417d39e1b01b1098a5&#45;&gt;dir_80b24cd11685060440d77842b83d8f07</title>
<path fill="none" stroke="black" d="M436.26,-450.81C433.16,-449.75 430.04,-448.79 427,-448 303.03,-415.69 255.66,-469.15 141,-412 121.03,-402.05 121.88,-391.68 106,-376 89.44,-359.66 77.19,-361.37 68,-340 49.08,-296.01 68,-198.11 92,-160 99.72,-147.73 111.41,-137.45 123.24,-129.31"/>
<polygon fill="black" stroke="black" points="125.32,-132.13 131.81,-123.76 121.52,-126.25 125.32,-132.13"/>
<g id="a_edge29&#45;headlabel"><a xlink:href="dir_000767_000722.html" target="_top" xlink:title="1">
<text text-anchor="middle" x="123.84" y="-133.97" font-family="Helvetica,sans-Serif" font-size="10.00">1</text>
</a>
</g>
</g>
<!-- dir_f3fa20d41003b2417d39e1b01b1098a5&#45;&gt;dir_84722a22f804f3734a04c6a9d1859e65 -->
<g id="edge30" class="edge">
<title>dir_f3fa20d41003b2417d39e1b01b1098a5&#45;&gt;dir_84722a22f804f3734a04c6a9d1859e65</title>
<path fill="none" stroke="black" d="M449.47,-447.7C439.62,-438.97 427.51,-428.24 416.8,-418.75"/>
<polygon fill="black" stroke="black" points="419.11,-416.12 409.3,-412.1 414.47,-421.36 419.11,-416.12"/>
<g id="a_edge30&#45;headlabel"><a xlink:href="dir_000767_000763.html" target="_top" xlink:title="7">
<text text-anchor="middle" x="423.68" y="-413.88" font-family="Helvetica,sans-Serif" font-size="10.00">7</text>
</a>
</g>
</g>
<!-- dir_f3fa20d41003b2417d39e1b01b1098a5&#45;&gt;dir_f6ed064e7e71983d02a1b567e955ecf8 -->
<g id="edge32" class="edge">
<title>dir_f3fa20d41003b2417d39e1b01b1098a5&#45;&gt;dir_f6ed064e7e71983d02a1b567e955ecf8</title>
<path fill="none" stroke="black" d="M436.09,-451.37C433.03,-450.19 429.96,-449.05 427,-448 393.66,-436.14 356.16,-424.4 324.7,-415"/>
<polygon fill="black" stroke="black" points="325.3,-411.52 314.72,-412.03 323.3,-418.23 325.3,-411.52"/>
<g id="a_edge32&#45;headlabel"><a xlink:href="dir_000767_000765.html" target="_top" xlink:title="3">
<text text-anchor="middle" x="329.55" y="-407.33" font-family="Helvetica,sans-Serif" font-size="10.00">3</text>
</a>
</g>
</g>
<!-- dir_f3fa20d41003b2417d39e1b01b1098a5&#45;&gt;dir_a57845194016cdf310b01d0839f73000 -->
<g id="edge31" class="edge">
<title>dir_f3fa20d41003b2417d39e1b01b1098a5&#45;&gt;dir_a57845194016cdf310b01d0839f73000</title>
<path fill="none" stroke="black" d="M471.17,-447.69C472.63,-428.21 471.96,-396.62 456,-376 435.3,-349.26 398.6,-335.87 370.13,-329.25"/>
<polygon fill="black" stroke="black" points="370.57,-325.76 360.06,-327.1 369.11,-332.61 370.57,-325.76"/>
<g id="a_edge31&#45;headlabel"><a xlink:href="dir_000767_000766.html" target="_top" xlink:title="2">
<text text-anchor="middle" x="374.68" y="-321.23" font-family="Helvetica,sans-Serif" font-size="10.00">2</text>
</a>
</g>
</g>
</g>
</svg>
        <g id="navigator" transform="translate(0 0)" fill="#404254">
                <rect fill="#f2f5e9" fill-opacity="0.5" stroke="#606060" stroke-width=".5" x="0" y="0" width="60" height="60"/>
                <use id="zoomplus" xlink:href="#zoomPlus" x="17" y="9" onmousedown="handleZoom(evt,'in')"/>
                <use id="zoomminus" xlink:href="#zoomMin" x="42" y="9" onmousedown="handleZoom(evt,'out')"/>
                <use id="reset" xlink:href="#resetDef" x="30" y="36" onmousedown="handleReset()"/>
                <g id="arrowUp" xlink:href="#dirArrow" transform="translate(30 24)" onmousedown="handlePan(0,-1)">
                  <use xlink:href="#rim" fill="#404040">
                        <set attributeName="fill" to="#808080" begin="arrowUp.mouseover" end="arrowUp.mouseout"/>
                  </use>
                  <path fill="none" stroke="white" stroke-width="1.5" d="M0,-3.0v7 M-2.5,-0.5L0,-3.0L2.5,-0.5"/>
                </g>
                <g id="arrowRight" xlink:href="#dirArrow" transform="rotate(90) translate(36 -43)" onmousedown="handlePan(1,0)">
                  <use xlink:href="#rim" fill="#404040">
                        <set attributeName="fill" to="#808080" begin="arrowRight.mouseover" end="arrowRight.mouseout"/>
                  </use>
                  <path fill="none" stroke="white" stroke-width="1.5" d="M0,-3.0v7 M-2.5,-0.5L0,-3.0L2.5,-0.5"/>
                </g>
                <g id="arrowDown" xlink:href="#dirArrow" transform="rotate(180) translate(-30 -48)" onmousedown="handlePan(0,1)">
                  <use xlink:href="#rim" fill="#404040">
                        <set attributeName="fill" to="#808080" begin="arrowDown.mouseover" end="arrowDown.mouseout"/>
                  </use>
                  <path fill="none" stroke="white" stroke-width="1.5" d="M0,-3.0v7 M-2.5,-0.5L0,-3.0L2.5,-0.5"/>
                </g>
                <g id="arrowLeft" xlink:href="#dirArrow" transform="rotate(270) translate(-36 17)" onmousedown="handlePan(-1,0)">
                  <use xlink:href="#rim" fill="#404040">
                        <set attributeName="fill" to="#808080" begin="arrowLeft.mouseover" end="arrowLeft.mouseout"/>
                  </use>
                  <path fill="none" stroke="white" stroke-width="1.5" d="M0,-3.0v7 M-2.5,-0.5L0,-3.0L2.5,-0.5"/>
                </g>
        </g>
        <svg viewBox="0 0 15 15" width="100%" height="30px" preserveAspectRatio="xMaxYMin meet">
         <g id="arrow_out" transform="scale(0.3 0.3)">
          <a xlink:href="dir_fdea7736ef62293a5901d28bce787dd1_dep_org.svg" target="_base">
           <rect id="button" ry="5" rx="5" y="6" x="6" height="38" width="38"
                fill="#f2f5e9" fill-opacity="0.5" stroke="#606060" stroke-width="1.0"/>
           <path id="arrow"
             d="M 11.500037,31.436501 C 11.940474,20.09759 22.043105,11.32322 32.158766,21.979434 L 37.068811,17.246167 C 37.068811,17.246167 37.088388,32 37.088388,32 L 22.160133,31.978069 C 22.160133,31.978069 26.997745,27.140456 26.997745,27.140456 C 18.528582,18.264221 13.291696,25.230495 11.500037,31.436501 z"
             style="fill:#404040;"/>
          </a>
         </g>
        </svg>
</svg>
