<?xml version="1.0" encoding="UTF-8" standalone="no"?>
<!DOCTYPE svg PUBLIC "-//W3C//DTD SVG 1.1//EN"
 "http://www.w3.org/Graphics/SVG/1.1/DTD/svg11.dtd">
<!-- Generated by graphviz version 2.43.0 (0)
 -->
<!-- Title: /home/runner/work/Documentation/Documentation/master/applications/StructuralMechanicsApplication/custom_response_functions Pages: 1 -->
<!--zoomable 447 -->
<svg id="main" version="1.1" xmlns="http://www.w3.org/2000/svg" xmlns:xlink="http://www.w3.org/1999/xlink" xml:space="preserve" onload="init(evt)">
<style type="text/css"><![CDATA[
.edge:hover path { stroke: red; }
.edge:hover polygon { stroke: red; fill: red; }
]]></style>
<script type="text/javascript"><![CDATA[
var edges = document.getElementsByTagName('g');
if (edges && edges.length) {
  for (var i=0;i<edges.length;i++) {
    if (edges[i].id.substr(0,4)=='edge') {
      edges[i].setAttribute('class','edge');
    }
  }
}
]]></script>
        <defs>
                <circle id="rim" cx="0" cy="0" r="7"/>
                <circle id="rim2" cx="0" cy="0" r="3.5"/>
                <g id="zoomPlus">
                        <use xlink:href="#rim" fill="#404040">
                                <set attributeName="fill" to="#808080" begin="zoomplus.mouseover" end="zoomplus.mouseout"/>
                        </use>
                        <path d="M-4,0h8M0,-4v8" fill="none" stroke="white" stroke-width="1.5" pointer-events="none"/>
                </g>
                <g id="zoomMin">
                        <use xlink:href="#rim" fill="#404040">
                                <set attributeName="fill" to="#808080" begin="zoomminus.mouseover" end="zoomminus.mouseout"/>
                        </use>
                        <path d="M-4,0h8" fill="none" stroke="white" stroke-width="1.5" pointer-events="none"/>
                </g>
                <g id="dirArrow">
                        <path fill="none" stroke="white" stroke-width="1.5" d="M0,-3.0v7 M-2.5,-0.5L0,-3.0L2.5,-0.5"/>
                </g>
               <g id="resetDef">
                       <use xlink:href="#rim2" fill="#404040">
                               <set attributeName="fill" to="#808080" begin="reset.mouseover" end="reset.mouseout"/>
                       </use>
               </g>
        </defs>

<script type="text/javascript">
var viewWidth = 716;
var viewHeight = 447;
var sectionId = 'dynsection-0';
</script>
<script xlink:href="svgpan.js"/>
<svg id="graph" class="graph">
<g id="viewport">
<title>/home/runner/work/Documentation/Documentation/master/applications/StructuralMechanicsApplication/custom_response_functions</title>
<g id="clust1" class="cluster">
<title>clusterdir_9d9fda61e96a8563beaba0a7d3e070ea</title>
<g id="a_clust1"><a xlink:href="dir_9d9fda61e96a8563beaba0a7d3e070ea.html" target="_top" xlink:title="StructuralMechanicsApplication">
<polygon fill="#ddddee" stroke="black" points="8,-64 8,-431 573,-431 573,-64 8,-64"/>
<text text-anchor="middle" x="290.5" y="-419" font-family="Helvetica,sans-Serif" font-size="10.00">StructuralMechanicsApplication</text>
</a>
</g>
</g>
<g id="clust2" class="cluster">
<title>clusterdir_dc3a1070f4763a1d600b921544d4df1f</title>
<g id="a_clust2"><a xlink:href="dir_dc3a1070f4763a1d600b921544d4df1f.html" target="_top">
<polygon fill="#eeeeff" stroke="black" points="16,-208 16,-404 430,-404 430,-208 16,-208"/>
</a>
</g>
</g>
<!-- dir_4fba3a46a6910dfe5a39783a6bc08ad3 -->
<g id="node1" class="node">
<title>dir_4fba3a46a6910dfe5a39783a6bc08ad3</title>
<g id="a_node1"><a xlink:href="dir_4fba3a46a6910dfe5a39783a6bc08ad3.html" target="_top" xlink:title="custom_utilities">
<polygon fill="none" stroke="black" points="450.5,-108 355.5,-108 355.5,-72 450.5,-72 450.5,-108"/>
<text text-anchor="middle" x="403" y="-87.5" font-family="Helvetica,sans-Serif" font-size="10.00">custom_utilities</text>
</a>
</g>
</g>
<!-- dir_8fc3e8efef0bfca4a113d719cbd52afb -->
<g id="node10" class="node">
<title>dir_8fc3e8efef0bfca4a113d719cbd52afb</title>
<g id="a_node10"><a xlink:href="dir_8fc3e8efef0bfca4a113d719cbd52afb.html" target="_top" xlink:title="kratos">
<polygon fill="none" stroke="red" points="601,-36 547,-36 547,0 601,0 601,-36"/>
<text text-anchor="middle" x="574" y="-15.5" font-family="Helvetica,sans-Serif" font-size="10.00">kratos</text>
</a>
</g>
</g>
<!-- dir_4fba3a46a6910dfe5a39783a6bc08ad3&#45;&gt;dir_8fc3e8efef0bfca4a113d719cbd52afb -->
<g id="edge16" class="edge">
<title>dir_4fba3a46a6910dfe5a39783a6bc08ad3&#45;&gt;dir_8fc3e8efef0bfca4a113d719cbd52afb</title>
<path fill="none" stroke="black" d="M444.83,-71.88C473.19,-60.27 510.3,-45.08 537.47,-33.95"/>
<polygon fill="black" stroke="black" points="539.06,-37.08 546.99,-30.06 536.41,-30.61 539.06,-37.08"/>
<g id="a_edge16&#45;headlabel"><a xlink:href="dir_000350_000719.html" target="_top" xlink:title="48">
<text text-anchor="middle" x="536.81" y="-38.57" font-family="Helvetica,sans-Serif" font-size="10.00">48</text>
</a>
</g>
</g>
<!-- dir_6ab0ee7c75ee313cc7e8fa9c0ae9d98d -->
<g id="node2" class="node">
<title>dir_6ab0ee7c75ee313cc7e8fa9c0ae9d98d</title>
<g id="a_node2"><a xlink:href="dir_6ab0ee7c75ee313cc7e8fa9c0ae9d98d.html" target="_top" xlink:title="custom_elements">
<polygon fill="none" stroke="red" points="469,-180 365,-180 365,-144 469,-144 469,-180"/>
<text text-anchor="middle" x="417" y="-159.5" font-family="Helvetica,sans-Serif" font-size="10.00">custom_elements</text>
</a>
</g>
</g>
<!-- dir_6ab0ee7c75ee313cc7e8fa9c0ae9d98d&#45;&gt;dir_4fba3a46a6910dfe5a39783a6bc08ad3 -->
<g id="edge11" class="edge">
<title>dir_6ab0ee7c75ee313cc7e8fa9c0ae9d98d&#45;&gt;dir_4fba3a46a6910dfe5a39783a6bc08ad3</title>
<path fill="none" stroke="black" d="M413.54,-143.7C412,-135.98 410.14,-126.71 408.42,-118.11"/>
<polygon fill="black" stroke="black" points="411.81,-117.22 406.42,-108.1 404.95,-118.6 411.81,-117.22"/>
<g id="a_edge11&#45;headlabel"><a xlink:href="dir_000344_000350.html" target="_top" xlink:title="37">
<text text-anchor="middle" x="415.3" y="-117.69" font-family="Helvetica,sans-Serif" font-size="10.00">37</text>
</a>
</g>
</g>
<!-- dir_6ab0ee7c75ee313cc7e8fa9c0ae9d98d&#45;&gt;dir_8fc3e8efef0bfca4a113d719cbd52afb -->
<g id="edge12" class="edge">
<title>dir_6ab0ee7c75ee313cc7e8fa9c0ae9d98d&#45;&gt;dir_8fc3e8efef0bfca4a113d719cbd52afb</title>
<path fill="none" stroke="black" d="M431.16,-143.9C451.32,-119.75 487.58,-77.13 503,-64 513.72,-54.88 526.43,-46.25 538.12,-39.03"/>
<polygon fill="black" stroke="black" points="540.05,-41.95 546.81,-33.8 536.44,-35.95 540.05,-41.95"/>
<g id="a_edge12&#45;headlabel"><a xlink:href="dir_000344_000719.html" target="_top" xlink:title="123">
<text text-anchor="middle" x="538.43" y="-43.74" font-family="Helvetica,sans-Serif" font-size="10.00">123</text>
</a>
</g>
</g>
<!-- dir_c8f570006ee9a9fae66bd151cd58eabc -->
<g id="node3" class="node">
<title>dir_c8f570006ee9a9fae66bd151cd58eabc</title>
<g id="a_node3"><a xlink:href="dir_c8f570006ee9a9fae66bd151cd58eabc.html" target="_top" xlink:title="custom_conditions">
<polygon fill="none" stroke="black" points="565,-324 457,-324 457,-288 565,-288 565,-324"/>
<text text-anchor="middle" x="511" y="-303.5" font-family="Helvetica,sans-Serif" font-size="10.00">custom_conditions</text>
</a>
</g>
</g>
<!-- dir_c8f570006ee9a9fae66bd151cd58eabc&#45;&gt;dir_4fba3a46a6910dfe5a39783a6bc08ad3 -->
<g id="edge6" class="edge">
<title>dir_c8f570006ee9a9fae66bd151cd58eabc&#45;&gt;dir_4fba3a46a6910dfe5a39783a6bc08ad3</title>
<path fill="none" stroke="black" d="M530.04,-287.84C539.18,-278.3 549.17,-265.62 554,-252 560.54,-233.57 562.25,-225.73 554,-208 533.49,-163.93 486.97,-131.97 450.94,-112.7"/>
<polygon fill="black" stroke="black" points="452.52,-109.57 442.03,-108.07 449.29,-115.78 452.52,-109.57"/>
<g id="a_edge6&#45;headlabel"><a xlink:href="dir_000610_000350.html" target="_top" xlink:title="3">
<text text-anchor="middle" x="457.01" y="-106.21" font-family="Helvetica,sans-Serif" font-size="10.00">3</text>
</a>
</g>
</g>
<!-- dir_c8f570006ee9a9fae66bd151cd58eabc&#45;&gt;dir_8fc3e8efef0bfca4a113d719cbd52afb -->
<g id="edge7" class="edge">
<title>dir_c8f570006ee9a9fae66bd151cd58eabc&#45;&gt;dir_8fc3e8efef0bfca4a113d719cbd52afb</title>
<path fill="none" stroke="black" d="M564.22,-287.96C580.89,-279.84 597.42,-268.23 607,-252 649.47,-180.04 633,-143.41 607,-64 604.77,-57.2 601.08,-50.57 596.96,-44.59"/>
<polygon fill="black" stroke="black" points="599.54,-42.2 590.72,-36.33 593.96,-46.42 599.54,-42.2"/>
<g id="a_edge7&#45;headlabel"><a xlink:href="dir_000610_000719.html" target="_top" xlink:title="38">
<text text-anchor="middle" x="603.97" y="-40.86" font-family="Helvetica,sans-Serif" font-size="10.00">38</text>
</a>
</g>
</g>
<!-- dir_2f9ef5081e10999ddaf37a05ebf778bb -->
<g id="node4" class="node">
<title>dir_2f9ef5081e10999ddaf37a05ebf778bb</title>
<g id="a_node4"><a xlink:href="dir_2f9ef5081e10999ddaf37a05ebf778bb.html" target="_top" xlink:title="custom_processes">
<polygon fill="none" stroke="black" points="544.5,-252 437.5,-252 437.5,-216 544.5,-216 544.5,-252"/>
<text text-anchor="middle" x="491" y="-231.5" font-family="Helvetica,sans-Serif" font-size="10.00">custom_processes</text>
</a>
</g>
</g>
<!-- dir_2f9ef5081e10999ddaf37a05ebf778bb&#45;&gt;dir_8fc3e8efef0bfca4a113d719cbd52afb -->
<g id="edge17" class="edge">
<title>dir_2f9ef5081e10999ddaf37a05ebf778bb&#45;&gt;dir_8fc3e8efef0bfca4a113d719cbd52afb</title>
<path fill="none" stroke="black" d="M506.54,-215.98C514.84,-206.1 524.63,-193.06 531,-180 552.53,-135.84 564.42,-79.43 569.98,-46.45"/>
<polygon fill="black" stroke="black" points="573.5,-46.64 571.63,-36.21 566.59,-45.53 573.5,-46.64"/>
<g id="a_edge17&#45;headlabel"><a xlink:href="dir_000634_000719.html" target="_top" xlink:title="71">
<text text-anchor="middle" x="575.73" y="-48.14" font-family="Helvetica,sans-Serif" font-size="10.00">71</text>
</a>
</g>
</g>
<!-- dir_dc3a1070f4763a1d600b921544d4df1f -->
<g id="node5" class="node">
<title>dir_dc3a1070f4763a1d600b921544d4df1f</title>
<text text-anchor="middle" x="346" y="-375.5" font-family="Helvetica,sans-Serif" font-size="10.00">custom_response_functions</text>
</g>
<!-- dir_d588cb786bec388064d4f8656026adf1 -->
<g id="node6" class="node">
<title>dir_d588cb786bec388064d4f8656026adf1</title>
<g id="a_node6"><a xlink:href="dir_d588cb786bec388064d4f8656026adf1.html" target="_top" xlink:title="adjoint_conditions">
<polygon fill="white" stroke="black" points="130,-396 24,-396 24,-360 130,-360 130,-396"/>
<text text-anchor="middle" x="77" y="-375.5" font-family="Helvetica,sans-Serif" font-size="10.00">adjoint_conditions</text>
</a>
</g>
</g>
<!-- dir_d588cb786bec388064d4f8656026adf1&#45;&gt;dir_c8f570006ee9a9fae66bd151cd58eabc -->
<g id="edge9" class="edge">
<title>dir_d588cb786bec388064d4f8656026adf1&#45;&gt;dir_c8f570006ee9a9fae66bd151cd58eabc</title>
<path fill="none" stroke="black" d="M130.32,-361.85C133.24,-361.18 136.15,-360.56 139,-360 268.59,-334.47 303.81,-346.26 434,-324 438.17,-323.29 442.47,-322.5 446.78,-321.66"/>
<polygon fill="black" stroke="black" points="447.75,-325.04 456.86,-319.64 446.37,-318.17 447.75,-325.04"/>
<g id="a_edge9&#45;headlabel"><a xlink:href="dir_000635_000610.html" target="_top" xlink:title="6">
<text text-anchor="middle" x="444.78" y="-326.03" font-family="Helvetica,sans-Serif" font-size="10.00">6</text>
</a>
</g>
</g>
<!-- dir_cf3125d457f973f8db0380aa81037239 -->
<g id="node9" class="node">
<title>dir_cf3125d457f973f8db0380aa81037239</title>
<g id="a_node9"><a xlink:href="dir_cf3125d457f973f8db0380aa81037239.html" target="_top" xlink:title="response_utilities">
<polygon fill="white" stroke="black" points="420.5,-324 317.5,-324 317.5,-288 420.5,-288 420.5,-324"/>
<text text-anchor="middle" x="369" y="-303.5" font-family="Helvetica,sans-Serif" font-size="10.00">response_utilities</text>
</a>
</g>
</g>
<!-- dir_d588cb786bec388064d4f8656026adf1&#45;&gt;dir_cf3125d457f973f8db0380aa81037239 -->
<g id="edge10" class="edge">
<title>dir_d588cb786bec388064d4f8656026adf1&#45;&gt;dir_cf3125d457f973f8db0380aa81037239</title>
<path fill="none" stroke="black" d="M130.06,-362.3C133.08,-361.51 136.08,-360.74 139,-360 195.82,-345.67 260.93,-330.81 307.34,-320.49"/>
<polygon fill="black" stroke="black" points="308.24,-323.87 317.24,-318.29 306.72,-317.04 308.24,-323.87"/>
<g id="a_edge10&#45;headlabel"><a xlink:href="dir_000635_000638.html" target="_top" xlink:title="1">
<text text-anchor="middle" x="305.34" y="-324.92" font-family="Helvetica,sans-Serif" font-size="10.00">1</text>
</a>
</g>
</g>
<!-- dir_d588cb786bec388064d4f8656026adf1&#45;&gt;dir_8fc3e8efef0bfca4a113d719cbd52afb -->
<g id="edge8" class="edge">
<title>dir_d588cb786bec388064d4f8656026adf1&#45;&gt;dir_8fc3e8efef0bfca4a113d719cbd52afb</title>
<path fill="none" stroke="black" d="M130.29,-361.71C133.23,-361.08 136.14,-360.5 139,-360 235.17,-343.01 488.04,-364.3 577,-324 628.82,-300.52 669,-291.89 669,-235 669,-235 669,-235 669,-161 669,-114.2 655.88,-101.6 628,-64 622.24,-56.22 614.86,-48.95 607.42,-42.61"/>
<polygon fill="black" stroke="black" points="609.38,-39.69 599.41,-36.11 604.98,-45.13 609.38,-39.69"/>
<g id="a_edge8&#45;headlabel"><a xlink:href="dir_000635_000719.html" target="_top" xlink:title="4">
<text text-anchor="middle" x="613.96" y="-37.24" font-family="Helvetica,sans-Serif" font-size="10.00">4</text>
</a>
</g>
</g>
<!-- dir_402912454bb79e7c7b961bf666e1020f -->
<g id="node7" class="node">
<title>dir_402912454bb79e7c7b961bf666e1020f</title>
<g id="a_node7"><a xlink:href="dir_402912454bb79e7c7b961bf666e1020f.html" target="_top" xlink:title="adjoint_elements">
<polygon fill="white" stroke="black" points="419.5,-252 318.5,-252 318.5,-216 419.5,-216 419.5,-252"/>
<text text-anchor="middle" x="369" y="-231.5" font-family="Helvetica,sans-Serif" font-size="10.00">adjoint_elements</text>
</a>
</g>
</g>
<!-- dir_402912454bb79e7c7b961bf666e1020f&#45;&gt;dir_4fba3a46a6910dfe5a39783a6bc08ad3 -->
<g id="edge1" class="edge">
<title>dir_402912454bb79e7c7b961bf666e1020f&#45;&gt;dir_4fba3a46a6910dfe5a39783a6bc08ad3</title>
<path fill="none" stroke="black" d="M361.52,-215.72C354.71,-197.37 346.97,-167.8 356,-144 359.97,-133.54 367.05,-123.83 374.53,-115.65"/>
<polygon fill="black" stroke="black" points="377.23,-117.89 381.73,-108.3 372.23,-112.99 377.23,-117.89"/>
<g id="a_edge1&#45;headlabel"><a xlink:href="dir_000636_000350.html" target="_top" xlink:title="1">
<text text-anchor="middle" x="376.74" y="-119.94" font-family="Helvetica,sans-Serif" font-size="10.00">1</text>
</a>
</g>
</g>
<!-- dir_402912454bb79e7c7b961bf666e1020f&#45;&gt;dir_6ab0ee7c75ee313cc7e8fa9c0ae9d98d -->
<g id="edge2" class="edge">
<title>dir_402912454bb79e7c7b961bf666e1020f&#45;&gt;dir_6ab0ee7c75ee313cc7e8fa9c0ae9d98d</title>
<path fill="none" stroke="black" d="M380.87,-215.7C386.5,-207.47 393.35,-197.48 399.57,-188.42"/>
<polygon fill="black" stroke="black" points="402.5,-190.33 405.27,-180.1 396.73,-186.37 402.5,-190.33"/>
<g id="a_edge2&#45;headlabel"><a xlink:href="dir_000636_000344.html" target="_top" xlink:title="12">
<text text-anchor="middle" x="402.81" y="-192.4" font-family="Helvetica,sans-Serif" font-size="10.00">12</text>
</a>
</g>
</g>
<!-- dir_402912454bb79e7c7b961bf666e1020f&#45;&gt;dir_cf3125d457f973f8db0380aa81037239 -->
<g id="edge4" class="edge">
<title>dir_402912454bb79e7c7b961bf666e1020f&#45;&gt;dir_cf3125d457f973f8db0380aa81037239</title>
<path fill="none" stroke="black" d="M374.9,-252.1C375.7,-259.79 375.94,-269.05 375.6,-277.67"/>
<polygon fill="black" stroke="black" points="372.11,-277.48 374.92,-287.7 379.09,-277.96 372.11,-277.48"/>
<g id="a_edge4&#45;headlabel"><a xlink:href="dir_000636_000638.html" target="_top" xlink:title="7">
<text text-anchor="middle" x="369.52" y="-271.2" font-family="Helvetica,sans-Serif" font-size="10.00">7</text>
</a>
</g>
</g>
<!-- dir_402912454bb79e7c7b961bf666e1020f&#45;&gt;dir_8fc3e8efef0bfca4a113d719cbd52afb -->
<g id="edge3" class="edge">
<title>dir_402912454bb79e7c7b961bf666e1020f&#45;&gt;dir_8fc3e8efef0bfca4a113d719cbd52afb</title>
<path fill="none" stroke="black" d="M405.5,-215.88C411.63,-213.16 417.97,-210.43 424,-208 458.54,-194.06 478.06,-207.67 503,-180 538.51,-140.6 505.58,-110.55 531,-64 535.01,-56.66 540.52,-49.65 546.26,-43.44"/>
<polygon fill="black" stroke="black" points="549.03,-45.61 553.55,-36.03 544.04,-40.7 549.03,-45.61"/>
<g id="a_edge3&#45;headlabel"><a xlink:href="dir_000636_000719.html" target="_top" xlink:title="14">
<text text-anchor="middle" x="548.53" y="-47.67" font-family="Helvetica,sans-Serif" font-size="10.00">14</text>
</a>
</g>
</g>
<!-- dir_8256fe5ab043bc0c63a62512538f72eb -->
<g id="node8" class="node">
<title>dir_8256fe5ab043bc0c63a62512538f72eb</title>
<g id="a_node8"><a xlink:href="dir_8256fe5ab043bc0c63a62512538f72eb.html" target="_top" xlink:title="adjoint_processes">
<polygon fill="white" stroke="black" points="252,-396 148,-396 148,-360 252,-360 252,-396"/>
<text text-anchor="middle" x="200" y="-375.5" font-family="Helvetica,sans-Serif" font-size="10.00">adjoint_processes</text>
</a>
</g>
</g>
<!-- dir_8256fe5ab043bc0c63a62512538f72eb&#45;&gt;dir_8fc3e8efef0bfca4a113d719cbd52afb -->
<g id="edge5" class="edge">
<title>dir_8256fe5ab043bc0c63a62512538f72eb&#45;&gt;dir_8fc3e8efef0bfca4a113d719cbd52afb</title>
<path fill="none" stroke="black" d="M252.09,-361.79C255.1,-361.13 258.08,-360.53 261,-360 353.62,-343.29 610.79,-384.36 683,-324 714.43,-297.73 707,-275.97 707,-235 707,-235 707,-235 707,-161 707,-116.59 711.98,-97.65 683,-64 664.76,-42.82 634.99,-31.44 611.16,-25.42"/>
<polygon fill="black" stroke="black" points="611.89,-22 601.36,-23.16 610.32,-28.82 611.89,-22"/>
<g id="a_edge5&#45;headlabel"><a xlink:href="dir_000637_000719.html" target="_top" xlink:title="4">
<text text-anchor="middle" x="616.04" y="-17.54" font-family="Helvetica,sans-Serif" font-size="10.00">4</text>
</a>
</g>
</g>
<!-- dir_cf3125d457f973f8db0380aa81037239&#45;&gt;dir_2f9ef5081e10999ddaf37a05ebf778bb -->
<g id="edge13" class="edge">
<title>dir_cf3125d457f973f8db0380aa81037239&#45;&gt;dir_2f9ef5081e10999ddaf37a05ebf778bb</title>
<path fill="none" stroke="black" d="M398.84,-287.88C414.94,-278.64 435,-267.13 452.29,-257.21"/>
<polygon fill="black" stroke="black" points="454.11,-260.2 461.04,-252.19 450.63,-254.13 454.11,-260.2"/>
<g id="a_edge13&#45;headlabel"><a xlink:href="dir_000638_000634.html" target="_top" xlink:title="1">
<text text-anchor="middle" x="452.4" y="-261.95" font-family="Helvetica,sans-Serif" font-size="10.00">1</text>
</a>
</g>
</g>
<!-- dir_cf3125d457f973f8db0380aa81037239&#45;&gt;dir_402912454bb79e7c7b961bf666e1020f -->
<g id="edge14" class="edge">
<title>dir_cf3125d457f973f8db0380aa81037239&#45;&gt;dir_402912454bb79e7c7b961bf666e1020f</title>
<path fill="none" stroke="black" d="M363.08,-287.7C362.29,-279.98 362.06,-270.71 362.4,-262.11"/>
<polygon fill="black" stroke="black" points="365.9,-262.32 363.1,-252.1 358.92,-261.84 365.9,-262.32"/>
<g id="a_edge14&#45;headlabel"><a xlink:href="dir_000638_000636.html" target="_top" xlink:title="1">
<text text-anchor="middle" x="368.48" y="-263.61" font-family="Helvetica,sans-Serif" font-size="10.00">1</text>
</a>
</g>
</g>
<!-- dir_cf3125d457f973f8db0380aa81037239&#45;&gt;dir_8fc3e8efef0bfca4a113d719cbd52afb -->
<g id="edge15" class="edge">
<title>dir_cf3125d457f973f8db0380aa81037239&#45;&gt;dir_8fc3e8efef0bfca4a113d719cbd52afb</title>
<path fill="none" stroke="black" d="M420.53,-289.22C422.04,-288.81 423.53,-288.4 425,-288 492.03,-269.91 533.94,-306.45 577,-252 624.58,-191.84 600.04,-93 584.11,-45.76"/>
<polygon fill="black" stroke="black" points="587.38,-44.51 580.77,-36.23 580.77,-46.83 587.38,-44.51"/>
<g id="a_edge15&#45;headlabel"><a xlink:href="dir_000638_000719.html" target="_top" xlink:title="33">
<text text-anchor="middle" x="591.25" y="-44.47" font-family="Helvetica,sans-Serif" font-size="10.00">33</text>
</a>
</g>
</g>
</g>
</svg>
        <g id="navigator" transform="translate(0 0)" fill="#404254">
                <rect fill="#f2f5e9" fill-opacity="0.5" stroke="#606060" stroke-width=".5" x="0" y="0" width="60" height="60"/>
                <use id="zoomplus" xlink:href="#zoomPlus" x="17" y="9" onmousedown="handleZoom(evt,'in')"/>
                <use id="zoomminus" xlink:href="#zoomMin" x="42" y="9" onmousedown="handleZoom(evt,'out')"/>
                <use id="reset" xlink:href="#resetDef" x="30" y="36" onmousedown="handleReset()"/>
                <g id="arrowUp" xlink:href="#dirArrow" transform="translate(30 24)" onmousedown="handlePan(0,-1)">
                  <use xlink:href="#rim" fill="#404040">
                        <set attributeName="fill" to="#808080" begin="arrowUp.mouseover" end="arrowUp.mouseout"/>
                  </use>
                  <path fill="none" stroke="white" stroke-width="1.5" d="M0,-3.0v7 M-2.5,-0.5L0,-3.0L2.5,-0.5"/>
                </g>
                <g id="arrowRight" xlink:href="#dirArrow" transform="rotate(90) translate(36 -43)" onmousedown="handlePan(1,0)">
                  <use xlink:href="#rim" fill="#404040">
                        <set attributeName="fill" to="#808080" begin="arrowRight.mouseover" end="arrowRight.mouseout"/>
                  </use>
                  <path fill="none" stroke="white" stroke-width="1.5" d="M0,-3.0v7 M-2.5,-0.5L0,-3.0L2.5,-0.5"/>
                </g>
                <g id="arrowDown" xlink:href="#dirArrow" transform="rotate(180) translate(-30 -48)" onmousedown="handlePan(0,1)">
                  <use xlink:href="#rim" fill="#404040">
                        <set attributeName="fill" to="#808080" begin="arrowDown.mouseover" end="arrowDown.mouseout"/>
                  </use>
                  <path fill="none" stroke="white" stroke-width="1.5" d="M0,-3.0v7 M-2.5,-0.5L0,-3.0L2.5,-0.5"/>
                </g>
                <g id="arrowLeft" xlink:href="#dirArrow" transform="rotate(270) translate(-36 17)" onmousedown="handlePan(-1,0)">
                  <use xlink:href="#rim" fill="#404040">
                        <set attributeName="fill" to="#808080" begin="arrowLeft.mouseover" end="arrowLeft.mouseout"/>
                  </use>
                  <path fill="none" stroke="white" stroke-width="1.5" d="M0,-3.0v7 M-2.5,-0.5L0,-3.0L2.5,-0.5"/>
                </g>
        </g>
        <svg viewBox="0 0 15 15" width="100%" height="30px" preserveAspectRatio="xMaxYMin meet">
         <g id="arrow_out" transform="scale(0.3 0.3)">
          <a xlink:href="dir_dc3a1070f4763a1d600b921544d4df1f_dep_org.svg" target="_base">
           <rect id="button" ry="5" rx="5" y="6" x="6" height="38" width="38"
                fill="#f2f5e9" fill-opacity="0.5" stroke="#606060" stroke-width="1.0"/>
           <path id="arrow"
             d="M 11.500037,31.436501 C 11.940474,20.09759 22.043105,11.32322 32.158766,21.979434 L 37.068811,17.246167 C 37.068811,17.246167 37.088388,32 37.088388,32 L 22.160133,31.978069 C 22.160133,31.978069 26.997745,27.140456 26.997745,27.140456 C 18.528582,18.264221 13.291696,25.230495 11.500037,31.436501 z"
             style="fill:#404040;"/>
          </a>
         </g>
        </svg>
</svg>
