<?xml version="1.0" encoding="UTF-8" standalone="no"?>
<!DOCTYPE svg PUBLIC "-//W3C//DTD SVG 1.1//EN"
 "http://www.w3.org/Graphics/SVG/1.1/DTD/svg11.dtd">
<!-- Generated by graphviz version 2.43.0 (0)
 -->
<!-- Title: /home/runner/work/Documentation/Documentation/master/applications/SolidMechanicsApplication/custom_python Pages: 1 -->
<svg width="434pt" height="295pt"
 viewBox="0.00 0.00 434.36 295.00" xmlns="http://www.w3.org/2000/svg" xmlns:xlink="http://www.w3.org/1999/xlink">
<g id="graph0" class="graph" transform="scale(1 1) rotate(0) translate(4 291)">
<title>/home/runner/work/Documentation/Documentation/master/applications/SolidMechanicsApplication/custom_python</title>
<g id="clust1" class="cluster">
<title>clusterdir_66a868bf6d753b83ea6ea8ea996bb820</title>
<g id="a_clust1"><a xlink:href="dir_66a868bf6d753b83ea6ea8ea996bb820.html" target="_top" xlink:title="SolidMechanicsApplication">
<polygon fill="#ddddee" stroke="black" points="8,-64 8,-279 414,-279 414,-64 8,-64"/>
<text text-anchor="middle" x="211" y="-267" font-family="Helvetica,sans-Serif" font-size="10.00">SolidMechanicsApplication</text>
</a>
</g>
</g>
<!-- dir_16e98b9facb972bfde6fd33479c7184a -->
<g id="node1" class="node">
<title>dir_16e98b9facb972bfde6fd33479c7184a</title>
<g id="a_node1"><a xlink:href="dir_16e98b9facb972bfde6fd33479c7184a.html" target="_top" xlink:title="custom_elements">
<polygon fill="none" stroke="red" points="272,-180 168,-180 168,-144 272,-144 272,-180"/>
<text text-anchor="middle" x="220" y="-159.5" font-family="Helvetica,sans-Serif" font-size="10.00">custom_elements</text>
</a>
</g>
</g>
<!-- dir_8fc3e8efef0bfca4a113d719cbd52afb -->
<g id="node7" class="node">
<title>dir_8fc3e8efef0bfca4a113d719cbd52afb</title>
<g id="a_node7"><a xlink:href="dir_8fc3e8efef0bfca4a113d719cbd52afb.html" target="_top" xlink:title="kratos">
<polygon fill="none" stroke="red" points="310,-36 256,-36 256,0 310,0 310,-36"/>
<text text-anchor="middle" x="283" y="-15.5" font-family="Helvetica,sans-Serif" font-size="10.00">kratos</text>
</a>
</g>
</g>
<!-- dir_16e98b9facb972bfde6fd33479c7184a&#45;&gt;dir_8fc3e8efef0bfca4a113d719cbd52afb -->
<g id="edge6" class="edge">
<title>dir_16e98b9facb972bfde6fd33479c7184a&#45;&gt;dir_8fc3e8efef0bfca4a113d719cbd52afb</title>
<path fill="none" stroke="black" d="M246.68,-143.84C258.45,-134.73 271.16,-122.42 278,-108 287.1,-88.83 287.89,-64.67 286.66,-46.36"/>
<polygon fill="black" stroke="black" points="290.14,-45.98 285.74,-36.34 283.16,-46.61 290.14,-45.98"/>
<g id="a_edge6&#45;headlabel"><a xlink:href="dir_000291_000710.html" target="_top" xlink:title="24">
<text text-anchor="middle" x="293.29" y="-46.8" font-family="Helvetica,sans-Serif" font-size="10.00">24</text>
</a>
</g>
</g>
<!-- dir_810bfbe0b28d2eee2a32789fcebb2e0e -->
<g id="node2" class="node">
<title>dir_810bfbe0b28d2eee2a32789fcebb2e0e</title>
<g id="a_node2"><a xlink:href="dir_810bfbe0b28d2eee2a32789fcebb2e0e.html" target="_top" xlink:title="custom_utilities">
<polygon fill="none" stroke="black" points="235.5,-108 140.5,-108 140.5,-72 235.5,-72 235.5,-108"/>
<text text-anchor="middle" x="188" y="-87.5" font-family="Helvetica,sans-Serif" font-size="10.00">custom_utilities</text>
</a>
</g>
</g>
<!-- dir_810bfbe0b28d2eee2a32789fcebb2e0e&#45;&gt;dir_8fc3e8efef0bfca4a113d719cbd52afb -->
<g id="edge7" class="edge">
<title>dir_810bfbe0b28d2eee2a32789fcebb2e0e&#45;&gt;dir_8fc3e8efef0bfca4a113d719cbd52afb</title>
<path fill="none" stroke="black" d="M211.48,-71.7C223.56,-62.8 238.45,-51.82 251.52,-42.2"/>
<polygon fill="black" stroke="black" points="253.81,-44.85 259.79,-36.1 249.66,-39.22 253.81,-44.85"/>
<g id="a_edge7&#45;headlabel"><a xlink:href="dir_000204_000710.html" target="_top" xlink:title="15">
<text text-anchor="middle" x="252.6" y="-46.77" font-family="Helvetica,sans-Serif" font-size="10.00">15</text>
</a>
</g>
</g>
<!-- dir_96f35e75612b3fa41c87804d60a9347d -->
<g id="node3" class="node">
<title>dir_96f35e75612b3fa41c87804d60a9347d</title>
<g id="a_node3"><a xlink:href="dir_96f35e75612b3fa41c87804d60a9347d.html" target="_top" xlink:title="custom_processes">
<polygon fill="none" stroke="black" points="122.5,-108 15.5,-108 15.5,-72 122.5,-72 122.5,-108"/>
<text text-anchor="middle" x="69" y="-87.5" font-family="Helvetica,sans-Serif" font-size="10.00">custom_processes</text>
</a>
</g>
</g>
<!-- dir_96f35e75612b3fa41c87804d60a9347d&#45;&gt;dir_8fc3e8efef0bfca4a113d719cbd52afb -->
<g id="edge1" class="edge">
<title>dir_96f35e75612b3fa41c87804d60a9347d&#45;&gt;dir_8fc3e8efef0bfca4a113d719cbd52afb</title>
<path fill="none" stroke="black" d="M109.81,-71.9C116.84,-69.14 124.1,-66.41 131,-64 169.76,-50.48 214.94,-37.44 245.92,-28.91"/>
<polygon fill="black" stroke="black" points="247.12,-32.21 255.84,-26.2 245.28,-25.46 247.12,-32.21"/>
<g id="a_edge1&#45;headlabel"><a xlink:href="dir_000340_000710.html" target="_top" xlink:title="46">
<text text-anchor="middle" x="244.4" y="-33.4" font-family="Helvetica,sans-Serif" font-size="10.00">46</text>
</a>
</g>
</g>
<!-- dir_b56237ee916baf2c1c285b23d3a89a5b -->
<g id="node4" class="node">
<title>dir_b56237ee916baf2c1c285b23d3a89a5b</title>
<g id="a_node4"><a xlink:href="dir_b56237ee916baf2c1c285b23d3a89a5b.html" target="_top" xlink:title="custom_solvers">
<polygon fill="none" stroke="red" points="129.5,-180 36.5,-180 36.5,-144 129.5,-144 129.5,-180"/>
<text text-anchor="middle" x="83" y="-159.5" font-family="Helvetica,sans-Serif" font-size="10.00">custom_solvers</text>
</a>
</g>
</g>
<!-- dir_b56237ee916baf2c1c285b23d3a89a5b&#45;&gt;dir_810bfbe0b28d2eee2a32789fcebb2e0e -->
<g id="edge4" class="edge">
<title>dir_b56237ee916baf2c1c285b23d3a89a5b&#45;&gt;dir_810bfbe0b28d2eee2a32789fcebb2e0e</title>
<path fill="none" stroke="black" d="M108.69,-143.88C122.29,-134.81 139.17,-123.55 153.86,-113.76"/>
<polygon fill="black" stroke="black" points="155.84,-116.65 162.22,-108.19 151.95,-110.82 155.84,-116.65"/>
<g id="a_edge4&#45;headlabel"><a xlink:href="dir_000612_000204.html" target="_top" xlink:title="1">
<text text-anchor="middle" x="154.42" y="-118.51" font-family="Helvetica,sans-Serif" font-size="10.00">1</text>
</a>
</g>
</g>
<!-- dir_b56237ee916baf2c1c285b23d3a89a5b&#45;&gt;dir_96f35e75612b3fa41c87804d60a9347d -->
<g id="edge3" class="edge">
<title>dir_b56237ee916baf2c1c285b23d3a89a5b&#45;&gt;dir_96f35e75612b3fa41c87804d60a9347d</title>
<path fill="none" stroke="black" d="M79.54,-143.7C78,-135.98 76.14,-126.71 74.42,-118.11"/>
<polygon fill="black" stroke="black" points="77.81,-117.22 72.42,-108.1 70.95,-118.6 77.81,-117.22"/>
<g id="a_edge3&#45;headlabel"><a xlink:href="dir_000612_000340.html" target="_top" xlink:title="1">
<text text-anchor="middle" x="81.3" y="-117.69" font-family="Helvetica,sans-Serif" font-size="10.00">1</text>
</a>
</g>
</g>
<!-- dir_b56237ee916baf2c1c285b23d3a89a5b&#45;&gt;dir_8fc3e8efef0bfca4a113d719cbd52afb -->
<g id="edge2" class="edge">
<title>dir_b56237ee916baf2c1c285b23d3a89a5b&#45;&gt;dir_8fc3e8efef0bfca4a113d719cbd52afb</title>
<path fill="none" stroke="black" d="M129.73,-150.13C170.95,-139.74 227.02,-123.44 244,-108 261.88,-91.74 271.96,-65.81 277.37,-46.12"/>
<polygon fill="black" stroke="black" points="280.82,-46.76 279.86,-36.2 274.03,-45.06 280.82,-46.76"/>
<g id="a_edge2&#45;headlabel"><a xlink:href="dir_000612_000710.html" target="_top" xlink:title="34">
<text text-anchor="middle" x="282.7" y="-48.43" font-family="Helvetica,sans-Serif" font-size="10.00">34</text>
</a>
</g>
</g>
<!-- dir_fc404ae7feac46d276aaabd8e5d7e29c -->
<g id="node5" class="node">
<title>dir_fc404ae7feac46d276aaabd8e5d7e29c</title>
<g id="a_node5"><a xlink:href="dir_fc404ae7feac46d276aaabd8e5d7e29c.html" target="_top" xlink:title="custom_constitutive">
<polygon fill="none" stroke="red" points="406,-180 290,-180 290,-144 406,-144 406,-180"/>
<text text-anchor="middle" x="348" y="-159.5" font-family="Helvetica,sans-Serif" font-size="10.00">custom_constitutive</text>
</a>
</g>
</g>
<!-- dir_fc404ae7feac46d276aaabd8e5d7e29c&#45;&gt;dir_8fc3e8efef0bfca4a113d719cbd52afb -->
<g id="edge5" class="edge">
<title>dir_fc404ae7feac46d276aaabd8e5d7e29c&#45;&gt;dir_8fc3e8efef0bfca4a113d719cbd52afb</title>
<path fill="none" stroke="black" d="M340.16,-143.87C328.98,-119.46 308.37,-74.43 295.19,-45.64"/>
<polygon fill="black" stroke="black" points="298.21,-43.83 290.87,-36.19 291.85,-46.74 298.21,-43.83"/>
<g id="a_edge5&#45;headlabel"><a xlink:href="dir_000402_000710.html" target="_top" xlink:title="16">
<text text-anchor="middle" x="302.29" y="-43.41" font-family="Helvetica,sans-Serif" font-size="10.00">16</text>
</a>
</g>
</g>
<!-- dir_11c6619c3d88e8ae0c6b46013810f392 -->
<g id="node6" class="node">
<title>dir_11c6619c3d88e8ae0c6b46013810f392</title>
<g id="a_node6"><a xlink:href="dir_11c6619c3d88e8ae0c6b46013810f392.html" target="_top" xlink:title="custom_python">
<polygon fill="#eeeeff" stroke="black" points="230,-252 138,-252 138,-216 230,-216 230,-252"/>
<text text-anchor="middle" x="184" y="-231.5" font-family="Helvetica,sans-Serif" font-size="10.00">custom_python</text>
</a>
</g>
</g>
<!-- dir_11c6619c3d88e8ae0c6b46013810f392&#45;&gt;dir_16e98b9facb972bfde6fd33479c7184a -->
<g id="edge8" class="edge">
<title>dir_11c6619c3d88e8ae0c6b46013810f392&#45;&gt;dir_16e98b9facb972bfde6fd33479c7184a</title>
<path fill="none" stroke="black" d="M192.9,-215.7C197,-207.73 201.95,-198.1 206.49,-189.26"/>
<polygon fill="black" stroke="black" points="209.74,-190.6 211.2,-180.1 203.52,-187.4 209.74,-190.6"/>
<g id="a_edge8&#45;headlabel"><a xlink:href="dir_000053_000291.html" target="_top" xlink:title="2">
<text text-anchor="middle" x="210.62" y="-192.59" font-family="Helvetica,sans-Serif" font-size="10.00">2</text>
</a>
</g>
</g>
<!-- dir_11c6619c3d88e8ae0c6b46013810f392&#45;&gt;dir_810bfbe0b28d2eee2a32789fcebb2e0e -->
<g id="edge9" class="edge">
<title>dir_11c6619c3d88e8ae0c6b46013810f392&#45;&gt;dir_810bfbe0b28d2eee2a32789fcebb2e0e</title>
<path fill="none" stroke="black" d="M173.37,-215.56C167.9,-205.54 161.8,-192.51 159,-180 155.5,-164.39 155.04,-159.5 159,-144 161.38,-134.7 165.76,-125.27 170.42,-117"/>
<polygon fill="black" stroke="black" points="173.54,-118.59 175.69,-108.22 167.54,-114.99 173.54,-118.59"/>
<g id="a_edge9&#45;headlabel"><a xlink:href="dir_000053_000204.html" target="_top" xlink:title="2">
<text text-anchor="middle" x="174.13" y="-120.63" font-family="Helvetica,sans-Serif" font-size="10.00">2</text>
</a>
</g>
</g>
<!-- dir_11c6619c3d88e8ae0c6b46013810f392&#45;&gt;dir_96f35e75612b3fa41c87804d60a9347d -->
<g id="edge11" class="edge">
<title>dir_11c6619c3d88e8ae0c6b46013810f392&#45;&gt;dir_96f35e75612b3fa41c87804d60a9347d</title>
<path fill="none" stroke="black" d="M137.75,-231.21C101.08,-227.06 52,-214.82 27,-180 12.62,-159.96 27.81,-134.22 43.8,-115.58"/>
<polygon fill="black" stroke="black" points="46.49,-117.82 50.62,-108.06 41.31,-113.12 46.49,-117.82"/>
<g id="a_edge11&#45;headlabel"><a xlink:href="dir_000053_000340.html" target="_top" xlink:title="7">
<text text-anchor="middle" x="46.18" y="-119.89" font-family="Helvetica,sans-Serif" font-size="10.00">7</text>
</a>
</g>
</g>
<!-- dir_11c6619c3d88e8ae0c6b46013810f392&#45;&gt;dir_b56237ee916baf2c1c285b23d3a89a5b -->
<g id="edge12" class="edge">
<title>dir_11c6619c3d88e8ae0c6b46013810f392&#45;&gt;dir_b56237ee916baf2c1c285b23d3a89a5b</title>
<path fill="none" stroke="black" d="M159.29,-215.88C146.33,-206.89 130.27,-195.76 116.23,-186.03"/>
<polygon fill="black" stroke="black" points="118.02,-183.01 107.8,-180.19 114.03,-188.76 118.02,-183.01"/>
<g id="a_edge12&#45;headlabel"><a xlink:href="dir_000053_000612.html" target="_top" xlink:title="27">
<text text-anchor="middle" x="122.59" y="-180.22" font-family="Helvetica,sans-Serif" font-size="10.00">27</text>
</a>
</g>
</g>
<!-- dir_11c6619c3d88e8ae0c6b46013810f392&#45;&gt;dir_fc404ae7feac46d276aaabd8e5d7e29c -->
<g id="edge13" class="edge">
<title>dir_11c6619c3d88e8ae0c6b46013810f392&#45;&gt;dir_fc404ae7feac46d276aaabd8e5d7e29c</title>
<path fill="none" stroke="black" d="M224.12,-215.88C246.64,-206.26 274.92,-194.19 298.77,-184.01"/>
<polygon fill="black" stroke="black" points="300.19,-187.21 308.01,-180.07 297.44,-180.77 300.19,-187.21"/>
<g id="a_edge13&#45;headlabel"><a xlink:href="dir_000053_000402.html" target="_top" xlink:title="25">
<text text-anchor="middle" x="298" y="-188.74" font-family="Helvetica,sans-Serif" font-size="10.00">25</text>
</a>
</g>
</g>
<!-- dir_11c6619c3d88e8ae0c6b46013810f392&#45;&gt;dir_8fc3e8efef0bfca4a113d719cbd52afb -->
<g id="edge10" class="edge">
<title>dir_11c6619c3d88e8ae0c6b46013810f392&#45;&gt;dir_8fc3e8efef0bfca4a113d719cbd52afb</title>
<path fill="none" stroke="black" d="M230.19,-229.08C290.86,-222.87 392.34,-208.44 415,-180 456.21,-128.26 371.04,-68.21 319.12,-38.18"/>
<polygon fill="black" stroke="black" points="320.59,-34.99 310.16,-33.1 317.14,-41.08 320.59,-34.99"/>
<g id="a_edge10&#45;headlabel"><a xlink:href="dir_000053_000710.html" target="_top" xlink:title="8">
<text text-anchor="middle" x="325.12" y="-31.79" font-family="Helvetica,sans-Serif" font-size="10.00">8</text>
</a>
</g>
</g>
</g>
</svg>
