<?xml version="1.0" encoding="UTF-8" standalone="no"?>
<!DOCTYPE svg PUBLIC "-//W3C//DTD SVG 1.1//EN"
 "http://www.w3.org/Graphics/SVG/1.1/DTD/svg11.dtd">
<!-- Generated by graphviz version 2.43.0 (0)
 -->
<!-- Title: /home/runner/work/Documentation/Documentation/master/applications/SolidMechanicsApplication Pages: 1 -->
<!--zoomable 303 -->
<svg id="main" version="1.1" xmlns="http://www.w3.org/2000/svg" xmlns:xlink="http://www.w3.org/1999/xlink" xml:space="preserve" onload="init(evt)">
<style type="text/css"><![CDATA[
.edge:hover path { stroke: red; }
.edge:hover polygon { stroke: red; fill: red; }
]]></style>
<script type="text/javascript"><![CDATA[
var edges = document.getElementsByTagName('g');
if (edges && edges.length) {
  for (var i=0;i<edges.length;i++) {
    if (edges[i].id.substr(0,4)=='edge') {
      edges[i].setAttribute('class','edge');
    }
  }
}
]]></script>
        <defs>
                <circle id="rim" cx="0" cy="0" r="7"/>
                <circle id="rim2" cx="0" cy="0" r="3.5"/>
                <g id="zoomPlus">
                        <use xlink:href="#rim" fill="#404040">
                                <set attributeName="fill" to="#808080" begin="zoomplus.mouseover" end="zoomplus.mouseout"/>
                        </use>
                        <path d="M-4,0h8M0,-4v8" fill="none" stroke="white" stroke-width="1.5" pointer-events="none"/>
                </g>
                <g id="zoomMin">
                        <use xlink:href="#rim" fill="#404040">
                                <set attributeName="fill" to="#808080" begin="zoomminus.mouseover" end="zoomminus.mouseout"/>
                        </use>
                        <path d="M-4,0h8" fill="none" stroke="white" stroke-width="1.5" pointer-events="none"/>
                </g>
                <g id="dirArrow">
                        <path fill="none" stroke="white" stroke-width="1.5" d="M0,-3.0v7 M-2.5,-0.5L0,-3.0L2.5,-0.5"/>
                </g>
               <g id="resetDef">
                       <use xlink:href="#rim2" fill="#404040">
                               <set attributeName="fill" to="#808080" begin="reset.mouseover" end="reset.mouseout"/>
                       </use>
               </g>
        </defs>

<script type="text/javascript">
var viewWidth = 572;
var viewHeight = 303;
var sectionId = 'dynsection-0';
</script>
<script xlink:href="svgpan.js"/>
<svg id="graph" class="graph">
<g id="viewport">
<title>/home/runner/work/Documentation/Documentation/master/applications/SolidMechanicsApplication</title>
<g id="clust1" class="cluster">
<title>clusterdir_a6e4fee11f07c3b70486e88fe92cbbdc</title>
<g id="a_clust1"><a xlink:href="dir_a6e4fee11f07c3b70486e88fe92cbbdc.html" target="_top" xlink:title="applications">
<polygon fill="#ddddee" stroke="black" points="8,-56 8,-287 556,-287 556,-56 8,-56"/>
<text text-anchor="middle" x="282" y="-275" font-family="Helvetica,sans-Serif" font-size="10.00">applications</text>
</a>
</g>
</g>
<g id="clust2" class="cluster">
<title>clusterdir_66a868bf6d753b83ea6ea8ea996bb820</title>
<g id="a_clust2"><a xlink:href="dir_66a868bf6d753b83ea6ea8ea996bb820.html" target="_top">
<polygon fill="#eeeeff" stroke="black" points="16,-64 16,-260 548,-260 548,-64 16,-64"/>
</a>
</g>
</g>
<!-- dir_66a868bf6d753b83ea6ea8ea996bb820 -->
<g id="node1" class="node">
<title>dir_66a868bf6d753b83ea6ea8ea996bb820</title>
<text text-anchor="middle" x="466" y="-231.5" font-family="Helvetica,sans-Serif" font-size="10.00">SolidMechanicsApplication</text>
</g>
<!-- dir_a8502cf64e7ac7c1b80161f3cbbf4f00 -->
<g id="node2" class="node">
<title>dir_a8502cf64e7ac7c1b80161f3cbbf4f00</title>
<g id="a_node2"><a xlink:href="dir_a8502cf64e7ac7c1b80161f3cbbf4f00.html" target="_top" xlink:title="custom_conditions">
<polygon fill="white" stroke="red" points="540,-180 432,-180 432,-144 540,-144 540,-180"/>
<text text-anchor="middle" x="486" y="-159.5" font-family="Helvetica,sans-Serif" font-size="10.00">custom_conditions</text>
</a>
</g>
</g>
<!-- dir_66a868bf6d753b83ea6ea8ea996bb820&#45;&gt;dir_a8502cf64e7ac7c1b80161f3cbbf4f00 -->
<g id="edge9" class="edge">
<title>dir_66a868bf6d753b83ea6ea8ea996bb820&#45;&gt;dir_a8502cf64e7ac7c1b80161f3cbbf4f00</title>
<path fill="none" stroke="black" d="M470.94,-215.7C473.17,-207.9 475.85,-198.51 478.33,-189.83"/>
<polygon fill="black" stroke="black" points="481.73,-190.68 481.11,-180.1 475,-188.76 481.73,-190.68"/>
<g id="a_edge9&#45;headlabel"><a xlink:href="dir_000052_000418.html" target="_top" xlink:title="10">
<text text-anchor="middle" x="483.47" y="-192.42" font-family="Helvetica,sans-Serif" font-size="10.00">10</text>
</a>
</g>
</g>
<!-- dir_8fc3e8efef0bfca4a113d719cbd52afb -->
<g id="node10" class="node">
<title>dir_8fc3e8efef0bfca4a113d719cbd52afb</title>
<g id="a_node10"><a xlink:href="dir_8fc3e8efef0bfca4a113d719cbd52afb.html" target="_top" xlink:title="kratos">
<polygon fill="none" stroke="red" points="338,-36 284,-36 284,0 338,0 338,-36"/>
<text text-anchor="middle" x="311" y="-15.5" font-family="Helvetica,sans-Serif" font-size="10.00">kratos</text>
</a>
</g>
</g>
<!-- dir_a8502cf64e7ac7c1b80161f3cbbf4f00&#45;&gt;dir_8fc3e8efef0bfca4a113d719cbd52afb -->
<g id="edge2" class="edge">
<title>dir_a8502cf64e7ac7c1b80161f3cbbf4f00&#45;&gt;dir_8fc3e8efef0bfca4a113d719cbd52afb</title>
<path fill="none" stroke="black" d="M464.89,-143.87C433.75,-118.6 375.4,-71.25 340.18,-42.68"/>
<polygon fill="black" stroke="black" points="342.15,-39.77 332.18,-36.19 337.74,-45.21 342.15,-39.77"/>
<g id="a_edge2&#45;headlabel"><a xlink:href="dir_000418_000712.html" target="_top" xlink:title="8">
<text text-anchor="middle" x="346.73" y="-37.33" font-family="Helvetica,sans-Serif" font-size="10.00">8</text>
</a>
</g>
</g>
<!-- dir_fc404ae7feac46d276aaabd8e5d7e29c -->
<g id="node3" class="node">
<title>dir_fc404ae7feac46d276aaabd8e5d7e29c</title>
<g id="a_node3"><a xlink:href="dir_fc404ae7feac46d276aaabd8e5d7e29c.html" target="_top" xlink:title="custom_constitutive">
<polygon fill="white" stroke="red" points="292,-180 176,-180 176,-144 292,-144 292,-180"/>
<text text-anchor="middle" x="234" y="-159.5" font-family="Helvetica,sans-Serif" font-size="10.00">custom_constitutive</text>
</a>
</g>
</g>
<!-- dir_fc404ae7feac46d276aaabd8e5d7e29c&#45;&gt;dir_8fc3e8efef0bfca4a113d719cbd52afb -->
<g id="edge6" class="edge">
<title>dir_fc404ae7feac46d276aaabd8e5d7e29c&#45;&gt;dir_8fc3e8efef0bfca4a113d719cbd52afb</title>
<path fill="none" stroke="black" d="M255.83,-143.93C266.64,-134.42 279.05,-121.74 287,-108 298.05,-88.89 304.16,-64.54 307.45,-46.14"/>
<polygon fill="black" stroke="black" points="310.93,-46.51 309.07,-36.08 304.02,-45.39 310.93,-46.51"/>
<g id="a_edge6&#45;headlabel"><a xlink:href="dir_000404_000712.html" target="_top" xlink:title="16">
<text text-anchor="middle" x="313.16" y="-48.01" font-family="Helvetica,sans-Serif" font-size="10.00">16</text>
</a>
</g>
</g>
<!-- dir_16e98b9facb972bfde6fd33479c7184a -->
<g id="node4" class="node">
<title>dir_16e98b9facb972bfde6fd33479c7184a</title>
<g id="a_node4"><a xlink:href="dir_16e98b9facb972bfde6fd33479c7184a.html" target="_top" xlink:title="custom_elements">
<polygon fill="white" stroke="red" points="414,-180 310,-180 310,-144 414,-144 414,-180"/>
<text text-anchor="middle" x="362" y="-159.5" font-family="Helvetica,sans-Serif" font-size="10.00">custom_elements</text>
</a>
</g>
</g>
<!-- dir_16e98b9facb972bfde6fd33479c7184a&#45;&gt;dir_8fc3e8efef0bfca4a113d719cbd52afb -->
<g id="edge7" class="edge">
<title>dir_16e98b9facb972bfde6fd33479c7184a&#45;&gt;dir_8fc3e8efef0bfca4a113d719cbd52afb</title>
<path fill="none" stroke="black" d="M356.1,-143.86C348.89,-123.04 336.27,-86.86 325,-56 323.78,-52.67 322.49,-49.19 321.2,-45.74"/>
<polygon fill="black" stroke="black" points="324.44,-44.41 317.63,-36.29 317.89,-46.88 324.44,-44.41"/>
<g id="a_edge7&#45;headlabel"><a xlink:href="dir_000294_000712.html" target="_top" xlink:title="24">
<text text-anchor="middle" x="328.36" y="-44.27" font-family="Helvetica,sans-Serif" font-size="10.00">24</text>
</a>
</g>
</g>
<!-- dir_96f35e75612b3fa41c87804d60a9347d -->
<g id="node5" class="node">
<title>dir_96f35e75612b3fa41c87804d60a9347d</title>
<g id="a_node5"><a xlink:href="dir_96f35e75612b3fa41c87804d60a9347d.html" target="_top" xlink:title="custom_processes">
<polygon fill="white" stroke="black" points="244.5,-108 137.5,-108 137.5,-72 244.5,-72 244.5,-108"/>
<text text-anchor="middle" x="191" y="-87.5" font-family="Helvetica,sans-Serif" font-size="10.00">custom_processes</text>
</a>
</g>
</g>
<!-- dir_96f35e75612b3fa41c87804d60a9347d&#45;&gt;dir_8fc3e8efef0bfca4a113d719cbd52afb -->
<g id="edge1" class="edge">
<title>dir_96f35e75612b3fa41c87804d60a9347d&#45;&gt;dir_8fc3e8efef0bfca4a113d719cbd52afb</title>
<path fill="none" stroke="black" d="M220.36,-71.88C236.9,-62.23 257.69,-50.1 275.19,-39.89"/>
<polygon fill="black" stroke="black" points="277.13,-42.81 284,-34.75 273.6,-36.77 277.13,-42.81"/>
<g id="a_edge1&#45;headlabel"><a xlink:href="dir_000343_000712.html" target="_top" xlink:title="46">
<text text-anchor="middle" x="275.45" y="-44.58" font-family="Helvetica,sans-Serif" font-size="10.00">46</text>
</a>
</g>
</g>
<!-- dir_11c6619c3d88e8ae0c6b46013810f392 -->
<g id="node6" class="node">
<title>dir_11c6619c3d88e8ae0c6b46013810f392</title>
<g id="a_node6"><a xlink:href="dir_11c6619c3d88e8ae0c6b46013810f392.html" target="_top" xlink:title="custom_python">
<polygon fill="white" stroke="black" points="251,-252 159,-252 159,-216 251,-216 251,-252"/>
<text text-anchor="middle" x="205" y="-231.5" font-family="Helvetica,sans-Serif" font-size="10.00">custom_python</text>
</a>
</g>
</g>
<!-- dir_11c6619c3d88e8ae0c6b46013810f392&#45;&gt;dir_fc404ae7feac46d276aaabd8e5d7e29c -->
<g id="edge15" class="edge">
<title>dir_11c6619c3d88e8ae0c6b46013810f392&#45;&gt;dir_fc404ae7feac46d276aaabd8e5d7e29c</title>
<path fill="none" stroke="black" d="M212.17,-215.7C215.43,-207.81 219.37,-198.3 223,-189.55"/>
<polygon fill="black" stroke="black" points="226.32,-190.68 226.91,-180.1 219.85,-188 226.32,-190.68"/>
<g id="a_edge15&#45;headlabel"><a xlink:href="dir_000053_000404.html" target="_top" xlink:title="25">
<text text-anchor="middle" x="227.57" y="-192.59" font-family="Helvetica,sans-Serif" font-size="10.00">25</text>
</a>
</g>
</g>
<!-- dir_11c6619c3d88e8ae0c6b46013810f392&#45;&gt;dir_16e98b9facb972bfde6fd33479c7184a -->
<g id="edge10" class="edge">
<title>dir_11c6619c3d88e8ae0c6b46013810f392&#45;&gt;dir_16e98b9facb972bfde6fd33479c7184a</title>
<path fill="none" stroke="black" d="M243.41,-215.88C264.87,-206.31 291.8,-194.3 314.57,-184.15"/>
<polygon fill="black" stroke="black" points="316.01,-187.34 323.72,-180.07 313.16,-180.94 316.01,-187.34"/>
<g id="a_edge10&#45;headlabel"><a xlink:href="dir_000053_000294.html" target="_top" xlink:title="2">
<text text-anchor="middle" x="313.88" y="-188.89" font-family="Helvetica,sans-Serif" font-size="10.00">2</text>
</a>
</g>
</g>
<!-- dir_11c6619c3d88e8ae0c6b46013810f392&#45;&gt;dir_96f35e75612b3fa41c87804d60a9347d -->
<g id="edge13" class="edge">
<title>dir_11c6619c3d88e8ae0c6b46013810f392&#45;&gt;dir_96f35e75612b3fa41c87804d60a9347d</title>
<path fill="none" stroke="black" d="M158.96,-219.54C117.54,-206.97 62.25,-188.86 56,-180 46.77,-166.93 46.99,-157.22 56,-144 60.66,-137.16 96.17,-123.36 129.59,-111.56"/>
<polygon fill="black" stroke="black" points="131.11,-114.73 139.4,-108.13 128.8,-108.12 131.11,-114.73"/>
<g id="a_edge13&#45;headlabel"><a xlink:href="dir_000053_000343.html" target="_top" xlink:title="7">
<text text-anchor="middle" x="128.65" y="-116.1" font-family="Helvetica,sans-Serif" font-size="10.00">7</text>
</a>
</g>
</g>
<!-- dir_b56237ee916baf2c1c285b23d3a89a5b -->
<g id="node7" class="node">
<title>dir_b56237ee916baf2c1c285b23d3a89a5b</title>
<g id="a_node7"><a xlink:href="dir_b56237ee916baf2c1c285b23d3a89a5b.html" target="_top" xlink:title="custom_solvers">
<polygon fill="white" stroke="red" points="157.5,-180 64.5,-180 64.5,-144 157.5,-144 157.5,-180"/>
<text text-anchor="middle" x="111" y="-159.5" font-family="Helvetica,sans-Serif" font-size="10.00">custom_solvers</text>
</a>
</g>
</g>
<!-- dir_11c6619c3d88e8ae0c6b46013810f392&#45;&gt;dir_b56237ee916baf2c1c285b23d3a89a5b -->
<g id="edge14" class="edge">
<title>dir_11c6619c3d88e8ae0c6b46013810f392&#45;&gt;dir_b56237ee916baf2c1c285b23d3a89a5b</title>
<path fill="none" stroke="black" d="M181.76,-215.7C169.81,-206.8 155.08,-195.82 142.15,-186.2"/>
<polygon fill="black" stroke="black" points="144.08,-183.27 133.97,-180.1 139.9,-188.88 144.08,-183.27"/>
<g id="a_edge14&#45;headlabel"><a xlink:href="dir_000053_000614.html" target="_top" xlink:title="27">
<text text-anchor="middle" x="148.66" y="-180.64" font-family="Helvetica,sans-Serif" font-size="10.00">27</text>
</a>
</g>
</g>
<!-- dir_810bfbe0b28d2eee2a32789fcebb2e0e -->
<g id="node8" class="node">
<title>dir_810bfbe0b28d2eee2a32789fcebb2e0e</title>
<g id="a_node8"><a xlink:href="dir_810bfbe0b28d2eee2a32789fcebb2e0e.html" target="_top" xlink:title="custom_utilities">
<polygon fill="white" stroke="black" points="119.5,-108 24.5,-108 24.5,-72 119.5,-72 119.5,-108"/>
<text text-anchor="middle" x="72" y="-87.5" font-family="Helvetica,sans-Serif" font-size="10.00">custom_utilities</text>
</a>
</g>
</g>
<!-- dir_11c6619c3d88e8ae0c6b46013810f392&#45;&gt;dir_810bfbe0b28d2eee2a32789fcebb2e0e -->
<g id="edge11" class="edge">
<title>dir_11c6619c3d88e8ae0c6b46013810f392&#45;&gt;dir_810bfbe0b28d2eee2a32789fcebb2e0e</title>
<path fill="none" stroke="black" d="M158.81,-220.56C114.35,-208.13 52.87,-189.53 46,-180 32.57,-161.37 42.18,-135.87 53.33,-116.93"/>
<polygon fill="black" stroke="black" points="56.45,-118.55 58.83,-108.23 50.53,-114.81 56.45,-118.55"/>
<g id="a_edge11&#45;headlabel"><a xlink:href="dir_000053_000207.html" target="_top" xlink:title="2">
<text text-anchor="middle" x="56.93" y="-120.61" font-family="Helvetica,sans-Serif" font-size="10.00">2</text>
</a>
</g>
</g>
<!-- dir_11c6619c3d88e8ae0c6b46013810f392&#45;&gt;dir_8fc3e8efef0bfca4a113d719cbd52afb -->
<g id="edge12" class="edge">
<title>dir_11c6619c3d88e8ae0c6b46013810f392&#45;&gt;dir_8fc3e8efef0bfca4a113d719cbd52afb</title>
<path fill="none" stroke="black" d="M251.02,-229.22C340.27,-221.41 529.82,-202.36 549,-180 614.33,-103.84 430.06,-47.96 348.1,-27.52"/>
<polygon fill="black" stroke="black" points="348.71,-24.07 338.17,-25.09 347.05,-30.86 348.71,-24.07"/>
<g id="a_edge12&#45;headlabel"><a xlink:href="dir_000053_000712.html" target="_top" xlink:title="8">
<text text-anchor="middle" x="352.88" y="-19.66" font-family="Helvetica,sans-Serif" font-size="10.00">8</text>
</a>
</g>
</g>
<!-- dir_b56237ee916baf2c1c285b23d3a89a5b&#45;&gt;dir_96f35e75612b3fa41c87804d60a9347d -->
<g id="edge4" class="edge">
<title>dir_b56237ee916baf2c1c285b23d3a89a5b&#45;&gt;dir_96f35e75612b3fa41c87804d60a9347d</title>
<path fill="none" stroke="black" d="M130.78,-143.7C140.75,-134.97 153.01,-124.24 163.86,-114.75"/>
<polygon fill="black" stroke="black" points="166.23,-117.32 171.45,-108.1 161.62,-112.06 166.23,-117.32"/>
<g id="a_edge4&#45;headlabel"><a xlink:href="dir_000614_000343.html" target="_top" xlink:title="1">
<text text-anchor="middle" x="165.4" y="-119.33" font-family="Helvetica,sans-Serif" font-size="10.00">1</text>
</a>
</g>
</g>
<!-- dir_b56237ee916baf2c1c285b23d3a89a5b&#45;&gt;dir_810bfbe0b28d2eee2a32789fcebb2e0e -->
<g id="edge5" class="edge">
<title>dir_b56237ee916baf2c1c285b23d3a89a5b&#45;&gt;dir_810bfbe0b28d2eee2a32789fcebb2e0e</title>
<path fill="none" stroke="black" d="M101.36,-143.7C96.87,-135.64 91.44,-125.89 86.48,-116.98"/>
<polygon fill="black" stroke="black" points="89.45,-115.14 81.53,-108.1 83.34,-118.54 89.45,-115.14"/>
<g id="a_edge5&#45;headlabel"><a xlink:href="dir_000614_000207.html" target="_top" xlink:title="1">
<text text-anchor="middle" x="93.68" y="-114.39" font-family="Helvetica,sans-Serif" font-size="10.00">1</text>
</a>
</g>
</g>
<!-- dir_b56237ee916baf2c1c285b23d3a89a5b&#45;&gt;dir_8fc3e8efef0bfca4a113d719cbd52afb -->
<g id="edge3" class="edge">
<title>dir_b56237ee916baf2c1c285b23d3a89a5b&#45;&gt;dir_8fc3e8efef0bfca4a113d719cbd52afb</title>
<path fill="none" stroke="black" d="M157.62,-145.39C196.26,-132.17 246.1,-114.39 254,-108 275.28,-90.79 272.22,-79.04 287,-56 289.33,-52.38 291.79,-48.56 294.21,-44.81"/>
<polygon fill="black" stroke="black" points="297.23,-46.59 299.73,-36.29 291.36,-42.78 297.23,-46.59"/>
<g id="a_edge3&#45;headlabel"><a xlink:href="dir_000614_000712.html" target="_top" xlink:title="34">
<text text-anchor="middle" x="297.66" y="-48.65" font-family="Helvetica,sans-Serif" font-size="10.00">34</text>
</a>
</g>
</g>
<!-- dir_810bfbe0b28d2eee2a32789fcebb2e0e&#45;&gt;dir_8fc3e8efef0bfca4a113d719cbd52afb -->
<g id="edge8" class="edge">
<title>dir_810bfbe0b28d2eee2a32789fcebb2e0e&#45;&gt;dir_8fc3e8efef0bfca4a113d719cbd52afb</title>
<path fill="none" stroke="black" d="M97.51,-71.86C107.05,-66.1 118.2,-60.1 129,-56 177.22,-37.7 236.24,-27.82 273.74,-22.99"/>
<polygon fill="black" stroke="black" points="274.22,-26.46 283.71,-21.76 273.36,-19.51 274.22,-26.46"/>
<g id="a_edge8&#45;headlabel"><a xlink:href="dir_000207_000712.html" target="_top" xlink:title="15">
<text text-anchor="middle" x="271" y="-27.21" font-family="Helvetica,sans-Serif" font-size="10.00">15</text>
</a>
</g>
</g>
<!-- dir_a3e2215d0f5996d4867ee2592e8b533a -->
<g id="node9" class="node">
<title>dir_a3e2215d0f5996d4867ee2592e8b533a</title>
<g id="a_node9"><a xlink:href="dir_a3e2215d0f5996d4867ee2592e8b533a.html" target="_top" xlink:title="python_scripts">
<polygon fill="white" stroke="black" points="127,-252 39,-252 39,-216 127,-216 127,-252"/>
<text text-anchor="middle" x="83" y="-231.5" font-family="Helvetica,sans-Serif" font-size="10.00">python_scripts</text>
</a>
</g>
</g>
</g>
</svg>
        <g id="navigator" transform="translate(0 0)" fill="#404254">
                <rect fill="#f2f5e9" fill-opacity="0.5" stroke="#606060" stroke-width=".5" x="0" y="0" width="60" height="60"/>
                <use id="zoomplus" xlink:href="#zoomPlus" x="17" y="9" onmousedown="handleZoom(evt,'in')"/>
                <use id="zoomminus" xlink:href="#zoomMin" x="42" y="9" onmousedown="handleZoom(evt,'out')"/>
                <use id="reset" xlink:href="#resetDef" x="30" y="36" onmousedown="handleReset()"/>
                <g id="arrowUp" xlink:href="#dirArrow" transform="translate(30 24)" onmousedown="handlePan(0,-1)">
                  <use xlink:href="#rim" fill="#404040">
                        <set attributeName="fill" to="#808080" begin="arrowUp.mouseover" end="arrowUp.mouseout"/>
                  </use>
                  <path fill="none" stroke="white" stroke-width="1.5" d="M0,-3.0v7 M-2.5,-0.5L0,-3.0L2.5,-0.5"/>
                </g>
                <g id="arrowRight" xlink:href="#dirArrow" transform="rotate(90) translate(36 -43)" onmousedown="handlePan(1,0)">
                  <use xlink:href="#rim" fill="#404040">
                        <set attributeName="fill" to="#808080" begin="arrowRight.mouseover" end="arrowRight.mouseout"/>
                  </use>
                  <path fill="none" stroke="white" stroke-width="1.5" d="M0,-3.0v7 M-2.5,-0.5L0,-3.0L2.5,-0.5"/>
                </g>
                <g id="arrowDown" xlink:href="#dirArrow" transform="rotate(180) translate(-30 -48)" onmousedown="handlePan(0,1)">
                  <use xlink:href="#rim" fill="#404040">
                        <set attributeName="fill" to="#808080" begin="arrowDown.mouseover" end="arrowDown.mouseout"/>
                  </use>
                  <path fill="none" stroke="white" stroke-width="1.5" d="M0,-3.0v7 M-2.5,-0.5L0,-3.0L2.5,-0.5"/>
                </g>
                <g id="arrowLeft" xlink:href="#dirArrow" transform="rotate(270) translate(-36 17)" onmousedown="handlePan(-1,0)">
                  <use xlink:href="#rim" fill="#404040">
                        <set attributeName="fill" to="#808080" begin="arrowLeft.mouseover" end="arrowLeft.mouseout"/>
                  </use>
                  <path fill="none" stroke="white" stroke-width="1.5" d="M0,-3.0v7 M-2.5,-0.5L0,-3.0L2.5,-0.5"/>
                </g>
        </g>
        <svg viewBox="0 0 15 15" width="100%" height="30px" preserveAspectRatio="xMaxYMin meet">
         <g id="arrow_out" transform="scale(0.3 0.3)">
          <a xlink:href="dir_66a868bf6d753b83ea6ea8ea996bb820_dep_org.svg" target="_base">
           <rect id="button" ry="5" rx="5" y="6" x="6" height="38" width="38"
                fill="#f2f5e9" fill-opacity="0.5" stroke="#606060" stroke-width="1.0"/>
           <path id="arrow"
             d="M 11.500037,31.436501 C 11.940474,20.09759 22.043105,11.32322 32.158766,21.979434 L 37.068811,17.246167 C 37.068811,17.246167 37.088388,32 37.088388,32 L 22.160133,31.978069 C 22.160133,31.978069 26.997745,27.140456 26.997745,27.140456 C 18.528582,18.264221 13.291696,25.230495 11.500037,31.436501 z"
             style="fill:#404040;"/>
          </a>
         </g>
        </svg>
</svg>
