<?xml version="1.0" encoding="UTF-8" standalone="no"?>
<!DOCTYPE svg PUBLIC "-//W3C//DTD SVG 1.1//EN"
 "http://www.w3.org/Graphics/SVG/1.1/DTD/svg11.dtd">
<!-- Generated by graphviz version 2.43.0 (0)
 -->
<!-- Title: /home/runner/work/Documentation/Documentation/master/applications/FluidDynamicsApplication/python_scripts/symbolic_generation/incompressible_navier_stokes_p2_p1_continuous Pages: 1 -->
<svg width="298pt" height="223pt"
 viewBox="0.00 0.00 298.00 223.00" xmlns="http://www.w3.org/2000/svg" xmlns:xlink="http://www.w3.org/1999/xlink">
<g id="graph0" class="graph" transform="scale(1 1) rotate(0) translate(4 219)">
<title>/home/runner/work/Documentation/Documentation/master/applications/FluidDynamicsApplication/python_scripts/symbolic_generation/incompressible_navier_stokes_p2_p1_continuous</title>
<g id="clust1" class="cluster">
<title>clusterdir_93dea51814859aa55e4bea5627cb43a6</title>
<g id="a_clust1"><a xlink:href="dir_93dea51814859aa55e4bea5627cb43a6.html" target="_top" xlink:title="symbolic_generation">
<polygon fill="#ddddee" stroke="black" points="8,-136 8,-207 282,-207 282,-136 8,-136"/>
<text text-anchor="middle" x="145" y="-195" font-family="Helvetica,sans-Serif" font-size="10.00">symbolic_generation</text>
</a>
</g>
</g>
<!-- dir_3c7ba455b07638078c6ccd7dd9e5ec7e -->
<g id="node1" class="node">
<title>dir_3c7ba455b07638078c6ccd7dd9e5ec7e</title>
<g id="a_node1"><a xlink:href="dir_3c7ba455b07638078c6ccd7dd9e5ec7e.html" target="_top" xlink:title="incompressible_navier_stokes_p2_p1_continuous">
<polygon fill="#eeeeff" stroke="black" points="273.5,-180 16.5,-180 16.5,-144 273.5,-144 273.5,-180"/>
<text text-anchor="middle" x="145" y="-159.5" font-family="Helvetica,sans-Serif" font-size="10.00">incompressible_navier_stokes_p2_p1_continuous</text>
</a>
</g>
</g>
<!-- dir_44c939bd03ca2d59fc207ef063d27e2a -->
<g id="node2" class="node">
<title>dir_44c939bd03ca2d59fc207ef063d27e2a</title>
<g id="a_node2"><a xlink:href="dir_44c939bd03ca2d59fc207ef063d27e2a.html" target="_top" xlink:title="custom_elements">
<polygon fill="none" stroke="red" points="157,-108 53,-108 53,-72 157,-72 157,-108"/>
<text text-anchor="middle" x="105" y="-87.5" font-family="Helvetica,sans-Serif" font-size="10.00">custom_elements</text>
</a>
</g>
</g>
<!-- dir_3c7ba455b07638078c6ccd7dd9e5ec7e&#45;&gt;dir_44c939bd03ca2d59fc207ef063d27e2a -->
<g id="edge1" class="edge">
<title>dir_3c7ba455b07638078c6ccd7dd9e5ec7e&#45;&gt;dir_44c939bd03ca2d59fc207ef063d27e2a</title>
<path fill="none" stroke="black" d="M135.11,-143.7C130.51,-135.64 124.94,-125.89 119.85,-116.98"/>
<polygon fill="black" stroke="black" points="122.77,-115.05 114.77,-108.1 116.7,-118.52 122.77,-115.05"/>
<g id="a_edge1&#45;headlabel"><a xlink:href="dir_000118_000360.html" target="_top" xlink:title="1">
<text text-anchor="middle" x="127.02" y="-114.26" font-family="Helvetica,sans-Serif" font-size="10.00">1</text>
</a>
</g>
</g>
<!-- dir_8fc3e8efef0bfca4a113d719cbd52afb -->
<g id="node3" class="node">
<title>dir_8fc3e8efef0bfca4a113d719cbd52afb</title>
<g id="a_node3"><a xlink:href="dir_8fc3e8efef0bfca4a113d719cbd52afb.html" target="_top" xlink:title="kratos">
<polygon fill="none" stroke="red" points="172,-36 118,-36 118,0 172,0 172,-36"/>
<text text-anchor="middle" x="145" y="-15.5" font-family="Helvetica,sans-Serif" font-size="10.00">kratos</text>
</a>
</g>
</g>
<!-- dir_3c7ba455b07638078c6ccd7dd9e5ec7e&#45;&gt;dir_8fc3e8efef0bfca4a113d719cbd52afb -->
<g id="edge2" class="edge">
<title>dir_3c7ba455b07638078c6ccd7dd9e5ec7e&#45;&gt;dir_8fc3e8efef0bfca4a113d719cbd52afb</title>
<path fill="none" stroke="black" d="M153.72,-143.83C158.37,-133.69 163.62,-120.44 166,-108 169,-92.28 169,-87.72 166,-72 164.29,-63.06 161.1,-53.7 157.71,-45.37"/>
<polygon fill="black" stroke="black" points="160.91,-43.95 153.72,-36.17 154.49,-46.73 160.91,-43.95"/>
<g id="a_edge2&#45;headlabel"><a xlink:href="dir_000118_000719.html" target="_top" xlink:title="1">
<text text-anchor="middle" x="164.94" y="-43.62" font-family="Helvetica,sans-Serif" font-size="10.00">1</text>
</a>
</g>
</g>
<!-- dir_44c939bd03ca2d59fc207ef063d27e2a&#45;&gt;dir_8fc3e8efef0bfca4a113d719cbd52afb -->
<g id="edge3" class="edge">
<title>dir_44c939bd03ca2d59fc207ef063d27e2a&#45;&gt;dir_8fc3e8efef0bfca4a113d719cbd52afb</title>
<path fill="none" stroke="black" d="M114.89,-71.7C119.49,-63.64 125.06,-53.89 130.15,-44.98"/>
<polygon fill="black" stroke="black" points="133.3,-46.52 135.23,-36.1 127.23,-43.05 133.3,-46.52"/>
<g id="a_edge3&#45;headlabel"><a xlink:href="dir_000360_000719.html" target="_top" xlink:title="272">
<text text-anchor="middle" x="133.99" y="-48.55" font-family="Helvetica,sans-Serif" font-size="10.00">272</text>
</a>
</g>
</g>
</g>
</svg>
