<?xml version="1.0" encoding="UTF-8" standalone="no"?>
<!DOCTYPE svg PUBLIC "-//W3C//DTD SVG 1.1//EN"
 "http://www.w3.org/Graphics/SVG/1.1/DTD/svg11.dtd">
<!-- Generated by graphviz version 2.43.0 (0)
 -->
<!-- Title: /home/runner/work/Documentation/Documentation/master/applications/FluidDynamicsApplication Pages: 1 -->
<!--zoomable 447 -->
<svg id="main" version="1.1" xmlns="http://www.w3.org/2000/svg" xmlns:xlink="http://www.w3.org/1999/xlink" xml:space="preserve" onload="init(evt)">
<style type="text/css"><![CDATA[
.edge:hover path { stroke: red; }
.edge:hover polygon { stroke: red; fill: red; }
]]></style>
<script type="text/javascript"><![CDATA[
var edges = document.getElementsByTagName('g');
if (edges && edges.length) {
  for (var i=0;i<edges.length;i++) {
    if (edges[i].id.substr(0,4)=='edge') {
      edges[i].setAttribute('class','edge');
    }
  }
}
]]></script>
        <defs>
                <circle id="rim" cx="0" cy="0" r="7"/>
                <circle id="rim2" cx="0" cy="0" r="3.5"/>
                <g id="zoomPlus">
                        <use xlink:href="#rim" fill="#404040">
                                <set attributeName="fill" to="#808080" begin="zoomplus.mouseover" end="zoomplus.mouseout"/>
                        </use>
                        <path d="M-4,0h8M0,-4v8" fill="none" stroke="white" stroke-width="1.5" pointer-events="none"/>
                </g>
                <g id="zoomMin">
                        <use xlink:href="#rim" fill="#404040">
                                <set attributeName="fill" to="#808080" begin="zoomminus.mouseover" end="zoomminus.mouseout"/>
                        </use>
                        <path d="M-4,0h8" fill="none" stroke="white" stroke-width="1.5" pointer-events="none"/>
                </g>
                <g id="dirArrow">
                        <path fill="none" stroke="white" stroke-width="1.5" d="M0,-3.0v7 M-2.5,-0.5L0,-3.0L2.5,-0.5"/>
                </g>
               <g id="resetDef">
                       <use xlink:href="#rim2" fill="#404040">
                               <set attributeName="fill" to="#808080" begin="reset.mouseover" end="reset.mouseout"/>
                       </use>
               </g>
        </defs>

<script type="text/javascript">
var viewWidth = 1126;
var viewHeight = 447;
var sectionId = 'dynsection-0';
</script>
<script xlink:href="svgpan.js"/>
<svg id="graph" class="graph">
<g id="viewport">
<title>/home/runner/work/Documentation/Documentation/master/applications/FluidDynamicsApplication</title>
<g id="clust1" class="cluster">
<title>clusterdir_a6e4fee11f07c3b70486e88fe92cbbdc</title>
<g id="a_clust1"><a xlink:href="dir_a6e4fee11f07c3b70486e88fe92cbbdc.html" target="_top" xlink:title="applications">
<polygon fill="#ddddee" stroke="black" points="8,-56 8,-431 870,-431 870,-56 8,-56"/>
<text text-anchor="middle" x="439" y="-419" font-family="Helvetica,sans-Serif" font-size="10.00">applications</text>
</a>
</g>
</g>
<g id="clust2" class="cluster">
<title>clusterdir_3ad5b53c1d85a729c373dd4b6e02d9a8</title>
<g id="a_clust2"><a xlink:href="dir_3ad5b53c1d85a729c373dd4b6e02d9a8.html" target="_top">
<polygon fill="#eeeeff" stroke="black" points="16,-64 16,-404 748,-404 748,-64 16,-64"/>
</a>
</g>
</g>
<!-- dir_110ec459504756441be28fd12adbe554 -->
<g id="node1" class="node">
<title>dir_110ec459504756441be28fd12adbe554</title>
<g id="a_node1"><a xlink:href="dir_110ec459504756441be28fd12adbe554.html" target="_top" xlink:title="TrilinosApplication">
<polygon fill="none" stroke="red" points="862,-180 756,-180 756,-144 862,-144 862,-180"/>
<text text-anchor="middle" x="809" y="-159.5" font-family="Helvetica,sans-Serif" font-size="10.00">TrilinosApplication</text>
</a>
</g>
</g>
<!-- dir_8fc3e8efef0bfca4a113d719cbd52afb -->
<g id="node14" class="node">
<title>dir_8fc3e8efef0bfca4a113d719cbd52afb</title>
<g id="a_node14"><a xlink:href="dir_8fc3e8efef0bfca4a113d719cbd52afb.html" target="_top" xlink:title="kratos">
<polygon fill="none" stroke="red" points="955,-36 901,-36 901,0 955,0 955,-36"/>
<text text-anchor="middle" x="928" y="-15.5" font-family="Helvetica,sans-Serif" font-size="10.00">kratos</text>
</a>
</g>
</g>
<!-- dir_110ec459504756441be28fd12adbe554&#45;&gt;dir_8fc3e8efef0bfca4a113d719cbd52afb -->
<g id="edge1" class="edge">
<title>dir_110ec459504756441be28fd12adbe554&#45;&gt;dir_8fc3e8efef0bfca4a113d719cbd52afb</title>
<path fill="none" stroke="black" d="M817.24,-143.98C828.44,-121.98 850.07,-83.27 876,-56 880.87,-50.87 886.55,-46.01 892.32,-41.58"/>
<polygon fill="black" stroke="black" points="894.74,-44.15 900.77,-35.44 890.63,-38.49 894.74,-44.15"/>
<g id="a_edge1&#45;headlabel"><a xlink:href="dir_000102_000719.html" target="_top" xlink:title="83">
<text text-anchor="middle" x="893.5" y="-46.06" font-family="Helvetica,sans-Serif" font-size="10.00">83</text>
</a>
</g>
</g>
<!-- dir_3ad5b53c1d85a729c373dd4b6e02d9a8 -->
<g id="node2" class="node">
<title>dir_3ad5b53c1d85a729c373dd4b6e02d9a8</title>
<text text-anchor="middle" x="658" y="-375.5" font-family="Helvetica,sans-Serif" font-size="10.00">FluidDynamicsApplication</text>
</g>
<!-- dir_996863ac74ccf784c9b4bd44f8334b29 -->
<g id="node3" class="node">
<title>dir_996863ac74ccf784c9b4bd44f8334b29</title>
<g id="a_node3"><a xlink:href="dir_996863ac74ccf784c9b4bd44f8334b29.html" target="_top" xlink:title="custom_conditions">
<polygon fill="white" stroke="red" points="416,-324 308,-324 308,-288 416,-288 416,-324"/>
<text text-anchor="middle" x="362" y="-303.5" font-family="Helvetica,sans-Serif" font-size="10.00">custom_conditions</text>
</a>
</g>
</g>
<!-- dir_c1eab5df6f7ab55b7cfd8523c83a6072 -->
<g id="node10" class="node">
<title>dir_c1eab5df6f7ab55b7cfd8523c83a6072</title>
<g id="a_node10"><a xlink:href="dir_c1eab5df6f7ab55b7cfd8523c83a6072.html" target="_top" xlink:title="custom_utilities">
<polygon fill="white" stroke="black" points="539.5,-252 444.5,-252 444.5,-216 539.5,-216 539.5,-252"/>
<text text-anchor="middle" x="492" y="-231.5" font-family="Helvetica,sans-Serif" font-size="10.00">custom_utilities</text>
</a>
</g>
</g>
<!-- dir_996863ac74ccf784c9b4bd44f8334b29&#45;&gt;dir_c1eab5df6f7ab55b7cfd8523c83a6072 -->
<g id="edge15" class="edge">
<title>dir_996863ac74ccf784c9b4bd44f8334b29&#45;&gt;dir_c1eab5df6f7ab55b7cfd8523c83a6072</title>
<path fill="none" stroke="black" d="M393.8,-287.88C411.11,-278.55 432.72,-266.92 451.26,-256.94"/>
<polygon fill="black" stroke="black" points="452.93,-260.01 460.08,-252.19 449.61,-253.85 452.93,-260.01"/>
<g id="a_edge15&#45;headlabel"><a xlink:href="dir_000357_000372.html" target="_top" xlink:title="1">
<text text-anchor="middle" x="451.11" y="-261.72" font-family="Helvetica,sans-Serif" font-size="10.00">1</text>
</a>
</g>
</g>
<!-- dir_996863ac74ccf784c9b4bd44f8334b29&#45;&gt;dir_8fc3e8efef0bfca4a113d719cbd52afb -->
<g id="edge14" class="edge">
<title>dir_996863ac74ccf784c9b4bd44f8334b29&#45;&gt;dir_8fc3e8efef0bfca4a113d719cbd52afb</title>
<path fill="none" stroke="black" d="M416.15,-289.66C419.13,-289.04 422.09,-288.48 425,-288 485.97,-277.9 937.74,-297.09 980,-252 1039.57,-188.44 1019.93,-133.42 980,-56 976.21,-48.66 970.23,-42.46 963.64,-37.35"/>
<polygon fill="black" stroke="black" points="965.31,-34.26 955.09,-31.47 961.34,-40.02 965.31,-34.26"/>
<g id="a_edge14&#45;headlabel"><a xlink:href="dir_000357_000719.html" target="_top" xlink:title="85">
<text text-anchor="middle" x="969.88" y="-31.46" font-family="Helvetica,sans-Serif" font-size="10.00">85</text>
</a>
</g>
</g>
<!-- dir_339f9999d14bf00635484ed194a73eec -->
<g id="node4" class="node">
<title>dir_339f9999d14bf00635484ed194a73eec</title>
<g id="a_node4"><a xlink:href="dir_339f9999d14bf00635484ed194a73eec.html" target="_top" xlink:title="custom_constitutive">
<polygon fill="white" stroke="black" points="550,-324 434,-324 434,-288 550,-288 550,-324"/>
<text text-anchor="middle" x="492" y="-303.5" font-family="Helvetica,sans-Serif" font-size="10.00">custom_constitutive</text>
</a>
</g>
</g>
<!-- dir_339f9999d14bf00635484ed194a73eec&#45;&gt;dir_c1eab5df6f7ab55b7cfd8523c83a6072 -->
<g id="edge22" class="edge">
<title>dir_339f9999d14bf00635484ed194a73eec&#45;&gt;dir_c1eab5df6f7ab55b7cfd8523c83a6072</title>
<path fill="none" stroke="black" d="M492,-287.7C492,-279.98 492,-270.71 492,-262.11"/>
<polygon fill="black" stroke="black" points="495.5,-262.1 492,-252.1 488.5,-262.1 495.5,-262.1"/>
<g id="a_edge22&#45;headlabel"><a xlink:href="dir_000198_000372.html" target="_top" xlink:title="1">
<text text-anchor="middle" x="498.34" y="-263.2" font-family="Helvetica,sans-Serif" font-size="10.00">1</text>
</a>
</g>
</g>
<!-- dir_339f9999d14bf00635484ed194a73eec&#45;&gt;dir_8fc3e8efef0bfca4a113d719cbd52afb -->
<g id="edge21" class="edge">
<title>dir_339f9999d14bf00635484ed194a73eec&#45;&gt;dir_8fc3e8efef0bfca4a113d719cbd52afb</title>
<path fill="none" stroke="black" d="M550.34,-289.57C553.26,-289 556.16,-288.47 559,-288 609.48,-279.68 983.27,-289.56 1018,-252 1077.14,-188.04 1066.49,-128.37 1018,-56 1006.2,-38.39 984.35,-29.16 965.14,-24.32"/>
<polygon fill="black" stroke="black" points="965.63,-20.84 955.11,-22.11 964.12,-27.68 965.63,-20.84"/>
<g id="a_edge21&#45;headlabel"><a xlink:href="dir_000198_000719.html" target="_top" xlink:title="25">
<text text-anchor="middle" x="969.75" y="-16.34" font-family="Helvetica,sans-Serif" font-size="10.00">25</text>
</a>
</g>
</g>
<!-- dir_44c939bd03ca2d59fc207ef063d27e2a -->
<g id="node5" class="node">
<title>dir_44c939bd03ca2d59fc207ef063d27e2a</title>
<g id="a_node5"><a xlink:href="dir_44c939bd03ca2d59fc207ef063d27e2a.html" target="_top" xlink:title="custom_elements">
<polygon fill="white" stroke="red" points="543,-108 439,-108 439,-72 543,-72 543,-108"/>
<text text-anchor="middle" x="491" y="-87.5" font-family="Helvetica,sans-Serif" font-size="10.00">custom_elements</text>
</a>
</g>
</g>
<!-- dir_44c939bd03ca2d59fc207ef063d27e2a&#45;&gt;dir_c1eab5df6f7ab55b7cfd8523c83a6072 -->
<g id="edge35" class="edge">
<title>dir_44c939bd03ca2d59fc207ef063d27e2a&#45;&gt;dir_c1eab5df6f7ab55b7cfd8523c83a6072</title>
<path fill="none" stroke="black" d="M495.71,-108.19C498.44,-132.42 499.04,-176.89 497.26,-205.68"/>
<polygon fill="black" stroke="black" points="493.75,-205.63 496.46,-215.87 500.73,-206.18 493.75,-205.63"/>
<g id="a_edge35&#45;headlabel"><a xlink:href="dir_000360_000372.html" target="_top" xlink:title="57">
<text text-anchor="middle" x="491.2" y="-199.32" font-family="Helvetica,sans-Serif" font-size="10.00">57</text>
</a>
</g>
</g>
<!-- dir_44c939bd03ca2d59fc207ef063d27e2a&#45;&gt;dir_8fc3e8efef0bfca4a113d719cbd52afb -->
<g id="edge34" class="edge">
<title>dir_44c939bd03ca2d59fc207ef063d27e2a&#45;&gt;dir_8fc3e8efef0bfca4a113d719cbd52afb</title>
<path fill="none" stroke="black" d="M517.47,-71.97C528.11,-65.92 540.75,-59.71 553,-56 615.54,-37.08 808.78,-25.16 890.69,-20.83"/>
<polygon fill="black" stroke="black" points="891,-24.32 900.8,-20.31 890.63,-17.33 891,-24.32"/>
<g id="a_edge34&#45;headlabel"><a xlink:href="dir_000360_000719.html" target="_top" xlink:title="272">
<text text-anchor="middle" x="887.55" y="-24.85" font-family="Helvetica,sans-Serif" font-size="10.00">272</text>
</a>
</g>
</g>
<!-- dir_a1355cd600912f0dbadf1a4f6b5124f7 -->
<g id="node6" class="node">
<title>dir_a1355cd600912f0dbadf1a4f6b5124f7</title>
<g id="a_node6"><a xlink:href="dir_a1355cd600912f0dbadf1a4f6b5124f7.html" target="_top" xlink:title="custom_processes">
<polygon fill="white" stroke="black" points="668.5,-180 561.5,-180 561.5,-144 668.5,-144 668.5,-180"/>
<text text-anchor="middle" x="615" y="-159.5" font-family="Helvetica,sans-Serif" font-size="10.00">custom_processes</text>
</a>
</g>
</g>
<!-- dir_a1355cd600912f0dbadf1a4f6b5124f7&#45;&gt;dir_44c939bd03ca2d59fc207ef063d27e2a -->
<g id="edge10" class="edge">
<title>dir_a1355cd600912f0dbadf1a4f6b5124f7&#45;&gt;dir_44c939bd03ca2d59fc207ef063d27e2a</title>
<path fill="none" stroke="black" d="M584.67,-143.88C568.3,-134.64 547.92,-123.13 530.35,-113.21"/>
<polygon fill="black" stroke="black" points="531.88,-110.06 521.45,-108.19 528.44,-116.15 531.88,-110.06"/>
<g id="a_edge10&#45;headlabel"><a xlink:href="dir_000366_000360.html" target="_top" xlink:title="2">
<text text-anchor="middle" x="536.41" y="-106.85" font-family="Helvetica,sans-Serif" font-size="10.00">2</text>
</a>
</g>
</g>
<!-- dir_a73957754da12bcf902aa9e04703e8d9 -->
<g id="node9" class="node">
<title>dir_a73957754da12bcf902aa9e04703e8d9</title>
<g id="a_node9"><a xlink:href="dir_a73957754da12bcf902aa9e04703e8d9.html" target="_top" xlink:title="custom_strategies">
<polygon fill="white" stroke="red" points="668.5,-108 561.5,-108 561.5,-72 668.5,-72 668.5,-108"/>
<text text-anchor="middle" x="615" y="-87.5" font-family="Helvetica,sans-Serif" font-size="10.00">custom_strategies</text>
</a>
</g>
</g>
<!-- dir_a1355cd600912f0dbadf1a4f6b5124f7&#45;&gt;dir_a73957754da12bcf902aa9e04703e8d9 -->
<g id="edge12" class="edge">
<title>dir_a1355cd600912f0dbadf1a4f6b5124f7&#45;&gt;dir_a73957754da12bcf902aa9e04703e8d9</title>
<path fill="none" stroke="black" d="M609.08,-143.7C608.29,-135.98 608.06,-126.71 608.4,-118.11"/>
<polygon fill="black" stroke="black" points="611.9,-118.32 609.1,-108.1 604.92,-117.84 611.9,-118.32"/>
<g id="a_edge12&#45;headlabel"><a xlink:href="dir_000366_000368.html" target="_top" xlink:title="1">
<text text-anchor="middle" x="614.48" y="-119.61" font-family="Helvetica,sans-Serif" font-size="10.00">1</text>
</a>
</g>
</g>
<!-- dir_a1355cd600912f0dbadf1a4f6b5124f7&#45;&gt;dir_c1eab5df6f7ab55b7cfd8523c83a6072 -->
<g id="edge13" class="edge">
<title>dir_a1355cd600912f0dbadf1a4f6b5124f7&#45;&gt;dir_c1eab5df6f7ab55b7cfd8523c83a6072</title>
<path fill="none" stroke="black" d="M590.7,-180.19C575.41,-189.44 555.33,-200.95 537.23,-210.86"/>
<polygon fill="black" stroke="black" points="535.11,-208.03 527.99,-215.88 538.44,-214.18 535.11,-208.03"/>
<g id="a_edge13&#45;headlabel"><a xlink:href="dir_000366_000372.html" target="_top" xlink:title="4">
<text text-anchor="middle" x="536.91" y="-201.32" font-family="Helvetica,sans-Serif" font-size="10.00">4</text>
</a>
</g>
</g>
<!-- dir_a1355cd600912f0dbadf1a4f6b5124f7&#45;&gt;dir_8fc3e8efef0bfca4a113d719cbd52afb -->
<g id="edge11" class="edge">
<title>dir_a1355cd600912f0dbadf1a4f6b5124f7&#45;&gt;dir_8fc3e8efef0bfca4a113d719cbd52afb</title>
<path fill="none" stroke="black" d="M634.96,-143.75C663.01,-120.4 716.55,-79.02 769,-56 808.69,-38.58 857.71,-28.77 890.74,-23.69"/>
<polygon fill="black" stroke="black" points="891.49,-27.12 900.88,-22.21 890.47,-20.19 891.49,-27.12"/>
<g id="a_edge11&#45;headlabel"><a xlink:href="dir_000366_000719.html" target="_top" xlink:title="130">
<text text-anchor="middle" x="888.34" y="-27.95" font-family="Helvetica,sans-Serif" font-size="10.00">130</text>
</a>
</g>
</g>
<!-- dir_2a2988110020b891c35a4a8868092dc9 -->
<g id="node7" class="node">
<title>dir_2a2988110020b891c35a4a8868092dc9</title>
<g id="a_node7"><a xlink:href="dir_2a2988110020b891c35a4a8868092dc9.html" target="_top" xlink:title="custom_python">
<polygon fill="white" stroke="black" points="548,-396 456,-396 456,-360 548,-360 548,-396"/>
<text text-anchor="middle" x="502" y="-375.5" font-family="Helvetica,sans-Serif" font-size="10.00">custom_python</text>
</a>
</g>
</g>
<!-- dir_2a2988110020b891c35a4a8868092dc9&#45;&gt;dir_339f9999d14bf00635484ed194a73eec -->
<g id="edge4" class="edge">
<title>dir_2a2988110020b891c35a4a8868092dc9&#45;&gt;dir_339f9999d14bf00635484ed194a73eec</title>
<path fill="none" stroke="black" d="M499.53,-359.7C498.43,-351.98 497.1,-342.71 495.87,-334.11"/>
<polygon fill="black" stroke="black" points="499.32,-333.51 494.44,-324.1 492.39,-334.5 499.32,-333.51"/>
<g id="a_edge4&#45;headlabel"><a xlink:href="dir_000033_000198.html" target="_top" xlink:title="10">
<text text-anchor="middle" x="502.64" y="-334.17" font-family="Helvetica,sans-Serif" font-size="10.00">10</text>
</a>
</g>
</g>
<!-- dir_2a2988110020b891c35a4a8868092dc9&#45;&gt;dir_a1355cd600912f0dbadf1a4f6b5124f7 -->
<g id="edge6" class="edge">
<title>dir_2a2988110020b891c35a4a8868092dc9&#45;&gt;dir_a1355cd600912f0dbadf1a4f6b5124f7</title>
<path fill="none" stroke="black" d="M548.03,-366.44C614.17,-351.24 728.29,-324.9 729,-324 785.29,-253.06 645.04,-274.18 627,-252 613.06,-234.85 610.87,-209.41 611.71,-190.11"/>
<polygon fill="black" stroke="black" points="615.2,-190.34 612.42,-180.12 608.22,-189.84 615.2,-190.34"/>
<g id="a_edge6&#45;headlabel"><a xlink:href="dir_000033_000366.html" target="_top" xlink:title="18">
<text text-anchor="middle" x="617.77" y="-191.63" font-family="Helvetica,sans-Serif" font-size="10.00">18</text>
</a>
</g>
</g>
<!-- dir_e5badb79b6c8c3cf8f618f07e0d57876 -->
<g id="node8" class="node">
<title>dir_e5badb79b6c8c3cf8f618f07e0d57876</title>
<g id="a_node8"><a xlink:href="dir_e5badb79b6c8c3cf8f618f07e0d57876.html" target="_top" xlink:title="custom_response_functions">
<polygon fill="white" stroke="black" points="720,-324 568,-324 568,-288 720,-288 720,-324"/>
<text text-anchor="middle" x="644" y="-303.5" font-family="Helvetica,sans-Serif" font-size="10.00">custom_response_functions</text>
</a>
</g>
</g>
<!-- dir_2a2988110020b891c35a4a8868092dc9&#45;&gt;dir_e5badb79b6c8c3cf8f618f07e0d57876 -->
<g id="edge9" class="edge">
<title>dir_2a2988110020b891c35a4a8868092dc9&#45;&gt;dir_e5badb79b6c8c3cf8f618f07e0d57876</title>
<path fill="none" stroke="black" d="M536.74,-359.88C555.82,-350.47 579.68,-338.71 600.05,-328.67"/>
<polygon fill="black" stroke="black" points="601.71,-331.75 609.13,-324.19 598.61,-325.47 601.71,-331.75"/>
<g id="a_edge9&#45;headlabel"><a xlink:href="dir_000033_000367.html" target="_top" xlink:title="2">
<text text-anchor="middle" x="599.74" y="-333.39" font-family="Helvetica,sans-Serif" font-size="10.00">2</text>
</a>
</g>
</g>
<!-- dir_2a2988110020b891c35a4a8868092dc9&#45;&gt;dir_a73957754da12bcf902aa9e04703e8d9 -->
<g id="edge7" class="edge">
<title>dir_2a2988110020b891c35a4a8868092dc9&#45;&gt;dir_a73957754da12bcf902aa9e04703e8d9</title>
<path fill="none" stroke="black" d="M455.87,-375.19C343.5,-370.3 62.75,-355.08 35,-324 24.34,-312.07 25.68,-301.01 35,-288 50.68,-266.12 404.37,-155.62 551.59,-110.37"/>
<polygon fill="black" stroke="black" points="552.87,-113.63 561.4,-107.35 550.82,-106.94 552.87,-113.63"/>
<g id="a_edge7&#45;headlabel"><a xlink:href="dir_000033_000368.html" target="_top" xlink:title="11">
<text text-anchor="middle" x="550.27" y="-114.9" font-family="Helvetica,sans-Serif" font-size="10.00">11</text>
</a>
</g>
</g>
<!-- dir_2a2988110020b891c35a4a8868092dc9&#45;&gt;dir_c1eab5df6f7ab55b7cfd8523c83a6072 -->
<g id="edge8" class="edge">
<title>dir_2a2988110020b891c35a4a8868092dc9&#45;&gt;dir_c1eab5df6f7ab55b7cfd8523c83a6072</title>
<path fill="none" stroke="black" d="M455.78,-376.07C377.97,-373.42 226.07,-363.22 193,-324 182.69,-311.77 182.72,-300.26 193,-288 223.14,-252.04 355.93,-240.46 434.05,-236.75"/>
<polygon fill="black" stroke="black" points="434.39,-240.24 444.22,-236.29 434.08,-233.24 434.39,-240.24"/>
<g id="a_edge8&#45;headlabel"><a xlink:href="dir_000033_000372.html" target="_top" xlink:title="13">
<text text-anchor="middle" x="430.93" y="-240.73" font-family="Helvetica,sans-Serif" font-size="10.00">13</text>
</a>
</g>
</g>
<!-- dir_2a2988110020b891c35a4a8868092dc9&#45;&gt;dir_8fc3e8efef0bfca4a113d719cbd52afb -->
<g id="edge5" class="edge">
<title>dir_2a2988110020b891c35a4a8868092dc9&#45;&gt;dir_8fc3e8efef0bfca4a113d719cbd52afb</title>
<path fill="none" stroke="black" d="M548.39,-366.39C557.85,-364.25 567.74,-362.04 577,-360 697.5,-333.46 1118,-358.39 1118,-235 1118,-235 1118,-235 1118,-161 1118,-112.08 1120.83,-89.3 1085,-56 1067.83,-40.04 1005.97,-29.13 965.21,-23.49"/>
<polygon fill="black" stroke="black" points="965.47,-19.99 955.09,-22.14 964.54,-26.93 965.47,-19.99"/>
<g id="a_edge5&#45;headlabel"><a xlink:href="dir_000033_000719.html" target="_top" xlink:title="25">
<text text-anchor="middle" x="969.41" y="-15.16" font-family="Helvetica,sans-Serif" font-size="10.00">25</text>
</a>
</g>
</g>
<!-- dir_e5badb79b6c8c3cf8f618f07e0d57876&#45;&gt;dir_c1eab5df6f7ab55b7cfd8523c83a6072 -->
<g id="edge3" class="edge">
<title>dir_e5badb79b6c8c3cf8f618f07e0d57876&#45;&gt;dir_c1eab5df6f7ab55b7cfd8523c83a6072</title>
<path fill="none" stroke="black" d="M606.82,-287.88C586.13,-278.35 560.2,-266.41 538.22,-256.28"/>
<polygon fill="black" stroke="black" points="539.61,-253.07 529.06,-252.07 536.68,-259.43 539.61,-253.07"/>
<g id="a_edge3&#45;headlabel"><a xlink:href="dir_000367_000372.html" target="_top" xlink:title="1">
<text text-anchor="middle" x="544.06" y="-249.5" font-family="Helvetica,sans-Serif" font-size="10.00">1</text>
</a>
</g>
</g>
<!-- dir_e5badb79b6c8c3cf8f618f07e0d57876&#45;&gt;dir_8fc3e8efef0bfca4a113d719cbd52afb -->
<g id="edge2" class="edge">
<title>dir_e5badb79b6c8c3cf8f618f07e0d57876&#45;&gt;dir_8fc3e8efef0bfca4a113d719cbd52afb</title>
<path fill="none" stroke="black" d="M720.08,-300.57C833.04,-293.21 1034.21,-276.77 1056,-252 1113.53,-186.59 1108.35,-125.63 1056,-56 1035.23,-28.38 995.12,-20.4 965.3,-18.54"/>
<polygon fill="black" stroke="black" points="965.38,-15.04 955.24,-18.11 965.08,-22.03 965.38,-15.04"/>
<g id="a_edge2&#45;headlabel"><a xlink:href="dir_000367_000719.html" target="_top" xlink:title="16">
<text text-anchor="middle" x="969.09" y="-9.85" font-family="Helvetica,sans-Serif" font-size="10.00">16</text>
</a>
</g>
</g>
<!-- dir_a73957754da12bcf902aa9e04703e8d9&#45;&gt;dir_a1355cd600912f0dbadf1a4f6b5124f7 -->
<g id="edge33" class="edge">
<title>dir_a73957754da12bcf902aa9e04703e8d9&#45;&gt;dir_a1355cd600912f0dbadf1a4f6b5124f7</title>
<path fill="none" stroke="black" d="M620.9,-108.1C621.7,-115.79 621.94,-125.05 621.6,-133.67"/>
<polygon fill="black" stroke="black" points="618.11,-133.48 620.92,-143.7 625.09,-133.96 618.11,-133.48"/>
<g id="a_edge33&#45;headlabel"><a xlink:href="dir_000368_000366.html" target="_top" xlink:title="2">
<text text-anchor="middle" x="615.52" y="-127.2" font-family="Helvetica,sans-Serif" font-size="10.00">2</text>
</a>
</g>
</g>
<!-- dir_a73957754da12bcf902aa9e04703e8d9&#45;&gt;dir_c1eab5df6f7ab55b7cfd8523c83a6072 -->
<g id="edge32" class="edge">
<title>dir_a73957754da12bcf902aa9e04703e8d9&#45;&gt;dir_c1eab5df6f7ab55b7cfd8523c83a6072</title>
<path fill="none" stroke="black" d="M600.16,-108.09C588.89,-117.89 573.83,-130.84 562,-144 544.16,-163.84 527.29,-189.16 514.28,-207.71"/>
<polygon fill="black" stroke="black" points="511.35,-205.79 508.4,-215.97 517.05,-209.85 511.35,-205.79"/>
<g id="a_edge32&#45;headlabel"><a xlink:href="dir_000368_000372.html" target="_top" xlink:title="3">
<text text-anchor="middle" x="511.12" y="-198.72" font-family="Helvetica,sans-Serif" font-size="10.00">3</text>
</a>
</g>
</g>
<!-- dir_a73957754da12bcf902aa9e04703e8d9&#45;&gt;dir_8fc3e8efef0bfca4a113d719cbd52afb -->
<g id="edge31" class="edge">
<title>dir_a73957754da12bcf902aa9e04703e8d9&#45;&gt;dir_8fc3e8efef0bfca4a113d719cbd52afb</title>
<path fill="none" stroke="black" d="M668.78,-74.15C691.05,-68.19 717.2,-61.47 741,-56 792.74,-44.12 853.07,-32.6 890.9,-25.65"/>
<polygon fill="black" stroke="black" points="891.74,-29.06 900.95,-23.82 890.48,-22.17 891.74,-29.06"/>
<g id="a_edge31&#45;headlabel"><a xlink:href="dir_000368_000719.html" target="_top" xlink:title="79">
<text text-anchor="middle" x="888.71" y="-30" font-family="Helvetica,sans-Serif" font-size="10.00">79</text>
</a>
</g>
</g>
<!-- dir_c1eab5df6f7ab55b7cfd8523c83a6072&#45;&gt;dir_44c939bd03ca2d59fc207ef063d27e2a -->
<g id="edge23" class="edge">
<title>dir_c1eab5df6f7ab55b7cfd8523c83a6072&#45;&gt;dir_44c939bd03ca2d59fc207ef063d27e2a</title>
<path fill="none" stroke="black" d="M487.29,-215.87C484.57,-191.67 483.96,-147.21 485.73,-118.39"/>
<polygon fill="black" stroke="black" points="489.24,-118.43 486.53,-108.19 482.26,-117.89 489.24,-118.43"/>
<g id="a_edge23&#45;headlabel"><a xlink:href="dir_000372_000360.html" target="_top" xlink:title="1">
<text text-anchor="middle" x="491.79" y="-119.74" font-family="Helvetica,sans-Serif" font-size="10.00">1</text>
</a>
</g>
</g>
<!-- dir_c1eab5df6f7ab55b7cfd8523c83a6072&#45;&gt;dir_a1355cd600912f0dbadf1a4f6b5124f7 -->
<g id="edge25" class="edge">
<title>dir_c1eab5df6f7ab55b7cfd8523c83a6072&#45;&gt;dir_a1355cd600912f0dbadf1a4f6b5124f7</title>
<path fill="none" stroke="black" d="M516.19,-215.88C531.46,-206.64 551.53,-195.13 569.64,-185.21"/>
<polygon fill="black" stroke="black" points="571.77,-188.04 578.89,-180.19 568.43,-181.88 571.77,-188.04"/>
<g id="a_edge25&#45;headlabel"><a xlink:href="dir_000372_000366.html" target="_top" xlink:title="2">
<text text-anchor="middle" x="569.97" y="-189.75" font-family="Helvetica,sans-Serif" font-size="10.00">2</text>
</a>
</g>
</g>
<!-- dir_c1eab5df6f7ab55b7cfd8523c83a6072&#45;&gt;dir_a73957754da12bcf902aa9e04703e8d9 -->
<g id="edge26" class="edge">
<title>dir_c1eab5df6f7ab55b7cfd8523c83a6072&#45;&gt;dir_a73957754da12bcf902aa9e04703e8d9</title>
<path fill="none" stroke="black" d="M495.22,-215.97C503.97,-197.31 523.34,-166.99 544,-144 553.52,-133.41 565.13,-122.96 576.27,-114.17"/>
<polygon fill="black" stroke="black" points="578.42,-116.93 584.25,-108.09 574.18,-111.36 578.42,-116.93"/>
<g id="a_edge26&#45;headlabel"><a xlink:href="dir_000372_000368.html" target="_top" xlink:title="1">
<text text-anchor="middle" x="577.28" y="-118.87" font-family="Helvetica,sans-Serif" font-size="10.00">1</text>
</a>
</g>
</g>
<!-- dir_c1eab5df6f7ab55b7cfd8523c83a6072&#45;&gt;dir_8fc3e8efef0bfca4a113d719cbd52afb -->
<g id="edge24" class="edge">
<title>dir_c1eab5df6f7ab55b7cfd8523c83a6072&#45;&gt;dir_8fc3e8efef0bfca4a113d719cbd52afb</title>
<path fill="none" stroke="black" d="M539.81,-227.03C640.89,-214.32 867.6,-185.31 874,-180 914,-146.82 924.51,-83 927.19,-46.47"/>
<polygon fill="black" stroke="black" points="930.71,-46.26 927.79,-36.07 923.72,-45.85 930.71,-46.26"/>
<g id="a_edge24&#45;headlabel"><a xlink:href="dir_000372_000719.html" target="_top" xlink:title="161">
<text text-anchor="middle" x="933.33" y="-47.51" font-family="Helvetica,sans-Serif" font-size="10.00">161</text>
</a>
</g>
</g>
<!-- dir_5fd49174328f769a12b5059032dad846 -->
<g id="node11" class="node">
<title>dir_5fd49174328f769a12b5059032dad846</title>
<g id="a_node11"><a xlink:href="dir_5fd49174328f769a12b5059032dad846.html" target="_top" xlink:title="python_scripts">
<polygon fill="white" stroke="red" points="290,-324 202,-324 202,-288 290,-288 290,-324"/>
<text text-anchor="middle" x="246" y="-303.5" font-family="Helvetica,sans-Serif" font-size="10.00">python_scripts</text>
</a>
</g>
</g>
<!-- dir_5fd49174328f769a12b5059032dad846&#45;&gt;dir_44c939bd03ca2d59fc207ef063d27e2a -->
<g id="edge16" class="edge">
<title>dir_5fd49174328f769a12b5059032dad846&#45;&gt;dir_44c939bd03ca2d59fc207ef063d27e2a</title>
<path fill="none" stroke="black" d="M265.64,-287.85C309.09,-249.89 413.49,-158.7 463.45,-115.06"/>
<polygon fill="black" stroke="black" points="466.04,-117.45 471.27,-108.23 461.44,-112.17 466.04,-117.45"/>
<g id="a_edge16&#45;headlabel"><a xlink:href="dir_000115_000360.html" target="_top" xlink:title="8">
<text text-anchor="middle" x="465.2" y="-119.45" font-family="Helvetica,sans-Serif" font-size="10.00">8</text>
</a>
</g>
</g>
<!-- dir_5fd49174328f769a12b5059032dad846&#45;&gt;dir_c1eab5df6f7ab55b7cfd8523c83a6072 -->
<g id="edge18" class="edge">
<title>dir_5fd49174328f769a12b5059032dad846&#45;&gt;dir_c1eab5df6f7ab55b7cfd8523c83a6072</title>
<path fill="none" stroke="black" d="M290.2,-290.67C293.18,-289.75 296.13,-288.85 299,-288 344.25,-274.54 395.83,-260.44 434.27,-250.17"/>
<polygon fill="black" stroke="black" points="435.49,-253.47 444.25,-247.51 433.69,-246.7 435.49,-253.47"/>
<g id="a_edge18&#45;headlabel"><a xlink:href="dir_000115_000372.html" target="_top" xlink:title="3">
<text text-anchor="middle" x="432.75" y="-254.63" font-family="Helvetica,sans-Serif" font-size="10.00">3</text>
</a>
</g>
</g>
<!-- dir_5fd49174328f769a12b5059032dad846&#45;&gt;dir_8fc3e8efef0bfca4a113d719cbd52afb -->
<g id="edge17" class="edge">
<title>dir_5fd49174328f769a12b5059032dad846&#45;&gt;dir_8fc3e8efef0bfca4a113d719cbd52afb</title>
<path fill="none" stroke="black" d="M290.05,-290.03C293.06,-289.27 296.06,-288.58 299,-288 495.83,-249.1 553.7,-297.96 749,-252 832.47,-232.36 871.25,-244.29 928,-180 964.9,-138.2 960.1,-110.19 947,-56 946.12,-52.35 944.81,-48.65 943.28,-45.07"/>
<polygon fill="black" stroke="black" points="946.4,-43.49 938.88,-36.02 940.1,-46.55 946.4,-43.49"/>
<g id="a_edge17&#45;headlabel"><a xlink:href="dir_000115_000719.html" target="_top" xlink:title="5">
<text text-anchor="middle" x="950.53" y="-42.98" font-family="Helvetica,sans-Serif" font-size="10.00">5</text>
</a>
</g>
</g>
<!-- dir_3f4c262ec012adf179cd0ba28f115e15 -->
<g id="node12" class="node">
<title>dir_3f4c262ec012adf179cd0ba28f115e15</title>
<g id="a_node12"><a xlink:href="dir_3f4c262ec012adf179cd0ba28f115e15.html" target="_top" xlink:title="symbolic_generation">
<polygon fill="white" stroke="red" points="163.5,-324 44.5,-324 44.5,-288 163.5,-288 163.5,-324"/>
<text text-anchor="middle" x="104" y="-303.5" font-family="Helvetica,sans-Serif" font-size="10.00">symbolic_generation</text>
</a>
</g>
</g>
<!-- dir_3f4c262ec012adf179cd0ba28f115e15&#45;&gt;dir_44c939bd03ca2d59fc207ef063d27e2a -->
<g id="edge19" class="edge">
<title>dir_3f4c262ec012adf179cd0ba28f115e15&#45;&gt;dir_44c939bd03ca2d59fc207ef063d27e2a</title>
<path fill="none" stroke="black" d="M132.82,-287.76C183.39,-257.69 291.59,-194.06 385,-144 404.95,-133.31 427.32,-122.02 446.36,-112.62"/>
<polygon fill="black" stroke="black" points="447.98,-115.72 455.41,-108.17 444.89,-109.44 447.98,-115.72"/>
<g id="a_edge19&#45;headlabel"><a xlink:href="dir_000120_000360.html" target="_top" xlink:title="4">
<text text-anchor="middle" x="446.01" y="-117.36" font-family="Helvetica,sans-Serif" font-size="10.00">4</text>
</a>
</g>
</g>
<!-- dir_3f4c262ec012adf179cd0ba28f115e15&#45;&gt;dir_c1eab5df6f7ab55b7cfd8523c83a6072 -->
<g id="edge20" class="edge">
<title>dir_3f4c262ec012adf179cd0ba28f115e15&#45;&gt;dir_c1eab5df6f7ab55b7cfd8523c83a6072</title>
<path fill="none" stroke="black" d="M163.71,-290.97C168.54,-289.93 173.35,-288.93 178,-288 267.11,-270.26 371.22,-253.45 434.35,-243.69"/>
<polygon fill="black" stroke="black" points="435.15,-247.11 444.5,-242.13 434.08,-240.19 435.15,-247.11"/>
<g id="a_edge20&#45;headlabel"><a xlink:href="dir_000120_000372.html" target="_top" xlink:title="3">
<text text-anchor="middle" x="432.03" y="-247.96" font-family="Helvetica,sans-Serif" font-size="10.00">3</text>
</a>
</g>
</g>
<!-- dir_e153ad32bb5396708e0c439ed169995c -->
<g id="node13" class="node">
<title>dir_e153ad32bb5396708e0c439ed169995c</title>
<g id="a_node13"><a xlink:href="dir_e153ad32bb5396708e0c439ed169995c.html" target="_top" xlink:title="trilinos_extension">
<polygon fill="white" stroke="red" points="740,-252 636,-252 636,-216 740,-216 740,-252"/>
<text text-anchor="middle" x="688" y="-231.5" font-family="Helvetica,sans-Serif" font-size="10.00">trilinos_extension</text>
</a>
</g>
</g>
<!-- dir_e153ad32bb5396708e0c439ed169995c&#45;&gt;dir_110ec459504756441be28fd12adbe554 -->
<g id="edge27" class="edge">
<title>dir_e153ad32bb5396708e0c439ed169995c&#45;&gt;dir_110ec459504756441be28fd12adbe554</title>
<path fill="none" stroke="black" d="M717.6,-215.88C733.57,-206.64 753.46,-195.13 770.61,-185.21"/>
<polygon fill="black" stroke="black" points="772.38,-188.23 779.29,-180.19 768.88,-182.17 772.38,-188.23"/>
<g id="a_edge27&#45;headlabel"><a xlink:href="dir_000379_000102.html" target="_top" xlink:title="9">
<text text-anchor="middle" x="770.69" y="-189.98" font-family="Helvetica,sans-Serif" font-size="10.00">9</text>
</a>
</g>
</g>
<!-- dir_e153ad32bb5396708e0c439ed169995c&#45;&gt;dir_a1355cd600912f0dbadf1a4f6b5124f7 -->
<g id="edge29" class="edge">
<title>dir_e153ad32bb5396708e0c439ed169995c&#45;&gt;dir_a1355cd600912f0dbadf1a4f6b5124f7</title>
<path fill="none" stroke="black" d="M669.96,-215.7C660.94,-207.05 649.88,-196.45 640.06,-187.03"/>
<polygon fill="black" stroke="black" points="642.48,-184.5 632.84,-180.1 637.63,-189.55 642.48,-184.5"/>
<g id="a_edge29&#45;headlabel"><a xlink:href="dir_000379_000366.html" target="_top" xlink:title="2">
<text text-anchor="middle" x="647.04" y="-182.44" font-family="Helvetica,sans-Serif" font-size="10.00">2</text>
</a>
</g>
</g>
<!-- dir_e153ad32bb5396708e0c439ed169995c&#45;&gt;dir_a73957754da12bcf902aa9e04703e8d9 -->
<g id="edge30" class="edge">
<title>dir_e153ad32bb5396708e0c439ed169995c&#45;&gt;dir_a73957754da12bcf902aa9e04703e8d9</title>
<path fill="none" stroke="black" d="M689.7,-215.83C690.76,-197.05 690.11,-166.62 678,-144 671.82,-132.47 662.01,-122.41 651.95,-114.24"/>
<polygon fill="black" stroke="black" points="653.97,-111.38 643.89,-108.1 649.73,-116.95 653.97,-111.38"/>
<g id="a_edge30&#45;headlabel"><a xlink:href="dir_000379_000368.html" target="_top" xlink:title="8">
<text text-anchor="middle" x="658.55" y="-108.8" font-family="Helvetica,sans-Serif" font-size="10.00">8</text>
</a>
</g>
</g>
<!-- dir_e153ad32bb5396708e0c439ed169995c&#45;&gt;dir_8fc3e8efef0bfca4a113d719cbd52afb -->
<g id="edge28" class="edge">
<title>dir_e153ad32bb5396708e0c439ed169995c&#45;&gt;dir_8fc3e8efef0bfca4a113d719cbd52afb</title>
<path fill="none" stroke="black" d="M740.04,-226.91C796.72,-219.17 882.25,-203.86 904,-180 937.3,-143.47 936.3,-81.7 932.32,-46.23"/>
<polygon fill="black" stroke="black" points="935.77,-45.6 931.03,-36.13 928.83,-46.49 935.77,-45.6"/>
<g id="a_edge28&#45;headlabel"><a xlink:href="dir_000379_000719.html" target="_top" xlink:title="29">
<text text-anchor="middle" x="939.04" y="-46.31" font-family="Helvetica,sans-Serif" font-size="10.00">29</text>
</a>
</g>
</g>
</g>
</svg>
        <g id="navigator" transform="translate(0 0)" fill="#404254">
                <rect fill="#f2f5e9" fill-opacity="0.5" stroke="#606060" stroke-width=".5" x="0" y="0" width="60" height="60"/>
                <use id="zoomplus" xlink:href="#zoomPlus" x="17" y="9" onmousedown="handleZoom(evt,'in')"/>
                <use id="zoomminus" xlink:href="#zoomMin" x="42" y="9" onmousedown="handleZoom(evt,'out')"/>
                <use id="reset" xlink:href="#resetDef" x="30" y="36" onmousedown="handleReset()"/>
                <g id="arrowUp" xlink:href="#dirArrow" transform="translate(30 24)" onmousedown="handlePan(0,-1)">
                  <use xlink:href="#rim" fill="#404040">
                        <set attributeName="fill" to="#808080" begin="arrowUp.mouseover" end="arrowUp.mouseout"/>
                  </use>
                  <path fill="none" stroke="white" stroke-width="1.5" d="M0,-3.0v7 M-2.5,-0.5L0,-3.0L2.5,-0.5"/>
                </g>
                <g id="arrowRight" xlink:href="#dirArrow" transform="rotate(90) translate(36 -43)" onmousedown="handlePan(1,0)">
                  <use xlink:href="#rim" fill="#404040">
                        <set attributeName="fill" to="#808080" begin="arrowRight.mouseover" end="arrowRight.mouseout"/>
                  </use>
                  <path fill="none" stroke="white" stroke-width="1.5" d="M0,-3.0v7 M-2.5,-0.5L0,-3.0L2.5,-0.5"/>
                </g>
                <g id="arrowDown" xlink:href="#dirArrow" transform="rotate(180) translate(-30 -48)" onmousedown="handlePan(0,1)">
                  <use xlink:href="#rim" fill="#404040">
                        <set attributeName="fill" to="#808080" begin="arrowDown.mouseover" end="arrowDown.mouseout"/>
                  </use>
                  <path fill="none" stroke="white" stroke-width="1.5" d="M0,-3.0v7 M-2.5,-0.5L0,-3.0L2.5,-0.5"/>
                </g>
                <g id="arrowLeft" xlink:href="#dirArrow" transform="rotate(270) translate(-36 17)" onmousedown="handlePan(-1,0)">
                  <use xlink:href="#rim" fill="#404040">
                        <set attributeName="fill" to="#808080" begin="arrowLeft.mouseover" end="arrowLeft.mouseout"/>
                  </use>
                  <path fill="none" stroke="white" stroke-width="1.5" d="M0,-3.0v7 M-2.5,-0.5L0,-3.0L2.5,-0.5"/>
                </g>
        </g>
        <svg viewBox="0 0 15 15" width="100%" height="30px" preserveAspectRatio="xMaxYMin meet">
         <g id="arrow_out" transform="scale(0.3 0.3)">
          <a xlink:href="dir_3ad5b53c1d85a729c373dd4b6e02d9a8_dep_org.svg" target="_base">
           <rect id="button" ry="5" rx="5" y="6" x="6" height="38" width="38"
                fill="#f2f5e9" fill-opacity="0.5" stroke="#606060" stroke-width="1.0"/>
           <path id="arrow"
             d="M 11.500037,31.436501 C 11.940474,20.09759 22.043105,11.32322 32.158766,21.979434 L 37.068811,17.246167 C 37.068811,17.246167 37.088388,32 37.088388,32 L 22.160133,31.978069 C 22.160133,31.978069 26.997745,27.140456 26.997745,27.140456 C 18.528582,18.264221 13.291696,25.230495 11.500037,31.436501 z"
             style="fill:#404040;"/>
          </a>
         </g>
        </svg>
</svg>
