<?xml version="1.0" encoding="UTF-8" standalone="no"?>
<!DOCTYPE svg PUBLIC "-//W3C//DTD SVG 1.1//EN"
 "http://www.w3.org/Graphics/SVG/1.1/DTD/svg11.dtd">
<!-- Generated by graphviz version 2.43.0 (0)
 -->
<!-- Title: /home/runner/work/Documentation/Documentation/master/applications/SolidMechanicsApplication/custom_solvers/solution_schemes Pages: 1 -->
<svg width="334pt" height="223pt"
 viewBox="0.00 0.00 333.50 223.00" xmlns="http://www.w3.org/2000/svg" xmlns:xlink="http://www.w3.org/1999/xlink">
<g id="graph0" class="graph" transform="scale(1 1) rotate(0) translate(4 219)">
<title>/home/runner/work/Documentation/Documentation/master/applications/SolidMechanicsApplication/custom_solvers/solution_schemes</title>
<g id="clust1" class="cluster">
<title>clusterdir_b56237ee916baf2c1c285b23d3a89a5b</title>
<g id="a_clust1"><a xlink:href="dir_b56237ee916baf2c1c285b23d3a89a5b.html" target="_top" xlink:title="custom_solvers">
<polygon fill="#ddddee" stroke="black" points="8,-64 8,-207 170,-207 170,-64 8,-64"/>
<text text-anchor="middle" x="89" y="-195" font-family="Helvetica,sans-Serif" font-size="10.00">custom_solvers</text>
</a>
</g>
</g>
<!-- dir_ed68300c13755513d5a8bc6ccbb845b5 -->
<g id="node1" class="node">
<title>dir_ed68300c13755513d5a8bc6ccbb845b5</title>
<g id="a_node1"><a xlink:href="dir_ed68300c13755513d5a8bc6ccbb845b5.html" target="_top" xlink:title="time_integration_methods">
<polygon fill="none" stroke="black" points="162,-108 16,-108 16,-72 162,-72 162,-108"/>
<text text-anchor="middle" x="89" y="-87.5" font-family="Helvetica,sans-Serif" font-size="10.00">time_integration_methods</text>
</a>
</g>
</g>
<!-- dir_8fc3e8efef0bfca4a113d719cbd52afb -->
<g id="node3" class="node">
<title>dir_8fc3e8efef0bfca4a113d719cbd52afb</title>
<g id="a_node3"><a xlink:href="dir_8fc3e8efef0bfca4a113d719cbd52afb.html" target="_top" xlink:title="kratos">
<polygon fill="none" stroke="red" points="217,-36 163,-36 163,0 217,0 217,-36"/>
<text text-anchor="middle" x="190" y="-15.5" font-family="Helvetica,sans-Serif" font-size="10.00">kratos</text>
</a>
</g>
</g>
<!-- dir_ed68300c13755513d5a8bc6ccbb845b5&#45;&gt;dir_8fc3e8efef0bfca4a113d719cbd52afb -->
<g id="edge2" class="edge">
<title>dir_ed68300c13755513d5a8bc6ccbb845b5&#45;&gt;dir_8fc3e8efef0bfca4a113d719cbd52afb</title>
<path fill="none" stroke="black" d="M113.71,-71.88C126.67,-62.89 142.73,-51.76 156.77,-42.03"/>
<polygon fill="black" stroke="black" points="158.97,-44.76 165.2,-36.19 154.98,-39.01 158.97,-44.76"/>
<g id="a_edge2&#45;headlabel"><a xlink:href="dir_000620_000704.html" target="_top" xlink:title="8">
<text text-anchor="middle" x="157.64" y="-46.64" font-family="Helvetica,sans-Serif" font-size="10.00">8</text>
</a>
</g>
</g>
<!-- dir_5bff4272a538062c5a33936daeb836e9 -->
<g id="node2" class="node">
<title>dir_5bff4272a538062c5a33936daeb836e9</title>
<g id="a_node2"><a xlink:href="dir_5bff4272a538062c5a33936daeb836e9.html" target="_top" xlink:title="solution_schemes">
<polygon fill="#eeeeff" stroke="black" points="162,-180 58,-180 58,-144 162,-144 162,-180"/>
<text text-anchor="middle" x="110" y="-159.5" font-family="Helvetica,sans-Serif" font-size="10.00">solution_schemes</text>
</a>
</g>
</g>
<!-- dir_5bff4272a538062c5a33936daeb836e9&#45;&gt;dir_ed68300c13755513d5a8bc6ccbb845b5 -->
<g id="edge5" class="edge">
<title>dir_5bff4272a538062c5a33936daeb836e9&#45;&gt;dir_ed68300c13755513d5a8bc6ccbb845b5</title>
<path fill="none" stroke="black" d="M104.81,-143.7C102.47,-135.9 99.65,-126.51 97.05,-117.83"/>
<polygon fill="black" stroke="black" points="100.36,-116.68 94.13,-108.1 93.65,-118.69 100.36,-116.68"/>
<g id="a_edge5&#45;headlabel"><a xlink:href="dir_000615_000620.html" target="_top" xlink:title="1">
<text text-anchor="middle" x="104.11" y="-116.8" font-family="Helvetica,sans-Serif" font-size="10.00">1</text>
</a>
</g>
</g>
<!-- dir_5bff4272a538062c5a33936daeb836e9&#45;&gt;dir_8fc3e8efef0bfca4a113d719cbd52afb -->
<g id="edge3" class="edge">
<title>dir_5bff4272a538062c5a33936daeb836e9&#45;&gt;dir_8fc3e8efef0bfca4a113d719cbd52afb</title>
<path fill="none" stroke="black" d="M136.74,-143.83C148.97,-134.63 162.59,-122.26 171,-108 182.07,-89.23 186.73,-64.85 188.67,-46.35"/>
<polygon fill="black" stroke="black" points="192.17,-46.49 189.52,-36.23 185.19,-45.9 192.17,-46.49"/>
<g id="a_edge3&#45;headlabel"><a xlink:href="dir_000615_000704.html" target="_top" xlink:title="12">
<text text-anchor="middle" x="194.7" y="-47.81" font-family="Helvetica,sans-Serif" font-size="10.00">12</text>
</a>
</g>
</g>
<!-- dir_96f35e75612b3fa41c87804d60a9347d -->
<g id="node4" class="node">
<title>dir_96f35e75612b3fa41c87804d60a9347d</title>
<g id="a_node4"><a xlink:href="dir_96f35e75612b3fa41c87804d60a9347d.html" target="_top" xlink:title="custom_processes">
<polygon fill="none" stroke="black" points="325.5,-108 218.5,-108 218.5,-72 325.5,-72 325.5,-108"/>
<text text-anchor="middle" x="272" y="-87.5" font-family="Helvetica,sans-Serif" font-size="10.00">custom_processes</text>
</a>
</g>
</g>
<!-- dir_5bff4272a538062c5a33936daeb836e9&#45;&gt;dir_96f35e75612b3fa41c87804d60a9347d -->
<g id="edge4" class="edge">
<title>dir_5bff4272a538062c5a33936daeb836e9&#45;&gt;dir_96f35e75612b3fa41c87804d60a9347d</title>
<path fill="none" stroke="black" d="M149.63,-143.88C171.78,-134.31 199.56,-122.3 223.06,-112.15"/>
<polygon fill="black" stroke="black" points="224.71,-115.25 232.5,-108.07 221.93,-108.82 224.71,-115.25"/>
<g id="a_edge4&#45;headlabel"><a xlink:href="dir_000615_000337.html" target="_top" xlink:title="1">
<text text-anchor="middle" x="222.53" y="-116.78" font-family="Helvetica,sans-Serif" font-size="10.00">1</text>
</a>
</g>
</g>
<!-- dir_96f35e75612b3fa41c87804d60a9347d&#45;&gt;dir_8fc3e8efef0bfca4a113d719cbd52afb -->
<g id="edge1" class="edge">
<title>dir_96f35e75612b3fa41c87804d60a9347d&#45;&gt;dir_8fc3e8efef0bfca4a113d719cbd52afb</title>
<path fill="none" stroke="black" d="M251.73,-71.7C241.5,-62.97 228.94,-52.24 217.82,-42.75"/>
<polygon fill="black" stroke="black" points="219.91,-39.94 210.04,-36.1 215.37,-45.26 219.91,-39.94"/>
<g id="a_edge1&#45;headlabel"><a xlink:href="dir_000337_000704.html" target="_top" xlink:title="46">
<text text-anchor="middle" x="224.49" y="-37.61" font-family="Helvetica,sans-Serif" font-size="10.00">46</text>
</a>
</g>
</g>
</g>
</svg>
