<?xml version="1.0" encoding="UTF-8" standalone="no"?>
<!DOCTYPE svg PUBLIC "-//W3C//DTD SVG 1.1//EN"
 "http://www.w3.org/Graphics/SVG/1.1/DTD/svg11.dtd">
<!-- Generated by graphviz version 2.43.0 (0)
 -->
<!-- Title: /home/runner/work/Documentation/Documentation/master/applications/OptimizationApplication/custom_controls Pages: 1 -->
<!--zoomable 231 -->
<svg id="main" version="1.1" xmlns="http://www.w3.org/2000/svg" xmlns:xlink="http://www.w3.org/1999/xlink" xml:space="preserve" onload="init(evt)">
<style type="text/css"><![CDATA[
.edge:hover path { stroke: red; }
.edge:hover polygon { stroke: red; fill: red; }
]]></style>
<script type="text/javascript"><![CDATA[
var edges = document.getElementsByTagName('g');
if (edges && edges.length) {
  for (var i=0;i<edges.length;i++) {
    if (edges[i].id.substr(0,4)=='edge') {
      edges[i].setAttribute('class','edge');
    }
  }
}
]]></script>
        <defs>
                <circle id="rim" cx="0" cy="0" r="7"/>
                <circle id="rim2" cx="0" cy="0" r="3.5"/>
                <g id="zoomPlus">
                        <use xlink:href="#rim" fill="#404040">
                                <set attributeName="fill" to="#808080" begin="zoomplus.mouseover" end="zoomplus.mouseout"/>
                        </use>
                        <path d="M-4,0h8M0,-4v8" fill="none" stroke="white" stroke-width="1.5" pointer-events="none"/>
                </g>
                <g id="zoomMin">
                        <use xlink:href="#rim" fill="#404040">
                                <set attributeName="fill" to="#808080" begin="zoomminus.mouseover" end="zoomminus.mouseout"/>
                        </use>
                        <path d="M-4,0h8" fill="none" stroke="white" stroke-width="1.5" pointer-events="none"/>
                </g>
                <g id="dirArrow">
                        <path fill="none" stroke="white" stroke-width="1.5" d="M0,-3.0v7 M-2.5,-0.5L0,-3.0L2.5,-0.5"/>
                </g>
               <g id="resetDef">
                       <use xlink:href="#rim2" fill="#404040">
                               <set attributeName="fill" to="#808080" begin="reset.mouseover" end="reset.mouseout"/>
                       </use>
               </g>
        </defs>

<script type="text/javascript">
var viewWidth = 506;
var viewHeight = 231;
var sectionId = 'dynsection-0';
</script>
<script xlink:href="svgpan.js"/>
<svg id="graph" class="graph">
<g id="viewport">
<title>/home/runner/work/Documentation/Documentation/master/applications/OptimizationApplication/custom_controls</title>
<g id="clust1" class="cluster">
<title>clusterdir_6713ffb34e97d7a4d87587761f02609e</title>
<g id="a_clust1"><a xlink:href="dir_6713ffb34e97d7a4d87587761f02609e.html" target="_top" xlink:title="OptimizationApplication">
<polygon fill="#ddddee" stroke="black" points="8,-64 8,-215 490,-215 490,-64 8,-64"/>
<text text-anchor="middle" x="249" y="-203" font-family="Helvetica,sans-Serif" font-size="10.00">OptimizationApplication</text>
</a>
</g>
</g>
<g id="clust2" class="cluster">
<title>clusterdir_2452f77392f23a8601dcd974a0e718c9</title>
<g id="a_clust2"><a xlink:href="dir_2452f77392f23a8601dcd974a0e718c9.html" target="_top">
<polygon fill="#eeeeff" stroke="black" points="16,-136 16,-188 482,-188 482,-136 16,-136"/>
</a>
</g>
</g>
<!-- dir_3196eeaa998306abe776933259df4fbd -->
<g id="node1" class="node">
<title>dir_3196eeaa998306abe776933259df4fbd</title>
<g id="a_node1"><a xlink:href="dir_3196eeaa998306abe776933259df4fbd.html" target="_top" xlink:title="custom_elements">
<polygon fill="none" stroke="red" points="372,-108 268,-108 268,-72 372,-72 372,-108"/>
<text text-anchor="middle" x="320" y="-87.5" font-family="Helvetica,sans-Serif" font-size="10.00">custom_elements</text>
</a>
</g>
</g>
<!-- dir_8fc3e8efef0bfca4a113d719cbd52afb -->
<g id="node8" class="node">
<title>dir_8fc3e8efef0bfca4a113d719cbd52afb</title>
<g id="a_node8"><a xlink:href="dir_8fc3e8efef0bfca4a113d719cbd52afb.html" target="_top" xlink:title="kratos">
<polygon fill="none" stroke="red" points="427,-36 373,-36 373,0 427,0 427,-36"/>
<text text-anchor="middle" x="400" y="-15.5" font-family="Helvetica,sans-Serif" font-size="10.00">kratos</text>
</a>
</g>
</g>
<!-- dir_3196eeaa998306abe776933259df4fbd&#45;&gt;dir_8fc3e8efef0bfca4a113d719cbd52afb -->
<g id="edge2" class="edge">
<title>dir_3196eeaa998306abe776933259df4fbd&#45;&gt;dir_8fc3e8efef0bfca4a113d719cbd52afb</title>
<path fill="none" stroke="black" d="M339.78,-71.7C349.75,-62.97 362.01,-52.24 372.86,-42.75"/>
<polygon fill="black" stroke="black" points="375.23,-45.32 380.45,-36.1 370.62,-40.06 375.23,-45.32"/>
<g id="a_edge2&#45;headlabel"><a xlink:href="dir_000474_000700.html" target="_top" xlink:title="63">
<text text-anchor="middle" x="374.4" y="-47.33" font-family="Helvetica,sans-Serif" font-size="10.00">63</text>
</a>
</g>
</g>
<!-- dir_62170c9a8f5b54c628d9bd583c5e506c -->
<g id="node2" class="node">
<title>dir_62170c9a8f5b54c628d9bd583c5e506c</title>
<g id="a_node2"><a xlink:href="dir_62170c9a8f5b54c628d9bd583c5e506c.html" target="_top" xlink:title="custom_strategies">
<polygon fill="none" stroke="red" points="249.5,-108 142.5,-108 142.5,-72 249.5,-72 249.5,-108"/>
<text text-anchor="middle" x="196" y="-87.5" font-family="Helvetica,sans-Serif" font-size="10.00">custom_strategies</text>
</a>
</g>
</g>
<!-- dir_62170c9a8f5b54c628d9bd583c5e506c&#45;&gt;dir_8fc3e8efef0bfca4a113d719cbd52afb -->
<g id="edge14" class="edge">
<title>dir_62170c9a8f5b54c628d9bd583c5e506c&#45;&gt;dir_8fc3e8efef0bfca4a113d719cbd52afb</title>
<path fill="none" stroke="black" d="M237.87,-71.92C244.89,-69.19 252.13,-66.46 259,-64 294.06,-51.46 334.61,-38.7 363.2,-29.99"/>
<polygon fill="black" stroke="black" points="364.23,-33.33 372.78,-27.08 362.2,-26.63 364.23,-33.33"/>
<g id="a_edge14&#45;headlabel"><a xlink:href="dir_000480_000700.html" target="_top" xlink:title="6">
<text text-anchor="middle" x="361.61" y="-34.59" font-family="Helvetica,sans-Serif" font-size="10.00">6</text>
</a>
</g>
</g>
<!-- dir_f0f12ac753709d0e2d25b4d4563494b4 -->
<g id="node3" class="node">
<title>dir_f0f12ac753709d0e2d25b4d4563494b4</title>
<g id="a_node3"><a xlink:href="dir_f0f12ac753709d0e2d25b4d4563494b4.html" target="_top" xlink:title="custom_conditions">
<polygon fill="none" stroke="black" points="124,-108 16,-108 16,-72 124,-72 124,-108"/>
<text text-anchor="middle" x="70" y="-87.5" font-family="Helvetica,sans-Serif" font-size="10.00">custom_conditions</text>
</a>
</g>
</g>
<!-- dir_f0f12ac753709d0e2d25b4d4563494b4&#45;&gt;dir_8fc3e8efef0bfca4a113d719cbd52afb -->
<g id="edge13" class="edge">
<title>dir_f0f12ac753709d0e2d25b4d4563494b4&#45;&gt;dir_8fc3e8efef0bfca4a113d719cbd52afb</title>
<path fill="none" stroke="black" d="M109.86,-71.98C117.76,-69.02 126.07,-66.2 134,-64 214.03,-41.85 310.78,-28.8 362.72,-22.87"/>
<polygon fill="black" stroke="black" points="363.24,-26.33 372.79,-21.74 362.47,-19.37 363.24,-26.33"/>
<g id="a_edge13&#45;headlabel"><a xlink:href="dir_000467_000700.html" target="_top" xlink:title="12">
<text text-anchor="middle" x="359.99" y="-27.05" font-family="Helvetica,sans-Serif" font-size="10.00">12</text>
</a>
</g>
</g>
<!-- dir_2452f77392f23a8601dcd974a0e718c9 -->
<g id="node4" class="node">
<title>dir_2452f77392f23a8601dcd974a0e718c9</title>
<text text-anchor="middle" x="426" y="-159.5" font-family="Helvetica,sans-Serif" font-size="10.00">custom_controls</text>
</g>
<!-- dir_2452f77392f23a8601dcd974a0e718c9&#45;&gt;dir_8fc3e8efef0bfca4a113d719cbd52afb -->
<g id="edge1" class="edge">
<title>dir_2452f77392f23a8601dcd974a0e718c9&#45;&gt;dir_8fc3e8efef0bfca4a113d719cbd52afb</title>
<path fill="none" stroke="black" d="M456.77,-143.91C469.54,-135.02 483,-122.88 490,-108 498.32,-90.3 500.28,-80.63 490,-64 478.43,-45.27 456.43,-34.08 437.09,-27.54"/>
<polygon fill="black" stroke="black" points="437.87,-24.12 427.28,-24.53 435.81,-30.81 437.87,-24.12"/>
<g id="a_edge1&#45;headlabel"><a xlink:href="dir_000469_000700.html" target="_top" xlink:title="45">
<text text-anchor="middle" x="442.14" y="-19.96" font-family="Helvetica,sans-Serif" font-size="10.00">45</text>
</a>
</g>
</g>
<!-- dir_e8dd3f0d6325bfc3001c6f80f7800c08 -->
<g id="node5" class="node">
<title>dir_e8dd3f0d6325bfc3001c6f80f7800c08</title>
<g id="a_node5"><a xlink:href="dir_e8dd3f0d6325bfc3001c6f80f7800c08.html" target="_top" xlink:title="material_controls">
<polygon fill="white" stroke="black" points="234,-180 132,-180 132,-144 234,-144 234,-180"/>
<text text-anchor="middle" x="183" y="-159.5" font-family="Helvetica,sans-Serif" font-size="10.00">material_controls</text>
</a>
</g>
</g>
<!-- dir_e8dd3f0d6325bfc3001c6f80f7800c08&#45;&gt;dir_3196eeaa998306abe776933259df4fbd -->
<g id="edge10" class="edge">
<title>dir_e8dd3f0d6325bfc3001c6f80f7800c08&#45;&gt;dir_3196eeaa998306abe776933259df4fbd</title>
<path fill="none" stroke="black" d="M216.51,-143.88C234.84,-134.51 257.74,-122.81 277.33,-112.8"/>
<polygon fill="black" stroke="black" points="279.04,-115.86 286.36,-108.19 275.86,-109.62 279.04,-115.86"/>
<g id="a_edge10&#45;headlabel"><a xlink:href="dir_000470_000474.html" target="_top" xlink:title="2">
<text text-anchor="middle" x="277.14" y="-117.52" font-family="Helvetica,sans-Serif" font-size="10.00">2</text>
</a>
</g>
</g>
<!-- dir_e8dd3f0d6325bfc3001c6f80f7800c08&#45;&gt;dir_62170c9a8f5b54c628d9bd583c5e506c -->
<g id="edge11" class="edge">
<title>dir_e8dd3f0d6325bfc3001c6f80f7800c08&#45;&gt;dir_62170c9a8f5b54c628d9bd583c5e506c</title>
<path fill="none" stroke="black" d="M186.21,-143.7C187.65,-135.98 189.37,-126.71 190.96,-118.11"/>
<polygon fill="black" stroke="black" points="194.44,-118.58 192.82,-108.1 187.56,-117.3 194.44,-118.58"/>
<g id="a_edge11&#45;headlabel"><a xlink:href="dir_000470_000480.html" target="_top" xlink:title="2">
<text text-anchor="middle" x="196.57" y="-120.13" font-family="Helvetica,sans-Serif" font-size="10.00">2</text>
</a>
</g>
</g>
<!-- dir_e8dd3f0d6325bfc3001c6f80f7800c08&#45;&gt;dir_8fc3e8efef0bfca4a113d719cbd52afb -->
<g id="edge12" class="edge">
<title>dir_e8dd3f0d6325bfc3001c6f80f7800c08&#45;&gt;dir_8fc3e8efef0bfca4a113d719cbd52afb</title>
<path fill="none" stroke="black" d="M220.93,-143.92C228.47,-140.96 236.4,-138.15 244,-136 280.84,-125.56 389.22,-137.19 414,-108 428.55,-90.86 422.35,-64.92 414.11,-45.45"/>
<polygon fill="black" stroke="black" points="417.22,-43.83 409.85,-36.22 410.86,-46.76 417.22,-43.83"/>
<g id="a_edge12&#45;headlabel"><a xlink:href="dir_000470_000700.html" target="_top" xlink:title="4">
<text text-anchor="middle" x="421.3" y="-43.41" font-family="Helvetica,sans-Serif" font-size="10.00">4</text>
</a>
</g>
</g>
<!-- dir_4064ab998a034aee338d801c9ac3a824 -->
<g id="node6" class="node">
<title>dir_4064ab998a034aee338d801c9ac3a824</title>
<g id="a_node6"><a xlink:href="dir_4064ab998a034aee338d801c9ac3a824.html" target="_top" xlink:title="shape_controls">
<polygon fill="white" stroke="red" points="114,-180 24,-180 24,-144 114,-144 114,-180"/>
<text text-anchor="middle" x="69" y="-159.5" font-family="Helvetica,sans-Serif" font-size="10.00">shape_controls</text>
</a>
</g>
</g>
<!-- dir_4064ab998a034aee338d801c9ac3a824&#45;&gt;dir_3196eeaa998306abe776933259df4fbd -->
<g id="edge4" class="edge">
<title>dir_4064ab998a034aee338d801c9ac3a824&#45;&gt;dir_3196eeaa998306abe776933259df4fbd</title>
<path fill="none" stroke="black" d="M102.8,-143.91C109.39,-140.99 116.33,-138.2 123,-136 178.64,-117.67 197.14,-121.99 257.72,-108.18"/>
<polygon fill="black" stroke="black" points="258.89,-111.5 267.82,-105.8 257.28,-104.68 258.89,-111.5"/>
<g id="a_edge4&#45;headlabel"><a xlink:href="dir_000471_000474.html" target="_top" xlink:title="2">
<text text-anchor="middle" x="256.04" y="-112.58" font-family="Helvetica,sans-Serif" font-size="10.00">2</text>
</a>
</g>
</g>
<!-- dir_4064ab998a034aee338d801c9ac3a824&#45;&gt;dir_62170c9a8f5b54c628d9bd583c5e506c -->
<g id="edge6" class="edge">
<title>dir_4064ab998a034aee338d801c9ac3a824&#45;&gt;dir_62170c9a8f5b54c628d9bd583c5e506c</title>
<path fill="none" stroke="black" d="M100.07,-143.88C116.83,-134.64 137.71,-123.13 155.7,-113.21"/>
<polygon fill="black" stroke="black" points="157.74,-116.08 164.81,-108.19 154.37,-109.95 157.74,-116.08"/>
<g id="a_edge6&#45;headlabel"><a xlink:href="dir_000471_000480.html" target="_top" xlink:title="1">
<text text-anchor="middle" x="155.97" y="-117.8" font-family="Helvetica,sans-Serif" font-size="10.00">1</text>
</a>
</g>
</g>
<!-- dir_4064ab998a034aee338d801c9ac3a824&#45;&gt;dir_f0f12ac753709d0e2d25b4d4563494b4 -->
<g id="edge5" class="edge">
<title>dir_4064ab998a034aee338d801c9ac3a824&#45;&gt;dir_f0f12ac753709d0e2d25b4d4563494b4</title>
<path fill="none" stroke="black" d="M69.25,-143.7C69.36,-135.98 69.49,-126.71 69.61,-118.11"/>
<polygon fill="black" stroke="black" points="73.11,-118.15 69.76,-108.1 66.11,-118.05 73.11,-118.15"/>
<g id="a_edge5&#45;headlabel"><a xlink:href="dir_000471_000467.html" target="_top" xlink:title="1">
<text text-anchor="middle" x="75.9" y="-119.29" font-family="Helvetica,sans-Serif" font-size="10.00">1</text>
</a>
</g>
</g>
<!-- dir_4064ab998a034aee338d801c9ac3a824&#45;&gt;dir_8fc3e8efef0bfca4a113d719cbd52afb -->
<g id="edge3" class="edge">
<title>dir_4064ab998a034aee338d801c9ac3a824&#45;&gt;dir_8fc3e8efef0bfca4a113d719cbd52afb</title>
<path fill="none" stroke="black" d="M101.48,-143.89C108.42,-140.83 115.83,-137.98 123,-136 179.65,-120.33 343.41,-148.51 386,-108 402.33,-92.47 404.71,-66.22 403.67,-46.24"/>
<polygon fill="black" stroke="black" points="407.15,-45.86 402.84,-36.18 400.18,-46.43 407.15,-45.86"/>
<g id="a_edge3&#45;headlabel"><a xlink:href="dir_000471_000700.html" target="_top" xlink:title="19">
<text text-anchor="middle" x="410.28" y="-46.71" font-family="Helvetica,sans-Serif" font-size="10.00">19</text>
</a>
</g>
</g>
<!-- dir_2edeff40918ff1e0f7e71ea5b6c76764 -->
<g id="node7" class="node">
<title>dir_2edeff40918ff1e0f7e71ea5b6c76764</title>
<g id="a_node7"><a xlink:href="dir_2edeff40918ff1e0f7e71ea5b6c76764.html" target="_top" xlink:title="thickness_controls">
<polygon fill="white" stroke="black" points="359.5,-180 252.5,-180 252.5,-144 359.5,-144 359.5,-180"/>
<text text-anchor="middle" x="306" y="-159.5" font-family="Helvetica,sans-Serif" font-size="10.00">thickness_controls</text>
</a>
</g>
</g>
<!-- dir_2edeff40918ff1e0f7e71ea5b6c76764&#45;&gt;dir_3196eeaa998306abe776933259df4fbd -->
<g id="edge7" class="edge">
<title>dir_2edeff40918ff1e0f7e71ea5b6c76764&#45;&gt;dir_3196eeaa998306abe776933259df4fbd</title>
<path fill="none" stroke="black" d="M309.46,-143.7C311,-135.98 312.86,-126.71 314.58,-118.11"/>
<polygon fill="black" stroke="black" points="318.05,-118.6 316.58,-108.1 311.19,-117.22 318.05,-118.6"/>
<g id="a_edge7&#45;headlabel"><a xlink:href="dir_000473_000474.html" target="_top" xlink:title="1">
<text text-anchor="middle" x="320.13" y="-120.18" font-family="Helvetica,sans-Serif" font-size="10.00">1</text>
</a>
</g>
</g>
<!-- dir_2edeff40918ff1e0f7e71ea5b6c76764&#45;&gt;dir_62170c9a8f5b54c628d9bd583c5e506c -->
<g id="edge8" class="edge">
<title>dir_2edeff40918ff1e0f7e71ea5b6c76764&#45;&gt;dir_62170c9a8f5b54c628d9bd583c5e506c</title>
<path fill="none" stroke="black" d="M279.09,-143.88C264.84,-134.81 247.15,-123.55 231.76,-113.76"/>
<polygon fill="black" stroke="black" points="233.33,-110.61 223.01,-108.19 229.57,-116.51 233.33,-110.61"/>
<g id="a_edge8&#45;headlabel"><a xlink:href="dir_000473_000480.html" target="_top" xlink:title="1">
<text text-anchor="middle" x="237.89" y="-107.64" font-family="Helvetica,sans-Serif" font-size="10.00">1</text>
</a>
</g>
</g>
<!-- dir_2edeff40918ff1e0f7e71ea5b6c76764&#45;&gt;dir_8fc3e8efef0bfca4a113d719cbd52afb -->
<g id="edge9" class="edge">
<title>dir_2edeff40918ff1e0f7e71ea5b6c76764&#45;&gt;dir_8fc3e8efef0bfca4a113d719cbd52afb</title>
<path fill="none" stroke="black" d="M348.24,-143.88C355.16,-141.19 362.26,-138.47 369,-136 405.55,-122.59 429.29,-139.62 452,-108 463.41,-92.12 460.13,-81.79 452,-64 448.22,-55.73 442.08,-48.39 435.33,-42.17"/>
<polygon fill="black" stroke="black" points="437.13,-39.12 427.22,-35.39 432.64,-44.49 437.13,-39.12"/>
<g id="a_edge9&#45;headlabel"><a xlink:href="dir_000473_000700.html" target="_top" xlink:title="13">
<text text-anchor="middle" x="441.71" y="-36.75" font-family="Helvetica,sans-Serif" font-size="10.00">13</text>
</a>
</g>
</g>
</g>
</svg>
        <g id="navigator" transform="translate(0 0)" fill="#404254">
                <rect fill="#f2f5e9" fill-opacity="0.5" stroke="#606060" stroke-width=".5" x="0" y="0" width="60" height="60"/>
                <use id="zoomplus" xlink:href="#zoomPlus" x="17" y="9" onmousedown="handleZoom(evt,'in')"/>
                <use id="zoomminus" xlink:href="#zoomMin" x="42" y="9" onmousedown="handleZoom(evt,'out')"/>
                <use id="reset" xlink:href="#resetDef" x="30" y="36" onmousedown="handleReset()"/>
                <g id="arrowUp" xlink:href="#dirArrow" transform="translate(30 24)" onmousedown="handlePan(0,-1)">
                  <use xlink:href="#rim" fill="#404040">
                        <set attributeName="fill" to="#808080" begin="arrowUp.mouseover" end="arrowUp.mouseout"/>
                  </use>
                  <path fill="none" stroke="white" stroke-width="1.5" d="M0,-3.0v7 M-2.5,-0.5L0,-3.0L2.5,-0.5"/>
                </g>
                <g id="arrowRight" xlink:href="#dirArrow" transform="rotate(90) translate(36 -43)" onmousedown="handlePan(1,0)">
                  <use xlink:href="#rim" fill="#404040">
                        <set attributeName="fill" to="#808080" begin="arrowRight.mouseover" end="arrowRight.mouseout"/>
                  </use>
                  <path fill="none" stroke="white" stroke-width="1.5" d="M0,-3.0v7 M-2.5,-0.5L0,-3.0L2.5,-0.5"/>
                </g>
                <g id="arrowDown" xlink:href="#dirArrow" transform="rotate(180) translate(-30 -48)" onmousedown="handlePan(0,1)">
                  <use xlink:href="#rim" fill="#404040">
                        <set attributeName="fill" to="#808080" begin="arrowDown.mouseover" end="arrowDown.mouseout"/>
                  </use>
                  <path fill="none" stroke="white" stroke-width="1.5" d="M0,-3.0v7 M-2.5,-0.5L0,-3.0L2.5,-0.5"/>
                </g>
                <g id="arrowLeft" xlink:href="#dirArrow" transform="rotate(270) translate(-36 17)" onmousedown="handlePan(-1,0)">
                  <use xlink:href="#rim" fill="#404040">
                        <set attributeName="fill" to="#808080" begin="arrowLeft.mouseover" end="arrowLeft.mouseout"/>
                  </use>
                  <path fill="none" stroke="white" stroke-width="1.5" d="M0,-3.0v7 M-2.5,-0.5L0,-3.0L2.5,-0.5"/>
                </g>
        </g>
        <svg viewBox="0 0 15 15" width="100%" height="30px" preserveAspectRatio="xMaxYMin meet">
         <g id="arrow_out" transform="scale(0.3 0.3)">
          <a xlink:href="dir_2452f77392f23a8601dcd974a0e718c9_dep_org.svg" target="_base">
           <rect id="button" ry="5" rx="5" y="6" x="6" height="38" width="38"
                fill="#f2f5e9" fill-opacity="0.5" stroke="#606060" stroke-width="1.0"/>
           <path id="arrow"
             d="M 11.500037,31.436501 C 11.940474,20.09759 22.043105,11.32322 32.158766,21.979434 L 37.068811,17.246167 C 37.068811,17.246167 37.088388,32 37.088388,32 L 22.160133,31.978069 C 22.160133,31.978069 26.997745,27.140456 26.997745,27.140456 C 18.528582,18.264221 13.291696,25.230495 11.500037,31.436501 z"
             style="fill:#404040;"/>
          </a>
         </g>
        </svg>
</svg>
