<?xml version="1.0" encoding="UTF-8" standalone="no"?>
<!DOCTYPE svg PUBLIC "-//W3C//DTD SVG 1.1//EN"
 "http://www.w3.org/Graphics/SVG/1.1/DTD/svg11.dtd">
<!-- Generated by graphviz version 2.43.0 (0)
 -->
<!-- Title: Graphical Class Hierarchy Pages: 1 -->
<svg width="255pt" height="274pt"
 viewBox="0.00 0.00 255.00 273.50" xmlns="http://www.w3.org/2000/svg" xmlns:xlink="http://www.w3.org/1999/xlink">
<g id="graph0" class="graph" transform="scale(1 1) rotate(0) translate(4 269.5)">
<title>Graphical Class Hierarchy</title>
<!-- Node5190 -->
<g id="node1" class="node">
<title>Node5190</title>
<g id="a_node1"><a xlink:title=" ">
<polygon fill="none" stroke="#bfbfbf" points="7.5,-240.5 7.5,-259.5 36.5,-259.5 36.5,-240.5 7.5,-240.5"/>
<text text-anchor="middle" x="22" y="-247.5" font-family="Helvetica,sans-Serif" font-size="10.00">str</text>
</a>
</g>
</g>
<!-- Node0 -->
<g id="node2" class="node">
<title>Node0</title>
<g id="a_node2"><a xlink:href="d3/d98/classresponse__utilities_1_1_binary_operator.html" target="_top" xlink:title=" ">
<polygon fill="none" stroke="black" points="95,-235 95,-265 232,-265 232,-235 95,-235"/>
<text text-anchor="start" x="103" y="-253" font-family="Helvetica,sans-Serif" font-size="10.00">response_utilities.Binary</text>
<text text-anchor="middle" x="163.5" y="-242" font-family="Helvetica,sans-Serif" font-size="10.00">Operator</text>
</a>
</g>
</g>
<!-- Node5190&#45;&gt;Node0 -->
<g id="edge1" class="edge">
<title>Node5190&#45;&gt;Node0</title>
<path fill="none" stroke="midnightblue" d="M46.81,-250C60.18,-250 77.6,-250 94.85,-250"/>
<polygon fill="midnightblue" stroke="midnightblue" points="46.63,-246.5 36.63,-250 46.63,-253.5 46.63,-246.5"/>
</g>
<!-- Node6187 -->
<g id="node3" class="node">
<title>Node6187</title>
<g id="a_node3"><a xlink:title=" ">
<polygon fill="none" stroke="#bfbfbf" points="0,-118.5 0,-137.5 44,-137.5 44,-118.5 0,-118.5"/>
<text text-anchor="middle" x="22" y="-125.5" font-family="Helvetica,sans-Serif" font-size="10.00">Enum</text>
</a>
</g>
</g>
<!-- Node6187&#45;&gt;Node0 -->
<g id="edge6" class="edge">
<title>Node6187&#45;&gt;Node0</title>
<path fill="none" stroke="midnightblue" d="M29.28,-147.39C37.46,-169.61 53.88,-205.58 80,-226 84.47,-229.49 89.42,-232.47 94.63,-235.02"/>
<polygon fill="midnightblue" stroke="midnightblue" points="32.5,-146.01 25.92,-137.71 25.89,-148.31 32.5,-146.01"/>
</g>
<!-- Node6188 -->
<g id="node4" class="node">
<title>Node6188</title>
<g id="a_node4"><a xlink:href="d8/d46/classalgorithms_1_1standardized__rgp__constraint_1_1_constraint_type.html" target="_top" xlink:title=" ">
<polygon fill="none" stroke="black" points="80,-186 80,-216 247,-216 247,-186 80,-186"/>
<text text-anchor="start" x="88" y="-204" font-family="Helvetica,sans-Serif" font-size="10.00">algorithms.standardized</text>
<text text-anchor="middle" x="163.5" y="-193" font-family="Helvetica,sans-Serif" font-size="10.00">_rgp_constraint.ConstraintType</text>
</a>
</g>
</g>
<!-- Node6187&#45;&gt;Node6188 -->
<g id="edge2" class="edge">
<title>Node6187&#45;&gt;Node6188</title>
<path fill="none" stroke="midnightblue" d="M39.05,-145.13C49.76,-155.66 64.64,-168.68 80,-177 86.3,-180.41 93.13,-183.39 100.08,-185.97"/>
<polygon fill="midnightblue" stroke="midnightblue" points="41.25,-142.37 31.74,-137.69 36.25,-147.27 41.25,-142.37"/>
</g>
<!-- Node6189 -->
<g id="node5" class="node">
<title>Node6189</title>
<g id="a_node5"><a xlink:href="d5/d16/classexpression__utils_1_1_properties_data_location.html" target="_top" xlink:title=" ">
<polygon fill="none" stroke="black" points="89,-137 89,-167 238,-167 238,-137 89,-137"/>
<text text-anchor="start" x="97" y="-155" font-family="Helvetica,sans-Serif" font-size="10.00">expression_utils.Properties</text>
<text text-anchor="middle" x="163.5" y="-144" font-family="Helvetica,sans-Serif" font-size="10.00">DataLocation</text>
</a>
</g>
</g>
<!-- Node6187&#45;&gt;Node6189 -->
<g id="edge3" class="edge">
<title>Node6187&#45;&gt;Node6189</title>
<path fill="none" stroke="midnightblue" d="M54.34,-133.39C64.72,-135.18 76.74,-137.25 88.92,-139.34"/>
<polygon fill="midnightblue" stroke="midnightblue" points="54.64,-129.89 44.19,-131.65 53.45,-136.79 54.64,-129.89"/>
</g>
<!-- Node6190 -->
<g id="node6" class="node">
<title>Node6190</title>
<g id="a_node6"><a xlink:href="d2/d46/classmodel__part__utilities_1_1_model_part_operation_1_1_operation_type.html" target="_top" xlink:title=" ">
<polygon fill="none" stroke="black" points="85,-88 85,-118 242,-118 242,-88 85,-88"/>
<text text-anchor="start" x="93" y="-106" font-family="Helvetica,sans-Serif" font-size="10.00">model_part_utilities.Model</text>
<text text-anchor="middle" x="163.5" y="-95" font-family="Helvetica,sans-Serif" font-size="10.00">PartOperation.OperationType</text>
</a>
</g>
</g>
<!-- Node6187&#45;&gt;Node6190 -->
<g id="edge4" class="edge">
<title>Node6187&#45;&gt;Node6190</title>
<path fill="none" stroke="midnightblue" d="M54.06,-122.43C63.37,-120.77 74.02,-118.86 84.93,-116.9"/>
<polygon fill="midnightblue" stroke="midnightblue" points="53.41,-118.99 44.19,-124.2 54.65,-125.88 53.41,-118.99"/>
</g>
<!-- Node6191 -->
<g id="node7" class="node">
<title>Node6191</title>
<g id="a_node7"><a xlink:href="d6/d53/classpython__interface_1_1python__registry_1_1_registry_context.html" target="_top" xlink:title=" ">
<polygon fill="none" stroke="black" points="93.5,-39 93.5,-69 233.5,-69 233.5,-39 93.5,-39"/>
<text text-anchor="start" x="101.5" y="-57" font-family="Helvetica,sans-Serif" font-size="10.00">python_interface.python</text>
<text text-anchor="middle" x="163.5" y="-46" font-family="Helvetica,sans-Serif" font-size="10.00">_registry.RegistryContext</text>
</a>
</g>
</g>
<!-- Node6187&#45;&gt;Node6191 -->
<g id="edge5" class="edge">
<title>Node6187&#45;&gt;Node6191</title>
<path fill="none" stroke="midnightblue" d="M39.08,-110.93C49.8,-100.42 64.69,-87.41 80,-79 86.95,-75.18 94.56,-71.87 102.26,-69.03"/>
<polygon fill="midnightblue" stroke="midnightblue" points="36.29,-108.77 31.76,-118.35 41.28,-113.69 36.29,-108.77"/>
</g>
<!-- Node6192 -->
<g id="node8" class="node">
<title>Node6192</title>
<g id="a_node8"><a xlink:href="d5/d3a/classtest__suite_1_1_suite_flags.html" target="_top" xlink:title=" ">
<polygon fill="none" stroke="black" points="104,-0.5 104,-19.5 223,-19.5 223,-0.5 104,-0.5"/>
<text text-anchor="middle" x="163.5" y="-7.5" font-family="Helvetica,sans-Serif" font-size="10.00">test_suite.SuiteFlags</text>
</a>
</g>
</g>
<!-- Node6187&#45;&gt;Node6192 -->
<g id="edge7" class="edge">
<title>Node6187&#45;&gt;Node6192</title>
<path fill="none" stroke="midnightblue" d="M28.79,-108.81C36.65,-86.17 52.89,-49.07 80,-29 87.09,-23.75 95.38,-19.92 103.93,-17.13"/>
<polygon fill="midnightblue" stroke="midnightblue" points="25.45,-107.76 25.68,-118.35 32.11,-109.93 25.45,-107.76"/>
</g>
</g>
</svg>
