<?xml version="1.0" encoding="UTF-8" standalone="no"?>
<!DOCTYPE svg PUBLIC "-//W3C//DTD SVG 1.1//EN"
 "http://www.w3.org/Graphics/SVG/1.1/DTD/svg11.dtd">
<!-- Generated by graphviz version 2.43.0 (0)
 -->
<!-- Title: Graphical Class Hierarchy Pages: 1 -->
<svg width="382pt" height="166pt"
 viewBox="0.00 0.00 382.00 165.50" xmlns="http://www.w3.org/2000/svg" xmlns:xlink="http://www.w3.org/1999/xlink">
<g id="graph0" class="graph" transform="scale(1 1) rotate(0) translate(4 161.5)">
<title>Graphical Class Hierarchy</title>
<!-- Node0 -->
<g id="node1" class="node">
<title>Node0</title>
<g id="a_node1"><a xlink:href="d9/d0f/class_kratos_1_1_explicit_solver_strategy.html" target="_top" xlink:title=" ">
<polygon fill="none" stroke="black" points="0,-72 0,-91 162,-91 162,-72 0,-72"/>
<text text-anchor="middle" x="81" y="-79" font-family="Helvetica,sans-Serif" font-size="10.00">Kratos::ExplicitSolverStrategy</text>
</a>
</g>
</g>
<!-- Node1 -->
<g id="node2" class="node">
<title>Node1</title>
<g id="a_node2"><a xlink:href="d7/df6/class_kratos_1_1_adams_bashforth_strategy.html" target="_top" xlink:title=" ">
<polygon fill="none" stroke="black" points="198,-138 198,-157 374,-157 374,-138 198,-138"/>
<text text-anchor="middle" x="286" y="-145" font-family="Helvetica,sans-Serif" font-size="10.00">Kratos::AdamsBashforthStrategy</text>
</a>
</g>
</g>
<!-- Node0&#45;&gt;Node1 -->
<g id="edge1" class="edge">
<title>Node0&#45;&gt;Node1</title>
<path fill="none" stroke="midnightblue" d="M111.84,-95.23C134.97,-105.47 168.03,-119.23 198,-128.5 209.67,-132.11 222.42,-135.3 234.48,-137.99"/>
<polygon fill="midnightblue" stroke="midnightblue" points="113.13,-91.97 102.57,-91.08 110.26,-98.36 113.13,-91.97"/>
</g>
<!-- Node2 -->
<g id="node3" class="node">
<title>Node2</title>
<g id="a_node3"><a xlink:href="d7/ddb/class_kratos_1_1_continuum_explicit_solver_strategy.html" target="_top" xlink:title=" ">
<polygon fill="none" stroke="black" points="214.5,-88.5 214.5,-118.5 357.5,-118.5 357.5,-88.5 214.5,-88.5"/>
<text text-anchor="start" x="222.5" y="-106.5" font-family="Helvetica,sans-Serif" font-size="10.00">Kratos::ContinuumExplicit</text>
<text text-anchor="middle" x="286" y="-95.5" font-family="Helvetica,sans-Serif" font-size="10.00">SolverStrategy</text>
</a>
</g>
</g>
<!-- Node0&#45;&gt;Node2 -->
<g id="edge2" class="edge">
<title>Node0&#45;&gt;Node2</title>
<path fill="none" stroke="midnightblue" d="M172.38,-91.29C186.4,-92.81 200.72,-94.37 214.23,-95.83"/>
<polygon fill="midnightblue" stroke="midnightblue" points="172.55,-87.79 162.23,-90.19 171.8,-94.75 172.55,-87.79"/>
</g>
<!-- Node3 -->
<g id="node4" class="node">
<title>Node3</title>
<g id="a_node4"><a xlink:href="d0/d84/class_kratos_1_1_iterative_solver_strategy.html" target="_top" xlink:title=" ">
<polygon fill="none" stroke="black" points="202.5,-50 202.5,-69 369.5,-69 369.5,-50 202.5,-50"/>
<text text-anchor="middle" x="286" y="-57" font-family="Helvetica,sans-Serif" font-size="10.00">Kratos::IterativeSolverStrategy</text>
</a>
</g>
</g>
<!-- Node0&#45;&gt;Node3 -->
<g id="edge3" class="edge">
<title>Node0&#45;&gt;Node3</title>
<path fill="none" stroke="midnightblue" d="M172.2,-71.72C182.24,-70.64 192.42,-69.53 202.35,-68.46"/>
<polygon fill="midnightblue" stroke="midnightblue" points="171.8,-68.25 162.23,-72.81 172.55,-75.21 171.8,-68.25"/>
</g>
<!-- Node4 -->
<g id="node5" class="node">
<title>Node4</title>
<g id="a_node5"><a xlink:href="d9/da0/class_kratos_1_1_thermal_explicit_solver_strategy.html" target="_top" xlink:title=" ">
<polygon fill="none" stroke="black" points="205.5,-0.5 205.5,-30.5 366.5,-30.5 366.5,-0.5 205.5,-0.5"/>
<text text-anchor="start" x="213.5" y="-18.5" font-family="Helvetica,sans-Serif" font-size="10.00">Kratos::ThermalExplicitSolver</text>
<text text-anchor="middle" x="286" y="-7.5" font-family="Helvetica,sans-Serif" font-size="10.00">Strategy</text>
</a>
</g>
</g>
<!-- Node0&#45;&gt;Node4 -->
<g id="edge4" class="edge">
<title>Node0&#45;&gt;Node4</title>
<path fill="none" stroke="midnightblue" d="M117.28,-68.41C140.17,-60.07 170.71,-49.24 198,-40.5 208.48,-37.15 219.73,-33.76 230.55,-30.6"/>
<polygon fill="midnightblue" stroke="midnightblue" points="115.84,-65.21 107.65,-71.94 118.24,-71.79 115.84,-65.21"/>
</g>
</g>
</svg>
