<?xml version="1.0" encoding="UTF-8" standalone="no"?>
<!DOCTYPE svg PUBLIC "-//W3C//DTD SVG 1.1//EN"
 "http://www.w3.org/Graphics/SVG/1.1/DTD/svg11.dtd">
<!-- Generated by graphviz version 2.43.0 (0)
 -->
<!-- Title: Graphical Class Hierarchy Pages: 1 -->
<svg width="610pt" height="431pt"
 viewBox="0.00 0.00 610.00 431.00" xmlns="http://www.w3.org/2000/svg" xmlns:xlink="http://www.w3.org/1999/xlink">
<g id="graph0" class="graph" transform="scale(1 1) rotate(0) translate(4 427)">
<title>Graphical Class Hierarchy</title>
<!-- Node0 -->
<g id="node1" class="node">
<title>Node0</title>
<g id="a_node1"><a xlink:href="db/d78/class_kratos_1_1_adjoint_response_function.html" target="_top" xlink:title="A base class for adjoint response functions.">
<polygon fill="none" stroke="black" points="0,-128 0,-147 177,-147 177,-128 0,-128"/>
<text text-anchor="middle" x="88.5" y="-135" font-family="Helvetica,sans-Serif" font-size="10.00">Kratos::AdjointResponseFunction</text>
</a>
</g>
</g>
<!-- Node1 -->
<g id="node2" class="node">
<title>Node1</title>
<g id="a_node2"><a xlink:href="d5/dc1/class_kratos_1_1_adjoint_potential_response_function.html" target="_top" xlink:title=" ">
<polygon fill="none" stroke="black" points="230,-343.5 230,-373.5 362,-373.5 362,-343.5 230,-343.5"/>
<text text-anchor="start" x="238" y="-361.5" font-family="Helvetica,sans-Serif" font-size="10.00">Kratos::AdjointPotential</text>
<text text-anchor="middle" x="296" y="-350.5" font-family="Helvetica,sans-Serif" font-size="10.00">ResponseFunction</text>
</a>
</g>
</g>
<!-- Node0&#45;&gt;Node1 -->
<g id="edge1" class="edge">
<title>Node0&#45;&gt;Node1</title>
<path fill="none" stroke="midnightblue" d="M105.56,-154.77C144.58,-196.74 243.89,-303.53 280.85,-343.29"/>
<polygon fill="midnightblue" stroke="midnightblue" points="107.97,-152.22 98.6,-147.28 102.84,-156.99 107.97,-152.22"/>
</g>
<!-- Node4 -->
<g id="node5" class="node">
<title>Node4</title>
<g id="a_node5"><a xlink:href="d4/de0/class_kratos_1_1_adjoint_structural_response_function.html" target="_top" xlink:title="AdjointStructuralResponseFunction.">
<polygon fill="none" stroke="black" points="228,-196.5 228,-226.5 364,-226.5 364,-196.5 228,-196.5"/>
<text text-anchor="start" x="236" y="-214.5" font-family="Helvetica,sans-Serif" font-size="10.00">Kratos::AdjointStructural</text>
<text text-anchor="middle" x="296" y="-203.5" font-family="Helvetica,sans-Serif" font-size="10.00">ResponseFunction</text>
</a>
</g>
</g>
<!-- Node0&#45;&gt;Node4 -->
<g id="edge4" class="edge">
<title>Node0&#45;&gt;Node4</title>
<path fill="none" stroke="midnightblue" d="M120.36,-151C145.15,-161.59 180.98,-176.36 213,-187.5 221.83,-190.57 231.27,-193.58 240.5,-196.38"/>
<polygon fill="midnightblue" stroke="midnightblue" points="121.68,-147.75 111.11,-147.02 118.92,-154.18 121.68,-147.75"/>
</g>
<!-- Node10 -->
<g id="node11" class="node">
<title>Node10</title>
<g id="a_node11"><a xlink:href="d3/de1/class_kratos_1_1_drag_response_function.html" target="_top" xlink:title="A response function for drag.">
<polygon fill="none" stroke="black" points="213,-147.5 213,-177.5 379,-177.5 379,-147.5 213,-147.5"/>
<text text-anchor="start" x="221" y="-165.5" font-family="Helvetica,sans-Serif" font-size="10.00">Kratos::DragResponseFunction</text>
<text text-anchor="middle" x="296" y="-154.5" font-family="Helvetica,sans-Serif" font-size="10.00">&lt; TDim &gt;</text>
</a>
</g>
</g>
<!-- Node0&#45;&gt;Node10 -->
<g id="edge10" class="edge">
<title>Node0&#45;&gt;Node10</title>
<path fill="none" stroke="midnightblue" d="M177.89,-148.25C189.5,-149.67 201.35,-151.11 212.84,-152.51"/>
<polygon fill="midnightblue" stroke="midnightblue" points="178.13,-144.76 167.78,-147.02 177.28,-151.7 178.13,-144.76"/>
</g>
<!-- Node12 -->
<g id="node13" class="node">
<title>Node12</title>
<g id="a_node13"><a xlink:href="d9/d0a/class_kratos_1_1_local_temperature_average_response_function.html" target="_top" xlink:title=" ">
<polygon fill="none" stroke="black" points="223.5,-98.5 223.5,-128.5 368.5,-128.5 368.5,-98.5 223.5,-98.5"/>
<text text-anchor="start" x="231.5" y="-116.5" font-family="Helvetica,sans-Serif" font-size="10.00">Kratos::LocalTemperature</text>
<text text-anchor="middle" x="296" y="-105.5" font-family="Helvetica,sans-Serif" font-size="10.00">AverageResponseFunction</text>
</a>
</g>
</g>
<!-- Node0&#45;&gt;Node12 -->
<g id="edge12" class="edge">
<title>Node0&#45;&gt;Node12</title>
<path fill="none" stroke="midnightblue" d="M181.21,-126.79C195.29,-125.14 209.66,-123.47 223.23,-121.88"/>
<polygon fill="midnightblue" stroke="midnightblue" points="180.54,-123.34 171.01,-127.98 181.35,-130.3 180.54,-123.34"/>
</g>
<!-- Node13 -->
<g id="node14" class="node">
<title>Node13</title>
<g id="a_node14"><a xlink:href="d8/d53/class_kratos_1_1_python_1_1_py_adjoint_response_function.html" target="_top" xlink:title=" ">
<polygon fill="none" stroke="black" points="226,-49.5 226,-79.5 366,-79.5 366,-49.5 226,-49.5"/>
<text text-anchor="start" x="234" y="-67.5" font-family="Helvetica,sans-Serif" font-size="10.00">Kratos::Python::PyAdjoint</text>
<text text-anchor="middle" x="296" y="-56.5" font-family="Helvetica,sans-Serif" font-size="10.00">ResponseFunction</text>
</a>
</g>
</g>
<!-- Node0&#45;&gt;Node13 -->
<g id="edge13" class="edge">
<title>Node0&#45;&gt;Node13</title>
<path fill="none" stroke="midnightblue" d="M121.81,-124.18C146.58,-114.15 181.72,-100.33 213,-89.5 222.84,-86.09 233.44,-82.68 243.63,-79.52"/>
<polygon fill="midnightblue" stroke="midnightblue" points="120.47,-120.95 112.53,-127.96 123.11,-127.43 120.47,-120.95"/>
</g>
<!-- Node14 -->
<g id="node15" class="node">
<title>Node14</title>
<g id="a_node15"><a xlink:href="d9/d25/class_kratos_1_1_velocity_pressure_norm_square_response_function.html" target="_top" xlink:title="A response function for norm square calculation.">
<polygon fill="none" stroke="black" points="213,-0.5 213,-30.5 379,-30.5 379,-0.5 213,-0.5"/>
<text text-anchor="start" x="221" y="-18.5" font-family="Helvetica,sans-Serif" font-size="10.00">Kratos::VelocityPressure</text>
<text text-anchor="middle" x="296" y="-7.5" font-family="Helvetica,sans-Serif" font-size="10.00">NormSquareResponseFunction</text>
</a>
</g>
</g>
<!-- Node0&#45;&gt;Node14 -->
<g id="edge14" class="edge">
<title>Node0&#45;&gt;Node14</title>
<path fill="none" stroke="midnightblue" d="M106.16,-120.73C128.58,-99.04 170.57,-61.47 213,-39.5 219.45,-36.16 226.44,-33.22 233.52,-30.64"/>
<polygon fill="midnightblue" stroke="midnightblue" points="103.5,-118.43 98.82,-127.94 108.41,-123.43 103.5,-118.43"/>
</g>
<!-- Node2 -->
<g id="node3" class="node">
<title>Node2</title>
<g id="a_node3"><a xlink:href="d2/d1d/class_kratos_1_1_adjoint_lift_far_field_response_function.html" target="_top" xlink:title="AdjointLiftFarFieldResponseFunction.">
<polygon fill="none" stroke="black" points="438,-392.5 438,-422.5 579,-422.5 579,-392.5 438,-392.5"/>
<text text-anchor="start" x="446" y="-410.5" font-family="Helvetica,sans-Serif" font-size="10.00">Kratos::AdjointLiftFarField</text>
<text text-anchor="middle" x="508.5" y="-399.5" font-family="Helvetica,sans-Serif" font-size="10.00">ResponseFunction</text>
</a>
</g>
</g>
<!-- Node1&#45;&gt;Node2 -->
<g id="edge2" class="edge">
<title>Node1&#45;&gt;Node2</title>
<path fill="none" stroke="midnightblue" d="M371.45,-375.83C394.82,-381.27 420.42,-387.23 443.03,-392.49"/>
<polygon fill="midnightblue" stroke="midnightblue" points="372.12,-372.39 361.59,-373.53 370.53,-379.21 372.12,-372.39"/>
</g>
<!-- Node3 -->
<g id="node4" class="node">
<title>Node3</title>
<g id="a_node4"><a xlink:href="d0/d27/class_kratos_1_1_adjoint_lift_jump_coordinates_response_function.html" target="_top" xlink:title="AdjointLiftJumpCoordinatesResponseFunction.">
<polygon fill="none" stroke="black" points="415,-343.5 415,-373.5 602,-373.5 602,-343.5 415,-343.5"/>
<text text-anchor="start" x="423" y="-361.5" font-family="Helvetica,sans-Serif" font-size="10.00">Kratos::AdjointLiftJumpCoordinates</text>
<text text-anchor="middle" x="508.5" y="-350.5" font-family="Helvetica,sans-Serif" font-size="10.00">ResponseFunction</text>
</a>
</g>
</g>
<!-- Node1&#45;&gt;Node3 -->
<g id="edge3" class="edge">
<title>Node1&#45;&gt;Node3</title>
<path fill="none" stroke="midnightblue" d="M372.49,-358.5C386.21,-358.5 400.67,-358.5 414.82,-358.5"/>
<polygon fill="midnightblue" stroke="midnightblue" points="372.16,-355 362.16,-358.5 372.16,-362 372.16,-355"/>
</g>
<!-- Node5 -->
<g id="node6" class="node">
<title>Node5</title>
<g id="a_node6"><a xlink:href="da/d95/class_kratos_1_1_adjoint_linear_strain_energy_response_function.html" target="_top" xlink:title="AdjointLinearStrainEnergyResponseFunction.">
<polygon fill="none" stroke="black" points="435,-294.5 435,-324.5 582,-324.5 582,-294.5 435,-294.5"/>
<text text-anchor="start" x="443" y="-312.5" font-family="Helvetica,sans-Serif" font-size="10.00">Kratos::AdjointLinearStrain</text>
<text text-anchor="middle" x="508.5" y="-301.5" font-family="Helvetica,sans-Serif" font-size="10.00">EnergyResponseFunction</text>
</a>
</g>
</g>
<!-- Node4&#45;&gt;Node5 -->
<g id="edge5" class="edge">
<title>Node4&#45;&gt;Node5</title>
<path fill="none" stroke="midnightblue" d="M325.11,-232.6C348.2,-249.06 382.31,-271.41 415,-285.5 422.77,-288.85 431.12,-291.82 439.5,-294.42"/>
<polygon fill="midnightblue" stroke="midnightblue" points="326.99,-229.64 316.83,-226.62 322.88,-235.31 326.99,-229.64"/>
</g>
<!-- Node6 -->
<g id="node7" class="node">
<title>Node6</title>
<g id="a_node7"><a xlink:href="db/d92/class_kratos_1_1_adjoint_local_stress_response_function.html" target="_top" xlink:title="AdjointLocalStressResponseFunction.">
<polygon fill="none" stroke="black" points="436.5,-245.5 436.5,-275.5 580.5,-275.5 580.5,-245.5 436.5,-245.5"/>
<text text-anchor="start" x="444.5" y="-263.5" font-family="Helvetica,sans-Serif" font-size="10.00">Kratos::AdjointLocalStress</text>
<text text-anchor="middle" x="508.5" y="-252.5" font-family="Helvetica,sans-Serif" font-size="10.00">ResponseFunction</text>
</a>
</g>
</g>
<!-- Node4&#45;&gt;Node6 -->
<g id="edge6" class="edge">
<title>Node4&#45;&gt;Node6</title>
<path fill="none" stroke="midnightblue" d="M371.45,-228.83C394.82,-234.27 420.42,-240.23 443.03,-245.49"/>
<polygon fill="midnightblue" stroke="midnightblue" points="372.12,-225.39 361.59,-226.53 370.53,-232.21 372.12,-225.39"/>
</g>
<!-- Node7 -->
<g id="node8" class="node">
<title>Node7</title>
<g id="a_node8"><a xlink:href="d5/d78/class_kratos_1_1_adjoint_max_stress_response_function.html" target="_top" xlink:title="AdjointMaxStressResponseFunction.">
<polygon fill="none" stroke="black" points="438.5,-196.5 438.5,-226.5 578.5,-226.5 578.5,-196.5 438.5,-196.5"/>
<text text-anchor="start" x="446.5" y="-214.5" font-family="Helvetica,sans-Serif" font-size="10.00">Kratos::AdjointMaxStress</text>
<text text-anchor="middle" x="508.5" y="-203.5" font-family="Helvetica,sans-Serif" font-size="10.00">ResponseFunction</text>
</a>
</g>
</g>
<!-- Node4&#45;&gt;Node7 -->
<g id="edge7" class="edge">
<title>Node4&#45;&gt;Node7</title>
<path fill="none" stroke="midnightblue" d="M374.34,-211.5C395.33,-211.5 417.92,-211.5 438.42,-211.5"/>
<polygon fill="midnightblue" stroke="midnightblue" points="374.18,-208 364.18,-211.5 374.18,-215 374.18,-208"/>
</g>
<!-- Node8 -->
<g id="node9" class="node">
<title>Node8</title>
<g id="a_node9"><a xlink:href="da/d26/class_kratos_1_1_adjoint_nodal_displacement_response_function.html" target="_top" xlink:title="AdjointNodalDisplacementResponseFunction.">
<polygon fill="none" stroke="black" points="416,-147.5 416,-177.5 601,-177.5 601,-147.5 416,-147.5"/>
<text text-anchor="start" x="424" y="-165.5" font-family="Helvetica,sans-Serif" font-size="10.00">Kratos::AdjointNodalDisplacement</text>
<text text-anchor="middle" x="508.5" y="-154.5" font-family="Helvetica,sans-Serif" font-size="10.00">ResponseFunction</text>
</a>
</g>
</g>
<!-- Node4&#45;&gt;Node8 -->
<g id="edge8" class="edge">
<title>Node4&#45;&gt;Node8</title>
<path fill="none" stroke="midnightblue" d="M371.45,-194.17C394.82,-188.73 420.42,-182.77 443.03,-177.51"/>
<polygon fill="midnightblue" stroke="midnightblue" points="370.53,-190.79 361.59,-196.47 372.12,-197.61 370.53,-190.79"/>
</g>
<!-- Node9 -->
<g id="node10" class="node">
<title>Node9</title>
<g id="a_node10"><a xlink:href="d5/d0b/class_kratos_1_1_adjoint_nodal_reaction_response_function.html" target="_top" xlink:title="AdjointNodalReactionResponseFunction.">
<polygon fill="none" stroke="black" points="428.5,-98.5 428.5,-128.5 588.5,-128.5 588.5,-98.5 428.5,-98.5"/>
<text text-anchor="start" x="436.5" y="-116.5" font-family="Helvetica,sans-Serif" font-size="10.00">Kratos::AdjointNodalReaction</text>
<text text-anchor="middle" x="508.5" y="-105.5" font-family="Helvetica,sans-Serif" font-size="10.00">ResponseFunction</text>
</a>
</g>
</g>
<!-- Node4&#45;&gt;Node9 -->
<g id="edge9" class="edge">
<title>Node4&#45;&gt;Node9</title>
<path fill="none" stroke="midnightblue" d="M372.37,-191.7C374.65,-190.39 376.87,-188.99 379,-187.5 401.14,-172 392.71,-153.77 415,-138.5 420.63,-134.65 426.82,-131.38 433.26,-128.63"/>
<polygon fill="midnightblue" stroke="midnightblue" points="370.56,-188.69 363.24,-196.34 373.74,-194.93 370.56,-188.69"/>
</g>
<!-- Node11 -->
<g id="node12" class="node">
<title>Node11</title>
<g id="a_node12"><a xlink:href="d6/d8c/class_kratos_1_1_py_drag_response_function.html" target="_top" xlink:title=" ">
<polygon fill="none" stroke="black" points="419.5,-49.5 419.5,-79.5 597.5,-79.5 597.5,-49.5 419.5,-49.5"/>
<text text-anchor="start" x="427.5" y="-67.5" font-family="Helvetica,sans-Serif" font-size="10.00">Kratos::PyDragResponseFunction</text>
<text text-anchor="middle" x="508.5" y="-56.5" font-family="Helvetica,sans-Serif" font-size="10.00">&lt; TDim &gt;</text>
</a>
</g>
</g>
<!-- Node10&#45;&gt;Node11 -->
<g id="edge11" class="edge">
<title>Node10&#45;&gt;Node11</title>
<path fill="none" stroke="midnightblue" d="M372.37,-142.7C374.65,-141.39 376.87,-139.99 379,-138.5 401.14,-123 392.71,-104.77 415,-89.5 420.63,-85.65 426.82,-82.38 433.26,-79.63"/>
<polygon fill="midnightblue" stroke="midnightblue" points="370.56,-139.69 363.24,-147.34 373.74,-145.93 370.56,-139.69"/>
</g>
</g>
</svg>
