<?xml version="1.0" encoding="UTF-8" standalone="no"?>
<!DOCTYPE svg PUBLIC "-//W3C//DTD SVG 1.1//EN"
 "http://www.w3.org/Graphics/SVG/1.1/DTD/svg11.dtd">
<!-- Generated by graphviz version 2.43.0 (0)
 -->
<!-- Title: Graphical Class Hierarchy Pages: 1 -->
<svg width="351pt" height="431pt"
 viewBox="0.00 0.00 351.00 431.00" xmlns="http://www.w3.org/2000/svg" xmlns:xlink="http://www.w3.org/1999/xlink">
<g id="graph0" class="graph" transform="scale(1 1) rotate(0) translate(4 427)">
<title>Graphical Class Hierarchy</title>
<!-- Node0 -->
<g id="node1" class="node">
<title>Node0</title>
<g id="a_node1"><a xlink:href="d3/db1/class_kratos_1_1_expression_input.html" target="_top" xlink:title=" ">
<polygon fill="none" stroke="black" points="0,-202 0,-221 132,-221 132,-202 0,-202"/>
<text text-anchor="middle" x="66" y="-209" font-family="Helvetica,sans-Serif" font-size="10.00">Kratos::ExpressionInput</text>
</a>
</g>
</g>
<!-- Node1 -->
<g id="node2" class="node">
<title>Node1</title>
<g id="a_node2"><a xlink:href="dc/dfb/class_kratos_1_1_c_array_expression_i_o_1_1_input.html" target="_top" xlink:title=" ">
<polygon fill="none" stroke="black" points="185.5,-392.5 185.5,-422.5 325.5,-422.5 325.5,-392.5 185.5,-392.5"/>
<text text-anchor="start" x="193.5" y="-410.5" font-family="Helvetica,sans-Serif" font-size="10.00">Kratos::CArrayExpression</text>
<text text-anchor="middle" x="255.5" y="-399.5" font-family="Helvetica,sans-Serif" font-size="10.00">IO::Input</text>
</a>
</g>
</g>
<!-- Node0&#45;&gt;Node1 -->
<g id="edge1" class="edge">
<title>Node0&#45;&gt;Node1</title>
<path fill="none" stroke="midnightblue" d="M72.87,-230.71C84.79,-266.39 115.25,-342.96 168,-383.5 173.19,-387.49 179.01,-390.81 185.1,-393.59"/>
<polygon fill="midnightblue" stroke="midnightblue" points="76.16,-229.48 69.77,-221.03 69.49,-231.62 76.16,-229.48"/>
</g>
<!-- Node2 -->
<g id="node3" class="node">
<title>Node2</title>
<g id="a_node3"><a xlink:href="dc/d57/class_kratos_1_1_c_array_expression_i_o_1_1_move_input.html" target="_top" xlink:title=" ">
<polygon fill="none" stroke="black" points="185.5,-343.5 185.5,-373.5 325.5,-373.5 325.5,-343.5 185.5,-343.5"/>
<text text-anchor="start" x="193.5" y="-361.5" font-family="Helvetica,sans-Serif" font-size="10.00">Kratos::CArrayExpression</text>
<text text-anchor="middle" x="255.5" y="-350.5" font-family="Helvetica,sans-Serif" font-size="10.00">IO::MoveInput</text>
</a>
</g>
</g>
<!-- Node0&#45;&gt;Node2 -->
<g id="edge2" class="edge">
<title>Node0&#45;&gt;Node2</title>
<path fill="none" stroke="midnightblue" d="M77.19,-230.05C93.03,-257.14 126.13,-307.25 168,-334.5 173.36,-337.99 179.21,-340.97 185.28,-343.53"/>
<polygon fill="midnightblue" stroke="midnightblue" points="80.14,-228.16 72.15,-221.2 74.05,-231.62 80.14,-228.16"/>
</g>
<!-- Node3 -->
<g id="node4" class="node">
<title>Node3</title>
<g id="a_node4"><a xlink:href="d3/dd7/class_kratos_1_1_domain_size_expression_i_o_1_1_input.html" target="_top" xlink:title="Construct a new domain expression input.">
<polygon fill="none" stroke="black" points="172.5,-294.5 172.5,-324.5 338.5,-324.5 338.5,-294.5 172.5,-294.5"/>
<text text-anchor="start" x="180.5" y="-312.5" font-family="Helvetica,sans-Serif" font-size="10.00">Kratos::DomainSizeExpression</text>
<text text-anchor="middle" x="255.5" y="-301.5" font-family="Helvetica,sans-Serif" font-size="10.00">IO::Input</text>
</a>
</g>
</g>
<!-- Node0&#45;&gt;Node3 -->
<g id="edge3" class="edge">
<title>Node0&#45;&gt;Node3</title>
<path fill="none" stroke="midnightblue" d="M85.03,-227.88C104.28,-244.58 136.31,-270.13 168,-285.5 175.01,-288.9 182.58,-291.89 190.23,-294.49"/>
<polygon fill="midnightblue" stroke="midnightblue" points="87.18,-225.11 77.36,-221.12 82.54,-230.36 87.18,-225.11"/>
</g>
<!-- Node4 -->
<g id="node5" class="node">
<title>Node4</title>
<g id="a_node5"><a xlink:href="dc/dab/class_kratos_1_1_integration_point_expression_i_o_1_1_input.html" target="_top" xlink:title=" ">
<polygon fill="none" stroke="black" points="189.5,-245.5 189.5,-275.5 321.5,-275.5 321.5,-245.5 189.5,-245.5"/>
<text text-anchor="start" x="197.5" y="-263.5" font-family="Helvetica,sans-Serif" font-size="10.00">Kratos::IntegrationPoint</text>
<text text-anchor="middle" x="255.5" y="-252.5" font-family="Helvetica,sans-Serif" font-size="10.00">ExpressionIO::Input</text>
</a>
</g>
</g>
<!-- Node0&#45;&gt;Node4 -->
<g id="edge4" class="edge">
<title>Node0&#45;&gt;Node4</title>
<path fill="none" stroke="midnightblue" d="M113.31,-223.6C138.59,-230.21 170.11,-238.45 196.96,-245.46"/>
<polygon fill="midnightblue" stroke="midnightblue" points="114.16,-220.21 103.6,-221.06 112.39,-226.98 114.16,-220.21"/>
</g>
<!-- Node5 -->
<g id="node6" class="node">
<title>Node5</title>
<g id="a_node6"><a xlink:href="da/d38/class_kratos_1_1_literal_expression_i_o_1_1_input.html" target="_top" xlink:title=" ">
<polygon fill="none" stroke="black" points="186.5,-196.5 186.5,-226.5 324.5,-226.5 324.5,-196.5 186.5,-196.5"/>
<text text-anchor="start" x="194.5" y="-214.5" font-family="Helvetica,sans-Serif" font-size="10.00">Kratos::LiteralExpression</text>
<text text-anchor="middle" x="255.5" y="-203.5" font-family="Helvetica,sans-Serif" font-size="10.00">IO::Input</text>
</a>
</g>
</g>
<!-- Node0&#45;&gt;Node5 -->
<g id="edge5" class="edge">
<title>Node0&#45;&gt;Node5</title>
<path fill="none" stroke="midnightblue" d="M142.07,-211.5C156.71,-211.5 171.98,-211.5 186.38,-211.5"/>
<polygon fill="midnightblue" stroke="midnightblue" points="142.05,-208 132.05,-211.5 142.05,-215 142.05,-208"/>
</g>
<!-- Node6 -->
<g id="node7" class="node">
<title>Node6</title>
<g id="a_node7"><a xlink:href="dd/d2a/class_kratos_1_1_nodal_position_expression_i_o_1_1_input.html" target="_top" xlink:title=" ">
<polygon fill="none" stroke="black" points="168,-147.5 168,-177.5 343,-177.5 343,-147.5 168,-147.5"/>
<text text-anchor="start" x="176" y="-165.5" font-family="Helvetica,sans-Serif" font-size="10.00">Kratos::NodalPositionExpression</text>
<text text-anchor="middle" x="255.5" y="-154.5" font-family="Helvetica,sans-Serif" font-size="10.00">IO::Input</text>
</a>
</g>
</g>
<!-- Node0&#45;&gt;Node6 -->
<g id="edge6" class="edge">
<title>Node0&#45;&gt;Node6</title>
<path fill="none" stroke="midnightblue" d="M113.31,-199.4C138.59,-192.79 170.11,-184.55 196.96,-177.54"/>
<polygon fill="midnightblue" stroke="midnightblue" points="112.39,-196.02 103.6,-201.94 114.16,-202.79 112.39,-196.02"/>
</g>
<!-- Node7 -->
<g id="node8" class="node">
<title>Node7</title>
<g id="a_node8"><a xlink:href="d7/dbc/class_kratos_1_1_properties_variable_expression_i_o_1_1_input.html" target="_top" xlink:title=" ">
<polygon fill="none" stroke="black" points="184,-98.5 184,-128.5 327,-128.5 327,-98.5 184,-98.5"/>
<text text-anchor="start" x="192" y="-116.5" font-family="Helvetica,sans-Serif" font-size="10.00">Kratos::PropertiesVariable</text>
<text text-anchor="middle" x="255.5" y="-105.5" font-family="Helvetica,sans-Serif" font-size="10.00">ExpressionIO::Input</text>
</a>
</g>
</g>
<!-- Node0&#45;&gt;Node7 -->
<g id="edge7" class="edge">
<title>Node0&#45;&gt;Node7</title>
<path fill="none" stroke="midnightblue" d="M85.41,-195.16C104.75,-178.75 136.66,-153.78 168,-138.5 175.73,-134.73 184.13,-131.43 192.55,-128.57"/>
<polygon fill="midnightblue" stroke="midnightblue" points="82.98,-192.63 77.7,-201.82 87.55,-197.93 82.98,-192.63"/>
</g>
<!-- Node8 -->
<g id="node9" class="node">
<title>Node8</title>
<g id="a_node9"><a xlink:href="dc/de1/class_kratos_1_1_python_1_1_detail_1_1_expression_input_trampoline.html" target="_top" xlink:title=" ">
<polygon fill="none" stroke="black" points="178,-49.5 178,-79.5 333,-79.5 333,-49.5 178,-49.5"/>
<text text-anchor="start" x="186" y="-67.5" font-family="Helvetica,sans-Serif" font-size="10.00">Kratos::Python::Detail</text>
<text text-anchor="middle" x="255.5" y="-56.5" font-family="Helvetica,sans-Serif" font-size="10.00">::ExpressionInputTrampoline</text>
</a>
</g>
</g>
<!-- Node0&#45;&gt;Node8 -->
<g id="edge8" class="edge">
<title>Node0&#45;&gt;Node8</title>
<path fill="none" stroke="midnightblue" d="M77.26,-193.16C93.2,-166.36 126.43,-116.76 168,-89.5 173.88,-85.64 180.37,-82.37 187.07,-79.59"/>
<polygon fill="midnightblue" stroke="midnightblue" points="74.18,-191.51 72.19,-201.91 80.23,-195.01 74.18,-191.51"/>
</g>
<!-- Node9 -->
<g id="node10" class="node">
<title>Node9</title>
<g id="a_node10"><a xlink:href="d0/d84/class_kratos_1_1_variable_expression_i_o_1_1_input.html" target="_top" xlink:title=" ">
<polygon fill="none" stroke="black" points="182,-0.5 182,-30.5 329,-30.5 329,-0.5 182,-0.5"/>
<text text-anchor="start" x="190" y="-18.5" font-family="Helvetica,sans-Serif" font-size="10.00">Kratos::VariableExpression</text>
<text text-anchor="middle" x="255.5" y="-7.5" font-family="Helvetica,sans-Serif" font-size="10.00">IO::Input</text>
</a>
</g>
</g>
<!-- Node0&#45;&gt;Node9 -->
<g id="edge9" class="edge">
<title>Node0&#45;&gt;Node9</title>
<path fill="none" stroke="midnightblue" d="M73.12,-191.95C85.27,-156.35 115.89,-80.89 168,-40.5 172.94,-36.67 178.45,-33.43 184.23,-30.68"/>
<polygon fill="midnightblue" stroke="midnightblue" points="69.73,-191.04 69.93,-201.64 76.38,-193.23 69.73,-191.04"/>
</g>
</g>
</svg>
