<?xml version="1.0" encoding="UTF-8" standalone="no"?>
<!DOCTYPE svg PUBLIC "-//W3C//DTD SVG 1.1//EN"
 "http://www.w3.org/Graphics/SVG/1.1/DTD/svg11.dtd">
<!-- Generated by graphviz version 2.43.0 (0)
 -->
<!-- Title: Graphical Class Hierarchy Pages: 1 -->
<svg width="794pt" height="1159pt"
 viewBox="0.00 0.00 794.00 1159.00" xmlns="http://www.w3.org/2000/svg" xmlns:xlink="http://www.w3.org/1999/xlink">
<g id="graph0" class="graph" transform="scale(1 1) rotate(0) translate(4 1155)">
<title>Graphical Class Hierarchy</title>
<!-- Node0 -->
<g id="node1" class="node">
<title>Node0</title>
<g id="a_node1"><a xlink:href="d1/df6/class_kratos_1_1_linear_solver.html" target="_top" xlink:title=" ">
<polygon fill="none" stroke="black" points="0,-439 0,-491 198,-491 198,-439 0,-439"/>
<text text-anchor="start" x="8" y="-479" font-family="Helvetica,sans-Serif" font-size="10.00">Kratos::LinearSolver</text>
<text text-anchor="start" x="8" y="-468" font-family="Helvetica,sans-Serif" font-size="10.00">&lt; TSparseSpaceType, TDenseSpace</text>
<text text-anchor="start" x="8" y="-457" font-family="Helvetica,sans-Serif" font-size="10.00">Type, Reorderer&lt; TSparseSpaceType,</text>
<text text-anchor="middle" x="99" y="-446" font-family="Helvetica,sans-Serif" font-size="10.00"> TDenseSpaceType &gt; &gt;</text>
</a>
</g>
</g>
<!-- Node1 -->
<g id="node2" class="node">
<title>Node1</title>
<g id="a_node2"><a xlink:href="d4/d6f/class_kratos_1_1_a_m_g_c_l_solver.html" target="_top" xlink:title=" ">
<polygon fill="none" stroke="black" points="255,-1079 255,-1131 491,-1131 491,-1079 255,-1079"/>
<text text-anchor="start" x="263" y="-1119" font-family="Helvetica,sans-Serif" font-size="10.00">Kratos::AMGCLSolver</text>
<text text-anchor="start" x="263" y="-1108" font-family="Helvetica,sans-Serif" font-size="10.00">&lt; TSparseSpaceType,</text>
<text text-anchor="start" x="263" y="-1097" font-family="Helvetica,sans-Serif" font-size="10.00"> TDenseSpaceType, Reorderer</text>
<text text-anchor="middle" x="373" y="-1086" font-family="Helvetica,sans-Serif" font-size="10.00">&lt; TSparseSpaceType, TDenseSpaceType &gt; &gt;</text>
</a>
</g>
</g>
<!-- Node0&#45;&gt;Node1 -->
<g id="edge1" class="edge">
<title>Node0&#45;&gt;Node1</title>
<path fill="none" stroke="midnightblue" d="M104.06,-501.31C117.42,-614.98 163.21,-961.4 234,-1046 245.7,-1059.99 261.33,-1070.74 277.85,-1078.97"/>
<polygon fill="midnightblue" stroke="midnightblue" points="107.5,-500.59 102.87,-491.06 100.55,-501.39 107.5,-500.59"/>
</g>
<!-- Node3 -->
<g id="node4" class="node">
<title>Node3</title>
<g id="a_node4"><a xlink:href="df/dc7/class_kratos_1_1_direct_solver.html" target="_top" xlink:title=" ">
<polygon fill="none" stroke="black" points="274,-984 274,-1036 472,-1036 472,-984 274,-984"/>
<text text-anchor="start" x="282" y="-1024" font-family="Helvetica,sans-Serif" font-size="10.00">Kratos::DirectSolver</text>
<text text-anchor="start" x="282" y="-1013" font-family="Helvetica,sans-Serif" font-size="10.00">&lt; TSparseSpaceType, TDenseSpace</text>
<text text-anchor="start" x="282" y="-1002" font-family="Helvetica,sans-Serif" font-size="10.00">Type, Reorderer&lt; TSparseSpaceType,</text>
<text text-anchor="middle" x="373" y="-991" font-family="Helvetica,sans-Serif" font-size="10.00"> TDenseSpaceType &gt; &gt;</text>
</a>
</g>
</g>
<!-- Node0&#45;&gt;Node3 -->
<g id="edge3" class="edge">
<title>Node0&#45;&gt;Node3</title>
<path fill="none" stroke="midnightblue" d="M109.37,-500.98C127.67,-568.1 171.89,-715.86 234,-829 266.8,-888.75 318.06,-950.16 348,-983.86"/>
<polygon fill="midnightblue" stroke="midnightblue" points="112.74,-500.04 106.76,-491.3 105.98,-501.86 112.74,-500.04"/>
</g>
<!-- Node6 -->
<g id="node7" class="node">
<title>Node6</title>
<g id="a_node7"><a xlink:href="df/de5/class_kratos_1_1_iterative_solver.html" target="_top" xlink:title=" ">
<polygon fill="none" stroke="black" points="234,-756.5 234,-819.5 512,-819.5 512,-756.5 234,-756.5"/>
<text text-anchor="start" x="242" y="-807.5" font-family="Helvetica,sans-Serif" font-size="10.00">Kratos::IterativeSolver</text>
<text text-anchor="start" x="242" y="-796.5" font-family="Helvetica,sans-Serif" font-size="10.00">&lt; TSparseSpaceType, TDenseSpace</text>
<text text-anchor="start" x="242" y="-785.5" font-family="Helvetica,sans-Serif" font-size="10.00">Type, Preconditioner&lt; TSparseSpaceType,</text>
<text text-anchor="start" x="242" y="-774.5" font-family="Helvetica,sans-Serif" font-size="10.00"> TDenseSpaceType &gt;, Reorderer&lt; TSparseSpaceType,</text>
<text text-anchor="middle" x="373" y="-763.5" font-family="Helvetica,sans-Serif" font-size="10.00"> TDenseSpaceType &gt; &gt;</text>
</a>
</g>
</g>
<!-- Node0&#45;&gt;Node6 -->
<g id="edge6" class="edge">
<title>Node0&#45;&gt;Node6</title>
<path fill="none" stroke="midnightblue" d="M107.14,-500.88C120.92,-560.77 156.93,-681.02 234,-747 237.99,-750.41 242.25,-753.54 246.71,-756.41"/>
<polygon fill="midnightblue" stroke="midnightblue" points="110.55,-500.12 104.96,-491.12 103.72,-501.64 110.55,-500.12"/>
</g>
<!-- Node15 -->
<g id="node16" class="node">
<title>Node15</title>
<g id="a_node16"><a xlink:href="d4/d6f/class_kratos_1_1_a_m_g_c_l_solver.html" target="_top" xlink:title="This is a multigrid solver based on the AMGCL library.">
<polygon fill="none" stroke="black" points="289,-685 289,-737 457,-737 457,-685 289,-685"/>
<text text-anchor="start" x="297" y="-725" font-family="Helvetica,sans-Serif" font-size="10.00">Kratos::AMGCLSolver</text>
<text text-anchor="start" x="297" y="-714" font-family="Helvetica,sans-Serif" font-size="10.00">&lt; TSparseSpaceType,</text>
<text text-anchor="start" x="297" y="-703" font-family="Helvetica,sans-Serif" font-size="10.00"> TDenseSpaceType, TReorderer</text>
<text text-anchor="middle" x="373" y="-692" font-family="Helvetica,sans-Serif" font-size="10.00">Type &gt;</text>
</a>
</g>
</g>
<!-- Node0&#45;&gt;Node15 -->
<g id="edge15" class="edge">
<title>Node0&#45;&gt;Node15</title>
<path fill="none" stroke="midnightblue" d="M113.05,-500.6C132.2,-547.77 172.46,-630.22 234,-675 250.02,-686.65 269.5,-694.54 288.72,-699.87"/>
<polygon fill="midnightblue" stroke="midnightblue" points="116.22,-499.1 109.29,-491.1 109.72,-501.68 116.22,-499.1"/>
</g>
<!-- Node16 -->
<g id="node17" class="node">
<title>Node16</title>
<g id="a_node17"><a xlink:href="da/d59/class_kratos_1_1_a_m_g_c_l___n_s___solver.html" target="_top" xlink:title=" ">
<polygon fill="none" stroke="black" points="277.5,-624.5 277.5,-665.5 468.5,-665.5 468.5,-624.5 277.5,-624.5"/>
<text text-anchor="start" x="285.5" y="-653.5" font-family="Helvetica,sans-Serif" font-size="10.00">Kratos::AMGCL_NS_Solver</text>
<text text-anchor="start" x="285.5" y="-642.5" font-family="Helvetica,sans-Serif" font-size="10.00">&lt; TSparseSpaceType, TDenseSpace</text>
<text text-anchor="middle" x="373" y="-631.5" font-family="Helvetica,sans-Serif" font-size="10.00">Type, TReordererType &gt;</text>
</a>
</g>
</g>
<!-- Node0&#45;&gt;Node16 -->
<g id="edge16" class="edge">
<title>Node0&#45;&gt;Node16</title>
<path fill="none" stroke="midnightblue" d="M121.26,-499.43C144.56,-534.14 185.19,-586.54 234,-615 247.24,-622.72 262.24,-628.46 277.35,-632.72"/>
<polygon fill="midnightblue" stroke="midnightblue" points="124.14,-497.44 115.71,-491.01 118.29,-501.29 124.14,-497.44"/>
</g>
<!-- Node17 -->
<g id="node18" class="node">
<title>Node17</title>
<g id="a_node18"><a xlink:href="dd/d59/class_kratos_1_1_amesos2_solver.html" target="_top" xlink:title="Wrapper for Trilinos&#45;Amesos2 Direct Solvers.">
<polygon fill="none" stroke="black" points="277.5,-564.5 277.5,-605.5 468.5,-605.5 468.5,-564.5 277.5,-564.5"/>
<text text-anchor="start" x="285.5" y="-593.5" font-family="Helvetica,sans-Serif" font-size="10.00">Kratos::Amesos2Solver</text>
<text text-anchor="start" x="285.5" y="-582.5" font-family="Helvetica,sans-Serif" font-size="10.00">&lt; TSparseSpaceType, TDenseSpace</text>
<text text-anchor="middle" x="373" y="-571.5" font-family="Helvetica,sans-Serif" font-size="10.00">Type, TReordererType &gt;</text>
</a>
</g>
</g>
<!-- Node0&#45;&gt;Node17 -->
<g id="edge17" class="edge">
<title>Node0&#45;&gt;Node17</title>
<path fill="none" stroke="midnightblue" d="M139.27,-497.21C164.83,-516.64 199.69,-540.38 234,-555 247.65,-560.81 262.55,-565.56 277.36,-569.41"/>
<polygon fill="midnightblue" stroke="midnightblue" points="141.37,-494.4 131.31,-491.07 137.09,-499.94 141.37,-494.4"/>
</g>
<!-- Node18 -->
<g id="node19" class="node">
<title>Node18</title>
<g id="a_node19"><a xlink:href="dd/df1/class_kratos_1_1_amesos_solver.html" target="_top" xlink:title="Wrapper for Trilinos&#45;Amesos Direct Solvers.">
<polygon fill="none" stroke="black" points="277.5,-504.5 277.5,-545.5 468.5,-545.5 468.5,-504.5 277.5,-504.5"/>
<text text-anchor="start" x="285.5" y="-533.5" font-family="Helvetica,sans-Serif" font-size="10.00">Kratos::AmesosSolver</text>
<text text-anchor="start" x="285.5" y="-522.5" font-family="Helvetica,sans-Serif" font-size="10.00">&lt; TSparseSpaceType, TDenseSpace</text>
<text text-anchor="middle" x="373" y="-511.5" font-family="Helvetica,sans-Serif" font-size="10.00">Type, TReordererType &gt;</text>
</a>
</g>
</g>
<!-- Node0&#45;&gt;Node18 -->
<g id="edge18" class="edge">
<title>Node0&#45;&gt;Node18</title>
<path fill="none" stroke="midnightblue" d="M207.99,-489.24C216.79,-491.19 225.54,-493.13 234,-495 248.01,-498.09 262.82,-501.33 277.33,-504.5"/>
<polygon fill="midnightblue" stroke="midnightblue" points="208.57,-485.78 198.05,-487.02 207.05,-492.61 208.57,-485.78"/>
</g>
<!-- Node19 -->
<g id="node20" class="node">
<title>Node19</title>
<g id="a_node20"><a xlink:href="d0/d6b/class_kratos_1_1_amgcl_m_p_i_schur_complement_solver.html" target="_top" xlink:title=" ">
<polygon fill="none" stroke="black" points="272,-444.5 272,-485.5 474,-485.5 474,-444.5 272,-444.5"/>
<text text-anchor="start" x="280" y="-473.5" font-family="Helvetica,sans-Serif" font-size="10.00">Kratos::AmgclMPISchurComplement</text>
<text text-anchor="start" x="280" y="-462.5" font-family="Helvetica,sans-Serif" font-size="10.00">Solver&lt; TSparseSpaceType,</text>
<text text-anchor="middle" x="373" y="-451.5" font-family="Helvetica,sans-Serif" font-size="10.00"> TDenseSpaceType, TReordererType &gt;</text>
</a>
</g>
</g>
<!-- Node0&#45;&gt;Node19 -->
<g id="edge19" class="edge">
<title>Node0&#45;&gt;Node19</title>
<path fill="none" stroke="midnightblue" d="M208.37,-465C229.25,-465 251.04,-465 271.66,-465"/>
<polygon fill="midnightblue" stroke="midnightblue" points="208.2,-461.5 198.2,-465 208.2,-468.5 208.2,-461.5"/>
</g>
<!-- Node20 -->
<g id="node21" class="node">
<title>Node20</title>
<g id="a_node21"><a xlink:href="dc/d52/class_kratos_1_1_aztec_solver.html" target="_top" xlink:title="Wrapper for Trilinos&#45;Aztec Iterative Solvers.">
<polygon fill="none" stroke="black" points="289,-373 289,-425 457,-425 457,-373 289,-373"/>
<text text-anchor="start" x="297" y="-413" font-family="Helvetica,sans-Serif" font-size="10.00">Kratos::AztecSolver</text>
<text text-anchor="start" x="297" y="-402" font-family="Helvetica,sans-Serif" font-size="10.00">&lt; TSparseSpaceType,</text>
<text text-anchor="start" x="297" y="-391" font-family="Helvetica,sans-Serif" font-size="10.00"> TDenseSpaceType, TReorderer</text>
<text text-anchor="middle" x="373" y="-380" font-family="Helvetica,sans-Serif" font-size="10.00">Type &gt;</text>
</a>
</g>
</g>
<!-- Node0&#45;&gt;Node20 -->
<g id="edge20" class="edge">
<title>Node0&#45;&gt;Node20</title>
<path fill="none" stroke="midnightblue" d="M208.02,-438.79C234.89,-432.27 263.28,-425.38 288.75,-419.2"/>
<polygon fill="midnightblue" stroke="midnightblue" points="207.09,-435.41 198.2,-441.17 208.74,-442.22 207.09,-435.41"/>
</g>
<!-- Node21 -->
<g id="node22" class="node">
<title>Node21</title>
<g id="a_node22"><a xlink:href="df/dc7/class_kratos_1_1_direct_solver.html" target="_top" xlink:title=" ">
<polygon fill="none" stroke="black" points="277.5,-312.5 277.5,-353.5 468.5,-353.5 468.5,-312.5 277.5,-312.5"/>
<text text-anchor="start" x="285.5" y="-341.5" font-family="Helvetica,sans-Serif" font-size="10.00">Kratos::DirectSolver</text>
<text text-anchor="start" x="285.5" y="-330.5" font-family="Helvetica,sans-Serif" font-size="10.00">&lt; TSparseSpaceType, TDenseSpace</text>
<text text-anchor="middle" x="373" y="-319.5" font-family="Helvetica,sans-Serif" font-size="10.00">Type, TReordererType &gt;</text>
</a>
</g>
</g>
<!-- Node0&#45;&gt;Node21 -->
<g id="edge21" class="edge">
<title>Node0&#45;&gt;Node21</title>
<path fill="none" stroke="midnightblue" d="M134.46,-431.94C160,-409.24 196.71,-380.21 234,-363 247.58,-356.73 262.52,-351.75 277.41,-347.79"/>
<polygon fill="midnightblue" stroke="midnightblue" points="131.98,-429.47 126.9,-438.76 136.67,-434.66 131.98,-429.47"/>
</g>
<!-- Node22 -->
<g id="node23" class="node">
<title>Node22</title>
<g id="a_node23"><a xlink:href="df/de5/class_kratos_1_1_iterative_solver.html" target="_top" xlink:title="Base class for all the iterative solvers in Kratos.">
<polygon fill="none" stroke="black" points="277.5,-241 277.5,-293 468.5,-293 468.5,-241 277.5,-241"/>
<text text-anchor="start" x="285.5" y="-281" font-family="Helvetica,sans-Serif" font-size="10.00">Kratos::IterativeSolver</text>
<text text-anchor="start" x="285.5" y="-270" font-family="Helvetica,sans-Serif" font-size="10.00">&lt; TSparseSpaceType, TDenseSpace</text>
<text text-anchor="start" x="285.5" y="-259" font-family="Helvetica,sans-Serif" font-size="10.00">Type, TPreconditionerType,</text>
<text text-anchor="middle" x="373" y="-248" font-family="Helvetica,sans-Serif" font-size="10.00"> TReordererType &gt;</text>
</a>
</g>
</g>
<!-- Node0&#45;&gt;Node22 -->
<g id="edge22" class="edge">
<title>Node0&#45;&gt;Node22</title>
<path fill="none" stroke="midnightblue" d="M119.88,-429.8C142.68,-392.68 183.49,-335.19 234,-303 247.15,-294.62 262.19,-288.18 277.39,-283.24"/>
<polygon fill="midnightblue" stroke="midnightblue" points="116.64,-428.4 114.48,-438.77 122.64,-432.01 116.64,-428.4"/>
</g>
<!-- Node23 -->
<g id="node24" class="node">
<title>Node23</title>
<g id="a_node24"><a xlink:href="d3/d9a/class_kratos_1_1_monotonicity_preserving_solver.html" target="_top" xlink:title=" ">
<polygon fill="none" stroke="black" points="272,-180.5 272,-221.5 474,-221.5 474,-180.5 272,-180.5"/>
<text text-anchor="start" x="280" y="-209.5" font-family="Helvetica,sans-Serif" font-size="10.00">Kratos::MonotonicityPreserving</text>
<text text-anchor="start" x="280" y="-198.5" font-family="Helvetica,sans-Serif" font-size="10.00">Solver&lt; TSparseSpaceType,</text>
<text text-anchor="middle" x="373" y="-187.5" font-family="Helvetica,sans-Serif" font-size="10.00"> TDenseSpaceType, TReordererType &gt;</text>
</a>
</g>
</g>
<!-- Node0&#45;&gt;Node23 -->
<g id="edge23" class="edge">
<title>Node0&#45;&gt;Node23</title>
<path fill="none" stroke="midnightblue" d="M110.31,-428.95C127.19,-376.76 165.85,-280.94 234,-231 245.27,-222.74 258.37,-216.67 271.91,-212.23"/>
<polygon fill="midnightblue" stroke="midnightblue" points="106.88,-428.19 107.23,-438.78 113.56,-430.29 106.88,-428.19"/>
</g>
<!-- Node24 -->
<g id="node25" class="node">
<title>Node24</title>
<g id="a_node25"><a xlink:href="dd/db5/class_kratos_1_1_multi_level_solver.html" target="_top" xlink:title="Wrapper for Trilinos&#45;ML preconditioner using the Aztec&#45;Solver.">
<polygon fill="none" stroke="black" points="277.5,-120.5 277.5,-161.5 468.5,-161.5 468.5,-120.5 277.5,-120.5"/>
<text text-anchor="start" x="285.5" y="-149.5" font-family="Helvetica,sans-Serif" font-size="10.00">Kratos::MultiLevelSolver</text>
<text text-anchor="start" x="285.5" y="-138.5" font-family="Helvetica,sans-Serif" font-size="10.00">&lt; TSparseSpaceType, TDenseSpace</text>
<text text-anchor="middle" x="373" y="-127.5" font-family="Helvetica,sans-Serif" font-size="10.00">Type, TReordererType &gt;</text>
</a>
</g>
</g>
<!-- Node0&#45;&gt;Node24 -->
<g id="edge24" class="edge">
<title>Node0&#45;&gt;Node24</title>
<path fill="none" stroke="midnightblue" d="M105.78,-428.78C117.77,-366.05 151.48,-237.54 234,-171 246.5,-160.92 261.64,-154.03 277.25,-149.37"/>
<polygon fill="midnightblue" stroke="midnightblue" points="102.33,-428.16 103.97,-438.62 109.22,-429.42 102.33,-428.16"/>
</g>
<!-- Node25 -->
<g id="node26" class="node">
<title>Node25</title>
<g id="a_node26"><a xlink:href="da/da7/class_kratos_1_1_scaling_solver.html" target="_top" xlink:title="This solvers rescales in order to improve the conditioning of the system.">
<polygon fill="none" stroke="black" points="277.5,-60.5 277.5,-101.5 468.5,-101.5 468.5,-60.5 277.5,-60.5"/>
<text text-anchor="start" x="285.5" y="-89.5" font-family="Helvetica,sans-Serif" font-size="10.00">Kratos::ScalingSolver</text>
<text text-anchor="start" x="285.5" y="-78.5" font-family="Helvetica,sans-Serif" font-size="10.00">&lt; TSparseSpaceType, TDenseSpace</text>
<text text-anchor="middle" x="373" y="-67.5" font-family="Helvetica,sans-Serif" font-size="10.00">Type, TReordererType &gt;</text>
</a>
</g>
</g>
<!-- Node0&#45;&gt;Node25 -->
<g id="edge25" class="edge">
<title>Node0&#45;&gt;Node25</title>
<path fill="none" stroke="midnightblue" d="M102.62,-428.97C109.89,-356.92 136.75,-194.84 234,-111 246.35,-100.35 261.59,-93.21 277.4,-88.48"/>
<polygon fill="midnightblue" stroke="midnightblue" points="99.14,-428.64 101.69,-438.92 106.11,-429.29 99.14,-428.64"/>
</g>
<!-- Node26 -->
<g id="node27" class="node">
<title>Node26</title>
<g id="a_node27"><a xlink:href="dc/df5/class_kratos_1_1_trilinos_monotonicity_preserving_solver.html" target="_top" xlink:title=" ">
<polygon fill="none" stroke="black" points="271,-0.5 271,-41.5 475,-41.5 475,-0.5 271,-0.5"/>
<text text-anchor="start" x="279" y="-29.5" font-family="Helvetica,sans-Serif" font-size="10.00">Kratos::TrilinosMonotonicity</text>
<text text-anchor="start" x="279" y="-18.5" font-family="Helvetica,sans-Serif" font-size="10.00">PreservingSolver&lt; TSparseSpaceType,</text>
<text text-anchor="middle" x="373" y="-7.5" font-family="Helvetica,sans-Serif" font-size="10.00"> TDenseSpaceType, TReordererType &gt;</text>
</a>
</g>
</g>
<!-- Node0&#45;&gt;Node26 -->
<g id="edge26" class="edge">
<title>Node0&#45;&gt;Node26</title>
<path fill="none" stroke="midnightblue" d="M100.35,-428.82C103.21,-348.1 122,-152.43 234,-51 244.54,-41.45 257.39,-34.69 270.96,-29.95"/>
<polygon fill="midnightblue" stroke="midnightblue" points="96.85,-428.88 100.06,-438.98 103.85,-429.08 96.85,-428.88"/>
</g>
<!-- Node2 -->
<g id="node3" class="node">
<title>Node2</title>
<g id="a_node3"><a xlink:href="d3/ddf/class_kratos_1_1_amgcl_m_p_i_solver.html" target="_top" xlink:title="This is a multigrid solver based on the AMGCL library.">
<polygon fill="none" stroke="black" points="571.5,-1109.5 571.5,-1150.5 762.5,-1150.5 762.5,-1109.5 571.5,-1109.5"/>
<text text-anchor="start" x="579.5" y="-1138.5" font-family="Helvetica,sans-Serif" font-size="10.00">Kratos::AmgclMPISolver</text>
<text text-anchor="start" x="579.5" y="-1127.5" font-family="Helvetica,sans-Serif" font-size="10.00">&lt; TSparseSpaceType, TDenseSpace</text>
<text text-anchor="middle" x="667" y="-1116.5" font-family="Helvetica,sans-Serif" font-size="10.00">Type, TReordererType &gt;</text>
</a>
</g>
</g>
<!-- Node1&#45;&gt;Node2 -->
<g id="edge2" class="edge">
<title>Node1&#45;&gt;Node2</title>
<path fill="none" stroke="midnightblue" d="M501.14,-1115.88C524.7,-1117.9 548.93,-1119.98 571.32,-1121.89"/>
<polygon fill="midnightblue" stroke="midnightblue" points="501.35,-1112.39 491.09,-1115.02 500.75,-1119.36 501.35,-1112.39"/>
</g>
<!-- Node4 -->
<g id="node5" class="node">
<title>Node4</title>
<g id="a_node5"><a xlink:href="d7/d50/class_kratos_1_1_skyline_l_u_custom_scalar_solver.html" target="_top" xlink:title=" ">
<polygon fill="none" stroke="black" points="566,-1049.5 566,-1090.5 768,-1090.5 768,-1049.5 566,-1049.5"/>
<text text-anchor="start" x="574" y="-1078.5" font-family="Helvetica,sans-Serif" font-size="10.00">Kratos::SkylineLUCustomScalar</text>
<text text-anchor="start" x="574" y="-1067.5" font-family="Helvetica,sans-Serif" font-size="10.00">Solver&lt; TSparseSpaceType,</text>
<text text-anchor="middle" x="667" y="-1056.5" font-family="Helvetica,sans-Serif" font-size="10.00"> TDenseSpaceType, TReordererType &gt;</text>
</a>
</g>
</g>
<!-- Node3&#45;&gt;Node4 -->
<g id="edge4" class="edge">
<title>Node3&#45;&gt;Node4</title>
<path fill="none" stroke="midnightblue" d="M482.1,-1032.21C509.64,-1037.87 539.12,-1043.93 566.22,-1049.5"/>
<polygon fill="midnightblue" stroke="midnightblue" points="482.54,-1028.73 472.04,-1030.15 481.13,-1035.59 482.54,-1028.73"/>
</g>
<!-- Node5 -->
<g id="node6" class="node">
<title>Node5</title>
<g id="a_node6"><a xlink:href="d4/d2b/class_kratos_1_1_skyline_l_u_factorization_solver.html" target="_top" xlink:title=" ">
<polygon fill="none" stroke="black" points="566,-989.5 566,-1030.5 768,-1030.5 768,-989.5 566,-989.5"/>
<text text-anchor="start" x="574" y="-1018.5" font-family="Helvetica,sans-Serif" font-size="10.00">Kratos::SkylineLUFactorization</text>
<text text-anchor="start" x="574" y="-1007.5" font-family="Helvetica,sans-Serif" font-size="10.00">Solver&lt; TSparseSpaceType,</text>
<text text-anchor="middle" x="667" y="-996.5" font-family="Helvetica,sans-Serif" font-size="10.00"> TDenseSpaceType, TReordererType &gt;</text>
</a>
</g>
</g>
<!-- Node3&#45;&gt;Node5 -->
<g id="edge5" class="edge">
<title>Node3&#45;&gt;Node5</title>
<path fill="none" stroke="midnightblue" d="M482.4,-1010C509.69,-1010 538.86,-1010 565.72,-1010"/>
<polygon fill="midnightblue" stroke="midnightblue" points="482.04,-1006.5 472.04,-1010 482.04,-1013.5 482.04,-1006.5"/>
</g>
<!-- Node7 -->
<g id="node8" class="node">
<title>Node7</title>
<g id="a_node8"><a xlink:href="d3/df8/class_kratos_1_1_b_i_c_g_s_t_a_b_solver.html" target="_top" xlink:title="Short class definition.">
<polygon fill="none" stroke="black" points="571.5,-918 571.5,-970 762.5,-970 762.5,-918 571.5,-918"/>
<text text-anchor="start" x="579.5" y="-958" font-family="Helvetica,sans-Serif" font-size="10.00">Kratos::BICGSTABSolver</text>
<text text-anchor="start" x="579.5" y="-947" font-family="Helvetica,sans-Serif" font-size="10.00">&lt; TSparseSpaceType, TDenseSpace</text>
<text text-anchor="start" x="579.5" y="-936" font-family="Helvetica,sans-Serif" font-size="10.00">Type, TPreconditionerType,</text>
<text text-anchor="middle" x="667" y="-925" font-family="Helvetica,sans-Serif" font-size="10.00"> TReordererType &gt;</text>
</a>
</g>
</g>
<!-- Node6&#45;&gt;Node7 -->
<g id="edge7" class="edge">
<title>Node6&#45;&gt;Node7</title>
<path fill="none" stroke="midnightblue" d="M420.55,-826.01C454.27,-852.03 501.85,-885.71 548,-908 555.43,-911.59 563.29,-914.91 571.28,-917.96"/>
<polygon fill="midnightblue" stroke="midnightblue" points="422.33,-822.96 412.29,-819.58 418.02,-828.48 422.33,-822.96"/>
</g>
<!-- Node8 -->
<g id="node9" class="node">
<title>Node8</title>
<g id="a_node9"><a xlink:href="d4/d9f/class_kratos_1_1_c_g_solver.html" target="_top" xlink:title="Short class definition.">
<polygon fill="none" stroke="black" points="561,-857.5 561,-898.5 773,-898.5 773,-857.5 561,-857.5"/>
<text text-anchor="start" x="569" y="-886.5" font-family="Helvetica,sans-Serif" font-size="10.00">Kratos::CGSolver&lt; TSparse</text>
<text text-anchor="start" x="569" y="-875.5" font-family="Helvetica,sans-Serif" font-size="10.00">SpaceType, TDenseSpaceType,</text>
<text text-anchor="middle" x="667" y="-864.5" font-family="Helvetica,sans-Serif" font-size="10.00"> TPreconditionerType, TReordererType &gt;</text>
</a>
</g>
</g>
<!-- Node6&#45;&gt;Node8 -->
<g id="edge8" class="edge">
<title>Node6&#45;&gt;Node8</title>
<path fill="none" stroke="midnightblue" d="M470.66,-822.93C495.72,-831.54 522.75,-840.45 548,-848 558.83,-851.24 570.29,-854.43 581.65,-857.46"/>
<polygon fill="midnightblue" stroke="midnightblue" points="471.76,-819.6 461.17,-819.65 469.47,-826.22 471.76,-819.6"/>
</g>
<!-- Node9 -->
<g id="node10" class="node">
<title>Node9</title>
<g id="a_node10"><a xlink:href="d5/d31/class_kratos_1_1_deflated_c_g_solver.html" target="_top" xlink:title="Short class definition.">
<polygon fill="none" stroke="black" points="548,-797.5 548,-838.5 786,-838.5 786,-797.5 548,-797.5"/>
<text text-anchor="start" x="556" y="-826.5" font-family="Helvetica,sans-Serif" font-size="10.00">Kratos::DeflatedCGSolver</text>
<text text-anchor="start" x="556" y="-815.5" font-family="Helvetica,sans-Serif" font-size="10.00">&lt; TSparseSpaceType, TDenseSpace</text>
<text text-anchor="middle" x="667" y="-804.5" font-family="Helvetica,sans-Serif" font-size="10.00">Type, TPreconditionerType, TReordererType &gt;</text>
</a>
</g>
</g>
<!-- Node6&#45;&gt;Node9 -->
<g id="edge9" class="edge">
<title>Node6&#45;&gt;Node9</title>
<path fill="none" stroke="midnightblue" d="M522.26,-803.23C530.75,-804.1 539.22,-804.98 547.57,-805.83"/>
<polygon fill="midnightblue" stroke="midnightblue" points="522.61,-799.75 512.3,-802.21 521.89,-806.71 522.61,-799.75"/>
</g>
<!-- Node10 -->
<g id="node11" class="node">
<title>Node10</title>
<g id="a_node11"><a xlink:href="da/d69/class_kratos_1_1_mixed_u_l_m_linear_solver.html" target="_top" xlink:title="This solver is designed for the solution of mixed U&#45;LM problems (this solver in particular is optimiz...">
<polygon fill="none" stroke="black" points="559,-737.5 559,-778.5 775,-778.5 775,-737.5 559,-737.5"/>
<text text-anchor="start" x="567" y="-766.5" font-family="Helvetica,sans-Serif" font-size="10.00">Kratos::MixedULMLinearSolver</text>
<text text-anchor="start" x="567" y="-755.5" font-family="Helvetica,sans-Serif" font-size="10.00">&lt; TSparseSpaceType, TDenseSpaceType,</text>
<text text-anchor="middle" x="667" y="-744.5" font-family="Helvetica,sans-Serif" font-size="10.00"> TPreconditionerType, TReordererType &gt;</text>
</a>
</g>
</g>
<!-- Node6&#45;&gt;Node10 -->
<g id="edge10" class="edge">
<title>Node6&#45;&gt;Node10</title>
<path fill="none" stroke="midnightblue" d="M522.57,-772.74C534.79,-771.48 546.98,-770.23 558.81,-769.01"/>
<polygon fill="midnightblue" stroke="midnightblue" points="521.89,-769.29 512.3,-773.79 522.61,-776.25 521.89,-769.29"/>
</g>
<!-- Node11 -->
<g id="node12" class="node">
<title>Node11</title>
<g id="a_node12"><a xlink:href="dc/db7/class_kratos_1_1_power_iteration_eigenvalue_solver.html" target="_top" xlink:title="This class uses the inverted power iteration method to obtain the lowest eigenvalue of a system.">
<polygon fill="none" stroke="black" points="561,-666 561,-718 773,-718 773,-666 561,-666"/>
<text text-anchor="start" x="569" y="-706" font-family="Helvetica,sans-Serif" font-size="10.00">Kratos::PowerIterationEigenvalue</text>
<text text-anchor="start" x="569" y="-695" font-family="Helvetica,sans-Serif" font-size="10.00">Solver&lt; TSparseSpaceType,</text>
<text text-anchor="start" x="569" y="-684" font-family="Helvetica,sans-Serif" font-size="10.00"> TDenseSpaceType, TLinearSolverType,</text>
<text text-anchor="middle" x="667" y="-673" font-family="Helvetica,sans-Serif" font-size="10.00"> TPreconditionerType, TReordererType &gt;</text>
</a>
</g>
</g>
<!-- Node6&#45;&gt;Node11 -->
<g id="edge11" class="edge">
<title>Node6&#45;&gt;Node11</title>
<path fill="none" stroke="midnightblue" d="M496.45,-753.03C501.73,-751.08 506.94,-749.06 512,-747 528.75,-740.17 531.27,-734.89 548,-728 556.52,-724.49 565.5,-721.15 574.55,-718.01"/>
<polygon fill="midnightblue" stroke="midnightblue" points="495.08,-749.8 486.86,-756.47 497.45,-756.39 495.08,-749.8"/>
</g>
<!-- Node12 -->
<g id="node13" class="node">
<title>Node12</title>
<g id="a_node13"><a xlink:href="d6/d35/class_kratos_1_1_power_iteration_highest_eigenvalue_solver.html" target="_top" xlink:title="This class uses the inverted power iteration method to obtain the lowest eigenvalue of a system.">
<polygon fill="none" stroke="black" points="561,-595 561,-647 773,-647 773,-595 561,-595"/>
<text text-anchor="start" x="569" y="-635" font-family="Helvetica,sans-Serif" font-size="10.00">Kratos::PowerIterationHighest</text>
<text text-anchor="start" x="569" y="-624" font-family="Helvetica,sans-Serif" font-size="10.00">EigenvalueSolver&lt; TSparseSpaceType,</text>
<text text-anchor="start" x="569" y="-613" font-family="Helvetica,sans-Serif" font-size="10.00"> TDenseSpaceType, TLinearSolverType,</text>
<text text-anchor="middle" x="667" y="-602" font-family="Helvetica,sans-Serif" font-size="10.00"> TPreconditionerType, TReordererType &gt;</text>
</a>
</g>
</g>
<!-- Node6&#45;&gt;Node12 -->
<g id="edge12" class="edge">
<title>Node6&#45;&gt;Node12</title>
<path fill="none" stroke="midnightblue" d="M508.46,-750.08C509.67,-749.08 510.85,-748.05 512,-747 543.83,-717.97 516.28,-686.15 548,-657 552.02,-653.3 556.41,-649.99 561.06,-647.01"/>
<polygon fill="midnightblue" stroke="midnightblue" points="506.08,-747.49 500.19,-756.3 510.29,-753.09 506.08,-747.49"/>
</g>
<!-- Node13 -->
<g id="node14" class="node">
<title>Node13</title>
<g id="a_node14"><a xlink:href="da/d28/class_kratos_1_1_rayleigh_quotient_iteration_eigenvalue_solver.html" target="_top" xlink:title="This is a eigen solver based on the Rayleigh quotient iteration algorithm.">
<polygon fill="none" stroke="black" points="558.5,-512.5 558.5,-575.5 775.5,-575.5 775.5,-512.5 558.5,-512.5"/>
<text text-anchor="start" x="566.5" y="-563.5" font-family="Helvetica,sans-Serif" font-size="10.00">Kratos::RayleighQuotient</text>
<text text-anchor="start" x="566.5" y="-552.5" font-family="Helvetica,sans-Serif" font-size="10.00">IterationEigenvalueSolver</text>
<text text-anchor="start" x="566.5" y="-541.5" font-family="Helvetica,sans-Serif" font-size="10.00">&lt; TSparseSpaceType, TDenseSpaceType,</text>
<text text-anchor="start" x="566.5" y="-530.5" font-family="Helvetica,sans-Serif" font-size="10.00"> TLinearSolverType, TPreconditionerType,</text>
<text text-anchor="middle" x="667" y="-519.5" font-family="Helvetica,sans-Serif" font-size="10.00"> TReordererType &gt;</text>
</a>
</g>
</g>
<!-- Node6&#45;&gt;Node13 -->
<g id="edge13" class="edge">
<title>Node6&#45;&gt;Node13</title>
<path fill="none" stroke="midnightblue" d="M509.58,-749.48C510.41,-748.67 511.21,-747.85 512,-747 562.03,-693.4 499.41,-640.91 548,-586 551.39,-582.17 555.15,-578.69 559.18,-575.53"/>
<polygon fill="midnightblue" stroke="midnightblue" points="506.99,-747.1 501.8,-756.34 511.61,-752.36 506.99,-747.1"/>
</g>
<!-- Node14 -->
<g id="node15" class="node">
<title>Node14</title>
<g id="a_node15"><a xlink:href="d5/de6/class_kratos_1_1_t_f_q_m_r_solver.html" target="_top" xlink:title=" ">
<polygon fill="none" stroke="black" points="571.5,-441 571.5,-493 762.5,-493 762.5,-441 571.5,-441"/>
<text text-anchor="start" x="579.5" y="-481" font-family="Helvetica,sans-Serif" font-size="10.00">Kratos::TFQMRSolver</text>
<text text-anchor="start" x="579.5" y="-470" font-family="Helvetica,sans-Serif" font-size="10.00">&lt; TSparseSpaceType,</text>
<text text-anchor="start" x="579.5" y="-459" font-family="Helvetica,sans-Serif" font-size="10.00"> TDenseSpaceType, TPreconditioner</text>
<text text-anchor="middle" x="667" y="-448" font-family="Helvetica,sans-Serif" font-size="10.00">Type, TReordererType &gt;</text>
</a>
</g>
</g>
<!-- Node6&#45;&gt;Node14 -->
<g id="edge14" class="edge">
<title>Node6&#45;&gt;Node14</title>
<path fill="none" stroke="midnightblue" d="M509.74,-749.5C510.51,-748.68 511.26,-747.85 512,-747 583.81,-664.17 476.5,-586.09 548,-503 554.5,-495.45 562.53,-489.46 571.32,-484.7"/>
<polygon fill="midnightblue" stroke="midnightblue" points="507.29,-746.99 502.41,-756.39 512.09,-752.09 507.29,-746.99"/>
</g>
</g>
</svg>
