<?xml version="1.0" encoding="UTF-8" standalone="no"?>
<!DOCTYPE svg PUBLIC "-//W3C//DTD SVG 1.1//EN"
 "http://www.w3.org/Graphics/SVG/1.1/DTD/svg11.dtd">
<!-- Generated by graphviz version 2.43.0 (0)
 -->
<!-- Title: Graphical Class Hierarchy Pages: 1 -->
<svg width="536pt" height="142pt"
 viewBox="0.00 0.00 536.00 142.00" xmlns="http://www.w3.org/2000/svg" xmlns:xlink="http://www.w3.org/1999/xlink">
<g id="graph0" class="graph" transform="scale(1 1) rotate(0) translate(4 138)">
<title>Graphical Class Hierarchy</title>
<!-- Node0 -->
<g id="node1" class="node">
<title>Node0</title>
<g id="a_node1"><a xlink:href="d0/de5/class_kratos_1_1_friction_law.html" target="_top" xlink:title="Short class definition.">
<polygon fill="none" stroke="black" points="0,-57.5 0,-76.5 110,-76.5 110,-57.5 0,-57.5"/>
<text text-anchor="middle" x="55" y="-64.5" font-family="Helvetica,sans-Serif" font-size="10.00">Kratos::FrictionLaw</text>
</a>
</g>
</g>
<!-- Node1 -->
<g id="node2" class="node">
<title>Node1</title>
<g id="a_node2"><a xlink:href="d0/d04/class_kratos_1_1_chezy_law.html" target="_top" xlink:title="The base class for the bottom and surface friction laws.">
<polygon fill="none" stroke="black" points="193,-114.5 193,-133.5 297,-133.5 297,-114.5 193,-114.5"/>
<text text-anchor="middle" x="245" y="-121.5" font-family="Helvetica,sans-Serif" font-size="10.00">Kratos::ChezyLaw</text>
</a>
</g>
</g>
<!-- Node0&#45;&gt;Node1 -->
<g id="edge1" class="edge">
<title>Node0&#45;&gt;Node1</title>
<path fill="none" stroke="midnightblue" d="M84.3,-80.74C101.75,-88.76 124.78,-98.54 146,-105 161,-109.57 177.65,-113.28 192.9,-116.17"/>
<polygon fill="midnightblue" stroke="midnightblue" points="85.77,-77.57 75.23,-76.5 82.81,-83.91 85.77,-77.57"/>
</g>
<!-- Node2 -->
<g id="node3" class="node">
<title>Node2</title>
<g id="a_node3"><a xlink:href="d6/d76/class_kratos_1_1_coulomb_adhesion_friction_law.html" target="_top" xlink:title="Short class definition.">
<polygon fill="none" stroke="black" points="146,-76.5 146,-95.5 344,-95.5 344,-76.5 146,-76.5"/>
<text text-anchor="middle" x="245" y="-83.5" font-family="Helvetica,sans-Serif" font-size="10.00">Kratos::CoulombAdhesionFrictionLaw</text>
</a>
</g>
</g>
<!-- Node0&#45;&gt;Node2 -->
<g id="edge2" class="edge">
<title>Node0&#45;&gt;Node2</title>
<path fill="none" stroke="midnightblue" d="M120.29,-73.5C129.84,-74.46 139.84,-75.47 149.85,-76.49"/>
<polygon fill="midnightblue" stroke="midnightblue" points="120.43,-69.99 110.13,-72.47 119.72,-76.96 120.43,-69.99"/>
</g>
<!-- Node4 -->
<g id="node5" class="node">
<title>Node4</title>
<g id="a_node5"><a xlink:href="dc/d85/class_kratos_1_1_manning_law.html" target="_top" xlink:title="The base class for the bottom and surface friction laws.">
<polygon fill="none" stroke="black" points="187,-38.5 187,-57.5 303,-57.5 303,-38.5 187,-38.5"/>
<text text-anchor="middle" x="245" y="-45.5" font-family="Helvetica,sans-Serif" font-size="10.00">Kratos::ManningLaw</text>
</a>
</g>
</g>
<!-- Node0&#45;&gt;Node4 -->
<g id="edge4" class="edge">
<title>Node0&#45;&gt;Node4</title>
<path fill="none" stroke="midnightblue" d="M120.22,-60.51C141.89,-58.32 165.91,-55.89 186.98,-53.76"/>
<polygon fill="midnightblue" stroke="midnightblue" points="119.72,-57.04 110.13,-61.53 120.43,-64.01 119.72,-57.04"/>
</g>
<!-- Node6 -->
<g id="node7" class="node">
<title>Node6</title>
<g id="a_node7"><a xlink:href="d1/db8/class_kratos_1_1_wind_water_friction.html" target="_top" xlink:title="The base class for the bottom and surface friction laws.">
<polygon fill="none" stroke="black" points="173.5,-0.5 173.5,-19.5 316.5,-19.5 316.5,-0.5 173.5,-0.5"/>
<text text-anchor="middle" x="245" y="-7.5" font-family="Helvetica,sans-Serif" font-size="10.00">Kratos::WindWaterFriction</text>
</a>
</g>
</g>
<!-- Node0&#45;&gt;Node6 -->
<g id="edge6" class="edge">
<title>Node0&#45;&gt;Node6</title>
<path fill="none" stroke="midnightblue" d="M84.3,-53.26C101.75,-45.24 124.78,-35.46 146,-29 158.19,-25.29 171.45,-22.14 184.18,-19.54"/>
<polygon fill="midnightblue" stroke="midnightblue" points="82.81,-50.09 75.23,-57.5 85.77,-56.43 82.81,-50.09"/>
</g>
<!-- Node3 -->
<g id="node4" class="node">
<title>Node3</title>
<g id="a_node4"><a xlink:href="de/d95/class_kratos_1_1_hardening_coulomb_friction_law.html" target="_top" xlink:title="Short class definition.">
<polygon fill="none" stroke="black" points="380,-74 380,-104 528,-104 528,-74 380,-74"/>
<text text-anchor="start" x="388" y="-92" font-family="Helvetica,sans-Serif" font-size="10.00">Kratos::HardeningCoulomb</text>
<text text-anchor="middle" x="454" y="-81" font-family="Helvetica,sans-Serif" font-size="10.00">FrictionLaw</text>
</a>
</g>
</g>
<!-- Node2&#45;&gt;Node3 -->
<g id="edge3" class="edge">
<title>Node2&#45;&gt;Node3</title>
<path fill="none" stroke="midnightblue" d="M354.19,-87.57C362.83,-87.69 371.43,-87.82 379.74,-87.94"/>
<polygon fill="midnightblue" stroke="midnightblue" points="354.09,-84.07 344.04,-87.42 353.99,-91.07 354.09,-84.07"/>
</g>
<!-- Node5 -->
<g id="node6" class="node">
<title>Node5</title>
<g id="a_node6"><a xlink:href="d9/d24/class_kratos_1_1_nodal_manning_law.html" target="_top" xlink:title="This class computes the bottom friction according to the Manning law.">
<polygon fill="none" stroke="black" points="382,-35.5 382,-54.5 526,-54.5 526,-35.5 382,-35.5"/>
<text text-anchor="middle" x="454" y="-42.5" font-family="Helvetica,sans-Serif" font-size="10.00">Kratos::NodalManningLaw</text>
</a>
</g>
</g>
<!-- Node4&#45;&gt;Node5 -->
<g id="edge5" class="edge">
<title>Node4&#45;&gt;Node5</title>
<path fill="none" stroke="midnightblue" d="M313.3,-47.02C335.17,-46.71 359.5,-46.36 381.66,-46.03"/>
<polygon fill="midnightblue" stroke="midnightblue" points="313.06,-43.53 303.11,-47.17 313.16,-50.53 313.06,-43.53"/>
</g>
</g>
</svg>
