<?xml version="1.0" encoding="UTF-8" standalone="no"?>
<!DOCTYPE svg PUBLIC "-//W3C//DTD SVG 1.1//EN"
 "http://www.w3.org/Graphics/SVG/1.1/DTD/svg11.dtd">
<!-- Generated by graphviz version 2.43.0 (0)
 -->
<!-- Title: Graphical Class Hierarchy Pages: 1 -->
<svg width="255pt" height="225pt"
 viewBox="0.00 0.00 255.00 224.50" xmlns="http://www.w3.org/2000/svg" xmlns:xlink="http://www.w3.org/1999/xlink">
<g id="graph0" class="graph" transform="scale(1 1) rotate(0) translate(4 220.5)">
<title>Graphical Class Hierarchy</title>
<!-- Node6116 -->
<g id="node1" class="node">
<title>Node6116</title>
<g id="a_node1"><a xlink:title=" ">
<polygon fill="none" stroke="#bfbfbf" points="0,-93.5 0,-112.5 44,-112.5 44,-93.5 0,-93.5"/>
<text text-anchor="middle" x="22" y="-100.5" font-family="Helvetica,sans-Serif" font-size="10.00">Enum</text>
</a>
</g>
</g>
<!-- Node0 -->
<g id="node2" class="node">
<title>Node0</title>
<g id="a_node2"><a xlink:href="d8/d46/classalgorithms_1_1standardized__rgp__constraint_1_1_constraint_type.html" target="_top" xlink:title=" ">
<polygon fill="none" stroke="black" points="80,-186 80,-216 247,-216 247,-186 80,-186"/>
<text text-anchor="start" x="88" y="-204" font-family="Helvetica,sans-Serif" font-size="10.00">algorithms.standardized</text>
<text text-anchor="middle" x="163.5" y="-193" font-family="Helvetica,sans-Serif" font-size="10.00">_rgp_constraint.ConstraintType</text>
</a>
</g>
</g>
<!-- Node6116&#45;&gt;Node0 -->
<g id="edge1" class="edge">
<title>Node6116&#45;&gt;Node0</title>
<path fill="none" stroke="midnightblue" d="M32.67,-121.42C42.44,-138.28 59.06,-162.71 80,-177 85.05,-180.45 90.6,-183.41 96.36,-185.94"/>
<polygon fill="midnightblue" stroke="midnightblue" points="35.64,-119.56 27.73,-112.5 29.52,-122.95 35.64,-119.56"/>
</g>
<!-- Node6118 -->
<g id="node3" class="node">
<title>Node6118</title>
<g id="a_node3"><a xlink:href="d5/d16/classexpression__utils_1_1_properties_data_location.html" target="_top" xlink:title=" ">
<polygon fill="none" stroke="black" points="89,-137 89,-167 238,-167 238,-137 89,-137"/>
<text text-anchor="start" x="97" y="-155" font-family="Helvetica,sans-Serif" font-size="10.00">expression_utils.Properties</text>
<text text-anchor="middle" x="163.5" y="-144" font-family="Helvetica,sans-Serif" font-size="10.00">DataLocation</text>
</a>
</g>
</g>
<!-- Node6116&#45;&gt;Node6118 -->
<g id="edge2" class="edge">
<title>Node6116&#45;&gt;Node6118</title>
<path fill="none" stroke="midnightblue" d="M52.19,-116.67C61.03,-120.58 70.83,-124.67 80,-128 88.69,-131.16 98.01,-134.19 107.15,-136.98"/>
<polygon fill="midnightblue" stroke="midnightblue" points="53.61,-113.47 43.05,-112.56 50.73,-119.86 53.61,-113.47"/>
</g>
<!-- Node6119 -->
<g id="node4" class="node">
<title>Node6119</title>
<g id="a_node4"><a xlink:href="d2/d46/classmodel__part__utilities_1_1_model_part_operation_1_1_operation_type.html" target="_top" xlink:title=" ">
<polygon fill="none" stroke="black" points="85,-88 85,-118 242,-118 242,-88 85,-88"/>
<text text-anchor="start" x="93" y="-106" font-family="Helvetica,sans-Serif" font-size="10.00">model_part_utilities.Model</text>
<text text-anchor="middle" x="163.5" y="-95" font-family="Helvetica,sans-Serif" font-size="10.00">PartOperation.OperationType</text>
</a>
</g>
</g>
<!-- Node6116&#45;&gt;Node6119 -->
<g id="edge3" class="edge">
<title>Node6116&#45;&gt;Node6119</title>
<path fill="none" stroke="midnightblue" d="M54.37,-103C63.6,-103 74.14,-103 84.93,-103"/>
<polygon fill="midnightblue" stroke="midnightblue" points="54.19,-99.5 44.19,-103 54.19,-106.5 54.19,-99.5"/>
</g>
<!-- Node6120 -->
<g id="node5" class="node">
<title>Node6120</title>
<g id="a_node5"><a xlink:href="d6/d53/classpython__interface_1_1python__registry_1_1_registry_context.html" target="_top" xlink:title=" ">
<polygon fill="none" stroke="black" points="93.5,-39 93.5,-69 233.5,-69 233.5,-39 93.5,-39"/>
<text text-anchor="start" x="101.5" y="-57" font-family="Helvetica,sans-Serif" font-size="10.00">python_interface.python</text>
<text text-anchor="middle" x="163.5" y="-46" font-family="Helvetica,sans-Serif" font-size="10.00">_registry.RegistryContext</text>
</a>
</g>
</g>
<!-- Node6116&#45;&gt;Node6120 -->
<g id="edge4" class="edge">
<title>Node6116&#45;&gt;Node6120</title>
<path fill="none" stroke="midnightblue" d="M53.4,-89.51C61.93,-85.91 71.27,-82.15 80,-79 89.57,-75.54 99.88,-72.16 109.86,-69.06"/>
<polygon fill="midnightblue" stroke="midnightblue" points="51.99,-86.31 44.17,-93.46 54.75,-92.74 51.99,-86.31"/>
</g>
<!-- Node6121 -->
<g id="node6" class="node">
<title>Node6121</title>
<g id="a_node6"><a xlink:href="d5/d3a/classtest__suite_1_1_suite_flags.html" target="_top" xlink:title=" ">
<polygon fill="none" stroke="black" points="104,-0.5 104,-19.5 223,-19.5 223,-0.5 104,-0.5"/>
<text text-anchor="middle" x="163.5" y="-7.5" font-family="Helvetica,sans-Serif" font-size="10.00">test_suite.SuiteFlags</text>
</a>
</g>
</g>
<!-- Node6116&#45;&gt;Node6121 -->
<g id="edge5" class="edge">
<title>Node6116&#45;&gt;Node6121</title>
<path fill="none" stroke="midnightblue" d="M32.74,-84.34C42.47,-67.57 58.99,-43.55 80,-30 87.18,-25.37 95.35,-21.81 103.68,-19.07"/>
<polygon fill="midnightblue" stroke="midnightblue" points="29.6,-82.8 27.82,-93.25 35.72,-86.19 29.6,-82.8"/>
</g>
</g>
</svg>
