<?xml version="1.0" encoding="UTF-8" standalone="no"?>
<!DOCTYPE svg PUBLIC "-//W3C//DTD SVG 1.1//EN"
 "http://www.w3.org/Graphics/SVG/1.1/DTD/svg11.dtd">
<!-- Generated by graphviz version 2.43.0 (0)
 -->
<!-- Title: Graphical Class Hierarchy Pages: 1 -->
<svg width="326pt" height="691pt"
 viewBox="0.00 0.00 326.00 690.50" xmlns="http://www.w3.org/2000/svg" xmlns:xlink="http://www.w3.org/1999/xlink">
<g id="graph0" class="graph" transform="scale(1 1) rotate(0) translate(4 686.5)">
<title>Graphical Class Hierarchy</title>
<!-- Node0 -->
<g id="node1" class="node">
<title>Node0</title>
<g id="a_node1"><a xlink:href="d3/d4d/class_kratos_1_1_modeler.html" target="_top" xlink:title="Modeler to interact with ModelParts.">
<polygon fill="none" stroke="black" points="0,-329 0,-348 94,-348 94,-329 0,-329"/>
<text text-anchor="middle" x="47" y="-336" font-family="Helvetica,sans-Serif" font-size="10.00">Kratos::Modeler</text>
</a>
</g>
</g>
<!-- Node1 -->
<g id="node2" class="node">
<title>Node1</title>
<g id="a_node2"><a xlink:href="d3/d30/class_kratos_1_1_cad_io_modeler.html" target="_top" xlink:title="Short class definition.">
<polygon fill="none" stroke="black" points="163,-663 163,-682 285,-682 285,-663 163,-663"/>
<text text-anchor="middle" x="224" y="-670" font-family="Helvetica,sans-Serif" font-size="10.00">Kratos::CadIoModeler</text>
</a>
</g>
</g>
<!-- Node0&#45;&gt;Node1 -->
<g id="edge1" class="edge">
<title>Node0&#45;&gt;Node1</title>
<path fill="none" stroke="midnightblue" d="M50.39,-358.06C58.38,-420.27 86.19,-611.95 130,-653.5 138.97,-662 150.66,-667.16 162.72,-670.19"/>
<polygon fill="midnightblue" stroke="midnightblue" points="53.85,-357.5 49.13,-348.01 46.9,-358.37 53.85,-357.5"/>
</g>
<!-- Node2 -->
<g id="node3" class="node">
<title>Node2</title>
<g id="a_node3"><a xlink:href="da/de3/class_kratos_1_1_cartesian_mesh_generator_modeler.html" target="_top" xlink:title="Short class definition.">
<polygon fill="none" stroke="black" points="136,-613.5 136,-643.5 312,-643.5 312,-613.5 136,-613.5"/>
<text text-anchor="start" x="144" y="-631.5" font-family="Helvetica,sans-Serif" font-size="10.00">Kratos::CartesianMeshGenerator</text>
<text text-anchor="middle" x="224" y="-620.5" font-family="Helvetica,sans-Serif" font-size="10.00">Modeler</text>
</a>
</g>
</g>
<!-- Node0&#45;&gt;Node2 -->
<g id="edge2" class="edge">
<title>Node0&#45;&gt;Node2</title>
<path fill="none" stroke="midnightblue" d="M47.95,-358.44C48.95,-407.76 58.64,-536.38 130,-604.5 133.62,-607.95 137.67,-610.93 141.99,-613.49"/>
<polygon fill="midnightblue" stroke="midnightblue" points="51.44,-358.15 47.85,-348.18 44.44,-358.22 51.44,-358.15"/>
</g>
<!-- Node3 -->
<g id="node4" class="node">
<title>Node3</title>
<g id="a_node4"><a xlink:href="d0/da0/class_kratos_1_1_combine_model_part_modeler.html" target="_top" xlink:title="This modeler combines several model parts into a new one. All input model parts should share the same...">
<polygon fill="none" stroke="black" points="151,-564.5 151,-594.5 297,-594.5 297,-564.5 151,-564.5"/>
<text text-anchor="start" x="159" y="-582.5" font-family="Helvetica,sans-Serif" font-size="10.00">Kratos::CombineModelPart</text>
<text text-anchor="middle" x="224" y="-571.5" font-family="Helvetica,sans-Serif" font-size="10.00">Modeler</text>
</a>
</g>
</g>
<!-- Node0&#45;&gt;Node3 -->
<g id="edge3" class="edge">
<title>Node0&#45;&gt;Node3</title>
<path fill="none" stroke="midnightblue" d="M49.53,-358.17C53.92,-400.78 70.4,-502.05 130,-555.5 136.08,-560.96 143.24,-565.2 150.85,-568.5"/>
<polygon fill="midnightblue" stroke="midnightblue" points="52.99,-357.65 48.6,-348.01 46.02,-358.29 52.99,-357.65"/>
</g>
<!-- Node4 -->
<g id="node5" class="node">
<title>Node4</title>
<g id="a_node5"><a xlink:href="da/d7a/class_kratos_1_1_connectivity_preserve_modeler.html" target="_top" xlink:title="A tool to generate a copy of a ModelPart, sharing the same nodes as the original.">
<polygon fill="none" stroke="black" points="145,-515.5 145,-545.5 303,-545.5 303,-515.5 145,-515.5"/>
<text text-anchor="start" x="153" y="-533.5" font-family="Helvetica,sans-Serif" font-size="10.00">Kratos::ConnectivityPreserve</text>
<text text-anchor="middle" x="224" y="-522.5" font-family="Helvetica,sans-Serif" font-size="10.00">Modeler</text>
</a>
</g>
</g>
<!-- Node0&#45;&gt;Node4 -->
<g id="edge4" class="edge">
<title>Node0&#45;&gt;Node4</title>
<path fill="none" stroke="midnightblue" d="M52.04,-358.08C60.3,-393.1 82.51,-466.43 130,-505.5 134.65,-509.32 139.83,-512.57 145.3,-515.32"/>
<polygon fill="midnightblue" stroke="midnightblue" points="55.42,-357.15 49.83,-348.15 48.59,-358.67 55.42,-357.15"/>
</g>
<!-- Node5 -->
<g id="node6" class="node">
<title>Node5</title>
<g id="a_node6"><a xlink:href="d4/da9/class_kratos_1_1_copy_properties_modeler.html" target="_top" xlink:title="Copy the properties from one model part to another.">
<polygon fill="none" stroke="black" points="140,-477 140,-496 308,-496 308,-477 140,-477"/>
<text text-anchor="middle" x="224" y="-484" font-family="Helvetica,sans-Serif" font-size="10.00">Kratos::CopyPropertiesModeler</text>
</a>
</g>
</g>
<!-- Node0&#45;&gt;Node5 -->
<g id="edge5" class="edge">
<title>Node0&#45;&gt;Node5</title>
<path fill="none" stroke="midnightblue" d="M54.66,-357.84C65.62,-386.59 90.27,-440.14 130,-467.5 135.56,-471.33 141.73,-474.42 148.17,-476.91"/>
<polygon fill="midnightblue" stroke="midnightblue" points="57.84,-356.34 51.13,-348.15 51.26,-358.74 57.84,-356.34"/>
</g>
<!-- Node6 -->
<g id="node7" class="node">
<title>Node6</title>
<g id="a_node7"><a xlink:href="d7/d1e/class_kratos_1_1_create_entities_from_geometries_modeler.html" target="_top" xlink:title="Modeler to create element/condition entities from geometries.">
<polygon fill="none" stroke="black" points="150,-427.5 150,-457.5 298,-457.5 298,-427.5 150,-427.5"/>
<text text-anchor="start" x="158" y="-445.5" font-family="Helvetica,sans-Serif" font-size="10.00">Kratos::CreateEntitiesFrom</text>
<text text-anchor="middle" x="224" y="-434.5" font-family="Helvetica,sans-Serif" font-size="10.00">GeometriesModeler</text>
</a>
</g>
</g>
<!-- Node0&#45;&gt;Node6 -->
<g id="edge6" class="edge">
<title>Node0&#45;&gt;Node6</title>
<path fill="none" stroke="midnightblue" d="M61.66,-356.11C76.56,-374.14 102.05,-401.69 130,-417.5 136.84,-421.37 144.3,-424.66 151.93,-427.45"/>
<polygon fill="midnightblue" stroke="midnightblue" points="64.22,-353.72 55.23,-348.12 58.77,-358.11 64.22,-353.72"/>
</g>
<!-- Node7 -->
<g id="node8" class="node">
<title>Node7</title>
<g id="a_node8"><a xlink:href="de/dc7/class_kratos_1_1_duplicate_mesh_modeler.html" target="_top" xlink:title="Short class definition.">
<polygon fill="none" stroke="black" points="140.5,-389 140.5,-408 307.5,-408 307.5,-389 140.5,-389"/>
<text text-anchor="middle" x="224" y="-396" font-family="Helvetica,sans-Serif" font-size="10.00">Kratos::DuplicateMeshModeler</text>
</a>
</g>
</g>
<!-- Node0&#45;&gt;Node7 -->
<g id="edge7" class="edge">
<title>Node0&#45;&gt;Node7</title>
<path fill="none" stroke="midnightblue" d="M73.22,-353.28C89.07,-362.01 110.19,-372.66 130,-379.5 140.9,-383.27 152.8,-386.39 164.33,-388.95"/>
<polygon fill="midnightblue" stroke="midnightblue" points="74.53,-349.99 64.09,-348.14 71.09,-356.09 74.53,-349.99"/>
</g>
<!-- Node8 -->
<g id="node9" class="node">
<title>Node8</title>
<g id="a_node9"><a xlink:href="d0/d7d/class_kratos_1_1_edge_swapping2_d_modeler.html" target="_top" xlink:title="Optimizes a 2D mesh by swapping the edges between elements.">
<polygon fill="none" stroke="black" points="134.5,-351 134.5,-370 313.5,-370 313.5,-351 134.5,-351"/>
<text text-anchor="middle" x="224" y="-358" font-family="Helvetica,sans-Serif" font-size="10.00">Kratos::EdgeSwapping2DModeler</text>
</a>
</g>
</g>
<!-- Node0&#45;&gt;Node8 -->
<g id="edge8" class="edge">
<title>Node0&#45;&gt;Node8</title>
<path fill="none" stroke="midnightblue" d="M104.58,-345.61C118.18,-347.32 132.92,-349.18 147.23,-350.97"/>
<polygon fill="midnightblue" stroke="midnightblue" points="104.8,-342.11 94.44,-344.34 103.92,-349.06 104.8,-342.11"/>
</g>
<!-- Node9 -->
<g id="node10" class="node">
<title>Node9</title>
<g id="a_node10"><a xlink:href="d9/d65/class_kratos_1_1_h_rom_visualization_mesh_modeler.html" target="_top" xlink:title="Modeler for setting up HROM visualization meshes This modeler is intended to be used for setting up H...">
<polygon fill="none" stroke="black" points="150.5,-301.5 150.5,-331.5 297.5,-331.5 297.5,-301.5 150.5,-301.5"/>
<text text-anchor="start" x="158.5" y="-319.5" font-family="Helvetica,sans-Serif" font-size="10.00">Kratos::HRomVisualization</text>
<text text-anchor="middle" x="224" y="-308.5" font-family="Helvetica,sans-Serif" font-size="10.00">MeshModeler</text>
</a>
</g>
</g>
<!-- Node0&#45;&gt;Node9 -->
<g id="edge9" class="edge">
<title>Node0&#45;&gt;Node9</title>
<path fill="none" stroke="midnightblue" d="M104.75,-331.37C119.26,-329.54 135.06,-327.56 150.25,-325.65"/>
<polygon fill="midnightblue" stroke="midnightblue" points="103.92,-327.94 94.44,-332.66 104.8,-334.89 103.92,-327.94"/>
</g>
<!-- Node10 -->
<g id="node11" class="node">
<title>Node10</title>
<g id="a_node11"><a xlink:href="d6/da6/class_kratos_1_1_iga_modeler.html" target="_top" xlink:title="Short class definition.">
<polygon fill="none" stroke="black" points="169.5,-263 169.5,-282 278.5,-282 278.5,-263 169.5,-263"/>
<text text-anchor="middle" x="224" y="-270" font-family="Helvetica,sans-Serif" font-size="10.00">Kratos::IgaModeler</text>
</a>
</g>
</g>
<!-- Node0&#45;&gt;Node10 -->
<g id="edge10" class="edge">
<title>Node0&#45;&gt;Node10</title>
<path fill="none" stroke="midnightblue" d="M70.51,-323.44C86.5,-313.35 108.81,-300.51 130,-292.5 142.36,-287.83 156.07,-284.12 169.09,-281.23"/>
<polygon fill="midnightblue" stroke="midnightblue" points="68.39,-320.64 61.88,-328.99 72.18,-326.52 68.39,-320.64"/>
</g>
<!-- Node11 -->
<g id="node12" class="node">
<title>Node11</title>
<g id="a_node12"><a xlink:href="d4/de9/class_kratos_1_1_mapping_geometries_modeler.html" target="_top" xlink:title="Short class definition.">
<polygon fill="none" stroke="black" points="147.5,-213.5 147.5,-243.5 300.5,-243.5 300.5,-213.5 147.5,-213.5"/>
<text text-anchor="start" x="155.5" y="-231.5" font-family="Helvetica,sans-Serif" font-size="10.00">Kratos::MappingGeometries</text>
<text text-anchor="middle" x="224" y="-220.5" font-family="Helvetica,sans-Serif" font-size="10.00">Modeler</text>
</a>
</g>
</g>
<!-- Node0&#45;&gt;Node11 -->
<g id="edge11" class="edge">
<title>Node0&#45;&gt;Node11</title>
<path fill="none" stroke="midnightblue" d="M60.47,-320.69C74.99,-301.31 100.73,-270.77 130,-253.5 136.48,-249.68 143.56,-246.43 150.82,-243.66"/>
<polygon fill="midnightblue" stroke="midnightblue" points="57.51,-318.82 54.45,-328.97 63.17,-322.94 57.51,-318.82"/>
</g>
<!-- Node12 -->
<g id="node13" class="node">
<title>Node12</title>
<g id="a_node13"><a xlink:href="d6/d38/class_kratos_1_1_mesh_moving_modeler.html" target="_top" xlink:title="Tools for lagrangian computations.">
<polygon fill="none" stroke="black" points="146,-175 146,-194 302,-194 302,-175 146,-175"/>
<text text-anchor="middle" x="224" y="-182" font-family="Helvetica,sans-Serif" font-size="10.00">Kratos::MeshMovingModeler</text>
</a>
</g>
</g>
<!-- Node0&#45;&gt;Node12 -->
<g id="edge12" class="edge">
<title>Node0&#45;&gt;Node12</title>
<path fill="none" stroke="midnightblue" d="M54.19,-319.3C64.75,-289.73 89.18,-233.44 130,-204.5 136.06,-200.2 142.87,-196.8 149.97,-194.1"/>
<polygon fill="midnightblue" stroke="midnightblue" points="50.83,-318.29 50.92,-328.88 57.46,-320.55 50.83,-318.29"/>
</g>
<!-- Node13 -->
<g id="node14" class="node">
<title>Node13</title>
<g id="a_node14"><a xlink:href="d9/d76/class_kratos_1_1_nurbs_geometry_modeler.html" target="_top" xlink:title=" ">
<polygon fill="none" stroke="black" points="138.5,-137 138.5,-156 309.5,-156 309.5,-137 138.5,-137"/>
<text text-anchor="middle" x="224" y="-144" font-family="Helvetica,sans-Serif" font-size="10.00">Kratos::NurbsGeometryModeler</text>
</a>
</g>
</g>
<!-- Node0&#45;&gt;Node13 -->
<g id="edge13" class="edge">
<title>Node0&#45;&gt;Node13</title>
<path fill="none" stroke="midnightblue" d="M51.38,-318.92C58.74,-282.6 79.74,-204.9 130,-165.5 134.8,-161.74 140.15,-158.67 145.8,-156.17"/>
<polygon fill="midnightblue" stroke="midnightblue" points="47.94,-318.3 49.52,-328.78 54.81,-319.6 47.94,-318.3"/>
</g>
<!-- Node14 -->
<g id="node15" class="node">
<title>Node14</title>
<g id="a_node15"><a xlink:href="dd/dc2/class_kratos_1_1_refinement_modeler.html" target="_top" xlink:title="Short class definition.">
<polygon fill="none" stroke="black" points="149,-99 149,-118 299,-118 299,-99 149,-99"/>
<text text-anchor="middle" x="224" y="-106" font-family="Helvetica,sans-Serif" font-size="10.00">Kratos::RefinementModeler</text>
</a>
</g>
</g>
<!-- Node0&#45;&gt;Node14 -->
<g id="edge14" class="edge">
<title>Node0&#45;&gt;Node14</title>
<path fill="none" stroke="midnightblue" d="M49.57,-318.55C54.02,-276.32 70.57,-177.64 130,-127.5 135.54,-122.82 141.93,-119.19 148.7,-116.39"/>
<polygon fill="midnightblue" stroke="midnightblue" points="46.07,-318.38 48.63,-328.67 53.04,-319.03 46.07,-318.38"/>
</g>
<!-- Node15 -->
<g id="node16" class="node">
<title>Node15</title>
<g id="a_node16"><a xlink:href="de/df8/class_kratos_1_1_serial_model_part_combinator_modeler.html" target="_top" xlink:title="This modeler combines several model parts in serial, reading its respective *.mdpa files (maybe other...">
<polygon fill="none" stroke="black" points="130,-49.5 130,-79.5 318,-79.5 318,-49.5 130,-49.5"/>
<text text-anchor="start" x="138" y="-67.5" font-family="Helvetica,sans-Serif" font-size="10.00">Kratos::SerialModelPartCombinator</text>
<text text-anchor="middle" x="224" y="-56.5" font-family="Helvetica,sans-Serif" font-size="10.00">Modeler</text>
</a>
</g>
</g>
<!-- Node0&#45;&gt;Node15 -->
<g id="edge15" class="edge">
<title>Node0&#45;&gt;Node15</title>
<path fill="none" stroke="midnightblue" d="M48.47,-318.91C50.67,-272.1 62.95,-152.92 130,-89.5 134.01,-85.71 138.53,-82.48 143.36,-79.73"/>
<polygon fill="midnightblue" stroke="midnightblue" points="44.97,-318.82 48.1,-328.94 51.96,-319.08 44.97,-318.82"/>
</g>
<!-- Node16 -->
<g id="node17" class="node">
<title>Node16</title>
<g id="a_node17"><a xlink:href="d1/d35/class_kratos_1_1_structured_mesh_refinement_modeler.html" target="_top" xlink:title="Short class definition.">
<polygon fill="none" stroke="black" points="130.5,-0.5 130.5,-30.5 317.5,-30.5 317.5,-0.5 130.5,-0.5"/>
<text text-anchor="start" x="138.5" y="-18.5" font-family="Helvetica,sans-Serif" font-size="10.00">Kratos::StructuredMeshRefinement</text>
<text text-anchor="middle" x="224" y="-7.5" font-family="Helvetica,sans-Serif" font-size="10.00">Modeler</text>
</a>
</g>
</g>
<!-- Node0&#45;&gt;Node16 -->
<g id="edge16" class="edge">
<title>Node0&#45;&gt;Node16</title>
<path fill="none" stroke="midnightblue" d="M47.21,-318.76C46.22,-265.73 51.12,-118.92 130,-40.5 133.91,-36.61 138.36,-33.31 143.14,-30.51"/>
<polygon fill="midnightblue" stroke="midnightblue" points="43.71,-318.95 47.5,-328.85 50.71,-318.76 43.71,-318.95"/>
</g>
</g>
</svg>
