<?xml version="1.0" encoding="UTF-8" standalone="no"?>
<!DOCTYPE svg PUBLIC "-//W3C//DTD SVG 1.1//EN"
 "http://www.w3.org/Graphics/SVG/1.1/DTD/svg11.dtd">
<!-- Generated by graphviz version 2.43.0 (0)
 -->
<!-- Title: Graphical Class Hierarchy Pages: 1 -->
<svg width="381pt" height="88pt"
 viewBox="0.00 0.00 381.00 88.00" xmlns="http://www.w3.org/2000/svg" xmlns:xlink="http://www.w3.org/1999/xlink">
<g id="graph0" class="graph" transform="scale(1 1) rotate(0) translate(4 84)">
<title>Graphical Class Hierarchy</title>
<!-- Node0 -->
<g id="node1" class="node">
<title>Node0</title>
<g id="a_node1"><a xlink:href="d5/df0/class_kratos_1_1_perturb_geometry_base_utility.html" target="_top" xlink:title="Base class for geometry perturbation utilities.">
<polygon fill="none" stroke="black" points="0,-24.5 0,-54.5 162,-54.5 162,-24.5 0,-24.5"/>
<text text-anchor="start" x="8" y="-42.5" font-family="Helvetica,sans-Serif" font-size="10.00">Kratos::PerturbGeometryBase</text>
<text text-anchor="middle" x="81" y="-31.5" font-family="Helvetica,sans-Serif" font-size="10.00">Utility</text>
</a>
</g>
</g>
<!-- Node1 -->
<g id="node2" class="node">
<title>Node1</title>
<g id="a_node2"><a xlink:href="dc/d8d/class_kratos_1_1_perturb_geometry_sparse_utility.html" target="_top" xlink:title="This class generates a random field based on a sparse correlation matrix.">
<polygon fill="none" stroke="black" points="200,-49.5 200,-79.5 371,-79.5 371,-49.5 200,-49.5"/>
<text text-anchor="start" x="208" y="-67.5" font-family="Helvetica,sans-Serif" font-size="10.00">Kratos::PerturbGeometrySparse</text>
<text text-anchor="middle" x="285.5" y="-56.5" font-family="Helvetica,sans-Serif" font-size="10.00">Utility</text>
</a>
</g>
</g>
<!-- Node0&#45;&gt;Node1 -->
<g id="edge1" class="edge">
<title>Node0&#45;&gt;Node1</title>
<path fill="none" stroke="midnightblue" d="M171.98,-50.61C181.2,-51.75 190.56,-52.9 199.72,-54.03"/>
<polygon fill="midnightblue" stroke="midnightblue" points="172.39,-47.13 162.03,-49.38 171.53,-54.08 172.39,-47.13"/>
</g>
<!-- Node2 -->
<g id="node3" class="node">
<title>Node2</title>
<g id="a_node3"><a xlink:href="d8/d9b/class_kratos_1_1_perturb_geometry_subgrid_utility.html" target="_top" xlink:title="This class generates a random field based on a reduced correlation matrix.">
<polygon fill="none" stroke="black" points="198,-0.5 198,-30.5 373,-30.5 373,-0.5 198,-0.5"/>
<text text-anchor="start" x="206" y="-18.5" font-family="Helvetica,sans-Serif" font-size="10.00">Kratos::PerturbGeometrySubgrid</text>
<text text-anchor="middle" x="285.5" y="-7.5" font-family="Helvetica,sans-Serif" font-size="10.00">Utility</text>
</a>
</g>
</g>
<!-- Node0&#45;&gt;Node2 -->
<g id="edge2" class="edge">
<title>Node0&#45;&gt;Node2</title>
<path fill="none" stroke="midnightblue" d="M172,-28.83C180.55,-27.82 189.2,-26.79 197.71,-25.79"/>
<polygon fill="midnightblue" stroke="midnightblue" points="171.55,-25.36 162.03,-30.01 172.38,-32.31 171.55,-25.36"/>
</g>
</g>
</svg>
