<?xml version="1.0" encoding="UTF-8" standalone="no"?>
<!DOCTYPE svg PUBLIC "-//W3C//DTD SVG 1.1//EN"
 "http://www.w3.org/Graphics/SVG/1.1/DTD/svg11.dtd">
<!-- Generated by graphviz version 2.43.0 (0)
 -->
<!-- Title: Graphical Class Hierarchy Pages: 1 -->
<svg width="318pt" height="110pt"
 viewBox="0.00 0.00 318.00 110.00" xmlns="http://www.w3.org/2000/svg" xmlns:xlink="http://www.w3.org/1999/xlink">
<g id="graph0" class="graph" transform="scale(1 1) rotate(0) translate(4 106)">
<title>Graphical Class Hierarchy</title>
<!-- Node3475 -->
<g id="node1" class="node">
<title>Node3475</title>
<g id="a_node1"><a xlink:title=" ">
<polygon fill="none" stroke="#bfbfbf" points="0,-41.5 0,-60.5 128,-60.5 128,-41.5 0,-41.5"/>
<text text-anchor="middle" x="64" y="-48.5" font-family="Helvetica,sans-Serif" font-size="10.00">boost::iterator_adaptor</text>
</a>
</g>
</g>
<!-- Node0 -->
<g id="node2" class="node">
<title>Node0</title>
<g id="a_node2"><a xlink:href="d0/dc4/class_kratos_1_1_pointer_vector_map_iterator.html" target="_top" xlink:title="Short class definition.">
<polygon fill="none" stroke="black" points="167,-60.5 167,-101.5 307,-101.5 307,-60.5 167,-60.5"/>
<text text-anchor="start" x="175" y="-89.5" font-family="Helvetica,sans-Serif" font-size="10.00">Kratos::PointerVectorMap</text>
<text text-anchor="start" x="175" y="-78.5" font-family="Helvetica,sans-Serif" font-size="10.00">Iterator&lt; TIteratorType,</text>
<text text-anchor="middle" x="237" y="-67.5" font-family="Helvetica,sans-Serif" font-size="10.00"> TDataType &gt;</text>
</a>
</g>
</g>
<!-- Node3475&#45;&gt;Node0 -->
<g id="edge1" class="edge">
<title>Node3475&#45;&gt;Node0</title>
<path fill="none" stroke="midnightblue" d="M129.64,-62.34C141.82,-64.48 154.61,-66.72 166.92,-68.88"/>
<polygon fill="midnightblue" stroke="midnightblue" points="130.03,-58.86 119.58,-60.57 128.82,-65.75 130.03,-58.86"/>
</g>
<!-- Node3477 -->
<g id="node3" class="node">
<title>Node3477</title>
<g id="a_node3"><a xlink:href="d9/d87/class_kratos_1_1_weak_pointer_vector_iterator.html" target="_top" xlink:title="Short class definition.">
<polygon fill="none" stroke="black" points="164,-0.5 164,-41.5 310,-41.5 310,-0.5 164,-0.5"/>
<text text-anchor="start" x="172" y="-29.5" font-family="Helvetica,sans-Serif" font-size="10.00">Kratos::WeakPointerVector</text>
<text text-anchor="start" x="172" y="-18.5" font-family="Helvetica,sans-Serif" font-size="10.00">Iterator&lt; TIteratorType,</text>
<text text-anchor="middle" x="237" y="-7.5" font-family="Helvetica,sans-Serif" font-size="10.00"> TDataType &gt;</text>
</a>
</g>
</g>
<!-- Node3475&#45;&gt;Node3477 -->
<g id="edge2" class="edge">
<title>Node3475&#45;&gt;Node3477</title>
<path fill="none" stroke="midnightblue" d="M129.66,-39.66C140.82,-37.7 152.49,-35.65 163.84,-33.66"/>
<polygon fill="midnightblue" stroke="midnightblue" points="128.82,-36.25 119.58,-41.43 130.03,-43.14 128.82,-36.25"/>
</g>
</g>
</svg>
