<?xml version="1.0" encoding="UTF-8" standalone="no"?>
<!DOCTYPE svg PUBLIC "-//W3C//DTD SVG 1.1//EN"
 "http://www.w3.org/Graphics/SVG/1.1/DTD/svg11.dtd">
<!-- Generated by graphviz version 2.43.0 (0)
 -->
<!-- Title: Graphical Class Hierarchy Pages: 1 -->
<svg width="279pt" height="137pt"
 viewBox="0.00 0.00 279.00 137.00" xmlns="http://www.w3.org/2000/svg" xmlns:xlink="http://www.w3.org/1999/xlink">
<g id="graph0" class="graph" transform="scale(1 1) rotate(0) translate(4 133)">
<title>Graphical Class Hierarchy</title>
<!-- Node132 -->
<g id="node1" class="node">
<title>Node132</title>
<g id="a_node1"><a xlink:title=" ">
<polygon fill="none" stroke="#bfbfbf" points="0,-55 0,-74 82,-74 82,-55 0,-55"/>
<text text-anchor="middle" x="41" y="-62" font-family="Helvetica,sans-Serif" font-size="10.00">BaseStrategy</text>
</a>
</g>
</g>
<!-- Node0 -->
<g id="node2" class="node">
<title>Node0</title>
<g id="a_node2"><a xlink:href="d5/d3d/classswimming__sphere__strategy_1_1_swimming_strategy.html" target="_top" xlink:title=" ">
<polygon fill="none" stroke="black" points="118,-98.5 118,-128.5 271,-128.5 271,-98.5 118,-98.5"/>
<text text-anchor="start" x="126" y="-116.5" font-family="Helvetica,sans-Serif" font-size="10.00">swimming_sphere_strategy.</text>
<text text-anchor="middle" x="194.5" y="-105.5" font-family="Helvetica,sans-Serif" font-size="10.00">SwimmingStrategy</text>
</a>
</g>
</g>
<!-- Node132&#45;&gt;Node0 -->
<g id="edge1" class="edge">
<title>Node132&#45;&gt;Node0</title>
<path fill="none" stroke="midnightblue" d="M80.57,-77.27C92.55,-81.22 105.82,-85.56 118,-89.5 127.03,-92.42 136.68,-95.51 145.95,-98.47"/>
<polygon fill="midnightblue" stroke="midnightblue" points="81.44,-73.87 70.85,-74.07 79.25,-80.52 81.44,-73.87"/>
</g>
<!-- Node134 -->
<g id="node3" class="node">
<title>Node134</title>
<g id="a_node3"><a xlink:href="d8/d02/classthermal__continuum__sphere__strategy_1_1_explicit_strategy.html" target="_top" xlink:title=" ">
<polygon fill="none" stroke="black" points="119.5,-49.5 119.5,-79.5 269.5,-79.5 269.5,-49.5 119.5,-49.5"/>
<text text-anchor="start" x="127.5" y="-67.5" font-family="Helvetica,sans-Serif" font-size="10.00">thermal_continuum_sphere</text>
<text text-anchor="middle" x="194.5" y="-56.5" font-family="Helvetica,sans-Serif" font-size="10.00">_strategy.ExplicitStrategy</text>
</a>
</g>
</g>
<!-- Node132&#45;&gt;Node134 -->
<g id="edge2" class="edge">
<title>Node132&#45;&gt;Node134</title>
<path fill="none" stroke="midnightblue" d="M92.48,-64.5C101.13,-64.5 110.29,-64.5 119.41,-64.5"/>
<polygon fill="midnightblue" stroke="midnightblue" points="92.2,-61 82.2,-64.5 92.2,-68 92.2,-61"/>
</g>
<!-- Node135 -->
<g id="node4" class="node">
<title>Node135</title>
<g id="a_node4"><a xlink:href="d7/d17/classthermal__sphere__strategy_1_1_explicit_strategy.html" target="_top" xlink:title=" ">
<polygon fill="none" stroke="black" points="124.5,-0.5 124.5,-30.5 264.5,-30.5 264.5,-0.5 124.5,-0.5"/>
<text text-anchor="start" x="132.5" y="-18.5" font-family="Helvetica,sans-Serif" font-size="10.00">thermal_sphere_strategy.</text>
<text text-anchor="middle" x="194.5" y="-7.5" font-family="Helvetica,sans-Serif" font-size="10.00">ExplicitStrategy</text>
</a>
</g>
</g>
<!-- Node132&#45;&gt;Node135 -->
<g id="edge3" class="edge">
<title>Node132&#45;&gt;Node135</title>
<path fill="none" stroke="midnightblue" d="M81.33,-51.78C101.42,-45.28 125.99,-37.34 147.01,-30.54"/>
<polygon fill="midnightblue" stroke="midnightblue" points="80.01,-48.53 71.57,-54.94 82.16,-55.19 80.01,-48.53"/>
</g>
</g>
</svg>
