<?xml version="1.0" encoding="UTF-8" standalone="no"?>
<!DOCTYPE svg PUBLIC "-//W3C//DTD SVG 1.1//EN"
 "http://www.w3.org/Graphics/SVG/1.1/DTD/svg11.dtd">
<!-- Generated by graphviz version 2.43.0 (0)
 -->
<!-- Title: Graphical Class Hierarchy Pages: 1 -->
<svg width="424pt" height="411pt"
 viewBox="0.00 0.00 424.00 410.50" xmlns="http://www.w3.org/2000/svg" xmlns:xlink="http://www.w3.org/1999/xlink">
<g id="graph0" class="graph" transform="scale(1 1) rotate(0) translate(4 406.5)">
<title>Graphical Class Hierarchy</title>
<!-- Node0 -->
<g id="node1" class="node">
<title>Node0</title>
<g id="a_node1"><a xlink:href="dc/dea/class_kratos_1_1_geometry.html" target="_top" xlink:title=" ">
<polygon fill="none" stroke="black" points="0,-186.5 0,-216.5 167,-216.5 167,-186.5 0,-186.5"/>
<text text-anchor="start" x="8" y="-204.5" font-family="Helvetica,sans-Serif" font-size="10.00">Kratos::Geometry&lt; TContainer</text>
<text text-anchor="middle" x="83.5" y="-193.5" font-family="Helvetica,sans-Serif" font-size="10.00">PointType::value_type &gt;</text>
</a>
</g>
</g>
<!-- Node1 -->
<g id="node2" class="node">
<title>Node1</title>
<g id="a_node2"><a xlink:href="d3/d10/class_kratos_1_1_brep_curve.html" target="_top" xlink:title="The BrepCurve acts as topology for curves. Those can be enclosed by a certain set of points.">
<polygon fill="none" stroke="black" points="218.5,-361 218.5,-402 400.5,-402 400.5,-361 218.5,-361"/>
<text text-anchor="start" x="226.5" y="-390" font-family="Helvetica,sans-Serif" font-size="10.00">Kratos::BrepCurve&lt;</text>
<text text-anchor="start" x="226.5" y="-379" font-family="Helvetica,sans-Serif" font-size="10.00"> TContainerPointType,</text>
<text text-anchor="middle" x="309.5" y="-368" font-family="Helvetica,sans-Serif" font-size="10.00"> TContainerPointEmbeddedType &gt;</text>
</a>
</g>
</g>
<!-- Node0&#45;&gt;Node1 -->
<g id="edge1" class="edge">
<title>Node0&#45;&gt;Node1</title>
<path fill="none" stroke="midnightblue" d="M97.29,-225.93C116.01,-259.31 154.04,-318.75 203,-351.5 208.3,-355.05 214.02,-358.18 219.96,-360.95"/>
<polygon fill="midnightblue" stroke="midnightblue" points="100.19,-223.95 92.32,-216.86 94.05,-227.31 100.19,-223.95"/>
</g>
<!-- Node2 -->
<g id="node3" class="node">
<title>Node2</title>
<g id="a_node3"><a xlink:href="d4/d01/class_kratos_1_1_brep_curve_on_surface.html" target="_top" xlink:title="The BrepCurveOnSurface acts as topology for curves on surfaces.">
<polygon fill="none" stroke="black" points="216.5,-301 216.5,-342 402.5,-342 402.5,-301 216.5,-301"/>
<text text-anchor="start" x="224.5" y="-330" font-family="Helvetica,sans-Serif" font-size="10.00">Kratos::BrepCurveOnSurface</text>
<text text-anchor="start" x="224.5" y="-319" font-family="Helvetica,sans-Serif" font-size="10.00">&lt; TContainerPointType, TContainer</text>
<text text-anchor="middle" x="309.5" y="-308" font-family="Helvetica,sans-Serif" font-size="10.00">PointEmbeddedType &gt;</text>
</a>
</g>
</g>
<!-- Node0&#45;&gt;Node2 -->
<g id="edge2" class="edge">
<title>Node0&#45;&gt;Node2</title>
<path fill="none" stroke="midnightblue" d="M107.88,-223.51C130.58,-243.8 166.82,-273.43 203,-291.5 209.98,-294.99 217.44,-298.13 225.03,-300.94"/>
<polygon fill="midnightblue" stroke="midnightblue" points="110.19,-220.89 100.44,-216.76 105.49,-226.07 110.19,-220.89"/>
</g>
<!-- Node3 -->
<g id="node4" class="node">
<title>Node3</title>
<g id="a_node4"><a xlink:href="dc/de3/class_kratos_1_1_brep_surface.html" target="_top" xlink:title="The BrepSurface acts as topology for faces. Those can be enclosed by a certain set of brep face curve...">
<polygon fill="none" stroke="black" points="218.5,-241 218.5,-282 400.5,-282 400.5,-241 218.5,-241"/>
<text text-anchor="start" x="226.5" y="-270" font-family="Helvetica,sans-Serif" font-size="10.00">Kratos::BrepSurface</text>
<text text-anchor="start" x="226.5" y="-259" font-family="Helvetica,sans-Serif" font-size="10.00">&lt; TContainerPointType,</text>
<text text-anchor="middle" x="309.5" y="-248" font-family="Helvetica,sans-Serif" font-size="10.00"> TContainerPointEmbeddedType &gt;</text>
</a>
</g>
</g>
<!-- Node0&#45;&gt;Node3 -->
<g id="edge3" class="edge">
<title>Node0&#45;&gt;Node3</title>
<path fill="none" stroke="midnightblue" d="M150.67,-219.23C176.18,-226.06 205.52,-233.92 231.92,-240.99"/>
<polygon fill="midnightblue" stroke="midnightblue" points="151.3,-215.77 140.74,-216.56 149.49,-222.53 151.3,-215.77"/>
</g>
<!-- Node4 -->
<g id="node5" class="node">
<title>Node4</title>
<g id="a_node5"><a xlink:href="d4/da1/class_kratos_1_1_nurbs_curve_geometry.html" target="_top" xlink:title=" ">
<polygon fill="none" stroke="black" points="229.5,-181 229.5,-222 389.5,-222 389.5,-181 229.5,-181"/>
<text text-anchor="start" x="237.5" y="-210" font-family="Helvetica,sans-Serif" font-size="10.00">Kratos::NurbsCurveGeometry</text>
<text text-anchor="start" x="237.5" y="-199" font-family="Helvetica,sans-Serif" font-size="10.00">&lt; TWorkingSpaceDimension,</text>
<text text-anchor="middle" x="309.5" y="-188" font-family="Helvetica,sans-Serif" font-size="10.00"> TContainerPointType &gt;</text>
</a>
</g>
</g>
<!-- Node0&#45;&gt;Node4 -->
<g id="edge4" class="edge">
<title>Node0&#45;&gt;Node4</title>
<path fill="none" stroke="midnightblue" d="M177.37,-201.5C194.66,-201.5 212.58,-201.5 229.42,-201.5"/>
<polygon fill="midnightblue" stroke="midnightblue" points="177.27,-198 167.27,-201.5 177.27,-205 177.27,-198"/>
</g>
<!-- Node5 -->
<g id="node6" class="node">
<title>Node5</title>
<g id="a_node6"><a xlink:href="df/d94/class_kratos_1_1_nurbs_surface_geometry.html" target="_top" xlink:title=" ">
<polygon fill="none" stroke="black" points="225.5,-121 225.5,-162 393.5,-162 393.5,-121 225.5,-121"/>
<text text-anchor="start" x="233.5" y="-150" font-family="Helvetica,sans-Serif" font-size="10.00">Kratos::NurbsSurfaceGeometry</text>
<text text-anchor="start" x="233.5" y="-139" font-family="Helvetica,sans-Serif" font-size="10.00">&lt; TWorkingSpaceDimension,</text>
<text text-anchor="middle" x="309.5" y="-128" font-family="Helvetica,sans-Serif" font-size="10.00"> TContainerPointType &gt;</text>
</a>
</g>
</g>
<!-- Node0&#45;&gt;Node5 -->
<g id="edge5" class="edge">
<title>Node0&#45;&gt;Node5</title>
<path fill="none" stroke="midnightblue" d="M150.67,-183.77C176.18,-176.94 205.52,-169.08 231.92,-162.01"/>
<polygon fill="midnightblue" stroke="midnightblue" points="149.49,-180.47 140.74,-186.44 151.3,-187.23 149.49,-180.47"/>
</g>
<!-- Node6 -->
<g id="node7" class="node">
<title>Node6</title>
<g id="a_node7"><a xlink:href="d5/ddc/class_kratos_1_1_nurbs_volume_geometry.html" target="_top" xlink:title="A volume geometry based on a full 3&#45;dimensional BSpline tensor product.">
<polygon fill="none" stroke="black" points="225.5,-71.5 225.5,-101.5 393.5,-101.5 393.5,-71.5 225.5,-71.5"/>
<text text-anchor="start" x="233.5" y="-89.5" font-family="Helvetica,sans-Serif" font-size="10.00">Kratos::NurbsVolumeGeometry</text>
<text text-anchor="middle" x="309.5" y="-78.5" font-family="Helvetica,sans-Serif" font-size="10.00">&lt; TContainerPointType &gt;</text>
</a>
</g>
</g>
<!-- Node0&#45;&gt;Node6 -->
<g id="edge6" class="edge">
<title>Node0&#45;&gt;Node6</title>
<path fill="none" stroke="midnightblue" d="M107.32,-179.47C129.86,-158.91 166.22,-128.86 203,-111.5 211.17,-107.64 219.99,-104.35 228.92,-101.55"/>
<polygon fill="midnightblue" stroke="midnightblue" points="104.89,-176.95 99.94,-186.31 109.65,-182.08 104.89,-176.95"/>
</g>
<!-- Node7 -->
<g id="node8" class="node">
<title>Node7</title>
<g id="a_node8"><a xlink:href="d6/d07/class_kratos_1_1_point_on_geometry.html" target="_top" xlink:title=" ">
<polygon fill="none" stroke="black" points="203,-0.5 203,-52.5 416,-52.5 416,-0.5 203,-0.5"/>
<text text-anchor="start" x="211" y="-40.5" font-family="Helvetica,sans-Serif" font-size="10.00">Kratos::PointOnGeometry</text>
<text text-anchor="start" x="211" y="-29.5" font-family="Helvetica,sans-Serif" font-size="10.00">&lt; TContainerPointType,</text>
<text text-anchor="start" x="211" y="-18.5" font-family="Helvetica,sans-Serif" font-size="10.00"> TWorkingSpaceDimension,</text>
<text text-anchor="middle" x="309.5" y="-7.5" font-family="Helvetica,sans-Serif" font-size="10.00"> TLocalSpaceDimensionOfBackground &gt;</text>
</a>
</g>
</g>
<!-- Node0&#45;&gt;Node7 -->
<g id="edge7" class="edge">
<title>Node0&#45;&gt;Node7</title>
<path fill="none" stroke="midnightblue" d="M99.14,-177.4C119.02,-146.58 157.36,-93.51 203,-62.5 208.36,-58.86 214.13,-55.55 220.1,-52.55"/>
<polygon fill="midnightblue" stroke="midnightblue" points="95.96,-175.87 93.57,-186.2 101.88,-179.62 95.96,-175.87"/>
</g>
</g>
</svg>
