<?xml version="1.0" encoding="UTF-8" standalone="no"?>
<!DOCTYPE svg PUBLIC "-//W3C//DTD SVG 1.1//EN"
 "http://www.w3.org/Graphics/SVG/1.1/DTD/svg11.dtd">
<!-- Generated by graphviz version 2.43.0 (0)
 -->
<!-- Title: Graphical Class Hierarchy Pages: 1 -->
<svg width="1075pt" height="897pt"
 viewBox="0.00 0.00 1075.00 896.50" xmlns="http://www.w3.org/2000/svg" xmlns:xlink="http://www.w3.org/1999/xlink">
<g id="graph0" class="graph" transform="scale(1 1) rotate(0) translate(4 892.5)">
<title>Graphical Class Hierarchy</title>
<!-- Node0 -->
<g id="Node000000" class="node">
<title>Node0</title>
<g id="a_Node000000"><a xlink:href="d2/d88/class_kratos_1_1_builder_and_solver.html" target="_top" xlink:title="Current class provides an implementation for the base builder and solving operations.">
<polygon fill="white" stroke="#666666" points="171,-459 0,-459 0,-418 171,-418 171,-459"/>
<text text-anchor="start" x="8" y="-447" font-family="Helvetica,sans-Serif" font-size="10.00">Kratos::BuilderAndSolver</text>
<text text-anchor="start" x="8" y="-436" font-family="Helvetica,sans-Serif" font-size="10.00">&lt; TSparseSpace, TDenseSpace,</text>
<text text-anchor="middle" x="85.5" y="-425" font-family="Helvetica,sans-Serif" font-size="10.00"> TLinearSolver &gt;</text>
</a>
</g>
</g>
<!-- Node1 -->
<g id="Node000001" class="node">
<title>Node1</title>
<g id="a_Node000001"><a xlink:href="d4/d49/class_kratos_1_1_explicit_hamilton_builder_and_solver.html" target="_top" xlink:title=" ">
<polygon fill="white" stroke="#666666" points="440.5,-707 257.5,-707 257.5,-666 440.5,-666 440.5,-707"/>
<text text-anchor="start" x="265.5" y="-695" font-family="Helvetica,sans-Serif" font-size="10.00">Kratos::ExplicitHamilton</text>
<text text-anchor="start" x="265.5" y="-684" font-family="Helvetica,sans-Serif" font-size="10.00">BuilderAndSolver&lt; TSparseSpace,</text>
<text text-anchor="middle" x="349" y="-673" font-family="Helvetica,sans-Serif" font-size="10.00"> TDenseSpace, TLinearSolver &gt;</text>
</a>
</g>
</g>
<!-- Node0&#45;&gt;Node1 -->
<g id="edge2864_Node000000_Node000001" class="edge">
<title>Node0&#45;&gt;Node1</title>
<g id="a_edge2864_Node000000_Node000001"><a xlink:title=" ">
<path fill="none" stroke="#63b8ff" d="M94.46,-468.93C108.62,-516.77 142.91,-609.01 207,-656.5 221.68,-667.38 239.45,-674.49 257.36,-679.1"/>
<polygon fill="#63b8ff" stroke="#63b8ff" points="97.77,-467.8 91.66,-459.15 91.04,-469.73 97.77,-467.8"/>
</a>
</g>
</g>
<!-- Node2 -->
<g id="Node000002" class="node">
<title>Node2</title>
<g id="a_Node000002"><a xlink:href="d2/d8d/class_kratos_1_1_nodal_residual_based_elimination_builder_and_solver.html" target="_top" xlink:title="Current class provides an implementation for standard builder and solving operations.">
<polygon fill="white" stroke="#666666" points="434.5,-647.5 263.5,-647.5 263.5,-595.5 434.5,-595.5 434.5,-647.5"/>
<text text-anchor="start" x="271.5" y="-635.5" font-family="Helvetica,sans-Serif" font-size="10.00">Kratos::NodalResidualBased</text>
<text text-anchor="start" x="271.5" y="-624.5" font-family="Helvetica,sans-Serif" font-size="10.00">EliminationBuilderAndSolver</text>
<text text-anchor="start" x="271.5" y="-613.5" font-family="Helvetica,sans-Serif" font-size="10.00">&lt; TSparseSpace, TDenseSpace,</text>
<text text-anchor="middle" x="349" y="-602.5" font-family="Helvetica,sans-Serif" font-size="10.00"> TLinearSolver &gt;</text>
</a>
</g>
</g>
<!-- Node0&#45;&gt;Node2 -->
<g id="edge2865_Node000000_Node000002" class="edge">
<title>Node0&#45;&gt;Node2</title>
<g id="a_edge2865_Node000000_Node000002"><a xlink:title=" ">
<path fill="none" stroke="#63b8ff" d="M102.54,-467.98C122.51,-501.84 159.82,-556.56 207,-586.5 223.93,-597.24 243.94,-604.69 263.49,-609.85"/>
<polygon fill="#63b8ff" stroke="#63b8ff" points="105.4,-465.94 97.37,-459.02 99.33,-469.43 105.4,-465.94"/>
</a>
</g>
</g>
<!-- Node4 -->
<g id="Node000004" class="node">
<title>Node4</title>
<g id="a_Node000004"><a xlink:href="db/de0/class_kratos_1_1_nodal_residual_based_elimination_builder_and_solver_continuity.html" target="_top" xlink:title="Current class provides an implementation for standard builder and solving operations.">
<polygon fill="white" stroke="#666666" points="475,-577 223,-577 223,-536 475,-536 475,-577"/>
<text text-anchor="start" x="231" y="-565" font-family="Helvetica,sans-Serif" font-size="10.00">Kratos::NodalResidualBased</text>
<text text-anchor="start" x="231" y="-554" font-family="Helvetica,sans-Serif" font-size="10.00">EliminationBuilderAndSolverContinuity</text>
<text text-anchor="middle" x="349" y="-543" font-family="Helvetica,sans-Serif" font-size="10.00">&lt; TSparseSpace, TDenseSpace, TLinearSolver &gt;</text>
</a>
</g>
</g>
<!-- Node0&#45;&gt;Node4 -->
<g id="edge2867_Node000000_Node000004" class="edge">
<title>Node0&#45;&gt;Node4</title>
<g id="a_edge2867_Node000000_Node000004"><a xlink:title=" ">
<path fill="none" stroke="#63b8ff" d="M115.86,-465.93C138.94,-485.99 172.79,-512.24 207,-527.5 214.08,-530.66 221.51,-533.47 229.1,-535.99"/>
<polygon fill="#63b8ff" stroke="#63b8ff" points="117.98,-463.13 108.17,-459.13 113.34,-468.37 117.98,-463.13"/>
</a>
</g>
</g>
<!-- Node6 -->
<g id="Node000006" class="node">
<title>Node6</title>
<g id="a_Node000006"><a xlink:href="d0/d46/class_kratos_1_1_r_o_m_builder_and_solver.html" target="_top" xlink:title=" ">
<polygon fill="white" stroke="#666666" points="434.5,-518 263.5,-518 263.5,-477 434.5,-477 434.5,-518"/>
<text text-anchor="start" x="271.5" y="-506" font-family="Helvetica,sans-Serif" font-size="10.00">Kratos::ROMBuilderAndSolver</text>
<text text-anchor="start" x="271.5" y="-495" font-family="Helvetica,sans-Serif" font-size="10.00">&lt; TSparseSpace, TDenseSpace,</text>
<text text-anchor="middle" x="349" y="-484" font-family="Helvetica,sans-Serif" font-size="10.00"> TLinearSolver &gt;</text>
</a>
</g>
</g>
<!-- Node0&#45;&gt;Node6 -->
<g id="edge2869_Node000000_Node000006" class="edge">
<title>Node0&#45;&gt;Node6</title>
<g id="a_edge2869_Node000000_Node000006"><a xlink:title=" ">
<path fill="none" stroke="#63b8ff" d="M176.81,-461.41C186.98,-463.86 197.2,-466.27 207,-468.5 225.16,-472.63 244.69,-476.81 263.25,-480.66"/>
<polygon fill="#63b8ff" stroke="#63b8ff" points="177.63,-458.01 167.09,-459.05 175.98,-464.81 177.63,-458.01"/>
</a>
</g>
</g>
<!-- Node8 -->
<g id="Node000008" class="node">
<title>Node8</title>
<g id="a_Node000008"><a xlink:href="d9/d26/class_kratos_1_1_residual_based_block_builder_and_solver.html" target="_top" xlink:title="Current class provides an implementation for standard builder and solving operations.">
<polygon fill="white" stroke="#666666" points="440.5,-459 257.5,-459 257.5,-418 440.5,-418 440.5,-459"/>
<text text-anchor="start" x="265.5" y="-447" font-family="Helvetica,sans-Serif" font-size="10.00">Kratos::ResidualBasedBlock</text>
<text text-anchor="start" x="265.5" y="-436" font-family="Helvetica,sans-Serif" font-size="10.00">BuilderAndSolver&lt; TSparseSpace,</text>
<text text-anchor="middle" x="349" y="-425" font-family="Helvetica,sans-Serif" font-size="10.00"> TDenseSpace, TLinearSolver &gt;</text>
</a>
</g>
</g>
<!-- Node0&#45;&gt;Node8 -->
<g id="edge2871_Node000000_Node000008" class="edge">
<title>Node0&#45;&gt;Node8</title>
<g id="a_edge2871_Node000000_Node000008"><a xlink:title=" ">
<path fill="none" stroke="#63b8ff" d="M181.2,-438.5C206.06,-438.5 232.8,-438.5 257.44,-438.5"/>
<polygon fill="#63b8ff" stroke="#63b8ff" points="181.04,-435 171.04,-438.5 181.04,-442 181.04,-435"/>
</a>
</g>
</g>
<!-- Node19 -->
<g id="Node000019" class="node">
<title>Node19</title>
<g id="a_Node000019"><a xlink:href="dd/d76/class_kratos_1_1_residual_based_elimination_builder_and_solver.html" target="_top" xlink:title="Current class provides an implementation for standard elimination builder and solving operations.">
<polygon fill="white" stroke="#666666" points="440.5,-335 257.5,-335 257.5,-294 440.5,-294 440.5,-335"/>
<text text-anchor="start" x="265.5" y="-323" font-family="Helvetica,sans-Serif" font-size="10.00">Kratos::ResidualBasedElimination</text>
<text text-anchor="start" x="265.5" y="-312" font-family="Helvetica,sans-Serif" font-size="10.00">BuilderAndSolver&lt; TSparseSpace,</text>
<text text-anchor="middle" x="349" y="-301" font-family="Helvetica,sans-Serif" font-size="10.00"> TDenseSpace, TLinearSolver &gt;</text>
</a>
</g>
</g>
<!-- Node0&#45;&gt;Node19 -->
<g id="edge2882_Node000000_Node000019" class="edge">
<title>Node0&#45;&gt;Node19</title>
<g id="a_edge2882_Node000000_Node000019"><a xlink:title=" ">
<path fill="none" stroke="#63b8ff" d="M139.07,-413.57C187.64,-390.54 258.95,-356.73 304.42,-335.16"/>
<polygon fill="#63b8ff" stroke="#63b8ff" points="137.51,-410.44 129.97,-417.88 140.51,-416.76 137.51,-410.44"/>
</a>
</g>
</g>
<!-- Node24 -->
<g id="Node000024" class="node">
<title>Node24</title>
<g id="a_Node000024"><a xlink:href="da/de2/class_kratos_1_1_residual_based_elimination_quasi_incompressible_builder_and_solver.html" target="_top" xlink:title=" ">
<polygon fill="white" stroke="#666666" points="491,-276 207,-276 207,-235 491,-235 491,-276"/>
<text text-anchor="start" x="215" y="-264" font-family="Helvetica,sans-Serif" font-size="10.00">Kratos::ResidualBasedElimination</text>
<text text-anchor="start" x="215" y="-253" font-family="Helvetica,sans-Serif" font-size="10.00">QuasiIncompressibleBuilderAndSolver</text>
<text text-anchor="middle" x="349" y="-242" font-family="Helvetica,sans-Serif" font-size="10.00">&lt; TSparseSpace, TDenseSpace, TLinearSolver, TDim &gt;</text>
</a>
</g>
</g>
<!-- Node0&#45;&gt;Node24 -->
<g id="edge2887_Node000000_Node000024" class="edge">
<title>Node0&#45;&gt;Node24</title>
<g id="a_edge2887_Node000000_Node000024"><a xlink:title=" ">
<path fill="none" stroke="#63b8ff" d="M101.38,-409.04C120.75,-373.88 157.99,-316 207,-285.5 212.63,-282 218.61,-278.9 224.8,-276.15"/>
<polygon fill="#63b8ff" stroke="#63b8ff" points="98.28,-407.43 96.62,-417.89 104.44,-410.74 98.28,-407.43"/>
</a>
</g>
</g>
<!-- Node25 -->
<g id="Node000025" class="node">
<title>Node25</title>
<g id="a_Node000025"><a xlink:href="d8/d62/class_kratos_1_1_trilinos_block_builder_and_solver.html" target="_top" xlink:title="Current class provides an implementation for trilinos builder and solving operations.">
<polygon fill="white" stroke="#666666" points="434,-217 264,-217 264,-176 434,-176 434,-217"/>
<text text-anchor="start" x="272" y="-205" font-family="Helvetica,sans-Serif" font-size="10.00">Kratos::TrilinosBlockBuilder</text>
<text text-anchor="start" x="272" y="-194" font-family="Helvetica,sans-Serif" font-size="10.00">AndSolver&lt; TSparseSpace,</text>
<text text-anchor="middle" x="349" y="-183" font-family="Helvetica,sans-Serif" font-size="10.00"> TDenseSpace, TLinearSolver &gt;</text>
</a>
</g>
</g>
<!-- Node0&#45;&gt;Node25 -->
<g id="edge2888_Node000000_Node000025" class="edge">
<title>Node0&#45;&gt;Node25</title>
<g id="a_edge2888_Node000000_Node000025"><a xlink:title=" ">
<path fill="none" stroke="#63b8ff" d="M94.93,-408.19C109.57,-361.44 144.3,-272.39 207,-226.5 223.46,-214.45 243.73,-207.04 263.72,-202.52"/>
<polygon fill="#63b8ff" stroke="#63b8ff" points="91.58,-407.17 92.03,-417.76 98.28,-409.2 91.58,-407.17"/>
</a>
</g>
</g>
<!-- Node27 -->
<g id="Node000027" class="node">
<title>Node27</title>
<g id="a_Node000027"><a xlink:href="da/d0f/class_kratos_1_1_trilinos_residual_based_elimination_builder_and_solver.html" target="_top" xlink:title=" ">
<polygon fill="white" stroke="#666666" points="442,-157.5 256,-157.5 256,-105.5 442,-105.5 442,-157.5"/>
<text text-anchor="start" x="264" y="-145.5" font-family="Helvetica,sans-Serif" font-size="10.00">Kratos::TrilinosResidual</text>
<text text-anchor="start" x="264" y="-134.5" font-family="Helvetica,sans-Serif" font-size="10.00">BasedEliminationBuilderAndSolver</text>
<text text-anchor="start" x="264" y="-123.5" font-family="Helvetica,sans-Serif" font-size="10.00">&lt; TSparseSpace, TDenseSpace,</text>
<text text-anchor="middle" x="349" y="-112.5" font-family="Helvetica,sans-Serif" font-size="10.00"> TLinearSolver &gt;</text>
</a>
</g>
</g>
<!-- Node0&#45;&gt;Node27 -->
<g id="edge2890_Node000000_Node000027" class="edge">
<title>Node0&#45;&gt;Node27</title>
<g id="a_edge2890_Node000000_Node000027"><a xlink:title=" ">
<path fill="none" stroke="#63b8ff" d="M91.22,-407.8C101.56,-351.39 131.6,-231.16 207,-167.5 220.9,-155.76 238.13,-147.78 255.73,-142.37"/>
<polygon fill="#63b8ff" stroke="#63b8ff" points="87.73,-407.43 89.46,-417.89 94.63,-408.64 87.73,-407.43"/>
</a>
</g>
</g>
<!-- Node3 -->
<g id="Node000003" class="node">
<title>Node3</title>
<g id="a_Node000003"><a xlink:href="d9/df1/class_kratos_1_1_nodal_residual_based_elimination_builder_and_solver_for_f_s_i.html" target="_top" xlink:title="Current class provides an implementation for standard builder and solving operations.">
<polygon fill="white" stroke="#666666" points="745.5,-888.5 560.5,-888.5 560.5,-836.5 745.5,-836.5 745.5,-888.5"/>
<text text-anchor="start" x="568.5" y="-876.5" font-family="Helvetica,sans-Serif" font-size="10.00">Kratos::NodalResidualBased</text>
<text text-anchor="start" x="568.5" y="-865.5" font-family="Helvetica,sans-Serif" font-size="10.00">EliminationBuilderAndSolverFor</text>
<text text-anchor="start" x="568.5" y="-854.5" font-family="Helvetica,sans-Serif" font-size="10.00">FSI&lt; TSparseSpace, TDenseSpace,</text>
<text text-anchor="middle" x="653" y="-843.5" font-family="Helvetica,sans-Serif" font-size="10.00"> TLinearSolver &gt;</text>
</a>
</g>
</g>
<!-- Node2&#45;&gt;Node3 -->
<g id="edge2866_Node000002_Node000003" class="edge">
<title>Node2&#45;&gt;Node3</title>
<g id="a_edge2866_Node000002_Node000003"><a xlink:title=" ">
<path fill="none" stroke="#63b8ff" d="M444.5,-630.28C461.87,-635.85 478.45,-644.43 491,-657.5 544.47,-713.23 474.17,-771.16 527,-827.5 536.17,-837.28 547.83,-844.41 560.33,-849.58"/>
<polygon fill="#63b8ff" stroke="#63b8ff" points="445.37,-626.89 434.79,-627.49 443.43,-633.62 445.37,-626.89"/>
</a>
</g>
</g>
<!-- Node5 -->
<g id="Node000005" class="node">
<title>Node5</title>
<g id="a_Node000005"><a xlink:href="d6/dc4/class_kratos_1_1_nodal_residual_based_elimination_builder_and_solver_continuity_for_f_s_i.html" target="_top" xlink:title="Current class provides an implementation for standard builder and solving operations.">
<polygon fill="white" stroke="#666666" points="756,-818.5 550,-818.5 550,-766.5 756,-766.5 756,-818.5"/>
<text text-anchor="start" x="558" y="-806.5" font-family="Helvetica,sans-Serif" font-size="10.00">Kratos::NodalResidualBased</text>
<text text-anchor="start" x="558" y="-795.5" font-family="Helvetica,sans-Serif" font-size="10.00">EliminationBuilderAndSolverContinuity</text>
<text text-anchor="start" x="558" y="-784.5" font-family="Helvetica,sans-Serif" font-size="10.00">ForFSI&lt; TSparseSpace, TDenseSpace,</text>
<text text-anchor="middle" x="653" y="-773.5" font-family="Helvetica,sans-Serif" font-size="10.00"> TLinearSolver &gt;</text>
</a>
</g>
</g>
<!-- Node4&#45;&gt;Node5 -->
<g id="edge2868_Node000004_Node000005" class="edge">
<title>Node4&#45;&gt;Node5</title>
<g id="a_edge2868_Node000004_Node000005"><a xlink:title=" ">
<path fill="none" stroke="#63b8ff" d="M483.44,-579.82C486.09,-581.89 488.61,-584.11 491,-586.5 545.86,-641.48 473.91,-700.81 527,-757.5 533.55,-764.49 541.37,-770.12 549.85,-774.66"/>
<polygon fill="#63b8ff" stroke="#63b8ff" points="485.38,-576.91 475.17,-574.09 481.39,-582.66 485.38,-576.91"/>
</a>
</g>
</g>
<!-- Node7 -->
<g id="Node000007" class="node">
<title>Node7</title>
<g id="a_Node000007"><a xlink:href="de/ddb/class_kratos_1_1_petrov_galerkin_r_o_m_builder_and_solver.html" target="_top" xlink:title="Current class provides an implementation for PetrovGalerkinROM builder and solving operations.">
<polygon fill="white" stroke="#666666" points="763.5,-748 542.5,-748 542.5,-707 763.5,-707 763.5,-748"/>
<text text-anchor="start" x="550.5" y="-736" font-family="Helvetica,sans-Serif" font-size="10.00">Kratos::PetrovGalerkinROMBuilder</text>
<text text-anchor="start" x="550.5" y="-725" font-family="Helvetica,sans-Serif" font-size="10.00">AndSolver&lt; TSparseSpace, TDenseSpace,</text>
<text text-anchor="middle" x="653" y="-714" font-family="Helvetica,sans-Serif" font-size="10.00"> TLinearSolver &gt;</text>
</a>
</g>
</g>
<!-- Node6&#45;&gt;Node7 -->
<g id="edge2870_Node000006_Node000007" class="edge">
<title>Node6&#45;&gt;Node7</title>
<g id="a_edge2870_Node000006_Node000007"><a xlink:title=" ">
<path fill="none" stroke="#63b8ff" d="M444.29,-502C461.68,-506.85 478.32,-514.79 491,-527.5 545.86,-582.48 472.65,-643.02 527,-698.5 531.6,-703.19 536.8,-707.19 542.4,-710.59"/>
<polygon fill="#63b8ff" stroke="#63b8ff" points="445.12,-498.6 434.58,-499.62 443.45,-505.4 445.12,-498.6"/>
</a>
</g>
</g>
<!-- Node9 -->
<g id="Node000009" class="node">
<title>Node9</title>
<g id="a_Node000009"><a xlink:href="d3/d4c/class_kratos_1_1_ann_prom_global_r_o_m_builder_and_solver.html" target="_top" xlink:title=" ">
<polygon fill="white" stroke="#666666" points="763.5,-689 542.5,-689 542.5,-648 763.5,-648 763.5,-689"/>
<text text-anchor="start" x="550.5" y="-677" font-family="Helvetica,sans-Serif" font-size="10.00">Kratos::AnnPromGlobalROMBuilder</text>
<text text-anchor="start" x="550.5" y="-666" font-family="Helvetica,sans-Serif" font-size="10.00">AndSolver&lt; TSparseSpace, TDenseSpace,</text>
<text text-anchor="middle" x="653" y="-655" font-family="Helvetica,sans-Serif" font-size="10.00"> TLinearSolver &gt;</text>
</a>
</g>
</g>
<!-- Node8&#45;&gt;Node9 -->
<g id="edge2872_Node000008_Node000009" class="edge">
<title>Node8&#45;&gt;Node9</title>
<g id="a_edge2872_Node000008_Node000009"><a xlink:title=" ">
<path fill="none" stroke="#63b8ff" d="M450.76,-444.98C465.77,-449.92 479.9,-457.39 491,-468.5 545.58,-523.14 473.13,-583.16 527,-638.5 531.59,-643.22 536.79,-647.25 542.38,-650.68"/>
<polygon fill="#63b8ff" stroke="#63b8ff" points="451.37,-441.52 440.79,-442.09 449.42,-448.24 451.37,-441.52"/>
</a>
</g>
</g>
<!-- Node11 -->
<g id="Node000011" class="node">
<title>Node11</title>
<g id="a_Node000011"><a xlink:href="d0/de8/class_kratos_1_1_contact_residual_based_block_builder_and_solver.html" target="_top" xlink:title="Current class provides an implementation for contact builder and solving operations.">
<polygon fill="white" stroke="#666666" points="765,-629.5 541,-629.5 541,-577.5 765,-577.5 765,-629.5"/>
<text text-anchor="start" x="549" y="-617.5" font-family="Helvetica,sans-Serif" font-size="10.00">Kratos::ContactResidualBased</text>
<text text-anchor="start" x="549" y="-606.5" font-family="Helvetica,sans-Serif" font-size="10.00">BlockBuilderAndSolver&lt; TSparseSpace,</text>
<text text-anchor="start" x="549" y="-595.5" font-family="Helvetica,sans-Serif" font-size="10.00"> TDenseSpace, TLinearSolver, TBuilderAnd</text>
<text text-anchor="middle" x="653" y="-584.5" font-family="Helvetica,sans-Serif" font-size="10.00">Solver &gt;</text>
</a>
</g>
</g>
<!-- Node8&#45;&gt;Node11 -->
<g id="edge2874_Node000008_Node000011" class="edge">
<title>Node8&#45;&gt;Node11</title>
<g id="a_edge2874_Node000008_Node000011"><a xlink:title=" ">
<path fill="none" stroke="#63b8ff" d="M450.4,-446.61C465.23,-451.39 479.4,-458.38 491,-468.5 526.59,-499.56 492.41,-536.33 527,-568.5 531.29,-572.49 536,-576.03 541,-579.17"/>
<polygon fill="#63b8ff" stroke="#63b8ff" points="451.15,-443.18 440.57,-443.78 449.21,-449.91 451.15,-443.18"/>
</a>
</g>
</g>
<!-- Node12 -->
<g id="Node000012" class="node">
<title>Node12</title>
<g id="a_Node000012"><a xlink:href="da/da9/class_kratos_1_1_global_r_o_m_builder_and_solver.html" target="_top" xlink:title=" ">
<polygon fill="white" stroke="#666666" points="738,-559 568,-559 568,-518 738,-518 738,-559"/>
<text text-anchor="start" x="576" y="-547" font-family="Helvetica,sans-Serif" font-size="10.00">Kratos::GlobalROMBuilder</text>
<text text-anchor="start" x="576" y="-536" font-family="Helvetica,sans-Serif" font-size="10.00">AndSolver&lt; TSparseSpace,</text>
<text text-anchor="middle" x="653" y="-525" font-family="Helvetica,sans-Serif" font-size="10.00"> TDenseSpace, TLinearSolver &gt;</text>
</a>
</g>
</g>
<!-- Node8&#45;&gt;Node12 -->
<g id="edge2875_Node000008_Node000012" class="edge">
<title>Node8&#45;&gt;Node12</title>
<g id="a_edge2875_Node000008_Node000012"><a xlink:title=" ">
<path fill="none" stroke="#63b8ff" d="M450.54,-451.7C464.67,-455.87 478.59,-461.33 491,-468.5 511.71,-480.46 506.45,-496.27 527,-508.5 539.47,-515.92 553.66,-521.5 567.9,-525.71"/>
<polygon fill="#63b8ff" stroke="#63b8ff" points="451.31,-448.29 440.74,-449.03 449.47,-455.04 451.31,-448.29"/>
</a>
</g>
</g>
<!-- Node15 -->
<g id="Node000015" class="node">
<title>Node15</title>
<g id="a_Node000015"><a xlink:href="d4/d58/class_kratos_1_1_residual_based_block_builder_and_solver_periodic.html" target="_top" xlink:title=" ">
<polygon fill="white" stroke="#666666" points="738.5,-499.5 567.5,-499.5 567.5,-447.5 738.5,-447.5 738.5,-499.5"/>
<text text-anchor="start" x="575.5" y="-487.5" font-family="Helvetica,sans-Serif" font-size="10.00">Kratos::ResidualBasedBlock</text>
<text text-anchor="start" x="575.5" y="-476.5" font-family="Helvetica,sans-Serif" font-size="10.00">BuilderAndSolverPeriodic</text>
<text text-anchor="start" x="575.5" y="-465.5" font-family="Helvetica,sans-Serif" font-size="10.00">&lt; TSparseSpace, TDenseSpace,</text>
<text text-anchor="middle" x="653" y="-454.5" font-family="Helvetica,sans-Serif" font-size="10.00"> TLinearSolver &gt;</text>
</a>
</g>
</g>
<!-- Node8&#45;&gt;Node15 -->
<g id="edge2878_Node000008_Node000015" class="edge">
<title>Node8&#45;&gt;Node15</title>
<g id="a_edge2878_Node000008_Node000015"><a xlink:title=" ">
<path fill="none" stroke="#63b8ff" d="M450.64,-450.16C488.5,-454.55 531.14,-459.49 567.39,-463.69"/>
<polygon fill="#63b8ff" stroke="#63b8ff" points="450.95,-446.68 440.61,-449 450.14,-453.63 450.95,-446.68"/>
</a>
</g>
</g>
<!-- Node16 -->
<g id="Node000016" class="node">
<title>Node16</title>
<g id="a_Node000016"><a xlink:href="d3/df9/class_kratos_1_1_residual_based_block_builder_and_solver_with_constraints_for_chimera.html" target="_top" xlink:title="Current class provides an implementation for applying the chimera constraints that is enforcing conti...">
<polygon fill="white" stroke="#666666" points="766.5,-429.5 539.5,-429.5 539.5,-377.5 766.5,-377.5 766.5,-429.5"/>
<text text-anchor="start" x="547.5" y="-417.5" font-family="Helvetica,sans-Serif" font-size="10.00">Kratos::ResidualBasedBlock</text>
<text text-anchor="start" x="547.5" y="-406.5" font-family="Helvetica,sans-Serif" font-size="10.00">BuilderAndSolverWithConstraints</text>
<text text-anchor="start" x="547.5" y="-395.5" font-family="Helvetica,sans-Serif" font-size="10.00">ForChimera&lt; TSparseSpace, TDenseSpace,</text>
<text text-anchor="middle" x="653" y="-384.5" font-family="Helvetica,sans-Serif" font-size="10.00"> TLinearSolver &gt;</text>
</a>
</g>
</g>
<!-- Node8&#45;&gt;Node16 -->
<g id="edge2879_Node000008_Node000016" class="edge">
<title>Node8&#45;&gt;Node16</title>
<g id="a_edge2879_Node000008_Node000016"><a xlink:title=" ">
<path fill="none" stroke="#63b8ff" d="M450.55,-426.85C478.99,-423.55 510.14,-419.94 539.25,-416.57"/>
<polygon fill="#63b8ff" stroke="#63b8ff" points="450.14,-423.37 440.61,-428 450.95,-430.32 450.14,-423.37"/>
</a>
</g>
</g>
<!-- Node17 -->
<g id="Node000017" class="node">
<title>Node17</title>
<g id="a_Node000017"><a xlink:href="d7/d91/class_kratos_1_1_residual_based_block_builder_and_solver_with_lagrange_multiplier.html" target="_top" xlink:title="Current class provides an implementation for standard builder and solving operations.">
<polygon fill="white" stroke="#666666" points="779,-359 527,-359 527,-318 779,-318 779,-359"/>
<text text-anchor="start" x="535" y="-347" font-family="Helvetica,sans-Serif" font-size="10.00">Kratos::ResidualBasedBlock</text>
<text text-anchor="start" x="535" y="-336" font-family="Helvetica,sans-Serif" font-size="10.00">BuilderAndSolverWithLagrangeMultiplier</text>
<text text-anchor="middle" x="653" y="-325" font-family="Helvetica,sans-Serif" font-size="10.00">&lt; TSparseSpace, TDenseSpace, TLinearSolver &gt;</text>
</a>
</g>
</g>
<!-- Node8&#45;&gt;Node17 -->
<g id="edge2880_Node000008_Node000017" class="edge">
<title>Node8&#45;&gt;Node17</title>
<g id="a_edge2880_Node000008_Node000017"><a xlink:title=" ">
<path fill="none" stroke="#63b8ff" d="M406.09,-413.96C440.54,-399.49 485.81,-381.51 527,-368.5 537.53,-365.17 548.67,-362.01 559.78,-359.07"/>
<polygon fill="#63b8ff" stroke="#63b8ff" points="404.52,-410.83 396.68,-417.95 407.25,-417.27 404.52,-410.83"/>
</a>
</g>
</g>
<!-- Node18 -->
<g id="Node000018" class="node">
<title>Node18</title>
<g id="a_Node000018"><a xlink:href="dd/d76/class_kratos_1_1_residual_based_block_builder_and_solver_with_mass_and_damping.html" target="_top" xlink:title="Current class provides an implementation for builder and solving operations, while the global mass an...">
<polygon fill="white" stroke="#666666" points="779,-300 527,-300 527,-259 779,-259 779,-300"/>
<text text-anchor="start" x="535" y="-288" font-family="Helvetica,sans-Serif" font-size="10.00">Kratos::ResidualBasedBlock</text>
<text text-anchor="start" x="535" y="-277" font-family="Helvetica,sans-Serif" font-size="10.00">BuilderAndSolverWithMassAndDamping</text>
<text text-anchor="middle" x="653" y="-266" font-family="Helvetica,sans-Serif" font-size="10.00">&lt; TSparseSpace, TDenseSpace, TLinearSolver &gt;</text>
</a>
</g>
</g>
<!-- Node8&#45;&gt;Node18 -->
<g id="edge2881_Node000008_Node000018" class="edge">
<title>Node8&#45;&gt;Node18</title>
<g id="a_edge2881_Node000008_Node000018"><a xlink:title=" ">
<path fill="none" stroke="#63b8ff" d="M393.14,-412.63C421.81,-394.75 459.79,-369.72 491,-344.5 508.36,-330.47 507.45,-320.27 527,-309.5 533.45,-305.95 540.32,-302.81 547.38,-300.04"/>
<polygon fill="#63b8ff" stroke="#63b8ff" points="391.22,-409.7 384.56,-417.94 394.9,-415.66 391.22,-409.7"/>
</a>
</g>
</g>
<!-- Node10 -->
<g id="Node000010" class="node">
<title>Node10</title>
<g id="a_Node000010"><a xlink:href="d7/dcf/class_kratos_1_1_ann_prom_least_squares_petrov_galerkin_r_o_m_builder_and_solver.html" target="_top" xlink:title="This class provides an implementation for the AnnPromLeastSquaresPetrovGalerkinROM builder and solver...">
<polygon fill="white" stroke="#666666" points="1067,-689 815,-689 815,-648 1067,-648 1067,-689"/>
<text text-anchor="start" x="823" y="-677" font-family="Helvetica,sans-Serif" font-size="10.00">Kratos::AnnPromLeastSquares</text>
<text text-anchor="start" x="823" y="-666" font-family="Helvetica,sans-Serif" font-size="10.00">PetrovGalerkinROMBuilderAndSolver</text>
<text text-anchor="middle" x="941" y="-655" font-family="Helvetica,sans-Serif" font-size="10.00">&lt; TSparseSpace, TDenseSpace, TLinearSolver &gt;</text>
</a>
</g>
</g>
<!-- Node9&#45;&gt;Node10 -->
<g id="edge2873_Node000009_Node000010" class="edge">
<title>Node9&#45;&gt;Node10</title>
<g id="a_edge2873_Node000009_Node000010"><a xlink:title=" ">
<path fill="none" stroke="#63b8ff" d="M774,-668.5C787.48,-668.5 801.25,-668.5 814.79,-668.5"/>
<polygon fill="#63b8ff" stroke="#63b8ff" points="773.76,-665 763.76,-668.5 773.76,-672 773.76,-665"/>
</a>
</g>
</g>
<!-- Node13 -->
<g id="Node000013" class="node">
<title>Node13</title>
<g id="a_Node000013"><a xlink:href="d1/d6e/class_kratos_1_1_global_petrov_galerkin_r_o_m_builder_and_solver.html" target="_top" xlink:title="This class provides an implementation for the GlobalPetrovGalerkinROM builder and solver operations....">
<polygon fill="white" stroke="#666666" points="1044,-591 838,-591 838,-550 1044,-550 1044,-591"/>
<text text-anchor="start" x="846" y="-579" font-family="Helvetica,sans-Serif" font-size="10.00">Kratos::GlobalPetrovGalerkin</text>
<text text-anchor="start" x="846" y="-568" font-family="Helvetica,sans-Serif" font-size="10.00">ROMBuilderAndSolver&lt; TSparseSpace,</text>
<text text-anchor="middle" x="941" y="-557" font-family="Helvetica,sans-Serif" font-size="10.00"> TDenseSpace, TLinearSolver &gt;</text>
</a>
</g>
</g>
<!-- Node12&#45;&gt;Node13 -->
<g id="edge2876_Node000012_Node000013" class="edge">
<title>Node12&#45;&gt;Node13</title>
<g id="a_edge2876_Node000012_Node000013"><a xlink:title=" ">
<path fill="none" stroke="#63b8ff" d="M748.28,-549.05C776.99,-552.26 808.68,-555.81 837.88,-559.07"/>
<polygon fill="#63b8ff" stroke="#63b8ff" points="748.59,-545.56 738.26,-547.93 747.81,-552.52 748.59,-545.56"/>
</a>
</g>
</g>
<!-- Node14 -->
<g id="Node000014" class="node">
<title>Node14</title>
<g id="a_Node000014"><a xlink:href="d6/dc2/class_kratos_1_1_least_squares_petrov_galerkin_r_o_m_builder_and_solver.html" target="_top" xlink:title="This class provides an implementation for the LeastSquaresPetrovGalerkinROM builder and solver operat...">
<polygon fill="white" stroke="#666666" points="1026.5,-531.5 855.5,-531.5 855.5,-479.5 1026.5,-479.5 1026.5,-531.5"/>
<text text-anchor="start" x="863.5" y="-519.5" font-family="Helvetica,sans-Serif" font-size="10.00">Kratos::LeastSquaresPetrov</text>
<text text-anchor="start" x="863.5" y="-508.5" font-family="Helvetica,sans-Serif" font-size="10.00">GalerkinROMBuilderAndSolver</text>
<text text-anchor="start" x="863.5" y="-497.5" font-family="Helvetica,sans-Serif" font-size="10.00">&lt; TSparseSpace, TDenseSpace,</text>
<text text-anchor="middle" x="941" y="-486.5" font-family="Helvetica,sans-Serif" font-size="10.00"> TLinearSolver &gt;</text>
</a>
</g>
</g>
<!-- Node12&#45;&gt;Node14 -->
<g id="edge2877_Node000012_Node000014" class="edge">
<title>Node12&#45;&gt;Node14</title>
<g id="a_edge2877_Node000012_Node000014"><a xlink:title=" ">
<path fill="none" stroke="#63b8ff" d="M748.35,-527.61C782.89,-523.63 821.72,-519.15 855.35,-515.27"/>
<polygon fill="#63b8ff" stroke="#63b8ff" points="747.8,-524.15 738.26,-528.78 748.6,-531.11 747.8,-524.15"/>
</a>
</g>
</g>
<!-- Node20 -->
<g id="Node000020" class="node">
<title>Node20</title>
<g id="a_Node000020"><a xlink:href="d0/d76/class_kratos_1_1_contact_residual_based_elimination_builder_and_solver.html" target="_top" xlink:title="Current class provides an implementation for contact builder and solving operations....">
<polygon fill="white" stroke="#666666" points="738.5,-240.5 567.5,-240.5 567.5,-188.5 738.5,-188.5 738.5,-240.5"/>
<text text-anchor="start" x="575.5" y="-228.5" font-family="Helvetica,sans-Serif" font-size="10.00">Kratos::ContactResidualBased</text>
<text text-anchor="start" x="575.5" y="-217.5" font-family="Helvetica,sans-Serif" font-size="10.00">EliminationBuilderAndSolver</text>
<text text-anchor="start" x="575.5" y="-206.5" font-family="Helvetica,sans-Serif" font-size="10.00">&lt; TSparseSpace, TDenseSpace,</text>
<text text-anchor="middle" x="653" y="-195.5" font-family="Helvetica,sans-Serif" font-size="10.00"> TLinearSolver &gt;</text>
</a>
</g>
</g>
<!-- Node19&#45;&gt;Node20 -->
<g id="edge2883_Node000019_Node000020" class="edge">
<title>Node19&#45;&gt;Node20</title>
<g id="a_edge2883_Node000019_Node000020"><a xlink:title=" ">
<path fill="none" stroke="#63b8ff" d="M450.41,-301.23C464.5,-297.28 478.44,-292.15 491,-285.5 510.72,-275.06 507.7,-261.7 527,-250.5 539.4,-243.3 553.34,-237.46 567.3,-232.74"/>
<polygon fill="#63b8ff" stroke="#63b8ff" points="449.44,-297.87 440.66,-303.79 451.22,-304.64 449.44,-297.87"/>
</a>
</g>
</g>
<!-- Node21 -->
<g id="Node000021" class="node">
<title>Node21</title>
<g id="a_Node000021"><a xlink:href="d3/d77/class_kratos_1_1_residual_based_elimination_builder_and_solver_componentwise.html" target="_top" xlink:title=" ">
<polygon fill="white" stroke="#666666" points="744,-170.5 562,-170.5 562,-118.5 744,-118.5 744,-170.5"/>
<text text-anchor="start" x="570" y="-158.5" font-family="Helvetica,sans-Serif" font-size="10.00">Kratos::ResidualBasedElimination</text>
<text text-anchor="start" x="570" y="-147.5" font-family="Helvetica,sans-Serif" font-size="10.00">BuilderAndSolverComponentwise</text>
<text text-anchor="start" x="570" y="-136.5" font-family="Helvetica,sans-Serif" font-size="10.00">&lt; TSparseSpace, TDenseSpace,</text>
<text text-anchor="middle" x="653" y="-125.5" font-family="Helvetica,sans-Serif" font-size="10.00"> TLinearSolver, TVariableType &gt;</text>
</a>
</g>
</g>
<!-- Node19&#45;&gt;Node21 -->
<g id="edge2884_Node000019_Node000021" class="edge">
<title>Node19&#45;&gt;Node21</title>
<g id="a_edge2884_Node000019_Node000021"><a xlink:title=" ">
<path fill="none" stroke="#63b8ff" d="M450.52,-307.34C465.34,-302.63 479.47,-295.67 491,-285.5 528.3,-252.58 490.87,-213.71 527,-179.5 536.9,-170.12 549.1,-163.23 561.96,-158.16"/>
<polygon fill="#63b8ff" stroke="#63b8ff" points="449.38,-304.02 440.71,-310.11 451.28,-310.76 449.38,-304.02"/>
</a>
</g>
</g>
<!-- Node22 -->
<g id="Node000022" class="node">
<title>Node22</title>
<g id="a_Node000022"><a xlink:href="d2/da4/class_kratos_1_1_residual_based_elimination_builder_and_solver_with_constraints.html" target="_top" xlink:title="Current class provides an implementation for standard builder and solving operations.">
<polygon fill="white" stroke="#666666" points="779,-100 527,-100 527,-59 779,-59 779,-100"/>
<text text-anchor="start" x="535" y="-88" font-family="Helvetica,sans-Serif" font-size="10.00">Kratos::ResidualBasedElimination</text>
<text text-anchor="start" x="535" y="-77" font-family="Helvetica,sans-Serif" font-size="10.00">BuilderAndSolverWithConstraints</text>
<text text-anchor="middle" x="653" y="-66" font-family="Helvetica,sans-Serif" font-size="10.00">&lt; TSparseSpace, TDenseSpace, TLinearSolver &gt;</text>
</a>
</g>
</g>
<!-- Node19&#45;&gt;Node22 -->
<g id="edge2885_Node000019_Node000022" class="edge">
<title>Node19&#45;&gt;Node22</title>
<g id="a_edge2885_Node000019_Node000022"><a xlink:title=" ">
<path fill="none" stroke="#63b8ff" d="M450.79,-308.84C465.79,-303.99 479.92,-296.6 491,-285.5 547.43,-229.01 471.5,-166.9 527,-109.5 530.41,-105.97 534.16,-102.83 538.16,-100.03"/>
<polygon fill="#63b8ff" stroke="#63b8ff" points="449.49,-305.57 440.82,-311.67 451.4,-312.31 449.49,-305.57"/>
</a>
</g>
</g>
<!-- Node23 -->
<g id="Node000023" class="node">
<title>Node23</title>
<g id="a_Node000023"><a xlink:href="d7/dbf/class_kratos_1_1_contact_residual_based_elimination_builder_and_solver_with_constraints.html" target="_top" xlink:title="Current class provides an implementation for contact builder and solving operations....">
<polygon fill="white" stroke="#666666" points="1054.5,-105.5 827.5,-105.5 827.5,-53.5 1054.5,-53.5 1054.5,-105.5"/>
<text text-anchor="start" x="835.5" y="-93.5" font-family="Helvetica,sans-Serif" font-size="10.00">Kratos::ContactResidualBased</text>
<text text-anchor="start" x="835.5" y="-82.5" font-family="Helvetica,sans-Serif" font-size="10.00">EliminationBuilderAndSolverWith</text>
<text text-anchor="start" x="835.5" y="-71.5" font-family="Helvetica,sans-Serif" font-size="10.00">Constraints&lt; TSparseSpace, TDenseSpace,</text>
<text text-anchor="middle" x="941" y="-60.5" font-family="Helvetica,sans-Serif" font-size="10.00"> TLinearSolver &gt;</text>
</a>
</g>
</g>
<!-- Node22&#45;&gt;Node23 -->
<g id="edge2886_Node000022_Node000023" class="edge">
<title>Node22&#45;&gt;Node23</title>
<g id="a_edge2886_Node000022_Node000023"><a xlink:title=" ">
<path fill="none" stroke="#63b8ff" d="M789.24,-79.5C802,-79.5 814.85,-79.5 827.37,-79.5"/>
<polygon fill="#63b8ff" stroke="#63b8ff" points="789.03,-76 779.03,-79.5 789.03,-83 789.03,-76"/>
</a>
</g>
</g>
<!-- Node26 -->
<g id="Node000026" class="node">
<title>Node26</title>
<g id="a_Node000026"><a xlink:href="d0/dce/class_kratos_1_1_trilinos_block_builder_and_solver_periodic.html" target="_top" xlink:title=" ">
<polygon fill="white" stroke="#666666" points="747,-41 559,-41 559,0 747,0 747,-41"/>
<text text-anchor="start" x="567" y="-29" font-family="Helvetica,sans-Serif" font-size="10.00">Kratos::TrilinosBlockBuilder</text>
<text text-anchor="start" x="567" y="-18" font-family="Helvetica,sans-Serif" font-size="10.00">AndSolverPeriodic&lt; TSparseSpace,</text>
<text text-anchor="middle" x="653" y="-7" font-family="Helvetica,sans-Serif" font-size="10.00"> TDenseSpace, TLinearSolver &gt;</text>
</a>
</g>
</g>
<!-- Node25&#45;&gt;Node26 -->
<g id="edge2889_Node000025_Node000026" class="edge">
<title>Node25&#45;&gt;Node26</title>
<g id="a_edge2889_Node000025_Node000026"><a xlink:title=" ">
<path fill="none" stroke="#63b8ff" d="M444.2,-190.86C461.38,-186.06 477.96,-178.43 491,-166.5 531.14,-129.78 487.2,-86.59 527,-49.5 536.05,-41.07 547.04,-34.93 558.72,-30.49"/>
<polygon fill="#63b8ff" stroke="#63b8ff" points="442.92,-187.57 434.05,-193.37 444.59,-194.37 442.92,-187.57"/>
</a>
</g>
</g>
</g>
</svg>
