<?xml version="1.0" encoding="UTF-8" standalone="no"?>
<!DOCTYPE svg PUBLIC "-//W3C//DTD SVG 1.1//EN"
 "http://www.w3.org/Graphics/SVG/1.1/DTD/svg11.dtd">
<!-- Generated by graphviz version 2.43.0 (0)
 -->
<!-- Title: Graphical Class Hierarchy Pages: 1 -->
<svg width="759pt" height="215pt"
 viewBox="0.00 0.00 759.00 214.50" xmlns="http://www.w3.org/2000/svg" xmlns:xlink="http://www.w3.org/1999/xlink">
<g id="graph0" class="graph" transform="scale(1 1) rotate(0) translate(4 210.5)">
<title>Graphical Class Hierarchy</title>
<!-- Node0 -->
<g id="node1" class="node">
<title>Node0</title>
<g id="a_node1"><a xlink:href="d8/dc0/class_kratos_1_1_flow_rule.html" target="_top" xlink:title="Short class definition.">
<polygon fill="none" stroke="black" points="0,-123 0,-142 99,-142 99,-123 0,-123"/>
<text text-anchor="middle" x="49.5" y="-130" font-family="Helvetica,sans-Serif" font-size="10.00">Kratos::FlowRule</text>
</a>
</g>
</g>
<!-- Node1 -->
<g id="node2" class="node">
<title>Node1</title>
<g id="a_node2"><a xlink:href="df/ded/class_kratos_1_1_isotropic_damage_flow_rule.html" target="_top" xlink:title="Short class definition.">
<polygon fill="none" stroke="black" points="135,-177 135,-196 317,-196 317,-177 135,-177"/>
<text text-anchor="middle" x="226" y="-184" font-family="Helvetica,sans-Serif" font-size="10.00">Kratos::IsotropicDamageFlowRule</text>
</a>
</g>
</g>
<!-- Node0&#45;&gt;Node1 -->
<g id="edge1" class="edge">
<title>Node0&#45;&gt;Node1</title>
<path fill="none" stroke="midnightblue" d="M91.08,-145.06C122.56,-154.8 165.53,-168.1 194.22,-176.97"/>
<polygon fill="midnightblue" stroke="midnightblue" points="91.88,-141.64 81.3,-142.03 89.81,-148.33 91.88,-141.64"/>
</g>
<!-- Node4 -->
<g id="node5" class="node">
<title>Node4</title>
<g id="a_node5"><a xlink:href="d7/d9b/class_kratos_1_1_non_associative_explicit_plastic_flow_rule.html" target="_top" xlink:title="Short class definition.">
<polygon fill="none" stroke="black" points="143,-117.5 143,-147.5 309,-147.5 309,-117.5 143,-117.5"/>
<text text-anchor="start" x="151" y="-135.5" font-family="Helvetica,sans-Serif" font-size="10.00">Kratos::NonAssociativeExplicit</text>
<text text-anchor="middle" x="226" y="-124.5" font-family="Helvetica,sans-Serif" font-size="10.00">PlasticFlowRule</text>
</a>
</g>
</g>
<!-- Node0&#45;&gt;Node4 -->
<g id="edge4" class="edge">
<title>Node0&#45;&gt;Node4</title>
<path fill="none" stroke="midnightblue" d="M109.25,-132.5C120.07,-132.5 131.54,-132.5 142.89,-132.5"/>
<polygon fill="midnightblue" stroke="midnightblue" points="109.11,-129 99.11,-132.5 109.11,-136 109.11,-129"/>
</g>
<!-- Node8 -->
<g id="node9" class="node">
<title>Node8</title>
<g id="a_node9"><a xlink:href="d9/d71/class_kratos_1_1_non_linear_associative_plastic_flow_rule.html" target="_top" xlink:title="Short class definition.">
<polygon fill="none" stroke="black" points="146,-49.5 146,-79.5 306,-79.5 306,-49.5 146,-49.5"/>
<text text-anchor="start" x="154" y="-67.5" font-family="Helvetica,sans-Serif" font-size="10.00">Kratos::NonLinearAssociative</text>
<text text-anchor="middle" x="226" y="-56.5" font-family="Helvetica,sans-Serif" font-size="10.00">PlasticFlowRule</text>
</a>
</g>
</g>
<!-- Node0&#45;&gt;Node8 -->
<g id="edge8" class="edge">
<title>Node0&#45;&gt;Node8</title>
<path fill="none" stroke="midnightblue" d="M84.51,-119.25C113.74,-107.86 155.87,-91.44 186.36,-79.56"/>
<polygon fill="midnightblue" stroke="midnightblue" points="83.18,-116.01 75.13,-122.9 85.72,-122.53 83.18,-116.01"/>
</g>
<!-- Node2 -->
<g id="node3" class="node">
<title>Node2</title>
<g id="a_node3"><a xlink:href="d5/d68/class_kratos_1_1_local_damage_flow_rule.html" target="_top" xlink:title=" ">
<polygon fill="none" stroke="black" points="359.5,-187 359.5,-206 525.5,-206 525.5,-187 359.5,-187"/>
<text text-anchor="middle" x="442.5" y="-194" font-family="Helvetica,sans-Serif" font-size="10.00">Kratos::LocalDamageFlowRule</text>
</a>
</g>
</g>
<!-- Node1&#45;&gt;Node2 -->
<g id="edge2" class="edge">
<title>Node1&#45;&gt;Node2</title>
<path fill="none" stroke="midnightblue" d="M327.25,-191.17C337.96,-191.67 348.75,-192.18 359.21,-192.66"/>
<polygon fill="midnightblue" stroke="midnightblue" points="327.19,-187.67 317.03,-190.7 326.86,-194.66 327.19,-187.67"/>
</g>
<!-- Node3 -->
<g id="node4" class="node">
<title>Node3</title>
<g id="a_node4"><a xlink:href="d3/d0d/class_kratos_1_1_nonlocal_damage_flow_rule.html" target="_top" xlink:title=" ">
<polygon fill="none" stroke="black" points="568,-187 568,-206 751,-206 751,-187 568,-187"/>
<text text-anchor="middle" x="659.5" y="-194" font-family="Helvetica,sans-Serif" font-size="10.00">Kratos::NonlocalDamageFlowRule</text>
</a>
</g>
</g>
<!-- Node2&#45;&gt;Node3 -->
<g id="edge3" class="edge">
<title>Node2&#45;&gt;Node3</title>
<path fill="none" stroke="midnightblue" d="M535.78,-196.5C546.38,-196.5 557.17,-196.5 567.74,-196.5"/>
<polygon fill="midnightblue" stroke="midnightblue" points="535.7,-193 525.7,-196.5 535.7,-200 535.7,-193"/>
</g>
<!-- Node5 -->
<g id="node6" class="node">
<title>Node5</title>
<g id="a_node6"><a xlink:href="db/d1a/class_kratos_1_1_borja_cam_clay_explicit_flow_rule.html" target="_top" xlink:title="Short class definition.">
<polygon fill="none" stroke="black" points="362.5,-137.5 362.5,-167.5 522.5,-167.5 522.5,-137.5 362.5,-137.5"/>
<text text-anchor="start" x="370.5" y="-155.5" font-family="Helvetica,sans-Serif" font-size="10.00">Kratos::BorjaCamClayExplicit</text>
<text text-anchor="middle" x="442.5" y="-144.5" font-family="Helvetica,sans-Serif" font-size="10.00">FlowRule</text>
</a>
</g>
</g>
<!-- Node4&#45;&gt;Node5 -->
<g id="edge5" class="edge">
<title>Node4&#45;&gt;Node5</title>
<path fill="none" stroke="midnightblue" d="M319.36,-141.11C333.68,-142.45 348.37,-143.82 362.36,-145.12"/>
<polygon fill="midnightblue" stroke="midnightblue" points="319.29,-137.59 309.01,-140.15 318.64,-144.56 319.29,-137.59"/>
</g>
<!-- Node6 -->
<g id="node7" class="node">
<title>Node6</title>
<g id="a_node7"><a xlink:href="d5/de4/class_kratos_1_1_j2_explicit_flow_rule.html" target="_top" xlink:title="Short class definition.">
<polygon fill="none" stroke="black" points="370.5,-99 370.5,-118 514.5,-118 514.5,-99 370.5,-99"/>
<text text-anchor="middle" x="442.5" y="-106" font-family="Helvetica,sans-Serif" font-size="10.00">Kratos::J2ExplicitFlowRule</text>
</a>
</g>
</g>
<!-- Node4&#45;&gt;Node6 -->
<g id="edge6" class="edge">
<title>Node4&#45;&gt;Node6</title>
<path fill="none" stroke="midnightblue" d="M319.05,-122.2C336.24,-120.28 353.95,-118.3 370.39,-116.46"/>
<polygon fill="midnightblue" stroke="midnightblue" points="318.56,-118.73 309.01,-123.32 319.34,-125.69 318.56,-118.73"/>
</g>
<!-- Node7 -->
<g id="node8" class="node">
<title>Node7</title>
<g id="a_node8"><a xlink:href="da/d87/class_kratos_1_1_tresca_explicit_flow_rule.html" target="_top" xlink:title="Short class definition.">
<polygon fill="none" stroke="black" points="576.5,-99 576.5,-118 742.5,-118 742.5,-99 576.5,-99"/>
<text text-anchor="middle" x="659.5" y="-106" font-family="Helvetica,sans-Serif" font-size="10.00">Kratos::TrescaExplicitFlowRule</text>
</a>
</g>
</g>
<!-- Node6&#45;&gt;Node7 -->
<g id="edge7" class="edge">
<title>Node6&#45;&gt;Node7</title>
<path fill="none" stroke="midnightblue" d="M525.09,-108.5C541.83,-108.5 559.47,-108.5 576.23,-108.5"/>
<polygon fill="midnightblue" stroke="midnightblue" points="524.79,-105 514.79,-108.5 524.79,-112 524.79,-105"/>
</g>
<!-- Node9 -->
<g id="node10" class="node">
<title>Node9</title>
<g id="a_node10"><a xlink:href="d7/d81/class_kratos_1_1_linear_associative_plastic_flow_rule.html" target="_top" xlink:title="Short class definition.">
<polygon fill="none" stroke="black" points="372.5,-49.5 372.5,-79.5 512.5,-79.5 512.5,-49.5 372.5,-49.5"/>
<text text-anchor="start" x="380.5" y="-67.5" font-family="Helvetica,sans-Serif" font-size="10.00">Kratos::LinearAssociative</text>
<text text-anchor="middle" x="442.5" y="-56.5" font-family="Helvetica,sans-Serif" font-size="10.00">PlasticFlowRule</text>
</a>
</g>
</g>
<!-- Node8&#45;&gt;Node9 -->
<g id="edge9" class="edge">
<title>Node8&#45;&gt;Node9</title>
<path fill="none" stroke="midnightblue" d="M316.29,-64.5C335.05,-64.5 354.56,-64.5 372.45,-64.5"/>
<polygon fill="midnightblue" stroke="midnightblue" points="316.26,-61 306.26,-64.5 316.26,-68 316.26,-61"/>
</g>
<!-- Node10 -->
<g id="node11" class="node">
<title>Node10</title>
<g id="a_node11"><a xlink:href="da/dce/class_kratos_1_1_non_linear_rate_dependent_plastic_flow_rule.html" target="_top" xlink:title="Short class definition.">
<polygon fill="none" stroke="black" points="353,-0.5 353,-30.5 532,-30.5 532,-0.5 353,-0.5"/>
<text text-anchor="start" x="361" y="-18.5" font-family="Helvetica,sans-Serif" font-size="10.00">Kratos::NonLinearRateDependent</text>
<text text-anchor="middle" x="442.5" y="-7.5" font-family="Helvetica,sans-Serif" font-size="10.00">PlasticFlowRule</text>
</a>
</g>
</g>
<!-- Node8&#45;&gt;Node10 -->
<g id="edge10" class="edge">
<title>Node8&#45;&gt;Node10</title>
<path fill="none" stroke="midnightblue" d="M302.87,-47.17C326.68,-41.73 352.76,-35.77 375.81,-30.51"/>
<polygon fill="midnightblue" stroke="midnightblue" points="301.78,-43.83 292.81,-49.47 303.34,-50.65 301.78,-43.83"/>
</g>
</g>
</svg>
