<?xml version="1.0" encoding="UTF-8" standalone="no"?>
<!DOCTYPE svg PUBLIC "-//W3C//DTD SVG 1.1//EN"
 "http://www.w3.org/Graphics/SVG/1.1/DTD/svg11.dtd">
<!-- Generated by graphviz version 2.43.0 (0)
 -->
<!-- Title: Graphical Class Hierarchy Pages: 1 -->
<svg width="359pt" height="186pt"
 viewBox="0.00 0.00 359.00 186.00" xmlns="http://www.w3.org/2000/svg" xmlns:xlink="http://www.w3.org/1999/xlink">
<g id="graph0" class="graph" transform="scale(1 1) rotate(0) translate(4 182)">
<title>Graphical Class Hierarchy</title>
<!-- Node0 -->
<g id="node1" class="node">
<title>Node0</title>
<g id="a_node1"><a xlink:href="d6/dbc/class_kratos_1_1_mapper_local_system.html" target="_top" xlink:title="This is the &quot;Condition&quot; of the mappers.">
<polygon fill="none" stroke="black" points="0,-79 0,-98 153,-98 153,-79 0,-79"/>
<text text-anchor="middle" x="76.5" y="-86" font-family="Helvetica,sans-Serif" font-size="10.00">Kratos::MapperLocalSystem</text>
</a>
</g>
</g>
<!-- Node1 -->
<g id="node2" class="node">
<title>Node1</title>
<g id="a_node2"><a xlink:href="dc/dce/class_kratos_1_1_barycentric_local_system.html" target="_top" xlink:title=" ">
<polygon fill="none" stroke="black" points="202.5,-147.5 202.5,-177.5 337.5,-177.5 337.5,-147.5 202.5,-147.5"/>
<text text-anchor="start" x="210.5" y="-165.5" font-family="Helvetica,sans-Serif" font-size="10.00">Kratos::BarycentricLocal</text>
<text text-anchor="middle" x="270" y="-154.5" font-family="Helvetica,sans-Serif" font-size="10.00">System</text>
</a>
</g>
</g>
<!-- Node0&#45;&gt;Node1 -->
<g id="edge1" class="edge">
<title>Node0&#45;&gt;Node1</title>
<path fill="none" stroke="midnightblue" d="M106.13,-102.58C128.41,-113.23 160.25,-127.79 189,-138.5 197.42,-141.64 206.46,-144.66 215.32,-147.45"/>
<polygon fill="midnightblue" stroke="midnightblue" points="107.44,-99.33 96.92,-98.14 104.4,-105.63 107.44,-99.33"/>
</g>
<!-- Node2 -->
<g id="node3" class="node">
<title>Node2</title>
<g id="a_node3"><a xlink:href="dd/d5b/class_kratos_1_1_coupling_geometry_local_system.html" target="_top" xlink:title=" ">
<polygon fill="none" stroke="black" points="197,-98.5 197,-128.5 343,-128.5 343,-98.5 197,-98.5"/>
<text text-anchor="start" x="205" y="-116.5" font-family="Helvetica,sans-Serif" font-size="10.00">Kratos::CouplingGeometry</text>
<text text-anchor="middle" x="270" y="-105.5" font-family="Helvetica,sans-Serif" font-size="10.00">LocalSystem</text>
</a>
</g>
</g>
<!-- Node0&#45;&gt;Node2 -->
<g id="edge2" class="edge">
<title>Node0&#45;&gt;Node2</title>
<path fill="none" stroke="midnightblue" d="M160.53,-99.34C172.64,-100.92 185.02,-102.54 196.89,-104.09"/>
<polygon fill="midnightblue" stroke="midnightblue" points="160.81,-95.85 150.44,-98.02 159.91,-102.79 160.81,-95.85"/>
</g>
<!-- Node3 -->
<g id="node4" class="node">
<title>Node3</title>
<g id="a_node4"><a xlink:href="dc/dae/class_kratos_1_1_nearest_element_local_system.html" target="_top" xlink:title=" ">
<polygon fill="none" stroke="black" points="191,-49.5 191,-79.5 349,-79.5 349,-49.5 191,-49.5"/>
<text text-anchor="start" x="199" y="-67.5" font-family="Helvetica,sans-Serif" font-size="10.00">Kratos::NearestElementLocal</text>
<text text-anchor="middle" x="270" y="-56.5" font-family="Helvetica,sans-Serif" font-size="10.00">System</text>
</a>
</g>
</g>
<!-- Node0&#45;&gt;Node3 -->
<g id="edge3" class="edge">
<title>Node0&#45;&gt;Node3</title>
<path fill="none" stroke="midnightblue" d="M163.39,-77.74C172.49,-76.59 181.71,-75.44 190.72,-74.31"/>
<polygon fill="midnightblue" stroke="midnightblue" points="162.67,-74.3 153.19,-79.01 163.54,-81.24 162.67,-74.3"/>
</g>
<!-- Node4 -->
<g id="node5" class="node">
<title>Node4</title>
<g id="a_node5"><a xlink:href="dc/dde/class_kratos_1_1_nearest_neighbor_local_system.html" target="_top" xlink:title=" ">
<polygon fill="none" stroke="black" points="189,-0.5 189,-30.5 351,-30.5 351,-0.5 189,-0.5"/>
<text text-anchor="start" x="197" y="-18.5" font-family="Helvetica,sans-Serif" font-size="10.00">Kratos::NearestNeighborLocal</text>
<text text-anchor="middle" x="270" y="-7.5" font-family="Helvetica,sans-Serif" font-size="10.00">System</text>
</a>
</g>
</g>
<!-- Node0&#45;&gt;Node4 -->
<g id="edge4" class="edge">
<title>Node0&#45;&gt;Node4</title>
<path fill="none" stroke="midnightblue" d="M107.45,-74.6C129.7,-64.52 160.94,-50.89 189,-40.5 198.28,-37.06 208.27,-33.69 217.95,-30.59"/>
<polygon fill="midnightblue" stroke="midnightblue" points="105.85,-71.49 98.2,-78.82 108.75,-77.86 105.85,-71.49"/>
</g>
</g>
</svg>
