<?xml version="1.0" encoding="UTF-8" standalone="no"?>
<!DOCTYPE svg PUBLIC "-//W3C//DTD SVG 1.1//EN"
 "http://www.w3.org/Graphics/SVG/1.1/DTD/svg11.dtd">
<!-- Generated by graphviz version 2.43.0 (0)
 -->
<!-- Title: Graphical Class Hierarchy Pages: 1 -->
<svg width="344pt" height="110pt"
 viewBox="0.00 0.00 344.00 110.00" xmlns="http://www.w3.org/2000/svg" xmlns:xlink="http://www.w3.org/1999/xlink">
<g id="graph0" class="graph" transform="scale(1 1) rotate(0) translate(4 106)">
<title>Graphical Class Hierarchy</title>
<!-- Node6448 -->
<g id="node1" class="node">
<title>Node6448</title>
<g id="a_node1"><a xlink:title=" ">
<polygon fill="none" stroke="#bfbfbf" points="0,-41.5 0,-60.5 132,-60.5 132,-41.5 0,-41.5"/>
<text text-anchor="middle" x="66" y="-48.5" font-family="Helvetica,sans-Serif" font-size="10.00">TrilinosMeshSolverBase</text>
</a>
</g>
</g>
<!-- Node0 -->
<g id="node2" class="node">
<title>Node0</title>
<g id="a_node2"><a xlink:href="dc/d08/classtrilinos__mesh__solver__laplacian_1_1_trilinos_mesh_solver_laplacian.html" target="_top" xlink:title=" ">
<polygon fill="none" stroke="black" points="171.5,-60.5 171.5,-101.5 332.5,-101.5 332.5,-60.5 171.5,-60.5"/>
<text text-anchor="start" x="179.5" y="-89.5" font-family="Helvetica,sans-Serif" font-size="10.00">trilinos_mesh_solver</text>
<text text-anchor="start" x="179.5" y="-78.5" font-family="Helvetica,sans-Serif" font-size="10.00">_laplacian.TrilinosMeshSolver</text>
<text text-anchor="middle" x="252" y="-67.5" font-family="Helvetica,sans-Serif" font-size="10.00">Laplacian</text>
</a>
</g>
</g>
<!-- Node6448&#45;&gt;Node0 -->
<g id="edge1" class="edge">
<title>Node6448&#45;&gt;Node0</title>
<path fill="none" stroke="midnightblue" d="M135.59,-62.18C147.3,-64.09 159.54,-66.09 171.49,-68.04"/>
<polygon fill="midnightblue" stroke="midnightblue" points="135.9,-58.69 125.47,-60.53 134.78,-65.6 135.9,-58.69"/>
</g>
<!-- Node6450 -->
<g id="node3" class="node">
<title>Node6450</title>
<g id="a_node3"><a xlink:href="d3/d56/classtrilinos__mesh__solver__structural__similarity_1_1_trilinos_mesh_solver_structural_similarity.html" target="_top" xlink:title=" ">
<polygon fill="none" stroke="black" points="168,-0.5 168,-41.5 336,-41.5 336,-0.5 168,-0.5"/>
<text text-anchor="start" x="176" y="-29.5" font-family="Helvetica,sans-Serif" font-size="10.00">trilinos_mesh_solver</text>
<text text-anchor="start" x="176" y="-18.5" font-family="Helvetica,sans-Serif" font-size="10.00">_structural_similarity.Trilinos</text>
<text text-anchor="middle" x="252" y="-7.5" font-family="Helvetica,sans-Serif" font-size="10.00">MeshSolverStructuralSimilarity</text>
</a>
</g>
</g>
<!-- Node6448&#45;&gt;Node6450 -->
<g id="edge2" class="edge">
<title>Node6448&#45;&gt;Node6450</title>
<path fill="none" stroke="midnightblue" d="M135.43,-39.84C145.99,-38.12 156.98,-36.33 167.82,-34.56"/>
<polygon fill="midnightblue" stroke="midnightblue" points="134.78,-36.4 125.47,-41.47 135.9,-43.31 134.78,-36.4"/>
</g>
</g>
</svg>
