<?xml version="1.0" encoding="UTF-8" standalone="no"?>
<!DOCTYPE svg PUBLIC "-//W3C//DTD SVG 1.1//EN"
 "http://www.w3.org/Graphics/SVG/1.1/DTD/svg11.dtd">
<!-- Generated by graphviz version 2.43.0 (0)
 -->
<!-- Title: Graphical Class Hierarchy Pages: 1 -->
<svg width="383pt" height="269pt"
 viewBox="0.00 0.00 383.00 268.50" xmlns="http://www.w3.org/2000/svg" xmlns:xlink="http://www.w3.org/1999/xlink">
<g id="graph0" class="graph" transform="scale(1 1) rotate(0) translate(4 264.5)">
<title>Graphical Class Hierarchy</title>
<!-- Node6118 -->
<g id="node1" class="node">
<title>Node6118</title>
<g id="a_node1"><a xlink:title=" ">
<polygon fill="none" stroke="#bfbfbf" points="0,-110 0,-129 152,-129 152,-110 0,-110"/>
<text text-anchor="middle" x="76" y="-117" font-family="Helvetica,sans-Serif" font-size="10.00">CoSimulationCoupledSolver</text>
</a>
</g>
</g>
<!-- Node0 -->
<g id="node2" class="node">
<title>Node0</title>
<g id="a_node2"><a xlink:href="d2/d30/classcoupled__solvers_1_1feti__dynamic__coupled__solver_1_1_feti_dynamic_coupled_solver.html" target="_top" xlink:title=" ">
<polygon fill="none" stroke="black" points="200,-219 200,-260 363,-260 363,-219 200,-219"/>
<text text-anchor="start" x="208" y="-248" font-family="Helvetica,sans-Serif" font-size="10.00">coupled_solvers.feti</text>
<text text-anchor="start" x="208" y="-237" font-family="Helvetica,sans-Serif" font-size="10.00">_dynamic_coupled_solver.Feti</text>
<text text-anchor="middle" x="281.5" y="-226" font-family="Helvetica,sans-Serif" font-size="10.00">DynamicCoupledSolver</text>
</a>
</g>
</g>
<!-- Node6118&#45;&gt;Node0 -->
<g id="edge1" class="edge">
<title>Node6118&#45;&gt;Node0</title>
<path fill="none" stroke="midnightblue" d="M93.48,-136.2C113.98,-156.14 150.85,-189.33 188,-209.5 194.38,-212.96 201.23,-216.11 208.2,-218.95"/>
<polygon fill="midnightblue" stroke="midnightblue" points="95.79,-133.56 86.21,-129.02 90.86,-138.54 95.79,-133.56"/>
</g>
<!-- Node6120 -->
<g id="node3" class="node">
<title>Node6120</title>
<g id="a_node3"><a xlink:href="d6/dd4/classcoupled__solvers_1_1gauss__seidel__strong_1_1_gauss_seidel_strong_coupled_solver.html" target="_top" xlink:title=" ">
<polygon fill="none" stroke="black" points="190.5,-159 190.5,-200 372.5,-200 372.5,-159 190.5,-159"/>
<text text-anchor="start" x="198.5" y="-188" font-family="Helvetica,sans-Serif" font-size="10.00">coupled_solvers.gauss</text>
<text text-anchor="start" x="198.5" y="-177" font-family="Helvetica,sans-Serif" font-size="10.00">_seidel_strong.GaussSeidelStrong</text>
<text text-anchor="middle" x="281.5" y="-166" font-family="Helvetica,sans-Serif" font-size="10.00">CoupledSolver</text>
</a>
</g>
</g>
<!-- Node6118&#45;&gt;Node6120 -->
<g id="edge2" class="edge">
<title>Node6118&#45;&gt;Node6120</title>
<path fill="none" stroke="midnightblue" d="M118.96,-131.87C145.46,-139.69 180.34,-149.97 210.91,-158.98"/>
<polygon fill="midnightblue" stroke="midnightblue" points="119.83,-128.48 109.25,-129.01 117.85,-135.19 119.83,-128.48"/>
</g>
<!-- Node6121 -->
<g id="node4" class="node">
<title>Node6121</title>
<g id="a_node4"><a xlink:href="df/d35/classcoupled__solvers_1_1gauss__seidel__weak_1_1_gauss_seidel_weak_coupled_solver.html" target="_top" xlink:title=" ">
<polygon fill="none" stroke="black" points="195,-99 195,-140 368,-140 368,-99 195,-99"/>
<text text-anchor="start" x="203" y="-128" font-family="Helvetica,sans-Serif" font-size="10.00">coupled_solvers.gauss</text>
<text text-anchor="start" x="203" y="-117" font-family="Helvetica,sans-Serif" font-size="10.00">_seidel_weak.GaussSeidelWeak</text>
<text text-anchor="middle" x="281.5" y="-106" font-family="Helvetica,sans-Serif" font-size="10.00">CoupledSolver</text>
</a>
</g>
</g>
<!-- Node6118&#45;&gt;Node6121 -->
<g id="edge3" class="edge">
<title>Node6118&#45;&gt;Node6121</title>
<path fill="none" stroke="midnightblue" d="M162.43,-119.5C173.19,-119.5 184.2,-119.5 194.97,-119.5"/>
<polygon fill="midnightblue" stroke="midnightblue" points="162.2,-116 152.2,-119.5 162.2,-123 162.2,-116"/>
</g>
<!-- Node6122 -->
<g id="node5" class="node">
<title>Node6122</title>
<g id="a_node5"><a xlink:href="d9/df3/classcoupled__solvers_1_1jacobi__strong_1_1_jacobi_strong_coupled_solver.html" target="_top" xlink:title=" ">
<polygon fill="none" stroke="black" points="188,-49.5 188,-79.5 375,-79.5 375,-49.5 188,-49.5"/>
<text text-anchor="start" x="196" y="-67.5" font-family="Helvetica,sans-Serif" font-size="10.00">coupled_solvers.jacobi</text>
<text text-anchor="middle" x="281.5" y="-56.5" font-family="Helvetica,sans-Serif" font-size="10.00">_strong.JacobiStrongCoupledSolver</text>
</a>
</g>
</g>
<!-- Node6118&#45;&gt;Node6122 -->
<g id="edge4" class="edge">
<title>Node6118&#45;&gt;Node6122</title>
<path fill="none" stroke="midnightblue" d="M122.31,-107.25C152.56,-99.08 192.55,-88.27 224.76,-79.57"/>
<polygon fill="midnightblue" stroke="midnightblue" points="121.19,-103.93 112.45,-109.92 123.01,-110.69 121.19,-103.93"/>
</g>
<!-- Node6123 -->
<g id="node6" class="node">
<title>Node6123</title>
<g id="a_node6"><a xlink:href="d4/da9/classcoupled__solvers_1_1jacobi__weak_1_1_jacobi_weak_coupled_solver.html" target="_top" xlink:title=" ">
<polygon fill="none" stroke="black" points="192.5,-0.5 192.5,-30.5 370.5,-30.5 370.5,-0.5 192.5,-0.5"/>
<text text-anchor="start" x="200.5" y="-18.5" font-family="Helvetica,sans-Serif" font-size="10.00">coupled_solvers.jacobi</text>
<text text-anchor="middle" x="281.5" y="-7.5" font-family="Helvetica,sans-Serif" font-size="10.00">_weak.JacobiWeakCoupledSolver</text>
</a>
</g>
</g>
<!-- Node6118&#45;&gt;Node6123 -->
<g id="edge5" class="edge">
<title>Node6118&#45;&gt;Node6123</title>
<path fill="none" stroke="midnightblue" d="M95.64,-103.04C116.7,-85.25 152.66,-57.19 188,-40.5 195.97,-36.73 204.61,-33.46 213.29,-30.63"/>
<polygon fill="midnightblue" stroke="midnightblue" points="93.13,-100.59 87.82,-109.76 97.69,-105.9 93.13,-100.59"/>
</g>
</g>
</svg>
